<svg xmlns="http://www.w3.org/2000/svg" xmlns:xlink="http://www.w3.org/1999/xlink" viewBox="0 0 366.44 114.42"><defs><style>.cls-1,.cls-6{fill:none;}.cls-2{isolation:isolate;}.cls-3{font-size:59px;font-family:ArialMT, Arial;}.cls-3,.cls-8{fill:#fff;}.cls-4{font-size:24px;}.cls-5{clip-path:url(#clip-path);}.cls-6{stroke:#fff;stroke-miterlimit:10;stroke-width:2.12px;}.cls-7{mix-blend-mode:hard-light;}</style><clipPath id="clip-path" transform="translate(-1.62)"><rect class="cls-1" y="8.25" width="145.87" height="73.31"/></clipPath></defs><title>60</title><g class="cls-2"><g id="Layer_2" data-name="Layer 2"><g id="Layer_1-2" data-name="Layer 1"><text class="cls-3" transform="translate(153.01 50.63)">60%<tspan class="cls-4" x="118.09" y="0"> </tspan><tspan class="cls-4"><tspan x="0" y="28">of the market share.</tspan></tspan></text><g class="cls-5"><path class="cls-6" d="M73,2.54C34.3,2.45,2.68,18.58,2.68,44.74,2.68,70,34.1,87.17,72.84,87.26s70.36-16,70.36-42.19S111.77,2.64,73,2.54Z" transform="translate(-1.62)"/><g class="cls-7"><path class="cls-8" d="M85.13,62.59c0,.12,0,.36-.07.43a6.12,6.12,0,0,1-.85,1c-.35.25-.79.2-.79.91,0,.23.18.59.18.75s-.24.65-.24.65a.87.87,0,0,0-.24.29.76.76,0,0,0,.14.58c0,.1,0,.17,0,.36,0,.38.27.8.57.8.74,0,.85-1,1.06-1.62a7.72,7.72,0,0,0,.54-2.61l.21.07V64C85.51,63.59,85.55,62.65,85.13,62.59Z" transform="translate(-1.62)"/><path class="cls-8" d="M95.72,54.57c0,.2.13.41.3.41s.39-.33.39-.59c0-.46-.35-.64-.52-1C95.89,53.83,95.72,54.15,95.72,54.57Z" transform="translate(-1.62)"/><path class="cls-8" d="M104.69,59.62c0-.15-.06-.35.06-.41v-.62c0-.15-.17-.19-.24-.27s-.28-.25-.28-.55c-.13,0-.23,0-.23-.23l0-.15c0-.06-.06-.13-.11-.13h-.1s0-.06,0-.07c0-.22-.21-.29-.39-.36a1.59,1.59,0,0,1-.7-.59c-.12-.15-.21-.32-.39-.39s-.11,0-.13-.07c-.1-.23-.18-.45-.45-.55h-.4c-.1-.06-.12-.13-.24-.13h-.07v.12c0,.15.23.55.33.58s.23,0,.28.13l.18.43c.08.2.36.15.45.48a1.63,1.63,0,0,0,.17.51s.18,0,.19.07,0,.13,0,.13a1.22,1.22,0,0,1,.2.36,2.91,2.91,0,0,0,.47.88c.22.26.44.38.66.65,0,0,.23.39.29.39S104.69,59.78,104.69,59.62Z" transform="translate(-1.62)"/><path class="cls-8" d="M105.82,57.07a1.85,1.85,0,0,0,.18.61c.06,0,.13,0,.16.09s0,.06,0,.07c.16.29,0,.8.41.8.1,0,.16-.09.25-.07s0,.22,0,.22.06.07.1.07.21-.16.3-.16.34.17.53.23c0,.09,0,.2.16.2s.18-.17.38-.23c0-.16.14-.38.14-.49s-.06-.1-.06-.2a.43.43,0,0,1,.27-.33,3.57,3.57,0,0,1,.16-.65l.06-.14.12,0c.13,0,.23.07.27-.15-.22,0-.54-.72-.54-.94a.13.13,0,0,1,.08-.1s0-.09,0-.13a2.06,2.06,0,0,0,.35-.2s0,0,0-.07.27,0,.27-.17c0-.29-.51-.12-.51-.42s0-.36-.18-.36-.46.55-.56.78-.33,0-.43.17,0,.1-.07.12,0,.06-.12.1-.13.12-.08.17-.1.26-.28.3-.26,0-.34.13-.12.65-.5.65C106.07,56.92,105.82,56.82,105.82,57.07Z" transform="translate(-1.62)"/><path class="cls-8" d="M110.07,57.24c.21,0,.29-.06.46-.06s.27.1.42.1.33-.24.36-.46c0,0,0-.07.06-.12h-.07a3.21,3.21,0,0,0-.39.33h-.1l-.85-.18c-.31,0-.46.48-.46.83,0,.09-.1.16-.11.22a2.84,2.84,0,0,0-.22.78c0,.17.17.17.24.19v.7a.21.21,0,0,0,.19.19c.14,0,.18-.51.18-.58s-.11-.29-.11-.48a.18.18,0,0,1,.18-.17s.06,0,.1,0l0,.3c0,.19.19.26.19.45a.48.48,0,0,1,0,.13h.16c0-.16.27-.14.27-.3a.41.41,0,0,1-.17-.26s0-.06,0-.09a2.41,2.41,0,0,1-.3-.61c.34,0,.36-.32.64-.42v-.12a2.68,2.68,0,0,0-.73.26l0-.06c0,.07-.06.15-.13.15s-.25-.28-.25-.49S109.87,57.24,110.07,57.24Z" transform="translate(-1.62)"/><path class="cls-8" d="M107.75,60.91c.15,0,.13.1.25.1s.11-.1.13-.16-.08-.09-.19-.13-.21.07-.29,0,0-.13-.1-.13a.58.58,0,0,1-.51-.19s.44,0,.45-.1h-.1l-.36.06c-.22,0-.3-.26-.54-.26s-.18.22-.36.22c-.4,0-.56-.46-.92-.46-.07,0-.12.09-.19.09s-.06-.06-.1-.06-.29.26-.3.3c.18,0,.28.17.4.32s.3,0,.48.07a1.85,1.85,0,0,0,.67.1c.12,0,.16.19.3.19a2.86,2.86,0,0,1,1.28.22S107.72,60.91,107.75,60.91Z" transform="translate(-1.62)"/><path class="cls-8" d="M110.29,61.1a.5.5,0,0,0,.35-.29c-.11.06-.17.14-.35.14s-.27-.1-.48-.1-.22,0-.22.1.18.15.27.15Z" transform="translate(-1.62)"/><path class="cls-8" d="M109,60.86s0,.07,0,.12a.46.46,0,0,0-.23-.06c-.11,0-.21,0-.21.14s.15.1.24.1.17-.09.29-.15l.1.06h.11s0-.1,0-.22Z" transform="translate(-1.62)"/><path class="cls-8" d="M109.68,61.27h-.12c-.09,0-.23,0-.23.09s.19.16.31.16,0,.19.07.19h0a.12.12,0,0,0,.1-.1C109.86,61.43,109.68,61.47,109.68,61.27Z" transform="translate(-1.62)"/><path class="cls-8" d="M108.37,60.85h-.11V61a.13.13,0,0,0,.1.1c.06,0,.11-.06.12-.15S108.43,60.85,108.37,60.85Z" transform="translate(-1.62)"/><path class="cls-8" d="M111.36,61.3a1,1,0,0,0,.71-.33.92.92,0,0,0-.76.12s0,.11-.06.13-.41.07-.41.39c0,.06,0,.13.09.13a.75.75,0,0,0,.4-.25S111.3,61.3,111.36,61.3Z" transform="translate(-1.62)"/><path class="cls-8" d="M114.7,59.85c0-.1,0,0,0-.16s-.07.14-.07.25-.12.1-.12.24,0,.12.07.12.07-.16.07-.31S114.7,59.94,114.7,59.85Z" transform="translate(-1.62)"/><path class="cls-8" d="M111.71,58.75c0,.12.14.28.22.28s.12-.16.12-.19S111.71,58.57,111.71,58.75Z" transform="translate(-1.62)"/><path class="cls-8" d="M112.34,58.75a1.31,1.31,0,0,0,.22.06h.28c.17,0,.25.14.42.14s.07,0,.07,0-.13-.15-.15-.26h0c-.07,0-.16,0-.18-.06h-.54S112.34,58.67,112.34,58.75Z" transform="translate(-1.62)"/><path class="cls-8" d="M112.29,56.44a.31.31,0,0,0-.11.29c0,.19.1.25.1.4v.19c0,.09,0,.28.16.28-.06-.1-.09-.16-.13-.25v-.1l.28,0c0-.12-.1-.14-.1-.22s.12-.1.12-.19A.39.39,0,0,1,112.29,56.44Z" transform="translate(-1.62)"/><path class="cls-8" d="M119.49,59.69c0,.17.21.15.32.25h0l0,0,0,0a.45.45,0,0,0,.18.1c.25,0,.36-.16.58-.22,0-.26.25-.2.25-.51,0-.09,0-.22-.11-.22s-.1.32-.27.42-.29,0-.47.12c0,0-.11.06-.13,0Z" transform="translate(-1.62)"/><path class="cls-8" d="M118.88,59.82c-.29-.17-.28-.57-.67-.71-.06,0-.16,0-.16-.14s-.22-.2-.36-.2a1.49,1.49,0,0,1-.82-.3v0h0l0,0,0,0a.48.48,0,0,1-.21-.12h-.33c-.07,0-.17-.22-.31-.28s-.13,0-.14-.07-.29.29-.4.33a.47.47,0,0,0-.29.19s-.13.25-.22.25-.24-.23-.24-.29-.18-.06-.18-.13v-.52c-.22-.06-.38-.29-.58-.29s-.3.25-.45.25-.17,0-.17.13.29.12.38.32c0,0,0,.12.07.13a.72.72,0,0,0,.17,0,1,1,0,0,0,.35-.06h.09c-.09.17-.45.14-.62.25,0,.12.16.06.22.17s0,.18.06.32.08,0,.12,0,.15-.14.18-.26V59c.19-.07.27.3.45.3a1.79,1.79,0,0,1,.65.15c.12.07.46.23.51.41s0,.42.16.62c-.07,0-.3.12-.3.29s.11.12.19.12h.26c0-.07.13-.09.18-.09.31,0,.4.45.71.45h.46c0-.1.11-.16.06-.35.17-.1.14-.36.45-.36s.62.4.86.7c0,0,.12.06.12.12s.28.32.46.36h.32a1.18,1.18,0,0,0,.23.17h.07a.33.33,0,0,1,.16-.23s-.22,0-.24-.06,0-.15-.12-.17-.12,0-.14,0-.06-.16-.1-.16a.37.37,0,0,1-.27-.14c-.1-.17-.07-.28-.19-.42s-.23-.27-.23-.35.23-.07.23-.23C119.26,59.73,119,59.89,118.88,59.82Z" transform="translate(-1.62)"/><path class="cls-8" d="M120.9,58.88a1.15,1.15,0,0,0-.47-.42c0,.12.12.1.22.17s.13.28.29.36c0,.14,0,.25.12.28s0,0,.07,0a.31.31,0,0,1,0-.1C121.13,59,121,59,120.9,58.88Z" transform="translate(-1.62)"/><path class="cls-8" d="M121.69,59.65c0,.15,0,.29.17.32v.12s0,.1.07.1.08-.07.08-.12A1.89,1.89,0,0,0,121.69,59.65Z" transform="translate(-1.62)"/><path class="cls-8" d="M124,61.59c0,.09.07.3.19.3s0-.06,0-.09S124.12,61.66,124,61.59Z" transform="translate(-1.62)"/><path class="cls-8" d="M123.49,61.36c0,.17.19.23.34.23l.06,0A.41.41,0,0,0,123.49,61.36Z" transform="translate(-1.62)"/><path class="cls-8" d="M123.55,60.79c0,.11.23.46.35.46A.79.79,0,0,0,123.55,60.79Z" transform="translate(-1.62)"/><path class="cls-8" d="M122.84,60.49h0c0,.16.28.28.37.28a.19.19,0,0,0,.1,0c-.07-.13-.31-.22-.42-.29Z" transform="translate(-1.62)"/><path class="cls-8" d="M122.27,60.08l.06,0s0,0-.06,0l.18.14h.11C122.49,60.15,122.4,60.2,122.27,60.08Z" transform="translate(-1.62)"/><path class="cls-8" d="M118.77,75.37s-.66-.23-.66,0,.4,1.38.76,1.38.57-.77.57-1.09-.1-.26-.13-.43A2,2,0,0,1,118.77,75.37Z" transform="translate(-1.62)"/><path class="cls-8" d="M119.38,75.08a.85.85,0,0,0,0-.24.29.29,0,0,1-.16,0C119.26,75,119.27,75,119.38,75.08Z" transform="translate(-1.62)"/><path class="cls-8" d="M115.33,72.95a.3.3,0,0,0,.42,0C115.58,72.85,115.56,72.82,115.33,72.95Z" transform="translate(-1.62)"/><path class="cls-8" d="M113.43,62.33h.12v-.22a1.25,1.25,0,0,0-.48.07A.57.57,0,0,0,113.43,62.33Z" transform="translate(-1.62)"/><path class="cls-8" d="M120.9,68c-.23-.28-.69-.52-.69-1.1-.16,0-.35,0-.4-.19a1.61,1.61,0,0,0-.22-.65c-.2-.25-.73-.38-.82-.72s-.19-.55-.3-.94c-.06-.23-.06-.7-.21-.81l-.4-.16c-.13-.12-.07-.38-.12-.58a4.6,4.6,0,0,1-.27-.93c-.21.13-.15.32-.34.49v1.31c-.06.33-.13,1.19-.51,1.19s-.29-.32-.46-.39l-.81-.36s0-.23-.12-.29-.24,0-.24-.14l.15-.73c.1-.09.28-.1.28-.29a.34.34,0,0,0-.24-.26c-.13,0-.18.12-.34.12a2.31,2.31,0,0,1-1.09-.41c0,.16.14.2.22.33s-.13.1-.22.1-.69.13-.69.33-.18.31-.18.51a.62.62,0,0,1,0,.36s-.12-.11-.18-.11a.3.3,0,0,0-.27.16c0-.26-.15-.55-.36-.55s-.32.29-.64.29c0,.33-.27.39-.27.8-.1,0-.16-.06-.25-.12-.06.16,0,.38-.13.48,0-.1-.12-.16-.18-.29a.4.4,0,0,0-.16.36V65c0,.49-1,.9-1.43,1-.23,0-.67.07-.81.25s-.41.52-.64.55a.52.52,0,0,0,0-.15s-.13.06-.13.17v.84c0,.36.15.54.15.75s0,.13,0,.19a.6.6,0,0,1-.11-.19,2,2,0,0,0-.07.19c-.06.22.18.29.24.51.16.56.19.77.34,1.41a2.91,2.91,0,0,1,.24.91c0,.33-.28.43-.28.65s.58.51.79.51c.54,0,.73-.48,1.15-.48.14,0,.14-.12.34,0a5.88,5.88,0,0,0,.73-.1c.1-.74.86-.48,1.47-.72.27-.1.35-.33.79-.33a1.91,1.91,0,0,1,1.31.43c.1.16.36.87.45.87s0,.26.1.26.56-.75.78-1c0,.22,0,1-.35,1a.14.14,0,0,0,.12.14c.18,0,.19-.26.3-.32s0-.1,0-.14a.37.37,0,0,1,.12.29.73.73,0,0,1-.09.32h.15a.71.71,0,0,0,.24-.1s0,.07,0,.07c0,.19.17.36.17.58,0,.59.77,1,1.25,1,.3,0,.21-.29.48-.32a1.75,1.75,0,0,0,.6.44c.1-.7,1.09-.39,1.22-1.06v0a4.54,4.54,0,0,1,.35-1.3,4,4,0,0,1,.56-1c.06-.11,0-.17.08-.29v-.41a2,2,0,0,0,.18-.9,3.77,3.77,0,0,0-.31-1.52Z" transform="translate(-1.62)"/><path class="cls-8" d="M129.69,64.93v-.17a.22.22,0,0,1-.15-.13c-.11,0-.28.09-.28.27s.16.09.25.09S129.62,65,129.69,64.93Z" transform="translate(-1.62)"/><path class="cls-8" d="M129.76,64.4s0,.13.07.13.16-.14.3-.19v-.13C130.06,64.21,129.76,64.23,129.76,64.4Z" transform="translate(-1.62)"/><path class="cls-8" d="M111.5,53.32a1.78,1.78,0,0,1,0,.3c0,.07-.23,0-.24.2-.07,0-.1.07-.1.16h-.07c-.08,0-.05-.2-.19-.2s-.15.27-.38.27a1.69,1.69,0,0,0-.07.33s0,.09,0,.13-.09.29,0,.29.11-.41.22-.54a.57.57,0,0,0,.11.12l0-.06a.13.13,0,0,0,.11.06.42.42,0,0,1,0-.11h.15l0,.13s-.06.06-.06.15c0,.24.13.44.28.45s.08,0,.11,0,0,.1.05.1.12-.07.12-.18-.13-.18-.13-.27.06-.1.1-.17.05.06.06.1v0c0,.07.1.29.13.3,0-.21.14-.29.14-.43a3.91,3.91,0,0,0-.26-1A.26.26,0,0,0,111.5,53.32Z" transform="translate(-1.62)"/><path class="cls-8" d="M108.93,53.82H109a.87.87,0,0,0,.39-.55.16.16,0,0,0,.19-.13c.05,0,.07,0,.11-.07a.25.25,0,0,1-.1-.2s0,.1-.06.16C109.42,53.3,109,53.44,108.93,53.82Z" transform="translate(-1.62)"/><path class="cls-8" d="M109.54,51.16c0,.07.2.23.24.23s.06,0,.08-.09h.06v.13a.19.19,0,0,0-.07.14.21.21,0,0,0,.16.18c.07,0,.11-.07.18-.07s.16.28.32.28c0-.1-.06-.15,0-.24.06.11.33.23.39.39s0,.1.05.1,0-.05,0-.08,0-.06,0-.1a.14.14,0,0,1-.14-.15s-.08,0-.08,0,.06-.07.07-.15l-.06,0s-.06.09-.1.09-.1-.29-.23-.29a.12.12,0,0,0-.12.1s0,.05,0,.06a.84.84,0,0,1-.27-.57c0-.26.2-.28.21-.56s-.14-.41-.14-.57,0-.06,0-.09,0-.05,0-.06-.08.12-.15.12-.07-.23-.2-.23-.11.12-.11.25,0,.25,0,.41a1,1,0,0,1-.07.38C109.5,50.69,109.54,51,109.54,51.16Z" transform="translate(-1.62)"/><path class="cls-8" d="M111.39,52.29c-.09,0-.15-.05-.24-.06s-.07,0-.1,0,.26.2.26.37,0,.07-.06.07h-.14v.08s.09.17.16.17V53c0,.07,0,.18.05.18h.1v-.08a.42.42,0,0,1-.09-.25h.16s0-.09,0-.16a.72.72,0,0,1-.09-.12,1.17,1.17,0,0,0,0-.2h-.07A.44.44,0,0,0,111.39,52.29Z" transform="translate(-1.62)"/><path class="cls-8" d="M110.44,52.54s0,0,0,0-.07,0-.07.06,0,.35,0,.57c.1-.07.36-.18.36-.4S110.52,52.59,110.44,52.54Z" transform="translate(-1.62)"/><path class="cls-8" d="M110.77,52.91c-.06,0-.12.33-.12.36s-.1,0-.1.07a.65.65,0,0,0,.24.33s.07,0,.07-.06-.06-.05-.05-.17.13-.25.13-.4S110.88,52.87,110.77,52.91Z" transform="translate(-1.62)"/><path class="cls-8" d="M110.87,53.41h.05c0-.19.15-.25.15-.48H111A1.71,1.71,0,0,1,110.87,53.41Z" transform="translate(-1.62)"/><path class="cls-8" d="M111.22,53.25s-.09,0-.14,0-.1.11-.1.19a.09.09,0,0,0,.06.06C111.14,53.5,111.22,53.39,111.22,53.25Z" transform="translate(-1.62)"/><path class="cls-8" d="M111,52.55c0-.16-.14-.2-.17-.32h-.1c0,.05,0,.1,0,.19a.72.72,0,0,1,.16,0C110.86,52.48,111,52.61,111,52.55Z" transform="translate(-1.62)"/><path class="cls-8" d="M110.11,52.32s.1-.15.08-.25-.15-.13-.28-.23h-.11S110,52.32,110.11,52.32Z" transform="translate(-1.62)"/><path class="cls-8" d="M110.22,51.92s.09,0,.11,0S110.25,51.9,110.22,51.92Z" transform="translate(-1.62)"/><path class="cls-8" d="M110.06,46.67c-.17,0-.42.57-.42.87s0,.41.18.41S110.37,46.67,110.06,46.67Z" transform="translate(-1.62)"/><path class="cls-8" d="M106.49,49.14c0-.09-.08-.22-.14-.22s-.57.36-.67.36,0,.13,0,.22.08.29.27.29S106.49,49.34,106.49,49.14Z" transform="translate(-1.62)"/><path class="cls-8" d="M104.78,58.33s.06.2.09.2.09.09.16.09h.08a.59.59,0,0,1,0-.14c-.17,0-.24-.27-.3-.49-.09,0-.25.11-.25.19S104.73,58.21,104.78,58.33Z" transform="translate(-1.62)"/><path class="cls-8" d="M105.5,58.7c.07,0,.12-.09.13-.17s-.07-.07-.11-.07h-.12s0,.06,0,.07S105.43,58.7,105.5,58.7Z" transform="translate(-1.62)"/><path class="cls-8" d="M102.43,57.82h-.1v.06a.59.59,0,0,0,.22.35.48.48,0,0,0-.12-.33Z" transform="translate(-1.62)"/><path class="cls-8" d="M102,56.94l-.06,0h0c0,.09.17.32.22.32S102,57,102,56.94Z" transform="translate(-1.62)"/><path class="cls-8" d="M112.94,43.15c0,.07.06.16.12.16s.08-.06.15-.06,0-.09,0-.13,0,.16.1.19l0,.2a1.67,1.67,0,0,0-.12.23c0,.06.07.23.17.23v-.09s0,.13,0,.13.27-.45.3-.71c0,0,.07,0,.11,0s0-.1,0-.15l-.11-.12s0-.1,0-.15-.22-.12-.31-.12S112.94,43.07,112.94,43.15Z" transform="translate(-1.62)"/><path class="cls-8" d="M114.06,43.27c.16,0,.18-.23.29-.36s.09.1.18.1.27-.51,0-.51-.2.25-.41.17a3,3,0,0,1-.23.22c0,.07,0,.1.1.16S114,43.27,114.06,43.27Z" transform="translate(-1.62)"/><path class="cls-8" d="M115.36,41.5c-.11,0-.18.45-.39.45h-.75c-.32,0-.42.36-.68.57,0,0-.16.06-.16.1s.09.06.17.06a1.31,1.31,0,0,0,.63-.2c.1-.06.17,0,.27,0s0-.12.12-.12.22.09.36.13,0,.16,0,.25,0,.12,0,.12.07.11.17.14c.06-.14.21-.38.29-.38h.12a.6.6,0,0,1-.12-.23s0-.12.07-.12.1.25.35.25c.1,0,.17-.09.24-.17h.12s0,.07.06.07c0-.2.16-.22.33-.35,0,.1-.06.12,0,.23.14-.06.14-.2.29-.29a.75.75,0,0,1-.06-.28c0-.19.13-.27.13-.41s0-.61.08-.65.07,0,.11,0V40.5c0-.19.17-.22.17-.45s-.17-.3-.17-.51a.79.79,0,0,0,0-.29s-.06-.07-.15-.07,0,.13,0,.13h0c-.15.14-.13,0-.16,0s-.28.36-.28.54,0,.07,0,.17a1.58,1.58,0,0,1-.66,1.17c-.14.06-.17.2-.35.2,0,0-.06,0-.06-.07a.27.27,0,0,1,.06-.16S115.37,41.5,115.36,41.5Z" transform="translate(-1.62)"/><path class="cls-8" d="M116.73,38.27c0,.1-.22.2-.22.36s.06.09.06.14v.33h.07c.1-.12.2-.06.29-.22s-.23-.06-.23-.2.2-.1.36-.1a.16.16,0,0,1,.08-.12c.21.16.33.19.52.33.1-.17.18-.51.44-.51a.52.52,0,0,0,.38-.13.24.24,0,0,1-.15-.19c0-.07,0-.1.07-.18s-.16,0-.25,0c-.47,0-.62-.46-.94-.72a.31.31,0,0,0-.07.19c0,.06.06.09.06.14s-.09.75-.29.75a.36.36,0,0,1-.12,0l0,0-.09-.07Z" transform="translate(-1.62)"/><path class="cls-8" d="M118.47,37.83s0,.13,0,.13.25-.22.3-.3l0,0A.47.47,0,0,0,118.47,37.83Z" transform="translate(-1.62)"/><path class="cls-8" d="M118.71,37.6l0,0h0Z" transform="translate(-1.62)"/><path class="cls-8" d="M119.39,37.08c-.15,0-.27.32-.27.32s0,.07,0,.07c.17,0,.17-.29.45-.29v-.1A.71.71,0,0,1,119.39,37.08Z" transform="translate(-1.62)"/><path class="cls-8" d="M120,37c.1,0,.19-.2.21-.29s-.17,0-.19.09,0,.12,0,.12S119.93,37,120,37Z" transform="translate(-1.62)"/><path class="cls-8" d="M117.66,32.91a2.25,2.25,0,0,1-.15-.67h-.08v.31c0,.07,0,.1,0,.19-.18,0-.25.43-.25.74s.18.3.18.52v.86c0,.17-.06.23-.06.45s.07.2.07.41,0,.39,0,.65c0,.07,0,.42,0,.42s.15-.32.29-.32h.12c0,.06.07.16.12.15l0,0c-.1-.25-.35-.41-.35-.74s0-.84.36-.84a.32.32,0,0,1,.25.19c-.07-.35-.23-.64-.33-1a.91.91,0,0,1-.08-.39v-.35C117.61,33.25,117.71,33.11,117.66,32.91Z" transform="translate(-1.62)"/><path class="cls-8" d="M86.21,21.21a3,3,0,0,1,.36,0c.2.07.1.3.18.51s.22,0,.3,0,.06.09.08.1h.94l0-.07c-.27-.29-.66-.42-.66-.94a2.53,2.53,0,0,1,1.45-2.1c.22-.07.28-.39.58-.39.15,0,.19-.29.27-.33.4-.23.7-.12,1.12-.36S92,17.36,92,16.86c0-.16-.34-.36-.48-.36-.6,0-1.17.83-1.81.83-.14,0-.22-.17-.36-.17s-.23.17-.39.17c-.45,0-.79.69-1.09.69s-.3.1-.48.1-.12.09-.12.15.08.14.08.26c0,.41-.63.62-.63.87s.17.15.18.32c-.19.06-.58.16-.58.41v.22c0,.26-.36.23-.36.58C86,21.09,86.21,21.21,86.21,21.21Z" transform="translate(-1.62)"/><path class="cls-8" d="M88,21.73v0l0,0Z" transform="translate(-1.62)"/><path class="cls-8" d="M131.23,23.46a6.55,6.55,0,0,0-3.63-1.38c-.39,0-.66.1-.6.29.37,1.41-.56,0-.79,0l-2.78-.07c-.16-.75-.57-1-1.39-1-.45,0-1.12.2-1.39-.07s-.25-.59-.61-.73a6.62,6.62,0,0,0-2.48-.51c-.94,0-1.08.59-1.15,1.16h-1.93c-.34,0-.39-.33-.79-.36,0,.2-.11.65-.3.65-.51,0-.72-.75-.72-1.16,0-.1,1-.84-1.51-1.09-.31,0-.48.13-.48.58h-1.33c-.4-.13-2.49-.42-2.76-.94-1.59,1.55-1.23.58-1.23.58.37-.56,4-1.75,1-2.61H105.1a1,1,0,0,0-.91-.8c-.63,0-.88.57-1.21.87s-1.81,1-1.67.29c-.4.15-2.1.28-3,1.23-.19.2-.24.8-.52.8s-1.9-.17-1.9.65c0,.17.13.35.18.58-.27.2-.36,0-1.21,0-.72,1.15-.65-.17-.82-.43a1.14,1.14,0,0,1-.63.87c.1.41.61.83.24,1.31s.49,1.41.1,1.41-.64-2.19-.64-2.64.67-.69-.36-.94c-.52-.12-1.51.9-1.51,1.45a2.13,2.13,0,0,0,.54,1.45c.67,1.26-.94-.15-1.53-.33-1.66-.51-1.12.16-1.13.26-.05,1.12-.45.22-.67.22-.37,0-1.14.61-1.69.29-.28-.85-2.09,1.09-2.54,1.09-.15,0-.36-.13-.3-.29.19-.59-.08-1.85-.61.07,0,.12.18.17.18.43,0,.51-.63.16-1,.29s-.17,1.52-1.57.8v.58c-.69-.07-.6-1-.85-1.38a3.65,3.65,0,0,1,1.31.14c.67.21,2-.8,0-1.59a16.13,16.13,0,0,0-2.3-1s0-.06-.33,0l-.4-.06c0-.09-.08-.1-.2-.22.28-.12.37,0,.48-.35a2.24,2.24,0,0,0-.42-.23c-.1,0-.15.1-.18.22s-.11-.15-.12-.33a2.14,2.14,0,0,0-.46.41.76.76,0,0,0-.06-.26c-.21.13-.28.46-.52.44,0-.2.25-.26.25-.46s-.46.17-.64.17-.18-.12-.25-.22c0,.09-.25.15-.25.22s.08.13.18.17c-.22.14-.42.06-.58.41v-.25c-.25,0-.29.35-.45.39V22.3c-.18,0-.4,0-.52.17l.1.12c-.08.06-.16,0-.24,0s-.22.12-.28.23a.28.28,0,0,1,.19,0s-.16.36-.22.36-.2-.14-.4-.14a.25.25,0,0,0,0-.26.73.73,0,0,0-.11.19s-.06,0-.1,0-.16.09-.18.23a.78.78,0,0,0,.18,0,.7.7,0,0,0-.24.2c.29,0,.41-.19.71-.26a1.62,1.62,0,0,1-.65.91,1.21,1.21,0,0,0-.57.61s-.12.33-.12.33-.07.45-.22.58c-.36.35-.57.86-1.1,1l.29.1c-.44-.06-.48.29-.7.36a1,1,0,0,0-.54.51c-.07.13-.27.12-.27.33a1.81,1.81,0,0,0,.2,1c-.06.1-.19.27-.19.38a.48.48,0,0,1,.32-.07v.22s-.21.1-.21.22a1.74,1.74,0,0,0,.55.41c.51,0,.9-.55,1.15-1,.08.14.11.26.24.34a.53.53,0,0,0-.06.21c0,.26.18.32.24.53s.06.52.27.77c0,0,0,.1,0,.15s.17.68.27.68c.3,0,.37-.46.58-.46h.33c0-.27.33-.3.36-.69a.23.23,0,0,1-.18-.25c0-.3.1-.72.34-.72a.86.86,0,0,0,.48-.58.73.73,0,0,0-.55-.58.37.37,0,0,0-.09-.26V28c.18-.1.06-.38.16-.58s.34-.32.54-.46.81-.46.81-.8c0-.09,0-.16,0-.33,0-.41.33-.58.73-.58s.7.07.7.43-.29.32-.46.43-.58,1-1.09,1a1.18,1.18,0,0,1,0,.29c0,.16.11.49.23.55,0,.07-.17.17-.17.32a.52.52,0,0,0,.52.51c0,.16.11.19.27.19a2.62,2.62,0,0,0,.73-.22c.23,0,.79,0,.91-.29a1.64,1.64,0,0,1,.3.51,1.67,1.67,0,0,1-.66.32c-.21,0-.34-.1-.6-.1s-.88.29-.69.5c.61.68.29.95.14.95s-.28-.36-.48-.36-.48.67-.48,1c0,.57-.39.49-.41,1a3.69,3.69,0,0,1-.44,0,.61.61,0,0,1,0-.16,1.07,1.07,0,0,0-.41-.06c-.15,0-.34.22-.45.27s-.34.06-.54.18-.07.13-.21.13-.21-.17-.21-.2.06-.09.07-.16c-.28,0-.51.29-.83.29,0,0-.06-.1-.08-.17s-.16-.06-.29-.06a.59.59,0,0,0,0-.16c-.07,0-.13-.12-.13-.26a.77.77,0,0,1,.27-.54s.15-.07.15-.15v-.12c-.1,0-.23,0-.23-.16a.84.84,0,0,1,.07-.38v-.17c-.3.26-.77.3-.77.91,0,.35.19.46.24.85a3.49,3.49,0,0,1,.08.36c0,.12-.19.25-.27.25s-.22-.09-.3,0-.06.14-.1.1,0,0-.17,0-.45.23-.62.43c0,0-.12.1-.12.16s0,.35-.06.46a4.16,4.16,0,0,1-.6.32.58.58,0,0,1-.17,0c-.07.35-.17.67-.53.67,0,.12-.11.22-.21.22a.46.46,0,0,1-.36-.19h-.12v.12s0,.26.06.29v.1a1,1,0,0,1-.28.07c-.1,0-.29-.06-.33-.15s-.46.13-.46.26,0,.06,0,.06c0,.22.53.33.73.41s.07.09.14.1c0,.23.07.49.31.49,0,.12.07.09.07.22a.7.7,0,0,1,0,.22l0,0c0,.09,0,.34,0,.4,0,.28-.16.36-.16.65a2.93,2.93,0,0,1-.3.07c-.12,0-.19-.1-.34-.06H66.7a.38.38,0,0,1-.21-.09H66c-.07,0-.13-.06-.18-.06s-.48.3-.48.39.13.33.13.55c0,.38-.11.75-.11,1.11,0,.1-.13.15-.13.33a.2.2,0,0,0,.19.2v.58s0,.12.1.12.32-.1.52-.1.29.54.47.54.42-.29.71-.29c.06,0,.27-.07.38,0h0c.24.09.27-.28.41-.36a1.25,1.25,0,0,0,.48-.61.19.19,0,0,1-.12-.19,1.37,1.37,0,0,1,.57-1c.25-.07.52-.17.59-.46l-.07-.32a.37.37,0,0,1,.37-.36c.24,0,.41.16.68.16s.42-.26.65-.39.12-.25.34-.25c.46,0,.53.59.75.93,0,.1.21.16.29.26a1.06,1.06,0,0,0,.66.48c0,.09.18.15.23.15a1.41,1.41,0,0,0,.34.43c0,.13.12.19.12.4s-.06.39-.2.39,0,.1.13.1.14-.3.25-.43.16,0,.16-.07S74,40.17,74,40a.24.24,0,0,1,.27-.23c.19,0,.27.19.39.22,0-.3-.26-.42-.5-.56-.07,0-.36-.12-.31-.29a.18.18,0,0,0,0-.12c-.18,0-.3.07-.48,0a.92.92,0,0,1-.23-.49.69.69,0,0,0-.32-.45.35.35,0,0,1-.25-.36,1,1,0,0,1,0-.26s-.06-.06-.06-.09.27-.16.4-.26c.07.09,0,.39.16.39h.36c0,.33.3.83.57.83h.17c0,.2.19.22.36.32a1,1,0,0,1,.44.61v.38c0,.3.19.43.34.61a1.08,1.08,0,0,1,.25.46s0,.16.07.16h.21c0,.07-.16.12-.16.22s.17.48.36.48h.17c-.12-.07,0-.25,0-.33a.52.52,0,0,0-.07-.25V40.8a.64.64,0,0,0,.31.22h0c0-.1.14,0,.21-.09a.24.24,0,0,1,0-.13c-.1,0-.42-.36-.42-.41s0-.09,0-.17l-.23-.32c0-.07.07-.16.13-.16s.13.22.31.22a.71.71,0,0,0,0-.32c.16-.06.21-.19.4-.19s.33.29.51.29.19-.19.35-.27.19,0,.3,0,.11,0,.16-.06-.4-.33-.4-.62a1.32,1.32,0,0,1,.34-.64v-.38c0-.09,0,0,.08-.2s.13-.22.25-.24,0-.14,0-.22c.27-.09.29-.46.56-.46s.77,1.09.94,1.09a1.91,1.91,0,0,0,.85-.45l-.34-.06a.21.21,0,0,1-.21-.22c0-.11.88-.51,1.21-.65a1.35,1.35,0,0,1-.22.25c0,.09.34.48-.36.7.3.85,1.69.71,1.69,1.85h.06c-.21.11-.36.33-.61.33h-.69c-.13,0-.61-.11-.61-.29-.28,0-.27-.22-.59-.22a1.4,1.4,0,0,0-.7.13c-.13.1-.35.29-.5.29H78.6c-.06,0-.29-.06-.29.07s.07.06.1.17c-.22.13-1.09,0-1.09.49,0,.09.12.07.21.07s0,.07,0,.17c0,.27-.13.25-.25.39.17.1.3.09.41.28-.12.14.23.36.3.45a.2.2,0,0,1-.1.09H78c.23-.13.35.26.58.26s.17-.33.42-.33.35.36.6.36.41-.19.6-.36a.3.3,0,0,0,.24.12c.1,0,.13-.09.23-.13v.15a.19.19,0,0,0-.08.15c0,.17.06.38.06.62s-.24.41-.31.7-.11.45-.19.77c0,.06-.1.06-.1.16l.07.19,0-.1c-.16,0-.16.11-.34.11s-.4-.19-.63-.19-.5.22-.88.22a3.76,3.76,0,0,1-1.35-.39c-.19-.09-.47,0-.58-.15s-.18-.13-.18-.33h-.27l0,0c-.38.14-.67.14-.67.61v.29a.3.3,0,0,1-.24.22c-.89,0-1.17-1.16-2-1.16h-.34a.69.69,0,0,1-.54-.68c0-.22.16-.33.16-.55s-.16-.19-.16-.32.17-.16.18-.38c-.07,0-.11.09-.18.09s-.13-.26-.36-.26-.24.22-.48.22-.21-.1-.36-.1-.38.22-.51.22-.25-.14-.42-.14A4.88,4.88,0,0,0,68,42c-.15.09-.19.26-.45.26a1.46,1.46,0,0,1-1-.36,2,2,0,0,0-.24.39h0c-.3.45-.71.9-1,1.38s-.06.59-.21,1.13a1.55,1.55,0,0,1-.54.65c-.22.15-.53.12-.7.39A8.39,8.39,0,0,0,63,47.69c-.06.23-.34.41-.34.7,0,.58.24,1,.24,1.62a2.09,2.09,0,0,1-.51,1.3c.09.2.18.27.18.48s.06.24.06.46h0l.16.2a7.43,7.43,0,0,0,.73.81,3.89,3.89,0,0,1,.6,1.06,6.34,6.34,0,0,0,1.29,1.26.68.68,0,0,0,.36.11c.47,0,.68-.29,1.15-.29.24,0,.54.22.73.22s.24-.19.42-.26a4.05,4.05,0,0,1,1.51-.51c.5,0,.58.84.94.84h.51a.83.83,0,0,1,.76.61c-.12.12-.12.55-.12.73s0,.09,0,.22a1.17,1.17,0,0,0-.28.58c0,.68.69,1.19,1,1.67.16.25.11.58.2.87a5.1,5.1,0,0,1,.3,1.2,5.31,5.31,0,0,1,.16.83c0,.77-.76,1-.76,2A4.39,4.39,0,0,0,73,66.6c.1.2.24.27.24.48v.39a6.35,6.35,0,0,0,1,3c.06.13.4.56.4.8a.58.58,0,0,1-.16.39,1.35,1.35,0,0,1,.22.73.26.26,0,0,1,.12-.07.42.42,0,0,0,.39.29c.46,0,.76-.44,1.27-.44.13,0,.21.14.34.14s.21-.09.36-.1c0-.26.34-.15.55-.26.5-.29.63-.7.93-1.16a6.84,6.84,0,0,1,.48-.94,1.51,1.51,0,0,0,.48-.9.36.36,0,0,0-.18-.3,1.23,1.23,0,0,1,.6-.68c.08,0,.29,0,.36-.1a2.81,2.81,0,0,0,.1-.84c0-.43-.34-.65-.34-1a.54.54,0,0,1,.36-.43c.13-1,1.73-.83,1.73-2a.41.41,0,0,0-.1-.29c0-.41,0-.68,0-.91v-.36a.54.54,0,0,0,.09-.22c0-.28-.45-.52-.45-1s-.1-.64-.1-1.09.32-.51.4-.87c.3-1.29,1.16-1.52,2-2.28a6.9,6.9,0,0,0,1-1.52,5.46,5.46,0,0,0,.85-2.39c0-.09,0-.13-.08-.22a13.38,13.38,0,0,1-1.33.44c-.18,0-.3-.07-.48,0s-.17.25-.36.25-.36-.46-.52-.61c.12-.17,0-.21,0-.46-.4,0-.5-.6-.69-.78s-.35-.2-.54-.43-.08-.64-.3-1-.42-.29-.54-.68v-.77a1.85,1.85,0,0,1-.48-1.11l-1.15-2.43v-.25c.21.25.41.9.67.94,0-.14.17-.51.22-.72,0,.18-.06.36-.06.46a3.13,3.13,0,0,0,.21.35l.4.73a1.32,1.32,0,0,1,.17.35c0,.09,0,.3.07.39s.19,0,.24.07a2.15,2.15,0,0,0,.16.19c0,.28.21.35.21.68,0,.55.1.85.52,1a2.09,2.09,0,0,0,.48,1c.13.16.34.29.28.61,0,.13-.12.41,0,.42a1.5,1.5,0,0,0,.21.74c.08.14,0,.14,0,.16a3.28,3.28,0,0,0,.38.2l.08-.05c.25,0,.29-.12.49-.29h.37c.16-.09.64-.49.79-.54a4.65,4.65,0,0,0,.94-.35.24.24,0,0,1,0-.13c0-.32.74-.48,1.06-.55a.53.53,0,0,1,.34-.42c.18,0,.17-.42.35-.42s.13-.25.18-.42a.31.31,0,0,1,.35-.23c0-.35.35-.46.35-.8,0-.13-.17-.1-.23-.23h0c-.08-.06-.1-.3-.23-.35-.35-.13-.58-.2-.75-.62v-.54c-.44.39-.5,1-1.31,1-.18,0-.5-.1-.5-.3s.08-.29.08-.46a.71.71,0,0,0,0-.16c-.12,0-.1.22-.24.26,0-.13-.08-.17-.08-.33-.28-.07-.62-.7-.69-1a1.36,1.36,0,0,1,0-.33c0-.2.07-.46.24-.46.34,0,.61.45.74.77,0,.06,0,.17.06.26s.33.07.47.25.22.33.41.41h.6c.07-.09.12-.22.25-.22s.25.44.37.58a2.29,2.29,0,0,0,.42.13c.33,0,.86.17,1.09.17,0,0,.06,0,.06,0l.42,0a.47.47,0,0,1,.11-.1l.31.1c.12,0,.16-.11.3-.11a1,1,0,0,1,.36,0c.15.06.22.39.32.58a1.08,1.08,0,0,0,.71.51.88.88,0,0,1,.28,0c0,.06-.06.19-.16.22s-.19,0-.3.06c.18.22.33.67.7.67s.33-.49.48-.68h.1c0,.06-.07.16-.07.2s.12.36.12.6-.05.22-.06.41h0s0,.16,0,.21a3.75,3.75,0,0,0,.21.84c.09.32.3.8.36,1a1.79,1.79,0,0,0,.15.46c.1.17,0,.36.13.59s.22.26.27.46.22.59.31.94c0,0,0,.15.11.15a.15.15,0,0,0,.18.15c.1,0,.11-.17.16-.29s.09-.09.23-.17.06-.43.23-.49.12,0,.12-.06l.06,0-.06-.38c0-.28.15-.51.15-.87s-.09-.38-.09-.64.25-.35.47-.44.22-.2.31-.32c.23-.27.45-.57.69-.85s.54-.3.76-.56.1-.29.14-.49.29-.14.38-.36c.1.07.1.14.29.14s.65-.09.65-.52a.52.52,0,0,1,.44.33,2.48,2.48,0,0,0,.12.58,1.73,1.73,0,0,0,.4.46,3.69,3.69,0,0,1,.35.77c0,.07.07.12.07.19s-.06.25-.06.43,0,.36.19.36c.34,0,.42-.42.63-.67.07.09,0,.14.11.23s.12,0,.16.07-.08.65.07.65c0,.47.31.84.31,1.48,0,.16-.1.49,0,.55h-.06a2.83,2.83,0,0,0-.06.55s0,.09,0,.09,0,0,.16,0,.28.52.36.72a8.59,8.59,0,0,1,.27,1.06,1.61,1.61,0,0,0,.85,1.06c.07,0,.08.13.2.13s0-.06.08-.06h.16a3.75,3.75,0,0,1-.11-.42c0-.17-.23-.26-.23-.52s0-.13,0-.28c0-.72-.71-.81-1-1.2-.09-.1-.1-.36-.14-.46h0c0-.42-.41-.25-.41-.7s.35-.51.35-.94c0-.12,0-.14,0-.28s0-.16.07-.16.28,0,.31.19c0,0,0,.19.06.19a1,1,0,0,1,.53.29c.15.18,0,.39.28.39,0,.22.24.29.42.29,0,.08,0,.19.08.22s0,.09,0,.2,0,.29.1.29.29-.22.29-.36v-.16s0,.13,0,.13.12-.23.27-.32c.31-.19.35-.35.74-.46,0-.26.15-.39.15-.72a2,2,0,0,0-.48-1.35c-.3-.23-.42-.61-.7-.94,0-.06-.11-.09-.11-.22,0-.62.59-.73.83-1.18.21.12.35,0,.58.16,0,.07,0,.36.06.36s.06-.19.16-.3.33-.14.42-.2.46-.07.6-.25a1.51,1.51,0,0,1,.15-.28c.12,0,.18.12.3.12.56,0,.69-.41,1-.64A.32.32,0,0,0,109,47c.29,0,.37-.54.48-.81s.4-.75.58-.8c0-.32.18-.46.18-.88a2.1,2.1,0,0,0-.34-1.25c0-.07,0-.25-.15-.32h0s0-.23,0-.28a.43.43,0,0,1-.33-.36c0-.17.21-.19.25-.36.11-.39.63-.39.87-.68-.1-.16-.28,0-.45-.13s-.13-.17-.27-.17-.1.32-.17.32-.22,0-.31,0-.1-.26-.24-.39-.25-.1-.25-.25c0-.3.35-.2.52-.35a2.55,2.55,0,0,0,.52-.54s.07-.19.19-.19.23.19.23.27-.23.33-.23.6c.34,0,.62-.43,1-.43.15,0,.21.16.39.16-.06.15,0,.15,0,.32s-.13.13-.13.3,0,.25.12.25.08-.07.17-.07a.32.32,0,0,1,.33.29.2.2,0,0,1-.19.19v.15s0,.09.12.1.06.16.06.25a2.22,2.22,0,0,0-.11.33c0,.06,0,.13.06.14s-.07.12-.07.19H112c.07-.09.1-.09.24-.13s.3-.14.38-.17.24-.22.24-.55a1.72,1.72,0,0,0-.45-1.22.62.62,0,0,1-.21-.51.5.5,0,0,0,.36-.22c.09-.1.3-.25.35-.36a2.16,2.16,0,0,1,.54-.9h0a3.49,3.49,0,0,0,.85.15c.69,0,1.34-1.74,1.82-2.33a2.82,2.82,0,0,0,.53-1.08c.08-.42-.06-.69.13-1.09a2,2,0,0,0,.21-.8c0-.39-.52-1.15-.77-.94-.72.65-1.09-.35-1.09-.43,0-.41.65-.86.91-1.16s.87-1.2,1.39-1.38a13.19,13.19,0,0,1,2.3-.29c.5,0,.73.29,1,.29h.67c.19-1,.56-1.52,1.39-1.52a2.33,2.33,0,0,1,.73,0c-.21.19-.29,1.44,1-.51.13,0,.77.28-.18,1-.33.25-.63.13-.85.51a3.84,3.84,0,0,1-.85,1.23,1.38,1.38,0,0,0-.73,1.16,6.36,6.36,0,0,0,.48,2.61c.24-.44.41-1.23.91-1.38-.06-.41.48-.49.48-.8,0-.48.42-.61.42-.87s-.12-.35,0-.65c1-2.51,1.87-1.16,2.24-1.16,1.08,0,1.84-1.65,2.78-1.67,1.8,0,.36-.86.36-1.09,0-.62.7-.52.85-.87.06-.15-.06-.51.18-.51.76,0,1.39,1.23,1.93,1.23.24,0,.29-.54.42-.72s.4-.26.73-.39C133.34,24.33,131.92,23.93,131.23,23.46Zm-52.86.9c0-.25.22-.36.22-.61s-.42-.3-.42-.58c0,.28.42.26.42.58s-.22.36-.22.61.24.43.24.72C78.62,24.79,78.37,24.63,78.37,24.36ZM85.85,38c.23.48.56.67.56,1.23a2.4,2.4,0,0,1,.41-.22c0,.22.21.33.21.55h-.36c-.11,0-.22.14-.24.36a.6.6,0,0,1,.42.61c0,.16-.08.2-.08.33a.66.66,0,0,0,.12.31v.26a2.05,2.05,0,0,1-.57.09c-.16,0-.46,0-.56-.09s-.1-.23-.21-.26-.29.06-.35-.1,0-.29-.06-.46-.16-.1-.16-.25a.22.22,0,0,1,0-.09c0-.06,0-.17-.08-.26a.42.42,0,0,0-.17,0c-.18.07-.17.33-.44.33h0c.27,0,.25-.26.43-.33a.43.43,0,0,1,.17,0c0,.09,0,.2.09.26s0,.06,0,.09l.17,0c.14-.23.14-.58.34-.7a2.62,2.62,0,0,1-.82-1.58c0-.15-.27-.36-.27-.58a3.71,3.71,0,0,1,.29-.69c.06,0,.42-.2.46-.22a1.84,1.84,0,0,1,.91-.25c.65,0,.76.38,1,.81-.18.17-.42,0-.64,0s-.81.38-.85.36C85.58,37.83,85.78,37.82,85.85,38Z" transform="translate(-1.62)"/><path class="cls-8" d="M129.94,21.5c.13,0,1.09-.07,1.09-.26s-.46-.36-.64-.36-.57.26-.57.48A.13.13,0,0,0,129.94,21.5Z" transform="translate(-1.62)"/><path class="cls-8" d="M126.51,22.4a.14.14,0,0,0,.12-.14c0-.09-.07-.12-.08-.17h-.4C126.22,22.25,126.34,22.4,126.51,22.4Z" transform="translate(-1.62)"/><path class="cls-8" d="M115,17.8c.09,0,.1-.11.12-.19h0v0h0l-.1-.12a.38.38,0,0,0-.1.22C114.9,17.78,114.94,17.8,115,17.8Z" transform="translate(-1.62)"/><path class="cls-8" d="M107,18.53a.24.24,0,0,0-.27.22c0,.13.13.17.27.17a.46.46,0,0,0,.25-.09.16.16,0,0,0,0-.09C107.32,18.57,107.21,18.53,107,18.53Z" transform="translate(-1.62)"/><path class="cls-8" d="M107.32,18.82h0l-.07.09Z" transform="translate(-1.62)"/><path class="cls-8" d="M102.5,15.51c0,.15,0,.22.18.22l.64-.22.42-.07c.22,0,.85,0,.85-.36s-.5-.58-.66-.58-.13.12-.22.14c.1-.12,0-.12,0-.32h-.16c-.48,0-.59.54-.87.87C102.65,15.28,102.5,15.28,102.5,15.51Z" transform="translate(-1.62)"/><path class="cls-8" d="M99.58,13.78c0,.13.17.36.24.36s.54,0,.57-.29c-.08,0-.42-.22-.48-.22S99.58,13.63,99.58,13.78Z" transform="translate(-1.62)"/><path class="cls-8" d="M101.23,13.73c-.39.15-.51.3-.91.46.18.12.5.52.64.52.44,0,.82.26,1.35.26a.24.24,0,0,0,.24-.22c0-.1-.1-.15-.18-.18.07,0,.24,0,.24-.19s0-.17.1-.29c-.16-.19-.16-.29-.4-.29h-.24c-.15,0-.22-.15-.36-.15s-.13,0-.25,0c.1-.06.23-.18.23-.26a2.36,2.36,0,0,0,0-.29s0,0,.15,0c-.19-.17-.39-.57-.73-.57-.58,0-.76.68-1.27.85a1.6,1.6,0,0,0,.88.31Z" transform="translate(-1.62)"/><path class="cls-8" d="M101.21,16.67c.15,0,.22-.09.24-.29h-.18a1.2,1.2,0,0,1-.18.14C101.1,16.6,101.15,16.67,101.21,16.67Z" transform="translate(-1.62)"/><path class="cls-8" d="M99.76,12.73l0-.11h-.45C99.35,12.81,99.58,12.76,99.76,12.73Z" transform="translate(-1.62)"/><path class="cls-8" d="M105.23,15.63c.08,0,.14-.11.16-.22-.11.06-.14,0-.4,0A.26.26,0,0,0,105.23,15.63Z" transform="translate(-1.62)"/><path class="cls-8" d="M85.57,13.41l-.08.06v.06Z" transform="translate(-1.62)"/><path class="cls-8" d="M84.3,13.12c.11,0,.17.09.28.13a1.65,1.65,0,0,1-.18.13.73.73,0,0,0,.22,0,.94.94,0,0,0-.25.12c0,.13.16.17.34.17h0c0,.06.07.13.13.14s.13-.25.24-.32.27,0,.42-.06v-.09a.19.19,0,0,0,.12,0c.14-.13.3,0,.33-.26a1,1,0,0,0-.36-.14c-.18,0-.27.19-.45.19s-.4-.19-.7-.19-.82,0-.93.28a1.69,1.69,0,0,0,.27.06C83.94,13.31,84.17,13.12,84.3,13.12Z" transform="translate(-1.62)"/><path class="cls-8" d="M90,13.05a2.14,2.14,0,0,0,.64-.19l-.17-.46c-.18,0-.68.23-.68.43S89.9,13.05,90,13.05Z" transform="translate(-1.62)"/><path class="cls-8" d="M89.38,13.41l-.06-.17c.11,0,.23.06.3-.07a1.33,1.33,0,0,0,0-.22,1.15,1.15,0,0,1-.39,0,.18.18,0,0,0,.12-.12H89A.85.85,0,0,0,89,13a.38.38,0,0,0-.24.39C88.72,13.48,89.31,13.46,89.38,13.41Z" transform="translate(-1.62)"/><path class="cls-8" d="M88.11,13.38c-.12,0-.6.09-.6.29a.12.12,0,0,0,.12.1c.11,0,.16,0,.18-.14s.17.14.24.14.16-.22.4-.22A.38.38,0,0,0,88.11,13.38Z" transform="translate(-1.62)"/><path class="cls-8" d="M88,13.09c.13,0,.27,0,.36-.06a1.91,1.91,0,0,0-.69-.22,3.78,3.78,0,0,1,.56-.38.28.28,0,0,1,.11-.19s0-.17,0-.17-.19.12-.21.25c-.35,0-.36.29-.73.29v.19c.12-.09.07,0,.2,0h-.51L87,13a3.83,3.83,0,0,0,.6.27C87.71,13.27,87.9,13.09,88,13.09Z" transform="translate(-1.62)"/><path class="cls-8" d="M72.26,14.69s.06,0,.1.06c0,.23.13.35.34.48a.23.23,0,0,0-.1,0,.38.38,0,0,0,.39.23c.25,0,.25-.32.36-.39h.1a.77.77,0,0,0,.18.13h.31a2.28,2.28,0,0,1-.62.36c-.06,0-.34,0-.34.15,0,.35.31.19.46.19A1.72,1.72,0,0,1,74,16c-.15,0-.28,0-.4.12a1.79,1.79,0,0,0-.45,0c0,.49.65.68.94.91.17-.2.14-.61.35-.8s.16,0,.18-.11c.12-.38.25-1,.66-1a.44.44,0,0,0,.29.22.69.69,0,0,0-.17,0c0,.12.16.38.24.41,0,.22-.16.15-.18.41.16,0,.41,0,.56,0a.38.38,0,0,0,0,.26c.3-.12.44-.36.76-.49-.11-.19-.46-.07-.46-.52h-.39a.27.27,0,0,0,0-.22.37.37,0,0,1-.22,0,.34.34,0,0,0,.12,0,2.31,2.31,0,0,0-1-.61l-.12,0c0-.12,0-.35-.15-.35s-.12.13-.22.19c0-.1,0-.19,0-.29s-.33-.29-.48-.29-.24,0-.24.22a1.78,1.78,0,0,0,.14.64c-.3-.13-.22-.64-.55-.64a.24.24,0,0,0-.2.25.22.22,0,0,0,.08.19c-.08-.1-.2-.1-.33-.22a1.73,1.73,0,0,1,.15-.2,2.48,2.48,0,0,0-.6-.06c-.12,0-.37.27-.42.35S72.18,14.69,72.26,14.69Z" transform="translate(-1.62)"/><path class="cls-8" d="M74.66,13.91c0,.33.22.16.42.16l.57,0c-.06,0-.19,0-.3.07h-.24a.24.24,0,0,0,.16.23H76a.42.42,0,0,0,.42.26c.35,0,1-.51,1.25-.74a.67.67,0,0,0-.55-.39h-.4c-.18,0-.25.15-.36.15a1.69,1.69,0,0,1,0-.36h-.14c-.06.06-.16.33-.3.33a1.58,1.58,0,0,1-.48-.29H75l.06.15h-.2v.07a.22.22,0,0,1-.24,0h-.18A.52.52,0,0,0,74.66,13.91Z" transform="translate(-1.62)"/><path class="cls-8" d="M72.37,15.48c-.08-.31-.24-.37-.4-.6C71.8,15,72.14,15.42,72.37,15.48Z" transform="translate(-1.62)"/><path class="cls-8" d="M72,14.86l0,0,0,0Z" transform="translate(-1.62)"/><path class="cls-8" d="M72,14.86v0h0Z" transform="translate(-1.62)"/><path class="cls-8" d="M64.93,33.7a.34.34,0,0,0,.3.33.43.43,0,0,0,.23-.06c.1-.07.24-.32.44-.32s.24,0,.31-.07,0-.29,0-.41v-.49c0-.12.22-.1.22-.22s-.13-.59-.41-.59h-.21c-.12,0-.36.17-.36.28s0,.1.07.19a.63.63,0,0,1-.35.16s-.13,0-.13.16.11.23.23.3C65.24,33.31,64.93,33.34,64.93,33.7Z" transform="translate(-1.62)"/><path class="cls-8" d="M66,30.37c.13,0,.23-.17.23-.33-.1,0-.3.07-.3.16S66,30.37,66,30.37Z" transform="translate(-1.62)"/><path class="cls-8" d="M66.41,30.79v.12s-.08.12-.08.19.11.1.18.12v.13a.12.12,0,0,0,0,.1v.23h.1a.2.2,0,0,1,0-.22.33.33,0,0,0,.21.07c0,.12,0,.15,0,.28s-.12.19-.12.3.08.12.19.12.16-.07.28-.07h.11c0,.06-.08.09-.08.2s.17.18.29.16v.22a.65.65,0,0,1-.54.27c0,.16.1.23.1.42s-.34.23-.34.45c0,0,0,.07.06.07s0-.07.12-.07.18.17.34.17a.26.26,0,0,0,.22-.15s0,.07,0,.1c0,.2-.24.13-.41.19a4.24,4.24,0,0,0-.42.54v.09h.08c0-.06.08-.12.17-.12H67c0-.12.07-.25.19-.25s.13.09.22.09.51-.13.63-.13h.48c.15,0,.23-.09.34-.22v-.1a.68.68,0,0,1-.24-.06c.1-.19.39-.32.39-.58a.27.27,0,0,0-.25-.27c-.1,0-.07,0-.16.06l.06-.06s-.06.07-.14.1v-.1a.11.11,0,0,0,.06-.1c0-.11-.13-.19-.13-.3,0-.35-.31-.45-.51-.68s-.11-.52-.34-.61-.16,0-.28,0a.15.15,0,0,1,.1-.12c0-.31.37-.48.33-.88H67a.22.22,0,0,1,0-.12c0-.2.3-.17.3-.38,0,0-.07-.13-.12-.13h-.35a.26.26,0,0,0-.19.19c0,.07,0,.13,0,.25a.16.16,0,0,0-.17.17.14.14,0,0,0,.06.09s0,.09,0,.09a.12.12,0,0,1-.08-.13h-.19C66.13,30.7,66.23,30.75,66.41,30.79Z" transform="translate(-1.62)"/><path class="cls-8" d="M66.82,32.43a.18.18,0,0,0-.09.17h.13c0-.07,0-.13,0-.17Z" transform="translate(-1.62)"/><path class="cls-8" d="M63.69,25.79l0,0c0-.4-.45-.3-.45-.72a.2.2,0,0,1,.07-.13c-.11,0-.18.07-.29.07s-.22,0-.22-.19c0,0,0,0-.13,0a.45.45,0,0,0,0,.22c-.11-.13-.25,0-.41,0s-.21,0-.39,0a.59.59,0,0,0,0,.14.53.53,0,0,0-.17-.1l-.29.09c-.07,0-.11-.07-.16-.13s0,.09,0,.19-.13.09-.22.09-.19-.19-.18-.29-.06-.13-.07-.22h-.1c-.1,0-.12.16-.22.16v.11a.24.24,0,0,0-.24,0c0,.16.47.32.62.32a.14.14,0,0,0,0,.12,2.05,2.05,0,0,1-.63.13c.12.15.33,0,.52.06a2.27,2.27,0,0,0-.06.43s-.07,0-.11.07c.27,0,.36.2.53.26a2.71,2.71,0,0,0,1.09.26c.41,0,.64-.25.93-.36A1.31,1.31,0,0,0,63.69,25.79Z" transform="translate(-1.62)"/><path class="cls-8" d="M42.82,49.14c-.08,0-.14-.25-.28-.29h-.18a.29.29,0,0,1,0-.1,1.05,1.05,0,0,1-.75-.36s-.12-.17-.21-.17c-.4,0-.65-.36-1.18-.36a1,1,0,0,0-1,.64h.11a1.12,1.12,0,0,1,.68-.35c.06,0,.12,0,.17,0a.1.1,0,0,0,0,.16h.35c.17,0,.25.22.42.22s.16,0,.25,0,0,.13.13.13c0,.22.23.2.41.31a.14.14,0,0,1-.12.13v.09c.23,0,.42.1.7.1S42.74,49.31,42.82,49.14Z" transform="translate(-1.62)"/><path class="cls-8" d="M39.84,48.39v.1a.12.12,0,0,0-.11.13s.16,0,.17,0a.43.43,0,0,0,0-.22h-.06Z" transform="translate(-1.62)"/><path class="cls-8" d="M41.53,49.94a.22.22,0,0,0,.19.22,2,2,0,0,0,.4-.09.16.16,0,0,0-.11-.13l0,0a1.12,1.12,0,0,0-.39-.12S41.53,49.88,41.53,49.94Z" transform="translate(-1.62)"/><path class="cls-8" d="M45.34,49.91c0,.15.16.16.3.16s.16,0,.19-.09-.33-.16-.36-.16S45.34,49.83,45.34,49.91Z" transform="translate(-1.62)"/><path class="cls-8" d="M42.85,49.85c0,.09.07.22.14.23S43,50,43,50s.06,0,.15,0,.44,0,.54,0,0,.19.14.19.12-.26.28-.26,0,.07.12.07.13-.06.22-.12h.45c-.08-.14-.21-.2-.33-.32l.06.06c-.22-.13-.29-.38-.68-.38-.13,0-.21.06-.36.06s-.18-.1-.29-.1a.13.13,0,0,0-.1.1.17.17,0,0,0,.16.16.45.45,0,0,0,.08.3c-.14.09-.27,0-.54,0C42.9,49.81,42.87,49.85,42.85,49.85Z" transform="translate(-1.62)"/><path class="cls-8" d="M47.21,53.46s.07,0,.11,0,.12-.13.14-.19v-.1h-.11C47.29,53.17,47.21,53.31,47.21,53.46Z" transform="translate(-1.62)"/><path class="cls-8" d="M51.22,57.54c-.15,0-.24.14-.24.36s.31.39.5.39.33-.33.33-.46,0-.13-.08-.13-.17.16-.19,0a.45.45,0,0,1-.25-.13S51.23,57.54,51.22,57.54Z" transform="translate(-1.62)"/><path class="cls-8" d="M43.05,77h.11v-.44a.38.38,0,0,0,0-.16c0-.11,0-.23-.14-.23s-.15.43-.15.43v.19C42.92,76.88,43,77,43.05,77Z" transform="translate(-1.62)"/><polygon class="cls-8" points="24.38 35.44 24.38 35.44 24.38 35.44 24.38 35.44"/><path class="cls-8" d="M19.87,22.66c-.3-.12-.41-.29-.76-.29s-.35.1-.57.1a2.17,2.17,0,0,1-1.37-.36h-.93a2.81,2.81,0,0,1-.36-.29h-.6c-.11,0-.15-.09-.28-.15a.3.3,0,0,1-.3.19,1.23,1.23,0,0,1,.11-.19c-.16-.06-.22-.22-.37-.22s-.33.32-.52.41-.28,0-.45,0a3.39,3.39,0,0,0-1.55,1.38h-.67s-.18.41-.18.41.5.22.64.32.27.52.36.58c.35.2.61.23.73.7-.14,0-.17,0-.34,0s-.45.13-.45-.33h-.22c-.29.23-.79.42-1.09.64a.35.35,0,0,0,.36.23.58.58,0,0,0,0,.14c0,.13.15.19.16.41h.64c.18,0,.27.1.51.1s.33-.25.52-.25a.72.72,0,0,1,.18,0v.22c-.08-.06-.06-.07-.18,0s.21.25.21.35-.82.58-.93.58-.91.36-.91.8c0,.23.39.3.48.62-.06,0-.12,0-.18,0s.65.67.81.67.15-.25.24-.25.1.17.1.22v.29c0,.12,0,.36.12.36S12.9,30,13,30h.14a.72.72,0,0,1,0-.22,1.78,1.78,0,0,0,.58.41,1.31,1.31,0,0,1,.08-.26c.12,0,.18.12.33.12s.27-.1.45-.19h.18c-.29.22-.29.65-.57.87a4.35,4.35,0,0,0-1,.8c-.15.22-.38.07-.58.22s-.24.38-.39.48-.44,0-.58.31c.51.17.75-.44,1.19-.52a1.78,1.78,0,0,0,1-.43c.19-.23.6-.38.79-.65s.14-.29.3-.36.54-.25.54-.58v-.22a1.86,1.86,0,0,1,1.09-1.28h.15s0,.1,0,.14a.73.73,0,0,0-.53.7c0,.07,0,.07,0,.17s-.1,0-.1.12.07.1.12.1a2.36,2.36,0,0,0,1.21-.81.43.43,0,0,1-.12-.2c.11-.07.35-.15.5-.22.2.51.74.57,1.14.72h.67c.36.25.77.23,1.09.51.14.13.32.55.57.55.1,0,.14-.14.18-.26a.44.44,0,0,0,.36.22c0-.1.16,0,.22.1a.5.5,0,0,0-.12.3.3.3,0,0,0,.18.22c.16,0,.1-.17.33-.19v.19c0,.12-.18.13-.18.25a.21.21,0,0,0,.22.22c.22,0,.36,0,.36.22v.22a.63.63,0,0,0,.51.43h.12c0-.1.17-.13.17-.29s-.17-.36-.28-.48c.11.11.28.2.28.48s-.17.19-.17.29.07.12.07.2,0,.58.12.64.19,0,.27.11,0,.32.12.44a2.25,2.25,0,0,1,.33.28c.09.33.11.72.52.72.06.29.48.1.58.48,0,.15.34.17.46.32a.62.62,0,0,0,.13.09h0c0,.14.16.19.16.33a.86.86,0,0,1-.17.39.38.38,0,0,0-.35-.25s-.18,0-.18.1c0,.32.3.45.3.77s-.32,1.27-.21,1.62,0,.9.12,1.22c-.07.06-.18.15-.12.28.21.43.47,1.07.73,1.12-.06.59.28.77.45,1.27,0,.12,0,.28.1.32.44.2,1.05.51,1.23.94h0v.1a3.51,3.51,0,0,0,.3.68c.07.17.06.58.21.69a2.84,2.84,0,0,1,.59.78c.11.18-.18.13-.24.13.12.22.39.17.56.38s.22.3.35.46v.38c0,.07,0,.07.12.13s.25.44.47.44a1.08,1.08,0,0,0,.2.31s.08-.15.08-.22-.14-.36-.24-.25a1.8,1.8,0,0,1-.39-.9c-.08-.3-.33-.46-.41-.8a1.21,1.21,0,0,0-.25-.59c-.12-.15-.28-.15-.36-.36a1.82,1.82,0,0,1-.22-.74.36.36,0,0,1,0-.19c.16.19.35.17.56.29s.07.38.18.51.07.38.18.51l.41.51s0,0,.13,0c0,.35.38.38.48.64s0,.31.07.42.32.2.44.35a3.58,3.58,0,0,1,.82,1.26c0,.1.12.14.12.33s-.12.25-.12.41.07.29.18.29c0,.19.41.29.56.46a.44.44,0,0,0,.13.1c.16.09.24.06.4.14s.2.28.37.33.22,0,.35,0,.53.42.68.42A.46.46,0,0,1,35,51s.15.13.24.13.24-.29.46-.29A.44.44,0,0,1,36,51h.07c.33.19.37.52.75.74s.41.07.64.2.28.25.51.25.15-.07.23-.07h.07c.07.35.28.48.47.71a.48.48,0,0,1,.16.25c.06.22-.06.42.12.56h.12a.12.12,0,0,1,0-.13,2.46,2.46,0,0,1,.46.39c0,.12,0,.26.22.31,0,0,0,.09.06.09s.28-.09.36,0,.22.39.41.39.16-.07.18-.22-.1-.07-.1-.13.34-.38.42-.38.17.19.3.26c0,.06-.07.09-.07.14s.11.08.14.11l0,0a.24.24,0,0,0,0,.09c0,.26.22.22.22.52,0,.14-.06.2-.06.37s.07.2.07.32v.07l0,.12a.22.22,0,0,0,.12.15c-.07.39-.39.29-.52.61s-.18.62-.51.62c.05.64-.25.58-.25.91s0,.49.19.49.07-.07.18,0c0,.23-.27.29-.37.51a.86.86,0,0,0-.13.44,1.26,1.26,0,0,0,.3.71c0,.06.15,0,.18.11a1.37,1.37,0,0,0,.15.41s.12,0,.16.1a5.77,5.77,0,0,1,.27.8c.08.32.33.58.42.93s.23.32.23.55,0,.33,0,.45a1.68,1.68,0,0,0,.73.6.75.75,0,0,1,.39.29c.13.16.27.13.45.23a1.19,1.19,0,0,1,.52.69c0,.16.1,1,.1,1.16s-.11.62-.11.83v.64c0,.15-.08.41-.08.51v.13c0,.49-.28.86-.28,1.41,0,.23-.13.43-.06.7V72c-.07.35-.07.59-.16.93,0,.06-.07,0-.11.1s-.08.31-.13.41a2,2,0,0,0-.28.87c0,.1,0,.51.06.51a.26.26,0,0,1,.07.16s0,.09-.12.09a3.83,3.83,0,0,0-.12.65c0,.16.07.49.17.49s.1-.12.18-.16a.3.3,0,0,1,.11,0v.22l-.4,2.15c-.18,0-.1-.26-.31-.26-.06,0-.11.07-.11.16h0v.15c0,.16.17.39.17.51s-.28.33-.28.59.18.75.18,1.07v.2c0,.3.33.25.33.6a.59.59,0,0,1-.08.24.44.44,0,0,0,.1.07c0,.13-.23.12-.23.25s.07.1.11.15.25.39.59.39c0,.07,0,.19.13.19h.23c0,.26.27.26.45.33s.1.46.38.46h.34s.09-.06.12-.06h.13c.11,0,.41-.27.59-.27s.15,0,.19,0a3,3,0,0,1-.92-.64c-.16-.19-.14-.85-.36-1s-.18-.19-.18-.33a1,1,0,0,1,.21-.65c.11-.13.3,0,.39-.25s0-.38.13-.49.47-.25.47-.65-.54-.25-.54-.81a.53.53,0,0,1,.36-.51c.08,0,.3,0,.33-.19a1.73,1.73,0,0,1,.29-.88.2.2,0,0,1-.13-.22c.12,0,.17.13.31.13a.25.25,0,0,0,.12-.19c0-.07-.06-.09-.11-.14s-.11.1-.17.1-.25-.38-.25-.58,0-.17.12-.17c.24,0,.29.2.54.2.08,0,.28-.1.28-.17v-.14c.08-.2,0-.64.12-.83s.51,0,.7,0,.54,0,.75-.29a2.29,2.29,0,0,0,.32-.44.75.75,0,0,0,.06-.39c0-.16-.19-.16-.23-.32a1.18,1.18,0,0,0-.15-.45s-.22-.11-.22-.24.06-.07.1-.07.34.17.51.17a3.56,3.56,0,0,0,.55.16c.56,0,.65-.72.89-1.16s.45-.42.67-.81c.1-.19.09-.29.17-.48h0a1.28,1.28,0,0,1,.48-.7V69a.93.93,0,0,1,.13-.67c.1-.11.25-.11.35-.31.22-.4.52-.2.81-.55,0,0,0-.11.12-.16a1.14,1.14,0,0,1,.59-.08.69.69,0,0,0,.53-.38c0-.06,0-.23.06-.32.18-.29.24-.44.42-.77a2.34,2.34,0,0,0,.06-.49.74.74,0,0,1,.16-.33.54.54,0,0,0,.06-.17c0-.19.08-.43.08-.69s-.18-.82,0-1,.25-.17.38-.39.12-.17.2-.3c.33-.59.82-.88.82-1.95,0-.3-.06-.61-.3-.7s-.28,0-.45,0a2,2,0,0,1-.68-.7,2.54,2.54,0,0,0-.57-.23l-.46.08c-.24,0-.29-.23-.54-.23s-.16.1-.27.16h-.09a1.21,1.21,0,0,0,0-.36c0-.12-.13-.09-.23-.16a2.1,2.1,0,0,0-.81-.39c-.19,0-.34.3-.46.54,0,.07-.09.17-.13.17s-.06-.11-.06-.16h-.29a.45.45,0,0,0-.21-.33c-.06,0-.17,0-.17-.16,0-.44.35-.58.54-.87,0-.15-.16-.15-.22-.29a3.68,3.68,0,0,1-.22-.8c-.21-.06-.46-.54-.65-.54h-.07v0a1.17,1.17,0,0,1-.4-.16h-.31c-.33-.07-.83,0-.92-.44a.21.21,0,0,1-.18-.09c-.14-.36-.25-.32-.48-.59h-.34c0-.19,0-.41-.17-.46s-.44-.12-.52-.32V53.2a.17.17,0,0,0,.18,0,2.28,2.28,0,0,0-.34,0s-.29,0-.3.07-.19.17-.37.2-.24,0-.24-.16h-.65A.25.25,0,0,1,45,53c-.18,0-.45-.13-.5-.36h-.21c0,.17.18.1.23.27h-.29c-.11.09-.3.06-.3.28s.15.28.15.45-.07.24-.12.24-.2-.28-.2-.44a6,6,0,0,1,.11-.59s.12-.06.12-.17,0-.17-.11-.17-.19.22-.35.27L42.7,53a.41.41,0,0,0-.33.33c0,.12,0,.3-.11.36s-.19.1-.19.25a.1.1,0,0,0-.07.07v.09c-.08,0,0,0-.14,0a.37.37,0,0,1-.09.1l.08-.11c-.19-.17-.34-.46-.68-.46s-.45.29-.76.29-.21-.27-.34-.35-.45-.25-.45-.56v-.88a2,2,0,0,0,.08-.64V51.3c-.22-.06-.29-.3-.58-.3s-.75.09-1.15.09a.15.15,0,0,1-.15-.16v-.07c.07-.09.22-.15.22-.29v-.7h.1V50a.89.89,0,0,0,.15-.48c0-.28.21-.54.21-.74v-.13l-.28,0a.51.51,0,0,0-.24,0c-.33,0-.73.15-.73.56,0,.22-.21.41-.25.58s-.07.23-.17.23-.1-.09-.23-.09-.44.21-.66.21-.1-.13-.21-.17c-.32-.12-.32-.36-.53-.62a2.25,2.25,0,0,1-.29-.42c0-.13,0-.22,0-.35s-.12-.18-.1-.29v-.81a2.64,2.64,0,0,0,.12-.58.78.78,0,0,0,0-.23v0h0s-.06-.1-.06-.14a1,1,0,0,1,.42-.94c.12-.06.23,0,.33-.07s.31-.54.67-.54c.13,0,.21.14.34.14s.11-.12.18-.12c.24,0,.53.49.87.29-.15-.12,0-.25,0-.46-.07,0,0,0-.17,0a6,6,0,0,1,.65-.12s0,.12.08.12.13-.12.3-.12.42.33.64.33.16-.19.27-.19c.53,0,.39.89.58,1.35a3.46,3.46,0,0,0,.36.54c.07.13.06.36.24.36s.27-.28.27-.58a2.06,2.06,0,0,0-.15-.58v-.07c0-.46-.34-.61-.34-1.09,0-1.05.72-1.33,1.29-1.71l0,0c.07-.09.06-.13.21-.19s.16-.14.3-.17.11-.1.14-.16l-.14-.1v-.12c.11,0,.16,0,.19-.15a.2.2,0,0,1-.17-.13.18.18,0,0,0,.16-.18v-.15H42.2c-.07-.09,0-.07,0-.22s-.06-.41-.06-.51a.58.58,0,0,1,0-.19c0,.15.13.38.13.48v.16s0,.09,0,.09a2.07,2.07,0,0,0,.28-.59c0-.12-.08-.16-.11-.28l.06-.07s0,.11.08.11.31-.51.34-.62-.11-.1-.11-.18a.12.12,0,0,1,.07-.1l.11,0a1,1,0,0,0,.46-.07c-.09-.07-.19,0-.3,0h-.12c.24-.19.65-.1.9-.32,0,.06.25,0,.4,0v-.1s-.11.1-.13.1-.12-.19-.12-.26,0-.09,0-.13c0-.55.41-.71.61-.94.12-.07.13,0,.28,0a.42.42,0,0,0,.39-.25.65.65,0,0,1-.06-.11v-.08s.08,0,.12,0,.38.06.48,0,.11-.28.29-.29c0,.2,0,.22.18.22-.28,0-.71.26-.71.58,0,.13.17.36.24.36s.32-.39.56-.48c.06,0,.89-.39.89-.51s-.32-.17-.39-.17c-.35,0-.91-.41-.91-.77,0-.09.1-.2.12-.35s-.19,0-.3,0c.07-.11.51-.19.51-.48s-.38-.22-.63-.22c-.53,0-.77.45-1.14.51.16-.39.41-.26.68-.58s0-.33.3-.43a2.74,2.74,0,0,1,1.19-.07c.6,0,.94.24,1.29-.32.17-.27,1.15-.33,1.15-.8a1.29,1.29,0,0,0-.21-.7c-.1,0,0-.14-.1-.22v-.17a2.82,2.82,0,0,1-1.15.43.17.17,0,0,1-.12-.06c.24-.16.91-.27,1-.55,0-.07-.09-.09-.1-.16-.29,0-.91-.12-.91-.61v0c-.27,0-.42-.2-.58-.35a.29.29,0,0,0,.18-.26c0-.14-.11-.26-.08-.41s-.5-.34-.4-.61-.39-.41-.42-.8c0,0-.16-.13-.21-.19s-.28.2-.28.41-.39.75-.69.75-.25-.32-.4-.32-.29-.71-.33-1-.7-.12-.7-.65c-.34-.06-.41-.55-.75-.55-.16,0-.16.14-.34.14-.35,0-.57-.25-.91-.25a.34.34,0,0,0-.36.36c0,.15.43.36,0,.65-.15.12.22.44.24.65,0,.43-.3.54-.46.61.28.57.7.75.7,1.71,0,.26-.73.91-1,1,.42.26.25,1,.42,1.29,0,.09-.21.19-.22.35-.15,0-.25.28-.36.17-.3-.29-.72-.74-.72-1.16s.07-.83-.27-1.09H39a5.92,5.92,0,0,0-1.49-.87c-.1,0-.37-.29-.54-.29s-.27.22-.45.22c0-.35-.19-1.16-.46-1.16s-.18.12-.3.14a2.72,2.72,0,0,0,0-.65,1.78,1.78,0,0,1,.42-1.26c.1-.12.3-.68.4-.72s.57.06.57-.29-.46-.23-.63-.35c.11,0-.26-.25.73.11.25.09.1-.31.25-.31h.27c.29,0,.45-.36.64-.54v-.22c-.41-.12-.82,0-1-.48h.22c.16.12.31.33.54.33s.54-.3.54-.48-.18-.32-.09-.32c.27,0,.36.29.53.29s.18-.12.4-.12c-.06-.09,0-.34.15-.07s.7-.49.7-.68-.28-.28-.28-.36-.16-.33.22-.55c0-.13,0-.11,0-.36-.39,0-.29-.36-.79-.36-.11,0-.19-.1-.3-.1a.3.3,0,0,0-.3.29c0,.19.18.26.18.39s-.28.14-.34.29a2.73,2.73,0,0,1-.24.71c-.27.42-.63-.26-.63-.42s.21-.14.21-.36a1.12,1.12,0,0,0-.45-.51c-.35,0-.11.62-.48.62a.54.54,0,0,0-.28-.57.52.52,0,0,1,.12-.17c-.19-.15-.46,0-.61-.22.08-.06.3-.16.3-.35s-.36-.26-.36-.48a.71.71,0,0,0-.75-.75c-.23,0-.13.17-.12.32-.15,0-.34,0-.34.22s.1.22.1.36-.16.13-.16.33c0,.48.82.19.82.68a3.37,3.37,0,0,1-.1.43l.25-.14c.16.6-.64.3-.64,1-.4.13-.08-.35-.18-.51a1,1,0,0,0-.54-.17c-.22,0-.3.16-.3.46a10,10,0,0,0-1,0c-.65,0-1.42-.28-1.57-.87-.22.07-.94.09-.94.4a.14.14,0,0,0,.15.16,1.32,1.32,0,0,0,.66-.23c0,.48-.57.09-.57.58,0,.1.13.43.07.43-.24,0-.29-.36-.5-.48l-.18-.1H29.7c-.24,0-.4.12-.67.13-.48,0-.48-.18-.48-.23s.37-.08.44-.16c-.34-.56-.28-.47-1-.41s-1.1-.65-1.84-.65c-.23,0-.33.19-.52.19s-.27-.28-.29-.39c-.23.06-.23.38-.47.38s-.56-.65-.63-.65c-.24,0-.16.42-.41.42a.26.26,0,0,1-.22-.2,4.1,4.1,0,0,0-.85.29c-.13,0-.45.31-.56.19-.32-.36-.26.1-.38.1-.79,0-.24.38-.35.38a2.33,2.33,0,0,1-1.34-.43s-.17-.14-.17-.19,0,0-.14,0" transform="translate(-1.62)"/><path class="cls-8" d="M41.42,47c0,.12,0,.28.12.28s.06,0,.06-.07,0-.19-.13-.2S41.42,47,41.42,47Z" transform="translate(-1.62)"/><path class="cls-8" d="M41.41,46.21a.22.22,0,0,0-.17.12,2.35,2.35,0,0,0,.31,0S41.49,46.21,41.41,46.21Z" transform="translate(-1.62)"/><path class="cls-8" d="M41.78,46.39s0,.13.06.11Z" transform="translate(-1.62)"/><path class="cls-8" d="M43.25,48.69v-.13a.22.22,0,0,1-.24.13v.09s0,0,0,0A.27.27,0,0,0,43.25,48.69Z" transform="translate(-1.62)"/><path class="cls-8" d="M22.79,32.33c.06,0,.1,0,.1-.15,0-.32-.33-.36-.29-.75-.25-.06-.31-.06-.31.29.15-.12.07,0,.27,0,0,.07,0,.19,0,.29S22.68,32.33,22.79,32.33Z" transform="translate(-1.62)"/><path class="cls-8" d="M21.92,30.88s-.12,0-.12,0c-.06-.23,0-.23,0-.61-.17.12-.06,0-.28,0a.14.14,0,0,0-.14.15.43.43,0,0,0,.33.43.82.82,0,0,0,.19.58C22,31.28,21.9,31.08,21.92,30.88Z" transform="translate(-1.62)"/><path class="cls-8" d="M33.11,22.54c.22,0,.27.06.48-.12-.23-.22-1.25-.54-1.25-1S32,20.72,32,20.2c0-.13.27-.26.27-.48s-.2-.32-.42-.32-.36.1-.36.25a.57.57,0,0,0,0,.14c-.19.12-.12,0-.34,0A.21.21,0,0,0,31,20a4.65,4.65,0,0,0,.28,1c-.06.06-.06.12-.16.12s-.13-.36-.21-.54a.75.75,0,0,0-.4-.41h-.26a1.1,1.1,0,0,1,.06.26l-.36.1a.51.51,0,0,0-.54-.44c-.19,0-.28.19-.37.26,0-.09,0-.51-.21-.51-.44,0-1.54.52-1.54,1.23a.54.54,0,0,0,.36.29,1.06,1.06,0,0,1,.42,0c-.13.1-.48,0-.48.3s.67.26.93.26h.64a.57.57,0,0,1,.3.15,3.28,3.28,0,0,1-.4,0,1.64,1.64,0,0,0-1.17.33c.08.17.3.51.57.51s.53,0,.66.07,0,.36.22.36h1.09c.25-.22.56-.1.87-.29s.1-.26.31-.26.52.43,1,.43c.3,0,.58,0,.69-.26a.28.28,0,0,1-.12-.2s-.18,0-.18-.12S33,22.54,33.11,22.54Z" transform="translate(-1.62)"/><path class="cls-8" d="M25.49,21.14c0,.07.12.29.18.29s.1.14.18.14.93-.36.93-.48A1.71,1.71,0,0,1,27.69,20c.12,0,.76-.16.76-.32,0-.33-.59-.62-.85-.62s-.3.17-.41,0c-.27,0-.39-.2-.65-.29s-.34.1-.49.1-.42-.15-.73,0c0,.16.18.39.18.51,0,.52-.6.93-.6,1.42C24.91,21,25.39,21,25.49,21.14Z" transform="translate(-1.62)"/><path class="cls-8" d="M28.45,17.33h0a.3.3,0,0,0-.24.16l.13.07h-.07a.9.9,0,0,0-.21,0v.22l.13.06-.13,0c-.12,0-.18.12-.3.14,0,.1,0,.07,0,.22a.21.21,0,0,0,.18.22,3.8,3.8,0,0,0,.42.1c.15,0,.3-.07.51-.1a.2.2,0,0,1,.13-.19c0,.15.13.22.21.33-.16,0-.34,0-.34.17s.19.22.34.22A1.77,1.77,0,0,0,30,18.7s.81-.22.81-.25.71.06.79,0a1.21,1.21,0,0,0,.4-.68c0-.17-.13-.36-.28-.36s-.22.17-.33.17-.46-.32-.46-.54a.88.88,0,0,1,0-.19.38.38,0,0,1-.23-.1c-.12.12-.44.23-.44.46s.22.2.3.22v.19a.17.17,0,0,0-.12.06.46.46,0,0,0,.24,0,.24.24,0,0,1-.27.19c-.53,0-.79-.55-1.15-.55H29a.22.22,0,0,0-.21-.22,1.17,1.17,0,0,0-.4,0A.16.16,0,0,0,28.45,17.33Zm.33.32-.19,0Z" transform="translate(-1.62)"/><path class="cls-8" d="M27.12,17.88a.2.2,0,0,0,.21.17c.16,0,.34-.31.36-.51C27.57,17.53,27.12,17.65,27.12,17.88Z" transform="translate(-1.62)"/><path class="cls-8" d="M28.82,17h.27v-.19h-.42A.17.17,0,0,0,28.82,17Z" transform="translate(-1.62)"/><path class="cls-8" d="M26.24,17.54c.12,0,.19.09.34,0s.11.22.2.22.23-.16.25-.32c.21,0,.39-.2.41-.45.11.07.1.41.3.41l.52-.46c0-.12-.08-.14-.1-.29a.26.26,0,0,0,.16-.23c0-.26-.73,0-.73,0a1.24,1.24,0,0,0-.22,0c-.34,0-.4.38-.63.54s-.39.17-.58.29a1.41,1.41,0,0,0-.27.26s.1.12.12.22S26.17,17.54,26.24,17.54Z" transform="translate(-1.62)"/><path class="cls-8" d="M29.69,15.63h.52a.6.6,0,0,0,.33-.14.52.52,0,0,0-.51-.36c-.16,0-.88.32-.88.51.1,0,.14-.12.24-.12S29.54,15.63,29.69,15.63Z" transform="translate(-1.62)"/><path class="cls-8" d="M30.17,15.7c-.25,0-1,0-1,.36a.5.5,0,0,0,.39.39c.27,0,.67-.13.64-.43h-.34a.75.75,0,0,0,.52-.17A.24.24,0,0,0,30.17,15.7Z" transform="translate(-1.62)"/><path class="cls-8" d="M28.84,16.17c.08,0,.12-.09.17-.17s-.41-.41-.41,0A.3.3,0,0,0,28.84,16.17Z" transform="translate(-1.62)"/><path class="cls-8" d="M34.85,20.34c0-.15,0,0,0-.22s-.35,0-.45,0c.09-.13.39-.25.39-.54a.17.17,0,0,0-.12-.15h-.48c-.27,0-.53-.06-.73.17,0,0-.08.07-.08.12s.23.16.39.19v.39h-.18c-.21,0-.39-.17-.54-.17v.25c.35.42.73.36,1.06.77.07.09.1.25.27.25s.13-.17.24-.22c.39-.17.43,0,.48-.75C35.06,20.38,34.9,20.36,34.85,20.34Z" transform="translate(-1.62)"/><path class="cls-8" d="M32.47,17h-.14a.36.36,0,0,0,0,.17l0,0v.26c.1.09.18.19.3.15l0,.14h.18a.16.16,0,0,0,.15.18c.24,0,.67-.15.88-.15a.25.25,0,0,1,.15,0c-.07.09-.3.09-.3.22a.31.31,0,0,0,0,.15.18.18,0,0,0-.08.14c0,.13.31.07.39.07a1.48,1.48,0,0,0,.48-.07,5,5,0,0,1,.1-.91c0-.22,0-.36-.24-.36s-.15.12-.24.12S33.79,17,33.6,17s-.13,0-.22,0c0,.2.22.2.42.2v.32c-.3,0-.4-.32-.66-.32v.17a1.15,1.15,0,0,0,.24.25C33,17.78,32.82,17,32.47,17Z" transform="translate(-1.62)"/><path class="cls-8" d="M34.34,23s-.27,0-.27.07a4.27,4.27,0,0,0,1.05.43c.13,0,.18-.14.3-.23-.07-.2-.57-.74-.75-.74S34.49,22.92,34.34,23Z" transform="translate(-1.62)"/><path class="cls-8" d="M36,19.11a.32.32,0,0,0-.33.22s0,.13,0,.14h-.28v.25c.08.29,0,.46.19.7a4.23,4.23,0,0,0,0,.43h.24c.15-.17.24-.22.28-.48h-.16c.07-.29.07-.1.34-.1s.53-.32.69-.58c0,0,.22-.19.22-.22a.93.93,0,0,1,0-.19C36.73,19.28,36.39,19.11,36,19.11Z" transform="translate(-1.62)"/><path class="cls-8" d="M32.17,16.6a.18.18,0,0,0,.17-.17c-.25-.1-.28-.41-.59-.41C31.74,16.21,32,16.6,32.17,16.6Z" transform="translate(-1.62)"/><path class="cls-8" d="M32.11,18.37a1.63,1.63,0,0,1,.24,0c.07,0,.18,0,.18-.19s-.06-.14-.09-.22A.47.47,0,0,0,32.11,18.37Z" transform="translate(-1.62)"/><path class="cls-8" d="M32.11,14.91a.27.27,0,0,1-.08.14c.1.09.16,0,.42,0a.22.22,0,0,0,0,.17c-.15.06-.25,0-.36.17.11.13.16.12.33.12s.34-.07.4.06a3.67,3.67,0,0,1,.57.06c.28,0,.25.36.54.36.1,0,.22,0,.22-.19s-.24-.27-.34-.39l.1-.15c-.06-.07-.19-.33-.36-.33s-.11.12-.18.12-.12-.33-.36-.33-.14.12-.24.12-.21-.26-.46-.26-.24.09-.39.12S31.94,14.91,32.11,14.91Z" transform="translate(-1.62)"/><path class="cls-8" d="M33.11,15.8S32.78,16,33,16s.33,0,.39-.1C33.28,15.88,33.24,15.8,33.11,15.8Z" transform="translate(-1.62)"/><path class="cls-8" d="M37.65,18.6h.14c0,.25.35.29.61.22h1c.11-.09.13-.16.3-.19a.24.24,0,0,0,.24.22c.42,0,1,0,1-.51a.32.32,0,0,1-.16,0,.37.37,0,0,1,.06-.13l.1,0c-.17-.38-.48-.41-1-.41s-.85.36-1.51.36A2.81,2.81,0,0,1,37.6,18s-.19.13-.19-.07c0,0,.06,0,.09-.07-.17-.16-.47.06-.54-.33h.48c-.11-.19-.67-.1-.57-.44h-.22a.24.24,0,0,1-.24.12c-.41,0-.51-.51-1.05-.51-.14,0-.36,0-.36.22s.74.51.87.51a.32.32,0,0,0,.24-.14c.21.25.27.48.48.74a.33.33,0,0,0-.15.23c0,.29.6.65.87.65C37.42,18.85,37.6,18.67,37.65,18.6Z" transform="translate(-1.62)"/><path class="cls-8" d="M36.1,18.31a.62.62,0,0,0-.51-.48c-.28,0-.23.33-.36.33a.24.24,0,0,0-.16.22,6.76,6.76,0,0,0,.79.39C36,18.78,36.1,18.56,36.1,18.31Z" transform="translate(-1.62)"/><path class="cls-8" d="M36.14,16.21V16c-.12,0,0,0-.16,0s-.66,0-.79.17.7.16.76.16A.17.17,0,0,0,36.14,16.21Z" transform="translate(-1.62)"/><path class="cls-8" d="M34.87,15.7s-.12.07-.12.14.42.12.85,0a1.21,1.21,0,0,1,0-.36c0-.31-.42,0-.42-.33-.13,0-.39-.1-.42-.22s-.28.07-.28.22S34.72,15.53,34.87,15.7Z" transform="translate(-1.62)"/><path class="cls-8" d="M34.26,14.25h.21V14A3.82,3.82,0,0,0,34,14C34,14.14,34.19,14.17,34.26,14.25Z" transform="translate(-1.62)"/><path class="cls-8" d="M35.8,14a.73.73,0,0,1-.36-.15h-.18c0,.42.29.46.7.46-.07.12-.16.13-.28.19s0,.15.1.15.13-.06.25-.12,0,.19.17.19.18-.12.36-.12a1.53,1.53,0,0,1,.5.12c-.17,0-.92,0-.92.29s.34.36.54.36a.23.23,0,0,1-.16.1c0,.2.29.26.48.26s.29-.07.29-.33c.11.09.33.28.44.26v-.19h.22a2,2,0,0,0-.16-.29c.06-.07.09-.15.15-.22,0,.16,0,.29.19.29s.33-.43.57-.46.23,0,.28-.07,0-.12,0-.22c-.16,0-.47-.19-.59-.19s-.21.13-.21,0,.09-.12.09-.22-.15-.12-.15-.22,0-.25-.16-.25h-.12l.06.1v.19h-.15c-.11-.13,0-.32-.22-.41s-.3.06-.48,0-.15-.51-.39-.62a2.26,2.26,0,0,0-.76-.16c0,.2.22.22.36.3h-.21a.47.47,0,0,0-.46.13s.11.23.16.23.22-.09.34,0c0,0-.06.14-.13.14s-.16-.1-.33-.1-.28,0-.28.14.37.26.53.32C35.91,13.85,35.85,14,35.8,14Z" transform="translate(-1.62)"/><path class="cls-8" d="M40.21,26.43c-.06-.06,0-.16-.08-.26-.22-.35-.61-.2-.86-.58a.39.39,0,0,0-.11.12A2.18,2.18,0,0,1,39,25.3c-.34,0-.4.62-.4.87v.22c0,.09-.06.13-.12.19s-.17,0-.18.29a1.22,1.22,0,0,1,.52,0c0,.14-.06.29.08.29s.06,0,.1-.12c.17.09.57-.22.57-.54a5.29,5.29,0,0,1,.46.36h.33a.63.63,0,0,0,.4-.16C40.62,26.53,40.4,26.6,40.21,26.43Z" transform="translate(-1.62)"/><path class="cls-8" d="M42.51,24a.38.38,0,1,0-.75,0,.3.3,0,0,0,.3.32C42.21,24.36,42.51,24.22,42.51,24Z" transform="translate(-1.62)"/><path class="cls-8" d="M39.79,27.25c0,.09-.17.22-.27.36v.19a1.25,1.25,0,0,0,.61-.49C40,27.24,40,27.24,39.79,27.25Z" transform="translate(-1.62)"/><path class="cls-8" d="M41.09,20.27c.21,0,.31-.14.45-.14s.21.1.36.1.18-.1.22-.23c-.22-.13-.49-.45-.82-.45s-.34-.12-.6-.12a.21.21,0,0,0-.21.22c0,.16.13.23.24.3C40.65,20.2,40.85,20.27,41.09,20.27Z" transform="translate(-1.62)"/><path class="cls-8" d="M40.82,28.09c.12,0,.15-.2.22-.32-.12-.17-.4-.16-.4.1A1.45,1.45,0,0,0,40.82,28.09Z" transform="translate(-1.62)"/><path class="cls-8" d="M43,23.93c0-.06-.13-.23-.24-.23s-.16.1-.16.15.07.12.16.12A.5.5,0,0,0,43,23.93Z" transform="translate(-1.62)"/><path class="cls-8" d="M41.34,22.86c-.14,0-.42.33-.28.33S41.3,23,41.34,22.86Z" transform="translate(-1.62)"/><path class="cls-8" d="M43.94,21.53c0-.25-.27-.29-.4-.29h-.3c-.4,0-.48-.49-.75-.72a2,2,0,0,0-.91-.22c-.22,0-.28.36-.48.36s-.15-.14-.28-.14-.17.14-.24.14,0-.23,0-.29c0-.32-.17-.83-.48-.83-.48,0-1.3.17-1.3.72,0,.14.12.25.12.39a.39.39,0,0,1-.24.29c-.15,0-.12-.13-.12-.25a.86.86,0,0,1,0-.26c-.06,0-.1-.06-.1-.14,0-.42.4-.45.52-.75l-.4-.15a1.28,1.28,0,0,0-1,.54c0,.06,0,.32-.08.41s-.24.25-.24.65a1.09,1.09,0,0,0,.18.39,2.47,2.47,0,0,1,.67.15v.19c-.21,0-.39-.12-.54,0,0,.2.21.23.27.43h.58c.07.12.27.29.36.29.54,0,1.46,0,1.84,0,0,.1-.06.33.1.33s.41-.55.57-.55a4.22,4.22,0,0,1,.89.8c-.07,0-.29,0-.29.19s0,.17.1.17.23-.17.39-.17,1,.71,1,1.09a1.45,1.45,0,0,1-.36.65c-.08.1-.3,0-.3.22s.16.26.22.3a1.17,1.17,0,0,1-.54.2H41.9c-.17,0-.48.25-.48.39s.39.41.52.41.22-.22.36-.22.08.1.2.1.18-.12.24-.22a7.48,7.48,0,0,0,.94.73c-.21.46.52.45.81.65s.53.13.88.33c0,0,.06.17.12.17s.12-.07.12-.17c0-.4-.68-.71-.88-1h.18a2.81,2.81,0,0,0,1.13.58,3,3,0,0,0,.18-.58c0-.16-.22-.23-.22-.33a.89.89,0,0,1,0-.29h-.21c0-.25-.11-.07-.34-.17a1,1,0,0,1-.27-.55H45v-.22s.11,0,.18,0v-.17c-.11,0-.13,0-.24,0s.17-.16.24-.16c.58,0,.61,1,1.21,1,.13,0,.16-.25.16-.41.23,0,.27-.13.27-.17a.88.88,0,0,0,0-.19c.16,0,.36-.06.36-.25s-.1-.33-.33-.33a.27.27,0,0,1-.22-.07c-.1-.28-.16-.07-.42-.07s-.24-.25-.27-.51a.62.62,0,0,1-.6-.51.53.53,0,0,1-.34-.12c.11-.22.21-.22.4-.33a.21.21,0,0,0-.18-.13,2,2,0,0,1-.36,0c.1-.17.25-.16.42-.2-.07-.2-.17-.35-.34-.35h-.21v-.25C44.45,21.89,44.26,21.66,43.94,21.53Z" transform="translate(-1.62)"/><path class="cls-8" d="M41.36,27c.12.12.16.12.28,0C41.49,26.91,41.48,26.8,41.36,27Z" transform="translate(-1.62)"/><path class="cls-8" d="M39.34,25.22a.24.24,0,0,0,.24.23C39.5,25.33,39.5,25.14,39.34,25.22Z" transform="translate(-1.62)"/><path class="cls-8" d="M37.13,12.37h.36a.71.71,0,0,0-.34.25.66.66,0,0,0,.22.12c.23,0,.24-.26.48-.26a.7.7,0,0,1,.24,0c-.31.11-.62.07-.75.45.1,0,.34,0,.57,0a.54.54,0,0,0-.33.16,1,1,0,0,0,.67.3.42.42,0,0,0,.27-.14h.16c-.07.19.24.29.48.29s.14-.15.24-.15.19.12.42.12a1.22,1.22,0,0,0,.91-.33h.18a1.3,1.3,0,0,1-.58.41h-.6s-.09.09-.09.15.39.38.45.45c-.34,0-.45-.38-.75-.49a1.64,1.64,0,0,0-.64,0c-.06,0-.12,0-.18,0s0,.17.18.17c-.12,0-.3,0-.3.12s.82.26.82.72-.36.28-.67.39-.27.23-.36.48v.17h.18a.33.33,0,0,1,.12-.1h.18c0,.35.37.52.54.72H39c-.23-.16-.36-.41-.75-.41-.12,0-.3-.06-.3.15s.25.3.4.43c-.25.22-.88,0-.88.58a.12.12,0,0,0,.12.12c.06,0,.11-.07.15-.15a3.16,3.16,0,0,0,1.15.29c.18,0,.25-.14.36-.14h.91c.24,0,.12.22.4.22s1-.26,1-.51-.14-.12-.18-.12H41c0-.49.51-.22.51-.68,0-.09-.06-.12-.09-.22h.6c.21-.17.29-.52.54-.67-.07-.2-.21-.26-.35-.35.23,0,.38.06.35-.26h-.34a2.1,2.1,0,0,1,.76-.32c.19-.07.46.1.63,0,.36-.32.64-.9,1.12-1.09a3.87,3.87,0,0,0,1.39-.71c-.3,0-.79.1-.91,0,.64-.37,1.23-.12,1.72-.55.08-.07.3,0,.3-.22s-.64-.19-.79-.36-.07-.2-.21-.24a.82.82,0,0,1-.22-.12l-1,.33a.38.38,0,0,0,.22-.16c-.24-.29-1.28-.25-1.57-.25h-.34c-.11,0-.18-.1-.36-.1s-.22.25-.39.25-.24-.17-.46-.17a.17.17,0,0,0-.15.1H40.67a.27.27,0,0,0-.28.19c-.16.16,0,0-.24,0s-.5.31-.6.65a3,3,0,0,0-.81-.32c-.25,0-.1.32-.48.32a.12.12,0,0,1-.1.12h-.27c-.35,0-1.14.17-1.21.54h.27A.79.79,0,0,1,37.13,12.37Z" transform="translate(-1.62)"/><path class="cls-8" d="M60.75,22.2c-.25-.1-1.33,0-1.33-.48.06,0,.27-.06.27-.19s-.12-.16-.12-.36c.06,0,.12,0,.18,0,.5,0,.38.72.94.72.13,0,.33,0,.33-.17,0-.83-.77-1.07-1.21-1.59v-.22a.48.48,0,0,0,.16,0c.07.27.45.65.67.65s.18-.23.18-.41c0-.39-.54-.26-.67-.65h.18a1.21,1.21,0,0,0,.36.33c.1-.3.58-.12.66-.55a.25.25,0,0,1-.12-.22.63.63,0,0,0,.54-.39c-.15-.06-.48,0-.48-.29s.19-.19.39-.19c-.06-.09,0-.2,0-.32s-.18-.3-.18-.62c-.17,0-.39,0-.39-.25a.24.24,0,0,1,.24-.22c.22,0,.85.13.85-.22s-.47-.28-.52-.51A.41.41,0,0,0,61.9,16a.79.79,0,0,0-.48-.27c-.13,0-.23.07-.36,0,.07-.14.06-.49.2-.62s.48-.3.48-.61a1.1,1.1,0,0,0,0-.22c.23-.07.54-.13.54-.36s.08,0,0-.19c.22-.06.54-.06.54-.46-.1.09-.11.09-.25,0,.54,0,.8-.42,1.2-.58.07,0,.3-.16.3-.33s-.57-.51-.73-.51-.21,0-.24.19h-.58a3.66,3.66,0,0,1-.45.29,1.18,1.18,0,0,1-.28,0H61c-.19.17-.81,1.13-1.12,1.23,0-.14.82-1.13.82-1.26s-.08-.43-.3-.43c-.4,0-1.12.83-1.42.83-.1,0,.43-.61.45-.73a22.71,22.71,0,0,1-2.45,0l2.66-.17c.33-.15,1.15-.07,1.21-.58-.3-.09-.73,0-1.05-.14-.57-.29-1.1-.84-1.81-.84H56.21c-.62,0-1.09.41-1.67.41a2.65,2.65,0,0,0-.48,0v.17h-.24a1.63,1.63,0,0,0-.75-.1,1.93,1.93,0,0,0-1,.29c.06.1.16.12.24.22-.11,0-.48,0-.48.17s.5.47.69.58h-.54a2,2,0,0,0-1.09-.51c-.12,0-.3,0-.3.19a1,1,0,0,0,.1.32h-.18c-.24-.11-.45-.09-.58-.36l-.12.14c0,.1.06.19.06.29-.23,0-.29-.43-.51-.43s-.57.23-.91.33a6.58,6.58,0,0,0-1.12.22c-.39.06-.06.73-.48.73a.43.43,0,0,1-.31-.12,3.45,3.45,0,0,1-1.2.8c-.06,0-.24.09-.24.22s.69.26.91.29a.92.92,0,0,1-.33.77c-.27.19-.7,0-1,.1s-.36.25-.58.33-.69-.06-.69.39c0,.23,1.16.62,1.21.62H45c.06,0,.1-.07.12-.14h.48c0,.16,0,.22-.16.32h-.69c-.06.1-.1.12-.22.12h-.3c-.1,0-.34.09-.36.29.23.1.16,0,.42,0s.29.16.48.25c0,.13-.13.15-.24.23a1.06,1.06,0,0,0,.79.35c.1,0,.08,0,.16,0a.46.46,0,0,1-.12-.12.46.46,0,0,1,.24-.06c.14,0,.25.12.36.12s.23-.19.39-.19h.36c1.35,0,2.2,1.26,2.54,2.51v.22c.11,0,.3,0,.3.25s-.27.3-.27.62.11.25.33.25.19-.25.3-.25c.4,0,.51.68.88.83,0,.09,0,.22-.12.22-.29,0-.47-.22-.73-.22s-.1-.06-.22,0c0,.41.93.48,1.31.62a8.35,8.35,0,0,0-.36,1c-.17-.09-.17-.07-.34,0v0a3.41,3.41,0,0,0-.48.8v.33a.17.17,0,0,1,.24,0c0,.14-.12.22-.12.36,0,.39.33.55.4.83a2.37,2.37,0,0,0,.12.48c.2.13.27-.23.45,0-.08.1-.18.09-.18.27a2.48,2.48,0,0,0,.7,1.31s0,.23.08.29.32.07.4.41c.15,0,.34-.19.51-.19s.28.65.58.65c.07,0,.1-.09.24-.1s.06.15.15.15c.33,0,.18-.75.46-.91,0-.16,0-.54,0-.8,0-.42.57-.26.57-.75,0-.16-.14-.23-.14-.33s0-.12.08-.17,0-.1,0-.14c0-.48.65-.35.91-.65.11-.13.06-.28.24-.36v.29h.18c.25-.22.66-.15.91-.44s.19-.51.42-.72l.3-.26c0-.12.12-.16.24-.25h.57a11.14,11.14,0,0,1,1.25-.36c.35-.13.47-.54.87-.7A1.24,1.24,0,0,0,60.75,22.2Z" transform="translate(-1.62)"/><path class="cls-8" d="M49.74,22.83H50c.21,0,.46,0,.48-.29-.31-.12-.41-.51-.73-.51a.26.26,0,0,0-.27.29C49.5,22.5,49.63,22.82,49.74,22.83Z" transform="translate(-1.62)"/><path class="cls-8" d="M62,18s-.12.1-.12.19.07.22.16.22.33-.17.39-.22H62.2V18Z" transform="translate(-1.62)"/><path class="cls-8" d="M49.24,34.17c0-.06,0-.14-.08-.14s-.27.25-.36.43-.32,1-.65,1.19a.11.11,0,0,0,.1.07v.09S48,36,48,36.08s.06.15.12.15.19-.09.38-.09.21.1.36.1a.53.53,0,0,0,.24-.07c.06.14.22.06.34.06,0,.09-.13.09-.13.23s0,0,.07,0,.25-.22.35-.39c.1.12,0,.39.12.39s.06,0,.1,0,0,.17.11.17.19-.17.19-.35-.08-.13-.08-.3c-.07.06,0,.09-.16.09s-.08-.16-.08-.23.11-.09.12-.22a.19.19,0,0,0-.13,0c0-.22,0-.35,0-.48a.47.47,0,0,1-.35,0l-.14.06V35.2h-.22v-.13l.06-.07a.23.23,0,0,0-.19-.07c-.08,0-.08.09-.18.12v-.13C49,34.64,49.24,34.49,49.24,34.17Z" transform="translate(-1.62)"/><path class="cls-8" d="M116.15,18.38c.12,0,.18-.13.27-.22.06.09.11.14.22.14s.19-.11.27-.11.15-.1.24-.1.13.15.22.15.2-.15.3-.15H118c0-.12.17-.28.22-.48a7.33,7.33,0,0,0-1.18-.39c-.14,0-.2.17-.2.39-.33,0-.35-.46-.73-.46a.59.59,0,0,0-.54.58A.65.65,0,0,0,116.15,18.38Z" transform="translate(-1.62)"/><path class="cls-8" d="M40.51,33.44s.06,0,.06,0c0-.2-.21-.25-.41-.25a.14.14,0,0,1,0,.1A.53.53,0,0,0,40.51,33.44Z" transform="translate(-1.62)"/><path class="cls-8" d="M24.8,35.3c.19.15.62.54.89.54h.11V35.7a2.73,2.73,0,0,0-1.12-.93c-.09,0-.19-.2-.33-.2a.38.38,0,0,0-.17.07h0l.18.06a.24.24,0,0,1-.12.13c0,.17.39.32.63.32C24.89,35.2,24.83,35.2,24.8,35.3Z" transform="translate(-1.62)"/><path class="cls-8" d="M23,33.33c0-.07-.06-.1-.06-.17a1.34,1.34,0,0,0,0-.32c0,.07-.07.19-.16.19s.07-.16.07-.17-.17-.1-.28-.1v.12c0,.09.1.26.15.26s.1.16.19.19,0,.07,0,.16.07.28.17.28-.1-.22-.1-.28S23,33.38,23,33.33Z" transform="translate(-1.62)"/><path class="cls-8" d="M15.17,30.78v.17a3,3,0,0,1,.25.19,2.29,2.29,0,0,1,.47-.41v-.17h-.14C15.54,30.56,15.38,30.7,15.17,30.78Z" transform="translate(-1.62)"/><path class="cls-8" d="M73.57,40.9c-.18,0-.25.1-.41.1s-.28-.19-.53,0v.1c0,.07.13.06.17.07.19.07.35.32.56.38,0,0,.06.06.1.06s.07-.06.07-.1-.06-.13-.06-.23a.44.44,0,0,1,.06-.16Z" transform="translate(-1.62)"/><path class="cls-8" d="M71.53,39.28c0-.09.07-.41.11-.58,0,0,0-.09,0-.16s-.11.15-.19.15l-.08,0C71.37,38.83,71.41,39.25,71.53,39.28Z" transform="translate(-1.62)"/><path class="cls-8" d="M71.35,39.88c0,.1-.06.17-.07.29s0,.3.12.3a.47.47,0,0,0,.32-.41,1.15,1.15,0,0,0-.07-.59s-.07-.09-.16-.09-.12.14-.25.19S71.35,39.76,71.35,39.88Z" transform="translate(-1.62)"/><path class="cls-8" d="M69.53,40.2s-.06-.13-.06-.16a.57.57,0,0,0-.19.1s.11.13.16.13S69.53,40.24,69.53,40.2Z" transform="translate(-1.62)"/><path class="cls-8" d="M72.1,32c0-.15-.08-.12-.08-.29h-.23v.14c0,.15.13.19.28.19v.12C72.07,32.08,72.1,32.11,72.1,32Z" transform="translate(-1.62)"/><path class="cls-8" d="M72.24,32.14l0-.06a.3.3,0,0,0-.06.07.26.26,0,0,0,.17.09c.27,0,.17-.51.37-.58-.06-.24-.07-.38-.31-.38-.08,0-.23.38-.23.44s.13.2.25.23A.23.23,0,0,1,72.24,32.14Z" transform="translate(-1.62)"/><path class="cls-8" d="M74.84,30.22c-.22,0-.28.28-.28.36s0,.13,0,.19c.09-.13.18-.2.18-.36S74.82,30.28,74.84,30.22Z" transform="translate(-1.62)"/><path class="cls-8" d="M75.93,30.15s.2-.1.2-.15v-.17a.38.38,0,0,0,.1-.19.43.43,0,0,1-.13-.14s-.11.07-.11.14,0,.12.08.17-.17.1-.27.12S75.82,30.15,75.93,30.15Z" transform="translate(-1.62)"/><path class="cls-8" d="M77.32,42.3a1.46,1.46,0,0,0-.76-.09,1,1,0,0,0,.46.12C77.1,42.33,77.16,42.4,77.32,42.3Z" transform="translate(-1.62)"/><path class="cls-8" d="M80.18,42a3,3,0,0,0-.7.29s0,.07.06.07a.08.08,0,0,0,.08.07c.11,0,.34-.07.38-.16s0-.13,0-.15S80.15,42.18,80.18,42Z" transform="translate(-1.62)"/><path class="cls-8" d="M86.78,52.43c.1,0,.19-.12.22-.17a.82.82,0,0,0-.35.07A.14.14,0,0,0,86.78,52.43Z" transform="translate(-1.62)"/><path class="cls-8" d="M84.94,22.69a1,1,0,0,0-.16.33c0,.15.07.17.22.17a1,1,0,0,0,.51-.25v-.19c-.17,0-.25-.22-.42-.22S85,22.69,84.94,22.69Z" transform="translate(-1.62)"/><path class="cls-8" d="M88.41,22.08c0,.17.27.36.42.36,0,0,.16,0,.16-.07C89,22.08,88.41,21.79,88.41,22.08Z" transform="translate(-1.62)"/><path class="cls-8" d="M92.86,19.75c-.12-.12-.16-.28-.3-.28s-.18.16-.18.29,0,.15,0,.15A1.06,1.06,0,0,0,92.86,19.75Z" transform="translate(-1.62)"/><path class="cls-8" d="M117.38,19.62h.36a.57.57,0,0,0-.57-.58c-.28,0-.44.2-.58.43l.06-.07C116.89,19.5,117.16,19.47,117.38,19.62Z" transform="translate(-1.62)"/><path class="cls-8" d="M119.78,18.34c.19,0,.54-.06.54-.22a.14.14,0,0,0-.12-.15,8.15,8.15,0,0,1-1.43-.29l.12.11C118.89,18.17,119.46,18.34,119.78,18.34Z" transform="translate(-1.62)"/><path class="cls-8" d="M116.9,18.85a.16.16,0,1,0-.33,0c0,.13,0,.19.14.19A.19.19,0,0,0,116.9,18.85Z" transform="translate(-1.62)"/><path class="cls-8" d="M47.11,35.34c-.25-.17-.48-.45-.86-.35.15.13.5.43.69.43S47.07,35.41,47.11,35.34Z" transform="translate(-1.62)"/><path class="cls-8" d="M46.36,36.56a.13.13,0,0,0,0,.1c0,.1.45.38.53.38S47,37,47,36.88v-.09h-.36A.35.35,0,0,1,46.36,36.56Z" transform="translate(-1.62)"/><path class="cls-8" d="M47.75,37v-.1c-.28,0-.1-.09-.1-.22s-.06-.09-.08-.14a.93.93,0,0,0-.28.49c0,.09.07.16.19.16S47.75,37.14,47.75,37Z" transform="translate(-1.62)"/><path class="cls-8" d="M11.22,29c-.1,0-.13,0-.18.1h-.18c0,.06.1.1.14.15h.4C11.37,29.14,11.36,29,11.22,29Z" transform="translate(-1.62)"/></g><line class="cls-6" x1="31.07" y1="9.2" x2="110.92" y2="9.2"/><line class="cls-6" x1="32.25" y1="80.53" x2="111.4" y2="80.53"/></g></g></g></g></svg>