<svg xmlns="http://www.w3.org/2000/svg" viewBox="0 0 1293.1 75.69"><defs><style>.cls-1{fill:#e6e7e8;}.cls-2,.cls-6{fill:#fff;}.cls-11,.cls-3,.cls-4,.cls-7{fill:none;}.cls-11,.cls-3,.cls-4,.cls-6,.cls-7{stroke:#0080b1;}.cls-3,.cls-4,.cls-6{stroke-linecap:round;stroke-linejoin:round;}.cls-11,.cls-3,.cls-4,.cls-6{stroke-width:2px;}.cls-4{stroke-dasharray:2.98 5.97;}.cls-10,.cls-5,.cls-8{fill:#0080b1;}.cls-11,.cls-7{stroke-miterlimit:10;}.cls-8{font-size:5px;font-family:HelveticaNeueLTPro-LtCn, HelveticaNeueLTPro LtCn;}.cls-9{letter-spacing:-0.01em;}.cls-10{font-size:13.19px;font-family:ArialMT, Arial;}</style></defs><title>car-bar_1</title><g id="Layer_2" data-name="Layer 2"><g id="Layer_1-2" data-name="Layer 1"><rect class="cls-1" y="13" width="1293.1" height="41.87"/><line class="cls-2" x1="469.27" y1="36.69" x2="845.09" y2="36.69"/><line class="cls-3" x1="469.27" y1="36.69" x2="470.77" y2="36.69"/><line class="cls-4" x1="476.73" y1="36.69" x2="840.61" y2="36.69"/><line class="cls-3" x1="843.59" y1="36.69" x2="845.09" y2="36.69"/><path class="cls-2" d="M452.14,62.25A9.06,9.06,0,0,1,452,44.13h.11a9.06,9.06,0,0,1,.11,18.12Z"/><path class="cls-5" d="M452.15,45.13a8.06,8.06,0,0,1,.1,16.12h-.1A8.06,8.06,0,0,1,452,45.13h.1m0-2H452a10.06,10.06,0,0,0,.12,20.12h.12a10.06,10.06,0,0,0,9.94-10.18,10.1,10.1,0,0,0-10.06-9.94Z"/><path class="cls-2" d="M381.85,63.1A9.06,9.06,0,0,1,381.74,45h.11A9.06,9.06,0,0,1,382,63.1Z"/><path class="cls-5" d="M381.85,46a8.06,8.06,0,0,1,.1,16.12h-.1A8.06,8.06,0,0,1,381.75,46h.1m0-2h-.12a10.06,10.06,0,0,0,.12,20.12H382a10.06,10.06,0,0,0,9.94-10.18A10.1,10.1,0,0,0,381.85,44Z"/><path class="cls-2" d="M368.3,55.2A7.44,7.44,0,0,1,362,52.33c-3.92-5.13-2-16.1.21-24.4,1.58-5.81,6.17-10.17,10.6-14.39.87-.83,1.74-1.66,2.58-2.49A22.45,22.45,0,0,1,387,5h.13l37.16-.45c10.58,0,20.09,10.57,23.69,15.11,2.33,2.95,6.57,3,6.82,3H455c1,0,5.07.16,13.15,2.25,9.49,2.45,8.9,10,8.77,11l.13,11a7.37,7.37,0,0,1-1.8,5.47,5.75,5.75,0,0,1-4,1.62h-.34l-5.33.06a1,1,0,0,1-1-1c0-.5-.47-12.29-12.36-12.29H452c-3.6,0-6.46,1.13-8.49,3.23C440,47.65,440,53.27,440,53.32a1,1,0,0,1-1,1l-43,.52a1,1,0,0,1-1-.93c0-.48-1-11.86-13.13-11.86h-.24c-12.29.15-12.29,11.62-12.28,12.1a1,1,0,0,1-1,1Z"/><path class="cls-5" d="M424.26,5.49c10.67,0,20.19,11.31,22.91,14.73s7.3,3.38,7.61,3.38H455c1,0,4.9.15,12.9,2.22,9.35,2.42,8,10,8,10l.13,11.06c.07,5.66-3.73,6.08-4.84,6.08h-.3l-5.37.06s-.32-13.27-13.35-13.27H452C438.71,39.92,439,53.35,439,53.35l-43,.52s-.93-12.78-14.12-12.78h-.25c-13.43.16-13.27,13.12-13.27,13.12h-.13c-11.53,0-6.89-19.37-5.09-26s7.92-11.47,12.92-16.43a21.6,21.6,0,0,1,11-5.82l37-.45h.18m0-2h-.21l-37,.45-.26,0a23.55,23.55,0,0,0-12.11,6.38c-.83.82-1.71,1.66-2.56,2.47-4.53,4.31-9.22,8.78-10.87,14.85-3.38,12.38-3.39,20.89,0,25.27a8.5,8.5,0,0,0,7.06,3.26h.15a2,2,0,0,0,2-2c0-1.11.27-11,11.3-11.09h.22c11.13,0,12.09,10.49,12.13,10.94a2,2,0,0,0,2,1.85h0l43-.52a2,2,0,0,0,2-2s-.05-5.27,3.2-8.62A10.57,10.57,0,0,1,452,41.76h.21c4.55,0,7.83,1.83,9.73,5.44a15.17,15.17,0,0,1,1.62,5.88,2,2,0,0,0,2,1.95h0l5.28-.06h.37A6.76,6.76,0,0,0,476,53.06a8.32,8.32,0,0,0,2.09-6.19L478,36c.49-3.33-.89-9.87-9.52-12.1-8.19-2.11-12.32-2.28-13.4-2.28h-.28c-.28,0-4-.12-6-2.63C444.15,13.2,434.88,3.5,424.26,3.49Z"/><path class="cls-2" d="M387.07,10.88a15.76,15.76,0,0,1,3.49-.4H391l21.46-.26L412.59,23l-25.37.31Z"/><path class="cls-5" d="M411.44,11.24l.13,10.81-23.37.28-.13-10.64a15.19,15.19,0,0,1,2.48-.22h.49l20.39-.25m2-2L391,9.49h-.47a16.61,16.61,0,0,0-4.5.63l.17,14.25L413.6,24l-.18-14.81Z"/><path class="cls-2" d="M382.07,13.74a7.14,7.14,0,0,1,1-1l.13,10.67-10.68.13Z"/><path class="cls-5" d="M382.1,15.14l.09,7.27-7.27.09,7.18-7.36m1.95-4.24a8.14,8.14,0,0,0-2.7,2.14L370.12,24.55l14.1-.17-.16-13.48Z"/><path class="cls-2" d="M416.45,10.18l7.29-.09h1.08c2.67,0,4.1.25,8.53,2.94C437,15.21,441,20.15,443,22.67L416.6,23Z"/><path class="cls-5" d="M424.82,11.09h0c2.3,0,3.6.12,8,2.8,2.83,1.72,6,5.23,8.12,7.82L417.59,22l-.13-10.81,6.29-.08h1.07m0-2h-1.09l-8.29.1L415.61,24,445,23.65s-6-8.34-11.12-11.48c-4.61-2.8-6.24-3.09-9.05-3.09Z"/><path class="cls-2" d="M452.14,56.24a3.05,3.05,0,1,1,3.05-3.09,3.05,3.05,0,0,1-3,3.09Z"/><path class="cls-5" d="M452.15,51.13a2.05,2.05,0,0,1,0,4.11h0a2.05,2.05,0,0,1,0-4.11h0m0-2h0a4.05,4.05,0,0,0-4,4.1A4.05,4.05,0,0,0,455,56a4,4,0,0,0,1.15-2.88,4.07,4.07,0,0,0-4.05-4Z"/><path class="cls-2" d="M381.85,57.09A3.05,3.05,0,1,1,384.9,54a3.05,3.05,0,0,1-3,3.09Z"/><path class="cls-5" d="M381.85,52a2.05,2.05,0,0,1,0,4.11h0a2.05,2.05,0,0,1,0-4.11h0m0-2h0a4.05,4.05,0,1,0,4.1,4,4.06,4.06,0,0,0-4.1-4Z"/><circle class="cls-6" cx="583.75" cy="37.85" r="36.85"/><circle class="cls-6" cx="714.42" cy="37.85" r="36.85"/><circle class="cls-6" cx="845.09" cy="37.85" r="36.85"/><polygon class="cls-6" points="836.04 11.99 839.72 21.92 849.64 25.59 839.72 29.27 836.04 39.2 832.37 29.27 822.44 25.59 832.37 21.92 836.04 11.99"/><polygon class="cls-6" points="859.6 21.25 863.27 31.18 873.2 34.85 863.27 38.53 859.6 48.46 855.92 38.53 846 34.85 855.92 31.18 859.6 21.25"/><polygon class="cls-6" points="843.1 39.2 846.77 49.12 856.7 52.8 846.77 56.47 843.1 66.4 839.42 56.47 829.5 52.8 839.42 49.12 843.1 39.2"/><path class="cls-5" d="M737.12,25.37a1.07,1.07,0,0,1,1.07,1.07V49.25a1.07,1.07,0,0,1-1.07,1.07H691.69a1.07,1.07,0,0,1-1.07-1.07V26.44a1.07,1.07,0,0,1,1.07-1.07h45.42m0-2H691.69a3.07,3.07,0,0,0-3.07,3.07V49.25a3.07,3.07,0,0,0,3.07,3.07h45.42a3.07,3.07,0,0,0,3.07-3.07V26.44a3.07,3.07,0,0,0-3.07-3.07Z"/><rect class="cls-7" x="692.76" y="27.51" width="43.28" height="20.67"/><text class="cls-8" transform="translate(708.98 33.71)"><tspan class="cls-9">Y</tspan><tspan x="2.67" y="0">EAR</tspan></text><text class="cls-10" transform="translate(700.33 45.22)">2009</text><rect class="cls-5" x="705.85" y="32.24" width="0.68" height="0.77" transform="translate(1412.39 65.25) rotate(180)"/><rect class="cls-5" x="704.66" y="32.24" width="0.68" height="0.77" transform="translate(1410 65.25) rotate(180)"/><rect class="cls-5" x="703.47" y="32.24" width="0.68" height="0.77" transform="translate(1407.62 65.25) rotate(180)"/><rect class="cls-5" x="696.67" y="32.29" width="6.08" height="0.74"/><rect class="cls-5" x="695.48" y="32.24" width="0.68" height="0.77" transform="translate(1391.64 65.25) rotate(180)"/><rect class="cls-5" x="694.29" y="32.24" width="0.68" height="0.77" transform="translate(1389.25 65.25) rotate(180)"/><rect class="cls-5" x="693.1" y="32.24" width="0.68" height="0.77" transform="translate(1386.87 65.25) rotate(180)"/><rect class="cls-5" x="734.82" y="32.24" width="0.68" height="0.77" transform="translate(1470.31 65.25) rotate(180)"/><rect class="cls-5" x="733.62" y="32.24" width="0.68" height="0.77" transform="translate(1467.93 65.25) rotate(180)"/><rect class="cls-5" x="732.43" y="32.24" width="0.68" height="0.77" transform="translate(1465.54 65.25) rotate(180)"/><rect class="cls-5" x="725.64" y="32.29" width="6.08" height="0.74"/><rect class="cls-5" x="724.44" y="32.24" width="0.68" height="0.77" transform="translate(1449.56 65.25) rotate(180)"/><rect class="cls-5" x="723.25" y="32.24" width="0.68" height="0.77" transform="translate(1447.18 65.25) rotate(180)"/><rect class="cls-5" x="722.06" y="32.24" width="0.68" height="0.77" transform="translate(1444.79 65.25) rotate(180)"/><path class="cls-11" d="M595.66,13.36c.37.13.75.27.9.69a1.08,1.08,0,0,1-.31,1.21l-5.52,5.51a.42.42,0,0,0-.13.5c.64,2,1.26,4,1.91,6a.53.53,0,0,0,.3.29l5.89,1.88a.47.47,0,0,0,.56-.15q2.74-2.77,5.51-5.51a1,1,0,0,1,1.84.7A12,12,0,0,1,594.3,37.3a11.64,11.64,0,0,1-3.59-.66.41.41,0,0,0-.5.14l-5.08,5.48-4.92,5.33-5.32,5.71c-1,1.05-1.94,2.12-2.93,3.16A5.83,5.83,0,0,1,562,51a5.92,5.92,0,0,1,1.75-2.79l5.7-5.37,6.67-6.28,7.14-6.73a.44.44,0,0,0,.09-.55,11.82,11.82,0,0,1-.58-5.17,11.94,11.94,0,0,1,6.57-9.44,11.51,11.51,0,0,1,4.2-1.19,2.58,2.58,0,0,0,.31-.07Zm-28.36,37.2a2.16,2.16,0,1,0,0,4.31,2.16,2.16,0,0,0,0-4.31Z"/></g></g></svg>