<svg xmlns="http://www.w3.org/2000/svg" viewBox="0 0 437.23 233.34"><defs><style>.cls-1,.cls-6{fill:#fff;}.cls-2{fill:#2f9622;stroke-linecap:round;stroke-linejoin:round;}.cls-2,.cls-5,.cls-7{stroke:#fff;}.cls-2,.cls-7{stroke-width:2px;}.cls-3{fill:#ffb600;}.cls-4{font-size:28px;fill:#0066ae;}.cls-4,.cls-6{font-family:ArialMT, Arial;}.cls-5{fill:none;stroke-width:4px;}.cls-5,.cls-7{stroke-miterlimit:10;}.cls-6{font-size:40.63px;}.cls-7{fill:#bf3019;}</style></defs><title>comments</title><g id="Layer_2" data-name="Layer 2"><g id="Layer_1-2" data-name="Layer 1"><rect class="cls-1" x="4.5" y="28.67" width="330" height="50"/><path class="cls-2" d="M269.41,22.83"/><path class="cls-3" d="M374.5,223.48h14.34c12.25,0,15.54-8.07,15.54-30.77v-26.9c0-40,17-46,20.91-49.89-3.88-2.39-20.91-8.36-20.91-48.4V40.63c0-22.7-3.29-30.77-15.54-30.77H374.5V0h14.94c16.73,0,26.29,8.07,26.29,35.25v27.5c0,24.2,3.88,47.5,21.51,48.4V122.5c-17.63.9-21.51,24.2-21.51,48.4v27.2c0,27.19-9.56,35.25-26.29,35.25H374.5Z"/><text class="cls-4" transform="translate(22.31 62.63)">COMMENTS/REPLIES</text><path class="cls-5" d="M11,116.67a9,9,0,0,0-9,9V163a9,9,0,0,0,9,9H51a16.08,16.08,0,0,1,13.06,8l11.41,22.57c2.23,4.42,5.65,4.31,7.6-.24l9.45-22.09A14.82,14.82,0,0,1,105,172h43a9,9,0,0,0,9-9V125.67a9,9,0,0,0-9-9Z"/><text class="cls-6" transform="translate(32.28 157.24)">25</text><path class="cls-5" d="M188.5,116.67a9,9,0,0,0-9,9V163a9,9,0,0,0,9,9h40a16.08,16.08,0,0,1,13.06,8l11.41,22.57c2.23,4.42,5.65,4.31,7.6-.24L270,180.31A14.82,14.82,0,0,1,282.52,172h43a9,9,0,0,0,9-9V125.67a9,9,0,0,0-9-9Z"/><text class="cls-6" transform="translate(215.78 157.24)">12</text><circle class="cls-7" cx="277.74" cy="135.62" r="2.15"/><circle class="cls-7" cx="286.1" cy="135.62" r="2.15"/><circle class="cls-7" cx="294.46" cy="135.62" r="2.15"/><path class="cls-1" d="M300.87,129.24v12.88H275.49l-8.25,2.5,4.13-3.8V129.24h29.5m0-1h-29.5a1,1,0,0,0-1,1v11.14l-3.8,3.5a1,1,0,0,0,1,1.69l8.1-2.46h25.23a1,1,0,0,0,1-1V129.24a1,1,0,0,0-1-1Z"/><circle class="cls-7" cx="307.19" cy="152.56" r="2.15"/><circle class="cls-7" cx="298.83" cy="152.56" r="2.15"/><circle class="cls-7" cx="290.47" cy="152.56" r="2.15"/><path class="cls-1" d="M317.68,143.56h0m0,0-4.12,3.8v11.57h-29.5V146.06h25.38l8.25-2.5m0-1h-.11l-.21,0-8.08,2.45H284.06a1,1,0,0,0-1,1v12.88a1,1,0,0,0,1,1h29.5a1,1,0,0,0,1-1V147.8l3.77-3.48a1,1,0,0,0-.63-1.76Zm0,2h0Z"/><circle class="cls-7" cx="102.71" cy="142.64" r="3.25"/><circle class="cls-7" cx="115.31" cy="142.64" r="3.25"/><circle class="cls-7" cx="127.9" cy="142.64" r="3.25"/><path class="cls-1" d="M137.55,133v19.39H99.33l-12.42,3.77,6.21-5.72V133h44.43m0-1H93.13a1,1,0,0,0-1,1v17l-5.89,5.43a1,1,0,0,0,1,1.69l12.28-3.72h38.08a1,1,0,0,0,1-1V133a1,1,0,0,0-1-1Z"/></g></g></svg>