<svg xmlns="http://www.w3.org/2000/svg" viewBox="0 0 384.68 389.38"><defs><style>.cls-1{fill:#ffb600;}.cls-2{fill:#fff;}.cls-3,.cls-4,.cls-5,.cls-7,.cls-8{fill:#58595b;}.cls-3,.cls-5,.cls-7,.cls-8{stroke:#fff;}.cls-3,.cls-7{stroke-miterlimit:10;}.cls-3,.cls-5,.cls-7{stroke-width:2px;}.cls-5,.cls-8{stroke-linecap:round;stroke-linejoin:round;}.cls-6{fill:#bf3019;}.cls-7{opacity:0.3;}</style></defs><title>comp-icons-brace</title><g id="Layer_2" data-name="Layer 2"><g id="Layer_1-2" data-name="Layer 1"><path class="cls-1" d="M384.68,96.6H369.49c-13,0-16.46,8.55-16.46,32.6v49.7c0,42.42-18,48.75-22.16,52.86C335,234.3,353,240.63,353,283v49.7c0,24.06,3.48,32.6,16.46,32.6h15.19v10.45H368.86c-17.73,0-27.86-8.55-27.86-37.35V288.11c0-25.64-4.11-50.33-22.79-51.28v-12c18.68-.95,22.79-25.64,22.79-51.28v-50c0-28.8,10.13-37.35,27.86-37.35h15.83Z"/><path class="cls-2" d="M75.71,250h-4V87.42s.23-5.66-3.66-9.07c-2.42-2.12-5.58-3-9.84-2.55h0l-19.48-.07,0-3.24,19.39.07c5.17-.5,9.3.63,12.41,3.37,4.95,4.36,5.12,11.16,5.12,11.44Z"/><path class="cls-2" d="M154.71,250h-3V180.14a9.39,9.39,0,0,1,2.73-5.82,9.57,9.57,0,0,1,7.11-2.32l30.94-.26,0,3.24-31,.26h-.29c-5.83-.18-6.58,4.08-6.58,4.94Z"/><rect class="cls-2" x="138.71" y="75" width="3" height="175"/><path class="cls-2" d="M114.71,250h-2V114.43a8.13,8.13,0,0,0-2.4-4.78c-1.88-1.77-4.91-2.2-8.82-2l-.17.36H93.43c-.52,0-4.8-.3-7.49-2.85a10.51,10.51,0,0,1-3.23-7.42V55h4V97.73a6.3,6.3,0,0,0,1.84,4.72A7.08,7.08,0,0,0,93.23,104l.17,0h7.87c4.84,0,8.15.89,10.69,3.31a9.17,9.17,0,0,1,2.75,7.12Z"/><path class="cls-2" d="M125.65,250h-4.95V141.21a17,17,0,0,1,5-9c2.45-2.14,6.16-3,10.17-2.64l14.93,0,70.81,0,.06,3.24-70.67,0-14.86.05h-.08c-3.12-.31-5.59.31-7.36,1.84-2.85,2.47-3.06,6.89-3.06,6.93Z"/><path class="cls-2" d="M64.71,250h-3V131.85s-.17-4-2.83-6.35c-1.65-1.47-4-2.06-7-1.76h-.1l-14.46,0v-3.24l14.28,0c3.91-.37,7,.5,9.37,2.59,3.73,3.33,3.77,8.51,3.77,8.73Z"/><path class="cls-2" d="M166.71,250h-2.34V99.08a9.41,9.41,0,0,1,2.94-6.18,8.67,8.67,0,0,1,6.75-1.84l9.57,0,21.51,0v3.25l-21.51,0-9.73,0h-.08A6.79,6.79,0,0,0,169,95.38a7.89,7.89,0,0,0-2.27,3.88Z"/><circle class="cls-3" cx="202.6" cy="91.77" r="14.91"/><circle class="cls-3" cx="27.41" cy="74.12" r="26.41"/><circle class="cls-3" cx="85.31" cy="29.36" r="28.36"/><path class="cls-4" d="M34.24,90.2a3.07,3.07,0,0,1-1.49-.39l-21.31-12A3.07,3.07,0,0,1,10,76.12a1,1,0,0,1,.76-1.29l13-2.61.2,0a1,1,0,0,1,.94.67l1.28,3.6L30,75.68l.21,0a1,1,0,0,1,.94.66L35.67,88.8a1,1,0,0,1-.7,1.32A3.08,3.08,0,0,1,34.24,90.2Z"/><path class="cls-2" d="M24,73.21l1.57,4.42,4.59-1,4.57,12.48a2.05,2.05,0,0,1-1.49-.2L11.92,77a2.07,2.07,0,0,1-1-1.17l13-2.61m0-2a2,2,0,0,0-.39,0l-13,2.61a2,2,0,0,0-1.51,2.57,4.06,4.06,0,0,0,1.88,2.3l21.31,12a4.05,4.05,0,0,0,2.95.4,2,2,0,0,0,1.4-2.63L32,76a2,2,0,0,0-2.29-1.27l-2.88.61-1-2.77A2,2,0,0,0,24,71.2Z"/><path class="cls-4" d="M26.56,76.85a1,1,0,0,1-.94-.66L19.45,59.35a1,1,0,0,1,.7-1.31,3.05,3.05,0,0,1,2.23.3l21.31,12A3,3,0,0,1,45.11,72a1,1,0,0,1-.76,1.28l-17.6,3.52Z"/><path class="cls-2" d="M20.89,58.94a2,2,0,0,1,1,.26l21.31,12a2.05,2.05,0,0,1,1,1.17l-17.6,3.52L20.39,59a2.07,2.07,0,0,1,.5-.06m0-2a4.07,4.07,0,0,0-1,.12,2,2,0,0,0-1.4,2.63l6.17,16.85A2,2,0,0,0,27,77.81l17.6-3.52a2,2,0,0,0,1.51-2.57,4.05,4.05,0,0,0-1.89-2.31l-21.31-12a4.05,4.05,0,0,0-2-.52Z"/><path class="cls-4" d="M10.94,75.54A1,1,0,0,1,10.07,74l8.28-14.77a1,1,0,0,1,.87-.51h.08a1,1,0,0,1,.86.66l4.41,12.29A1,1,0,0,1,23.82,73L11.13,75.52Z"/><path class="cls-2" d="M19.22,59.76l4.41,12.29L10.94,74.54l8.28-14.77m0-2a2,2,0,0,0-1.74,1L9.2,73.56a2,2,0,0,0,2.13,2.94L24,74a2,2,0,0,0,1.5-2.64L21.11,59.09a2,2,0,0,0-1.72-1.32Z"/><path class="cls-4" d="M35.76,89.49a1,1,0,0,1-.86-.65L30.4,76.72a1,1,0,0,1,.73-1.33l12.79-2.66.2,0A1,1,0,0,1,45,74.21L36.71,89a1,1,0,0,1-.87.51Z"/><path class="cls-2" d="M44.12,73.72h0m0,0L35.84,88.49l-4.5-12.12,12.79-2.66m0-2H44l-.33,0L30.93,74.41a2,2,0,0,0-1.47,2.65L34,89.19a2,2,0,0,0,1.72,1.3h.16a2,2,0,0,0,1.74-1l8.24-14.7a2,2,0,0,0-1.67-3.05Zm0,4h0Z"/><circle class="cls-3" cx="195.68" cy="173.36" r="19.27"/><circle class="cls-3" cx="140.82" cy="57" r="23.63"/><path class="cls-5" d="M204.14,175.82c-.53-1.18-3.77-2.2-3.77-2.2-1.73-.61-1.74-1.22-1.74-1.22-3.39,6.69-6,0-6,0-.24.9-3.73,2-3.73,2a3.37,3.37,0,0,0-1.45,1c-1.51,2.24-1.69,7.22-1.69,7.22,0,1.14.51,1.25.51,1.25,3.47,1.55,8.91,1.82,8.91,1.82a26,26,0,0,0,9.66-1.59c.59-.37.61-.67.61-.67A17.28,17.28,0,0,0,204.14,175.82Z"/><path class="cls-5" d="M191.82,168.87c.26,2.15,2.11,4.38,3.79,4.38,1.93,0,3.76-2.34,4-4.38a1,1,0,0,0,.35-.69s.41-1.47-.13-1.32c.19-.57.82-2.78-.4-4.16a3.86,3.86,0,0,0-2-1.2l-.15-.12.08.1-.25-.06-.26-.25a2.08,2.08,0,0,1,.19.23l-.11,0a2,2,0,0,0-.24-.3l.09.2c-.26-.19-.77-.62-.77-1.11a1.44,1.44,0,0,0-.51.43,1.33,1.33,0,0,1,.4-.61,1.46,1.46,0,0,0-.41.34,1.29,1.29,0,0,0-.62.74l-.11-.06a1.7,1.7,0,0,1,.23-.37,1.71,1.71,0,0,0-.28.35l-.22-.11a1.74,1.74,0,0,1,.27-.38,1.67,1.67,0,0,0-.25.25c0-.14,0-.31-.42.18a5.13,5.13,0,0,0-2.62,2.71s-.35.82.11,3.25c-.65-.31-.21,1.28-.21,1.28A1,1,0,0,0,191.82,168.87Zm0-.86Zm3.73-7.59a1.31,1.31,0,0,0-.23.52l-.07,0A1.17,1.17,0,0,1,195.51,160.42Z"/><rect class="cls-2" x="92.71" y="134" width="3" height="84"/><path class="cls-5" d="M140.57,42.85a8.67,8.67,0,0,0-7.88,12.29l6.6,14.32c.32.69.77,1.12,1.27,1.12s1-.43,1.27-1.12l6.6-14.32a8.67,8.67,0,0,0-7.88-12.29Zm0,13.86a5.2,5.2,0,1,1,5.2-5.2A5.2,5.2,0,0,1,140.57,56.72Z"/><path class="cls-5" d="M74.61,22.17a4.64,4.64,0,1,1,4.64,4.64A4.63,4.63,0,0,1,74.61,22.17Zm6.86,10.47a4.27,4.27,0,0,1,.75-5.43,5.91,5.91,0,0,0-1-.09H77.28a5.94,5.94,0,0,0-5.93,5.93v4.89l.33.1a27.58,27.58,0,0,0,7.11,1.28v-2.2A5.11,5.11,0,0,1,81.47,32.64ZM92,26.8a4.64,4.64,0,1,0-4.63-4.64A4.63,4.63,0,0,0,92,26.8Zm2,.32H90.08a5.91,5.91,0,0,0-1.85.3,4.27,4.27,0,0,1,.54,5.22,5.11,5.11,0,0,1,2.68,4.49v2.19l1.12,0a16.58,16.58,0,0,0,7-1.32l.31-.16h0V33.05A5.94,5.94,0,0,0,94,27.12ZM82.24,30.53a2.88,2.88,0,1,0,2.87-2.88A2.88,2.88,0,0,0,82.24,30.53Zm4.09,3.07H83.9a3.69,3.69,0,0,0-3.68,3.68v3l.21.06a16.76,16.76,0,0,0,5,.81,10.28,10.28,0,0,0,4.37-.82l.19-.1h0v-3A3.68,3.68,0,0,0,86.34,33.6Z"/><circle class="cls-3" cx="94.42" cy="129.09" r="7.03"/><circle class="cls-3" cx="232.54" cy="131.34" r="21.57"/><circle class="cls-5" cx="232.25" cy="139.7" r="3.47" transform="translate(84.26 366.75) rotate(-87.93)"/><path class="cls-5" d="M224.26,131l.16-.14.16-.14.09-.07a11.32,11.32,0,0,1,15.62.93l.48.52.67.72a2.18,2.18,0,0,1-3.19,3l-1.15-1.24a7,7,0,0,0-9.87-.36l-.9.81a2.16,2.16,0,0,1-3.62-1.66,2.12,2.12,0,0,1,.68-1.5Z"/><path class="cls-5" d="M218.51,126.54l.75-.69h0l.59-.55a2.05,2.05,0,0,1,.33-.25,18.89,18.89,0,0,1,25.48,1.51l.1.09L247,128a2,2,0,0,1-2.91,2.71l-1.25-1.35,0,0a14.92,14.92,0,0,0-20.57-.86l-1.06,1a2,2,0,0,1-2.71-2.91Z"/><circle class="cls-3" cx="23.55" cy="124.71" r="16.19"/><path class="cls-4" d="M21.21,133.92a1.71,1.71,0,0,1-1.7-1.55,1.7,1.7,0,0,1-2.3-.1l-.63-.63a1.7,1.7,0,0,1-.1-2.3,1.71,1.71,0,0,1-1.55-1.7v-.9a1.71,1.71,0,0,1,1.55-1.7,1.7,1.7,0,0,1,.1-2.3l.63-.63a1.7,1.7,0,0,1,2.3-.1,1.71,1.71,0,0,1,1.7-1.56h.9a1.71,1.71,0,0,1,1.7,1.55,1.7,1.7,0,0,1,2.3.1l.63.63a1.7,1.7,0,0,1,.1,2.3,1.7,1.7,0,0,1,1.55,1.7v.9a1.71,1.71,0,0,1-1.55,1.7,1.7,1.7,0,0,1-.1,2.3l-.63.63a1.7,1.7,0,0,1-2.3.1,1.7,1.7,0,0,1-1.7,1.55Zm.45-7.79a1.06,1.06,0,1,0,1.06,1.06A1.06,1.06,0,0,0,21.66,126.14Z"/><path class="cls-2" d="M22.11,121.46a.7.7,0,0,1,.7.7v.55a.45.45,0,0,0,.29.38l.44.18a.45.45,0,0,0,.19,0,.4.4,0,0,0,.28-.1l.39-.39a.7.7,0,0,1,1,0l.63.63a.7.7,0,0,1,0,1l-.39.39a.45.45,0,0,0-.06.47,4.36,4.36,0,0,1,.18.44.45.45,0,0,0,.38.29h.55a.7.7,0,0,1,.7.7v.9a.7.7,0,0,1-.7.7h-.55a.45.45,0,0,0-.38.29,4.38,4.38,0,0,1-.18.44.45.45,0,0,0,.06.47l.39.39a.7.7,0,0,1,0,1l-.64.63a.7.7,0,0,1-1,0l-.39-.39a.4.4,0,0,0-.28-.1.44.44,0,0,0-.19,0l-.44.18a.45.45,0,0,0-.29.38v.55a.7.7,0,0,1-.7.7h-.9a.7.7,0,0,1-.7-.7v-.55a.45.45,0,0,0-.29-.38l-.44-.18a.45.45,0,0,0-.19,0,.4.4,0,0,0-.28.1l-.39.39a.7.7,0,0,1-1,0l-.63-.63a.7.7,0,0,1,0-1l.39-.39a.45.45,0,0,0,.06-.47,4.37,4.37,0,0,1-.18-.44.45.45,0,0,0-.38-.29h-.55a.7.7,0,0,1-.7-.7v-.9a.7.7,0,0,1,.7-.7h.55a.45.45,0,0,0,.38-.29,4.35,4.35,0,0,1,.18-.44.45.45,0,0,0-.06-.47l-.39-.39a.7.7,0,0,1,0-1l.63-.63a.7.7,0,0,1,1,0l.39.39a.4.4,0,0,0,.28.1.45.45,0,0,0,.19,0l.44-.18a.45.45,0,0,0,.29-.38v-.55a.7.7,0,0,1,.7-.7h.9m-.45,7.79a2.06,2.06,0,1,0-2.06-2.06,2.06,2.06,0,0,0,2.06,2.06m.45-9.79h-.9A2.7,2.7,0,0,0,19,120.67a2.72,2.72,0,0,0-.54-.05,2.68,2.68,0,0,0-1.91.79l-.63.63a2.68,2.68,0,0,0-.79,1.91,2.73,2.73,0,0,0,.05.54,2.7,2.7,0,0,0-1.21,2.25v.9a2.7,2.7,0,0,0,1.21,2.25,2.7,2.7,0,0,0,.74,2.45l.63.63a2.68,2.68,0,0,0,1.91.79,2.72,2.72,0,0,0,.54-.05,2.7,2.7,0,0,0,2.25,1.21h.9a2.7,2.7,0,0,0,2.25-1.21,2.73,2.73,0,0,0,.54.05,2.68,2.68,0,0,0,1.91-.79l.63-.63a2.7,2.7,0,0,0,.74-2.45,2.7,2.7,0,0,0,1.21-2.25v-.9a2.7,2.7,0,0,0-1.21-2.25,2.71,2.71,0,0,0,.05-.54,2.69,2.69,0,0,0-.79-1.91l-.64-.63a2.68,2.68,0,0,0-1.91-.79,2.73,2.73,0,0,0-.54.05,2.7,2.7,0,0,0-2.25-1.21Zm-.45,7.79a.06.06,0,1,1,.06-.06.06.06,0,0,1-.06.06Z"/><path class="cls-4" d="M27.85,124.76a1.47,1.47,0,0,1-1.18-.59l-.22,0a1.46,1.46,0,0,1-1-.43l-.32-.32a1.47,1.47,0,0,1-.41-1.25,1.47,1.47,0,0,1-.59-1.18v-.45a1.47,1.47,0,0,1,.59-1.18,1.48,1.48,0,0,1,.41-1.25l.32-.32a1.46,1.46,0,0,1,1-.43l.22,0a1.47,1.47,0,0,1,1.18-.59h.45a1.47,1.47,0,0,1,1.18.59l.22,0a1.46,1.46,0,0,1,1,.43l.32.32a1.48,1.48,0,0,1,.41,1.25,1.47,1.47,0,0,1,.59,1.18V121a1.47,1.47,0,0,1-.59,1.18,1.47,1.47,0,0,1-.42,1.25l-.32.32a1.46,1.46,0,0,1-1,.43l-.22,0a1.47,1.47,0,0,1-1.18.59Z"/><path class="cls-2" d="M28.3,117.8a.47.47,0,0,1,.47.47v.27a.11.11,0,0,0,.07.08l.23.1h0l.06,0,.2-.2a.47.47,0,0,1,.66,0l.32.32a.47.47,0,0,1,0,.66l-.2.2a.11.11,0,0,0,0,.1,2.24,2.24,0,0,1,.1.23.12.12,0,0,0,.08.07h.27a.47.47,0,0,1,.47.47V121a.47.47,0,0,1-.47.47h-.27a.11.11,0,0,0-.08.07,2.3,2.3,0,0,1-.1.23.11.11,0,0,0,0,.1l.2.2a.47.47,0,0,1,0,.66L30,123a.47.47,0,0,1-.66,0l-.2-.2-.06,0h0l-.23.1a.11.11,0,0,0-.07.08v.27a.47.47,0,0,1-.47.47h-.45a.47.47,0,0,1-.47-.47V123a.11.11,0,0,0-.07-.08l-.23-.1h0l-.06,0-.2.2a.47.47,0,0,1-.66,0l-.32-.32a.47.47,0,0,1,0-.66l.2-.2a.11.11,0,0,0,0-.1,2.29,2.29,0,0,1-.1-.23.11.11,0,0,0-.08-.07h-.27a.47.47,0,0,1-.47-.47v-.45a.47.47,0,0,1,.47-.47h.27a.11.11,0,0,0,.08-.07,2.24,2.24,0,0,1,.1-.23.11.11,0,0,0,0-.1l-.2-.2a.47.47,0,0,1,0-.66l.32-.32a.47.47,0,0,1,.66,0l.2.2.06,0h0l.23-.1a.11.11,0,0,0,.07-.08v-.27a.47.47,0,0,1,.47-.47h.45m-.22,3.89a.91.91,0,1,0-.91-.91.91.91,0,0,0,.91.91m.22-5.89h-.45a2.46,2.46,0,0,0-1.59.59,2.45,2.45,0,0,0-1.55.71l-.32.32a2.46,2.46,0,0,0-.71,1.54,2.46,2.46,0,0,0-.59,1.6V121a2.46,2.46,0,0,0,.59,1.6,2.46,2.46,0,0,0,.71,1.54l.32.32a2.45,2.45,0,0,0,1.55.71,2.46,2.46,0,0,0,1.59.59h.45a2.46,2.46,0,0,0,1.59-.59,2.45,2.45,0,0,0,1.54-.71l.32-.32a2.45,2.45,0,0,0,.72-1.55,2.46,2.46,0,0,0,.59-1.59v-.45a2.46,2.46,0,0,0-.59-1.6,2.46,2.46,0,0,0-.71-1.54l-.32-.32a2.45,2.45,0,0,0-1.55-.71,2.46,2.46,0,0,0-1.59-.59Z"/><path class="cls-6" d="M202.65,98.43l-.53-.08,0-.07.05-.33a2.24,2.24,0,0,0,0-.55.42.42,0,0,1,0-.15.7.7,0,0,0-.06-.37.74.74,0,0,1-.1-.34,1,1,0,0,1,.11-.24s.19-.25.28-.33a.5.5,0,0,0,.12-.52v0a1.24,1.24,0,0,1,0-.35.5.5,0,0,0-.06-.37l-.14-.23s0,0,0-.13a1.19,1.19,0,0,0,.06-.27l0-.14a.5.5,0,0,0-.49-.58.6.6,0,0,0-.56-.42h-.05l-.16,0h-.34l-.27,0h0c-.14,0-.19-.06-.2-.08a3,3,0,0,0-.28-.42,1.73,1.73,0,0,1-.23-.46,2.81,2.81,0,0,1-.17-.78,1,1,0,0,1,.08-.25l.07-.2a2,2,0,0,1,.16-.4,1.36,1.36,0,0,1,.3-.34,1.49,1.49,0,0,1,.44-.15l.1,0a1.33,1.33,0,0,0,.32-.14.5.5,0,0,0,.17-.2l.14-.1a1.14,1.14,0,0,1,.22-.16.5.5,0,0,0,.23-.65l0-.09h0s0-.09.14-.25a.5.5,0,0,0,.06-.15l0-.16.51,0a.5.5,0,0,0,.5-.52.51.51,0,0,0,0-.46.48.48,0,0,0-.38-.24h-.16l-.1,0,0-.1.05-.06a.49.49,0,0,0,.23.06l.15,0a.49.49,0,0,0,.23-.15l0,.07.19.51a.5.5,0,0,0,.27.28.51.51,0,0,0,.2,0,.5.5,0,0,0,.19,0l.14-.08-.12,0,.15,0a.5.5,0,0,0,.36-.85v0h0a1,1,0,0,1,.15-.17.43.43,0,0,1,.2-.08l.13,0,.24,0,.18,0h0a.89.89,0,0,0,.2,0,2.67,2.67,0,0,1,.39,0l.15,0a.54.54,0,0,0,.5-.3.57.57,0,0,0,0-.37,8,8,0,0,1,3.38,9.26,8.09,8.09,0,0,1-.3.78.5.5,0,0,0,0-.15.33.33,0,0,1,0-.13.63.63,0,0,0,0-.27v0s0-.09,0-.15,0-.18,0-.23,0-.37,0-.51a.72.72,0,0,0,0-.16,1.1,1.1,0,0,0-.19-.36.59.59,0,0,0-.45-.25h0a.51.51,0,0,0-.44.26h0l-.19,0-.24.08a2.13,2.13,0,0,1-.42.11l-.17,0a.52.52,0,0,0-.34.85.82.82,0,0,1-.12.15l-.38.28-.1.07a1.87,1.87,0,0,1-.41.24.81.81,0,0,0-.33.24l-.08.08a2.5,2.5,0,0,0-.27.25.5.5,0,0,0-.13.24c-.06.27-.11.56-.12.63a.5.5,0,0,0,0,.2h-.06A.5.5,0,0,0,205,97l-.26.14-.39.27a.51.51,0,0,0-.2.28l-.06.22-.42.15a1,1,0,0,0-.24.15.37.37,0,0,1-.11.09A2.36,2.36,0,0,1,202.65,98.43Zm2.52-7.75a.5.5,0,0,0,.23.29l.3.19a.49.49,0,0,0,.28.08.5.5,0,0,0,.46-.69l0-.11,0-.11a1.22,1.22,0,0,1-.11-.44.5.5,0,0,0-.41-.51l-.16,0a.53.53,0,0,0-.32.1l0,0a.5.5,0,0,0-.27-.18l-.14,0a.5.5,0,0,0-.35.14.15.15,0,0,1-.08,0l0,0a.5.5,0,0,0,.14-.17.5.5,0,0,0-.07-.54,1.41,1.41,0,0,0-.12-.2l-.11-.13a.5.5,0,0,0-.31-.18l-.33,0h0a.5.5,0,0,0-.29.09h-.06a.67.67,0,0,0-.46.15l-.06.05a.5.5,0,0,0,.26.84l.07,0,.22.16a.52.52,0,0,0,.17.06h.24a.49.49,0,0,0-.1.26v.09a.5.5,0,0,0,.17.45,2.22,2.22,0,0,0,1,.41.65.65,0,0,0,.21,0ZM205.4,98a1,1,0,0,1,.17-.25.5.5,0,0,0,.12-.37h.06l.16,0,.14,0,.09,0-.25.39a.85.85,0,0,1-.29.24l-.17.06ZM202,96.54Zm-6.34-.37c-.09-.15-.17-.29-.25-.45a7.93,7.93,0,0,1-.84-4.3l.06.09a1.46,1.46,0,0,0,.32.4.75.75,0,0,1,.12.14,1.4,1.4,0,0,0,.16.2.55.55,0,0,1,.18.27c.13.3.13.33.13.39a2.35,2.35,0,0,0,.09.53.5.5,0,0,0,.28.32l.06,0a.54.54,0,0,0,.25.13l.12.19a.62.62,0,0,0,.19.32c.05,0,.06.11,0,.21l-.43.58a.49.49,0,0,0-.09.29v.15h0a.5.5,0,0,0-.34.3A.51.51,0,0,0,195.64,96.18Zm-.44-7.25h0a1,1,0,0,1-.11.27Zm.11-.25.18-.36,0,.08-.11.2Zm.21-.42a8,8,0,0,1,5.75-4l-.24.15-.22.14a.5.5,0,0,0-.25-.07.5.5,0,0,0-.49.59,1.16,1.16,0,0,0-.32.2l-.27,0-.1-.06a.49.49,0,0,0-.2-.07.88.88,0,0,0-.24.05l-.16,0a.78.78,0,0,0-.7.49.49.49,0,0,0-.44.59c0,.27-.05.35-.07.37h0l-.42.13a.5.5,0,0,0-.35.43l-.26.19c-.15.12-.41.34-.47.41l-.17.15a1.6,1.6,0,0,0-.36.35Z"/><path class="cls-2" d="M207,86.17a7.52,7.52,0,0,1,2.88,7l0,0,0,0a1,1,0,0,0-.82-.42h-.08a1,1,0,0,0-.69.36h0l-.21.07-.11,0-.26.06-.21,0a1,1,0,0,0-.85,1,1,1,0,0,0,0,.25l-.17.12-.11.08a1.43,1.43,0,0,1-.3.18,1.34,1.34,0,0,0-.52.39,2.84,2.84,0,0,0-.32.3,1,1,0,0,0-.25.48c-.05.24-.08.39-.1.5l-.08,0-.26.14-.12.07L204,97a1,1,0,0,0-.38.53l-.17.06,0,0a1.16,1.16,0,0,0-.36.24l-.36.06v0a2.64,2.64,0,0,0-.06-.6h0a1.18,1.18,0,0,0-.12-.63l0,0h0c.06-.07.17-.21.23-.28a1,1,0,0,0,.26-.95,1.38,1.38,0,0,1,0-.19,1,1,0,0,0-.1-.73l0-.07a1.53,1.53,0,0,0,0-.25l0-.13a2.27,2.27,0,0,0-1.54-1.58h-.11l-.24,0h-.35a3.08,3.08,0,0,0-.24-.33,1.45,1.45,0,0,1-.13-.3,3.14,3.14,0,0,1-.15-.57l0-.11c0-.07.05-.14.08-.22a1.66,1.66,0,0,1,.12-.32,1,1,0,0,1,.16-.17l.26-.07.11,0a1.76,1.76,0,0,0,.46-.21,1,1,0,0,0,.27-.27l.1-.08.11-.09a.52.52,0,0,1,1,.1l.21.14,0,0a1,1,0,0,0,.35.78,2.65,2.65,0,0,0,1.37.53h0a1,1,0,0,0,.21.16l.28.17a1,1,0,0,0,.54.16,1,1,0,0,0,.93-1.4l0,0-.05-.15a1,1,0,0,1-.06-.22h0a1.1,1.1,0,0,0-1.36-1l-.18-.07-.08,0a3.33,3.33,0,0,0-.31-.6l-.11-.13a1,1,0,0,0-.49-.34l.08,0a1,1,0,0,0,.84-1.11l.18,0h.12a1.34,1.34,0,0,0,.3,0l.26,0a1,1,0,0,0,1-.33m-2.6,1.47h0m-2.65,2.07h0m-1.15.68h0m-5.41,3.38a1,1,0,0,0,.42.43l.05,0,.19.12a1.38,1.38,0,0,0,.11.23l-.27.37-.08.13a7.5,7.5,0,0,1-.43-1.31m7.3-10.12a8.48,8.48,0,1,0,2.63.42,8.49,8.49,0,0,0-2.63-.42Zm-1.68,1.56a2.43,2.43,0,0,1,.45-.38,1.76,1.76,0,0,0,.47-.34l.13,0,.08.09a1.17,1.17,0,0,0,.31-.13h.24a7.65,7.65,0,0,1,3.75,1,.8.8,0,0,0-.23,0,3.25,3.25,0,0,0-.4,0l-.17,0h0l-.23,0-.19,0-.14,0a1,1,0,0,0-.55.22c-.3.28-.32.5-.3.63l.05.26.09,0h0c-.11,0-.25.11-.33.14l-.19-.51-.1-.75-.69.29-.08.24-.29-.22-.56.59.26.81.24-.1v0l.33,0a.53.53,0,0,0-.07.22l-1-.08,0,.35a1.68,1.68,0,0,1-.05.23c-.28.44-.22.62-.19.69l.05.11a1.6,1.6,0,0,0-.32.23.63.63,0,0,0-.26.26l-.18.08-.07,0a1.56,1.56,0,0,0-.65.26,1.89,1.89,0,0,0-.41.47,2.51,2.51,0,0,0-.2.5l-.06.16a1.54,1.54,0,0,0-.11.37,3.15,3.15,0,0,0,.2,1,2,2,0,0,0,.32.62,2.57,2.57,0,0,1,.2.29.67.67,0,0,0,.6.38h.28l.27,0,.24,0,.12,0a.55.55,0,0,0,.55.42h0l0,.15a.67.67,0,0,1,0,.16.63.63,0,0,0,0,.53l.1.16.06.09a1.66,1.66,0,0,0-.06.55c0,.07,0,.12,0,.12h0c-.1.1-.33.39-.36.43a1,1,0,0,0-.18.5,1.22,1.22,0,0,0,.15.56.25.25,0,0,1,0,.12.81.81,0,0,0,0,.31,1.94,1.94,0,0,1,0,.35l0,.24-.2.62.39.07s.63.11.76.12h0a2.69,2.69,0,0,0,.87-.17.84.84,0,0,0,.22-.17l.07,0,.49-.18.17-.06.12-.48.33-.24.26-.14a3.2,3.2,0,0,0-.24.3.6.6,0,0,0-.05.53l.11.14.16.05.1.08a.83.83,0,0,0,.37-.09l.09,0a1.26,1.26,0,0,0,.57-.45l.25-.38a2.85,2.85,0,0,0,.23-.47,1.3,1.3,0,0,0,.05-.28l.06-.88-.91.88-.23.05a.46.46,0,0,0,0-.11c0-.06.06-.32.11-.56l.2-.18a1,1,0,0,0,.17-.16.33.33,0,0,1,.14-.11,2.33,2.33,0,0,0,.51-.3l.1-.07.41-.3a1.58,1.58,0,0,0,.3-.39l.26-.43-.41-.06.14,0,.13,0a2,2,0,0,0,.47-.13l.21-.07a.7.7,0,0,0,.51-.33l.09.11a1.05,1.05,0,0,1,.1.21c0,.11,0,.38,0,.47a2.65,2.65,0,0,0,0,.3,1.75,1.75,0,0,0,0,.2.79.79,0,0,0,0,.48,7.54,7.54,0,0,1-13.14.75l.18-.06.21-.09v-.5l.44-.61.05-.1a.6.6,0,0,0-.18-.74s-.07-.18-.1-.23-.17-.33-.3-.37h0s-.11,0-.14,0-.08,0-.13-.09l-.07,0h0a1.74,1.74,0,0,1-.07-.4,1.36,1.36,0,0,0-.17-.58.88.88,0,0,0-.24-.39l-.05,0a1,1,0,0,1-.11-.13,1.22,1.22,0,0,0-.2-.23.67.67,0,0,1-.17-.21l-.09-.13a7.6,7.6,0,0,1,.32-1.43l0-.09a1.61,1.61,0,0,0,.32-.62,1.74,1.74,0,0,1,.12-.23,1.9,1.9,0,0,0,.15-.31,1.79,1.79,0,0,1,.25-.23,2,2,0,0,0,.24-.22c0-.06.27-.24.41-.35l.23-.19a.53.53,0,0,0,.22-.34l.52-.16a.78.78,0,0,0,.32-.9h.11s.22-.06.25-.17v0c.05-.17.15-.28.28-.28h.08l.11,0h0s.11-.08.14-.08h0l.24.15.62-.05.1-.1a.67.67,0,0,1,.24-.14,1,1,0,0,0,.44-.25l-.2-.28.26.24Zm2.53,3.53a.63.63,0,0,0,.33-.08l.26,0,.11.13a.79.79,0,0,0,.13.21l-.56,0h0l-.18-.13-.06-.05-.08,0-.12,0h0a.21.21,0,0,1,.16-.05ZM204.51,90a.64.64,0,0,0,.45-.18l.1.41h0l-.11,0h0a1.84,1.84,0,0,1-.72-.29v-.12l.08.11.14,0Zm1.47.78-.33-.2v-.68l.11,0a1.62,1.62,0,0,0,.13.61l0,.1.05.14Z"/><polygon class="cls-3" points="52.84 216.21 61.26 325.98 174.3 310.59 170.45 227.37 52.84 216.21"/><polygon class="cls-7" points="65.58 227.37 72.08 314.44 162.51 302.17 159.38 236.75 65.58 227.37"/><polygon class="cls-3" points="48.03 217.27 38.65 222.68 46.1 324.06 55.96 325.98 48.03 217.27"/><polygon class="cls-3" points="117.78 335.6 117.78 324.3 87.71 328.39 87.71 346.67 111.52 357.01 148.8 346.67 117.78 335.6"/><polygon class="cls-3" points="82.18 328.87 76.89 330.55 76.89 351.72 109.6 366.77 148.8 355.32 148.8 350.51 110.56 361.58 82.66 349.07 82.18 328.87"/><path class="cls-5" d="M239.33,310.19s-1.4,18.84-.79,29.29h0l-11.68-.84L189.45,326.3s-12.15,7.33-14.71,4.29c-3.87-7,13.41-12.43,13.41-12.43L237.31,326"/><path class="cls-5" d="M238.84,361.68c-.3-27.55-2.46-74,11-90.06.25-.3,6.54-1.88,7.31-2.68,2.12-2.19,3.18-12.32,3.18-12.32l7.36,2.23s0,7.86.18,9,16.73,7.54,17,8.88c3.21,18.81,5.15,56.3,5.22,84.65"/><path class="cls-4" d="M264.08,263c-10.88,0-18.83-18.81-18.83-28.6a18.83,18.83,0,0,1,37.67,0C282.91,244.17,275,263,264.08,263Z"/><path class="cls-2" d="M264.08,216.54a17.83,17.83,0,0,1,17.83,17.83c0,9.85-8,27.6-17.83,27.6s-17.83-17.75-17.83-27.6a17.83,17.83,0,0,1,17.83-17.83m0-2a19.86,19.86,0,0,0-19.83,19.83c0,5.38,2.15,12.63,5.49,18.48C253.81,260,258.91,264,264.08,264s10.27-3.95,14.35-11.12c3.33-5.85,5.49-13.11,5.49-18.48a19.86,19.86,0,0,0-19.83-19.83Z"/><polygon class="cls-3" points="215.1 360.39 140.39 383.52 114.05 370.95 188.76 347.82 215.1 360.39"/><line class="cls-8" x1="129.89" y1="370.92" x2="143.82" y2="377.37"/><line class="cls-8" x1="139.72" y1="368.06" x2="153.64" y2="374.51"/><line class="cls-8" x1="149.55" y1="365.21" x2="163.47" y2="371.66"/><line class="cls-8" x1="159.37" y1="362.35" x2="173.3" y2="368.8"/><line class="cls-8" x1="169.2" y1="359.49" x2="183.13" y2="365.94"/><line class="cls-8" x1="179.03" y1="356.64" x2="192.96" y2="363.09"/><line class="cls-8" x1="188.86" y1="353.78" x2="202.79" y2="360.23"/><polygon class="cls-3" points="216.86 364.94 142.15 388.07 142 386.98 216.72 363.85 216.86 364.94"/><path class="cls-4" d="M191.43,356.6a2.84,2.84,0,0,1-2.29-.94,2.68,2.68,0,0,1-.66-2.18c.43-3.63,7.57-8.53,8.38-9.08a1,1,0,0,1,.34-.15l61.33-13.72c9.13-50.67,9.35-51.08,9.44-51.25,2.42-4.53,5.16-6.55,8.88-6.55a14.87,14.87,0,0,1,5.38,1.17c5.5,2.15,7,8.26,4.08,16.36l-15.61,54a1,1,0,0,1-.9.72l-63.94,4.2c-1.78,1.33-10.2,7.45-14.44,7.45Z"/><path class="cls-2" d="M276.85,273.73a14,14,0,0,1,5,1.11c5.79,2.26,5.7,9.05,3.51,15.09l-15.63,54-64.23,4.22s-9.8,7.43-14.08,7.43a1.9,1.9,0,0,1-1.53-.58c-2.68-2.93,7.51-9.78,7.51-9.78l62-13.87s9.22-51.17,9.46-51.61c2.07-3.89,4.46-6,8-6m0-2c-5.37,0-8.14,4-9.77,7.08-.2.37-.38.72-9.42,50.89L197,343.28a2,2,0,0,0-.68.29c-2,1.31-8.35,5.9-8.81,9.79a3.68,3.68,0,0,0,.92,3,3.82,3.82,0,0,0,3,1.26c4.37,0,12.3-5.62,14.8-7.47l63.64-4.18a2,2,0,0,0,1.79-1.44l15.61-54c3.07-8.51,1.28-15.24-4.68-17.57a15.83,15.83,0,0,0-5.74-1.24Z"/><polygon class="cls-3" points="138.5 387.78 110.77 377.27 110.62 373.72 138.35 386.49 138.5 387.78"/></g></g></svg>