<svg xmlns="http://www.w3.org/2000/svg" viewBox="0 0 66.47 289.63"><defs><style>.cls-1{fill:#ffb600;}</style></defs><title>curly-brace</title><g id="Layer_2" data-name="Layer 2"><g id="Layer_1-2" data-name="Layer 1"><path class="cls-1" d="M66.47,10.45H51.28c-13,0-16.46,8.55-16.46,32.6v49.7c0,42.42-18,48.75-22.16,52.86,4.12,2.53,22.16,8.86,22.16,51.28v49.7c0,24.06,3.48,32.6,16.46,32.6H66.47v10.45H50.65c-17.73,0-27.86-8.55-27.86-37.35V201.95c0-25.64-4.11-50.33-22.79-51.28v-12c18.68-.95,22.79-25.64,22.79-51.28v-50C22.79,8.55,32.92,0,50.65,0H66.47Z"/></g></g></svg>