<svg xmlns="http://www.w3.org/2000/svg" viewBox="0 0 79.88 82.54"><defs><style>.cls-1{fill:#f8f8f8;stroke:#bbbdbf;stroke-miterlimit:10;stroke-width:2.36px;}.cls-2{fill:#ccc;}.cls-3{fill:none;stroke:#fff;stroke-linecap:round;stroke-linejoin:round;stroke-width:6px;}.cls-4{fill:#777;}.cls-5{fill:#fff;}</style></defs><title>icon-mag</title><g id="Layer_2" data-name="Layer 2"><g id="Layer_1-2" data-name="Layer 1"><circle class="cls-1" cx="40.4" cy="41.27" r="38.3"/><circle class="cls-2" cx="40.4" cy="41.27" r="30.34"/><rect class="cls-2" width="0.66" height="5.94"/><rect class="cls-2" x="2.64" y="-2.64" width="0.66" height="5.94" transform="translate(2.64 3.3) rotate(-90)"/><rect class="cls-2" x="76.27" y="79.24" width="0.66" height="5.94" transform="translate(-5.61 158.81) rotate(-90)"/><rect class="cls-2" x="78.91" y="76.6" width="0.66" height="5.94"/><g id="_Group_" data-name="&lt;Group&gt;"><path class="cls-3" d="M56.83,53.62a3,3,0,0,1-4.19,4.2l-8.77-8.77a14.64,14.64,0,0,0,4.4-4Z"/><path class="cls-3" d="M41.32,46.35a11,11,0,0,0,4.33-3.84,2.49,2.49,0,0,1,.36.3l2.25,2.25a14.64,14.64,0,0,1-4.4,4l-2-2A3,3,0,0,1,41.32,46.35Z"/><path class="cls-3" d="M37.43,30.8a.87.87,0,0,1,0-1.74h0a7.22,7.22,0,0,1,7.29,7,.87.87,0,0,1-.81.93h-.06a.87.87,0,0,1-.86-.81A5.57,5.57,0,0,0,37.43,30.8Z"/><path class="cls-3" d="M36.44,47.49a10.91,10.91,0,0,0,4.88-1.14,3,3,0,0,0,.5.67l2,2a14.48,14.48,0,0,1-7.43,2,14.63,14.63,0,1,1,11.83-6L46,42.81a2.49,2.49,0,0,0-.36-.3,10.92,10.92,0,0,0,1.81-6,11,11,0,1,0-11,11Z"/><path class="cls-3" d="M41.32,46.35a10.91,10.91,0,0,1-4.88,1.14,11,11,0,1,1,11-11,10.92,10.92,0,0,1-1.81,6,3,3,0,0,0-4.33,3.84ZM36.56,29.93a.88.88,0,0,0,.87.87A5.57,5.57,0,0,1,43,36.21a.87.87,0,0,0,.86.81h.06a.87.87,0,0,0,.81-.93,7.22,7.22,0,0,0-7.29-7h0A.88.88,0,0,0,36.56,29.93Z"/><path class="cls-4" d="M56.83,53.62a3,3,0,0,1-4.19,4.2l-8.77-8.77a14.64,14.64,0,0,0,4.4-4Z"/><path class="cls-4" d="M41.32,46.35a11,11,0,0,0,4.33-3.84,2.49,2.49,0,0,1,.36.3l2.25,2.25a14.64,14.64,0,0,1-4.4,4l-2-2A3,3,0,0,1,41.32,46.35Z"/><path class="cls-4" d="M37.43,30.8a.87.87,0,0,1,0-1.74h0a7.22,7.22,0,0,1,7.29,7,.87.87,0,0,1-.81.93h-.06a.87.87,0,0,1-.86-.81A5.57,5.57,0,0,0,37.43,30.8Z"/><path class="cls-4" d="M36.44,47.49a10.91,10.91,0,0,0,4.88-1.14,3,3,0,0,0,.5.67l2,2a14.48,14.48,0,0,1-7.43,2,14.63,14.63,0,1,1,11.83-6L46,42.81a2.49,2.49,0,0,0-.36-.3,10.92,10.92,0,0,0,1.81-6,11,11,0,1,0-11,11Z"/><path class="cls-5" d="M41.32,46.35a10.91,10.91,0,0,1-4.88,1.14,11,11,0,1,1,11-11,10.92,10.92,0,0,1-1.81,6,3,3,0,0,0-4.33,3.84ZM36.56,29.93a.88.88,0,0,0,.87.87A5.57,5.57,0,0,1,43,36.21a.87.87,0,0,0,.86.81h.06a.87.87,0,0,0,.81-.93,7.22,7.22,0,0,0-7.29-7h0A.88.88,0,0,0,36.56,29.93Z"/></g></g></g></svg>