<svg xmlns="http://www.w3.org/2000/svg" viewBox="0 0 128.41 128.41"><defs><style>.cls-1,.cls-2,.cls-7{fill:none;}.cls-1{stroke:#ffb600;stroke-width:3px;}.cls-1,.cls-2,.cls-3,.cls-4,.cls-5,.cls-7{stroke-miterlimit:10;}.cls-2{stroke:#bf3019;}.cls-3{fill:#bbbdbf;opacity:0.5;}.cls-10,.cls-3,.cls-4,.cls-5,.cls-9{stroke:#fff;}.cls-4{fill:#e6e7e8;}.cls-4,.cls-5,.cls-7{stroke-width:3.35px;}.cls-5,.cls-9{fill:#bf3019;}.cls-6{fill:#fff;}.cls-7{stroke:#767676;}.cls-8{fill:#87c22e;}.cls-10,.cls-9{stroke-linecap:round;stroke-linejoin:round;stroke-width:0.82px;}.cls-10{fill:#d4351c;}</style></defs><title>icon-comm</title><g id="Layer_2" data-name="Layer 2"><g id="Layer_1-2" data-name="Layer 1"><circle class="cls-1" cx="64.2" cy="64.2" r="57.36"/><polyline class="cls-2" points="12.4 0.5 0.5 0.5 0.5 12.4"/><polyline class="cls-2" points="116 127.91 127.91 127.91 127.91 116"/><circle class="cls-3" cx="64.2" cy="64.2" r="43.76"/><rect class="cls-4" x="38.51" y="48.58" width="51.39" height="40.75"/><rect class="cls-5" x="38.51" y="39.08" width="51.39" height="9.5"/><circle class="cls-6" cx="43.46" cy="44.03" r="1.09"/><circle class="cls-6" cx="47.45" cy="44.03" r="1.09"/><circle class="cls-6" cx="51.45" cy="44.03" r="1.09"/><line class="cls-7" x1="45.58" y1="59.37" x2="82.82" y2="59.37"/><line class="cls-7" x1="45.58" y1="68.95" x2="82.82" y2="68.95"/><line class="cls-7" x1="45.58" y1="78.53" x2="82.82" y2="78.53"/><path class="cls-8" d="M29.09,40.87A11.86,11.86,0,0,1,33.85,38a12.25,12.25,0,0,1,2.36-.49,18.62,18.62,0,0,1-1.23,2,27.18,27.18,0,0,1-3.18,4.05,21.54,21.54,0,0,1-2.08,1.85c-.65.57-1.34,1-1.9,1.42s-1.07.72-1.43.93l-.56.34a4.66,4.66,0,0,1,.06-.66,15.45,15.45,0,0,1,.38-1.71,13.9,13.9,0,0,1,1-2.36A11.69,11.69,0,0,1,29.09,40.87Z"/><path class="cls-8" d="M18.3,54.54a11.08,11.08,0,0,1,.33-3.3,18.87,18.87,0,0,1,1.18-3.31,19.75,19.75,0,0,1,1.33-2.47,10.31,10.31,0,0,1,.63-1,2.9,2.9,0,0,1,1.24.89,4.69,4.69,0,0,1,.87,3.66A37.28,37.28,0,0,1,22.5,55c-.26.92-.47,1.75-.66,2.34l-.25,1a3.13,3.13,0,0,1-1.48-.4A3.8,3.8,0,0,1,18.3,54.54Z"/><path class="cls-8" d="M25.41,49.89a3.55,3.55,0,0,1,4.78.11s-.17.27-.43.74-.66,1.07-1.07,1.79-.88,1.5-1.41,2.25a14.07,14.07,0,0,1-1.59,2.08,4.56,4.56,0,0,1-3.14,1.57,3.29,3.29,0,0,1-1.5-.29l.2-1c.18-.6.41-1.44.77-2.34A12,12,0,0,1,25.41,49.89Z"/><path class="cls-8" d="M16.9,71a14.62,14.62,0,0,1-1.42-6.62,19.92,19.92,0,0,1,.15-2.8,9.68,9.68,0,0,1,.16-1.13,2.89,2.89,0,0,1,1.5.27,4.66,4.66,0,0,1,2.33,2.94,38,38,0,0,1,1.27,5.94c.13.95.29,1.79.4,2.39l.15,1a3.12,3.12,0,0,1-1.51.26A3.88,3.88,0,0,1,16.9,71Z"/><path class="cls-8" d="M21.38,63.76a3.64,3.64,0,0,1,2.86-2.1,3.6,3.6,0,0,1,1.52.16s0,.32-.07.85-.15,1.25-.2,2.08a26,26,0,0,1-.89,5.2,4.44,4.44,0,0,1-2.2,2.75,3.3,3.3,0,0,1-1.49.37l-.2-1a14.59,14.59,0,0,1-.3-2.45A12,12,0,0,1,21.38,63.76Z"/><path class="cls-8" d="M22.6,86.48a11.09,11.09,0,0,1-2.32-2.37,20.73,20.73,0,0,1-2.82-5.64l-.33-1.1A2.89,2.89,0,0,1,18.61,77,4.74,4.74,0,0,1,22,78.67a39.07,39.07,0,0,1,3.64,4.86c.55.78,1,1.48,1.37,2l.58.8a3.12,3.12,0,0,1-1.26.87A3.79,3.79,0,0,1,22.6,86.48Z"/><path class="cls-8" d="M23.6,78a3.54,3.54,0,0,1,3.14-3.59s.12.3.29.8.43,1.18.69,2,.6,1.63.82,2.52a14,14,0,0,1,.58,2.55,4.57,4.57,0,0,1-.81,3.42,3.29,3.29,0,0,1-1.19,1l-.63-.79c-.35-.52-.84-1.24-1.31-2.09A11.86,11.86,0,0,1,23.6,78Z"/><path class="cls-8" d="M34.3,98.11a14.6,14.6,0,0,1-6-3.16,22.9,22.9,0,0,1-2-1.92,7.21,7.21,0,0,1-.56-.62l-.19-.24a2.9,2.9,0,0,1,1.18-1,4.72,4.72,0,0,1,3.76.1,17.84,17.84,0,0,1,2.7,1.31c.93.49,1.82,1.08,2.66,1.54s1.55.93,2.09,1.23l.85.52A3.12,3.12,0,0,1,38,97.22,3.87,3.87,0,0,1,34.3,98.11Z"/><path class="cls-8" d="M31.64,90A3.55,3.55,0,0,1,33,85.44L35,87.54a26.09,26.09,0,0,1,3.42,4,4.46,4.46,0,0,1,.7,3.45,3.3,3.3,0,0,1-.67,1.38l-.89-.48a14.7,14.7,0,0,1-2.07-1.34,15.09,15.09,0,0,1-2.29-2.07A9.37,9.37,0,0,1,31.64,90Z"/><path class="cls-8" d="M99.83,43.09A28.55,28.55,0,0,1,96.58,39a19.26,19.26,0,0,1-1.26-2,12.57,12.57,0,0,1,2.39.52,12.19,12.19,0,0,1,4.83,3,12,12,0,0,1,1.87,2.5,14.28,14.28,0,0,1,1,2.39,15.87,15.87,0,0,1,.4,1.74,4.78,4.78,0,0,1,.07.67l-.56-.35c-.36-.22-.87-.54-1.44-1s-1.27-.88-1.93-1.46A22.58,22.58,0,0,1,99.83,43.09Z"/><path class="cls-8" d="M105.49,56.86a14,14,0,0,1-1.59-2.08c-.53-.75-1-1.55-1.41-2.25s-.8-1.33-1.07-1.79S101,50,101,50a3.55,3.55,0,0,1,4.78-.11,12,12,0,0,1,3.39,4.91c.36.9.59,1.74.77,2.34l.2,1a3.3,3.3,0,0,1-1.5.29A4.56,4.56,0,0,1,105.49,56.86Z"/><path class="cls-8" d="M107.31,49.05a4.69,4.69,0,0,1,.87-3.66,2.9,2.9,0,0,1,1.24-.89,10.29,10.29,0,0,1,.63,1,19.82,19.82,0,0,1,1.33,2.47,18.87,18.87,0,0,1,1.18,3.31,11.09,11.09,0,0,1,.33,3.3,3.8,3.8,0,0,1-1.82,3.32,3.12,3.12,0,0,1-1.48.4l-.25-1c-.19-.59-.4-1.41-.66-2.34A37.32,37.32,0,0,1,107.31,49.05Z"/><path class="cls-8" d="M106.6,70a26,26,0,0,1-.89-5.2c-.05-.83-.17-1.55-.2-2.08s-.07-.85-.07-.85a3.6,3.6,0,0,1,1.52-.16,3.64,3.64,0,0,1,2.86,2.1,12,12,0,0,1,1,5.89,14.6,14.6,0,0,1-.3,2.45l-.2,1a3.29,3.29,0,0,1-1.49-.37A4.44,4.44,0,0,1,106.6,70Z"/><path class="cls-8" d="M111.55,63.65a4.66,4.66,0,0,1,2.33-2.94,2.9,2.9,0,0,1,1.5-.27,9.68,9.68,0,0,1,.16,1.13,19.93,19.93,0,0,1,.15,2.8A14.62,14.62,0,0,1,114.29,71a3.88,3.88,0,0,1-3,2.24,3.12,3.12,0,0,1-1.51-.26l.15-1c.11-.61.27-1.44.4-2.39A38,38,0,0,1,111.55,63.65Z"/><path class="cls-8" d="M102.07,82.28a14,14,0,0,1,.58-2.55c.22-.89.58-1.73.82-2.52s.54-1.46.69-2,.29-.8.29-.8A3.54,3.54,0,0,1,107.59,78,11.86,11.86,0,0,1,106,83.79c-.47.85-1,1.57-1.31,2.09l-.63.79a3.29,3.29,0,0,1-1.19-1A4.57,4.57,0,0,1,102.07,82.28Z"/><path class="cls-8" d="M109.21,78.67A4.74,4.74,0,0,1,112.58,77a2.89,2.89,0,0,1,1.48.39l-.33,1.1a20.71,20.71,0,0,1-2.82,5.64,11.09,11.09,0,0,1-2.32,2.37,3.79,3.79,0,0,1-3.71.73,3.13,3.13,0,0,1-1.26-.87l.58-.8c.33-.52.82-1.22,1.37-2A39,39,0,0,1,109.21,78.67Z"/><path class="cls-8" d="M92.74,91.56a26.07,26.07,0,0,1,3.42-4l2.06-2.1A3.55,3.55,0,0,1,99.55,90,9.37,9.37,0,0,1,98,92.49a15.12,15.12,0,0,1-2.29,2.07,14.73,14.73,0,0,1-2.07,1.34l-.89.48A3.3,3.3,0,0,1,92,95,4.46,4.46,0,0,1,92.74,91.56Z"/><path class="cls-8" d="M100.75,91.3a4.72,4.72,0,0,1,3.76-.1,2.9,2.9,0,0,1,1.18,1l-.19.24a7.22,7.22,0,0,1-.56.62,22.94,22.94,0,0,1-2,1.92,14.59,14.59,0,0,1-6,3.16,3.87,3.87,0,0,1-3.67-.89,3.12,3.12,0,0,1-.77-1.32l.85-.52c.54-.3,1.28-.73,2.09-1.23s1.73-1,2.66-1.54A17.78,17.78,0,0,1,100.75,91.3Z"/><polyline class="cls-9" points="65.6 94.77 63.81 100.27 58.02 100.27 62.7 103.67 60.91 109.17 65.6 105.77"/><polyline class="cls-10" points="65.6 105.77 70.28 109.17 68.49 103.67 73.17 100.27 67.38 100.27 65.6 94.77"/></g></g></svg>