<svg xmlns="http://www.w3.org/2000/svg" viewBox="0 0 128.41 128.41"><defs><style>.cls-1,.cls-2{fill:none;}.cls-1{stroke:#ffb600;stroke-width:3px;}.cls-1,.cls-2,.cls-3{stroke-miterlimit:10;}.cls-2{stroke:#bf3019;}.cls-3{fill:#bbbdbf;stroke:#fff;opacity:0.5;}.cls-4{fill:#87c22e;}.cls-5{fill:#fff;}</style></defs><title>icon-gears</title><g id="Layer_2" data-name="Layer 2"><g id="Layer_1-2" data-name="Layer 1"><circle class="cls-1" cx="64.2" cy="64.2" r="57.36"/><polyline class="cls-2" points="12.4 0.5 0.5 0.5 0.5 12.4"/><polyline class="cls-2" points="116 127.91 127.91 127.91 127.91 116"/><circle class="cls-3" cx="64.2" cy="64.2" r="43.76"/><path class="cls-4" d="M51.22,95.12a4,4,0,0,1-4-4V89.67a1.4,1.4,0,0,0-.88-1.29,1.48,1.48,0,0,0-.58-.12,1.38,1.38,0,0,0-1,.41l-1,1a4,4,0,0,1-5.71,0l-2-2a4,4,0,0,1,0-5.71l1-1a1.4,1.4,0,0,0,.3-1.53A1.41,1.41,0,0,0,36,78.54H34.63a4,4,0,0,1-4-4V71.72a4,4,0,0,1,4-4H36a1.44,1.44,0,0,0,1-2.44l-1-1a4,4,0,0,1,0-5.71l2-2a4,4,0,0,1,5.71,0l1,1a1.38,1.38,0,0,0,1,.41,1.41,1.41,0,0,0,.55-.11l.12,0a1.38,1.38,0,0,0,.79-1.26V55.14a4,4,0,0,1,4-4H54a4,4,0,0,1,4,4v1.41a1.4,1.4,0,0,0,.88,1.29,1.47,1.47,0,0,0,.58.12,1.38,1.38,0,0,0,1-.41l1-1a4,4,0,0,1,5.71,0l2,2a4,4,0,0,1,0,5.71l-1,1a1.4,1.4,0,0,0-.3,1.53,1.41,1.41,0,0,0,1.31.91h1.41a4,4,0,0,1,4,4V74.5a4,4,0,0,1-4,4H69.17a1.4,1.4,0,0,0-1.29.88A1.41,1.41,0,0,0,68.15,81l1,1a4,4,0,0,1,0,5.71l-2,2a4,4,0,0,1-5.71,0l-1-1a1.38,1.38,0,0,0-1-.41A1.47,1.47,0,0,0,58,89.67v1.41a4,4,0,0,1-4,4Zm1.39-28.43a6.89,6.89,0,0,0-1.48.17,6.38,6.38,0,0,0-4.77,4.77,6.49,6.49,0,0,0,1.24,5.5,6.39,6.39,0,0,0,5,2.4,6.84,6.84,0,0,0,1.49-.17,6.38,6.38,0,0,0,4.77-4.77,6.49,6.49,0,0,0-1.24-5.5A6.39,6.39,0,0,0,52.61,66.69Z"/><path class="cls-5" d="M54,52.41a2.72,2.72,0,0,1,2.73,2.73v1.41a2.71,2.71,0,0,0,1.69,2.51h0a2.74,2.74,0,0,0,1,.21,2.7,2.7,0,0,0,1.91-.79l1-1a2.73,2.73,0,0,1,3.85,0l2,2a2.73,2.73,0,0,1,0,3.85l-1,1a2.71,2.71,0,0,0-.58,3v0A2.71,2.71,0,0,0,69.17,69h1.41a2.72,2.72,0,0,1,2.73,2.73V74.5a2.73,2.73,0,0,1-2.73,2.73H69.17a2.71,2.71,0,0,0-2.51,1.69v0a2.71,2.71,0,0,0,.58,3l1,1a2.72,2.72,0,0,1,0,3.85l-2,2a2.72,2.72,0,0,1-3.85,0l-1-1a2.7,2.7,0,0,0-1.91-.79,2.74,2.74,0,0,0-1,.21h0a2.71,2.71,0,0,0-1.69,2.51v1.41A2.73,2.73,0,0,1,54,93.81H51.22a2.73,2.73,0,0,1-2.73-2.73V89.67a2.71,2.71,0,0,0-1.69-2.51h0a2.74,2.74,0,0,0-1-.21,2.7,2.7,0,0,0-1.91.79l-1,1a2.72,2.72,0,0,1-3.85,0l-2-2a2.72,2.72,0,0,1,0-3.85l1-1a2.71,2.71,0,0,0,.58-3v0A2.71,2.71,0,0,0,36,77.22H34.63a2.73,2.73,0,0,1-2.73-2.73V71.72A2.72,2.72,0,0,1,34.63,69H36a2.71,2.71,0,0,0,2.51-1.69v0a2.71,2.71,0,0,0-.58-3l-1-1a2.73,2.73,0,0,1,0-3.85l2-2a2.73,2.73,0,0,1,3.85,0l1,1a2.7,2.7,0,0,0,1.91.79,2.74,2.74,0,0,0,1-.21h0a2.71,2.71,0,0,0,1.69-2.51V55.14a2.72,2.72,0,0,1,2.73-2.73H54M52.61,80.84a8.18,8.18,0,0,0,1.77-.2,7.73,7.73,0,0,0-1.77-15.27,8.18,8.18,0,0,0-1.77.2,7.73,7.73,0,0,0,1.77,15.27M54,49.78H51.22a5.36,5.36,0,0,0-5.35,5.35v1.41a.09.09,0,0,1-.06.08h-.08s0,0-.05,0l-1-1a5.35,5.35,0,0,0-7.57,0l-2,2a5.36,5.36,0,0,0,0,7.57l1,1a.09.09,0,0,1,0,.1c0,.07-.06.1-.09.1H34.63a5.36,5.36,0,0,0-5.35,5.35V74.5a5.36,5.36,0,0,0,5.35,5.35H36a.09.09,0,0,1,.08.06c0,.06,0,.1,0,.14l-1,1a5.35,5.35,0,0,0,0,7.57l2,2a5.35,5.35,0,0,0,7.57,0l1-1a.07.07,0,0,1,.05,0h0l.06,0h0l0,0h0a.11.11,0,0,1,0,.06v1.41a5.36,5.36,0,0,0,5.35,5.35H54a5.36,5.36,0,0,0,5.35-5.35V89.67a.09.09,0,0,1,.06-.08l.08,0a.07.07,0,0,1,.05,0l1,1a5.35,5.35,0,0,0,7.57,0l2-2a5.35,5.35,0,0,0,0-7.57l-1-1a.09.09,0,0,1,0-.1v0l0-.06h0a.1.1,0,0,1,.06,0h1.41a5.36,5.36,0,0,0,5.35-5.35V71.72a5.36,5.36,0,0,0-5.35-5.35H69.17a.09.09,0,0,1-.08-.06c0-.06,0-.1,0-.14l1-1a5.36,5.36,0,0,0,0-7.57l-2-2a5.35,5.35,0,0,0-7.57,0l-1,1a.07.07,0,0,1-.05,0h0l-.06,0s-.08,0-.08-.09V55.14A5.36,5.36,0,0,0,54,49.78ZM52.61,78.21a5.11,5.11,0,0,1-1.2-10.07,5.55,5.55,0,0,1,1.2-.13,5.11,5.11,0,0,1,1.2,10.07,5.56,5.56,0,0,1-1.2.13Z"/><path class="cls-4" d="M79.84,62.16a3,3,0,0,1-3-3v-.88a.37.37,0,0,0-.24-.35.44.44,0,0,0-.17,0,.36.36,0,0,0-.26.11l-.62.62a3,3,0,0,1-4.26,0l-1.22-1.22a3,3,0,0,1,0-4.26l.62-.62a.37.37,0,0,0,.08-.41.39.39,0,0,0-.35-.26h-.88a3,3,0,0,1-3-3V47.11a3,3,0,0,1,3-3h.88a.4.4,0,0,0,.28-.67l-.62-.62a3,3,0,0,1,0-4.25l1.22-1.22a3,3,0,0,1,4.26,0l.62.62a.36.36,0,0,0,.26.11.39.39,0,0,0,.15,0,.38.38,0,0,0,.26-.35V36.8a3,3,0,0,1,3-3h1.73a3,3,0,0,1,3,3v.88a.37.37,0,0,0,.24.34.43.43,0,0,0,.17,0,.36.36,0,0,0,.26-.11l.62-.62a3,3,0,0,1,4.26,0l1.22,1.22a3,3,0,0,1,0,4.26l-.62.62a.37.37,0,0,0-.08.41.38.38,0,0,0,.35.26h.88a3,3,0,0,1,3,3v1.73a3,3,0,0,1-3,3H91a.37.37,0,0,0-.34.23.38.38,0,0,0,.07.44l.62.62a3,3,0,0,1,0,4.26l-1.22,1.22a3,3,0,0,1-4.25,0L85.25,58a.36.36,0,0,0-.26-.11.42.42,0,0,0-.41.38v.88a3,3,0,0,1-3,3Zm.86-17.69a3.38,3.38,0,0,0-1.83.52,3.5,3.5,0,0,0,0,6,3.46,3.46,0,0,0,3.66,0,3.51,3.51,0,0,0,0-6A3.39,3.39,0,0,0,80.7,44.47Z"/><path class="cls-5" d="M81.57,35.1a1.69,1.69,0,0,1,1.69,1.69v.88a1.69,1.69,0,0,0,1,1.56h0a1.71,1.71,0,0,0,.66.13,1.68,1.68,0,0,0,1.19-.49l.62-.62a1.7,1.7,0,0,1,2.4,0l1.22,1.22a1.69,1.69,0,0,1,0,2.4l-.62.62a1.69,1.69,0,0,0-.36,1.85v0a1.69,1.69,0,0,0,1.56,1h.88a1.69,1.69,0,0,1,1.69,1.69v1.73a1.69,1.69,0,0,1-1.69,1.69H91a1.69,1.69,0,0,0-1.56,1v0a1.69,1.69,0,0,0,.36,1.85l.62.62a1.69,1.69,0,0,1,0,2.4l-1.22,1.22a1.69,1.69,0,0,1-2.4,0l-.62-.62A1.68,1.68,0,0,0,85,56.57a1.71,1.71,0,0,0-.66.13h0a1.69,1.69,0,0,0-1,1.56v.88a1.69,1.69,0,0,1-1.69,1.69H79.84a1.69,1.69,0,0,1-1.69-1.69v-.88a1.69,1.69,0,0,0-1.05-1.56h0a1.71,1.71,0,0,0-.66-.13,1.68,1.68,0,0,0-1.19.49l-.62.62a1.69,1.69,0,0,1-2.4,0L71,56.46a1.69,1.69,0,0,1,0-2.4l.62-.62A1.69,1.69,0,0,0,72,51.6v0a1.69,1.69,0,0,0-1.56-1h-.88a1.69,1.69,0,0,1-1.69-1.69V47.11a1.69,1.69,0,0,1,1.69-1.69h.88A1.69,1.69,0,0,0,72,44.36h0a1.69,1.69,0,0,0-.36-1.85L71,41.88a1.69,1.69,0,0,1,0-2.4l1.22-1.22a1.7,1.7,0,0,1,2.4,0l.62.62a1.68,1.68,0,0,0,1.19.49,1.71,1.71,0,0,0,.66-.13h0a1.69,1.69,0,0,0,1-1.56V36.8a1.69,1.69,0,0,1,1.69-1.69h1.73M80.7,52.79a4.72,4.72,0,0,0,2.53-.73,4.82,4.82,0,0,0,0-8.18,4.77,4.77,0,0,0-5.07,0,4.82,4.82,0,0,0,0,8.18,4.72,4.72,0,0,0,2.54.73m.86-20.32H79.84a4.33,4.33,0,0,0-4.2,3.28,4.33,4.33,0,0,0-5.29.65l-1.22,1.22a4.33,4.33,0,0,0-.65,5.29,4.33,4.33,0,0,0-3.28,4.2v1.73A4.33,4.33,0,0,0,68.48,53a4.33,4.33,0,0,0,.65,5.29l1.22,1.22a4.33,4.33,0,0,0,5.29.65,4.33,4.33,0,0,0,4.2,3.28h1.73a4.33,4.33,0,0,0,4.2-3.28,4.33,4.33,0,0,0,5.29-.65l1.22-1.22A4.33,4.33,0,0,0,92.92,53a4.33,4.33,0,0,0,3.28-4.2V47.11a4.33,4.33,0,0,0-3.28-4.2,4.33,4.33,0,0,0-.65-5.29L91.05,36.4a4.33,4.33,0,0,0-5.29-.65,4.33,4.33,0,0,0-4.2-3.28ZM80.7,50.17a2.09,2.09,0,0,1-1.12-.32,2.19,2.19,0,0,1,0-3.75,2.14,2.14,0,0,1,2.25,0,2.19,2.19,0,0,1,0,3.75,2.08,2.08,0,0,1-1.12.32Z"/></g></g></svg>