<svg xmlns="http://www.w3.org/2000/svg" viewBox="0 0 300 205.73"><defs><style>.cls-1,.cls-2{fill:#58595b;}.cls-1{stroke:#fff;stroke-linecap:round;stroke-linejoin:round;stroke-width:2px;}.cls-3,.cls-4{fill:#fff;}.cls-4{font-size:9.29px;font-family:MuseoSans-900, MuseoSans 900;}.cls-5{letter-spacing:0em;}.cls-6{letter-spacing:-0.08em;}.cls-7{letter-spacing:-0.01em;}.cls-8{fill:#ccc;}</style></defs><title>laptop</title><g id="Layer_2" data-name="Layer 2"><g id="Layer_1-2" data-name="Layer 1"><path class="cls-1" d="M273.13,1h-243c-3.33,0-6.07,2.24-6.07,5.57V174.25a6.42,6.42,0,0,0,6.07,6.42h243c3.33,0,5.47-3.1,5.47-6.42V6.57A5.21,5.21,0,0,0,273.13,1Z"/><path class="cls-1" d="M264,160a6.58,6.58,0,0,1-6.26,6.76H41.94c-3.44,0-5.94-3.1-5.94-6.76V20.7a5.66,5.66,0,0,1,5.94-6h215.8c3.44,0,6.26,2.32,6.26,6Z"/><rect class="cls-1" x="1" y="189.73" width="298" height="15" rx="2.53" ry="2.53"/><rect class="cls-1" x="50.33" y="44.73" width="114" height="103.67"/><path class="cls-2" d="M129.06,115.25a6.19,6.19,0,0,1-4.43-10.52,6.15,6.15,0,0,1,4.36-1.87h0a6.19,6.19,0,1,1,.15,12.39Z"/><path class="cls-3" d="M129.06,103.86a5.19,5.19,0,0,1,.06,10.39h-.06a5.19,5.19,0,0,1-.06-10.39h.06m0-2H129a7.19,7.19,0,0,0-7.11,7.28,7.22,7.22,0,0,0,7.19,7.11h.09a7.19,7.19,0,0,0-.09-14.39Z"/><path class="cls-2" d="M83.78,115.79a6.22,6.22,0,0,1-6.19-6.12,6.19,6.19,0,0,1,6.12-6.27h0A6.23,6.23,0,0,1,90,109.52a6.19,6.19,0,0,1-6.12,6.27Z"/><path class="cls-3" d="M83.78,104.41a5.19,5.19,0,0,1,.06,10.39h-.06a5.19,5.19,0,0,1-.06-10.39h.06m0-2h-.09a7.19,7.19,0,0,0,.09,14.39h.09A7.19,7.19,0,0,0,91,109.51a7.22,7.22,0,0,0-7.19-7.11Z"/><path class="cls-2" d="M75,110.7a5.13,5.13,0,0,1-4.32-2c-2.62-3.43-1.4-10.61.08-16,1-3.84,4-6.68,6.93-9.43.56-.53,1.12-1.06,1.65-1.6a14.87,14.87,0,0,1,7.64-4h.13l23.94-.29c7,0,13.19,6.9,15.54,9.87a5.69,5.69,0,0,0,4.11,1.8h.17a37,37,0,0,1,8.56,1.46c6.29,1.62,6,6.63,5.92,7.47l.08,7.06a5.09,5.09,0,0,1-1.27,3.78,4.06,4.06,0,0,1-2.85,1.15h-.23l-3.42,0a1,1,0,0,1-1-1c0-.31-.3-7.57-7.6-7.57H129a7.08,7.08,0,0,0-5.21,2,9,9,0,0,0-2.14,5.76,1,1,0,0,1-1,1l-27.69.33a1,1,0,0,1-1-.93c0-.3-.66-7.31-8.1-7.31h-.15c-7.56.09-7.57,7.14-7.56,7.44a1,1,0,0,1-1,1Z"/><path class="cls-3" d="M111.1,78.33c6.87,0,13,7.29,14.76,9.49a6.72,6.72,0,0,0,4.9,2.18h.17a36,36,0,0,1,8.31,1.43c6,1.56,5.17,6.45,5.17,6.45l.09,7.12c0,3.65-2.4,3.92-3.12,3.92h-.2l-3.46,0s-.2-8.55-8.6-8.55H129c-8.55.1-8.34,8.75-8.34,8.75l-27.68.33s-.6-8.24-9.1-8.24h-.16c-8.65.1-8.55,8.45-8.55,8.45H75c-7.43,0-4.44-12.48-3.28-16.75s5.1-7.39,8.32-10.58a13.91,13.91,0,0,1,7.08-3.75L111,78.33h.12m0-2H111l-23.81.29-.26,0a16,16,0,0,0-8.2,4.31c-.53.53-1.08,1.05-1.64,1.58-3,2.85-6.08,5.79-7.2,9.89-2.24,8.2-2.21,13.89.09,16.9A6.16,6.16,0,0,0,75,111.7h.1a2,2,0,0,0,2-2c0-1.05.32-6.35,6.57-6.43h.14c6.56,0,7.09,6.12,7.1,6.38a2,2,0,0,0,2,1.85h0l27.68-.33a2,2,0,0,0,2-2,8,8,0,0,1,1.87-5,6.05,6.05,0,0,1,4.5-1.65h.13c6.27,0,6.59,5.92,6.6,6.59a2,2,0,0,0,2,2h0l3.37,0h.26a5.07,5.07,0,0,0,3.56-1.44,6,6,0,0,0,1.55-4.5l-.08-7c.32-2.39-.67-7-6.67-8.53A37.67,37.67,0,0,0,130.92,88h-.19a4.73,4.73,0,0,1-3.31-1.42c-3-3.83-9.18-10.25-16.32-10.25Z"/><path class="cls-2" d="M87.5,82.08a10.09,10.09,0,0,1,1.89-.19h.25l13.49-.16.09,7.54-15.63.19Z"/><path class="cls-3" d="M102.14,82.75l.07,5.54-13.63.16-.07-5.51c.39,0,.7,0,.88,0h.33l12.42-.15m2-2-14.42.17h-.3a10.69,10.69,0,0,0-2.9.41l.11,9.18,17.63-.21-.11-9.54Z"/><path class="cls-2" d="M84.22,83.84l.07,5.67-5.67.07Z"/><path class="cls-3" d="M83.25,86.27l0,2.25-2.25,0,2.23-2.28m1.95-4.46a5.25,5.25,0,0,0-1.74,1.38l-7.24,7.42,9.08-.11-.1-8.69Z"/><path class="cls-2" d="M106.42,81.7l5-.06c1.54,0,2.41.08,5.32,1.84A26.31,26.31,0,0,1,122.45,89l-15.93.19Z"/><path class="cls-3" d="M111.46,82.64c1.33,0,2,0,4.79,1.7a20.32,20.32,0,0,1,4.08,3.73l-12.83.15-.07-5.54,3.34,0h.68m0-2h-.71l-5.34.06.11,9.54L124.46,90s-3.83-5.37-7.16-7.39c-3-1.8-4-2-5.83-2Z"/><path class="cls-2" d="M129.06,111.38a2.32,2.32,0,1,1,1.66-.7,2.31,2.31,0,0,1-1.63.7Z"/><path class="cls-3" d="M129.06,107.73a1.32,1.32,0,0,1,0,2.65h0a1.32,1.32,0,0,1,0-2.65h0m0-2h0a3.32,3.32,0,1,0,3.36,3.28,3.33,3.33,0,0,0-3.36-3.28Z"/><path class="cls-2" d="M83.78,111.92a2.32,2.32,0,1,1,1.66-.7,2.31,2.31,0,0,1-1.63.7Z"/><path class="cls-3" d="M83.78,108.28a1.32,1.32,0,0,1,0,2.65h0a1.32,1.32,0,0,1,0-2.65h0m0-2h0a3.32,3.32,0,1,0,3.36,3.28,3.33,3.33,0,0,0-3.36-3.28Z"/><rect class="cls-1" x="171.84" y="46.23" width="20.5" height="20.5"/><text class="cls-4" transform="translate(198.5 55.45)"><tspan class="cls-5">C</tspan><tspan x="5.42" y="0">AR</tspan><tspan class="cls-6" x="16.11" y="0">F</tspan><tspan class="cls-7" x="19.91" y="0">A</tspan><tspan x="25.46" y="0">X</tspan></text><rect class="cls-8" x="173" y="74.41" width="4.61" height="1.32"/><rect class="cls-8" x="178.54" y="74.44" width="1.21" height="1.38"/><rect class="cls-8" x="180.67" y="74.44" width="1.21" height="1.38"/><rect class="cls-8" x="182.81" y="74.44" width="1.21" height="1.38"/><rect class="cls-8" x="185.31" y="74.41" width="10.88" height="1.32"/><rect class="cls-8" x="197.11" y="74.44" width="1.21" height="1.38"/><rect class="cls-8" x="199.25" y="74.44" width="1.21" height="1.38"/><rect class="cls-8" x="201.38" y="74.44" width="1.21" height="1.38"/><rect class="cls-8" x="203.89" y="74.41" width="10.88" height="1.32"/><rect class="cls-8" x="215.69" y="74.44" width="1.21" height="1.38"/><rect class="cls-8" x="217.82" y="74.44" width="1.21" height="1.38"/><rect class="cls-8" x="219.96" y="74.44" width="1.21" height="1.38"/><rect class="cls-8" x="222.06" y="74.41" width="2.33" height="1.32"/><rect class="cls-8" x="225.02" y="74.44" width="1.21" height="1.38"/><rect class="cls-8" x="227.15" y="74.44" width="1.21" height="1.38"/><rect class="cls-8" x="229.29" y="74.44" width="1.21" height="1.38"/><rect class="cls-8" x="225.88" y="78.03" width="4.61" height="1.32"/><rect class="cls-8" x="223.75" y="77.94" width="1.21" height="1.38" transform="translate(448.7 157.26) rotate(180)"/><rect class="cls-8" x="221.61" y="77.94" width="1.21" height="1.38" transform="translate(444.43 157.26) rotate(180)"/><rect class="cls-8" x="219.48" y="77.94" width="1.21" height="1.38" transform="translate(440.17 157.26) rotate(180)"/><rect class="cls-8" x="207.31" y="78.03" width="10.88" height="1.32"/><rect class="cls-8" x="205.17" y="77.94" width="1.21" height="1.38" transform="translate(411.55 157.26) rotate(180)"/><rect class="cls-8" x="203.04" y="77.94" width="1.21" height="1.38" transform="translate(407.28 157.26) rotate(180)"/><rect class="cls-8" x="200.9" y="77.94" width="1.21" height="1.38" transform="translate(403.02 157.26) rotate(180)"/><rect class="cls-8" x="188.73" y="78.03" width="10.88" height="1.32"/><rect class="cls-8" x="186.59" y="77.94" width="1.21" height="1.38" transform="translate(374.4 157.26) rotate(180)"/><rect class="cls-8" x="184.46" y="77.94" width="1.21" height="1.38" transform="translate(370.13 157.26) rotate(180)"/><rect class="cls-8" x="182.33" y="77.94" width="1.21" height="1.38" transform="translate(365.87 157.26) rotate(180)"/><rect class="cls-8" x="179.11" y="78.03" width="2.33" height="1.32"/><rect class="cls-8" x="177.27" y="77.94" width="1.21" height="1.38" transform="translate(355.74 157.26) rotate(180)"/><rect class="cls-8" x="175.13" y="77.94" width="1.21" height="1.38" transform="translate(351.48 157.26) rotate(180)"/><rect class="cls-8" x="173" y="77.94" width="1.21" height="1.38" transform="translate(347.21 157.26) rotate(180)"/><rect class="cls-8" x="173" y="81.94" width="4.61" height="1.32"/><rect class="cls-8" x="178.54" y="81.97" width="1.21" height="1.38"/><rect class="cls-8" x="180.67" y="81.97" width="1.21" height="1.38"/><rect class="cls-8" x="182.81" y="81.97" width="1.21" height="1.38"/><rect class="cls-8" x="185.31" y="81.94" width="10.88" height="1.32"/><rect class="cls-8" x="197.11" y="81.97" width="1.21" height="1.38"/><rect class="cls-8" x="199.25" y="81.97" width="1.21" height="1.38"/><rect class="cls-8" x="201.38" y="81.97" width="1.21" height="1.38"/><rect class="cls-8" x="203.89" y="81.94" width="10.88" height="1.32"/><rect class="cls-8" x="215.69" y="81.97" width="1.21" height="1.38"/><rect class="cls-8" x="217.82" y="81.97" width="1.21" height="1.38"/><rect class="cls-8" x="219.96" y="81.97" width="1.21" height="1.38"/><rect class="cls-8" x="222.06" y="81.94" width="2.33" height="1.32"/><rect class="cls-8" x="225.02" y="81.97" width="1.21" height="1.38"/><rect class="cls-8" x="227.15" y="81.97" width="1.21" height="1.38"/><rect class="cls-8" x="229.29" y="81.97" width="1.21" height="1.38"/><rect class="cls-8" x="225.88" y="85.55" width="4.61" height="1.32"/><rect class="cls-8" x="223.75" y="85.47" width="1.21" height="1.38" transform="translate(448.7 172.31) rotate(180)"/><rect class="cls-8" x="221.61" y="85.47" width="1.21" height="1.38" transform="translate(444.43 172.31) rotate(180)"/><rect class="cls-8" x="219.48" y="85.47" width="1.21" height="1.38" transform="translate(440.17 172.31) rotate(180)"/><rect class="cls-8" x="207.31" y="85.55" width="10.88" height="1.32"/><rect class="cls-8" x="205.17" y="85.47" width="1.21" height="1.38" transform="translate(411.55 172.31) rotate(180)"/><rect class="cls-8" x="203.04" y="85.47" width="1.21" height="1.38" transform="translate(407.28 172.31) rotate(180)"/><rect class="cls-8" x="200.9" y="85.47" width="1.21" height="1.38" transform="translate(403.02 172.31) rotate(180)"/><rect class="cls-8" x="188.73" y="85.55" width="10.88" height="1.32"/><rect class="cls-8" x="186.59" y="85.47" width="1.21" height="1.38" transform="translate(374.4 172.31) rotate(180)"/><rect class="cls-8" x="184.46" y="85.47" width="1.21" height="1.38" transform="translate(370.13 172.31) rotate(180)"/><rect class="cls-8" x="182.33" y="85.47" width="1.21" height="1.38" transform="translate(365.87 172.31) rotate(180)"/><rect class="cls-8" x="179.11" y="85.55" width="2.33" height="1.32"/><rect class="cls-8" x="177.27" y="85.47" width="1.21" height="1.38" transform="translate(355.74 172.31) rotate(180)"/><rect class="cls-8" x="175.13" y="85.47" width="1.21" height="1.38" transform="translate(351.48 172.31) rotate(180)"/><rect class="cls-8" x="173" y="85.47" width="1.21" height="1.38" transform="translate(347.21 172.31) rotate(180)"/><rect class="cls-1" x="173" y="94.02" width="80.5" height="11.96"/><rect class="cls-8" x="186.02" y="98.79" width="4.61" height="1.32"/><rect class="cls-8" x="191.56" y="98.82" width="1.21" height="1.38"/><rect class="cls-8" x="193.69" y="98.82" width="1.21" height="1.38"/><rect class="cls-8" x="195.82" y="98.82" width="1.21" height="1.38"/><rect class="cls-8" x="198.33" y="98.79" width="10.88" height="1.32"/><rect class="cls-8" x="210.13" y="98.82" width="1.21" height="1.38"/><rect class="cls-8" x="212.26" y="98.82" width="1.21" height="1.38"/><rect class="cls-8" x="214.4" y="98.82" width="1.21" height="1.38"/><rect class="cls-8" x="216.9" y="98.79" width="10.88" height="1.32"/><rect class="cls-8" x="228.71" y="98.82" width="1.21" height="1.38"/><rect class="cls-8" x="230.84" y="98.82" width="1.21" height="1.38"/><rect class="cls-8" x="232.97" y="98.82" width="1.21" height="1.38"/><rect class="cls-8" x="235.07" y="98.79" width="2.33" height="1.32"/><rect class="cls-8" x="238.03" y="98.82" width="1.21" height="1.38"/><rect class="cls-8" x="240.17" y="98.82" width="1.21" height="1.38"/><rect class="cls-8" x="242.3" y="98.82" width="1.21" height="1.38"/><rect class="cls-1" x="173" y="111.38" width="80.5" height="11.96"/><rect class="cls-8" x="186.02" y="116.16" width="4.61" height="1.32"/><rect class="cls-8" x="191.56" y="116.18" width="1.21" height="1.38"/><rect class="cls-8" x="193.69" y="116.18" width="1.21" height="1.38"/><rect class="cls-8" x="195.82" y="116.18" width="1.21" height="1.38"/><rect class="cls-8" x="198.33" y="116.16" width="10.88" height="1.32"/><rect class="cls-8" x="210.13" y="116.18" width="1.21" height="1.38"/><rect class="cls-8" x="212.26" y="116.18" width="1.21" height="1.38"/><rect class="cls-8" x="214.4" y="116.18" width="1.21" height="1.38"/><rect class="cls-8" x="216.9" y="116.16" width="10.88" height="1.32"/><rect class="cls-8" x="228.71" y="116.18" width="1.21" height="1.38"/><rect class="cls-8" x="230.84" y="116.18" width="1.21" height="1.38"/><rect class="cls-8" x="232.97" y="116.18" width="1.21" height="1.38"/><rect class="cls-8" x="235.07" y="116.16" width="2.33" height="1.32"/><rect class="cls-8" x="238.03" y="116.18" width="1.21" height="1.38"/><rect class="cls-8" x="240.17" y="116.18" width="1.21" height="1.38"/><rect class="cls-8" x="242.3" y="116.18" width="1.21" height="1.38"/><rect class="cls-1" x="173" y="128.75" width="80.5" height="11.96"/><rect class="cls-8" x="186.02" y="133.52" width="4.61" height="1.32"/><rect class="cls-8" x="191.56" y="133.55" width="1.21" height="1.38"/><rect class="cls-8" x="193.69" y="133.55" width="1.21" height="1.38"/><rect class="cls-8" x="195.82" y="133.55" width="1.21" height="1.38"/><rect class="cls-8" x="198.33" y="133.52" width="10.88" height="1.32"/><rect class="cls-8" x="210.13" y="133.55" width="1.21" height="1.38"/><rect class="cls-8" x="212.26" y="133.55" width="1.21" height="1.38"/><rect class="cls-8" x="214.4" y="133.55" width="1.21" height="1.38"/><rect class="cls-8" x="216.9" y="133.52" width="10.88" height="1.32"/><rect class="cls-8" x="228.71" y="133.55" width="1.21" height="1.38"/><rect class="cls-8" x="230.84" y="133.55" width="1.21" height="1.38"/><rect class="cls-8" x="232.97" y="133.55" width="1.21" height="1.38"/><rect class="cls-8" x="235.07" y="133.52" width="2.33" height="1.32"/><rect class="cls-8" x="238.03" y="133.55" width="1.21" height="1.38"/><rect class="cls-8" x="240.17" y="133.55" width="1.21" height="1.38"/><rect class="cls-8" x="242.3" y="133.55" width="1.21" height="1.38"/><rect class="cls-1" x="36" y="20.7" width="228" height="15.03"/></g></g></svg>