<svg xmlns="http://www.w3.org/2000/svg" viewBox="0 0 437.23 233.34"><defs><style>.cls-1,.cls-7{fill:#fff;}.cls-2{font-size:28px;fill:#0066ae;}.cls-2,.cls-7{font-family:ArialMT, Arial;}.cls-3{letter-spacing:-0.06em;}.cls-4{letter-spacing:-0.07em;}.cls-5{fill:#ffb600;}.cls-6,.cls-8{fill:none;stroke-miterlimit:10;}.cls-6{stroke:#fff;stroke-width:4px;}.cls-7{font-size:40.63px;}.cls-8{stroke:#ffb600;stroke-width:2px;}</style></defs><title>likes</title><g id="Layer_2" data-name="Layer 2"><g id="Layer_1-2" data-name="Layer 1"><rect class="cls-1" x="4.5" y="28.07" width="330" height="50"/><text class="cls-2" transform="translate(45.89 62.03)">LIKES/<tspan class="cls-3" x="87.16" y="0">F</tspan><tspan class="cls-4" x="102.72" y="0">A</tspan><tspan x="119.31" y="0">VORITES</tspan></text><path class="cls-5" d="M374.5,223.48h14.34c12.25,0,15.54-8.07,15.54-30.77v-26.9c0-40,17-46,20.91-49.89-3.88-2.39-20.91-8.36-20.91-48.4V40.63c0-22.7-3.29-30.77-15.54-30.77H374.5V0h14.94c16.73,0,26.29,8.07,26.29,35.25v27.5c0,24.2,3.88,47.5,21.51,48.4V122.5c-17.63.9-21.51,24.2-21.51,48.4v27.2c0,27.19-9.56,35.25-26.29,35.25H374.5Z"/><path class="cls-6" d="M11,114.55a9,9,0,0,0-9,9v37.36a9,9,0,0,0,9,9H51a16.08,16.08,0,0,1,13.06,8l11.41,22.57c2.23,4.42,5.65,4.31,7.6-.24l9.45-22.09A14.82,14.82,0,0,1,105,169.91h43a9,9,0,0,0,9-9V123.55a9,9,0,0,0-9-9Z"/><text class="cls-7" transform="translate(20.98 155.11)">120</text><g id="PClm0k.tif"><path class="cls-5" d="M122.84,123.16a2.12,2.12,0,0,1,1.85,1.12,8.73,8.73,0,0,1,.77,6c-.22,1.43-.39,2.87-.5,4.31-.07,1,.16,1.13,1.1,1.14l7.94,0c1.19,0,1.63.5,1.75,1.66a2.45,2.45,0,0,1-1.42,2.65,1.42,1.42,0,0,0-.22.16.88.88,0,0,0-.11.14c.94,2.13.9,3.39-1.36,4.69.59.75,1.43,1.58.92,2.54a9.49,9.49,0,0,1-2,2,12.3,12.3,0,0,1,.65,1.62A2.27,2.27,0,0,1,130,154h-4.44l-5.38,0a2.3,2.3,0,0,1-1.09-.31c-1.23-.72-2.42-1.52-3.66-2.22a5.75,5.75,0,0,0-1.7-.61c-.49-.1-.43-.39-.43-.7q0-4.63,0-9.27c0-1,0-1.94,0-2.91,0-.42.11-.63.53-.63h.08c.18,0,.36-.09.53-.09h.06a3.22,3.22,0,0,0,.45,0c1.25,0,1.86-.85,2.41-2,.92-1.93,2-3.77,3-5.66a2.1,2.1,0,0,0,.24-.84c.07-1.17.09-2.35.14-3.52a2,2,0,0,1,1.54-2,2.18,2.18,0,0,1,.55-.07m0-2a4.18,4.18,0,0,0-1.06.14,4,4,0,0,0-3,3.89c0,.41,0,.81,0,1.22,0,.76-.05,1.51-.09,2.27-.35.65-.7,1.29-1.05,1.92-.69,1.23-1.39,2.51-2,3.83a2.35,2.35,0,0,1-.53.85h-.25l-.34,0a2.83,2.83,0,0,0-.7.09,2.46,2.46,0,0,0-1.74.73,2.58,2.58,0,0,0-.69,1.95c0,.66,0,1.33,0,2v10.18a2.44,2.44,0,0,0,2,2.61,3.74,3.74,0,0,1,1.1.38c.64.36,1.26.75,1.92,1.16s1.14.71,1.71,1a4.27,4.27,0,0,0,2.08.58l5.4,0H130a4.27,4.27,0,0,0,3.41-1.68,4.21,4.21,0,0,0,.74-3.68c0-.19-.11-.37-.17-.54a5.63,5.63,0,0,0,1.36-1.62,3.24,3.24,0,0,0,0-3.06,4.37,4.37,0,0,0,1-4.42,4.4,4.4,0,0,0,1.37-3.86A3.49,3.49,0,0,0,134,133.7h-7c.1-1,.23-2.07.4-3.13a10.69,10.69,0,0,0-1-7.26,4.12,4.12,0,0,0-3.58-2.12Z"/><path class="cls-5" d="M108,135.39c.41,0,.54.14.54.56q0,8.71,0,17.43c0,.47-.16.62-.58.62h-.07l-1.28,0-1.21,0h-.07c-.42,0-.57-.19-.64-.61-.38-2.45-.79-4.89-1.18-7.34q-.67-4.18-1.32-8.37c-.11-.72-.21-1.44-.33-2.21a4.49,4.49,0,0,1,.57-.08H108m0-2H102.5a3.93,3.93,0,0,0-.71.07l-.14,0-2,.28.29,2,.1.71c.07.52.15,1,.23,1.52q.65,4.19,1.32,8.37.23,1.44.46,2.87c.24,1.49.48,3,.71,4.46a2.54,2.54,0,0,0,2.61,2.31h.16l1.12,0,1.21,0H108a2.52,2.52,0,0,0,1.86-.72,2.59,2.59,0,0,0,.72-1.91c0-5.48,0-11.17,0-17.42a2.52,2.52,0,0,0-.71-1.86,2.49,2.49,0,0,0-1.84-.71Z"/></g><path class="cls-6" d="M188.5,114.55a9,9,0,0,0-9,9v37.36a9,9,0,0,0,9,9h40a16.08,16.08,0,0,1,13.06,8l11.41,22.57c2.23,4.42,5.65,4.31,7.6-.24L270,178.18a14.82,14.82,0,0,1,12.54-8.27h43a9,9,0,0,0,9-9V123.55a9,9,0,0,0-9-9Z"/><text class="cls-7" transform="translate(215.78 155.11)">87</text><circle class="cls-8" cx="289.33" cy="140.72" r="17.38"/><path class="cls-8" d="M288.62,152.75s-8.5-5-9.75-11.49,5.92-12.87,10.46-6.5l2,3.5s4-7.62,7.88-3.87S298.25,147.74,288.62,152.75Z"/></g></g></svg>