<svg xmlns="http://www.w3.org/2000/svg" viewBox="0 0 220.64 280.9"><defs><style>.cls-1,.cls-3{fill:#58595b;}.cls-2{fill:#fff;}.cls-3{stroke:#fff;stroke-linecap:round;stroke-linejoin:round;stroke-width:2px;}</style></defs><title>phone-hearts</title><g id="Layer_2" data-name="Layer 2"><g id="Layer_1-2" data-name="Layer 1"><path class="cls-1" d="M63.34,165.32l-.43,0L35,162.08a6.37,6.37,0,0,1-.8-.15,5.94,5.94,0,1,1,3-11.5l24.19,6.25,28.73,2.91,3.11-3.34a1.79,1.79,0,0,1,1.3-.57A1.78,1.78,0,0,1,96,158.5l-2.62,3.7a1,1,0,0,1-1.33.28,1,1,0,0,1-.26-.22l-25,.79a3.79,3.79,0,0,1-3.46,2.27Z"/><path class="cls-2" d="M35.72,151.24a5,5,0,0,1,1.24.16l24.27,6.27,29.45,3,.05-.15a.73.73,0,0,1,.15-.25L94,156.94a.78.78,0,0,1,1.21,1l-2.62,3.7.21-.4-26.7.85a2.79,2.79,0,0,1-2.73,2.25l-.32,0-.42,0-27.44-3.16a5.43,5.43,0,0,1-.67-.12,4.94,4.94,0,0,1,1.23-9.72m0-2A6.94,6.94,0,0,0,34,162.9a7.42,7.42,0,0,0,.93.17l27.46,3.17.42,0A4.77,4.77,0,0,0,67.41,164l24-.76.1.07a2,2,0,0,0,2.67-.55l2.62-3.7a2.78,2.78,0,0,0-4.3-3.5l-2.77,3L61.58,155.7l-24.12-6.23a7,7,0,0,0-1.74-.22Z"/><path class="cls-3" d="M218.73,57.8a14.1,14.1,0,0,0-18.92-17.87,14.1,14.1,0,0,0-26,.89,9.18,9.18,0,0,0-.42,1.32l0,.19c-.06.24-.12.52-.17.82s-.1.58-.14.88c-.71,5.19-.09,16.4,13,31.36,0,0,20.36-1.75,29.71-12.8A14,14,0,0,0,218.73,57.8Z"/><path class="cls-3" d="M219.12,100.61A8.14,8.14,0,0,0,208.19,90.3a8.14,8.14,0,0,0-15,.52,5.3,5.3,0,0,0-.24.76l0,.11c0,.14-.07.3-.1.47s-.06.34-.08.51c-.41,3,0,9.47,7.49,18.1,0,0,11.76-1,17.15-7.39A8.11,8.11,0,0,0,219.12,100.61Z"/><path class="cls-3" d="M168.72,35.47H65.87A17.79,17.79,0,0,0,48.09,53.28V262.11A17.79,17.79,0,0,0,65.87,279.9H168.72a17.81,17.81,0,0,0,17.8-17.79V53.28A17.82,17.82,0,0,0,168.72,35.47Z"/><rect class="cls-3" x="61.43" y="65.52" width="111.75" height="168"/><polygon class="cls-3" points="141.14 53.54 93.46 53.54 93.46 48.34 141.15 48.34 141.15 53.54 141.14 53.54"/><ellipse class="cls-3" cx="156.99" cy="51.17" rx="4.56" ry="4.55"/><rect class="cls-3" x="95.58" y="247.56" width="43.43" height="13.36"/><path class="cls-1" d="M44.45,274.8a2,2,0,0,1-.86-.2,9.56,9.56,0,0,0-4-1,6.24,6.24,0,0,0-.81.05l-.21,0a6.18,6.18,0,0,1-.88.08,2.46,2.46,0,0,1-1.44-.42,2.65,2.65,0,0,1-1.06-1.82,8.42,8.42,0,0,1,0-1.92c0-.24,0-.47.05-.7l.11-2.55,1.37-34.64L23,202.18a1,1,0,0,1-.09-.33,7.68,7.68,0,0,1,0-1.13A7.17,7.17,0,0,1,30.07,194h.42a7.17,7.17,0,0,1,6.75,7.39l9,29.71a1,1,0,0,1,0,.32v.41l-4.78,36.92a14.71,14.71,0,0,1,2.84,1.48l.21.14c.76.5,2.54,1.66,1.73,3.34A2,2,0,0,1,44.45,274.8Z"/><path class="cls-2" d="M30.07,195h.36a6.17,6.17,0,0,1,5.81,6.51l9,29.88v.41l-4.87,37.61A14.48,14.48,0,0,1,43.73,271c.67.45,2.08,1.22,1.6,2.22a1,1,0,0,1-1.31.46,10.57,10.57,0,0,0-4.47-1.1,7.25,7.25,0,0,0-.94.06,7.5,7.5,0,0,1-1,.1,1.48,1.48,0,0,1-.87-.24,1.65,1.65,0,0,1-.64-1.14,13.89,13.89,0,0,1,.07-2.43c0-.85.07-1.7.11-2.55l.24-6.15.3-7.52.31-7.79.28-6.94.2-5,.06-1.51h0v-.41l0,.4L23.94,201.76a6.65,6.65,0,0,1,0-1A6.17,6.17,0,0,1,30.07,195m0-2a8.17,8.17,0,0,0-8.15,7.7,8.63,8.63,0,0,0,0,1.29,2,2,0,0,0,.18.65l13.57,29.33,0,1v.19l-.19,4.79v.25l-.27,6.69-.31,7.79-.15,3.88-.14,3.64-.12,3.07-.12,3.07c0,.41,0,.82-.05,1.23s0,.88-.06,1.32c0,.21,0,.44,0,.66a9.19,9.19,0,0,0,0,2.14,3.64,3.64,0,0,0,1.49,2.5,3.46,3.46,0,0,0,2,.59,6.94,6.94,0,0,0,1-.09l.2,0a5.27,5.27,0,0,1,.68,0,8.56,8.56,0,0,1,3.6.9,3,3,0,0,0,4-1.39c.79-1.65.09-3.2-2.09-4.62l-.19-.13a15,15,0,0,0-2.31-1.27L47.21,232q0-.1,0-.19v-.41a2,2,0,0,0-.08-.64l-8.91-29.56a8.17,8.17,0,0,0-7.7-8.25Z"/><path class="cls-1" d="M24.66,211.22c-7.72,0-12.51-4.23-12.51-11,0-6.08,10.71-40.92,15.91-51.77.13-.27.69-2.06,1.17-3.62a1,1,0,0,1,1-.71h3.37a1,1,0,0,1,1,1.12,12.58,12.58,0,0,0,0,3.39h.21a1.08,1.08,0,0,1,1,.65c3.93,9.2,2.48,32.09,1.7,44.39-.19,3-.34,5.4-.34,6.56C37.17,207,32.38,211.22,24.66,211.22Z"/><path class="cls-2" d="M33.56,145.09h0m0,0s-.38,3.12.23,4.31a.5.5,0,0,0,.48.22c.18,0,.37,0,.5,0s.11,0,.12,0c4.83,11.3,1.28,44.76,1.28,50.56,0,7-5.15,10-11.51,10s-11.51-3-11.51-10c0-5.94,10.8-40.89,15.81-51.34.22-.47,1.22-3.76,1.22-3.76h3.37m0-2H30.19a2,2,0,0,0-1.91,1.42c-.44,1.44-1,3.19-1.13,3.51-4.77,9.94-16,45.5-16,52.17,0,7.42,5.18,12,13.51,12s13.51-4.61,13.51-12c0-1.13.15-3.5.34-6.49.79-12.38,2.25-35.43-1.78-44.85a2,2,0,0,0-1.28-1.15,15,15,0,0,1,.08-2.27,2,2,0,0,0-2-2.33Zm0,4h0Z"/><path class="cls-1" d="M31.75,144.53c-5.18,0-8.82-8.5-8.82-13.1a8.82,8.82,0,1,1,17.64,0C40.57,136,36.94,144.53,31.75,144.53Z"/><path class="cls-2" d="M31.75,123.61a7.82,7.82,0,0,1,7.82,7.82c0,4.32-3.5,12.1-7.82,12.1s-7.82-7.78-7.82-12.1a7.82,7.82,0,0,1,7.82-7.82m0-2a9.83,9.83,0,0,0-9.82,9.82c0,4.84,3.82,14.1,9.82,14.1s9.82-9.26,9.82-14.1a9.83,9.83,0,0,0-9.82-9.82Z"/><path class="cls-1" d="M40.59,182.85a3.75,3.75,0,0,1-3-1.46l-17.14-22.2a6.41,6.41,0,0,1-.45-.68,5.94,5.94,0,1,1,10.31-5.9l12,21,20.93-9.75a1.77,1.77,0,0,1,.69-.16l4.54-.1a1.78,1.78,0,0,1,.31,3.54l-4,.62L42.66,182.24a3.77,3.77,0,0,1-2.07.62Z"/><path class="cls-2" d="M25.15,150.62a4.94,4.94,0,0,1,4.29,2.49l12.44,21.76,21.63-10.07.14-.07c.09,0,.19-.19.29-.19l4.53-.22h0a.9.9,0,0,1,.77.78.84.84,0,0,1-.65,1l-4.18.69.13-.07-.43.14.3,0L42.11,181.4a2.79,2.79,0,0,1-3.72-.62l-.26-.34L21.24,158.58a5.38,5.38,0,0,1-.38-.57,4.94,4.94,0,0,1,4.28-7.39m0-2a6.94,6.94,0,0,0-6,10.38,7.36,7.36,0,0,0,.52.79l16.89,21.88.26.34a4.79,4.79,0,0,0,6.4,1.08l22-14.4,3.75-.59A2.76,2.76,0,0,0,70.74,167a3.07,3.07,0,0,0,.5-2.19,2.88,2.88,0,0,0-2.75-2.47h-.06l-4.53.22a2.79,2.79,0,0,0-1.08.31l-.15.1-20,9.31L31.17,152.11a7,7,0,0,0-6-3.49Z"/><path class="cls-1" d="M9.52,275a2,2,0,0,1-1.35-.54,9,9,0,0,0-4.34-2.36l-.21,0a3.05,3.05,0,0,1-2.1-1A2.64,2.64,0,0,1,1,269a8.42,8.42,0,0,1,.58-1.82c.09-.22.18-.44.26-.66l.87-2.4L14.4,231.45l-4.23-32.28a1,1,0,0,1,0-.34,7.69,7.69,0,0,1,.32-1.09,7.16,7.16,0,0,1,9.24-4.18A7.17,7.17,0,0,1,24,202.64l-.32,31a1,1,0,0,1-.06.32l-.13.39L7.89,268.19a14.74,14.74,0,0,1,2.27,2.26l.16.19c.58.7,1.93,2.34.65,3.71A2,2,0,0,1,9.52,275Z"/><path class="cls-2" d="M17.21,194.11A6.17,6.17,0,0,1,23,202.46l-.33,31.2-.13.39L6.65,268.49a14.48,14.48,0,0,1,2.73,2.58c.5.63,1.62,1.79.86,2.59a1,1,0,0,1-1.38,0A9.94,9.94,0,0,0,4,271.1a2.51,2.51,0,0,1-1.7-.68A1.65,1.65,0,0,1,2,269.14a13.88,13.88,0,0,1,.8-2.3l.86-2.4,2.07-5.8,2.53-7.09,2.62-7.34,2.33-6.54c.56-1.56,1.22-3.13,1.78-4.69.17-.47.61-.95.61-1.42h0l0-.39c0,.13-.14.25-.19.38L11.19,199a6.62,6.62,0,0,1,.26-.94,6.16,6.16,0,0,1,5.76-4m0-2a8.21,8.21,0,0,0-7.65,5.29,8.64,8.64,0,0,0-.36,1.24,2,2,0,0,0,0,.67l4.19,32-.34,1-.84,2.35L11.36,237l-.64,1.8L9,243.54,6.4,250.88,3.87,258l0,.1-2,5.7L1.4,264.9l-.46,1.27c-.07.2-.16.41-.24.62a9.21,9.21,0,0,0-.65,2,3.64,3.64,0,0,0,.67,2.83A4,4,0,0,0,3.45,273l.2,0a8,8,0,0,1,3.83,2.1A3,3,0,0,0,11.7,275c1.25-1.33,1-3-.61-5l-.15-.18a15.06,15.06,0,0,0-1.82-1.91l15.23-33,.07-.18.13-.39a2,2,0,0,0,.11-.64L25,202.81a8.17,8.17,0,0,0-7.77-10.7Z"/><path class="cls-3" d="M182.19,93.87a11.8,11.8,0,0,0-15.83-15,11.8,11.8,0,0,0-21.77.75,7.68,7.68,0,0,0-.35,1.1l0,.16c0,.2-.1.43-.15.68s-.09.49-.12.73c-.6,4.34-.07,13.72,10.86,26.24,0,0,17-1.47,24.86-10.71A11.76,11.76,0,0,0,182.19,93.87Z"/><path class="cls-3" d="M137.61,112.28A8.14,8.14,0,0,0,126.69,102a8.14,8.14,0,0,0-15,.52,5.3,5.3,0,0,0-.24.76l0,.11c0,.14-.07.3-.1.47s-.06.34-.08.51c-.41,3,0,9.47,7.49,18.1,0,0,11.76-1,17.15-7.39A8.11,8.11,0,0,0,137.61,112.28Z"/><path class="cls-3" d="M185.81,16.06A8.14,8.14,0,0,0,174.89,5.75a8.14,8.14,0,0,0-15,.52,5.3,5.3,0,0,0-.24.76l0,.11c0,.14-.07.3-.1.47s-.06.34-.08.51c-.41,3,0,9.47,7.49,18.1,0,0,11.76-1,17.15-7.39A8.11,8.11,0,0,0,185.81,16.06Z"/><path class="cls-3" d="M82.26,141.5a8.14,8.14,0,0,0-10.92-10.31,8.14,8.14,0,0,0-15,.52,5.3,5.3,0,0,0-.24.76l0,.11c0,.14-.07.3-.1.47s-.06.34-.08.51c-.41,3,0,9.47,7.49,18.1,0,0,11.76-1,17.15-7.39A8.11,8.11,0,0,0,82.26,141.5Z"/><path class="cls-3" d="M184.31,147.64a14.81,14.81,0,0,0-19.87-18.77,14.81,14.81,0,0,0-27.32.94,9.64,9.64,0,0,0-.44,1.38l0,.2c-.06.26-.12.54-.18.86s-.11.61-.15.92c-.75,5.45-.09,17.22,13.63,32.94,0,0,21.39-1.84,31.2-13.44A14.76,14.76,0,0,0,184.31,147.64Z"/><path class="cls-1" d="M139,204.59a6.19,6.19,0,0,1-.07-12.39h0a6.19,6.19,0,0,1,.15,12.39Z"/><path class="cls-2" d="M139,193.21a5.19,5.19,0,0,1,.06,10.39H139a5.19,5.19,0,0,1-.06-10.39H139m0-2h-.09a7.19,7.19,0,0,0-7.11,7.28,7.22,7.22,0,0,0,7.19,7.11h.09a7.19,7.19,0,0,0-.09-14.39Z"/><path class="cls-1" d="M93.74,205.14A6.21,6.21,0,0,1,87.55,199a6.19,6.19,0,0,1,6.12-6.27h0a6.19,6.19,0,0,1,.15,12.39Z"/><path class="cls-2" d="M93.75,193.75a5.19,5.19,0,0,1,.06,10.39h-.06a5.19,5.19,0,0,1-.06-10.39h.06m0-2h-.09a7.19,7.19,0,0,0,.09,14.39h.09a7.19,7.19,0,0,0-.09-14.39Z"/><path class="cls-1" d="M85,200a5.13,5.13,0,0,1-4.32-2c-2.62-3.42-1.4-10.61.08-16,1-3.84,4-6.68,6.93-9.44.56-.53,1.12-1.06,1.65-1.59A14.87,14.87,0,0,1,97,167h.13l23.94-.29c6.72,0,12.62,6.18,15.54,9.87a5.69,5.69,0,0,0,4.11,1.8h.17a37,37,0,0,1,8.56,1.46c6.29,1.62,6,6.63,5.92,7.47l.08,7.06a5.09,5.09,0,0,1-1.26,3.78,4.06,4.06,0,0,1-2.85,1.15h-.23l-3.42,0a1,1,0,0,1-1-1c0-.31-.3-7.57-7.6-7.57h-.14a7.08,7.08,0,0,0-5.22,2,8.93,8.93,0,0,0-2.13,5.75,1,1,0,0,1-1,1l-27.69.33a1,1,0,0,1-1-.93c0-.3-.66-7.31-8.1-7.31h-.15c-7.52.09-7.56,7.14-7.56,7.44a1,1,0,0,1-1,1Z"/><path class="cls-2" d="M121.07,167.68c6.87,0,13,7.29,14.76,9.49a6.71,6.71,0,0,0,4.9,2.18h.17a36.06,36.06,0,0,1,8.31,1.43c6,1.56,5.17,6.45,5.17,6.45l.09,7.12c0,3.65-2.4,3.92-3.12,3.92h-.2l-3.46,0s-.2-8.55-8.6-8.55h-.15c-8.55.1-8.34,8.75-8.34,8.75l-27.68.33s-.6-8.24-9.1-8.24h-.16C85,190.7,85.1,199,85.1,199H85c-7.43,0-4.44-12.48-3.28-16.75s5.1-7.39,8.32-10.58A13.91,13.91,0,0,1,97.14,168l23.81-.29h.12m0-2h-.14L97.11,166l-.26,0a16,16,0,0,0-8.2,4.31c-.53.53-1.08,1.05-1.64,1.58-3,2.85-6.08,5.79-7.2,9.9-2.24,8.2-2.21,13.89.09,16.9A6.16,6.16,0,0,0,85,201h.1a2,2,0,0,0,2-2c0-1.05.32-6.35,6.57-6.42h.14c6.56,0,7.09,6.12,7.1,6.38a2,2,0,0,0,2,1.85h0l27.68-.33a2,2,0,0,0,2-2,8,8,0,0,1,1.87-5.05,6.05,6.05,0,0,1,4.5-1.65h.13c6.27,0,6.59,5.92,6.6,6.59a2,2,0,0,0,2,2h0l3.37,0h.26a5.07,5.07,0,0,0,3.56-1.44,6,6,0,0,0,1.55-4.5l-.08-7c.32-2.39-.67-7-6.67-8.53a37.67,37.67,0,0,0-8.81-1.49h-.19a4.73,4.73,0,0,1-3.31-1.42c-3-3.83-9.18-10.25-16.32-10.25Z"/><path class="cls-1" d="M97.47,171.43a10.1,10.1,0,0,1,1.89-.19h.25l13.49-.16.09,7.54-15.63.19Z"/><path class="cls-2" d="M112.11,172.1l.07,5.54-13.63.16-.07-5.51c.39,0,.7,0,.88,0h.33l12.42-.15m2-2-14.42.17h-.3a10.69,10.69,0,0,0-2.9.41l.11,9.18,17.63-.21-.11-9.54Z"/><path class="cls-1" d="M94.14,173.24l0-.06.07,5.68-5.67.07Z"/><path class="cls-2" d="M93.22,175.61l0,2.25-2.25,0,2.23-2.28m1.95-4.46a5.25,5.25,0,0,0-1.74,1.38L86.19,180l9.08-.11-.1-8.69Z"/><path class="cls-1" d="M116.39,171l5-.06c1.54,0,2.41.08,5.32,1.84a26.32,26.32,0,0,1,5.68,5.56l-15.93.19Z"/><path class="cls-2" d="M121.43,172c1.33,0,2,0,4.79,1.7a20.31,20.31,0,0,1,4.08,3.73l-12.83.15-.07-5.54,3.34,0h.68m0-2h-.7l-5.34.06.11,9.54,18.93-.23s-3.83-5.37-7.16-7.39c-3-1.8-4-2-5.83-2Z"/><path class="cls-1" d="M139,200.72a2.32,2.32,0,1,1,1.66-.7,2.31,2.31,0,0,1-1.63.7Z"/><path class="cls-2" d="M139,197.08a1.32,1.32,0,0,1,0,2.65h0a1.32,1.32,0,0,1,0-2.65h0m0-2h0a3.32,3.32,0,0,0-3.28,3.36,3.32,3.32,0,0,0,5.7,2.28,3.3,3.3,0,0,0,.94-2.36,3.33,3.33,0,0,0-3.32-3.28Z"/><path class="cls-1" d="M93.74,201.27a2.33,2.33,0,0,1-2.32-2.3,2.32,2.32,0,0,1,2.3-2.35,2.34,2.34,0,0,1,2.35,2.3,2.32,2.32,0,0,1-2.3,2.35Z"/><path class="cls-2" d="M93.75,197.62a1.32,1.32,0,0,1,0,2.65h0a1.32,1.32,0,0,1,0-2.65h0m0-2h0a3.32,3.32,0,1,0,3.36,3.28,3.33,3.33,0,0,0-3.36-3.28Z"/></g></g></svg>