<svg xmlns="http://www.w3.org/2000/svg" viewBox="0 0 273.04 154.07"><defs><style>.cls-1,.cls-3{fill:#58595b;}.cls-1,.cls-2{stroke:#fff;stroke-linecap:round;stroke-linejoin:round;stroke-width:2px;}.cls-2{fill:#bf3019;}.cls-4,.cls-5{fill:#fff;}.cls-5{font-size:5.78px;font-family:MuseoSans-900, MuseoSans 900;}.cls-6{letter-spacing:0em;}.cls-7{letter-spacing:-0.08em;}.cls-8{letter-spacing:-0.01em;}.cls-9{fill:#ccc;}</style></defs><title>phone-to-phone</title><g id="Layer_2" data-name="Layer 2"><g id="Layer_1-2" data-name="Layer 1"><path class="cls-1" d="M76.05,1h-64A11.07,11.07,0,0,0,1,12.08V142a11.07,11.07,0,0,0,11.06,11.07h64A11.08,11.08,0,0,0,87.12,142V12.08A11.08,11.08,0,0,0,76.05,1Z"/><rect class="cls-1" x="9.3" y="19.69" width="69.53" height="104.52"/><polygon class="cls-2" points="58.89 12.24 29.23 12.24 29.23 9.01 58.9 9.01 58.9 12.24 58.89 12.24"/><rect class="cls-1" x="30.55" y="132.95" width="27.02" height="8.31"/><path class="cls-1" d="M187.24,66.08h-16a33.52,33.52,0,0,0-66.83,0h-16v5.47h16a33.52,33.52,0,0,0,66.83,0h16Z"/><path class="cls-2" d="M153,67.87a8.14,8.14,0,0,0-13.9-5.7A8.14,8.14,0,0,0,125.3,68a5.3,5.3,0,0,0,0,.8V69c0,.14,0,.3.08.48s.07.34.11.5c.69,2.94,3.36,8.85,13.5,14.2,0,0,10.61-5.17,13.35-13.06A8.11,8.11,0,0,0,153,67.87Z"/><rect class="cls-1" x="17.5" y="29.73" width="54.09" height="50.85"/><path class="cls-3" d="M56.67,66.38a3.44,3.44,0,0,1-2.46-5.84,3.41,3.41,0,0,1,2.42-1,3.46,3.46,0,0,1,3.48,3.39,3.44,3.44,0,0,1-3.4,3.48Z"/><path class="cls-4" d="M56.67,60.51a2.44,2.44,0,0,1,0,4.87h0a2.44,2.44,0,0,1,0-4.87h0m0-2h-.05a4.44,4.44,0,0,0,.05,8.87h.05a4.44,4.44,0,0,0,4.38-4.49,4.45,4.45,0,0,0-4.44-4.38Z"/><path class="cls-3" d="M35.42,66.64a3.44,3.44,0,1,1,2.46-1,3.41,3.41,0,0,1-2.42,1Z"/><path class="cls-4" d="M35.42,60.76a2.44,2.44,0,0,1,0,4.87h0a2.44,2.44,0,0,1,0-4.87h0m0-2h-.05A4.44,4.44,0,0,0,31,63.26a4.45,4.45,0,0,0,4.44,4.38h.05a4.44,4.44,0,0,0-.05-8.87Z"/><path class="cls-3" d="M31.32,64.25a2.93,2.93,0,0,1-2.45-1.14c-1.09-1.43-1.11-4.11-.05-8,.53-1.94,2.05-3.39,3.4-4.67l.77-.74a7.56,7.56,0,0,1,3.88-2H37l11.17-.13c3.44,0,6.34,3,7.77,4.83a2.17,2.17,0,0,0,1.52.64h0a17.55,17.55,0,0,1,4.21.7c2.85.74,3.33,2.92,3.18,4.06l0,3.26a2.89,2.89,0,0,1-.75,2.15,2.44,2.44,0,0,1-1.72.7h-.1l-1.61,0a1,1,0,0,1-1-1,3,3,0,0,0-3-3,2.62,2.62,0,0,0-2.6,1.44A4.09,4.09,0,0,0,53.71,63a1,1,0,0,1-1,1l-13,.16a1,1,0,0,1-1-.93,3.14,3.14,0,0,0-3.27-2.94,2.85,2.85,0,0,0-3.09,3,1,1,0,0,1-1,1Z"/><path class="cls-4" d="M48.24,48.53c3.23,0,6.1,3.42,6.92,4.45a3.15,3.15,0,0,0,2.3,1h.08a16.91,16.91,0,0,1,3.9.67c2.83.73,2.42,3,2.42,3l0,3.34c0,1.71-1.13,1.84-1.46,1.84h-.09l-1.62,0s-.09-4-4-4h-.07c-4,0-3.91,4.11-3.91,4.11l-13,.16a4.17,4.17,0,0,0-4.27-3.86h-.08a3.88,3.88,0,0,0-4,4h0c-3.49,0-2.08-5.86-1.54-7.86s2.39-3.47,3.9-5A6.53,6.53,0,0,1,37,48.66l11.17-.13h.05m0-2h-.08L37,46.66l-.26,0A8.49,8.49,0,0,0,32.28,49l-.75.73c-1.44,1.37-3.07,2.92-3.67,5.13-1.16,4.24-1.08,7.14.22,8.85a4,4,0,0,0,3.24,1.54h.06a2,2,0,0,0,2-2,1.82,1.82,0,0,1,2-1.94h.05a2.09,2.09,0,0,1,2.28,2,2,2,0,0,0,2,1.83h0l13-.16a2,2,0,0,0,2-2,1.82,1.82,0,0,1,1.94-2.06h0A2,2,0,0,1,58.73,63a2,2,0,0,0,2,1.93h0l1.55,0h.14a3.42,3.42,0,0,0,2.43-1,3.86,3.86,0,0,0,1-2.87l0-3.2a4.79,4.79,0,0,0-3.93-5.09,18.69,18.69,0,0,0-4.4-.73h-.1a1.18,1.18,0,0,1-.71-.26c-1.54-1.95-4.69-5.21-8.49-5.21Z"/><path class="cls-3" d="M37.7,50.75l.35,0h.15L44,50.67l0,2.48-6.27.08Z"/><path class="cls-4" d="M43,51.68v.48l-4.27.05v-.48L43,51.68m2-2-6.77.08h-.14a5,5,0,0,0-1.36.19l.05,4.31,8.27-.1L45,49.65Z"/><polygon class="cls-3" points="35.11 52.4 35.12 53.25 34.27 53.26 35.11 52.4"/><path class="cls-4" d="M36.09,50.16a2.46,2.46,0,0,0-.82.65l-3.4,3.48,4.26-.05,0-4.08Z"/><path class="cls-3" d="M46.58,50.64l1.82,0c.61,0,.92,0,2.22.79A9.12,9.12,0,0,1,52.44,53l-5.82.07Z"/><path class="cls-4" d="M48.41,51.61a2.15,2.15,0,0,1,1.39.46l-2.2,0v-.48h.81m0-2h-.33l-2.51,0,.05,4.48L54.51,54a15.65,15.65,0,0,0-3.36-3.47,4.4,4.4,0,0,0-2.74-.93Z"/><path class="cls-3" d="M56.67,64.57a1.62,1.62,0,1,1,1.16-.49,1.63,1.63,0,0,1-1.16.49Z"/><path class="cls-4" d="M56.67,62.32a.62.62,0,0,1,0,1.24h0a.62.62,0,0,1,0-1.24h0m0-2h0a2.62,2.62,0,1,0,2.65,2.59,2.62,2.62,0,0,0-2.65-2.59Z"/><path class="cls-3" d="M35.42,64.82A1.62,1.62,0,1,1,37,63.18a1.62,1.62,0,0,1-1.6,1.64Z"/><path class="cls-4" d="M35.42,62.58a.62.62,0,0,1,0,1.24h0a.62.62,0,0,1,0-1.24h0m0-2h0a2.62,2.62,0,0,0-2.59,2.65,2.62,2.62,0,1,0,2.62-2.65Z"/><rect class="cls-1" x="17.5" y="85.73" width="12.75" height="12.75"/><text class="cls-5" transform="translate(34.08 91.47)"><tspan class="cls-6">C</tspan><tspan x="3.38" y="0">AR</tspan><tspan class="cls-7" x="10.02" y="0">F</tspan><tspan class="cls-8" x="12.39" y="0">A</tspan><tspan x="15.84" y="0">X</tspan></text><rect class="cls-9" x="18.22" y="103.27" width="4.33" height="1.24"/><rect class="cls-9" x="23.42" y="103.29" width="1.14" height="1.29"/><rect class="cls-9" x="25.42" y="103.29" width="1.14" height="1.29"/><rect class="cls-9" x="27.42" y="103.29" width="1.14" height="1.29"/><rect class="cls-9" x="29.77" y="103.27" width="10.21" height="1.24"/><rect class="cls-9" x="40.84" y="103.29" width="1.14" height="1.29"/><rect class="cls-9" x="42.85" y="103.29" width="1.14" height="1.29"/><rect class="cls-9" x="44.85" y="103.29" width="1.14" height="1.29"/><rect class="cls-9" x="47.2" y="103.27" width="10.21" height="1.24"/><rect class="cls-9" x="58.27" y="103.29" width="1.14" height="1.29"/><rect class="cls-9" x="60.27" y="103.29" width="1.14" height="1.29"/><rect class="cls-9" x="62.27" y="103.29" width="1.14" height="1.29"/><rect class="cls-9" x="64.24" y="103.27" width="2.19" height="1.24"/><rect class="cls-9" x="67.02" y="103.29" width="1.14" height="1.29"/><rect class="cls-9" x="69.02" y="103.29" width="1.14" height="1.29"/><rect class="cls-9" x="71.03" y="103.29" width="1.14" height="1.29"/><rect class="cls-9" x="67.83" y="106.66" width="4.33" height="1.24"/><rect class="cls-9" x="65.83" y="106.58" width="1.14" height="1.29" transform="translate(132.79 214.45) rotate(180)"/><rect class="cls-9" x="63.83" y="106.58" width="1.14" height="1.29" transform="translate(128.79 214.45) rotate(180)"/><rect class="cls-9" x="61.82" y="106.58" width="1.14" height="1.29" transform="translate(124.79 214.45) rotate(180)"/><rect class="cls-9" x="50.41" y="106.66" width="10.21" height="1.24"/><rect class="cls-9" x="48.4" y="106.58" width="1.14" height="1.29" transform="translate(97.94 214.45) rotate(180)"/><rect class="cls-9" x="46.4" y="106.58" width="1.14" height="1.29" transform="translate(93.93 214.45) rotate(180)"/><rect class="cls-9" x="44.4" y="106.58" width="1.14" height="1.29" transform="translate(89.93 214.45) rotate(180)"/><rect class="cls-9" x="32.98" y="106.66" width="10.21" height="1.24"/><rect class="cls-9" x="30.97" y="106.58" width="1.14" height="1.29" transform="translate(63.08 214.45) rotate(180)"/><rect class="cls-9" x="28.97" y="106.58" width="1.14" height="1.29" transform="translate(59.08 214.45) rotate(180)"/><rect class="cls-9" x="26.97" y="106.58" width="1.14" height="1.29" transform="translate(55.08 214.45) rotate(180)"/><rect class="cls-9" x="23.95" y="106.66" width="2.19" height="1.24"/><rect class="cls-9" x="22.22" y="106.58" width="1.14" height="1.29" transform="translate(45.58 214.45) rotate(180)"/><rect class="cls-9" x="20.22" y="106.58" width="1.14" height="1.29" transform="translate(41.58 214.45) rotate(180)"/><rect class="cls-9" x="18.22" y="106.58" width="1.14" height="1.29" transform="translate(37.57 214.45) rotate(180)"/><rect class="cls-9" x="18.22" y="110.32" width="4.33" height="1.24"/><rect class="cls-9" x="23.42" y="110.35" width="1.14" height="1.29"/><rect class="cls-9" x="25.42" y="110.35" width="1.14" height="1.29"/><rect class="cls-9" x="27.42" y="110.35" width="1.14" height="1.29"/><rect class="cls-9" x="29.77" y="110.32" width="10.21" height="1.24"/><rect class="cls-9" x="40.84" y="110.35" width="1.14" height="1.29"/><rect class="cls-9" x="42.85" y="110.35" width="1.14" height="1.29"/><rect class="cls-9" x="44.85" y="110.35" width="1.14" height="1.29"/><rect class="cls-9" x="47.2" y="110.32" width="10.21" height="1.24"/><rect class="cls-9" x="58.27" y="110.35" width="1.14" height="1.29"/><rect class="cls-9" x="60.27" y="110.35" width="1.14" height="1.29"/><rect class="cls-9" x="62.27" y="110.35" width="1.14" height="1.29"/><rect class="cls-9" x="64.24" y="110.32" width="2.19" height="1.24"/><rect class="cls-9" x="67.02" y="110.35" width="1.14" height="1.29"/><rect class="cls-9" x="69.02" y="110.35" width="1.14" height="1.29"/><rect class="cls-9" x="71.03" y="110.35" width="1.14" height="1.29"/><rect class="cls-9" x="67.83" y="113.72" width="4.33" height="1.24"/><rect class="cls-9" x="65.83" y="113.64" width="1.14" height="1.29" transform="translate(132.79 228.57) rotate(180)"/><rect class="cls-9" x="63.83" y="113.64" width="1.14" height="1.29" transform="translate(128.79 228.57) rotate(180)"/><rect class="cls-9" x="61.82" y="113.64" width="1.14" height="1.29" transform="translate(124.79 228.57) rotate(180)"/><rect class="cls-9" x="50.41" y="113.72" width="10.21" height="1.24"/><rect class="cls-9" x="48.4" y="113.64" width="1.14" height="1.29" transform="translate(97.94 228.57) rotate(180)"/><rect class="cls-9" x="46.4" y="113.64" width="1.14" height="1.29" transform="translate(93.93 228.57) rotate(180)"/><rect class="cls-9" x="44.4" y="113.64" width="1.14" height="1.29" transform="translate(89.93 228.57) rotate(180)"/><rect class="cls-9" x="32.98" y="113.72" width="10.21" height="1.24"/><rect class="cls-9" x="30.97" y="113.64" width="1.14" height="1.29" transform="translate(63.08 228.57) rotate(180)"/><rect class="cls-9" x="28.97" y="113.64" width="1.14" height="1.29" transform="translate(59.08 228.57) rotate(180)"/><rect class="cls-9" x="26.97" y="113.64" width="1.14" height="1.29" transform="translate(55.08 228.57) rotate(180)"/><rect class="cls-9" x="23.95" y="113.72" width="2.19" height="1.24"/><rect class="cls-9" x="22.22" y="113.64" width="1.14" height="1.29" transform="translate(45.58 228.57) rotate(180)"/><rect class="cls-9" x="20.22" y="113.64" width="1.14" height="1.29" transform="translate(41.58 228.57) rotate(180)"/><rect class="cls-9" x="18.22" y="113.64" width="1.14" height="1.29" transform="translate(37.57 228.57) rotate(180)"/><path class="cls-1" d="M261,1H197a11.07,11.07,0,0,0-11.06,11.08V142A11.07,11.07,0,0,0,197,153.07h64A11.08,11.08,0,0,0,272,142V12.08A11.08,11.08,0,0,0,261,1Z"/><rect class="cls-1" x="194.22" y="19.69" width="69.53" height="104.52"/><polygon class="cls-1" points="243.81 12.24 214.15 12.24 214.15 9.01 243.82 9.01 243.82 12.24 243.81 12.24"/><rect class="cls-1" x="215.47" y="132.95" width="27.02" height="8.31"/><rect class="cls-1" x="202.42" y="29.73" width="54.09" height="50.85"/><path class="cls-3" d="M241.59,66.38A3.45,3.45,0,0,1,238.15,63a3.44,3.44,0,0,1,3.4-3.48A3.46,3.46,0,0,1,245,62.9a3.44,3.44,0,0,1-3.4,3.48Z"/><path class="cls-4" d="M241.59,60.51a2.44,2.44,0,0,1,0,4.87h0a2.44,2.44,0,0,1,0-4.87h0m0-2h-.05a4.44,4.44,0,0,0,.05,8.87h.05A4.44,4.44,0,0,0,246,62.89a4.45,4.45,0,0,0-4.44-4.38Z"/><path class="cls-3" d="M220.34,66.64a3.44,3.44,0,1,1,2.46-1,3.45,3.45,0,0,1-2.46,1Z"/><path class="cls-4" d="M220.34,60.76a2.44,2.44,0,0,1,0,4.87h0a2.44,2.44,0,0,1,0-4.87h0m0-2h-.05a4.44,4.44,0,0,0,.05,8.87h.05a4.44,4.44,0,0,0-.05-8.87Z"/><path class="cls-3" d="M216.24,64.25a2.94,2.94,0,0,1-2.45-1.14c-1.09-1.43-1.11-4.11-.05-8,.53-1.94,2.05-3.4,3.4-4.67l.77-.74a7.56,7.56,0,0,1,3.88-2h.13l11.17-.13c3.44,0,6.34,3,7.77,4.83a2.17,2.17,0,0,0,1.52.64h0a17.55,17.55,0,0,1,4.21.7c2.85.74,3.33,2.92,3.17,4.06l0,3.26a2.89,2.89,0,0,1-.75,2.15,2.44,2.44,0,0,1-1.71.7h-.1l-1.61,0a1,1,0,0,1-1-1,3,3,0,0,0-3-3,2.83,2.83,0,0,0-2.13.77,3.67,3.67,0,0,0-.85,2.32,1,1,0,0,1-1,1l-13,.16a1,1,0,0,1-1-.93,3.14,3.14,0,0,0-3.27-2.94,2.85,2.85,0,0,0-3.09,3,1,1,0,0,1-1,1Z"/><path class="cls-4" d="M233.16,48.53c3.23,0,6.1,3.42,6.92,4.45a3.15,3.15,0,0,0,2.3,1h.08a16.91,16.91,0,0,1,3.9.67c2.83.73,2.42,3,2.42,3l0,3.34c0,1.71-1.13,1.84-1.46,1.84h-.09l-1.62,0s-.09-4-4-4h-.07c-4,0-3.91,4.11-3.91,4.11l-13,.16a4.17,4.17,0,0,0-4.27-3.86h-.08a3.88,3.88,0,0,0-4,4h0c-3.49,0-2.08-5.86-1.54-7.86s2.39-3.47,3.9-5a6.53,6.53,0,0,1,3.32-1.76l11.17-.13h.05m0-2h-.08l-11.17.13-.26,0A8.49,8.49,0,0,0,217.2,49l-.75.73c-1.44,1.37-3.07,2.92-3.67,5.13-1.16,4.24-1.08,7.14.22,8.85a4,4,0,0,0,3.24,1.53h.06a2,2,0,0,0,2-2,1.82,1.82,0,0,1,2-1.94h.05a2.09,2.09,0,0,1,2.28,2,2,2,0,0,0,2,1.83h0l13-.16a2,2,0,0,0,2-2,1.82,1.82,0,0,1,1.94-2.06h0A2,2,0,0,1,243.65,63a2,2,0,0,0,2,1.93h0l1.55,0h.14a3.42,3.42,0,0,0,2.43-1,3.86,3.86,0,0,0,1-2.87l0-3.2a4.79,4.79,0,0,0-3.93-5.09,18.69,18.69,0,0,0-4.4-.73h-.1a1.18,1.18,0,0,1-.71-.26c-1.54-1.95-4.69-5.21-8.49-5.21Z"/><path class="cls-3" d="M222.62,50.75l.35,0h.15l5.77-.07,0,2.48-6.27.08Z"/><path class="cls-4" d="M227.91,51.68v.48l-4.27.05v-.48l4.27-.05m2-2-6.77.08H223a5,5,0,0,0-1.36.19l.05,4.31,8.27-.1-.05-4.48Z"/><polygon class="cls-3" points="220.03 52.4 220.04 53.25 219.19 53.26 220.03 52.4"/><path class="cls-4" d="M221,50.16a2.46,2.46,0,0,0-.82.65l-3.4,3.48,4.26-.05,0-4.08Z"/><path class="cls-3" d="M231.5,50.64l1.82,0c.61,0,.92,0,2.22.79A9.08,9.08,0,0,1,237.36,53l-5.82.07Z"/><path class="cls-4" d="M233.33,51.61a2.15,2.15,0,0,1,1.39.46l-2.2,0v-.48h.81m0-2H233l-2.51,0,.05,4.48,8.88-.11a15.65,15.65,0,0,0-3.36-3.47,4.4,4.4,0,0,0-2.74-.93Z"/><path class="cls-3" d="M241.59,64.57A1.63,1.63,0,0,1,240,63a1.62,1.62,0,0,1,1.6-1.64,1.63,1.63,0,0,1,1.64,1.6,1.62,1.62,0,0,1-1.6,1.64Z"/><path class="cls-4" d="M241.59,62.32a.62.62,0,0,1,0,1.24h0a.62.62,0,0,1,0-1.24h0m0-2h0A2.62,2.62,0,0,0,239,63a2.62,2.62,0,0,0,4.5,1.8,2.6,2.6,0,0,0,.75-1.86,2.63,2.63,0,0,0-2.62-2.59Z"/><path class="cls-3" d="M220.34,64.82a1.63,1.63,0,0,1-1.62-1.6,1.62,1.62,0,0,1,1.6-1.64,1.62,1.62,0,0,1,1.18,2.75,1.61,1.61,0,0,1-1.14.49Z"/><path class="cls-4" d="M220.34,62.58a.62.62,0,0,1,0,1.24h0a.62.62,0,0,1,0-1.24h0m0-2h0A2.62,2.62,0,1,0,223,63.17a2.62,2.62,0,0,0-2.65-2.59Z"/><rect class="cls-1" x="202.42" y="85.73" width="12.75" height="12.75"/><text class="cls-5" transform="translate(219 91.47)"><tspan class="cls-6">C</tspan><tspan x="3.38" y="0">AR</tspan><tspan class="cls-7" x="10.02" y="0">F</tspan><tspan class="cls-8" x="12.39" y="0">A</tspan><tspan x="15.84" y="0">X</tspan></text><rect class="cls-9" x="203.14" y="103.27" width="4.33" height="1.24"/><rect class="cls-9" x="208.34" y="103.29" width="1.14" height="1.29"/><rect class="cls-9" x="210.34" y="103.29" width="1.14" height="1.29"/><rect class="cls-9" x="212.34" y="103.29" width="1.14" height="1.29"/><rect class="cls-9" x="214.69" y="103.27" width="10.21" height="1.24"/><rect class="cls-9" x="225.76" y="103.29" width="1.14" height="1.29"/><rect class="cls-9" x="227.76" y="103.29" width="1.14" height="1.29"/><rect class="cls-9" x="229.77" y="103.29" width="1.14" height="1.29"/><rect class="cls-9" x="232.12" y="103.27" width="10.21" height="1.24"/><rect class="cls-9" x="243.19" y="103.29" width="1.14" height="1.29"/><rect class="cls-9" x="245.19" y="103.29" width="1.14" height="1.29"/><rect class="cls-9" x="247.19" y="103.29" width="1.14" height="1.29"/><rect class="cls-9" x="249.16" y="103.27" width="2.19" height="1.24"/><rect class="cls-9" x="251.94" y="103.29" width="1.14" height="1.29"/><rect class="cls-9" x="253.94" y="103.29" width="1.14" height="1.29"/><rect class="cls-9" x="255.95" y="103.29" width="1.14" height="1.29"/><rect class="cls-9" x="252.75" y="106.66" width="4.33" height="1.24"/><rect class="cls-9" x="250.75" y="106.58" width="1.14" height="1.29" transform="translate(502.63 214.45) rotate(180)"/><rect class="cls-9" x="248.75" y="106.58" width="1.14" height="1.29" transform="translate(498.63 214.45) rotate(180)"/><rect class="cls-9" x="246.74" y="106.58" width="1.14" height="1.29" transform="translate(494.63 214.45) rotate(180)"/><rect class="cls-9" x="235.33" y="106.66" width="10.21" height="1.24"/><rect class="cls-9" x="233.32" y="106.58" width="1.14" height="1.29" transform="translate(467.78 214.45) rotate(180)"/><rect class="cls-9" x="231.32" y="106.58" width="1.14" height="1.29" transform="translate(463.77 214.45) rotate(180)"/><rect class="cls-9" x="229.32" y="106.58" width="1.14" height="1.29" transform="translate(459.77 214.45) rotate(180)"/><rect class="cls-9" x="217.9" y="106.66" width="10.21" height="1.24"/><rect class="cls-9" x="215.89" y="106.58" width="1.14" height="1.29" transform="translate(432.92 214.45) rotate(180)"/><rect class="cls-9" x="213.89" y="106.58" width="1.14" height="1.29" transform="translate(428.92 214.45) rotate(180)"/><rect class="cls-9" x="211.89" y="106.58" width="1.14" height="1.29" transform="translate(424.92 214.45) rotate(180)"/><rect class="cls-9" x="208.87" y="106.66" width="2.19" height="1.24"/><rect class="cls-9" x="207.14" y="106.58" width="1.14" height="1.29" transform="translate(415.42 214.45) rotate(180)"/><rect class="cls-9" x="205.14" y="106.58" width="1.14" height="1.29" transform="translate(411.42 214.45) rotate(180)"/><rect class="cls-9" x="203.14" y="106.58" width="1.14" height="1.29" transform="translate(407.41 214.45) rotate(180)"/><rect class="cls-9" x="203.14" y="110.32" width="4.33" height="1.24"/><rect class="cls-9" x="208.34" y="110.35" width="1.14" height="1.29"/><rect class="cls-9" x="210.34" y="110.35" width="1.14" height="1.29"/><rect class="cls-9" x="212.34" y="110.35" width="1.14" height="1.29"/><rect class="cls-9" x="214.69" y="110.32" width="10.21" height="1.24"/><rect class="cls-9" x="225.76" y="110.35" width="1.14" height="1.29"/><rect class="cls-9" x="227.76" y="110.35" width="1.14" height="1.29"/><rect class="cls-9" x="229.77" y="110.35" width="1.14" height="1.29"/><rect class="cls-9" x="232.12" y="110.32" width="10.21" height="1.24"/><rect class="cls-9" x="243.19" y="110.35" width="1.14" height="1.29"/><rect class="cls-9" x="245.19" y="110.35" width="1.14" height="1.29"/><rect class="cls-9" x="247.19" y="110.35" width="1.14" height="1.29"/><rect class="cls-9" x="249.16" y="110.32" width="2.19" height="1.24"/><rect class="cls-9" x="251.94" y="110.35" width="1.14" height="1.29"/><rect class="cls-9" x="253.94" y="110.35" width="1.14" height="1.29"/><rect class="cls-9" x="255.95" y="110.35" width="1.14" height="1.29"/><rect class="cls-9" x="252.75" y="113.72" width="4.33" height="1.24"/><rect class="cls-9" x="250.75" y="113.64" width="1.14" height="1.29" transform="translate(502.63 228.57) rotate(180)"/><rect class="cls-9" x="248.75" y="113.64" width="1.14" height="1.29" transform="translate(498.63 228.57) rotate(180)"/><rect class="cls-9" x="246.74" y="113.64" width="1.14" height="1.29" transform="translate(494.63 228.57) rotate(180)"/><rect class="cls-9" x="235.33" y="113.72" width="10.21" height="1.24"/><rect class="cls-9" x="233.32" y="113.64" width="1.14" height="1.29" transform="translate(467.78 228.57) rotate(180)"/><rect class="cls-9" x="231.32" y="113.64" width="1.14" height="1.29" transform="translate(463.77 228.57) rotate(180)"/><rect class="cls-9" x="229.32" y="113.64" width="1.14" height="1.29" transform="translate(459.77 228.57) rotate(180)"/><rect class="cls-9" x="217.9" y="113.72" width="10.21" height="1.24"/><rect class="cls-9" x="215.89" y="113.64" width="1.14" height="1.29" transform="translate(432.92 228.57) rotate(180)"/><rect class="cls-9" x="213.89" y="113.64" width="1.14" height="1.29" transform="translate(428.92 228.57) rotate(180)"/><rect class="cls-9" x="211.89" y="113.64" width="1.14" height="1.29" transform="translate(424.92 228.57) rotate(180)"/><rect class="cls-9" x="208.87" y="113.72" width="2.19" height="1.24"/><rect class="cls-9" x="207.14" y="113.64" width="1.14" height="1.29" transform="translate(415.42 228.57) rotate(180)"/><rect class="cls-9" x="205.14" y="113.64" width="1.14" height="1.29" transform="translate(411.42 228.57) rotate(180)"/><rect class="cls-9" x="203.14" y="113.64" width="1.14" height="1.29" transform="translate(407.41 228.57) rotate(180)"/></g></g></svg>