<svg xmlns="http://www.w3.org/2000/svg" xmlns:xlink="http://www.w3.org/1999/xlink" viewBox="0 0 485 70"><defs><style>.cls-1{isolation:isolate;}.cls-2,.cls-7{fill:#ffb600;}.cls-3{mix-blend-mode:multiply;fill:url(#Degradado_sin_nombre_199);}.cls-4{font-size:30.83px;fill:#fff;font-family:MuseoSans-900, MuseoSans 900;}.cls-5{letter-spacing:0em;}.cls-6{letter-spacing:-0.04em;}.cls-10,.cls-7,.cls-8,.cls-9{stroke:#fff;stroke-linecap:round;stroke-linejoin:round;stroke-width:2px;}.cls-10,.cls-8{fill:#64c202;}.cls-9{fill:none;}.cls-10{stroke-dasharray:3 6;}</style><linearGradient id="Degradado_sin_nombre_199" x1="6.07" y1="35" x2="420" y2="35" gradientUnits="userSpaceOnUse"><stop offset="0" stop-color="#ffb600"/><stop offset="0.07" stop-color="#ffb600" stop-opacity="0.82"/><stop offset="0.16" stop-color="#ffb600" stop-opacity="0.63"/><stop offset="0.26" stop-color="#ffb600" stop-opacity="0.46"/><stop offset="0.36" stop-color="#ffb600" stop-opacity="0.32"/><stop offset="0.46" stop-color="#ffb600" stop-opacity="0.2"/><stop offset="0.57" stop-color="#ffb600" stop-opacity="0.11"/><stop offset="0.69" stop-color="#ffb600" stop-opacity="0.05"/><stop offset="0.82" stop-color="#ffb600" stop-opacity="0.01"/><stop offset="1" stop-color="#ffb600" stop-opacity="0"/></linearGradient></defs><title>pro-tips</title><g class="cls-1"><g id="Layer_2" data-name="Layer 2"><g id="Layer_1-2" data-name="Layer 1"><path class="cls-2" d="M0,0H450a35,35,0,0,1,35,35v0a35,35,0,0,1-35,35H0a0,0,0,0,1,0,0V0A0,0,0,0,1,0,0Z"/><polygon class="cls-3" points="70.49 70 6.07 0 420 0 420 69.94 70.49 70"/><text class="cls-4" transform="translate(165 45)">P<tspan class="cls-5" x="16.4" y="0">R</tspan><tspan x="33.08" y="0">O</tspan><tspan class="cls-6" x="54.32" y="0"> </tspan><tspan x="59.59" y="0">TIPS</tspan></text><rect class="cls-7" x="122.41" y="39.49" width="12.28" height="15.11"/><path class="cls-7" d="M124.86,54.6h7.39v1.19a3.66,3.66,0,0,1-3.66,3.66h-.07a3.66,3.66,0,0,1-3.66-3.66Z"/><circle class="cls-7" cx="128.55" cy="31.94" r="14.05"/><line class="cls-8" x1="122.41" y1="48.3" x2="134.69" y2="48.3"/><line class="cls-8" x1="122.41" y1="51.26" x2="134.69" y2="51.26"/><polyline class="cls-9" points="128.55 45.99 128.55 40.84 123.34 33.61"/><line class="cls-8" x1="128.55" y1="40.84" x2="133.76" y2="33.61"/><polyline class="cls-9" points="125.02 35.95 126.99 33.61 128.55 35.95 130.22 33.61 132.24 35.72"/><line class="cls-10" x1="114.42" y1="17.9" x2="105.96" y2="10.9"/><line class="cls-10" x1="142.49" y1="17.9" x2="150.95" y2="10.9"/><line class="cls-10" x1="128.55" y1="13.51" x2="128.55" y2="4.58"/></g></g></g></svg>