<svg xmlns="http://www.w3.org/2000/svg" viewBox="0 0 437.23 233.34"><defs><style>.cls-1,.cls-5{fill:#fff;}.cls-2{font-size:28px;fill:#0066ae;}.cls-2,.cls-5{font-family:ArialMT, Arial;}.cls-3{fill:#ffb600;}.cls-4,.cls-6,.cls-7{fill:none;stroke-miterlimit:10;}.cls-4,.cls-7{stroke:#fff;}.cls-4{stroke-width:4px;}.cls-5{font-size:40.63px;}.cls-6{stroke:#ffb600;stroke-width:2px;}.cls-7{stroke-width:5px;}</style></defs><title>shares</title><g id="Layer_2" data-name="Layer 2"><g id="Layer_1-2" data-name="Layer 1"><rect class="cls-1" x="4.5" y="20" width="330" height="50"/><text class="cls-2" transform="translate(27.76 53.96)">SHARES/RETWEETS</text><path class="cls-3" d="M374.5,223.48h14.34c12.25,0,15.54-8.07,15.54-30.77v-26.9c0-40,17-46,20.91-49.89-3.88-2.39-20.91-8.36-20.91-48.4V40.63c0-22.7-3.29-30.77-15.54-30.77H374.5V0h14.94c16.73,0,26.29,8.07,26.29,35.25v27.5c0,24.2,3.88,47.5,21.51,48.4V122.5c-17.63.9-21.51,24.2-21.51,48.4v27.2c0,27.19-9.56,35.25-26.29,35.25H374.5Z"/><path class="cls-4" d="M11,104.1a9,9,0,0,0-9,9v37.36a9,9,0,0,0,9,9H51a16.08,16.08,0,0,1,13.06,8l11.41,22.57c2.23,4.42,5.65,4.31,7.6-.24l9.45-22.09A14.82,14.82,0,0,1,105,159.46h43a9,9,0,0,0,9-9V113.1a9,9,0,0,0-9-9Z"/><text class="cls-5" transform="translate(20.98 144.67)">120</text><path class="cls-4" d="M188.5,104.1a9,9,0,0,0-9,9v37.36a9,9,0,0,0,9,9h40a16.08,16.08,0,0,1,13.06,8l11.41,22.57c2.23,4.42,5.65,4.31,7.6-.24L270,167.74a14.82,14.82,0,0,1,12.54-8.27h43a9,9,0,0,0,9-9V113.1a9,9,0,0,0-9-9Z"/><text class="cls-5" transform="translate(215.78 144.67)">87</text><path class="cls-6" d="M274.5,144.67c-.35.14,6.17-10.35,7.5-16.68s9.5-11.33,16.33-10a11.48,11.48,0,0,1,8.67,7.33l7.5,1.83-6.83,4.06s.5,9.63,4.17,13.45c0,0-8,3.32-12.67-1.18,0,0-4.17,4.52-7.17,1.18C292,144.67,286.33,139.84,274.5,144.67Z"/><circle class="cls-3" cx="300.5" cy="126.99" r="1.17"/><line class="cls-7" x1="113.94" y1="139.07" x2="136.47" y2="139.07"/><polygon class="cls-1" points="126.51 147.55 134.99 139.07 126.51 130.59 133.71 130.59 142.19 139.07 133.71 147.55 126.51 147.55"/><line class="cls-7" x1="128.31" y1="123.32" x2="105.78" y2="123.32"/><polygon class="cls-1" points="115.74 114.84 107.25 123.32 115.74 131.8 108.54 131.8 100.06 123.32 108.54 114.84 115.74 114.84"/></g></g></svg>