<svg xmlns="http://www.w3.org/2000/svg" viewBox="0 0 642.04 320.06"><defs><style>.cls-1{fill:none;}.cls-1,.cls-4,.cls-5{stroke:#0080b1;stroke-width:2px;}.cls-1,.cls-5{stroke-miterlimit:10;}.cls-2{fill:#ccc;}.cls-3{font-size:24px;fill:#58595b;font-family:ArialMT, Arial;}.cls-4,.cls-5,.cls-6{fill:#fff;}.cls-4{stroke-linecap:round;stroke-linejoin:round;}.cls-7{fill:#0080b1;}</style></defs><title>social-media</title><g id="Layer_2" data-name="Layer 2"><g id="Layer_1-2" data-name="Layer 1"><path class="cls-1" d="M266.76,168.23h17.78a6,6,0,0,1,6,6V208a6,6,0,0,0,6,6h56a6,6,0,0,1,6,6v10.84a6,6,0,0,0,6,6h16.4a6,6,0,0,1,6,6V254.2a6,6,0,0,0,6,6h135"/><path class="cls-1" d="M527.94,174.14H460.71a6,6,0,0,0-6,6v85.68a6,6,0,0,1-6,6H289a6,6,0,0,1-6-6V217.92a6,6,0,0,0-6-6H266.76"/><rect class="cls-2" x="0.02" width="2.02" height="18.26"/><rect class="cls-2" x="8.15" y="-8.12" width="2.02" height="18.26" transform="translate(8.15 10.17) rotate(-90)"/><rect class="cls-2" x="8.12" y="309.92" width="2.02" height="18.26" transform="translate(-309.92 328.18) rotate(-90)"/><rect class="cls-2" y="301.79" width="2.02" height="18.26" transform="translate(2.02 621.85) rotate(180)"/><rect class="cls-2" x="640.02" width="2.02" height="18.26" transform="translate(1282.07 18.26) rotate(-180)"/><rect class="cls-2" x="631.9" y="-8.12" width="2.02" height="18.26" transform="translate(631.9 633.92) rotate(-90)"/><rect class="cls-2" x="631.9" y="309.92" width="2.02" height="18.26" transform="translate(313.86 951.96) rotate(-90)"/><rect class="cls-2" x="640.02" y="301.79" width="2.02" height="18.26"/><text class="cls-3" transform="translate(69.55 37.44)">If you’re looking to establish a more personable <tspan x="58.04" y="28">connection with potential customers,</tspan><tspan x="10.71" y="56">social media is a key component for success.</tspan></text><path class="cls-4" d="M262.38,131.09H68.32a4.55,4.55,0,0,0-4.85,4.45V269.46a5.13,5.13,0,0,0,4.85,5.13H262.39c2.66,0,4.37-2.48,4.37-5.13V135.54A4.16,4.16,0,0,0,262.38,131.09Z"/><path class="cls-4" d="M255,258.06c0,2.92-2.2,5.76-4.95,5.76H77.74c-2.75,0-4.7-2.84-4.7-5.76V146.83a4.68,4.68,0,0,1,4.7-5H250.09a4.87,4.87,0,0,1,4.95,5Z"/><rect class="cls-4" x="45.04" y="281.82" width="238" height="12" rx="2.02" ry="2.02"/><path class="cls-4" d="M583.25,155H536.09a8.16,8.16,0,0,0-8.15,8.17v95.75a8.16,8.16,0,0,0,8.15,8.16h47.16a8.16,8.16,0,0,0,8.16-8.16V163.19A8.17,8.17,0,0,0,583.25,155Z"/><rect class="cls-4" x="534.05" y="168.8" width="51.24" height="77.03"/><polygon class="cls-4" points="570.6 163.31 548.74 163.31 548.74 160.93 570.61 160.93 570.61 163.31 570.6 163.31"/><circle class="cls-4" cx="577.87" cy="162.22" r="2.09"/><rect class="cls-4" x="549.71" y="252.28" width="19.91" height="6.13"/><circle class="cls-5" cx="389.65" cy="164.18" r="28.36"/><circle class="cls-5" cx="387.02" cy="231.18" r="19.27"/><circle class="cls-5" cx="460.15" cy="184.82" r="23.63"/><path class="cls-4" d="M395.48,233.64c-.53-1.18-3.77-2.2-3.77-2.2-1.73-.61-1.74-1.22-1.74-1.22-3.39,6.69-6,0-6,0-.24.9-3.73,2-3.73,2a3.37,3.37,0,0,0-1.45,1c-1.51,2.24-1.69,7.22-1.69,7.22,0,1.14.51,1.25.51,1.25,3.47,1.55,8.91,1.82,8.91,1.82a26,26,0,0,0,9.66-1.59c.59-.37.61-.67.61-.67A17.28,17.28,0,0,0,395.48,233.64Z"/><path class="cls-4" d="M383.15,226.69c.26,2.15,2.11,4.38,3.79,4.38,1.93,0,3.76-2.34,4-4.38a1,1,0,0,0,.35-.69s.41-1.47-.13-1.32c.19-.57.82-2.78-.4-4.16a3.86,3.86,0,0,0-2-1.2l-.15-.12.08.1-.25-.06-.26-.25a2.08,2.08,0,0,1,.19.23l-.11,0a2,2,0,0,0-.24-.3l.09.2c-.26-.19-.77-.62-.77-1.11a1.44,1.44,0,0,0-.51.43,1.33,1.33,0,0,1,.4-.61,1.46,1.46,0,0,0-.41.34,1.29,1.29,0,0,0-.62.74l-.11-.06a1.7,1.7,0,0,1,.23-.37,1.71,1.71,0,0,0-.28.35l-.22-.11a1.74,1.74,0,0,1,.27-.38,1.67,1.67,0,0,0-.25.25c0-.14,0-.31-.42.18a5.13,5.13,0,0,0-2.62,2.71s-.35.82.11,3.25c-.65-.31-.21,1.28-.21,1.28A1,1,0,0,0,383.15,226.69Zm0-.86Zm3.73-7.59a1.31,1.31,0,0,0-.23.52l-.07,0A1.17,1.17,0,0,1,386.85,218.24Z"/><path class="cls-4" d="M459.91,170.67A8.67,8.67,0,0,0,452,183l6.6,14.32c.32.69.77,1.12,1.27,1.12s1-.43,1.27-1.12l6.6-14.32a8.67,8.67,0,0,0-7.88-12.29Zm0,13.86a5.2,5.2,0,1,1,5.2-5.2A5.2,5.2,0,0,1,459.91,184.54Z"/><path class="cls-4" d="M378.94,157a4.64,4.64,0,1,1,4.64,4.64A4.63,4.63,0,0,1,378.94,157Zm6.86,10.47a4.27,4.27,0,0,1,.75-5.43,5.91,5.91,0,0,0-1-.09h-3.93a5.94,5.94,0,0,0-5.93,5.93v4.89l.33.1a27.58,27.58,0,0,0,7.11,1.28v-2.2A5.11,5.11,0,0,1,385.81,167.46Zm10.57-5.84a4.64,4.64,0,1,0-4.63-4.64A4.63,4.63,0,0,0,396.38,161.62Zm2,.32h-3.93a5.91,5.91,0,0,0-1.85.3,4.27,4.27,0,0,1,.54,5.22,5.11,5.11,0,0,1,2.68,4.49v2.19l1.12,0a16.58,16.58,0,0,0,7-1.32l.31-.16h0v-4.81A5.94,5.94,0,0,0,398.35,161.94Zm-11.77,3.41a2.88,2.88,0,1,0,2.87-2.88A2.88,2.88,0,0,0,386.58,165.35Zm4.09,3.07h-2.44a3.69,3.69,0,0,0-3.68,3.68v3l.21.06a16.76,16.76,0,0,0,5,.81,10.28,10.28,0,0,0,4.37-.82l.19-.1h0v-3A3.68,3.68,0,0,0,390.67,168.42Z"/><path class="cls-6" d="M266.76,146.35h66.7a6,6,0,0,1,6,6v6a6,6,0,0,0,6,6h15.83"/><path class="cls-1" d="M266.76,146.35h66.7a6,6,0,0,1,6,6v6a6,6,0,0,0,6,6h15.83"/><path class="cls-1" d="M527.94,216.31H509a6,6,0,0,0-6,6v22.13a6,6,0,0,1-6,6h-67.5a6,6,0,0,1-6-6v-76c0-3.3-1.25-6-2.77-6H418"/><path class="cls-1" d="M266.76,261.49H315a6,6,0,0,0,6-6V205.87a6,6,0,0,1,6-6h97.34a6,6,0,0,1,6,6v25a6,6,0,0,0,6,6h91.56"/><circle class="cls-5" cx="325.75" cy="206.94" r="26.41"/><path class="cls-6" d="M332.58,223a3.07,3.07,0,0,1-1.49-.39l-21.31-12a3.07,3.07,0,0,1-1.42-1.74,1,1,0,0,1,.76-1.29l13-2.61.2,0a1,1,0,0,1,.94.67l1.28,3.6,3.73-.79.21,0a1,1,0,0,1,.94.66L334,221.62a1,1,0,0,1-.7,1.32A3.08,3.08,0,0,1,332.58,223Z"/><path class="cls-7" d="M322.34,206l1.57,4.42,4.59-1L333.06,222a2.05,2.05,0,0,1-1.49-.2l-21.31-12a2.07,2.07,0,0,1-1-1.17l13-2.61m0-2a2,2,0,0,0-.39,0l-13,2.61a2,2,0,0,0-1.51,2.57,4.06,4.06,0,0,0,1.88,2.3l21.31,12a4.05,4.05,0,0,0,2.95.4,2,2,0,0,0,1.4-2.63l-4.57-12.48a2,2,0,0,0-2.29-1.27l-2.88.61-1-2.77a2,2,0,0,0-1.88-1.33Z"/><path class="cls-6" d="M324.9,209.67A1,1,0,0,1,324,209l-6.17-16.85a1,1,0,0,1,.7-1.31,3.05,3.05,0,0,1,2.23.3l21.31,12a3,3,0,0,1,1.42,1.74,1,1,0,0,1-.76,1.28l-17.6,3.52Z"/><path class="cls-7" d="M319.23,191.76a2,2,0,0,1,1,.26l21.31,12a2.05,2.05,0,0,1,1,1.17l-17.6,3.52-6.17-16.85a2.07,2.07,0,0,1,.5-.06m0-2a4.06,4.06,0,0,0-1,.12,2,2,0,0,0-1.4,2.63L323,209.36a2,2,0,0,0,2.27,1.27l17.6-3.52a2,2,0,0,0,1.51-2.57,4.05,4.05,0,0,0-1.89-2.31l-21.31-12a4.05,4.05,0,0,0-2-.52Z"/><path class="cls-6" d="M309.28,208.36a1,1,0,0,1-.87-1.49l8.28-14.77a1,1,0,0,1,.87-.51h.08a1,1,0,0,1,.86.66l4.41,12.29a1,1,0,0,1-.75,1.32l-12.69,2.48Z"/><path class="cls-7" d="M317.56,192.58,322,204.87l-12.69,2.48,8.28-14.77m0-2a2,2,0,0,0-1.74,1l-8.28,14.77a2,2,0,0,0,2.13,2.94l12.69-2.48a2,2,0,0,0,1.5-2.64l-4.41-12.29a2,2,0,0,0-1.72-1.32Z"/><path class="cls-6" d="M334.09,222.31a1,1,0,0,1-.86-.65l-4.5-12.12a1,1,0,0,1,.73-1.33l12.79-2.66.2,0a1,1,0,0,1,.87,1.49L335,221.8a1,1,0,0,1-.87.51Z"/><path class="cls-7" d="M342.46,206.54h0m0,0-8.29,14.78-4.5-12.12,12.79-2.66m0-2h-.12l-.33,0-12.74,2.65a2,2,0,0,0-1.47,2.65L332.3,222a2,2,0,0,0,1.72,1.3h.16a2,2,0,0,0,1.74-1l8.24-14.7a2,2,0,0,0-1.67-3.05Zm0,4h0Z"/></g></g></svg>