<svg xmlns="http://www.w3.org/2000/svg" viewBox="0 0 417 199.76"><defs><style>.cls-1{font-size:23px;fill:#58595b;}.cls-1,.cls-5,.cls-6{font-family:ArialMT, Arial;}.cls-2,.cls-4{fill:#fff;}.cls-3,.cls-6{fill:#2f9622;}.cls-4{stroke:#2f9622;stroke-linecap:round;stroke-linejoin:round;stroke-width:2px;}.cls-5{font-size:21.91px;}.cls-5,.cls-8{fill:#64c202;}.cls-6{font-size:18.49px;}.cls-7{fill:#ccc;}</style></defs><title>best</title><g id="Layer_2" data-name="Layer 2"><g id="Layer_1-2" data-name="Layer 1"><text class="cls-1" transform="translate(244.51 72.5)">Revise your ad <tspan x="0" y="27.6">copy to be more </tspan><tspan x="0" y="55.2">compelling and </tspan><tspan x="0" y="82.8">descriptive. </tspan></text><path class="cls-2" d="M62.81,198.76a2,2,0,0,1-.86-.2,9.58,9.58,0,0,0-4-1,6.21,6.21,0,0,0-.81.05l-.21,0a6,6,0,0,1-.88.08,2.45,2.45,0,0,1-1.44-.42,2.6,2.6,0,0,1-1.06-1.82,8.42,8.42,0,0,1,0-1.91c0-.24,0-.48.05-.71l.11-2.55,1.37-34.64L41.4,126.14a1,1,0,0,1-.09-.33,7.68,7.68,0,0,1,0-1.13,7.17,7.17,0,0,1,7.15-6.76h.42a7.17,7.17,0,0,1,6.75,7.39l9,29.71a1,1,0,0,1,0,.32v.41l-4.78,36.92a14.68,14.68,0,0,1,2.84,1.48l.21.14c.76.5,2.54,1.66,1.73,3.35A2,2,0,0,1,62.81,198.76Z"/><path class="cls-3" d="M48.44,118.92h.36a6.17,6.17,0,0,1,5.81,6.52l9,29.88v.41l-4.87,37.61A14.48,14.48,0,0,1,62.1,195c.67.45,2.08,1.22,1.6,2.22a1,1,0,0,1-1.31.46,10.57,10.57,0,0,0-4.47-1.1,7.25,7.25,0,0,0-.94.06,7.46,7.46,0,0,1-1,.1,1.49,1.49,0,0,1-.87-.24,1.65,1.65,0,0,1-.64-1.14,13.88,13.88,0,0,1,.07-2.43c0-.85.07-1.7.11-2.55l.24-6.15.3-7.52.31-7.79.28-6.94.2-5,.06-1.51h0v-.41l0,.4L42.3,125.72a6.67,6.67,0,0,1,0-1,6.17,6.17,0,0,1,6.15-5.82m0-2a8.17,8.17,0,0,0-8.15,7.7,8.64,8.64,0,0,0,0,1.29,2,2,0,0,0,.18.65l13.57,29.33,0,1-.13,3.18-.07,1.8-.14,3.47-.14,3.47-.31,7.79-.16,4.16-.13,3.37-.12,3-.12,3.1q0,.61-.05,1.21c0,.45,0,.89-.06,1.34,0,.21,0,.44,0,.66a9.19,9.19,0,0,0,0,2.14,3.64,3.64,0,0,0,1.48,2.5,3.47,3.47,0,0,0,2,.59,6.92,6.92,0,0,0,1-.09l.2,0a5.29,5.29,0,0,1,.68,0,8.56,8.56,0,0,1,3.61.9,3,3,0,0,0,4-1.39c.79-1.65.09-3.2-2.08-4.62l-.19-.13a15,15,0,0,0-2.31-1.27L65.58,156c0-.06,0-.13,0-.19v-.41a2,2,0,0,0-.08-.64l-8.91-29.56a8.17,8.17,0,0,0-7.7-8.25Z"/><path class="cls-2" d="M86.71,89.27l-.43,0L58.41,86a6.4,6.4,0,0,1-.81-.15A5.94,5.94,0,0,1,59.09,74.2a6,6,0,0,1,1.49.19l24.19,6.25,28.73,2.92,3.11-3.34a1.78,1.78,0,0,1,2.76,2.24l-2.62,3.7a1,1,0,0,1-1.33.28,1,1,0,0,1-.26-.22l-25,.79a3.79,3.79,0,0,1-3.46,2.27Z"/><path class="cls-3" d="M59.09,75.2a5,5,0,0,1,1.24.16l24.27,6.27,29.45,3,.05-.15a.73.73,0,0,1,.15-.25l3.09-3.32a.78.78,0,0,1,1.21,1l-2.62,3.7.21-.4L89.43,86a2.79,2.79,0,0,1-2.73,2.25l-.32,0-.42,0L58.52,85a5.39,5.39,0,0,1-.67-.12,4.94,4.94,0,0,1,1.23-9.72m0-2a6.94,6.94,0,0,0-1.73,13.65,7.37,7.37,0,0,0,.93.17l27.45,3.17.42,0a4.84,4.84,0,0,0,.55,0A4.79,4.79,0,0,0,90.78,88l24-.76.1.07a2,2,0,0,0,2.67-.55l2.62-3.7a2.78,2.78,0,0,0-4.3-3.5l-2.77,3L84.94,79.65,60.83,73.42a7,7,0,0,0-1.74-.22Z"/><rect class="cls-4" x="78.63" y="1" width="128.72" height="186.01"/><path class="cls-4" d="M194.22,84.62a12.37,12.37,0,0,0-8.16-6.27c-3.08-.75-7.8-1.14-13.51-4.84-8.05-5.22-11.95-16.08-32.88-16.08H127.84C111,57.42,103.31,73,101.2,82.74c-.64,3-.25,8.41,0,11.36.16,1.85,1.09,3.66,3,3.66h4.46c0-6.26,5.67-12.66,12.66-12.66s12.66,6.4,12.66,12.66h28c0-6.26,5.67-12.66,12.66-12.66s12.66,6.4,12.66,12.66h4.84c1.87,0,3.81-.72,3.81-3.61C195.92,91.64,195.38,86.85,194.22,84.62Z"/><circle class="cls-4" cx="121.21" cy="98.91" r="7.14"/><circle class="cls-4" cx="174.96" cy="98.91" r="7.14"/><path class="cls-4" d="M99.65,85.49c-.92.32-2.94,1.19-2.94,2.22V88C96.71,89,98,89.92,99,90.22,98.92,88.67,99.59,87,99.65,85.49Z"/><path class="cls-4" d="M190.26,81.7a2.44,2.44,0,0,0-1,3.31l1,1.75a2.44,2.44,0,0,0,3.31,1l.24-.13a2.42,2.42,0,0,0,1.06-1.18,9.51,9.51,0,0,0-.65-1.78,11.94,11.94,0,0,0-2.62-3.36,2.41,2.41,0,0,0-1.1.29Z"/><rect class="cls-4" x="130.11" y="64.69" width="10.99" height="9.42"/><path class="cls-4" d="M124.06,64.35v9.76h-8.52C111.48,74.11,116.21,64.67,124.06,64.35Z"/><path class="cls-4" d="M162.38,73.4c-5.21-7.8-15.42-9-15.42-9v10h15.76C162.84,74,162.38,73.4,162.38,73.4Z"/><line class="cls-4" x1="144.73" y1="81.06" x2="151.2" y2="81.06"/><line class="cls-4" x1="128.77" y1="81.06" x2="135.24" y2="81.06"/><path class="cls-2" d="M39,135.18c-7.72,0-12.51-4.23-12.51-11,0-4.13,8-19.59,17.69-37.85,3.1-5.85,5.78-10.91,7.22-13.92.13-.28.69-2.06,1.17-3.62a1,1,0,0,1,1-.71h3.37a1,1,0,0,1,1,1.12,12.58,12.58,0,0,0,0,3.39h.21a1.08,1.08,0,0,1,1,.65c3.48,8.13-1.41,26.21-5,39.41-1.43,5.3-2.67,9.88-2.67,11.54C51.54,130.95,46.75,135.18,39,135.18Z"/><path class="cls-3" d="M56.93,69h0m0,0s-.38,3.12.23,4.31a.5.5,0,0,0,.48.22c.18,0,.37,0,.5,0s.11,0,.12,0c4.83,11.3-7.72,44.76-7.72,50.56,0,7-5.15,10-11.51,10s-11.51-3-11.51-10c0-5.94,19.8-40.89,24.81-51.34.22-.47,1.22-3.76,1.22-3.76h3.37m0-2H53.55a2,2,0,0,0-1.91,1.42c-.44,1.44-1,3.19-1.13,3.51-1.42,3-4.1,8-7.19,13.86-10.09,19-17.8,33.95-17.8,38.32,0,7.42,5.18,12,13.51,12s13.51-4.61,13.51-12c0-1.52,1.28-6.26,2.64-11.28,3.6-13.34,8.54-31.62,4.93-40.07a2,2,0,0,0-1.28-1.15,15,15,0,0,1,.08-2.27,2,2,0,0,0-2-2.33Zm0,4h0Z"/><path class="cls-2" d="M55.12,68.48c-5.18,0-8.82-8.5-8.82-13.1a8.82,8.82,0,1,1,17.64,0C63.94,60,60.3,68.48,55.12,68.48Z"/><path class="cls-3" d="M55.12,47.56a7.82,7.82,0,0,1,7.82,7.82c0,4.32-3.5,12.1-7.82,12.1S47.3,59.7,47.3,55.38a7.82,7.82,0,0,1,7.82-7.82m0-2a9.83,9.83,0,0,0-9.82,9.82c0,4.84,3.82,14.1,9.82,14.1s9.82-9.26,9.82-14.1a9.83,9.83,0,0,0-9.82-9.82Z"/><path class="cls-2" d="M9.28,197.34A3.42,3.42,0,0,1,7,196a4.94,4.94,0,0,0-.4-.39,8.12,8.12,0,0,0-3-1.58c-2.08-.57-2.95-1.68-2.56-3.32a7,7,0,0,1,.66-1.6c.09-.17.18-.34.26-.51.2-.43.39-.86.58-1.29L17.5,154.17l8.28-28.66a7.83,7.83,0,0,1,.4-1.07,7.21,7.21,0,0,1,6.49-4.11,7.17,7.17,0,0,1,6.48,10.23L26.38,157.63l-.15.35,0,.09L7.77,190.21A16,16,0,0,1,11,194.48a2,2,0,0,1-.44,2.34A1.89,1.89,0,0,1,9.28,197.34Z"/><path class="cls-3" d="M32.67,121.33a6.17,6.17,0,0,1,5.58,8.81L25.48,157.2l-.17.37L6.52,190.38a16.36,16.36,0,0,1,3.59,4.54,1,1,0,0,1-.22,1.16.88.88,0,0,1-.61.26c-.77,0-1.52-1.09-2-1.52A9.16,9.16,0,0,0,3.91,193c-1.11-.3-2.17-.75-1.85-2.13A10.52,10.52,0,0,1,2.92,189c.31-.68.61-1.36.92-2l2.48-5.51,3.12-6.93,3.28-7.28,2.94-6.54L17.78,156l.66-1.46v0l.16-.37-.16.35,8.3-28.73a6.66,6.66,0,0,1,.35-.92,6.17,6.17,0,0,1,5.58-3.54m0-2A8.21,8.21,0,0,0,25.28,124a8.65,8.65,0,0,0-.46,1.21l-8.27,28.61-.46,1-.14.31L15,157.21l-1.2,2.66-2.94,6.54-1.94,4.31-1.34,3-1.56,3.47-1.56,3.47-1.24,2.75L2,186.13l-.31.7c-.2.44-.39.88-.59,1.32-.07.16-.16.32-.24.48a7.78,7.78,0,0,0-.75,1.83c-.3,1.27-.28,3.55,3.27,4.52A7.14,7.14,0,0,1,6,196.37l.31.31a4.27,4.27,0,0,0,3,1.66,2.87,2.87,0,0,0,2-.78A3,3,0,0,0,11.9,194,16.26,16.26,0,0,0,9,190l18-31.48.09-.19.15-.35,12.76-27a8.17,8.17,0,0,0-7.38-11.66Z"/><path class="cls-2" d="M64,106.81a3.75,3.75,0,0,1-3-1.46L43.82,83.14a6.46,6.46,0,0,1-.45-.68,5.94,5.94,0,1,1,10.31-5.89l12,21L86.6,87.77a1.73,1.73,0,0,1,.69-.16l4.53-.1a1.78,1.78,0,0,1,.31,3.54l-4,.62L66,106.2a3.77,3.77,0,0,1-2.07.61Z"/><path class="cls-3" d="M48.52,74.58a4.94,4.94,0,0,1,4.29,2.49L65.25,98.82,86.88,88.75l.14-.07a.72.72,0,0,1,.29,0l4.53-.06h0a.74.74,0,0,1,.77.62.76.76,0,0,1-.65.87l-4.18.64.13-.09-.43.13.3,0L65.48,105.36a2.79,2.79,0,0,1-3.72-.63l-.26-.34L44.61,82.53a5.38,5.38,0,0,1-.38-.57,4.94,4.94,0,0,1,4.28-7.39m0-2A6.94,6.94,0,0,0,42.5,83a7.43,7.43,0,0,0,.52.79l16.89,21.87.26.34a4.79,4.79,0,0,0,6.4,1.08l22-14.4L92.29,92a2.74,2.74,0,0,0-.43-5.44H91.8l-4.53.06a2.7,2.7,0,0,0-1.09.23l-.15.06-20,9.29L54.54,76.07a7,7,0,0,0-6-3.5Z"/><text class="cls-5" transform="translate(112.29 134.18)">$4,500</text><text class="cls-6" transform="translate(107.65 149.72)">xxx xxxxx</text><rect class="cls-7" x="117.05" y="154.75" width="4.61" height="1.32"/><rect class="cls-7" x="122.59" y="154.77" width="1.21" height="1.38"/><rect class="cls-7" x="124.72" y="154.77" width="1.21" height="1.38"/><rect class="cls-7" x="126.86" y="154.77" width="1.21" height="1.38"/><rect class="cls-7" x="129.36" y="154.75" width="10.88" height="1.32"/><rect class="cls-7" x="141.17" y="154.77" width="1.21" height="1.38"/><rect class="cls-7" x="143.3" y="154.77" width="1.21" height="1.38"/><rect class="cls-7" x="145.43" y="154.77" width="1.21" height="1.38"/><rect class="cls-7" x="147.94" y="154.75" width="10.88" height="1.32"/><rect class="cls-7" x="159.74" y="154.77" width="1.21" height="1.38"/><rect class="cls-7" x="161.88" y="154.77" width="1.21" height="1.38"/><rect class="cls-7" x="164.01" y="154.77" width="1.21" height="1.38"/><rect class="cls-7" x="166.11" y="154.75" width="2.33" height="1.32"/><rect class="cls-7" x="169.07" y="154.77" width="1.21" height="1.38"/><rect class="cls-7" x="171.2" y="154.77" width="1.21" height="1.38"/><rect class="cls-7" x="173.34" y="154.77" width="1.21" height="1.38"/><rect class="cls-7" x="169.93" y="158.36" width="4.61" height="1.32"/><rect class="cls-7" x="167.8" y="158.28" width="1.21" height="1.38" transform="translate(336.8 317.93) rotate(180)"/><rect class="cls-7" x="165.66" y="158.28" width="1.21" height="1.38" transform="translate(332.54 317.93) rotate(180)"/><rect class="cls-7" x="163.53" y="158.28" width="1.21" height="1.38" transform="translate(328.27 317.93) rotate(180)"/><rect class="cls-7" x="151.36" y="158.36" width="10.88" height="1.32"/><rect class="cls-7" x="149.22" y="158.28" width="1.21" height="1.38" transform="translate(299.65 317.93) rotate(180)"/><rect class="cls-7" x="147.09" y="158.28" width="1.21" height="1.38" transform="translate(295.39 317.93) rotate(180)"/><rect class="cls-7" x="144.95" y="158.28" width="1.21" height="1.38" transform="translate(291.12 317.93) rotate(180)"/><rect class="cls-7" x="132.78" y="158.36" width="10.88" height="1.32"/><rect class="cls-7" x="130.65" y="158.28" width="1.21" height="1.38" transform="translate(262.5 317.93) rotate(180)"/><rect class="cls-7" x="128.51" y="158.28" width="1.21" height="1.38" transform="translate(258.24 317.93) rotate(180)"/><rect class="cls-7" x="126.38" y="158.28" width="1.21" height="1.38" transform="translate(253.97 317.93) rotate(180)"/><rect class="cls-7" x="123.16" y="158.36" width="2.33" height="1.32"/><rect class="cls-7" x="121.32" y="158.28" width="1.21" height="1.38" transform="translate(243.85 317.93) rotate(180)"/><rect class="cls-7" x="119.18" y="158.28" width="1.21" height="1.38" transform="translate(239.58 317.93) rotate(180)"/><rect class="cls-7" x="117.05" y="158.28" width="1.21" height="1.38" transform="translate(235.31 317.93) rotate(180)"/><rect class="cls-7" x="117.05" y="162.27" width="4.61" height="1.32"/><rect class="cls-7" x="122.59" y="162.3" width="1.21" height="1.38"/><rect class="cls-7" x="124.72" y="162.3" width="1.21" height="1.38"/><rect class="cls-7" x="126.86" y="162.3" width="1.21" height="1.38"/><rect class="cls-7" x="129.36" y="162.27" width="10.88" height="1.32"/><rect class="cls-7" x="141.17" y="162.3" width="1.21" height="1.38"/><rect class="cls-7" x="143.3" y="162.3" width="1.21" height="1.38"/><rect class="cls-7" x="145.43" y="162.3" width="1.21" height="1.38"/><rect class="cls-7" x="147.94" y="162.27" width="10.88" height="1.32"/><rect class="cls-7" x="159.74" y="162.3" width="1.21" height="1.38"/><rect class="cls-7" x="161.88" y="162.3" width="1.21" height="1.38"/><rect class="cls-7" x="164.01" y="162.3" width="1.21" height="1.38"/><rect class="cls-7" x="166.11" y="162.27" width="2.33" height="1.32"/><rect class="cls-7" x="169.07" y="162.3" width="1.21" height="1.38"/><rect class="cls-7" x="171.2" y="162.3" width="1.21" height="1.38"/><rect class="cls-7" x="173.34" y="162.3" width="1.21" height="1.38"/><rect class="cls-7" x="169.93" y="165.89" width="4.61" height="1.32"/><rect class="cls-7" x="167.8" y="165.8" width="1.21" height="1.38" transform="translate(336.8 332.98) rotate(180)"/><rect class="cls-7" x="165.66" y="165.8" width="1.21" height="1.38" transform="translate(332.54 332.98) rotate(180)"/><rect class="cls-7" x="163.53" y="165.8" width="1.21" height="1.38" transform="translate(328.27 332.98) rotate(180)"/><rect class="cls-7" x="151.36" y="165.89" width="10.88" height="1.32"/><rect class="cls-7" x="149.22" y="165.8" width="1.21" height="1.38" transform="translate(299.65 332.98) rotate(180)"/><rect class="cls-7" x="147.09" y="165.8" width="1.21" height="1.38" transform="translate(295.39 332.98) rotate(180)"/><rect class="cls-7" x="144.95" y="165.8" width="1.21" height="1.38" transform="translate(291.12 332.98) rotate(180)"/><rect class="cls-7" x="132.78" y="165.89" width="10.88" height="1.32"/><rect class="cls-7" x="130.65" y="165.8" width="1.21" height="1.38" transform="translate(262.5 332.98) rotate(180)"/><rect class="cls-7" x="128.51" y="165.8" width="1.21" height="1.38" transform="translate(258.24 332.98) rotate(180)"/><rect class="cls-7" x="126.38" y="165.8" width="1.21" height="1.38" transform="translate(253.97 332.98) rotate(180)"/><rect class="cls-7" x="123.16" y="165.89" width="2.33" height="1.32"/><rect class="cls-7" x="121.32" y="165.8" width="1.21" height="1.38" transform="translate(243.85 332.98) rotate(180)"/><rect class="cls-7" x="119.18" y="165.8" width="1.21" height="1.38" transform="translate(239.58 332.98) rotate(180)"/><rect class="cls-7" x="117.05" y="165.8" width="1.21" height="1.38" transform="translate(235.31 332.98) rotate(180)"/><path class="cls-8" d="M104.38,16.76h8.27a14.22,14.22,0,0,1,4.5.57,5.67,5.67,0,0,1,4.06,5.54,7,7,0,0,1-4,6.08V29A4.92,4.92,0,0,1,120.32,34c0,4.1-2.73,6.83-6.3,7.95a13,13,0,0,1-4.1.57H99.38Zm6.11,20.32a3.45,3.45,0,0,0,1.76-.43,3.5,3.5,0,0,0,1.58-2.88c0-1.15-.72-2-2.27-2h-3.81l-1,5.32ZM112,26.73a2.79,2.79,0,0,0,2.77-2.88c0-1-.54-1.69-2-1.69h-3.13l-.9,4.57Z"/><path class="cls-8" d="M128.31,16.76h16.08l-1,5.39h-9.82l-.9,4.68h7.81l-1.08,5.4h-7.81l-.93,4.86h10.32l-1,5.39H123.27Z"/><path class="cls-8" d="M147,34.78a9.28,9.28,0,0,0,6.08,2.34c1.22,0,3.09-.54,3.09-2.27,0-2.7-9.6-3.38-9.6-10.5,0-5.07,4.78-8,9.57-8,6,0,8.78,3,8.78,3L161.54,24a9.49,9.49,0,0,0-5.5-1.83c-1.26,0-3.17.65-3.17,2.23,0,2.84,9.68,3.27,9.68,10.5,0,4.42-4,8.06-9.57,8.06-6.58,0-9.71-3.67-9.71-3.67Z"/><path class="cls-8" d="M174.17,22.16H166.4l1-5.39h21.83l-1,5.39h-7.77l-4,20.32h-6.3Z"/><polygon class="cls-4" points="55.19 115.77 31.69 108.1 26.02 121.33 15.02 156.07 2 185.44 10.19 189.77 27.52 159.02 38.84 136.6 43.58 136.44 53.03 156.07 52.02 188.6 61.85 189.77 66.52 156.07 54.35 117.6 55.19 115.77"/></g></g></svg>