<svg xmlns="http://www.w3.org/2000/svg" xmlns:xlink="http://www.w3.org/1999/xlink" viewBox="0 0 581.5 272.88"><defs><style>.cls-1,.cls-15,.cls-7{fill:#64c202;}.cls-2,.cls-8{fill:#777;}.cls-20,.cls-3,.cls-4{fill:none;}.cls-17,.cls-20,.cls-23,.cls-3,.cls-4,.cls-7,.cls-8{stroke:#fff;}.cls-11,.cls-20,.cls-3,.cls-7{stroke-miterlimit:10;}.cls-3,.cls-4,.cls-7,.cls-8{stroke-width:2px;}.cls-17,.cls-23,.cls-4,.cls-8{stroke-linecap:round;stroke-linejoin:round;}.cls-5{isolation:isolate;}.cls-6{fill:#ccc;mix-blend-mode:multiply;}.cls-11,.cls-12,.cls-18,.cls-19,.cls-21,.cls-9{fill:#fff;}.cls-10,.cls-17{fill:#0080b1;}.cls-11{stroke:#e6e6e6;}.cls-11,.cls-17,.cls-23{stroke-width:3px;}.cls-12{font-size:23.28px;}.cls-12,.cls-19{font-family:MuseoSans-900Italic, MuseoSans 900Italic;font-style:italic;}.cls-13{letter-spacing:0.01em;}.cls-14{letter-spacing:-0.01em;}.cls-15{font-size:20px;}.cls-15,.cls-18,.cls-21{font-family:ArialMT, Arial;}.cls-16{letter-spacing:-0.07em;}.cls-18{font-size:22px;}.cls-19{font-size:34.49px;}.cls-20{stroke-width:4px;}.cls-21{font-size:24px;}.cls-22{letter-spacing:-0.06em;}.cls-23{fill:#0066ae;}</style><symbol id="deliveremali" data-name="deliveremali" viewBox="0 0 94.05 33.5"><polygon class="cls-1" points="93.05 32.03 92.99 32.03 92.99 31.98 93.05 32.03"/><polygon class="cls-2" points="92.99 32.03 92.99 32.5 39.75 32.5 39.75 1 58.99 17.21 39.82 32.39 92.99 32.03"/><path class="cls-2" d="M93,32V32l-53.17.36L59,17.21l4.16,3.5a5,5,0,0,0,6.44,0l4.2-3.53Z"/><polygon class="cls-2" points="92.99 1 92.99 31.98 73.79 17.18 92.99 1"/><polygon class="cls-2" points="92.99 1 73.79 17.18 66.31 11.41 58.99 17.21 39.75 1 92.99 1"/><path class="cls-2" d="M66.31,11.41l7.48,5.77-4.2,3.53a5,5,0,0,1-6.44,0L59,17.21Z"/><line class="cls-3" x1="92.99" y1="1" x2="92.99" y2="31.98"/><polyline class="cls-3" points="92.99 32.03 92.99 32.5 39.75 32.5 39.75 1"/><polyline class="cls-4" points="73.79 17.18 92.99 31.98 93.05 32.03 92.99 32.03 39.82 32.39 58.99 17.21"/><path class="cls-4" d="M39.75,1,59,17.21l4.16,3.5a5,5,0,0,0,6.44,0l4.2-3.53L93,1Z"/><line class="cls-4" x1="29.67" y1="16.33" x2="1" y2="16.33"/><line class="cls-4" x1="29.67" y1="7.99" x2="1" y2="7.99"/><line class="cls-4" x1="29.67" y1="24.66" x2="1" y2="24.66"/></symbol></defs><title>click-thru-rate-equation</title><g class="cls-5"><g id="Layer_2" data-name="Layer 2"><g id="Layer_1-2" data-name="Layer 1"><path class="cls-6" d="M568.54,272.88H56.4c-4.39,0-7.95-4.48-7.95-10v-40c0-5.52,3.56-10,7.95-10H568.54c4.39,0,7.95,4.48,7.95,10v40C576.49,268.4,572.93,272.88,568.54,272.88Z"/><use width="94.05" height="33.5" transform="translate(50.33 146.42)" xlink:href="#deliveremali"/><path class="cls-2" d="M143.32,21.89V53.24H90.08V21.89l23.4,19.71c2.48,2,5.56,2.3,6.44,0Z"/><path class="cls-2" d="M143.32,21.89,119.92,41.6c-.88,2.3-4,2-6.44,0L90.08,21.89Z"/><path class="cls-2" d="M143.32,21.89H90.08l23.4-19.71a5,5,0,0,1,6.44,0Z"/><polyline class="cls-3" points="143.31 21.89 143.31 53.24 90.08 53.24 90.08 21.89"/><path class="cls-4" d="M90.08,21.89l23.4,19.71c2.48,2,5.56,2.3,6.44,0l23.4-19.71"/><path class="cls-4" d="M143.32,21.89,119.92,2.18a5,5,0,0,0-6.44,0L90.08,21.89Z"/><polygon class="cls-7" points="134.5 5.55 100.4 5.55 100.4 30.58 117.48 44.41 134.5 29.33 134.5 5.55"/><path class="cls-8" d="M90.15,53.24l19.08-15.09a12,12,0,0,1,14.85,0l19.3,15.12Z"/><path class="cls-9" d="M160.21,40.41a10.29,10.29,0,0,1-2.87,12.31,65.7,65.7,0,0,1-7.19,5.2c-4,2.53-8.32,2.33-12.59.53a17.37,17.37,0,0,1-7.25-5.72c-2.39-3.22-4.72-6.5-7.07-9.75a2.71,2.71,0,0,1-.23-.37,7,7,0,0,1,5.73-2.08c-.7-1-1.28-2-1.92-2.9s-1.57-2-2.33-3.07q-3-4.16-6-8.32a3.8,3.8,0,0,1-.28-4.36,3.7,3.7,0,0,1,3.6-2,3.79,3.79,0,0,1,3,1.66l4.77,6.6c1.55-1.43,3-3,5.23-2.13a29.19,29.19,0,0,1,3-2.29,2.91,2.91,0,0,1,3.3.24c.77-.64,1.46-1.28,2.21-1.83a3.15,3.15,0,0,1,4.52.65q5,6.86,10,13.77A24.49,24.49,0,0,1,160.21,40.41Zm-3.88,9.81A8,8,0,0,0,157,39.81q-5-7-10.05-13.89l-1-1.38a.9.9,0,0,0-1.4-.24c-.23.17-.46.33-.67.52a.91.91,0,0,0-.13,1.41c.65.84,1.25,1.7,1.86,2.56A1.62,1.62,0,1,1,143,30.66c-1-1.36-1.92-2.75-2.92-4.08a1.46,1.46,0,0,0-.95-.63,1.53,1.53,0,0,0-1.24,2.46c1,1.3,1.93,2.59,2.87,3.9l.06.08a1.51,1.51,0,0,1-.31,2.29,1.49,1.49,0,0,1-2.23-.36q-1.86-2.55-3.64-5.14c-.59-.87-1-1-1.88-.35l-.31.23c-.73.53-.8,1-.28,1.67,1.25,1.69,2.51,3.37,3.75,5.07a1.6,1.6,0,1,1-2.59,1.85c-1.84-2.53-3.67-5.08-5.51-7.62l-4.94-6.82a1.4,1.4,0,1,0-2.24,1.63l8,11q3.76,5.19,7.5,10.4a1.62,1.62,0,1,1-2.59,1.9c-.9-1.23-1.77-2.48-2.68-3.69a3.49,3.49,0,0,0-4.09-1.19c2.22,3.07,4.3,6.2,6.65,9.12a13.31,13.31,0,0,0,7.18,4.44,10.25,10.25,0,0,0,9.22-1.7c1.76-1.34,3.58-2.6,5.37-3.91A8,8,0,0,0,156.33,50.22Z"/><path class="cls-10" d="M157,39.81a8,8,0,0,1-1.82,11.4c-1.79,1.31-3.61,2.57-5.37,3.91a10.25,10.25,0,0,1-9.22,1.7,13.31,13.31,0,0,1-7.18-4.44c-2.35-2.92-4.43-6.05-6.65-9.12a3.49,3.49,0,0,1,4.09,1.19c.91,1.21,1.78,2.46,2.68,3.69a1.62,1.62,0,1,0,2.59-1.9q-3.74-5.2-7.5-10.4l-8-11a1.4,1.4,0,1,1,2.24-1.63L127.79,30c1.84,2.54,3.67,5.09,5.51,7.62a1.6,1.6,0,1,0,2.59-1.85l2.36-1.48a1.49,1.49,0,0,0,2.23.36,1.51,1.51,0,0,0,.31-2.29l-.06-.08L143,30.66a1.62,1.62,0,1,0,2.61-1.87c-.61-.86-1.21-1.72-1.86-2.56a.91.91,0,0,1,.13-1.41c.21-.19.44-.35.67-.52a.9.9,0,0,1,1.4.24l1,1.38Q151.95,32.87,157,39.81Z"/><path class="cls-10" d="M143,30.66l-2.24,1.65c-.94-1.31-1.92-2.6-2.87-3.9A1.53,1.53,0,0,1,139.1,26a1.46,1.46,0,0,1,.95.63C141.05,27.91,142,29.3,143,30.66Z"/><path class="cls-10" d="M138.25,34.32l-2.36,1.48c-1.24-1.7-2.5-3.38-3.75-5.07-.52-.7-.45-1.14.28-1.67l.31-.23c.87-.63,1.29-.52,1.88.35Q136.4,31.78,138.25,34.32Z"/><path class="cls-9" d="M136.76,12.83a1.62,1.62,0,0,1-.32,2.33c-1.17.89-2.37,1.72-3.55,2.58s-2.16,1.58-3.25,2.35a1.69,1.69,0,1,1-2-2.71q3.38-2.49,6.8-4.92A1.66,1.66,0,0,1,136.76,12.83Z"/><path class="cls-9" d="M124.52,5.31a1.71,1.71,0,0,1,1.4,2.18c-.42,2.66-.83,5.33-1.29,8a4.62,4.62,0,0,1-.5,1.14,1.83,1.83,0,0,1-2.06.18,1.6,1.6,0,0,1-.79-1.71c.15-1.15.36-2.29.54-3.43.25-1.57.49-3.14.76-4.72A1.7,1.7,0,0,1,124.52,5.31Z"/><path class="cls-9" d="M117.83,15.74a1.75,1.75,0,0,1-.3,2.53,1.71,1.71,0,0,1-2.47-.58c-.81-1.09-1.6-2.2-2.4-3.31l-2.35-3.24a1.7,1.7,0,1,1,2.73-2Q115.44,12.42,117.83,15.74Z"/><path class="cls-9" d="M116,27.85a1.67,1.67,0,0,1-.49,2.48c-1.11.84-2.25,1.64-3.37,2.45s-2.17,1.58-3.26,2.35a1.69,1.69,0,1,1-2-2.73q3.3-2.43,6.63-4.8A1.68,1.68,0,0,1,116,27.85Z"/><path class="cls-9" d="M114.75,22.14a1.75,1.75,0,0,1-.83,1.86,4.36,4.36,0,0,1-1.19.12c-2.72-.4-5.43-.85-8.15-1.3a1.68,1.68,0,0,1-1.51-1.95,1.66,1.66,0,0,1,2-1.39l8.22,1.32A1.63,1.63,0,0,1,114.75,22.14Z"/><rect class="cls-11" x="395" y="54.6" width="185" height="80"/><text class="cls-12" transform="translate(89.99 84.6)">Clicks</text><text class="cls-12" transform="translate(63.95 129.6)"><tspan class="cls-13">I</tspan><tspan x="5.8" y="0">mp</tspan><tspan class="cls-14" x="38.46" y="0">r</tspan><tspan x="45.84" y="0">esions</tspan></text><text class="cls-15" transform="translate(429.45 90.48)">CLICK-THRU<tspan x="34.63" y="27.84">R</tspan><tspan class="cls-16" x="49.07" y="27.84">A</tspan><tspan x="60.93" y="27.84">TE</tspan></text><circle class="cls-17" cx="395" cy="94.6" r="20"/><text class="cls-18" transform="translate(388.58 99.6)">=</text><text class="cls-19" transform="translate(266.82 108.19)">x 100</text><line class="cls-20" y1="99.6" x2="240" y2="99.6"/><text class="cls-21" transform="translate(90.13 252.88)"><tspan class="cls-22">A</tspan><tspan x="14.68" y="0" xml:space="preserve"> great benchmark for this metric is 2.14%.</tspan></text><circle class="cls-23" cx="48.45" cy="242.88" r="20"/><polyline class="cls-23" points="37.45 245.63 46.2 252.24 58.45 235.88"/></g></g></g></svg>