<svg xmlns="http://www.w3.org/2000/svg" viewBox="0 0 450.5 136.22"><defs><style>.cls-1,.cls-5,.cls-6{fill:none;}.cls-1{stroke:#ce1515;}.cls-1,.cls-5,.cls-6,.cls-8{stroke-linecap:round;stroke-linejoin:round;}.cls-2,.cls-8{fill:#2f9622;}.cls-3,.cls-7{fill:#fff;}.cls-4{opacity:0.51;}.cls-5,.cls-6,.cls-7,.cls-8{stroke:#fff;}.cls-5,.cls-8{stroke-width:2px;}.cls-7{stroke-miterlimit:10;}</style></defs><title>click-on</title><g id="Layer_2" data-name="Layer 2"><g id="Layer_1-2" data-name="Layer 1"><path class="cls-1" d="M93.18,20.22"/><path class="cls-2" d="M346.4,69h-.22a1.94,1.94,0,0,1-1.54-.87,2.64,2.64,0,0,1-.33-1.7l.09-1a10.78,10.78,0,0,1-2.45-.93,7.2,7.2,0,0,1-2.46-2.2,8.26,8.26,0,0,1-1.15-2.14,5.13,5.13,0,0,1-.32-2.14,3.13,3.13,0,0,1,3.09-2.82h.3a3.11,3.11,0,0,1,2.89,2.81,3,3,0,0,0,.62,1.44l.41-4.6c-1.07-.41-2-.79-2.64-1.12a8,8,0,0,1-2.41-1.8,7.4,7.4,0,0,1-1.63-2.74,8.09,8.09,0,0,1-.36-3.31,8.62,8.62,0,0,1,1.39-4A8.24,8.24,0,0,1,343,39.07a10.16,10.16,0,0,1,3.83-1l.3-3.35a4.83,4.83,0,0,1,.44-1.83,1.75,1.75,0,0,1,1.63-.92h.24a1.9,1.9,0,0,1,1.62,1,3.06,3.06,0,0,1,.26,1.74L351,38.45a11.14,11.14,0,0,1,2.83,1.16,9.28,9.28,0,0,1,2.6,2.24,8.43,8.43,0,0,1,1.44,2.66,6.87,6.87,0,0,1,.32,2.68,3,3,0,0,1-1.11,2.08A3.09,3.09,0,0,1,355,50h-.32a3.26,3.26,0,0,1-1.8-.69,2.83,2.83,0,0,1-1-1.63,20.24,20.24,0,0,0-.57-2.08,3.08,3.08,0,0,0-.69-1.09l-.16-.15L350,50a20.37,20.37,0,0,1,3.15,1.55,7.44,7.44,0,0,1,2.63,2.79,8.3,8.3,0,0,1-1.9,9.63,8.87,8.87,0,0,1-5.3,1.9l-.08.92C348.27,68.87,346.83,69,346.4,69ZM349,60.19a3.32,3.32,0,0,0,.61-.35c.12-.09.49-.36.58-1.31a1.69,1.69,0,0,0-.31-1.34,3.55,3.55,0,0,0-.57-.49Zm-2.71-16.53a3.05,3.05,0,0,0-1,.6,2.52,2.52,0,0,0-.83,1.69,2,2,0,0,0,.44,1.59,4.58,4.58,0,0,0,1,.75Z"/><path class="cls-3" d="M349.21,33h.15a1,1,0,0,1,.82.45,2.15,2.15,0,0,1,.14,1.18l-.41,4.59a10.78,10.78,0,0,1,3.39,1.25,8.26,8.26,0,0,1,2.32,2,7.43,7.43,0,0,1,1.27,2.34,5.87,5.87,0,0,1,.27,2.29,2.07,2.07,0,0,1-.77,1.41A2.11,2.11,0,0,1,355,49h-.23a2.26,2.26,0,0,1-1.26-.47,1.85,1.85,0,0,1-.64-1.07,21.57,21.57,0,0,0-.61-2.2,4.12,4.12,0,0,0-.91-1.44,4.61,4.61,0,0,0-1.74-1.1l-.71,7.9a20.85,20.85,0,0,1,3.68,1.74,6.43,6.43,0,0,1,2.28,2.42,7.31,7.31,0,0,1-1.67,8.38,8.35,8.35,0,0,1-5.54,1.69h0l-.16,1.8Q347.34,68,346.4,68h-.13q-1.09-.1-1-1.49l.16-1.84a10.67,10.67,0,0,1-3.05-1,6.18,6.18,0,0,1-2.12-1.9,7.25,7.25,0,0,1-1-1.89,4.13,4.13,0,0,1-.27-1.72,2,2,0,0,1,.75-1.41,2,2,0,0,1,1.35-.5h.21a2.12,2.12,0,0,1,2,2,3.87,3.87,0,0,0,2.45,3.06l.63-7.07q-2.06-.77-3.26-1.35A7,7,0,0,1,341,51.32a6.39,6.39,0,0,1-1.42-2.38,7,7,0,0,1-.31-2.9,7.58,7.58,0,0,1,1.23-3.55A7.21,7.21,0,0,1,343.44,40a9.52,9.52,0,0,1,4.24-.9h.07l.38-4.23a4,4,0,0,1,.33-1.44.77.77,0,0,1,.75-.39m-1.75,9.38a4.68,4.68,0,0,0-2.77,1.14,3.51,3.51,0,0,0-1.15,2.33,2.91,2.91,0,0,0,.71,2.37,7.43,7.43,0,0,0,2.55,1.61l.66-7.44m.46,19.19a6,6,0,0,0,2.33-.92,3.17,3.17,0,0,0,.42-4.13,6.9,6.9,0,0,0-2.17-1.45l-.58,6.51M349.21,31a2.75,2.75,0,0,0-2.51,1.44,5.72,5.72,0,0,0-.56,2.21l-.23,2.52a10.81,10.81,0,0,0-3.35,1,9.22,9.22,0,0,0-3.71,3.22,9.59,9.59,0,0,0-1.56,4.47,9.06,9.06,0,0,0,.41,3.71,8.41,8.41,0,0,0,1.86,3.12,8.9,8.9,0,0,0,1.92,1.58l-.38,0a4.05,4.05,0,0,0-2.63,1A4,4,0,0,0,337,58a6.12,6.12,0,0,0,.37,2.56,9.28,9.28,0,0,0,1.3,2.41,8.15,8.15,0,0,0,2.78,2.48,11,11,0,0,0,1.86.78v.14a3.61,3.61,0,0,0,.49,2.33A3,3,0,0,0,346.09,70h.31a3.1,3.1,0,0,0,3.06-3.16v-.09a9.45,9.45,0,0,0,5-2.05A8.64,8.64,0,0,0,354,50.94a5,5,0,0,0,.58.08l.41,0a4.12,4.12,0,0,0,2.72-1,4.06,4.06,0,0,0,1.46-2.75,7.89,7.89,0,0,0-.36-3.07,9.44,9.44,0,0,0-1.61-3,10.28,10.28,0,0,0-2.88-2.49,11.6,11.6,0,0,0-2.27-1l.26-2.91a4,4,0,0,0-.37-2.3A2.89,2.89,0,0,0,349.54,31l-.33,0ZM351,49.35l.07-.81a3.83,3.83,0,0,0,.73,1.17l-.8-.36Zm-6.75,6.28-.09-.1.09,0v.06Z"/><path class="cls-2" d="M317.74,86.54h-.22A2.09,2.09,0,0,1,315.65,84l.09-1a10.77,10.77,0,0,1-2.45-.93,7.2,7.2,0,0,1-2.46-2.2,8.27,8.27,0,0,1-1.15-2.14,5.12,5.12,0,0,1-.32-2.14,3.13,3.13,0,0,1,3.09-2.82h.3a3.11,3.11,0,0,1,2.89,2.81,3,3,0,0,0,.62,1.44l.41-4.61c-1.07-.41-2-.79-2.64-1.12a8,8,0,0,1-2.41-1.8A7.38,7.38,0,0,1,310,66.77a8.09,8.09,0,0,1-.36-3.3,8.6,8.6,0,0,1,1.39-4,8.23,8.23,0,0,1,3.32-2.87,10.14,10.14,0,0,1,3.83-1l.3-3.35a4.8,4.8,0,0,1,.44-1.83,1.74,1.74,0,0,1,1.63-.92h.24a1.9,1.9,0,0,1,1.62,1,3,3,0,0,1,.26,1.74L322.33,56a11.17,11.17,0,0,1,2.83,1.16,9.28,9.28,0,0,1,2.6,2.24A8.45,8.45,0,0,1,329.2,62a6.9,6.9,0,0,1,.32,2.68,3,3,0,0,1-1.11,2.08,3.09,3.09,0,0,1-2.07.76H326a3.26,3.26,0,0,1-1.8-.69,2.83,2.83,0,0,1-1-1.63,20.66,20.66,0,0,0-.57-2.08A3.13,3.13,0,0,0,322,62l-.16-.15-.5,5.61a20.39,20.39,0,0,1,3.15,1.55,7.91,7.91,0,0,1,.73,12.42,8.87,8.87,0,0,1-5.3,1.9l-.08.92C319.61,86.38,318.17,86.54,317.74,86.54Zm2.65-8.84a3.32,3.32,0,0,0,.61-.35c.12-.09.49-.36.58-1.32a1.68,1.68,0,0,0-.31-1.34,3.5,3.5,0,0,0-.57-.49Zm-2.71-16.53a3,3,0,0,0-1,.6,2.52,2.52,0,0,0-.83,1.69,2,2,0,0,0,.44,1.59,4.52,4.52,0,0,0,1,.75Z"/><path class="cls-3" d="M320.55,50.52h.15a1,1,0,0,1,.82.45,2.15,2.15,0,0,1,.14,1.18l-.41,4.59A10.78,10.78,0,0,1,324.65,58,8.26,8.26,0,0,1,327,60a7.43,7.43,0,0,1,1.27,2.34,5.87,5.87,0,0,1,.27,2.29,2.07,2.07,0,0,1-.77,1.41,2.11,2.11,0,0,1-1.41.52h-.23a2.26,2.26,0,0,1-1.26-.47A1.85,1.85,0,0,1,324.2,65a21.57,21.57,0,0,0-.61-2.2,4.12,4.12,0,0,0-.91-1.44,4.61,4.61,0,0,0-1.74-1.1l-.71,7.9a20.84,20.84,0,0,1,3.68,1.74,6.43,6.43,0,0,1,2.28,2.42,7.31,7.31,0,0,1-1.67,8.38A8.35,8.35,0,0,1,319,82.4h0l-.16,1.8q-.12,1.34-1.07,1.34h-.13q-1.09-.1-1-1.49l.16-1.84a10.68,10.68,0,0,1-3.05-1,6.18,6.18,0,0,1-2.12-1.9,7.26,7.26,0,0,1-1-1.89,4.13,4.13,0,0,1-.27-1.72,2,2,0,0,1,.75-1.41,2,2,0,0,1,1.35-.5h.21a2.12,2.12,0,0,1,2,2,3.87,3.87,0,0,0,2.45,3.06l.63-7.07q-2.06-.77-3.26-1.35a7,7,0,0,1-2.11-1.58,6.39,6.39,0,0,1-1.42-2.38,7,7,0,0,1-.31-2.9A7.58,7.58,0,0,1,311.86,60a7.21,7.21,0,0,1,2.92-2.52,9.52,9.52,0,0,1,4.24-.9h.07l.38-4.23a4,4,0,0,1,.33-1.44.77.77,0,0,1,.75-.39M318.8,59.9A4.68,4.68,0,0,0,316,61a3.51,3.51,0,0,0-1.15,2.33,2.91,2.91,0,0,0,.71,2.37,7.43,7.43,0,0,0,2.55,1.61l.66-7.44m.46,19.19a6,6,0,0,0,2.33-.92A3.17,3.17,0,0,0,322,74a6.9,6.9,0,0,0-2.17-1.45l-.58,6.51m1.29-30.57A2.75,2.75,0,0,0,318,50a5.72,5.72,0,0,0-.56,2.21l-.23,2.52a10.81,10.81,0,0,0-3.35,1,9.22,9.22,0,0,0-3.71,3.22,9.59,9.59,0,0,0-1.56,4.47,9.06,9.06,0,0,0,.41,3.71,8.41,8.41,0,0,0,1.86,3.12,8.9,8.9,0,0,0,1.92,1.58l-.38,0a4.05,4.05,0,0,0-2.63,1,4,4,0,0,0-1.46,2.77,6.12,6.12,0,0,0,.37,2.56,9.29,9.29,0,0,0,1.3,2.41,8.15,8.15,0,0,0,2.78,2.48,11,11,0,0,0,1.86.78v.14a3.61,3.61,0,0,0,.49,2.33,3,3,0,0,0,2.29,1.33h.31a3.1,3.1,0,0,0,3.06-3.16v-.09a9.45,9.45,0,0,0,5-2.05,8.65,8.65,0,0,0-.48-13.79,5,5,0,0,0,.58.09l.41,0a4.12,4.12,0,0,0,2.72-1,4.06,4.06,0,0,0,1.46-2.75,7.89,7.89,0,0,0-.36-3.07,9.44,9.44,0,0,0-1.61-3,10.28,10.28,0,0,0-2.88-2.48,11.61,11.61,0,0,0-2.27-1l.26-2.91a4,4,0,0,0-.37-2.3,2.89,2.89,0,0,0-2.41-1.49l-.33,0Zm1.81,18.34.07-.81a3.83,3.83,0,0,0,.73,1.17l-.8-.36Zm-6.75,6.28-.09-.1.09,0v.06Z"/><path class="cls-2" d="M326.84,38.72h-.22a1.94,1.94,0,0,1-1.54-.87,2.64,2.64,0,0,1-.33-1.7l.09-1a10.75,10.75,0,0,1-2.45-.93,7.19,7.19,0,0,1-2.46-2.2,8.21,8.21,0,0,1-1.15-2.14,5.13,5.13,0,0,1-.32-2.14,3.13,3.13,0,0,1,3.09-2.82h.3a3.11,3.11,0,0,1,2.89,2.81,3,3,0,0,0,.62,1.44l.41-4.61c-1.07-.41-2-.79-2.64-1.12a8,8,0,0,1-2.41-1.8,7.4,7.4,0,0,1-1.63-2.74,8.1,8.1,0,0,1-.36-3.3,8.6,8.6,0,0,1,1.39-4,8.24,8.24,0,0,1,3.32-2.87,10.17,10.17,0,0,1,3.84-1l.3-3.35A4.81,4.81,0,0,1,328,2.61a1.74,1.74,0,0,1,1.63-.92h.24a1.92,1.92,0,0,1,1.62,1,3,3,0,0,1,.26,1.74l-.33,3.73a11.17,11.17,0,0,1,2.83,1.16,9.3,9.3,0,0,1,2.6,2.24,8.45,8.45,0,0,1,1.44,2.66,6.9,6.9,0,0,1,.32,2.68A3,3,0,0,1,337.5,19a3.08,3.08,0,0,1-2.06.76h-.33a3.24,3.24,0,0,1-1.8-.69,2.84,2.84,0,0,1-1-1.63,20.78,20.78,0,0,0-.57-2.08,3.14,3.14,0,0,0-.69-1.09l-.16-.15-.5,5.61a20.39,20.39,0,0,1,3.15,1.55,7.12,7.12,0,0,1,3.38,7.12,7.53,7.53,0,0,1-2.64,5.3,8.88,8.88,0,0,1-5.3,1.9l-.08.92C328.72,38.55,327.28,38.72,326.84,38.72Zm2.65-8.84a3.4,3.4,0,0,0,.61-.35c.12-.09.49-.36.58-1.32a1.68,1.68,0,0,0-.31-1.34,3.54,3.54,0,0,0-.57-.49Zm-2.71-16.53a3,3,0,0,0-1,.6,2.52,2.52,0,0,0-.83,1.69,2,2,0,0,0,.44,1.59,4.55,4.55,0,0,0,1,.75Z"/><path class="cls-3" d="M329.65,2.69h.15a1,1,0,0,1,.82.45,2.15,2.15,0,0,1,.14,1.18l-.41,4.59a10.78,10.78,0,0,1,3.39,1.25,8.26,8.26,0,0,1,2.32,2,7.43,7.43,0,0,1,1.27,2.34,5.87,5.87,0,0,1,.27,2.29,2.07,2.07,0,0,1-.77,1.41,2.11,2.11,0,0,1-1.41.52h-.23a2.26,2.26,0,0,1-1.26-.47,1.85,1.85,0,0,1-.64-1.07,21.59,21.59,0,0,0-.61-2.2,4.13,4.13,0,0,0-.91-1.44,4.61,4.61,0,0,0-1.74-1.1l-.71,7.9A20.83,20.83,0,0,1,333,22.08a6.43,6.43,0,0,1,2.28,2.42,6.52,6.52,0,0,1,.62,3.76,6.53,6.53,0,0,1-2.29,4.63,8.35,8.35,0,0,1-5.54,1.7h0l-.16,1.8q-.12,1.34-1.07,1.34h-.13q-1.09-.1-1-1.49l.16-1.84a10.67,10.67,0,0,1-3.05-1,6.18,6.18,0,0,1-2.12-1.9,7.26,7.26,0,0,1-1-1.89,4.13,4.13,0,0,1-.27-1.72,2,2,0,0,1,.75-1.41,2,2,0,0,1,1.35-.5h.21a2.12,2.12,0,0,1,2,2A3.87,3.87,0,0,0,326.21,31l.63-7.07q-2.06-.77-3.26-1.35A7,7,0,0,1,321.47,21,6.39,6.39,0,0,1,320,18.62a7,7,0,0,1-.32-2.9A7.58,7.58,0,0,1,321,12.18a7.21,7.21,0,0,1,2.92-2.52,9.52,9.52,0,0,1,4.24-.9h.07l.38-4.23a4,4,0,0,1,.33-1.44.77.77,0,0,1,.75-.39m-1.75,9.38a4.68,4.68,0,0,0-2.77,1.14A3.51,3.51,0,0,0,324,15.54a2.91,2.91,0,0,0,.71,2.37,7.43,7.43,0,0,0,2.55,1.61l.66-7.44m.46,19.19a6,6,0,0,0,2.33-.92,2.66,2.66,0,0,0,1-2,2.63,2.63,0,0,0-.57-2.1,6.9,6.9,0,0,0-2.17-1.45l-.58,6.51M329.65.69a2.75,2.75,0,0,0-2.51,1.45,5.72,5.72,0,0,0-.55,2.21l-.23,2.52a10.81,10.81,0,0,0-3.35,1,9.22,9.22,0,0,0-3.71,3.22,9.59,9.59,0,0,0-1.56,4.47,9.07,9.07,0,0,0,.41,3.71A8.41,8.41,0,0,0,320,22.37,8.91,8.91,0,0,0,321.93,24l-.38,0a4.05,4.05,0,0,0-2.63,1,4,4,0,0,0-1.46,2.77,6.12,6.12,0,0,0,.37,2.56,9.29,9.29,0,0,0,1.3,2.41,8.15,8.15,0,0,0,2.78,2.48,10.94,10.94,0,0,0,1.86.78V36a3.61,3.61,0,0,0,.49,2.33,3,3,0,0,0,2.29,1.33h.31a3.1,3.1,0,0,0,3.06-3.16v-.09a9.45,9.45,0,0,0,5-2.05,8.49,8.49,0,0,0,3-6,8.1,8.1,0,0,0-3.47-7.81,5,5,0,0,0,.58.08l.41,0a4.12,4.12,0,0,0,2.72-1A4.06,4.06,0,0,0,339.61,17a7.89,7.89,0,0,0-.36-3.07,9.45,9.45,0,0,0-1.61-3,10.28,10.28,0,0,0-2.88-2.49,11.61,11.61,0,0,0-2.27-1l.26-2.91a4,4,0,0,0-.37-2.3A2.89,2.89,0,0,0,330,.7ZM331.46,19l.07-.81a3.83,3.83,0,0,0,.73,1.17l-.8-.36Zm-6.75,6.28-.09-.1.09,0v.06Z"/><path class="cls-2" d="M395.52,38h-.22a1.94,1.94,0,0,1-1.54-.87,2.65,2.65,0,0,1-.33-1.7l.09-1a10.84,10.84,0,0,1-2.45-.93,7.22,7.22,0,0,1-2.46-2.2,8.25,8.25,0,0,1-1.15-2.14,5.14,5.14,0,0,1-.32-2.14,3.13,3.13,0,0,1,3.1-2.82h.3a3.11,3.11,0,0,1,2.89,2.81,3,3,0,0,0,.62,1.44l.41-4.6c-1.07-.41-2-.79-2.64-1.12a8,8,0,0,1-2.41-1.8,7.4,7.4,0,0,1-1.63-2.74,8.08,8.08,0,0,1-.36-3.31,8.6,8.6,0,0,1,1.39-4,8.23,8.23,0,0,1,3.32-2.87,10.17,10.17,0,0,1,3.83-1l.3-3.35a4.81,4.81,0,0,1,.44-1.83A1.75,1.75,0,0,1,398.33,1h.24a1.92,1.92,0,0,1,1.62,1,3.07,3.07,0,0,1,.26,1.74l-.33,3.72a11.16,11.16,0,0,1,2.83,1.16,9.29,9.29,0,0,1,2.6,2.24A8.47,8.47,0,0,1,407,13.51a6.87,6.87,0,0,1,.32,2.68A3.21,3.21,0,0,1,404.12,19h-.32a3.26,3.26,0,0,1-1.8-.69,2.83,2.83,0,0,1-1-1.63,20.56,20.56,0,0,0-.57-2.08,3.09,3.09,0,0,0-.69-1.09l-.16-.15-.5,5.61a20.37,20.37,0,0,1,3.15,1.55,7.44,7.44,0,0,1,2.63,2.79,7.52,7.52,0,0,1,.74,4.32A7.53,7.53,0,0,1,403,33a8.89,8.89,0,0,1-5.3,1.9l-.08.92C397.4,37.86,396,38,395.52,38Zm2.65-8.84a3.4,3.4,0,0,0,.61-.35c.12-.09.49-.36.58-1.32a1.68,1.68,0,0,0-.31-1.34,3.54,3.54,0,0,0-.57-.49Zm-2.71-16.53a3,3,0,0,0-1,.6,2.51,2.51,0,0,0-.83,1.69,1.94,1.94,0,0,0,.44,1.59,4.52,4.52,0,0,0,1,.75Z"/><path class="cls-3" d="M398.33,2h.15a1,1,0,0,1,.82.45,2.15,2.15,0,0,1,.14,1.18L399,8.22a10.78,10.78,0,0,1,3.39,1.25,8.26,8.26,0,0,1,2.32,2A7.43,7.43,0,0,1,406,13.81a5.87,5.87,0,0,1,.27,2.29,2.07,2.07,0,0,1-.77,1.41,2.11,2.11,0,0,1-1.41.52h-.23a2.26,2.26,0,0,1-1.26-.47,1.85,1.85,0,0,1-.64-1.07,21.57,21.57,0,0,0-.61-2.2,4.12,4.12,0,0,0-.91-1.44,4.61,4.61,0,0,0-1.74-1.1l-.71,7.9a20.83,20.83,0,0,1,3.68,1.74A6.43,6.43,0,0,1,404,23.81a6.52,6.52,0,0,1,.62,3.76,6.53,6.53,0,0,1-2.29,4.63,8.35,8.35,0,0,1-5.54,1.69h0l-.16,1.8Q396.47,37,395.52,37h-.13q-1.09-.1-1-1.49l.16-1.84a10.68,10.68,0,0,1-3.05-1,6.18,6.18,0,0,1-2.12-1.9,7.25,7.25,0,0,1-1-1.89,4.13,4.13,0,0,1-.27-1.72,2,2,0,0,1,.75-1.41,2,2,0,0,1,1.35-.5h.21a2.12,2.12,0,0,1,2,2,3.87,3.87,0,0,0,2.45,3.06l.63-7.07q-2.06-.77-3.26-1.35a7,7,0,0,1-2.11-1.58,6.39,6.39,0,0,1-1.42-2.38,7,7,0,0,1-.31-2.9,7.58,7.58,0,0,1,1.23-3.55A7.21,7.21,0,0,1,392.57,9a9.52,9.52,0,0,1,4.24-.9h.07l.38-4.23a4,4,0,0,1,.33-1.44.77.77,0,0,1,.75-.39m-1.75,9.38a4.68,4.68,0,0,0-2.77,1.14,3.51,3.51,0,0,0-1.15,2.33,2.91,2.91,0,0,0,.71,2.37,7.43,7.43,0,0,0,2.55,1.61l.66-7.44M397,30.57a6,6,0,0,0,2.33-.92,2.66,2.66,0,0,0,1-2,2.63,2.63,0,0,0-.57-2.1,6.9,6.9,0,0,0-2.17-1.45L397,30.57M398.33,0a2.75,2.75,0,0,0-2.51,1.44,5.72,5.72,0,0,0-.56,2.21L395,6.18a10.81,10.81,0,0,0-3.35,1A9.22,9.22,0,0,0,388,10.39a9.59,9.59,0,0,0-1.56,4.47,9.06,9.06,0,0,0,.41,3.71,8.41,8.41,0,0,0,1.86,3.12,8.9,8.9,0,0,0,1.92,1.58l-.38,0a4.05,4.05,0,0,0-2.63,1A4,4,0,0,0,386.14,27a6.12,6.12,0,0,0,.37,2.56,9.28,9.28,0,0,0,1.3,2.41,8.15,8.15,0,0,0,2.78,2.48,11,11,0,0,0,1.86.78v.14a3.61,3.61,0,0,0,.49,2.33A3,3,0,0,0,395.21,39h.31a3.1,3.1,0,0,0,3.06-3.16v-.09a9.45,9.45,0,0,0,5-2.05,8.49,8.49,0,0,0,3-6,8.1,8.1,0,0,0-3.47-7.81,5,5,0,0,0,.58.09l.41,0a4.12,4.12,0,0,0,2.72-1,4.06,4.06,0,0,0,1.46-2.75,7.89,7.89,0,0,0-.36-3.07,9.45,9.45,0,0,0-1.61-3,10.28,10.28,0,0,0-2.88-2.48,11.61,11.61,0,0,0-2.27-1l.26-2.91a4,4,0,0,0-.37-2.3A2.89,2.89,0,0,0,398.66,0l-.33,0Zm1.81,18.34.07-.81a3.82,3.82,0,0,0,.73,1.17l-.8-.36Zm-6.75,6.28-.09-.1.09,0v.06Z"/><path class="cls-2" d="M404.62,89.47h-.22a2.09,2.09,0,0,1-1.87-2.58l.09-1a10.77,10.77,0,0,1-2.45-.93,7.2,7.2,0,0,1-2.46-2.2,8.3,8.3,0,0,1-1.15-2.14,5.13,5.13,0,0,1-.32-2.14,3.13,3.13,0,0,1,3.09-2.82h.3a3.11,3.11,0,0,1,2.89,2.81,3,3,0,0,0,.62,1.44l.41-4.61c-1.07-.41-2-.79-2.64-1.12a8,8,0,0,1-2.41-1.8,7.39,7.39,0,0,1-1.63-2.74,8.07,8.07,0,0,1-.36-3.3,8.6,8.6,0,0,1,1.39-4,8.23,8.23,0,0,1,3.32-2.87,10.14,10.14,0,0,1,3.83-1l.3-3.35a4.8,4.8,0,0,1,.44-1.83,1.74,1.74,0,0,1,1.63-.92h.24a1.92,1.92,0,0,1,1.62,1,3,3,0,0,1,.26,1.74l-.33,3.72A11.17,11.17,0,0,1,412,60.05a9.28,9.28,0,0,1,2.6,2.24,8.45,8.45,0,0,1,1.44,2.66,6.9,6.9,0,0,1,.32,2.68,3,3,0,0,1-1.11,2.08,3.09,3.09,0,0,1-2.07.76h-.32a3.26,3.26,0,0,1-1.8-.69,2.83,2.83,0,0,1-1-1.63,20.66,20.66,0,0,0-.57-2.08,3.14,3.14,0,0,0-.69-1.09l-.16-.15-.5,5.61A20.39,20.39,0,0,1,411.33,72a7.12,7.12,0,0,1,3.38,7.12,7.52,7.52,0,0,1-2.64,5.3,8.87,8.87,0,0,1-5.3,1.9l-.08.92C406.5,89.31,405.06,89.47,404.62,89.47Zm2.65-8.84a3.4,3.4,0,0,0,.61-.35c.12-.09.49-.36.58-1.32a1.68,1.68,0,0,0-.31-1.34,3.5,3.5,0,0,0-.57-.49Zm-2.71-16.53a3,3,0,0,0-1,.6,2.52,2.52,0,0,0-.83,1.69,2,2,0,0,0,.44,1.59,4.52,4.52,0,0,0,1,.75Z"/><path class="cls-3" d="M407.43,53.44h.15a1,1,0,0,1,.82.45,2.14,2.14,0,0,1,.14,1.18l-.41,4.59a10.78,10.78,0,0,1,3.39,1.25,8.26,8.26,0,0,1,2.32,2,7.43,7.43,0,0,1,1.27,2.34,5.87,5.87,0,0,1,.27,2.29,2.07,2.07,0,0,1-.77,1.41,2.11,2.11,0,0,1-1.41.52H413a2.26,2.26,0,0,1-1.26-.47,1.85,1.85,0,0,1-.64-1.07,21.58,21.58,0,0,0-.61-2.2,4.12,4.12,0,0,0-.91-1.44,4.61,4.61,0,0,0-1.74-1.1l-.71,7.9a20.83,20.83,0,0,1,3.68,1.74,6.43,6.43,0,0,1,2.28,2.42,7.31,7.31,0,0,1-1.67,8.38,8.35,8.35,0,0,1-5.54,1.69h0l-.16,1.8q-.12,1.34-1.07,1.34h-.13q-1.09-.1-1-1.49l.16-1.84a10.67,10.67,0,0,1-3.05-1,6.18,6.18,0,0,1-2.12-1.9,7.26,7.26,0,0,1-1-1.89,4.13,4.13,0,0,1-.27-1.72,2,2,0,0,1,.75-1.41,2,2,0,0,1,1.35-.5h.21a2.12,2.12,0,0,1,2,2A3.87,3.87,0,0,0,404,81.75l.63-7.07q-2.06-.77-3.26-1.35a7,7,0,0,1-2.11-1.58,6.39,6.39,0,0,1-1.42-2.38,7,7,0,0,1-.32-2.9,7.58,7.58,0,0,1,1.23-3.55,7.21,7.21,0,0,1,2.92-2.52,9.52,9.52,0,0,1,4.24-.9H406l.38-4.23a4,4,0,0,1,.33-1.44.77.77,0,0,1,.75-.39m-1.75,9.38A4.68,4.68,0,0,0,402.91,64a3.51,3.51,0,0,0-1.15,2.33,2.91,2.91,0,0,0,.71,2.37A7.43,7.43,0,0,0,405,70.27l.66-7.44M406.15,82a6,6,0,0,0,2.33-.92,3.17,3.17,0,0,0,.42-4.13,6.9,6.9,0,0,0-2.17-1.45L406.15,82m1.29-30.57a2.75,2.75,0,0,0-2.51,1.44,5.72,5.72,0,0,0-.56,2.21l-.23,2.52a10.81,10.81,0,0,0-3.35,1,9.22,9.22,0,0,0-3.71,3.22,9.59,9.59,0,0,0-1.56,4.47,9.07,9.07,0,0,0,.41,3.71,8.41,8.41,0,0,0,1.86,3.12,8.91,8.91,0,0,0,1.92,1.58l-.38,0a4.05,4.05,0,0,0-2.63,1,4,4,0,0,0-1.46,2.77,6.12,6.12,0,0,0,.37,2.56,9.28,9.28,0,0,0,1.3,2.41,8.15,8.15,0,0,0,2.78,2.48,11,11,0,0,0,1.86.78v.14a3.61,3.61,0,0,0,.49,2.33,3,3,0,0,0,2.29,1.33h.31a3.1,3.1,0,0,0,3.06-3.16v-.09a9.45,9.45,0,0,0,5-2.05,8.65,8.65,0,0,0-.48-13.79,5,5,0,0,0,.58.09l.41,0a4.12,4.12,0,0,0,2.72-1,4.06,4.06,0,0,0,1.46-2.75,7.89,7.89,0,0,0-.36-3.07,9.45,9.45,0,0,0-1.61-3,10.28,10.28,0,0,0-2.88-2.49,11.6,11.6,0,0,0-2.27-1l.26-2.91a4,4,0,0,0-.37-2.3,2.89,2.89,0,0,0-2.41-1.49l-.33,0Zm1.81,18.34.07-.81a3.83,3.83,0,0,0,.73,1.17l-.8-.36Zm-6.75,6.28-.09-.1.09,0v.06Z"/><path class="cls-2" d="M437.7,58.17h-.22a1.94,1.94,0,0,1-1.53-.87,2.64,2.64,0,0,1-.33-1.7l.09-1a10.78,10.78,0,0,1-2.45-.93,7.19,7.19,0,0,1-2.46-2.2,8.22,8.22,0,0,1-1.15-2.14,5.13,5.13,0,0,1-.32-2.14,3.13,3.13,0,0,1,3.09-2.82h.3a3.11,3.11,0,0,1,2.89,2.81,3,3,0,0,0,.62,1.44l.41-4.61c-1.07-.41-2-.79-2.64-1.12a8,8,0,0,1-2.41-1.8A7.4,7.4,0,0,1,430,38.39a8.07,8.07,0,0,1-.36-3.3,8.6,8.6,0,0,1,1.39-4,8.24,8.24,0,0,1,3.32-2.87,10.16,10.16,0,0,1,3.83-1l.3-3.35a4.79,4.79,0,0,1,.44-1.83,1.74,1.74,0,0,1,1.63-.92h.24a1.92,1.92,0,0,1,1.62,1,3,3,0,0,1,.26,1.74l-.33,3.72a11.17,11.17,0,0,1,2.83,1.16,9.27,9.27,0,0,1,2.6,2.24,8.47,8.47,0,0,1,1.44,2.66,6.89,6.89,0,0,1,.32,2.68,3.21,3.21,0,0,1-3.18,2.85H446a3.24,3.24,0,0,1-1.8-.69,2.84,2.84,0,0,1-1-1.63,20.33,20.33,0,0,0-.57-2.08,3.16,3.16,0,0,0-.69-1.09l-.16-.15-.5,5.61a20.39,20.39,0,0,1,3.15,1.55,7.91,7.91,0,0,1,.73,12.42,8.87,8.87,0,0,1-5.3,1.9l-.08.92C439.57,58,438.13,58.17,437.7,58.17Zm2.65-8.84A3.4,3.4,0,0,0,441,49c.12-.09.49-.36.58-1.32a1.69,1.69,0,0,0-.31-1.34,3.6,3.6,0,0,0-.57-.49Zm-2.71-16.53a3,3,0,0,0-1,.6,2.52,2.52,0,0,0-.83,1.69,2,2,0,0,0,.44,1.59,4.55,4.55,0,0,0,1,.75Z"/><path class="cls-3" d="M440.51,22.14h.15a1,1,0,0,1,.82.45,2.15,2.15,0,0,1,.14,1.18l-.41,4.59a10.78,10.78,0,0,1,3.39,1.25,8.26,8.26,0,0,1,2.32,2,7.43,7.43,0,0,1,1.27,2.34,5.87,5.87,0,0,1,.27,2.29,2.07,2.07,0,0,1-.77,1.41,2.11,2.11,0,0,1-1.41.52h-.23a2.26,2.26,0,0,1-1.26-.47,1.85,1.85,0,0,1-.64-1.07,21.61,21.61,0,0,0-.61-2.2,4.12,4.12,0,0,0-.91-1.44,4.61,4.61,0,0,0-1.74-1.1l-.71,7.9a20.85,20.85,0,0,1,3.68,1.74,6.43,6.43,0,0,1,2.28,2.42,6.52,6.52,0,0,1,.62,3.76,6.53,6.53,0,0,1-2.29,4.63A8.35,8.35,0,0,1,439,54h0l-.16,1.8q-.12,1.34-1.07,1.34h-.13q-1.09-.1-1-1.49l.16-1.84a10.67,10.67,0,0,1-3.05-1,6.18,6.18,0,0,1-2.12-1.9,7.26,7.26,0,0,1-1-1.89,4.13,4.13,0,0,1-.27-1.72,2,2,0,0,1,.75-1.41,2,2,0,0,1,1.35-.5h.21a2.12,2.12,0,0,1,2,2,3.87,3.87,0,0,0,2.45,3.06l.63-7.07q-2.06-.77-3.26-1.35a7,7,0,0,1-2.11-1.58,6.39,6.39,0,0,1-1.42-2.38,7,7,0,0,1-.32-2.9,7.58,7.58,0,0,1,1.23-3.55,7.21,7.21,0,0,1,2.92-2.52,9.52,9.52,0,0,1,4.24-.9h.07l.38-4.23a4,4,0,0,1,.33-1.44.77.77,0,0,1,.75-.39m-1.75,9.38A4.68,4.68,0,0,0,436,32.66,3.51,3.51,0,0,0,434.84,35a2.91,2.91,0,0,0,.71,2.37A7.43,7.43,0,0,0,438.09,39l.67-7.44m.46,19.19a6,6,0,0,0,2.33-.92,3.17,3.17,0,0,0,.42-4.13,6.9,6.9,0,0,0-2.17-1.45l-.58,6.51m1.29-30.57A2.75,2.75,0,0,0,438,21.58a5.73,5.73,0,0,0-.56,2.21l-.23,2.52a10.81,10.81,0,0,0-3.35,1,9.22,9.22,0,0,0-3.71,3.22A9.59,9.59,0,0,0,428.59,35a9.07,9.07,0,0,0,.41,3.71,8.41,8.41,0,0,0,1.86,3.12,8.9,8.9,0,0,0,1.92,1.58l-.38,0a4.05,4.05,0,0,0-2.63,1,4,4,0,0,0-1.46,2.77,6.12,6.12,0,0,0,.37,2.56,9.28,9.28,0,0,0,1.3,2.41,8.15,8.15,0,0,0,2.78,2.48,11,11,0,0,0,1.86.78v.14a3.08,3.08,0,0,0,2.78,3.66h.31A3.1,3.1,0,0,0,440.76,56v-.09a9.45,9.45,0,0,0,5-2.05,8.49,8.49,0,0,0,3-6,8.1,8.1,0,0,0-3.47-7.81,5,5,0,0,0,.58.09l.41,0a4.12,4.12,0,0,0,2.72-1,4.06,4.06,0,0,0,1.46-2.75,7.89,7.89,0,0,0-.36-3.07,9.45,9.45,0,0,0-1.61-3,10.29,10.29,0,0,0-2.88-2.49,11.61,11.61,0,0,0-2.27-1l.26-2.91a4,4,0,0,0-.37-2.3,2.89,2.89,0,0,0-2.41-1.49Zm1.81,18.34.07-.81a3.83,3.83,0,0,0,.73,1.17l-.8-.36Zm-6.75,6.28-.09-.1.09,0v.06Z"/><g class="cls-4"><rect class="cls-5" x="1" y="11.03" width="252.39" height="124.19" rx="5.37" ry="5.37"/><polygon class="cls-6" points="42.5 37.8 42.39 19.05 30.83 28.9 42.5 37.8"/><polygon class="cls-6" points="42.5 37.83 10.32 38.23 21.87 28.97 10.17 19.23 10.28 38.3 42.5 38.12 42.5 37.83"/><path class="cls-6" d="M28.3,31.06a3,3,0,0,1-3.9,0L21.87,29,10.32,38.23l32.18-.4v0L30.83,28.9Z"/><path class="cls-6" d="M10.17,19.23,21.87,29l2.53,2.11a3,3,0,0,0,3.9,0l2.53-2.15L42.39,19Z"/><rect class="cls-6" x="55.49" y="22.25" width="95.98" height="13.15"/><rect class="cls-6" x="157.54" y="22.25" width="14.88" height="13.15"/><path class="cls-7" d="M168.6,31.83,166.73,30a3.21,3.21,0,1,0-1,.87l1.92,1.92a.65.65,0,1,0,.92-.92Zm-3.4-1.59a2.43,2.43,0,1,1,.95-.84A2.4,2.4,0,0,1,165.2,30.24Z"/><rect class="cls-6" x="49.46" y="68.03" width="190.38" height="13.79"/><line class="cls-6" x1="65.53" y1="73.02" x2="152.39" y2="73.02"/><line class="cls-6" x1="65.53" y1="76.81" x2="124.57" y2="76.81"/><rect class="cls-6" x="53.24" y="71.32" width="7.45" height="7.45"/><rect class="cls-6" x="49.46" y="88.37" width="190.38" height="13.79"/><line class="cls-6" x1="65.53" y1="93.36" x2="152.39" y2="93.36"/><line class="cls-6" x1="65.53" y1="97.15" x2="124.57" y2="97.15"/><rect class="cls-6" x="53.24" y="91.66" width="7.45" height="7.45"/><rect class="cls-6" x="49.46" y="108.7" width="190.38" height="13.79"/><line class="cls-6" x1="65.53" y1="113.7" x2="152.39" y2="113.7"/><line class="cls-6" x1="65.53" y1="117.49" x2="124.57" y2="117.49"/><rect class="cls-6" x="53.24" y="112" width="7.45" height="7.45"/><line class="cls-6" x1="10.32" y1="49.93" x2="41.04" y2="49.93"/><line class="cls-6" x1="10.32" y1="58.44" x2="41.04" y2="58.44"/><line class="cls-6" x1="10.32" y1="66.94" x2="41.04" y2="66.94"/><line class="cls-6" x1="10.32" y1="75.44" x2="41.04" y2="75.44"/><line class="cls-6" x1="10.32" y1="83.95" x2="41.04" y2="83.95"/></g><rect class="cls-6" x="49.46" y="47.69" width="190.38" height="13.79"/><line class="cls-6" x1="65.53" y1="52.69" x2="152.39" y2="52.69"/><line class="cls-6" x1="65.53" y1="56.48" x2="124.57" y2="56.48"/><rect class="cls-6" x="53.24" y="50.99" width="7.45" height="7.45"/><g id="_Group_" data-name="&lt;Group&gt;"><path class="cls-8" d="M271.93,30.27a3.61,3.61,0,0,1-.71,5.19c-2.61,2-5.28,3.83-7.91,5.75-2.41,1.76-4.81,3.52-7.24,5.23-2,1.4-4.19,1.14-5.48-.6a3.79,3.79,0,0,1,1-5.43q7.52-5.55,15.14-11A3.7,3.7,0,0,1,271.93,30.27Z"/><path class="cls-8" d="M244.67,13.52c2.27.31,3.52,2.2,3.12,4.86-.94,5.92-1.85,11.87-2.87,17.8a10.29,10.29,0,0,1-1.11,2.54c-1.87,1.14-3.23,1.2-4.59.4a3.56,3.56,0,0,1-1.76-3.81c.33-2.56.8-5.1,1.2-7.64.56-3.5,1.09-7,1.69-10.51C240.77,14.59,242.44,13.21,244.67,13.52Z"/><path class="cls-8" d="M229.77,36.75c1.43,2,1.11,4.37-.67,5.63s-4,.78-5.5-1.29c-1.8-2.43-3.56-4.9-5.35-7.37s-3.5-4.81-5.23-7.22c-1.4-2-1.18-4.19.51-5.5a3.82,3.82,0,0,1,5.57,1Q224.44,29.36,229.77,36.75Z"/><path class="cls-8" d="M225.63,63.73c1.36,1.83,1,4-1.09,5.52-2.47,1.87-5,3.65-7.51,5.46s-4.83,3.52-7.26,5.23c-2,1.38-4.23,1.09-5.48-.65a3.77,3.77,0,0,1,1.07-5.43q7.35-5.41,14.77-10.69C222.15,61.72,224.31,62,225.63,63.73Z"/><path class="cls-8" d="M222.91,51c.36,1.51-.18,2.81-1.85,4.14a9.7,9.7,0,0,1-2.65.27c-6.06-.89-12.09-1.89-18.15-2.9a3.74,3.74,0,0,1-3.36-4.34,3.69,3.69,0,0,1,4.54-3.1c6.1,1,12.21,2,18.31,2.94A3.64,3.64,0,0,1,222.91,51Z"/></g><path class="cls-2" d="M287.29,130.17a29,29,0,0,1-7.14-.95A30.79,30.79,0,0,1,263.62,119c-3.67-4.56-7.1-9.42-10.41-14.12-1.47-2.08-2.93-4.16-4.43-6.23a1,1,0,0,1,.44-1.52,8.63,8.63,0,0,1,3.19-.61,8.84,8.84,0,0,1,7.08,3.59c1.24,1.65,2.47,3.36,3.65,5,.77,1.08,1.54,2.15,2.32,3.22a3.22,3.22,0,0,0,2.38,1.53,2.6,2.6,0,0,0,1.52-.57c1.37-1,1.46-2.36.25-4-6.16-8.58-11.62-16.15-16.71-23.16l-17.77-24.5c-1.61-2.24-1.36-4.69.61-6.1a4,4,0,0,1,2.34-.79,4.59,4.59,0,0,1,3.66,2.08l5.51,7.6,5.5,7.59,5.05,7q3.61,5,7.22,10a3,3,0,0,0,2.31,1.53A2.63,2.63,0,0,0,268.8,86,2.48,2.48,0,0,0,270,84.39a3.27,3.27,0,0,0-.78-2.37q-2.74-3.76-5.53-7.49l-2.82-3.8a3.76,3.76,0,0,1-.92-2.73,3.9,3.9,0,0,1,1.76-2.39l.35-.26.3-.22A4.6,4.6,0,0,1,265,64c1.37,0,2.28,1.07,3,2.11,2.67,3.88,5.39,7.73,8.09,11.42a2.44,2.44,0,0,0,2,1.17,2.72,2.72,0,0,0,1.59-.58,2.55,2.55,0,0,0,1.12-1.62,2.84,2.84,0,0,0-.65-2.08l-.15-.21c-1.23-1.72-2.51-3.44-3.79-5.16q-1.3-1.75-2.58-3.5a4.4,4.4,0,0,1,3.55-7.07h0a4.27,4.27,0,0,1,2.94,1.81c1.4,1.86,2.77,3.8,4.09,5.69.8,1.14,1.6,2.28,2.42,3.41a3.14,3.14,0,0,0,2.32,1.51,2.63,2.63,0,0,0,1.55-.59c1.69-1.24,1.1-2.82.32-3.92l-.59-.83c-1.13-1.6-2.31-3.26-3.53-4.84a3,3,0,0,1,.41-4.5,15.86,15.86,0,0,1,1.28-1l.29-.21a3.46,3.46,0,0,1,2-.71,3.1,3.1,0,0,1,2.53,1.46c.73,1,1.45,2,2.17,3l7.48,10.33q7.49,10.34,15,20.7a18.78,18.78,0,0,1-1.51,24.46,19.11,19.11,0,0,1-2.77,2.33c-1.46,1.07-2.94,2.13-4.42,3.19-2.48,1.78-5,3.62-7.51,5.5A23.09,23.09,0,0,1,287.29,130.17Z"/><path class="cls-3" d="M238.1,51.72a3.62,3.62,0,0,1,2.85,1.67c3.67,5.06,7.33,10.13,11,15.19,4.1,5.66,8.17,11.34,12.27,17a4,4,0,0,0,3.12,1.95,3.6,3.6,0,0,0,2-.7c1.92-1.31,2.16-3.25.62-5.37-2.76-3.79-5.57-7.53-8.35-11.29-1.16-1.56-1-2.54.62-3.72.22-.18.47-.33.69-.51a3.7,3.7,0,0,1,2-.89c.77,0,1.4.55,2.16,1.67q4,5.78,8.11,11.45A3.42,3.42,0,0,0,278,79.71a3.69,3.69,0,0,0,2.18-.78,3.36,3.36,0,0,0,.69-5.1l-.13-.18c-2.09-2.92-4.28-5.79-6.39-8.69a3.41,3.41,0,0,1,2.76-5.48h0a3.3,3.3,0,0,1,2.09,1.4c2.23,3,4.32,6.06,6.5,9.09a4,4,0,0,0,3.13,1.93,3.6,3.6,0,0,0,2.15-.79c1.78-1.31,2-3.27.53-5.3s-2.69-3.83-4.14-5.7a2,2,0,0,1,.29-3.14c.47-.42,1-.78,1.49-1.16a2.46,2.46,0,0,1,1.4-.52,2.17,2.17,0,0,1,1.72,1.05c.76,1,1.49,2,2.23,3.07q11.19,15.47,22.38,30.94a17.73,17.73,0,0,1-4.05,25.39c-4,2.92-8,5.72-12,8.71a22,22,0,0,1-13.64,4.7,27.86,27.86,0,0,1-6.89-.92,29.64,29.64,0,0,1-16-9.89c-5.23-6.5-9.87-13.47-14.81-20.31a7.66,7.66,0,0,1,2.82-.54,7.87,7.87,0,0,1,6.29,3.19c2,2.69,4,5.48,6,8.22a4.05,4.05,0,0,0,3.19,1.94,3.58,3.58,0,0,0,2.12-.76c1.83-1.34,2-3.3.47-5.41q-8.32-11.59-16.7-23.16L236,57c-1.29-1.8-1.11-3.63.38-4.7a3,3,0,0,1,1.76-.61m0-2h0a5,5,0,0,0-2.94,1c-2.4,1.72-2.74,4.8-.82,7.48l8.89,12.26,8.89,12.25c5.15,7.09,10.61,14.67,16.7,23.16,1.24,1.71.45,2.29,0,2.63a1.64,1.64,0,0,1-.93.37c-.65,0-1.26-.7-1.57-1.12-.78-1.07-1.56-2.15-2.33-3.22-1.19-1.65-2.41-3.36-3.66-5a9.83,9.83,0,0,0-7.88-4,9.63,9.63,0,0,0-3.56.68,2,2,0,0,0-.88,3c1.49,2.07,3,4.18,4.43,6.23,3.32,4.71,6.76,9.59,10.44,14.17a31.79,31.79,0,0,0,17.05,10.57,30,30,0,0,0,7.39,1,24.07,24.07,0,0,0,14.85-5.11c2.46-1.87,5-3.71,7.5-5.49,1.48-1.06,3-2.12,4.43-3.2a19.72,19.72,0,0,0,4.5-28.17c-5-6.89-10-13.87-14.91-20.62l-7.48-10.32c-.74-1-1.48-2.06-2.24-3.09a4.06,4.06,0,0,0-3.33-1.86,4.41,4.41,0,0,0-2.55.88l-.31.23a16.44,16.44,0,0,0-1.37,1.08,4,4,0,0,0-.53,5.85c1.22,1.58,2.4,3.24,3.54,4.85l.55.78c1.15,1.62.34,2.21-.09,2.53a1.76,1.76,0,0,1-1,.4c-.62,0-1.21-.69-1.51-1.1-.81-1.12-1.61-2.26-2.41-3.4-1.33-1.89-2.7-3.84-4.12-5.72a5.08,5.08,0,0,0-3.68-2.2h-.09a5.43,5.43,0,0,0-4.83,3,5.49,5.49,0,0,0,.51,5.66c.87,1.2,1.75,2.37,2.62,3.55,1.24,1.68,2.53,3.41,3.76,5.12l.14.19,0,0a2,2,0,0,1,.47,1.34,1.63,1.63,0,0,1-.71,1,1.76,1.76,0,0,1-1,.4,1.54,1.54,0,0,1-1.16-.74c-2.71-3.71-5.42-7.55-8.09-11.42C268.28,64.8,267.07,63,265,63a5.61,5.61,0,0,0-3.2,1.27l-.08.06-.26.19-.39.29a4.78,4.78,0,0,0-2.13,3A4.68,4.68,0,0,0,260,71.33l2.79,3.76c1.83,2.46,3.72,5,5.55,7.52a2.39,2.39,0,0,1,.61,1.61,1.56,1.56,0,0,1-.75.93,1.76,1.76,0,0,1-.9.35c-.59,0-1.2-.71-1.5-1.13q-3.6-4.95-7.19-9.94l-5.07-7-5.5-7.59-5.5-7.6a5.57,5.57,0,0,0-4.47-2.5Z"/></g></g></svg>