<svg xmlns="http://www.w3.org/2000/svg" viewBox="0 0 422.73 229.88"><defs><style>.cls-1{isolation:isolate;}.cls-2{fill:#fff;}.cls-3{font-size:28px;fill:#0066ae;font-family:ArialMT, Arial;}.cls-4{letter-spacing:-0.07em;}.cls-5{opacity:0.27;mix-blend-mode:multiply;}.cls-6{fill:#2f9622;}.cls-7{fill:none;stroke:#fff;stroke-miterlimit:10;stroke-width:2px;}</style></defs><title>conversion-rate</title><g class="cls-1"><g id="Layer_2" data-name="Layer 2"><g id="Layer_1-2" data-name="Layer 1"><rect class="cls-2" width="330" height="50"/><text class="cls-3" transform="translate(28.19 33.96)">CONVERSION R<tspan class="cls-4" x="216.25" y="0">A</tspan><tspan x="232.85" y="0">TE</tspan></text><g class="cls-5"><path class="cls-6" d="M360,221.77h14.34c12.25,0,15.54-6.64,15.54-25.31V157.87c0-32.93,17-37.85,20.91-41-3.88-2-20.91-6.88-20.91-39.81V38.42c0-18.68-3.29-25.31-15.54-25.31H360V5h14.94c16.73,0,26.29,6.64,26.29,29V73.08c0,19.91,3.88,39.08,21.51,39.81v9.34c-17.63.74-21.51,19.91-21.51,39.81v38.83c0,22.36-9.56,29-26.29,29H360Z"/></g><path class="cls-7" d="M98.46,202.1h-.32a7,7,0,0,1-5.22-2.72l-10.57-13.8-24.89,23.8c26.35.67,53.92-6,55.83-20.06l-9.71,10.54A7,7,0,0,1,98.46,202.1Z"/><path class="cls-7" d="M79.27,158a7,7,0,0,1,4.81-1.93l.54,0a7,7,0,0,1,5,2.71l9.89,12.91,7.78-8.44A52.58,52.58,0,0,0,89,143.55a35,35,0,0,1-55.94,0,52.27,52.27,0,0,0-24.35,44.2c0,8.29,8.61,14.19,20.89,17.73.09-.1.17-.22.27-.31Z"/><circle class="cls-7" cx="61.08" cy="122.45" r="26.93"/><polygon class="cls-7" points="140.49 143.49 121.02 144.29 113.09 152.9 126.82 152.33 99.02 182.52 84.09 163.03 34.74 210.2 40.35 216.08 83.15 175.17 98.45 195.13 132.8 157.84 133.36 171.57 141.29 162.97 140.49 143.49"/><path class="cls-7" d="M299.85,118.94h16.39l-69.5,73.72H230.35Zm-64.34,18.46c0-10.21,10.11-19.69,20.83-19.69,10.11,0,17.12,7.11,17.12,16.29,0,10.31-10.52,19.28-20.93,19.28C242.41,153.27,235.51,146.57,235.51,137.39Zm24.75-2.78c0-2.58-2-4.54-5.15-4.54a6.79,6.79,0,0,0-6.39,6.39c0,2.58,2,4.43,5.16,4.43A6.54,6.54,0,0,0,260.25,134.61Zm34,23.71c10.11,0,17.12,7.12,17.12,16.29,0,10.31-10.52,19.28-20.93,19.28-10.11,0-17-6.7-17-15.88C273.45,167.81,283.56,158.33,294.28,158.33Zm-2.47,23.2a6.54,6.54,0,0,0,6.39-6.29c0-2.58-2-4.54-5.16-4.54a6.79,6.79,0,0,0-6.39,6.39C286.65,179.67,288.61,181.53,291.8,181.53Z"/><path class="cls-7" d="M166,141.73H205.6v10.17H166Zm0,18H205.6v10.16H166Z"/></g></g></g></svg>