<svg xmlns="http://www.w3.org/2000/svg" viewBox="0 0 79.88 82.54"><defs><style>.cls-1{fill:#f8f8f8;stroke:#007dc3;stroke-miterlimit:10;stroke-width:2.36px;}.cls-2{fill:#2f9622;}.cls-3{fill:#ccc;}.cls-4{fill:none;stroke:#fff;stroke-linecap:round;stroke-linejoin:round;stroke-width:6px;}.cls-5{fill:#777;}.cls-6{fill:#fff;}</style></defs><title>icon-mag</title><g id="Layer_2" data-name="Layer 2"><g id="Layer_1-2" data-name="Layer 1"><circle class="cls-1" cx="40.4" cy="41.27" r="38.3"/><circle class="cls-2" cx="40.4" cy="41.27" r="30.34"/><rect class="cls-3" width="0.66" height="5.94"/><rect class="cls-3" x="2.64" y="-2.64" width="0.66" height="5.94" transform="translate(2.64 3.3) rotate(-90)"/><rect class="cls-3" x="76.27" y="79.24" width="0.66" height="5.94" transform="translate(-5.61 158.81) rotate(-90)"/><rect class="cls-3" x="78.91" y="76.6" width="0.66" height="5.94"/><g id="_Group_" data-name="&lt;Group&gt;"><path class="cls-4" d="M56.83,53.63a3,3,0,0,1-4.19,4.2l-8.77-8.77a14.64,14.64,0,0,0,4.4-4Z"/><path class="cls-4" d="M51.06,36.47a14.53,14.53,0,0,1-2.8,8.6L46,42.82a3.18,3.18,0,0,0-.36-.31,11,11,0,1,0-4.34,3.84,2.88,2.88,0,0,0,.5.67l2,2a14.62,14.62,0,1,1-7.43-27.21A14.64,14.64,0,0,1,51.06,36.47Z"/><path class="cls-4" d="M46,42.82l2.25,2.25a14.64,14.64,0,0,1-4.4,4l-2-2a2.88,2.88,0,0,1-.5-.67,11,11,0,0,0,4.34-3.84A3.18,3.18,0,0,1,46,42.82Z"/><path class="cls-4" d="M47.47,36.47a11,11,0,0,1-1.81,6,3,3,0,0,0-4.34,3.84,10.91,10.91,0,0,1-4.88,1.14,11,11,0,1,1,11-11ZM43.92,37a.87.87,0,0,0,.81-.93,7.22,7.22,0,0,0-7.29-7h0a.87.87,0,0,0,0,1.74A5.57,5.57,0,0,1,43,36.22a.87.87,0,0,0,.86.81Z"/><path class="cls-4" d="M44.73,36.09a.87.87,0,0,1-.81.93h-.06a.87.87,0,0,1-.86-.81,5.57,5.57,0,0,0-5.57-5.41.87.87,0,0,1,0-1.74h0A7.22,7.22,0,0,1,44.73,36.09Z"/><path class="cls-5" d="M56.83,53.63a3,3,0,0,1-4.19,4.2l-8.77-8.77a14.64,14.64,0,0,0,4.4-4Z"/><path class="cls-5" d="M51.06,36.47a14.53,14.53,0,0,1-2.8,8.6L46,42.82a3.18,3.18,0,0,0-.36-.31,11,11,0,1,0-4.34,3.84,2.88,2.88,0,0,0,.5.67l2,2a14.62,14.62,0,1,1-7.43-27.21A14.64,14.64,0,0,1,51.06,36.47Z"/><path class="cls-5" d="M46,42.82l2.25,2.25a14.64,14.64,0,0,1-4.4,4l-2-2a2.88,2.88,0,0,1-.5-.67,11,11,0,0,0,4.34-3.84A3.18,3.18,0,0,1,46,42.82Z"/><path class="cls-6" d="M47.47,36.47a11,11,0,0,1-1.81,6,3,3,0,0,0-4.34,3.84,10.91,10.91,0,0,1-4.88,1.14,11,11,0,1,1,11-11ZM43.92,37a.87.87,0,0,0,.81-.93,7.22,7.22,0,0,0-7.29-7h0a.87.87,0,0,0,0,1.74A5.57,5.57,0,0,1,43,36.22a.87.87,0,0,0,.86.81Z"/><path class="cls-5" d="M44.73,36.09a.87.87,0,0,1-.81.93h-.06a.87.87,0,0,1-.86-.81,5.57,5.57,0,0,0-5.57-5.41.87.87,0,0,1,0-1.74h0A7.22,7.22,0,0,1,44.73,36.09Z"/></g></g></g></svg>