<svg xmlns="http://www.w3.org/2000/svg" viewBox="0 0 422.77 273.34"><defs><style>.cls-1{isolation:isolate;}.cls-2{opacity:0.27;mix-blend-mode:multiply;}.cls-3{fill:#2f9622;}.cls-4,.cls-7{fill:#fff;}.cls-5{font-size:28px;fill:#0066ae;font-family:ArialMT, Arial;}.cls-6{fill:none;}.cls-6,.cls-7,.cls-9{stroke:#fff;}.cls-6,.cls-9{stroke-linecap:round;stroke-linejoin:round;stroke-width:2px;}.cls-7{stroke-miterlimit:10;}.cls-8,.cls-9{fill:#64c202;}</style></defs><title>impressions</title><g class="cls-1"><g id="Layer_2" data-name="Layer 2"><g id="Layer_1-2" data-name="Layer 1"><g class="cls-2"><path class="cls-3" d="M360,263.49h14.34c12.25,0,15.54-8.07,15.54-30.77v-46.9c0-40,17-46,20.91-49.89-3.88-2.39-20.91-8.36-20.91-48.4V40.63c0-22.7-3.29-30.77-15.54-30.77H360V0H375c16.73,0,26.29,8.07,26.29,35.25v47.5c0,24.2,3.88,47.5,21.51,48.4V142.5c-17.63.9-21.51,24.2-21.51,48.4v47.2c0,27.19-9.56,35.25-26.29,35.25H360Z"/></g><rect class="cls-4" x="0.04" y="23.62" width="330" height="50"/><text class="cls-5" transform="translate(65.3 57.58)">IMPRESSIONS</text><rect class="cls-6" x="1" y="87.82" width="329.04" height="161.91" rx="5.37" ry="5.37"/><rect class="cls-6" x="72.03" y="102.44" width="125.13" height="17.15"/><rect class="cls-6" x="205.09" y="102.44" width="19.4" height="17.15"/><path class="cls-7" d="M219.5,114.94l-2.45-2.45a4.19,4.19,0,1,0-1.26,1.14l2.51,2.51a.85.85,0,0,0,1.2-1.2Zm-4.43-2.08a3.16,3.16,0,1,1,1.24-1.1A3.13,3.13,0,0,1,215.07,112.86Z"/><rect class="cls-6" x="64.18" y="135.62" width="248.19" height="17.97"/><line class="cls-6" x1="85.13" y1="142.13" x2="198.36" y2="142.13"/><line class="cls-6" x1="85.13" y1="147.07" x2="162.1" y2="147.07"/><rect class="cls-6" x="69.1" y="139.91" width="9.71" height="9.71"/><rect class="cls-6" x="64.18" y="162.13" width="248.19" height="17.97"/><line class="cls-6" x1="85.13" y1="168.64" x2="198.36" y2="168.64"/><line class="cls-6" x1="85.13" y1="173.58" x2="162.1" y2="173.58"/><rect class="cls-6" x="69.1" y="166.42" width="9.71" height="9.71"/><rect class="cls-6" x="64.18" y="188.64" width="248.19" height="17.97"/><line class="cls-6" x1="85.13" y1="195.15" x2="198.36" y2="195.15"/><line class="cls-6" x1="85.13" y1="200.1" x2="162.1" y2="200.1"/><rect class="cls-6" x="69.1" y="192.94" width="9.71" height="9.71"/><rect class="cls-6" x="64.18" y="215.16" width="248.19" height="17.97"/><line class="cls-6" x1="85.13" y1="221.67" x2="198.36" y2="221.67"/><line class="cls-6" x1="85.13" y1="226.61" x2="162.1" y2="226.61"/><rect class="cls-6" x="69.1" y="219.45" width="9.71" height="9.71"/><path class="cls-8" d="M100.82,165.9l25.55,23.74a2.27,2.27,0,0,1-1.41,3.93l-7,.42,4.29,9.17-12.45,5.42L106,199.84l-5.06,5.28A2.27,2.27,0,0,1,97,203.56v-36A2.27,2.27,0,0,1,100.82,165.9Z"/><polygon class="cls-9" points="101 171.53 120.69 189.82 111.89 190.35 116.93 201.13 111.89 203.33 107.21 192.77 101 199.25 101 171.53"/><circle class="cls-6" cx="36.5" cy="118.42" r="7.54"/><path class="cls-6" d="M17.75,118.42s8.4-10.28,18.75-10.28,18.75,10.28,18.75,10.28S46.85,128.7,36.5,128.7,17.75,118.42,17.75,118.42Z"/><circle class="cls-6" cx="36.5" cy="118.42" r="2.56"/><line class="cls-6" x1="22.46" y1="110.58" x2="17.71" y2="104.76"/><line class="cls-6" x1="28.82" y1="106.67" x2="25.66" y2="99.94"/><line class="cls-6" x1="50.08" y1="110.58" x2="54.84" y2="104.76"/><line class="cls-6" x1="43.72" y1="106.67" x2="46.89" y2="99.94"/><line class="cls-6" x1="35.81" y1="105.23" x2="35.81" y2="98.17"/><circle class="cls-6" cx="36.5" cy="167.12" r="7.54"/><path class="cls-6" d="M17.75,167.12s8.4-10.28,18.75-10.28,18.75,10.28,18.75,10.28-8.4,10.28-18.75,10.28S17.75,167.12,17.75,167.12Z"/><circle class="cls-6" cx="36.5" cy="167.12" r="2.56"/><line class="cls-6" x1="22.46" y1="159.28" x2="17.71" y2="153.46"/><line class="cls-6" x1="28.82" y1="155.37" x2="25.66" y2="148.64"/><line class="cls-6" x1="50.08" y1="159.28" x2="54.84" y2="153.46"/><line class="cls-6" x1="43.72" y1="155.37" x2="46.89" y2="148.64"/><line class="cls-6" x1="35.81" y1="153.93" x2="35.81" y2="146.86"/><circle class="cls-6" cx="36.5" cy="215.81" r="7.54"/><path class="cls-6" d="M17.75,215.81s8.4-10.28,18.75-10.28,18.75,10.28,18.75,10.28-8.4,10.28-18.75,10.28S17.75,215.81,17.75,215.81Z"/><circle class="cls-6" cx="36.5" cy="215.81" r="2.56"/><line class="cls-6" x1="22.46" y1="207.98" x2="17.71" y2="202.16"/><line class="cls-6" x1="28.82" y1="204.07" x2="25.66" y2="197.33"/><line class="cls-6" x1="50.08" y1="207.98" x2="54.84" y2="202.16"/><line class="cls-6" x1="43.72" y1="204.07" x2="46.89" y2="197.33"/><line class="cls-6" x1="35.81" y1="202.63" x2="35.81" y2="195.56"/></g></g></g></svg>