<svg xmlns="http://www.w3.org/2000/svg" viewBox="0 0 351.35 189.12"><defs><style>.cls-1,.cls-11,.cls-2,.cls-3,.cls-4,.cls-5,.cls-6{fill:none;}.cls-1,.cls-2,.cls-3,.cls-4,.cls-5,.cls-6,.cls-7{stroke:#64c202;}.cls-1,.cls-11,.cls-4,.cls-5,.cls-7,.cls-8{stroke-linecap:round;stroke-linejoin:round;}.cls-1,.cls-11,.cls-2,.cls-7,.cls-8{stroke-width:2px;}.cls-2,.cls-3,.cls-6{stroke-miterlimit:10;}.cls-3,.cls-4{stroke-width:1.5px;}.cls-5{stroke-width:1.32px;}.cls-6{stroke-width:1.3px;}.cls-7,.cls-8,.cls-9{fill:#fff;}.cls-11,.cls-8{stroke:#2f9622;}.cls-10{fill:#2f9622;}</style></defs><title>optmiize</title><g id="Layer_2" data-name="Layer 2"><g id="Layer_1-2" data-name="Layer 1"><path class="cls-1" d="M69.77,98.82a2.88,2.88,0,0,0-1.94,2.77l0,.33a2.87,2.87,0,0,0,2.22,2.61C69.87,102.66,69.78,100.65,69.77,98.82Z"/><path class="cls-1" d="M195.69,100C194.95,95.65,192,88.25,162,88.25c0,0-15.21-12.5-24.36-14.12-4.31-.76-27.15-5.77-66.9,22.13-2.89,2,0,13.54,0,13.54H78.6C78.6,102.19,83.75,99,90.1,99s11.5,3.22,11.5,10.85H161c0-7.63,5.15-10.85,11.5-10.85s11.5,3.22,11.5,10.85h11.82V100Z"/><path class="cls-1" d="M69.44,106a1.48,1.48,0,0,0-1.2,1.2v1.55c0,.58.78,1.07,1.2,1.07H78.6a13.41,13.41,0,0,1,.51-3.81Z"/><path class="cls-1" d="M195.59,106H183.5a13.4,13.4,0,0,1,.51,3.81h11.58c.42,0,.81-.49.81-1.07V107.2C196.4,106.62,196,106,195.59,106Z"/><path class="cls-1" d="M101.09,106a13.4,13.4,0,0,1,.51,3.81H161a13.41,13.41,0,0,1,.51-3.81Z"/><path class="cls-1" d="M120.78,78.17A81.17,81.17,0,0,0,89.29,90.25h31.49Z"/><path class="cls-1" d="M125.4,90.25h31.52C143.82,77.18,133.6,77.52,133.6,77.52a62.13,62.13,0,0,0-8.2.13Z"/><ellipse class="cls-1" cx="90.17" cy="110.46" rx="7.97" ry="7.52"/><ellipse class="cls-1" cx="172.93" cy="110.46" rx="7.97" ry="7.52"/><path class="cls-1" d="M191.74,97.15c.44-.52.36-.81,1.14-.88a6.43,6.43,0,0,1,1.45,4.53h0v2.78c-1-.21-.76-.57-1.47-1.09C190.71,100.89,190.62,98.51,191.74,97.15Z"/><line class="cls-1" x1="125.4" y1="94.36" x2="136.68" y2="94.36"/><polygon class="cls-1" points="160.83 50.51 93.29 50.51 97.48 43.78 93.29 37.05 160.83 37.05 155.94 43.78 160.83 50.51"/><line class="cls-1" x1="34.59" y1="60.83" x2="83.25" y2="60.83"/><line class="cls-1" x1="99.85" y1="60.83" x2="148.51" y2="60.83"/><line class="cls-1" x1="165.1" y1="60.83" x2="213.76" y2="60.83"/><line class="cls-2" x1="251.61" y1="27.51" x2="1.04" y2="27.51"/><line class="cls-1" x1="19.72" y1="18.44" x2="141.59" y2="18.44"/><line class="cls-1" x1="238.05" y1="15.33" x2="244.34" y2="21.27"/><line class="cls-1" x1="238.05" y1="21.27" x2="244.34" y2="15.33"/><line class="cls-1" x1="229.45" y1="18.44" x2="220.39" y2="18.44"/><rect class="cls-1" x="1" y="9.5" width="250.61" height="175.61" rx="5.37" ry="5.37"/><path class="cls-3" d="M82.3,147.76a6.22,6.22,0,0,0-4.14-3,18.79,18.79,0,0,1-6.85-2.32c-4.08-2.5-6.06-7.7-16.67-7.7h-6c-8.52,0-12.44,7.46-13.51,12.11a21.73,21.73,0,0,0,0,5.44c.08.89.55,1.75,1.5,1.75h2.26a6.43,6.43,0,0,1,12.84,0h14.2a6.43,6.43,0,0,1,12.84,0h2.45c.95,0,1.93-.35,1.93-1.73A12.1,12.1,0,0,0,82.3,147.76Z"/><ellipse class="cls-3" cx="45.27" cy="154.6" rx="3.62" ry="3.42"/><ellipse class="cls-3" cx="72.53" cy="154.6" rx="3.62" ry="3.42"/><path class="cls-3" d="M34.33,148.17c-.47.15-1.49.57-1.49,1.06v.13c0,.5.68.93,1.16,1.07C34,149.7,34.3,148.9,34.33,148.17Z"/><path class="cls-3" d="M80.29,146.36a1.13,1.13,0,0,0-.49,1.59l.49.84a1.28,1.28,0,0,0,1.68.46l.12-.06a1.18,1.18,0,0,0,.54-.57,4.39,4.39,0,0,0-.33-.85A5.77,5.77,0,0,0,81,146.16a1.28,1.28,0,0,0-.56.14Z"/><rect class="cls-4" x="49.79" y="138.22" width="5.57" height="4.51"/><path class="cls-4" d="M46.72,138.06v4.67H42.39C40.34,142.73,42.74,138.21,46.72,138.06Z"/><path class="cls-4" d="M66.15,142.39c-2.64-3.73-7.82-4.33-7.82-4.33v4.79h8C66.38,142.66,66.15,142.39,66.15,142.39Z"/><line class="cls-4" x1="57.2" y1="146.06" x2="60.48" y2="146.06"/><line class="cls-4" x1="49.11" y1="146.06" x2="52.39" y2="146.06"/><path class="cls-3" d="M97.39,149a1.22,1.22,0,0,0-.82,1.17v.14a1.22,1.22,0,0,0,.94,1.1C97.43,150.67,97.39,149.82,97.39,149Z"/><path class="cls-3" d="M150.7,149.55c-.32-1.84-1.54-5-14.26-5,0,0-6.44-5.29-10.31-6-1.83-.32-11.49-2.44-28.32,9.37-1.22.86,0,5.73,0,5.73h3.32c0-3.23,2.18-4.59,4.87-4.59s4.87,1.37,4.87,4.59H136c0-3.23,2.18-4.59,4.87-4.59s4.87,1.37,4.87,4.59h3.83a1.13,1.13,0,0,0,1.16-1.11Z"/><path class="cls-3" d="M97.25,152.09a.63.63,0,0,0-.51.51v.65c0,.25.33.45.51.45h3.88a5.68,5.68,0,0,1,.22-1.61Z"/><path class="cls-3" d="M150.66,152.09h-5.12a5.68,5.68,0,0,1,.22,1.61h4.9c.18,0,.34-.21.34-.45v-.65C151,152.35,150.83,152.09,150.66,152.09Z"/><path class="cls-3" d="M110.65,152.09a5.68,5.68,0,0,1,.22,1.61H136a5.68,5.68,0,0,1,.22-1.61Z"/><path class="cls-5" d="M118.62,141.14a30.27,30.27,0,0,0-11.74,4.51h11.74Z"/><path class="cls-5" d="M121.18,145.65h11.75c-4.88-4.88-8.69-4.75-8.69-4.75a23.17,23.17,0,0,0-3.06,0Z"/><ellipse class="cls-6" cx="140.81" cy="154.22" rx="2.93" ry="2.77"/><ellipse class="cls-6" cx="106.04" cy="154.22" rx="2.93" ry="2.77"/><path class="cls-2" d="M149,148.34a.84.84,0,0,1,.66-.37,3.05,3.05,0,0,1,.79,1.92h0v1.18c-1.15-.09-.5-.24-.8-.46C148.76,149.92,148.55,148.92,149,148.34Z"/><line class="cls-5" x1="121.18" y1="147.18" x2="125.39" y2="147.18"/><path class="cls-3" d="M214.1,147.76a6.22,6.22,0,0,0-4.14-3,18.79,18.79,0,0,1-6.85-2.32c-4.08-2.5-6.06-7.7-16.67-7.7h-6c-8.52,0-12.44,7.46-13.51,12.11a21.73,21.73,0,0,0,0,5.44c.08.89.55,1.75,1.5,1.75h2.26a6.43,6.43,0,0,1,12.84,0h14.2a6.43,6.43,0,0,1,12.84,0H213c.95,0,1.93-.35,1.93-1.73A12.1,12.1,0,0,0,214.1,147.76Z"/><ellipse class="cls-3" cx="177.07" cy="154.6" rx="3.62" ry="3.42"/><ellipse class="cls-3" cx="204.34" cy="154.6" rx="3.62" ry="3.42"/><path class="cls-3" d="M166.14,148.17c-.47.15-1.49.57-1.49,1.06v.13c0,.5.68.93,1.16,1.07C165.77,149.7,166.11,148.9,166.14,148.17Z"/><path class="cls-3" d="M212.09,146.36a1.13,1.13,0,0,0-.49,1.59l.49.84a1.28,1.28,0,0,0,1.68.46l.12-.06a1.18,1.18,0,0,0,.54-.57,4.39,4.39,0,0,0-.33-.85,5.77,5.77,0,0,0-1.33-1.61,1.28,1.28,0,0,0-.56.14Z"/><rect class="cls-4" x="181.59" y="138.22" width="5.57" height="4.51"/><path class="cls-4" d="M178.52,138.06v4.67H174.2C172.14,142.73,174.54,138.21,178.52,138.06Z"/><path class="cls-4" d="M198,142.39c-2.64-3.73-7.82-4.33-7.82-4.33v4.79h8C198.18,142.66,198,142.39,198,142.39Z"/><line class="cls-4" x1="189" y1="146.06" x2="192.28" y2="146.06"/><line class="cls-4" x1="180.91" y1="146.06" x2="184.19" y2="146.06"/><polygon class="cls-4" points="231.56 136.77 231.56 154.12 239.9 145.88 231.56 136.77"/><polygon class="cls-4" points="25.59 154.12 25.59 136.77 17.26 145.01 25.59 154.12"/><line class="cls-4" x1="31.21" y1="168.91" x2="227.16" y2="168.91"/><line class="cls-4" x1="31.21" y1="177.06" x2="227.16" y2="177.06"/><path class="cls-7" d="M306.27,1a44.08,44.08,0,0,0-44.08,44.08c0,1.26.07,2.5.17,3.72l-18,12.5,19.73-3.45A44.08,44.08,0,1,0,306.27,1Z"/><path class="cls-7" d="M306.27,100A44.08,44.08,0,0,0,262.19,144c0,1.26.07,2.5.17,3.72l-18-3.72,19.73,12.77A44.08,44.08,0,1,0,306.27,100Z"/><g id="_Group_" data-name="&lt;Group&gt;"><path class="cls-8" d="M311.66,126.61a1.71,1.71,0,0,1-.34,2.46c-1.23.94-2.5,1.81-3.75,2.72s-2.28,1.67-3.43,2.48a1.78,1.78,0,1,1-2.12-2.86q3.56-2.63,7.17-5.19A1.75,1.75,0,0,1,311.66,126.61Z"/><path class="cls-8" d="M298.75,118.68a1.8,1.8,0,0,1,1.48,2.3c-.44,2.81-.88,5.62-1.36,8.43a4.87,4.87,0,0,1-.53,1.2,1.93,1.93,0,0,1-2.17.19,1.69,1.69,0,0,1-.83-1.8c.16-1.21.38-2.42.57-3.62.26-1.66.52-3.31.8-5A1.79,1.79,0,0,1,298.75,118.68Z"/><path class="cls-8" d="M291.69,129.68a1.84,1.84,0,0,1-.32,2.67,1.81,1.81,0,0,1-2.61-.61c-.85-1.15-1.69-2.32-2.53-3.49l-2.48-3.42a1.8,1.8,0,1,1,2.88-2.13Q289.17,126.18,291.69,129.68Z"/><path class="cls-8" d="M289.73,142.46a1.76,1.76,0,0,1-.52,2.62c-1.17.89-2.37,1.73-3.56,2.58s-2.29,1.67-3.44,2.48a1.78,1.78,0,1,1-2.09-2.88q3.48-2.56,7-5.06A1.77,1.77,0,0,1,289.73,142.46Z"/><path class="cls-8" d="M288.44,136.44a1.84,1.84,0,0,1-.88,2,4.59,4.59,0,0,1-1.26.13c-2.87-.42-5.73-.9-8.6-1.37a1.77,1.77,0,0,1-1.59-2.06,1.75,1.75,0,0,1,2.15-1.47c2.89.45,5.78.93,8.67,1.39A1.72,1.72,0,0,1,288.44,136.44Z"/></g><path class="cls-9" d="M318.94,174.46a14.25,14.25,0,0,1-3.51-.46,15.1,15.1,0,0,1-8.11-5c-1.75-2.17-3.38-4.48-5-6.71-.69-1-1.39-2-2.1-3a1,1,0,0,1,.44-1.52,4.61,4.61,0,0,1,1.71-.33,4.71,4.71,0,0,1,3.77,1.91c.59.79,1.17,1.58,1.74,2.39l1.1,1.52a1,1,0,0,0,.7.51.73.73,0,0,0,.41-.17c.22-.16.56-.41,0-1.17q-3.94-5.5-7.91-11l-8.42-11.6a2.47,2.47,0,0,1,.41-3.63,2.4,2.4,0,0,1,1.42-.47,2.68,2.68,0,0,1,2.16,1.2l5.21,7.2,2.46,3.4,3.35,4.63c.24.32.48.51.67.51a.79.79,0,0,0,.4-.16.73.73,0,0,0,.33-.4,1.11,1.11,0,0,0-.28-.73c-.88-1.21-1.77-2.4-2.66-3.6L306,146.09a2.26,2.26,0,0,1-.53-1.69,2.33,2.33,0,0,1,1-1.48l.29-.21a2.76,2.76,0,0,1,1.59-.64,2.35,2.35,0,0,1,1.85,1.23c1.26,1.84,2.55,3.65,3.82,5.39a.69.69,0,0,0,.51.34.77.77,0,0,0,.44-.17.74.74,0,0,0,.32-.43.86.86,0,0,0-.21-.59l-.08-.11c-.57-.8-1.17-1.6-1.77-2.41L312,143.64a2.66,2.66,0,0,1-.25-2.74,2.63,2.63,0,0,1,2.34-1.44h0a2.47,2.47,0,0,1,1.83,1.07c.66.88,1.3,1.79,1.95,2.71l1.14,1.6c.23.31.47.5.67.5a.78.78,0,0,0,.42-.18c.21-.15.55-.41,0-1.13l-.27-.38c-.54-.77-1.09-1.54-1.67-2.29a1.94,1.94,0,0,1,.26-2.84,8.13,8.13,0,0,1,.65-.51l.13-.09a2.17,2.17,0,0,1,1.26-.44,2,2,0,0,1,1.62.91l1,1.35,3.62,5q3.54,4.88,7.07,9.77a9.41,9.41,0,0,1-.76,12.26,9.59,9.59,0,0,1-1.39,1.17l-2.11,1.52c-1.19.85-2.37,1.7-3.53,2.58A11.45,11.45,0,0,1,318.94,174.46Z"/><path class="cls-10" d="M295.64,136.77a1.72,1.72,0,0,1,1.35.79l5.21,7.2c1.94,2.68,3.87,5.37,5.81,8a1.89,1.89,0,0,0,1.48.92,1.7,1.7,0,0,0,1-.33,1.62,1.62,0,0,0,.3-2.54c-1.31-1.79-2.64-3.57-4-5.35-.55-.74-.47-1.2.3-1.76l.33-.24a1.75,1.75,0,0,1,1-.42c.37,0,.66.26,1,.79q1.88,2.74,3.84,5.42a1.62,1.62,0,0,0,1.32.75,1.75,1.75,0,0,0,1-.37,1.59,1.59,0,0,0,.33-2.42l-.06-.08c-1-1.38-2-2.74-3-4.11a1.61,1.61,0,0,1,1.31-2.6h0a1.56,1.56,0,0,1,1,.66c1.06,1.4,2,2.87,3.08,4.3a1.88,1.88,0,0,0,1.48.91,1.71,1.71,0,0,0,1-.37,1.65,1.65,0,0,0,.25-2.51c-.64-.91-1.28-1.81-2-2.7a1,1,0,0,1,.14-1.49c.22-.2.46-.37.71-.55a1.16,1.16,0,0,1,.66-.25,1,1,0,0,1,.82.5l1.06,1.46q5.3,7.33,10.6,14.65a8.4,8.4,0,0,1-1.92,12c-1.89,1.38-3.81,2.71-5.67,4.13a10.41,10.41,0,0,1-6.46,2.23,13.19,13.19,0,0,1-3.27-.43,14,14,0,0,1-7.58-4.68c-2.48-3.08-4.67-6.38-7-9.62a3.63,3.63,0,0,1,1.34-.26,3.73,3.73,0,0,1,3,1.51c1,1.28,1.88,2.6,2.83,3.89a1.92,1.92,0,0,0,1.51.92,1.69,1.69,0,0,0,1-.36,1.66,1.66,0,0,0,.22-2.56q-3.94-5.49-7.91-11l-8.42-11.61a1.48,1.48,0,0,1,.18-2.23,1.4,1.4,0,0,1,.83-.29m0-2h0a3.4,3.4,0,0,0-2,.67,3.46,3.46,0,0,0-.62,5l4.22,5.82,4.21,5.8,3.66,5.07a5.65,5.65,0,0,0-4.74-.27,2,2,0,0,0-.88,3c.71,1,1.4,2,2.09,2.94,1.58,2.25,3.22,4.57,5,6.76a16.1,16.1,0,0,0,8.64,5.37,15.26,15.26,0,0,0,3.76.5,12.43,12.43,0,0,0,7.67-2.64c1.15-.88,2.36-1.75,3.53-2.59l2.1-1.52a10.4,10.4,0,0,0,2.36-14.81q-3.52-4.9-7.07-9.77L324,139.25l-1.07-1.47a3,3,0,0,0-2.42-1.31,3.12,3.12,0,0,0-1.81.61l-.17.12a8.62,8.62,0,0,0-.73.58,3,3,0,0,0-1.09,2.11,3.41,3.41,0,0,0-2.57-1.44h-.08a3.65,3.65,0,0,0-3.19,2,3.57,3.57,0,0,0-.38,1.59,2.92,2.92,0,0,0-2.12-1,3.68,3.68,0,0,0-2.13.8l-.08.06-.08.05-.21.15a3.3,3.3,0,0,0-1.41,2.12c0,.06,0,.13,0,.19l-.62-.86-2.6-3.6-2.61-3.6a3.71,3.71,0,0,0-3-1.62Z"/><circle class="cls-11" cx="306.27" cy="48.31" r="9.53"/><path class="cls-11" d="M282.57,48.31s10.61-13,23.7-13,23.7,13,23.7,13-10.61,13-23.7,13S282.57,48.31,282.57,48.31Z"/><circle class="cls-11" cx="306.27" cy="48.31" r="3.23"/><line class="cls-11" x1="288.53" y1="38.41" x2="282.53" y2="31.05"/><line class="cls-11" x1="296.57" y1="33.47" x2="292.57" y2="24.96"/><line class="cls-11" x1="323.44" y1="38.41" x2="329.45" y2="31.05"/><line class="cls-11" x1="315.4" y1="33.47" x2="319.4" y2="24.96"/><line class="cls-11" x1="305.4" y1="31.65" x2="305.4" y2="22.72"/><path class="cls-11" d="M275,69.81"/></g></g></svg>