<svg xmlns="http://www.w3.org/2000/svg" viewBox="0 0 372.48 300.67"><defs><style>.cls-1{isolation:isolate;}.cls-13,.cls-14,.cls-2{fill:#2f9622;}.cls-3{fill:#fff;}.cls-4{opacity:0.41;}.cls-10,.cls-11,.cls-12,.cls-15,.cls-5,.cls-6,.cls-7,.cls-8,.cls-9{fill:none;}.cls-10,.cls-11,.cls-12,.cls-13,.cls-15,.cls-5,.cls-6,.cls-7,.cls-8,.cls-9{stroke:#fff;}.cls-11,.cls-12,.cls-13,.cls-5,.cls-8,.cls-9{stroke-linecap:round;stroke-linejoin:round;}.cls-5,.cls-6{stroke-width:2.2px;}.cls-10,.cls-15,.cls-6,.cls-7{stroke-miterlimit:10;}.cls-7,.cls-8{stroke-width:1.65px;}.cls-9{stroke-width:1.45px;}.cls-10{stroke-width:1.44px;}.cls-11,.cls-13{stroke-width:2px;}.cls-12{stroke-width:1.21px;}.cls-14,.cls-16{opacity:0.45;mix-blend-mode:multiply;}</style></defs><title>sale</title><g class="cls-1"><g id="Layer_2" data-name="Layer 2"><g id="Layer_1-2" data-name="Layer 1"><path class="cls-2" d="M30.73,137.19a8.8,8.8,0,0,1-7.71-13L41.72,90,19.18,57.75l0,0a2.14,2.14,0,0,1-.62-.63l-3.88-6a2.23,2.23,0,0,1,3.58-2.66l4.64,5.45a1,1,0,0,1,.13.2L52.1,83.41a5.42,5.42,0,0,1,2.57,6.7L39,131.51a9.79,9.79,0,0,1-.51,1.1,8.8,8.8,0,0,1-7.72,4.57Z"/><path class="cls-3" d="M16.51,48.64a1.23,1.23,0,0,1,.94.43l4.64,5.45L21.56,54,51.51,84.23a4.4,4.4,0,0,1,2.23,5.52l-.24.63L38,131.16a8.57,8.57,0,0,1-.45,1,7.79,7.79,0,0,1-13.67-7.49l19-34.71L19.89,57l-.21-.14a1.15,1.15,0,0,1-.33-.33l-3.88-6a1.23,1.23,0,0,1,1-1.9m0-2h0a3.23,3.23,0,0,0-2.72,5l3.88,6a3.13,3.13,0,0,0,.79.84L40.55,90.07l-18.4,33.62a9.79,9.79,0,1,0,17.18,9.41,10.57,10.57,0,0,0,.56-1.21L55.37,91.1l.24-.63a6.43,6.43,0,0,0-2.9-7.87L23.79,53.45a2,2,0,0,0-.17-.23L19,47.77a3.23,3.23,0,0,0-2.46-1.14Z"/><path class="cls-2" d="M46.89,190.78c-5.68,0-10.17-2.94-13-8.49-3.92-7.73-15.26-62.15-15.75-64.46a1,1,0,0,1,.53-1.1l4.37-2.21a1,1,0,0,1,1.21.24c1.53,1.79,37.41,44,41.23,51.52,4.41,8.7,1.13,16.88-8.76,21.89a21.9,21.9,0,0,1-9.85,2.61Z"/><path class="cls-3" d="M23.51,115.41s37.29,43.81,41.1,51.32c4.6,9.07-.09,16.37-8.32,20.54a21.1,21.1,0,0,1-9.4,2.5c-4.87,0-9.26-2.35-12.09-7.95-3.9-7.7-15.66-64.21-15.66-64.21l4.37-2.21m0-2a2,2,0,0,0-.9.22l-4.37,2.21A2,2,0,0,0,17.18,118C17.67,120.35,29,174.9,33,182.74c3.79,7.47,9.64,9,13.88,9a22.89,22.89,0,0,0,10.3-2.72c10.29-5.22,13.82-14.12,9.2-23.23-3.87-7.64-39.83-49.92-41.36-51.71a2,2,0,0,0-1.52-.7Z"/><path class="cls-2" d="M340.08,75a8.8,8.8,0,0,1-2.7-.43,9.29,9.29,0,0,1-1.12-.45L296.37,54.86a5.42,5.42,0,0,1-2.74-6.62l.1-37.44a1,1,0,0,1-.06-.29l-.37-7.15A2.23,2.23,0,0,1,295.41,1h.12a2.23,2.23,0,0,1,2.19,1.82l1.32,7a2.13,2.13,0,0,1,0,.88v0l6.66,35.1,37.1,11.95A8.8,8.8,0,0,1,340.08,75Z"/><path class="cls-3" d="M295.52,2a1.23,1.23,0,0,1,1.21,1l1.32,7a1.15,1.15,0,0,1,0,.47l-.06.24,6.81,35.89,37.66,12.13a7.79,7.79,0,1,1-4.78,14.84,8.58,8.58,0,0,1-1-.4l-39.28-19-.6-.29a4.4,4.4,0,0,1-2.18-5.54l.1-38.67-.06.71-.38-7.15A1.23,1.23,0,0,1,295.46,2h.07m0-2h-.17a3.23,3.23,0,0,0-3.06,3.4l.38,7.15a2,2,0,0,0,.06.39l-.1,37.14a6.43,6.43,0,0,0,3.31,7.69l.6.29,39.28,19a10.63,10.63,0,0,0,1.25.5,9.79,9.79,0,1,0,6-18.65L306.55,45.1,300,10.78a3.14,3.14,0,0,0,0-1.11l-1.32-7A3.23,3.23,0,0,0,295.52,0Z"/><path class="cls-2" d="M335.78,130.33a26.52,26.52,0,0,1-4.62-.42c-10.92-1.94-16.42-8.83-14.71-18.42,1.48-8.32,23.64-59.08,24.58-61.23a1,1,0,0,1,.92-.6l.17,0,4.82.86a1,1,0,0,1,.82.9c.21,2.35,5.07,57.73,3.55,66.26C349.89,125.72,344.22,130.33,335.78,130.33Z"/><path class="cls-3" d="M341.95,50.65l4.82.86s5.07,57.5,3.57,66c-1.48,8.34-7.37,11.83-14.55,11.83a25.49,25.49,0,0,1-4.45-.41c-9.09-1.61-15.68-7.25-13.9-17.26,1.47-8.3,24.52-61,24.52-61m0-2a2,2,0,0,0-1.83,1.2c-.94,2.16-23.15,53-24.65,61.46-.94,5.3.22,10,3.36,13.46,2.76,3.08,7,5.19,12.17,6.12a27.55,27.55,0,0,0,4.8.44c9,0,15-4.91,16.52-13.48S349,53.69,348.76,51.33a2,2,0,0,0-1.64-1.79l-4.82-.86a2,2,0,0,0-.35,0Z"/><rect class="cls-2" x="54.47" y="54.07" width="265.83" height="165.33"/><g class="cls-4"><polygon class="cls-5" points="208.72 99.35 164.82 99.35 167.55 94.72 164.82 90.08 208.72 90.08 205.54 94.72 208.72 99.35"/><line class="cls-5" x1="85.71" y1="106.45" x2="117.33" y2="106.45"/><line class="cls-5" x1="128.11" y1="106.45" x2="159.74" y2="106.45"/><line class="cls-5" x1="170.52" y1="106.45" x2="202.14" y2="106.45"/><line class="cls-5" x1="212.93" y1="106.45" x2="244.55" y2="106.45"/><line class="cls-5" x1="255.34" y1="106.45" x2="286.96" y2="106.45"/><line class="cls-6" x1="309.66" y1="78" x2="63.91" y2="78"/><line class="cls-5" x1="76.05" y1="71.75" x2="155.24" y2="71.75"/><line class="cls-5" x1="299.75" y1="69.61" x2="303.84" y2="73.71"/><line class="cls-5" x1="299.75" y1="73.71" x2="303.84" y2="69.61"/><line class="cls-5" x1="294.16" y1="71.75" x2="288.27" y2="71.75"/><rect class="cls-5" x="63.88" y="64.5" width="245.78" height="139.66" rx="5.37" ry="5.37"/><path class="cls-7" d="M116.71,180.18a4.08,4.08,0,0,0-2.69-2.07,11.74,11.74,0,0,1-4.45-1.6c-2.65-1.72-3.94-5.3-10.84-5.3h-3.9c-5.54,0-8.08,5.14-8.78,8.34a15.85,15.85,0,0,0,0,3.74c.05.61.36,1.21,1,1.21H88.5a4.17,4.17,0,0,1,8.34,0h9.23a4.17,4.17,0,0,1,8.34,0H116a1.1,1.1,0,0,0,1.25-1.19A8.77,8.77,0,0,0,116.71,180.18Z"/><circle class="cls-7" cx="92.65" cy="184.89" r="2.35"/><circle class="cls-7" cx="110.36" cy="184.89" r="2.35"/><path class="cls-7" d="M85.54,180.47c-.3.11-1,.39-1,.73v.09c0,.35.44.64.76.74C85.3,181.52,85.52,181,85.54,180.47Z"/><path class="cls-7" d="M115.4,179.22a.8.8,0,0,0-.32,1.09l.32.58a.8.8,0,0,0,1.09.32l.08,0a.8.8,0,0,0,.35-.39,3.13,3.13,0,0,0-.21-.59,3.94,3.94,0,0,0-.86-1.11.79.79,0,0,0-.36.1Z"/><rect class="cls-8" x="95.58" y="173.62" width="3.62" height="3.1"/><path class="cls-8" d="M93.59,173.5v3.22H90.78C89.44,176.72,91,173.61,93.59,173.5Z"/><path class="cls-8" d="M106.22,176.48a7.83,7.83,0,0,0-5.08-3v3.3h5.19C106.37,176.68,106.22,176.48,106.22,176.48Z"/><line class="cls-8" x1="100.4" y1="179.01" x2="102.53" y2="179.01"/><line class="cls-8" x1="95.14" y1="179.01" x2="97.27" y2="179.01"/><path class="cls-7" d="M126.51,181.07a.84.84,0,0,0-.53.81V182a.83.83,0,0,0,.61.76C126.54,182.19,126.52,181.61,126.51,181.07Z"/><path class="cls-7" d="M161.16,181.42c-.2-1.27-1-3.43-9.27-3.43,0,0-4.18-3.65-6.7-4.12-1.19-.22-7.47-1.68-18.41,6.45-.8.59,0,3.95,0,3.95h2.16a3.16,3.16,0,0,1,6.33,0h16.35a3.16,3.16,0,0,1,6.33,0h2.49a.75.75,0,0,0,.75-.76Z"/><path class="cls-7" d="M126.43,183.17a.42.42,0,0,0-.33.35V184a.38.38,0,0,0,.33.31h2.52a4.13,4.13,0,0,1,.14-1.11Z"/><path class="cls-7" d="M161.13,183.17h-3.33a4.13,4.13,0,0,1,.14,1.11h3.19c.11,0,.22-.14.22-.31v-.45C161.36,183.35,161.25,183.17,161.13,183.17Z"/><path class="cls-7" d="M135.13,183.17a4.13,4.13,0,0,1,.14,1.11h16.35a4.13,4.13,0,0,1,.14-1.11Z"/><path class="cls-9" d="M140.31,175.63a19.09,19.09,0,0,0-7.63,3.1h7.63Z"/><path class="cls-9" d="M142,178.73h7.64c-3.17-3.36-5.65-3.27-5.65-3.27a14.21,14.21,0,0,0-2,0Z"/><circle class="cls-10" cx="154.73" cy="184.63" r="1.91"/><circle class="cls-10" cx="132.14" cy="184.63" r="1.91"/><path class="cls-6" d="M160.07,180.59a.54.54,0,0,1,.43-.26,2.17,2.17,0,0,1,.51,1.32h0v.81c-.75-.06-.32-.17-.52-.32A1.16,1.16,0,0,1,160.07,180.59Z"/><line class="cls-9" x1="141.98" y1="179.78" x2="144.71" y2="179.78"/><path class="cls-7" d="M202.36,180.18a4.08,4.08,0,0,0-2.69-2.07,11.74,11.74,0,0,1-4.45-1.6c-2.65-1.72-3.94-5.3-10.84-5.3h-3.9c-5.54,0-8.08,5.14-8.78,8.34a15.85,15.85,0,0,0,0,3.74c.05.61.36,1.21,1,1.21h1.47a4.17,4.17,0,0,1,8.34,0h9.23a4.17,4.17,0,0,1,8.34,0h1.6a1.1,1.1,0,0,0,1.25-1.19A8.77,8.77,0,0,0,202.36,180.18Z"/><circle class="cls-7" cx="178.3" cy="184.89" r="2.35"/><circle class="cls-7" cx="196.02" cy="184.89" r="2.35"/><path class="cls-7" d="M171.19,180.47c-.3.11-1,.39-1,.73v.09c0,.35.44.64.76.74C171,181.52,171.17,181,171.19,180.47Z"/><path class="cls-7" d="M201.06,179.22a.8.8,0,0,0-.32,1.09l.32.58a.8.8,0,0,0,1.09.32l.08,0a.8.8,0,0,0,.35-.39,3.13,3.13,0,0,0-.21-.59,3.94,3.94,0,0,0-.86-1.11.79.79,0,0,0-.36.1Z"/><rect class="cls-8" x="181.23" y="173.62" width="3.62" height="3.1"/><path class="cls-8" d="M179.24,173.5v3.22h-2.81C175.1,176.72,176.65,173.61,179.24,173.5Z"/><path class="cls-8" d="M191.87,176.48a7.83,7.83,0,0,0-5.08-3v3.3H192C192,176.68,191.87,176.48,191.87,176.48Z"/><line class="cls-8" x1="186.05" y1="179.01" x2="188.19" y2="179.01"/><line class="cls-8" x1="180.79" y1="179.01" x2="182.93" y2="179.01"/><path class="cls-7" d="M245.19,180.18a4.08,4.08,0,0,0-2.69-2.07,11.74,11.74,0,0,1-4.45-1.6c-2.65-1.72-3.94-5.3-10.84-5.3h-3.9c-5.54,0-8.08,5.14-8.78,8.34a15.85,15.85,0,0,0,0,3.74c.05.61.36,1.21,1,1.21H217a4.17,4.17,0,0,1,8.34,0h9.23a4.17,4.17,0,0,1,8.34,0h1.6a1.1,1.1,0,0,0,1.25-1.19A8.77,8.77,0,0,0,245.19,180.18Z"/><circle class="cls-7" cx="221.13" cy="184.89" r="2.35"/><circle class="cls-7" cx="238.84" cy="184.89" r="2.35"/><path class="cls-7" d="M214,180.47c-.3.11-1,.39-1,.73v.09c0,.35.44.64.76.74C213.78,181.52,214,181,214,180.47Z"/><path class="cls-7" d="M243.88,179.22a.8.8,0,0,0-.32,1.09l.32.58a.8.8,0,0,0,1.09.32l.08,0a.8.8,0,0,0,.35-.39,3.13,3.13,0,0,0-.21-.59,3.94,3.94,0,0,0-.86-1.11.79.79,0,0,0-.36.1Z"/><rect class="cls-8" x="224.06" y="173.62" width="3.62" height="3.1"/><path class="cls-8" d="M222.07,173.5v3.22h-2.81C217.92,176.72,219.48,173.61,222.07,173.5Z"/><path class="cls-8" d="M234.7,176.48a7.83,7.83,0,0,0-5.08-3v3.3h5.19C234.85,176.68,234.7,176.48,234.7,176.48Z"/><line class="cls-8" x1="228.88" y1="179.01" x2="231.01" y2="179.01"/><line class="cls-8" x1="223.62" y1="179.01" x2="225.75" y2="179.01"/><path class="cls-7" d="M288,180.18a4.08,4.08,0,0,0-2.69-2.07,11.74,11.74,0,0,1-4.45-1.6c-2.65-1.72-3.94-5.3-10.84-5.3h-3.9c-5.54,0-8.08,5.14-8.78,8.34a15.85,15.85,0,0,0,0,3.74c.05.61.36,1.21,1,1.21h1.47a4.17,4.17,0,0,1,8.34,0h9.23a4.17,4.17,0,0,1,8.34,0h1.6a1.1,1.1,0,0,0,1.25-1.19A8.77,8.77,0,0,0,288,180.18Z"/><circle class="cls-7" cx="263.95" cy="184.89" r="2.35"/><circle class="cls-7" cx="281.67" cy="184.89" r="2.35"/><path class="cls-7" d="M256.85,180.47c-.3.11-1,.39-1,.73v.09c0,.35.44.64.76.74C256.61,181.52,256.83,181,256.85,180.47Z"/><path class="cls-7" d="M286.71,179.22a.8.8,0,0,0-.32,1.09l.32.58a.8.8,0,0,0,1.09.32l.08,0a.8.8,0,0,0,.35-.39,3.13,3.13,0,0,0-.21-.59,3.94,3.94,0,0,0-.86-1.11.79.79,0,0,0-.36.1Z"/><rect class="cls-8" x="266.89" y="173.62" width="3.62" height="3.1"/><path class="cls-8" d="M264.89,173.5v3.22h-2.81C260.75,176.72,262.31,173.61,264.89,173.5Z"/><path class="cls-8" d="M277.52,176.48a7.83,7.83,0,0,0-5.08-3v3.3h5.19C277.67,176.68,277.52,176.48,277.52,176.48Z"/><line class="cls-8" x1="271.71" y1="179.01" x2="273.84" y2="179.01"/><line class="cls-8" x1="266.45" y1="179.01" x2="268.58" y2="179.01"/><polygon class="cls-8" points="295.88 172.61 295.88 184.56 301.3 178.89 295.88 172.61"/><polygon class="cls-8" points="79.86 184.56 79.86 172.61 74.44 178.29 79.86 184.56"/><path class="cls-5" d="M85.9,144.62a2,2,0,0,0-1.26,1.91v.22a2,2,0,0,0,1.44,1.8C86,147.26,85.91,145.88,85.9,144.62Z"/><path class="cls-5" d="M167.74,145.44c-.48-3-2.37-8.1-21.89-8.1,0,0-9.88-8.61-15.83-9.72-2.8-.52-17.64-4-43.47,15.24-1.88,1.4,0,9.33,0,9.33h5.1c0-5.25,3.35-7.47,7.47-7.47s7.47,2.22,7.47,7.47H145.2c0-5.25,3.35-7.47,7.47-7.47s7.47,2.22,7.47,7.47h7.68v-6.75Z"/><path class="cls-5" d="M85.69,149.57a1,1,0,0,0-.78.82v1.06a.89.89,0,0,0,.78.74h6a9.75,9.75,0,0,1,.33-2.63Z"/><path class="cls-5" d="M167.67,149.57h-7.86a9.75,9.75,0,0,1,.33,2.63h7.53c.27,0,.53-.34.53-.74v-1.06C168.2,150,167.94,149.57,167.67,149.57Z"/><path class="cls-5" d="M106.26,149.57a9.75,9.75,0,0,1,.33,2.63H145.2a9.75,9.75,0,0,1,.33-2.63Z"/><path class="cls-5" d="M119.05,130.4a51.18,51.18,0,0,0-20.46,8.32h20.46Z"/><path class="cls-5" d="M122.06,138.72h20.48c-8.51-9-15.15-8.77-15.15-8.77a38.11,38.11,0,0,0-5.33.09Z"/><circle class="cls-5" cx="99.16" cy="152.64" r="5.18"/><circle class="cls-5" cx="152.95" cy="152.64" r="5.18"/><path class="cls-11" d="M165.17,143.47c.28-.36.4-.56.9-.61a4.92,4.92,0,0,1,1.11,3.12h0v1.91c0-.15-.66-.39-1.12-.75C164.66,146,164.44,144.4,165.17,143.47Z"/><line class="cls-5" x1="122.06" y1="141.55" x2="129.39" y2="141.55"/><line class="cls-12" x1="184.06" y1="136.89" x2="294" y2="136.89"/><line class="cls-12" x1="184.06" y1="142.58" x2="294" y2="142.58"/><line class="cls-12" x1="184.06" y1="148.22" x2="294" y2="148.22"/><line class="cls-12" x1="184.06" y1="153.87" x2="294" y2="153.87"/><rect class="cls-12" x="182.93" y="123.44" width="51.89" height="7.85"/></g><g id="NwQjFu.tif"><path class="cls-13" d="M187.58,42.27H302.91q16.14,0,24.27,13.93A25,25,0,0,1,330.41,69q0,76.53,0,153.07a26.36,26.36,0,0,1-19.67,25.72,34.33,34.33,0,0,1-8.76.88q-114.67.07-229.33,0c-7.38,0-14.18-1.61-19.83-6.88-5.08-4.74-8.56-10.4-8.58-17.31q-.23-78.94,0-157.88c0-9.62,7.92-19.83,17.1-22.48a41.55,41.55,0,0,1,11.22-1.75C110.86,42.23,149.22,42.27,187.58,42.27Zm-.86,174.08c38.61,0,77.23-.07,115.84.05a13.78,13.78,0,0,0,14.23-13.59c-.14-44.94-.07-89.89-.1-134.83a13.36,13.36,0,0,0-.62-4.45c-2.21-6.14-6.85-9.06-14.1-9.06H71.62c-.45,0-.89,0-1.34,0-8.43.32-13.49,6.39-13.47,13.45.12,45,0,90.07.08,135.1a13.09,13.09,0,0,0,.67,4.7c2.41,6.1,7.16,8.64,13.58,8.64Q128.93,216.33,186.71,216.36Zm.52,22.5c3.69,0,6.19-2.67,6.55-6.32.32-3.3-3.18-6.83-6.59-6.62a6.62,6.62,0,0,0-6.44,6.45A6.27,6.27,0,0,0,187.23,238.86Z"/></g><rect class="cls-13" x="162.53" y="253.64" width="49.51" height="32.38"/><rect class="cls-13" x="148.48" y="290.57" width="77.61" height="9.1"/><rect class="cls-3" x="67.1" y="296.23" width="5.82" height="1.67"/><rect class="cls-3" x="74.08" y="296.27" width="1.53" height="1.73"/><rect class="cls-3" x="76.77" y="296.27" width="1.53" height="1.73"/><rect class="cls-3" x="79.46" y="296.27" width="1.53" height="1.73"/><rect class="cls-3" x="85.29" y="296.23" width="13.71" height="1.67"/><rect class="cls-3" x="100.17" y="296.27" width="1.53" height="1.73"/><rect class="cls-3" x="104.38" y="296.27" width="1.53" height="1.73"/><rect class="cls-3" x="117.79" y="296.27" width="1.53" height="1.73"/><rect class="cls-3" x="123.61" y="296.23" width="13.71" height="1.67"/><rect class="cls-3" x="296.51" y="296.34" width="5.82" height="1.67"/><rect class="cls-3" x="293.81" y="296.23" width="1.53" height="1.73" transform="translate(589.15 594.2) rotate(180)"/><rect class="cls-3" x="291.12" y="296.23" width="1.53" height="1.73" transform="translate(583.78 594.2) rotate(180)"/><rect class="cls-3" x="288.44" y="296.23" width="1.53" height="1.73" transform="translate(578.4 594.2) rotate(180)"/><rect class="cls-3" x="270.42" y="296.34" width="13.71" height="1.67"/><rect class="cls-3" x="267.73" y="296.23" width="1.53" height="1.73" transform="translate(536.98 594.2) rotate(180)"/><rect class="cls-3" x="263.51" y="296.23" width="1.53" height="1.73" transform="translate(528.55 594.2) rotate(180)"/><rect class="cls-3" x="250.11" y="296.23" width="1.53" height="1.73" transform="translate(501.74 594.2) rotate(180)"/><rect class="cls-3" x="232.1" y="296.34" width="13.71" height="1.67"/><rect class="cls-14" x="34.93" y="158.76" width="100.9" height="64.53" transform="translate(-73.14 54.46) rotate(-25.17)"/><rect class="cls-13" x="37.17" y="151.61" width="100.9" height="64.53" transform="translate(-69.89 54.73) rotate(-25.17)"/><path class="cls-15" d="M56.16,203s3.44,1.07,6.12-.19c1.07-.5,2-1.46,1.43-2.74-1.19-2.53-10.72,2.06-13.8-4.48-1.84-3.93.24-8.07,4.46-10.05,4.58-2.15,8-.81,8-.81l-.2,5.29a9,9,0,0,0-5.58.33c-1.07.5-2,1.54-1.48,2.73,1.26,2.68,10.61-2.3,13.77,4.42,1.66,3.54.4,7.88-4.39,10.13a12.13,12.13,0,0,1-9.19.61Z"/><polygon class="cls-15" points="83.92 192.65 77.28 195.76 78.1 200.83 72.75 203.34 69.98 178.68 75.45 176.1 92.68 193.98 87.32 196.49 83.92 192.65"/><path class="cls-15" d="M75,182.25s.61,2.54.86,4.06l.72,4.71,4.19-2-3.13-3.58c-1-1.16-2.58-3.25-2.58-3.25Z"/><polygon class="cls-15" points="85.06 171.59 90.27 169.14 98.17 185.95 106.85 181.87 108.95 186.33 95.06 192.86 85.06 171.59"/><polygon class="cls-15" points="101.81 163.72 115.14 157.46 117.23 161.92 109.11 165.73 110.93 169.6 117.41 166.55 119.51 171.01 113.03 174.06 114.91 178.08 123.45 174.06 125.55 178.53 111.8 184.99 101.81 163.72"/><path class="cls-2" d="M44.82,183.62c-13.77,0-29.29-.93-29.45-.94s-.19-.14-.27-.17a5.13,5.13,0,0,1-3.29-6.05l.12-.52L13,132.34a1.09,1.09,0,0,1,0-.23,9.23,9.23,0,0,1,.34-1.07,8.17,8.17,0,0,1,15.2,6l-4.84,37.31c3.08,0,12,.21,20.81.73,22.83,1.33,22.83,3.6,22.83,5,0,1.54-2,2.49-7.47,2.94-3.61.3-8.7.68-15.12.68Z"/><path class="cls-3" d="M21,126.91a7.17,7.17,0,0,1,6.65,9.84l-5,38.55s43.77.41,43.77,4.7c0,1.68-10.27,2.15-21.6,2.15-13.91,0-29.4-.7-29.4-.7a4,4,0,0,1-2.64-4.8l.15-.6L14,132.35a7.86,7.86,0,0,1,.3-.94,7.17,7.17,0,0,1,6.65-4.5m0-2a9.13,9.13,0,0,0-8.51,5.75,9.87,9.87,0,0,0-.39,1.19,2,2,0,0,0-.06.45l-1.12,43.48-.1.39a6.07,6.07,0,0,0,3.94,7.18,2,2,0,0,0,.55.1c.16,0,15.7.7,29.49.7,6.46,0,11.57-.15,15.21-.45,4.59-.38,8.39-.91,8.39-3.7s-3.26-3.7-8.53-4.52c-3.69-.58-8.82-1.06-15.24-1.44-7.93-.46-15.94-.65-19.73-.71l4.68-36.08A9.17,9.17,0,0,0,21,124.91Z"/><path class="cls-2" d="M18.81,117.38c-6.28,0-13.87-6.71-16.34-11.32A12.35,12.35,0,1,1,24.25,94.4a25.8,25.8,0,0,1,2.44,11.88c-.13,5.15-1.76,8.81-4.57,10.32a6.93,6.93,0,0,1-3.31.78Z"/><path class="cls-3" d="M13.35,88.88a11.35,11.35,0,0,1,10,6c3,5.53,3.81,17.89-1.71,20.84a5.93,5.93,0,0,1-2.84.66c-5.57,0-13-6.12-15.46-10.79a11.35,11.35,0,0,1,10-16.71m0-2A13.35,13.35,0,0,0,1.59,106.54c2.59,4.83,10.58,11.85,17.23,11.85a7.92,7.92,0,0,0,3.78-.9c3.14-1.68,5-5.65,5.09-11.17a26.85,26.85,0,0,0-2.56-12.38,13.34,13.34,0,0,0-11.78-7.05Z"/><g class="cls-16"><polygon class="cls-2" points="359.44 115.02 259.62 100.32 255.45 133.59 355.27 148.29 359.44 115.02"/></g><polygon class="cls-13" points="354.96 110.15 255.14 95.45 250.97 128.72 350.79 143.42 354.96 110.15"/><path class="cls-15" d="M266.89,116.65a6.18,6.18,0,0,0,3.29,2.06c.74.11,1.59-.05,1.73-.94.25-1.65-6.42-2.82-5.75-7.25a4.53,4.53,0,0,1,4.61-3.79l.3-1.94,2.25.34L273,107a6.52,6.52,0,0,1,3.53,2.18l-2,2.71a5.68,5.68,0,0,0-3.06-1.8c-.74-.11-1.62.09-1.74.91-.27,1.75,6.45,2.65,5.75,7.21a4.57,4.57,0,0,1-4.81,3.86l-.29,1.88-2.25-.34.29-1.87a7.53,7.53,0,0,1-3.9-2.66Z"/><path class="cls-15" d="M288.52,120a6.18,6.18,0,0,0,3.29,2.06c.74.11,1.59-.05,1.73-.94.25-1.65-6.42-2.82-5.75-7.25A4.53,4.53,0,0,1,292.4,110l.3-1.94,2.25.34-.29,1.88a6.51,6.51,0,0,1,3.53,2.18l-2,2.71a5.68,5.68,0,0,0-3.06-1.8c-.74-.11-1.62.09-1.74.92-.27,1.75,6.45,2.65,5.75,7.21a4.58,4.58,0,0,1-4.81,3.86l-.29,1.88-2.25-.34.29-1.88a7.53,7.53,0,0,1-3.9-2.66Z"/><path class="cls-15" d="M310.15,123.26a6.18,6.18,0,0,0,3.29,2.06c.74.11,1.59-.05,1.73-.94.25-1.65-6.42-2.82-5.75-7.25a4.53,4.53,0,0,1,4.61-3.79l.3-1.94,2.25.34-.29,1.88a6.52,6.52,0,0,1,3.52,2.18l-2,2.71a5.69,5.69,0,0,0-3.06-1.8c-.74-.11-1.62.09-1.74.92-.27,1.75,6.45,2.65,5.75,7.21a4.57,4.57,0,0,1-4.81,3.86l-.29,1.88-2.25-.34.29-1.87a7.54,7.54,0,0,1-3.9-2.66Z"/><path class="cls-15" d="M331.78,126.56a6.18,6.18,0,0,0,3.29,2.06c.74.11,1.59-.05,1.73-.94.25-1.65-6.42-2.82-5.75-7.25a4.53,4.53,0,0,1,4.61-3.79l.3-1.94,2.25.34-.29,1.88a6.52,6.52,0,0,1,3.52,2.18l-2,2.71a5.68,5.68,0,0,0-3.06-1.8c-.74-.11-1.62.09-1.74.91-.27,1.75,6.45,2.65,5.75,7.21a4.57,4.57,0,0,1-4.81,3.86l-.29,1.88-2.25-.34.29-1.88a7.53,7.53,0,0,1-3.9-2.66Z"/><path class="cls-2" d="M321.06,126.38c-.52,0-2.12,0-2.48-1.21s-1-3.47,20.42-11.34c8.29-3,16.77-5.78,19.71-6.71L343.29,72.8a8.17,8.17,0,0,1,1.35-11.38,8.16,8.16,0,0,1,11.48,1.27,8.64,8.64,0,0,1,.64.92,1,1,0,0,1,.09.2l13.67,41.41.26.44a5.06,5.06,0,0,1-1.42,6.68,1,1,0,0,1-.25.13C367.5,113,329.48,126.38,321.06,126.38Z"/><path class="cls-3" d="M349.74,60.63a7.15,7.15,0,0,1,5.6,2.69,7.88,7.88,0,0,1,.56.81l13.7,41.51.32.53a4,4,0,0,1-1.14,5.36s-39.38,13.85-47.72,13.85c-.88,0-1.42-.16-1.52-.5-1.24-4.11,40.54-17.15,40.54-17.15L344.15,72.28a7.17,7.17,0,0,1,5.59-11.65m0-2h0a9.17,9.17,0,0,0-7.32,14.68l14.91,33.19c-3.61,1.16-11.22,3.65-18.68,6.38-6,2.21-10.8,4.16-14.17,5.78-4.8,2.31-7.63,4.25-6.86,6.79.26.88,1.08,1.92,3.44,1.92,8.59,0,46.77-13.4,48.39-14a2,2,0,0,0,.49-.26,6.07,6.07,0,0,0,1.7-8l-.2-.34L357.8,63.5a2,2,0,0,0-.19-.41,9.88,9.88,0,0,0-.71-1,9.13,9.13,0,0,0-7.16-3.44Z"/><path class="cls-2" d="M341.67,55.06c-3.19-.1-6.27-2.67-8.67-7.22a25.79,25.79,0,0,1-3.08-11.73,12.29,12.29,0,0,1,12.34-12h.4A12.35,12.35,0,0,1,354.61,36.9c-.2,6.38-5.6,18.17-12.74,18.17Z"/><path class="cls-3" d="M342.26,25.16h.37a11.35,11.35,0,0,1,11,11.71c-.2,6.21-5.55,17.2-11.74,17.2h-.17c-6.27-.2-11-11.66-10.78-17.92a11.35,11.35,0,0,1,11.34-11m0-2h0a13.29,13.29,0,0,0-13.34,12.92,26.85,26.85,0,0,0,3.2,12.23c2.58,4.89,6,7.64,9.52,7.75h.23c7.71,0,13.52-12.41,13.74-19.13a13.37,13.37,0,0,0-12.92-13.77Z"/></g></g></g></svg>