<svg xmlns="http://www.w3.org/2000/svg" viewBox="0 0 197.77 254.16"><defs><style>.cls-1,.cls-3{fill:none;stroke:#fff;}.cls-1{stroke-linecap:round;stroke-linejoin:round;stroke-width:2px;}.cls-2{fill:#fff;}.cls-3{stroke-miterlimit:10;stroke-dasharray:3 4;}</style></defs><title>three-cars</title><g id="Layer_2" data-name="Layer 2"><g id="Layer_1-2" data-name="Layer 1"><circle class="cls-1" cx="97.24" cy="44.45" r="16.18"/><path class="cls-1" d="M57,44.45s18-22,40.23-22,40.23,22,40.23,22-18,22-40.23,22S57,44.45,57,44.45Z"/><circle class="cls-1" cx="97.24" cy="44.45" r="5.49"/><line class="cls-1" x1="67.12" y1="27.64" x2="56.93" y2="15.15"/><line class="cls-1" x1="80.77" y1="19.25" x2="73.98" y2="4.8"/><line class="cls-1" x1="126.39" y1="27.64" x2="136.58" y2="15.15"/><line class="cls-1" x1="112.73" y1="19.25" x2="119.53" y2="4.8"/><line class="cls-1" x1="95.77" y1="16.16" x2="95.77" y2="1"/><path class="cls-2" d="M62.11,131.38a4.24,4.24,0,0,1,0,8.49h-.05a4.24,4.24,0,0,1,0-8.49h.05m0-2H62a6.24,6.24,0,0,0,.07,12.49h.08a6.24,6.24,0,0,0-.07-12.49Z"/><path class="cls-2" d="M25.1,131.82a4.24,4.24,0,0,1,0,8.49H25.1a4.24,4.24,0,0,1,0-8.49h.05m0-2H25a6.24,6.24,0,0,0,.07,12.49h.08a6.24,6.24,0,0,0-.07-12.49Z"/><path class="cls-2" d="M47.43,110.51c5.62,0,10.63,6,12.06,7.76a5.49,5.49,0,0,0,4,1.78h.14a29.48,29.48,0,0,1,6.79,1.17c4.92,1.27,4.22,5.27,4.22,5.27l.07,5.82c0,3-2,3.2-2.55,3.2H72l-2.83,0s-.17-7-7-7H62c-7,.08-6.82,7.15-6.82,7.15L32.59,136s-.49-6.73-7.44-6.73H25c-7.07.08-7,6.9-7,6.9H18c-6.07,0-3.63-10.2-2.68-13.69s4.17-6,6.8-8.65a11.37,11.37,0,0,1,5.79-3.06l19.46-.23h.1m0-2h-.12l-19.46.23-.26,0a13.43,13.43,0,0,0-6.91,3.62c-.43.43-.88.86-1.33,1.29-2.36,2.25-5,4.8-6,8.25-1.86,6.82-1.81,11.57.14,14.13A5.36,5.36,0,0,0,18,138.15h.09a2,2,0,0,0,2-2,4.68,4.68,0,0,1,5-4.88h.11a5.15,5.15,0,0,1,5.44,4.88,2,2,0,0,0,2,1.85h0l22.62-.27a2,2,0,0,0,2-2c0-.83.18-5,4.84-5.1h.1c4.77,0,5,4.52,5,5a2,2,0,0,0,2,2h0l2.74,0h.22a4.47,4.47,0,0,0,3.17-1.29,5.28,5.28,0,0,0,1.38-3.94l-.07-5.66c.27-2.08-.59-6-5.72-7.34A31.14,31.14,0,0,0,63.63,118h-.16a3.56,3.56,0,0,1-2.41-1c-2.52-3.18-7.64-8.51-13.63-8.51Z"/><path class="cls-2" d="M39.75,114.5l0,3.8-10.41.13,0-3.8H30l9.79-.12m2-2-11.79.14h-.25a8.74,8.74,0,0,0-2.37.33l.09,7.5,14.41-.17-.09-7.8Z"/><path class="cls-2" d="M24.32,117.89v.59h-.59l.59-.6m1.95-4.53a4.29,4.29,0,0,0-1.42,1.13l-5.92,6.06,7.42-.09-.09-7.1Z"/><path class="cls-2" d="M47.73,114.4c1,0,1.52,0,3.72,1.33a14.14,14.14,0,0,1,2.71,2.38l-9.31.11,0-3.8,2.37,0h.56m0-2h-.58l-4.37.05.09,7.8,15.47-.19s-3.13-4.39-5.86-6c-2.42-1.47-3.28-1.62-4.76-1.62Z"/><path class="cls-2" d="M62.11,134.54a1.08,1.08,0,0,1,0,2.16h0a1.08,1.08,0,0,1,0-2.16h0m0-2h0a3.08,3.08,0,1,0,3.12,3,3.09,3.09,0,0,0-3.12-3Z"/><path class="cls-2" d="M25.1,135a1.08,1.08,0,0,1,0,2.16h0a1.08,1.08,0,0,1,0-2.16h0m0-2h0a3.08,3.08,0,0,0-3,3.12A3.08,3.08,0,1,0,25.1,133Z"/><circle class="cls-1" cx="42.78" cy="127.81" r="41.78"/><path class="cls-2" d="M174.32,131.38a4.24,4.24,0,0,1,0,8.49h-.05a4.24,4.24,0,0,1,0-8.49h.05m0-2h-.08a6.24,6.24,0,0,0,.07,12.49h.08a6.24,6.24,0,0,0-.07-12.49Z"/><path class="cls-2" d="M137.31,131.82a4.24,4.24,0,0,1,0,8.49h-.05a4.24,4.24,0,0,1,0-8.49h.05m0-2h-.08a6.24,6.24,0,0,0,.07,12.49h.08a6.24,6.24,0,0,0-.07-12.49Z"/><path class="cls-2" d="M159.64,110.51c5.62,0,10.63,6,12.06,7.76a5.49,5.49,0,0,0,4,1.78h.14a29.48,29.48,0,0,1,6.79,1.17c4.92,1.27,4.22,5.27,4.22,5.27l.07,5.82c0,3-2,3.2-2.55,3.2h-.16l-2.83,0s-.17-7-7-7h-.12c-7,.08-6.82,7.15-6.82,7.15l-22.62.27s-.49-6.73-7.44-6.73h-.13c-7.07.08-7,6.9-7,6.9h-.07c-6.07,0-3.63-10.2-2.68-13.69s4.17-6,6.8-8.65a11.37,11.37,0,0,1,5.79-3.06l19.46-.23h.1m0-2h-.12l-19.46.23-.26,0a13.43,13.43,0,0,0-6.91,3.62c-.43.43-.88.86-1.33,1.29-2.36,2.25-5,4.8-6,8.25-1.86,6.82-1.81,11.57.14,14.13a5.36,5.36,0,0,0,4.47,2.09h.09a2,2,0,0,0,2-2,4.68,4.68,0,0,1,5-4.88h.11a5.15,5.15,0,0,1,5.44,4.88,2,2,0,0,0,2,1.85h0l22.62-.27a2,2,0,0,0,2-2c0-.83.18-5,4.84-5.1h.1c4.77,0,5,4.52,5,5a2,2,0,0,0,2,2h0l2.74,0h.22a4.47,4.47,0,0,0,3.17-1.29,5.28,5.28,0,0,0,1.38-3.94l-.07-5.66c.27-2.08-.59-6-5.72-7.34a31.14,31.14,0,0,0-7.29-1.23h-.16a3.56,3.56,0,0,1-2.41-1c-2.52-3.18-7.64-8.51-13.63-8.51Z"/><path class="cls-2" d="M152,114.5l0,3.8-10.41.13,0-3.8h.62l9.79-.12m2-2-11.79.14h-.25a8.74,8.74,0,0,0-2.37.33l.09,7.5,14.41-.17-.09-7.8Z"/><path class="cls-2" d="M136.52,117.89v.59h-.59l.59-.6m1.95-4.53a4.29,4.29,0,0,0-1.42,1.13l-5.92,6.06,7.42-.09-.09-7.1Z"/><path class="cls-2" d="M159.94,114.4c1,0,1.52,0,3.72,1.33a14.15,14.15,0,0,1,2.71,2.38l-9.31.11,0-3.8,2.37,0h.56m0-2h-.58l-4.37.05.09,7.8,15.47-.19s-3.13-4.39-5.86-6c-2.42-1.47-3.28-1.62-4.76-1.62Z"/><path class="cls-2" d="M174.32,134.54a1.08,1.08,0,0,1,0,2.16h0a1.08,1.08,0,0,1,0-2.16h0m0-2h0a3.08,3.08,0,1,0,3.12,3,3.09,3.09,0,0,0-3.12-3Z"/><path class="cls-2" d="M137.31,135a1.08,1.08,0,0,1,0,2.16h0a1.08,1.08,0,0,1,0-2.16h0m0-2h0a3.08,3.08,0,0,0-3,3.12,3.08,3.08,0,1,0,3.08-3.12Z"/><circle class="cls-1" cx="154.99" cy="127.81" r="41.78"/><path class="cls-2" d="M118.5,214.94a4.24,4.24,0,0,1,0,8.49h-.05a4.24,4.24,0,0,1,0-8.49h.05m0-2h-.08a6.24,6.24,0,0,0,.07,12.49h.08a6.24,6.24,0,0,0-.07-12.49Z"/><path class="cls-2" d="M81.49,215.39a4.24,4.24,0,0,1,0,8.49h-.05a4.24,4.24,0,0,1,0-8.49h.05m0-2h-.08a6.24,6.24,0,0,0,.07,12.49h.08a6.24,6.24,0,0,0-.07-12.49Z"/><path class="cls-2" d="M103.82,194.08c5.62,0,10.63,6,12.06,7.76a5.49,5.49,0,0,0,4,1.78H120a29.48,29.48,0,0,1,6.79,1.17c4.92,1.27,4.22,5.27,4.22,5.27l.07,5.82c0,3-2,3.2-2.55,3.2h-.16l-2.83,0s-.17-7-7-7h-.12c-7,.08-6.82,7.15-6.82,7.15L89,219.54s-.49-6.73-7.44-6.73h-.13c-7.07.08-7,6.9-7,6.9h-.07c-6.07,0-3.63-10.2-2.68-13.69s4.17-6,6.8-8.65a11.37,11.37,0,0,1,5.79-3.06l19.46-.23h.1m0-2h-.12l-19.46.23-.26,0A13.43,13.43,0,0,0,77.07,196c-.43.43-.88.86-1.33,1.29-2.36,2.25-5,4.8-6,8.26-1.86,6.82-1.81,11.57.14,14.13a5.36,5.36,0,0,0,4.47,2.09h.09a2,2,0,0,0,2-2,4.68,4.68,0,0,1,5-4.88h.11A5.15,5.15,0,0,1,87,219.69a2,2,0,0,0,2,1.85h0l22.62-.27a2,2,0,0,0,2-2c0-.83.18-5,4.84-5.1h.1c4.77,0,5,4.52,5,5a2,2,0,0,0,2,2h0l2.74,0h.22a4.47,4.47,0,0,0,3.17-1.29,5.28,5.28,0,0,0,1.38-3.94l-.07-5.66c.27-2.08-.59-6-5.72-7.34a31.14,31.14,0,0,0-7.29-1.23h-.16a3.55,3.55,0,0,1-2.41-1c-2.52-3.18-7.64-8.51-13.63-8.51Z"/><path class="cls-2" d="M96.14,198.06l0,3.8L85.78,202l0-3.8h.62l9.79-.12m2-2-11.79.14h-.25a8.73,8.73,0,0,0-2.37.33l.09,7.5,14.41-.17-.09-7.8Z"/><path class="cls-2" d="M80.71,201.45V202h-.59l.59-.6m1.95-4.53a4.29,4.29,0,0,0-1.42,1.13l-5.92,6.06,7.42-.09-.09-7.1Z"/><path class="cls-2" d="M104.12,198c1,0,1.52,0,3.72,1.33a14.15,14.15,0,0,1,2.71,2.38l-9.31.11,0-3.8,2.37,0h.56m0-2h-.58l-4.37.05.09,7.8,15.47-.19s-3.13-4.39-5.86-6c-2.42-1.47-3.28-1.62-4.76-1.62Z"/><path class="cls-2" d="M118.5,218.11a1.08,1.08,0,0,1,0,2.16h0a1.08,1.08,0,0,1,0-2.16h0m0-2h0a3.08,3.08,0,1,0,3.12,3,3.09,3.09,0,0,0-3.12-3Z"/><path class="cls-2" d="M81.49,218.55a1.08,1.08,0,0,1,0,2.16h0a1.08,1.08,0,0,1,0-2.16h0m0-2h0a3.08,3.08,0,1,0,3.12,3,3.09,3.09,0,0,0-3.12-3Z"/><circle class="cls-1" cx="99.17" cy="211.37" r="41.78"/><line class="cls-3" x1="84.56" y1="64.21" x2="56.93" y2="88.49"/><line class="cls-3" x1="108.89" y1="64.21" x2="136.53" y2="88.49"/><line class="cls-3" x1="99.17" y1="66.5" x2="99.17" y2="169.59"/></g></g></svg>