<svg xmlns="http://www.w3.org/2000/svg" viewBox="0 0 986.37 187.81"><defs><style>.cls-1,.cls-2{fill:none;stroke-miterlimit:10;}.cls-1,.cls-2,.cls-3,.cls-7{stroke:#2f9622;}.cls-2{stroke-dasharray:3 4;}.cls-3,.cls-5,.cls-7{fill:#fff;}.cls-3,.cls-7{stroke-linecap:round;stroke-linejoin:round;stroke-width:2px;}.cls-4{font-size:24px;}.cls-4,.cls-6,.cls-8{fill:#2f9622;}.cls-4,.cls-8{font-family:ArialMT, Arial;}.cls-7{opacity:0.3;}.cls-8{font-size:20px;}.cls-9{font-size:19px;fill:#999;font-family:HelveticaNeue-BoldItalic, HelveticaNeue BoldItalic;font-weight:700;font-style:italic;}</style></defs><title>timeline</title><g id="Layer_2" data-name="Layer 2"><g id="Layer_1-2" data-name="Layer 1"><line class="cls-1" x1="162.13" y1="100.49" x2="163.63" y2="100.49"/><line class="cls-2" x1="167.63" y1="100.49" x2="963.12" y2="100.49"/><line class="cls-1" x1="965.12" y1="100.49" x2="966.62" y2="100.49"/><polygon class="cls-3" points="179.87 124.09 162.13 138.37 144.39 124.09 144.39 88.62 179.87 88.62 179.87 124.09"/><text class="cls-4" transform="translate(155.46 116.99)">1</text><polygon class="cls-3" points="269.37 124.09 251.63 138.37 233.89 124.09 233.89 88.62 269.37 88.62 269.37 124.09"/><text class="cls-4" transform="translate(244.96 116.99)">2</text><polygon class="cls-3" points="358.87 124.09 341.13 138.37 323.39 124.09 323.39 88.62 358.87 88.62 358.87 124.09"/><text class="cls-4" transform="translate(334.46 116.99)">3</text><polygon class="cls-3" points="448.37 124.09 430.63 138.37 412.89 124.09 412.89 88.62 448.37 88.62 448.37 124.09"/><text class="cls-4" transform="translate(423.96 116.99)">4</text><polygon class="cls-3" points="537.87 124.09 520.13 138.37 502.39 124.09 502.39 88.62 537.87 88.62 537.87 124.09"/><text class="cls-4" transform="translate(513.46 116.99)">5</text><polygon class="cls-3" points="627.37 124.09 609.63 138.37 591.89 124.09 591.89 88.62 627.37 88.62 627.37 124.09"/><text class="cls-4" transform="translate(602.96 116.99)">6</text><polygon class="cls-3" points="716.87 124.09 699.13 138.37 681.39 124.09 681.39 88.62 716.87 88.62 716.87 124.09"/><text class="cls-4" transform="translate(692.46 116.99)">7</text><polygon class="cls-3" points="806.37 124.09 788.63 138.37 770.89 124.09 770.89 88.62 806.37 88.62 806.37 124.09"/><text class="cls-4" transform="translate(781.96 116.99)">8</text><polygon class="cls-3" points="895.87 124.09 878.13 138.37 860.39 124.09 860.39 88.62 895.87 88.62 895.87 124.09"/><text class="cls-4" transform="translate(871.46 116.99)">9</text><polygon class="cls-3" points="985.37 124.09 967.63 138.37 949.89 124.09 949.89 88.62 985.37 88.62 985.37 124.09"/><text class="cls-4" transform="translate(953.28 116.99)">10</text><path class="cls-5" d="M79.14,77A5.34,5.34,0,0,1,76,76L39.9,50.46A9.74,9.74,0,0,1,39,49.7,8.79,8.79,0,0,1,51,36.87L79.39,63.53l36.87-13.75,0,0a2.14,2.14,0,0,1,.76-.44l6.79-2.25a2.2,2.2,0,0,1,.7-.11,2.23,2.23,0,0,1,1,4.24l-6.44,3.13a1,1,0,0,1-.22.08L83.17,75.23a5.39,5.39,0,0,1-4,1.8Z"/><path class="cls-6" d="M45,35.49a7.77,7.77,0,0,1,5.33,2.11L79.16,64.69l37.63-14,.18-.16a1.15,1.15,0,0,1,.41-.23l6.8-2.25a1.23,1.23,0,0,1,.93,2.28l-6.44,3.13.59-.4L82.53,74.45A4.41,4.41,0,0,1,79.14,76a4.35,4.35,0,0,1-2.52-.8l-.55-.39L40.47,49.65a8.54,8.54,0,0,1-.83-.68A7.79,7.79,0,0,1,45,35.49m0-2a9.79,9.79,0,0,0-6.71,16.93,10.54,10.54,0,0,0,1,.85l35.61,25.2.55.39A6.33,6.33,0,0,0,79.14,78a6.39,6.39,0,0,0,4.67-2l35.46-20.7.27-.11L126,52.08a3.23,3.23,0,0,0,1.49-4.32,3.23,3.23,0,0,0-3.92-1.65l-6.8,2.25a3.13,3.13,0,0,0-1,.55L79.62,62.38,51.68,36.15A9.76,9.76,0,0,0,45,33.49Z"/><rect class="cls-3" x="82.54" y="25.55" width="103.66" height="28.76"/><path class="cls-5" d="M43.3,107.25c-10.26,0-16.64-5.52-17.07-14.77-.4-8.65,11.58-62.94,12.09-65.24a1,1,0,0,1,.93-.78l4.94-.23a1,1,0,0,1,1,.72c.66,2.26,16.07,55.46,16.46,63.9.23,5.06-1.4,9.25-4.72,12.11-3,2.55-7.19,4-12.25,4.25q-.67,0-1.33,0Z"/><path class="cls-6" d="M44.19,27.23s16,55.25,16.42,63.67c.47,10.16-6.8,14.9-16,15.32l-1.29,0c-8.63,0-15.62-4.13-16.07-13.81-.4-8.62,12.07-65,12.07-65l4.89-.23m0-2H44.1l-4.89.23A2,2,0,0,0,37.35,27c-.51,2.31-12.52,56.72-12.12,65.5.45,9.84,7.21,15.72,18.07,15.72q.69,0,1.38,0c11.53-.53,18.4-7.2,17.93-17.41-.39-8.56-15.84-61.87-16.49-64.13a2,2,0,0,0-1.92-1.44Z"/><polygon class="cls-3" points="19.45 64.29 26.3 153.62 118.29 141.09 115.16 73.37 19.45 64.29"/><polygon class="cls-7" points="29.82 73.37 35.11 144.22 108.7 134.24 106.16 81 29.82 73.37"/><polygon class="cls-3" points="15.54 65.15 7.9 69.56 13.97 152.05 22 153.62 15.54 65.15"/><polygon class="cls-3" points="72.3 161.45 72.3 152.25 47.83 155.58 47.83 170.45 67.21 178.87 97.55 170.45 72.3 161.45"/><polygon class="cls-3" points="43.33 155.97 39.02 157.34 39.02 174.56 65.64 186.81 97.55 177.5 97.55 173.58 66.42 182.59 43.72 172.41 43.33 155.97"/><path class="cls-5" d="M46.63,110.32c-5.84,0-40.33-23.06-44.24-25.69a1,1,0,0,1-.21-.19,5.06,5.06,0,0,1,.3-6.83l.36-.36L26.45,40.6a1,1,0,0,1,.14-.18,9,9,0,0,1,.85-.73,8.1,8.1,0,0,1,4.89-1.63,8.17,8.17,0,0,1,5,14.63L13.8,82.06c2.61,1.64,10.13,6.41,17.4,11.43,18.81,13,17.63,14.94,16.92,16.1a1.62,1.62,0,0,1-1.5.73Z"/><path class="cls-6" d="M32.33,39.07A7.17,7.17,0,0,1,36.62,52L12.32,82.31S49.5,105.4,47.27,109.07a.7.7,0,0,1-.64.25c-5.7,0-43.68-25.52-43.68-25.52a4,4,0,0,1,.24-5.47l.44-.43L27.29,41.14A7.84,7.84,0,0,1,28,40.5a7.13,7.13,0,0,1,4.29-1.43m0-2a9.09,9.09,0,0,0-5.48,1.83,9.81,9.81,0,0,0-.95.82,2,2,0,0,0-.28.35L2.06,76.63l-.28.28a6.07,6.07,0,0,0-.36,8.18,2,2,0,0,0,.41.37c.1.06,9.64,6.47,19.76,12.8,20.9,13.06,23.8,13.06,25,13.06A2.6,2.6,0,0,0,49,110.11c1.38-2.27-.87-4.85-4.94-8.29-2.86-2.41-7-5.49-12.27-9.15-6.54-4.52-13.28-8.84-16.48-10.86L38,53.41a9.17,9.17,0,0,0-5.71-16.34Z"/><path class="cls-5" d="M42.72,31.9h-.34c-3.18-.17-6.2-2.81-8.5-7.42a25.77,25.77,0,0,1-2.81-11.8A12.35,12.35,0,0,1,43.38,1l.69,0A12.35,12.35,0,0,1,55.72,14c-.34,6.28-5.94,17.87-13,17.87Z"/><path class="cls-6" d="M43.38,2,44,2A11.35,11.35,0,0,1,54.73,14c-.34,6.16-5.86,16.93-12,16.93h-.29C36.17,30.55,31.71,19,32.06,12.73A11.35,11.35,0,0,1,43.38,2m0-2A13.35,13.35,0,0,0,30.06,12.62c-.38,6.86,4.42,19.84,12.26,20.27h.4c7.92,0,13.65-12.36,14-18.82A13.35,13.35,0,0,0,44.12,0l-.74,0Z"/><text class="cls-8" transform="translate(92.13 46.04)">keywords</text><text class="cls-9" transform="translate(151.3 162.37)">$+</text><text class="cls-9" transform="translate(961.3 162.37)">$-</text></g></g></svg>