<svg xmlns="http://www.w3.org/2000/svg" viewBox="0 0 651.5 208.97"><defs><style>.cls-1{isolation:isolate;}.cls-2{fill:#8cc63f;mix-blend-mode:multiply;}.cls-3{font-size:24px;}.cls-10,.cls-3,.cls-7,.cls-9{fill:#fff;}.cls-10,.cls-3,.cls-9{font-family:ArialMT, Arial;}.cls-4{letter-spacing:-0.06em;}.cls-5{fill:#0066ae;stroke-width:3px;}.cls-5,.cls-6,.cls-8{stroke:#fff;}.cls-5,.cls-6{stroke-linecap:round;stroke-linejoin:round;}.cls-11,.cls-6{fill:#64c202;}.cls-6{stroke-width:2px;}.cls-8{fill:none;stroke-miterlimit:10;}.cls-9{font-size:7.66px;}.cls-10{font-size:20.2px;}</style></defs><title>wrench</title><g class="cls-1"><g id="Layer_2" data-name="Layer 2"><g id="Layer_1-2" data-name="Layer 1"><rect class="cls-2" x="21.5" y="148.97" width="630" height="60" rx="10" ry="10"/><text class="cls-3" transform="translate(81.11 188.97)"><tspan class="cls-4">A</tspan><tspan x="14.68" y="0" xml:space="preserve"> good benchmark for conversion rate is 2.27%.</tspan></text><circle class="cls-5" cx="21.5" cy="178.97" r="20"/><polyline class="cls-5" points="10.5 181.72 19.25 188.33 31.5 171.97"/><circle class="cls-6" cx="441.02" cy="57.43" r="56.43"/><polygon class="cls-6" points="427.16 17.83 432.79 33.03 447.99 38.66 432.79 44.29 427.16 59.49 421.54 44.29 406.33 38.66 421.54 33.03 427.16 17.83"/><polygon class="cls-6" points="463.24 32.01 468.86 47.22 484.07 52.84 468.86 58.47 463.24 73.67 457.61 58.47 442.41 52.84 457.61 47.22 463.24 32.01"/><polygon class="cls-6" points="437.97 59.49 443.6 74.69 458.8 80.32 443.6 85.95 437.97 101.15 432.34 85.95 417.14 80.32 432.34 74.69 437.97 59.49"/><circle class="cls-6" cx="296.03" cy="57.43" r="56.43"/><path class="cls-7" d="M330.79,38.32A1.64,1.64,0,0,1,332.43,40V74.89a1.64,1.64,0,0,1-1.64,1.64H261.23a1.64,1.64,0,0,1-1.64-1.64V40a1.64,1.64,0,0,1,1.64-1.64h69.56m0-2H261.23A3.64,3.64,0,0,0,257.59,40V74.89a3.64,3.64,0,0,0,3.64,3.64h69.56a3.64,3.64,0,0,0,3.64-3.64V40a3.64,3.64,0,0,0-3.64-3.64Z"/><rect class="cls-8" x="262.87" y="41.6" width="66.28" height="31.66"/><text class="cls-9" transform="translate(285.61 51.09)">YEAR</text><text class="cls-10" transform="translate(274.46 68.72)">2009</text><rect class="cls-7" x="282.91" y="48.84" width="1.04" height="1.18" transform="translate(566.86 98.86) rotate(180)"/><rect class="cls-7" x="281.09" y="48.84" width="1.04" height="1.18" transform="translate(563.21 98.86) rotate(180)"/><rect class="cls-7" x="279.26" y="48.84" width="1.04" height="1.18" transform="translate(559.56 98.86) rotate(180)"/><rect class="cls-7" x="268.85" y="48.91" width="9.3" height="1.13"/><rect class="cls-7" x="267.03" y="48.84" width="1.04" height="1.18" transform="translate(535.09 98.86) rotate(180)"/><rect class="cls-7" x="265.2" y="48.84" width="1.04" height="1.18" transform="translate(531.44 98.86) rotate(180)"/><rect class="cls-7" x="263.38" y="48.84" width="1.04" height="1.18" transform="translate(527.79 98.86) rotate(180)"/><rect class="cls-7" x="327.26" y="48.84" width="1.04" height="1.18" transform="translate(655.56 98.86) rotate(180)"/><rect class="cls-7" x="325.44" y="48.84" width="1.04" height="1.18" transform="translate(651.92 98.86) rotate(180)"/><rect class="cls-7" x="323.62" y="48.84" width="1.04" height="1.18" transform="translate(648.27 98.86) rotate(180)"/><rect class="cls-7" x="313.21" y="48.91" width="9.3" height="1.13"/><rect class="cls-7" x="311.38" y="48.84" width="1.04" height="1.18" transform="translate(623.79 98.86) rotate(180)"/><rect class="cls-7" x="309.55" y="48.84" width="1.04" height="1.18" transform="translate(620.14 98.86) rotate(180)"/><rect class="cls-7" x="307.73" y="48.84" width="1.04" height="1.18" transform="translate(616.49 98.86) rotate(180)"/><circle class="cls-6" cx="151.04" cy="57.43" r="56.43"/><path class="cls-6" d="M169.28,19.93c.57.21,1.15.41,1.38,1.06a1.66,1.66,0,0,1-.47,1.85q-4.22,4.22-8.45,8.44a.64.64,0,0,0-.2.77c1,3,1.93,6.08,2.92,9.12a.81.81,0,0,0,.47.44c3,1,6,1.91,9,2.87a.72.72,0,0,0,.86-.22q4.2-4.24,8.44-8.44a1.6,1.6,0,0,1,2.81,1.08,18.31,18.31,0,0,1-18.86,19.7,17.82,17.82,0,0,1-5.5-1,.62.62,0,0,0-.76.22l-7.78,8.39q-3.77,4.08-7.54,8.16-4.06,4.38-8.14,8.74c-1.5,1.61-3,3.24-4.48,4.84a8.93,8.93,0,0,1-15.23-8.44,9.06,9.06,0,0,1,2.68-4.28L129.17,65l10.21-9.62q5.47-5.15,10.93-10.31a.67.67,0,0,0,.13-.83,18.1,18.1,0,0,1-.89-7.92,18.29,18.29,0,0,1,10.07-14.45A17.63,17.63,0,0,1,166.05,20a4,4,0,0,0,.48-.1Zm-43.42,57a3.3,3.3,0,1,0,0,6.6,3.3,3.3,0,0,0,0-6.6Z"/><g id="_Group_" data-name="&lt;Group&gt;"><path class="cls-6" d="M521.32,26.42a3,3,0,0,1-.6,4.37c-2.19,1.67-4.44,3.22-6.65,4.83-2,1.48-4,3-6.09,4.4a3.17,3.17,0,1,1-3.77-5.08q6.32-4.67,12.74-9.22A3.11,3.11,0,0,1,521.32,26.42Z"/><path class="cls-6" d="M498.38,12.33c1.91.26,3,1.86,2.62,4.09-.79,5-1.56,10-2.42,15a8.65,8.65,0,0,1-.94,2.14c-1.57,1-2.72,1-3.86.34a3,3,0,0,1-1.48-3.2c.28-2.16.67-4.29,1-6.43.47-2.94.92-5.88,1.42-8.85C495.1,13.23,496.51,12.07,498.38,12.33Z"/><path class="cls-6" d="M485.85,31.88a3.27,3.27,0,0,1-.56,4.74c-1.52,1.07-3.37.66-4.63-1.09-1.52-2-3-4.12-4.5-6.2l-4.4-6.07c-1.18-1.69-1-3.52.43-4.63a3.21,3.21,0,0,1,4.68.84Q481.37,25.65,485.85,31.88Z"/><path class="cls-6" d="M482.36,54.57c1.14,1.54.84,3.34-.92,4.65-2.08,1.57-4.22,3.07-6.32,4.59s-4.07,3-6.11,4.4a3.17,3.17,0,1,1-3.71-5.12q6.18-4.55,12.42-9C479.44,52.88,481.26,53.11,482.36,54.57Z"/><path class="cls-6" d="M480.07,43.87c.3,1.27-.15,2.36-1.56,3.49a8.16,8.16,0,0,1-2.23.22c-5.1-.75-10.18-1.59-15.27-2.44a3.15,3.15,0,0,1-2.83-3.65,3.11,3.11,0,0,1,3.82-2.6c5.13.81,10.27,1.65,15.4,2.47A3.06,3.06,0,0,1,480.07,43.87Z"/></g><path class="cls-11" d="M534.24,110.63a24.54,24.54,0,0,1-6-.8,26.06,26.06,0,0,1-14-8.66c-3.09-3.84-6-7.93-8.77-11.89-1.23-1.75-2.47-3.5-3.73-5.24a1,1,0,0,1,.44-1.52A7.43,7.43,0,0,1,504.9,82,7.59,7.59,0,0,1,511,85.08c1,1.38,2.05,2.79,3.07,4.21.65.91,1.3,1.82,2,2.72a2.56,2.56,0,0,0,1.87,1.22,2,2,0,0,0,1.19-.45c.4-.29,1.61-1.18.17-3.16q-7-9.76-14.05-19.49l-15-20.61a4.34,4.34,0,0,1-.91-2.88,3.38,3.38,0,0,1,1.45-2.47,3.49,3.49,0,0,1,2.06-.7,4,4,0,0,1,3.21,1.82l4.56,6.3,4.7,6.48L509.61,64q3,4.18,6,8.34a2.42,2.42,0,0,0,1.81,1.23,2.06,2.06,0,0,0,1.14-.41,1.94,1.94,0,0,0,.91-1.22,2.69,2.69,0,0,0-.63-1.88q-2.33-3.2-4.7-6.36l-2.32-3.13a3.3,3.3,0,0,1-.8-2.41A3.43,3.43,0,0,1,512.6,56l.3-.22.25-.18a4,4,0,0,1,2.33-1,3.37,3.37,0,0,1,2.64,1.84c2.24,3.26,4.53,6.49,6.8,9.61a1.94,1.94,0,0,0,1.54.92,2.13,2.13,0,0,0,1.24-.46,2,2,0,0,0,.88-1.26,2.24,2.24,0,0,0-.51-1.64l-.14-.18c-1-1.43-2.1-2.88-3.18-4.33l-2.18-2.95a3.86,3.86,0,0,1,3.11-6.2h0a3.69,3.69,0,0,1,2.61,1.59c1.17,1.56,2.32,3.19,3.43,4.77q1,1.44,2,2.88a2.49,2.49,0,0,0,1.82,1.21A2.06,2.06,0,0,0,536.8,60c1.06-.78,1.13-1.81.23-3.08l-.45-.64c-1-1.37-2-2.78-3-4.13a2.7,2.7,0,0,1,.37-4,13.25,13.25,0,0,1,1.09-.86l.24-.17a3.07,3.07,0,0,1,1.77-.63,2.76,2.76,0,0,1,2.25,1.29c.64.86,1.26,1.73,1.88,2.6l6.12,8.45Q553.66,67.6,560,76.4a16,16,0,0,1-1.29,20.78,16.37,16.37,0,0,1-2.35,2c-1.23.9-2.47,1.79-3.72,2.68-2.09,1.5-4.25,3-6.32,4.63A19.58,19.58,0,0,1,534.24,110.63Z"/><path class="cls-7" d="M492.85,44.47a3,3,0,0,1,2.4,1.41c3.09,4.25,6.17,8.53,9.26,12.78,3.45,4.76,6.88,9.54,10.33,14.28a3.35,3.35,0,0,0,2.62,1.64,3,3,0,0,0,1.71-.59c1.61-1.11,1.82-2.74.52-4.52-2.32-3.19-4.69-6.33-7-9.5-1-1.31-.84-2.14.52-3.13.19-.15.39-.28.58-.43a3.11,3.11,0,0,1,1.71-.75c.65,0,1.18.47,1.82,1.41q3.34,4.86,6.82,9.63A2.88,2.88,0,0,0,526.46,68a3.1,3.1,0,0,0,1.84-.65,2.83,2.83,0,0,0,.58-4.29l-.11-.15c-1.76-2.46-3.6-4.87-5.38-7.31A2.87,2.87,0,0,1,525.71,51h0a2.78,2.78,0,0,1,1.76,1.18c1.87,2.49,3.64,5.1,5.47,7.65a3.34,3.34,0,0,0,2.63,1.62,3,3,0,0,0,1.81-.67c1.5-1.11,1.67-2.75.45-4.46s-2.27-3.22-3.49-4.8a1.71,1.71,0,0,1,.24-2.64,15.88,15.88,0,0,1,1.26-1,2.07,2.07,0,0,1,1.18-.44,1.82,1.82,0,0,1,1.45.89c.64.86,1.26,1.72,1.87,2.59q9.42,13,18.83,26a14.91,14.91,0,0,1-3.41,21.36c-3.35,2.46-6.77,4.82-10.06,7.33a18.49,18.49,0,0,1-11.48,4,23.43,23.43,0,0,1-5.8-.77A24.94,24.94,0,0,1,515,100.54c-4.4-5.47-8.3-11.34-12.46-17.09A6.44,6.44,0,0,1,504.9,83a6.62,6.62,0,0,1,5.29,2.68c1.71,2.27,3.34,4.61,5,6.92a3.41,3.41,0,0,0,2.68,1.63,3,3,0,0,0,1.78-.64c1.54-1.12,1.69-2.77.39-4.55q-7-9.75-14.05-19.49l-15-20.61c-1.09-1.52-.94-3.05.32-4a2.49,2.49,0,0,1,1.48-.51m0-2a4.49,4.49,0,0,0-2.66.9c-2.17,1.55-2.49,4.33-.76,6.73l7.48,10.32,7.48,10.31c4.35,6,8.94,12.37,14,19.48.86,1.18.43,1.5.05,1.77a1.14,1.14,0,0,1-.6.25c-.29,0-.69-.3-1.07-.81-.66-.9-1.31-1.8-2-2.7-1-1.39-2-2.83-3.08-4.23A8.59,8.59,0,0,0,504.9,81a8.42,8.42,0,0,0-3.11.6,2,2,0,0,0-.88,3c1.26,1.74,2.51,3.52,3.73,5.24,2.8,4,5.69,8.07,8.8,11.93a27.06,27.06,0,0,0,14.52,9,25.55,25.55,0,0,0,6.3.83,20.56,20.56,0,0,0,12.69-4.36c2.06-1.57,4.22-3.12,6.3-4.61,1.25-.89,2.49-1.79,3.73-2.69a16.91,16.91,0,0,0,3.85-24.14c-4.17-5.79-8.42-11.66-12.53-17.33l-6.3-8.7,0,0c-.61-.85-1.23-1.71-1.86-2.56a3.72,3.72,0,0,0-3.06-1.7,4,4,0,0,0-2.33.8l-.26.19a14,14,0,0,0-1.18.94,3.69,3.69,0,0,0-.48,5.35c1,1.33,2,2.73,3,4.08l.46.65c.79,1.11.33,1.45,0,1.69a1.16,1.16,0,0,1-.62.28c-.27,0-.65-.3-1-.79-.68-.94-1.35-1.9-2-2.85-1.12-1.59-2.28-3.24-3.47-4.82a4.59,4.59,0,0,0-3.35-2h-.09a4.88,4.88,0,0,0-4.34,2.69,4.94,4.94,0,0,0,.45,5.08c.74,1,1.47,2,2.2,3,1,1.41,2.13,2.87,3.16,4.31l.12.16v0a1.35,1.35,0,0,1,.34.89,1.11,1.11,0,0,1-.47.6,1.2,1.2,0,0,1-.67.28,1,1,0,0,1-.72-.49c-2.28-3.12-4.56-6.35-6.8-9.6a4.35,4.35,0,0,0-3.47-2.27,5,5,0,0,0-2.88,1.13l-.08.06-.2.15-.34.25a3.79,3.79,0,0,0-.92,5.92l2.35,3.17c1.53,2.07,3.12,4.2,4.66,6.32a1.8,1.8,0,0,1,.45,1.12c0,.23-.33.46-.49.57a1.15,1.15,0,0,1-.57.24c-.25,0-.64-.31-1-.82q-3-4.16-6-8.35l-4.28-5.93-4.65-6.42-4.61-6.36a5,5,0,0,0-4-2.23Z"/></g></g></g></svg>