<svg xmlns="http://www.w3.org/2000/svg" viewBox="0 0 1512.08 280"><defs><style>.cls-1{fill:#4d8736;}.cls-2{fill:#5d9632;}</style></defs><title>bg-green-buildings</title><g id="Layer_2" data-name="Layer 2"><g id="texts"><polygon class="cls-1" points="1512.08 193 1512.08 280 1504.08 280 1504.08 237 1473.08 237 1473.08 184 1478.08 184 1478.08 190 1482.08 190 1482.08 193 1512.08 193"/><polygon class="cls-1" points="1512.08 184 1512.08 193 1482.08 193 1482.08 190 1483.08 190 1483.08 184 1512.08 184"/><polygon class="cls-1" points="1512.08 179 1512.08 184 1483.08 184 1483.08 179 1485.08 179 1485.08 182 1509.08 182 1509.08 179 1512.08 179"/><rect class="cls-1" x="1485.08" y="179" width="24" height="3"/><rect class="cls-1" x="1485.08" y="174" width="24" height="5"/><rect class="cls-1" x="1473.08" y="237" width="31" height="43"/><rect class="cls-1" x="1482.08" y="184" width="1" height="6"/><rect class="cls-1" x="1482.08" y="179" width="1" height="5"/><polygon class="cls-1" points="1483.08 174 1483.08 179 1482.08 179 1482.08 184 1478.08 184 1478.08 174 1483.08 174"/><rect class="cls-1" x="1478.08" y="184" width="4" height="6"/><rect class="cls-1" x="1458.08" y="237" width="15" height="43"/><rect class="cls-1" x="1424.08" y="237" width="34" height="43"/><path class="cls-1" d="M1458.33,130.25v107h-34v-28h-9v-5h-4v-74h9v8h35v-8Zm-10,53v-6h-12v6Zm0-12v-6h-12v6Zm0-12v-6h-12v6Zm0-11v-6h-12v6Zm-16,35v-6h-11v6Zm0-12v-6h-11v6Zm0-12v-6h-11v6Zm0-11v-6h-11v6Z" transform="translate(-0.25 -0.25)"/><polygon class="cls-1" points="1455.08 130 1455.08 138 1420.08 138 1420.08 130 1432.08 130 1432.08 133 1450.08 133 1450.08 130 1455.08 130"/><rect class="cls-1" x="1450.08" y="127" width="5" height="3"/><rect class="cls-1" x="1432.08" y="130" width="18" height="3"/><rect class="cls-1" x="1432.08" y="127" width="18" height="3"/><rect class="cls-1" x="1432.08" y="124" width="18" height="3"/><rect class="cls-2" x="1436.08" y="177" width="12" height="6"/><rect class="cls-2" x="1436.08" y="165" width="12" height="6"/><rect class="cls-2" x="1436.08" y="153" width="12" height="6"/><rect class="cls-2" x="1436.08" y="142" width="12" height="6"/><rect class="cls-2" x="1421.08" y="177" width="11" height="6"/><rect class="cls-2" x="1421.08" y="165" width="11" height="6"/><rect class="cls-2" x="1421.08" y="153" width="11" height="6"/><rect class="cls-2" x="1421.08" y="142" width="11" height="6"/><rect class="cls-1" x="1420.08" y="127" width="12" height="3"/><rect class="cls-1" x="1411.08" y="237" width="13" height="43"/><polygon class="cls-1" points="1424.08 209 1424.08 237 1411.08 237 1411.08 216 1415.08 216 1415.08 209 1424.08 209"/><rect class="cls-1" x="1411.08" y="209" width="4" height="7"/><rect class="cls-1" x="1411.08" y="204" width="4" height="5"/><rect class="cls-1" x="1392.08" y="237" width="19" height="43"/><polygon class="cls-1" points="1411.08 216 1411.08 237 1392.08 237 1382.08 237 1382.08 209 1384.08 209 1384.08 216 1411.08 216"/><rect class="cls-1" x="1384.08" y="209" width="27" height="7"/><polygon class="cls-1" points="1411.08 204 1411.08 209 1384.08 209 1384.08 204 1390.08 204 1390.08 207 1408.08 207 1408.08 204 1411.08 204"/><rect class="cls-1" x="1390.08" y="204" width="18" height="3"/><polygon class="cls-1" points="1408.08 199 1408.08 204 1390.08 204 1390.08 199 1398.08 199 1398.08 201 1403.08 201 1403.08 199 1408.08 199"/><rect class="cls-1" x="1398.08" y="199" width="5" height="2"/><rect class="cls-1" x="1398.08" y="196" width="5" height="3"/><rect class="cls-1" x="1382.08" y="237" width="10" height="43"/><rect class="cls-1" x="1379.08" y="237" width="3" height="43"/><rect class="cls-1" x="1370.08" y="237" width="9" height="43"/><polygon class="cls-1" points="1379.08 193 1379.08 237 1370.08 237 1370.08 203 1339.08 203 1339.08 184 1344.08 184 1344.08 190 1348.08 190 1348.08 193 1379.08 193"/><polygon class="cls-1" points="1379.08 184 1379.08 193 1348.08 193 1348.08 190 1350.08 190 1350.08 184 1379.08 184"/><polygon class="cls-1" points="1379.08 179 1379.08 184 1350.08 184 1350.08 179 1351.08 179 1351.08 182 1375.08 182 1375.08 179 1379.08 179"/><rect class="cls-1" x="1351.08" y="179" width="24" height="3"/><rect class="cls-1" x="1351.08" y="174" width="24" height="5"/><polygon class="cls-1" points="1370.08 237 1370.08 280 1339.08 280 1339.08 272 1347.08 272 1347.08 237 1370.08 237"/><polygon class="cls-1" points="1370.08 203 1370.08 237 1347.08 237 1347.08 217 1341.08 217 1341.08 211 1344.08 211 1344.08 207 1339.08 207 1339.08 203 1370.08 203"/><rect class="cls-1" x="1348.08" y="184" width="2" height="6"/><rect class="cls-1" x="1348.08" y="179" width="2" height="5"/><polygon class="cls-1" points="1350.08 174 1350.08 179 1348.08 179 1348.08 184 1344.08 184 1344.08 174 1350.08 174"/><rect class="cls-1" x="1344.08" y="184" width="4" height="6"/><polygon class="cls-1" points="1347.08 237 1347.08 272 1339.08 272 1339.08 264 1341.08 264 1341.08 237 1347.08 237"/><rect class="cls-1" x="1341.08" y="217" width="6" height="20"/><polygon class="cls-1" points="1344.08 207 1344.08 211 1341.08 211 1341.08 209 1339.08 209 1339.08 207 1344.08 207"/><rect class="cls-1" x="1339.08" y="237" width="2" height="27"/><rect class="cls-1" x="1339.08" y="217" width="2" height="20"/><rect class="cls-1" x="1339.08" y="211" width="2" height="6"/><rect class="cls-1" x="1339.08" y="209" width="2" height="2"/><polygon class="cls-1" points="1339.08 272 1339.08 280 1329.08 280 1329.08 237 1330.08 237 1330.08 272 1339.08 272"/><polygon class="cls-1" points="1339.08 264 1339.08 272 1330.08 272 1330.08 237 1333.08 237 1333.08 264 1339.08 264"/><rect class="cls-1" x="1333.08" y="237" width="6" height="27"/><rect class="cls-1" x="1333.08" y="217" width="6" height="20"/><rect class="cls-1" x="1333.08" y="211" width="6" height="6"/><rect class="cls-1" x="1333.08" y="209" width="6" height="2"/><polygon class="cls-1" points="1339.08 207 1339.08 209 1333.08 209 1333.08 211 1330.08 211 1330.08 207 1339.08 207"/><polygon class="cls-1" points="1339.08 203 1339.08 207 1330.08 207 1330.08 211 1333.08 211 1333.08 217 1330.08 217 1330.08 237 1329.08 237 1329.08 203 1339.08 203"/><rect class="cls-1" x="1330.08" y="217" width="3" height="20"/><rect class="cls-1" x="1287.08" y="237" width="42" height="43"/><path class="cls-1" d="M1329.33,203.25v34h-42v-34h7v6h12v-6h4v6h12v-6Zm-7,17v-6h-12v6Zm-16,0v-6h-12v6Z" transform="translate(-0.25 -0.25)"/><path class="cls-1" d="M1329.33,125.25v78h-42v-78h3v13h4v1h12v-1h4v1h12v-1h4v-13Zm-7,72v-6h-12v6Zm0-12v-6h-12v6Zm0-11v-6h-12v6Zm0-12v-6h-12v6Zm0-11v-6h-12v6Zm-16,46v-6h-12v6Zm0-12v-6h-12v6Zm0-11v-6h-12v6Zm0-12v-6h-12v6Zm0-11v-6h-12v6Z" transform="translate(-0.25 -0.25)"/><polygon class="cls-1" points="1326.08 125 1326.08 138 1322.08 138 1322.08 133 1310.08 133 1310.08 138 1306.08 138 1306.08 133 1294.08 133 1294.08 138 1290.08 138 1290.08 125 1294.08 125 1294.08 127 1306.08 127 1306.08 125 1310.08 125 1310.08 127 1322.08 127 1322.08 125 1326.08 125"/><polygon class="cls-1" points="1326.08 104 1326.08 125 1322.08 125 1322.08 121 1310.08 121 1310.08 125 1306.08 125 1306.08 121 1294.08 121 1294.08 125 1290.08 125 1290.08 104 1292.08 104 1292.08 116 1294.08 116 1306.08 116 1310.08 116 1322.08 116 1324.08 116 1324.08 104 1326.08 104"/><polygon class="cls-1" points="1324.08 104 1324.08 116 1322.08 116 1322.08 110 1321.08 110 1321.08 104 1324.08 104"/><rect class="cls-1" x="1321.08" y="99" width="3" height="5"/><rect class="cls-2" x="1310.08" y="214" width="12" height="6"/><rect class="cls-2" x="1310.08" y="203" width="12" height="6"/><rect class="cls-2" x="1310.08" y="191" width="12" height="6"/><rect class="cls-2" x="1310.08" y="179" width="12" height="6"/><rect class="cls-2" x="1310.08" y="168" width="12" height="6"/><rect class="cls-2" x="1310.08" y="156" width="12" height="6"/><rect class="cls-2" x="1310.08" y="145" width="12" height="6"/><rect class="cls-2" x="1310.08" y="138" width="12" height="1"/><rect class="cls-2" x="1310.08" y="133" width="12" height="5"/><rect class="cls-2" x="1310.08" y="125" width="12" height="2"/><rect class="cls-2" x="1310.08" y="121" width="12" height="4"/><polygon class="cls-2" points="1322.08 110 1322.08 116 1310.08 116 1310.08 113 1321.08 113 1321.08 110 1322.08 110"/><rect class="cls-2" x="1310.08" y="110" width="11" height="3"/><polygon class="cls-1" points="1321.08 104 1321.08 110 1310.08 110 1310.08 113 1306.08 113 1306.08 110 1295.08 110 1295.08 104 1321.08 104"/><rect class="cls-1" x="1295.08" y="99" width="26" height="5"/><polygon class="cls-1" points="1321.08 86 1321.08 99 1295.08 99 1295.08 86 1299.08 86 1299.08 92 1317.08 92 1317.08 86 1321.08 86"/><polygon class="cls-1" points="1317.08 86 1317.08 92 1299.08 92 1299.08 86 1303.08 86 1303.08 89 1313.08 89 1313.08 86 1317.08 86"/><rect class="cls-1" x="1313.08" y="80" width="4" height="6"/><rect class="cls-1" x="1303.08" y="86" width="10" height="3"/><rect class="cls-1" x="1303.08" y="80" width="10" height="6"/><polygon class="cls-1" points="1313.08 49 1313.08 80 1303.08 80 1303.08 49 1306.08 49 1306.08 53 1310.08 53 1310.08 49 1313.08 49"/><rect class="cls-1" x="1310.08" y="43" width="3" height="2"/><rect class="cls-1" x="1306.08" y="113" width="4" height="3"/><rect class="cls-1" x="1306.08" y="49" width="4" height="4"/><rect class="cls-1" x="1306.08" y="45" width="4" height="4"/><rect class="cls-1" x="1306.08" y="43" width="4" height="2"/><rect class="cls-1" x="1306.08" width="4" height="43"/><rect class="cls-2" x="1294.08" y="214" width="12" height="6"/><rect class="cls-2" x="1294.08" y="203" width="12" height="6"/><rect class="cls-2" x="1294.08" y="191" width="12" height="6"/><rect class="cls-2" x="1294.08" y="179" width="12" height="6"/><rect class="cls-2" x="1294.08" y="168" width="12" height="6"/><rect class="cls-2" x="1294.08" y="156" width="12" height="6"/><rect class="cls-2" x="1294.08" y="145" width="12" height="6"/><rect class="cls-2" x="1294.08" y="138" width="12" height="1"/><rect class="cls-2" x="1294.08" y="133" width="12" height="5"/><rect class="cls-2" x="1294.08" y="125" width="12" height="2"/><rect class="cls-2" x="1294.08" y="121" width="12" height="4"/><polygon class="cls-2" points="1306.08 113 1306.08 116 1294.08 116 1294.08 110 1295.08 110 1295.08 113 1306.08 113"/><rect class="cls-2" x="1295.08" y="110" width="11" height="3"/><rect class="cls-1" x="1303.08" y="43" width="3" height="2"/><rect class="cls-1" x="1299.08" y="80" width="4" height="6"/><polygon class="cls-1" points="1295.08 104 1295.08 110 1294.08 110 1294.08 116 1292.08 116 1292.08 104 1295.08 104"/><rect class="cls-1" x="1292.08" y="99" width="3" height="5"/><rect class="cls-1" x="1278.08" y="237" width="9" height="43"/><polygon class="cls-1" points="1287.08 203 1287.08 237 1278.08 237 1278.08 209 1273.08 209 1273.08 203 1287.08 203"/><rect class="cls-1" x="1273.08" y="237" width="5" height="43"/><rect class="cls-1" x="1273.08" y="209" width="5" height="28"/><rect class="cls-1" x="1258.08" y="237" width="15" height="43"/><polygon class="cls-1" points="1273.08 209 1273.08 237 1258.08 237 1258.08 216 1268.08 216 1268.08 209 1273.08 209"/><rect class="cls-1" x="1258.08" y="209" width="10" height="7"/><polygon class="cls-1" points="1268.08 204 1268.08 209 1258.08 209 1258.08 207 1262.08 207 1262.08 204 1268.08 204"/><rect class="cls-1" x="1258.08" y="204" width="4" height="3"/><rect class="cls-1" x="1258.08" y="199" width="4" height="5"/><rect class="cls-1" x="1236.08" y="237" width="22" height="43"/><polygon class="cls-1" points="1258.08 216 1258.08 237 1236.08 237 1236.08 209 1238.08 209 1238.08 216 1258.08 216"/><rect class="cls-1" x="1238.08" y="209" width="20" height="7"/><polygon class="cls-1" points="1258.08 207 1258.08 209 1238.08 209 1238.08 204 1243.08 204 1243.08 207 1258.08 207"/><rect class="cls-1" x="1243.08" y="204" width="15" height="3"/><polygon class="cls-1" points="1258.08 199 1258.08 204 1243.08 204 1243.08 199 1251.08 199 1251.08 201 1257.08 201 1257.08 199 1258.08 199"/><polygon class="cls-1" points="1258.08 126 1258.08 199 1257.08 199 1257.08 196 1251.08 196 1251.08 199 1243.08 199 1243.08 204 1238.08 204 1238.08 209 1236.08 209 1236.08 237 1223.08 237 1203.08 237 1203.08 145 1201.08 145 1201.08 126 1206.08 126 1206.08 135 1232.08 135 1232.08 126 1239.08 126 1239.08 131 1249.08 131 1249.08 126 1250.08 126 1250.08 131 1255.08 131 1255.08 126 1258.08 126"/><rect class="cls-1" x="1251.08" y="199" width="6" height="2"/><rect class="cls-1" x="1251.08" y="196" width="6" height="3"/><rect class="cls-1" x="1250.08" y="126" width="5" height="5"/><rect class="cls-1" x="1250.08" y="123" width="5" height="3"/><rect class="cls-1" x="1239.08" y="126" width="10" height="5"/><rect class="cls-1" x="1239.08" y="117" width="10" height="9"/><rect class="cls-1" x="1223.08" y="237" width="13" height="43"/><rect class="cls-1" x="1206.08" y="126" width="26" height="9"/><rect class="cls-1" x="1206.08" y="119" width="26" height="7"/><rect class="cls-1" x="1203.08" y="237" width="20" height="43"/><rect class="cls-1" x="1201.08" y="237" width="2" height="43"/><rect class="cls-1" x="1201.08" y="145" width="2" height="92"/><rect class="cls-1" x="1200.08" y="237" width="1" height="43"/><rect class="cls-1" x="1200.08" y="145" width="1" height="92"/><rect class="cls-1" x="1197.08" y="237" width="3" height="43"/><rect class="cls-1" x="1197.08" y="145" width="3" height="92"/><path class="cls-1" d="M1200.33,89.25v56h-3v92h-40v-148h4v5h35v-5Zm-8,122v-6h-12v6Zm0-12v-6h-12v6Zm0-11v-6h-12v6Zm0-12v-6h-12v6Zm0-11v-6h-12v6Zm0-12v-6h-12v6Zm0-12v-6h-12v6Zm0-11v-6h-12v6Zm0-12v-6h-12v6Zm0-11v-6h-12v6Zm-15,104v-6h-12v6Zm0-12v-6h-12v6Zm0-11v-6h-12v6Zm0-12v-6h-12v6Zm0-11v-6h-12v6Zm0-12v-6h-12v6Zm0-12v-6h-12v6Zm0-11v-6h-12v6Zm0-12v-6h-12v6Zm0-11v-6h-12v6Z" transform="translate(-0.25 -0.25)"/><rect class="cls-1" x="1157.08" y="237" width="40" height="43"/><polygon class="cls-1" points="1196.08 89 1196.08 94 1161.08 94 1161.08 89 1167.08 89 1167.08 92 1195.08 92 1195.08 89 1196.08 89"/><rect class="cls-1" x="1195.08" y="86" width="1" height="3"/><rect class="cls-1" x="1167.08" y="89" width="28" height="3"/><rect class="cls-1" x="1167.08" y="86" width="28" height="3"/><polygon class="cls-1" points="1195.08 77 1195.08 86 1167.08 86 1167.08 75 1171.08 75 1171.08 77 1195.08 77"/><rect class="cls-1" x="1171.08" y="75" width="24" height="2"/><rect class="cls-1" x="1171.08" y="73" width="24" height="2"/><rect class="cls-2" x="1180.08" y="205" width="12" height="6"/><rect class="cls-2" x="1180.08" y="193" width="12" height="6"/><rect class="cls-2" x="1180.08" y="182" width="12" height="6"/><rect class="cls-2" x="1180.08" y="170" width="12" height="6"/><rect class="cls-2" x="1180.08" y="159" width="12" height="6"/><rect class="cls-2" x="1180.08" y="147" width="12" height="6"/><rect class="cls-2" x="1180.08" y="135" width="12" height="6"/><rect class="cls-2" x="1180.08" y="124" width="12" height="6"/><rect class="cls-2" x="1180.08" y="112" width="12" height="6"/><rect class="cls-2" x="1180.08" y="101" width="12" height="6"/><rect class="cls-2" x="1165.08" y="205" width="12" height="6"/><rect class="cls-2" x="1165.08" y="193" width="12" height="6"/><rect class="cls-2" x="1165.08" y="182" width="12" height="6"/><rect class="cls-2" x="1165.08" y="170" width="12" height="6"/><rect class="cls-2" x="1165.08" y="159" width="12" height="6"/><rect class="cls-2" x="1165.08" y="147" width="12" height="6"/><rect class="cls-2" x="1165.08" y="135" width="12" height="6"/><rect class="cls-2" x="1165.08" y="124" width="12" height="6"/><rect class="cls-2" x="1165.08" y="112" width="12" height="6"/><rect class="cls-2" x="1165.08" y="101" width="12" height="6"/><rect class="cls-1" x="1161.08" y="86" width="6" height="3"/><rect class="cls-1" x="1150.08" y="237" width="7" height="43"/><rect class="cls-1" x="1111.08" y="237" width="39" height="43"/><polygon class="cls-1" points="1150.08 193 1150.08 237 1111.08 237 1111.08 184 1115.08 184 1115.08 190 1120.08 190 1120.08 193 1150.08 193"/><polygon class="cls-1" points="1150.08 184 1150.08 193 1120.08 193 1120.08 190 1121.08 190 1121.08 184 1150.08 184"/><polygon class="cls-1" points="1150.08 179 1150.08 184 1121.08 184 1121.08 179 1123.08 179 1123.08 182 1146.08 182 1146.08 179 1150.08 179"/><rect class="cls-1" x="1123.08" y="179" width="23" height="3"/><rect class="cls-1" x="1123.08" y="174" width="23" height="5"/><rect class="cls-1" x="1120.08" y="184" width="1" height="6"/><rect class="cls-1" x="1120.08" y="179" width="1" height="5"/><polygon class="cls-1" points="1121.08 174 1121.08 179 1120.08 179 1120.08 184 1115.08 184 1115.08 174 1121.08 174"/><rect class="cls-1" x="1115.08" y="184" width="5" height="6"/><path class="cls-1" d="M1109.33,130.25v150h-33v-71h-10v-5h-3v-74h8v8h36v-8Zm-10,53v-6h-11v6Zm0-12v-6h-11v6Zm0-12v-6h-11v6Zm0-11v-6h-11v6Zm-15,35v-6h-12v6Zm0-12v-6h-12v6Zm0-12v-6h-12v6Zm0-11v-6h-12v6Z" transform="translate(-0.25 -0.25)"/><polygon class="cls-1" points="1107.08 130 1107.08 138 1071.08 138 1071.08 130 1084.08 130 1084.08 133 1102.08 133 1102.08 130 1107.08 130"/><rect class="cls-1" x="1102.08" y="127" width="5" height="3"/><rect class="cls-1" x="1084.08" y="130" width="18" height="3"/><rect class="cls-1" x="1084.08" y="127" width="18" height="3"/><rect class="cls-1" x="1084.08" y="124" width="18" height="3"/><rect class="cls-2" x="1088.08" y="177" width="11" height="6"/><rect class="cls-2" x="1088.08" y="165" width="11" height="6"/><rect class="cls-2" x="1088.08" y="153" width="11" height="6"/><rect class="cls-2" x="1088.08" y="142" width="11" height="6"/><rect class="cls-2" x="1072.08" y="177" width="12" height="6"/><rect class="cls-2" x="1072.08" y="165" width="12" height="6"/><rect class="cls-2" x="1072.08" y="153" width="12" height="6"/><rect class="cls-2" x="1072.08" y="142" width="12" height="6"/><rect class="cls-1" x="1071.08" y="127" width="13" height="3"/><polygon class="cls-1" points="1076.08 209 1076.08 280 1063.08 280 1063.08 216 1066.08 216 1066.08 209 1076.08 209"/><rect class="cls-1" x="1063.08" y="209" width="3" height="7"/><rect class="cls-1" x="1063.08" y="204" width="3" height="5"/><polygon class="cls-1" points="1063.08 216 1063.08 280 1034.08 280 1034.08 209 1036.08 209 1036.08 216 1063.08 216"/><rect class="cls-1" x="1036.08" y="209" width="27" height="7"/><polygon class="cls-1" points="1063.08 204 1063.08 209 1036.08 209 1036.08 204 1041.08 204 1041.08 207 1060.08 207 1060.08 204 1063.08 204"/><rect class="cls-1" x="1041.08" y="204" width="19" height="3"/><polygon class="cls-1" points="1060.08 199 1060.08 204 1041.08 204 1041.08 199 1049.08 199 1049.08 201 1055.08 201 1055.08 199 1060.08 199"/><rect class="cls-1" x="1049.08" y="199" width="6" height="2"/><rect class="cls-1" x="1049.08" y="196" width="6" height="3"/><path class="cls-1" d="M1034.33,209.25v71h-42v-155h3v13h5v1h11v-1h4v1h12v-1h4v-13h3Zm-7,11v-6h-12v6Zm0-11v-6h-12v6Zm0-12v-6h-12v6Zm0-12v-6h-12v6Zm0-11v-6h-12v6Zm0-12v-6h-12v6Zm0-11v-6h-12v6Zm-16,69v-6h-11v6Zm0-11v-6h-11v6Zm0-12v-6h-11v6Zm0-12v-6h-11v6Zm0-11v-6h-11v6Zm0-12v-6h-11v6Zm0-11v-6h-11v6Z" transform="translate(-0.25 -0.25)"/><polygon class="cls-1" points="1031.08 125 1031.08 138 1027.08 138 1027.08 133 1015.08 133 1015.08 138 1011.08 138 1011.08 133 1000.08 133 1000.08 138 995.08 138 995.08 125 1000.08 125 1000.08 127 1011.08 127 1011.08 125 1015.08 125 1015.08 127 1027.08 127 1027.08 125 1031.08 125"/><polygon class="cls-1" points="1031.08 104 1031.08 125 1027.08 125 1027.08 121 1015.08 121 1015.08 125 1011.08 125 1011.08 121 1000.08 121 1000.08 125 995.08 125 995.08 104 998.08 104 998.08 116 1000.08 116 1011.08 116 1015.08 116 1027.08 116 1029.08 116 1029.08 104 1031.08 104"/><polygon class="cls-1" points="1029.08 104 1029.08 116 1027.08 116 1027.08 110 1026.08 110 1026.08 104 1029.08 104"/><rect class="cls-1" x="1026.08" y="99" width="3" height="5"/><rect class="cls-2" x="1015.08" y="214" width="12" height="6"/><rect class="cls-2" x="1015.08" y="203" width="12" height="6"/><rect class="cls-2" x="1015.08" y="191" width="12" height="6"/><rect class="cls-2" x="1015.08" y="179" width="12" height="6"/><rect class="cls-2" x="1015.08" y="168" width="12" height="6"/><rect class="cls-2" x="1015.08" y="156" width="12" height="6"/><rect class="cls-2" x="1015.08" y="145" width="12" height="6"/><rect class="cls-2" x="1015.08" y="138" width="12" height="1"/><rect class="cls-2" x="1015.08" y="133" width="12" height="5"/><rect class="cls-2" x="1015.08" y="125" width="12" height="2"/><rect class="cls-2" x="1015.08" y="121" width="12" height="4"/><polygon class="cls-2" points="1027.08 110 1027.08 116 1015.08 116 1015.08 113 1026.08 113 1026.08 110 1027.08 110"/><rect class="cls-2" x="1015.08" y="110" width="11" height="3"/><polygon class="cls-1" points="1026.08 104 1026.08 110 1015.08 110 1015.08 113 1011.08 113 1011.08 110 1000.08 110 1000.08 104 1026.08 104"/><rect class="cls-1" x="1000.08" y="99" width="26" height="5"/><polygon class="cls-1" points="1026.08 86 1026.08 99 1000.08 99 1000.08 86 1005.08 86 1005.08 92 1022.08 92 1022.08 86 1026.08 86"/><rect class="cls-1" x="1005.08" y="86" width="17" height="6"/><rect class="cls-1" x="1005.08" y="80" width="17" height="6"/><rect class="cls-1" x="1011.08" y="113" width="4" height="3"/><rect class="cls-2" x="1000.08" y="214" width="11" height="6"/><rect class="cls-2" x="1000.08" y="203" width="11" height="6"/><rect class="cls-2" x="1000.08" y="191" width="11" height="6"/><rect class="cls-2" x="1000.08" y="179" width="11" height="6"/><rect class="cls-2" x="1000.08" y="168" width="11" height="6"/><rect class="cls-2" x="1000.08" y="156" width="11" height="6"/><rect class="cls-2" x="1000.08" y="145" width="11" height="6"/><rect class="cls-2" x="1000.08" y="138" width="11" height="1"/><rect class="cls-2" x="1000.08" y="133" width="11" height="5"/><rect class="cls-2" x="1000.08" y="125" width="11" height="2"/><rect class="cls-2" x="1000.08" y="121" width="11" height="4"/><rect class="cls-2" x="1000.08" y="113" width="11" height="3"/><rect class="cls-2" x="1000.08" y="110" width="11" height="3"/><polygon class="cls-1" points="1000.08 113 1000.08 116 998.08 116 998.08 104 1000.08 104 1000.08 110 1000.08 113"/><rect class="cls-1" x="998.08" y="99" width="2" height="5"/><polygon class="cls-1" points="520 193 520 280 512 280 512 237 481 237 481 184 486 184 486 190 490 190 490 193 520 193"/><polygon class="cls-1" points="520 184 520 193 490 193 490 190 491 190 491 184 520 184"/><polygon class="cls-1" points="520 179 520 184 491 184 491 179 493 179 493 182 517 182 517 179 520 179"/><rect class="cls-1" x="493" y="179" width="24" height="3"/><rect class="cls-1" x="493" y="174" width="24" height="5"/><rect class="cls-1" x="481" y="237" width="31" height="43"/><rect class="cls-1" x="490" y="184" width="1" height="6"/><rect class="cls-1" x="490" y="179" width="1" height="5"/><polygon class="cls-1" points="491 174 491 179 490 179 490 184 486 184 486 174 491 174"/><rect class="cls-1" x="486" y="184" width="4" height="6"/><rect class="cls-1" x="466" y="237" width="15" height="43"/><rect class="cls-1" x="432" y="237" width="34" height="43"/><path class="cls-1" d="M466.25,130.25v107h-34v-28h-9v-5h-4v-74h9v8h35v-8Zm-10,53v-6h-12v6Zm0-12v-6h-12v6Zm0-12v-6h-12v6Zm0-11v-6h-12v6Zm-16,35v-6h-11v6Zm0-12v-6h-11v6Zm0-12v-6h-11v6Zm0-11v-6h-11v6Z" transform="translate(-0.25 -0.25)"/><polygon class="cls-1" points="463 130 463 138 428 138 428 130 440 130 440 133 458 133 458 130 463 130"/><rect class="cls-1" x="458" y="127" width="5" height="3"/><rect class="cls-1" x="440" y="130" width="18" height="3"/><rect class="cls-1" x="440" y="127" width="18" height="3"/><rect class="cls-1" x="440" y="124" width="18" height="3"/><rect class="cls-2" x="444" y="177" width="12" height="6"/><rect class="cls-2" x="444" y="165" width="12" height="6"/><rect class="cls-2" x="444" y="153" width="12" height="6"/><rect class="cls-2" x="444" y="142" width="12" height="6"/><rect class="cls-2" x="429" y="177" width="11" height="6"/><rect class="cls-2" x="429" y="165" width="11" height="6"/><rect class="cls-2" x="429" y="153" width="11" height="6"/><rect class="cls-2" x="429" y="142" width="11" height="6"/><rect class="cls-1" x="428" y="127" width="12" height="3"/><rect class="cls-1" x="419" y="237" width="13" height="43"/><polygon class="cls-1" points="432 209 432 237 419 237 419 216 423 216 423 209 432 209"/><rect class="cls-1" x="419" y="209" width="4" height="7"/><rect class="cls-1" x="419" y="204" width="4" height="5"/><rect class="cls-1" x="400" y="237" width="19" height="43"/><polygon class="cls-1" points="419 216 419 237 400 237 390 237 390 209 392 209 392 216 419 216"/><rect class="cls-1" x="392" y="209" width="27" height="7"/><polygon class="cls-1" points="419 204 419 209 392 209 392 204 398 204 398 207 416 207 416 204 419 204"/><rect class="cls-1" x="398" y="204" width="18" height="3"/><polygon class="cls-1" points="416 199 416 204 398 204 398 199 406 199 406 201 411 201 411 199 416 199"/><rect class="cls-1" x="406" y="199" width="5" height="2"/><rect class="cls-1" x="406" y="196" width="5" height="3"/><rect class="cls-1" x="390" y="237" width="10" height="43"/><rect class="cls-1" x="387" y="237" width="3" height="43"/><rect class="cls-1" x="378" y="237" width="9" height="43"/><polygon class="cls-1" points="387 193 387 237 378 237 378 203 347 203 347 184 352 184 352 190 356 190 356 193 387 193"/><polygon class="cls-1" points="387 184 387 193 356 193 356 190 358 190 358 184 387 184"/><polygon class="cls-1" points="387 179 387 184 358 184 358 179 359 179 359 182 383 182 383 179 387 179"/><rect class="cls-1" x="359" y="179" width="24" height="3"/><rect class="cls-1" x="359" y="174" width="24" height="5"/><polygon class="cls-1" points="378 237 378 280 347 280 347 272 355 272 355 237 378 237"/><polygon class="cls-1" points="378 203 378 237 355 237 355 217 349 217 349 211 352 211 352 207 347 207 347 203 378 203"/><rect class="cls-1" x="356" y="184" width="2" height="6"/><rect class="cls-1" x="356" y="179" width="2" height="5"/><polygon class="cls-1" points="358 174 358 179 356 179 356 184 352 184 352 174 358 174"/><rect class="cls-1" x="352" y="184" width="4" height="6"/><polygon class="cls-1" points="355 237 355 272 347 272 347 264 349 264 349 237 355 237"/><rect class="cls-1" x="349" y="217" width="6" height="20"/><polygon class="cls-1" points="352 207 352 211 349 211 349 209 347 209 347 207 352 207"/><rect class="cls-1" x="347" y="237" width="2" height="27"/><rect class="cls-1" x="347" y="217" width="2" height="20"/><rect class="cls-1" x="347" y="211" width="2" height="6"/><rect class="cls-1" x="347" y="209" width="2" height="2"/><polygon class="cls-1" points="347 272 347 280 337 280 337 237 338 237 338 272 347 272"/><polygon class="cls-1" points="347 264 347 272 338 272 338 237 341 237 341 264 347 264"/><rect class="cls-1" x="341" y="237" width="6" height="27"/><rect class="cls-1" x="341" y="217" width="6" height="20"/><rect class="cls-1" x="341" y="211" width="6" height="6"/><rect class="cls-1" x="341" y="209" width="6" height="2"/><polygon class="cls-1" points="347 207 347 209 341 209 341 211 338 211 338 207 347 207"/><polygon class="cls-1" points="347 203 347 207 338 207 338 211 341 211 341 217 338 217 338 237 337 237 337 203 347 203"/><rect class="cls-1" x="338" y="217" width="3" height="20"/><rect class="cls-1" x="295" y="237" width="42" height="43"/><path class="cls-1" d="M337.25,203.25v34h-42v-34h7v6h12v-6h4v6h12v-6Zm-7,17v-6h-12v6Zm-16,0v-6h-12v6Z" transform="translate(-0.25 -0.25)"/><path class="cls-1" d="M337.25,125.25v78h-42v-78h3v13h4v1h12v-1h4v1h12v-1h4v-13Zm-7,72v-6h-12v6Zm0-12v-6h-12v6Zm0-11v-6h-12v6Zm0-12v-6h-12v6Zm0-11v-6h-12v6Zm-16,46v-6h-12v6Zm0-12v-6h-12v6Zm0-11v-6h-12v6Zm0-12v-6h-12v6Zm0-11v-6h-12v6Z" transform="translate(-0.25 -0.25)"/><polygon class="cls-1" points="334 125 334 138 330 138 330 133 318 133 318 138 314 138 314 133 302 133 302 138 298 138 298 125 302 125 302 127 314 127 314 125 318 125 318 127 330 127 330 125 334 125"/><polygon class="cls-1" points="334 104 334 125 330 125 330 121 318 121 318 125 314 125 314 121 302 121 302 125 298 125 298 104 300 104 300 116 302 116 314 116 318 116 330 116 332 116 332 104 334 104"/><polygon class="cls-1" points="332 104 332 116 330 116 330 110 329 110 329 104 332 104"/><rect class="cls-1" x="329" y="99" width="3" height="5"/><rect class="cls-2" x="318" y="214" width="12" height="6"/><rect class="cls-2" x="318" y="203" width="12" height="6"/><rect class="cls-2" x="318" y="191" width="12" height="6"/><rect class="cls-2" x="318" y="179" width="12" height="6"/><rect class="cls-2" x="318" y="168" width="12" height="6"/><rect class="cls-2" x="318" y="156" width="12" height="6"/><rect class="cls-2" x="318" y="145" width="12" height="6"/><rect class="cls-2" x="318" y="138" width="12" height="1"/><rect class="cls-2" x="318" y="133" width="12" height="5"/><rect class="cls-2" x="318" y="125" width="12" height="2"/><rect class="cls-2" x="318" y="121" width="12" height="4"/><polygon class="cls-2" points="330 110 330 116 318 116 318 113 329 113 329 110 330 110"/><rect class="cls-2" x="318" y="110" width="11" height="3"/><polygon class="cls-1" points="329 104 329 110 318 110 318 113 314 113 314 110 303 110 303 104 329 104"/><rect class="cls-1" x="303" y="99" width="26" height="5"/><polygon class="cls-1" points="329 86 329 99 303 99 303 86 307 86 307 92 325 92 325 86 329 86"/><polygon class="cls-1" points="325 86 325 92 307 92 307 86 311 86 311 89 321 89 321 86 325 86"/><rect class="cls-1" x="321" y="80" width="4" height="6"/><rect class="cls-1" x="311" y="86" width="10" height="3"/><rect class="cls-1" x="311" y="80" width="10" height="6"/><polygon class="cls-1" points="321 49 321 80 311 80 311 49 314 49 314 53 318 53 318 49 321 49"/><rect class="cls-1" x="318" y="43" width="3" height="2"/><rect class="cls-1" x="314" y="113" width="4" height="3"/><rect class="cls-1" x="314" y="49" width="4" height="4"/><rect class="cls-1" x="314" y="45" width="4" height="4"/><rect class="cls-1" x="314" y="43" width="4" height="2"/><rect class="cls-1" x="314" width="4" height="43"/><rect class="cls-2" x="302" y="214" width="12" height="6"/><rect class="cls-2" x="302" y="203" width="12" height="6"/><rect class="cls-2" x="302" y="191" width="12" height="6"/><rect class="cls-2" x="302" y="179" width="12" height="6"/><rect class="cls-2" x="302" y="168" width="12" height="6"/><rect class="cls-2" x="302" y="156" width="12" height="6"/><rect class="cls-2" x="302" y="145" width="12" height="6"/><rect class="cls-2" x="302" y="138" width="12" height="1"/><rect class="cls-2" x="302" y="133" width="12" height="5"/><rect class="cls-2" x="302" y="125" width="12" height="2"/><rect class="cls-2" x="302" y="121" width="12" height="4"/><polygon class="cls-2" points="314 113 314 116 302 116 302 110 303 110 303 113 314 113"/><rect class="cls-2" x="303" y="110" width="11" height="3"/><rect class="cls-1" x="311" y="43" width="3" height="2"/><rect class="cls-1" x="307" y="80" width="4" height="6"/><polygon class="cls-1" points="303 104 303 110 302 110 302 116 300 116 300 104 303 104"/><rect class="cls-1" x="300" y="99" width="3" height="5"/><rect class="cls-1" x="286" y="237" width="9" height="43"/><polygon class="cls-1" points="295 203 295 237 286 237 286 209 281 209 281 203 295 203"/><rect class="cls-1" x="281" y="237" width="5" height="43"/><rect class="cls-1" x="281" y="209" width="5" height="28"/><rect class="cls-1" x="266" y="237" width="15" height="43"/><polygon class="cls-1" points="281 209 281 237 266 237 266 216 276 216 276 209 281 209"/><rect class="cls-1" x="266" y="209" width="10" height="7"/><polygon class="cls-1" points="276 204 276 209 266 209 266 207 270 207 270 204 276 204"/><rect class="cls-1" x="266" y="204" width="4" height="3"/><rect class="cls-1" x="266" y="199" width="4" height="5"/><rect class="cls-1" x="244" y="237" width="22" height="43"/><polygon class="cls-1" points="266 216 266 237 244 237 244 209 246 209 246 216 266 216"/><rect class="cls-1" x="246" y="209" width="20" height="7"/><polygon class="cls-1" points="266 207 266 209 246 209 246 204 251 204 251 207 266 207"/><rect class="cls-1" x="251" y="204" width="15" height="3"/><polygon class="cls-1" points="266 199 266 204 251 204 251 199 259 199 259 201 265 201 265 199 266 199"/><polygon class="cls-1" points="266 126 266 199 265 199 265 196 259 196 259 199 251 199 251 204 246 204 246 209 244 209 244 237 231 237 211 237 211 145 209 145 209 126 214 126 214 135 240 135 240 126 247 126 247 131 257 131 257 126 258 126 258 131 263 131 263 126 266 126"/><rect class="cls-1" x="259" y="199" width="6" height="2"/><rect class="cls-1" x="259" y="196" width="6" height="3"/><rect class="cls-1" x="258" y="126" width="5" height="5"/><rect class="cls-1" x="258" y="123" width="5" height="3"/><rect class="cls-1" x="247" y="126" width="10" height="5"/><rect class="cls-1" x="247" y="117" width="10" height="9"/><rect class="cls-1" x="231" y="237" width="13" height="43"/><rect class="cls-1" x="214" y="126" width="26" height="9"/><rect class="cls-1" x="214" y="119" width="26" height="7"/><rect class="cls-1" x="211" y="237" width="20" height="43"/><rect class="cls-1" x="209" y="237" width="2" height="43"/><rect class="cls-1" x="209" y="145" width="2" height="92"/><rect class="cls-1" x="208" y="237" width="1" height="43"/><rect class="cls-1" x="208" y="145" width="1" height="92"/><rect class="cls-1" x="205" y="237" width="3" height="43"/><rect class="cls-1" x="205" y="145" width="3" height="92"/><path class="cls-1" d="M208.25,89.25v56h-3v92h-40v-148h4v5h35v-5Zm-8,122v-6h-12v6Zm0-12v-6h-12v6Zm0-11v-6h-12v6Zm0-12v-6h-12v6Zm0-11v-6h-12v6Zm0-12v-6h-12v6Zm0-12v-6h-12v6Zm0-11v-6h-12v6Zm0-12v-6h-12v6Zm0-11v-6h-12v6Zm-15,104v-6h-12v6Zm0-12v-6h-12v6Zm0-11v-6h-12v6Zm0-12v-6h-12v6Zm0-11v-6h-12v6Zm0-12v-6h-12v6Zm0-12v-6h-12v6Zm0-11v-6h-12v6Zm0-12v-6h-12v6Zm0-11v-6h-12v6Z" transform="translate(-0.25 -0.25)"/><rect class="cls-1" x="165" y="237" width="40" height="43"/><polygon class="cls-1" points="204 89 204 94 169 94 169 89 175 89 175 92 203 92 203 89 204 89"/><rect class="cls-1" x="203" y="86" width="1" height="3"/><rect class="cls-1" x="175" y="89" width="28" height="3"/><rect class="cls-1" x="175" y="86" width="28" height="3"/><polygon class="cls-1" points="203 77 203 86 175 86 175 75 179 75 179 77 203 77"/><rect class="cls-1" x="179" y="75" width="24" height="2"/><rect class="cls-1" x="179" y="73" width="24" height="2"/><rect class="cls-2" x="188" y="205" width="12" height="6"/><rect class="cls-2" x="188" y="193" width="12" height="6"/><rect class="cls-2" x="188" y="182" width="12" height="6"/><rect class="cls-2" x="188" y="170" width="12" height="6"/><rect class="cls-2" x="188" y="159" width="12" height="6"/><rect class="cls-2" x="188" y="147" width="12" height="6"/><rect class="cls-2" x="188" y="135" width="12" height="6"/><rect class="cls-2" x="188" y="124" width="12" height="6"/><rect class="cls-2" x="188" y="112" width="12" height="6"/><rect class="cls-2" x="188" y="101" width="12" height="6"/><rect class="cls-2" x="173" y="205" width="12" height="6"/><rect class="cls-2" x="173" y="193" width="12" height="6"/><rect class="cls-2" x="173" y="182" width="12" height="6"/><rect class="cls-2" x="173" y="170" width="12" height="6"/><rect class="cls-2" x="173" y="159" width="12" height="6"/><rect class="cls-2" x="173" y="147" width="12" height="6"/><rect class="cls-2" x="173" y="135" width="12" height="6"/><rect class="cls-2" x="173" y="124" width="12" height="6"/><rect class="cls-2" x="173" y="112" width="12" height="6"/><rect class="cls-2" x="173" y="101" width="12" height="6"/><rect class="cls-1" x="169" y="86" width="6" height="3"/><rect class="cls-1" x="158" y="237" width="7" height="43"/><rect class="cls-1" x="119" y="237" width="39" height="43"/><polygon class="cls-1" points="158 193 158 237 119 237 119 184 123 184 123 190 128 190 128 193 158 193"/><polygon class="cls-1" points="158 184 158 193 128 193 128 190 129 190 129 184 158 184"/><polygon class="cls-1" points="158 179 158 184 129 184 129 179 131 179 131 182 154 182 154 179 158 179"/><rect class="cls-1" x="131" y="179" width="23" height="3"/><rect class="cls-1" x="131" y="174" width="23" height="5"/><rect class="cls-1" x="128" y="184" width="1" height="6"/><rect class="cls-1" x="128" y="179" width="1" height="5"/><polygon class="cls-1" points="129 174 129 179 128 179 128 184 123 184 123 174 129 174"/><rect class="cls-1" x="123" y="184" width="5" height="6"/><path class="cls-1" d="M117.25,130.25v150h-33v-71h-10v-5h-3v-74h8v8h36v-8Zm-10,53v-6h-11v6Zm0-12v-6h-11v6Zm0-12v-6h-11v6Zm0-11v-6h-11v6Zm-15,35v-6h-12v6Zm0-12v-6h-12v6Zm0-12v-6h-12v6Zm0-11v-6h-12v6Z" transform="translate(-0.25 -0.25)"/><polygon class="cls-1" points="115 130 115 138 79 138 79 130 92 130 92 133 110 133 110 130 115 130"/><rect class="cls-1" x="110" y="127" width="5" height="3"/><rect class="cls-1" x="92" y="130" width="18" height="3"/><rect class="cls-1" x="92" y="127" width="18" height="3"/><rect class="cls-1" x="92" y="124" width="18" height="3"/><rect class="cls-2" x="96" y="177" width="11" height="6"/><rect class="cls-2" x="96" y="165" width="11" height="6"/><rect class="cls-2" x="96" y="153" width="11" height="6"/><rect class="cls-2" x="96" y="142" width="11" height="6"/><rect class="cls-2" x="80" y="177" width="12" height="6"/><rect class="cls-2" x="80" y="165" width="12" height="6"/><rect class="cls-2" x="80" y="153" width="12" height="6"/><rect class="cls-2" x="80" y="142" width="12" height="6"/><rect class="cls-1" x="79" y="127" width="13" height="3"/><polygon class="cls-1" points="84 209 84 280 71 280 71 216 74 216 74 209 84 209"/><rect class="cls-1" x="71" y="209" width="3" height="7"/><rect class="cls-1" x="71" y="204" width="3" height="5"/><polygon class="cls-1" points="71 216 71 280 42 280 42 209 44 209 44 216 71 216"/><rect class="cls-1" x="44" y="209" width="27" height="7"/><polygon class="cls-1" points="71 204 71 209 44 209 44 204 49 204 49 207 68 207 68 204 71 204"/><rect class="cls-1" x="49" y="204" width="19" height="3"/><polygon class="cls-1" points="68 199 68 204 49 204 49 199 57 199 57 201 63 201 63 199 68 199"/><rect class="cls-1" x="57" y="199" width="6" height="2"/><rect class="cls-1" x="57" y="196" width="6" height="3"/><path class="cls-1" d="M42.25,209.25v71H.25v-155h3v13h5v1h11v-1h4v1h12v-1h4v-13h3Zm-7,11v-6h-12v6Zm0-11v-6h-12v6Zm0-12v-6h-12v6Zm0-12v-6h-12v6Zm0-11v-6h-12v6Zm0-12v-6h-12v6Zm0-11v-6h-12v6Zm-16,69v-6h-11v6Zm0-11v-6h-11v6Zm0-12v-6h-11v6Zm0-12v-6h-11v6Zm0-11v-6h-11v6Zm0-12v-6h-11v6Zm0-11v-6h-11v6Z" transform="translate(-0.25 -0.25)"/><polygon class="cls-1" points="39 125 39 138 35 138 35 133 23 133 23 138 19 138 19 133 8 133 8 138 3 138 3 125 8 125 8 127 19 127 19 125 23 125 23 127 35 127 35 125 39 125"/><polygon class="cls-1" points="39 104 39 125 35 125 35 121 23 121 23 125 19 125 19 121 8 121 8 125 3 125 3 104 6 104 6 116 8 116 19 116 23 116 35 116 37 116 37 104 39 104"/><polygon class="cls-1" points="37 104 37 116 35 116 35 110 34 110 34 104 37 104"/><rect class="cls-1" x="34" y="99" width="3" height="5"/><rect class="cls-2" x="23" y="214" width="12" height="6"/><rect class="cls-2" x="23" y="203" width="12" height="6"/><rect class="cls-2" x="23" y="191" width="12" height="6"/><rect class="cls-2" x="23" y="179" width="12" height="6"/><rect class="cls-2" x="23" y="168" width="12" height="6"/><rect class="cls-2" x="23" y="156" width="12" height="6"/><rect class="cls-2" x="23" y="145" width="12" height="6"/><rect class="cls-2" x="23" y="138" width="12" height="1"/><rect class="cls-2" x="23" y="133" width="12" height="5"/><rect class="cls-2" x="23" y="125" width="12" height="2"/><rect class="cls-2" x="23" y="121" width="12" height="4"/><polygon class="cls-2" points="35 110 35 116 23 116 23 113 34 113 34 110 35 110"/><rect class="cls-2" x="23" y="110" width="11" height="3"/><polygon class="cls-1" points="34 104 34 110 23 110 23 113 19 113 19 110 8 110 8 104 34 104"/><rect class="cls-1" x="8" y="99" width="26" height="5"/><polygon class="cls-1" points="34 86 34 99 8 99 8 86 13 86 13 92 30 92 30 86 34 86"/><rect class="cls-1" x="13" y="86" width="17" height="6"/><rect class="cls-1" x="13" y="80" width="17" height="6"/><rect class="cls-1" x="19" y="113" width="4" height="3"/><rect class="cls-2" x="8" y="214" width="11" height="6"/><rect class="cls-2" x="8" y="203" width="11" height="6"/><rect class="cls-2" x="8" y="191" width="11" height="6"/><rect class="cls-2" x="8" y="179" width="11" height="6"/><rect class="cls-2" x="8" y="168" width="11" height="6"/><rect class="cls-2" x="8" y="156" width="11" height="6"/><rect class="cls-2" x="8" y="145" width="11" height="6"/><rect class="cls-2" x="8" y="138" width="11" height="1"/><rect class="cls-2" x="8" y="133" width="11" height="5"/><rect class="cls-2" x="8" y="125" width="11" height="2"/><rect class="cls-2" x="8" y="121" width="11" height="4"/><rect class="cls-2" x="8" y="113" width="11" height="3"/><rect class="cls-2" x="8" y="110" width="11" height="3"/><polygon class="cls-1" points="8 113 8 116 6 116 6 104 8 104 8 110 8 113"/><rect class="cls-1" x="6" y="99" width="2" height="5"/></g></g></svg>