<svg xmlns="http://www.w3.org/2000/svg" viewBox="0 0 331 164"><defs><style>.cls-1,.cls-2,.cls-3,.cls-4,.cls-5{fill:none;}.cls-1,.cls-2,.cls-3,.cls-4,.cls-5,.cls-7{stroke:#fff;}.cls-1,.cls-4,.cls-7{stroke-linecap:round;stroke-linejoin:round;}.cls-1,.cls-2,.cls-7{stroke-width:2px;}.cls-2,.cls-3,.cls-5{stroke-miterlimit:10;}.cls-3{stroke-width:1.5px;}.cls-5{stroke-width:1.3px;}.cls-6,.cls-7{fill:#87c22e;}</style></defs><title>click-thru-ratre</title><g id="Layer_2" data-name="Layer 2"><g id="texts"><path class="cls-1" d="M115.2,83.82a2.66,2.66,0,0,0-1.68,2.55v.3a2.61,2.61,0,0,0,1.93,2.41C115.29,87.35,115.21,85.5,115.2,83.82Z"/><path class="cls-1" d="M224.75,85c-.65-4-3.17-10.88-29.31-10.88,0,0-13.23-11.55-21.19-13-3.75-.7-23.62-5.3-58.2,20.42-2.52,1.87,0,12.5,0,12.5h6.83c0-7,4.48-10,10-10s10,3,10,10h51.68c0-7,4.48-10,10-10s10,3,10,10H225V85Z"/><path class="cls-1" d="M114.91,90c-.36,0-.91,1-.91,1.54V93a1.13,1.13,0,0,0,.91,1h8a18.85,18.85,0,0,1,.45-4Z"/><path class="cls-1" d="M224.66,90H214.14a18.84,18.84,0,0,1,.45,4h10.07c.36,0,.34-.5.34-1V91.54C225,91,225,90,224.66,90Z"/><path class="cls-1" d="M142.44,90a18.84,18.84,0,0,1,.45,4h51.68a18.85,18.85,0,0,1,.45-4Z"/><path class="cls-1" d="M160,64.78A70.11,70.11,0,0,0,132.18,76H160Z"/><path class="cls-1" d="M164,76h27c-11.39-12-20.08-11.78-20.08-11.78a47.65,47.65,0,0,0-6.93.07Z"/><circle class="cls-1" cx="132.95" cy="94.55" r="6.93"/><circle class="cls-1" cx="204.95" cy="94.55" r="6.93"/><path class="cls-1" d="M221.31,82.28a2.45,2.45,0,0,1,1.71-.81,7.76,7.76,0,0,1,2,4.17h0V88.2a4,4,0,0,1-2-1C221.13,85.73,220.33,83.53,221.31,82.28Z"/><line class="cls-1" x1="164" y1="80" x2="173" y2="80"/><polygon class="cls-1" points="195.27 39 136.51 39 140.16 33 136.51 27 195.27 27 191.02 33 195.27 39"/><line class="cls-1" x1="31" y1="49" x2="73" y2="49"/><line class="cls-1" x1="87" y1="49" x2="130" y2="49"/><line class="cls-1" x1="144" y1="49" x2="186" y2="49"/><line class="cls-1" x1="201" y1="49" x2="243" y2="49"/><line class="cls-1" x1="258" y1="49" x2="300" y2="49"/><line class="cls-2" x1="330" y1="18" x2="1" y2="18"/><line class="cls-1" x1="18" y1="10" x2="124" y2="10"/><line class="cls-1" x1="318.61" y1="6.84" x2="324.09" y2="12.32"/><line class="cls-1" x1="318.61" y1="12.32" x2="324.09" y2="6.84"/><line class="cls-1" x1="311" y1="10" x2="303" y2="10"/><rect class="cls-1" x="1" y="1" width="329" height="162" rx="5.37" ry="5.37"/><path class="cls-2" d="M72.1,128.94a5.46,5.46,0,0,0-3.6-2.77,15.54,15.54,0,0,1-6-2.11C59,121.76,57.27,117,48,117H42.81c-7.42,0-10.82,6.85-11.75,11.14a22.21,22.21,0,0,0,0,5.13c.07.82.48,1.73,1.31,1.73h2a5.59,5.59,0,0,1,11.17,0H57.86A5.59,5.59,0,0,1,69,135h2.14a1.57,1.57,0,0,0,1.68-1.73A12.47,12.47,0,0,0,72.1,128.94Z"/><circle class="cls-3" cx="39.88" cy="135.24" r="3.15"/><circle class="cls-3" cx="63.6" cy="135.24" r="3.15"/><path class="cls-2" d="M30.33,129.32c-.41.14-1.33.53-1.33,1v.12c0,.46.61.85,1,1C30,130.72,30.31,130,30.33,129.32Z"/><path class="cls-3" d="M70.35,127.65a1.08,1.08,0,0,0-.43,1.46l.42.77a1.08,1.08,0,0,0,1.46.43l.11-.06a1.07,1.07,0,0,0,.47-.52,4.2,4.2,0,0,0-.29-.78,5.27,5.27,0,0,0-1.16-1.48,1.06,1.06,0,0,0-.48.13Z"/><rect class="cls-1" x="44" y="120" width="5" height="4"/><path class="cls-1" d="M41,120v4H37.38C35.59,124,38,120.13,41,120Z"/><path class="cls-1" d="M57.93,123.78C55.63,120.34,51,120,51,120v4h7.2C58.25,124,57.93,123.78,57.93,123.78Z"/><line class="cls-1" x1="50" y1="127" x2="53" y2="127"/><line class="cls-1" x1="43" y1="127" x2="46" y2="127"/><path class="cls-3" d="M85.22,130.13a1.12,1.12,0,0,0-.71,1.08v.13a1.1,1.1,0,0,0,.82,1C85.26,131.63,85.23,130.84,85.22,130.13Z"/><path class="cls-2" d="M131.61,130.59c-.27-1.7-1.34-4.59-12.41-4.59,0,0-5.6-4.88-9-5.51-1.59-.3-10-2.46-24.64,8.43-1.07.79,0,5.08,0,5.08h2.89c0-3,1.9-4.24,4.24-4.24S96.95,131,96.95,134h21.88c0-3,1.9-4.24,4.24-4.24S127.3,131,127.3,134h3.33c.56,0,1-.25,1-.81Z"/><path class="cls-2" d="M85.1,133c-.15,0-.1.17-.1.4v.6c0,.23-.05,0,.1,0h3.37s.07-1,.19-1Z"/><path class="cls-2" d="M131.57,133h-4.45c.12,0,.19,1,.19,1h4.27c.15,0,.43.23.43,0v-.6C132,133.17,131.72,133,131.57,133Z"/><path class="cls-2" d="M96.76,133c.12,0,.19,1,.19,1h21.88s.07-1,.19-1Z"/><path class="cls-4" d="M103.5,122.84a26.77,26.77,0,0,0-10,3.66h10Z"/><path class="cls-4" d="M105.5,126.5h10.65c-4.25-4-7.78-4.13-7.78-4.13a24.44,24.44,0,0,0-2.87.29Z"/><circle class="cls-5" cx="123" cy="134.89" r="2.55"/><circle class="cls-5" cx="92.75" cy="134.89" r="2.55"/><path class="cls-2" d="M130.15,129.48c.16-.2.08-.32.37-.34a2.54,2.54,0,0,1,.48,1.77h0V132c-1-.08-.23-.22-.49-.43A1.48,1.48,0,0,1,130.15,129.48Z"/><line class="cls-4" x1="106" y1="128.5" x2="110" y2="128.5"/><path class="cls-2" d="M186.77,128.94a5.46,5.46,0,0,0-3.6-2.77,15.54,15.54,0,0,1-6-2.11c-3.55-2.3-5.27-7.07-14.51-7.07h-5.22c-7.42,0-10.82,6.85-11.75,11.14a22.21,22.21,0,0,0,0,5.13c.07.82.48,1.73,1.31,1.73h2a5.59,5.59,0,0,1,11.17,0h12.36a5.59,5.59,0,0,1,11.17,0h2.14a1.57,1.57,0,0,0,1.68-1.73A12.47,12.47,0,0,0,186.77,128.94Z"/><circle class="cls-3" cx="154.55" cy="135.24" r="3.15"/><circle class="cls-3" cx="178.27" cy="135.24" r="3.15"/><path class="cls-2" d="M145.17,129.32c-.41.14-1.17.53-1.17,1v.12c0,.46.53.85.95,1C144.91,130.72,145.14,130,145.17,129.32Z"/><path class="cls-3" d="M185,127.65a1.08,1.08,0,0,0-.43,1.46l.42.77a1.08,1.08,0,0,0,1.46.43l.11-.06a1.07,1.07,0,0,0,.47-.52,4.2,4.2,0,0,0-.29-.78,5.27,5.27,0,0,0-1.16-1.48,1.06,1.06,0,0,0-.48.13Z"/><rect class="cls-1" x="158" y="120" width="5" height="4"/><path class="cls-1" d="M156,120v4h-4C150.26,124,152,120.13,156,120Z"/><path class="cls-1" d="M172.76,123.78C170.46,120.34,166,120,166,120v4h6.86C172.92,124,172.76,123.78,172.76,123.78Z"/><line class="cls-1" x1="165" y1="127" x2="168" y2="127"/><line class="cls-1" x1="158" y1="127" x2="161" y2="127"/><path class="cls-2" d="M244.1,128.94a5.46,5.46,0,0,0-3.6-2.77,15.54,15.54,0,0,1-6-2.11C231,121.76,229.27,117,220,117h-5.22c-7.42,0-10.82,6.85-11.75,11.14a22.21,22.21,0,0,0,0,5.13c.07.82.48,1.73,1.31,1.73h2a5.59,5.59,0,0,1,11.17,0h12.36A5.59,5.59,0,0,1,241,135h2.14a1.57,1.57,0,0,0,1.68-1.73A12.47,12.47,0,0,0,244.1,128.94Z"/><circle class="cls-3" cx="211.88" cy="135.24" r="3.15"/><circle class="cls-3" cx="235.6" cy="135.24" r="3.15"/><path class="cls-2" d="M202.33,129.32c-.41.14-1.33.53-1.33,1v.12c0,.46.61.85,1,1C202,130.72,202.31,130,202.33,129.32Z"/><path class="cls-3" d="M242.35,127.65a1.08,1.08,0,0,0-.43,1.46l.42.77a1.08,1.08,0,0,0,1.46.43l.11-.06a1.07,1.07,0,0,0,.47-.52,4.2,4.2,0,0,0-.29-.78,5.27,5.27,0,0,0-1.16-1.48,1.06,1.06,0,0,0-.48.13Z"/><rect class="cls-1" x="216" y="120" width="5" height="4"/><path class="cls-1" d="M213,120v4h-3.62C207.59,124,210,120.13,213,120Z"/><path class="cls-1" d="M229.93,123.78C227.63,120.34,223,120,223,120v4h7.2C230.25,124,229.93,123.78,229.93,123.78Z"/><line class="cls-1" x1="222" y1="127" x2="225" y2="127"/><line class="cls-1" x1="215" y1="127" x2="218" y2="127"/><path class="cls-2" d="M301.43,128.94a5.46,5.46,0,0,0-3.6-2.77,15.54,15.54,0,0,1-6-2.11c-3.55-2.3-5.27-7.07-14.51-7.07h-5.22c-7.42,0-10.82,6.85-11.75,11.14a22.21,22.21,0,0,0,0,5.13c.07.82.48,1.73,1.31,1.73h2a5.59,5.59,0,0,1,11.17,0h12.36a5.59,5.59,0,0,1,11.17,0h2.14a1.57,1.57,0,0,0,1.68-1.73A12.47,12.47,0,0,0,301.43,128.94Z"/><circle class="cls-3" cx="269.22" cy="135.24" r="3.15"/><circle class="cls-3" cx="292.93" cy="135.24" r="3.15"/><path class="cls-2" d="M259.5,129.32c-.41.14-1.5.53-1.5,1v.12c0,.46.69.85,1.11,1C259.08,130.72,259.47,130,259.5,129.32Z"/><path class="cls-3" d="M299.68,127.65a1.08,1.08,0,0,0-.43,1.46l.42.77a1.08,1.08,0,0,0,1.46.43l.11-.06a1.07,1.07,0,0,0,.47-.52,4.2,4.2,0,0,0-.29-.78,5.27,5.27,0,0,0-1.16-1.48,1.06,1.06,0,0,0-.48.13Z"/><rect class="cls-1" x="273" y="120" width="5" height="4"/><path class="cls-1" d="M270,120v4h-3.28C264.93,124,267,120.13,270,120Z"/><path class="cls-1" d="M287.59,123.78A9.52,9.52,0,0,0,281,120v4h6.53C287.58,124,287.59,123.78,287.59,123.78Z"/><line class="cls-1" x1="280" y1="127" x2="282" y2="127"/><line class="cls-1" x1="273" y1="127" x2="275" y2="127"/><polygon class="cls-1" points="312 118.8 312 134.8 319.25 127.2 312 118.8"/><polygon class="cls-1" points="23 134.8 23 118.8 15.75 126.4 23 134.8"/><line class="cls-1" x1="28" y1="148" x2="301" y2="148"/><line class="cls-1" x1="28" y1="156" x2="301" y2="156"/><path class="cls-6" d="M105.77,119.73l25.52,23.74a2.27,2.27,0,0,1-1.42,3.93l-7,.42,3,6.4a3,3,0,0,1-1.51,4l-6.94,3a3,3,0,0,1-3.91-1.52l-2.67-6-5,5.28a2.24,2.24,0,0,1-3.86-1.57v-36A2.24,2.24,0,0,1,105.77,119.73Z"/><polygon class="cls-7" points="106 125.36 125.63 143.65 116.81 144.19 121.84 154.97 116.79 157.16 112.17 146.6 106 153.09 106 125.36"/></g></g></svg>