<svg xmlns="http://www.w3.org/2000/svg" viewBox="0 0 63 274"><defs><style>.cls-1{isolation:isolate;}.cls-2{opacity:0.27;mix-blend-mode:multiply;}.cls-3{fill:#4d8736;}</style></defs><title>curly-brace-left-2</title><g class="cls-1"><g id="Layer_2" data-name="Layer 2"><g id="texts"><g class="cls-2"><path class="cls-3" d="M0,264H14.75C27,264,30,255.87,30,233.17v-46.9c0-40,17-46,20.91-49.89C47,134,30,128,30,88V41.08C30,18.38,27,10,14.75,10H0V0H15.34C32.07,0,42,8.52,42,35.7V83.2c0,24.2,4,47.5,21,48.4v11.35c-17,.9-21,24.2-21,48.4v47.2C42,265.73,32.07,274,15.34,274H0Z"/></g></g></g></g></svg>