<svg xmlns="http://www.w3.org/2000/svg" viewBox="0 0 42 187"><defs><style>.cls-1{isolation:isolate;}.cls-2{mix-blend-mode:multiply;}.cls-3{fill:#bbe170;}</style></defs><title>curly-brace-left</title><g class="cls-1"><g id="Layer_2" data-name="Layer 2"><g id="texts"><g class="cls-2"><path class="cls-3" d="M0,180H9.33C17.69,180,20,174.62,20,159.12v-32C20,99.75,31.63,95.67,34.28,93,31.63,91.39,20,87.31,20,60v-32C20,12.44,17.69,7,9.33,7H0V0H9.74C21.16,0,28,5.71,28,24.28V56.71c0,16.52,2,32.44,14,33v7.75c-12,.61-14,16.52-14,33v32.23C28,181.35,21.16,187,9.74,187H0Z"/></g></g></g></g></svg>