<svg xmlns="http://www.w3.org/2000/svg" viewBox="0 0 439 273"><defs><style>.cls-1{fill:#f9f9f9;stroke:#007cc0;stroke-miterlimit:10;stroke-width:2.36px;}.cls-2{fill:#5d9632;}.cls-3{fill:#fff;}.cls-4{fill:none;stroke:#fff;stroke-linecap:round;stroke-linejoin:round;stroke-width:6px;}.cls-5{fill:#767676;}.cls-6{fill:#bbe170;}.cls-7{font-size:20px;fill:#0080b1;font-family:ArialMT, Arial;}.cls-8{letter-spacing:-0.06em;}.cls-9{letter-spacing:-0.02em;}.cls-10{letter-spacing:-0.07em;}</style></defs><title>email-list-3</title><g id="Layer_2" data-name="Layer 2"><g id="texts"><circle class="cls-1" cx="40.24" cy="41.62" r="38.3"/><circle class="cls-2" cx="40.24" cy="41.62" r="30.34"/><rect class="cls-3" height="6" transform="translate(0 6) rotate(180)"/><rect class="cls-3" x="2.5" y="-2.5" width="1" height="6" transform="translate(2.5 3.5) rotate(-90)"/><rect class="cls-3" x="75.5" y="79.5" width="1" height="6" transform="translate(-6.5 158.5) rotate(-90)"/><rect class="cls-3" x="79" y="77" height="6" transform="translate(158 160) rotate(180)"/><circle class="cls-1" cx="40.24" cy="136.62" r="38.3"/><circle class="cls-2" cx="40.24" cy="136.62" r="30.34"/><rect class="cls-3" y="95" height="6" transform="translate(0 196) rotate(180)"/><rect class="cls-3" x="2.5" y="92.5" width="1" height="6" transform="translate(-92.5 98.5) rotate(-90)"/><rect class="cls-3" x="75.5" y="174.5" width="1" height="6" transform="translate(-101.5 253.5) rotate(-90)"/><rect class="cls-3" x="79" y="172" height="6" transform="translate(158 350) rotate(180)"/><circle class="cls-1" cx="40.24" cy="231.62" r="38.3"/><circle class="cls-2" cx="40.24" cy="231.62" r="30.34"/><rect class="cls-3" y="190" height="6" transform="translate(0 386) rotate(180)"/><rect class="cls-3" x="2.5" y="187.5" width="1" height="6" transform="translate(-187.5 193.5) rotate(-90)"/><rect class="cls-3" x="75.5" y="269.5" width="1" height="6" transform="translate(-196.5 348.5) rotate(-90)"/><rect class="cls-3" x="79" y="267" height="6" transform="translate(158 540) rotate(180)"/><rect class="cls-3" x="99" y="103" width="340" height="70"/><rect class="cls-3" x="99" y="25" width="162" height="40"/><g id="_Group_" data-name="&lt;Group&gt;"><path class="cls-4" d="M52.81,232.15l1.87-1.46L57,228.85v21.31l-9-7.22a.87.87,0,0,0-1.29.24.85.85,0,0,0,.2,1.22l8.44,6.6H26.58L35,244.4a1,1,0,0,0,.21-1.33.84.84,0,0,0-1.28-.18l-9,7.27V228.85l2.29,1.84,1.83,1.46,11.19,9a1,1,0,0,0,1.32,0Z"/><path class="cls-4" d="M31,214v16.36l10,8.32,10-8.32V214Z"/><path class="cls-4" d="M48.48,222.21a.91.91,0,0,1,0,1.8H33.94a.91.91,0,0,1,0-1.8H48.48Z"/><path class="cls-4" d="M48.48,226.47a.9.9,0,0,1,0,1.79H33.94a.9.9,0,0,1,0-1.79Z"/><path class="cls-4" d="M40.18,217.95a.91.91,0,0,1,0,1.8H33.94a.91.91,0,0,1,0-1.8Z"/><path class="cls-4" d="M53,228V213.53A1.74,1.74,0,0,0,51.18,212H30.75A1.67,1.67,0,0,0,29,213.53V228H27.34l2,1.32,1.65,1V214H51v16.36l1.62-1,2-1.32Z"/><path class="cls-5" d="M52.81,232.15l1.87-1.46L57,228.85v21.31l-9-7.22a.87.87,0,0,0-1.29.24.85.85,0,0,0,.2,1.22l8.44,6.6H26.58L35,244.4a1,1,0,0,0,.21-1.33.84.84,0,0,0-1.28-.18l-9,7.27V228.85l2.29,1.84,1.83,1.46,11.19,9a1,1,0,0,0,1.32,0Z"/><path class="cls-6" d="M31,214v16.36l10,8.32,10-8.32V214Z"/><path class="cls-5" d="M48.48,222.21a.91.91,0,0,1,0,1.8H33.94a.91.91,0,0,1,0-1.8H48.48Z"/><path class="cls-5" d="M48.48,226.47a.9.9,0,0,1,0,1.79H33.94a.9.9,0,0,1,0-1.79Z"/><path class="cls-5" d="M40.18,217.95a.91.91,0,0,1,0,1.8H33.94a.91.91,0,0,1,0-1.8Z"/><path class="cls-5" d="M53,228V213.53A1.74,1.74,0,0,0,51.18,212H30.75A1.67,1.67,0,0,0,29,213.53V228H27.34l2,1.32,1.65,1V214H51v16.36l1.62-1,2-1.32Z"/></g><text class="cls-7" transform="translate(113.96 52.89)"><tspan class="cls-8">A</tspan><tspan x="12.24" y="0" xml:space="preserve"> DISCOUN</tspan><tspan class="cls-9" x="110.02" y="0">T</tspan></text><rect class="cls-3" x="99" y="208" width="340" height="40"/><text class="cls-7" transform="translate(113.96 232.89)">NEWSLETTER SUBSCRIPTION</text><text class="cls-7" transform="translate(113.96 135.05)">ACCESS<tspan class="cls-9" x="82.25" y="0" xml:space="preserve"> T</tspan><tspan x="99.3" y="0">O G</tspan><tspan class="cls-10" x="135.97" y="0">A</tspan><tspan x="147.82" y="0">TED </tspan><tspan x="0" y="21.22">RESOURCES (SUCH</tspan><tspan class="cls-8" x="195.58" y="21.22"> </tspan><tspan x="200.03" y="21.22">AS</tspan><tspan class="cls-8" x="226.71" y="21.22"> </tspan><tspan x="231.16" y="21.22">AN </tspan></text><g id="_Group_2" data-name="&lt;Group&gt;"><path class="cls-4" d="M55.43,21.88A3.5,3.5,0,0,1,59,25.47L58.7,38a3.54,3.54,0,0,1-1,2.39L35.54,62.52a3.51,3.51,0,0,1-5,0L18.38,50.33a3.51,3.51,0,0,1,0-5L40.51,23.23a3.54,3.54,0,0,1,2.39-1Zm-1.31,4.88a3,3,0,1,0,0,4.19A3,3,0,0,0,54.12,26.76Zm-8,13.38c-1.72-1.72-3.74-2.48-5.69-.52s-1.34,4,.36,5.73,3.77,2.44,5.71.5S47.86,41.84,46.16,40.14Zm-6,12.38L34.88,34.29l-1.34,1.34,5.21,18.27ZM32.76,43c-1.73-1.73-3.82-2.56-5.77-.6s-1.28,4.08.44,5.8,3.69,2.37,5.63.43S34.48,44.74,32.76,43Z"/><circle class="cls-4" cx="52.02" cy="28.86" r="2.97" transform="translate(-5.17 45.24) rotate(-45)"/><path class="cls-4" d="M40.46,39.62c2-2,4-1.2,5.69.52s2.23,3.86.38,5.71-4,1.22-5.71-.5S38.62,41.47,40.46,39.62Zm4.05,2.09c-.62-.62-1.94-1.84-2.87-.91s.08,2.23.8,2.95,1.91,1.91,2.92.9S45.18,42.38,44.52,41.71Z"/><path class="cls-4" d="M41.65,40.8c.93-.93,2.25.3,2.87.91s1.83,2,.85,2.94-2.24-.22-2.92-.9S40.64,41.81,41.65,40.8Z"/><polygon class="cls-4" points="34.88 34.29 40.12 52.52 38.74 53.89 33.54 35.63 34.88 34.29"/><path class="cls-4" d="M27,42.43c2-2,4-1.13,5.77.6s2.15,3.78.3,5.63-3.89,1.31-5.63-.43S25.15,44.27,27,42.43Zm4.15,2.19c-.63-.63-2-1.94-3-1s.17,2.32.9,3,1.81,1.81,2.82.8S31.8,45.28,31.14,44.62Z"/><path class="cls-4" d="M28.17,43.61c.93-.93,2.34.38,3,1s1.73,1.86.75,2.84-2.15-.13-2.82-.8S27.17,44.62,28.17,43.61Z"/><path class="cls-5" d="M55.43,21.88A3.5,3.5,0,0,1,59,25.47L58.7,38a3.54,3.54,0,0,1-1,2.39L35.54,62.52a3.51,3.51,0,0,1-5,0L18.38,50.33a3.51,3.51,0,0,1,0-5L40.51,23.23a3.54,3.54,0,0,1,2.39-1Zm-1.31,4.88a3,3,0,1,0,0,4.19A3,3,0,0,0,54.12,26.76Zm-8,13.38c-1.72-1.72-3.74-2.48-5.69-.52s-1.34,4,.36,5.73,3.77,2.44,5.71.5S47.86,41.84,46.16,40.14Zm-6,12.38L34.88,34.29l-1.34,1.34,5.21,18.27ZM32.76,43c-1.73-1.73-3.82-2.56-5.77-.6s-1.28,4.08.44,5.8,3.69,2.37,5.63.43S34.48,44.74,32.76,43Z"/><circle class="cls-6" cx="52.02" cy="28.86" r="2.97" transform="translate(-5.17 45.24) rotate(-45)"/><path class="cls-6" d="M40.46,39.62c2-2,4-1.2,5.69.52s2.23,3.86.38,5.71-4,1.22-5.71-.5S38.62,41.47,40.46,39.62Zm4.05,2.09c-.62-.62-1.94-1.84-2.87-.91s.08,2.23.8,2.95,1.91,1.91,2.92.9S45.18,42.38,44.52,41.71Z"/><path class="cls-5" d="M41.65,40.8c.93-.93,2.25.3,2.87.91s1.83,2,.85,2.94-2.24-.22-2.92-.9S40.64,41.81,41.65,40.8Z"/><polygon class="cls-6" points="34.88 34.29 40.12 52.52 38.74 53.89 33.54 35.63 34.88 34.29"/><path class="cls-6" d="M27,42.43c2-2,4-1.13,5.77.6s2.15,3.78.3,5.63-3.89,1.31-5.63-.43S25.15,44.27,27,42.43Zm4.15,2.19c-.63-.63-2-1.94-3-1s.17,2.32.9,3,1.81,1.81,2.82.8S31.8,45.28,31.14,44.62Z"/><path class="cls-5" d="M28.17,43.61c.93-.93,2.34.38,3,1s1.73,1.86.75,2.84-2.15-.13-2.82-.8S27.17,44.62,28.17,43.61Z"/></g><path class="cls-4" d="M54.65,120.85V147a1.79,1.79,0,0,1-1.79,1.79h-22a1.43,1.43,0,1,0,0,2.85h22a1.79,1.79,0,0,1,0,3.58h-22a5,5,0,0,1-5-5V124.07a5,5,0,0,1,5-5H53l.16,0,.21,0,.14,0,.2.08.13.07.18.13.08.06,0,0,.15.17.09.11.12.21a.83.83,0,0,1,.05.1,1.42,1.42,0,0,1,.09.27s0,.05,0,.08A1.53,1.53,0,0,1,54.65,120.85Zm-6.3,13.34c.33-4.73-2.23-9.12-7.46-9.12-4.67,0-7.85,3.51-7.85,8.12s3,8.09,7.85,8.09c3.48,0,6-1.51,7.19-5.18H44.37a3.48,3.48,0,0,1-3.33,2c-2.37,0-3.66-1.19-3.77-3.9Z"/><path class="cls-4" d="M40.9,125.07c5.23,0,7.79,4.39,7.46,9.12H37.26c.12,2.71,1.4,3.9,3.77,3.9a3.48,3.48,0,0,0,3.33-2h3.71c-1.19,3.66-3.71,5.18-7.19,5.18-4.85,0-7.85-3.33-7.85-8.09S36.23,125.07,40.9,125.07Zm-3.63,6.45h6.87c-.39-2.14-1.31-3.27-3.36-3.27A3.31,3.31,0,0,0,37.26,131.52Z"/><path class="cls-4" d="M44.13,131.52H37.26a3.31,3.31,0,0,1,3.51-3.27C42.83,128.24,43.75,129.38,44.13,131.52Z"/><path class="cls-5" d="M54.65,120.85V147a1.79,1.79,0,0,1-1.79,1.79h-22a1.43,1.43,0,1,0,0,2.85h22a1.79,1.79,0,0,1,0,3.58h-22a5,5,0,0,1-5-5V124.07a5,5,0,0,1,5-5H53l.16,0,.21,0,.14,0,.2.08.13.07.18.13.08.06,0,0,.15.17.09.11.12.21a.83.83,0,0,1,.05.1,1.42,1.42,0,0,1,.09.27s0,.05,0,.08A1.53,1.53,0,0,1,54.65,120.85Zm-6.3,13.34c.33-4.73-2.23-9.12-7.46-9.12-4.67,0-7.85,3.51-7.85,8.12s3,8.09,7.85,8.09c3.48,0,6-1.51,7.19-5.18H44.37a3.48,3.48,0,0,1-3.33,2c-2.37,0-3.66-1.19-3.77-3.9Z"/><path class="cls-6" d="M40.9,125.07c5.23,0,7.79,4.39,7.46,9.12H37.26c.12,2.71,1.4,3.9,3.77,3.9a3.48,3.48,0,0,0,3.33-2h3.71c-1.19,3.66-3.71,5.18-7.19,5.18-4.85,0-7.85-3.33-7.85-8.09S36.23,125.07,40.9,125.07Zm-3.63,6.45h6.87c-.39-2.14-1.31-3.27-3.36-3.27A3.31,3.31,0,0,0,37.26,131.52Z"/><path class="cls-5" d="M44.13,131.52H37.26a3.31,3.31,0,0,1,3.51-3.27C42.83,128.24,43.75,129.38,44.13,131.52Z"/></g></g></svg>