<svg xmlns="http://www.w3.org/2000/svg" viewBox="0 0 646.45 141"><defs><style>.cls-1{isolation:isolate;}.cls-2,.cls-5,.cls-6,.cls-8{fill:none;stroke:#fff;}.cls-2,.cls-5,.cls-6{stroke-miterlimit:10;}.cls-2{stroke-width:3px;}.cls-3{font-size:53px;fill:#e6e6e6;font-family:ArialMT, Arial;}.cls-4{letter-spacing:-0.04em;}.cls-5{stroke-width:4px;}.cls-6{stroke-width:2px;}.cls-7{fill:#bf3019;opacity:0.49;mix-blend-mode:multiply;}.cls-8{stroke-linecap:round;stroke-linejoin:round;stroke-width:6px;}.cls-9{fill:#518bc7;}.cls-10{fill:#2f66ab;}.cls-11{fill:#bbe170;}.cls-12{fill:#87c22e;}</style></defs><title>email-marketing-title</title><g class="cls-1"><g id="Layer_2" data-name="Layer 2"><g id="texts"><path class="cls-2" d="M106.41,115.45"/><text class="cls-3" transform="translate(159.56 90.45)">EMAI<tspan class="cls-4" x="129.58" y="0">L</tspan><tspan x="157.08" y="0" xml:space="preserve"> MARKETING</tspan></text><circle class="cls-5" cx="70.41" cy="70.59" r="62.88"/><polyline class="cls-6" points="14 1 1 1 1 14"/><polyline class="cls-6" points="127 140 140 140 140 127"/><circle class="cls-7" cx="70.41" cy="70.59" r="47.98"/><path class="cls-8" d="M103.67,66v46.1h-2.52V110h0A114.88,114.88,0,0,0,80,93.71l1.25-2.8,4.43.92.49-4.49,4.5-.5-.5-2.37h8.9V69.33Z"/><polygon class="cls-8" points="103.67 66.03 99.06 69.33 99.06 66.03 103.67 66.03"/><polygon class="cls-8" points="103.67 66.03 99.06 66.03 99.06 62.08 103.67 66.03"/><path class="cls-8" d="M101.15,110v2.15H42.21V110s10.23-5.36,22.37-16.9l.88,2,3.93-2.25,3,3.35,3-3.35,1.76,1A99,99,0,0,0,101.14,110Z"/><path class="cls-8" d="M99.06,69.33V84.47h-8.9l-.42-2.06,4.12-1.85-2-3.48a2.77,2.77,0,0,0,.28-.94L95,73.6l-.83-.76Z"/><polygon class="cls-8" points="99.06 66.03 99.06 69.33 94.14 72.84 91.61 70.55 93.86 66.63 92.55 66.03 99.06 66.03"/><polygon class="cls-8" points="99.06 62.08 99.06 66.03 92.55 66.03 89.74 64.77 90.66 60.35 86.16 59.85 85.67 55.36 81.24 56.28 79.39 52.15 75.46 54.4 72.42 51.05 69.38 54.4 65.45 52.15 63.59 56.28 59.17 55.36 58.68 59.85 54.18 60.35 55.1 64.77 52.29 66.03 43.74 66.03 43.74 62.08 71.4 38.38 99.06 62.08"/><polygon class="cls-8" points="99.06 33.77 99.06 62.08 71.4 38.38 43.74 62.08 43.74 33.77 99.06 33.77"/><path class="cls-8" d="M95,73.6l-2.82,2.55a2.73,2.73,0,0,0,0-.39,3,3,0,0,0-.3-1.31l2.26-1.61Z"/><path class="cls-8" d="M94.14,72.84l-2.26,1.61A3.41,3.41,0,0,0,86.06,74l-.78-.61L90.95,66h1.6l1.31.59-2.25,3.93Z"/><path class="cls-8" d="M91.87,77.09l2,3.48-4.12,1.85.42,2.06H77.85l8.81-6.3a3.38,3.38,0,0,0,2.17.76A3.33,3.33,0,0,0,91.87,77.09Z"/><path class="cls-8" d="M101.14,110A99,99,0,0,1,77.22,93.8L79.38,95l.6-1.33A114.88,114.88,0,0,1,101.14,110Z"/><path class="cls-8" d="M92.55,66h-1.6l.4-.52h-2.8l-.4.52H83.08a3.44,3.44,0,0,0-4.26,0h-5a5.27,5.27,0,0,0-5.37,0H63.61v-.52H56.23l0,.52h-3.9l2.81-1.26-.92-4.43,4.5-.5.49-4.49,4.43.92,1.86-4.13,3.93,2.25,3-3.35,3,3.35,3.93-2.25,1.85,4.13,4.43-.92.49,4.49,4.5.5-.92,4.43Z"/><path class="cls-8" d="M92.17,75.76a2.73,2.73,0,0,1,0,.39l-.53.49.26.45a3.33,3.33,0,0,1-3,1.84,3.38,3.38,0,0,1-2.17-.76l2.06-1.47h.11a1,1,0,0,0,1-.8l2-1.47A3,3,0,0,1,92.17,75.76Z"/><path class="cls-8" d="M91.61,76.64l.53-.49a2.77,2.77,0,0,1-.28.94Z"/><path class="cls-8" d="M91.88,74.45l-2,1.47a1.13,1.13,0,0,0,0-.18,1,1,0,0,0-2,0,1,1,0,0,0,.9,1l-2.06,1.47a3.06,3.06,0,0,1-1.17-2.42A3.11,3.11,0,0,1,86.06,74a3.41,3.41,0,0,1,5.82.47Z"/><polygon class="cls-8" points="91.34 65.52 90.95 66.03 88.14 66.03 88.54 65.52 91.34 65.52"/><polygon class="cls-8" points="90.95 66.03 85.28 73.37 81.16 78.71 78.35 78.71 88.14 66.03 90.95 66.03"/><path class="cls-8" d="M90.16,84.47l.5,2.37-4.5.5-.49,4.49-4.43-.92L80,93.71c-4-2.42-6.7-3.8-6.91-3.89h0l-.91-1.27,5.7-4.07Z"/><path class="cls-8" d="M89.85,75.74a1.13,1.13,0,0,1,0,.18l-1.11.79a1,1,0,0,1-.9-1,1,1,0,0,1,2,0Z"/><path class="cls-8" d="M88.72,76.71l1.11-.79a1,1,0,0,1-1,.8Z"/><path class="cls-8" d="M88.14,66,78.35,78.71h2.8l4.12-5.34.78.61a3.11,3.11,0,0,0-.56,1.78,3.06,3.06,0,0,0,1.17,2.42l-8.81,6.3H64.95l-9.39-6.71.11-.16a6.68,6.68,0,0,0,4,1.33,4.61,4.61,0,0,0,4.9-4.7c0-2.38-1.59-4.34-4.73-4.34a4,4,0,0,0-1,.13h0A2.16,2.16,0,0,0,59,69.5L59,68.28h4.58V66H68.5c-1.67,1.11-2.28,3.38-2.28,6,0,3.79,1.22,6.85,5,6.85s5-3.06,5-6.85c0-2.66-.6-4.94-2.28-6h5a3.15,3.15,0,0,0-1.21,2.45,3.22,3.22,0,0,0,3.22,3.17H81a3.26,3.26,0,0,0,3.35-3.18A3.16,3.16,0,0,0,83.08,66Z"/><path class="cls-8" d="M83.08,66a3.16,3.16,0,0,1,1.22,2.45A3.26,3.26,0,0,1,81,71.67h-.12L81,69.45a1,1,0,1,0,0-1.94V66Z"/><path class="cls-8" d="M83.08,66H78.82a3.44,3.44,0,0,1,4.26,0Z"/><path class="cls-8" d="M81,67.51a1,1,0,1,1-1,1A1,1,0,0,1,81,67.51Z"/><path class="cls-8" d="M81,66v1.48a1,1,0,1,0,0,1.94l-.12,2.21a3.22,3.22,0,0,1-3.22-3.17A3.15,3.15,0,0,1,78.82,66Z"/><path class="cls-8" d="M80,93.71,79.38,95,77.22,93.8q-2.07-1.87-4.14-4C73.28,89.91,76,91.29,80,93.71Z"/><polygon class="cls-8" points="77.85 84.47 72.16 88.54 71.4 89.08 64.95 84.47 77.85 84.47"/><path class="cls-8" d="M67.89,89.82c-.13.07-1.51.89-3.72,2.35l-.57-1.26-4.43.92-.49-4.49-4.5-.5.5-2.37H64.95l6.45,4.61.76-.54.91,1.27h0q2.06,2.1,4.14,4l-1.76-1-3,3.35-3-3.35L65.45,95l-.88-2Q66.21,91.54,67.89,89.82Z"/><path class="cls-8" d="M73.87,66c1.68,1.11,2.28,3.38,2.28,6,0,3.79-1.22,6.85-5,6.85s-5-3.06-5-6.85c0-2.66.61-4.94,2.28-6Zm-1,6c0-2.14-.37-3.84-1.65-3.84s-1.64,1.7-1.64,3.84.37,3.9,1.64,3.9S72.83,74.25,72.83,72.08Z"/><path class="cls-8" d="M73.87,66H68.5a5.27,5.27,0,0,1,5.37,0Z"/><path class="cls-8" d="M71.18,68.25c1.28,0,1.65,1.7,1.65,3.84S72.46,76,71.18,76s-1.64-1.73-1.64-3.9S69.91,68.25,71.18,68.25Z"/><path class="cls-8" d="M67.89,89.82q-1.67,1.71-3.31,3.26l-.41-.91C66.38,90.72,67.76,89.9,67.89,89.82Z"/><polygon class="cls-8" points="64.95 84.47 54.68 84.47 55.1 82.42 50.98 80.56 53.22 76.64 50.44 74.12 55.55 77.76 64.95 84.47"/><path class="cls-8" d="M64.16,92.17l.41.91C52.45,104.63,42.21,110,42.21,110A145.58,145.58,0,0,1,64.16,92.17Z"/><path class="cls-8" d="M63.59,90.91l.57,1.26a145.58,145.58,0,0,0-22,17.81v2.15H39.13V66l4.61,3.29V84.47H54.68l-.5,2.37,4.5.5.49,4.49Z"/><path class="cls-8" d="M59.88,69.89c3.14,0,4.73,2,4.73,4.34a4.61,4.61,0,0,1-4.9,4.7,6.68,6.68,0,0,1-4-1.33,5.12,5.12,0,0,1-.45-.41l1.55-2.49a4.35,4.35,0,0,0,2.67,1.18,1.71,1.71,0,0,0,1.84-1.62c0-1-.9-1.64-2.1-1.64a3.84,3.84,0,0,0-1.77.44h0l-1.69-.64.13-1.67L56.19,66h7.42v2.25H59L59,69.5a2.16,2.16,0,0,1-.07.52h0A4,4,0,0,1,59.88,69.89Z"/><polygon class="cls-8" points="63.61 65.52 63.61 66.03 56.19 66.03 56.23 65.52 63.61 65.52"/><path class="cls-8" d="M59.18,72.63c1.2,0,2.1.61,2.1,1.64a1.71,1.71,0,0,1-1.84,1.62,4.35,4.35,0,0,1-2.67-1.18l.62-1.65h0A3.84,3.84,0,0,1,59.18,72.63Z"/><path class="cls-8" d="M57.38,73.06l-.62,1.65L55.21,77.2a5.12,5.12,0,0,0,.45.41l-.11.16-5.11-3.64-.57-.53,3.35-3,2.6.2-.13,1.67Z"/><polygon class="cls-8" points="56.19 66.03 55.82 70.76 53.22 70.55 50.98 66.63 52.29 66.03 56.19 66.03"/><polygon class="cls-8" points="55.1 82.42 54.68 84.47 43.74 84.47 43.74 69.33 50.44 74.12 53.22 76.64 50.98 80.56 55.1 82.42"/><polygon class="cls-8" points="50.98 66.63 53.22 70.55 49.87 73.59 50.44 74.12 43.74 69.33 43.74 66.03 52.29 66.03 50.98 66.63"/><polygon class="cls-8" points="43.74 66.03 43.74 69.33 39.13 66.03 43.74 66.03"/><polygon class="cls-8" points="43.74 62.08 43.74 66.03 39.13 66.03 43.74 62.08"/><path class="cls-8" d="M51.71,45.6A5.46,5.46,0,0,0,54.87,47c.66,0,1.38-.26,1.38-1.05,0-1.57-5.94-1.51-5.94-5.57,0-2.43,2-4,4.67-4a6,6,0,0,1,4.24,1.49l-1.36,2.64a5,5,0,0,0-2.91-1.16c-.66,0-1.4.29-1.4,1,0,1.66,5.94,1.36,5.94,5.53,0,2.19-1.68,4.09-4.65,4.09A6.81,6.81,0,0,1,50,48.06Z"/><path class="cls-8" d="M68.29,47H64.18l-.79,3H60.07l4.48-13h3.39l4.48,13H69.1Zm-2.07-7-.53,1.85L64.94,44h2.6l-.74-2.15L66.26,40Z"/><path class="cls-8" d="M74,37h3V47h6v3H74Z"/><path class="cls-8" d="M84,37h9v2H88v3h4v2H88v3h5v3H84Z"/><path class="cls-9" d="M103.67,66v46.1h-2.52V110h0A114.88,114.88,0,0,0,80,93.71l1.25-2.8,4.43.92.49-4.49,4.5-.5-.5-2.37h8.9V69.33Z"/><polygon class="cls-10" points="103.67 66.03 99.06 69.33 99.06 66.03 103.67 66.03"/><polygon class="cls-9" points="103.67 66.03 99.06 66.03 99.06 62.08 103.67 66.03"/><path class="cls-9" d="M101.15,110v2.15H42.21V110s10.23-5.36,22.37-16.9l.88,2,3.93-2.25,3,3.35,3-3.35,1.76,1A99,99,0,0,0,101.14,110Z"/><path class="cls-9" d="M99.06,69.33V84.47h-8.9l-.42-2.06,4.12-1.85-2-3.48a2.77,2.77,0,0,0,.28-.94L95,73.6l-.83-.76Z"/><polygon class="cls-11" points="99.06 66.03 99.06 69.33 94.14 72.84 91.61 70.55 93.86 66.63 92.55 66.03 99.06 66.03"/><polygon class="cls-11" points="99.06 62.08 99.06 66.03 92.55 66.03 89.74 64.77 90.66 60.35 86.16 59.85 85.67 55.36 81.24 56.28 79.39 52.15 75.46 54.4 72.42 51.05 69.38 54.4 65.45 52.15 63.59 56.28 59.17 55.36 58.68 59.85 54.18 60.35 55.1 64.77 52.29 66.03 43.74 66.03 43.74 62.08 71.4 38.38 99.06 62.08"/><polygon class="cls-11" points="99.06 33.77 99.06 62.08 71.4 38.38 43.74 62.08 43.74 33.77 99.06 33.77"/><path class="cls-9" d="M95,73.6l-2.82,2.55a2.73,2.73,0,0,0,0-.39,3,3,0,0,0-.3-1.31l2.26-1.61Z"/><path class="cls-12" d="M94.14,72.84l-2.26,1.61A3.41,3.41,0,0,0,86.06,74l-.78-.61L90.95,66h1.6l1.31.59-2.25,3.93Z"/><path class="cls-9" d="M91.87,77.09l2,3.48-4.12,1.85.42,2.06H77.85l8.81-6.3a3.38,3.38,0,0,0,2.17.76A3.33,3.33,0,0,0,91.87,77.09Z"/><path class="cls-10" d="M101.14,110A99,99,0,0,1,77.22,93.8L79.38,95l.6-1.33A114.88,114.88,0,0,1,101.14,110Z"/><path class="cls-12" d="M92.55,66h-1.6l.4-.52h-2.8l-.4.52H83.08a3.44,3.44,0,0,0-4.26,0h-5a5.27,5.27,0,0,0-5.37,0H63.61v-.52H56.23l0,.52h-3.9l2.81-1.26-.92-4.43,4.5-.5.49-4.49,4.43.92,1.86-4.13,3.93,2.25,3-3.35,3,3.35,3.93-2.25,1.85,4.13,4.43-.92.49,4.49,4.5.5-.92,4.43Z"/><path class="cls-9" d="M92.17,75.76a2.73,2.73,0,0,1,0,.39l-.53.49.26.45a3.33,3.33,0,0,1-3,1.84,3.38,3.38,0,0,1-2.17-.76l2.06-1.47h.11a1,1,0,0,0,1-.8l2-1.47A3,3,0,0,1,92.17,75.76Z"/><path class="cls-9" d="M91.61,76.64l.53-.49a2.77,2.77,0,0,1-.28.94Z"/><path class="cls-11" d="M91.88,74.45l-2,1.47a1.13,1.13,0,0,0,0-.18,1,1,0,0,0-2,0,1,1,0,0,0,.9,1l-2.06,1.47a3.06,3.06,0,0,1-1.17-2.42A3.11,3.11,0,0,1,86.06,74a3.41,3.41,0,0,1,5.82.47Z"/><polygon class="cls-11" points="91.34 65.52 90.95 66.03 88.14 66.03 88.54 65.52 91.34 65.52"/><polygon class="cls-11" points="90.95 66.03 85.28 73.37 81.16 78.71 78.35 78.71 88.14 66.03 90.95 66.03"/><path class="cls-9" d="M90.16,84.47l.5,2.37-4.5.5-.49,4.49-4.43-.92L80,93.71c-4-2.42-6.7-3.8-6.91-3.89h0l-.91-1.27,5.7-4.07Z"/><path class="cls-12" d="M89.85,75.74a1.13,1.13,0,0,1,0,.18l-1.11.79a1,1,0,0,1-.9-1,1,1,0,0,1,2,0Z"/><path class="cls-9" d="M88.72,76.71l1.11-.79a1,1,0,0,1-1,.8Z"/><path class="cls-12" d="M88.14,66,78.35,78.71h2.8l4.12-5.34.78.61a3.11,3.11,0,0,0-.56,1.78,3.06,3.06,0,0,0,1.17,2.42l-8.81,6.3H64.95l-9.39-6.71.11-.16a6.68,6.68,0,0,0,4,1.33,4.61,4.61,0,0,0,4.9-4.7c0-2.38-1.59-4.34-4.73-4.34a4,4,0,0,0-1,.13h0A2.16,2.16,0,0,0,59,69.5L59,68.28h4.58V66H68.5c-1.67,1.11-2.28,3.38-2.28,6,0,3.79,1.22,6.85,5,6.85s5-3.06,5-6.85c0-2.66-.6-4.94-2.28-6h5a3.15,3.15,0,0,0-1.21,2.45,3.22,3.22,0,0,0,3.22,3.17H81a3.26,3.26,0,0,0,3.35-3.18A3.16,3.16,0,0,0,83.08,66Z"/><path class="cls-11" d="M83.08,66a3.16,3.16,0,0,1,1.22,2.45A3.26,3.26,0,0,1,81,71.67h-.12L81,69.45a1,1,0,1,0,0-1.94V66Z"/><path class="cls-11" d="M83.08,66H78.82a3.44,3.44,0,0,1,4.26,0Z"/><path class="cls-12" d="M81,67.51a1,1,0,1,1-1,1A1,1,0,0,1,81,67.51Z"/><path class="cls-11" d="M81,66v1.48a1,1,0,1,0,0,1.94l-.12,2.21a3.22,3.22,0,0,1-3.22-3.17A3.15,3.15,0,0,1,78.82,66Z"/><path class="cls-10" d="M80,93.71,79.38,95,77.22,93.8q-2.07-1.87-4.14-4C73.28,89.91,76,91.29,80,93.71Z"/><polygon class="cls-12" points="77.85 84.47 72.16 88.54 71.4 89.08 64.95 84.47 77.85 84.47"/><path class="cls-9" d="M67.89,89.82c-.13.07-1.51.89-3.72,2.35l-.57-1.26-4.43.92-.49-4.49-4.5-.5.5-2.37H64.95l6.45,4.61.76-.54.91,1.27h0q2.06,2.1,4.14,4l-1.76-1-3,3.35-3-3.35L65.45,95l-.88-2Q66.21,91.54,67.89,89.82Z"/><path class="cls-11" d="M73.87,66c1.68,1.11,2.28,3.38,2.28,6,0,3.79-1.22,6.85-5,6.85s-5-3.06-5-6.85c0-2.66.61-4.94,2.28-6Zm-1,6c0-2.14-.37-3.84-1.65-3.84s-1.64,1.7-1.64,3.84.37,3.9,1.64,3.9S72.83,74.25,72.83,72.08Z"/><path class="cls-11" d="M73.87,66H68.5a5.27,5.27,0,0,1,5.37,0Z"/><path class="cls-12" d="M71.18,68.25c1.28,0,1.65,1.7,1.65,3.84S72.46,76,71.18,76s-1.64-1.73-1.64-3.9S69.91,68.25,71.18,68.25Z"/><path class="cls-10" d="M67.89,89.82q-1.67,1.71-3.31,3.26l-.41-.91C66.38,90.72,67.76,89.9,67.89,89.82Z"/><polygon class="cls-9" points="64.95 84.47 54.68 84.47 55.1 82.42 50.98 80.56 53.22 76.64 50.44 74.12 55.55 77.76 64.95 84.47"/><path class="cls-10" d="M64.16,92.17l.41.91C52.45,104.63,42.21,110,42.21,110A145.58,145.58,0,0,1,64.16,92.17Z"/><path class="cls-9" d="M63.59,90.91l.57,1.26a145.58,145.58,0,0,0-22,17.81v2.15H39.13V66l4.61,3.29V84.47H54.68l-.5,2.37,4.5.5.49,4.49Z"/><path class="cls-11" d="M59.88,69.89c3.14,0,4.73,2,4.73,4.34a4.61,4.61,0,0,1-4.9,4.7,6.68,6.68,0,0,1-4-1.33,5.12,5.12,0,0,1-.45-.41l1.55-2.49a4.35,4.35,0,0,0,2.67,1.18,1.71,1.71,0,0,0,1.84-1.62c0-1-.9-1.64-2.1-1.64a3.84,3.84,0,0,0-1.77.44h0l-1.69-.64.13-1.67L56.19,66h7.42v2.25H59L59,69.5a2.16,2.16,0,0,1-.07.52h0A4,4,0,0,1,59.88,69.89Z"/><polygon class="cls-11" points="63.61 65.52 63.61 66.03 56.19 66.03 56.23 65.52 63.61 65.52"/><path class="cls-12" d="M59.18,72.63c1.2,0,2.1.61,2.1,1.64a1.71,1.71,0,0,1-1.84,1.62,4.35,4.35,0,0,1-2.67-1.18l.62-1.65h0A3.84,3.84,0,0,1,59.18,72.63Z"/><path class="cls-12" d="M57.38,73.06l-.62,1.65L55.21,77.2a5.12,5.12,0,0,0,.45.41l-.11.16-5.11-3.64-.57-.53,3.35-3,2.6.2-.13,1.67Z"/><polygon class="cls-12" points="56.19 66.03 55.82 70.76 53.22 70.55 50.98 66.63 52.29 66.03 56.19 66.03"/><polygon class="cls-9" points="55.1 82.42 54.68 84.47 43.74 84.47 43.74 69.33 50.44 74.12 53.22 76.64 50.98 80.56 55.1 82.42"/><polygon class="cls-11" points="50.98 66.63 53.22 70.55 49.87 73.59 50.44 74.12 43.74 69.33 43.74 66.03 52.29 66.03 50.98 66.63"/><polygon class="cls-10" points="43.74 66.03 43.74 69.33 39.13 66.03 43.74 66.03"/><polygon class="cls-9" points="43.74 62.08 43.74 66.03 39.13 66.03 43.74 62.08"/><path class="cls-12" d="M51.71,45.6A5.46,5.46,0,0,0,54.87,47c.66,0,1.38-.26,1.38-1.05,0-1.57-5.94-1.51-5.94-5.57,0-2.43,2-4,4.67-4a6,6,0,0,1,4.24,1.49l-1.36,2.64a5,5,0,0,0-2.91-1.16c-.66,0-1.4.29-1.4,1,0,1.66,5.94,1.36,5.94,5.53,0,2.19-1.68,4.09-4.65,4.09A6.81,6.81,0,0,1,50,48.06Z"/><path class="cls-12" d="M68.29,47H64.18l-.79,3H60.07l4.48-13h3.39l4.48,13H69.1Zm-2.07-7-.53,1.85L64.94,44h2.6l-.74-2.15L66.26,40Z"/><path class="cls-12" d="M74,37h3V47h6v3H74Z"/><path class="cls-12" d="M84,37h9v2H88v3h4v2H88v3h5v3H84Z"/><line class="cls-2" x1="71.41" y1="89.09" x2="39.14" y2="66.04"/><line class="cls-2" x1="70.49" y1="89.74" x2="103.68" y2="66.04"/></g></g></g></svg>