<svg xmlns="http://www.w3.org/2000/svg" xmlns:xlink="http://www.w3.org/1999/xlink" viewBox="0 0 194.69 211.81"><defs><style>.cls-1,.cls-3,.cls-6{fill:#5d9632;}.cls-2{fill:#fff;}.cls-3,.cls-6,.cls-7{stroke:#fff;stroke-width:2px;}.cls-3,.cls-7{stroke-linecap:round;stroke-linejoin:round;}.cls-4{fill:url(#Degradado_sin_nombre_186);}.cls-5{fill:url(#Degradado_sin_nombre_186-2);}.cls-6{stroke-miterlimit:10;}.cls-7{fill:none;stroke-dasharray:3 6;}</style><linearGradient id="Degradado_sin_nombre_186" x1="916.95" y1="2007.87" x2="916.95" y2="1976.45" gradientTransform="translate(-828.04 -1934.61)" gradientUnits="userSpaceOnUse"><stop offset="0" stop-color="#5d9632"/><stop offset="0.39" stop-color="#5c9431"/><stop offset="0.61" stop-color="#578c2f"/><stop offset="0.78" stop-color="#4e7e2a"/><stop offset="0.93" stop-color="#426b23"/><stop offset="1" stop-color="#3a5e1f"/></linearGradient><linearGradient id="Degradado_sin_nombre_186-2" x1="916.95" y1="2007.87" x2="916.95" y2="1976.45" gradientTransform="matrix(0.97, -0.24, 0.24, 0.97, -1271.49, -1662.6)" xlink:href="#Degradado_sin_nombre_186"/></defs><title>env-holding</title><g id="Layer_2" data-name="Layer 2"><g id="texts"><path class="cls-1" d="M126.38,92.82a4.19,4.19,0,0,1-3.87-2.6L99.31,65.41a1,1,0,0,1-.3-.22l-3.56-3.76A1.89,1.89,0,0,1,98,58.66l4,3.25a1.82,1.82,0,0,1,.46.55l25.64,20.18L148,66.16a1,1,0,0,1,.26-.15,6.64,6.64,0,0,1,5.1,12.27,7.11,7.11,0,0,1-.73.25L128.15,92.46a1,1,0,0,1-.24.1l-.47.12A4.15,4.15,0,0,1,126.38,92.82Z"/><path class="cls-2" d="M96.82,59.23a.89.89,0,0,1,.56.2l4,3.26a.83.83,0,0,1,.22.26l.08.16,26.44,20.81,20.45-17a5.64,5.64,0,0,1,4.33,10.42,6.17,6.17,0,0,1-.74.25l-24.54,14-.47.12a3.16,3.16,0,0,1-.8.1,3.19,3.19,0,0,1-3-2.14L99.44,64.08l.3.42-3.56-3.76a.89.89,0,0,1,.65-1.51m0-2a2.89,2.89,0,0,0-2.1,4.88l3.56,3.76a2,2,0,0,0,.4.33l23,24.57a5.17,5.17,0,0,0,6,2.87l.47-.12a2,2,0,0,0,.48-.2L153,79.45c.25-.08.5-.17.72-.26a7.64,7.64,0,1,0-5.87-14.11,2,2,0,0,0-.51.31l-19.21,16L103.26,61.78a2.81,2.81,0,0,0-.59-.65l-4-3.26a2.9,2.9,0,0,0-1.82-.64Z"/><path class="cls-1" d="M134.94,208.75a2.13,2.13,0,0,1-1.91-1.2c-.88-1.82,1.09-3.1,1.93-3.64l.24-.16a16.73,16.73,0,0,1,3.32-1.71l-5.46-42.2,0-.56a1,1,0,0,1,0-.32l10.25-34a8.05,8.05,0,0,1,7.58-8.32h.47a8.05,8.05,0,0,1,8,7.59,8.67,8.67,0,0,1,0,1.28,1,1,0,0,1-.09.33l-15.64,33.8,1.57,39.62.12,2.92c0,.26,0,.54.06.81a9.38,9.38,0,0,1,0,2.15,2.88,2.88,0,0,1-1.15,2,2.67,2.67,0,0,1-1.56.45,6.75,6.75,0,0,1-1-.09l-.24,0a7.26,7.26,0,0,0-.95-.06,11.09,11.09,0,0,0-4.68,1.16A2.1,2.1,0,0,1,134.94,208.75Z"/><path class="cls-2" d="M151.37,117.64a7.05,7.05,0,0,1,7,6.65,7.63,7.63,0,0,1,0,1.12l-15.74,34,0-.46v.47h0l.07,1.72.23,5.69.31,7.93.35,8.9.34,8.6.28,7c0,1,.09,1.94.12,2.91a15.86,15.86,0,0,1,.08,2.78,1.88,1.88,0,0,1-.73,1.3,1.7,1.7,0,0,1-1,.28,8.54,8.54,0,0,1-1.09-.12,8.28,8.28,0,0,0-1.08-.07,12.08,12.08,0,0,0-5.11,1.26,1.12,1.12,0,0,1-1.49-.52c-.55-1.14,1.06-2,1.83-2.54a16.55,16.55,0,0,1,3.86-1.88l-5.57-43,0-.47,10.29-34.15a7.05,7.05,0,0,1,6.64-7.45h.41m0-2-.53,0a9.06,9.06,0,0,0-8.53,9.18l-10.2,33.83a2,2,0,0,0-.08.64l0,.47q0,.1,0,.19l5.37,41.44a17.07,17.07,0,0,0-2.79,1.52l-.23.15c-.88.57-3.54,2.31-2.28,4.91a3.12,3.12,0,0,0,4.16,1.45,10.07,10.07,0,0,1,4.24-1.06,6.32,6.32,0,0,1,.82.05l.23,0a7.69,7.69,0,0,0,1.12.1,3.68,3.68,0,0,0,2.13-.63,3.88,3.88,0,0,0,1.58-2.66,10.27,10.27,0,0,0,0-2.38c0-.26,0-.52-.05-.77q0-.77-.06-1.53t-.06-1.39L146,194.8l-.1-2.61-.34-8.6-.35-8.9-.31-7.93-.12-3.06-.1-2.63,0-1.24,15.54-33.58a2,2,0,0,0,.18-.65,9.59,9.59,0,0,0,0-1.43,9.06,9.06,0,0,0-9-8.53Z"/><path class="cls-1" d="M156.36,137.29a22,22,0,0,1-2.59-.16,15.91,15.91,0,0,1-9.5-4.1,11.58,11.58,0,0,1-3.08-10c.16-1.36.31-4.34.5-8.11.73-14.74,2.09-42.17,7.74-52a1.19,1.19,0,0,1,1-.54,2.16,2.16,0,0,1,.5.07h0a13.46,13.46,0,0,0,.53-4,1,1,0,0,1,1-1h.12l3.83.46a1,1,0,0,1,.87.82c.33,1.85.73,4,.84,4.29,4.29,12.59,12.06,56.39,11.23,63.33S163.76,137.29,156.36,137.29Z"/><path class="cls-2" d="M152.42,58.53l3.83.46s.69,3.88.88,4.43c4.27,12.53,12,56.15,11.18,62.89-.84,7-5.82,10-11.95,10a20.91,20.91,0,0,1-2.47-.15c-7.21-.86-12.65-5-11.71-12.94.79-6.59,1.1-47.53,8.1-59.7,0,0,0,0,.09,0s.47.12.76.12a.49.49,0,0,0,.43-.2c.85-1.27.85-4.86.85-4.86m0-2a2,2,0,0,0-2,2,16.49,16.49,0,0,1-.26,2.94,2.06,2.06,0,0,0-1.6,1c-5.77,10-7.13,37.6-7.87,52.42-.19,3.75-.33,6.72-.49,8-1,8.25,4.17,14.06,13.45,15.17a23,23,0,0,0,2.71.17c7.85,0,13.06-4.39,13.93-11.75.84-7-7-51.12-11.28-63.78-.1-.35-.5-2.43-.8-4.14A2,2,0,0,0,156.48,57l-3.83-.46Z"/><path class="cls-1" d="M153.87,58.63c-5.84,0-9.94-9.62-9.94-14.83a9.94,9.94,0,0,1,19.87,0C163.8,49,159.7,58.63,153.87,58.63Z"/><path class="cls-2" d="M153.86,34.86a8.94,8.94,0,0,1,8.94,8.94c0,4.94-4,13.83-8.94,13.83s-8.94-8.9-8.94-13.83a8.94,8.94,0,0,1,8.94-8.94m0-2A11,11,0,0,0,142.93,43.8c0,5.44,4.26,15.83,10.94,15.83S164.8,49.23,164.8,43.8a11,11,0,0,0-10.94-10.94Z"/><path class="cls-1" d="M160.58,210a2,2,0,0,1-1.83-1.14,2.13,2.13,0,0,1,.45-2.51,18.35,18.35,0,0,1,5.25-3.26l-6.56-41.93a.91.91,0,0,1,0-.1l0-.47-2.59-34.08a8.05,8.05,0,0,1,7.42-8.64l.62,0a8.08,8.08,0,0,1,8,7.44,8.65,8.65,0,0,1,0,1.28l-2.85,34,2.4,41.39c0,.56.06,1.11.1,1.67,0,.22,0,.44.07.66a7.87,7.87,0,0,1,.05,1.94c-.15,1.11-.8,2.43-3,2.43-.29,0-.59,0-.9-.05s-.51,0-.77,0a10,10,0,0,0-3.09.53,5.86,5.86,0,0,0-.6.26A5.21,5.21,0,0,1,160.58,210Z"/><path class="cls-2" d="M163.3,118.87a7.05,7.05,0,0,1,7,6.52,7.63,7.63,0,0,1,0,1.12l-2.86,34.06,0-.44,0,.47v0l.11,1.83.34,5.9.48,8.18.53,9.11.5,8.68.4,6.89c0,.85.09,1.7.15,2.55a12,12,0,0,1,.13,2.4c-.17,1.27-1,1.56-2,1.56-.26,0-.53,0-.8,0s-.58,0-.87,0a11,11,0,0,0-3.4.58,8.83,8.83,0,0,1-2.41.86,1,1,0,0,1-.94-.59,1.12,1.12,0,0,1,.24-1.33,18.7,18.7,0,0,1,5.68-3.38L158.88,161l0-.47-2.59-34.1a7.05,7.05,0,0,1,6.5-7.57l.54,0m0-2h0l-.69,0a9.05,9.05,0,0,0-8.34,9.71l2.59,34.08,0,.44a2,2,0,0,0,0,.21l6.44,41.18a18.57,18.57,0,0,0-4.83,3.12,3.13,3.13,0,0,0-.66,3.7,3,3,0,0,0,2.72,1.69,6,6,0,0,0,2.54-.74c.17-.08.4-.19.49-.22a9,9,0,0,1,2.78-.48c.23,0,.45,0,.67,0a10,10,0,0,0,1,.06,3.71,3.71,0,0,0,4-3.3,8.67,8.67,0,0,0-.05-2.19c0-.21,0-.41-.06-.62,0-.55-.07-1.1-.1-1.64l0-.88-.2-3.45-.2-3.45-.25-4.34-.25-4.34-.53-9.11-.18-3-.3-5.14-.17-3-.17-3-.1-1.69,2.84-33.92a9.72,9.72,0,0,0,0-1.44,9.09,9.09,0,0,0-9-8.37Z"/><polygon class="cls-3" points="140.97 110.56 168.37 109.06 171.97 123.06 170.34 158.81 171.97 200.56 163.29 200.56 156.47 160.81 153.97 139.56 146.12 159.81 147.22 200.56 136.22 199.06 131.47 159.31 140.22 130.07 140.97 110.56"/><rect class="cls-4" x="62.26" y="41.9" width="53.23" height="31.5" transform="translate(-11.08 22.55) rotate(-13.62)"/><polygon class="cls-5" points="66.75 79.11 87.56 52.47 118.4 66.22 66.75 79.11"/><path class="cls-5" d="M59.3,48.62,86.68,62.26a5,5,0,0,0,6.26-1.52L111,36.08Z"/><rect class="cls-6" x="62.26" y="41.9" width="53.23" height="31.5" transform="translate(-11.08 22.55) rotate(-13.62)"/><polygon class="cls-3" points="66.75 79.11 87.56 52.47 118.4 66.22 66.75 79.11"/><path class="cls-3" d="M59.3,48.62,86.68,62.26a5,5,0,0,0,6.26-1.52L111,36.08Z"/><path class="cls-1" d="M45.78,210.65a2.08,2.08,0,0,1-.91-.21,10.8,10.8,0,0,0-4.56-1.13,7.07,7.07,0,0,0-.92.06l-.24,0a6.63,6.63,0,0,1-1,.09,2.62,2.62,0,0,1-1.54-.45,2.83,2.83,0,0,1-1.13-1.95,9.15,9.15,0,0,1,0-2.1c0-.27,0-.54.06-.79l.12-2.85,1.53-38.7L22,129.65a1,1,0,0,1-.09-.32,8.51,8.51,0,0,1,0-1.25,7.89,7.89,0,0,1,7.87-7.44h.46a7.9,7.9,0,0,1,7.43,8.15l10,33.19a1,1,0,0,1,0,.32l0,.46-5.34,41.29a16.36,16.36,0,0,1,3.23,1.67l.23.16c.82.54,2.75,1.79,1.89,3.59A2.11,2.11,0,0,1,45.78,210.65Z"/><path class="cls-2" d="M29.73,121.64h.4a6.89,6.89,0,0,1,6.48,7.27l10.06,33.35v.46l-5.44,42A16.17,16.17,0,0,1,45,206.55c.74.5,2.32,1.36,1.78,2.48a1.09,1.09,0,0,1-1.46.51,11.8,11.8,0,0,0-5-1.23,8.11,8.11,0,0,0-1.05.07,8.35,8.35,0,0,1-1.07.11,1.66,1.66,0,0,1-1-.27,1.84,1.84,0,0,1-.71-1.27,15.49,15.49,0,0,1,.08-2.72c0-.95.08-1.9.12-2.85l.27-6.86.33-8.4.34-8.69.31-7.74.22-5.56.07-1.68h0V162l0,.45L22.89,129.23a7.45,7.45,0,0,1,0-1.1,6.89,6.89,0,0,1,6.87-6.49m0-2A8.89,8.89,0,0,0,20.87,128a9.42,9.42,0,0,0,0,1.4,2,2,0,0,0,.18.65l15.17,32.79v.36l0,.84-.13,3.32L36,169.61l-.19,4.87-.11,2.87-.2,5L35.33,186l-.33,8.4-.14,3.6-.13,3.26q0,.68-.06,1.35t-.06,1.49c0,.24,0,.49-.05.75a10.07,10.07,0,0,0,0,2.33,3.83,3.83,0,0,0,1.56,2.63,3.64,3.64,0,0,0,2.1.62,7.53,7.53,0,0,0,1.1-.1l.22,0a6.13,6.13,0,0,1,.79,0,9.79,9.79,0,0,1,4.13,1,3.09,3.09,0,0,0,4.13-1.44c1.25-2.59-1.38-4.3-2.24-4.86l-.22-.14a16.71,16.71,0,0,0-2.7-1.47L48.64,163c0-.06,0-.13,0-.19v-.46a2,2,0,0,0-.08-.64l-10-33a8.89,8.89,0,0,0-8.38-9Z"/><path class="cls-1" d="M47.2,138.5a1.89,1.89,0,0,1-.39,0l-5-1a1,1,0,0,1-.65-1.49L29.27,110.56h-.06a4.13,4.13,0,0,1-3.93-2.91l-9.06-30a7,7,0,0,1-.2-.88,6.51,6.51,0,0,1,5.42-7.44,6.55,6.55,0,0,1,1-.08,6.48,6.48,0,0,1,6.43,5.5l4.32,27.56L43,133.14l4.85,1.73a1.87,1.87,0,0,1-.63,3.63Z"/><path class="cls-2" d="M22.47,70.28a5.51,5.51,0,0,1,5.44,4.66l4.33,27.64,10,31.5h.23a.81.81,0,0,1,.27,0l4.77,1.7a.87.87,0,0,1-.29,1.69l-.18,0-5-1,.5,0-12.7-27a3.11,3.11,0,0,1-3.63-2.13l-.14-.45L17.18,77.39a6,6,0,0,1-.17-.74,5.52,5.52,0,0,1,5.45-6.36m0-2a7.58,7.58,0,0,0-1.17.09A7.51,7.51,0,0,0,15,77a8.06,8.06,0,0,0,.23,1l8.92,29.53.14.46a5.14,5.14,0,0,0,4.3,3.59L40.12,136q0,.1,0,.19a2,2,0,0,0,1.57,2.23l5,1a2.87,2.87,0,0,0,1.56-5.51l-4.39-1.56-9.59-30.25L29.88,74.63a7.47,7.47,0,0,0-7.41-6.35Z"/><path class="cls-1" d="M17.82,134.22c-5.42,0-9.37-2.93-11.13-8.26-1.44-4.36,1.64-23.52,5.5-46.25,1.24-7.3,2.31-13.6,2.79-17.29,0-.33,0-2.43,0-4.26a1,1,0,0,1,.69-1L19.21,56a1,1,0,0,1,1.29.75,13.31,13.31,0,0,0,1.27,3.71,1.63,1.63,0,0,1,.7-.19,1.14,1.14,0,0,1,.8.36c6.5,7.37,7.66,28.22,8.5,43.45.34,6.13.63,11.43,1.22,13.2a11.33,11.33,0,0,1-1,10.15,15.56,15.56,0,0,1-8.31,5.78,18.73,18.73,0,0,1-5.85,1Z"/><path class="cls-2" d="M19.53,56.95s.69,3.44,1.76,4.49a.42.42,0,0,0,.31.12c.33,0,.73-.28.89-.28l.05,0C31.61,71.57,30,111.44,32,117.59,34.5,125,30.09,130,23.36,132.25a17.78,17.78,0,0,1-5.53,1c-4.54,0-8.42-2.23-10.18-7.57-2.08-6.3,6.68-50.28,8.33-63.1.07-.57,0-4.42,0-4.42l3.58-1.18m0-2a2,2,0,0,0-.63.1l-3.58,1.18A2,2,0,0,0,14,58.18c0,1.69.07,3.76,0,4.14-.47,3.65-1.54,9.94-2.78,17.22-4,23.68-7,42.15-5.46,46.73,1.9,5.77,6.19,8.94,12.08,8.94A19.72,19.72,0,0,0,24,134.15c8.7-2.87,12.51-9.46,10-17.19-.54-1.65-.85-7.13-1.17-12.94C31.93,88.65,30.77,67.6,24,60a2.07,2.07,0,0,0-1.55-.7H22.3a16.25,16.25,0,0,1-.81-2.73,2,2,0,0,0-2-1.6Z"/><path class="cls-1" d="M15.73,57.13c-4.94,0-10.67-6.56-12.14-11A9.73,9.73,0,1,1,22.07,40c1.6,4.84.74,15-4.69,16.83a5.27,5.27,0,0,1-1.65.26Z"/><path class="cls-2" d="M12.83,34.37a8.73,8.73,0,0,1,8.29,6c1.51,4.58.53,14.05-4.05,15.56a4.24,4.24,0,0,1-1.34.21c-4.41,0-9.82-6.15-11.19-10.3a8.74,8.74,0,0,1,8.29-11.47m0-2A10.74,10.74,0,0,0,2.64,46.46c1.53,4.65,7.54,11.67,13.09,11.67a6.26,6.26,0,0,0,2-.31c2.77-.91,4.77-3.8,5.64-8.14a21.14,21.14,0,0,0-.32-10,10.71,10.71,0,0,0-10.19-7.37Z"/><path class="cls-1" d="M11.09,210.81A4.56,4.56,0,0,1,8.85,210a5.77,5.77,0,0,0-.56-.32,9.2,9.2,0,0,0-3.69-.87c-.87,0-3.52,0-3.6-2.74a7.7,7.7,0,0,1,.25-1.89c0-.21.09-.42.13-.63.1-.54.18-1.07.27-1.61l6.58-40,.72-33.31a8.56,8.56,0,0,1,.13-1.25,7.89,7.89,0,0,1,7.75-6.47,8,8,0,0,1,1.43.13,7.89,7.89,0,0,1,6.34,9.18l-6,32.86-.07.43,0,.1-10.67,40a17.93,17.93,0,0,1,4.76,3.7,2.1,2.1,0,0,1,.18,2.51A2,2,0,0,1,11.09,210.81Z"/><path class="cls-2" d="M16.83,121.91A6.89,6.89,0,0,1,23.61,130l-6,32.86-.07.45L6.66,204.15A18.26,18.26,0,0,1,11.83,208a1.09,1.09,0,0,1,.1,1.31,1,1,0,0,1-.84.48c-.79,0-1.76-.81-2.38-1.08a10.22,10.22,0,0,0-4.1-1c-1.29,0-2.56-.19-2.6-1.77a11.75,11.75,0,0,1,.37-2.32c.15-.82.27-1.64.41-2.46l1.1-6.65,1.38-8.38,1.45-8.79,1.3-7.9.94-5.7L9.23,162v0l.07-.45-.07.43.72-33.38a7.45,7.45,0,0,1,.11-1.09,6.89,6.89,0,0,1,6.77-5.65m0-2a8.88,8.88,0,0,0-8.74,7.29,9.41,9.41,0,0,0-.14,1.4l-.72,33.25-.1.63-.16,1-.41,2.46L6,169.17l-1.3,7.9L3.42,185l-.14.88-.64,3.91-.74,4.47-1,5.83-.14.82-.14.85c-.08.53-.17,1.06-.26,1.59,0,.19-.08.39-.12.59A8.51,8.51,0,0,0,0,206.05c0,1.38.69,3.69,4.59,3.71a8.21,8.21,0,0,1,3.29.78c.08,0,.29.16.45.26a5.42,5.42,0,0,0,2.76,1,3,3,0,0,0,2.52-1.4,3.11,3.11,0,0,0-.27-3.71A18.14,18.14,0,0,0,9,203.18l10.47-39.31a2,2,0,0,0,0-.2l.07-.43,6-32.84a8.89,8.89,0,0,0-7.14-10.34,8.94,8.94,0,0,0-1.61-.15Z"/><path class="cls-1" d="M38.86,94.62a4.07,4.07,0,0,1-2.29-.7L10.64,76.38a7.09,7.09,0,0,1-.71-.55,6.51,6.51,0,0,1,8.71-9.68L38.75,84.24,57.61,66.5a1.8,1.8,0,0,1,.64-.39L63,64.43a1.87,1.87,0,0,1,1.48,3.43l-4,2.06L42.08,93.07a4.1,4.1,0,0,1-3.22,1.55Z"/><path class="cls-2" d="M63.64,65.32A.87.87,0,0,1,64,67l-4.2,2.16.11-.14-.41.29.3-.16L41.3,92.45a3.12,3.12,0,0,1-2.44,1.17,3.07,3.07,0,0,1-1.73-.53l-.39-.27L11.2,75.56a6.06,6.06,0,0,1-.6-.47A5.51,5.51,0,1,1,18,66.89L38.77,85.6l19.4-18.25.13-.12a.82.82,0,0,1,.28-.17l4.77-1.69a.86.86,0,0,1,.29-.05m0-2h0a2.86,2.86,0,0,0-1,.17l-4.77,1.69a2.8,2.8,0,0,0-1,.59l-.14.13-18.06,17L19.3,65.4a7.51,7.51,0,1,0-10,11.17,8.05,8.05,0,0,0,.81.63L35.62,94.48l.39.27a5.11,5.11,0,0,0,6.85-1l18.27-23,3.82-2a2.87,2.87,0,0,0-1.31-5.43Z"/><polyline class="cls-3" points="8.55 109.06 32.51 110.56 46.67 162.27 41.6 201.77 36.6 204.24 38.27 162.46 23.73 135.06 20.03 163.95 8.77 201.56 2.77 201.22 7.33 161.06 4.97 124.56 5.97 109.06 8.55 109.06"/><line class="cls-7" x1="96.24" y1="18.93" x2="87.69" y2="1.08"/><line class="cls-7" x1="124.9" y1="25.44" x2="142.75" y2="16.89"/><line class="cls-7" x1="111.23" y1="18.6" x2="117.43" y2="1"/><line class="cls-7" x1="90.46" y1="26.44" x2="77.26" y2="21.79"/><line class="cls-7" x1="139.98" y1="40" x2="126.78" y2="35.35"/><path class="cls-1" d="M162.88,79.8a6.67,6.67,0,0,1-5.73-3.27,6.64,6.64,0,0,1,2.35-9.09l24.17-14.24-.73-32.84a1.84,1.84,0,0,1-.16-.69l-.18-5.18a1.9,1.9,0,0,1,1.57-1.93l.32,0a1.89,1.89,0,0,1,1.86,1.58l.87,5.11a1,1,0,0,1,0,.37L193.1,53a4.2,4.2,0,0,1-1,5.41L167,78.36a7.33,7.33,0,0,1-.76.52,6.64,6.64,0,0,1-3.37.92Z"/><path class="cls-2" d="M184.49,13.51a.89.89,0,0,1,.88.74l.87,5.11-.16-.49,6.08,34.52a3.19,3.19,0,0,1-.66,4.26l-.38.3L166.38,77.57a6.19,6.19,0,0,1-.64.44A5.64,5.64,0,1,1,160,68.29l24.68-14.54-.75-33.64-.08-.16a.83.83,0,0,1-.08-.33l-.18-5.18a.89.89,0,0,1,.74-.91h.15m0-2h0a2.89,2.89,0,0,0-2.89,3l.18,5.18a2.82,2.82,0,0,0,.17.86l.72,32.07L159,66.57a7.64,7.64,0,1,0,7.76,13.17,8.21,8.21,0,0,0,.86-.59l24.75-19.62.38-.3a5.21,5.21,0,0,0,1.32-6.54l-5.83-33.13a2,2,0,0,0,0-.52l-.87-5.11a2.88,2.88,0,0,0-2.85-2.41Z"/></g></g></svg>