<svg xmlns="http://www.w3.org/2000/svg" viewBox="0 0 547 125"><defs><style>.cls-1{fill:#4d8736;}</style></defs><title>green-curly-brace-bot</title><g id="Layer_2" data-name="Layer 2"><g id="texts"><path class="cls-1" d="M20,0V28.57C20,53.08,36.28,60,81.7,60h93.83c80.09,0,92,34.06,99.81,41.83C280.12,94.06,292.07,60,372.16,60H466c45.42,0,62-6.92,62-31.43V0h19V29.77C547,63.24,531.13,82,476.75,82h-95c-48.41,0-95,8-96.82,43H262.19c-1.79-35-48.41-43-96.82-43H70.94C16.55,82,0,63.24,0,29.77V0Z"/></g></g></svg>