<svg xmlns="http://www.w3.org/2000/svg" viewBox="0 0 121.41 80.63"><defs><style>.cls-1,.cls-4{fill:#fff;}.cls-1,.cls-2,.cls-3{stroke:#767676;stroke-linecap:round;stroke-linejoin:round;}.cls-1,.cls-3{stroke-width:4px;}.cls-2{fill:#767676;}.cls-3{fill:none;}.cls-5{fill:#87c22e;}</style></defs><title>icon-cart</title><g id="Layer_2" data-name="Layer 2"><g id="texts"><line class="cls-1" x1="30" y1="72.43" x2="68" y2="72.43"/><path class="cls-2" d="M76.32,62.18H29.15l-6-34h57.9a3.51,3.51,0,0,1,3.39,4.11L79.72,59.51A3.29,3.29,0,0,1,76.32,62.18Z" transform="translate(0 -0.25)"/><polyline class="cls-3" points="2 18.43 21.62 18.43 29.92 67.41"/><circle class="cls-1" cx="30.1" cy="72.19" r="6.44"/><circle class="cls-1" cx="67.95" cy="72.19" r="6.44"/><path class="cls-4" d="M43.55,41.68c.11-6,3.94-9.49,9.73-9.49,4.64,0,9.29,2.33,9.29,7.45,0,3.6-1.78,5.05-4.57,6.84-1.93,1.26-2.45,1.2-2.45,4.2H50V48.4a5.84,5.84,0,0,1,2.85-5.16c1.52-1,2.89-1.82,2.89-3.68a2.28,2.28,0,0,0-2.48-2.27A3,3,0,0,0,50,40.48v1.19Zm5.45,10h7v7H49Z" transform="translate(0 -0.25)"/><path class="cls-5" d="M120.28,41.43a3.85,3.85,0,1,1-5.44,5.44L103.48,35.51a19,19,0,0,0,5.7-5.18Z" transform="translate(0 -0.25)"/><path class="cls-5" d="M112.8,19.2a18.79,18.79,0,0,1-3.63,11.13l-2.91-2.91a3.22,3.22,0,0,0-.47-.39,14.29,14.29,0,1,0-5.61,5,3.67,3.67,0,0,0,.64.86l2.65,2.65a18.75,18.75,0,0,1-9.62,2.63A18.95,18.95,0,1,1,112.8,19.2Z" transform="translate(0 -0.25)"/><path class="cls-5" d="M106.27,27.42l2.91,2.91a19,19,0,0,1-5.7,5.18l-2.65-2.65a3.67,3.67,0,0,1-.64-.86,14.34,14.34,0,0,0,5.61-5A3.22,3.22,0,0,1,106.27,27.42Z" transform="translate(0 -0.25)"/><path class="cls-5" d="M104.6,18.71a1.12,1.12,0,0,1-1,1.2h-.08a1.12,1.12,0,0,1-1.12-1c-.48-6.89-6.94-7-7.22-7a1.12,1.12,0,0,1,0-2.25h0A9.36,9.36,0,0,1,104.6,18.71Z" transform="translate(0 -0.25)"/></g></g></svg>