<svg xmlns="http://www.w3.org/2000/svg" viewBox="0 0 79.88 82.54"><defs><style>.cls-1{fill:#f9f9f9;stroke:#007cc0;stroke-miterlimit:10;stroke-width:2.36px;}.cls-2{fill:#5d9632;}.cls-3{fill:#007cc0;}.cls-4{fill:#ccc;}.cls-5,.cls-6,.cls-7{fill:none;}.cls-5{stroke:#fff;stroke-width:6px;}.cls-5,.cls-6,.cls-7,.cls-8,.cls-9{stroke-linecap:round;stroke-linejoin:round;}.cls-6,.cls-8,.cls-9{stroke:#767676;}.cls-6,.cls-7,.cls-8,.cls-9{stroke-width:2px;}.cls-7{stroke:#0080b1;}.cls-8{fill:#fff;}.cls-9{fill:#bbe170;}.cls-10{fill:#767676;}</style></defs><title>icon-note</title><g id="Layer_2" data-name="Layer 2"><g id="texts"><circle class="cls-1" cx="40.4" cy="41.27" r="38.3"/><circle class="cls-2" cx="40.4" cy="41.27" r="30.34"/><rect class="cls-3" width="0.66" height="5.94"/><rect class="cls-3" x="2.64" y="-2.64" width="0.66" height="5.94" transform="translate(2.64 3.3) rotate(-90)"/><rect class="cls-3" x="76.27" y="79.24" width="0.66" height="5.94" transform="translate(-5.61 158.81) rotate(-90)"/><rect class="cls-3" x="78.91" y="76.6" width="0.66" height="5.94"/><circle class="cls-1" cx="40.24" cy="41.22" r="38.3"/><circle class="cls-2" cx="40.24" cy="41.22" r="30.34"/><rect class="cls-4" y="0.04" height="6" transform="translate(0 6.08) rotate(180)"/><rect class="cls-4" x="2.5" y="-2.46" width="1" height="6" transform="translate(2.46 3.54) rotate(-90)"/><polygon class="cls-4" points="73 82.04 73 82.04 79 82.04 79 82.04 73 82.04"/><rect class="cls-4" x="79" y="77.04" height="5" transform="translate(158 159.08) rotate(180)"/><polygon class="cls-5" points="52.16 30.34 25.16 30.34 25.16 52.34 57.16 52.34 57.16 36.34 52.16 36.34 52.16 30.34"/><polygon class="cls-5" points="52.16 36.34 57.06 36.34 52.16 30.72 52.16 36.34"/><polygon class="cls-5" points="52.16 30.34 25.16 30.34 25.16 52.34 57.16 52.34 57.16 36.34 52.16 36.34 52.16 30.34"/><polygon class="cls-5" points="52.16 36.34 57.06 36.34 52.16 30.72 52.16 36.34"/><line class="cls-5" x1="35.16" y1="36.34" x2="47.16" y2="36.34"/><line class="cls-5" x1="29.16" y1="42.34" x2="52.16" y2="42.34"/><line class="cls-5" x1="29.16" y1="45.34" x2="52.16" y2="45.34"/><rect class="cls-5" x="29.16" y="34.34" width="3" height="4"/><polygon class="cls-6" points="52.16 30.34 25.16 30.34 25.16 52.34 57.16 52.34 57.16 36.34 52.16 36.34 52.16 30.34"/><polygon class="cls-7" points="52.16 36.34 57.06 36.34 52.16 30.72 52.16 36.34"/><polygon class="cls-8" points="52.16 30.34 25.16 30.34 25.16 52.34 57.16 52.34 57.16 36.34 52.16 36.34 52.16 30.34"/><polygon class="cls-9" points="52.16 36.34 57.06 36.34 52.16 30.72 52.16 36.34"/><line class="cls-6" x1="35.16" y1="36.34" x2="47.16" y2="36.34"/><line class="cls-6" x1="29.16" y1="42.34" x2="52.16" y2="42.34"/><line class="cls-6" x1="29.16" y1="45.34" x2="52.16" y2="45.34"/><rect class="cls-10" x="29.16" y="34.34" width="3" height="4"/></g></g></svg>