<svg xmlns="http://www.w3.org/2000/svg" xmlns:xlink="http://www.w3.org/1999/xlink" viewBox="0 0 653.09 258.23"><defs><style>.cls-1{fill:#87c22e;}.cls-2,.cls-7{fill:#767676;}.cls-16,.cls-3,.cls-4{fill:none;}.cls-13,.cls-19,.cls-3,.cls-4,.cls-6,.cls-7{stroke:#fff;}.cls-16,.cls-3,.cls-8{stroke-miterlimit:10;}.cls-3,.cls-4,.cls-6,.cls-7{stroke-width:2px;}.cls-13,.cls-19,.cls-4,.cls-6,.cls-7{stroke-linecap:round;stroke-linejoin:round;}.cls-5{fill:#4d8736;}.cls-11,.cls-19,.cls-6{fill:#2f66ab;}.cls-14,.cls-15,.cls-17,.cls-8,.cls-9{fill:#fff;}.cls-8{stroke:#e6e6e6;}.cls-13,.cls-19,.cls-8{stroke-width:3px;}.cls-9{font-size:23.28px;}.cls-15,.cls-9{font-family:MuseoSans-900Italic, MuseoSans 900Italic;font-style:italic;}.cls-10{letter-spacing:-0.01em;}.cls-11{font-size:20px;}.cls-11,.cls-17{font-family:ArialMT, Arial;}.cls-12{letter-spacing:-0.07em;}.cls-13{fill:#bf3019;}.cls-14{font-size:22px;font-family:HelveticaNeueLTPro-Hv, HelveticaNeueLTPro Hv;}.cls-15{font-size:34.49px;}.cls-16{stroke:#2f66ab;stroke-width:4px;}.cls-17{font-size:24px;}.cls-18{letter-spacing:-0.06em;}</style><symbol id="deliveremali" data-name="deliveremali" viewBox="0 0 94.05 33.5"><polygon class="cls-1" points="93.05 32.03 92.99 32.03 92.99 31.98 93.05 32.03"/><polygon class="cls-2" points="92.99 32.03 92.99 32.5 39.75 32.5 39.75 1 58.99 17.21 39.82 32.39 92.99 32.03"/><path class="cls-2" d="M93,32V32l-53.17.36L59,17.21l4.16,3.5a5,5,0,0,0,6.44,0l4.2-3.53Z"/><polygon class="cls-2" points="92.99 1 92.99 31.98 73.79 17.18 92.99 1"/><polygon class="cls-2" points="92.99 1 73.79 17.18 66.31 11.41 58.99 17.21 39.75 1 92.99 1"/><path class="cls-2" d="M66.31,11.41l7.48,5.77-4.2,3.53a5,5,0,0,1-6.44,0L59,17.21Z"/><line class="cls-3" x1="92.99" y1="1" x2="92.99" y2="31.98"/><polyline class="cls-3" points="92.99 32.03 92.99 32.5 39.75 32.5 39.75 1"/><polyline class="cls-4" points="73.79 17.18 92.99 31.98 93.05 32.03 92.99 32.03 39.82 32.39 58.99 17.21"/><path class="cls-4" d="M39.75,1,59,17.21l4.16,3.5a5,5,0,0,0,6.44,0l4.2-3.53L93,1Z"/><line class="cls-4" x1="29.67" y1="16.33" x2="1" y2="16.33"/><line class="cls-4" x1="29.67" y1="7.99" x2="1" y2="7.99"/><line class="cls-4" x1="29.67" y1="24.66" x2="1" y2="24.66"/></symbol></defs><title>open-rate-formula</title><g id="Layer_2" data-name="Layer 2"><g id="texts"><rect class="cls-5" x="21.09" y="198.23" width="630" height="60" rx="10" ry="10"/><use id="deliveremali-3" data-name="deliveremali" width="94.05" height="33.5" transform="translate(121.83 138.02)" xlink:href="#deliveremali"/><path class="cls-2" d="M214.83,21.89V53.24H161.59V21.89L185,41.6c2.48,2,5.56,2.3,6.44,0Z"/><path class="cls-2" d="M214.83,21.89,191.43,41.6c-.88,2.3-4,2-6.44,0l-23.4-19.71Z"/><path class="cls-2" d="M214.83,21.89H161.59L185,2.18a5,5,0,0,1,6.44,0Z"/><polyline class="cls-3" points="214.83 21.89 214.83 53.24 161.59 53.24 161.59 21.89"/><path class="cls-4" d="M161.59,21.89,185,41.6c2.48,2,5.56,2.3,6.44,0l23.4-19.71"/><path class="cls-4" d="M214.83,21.89,191.43,2.18a5,5,0,0,0-6.44,0l-23.4,19.71Z"/><polygon class="cls-6" points="206.09 5.23 172.09 5.23 172.09 30.58 189.12 44.4 206.09 29.32 206.09 5.23"/><path class="cls-7" d="M161.65,53.23l19.08-15.08a12,12,0,0,1,14.85,0l19.3,15.12Z"/><line class="cls-4" x1="179.09" y1="22.23" x2="199.09" y2="22.23"/><line class="cls-4" x1="179.09" y1="29.23" x2="199.09" y2="29.23"/><rect class="cls-8" x="466.59" y="48.73" width="185" height="80"/><text class="cls-9" transform="translate(97.08 78.68)"># of opened emails</text><text class="cls-9" transform="translate(89.51 123.68)"># of deli<tspan class="cls-10" x="76.76" y="0">v</tspan><tspan x="87.73" y="0">e</tspan><tspan class="cls-10" x="99.39" y="0">r</tspan><tspan x="106.77" y="0">ed emails</tspan></text><text class="cls-11" transform="translate(504.45 95.55)">OPEN R<tspan class="cls-12" x="76.68" y="0">A</tspan><tspan x="88.54" y="0">TE</tspan></text><circle class="cls-13" cx="466.5" cy="88.68" r="20"/><text class="cls-14" transform="translate(459.94 93.68)">=</text><text class="cls-15" transform="translate(338.32 102.26)">x 100</text><line class="cls-16" x1="71.5" y1="93.68" x2="311.5" y2="93.68"/><text class="cls-17" transform="translate(65.07 238.68)"><tspan class="cls-18">A</tspan><tspan x="14.68" y="0" xml:space="preserve"> good benchmark for open rate is about 20 to 22%.</tspan></text><circle class="cls-19" cx="21.5" cy="228.68" r="20"/><polyline class="cls-19" points="10.5 231.43 19.25 238.04 31.5 221.68"/></g></g></svg>