<svg xmlns="http://www.w3.org/2000/svg" viewBox="0 0 331 164"><defs><style>.cls-1{fill:none;}.cls-1,.cls-2,.cls-4{stroke:#fff;}.cls-1,.cls-4{stroke-linecap:round;stroke-linejoin:round;stroke-width:2px;}.cls-2{fill:#fff;stroke-miterlimit:10;}.cls-3,.cls-4{fill:#87c22e;}</style></defs><title>open-rate</title><g id="Layer_2" data-name="Layer 2"><g id="texts"><rect class="cls-1" x="1" y="1" width="329" height="162" rx="5.37" ry="5.37"/><polygon class="cls-1" points="55.47 35.56 55.33 11.11 40.26 23.96 55.47 35.56"/><polygon class="cls-1" points="55.47 35.59 13.52 36.11 28.58 24.05 13.33 11.35 13.47 36.2 55.47 35.97 55.47 35.59"/><path class="cls-1" d="M37,26.77a4,4,0,0,1-5.08,0L28.58,24,13.28,36.11,55,35.59v0L40,24Z"/><path class="cls-1" d="M13.33,11.35,28.58,24l3.3,2.75a4,4,0,0,0,5.08,0L40.25,24,55.33,11.11Z"/><rect class="cls-1" x="72" y="15" width="126" height="17"/><rect class="cls-1" x="205" y="15" width="20" height="17"/><path class="cls-2" d="M219.87,27.77l-2.45-2.45a4.19,4.19,0,1,0-1.26,1.14L218.67,29a.85.85,0,0,0,1.2-1.2Zm-4.43-2.08a3.16,3.16,0,1,1,1.24-1.1A3.13,3.13,0,0,1,215.44,25.69Z"/><rect class="cls-1" x="65" y="48" width="248" height="18"/><line class="cls-1" x1="85" y1="55" x2="199" y2="55"/><line class="cls-1" x1="85" y1="60" x2="162" y2="60"/><rect class="cls-1" x="69" y="53" width="10" height="9"/><rect class="cls-1" x="65" y="75" width="248" height="18"/><line class="cls-1" x1="85" y1="81" x2="199" y2="81"/><line class="cls-1" x1="85" y1="86" x2="162" y2="86"/><rect class="cls-1" x="69" y="79" width="10" height="10"/><rect class="cls-1" x="65" y="101" width="248" height="18"/><line class="cls-1" x1="85" y1="108" x2="199" y2="108"/><line class="cls-1" x1="85" y1="113" x2="162" y2="113"/><rect class="cls-1" x="69" y="106" width="10" height="9"/><rect class="cls-1" x="65" y="128" width="248" height="18"/><line class="cls-1" x1="85" y1="135" x2="199" y2="135"/><line class="cls-1" x1="85" y1="139" x2="162" y2="139"/><rect class="cls-1" x="69" y="132" width="10" height="10"/><line class="cls-1" x1="14" y1="51" x2="54" y2="51"/><line class="cls-1" x1="14" y1="62" x2="54" y2="62"/><line class="cls-1" x1="14" y1="74" x2="54" y2="74"/><line class="cls-1" x1="14" y1="85" x2="54" y2="85"/><line class="cls-1" x1="14" y1="96" x2="54" y2="96"/><path class="cls-3" d="M101,78.74l25.64,23.74a2.26,2.26,0,0,1-1.36,3.93l-6.93.42,4.3,9.17-12.44,5.42-3.87-8.74L101.09,118A2.4,2.4,0,0,1,97,116.39v-36A2.4,2.4,0,0,1,101,78.74Z"/><polygon class="cls-4" points="101 84.37 120.87 102.66 112.17 103.19 117.25 113.97 112.24 116.16 107.39 105.6 101 112.09 101 84.37"/></g></g></svg>