<svg xmlns="http://www.w3.org/2000/svg" xmlns:xlink="http://www.w3.org/1999/xlink" viewBox="0 0 485.41 70"><defs><style>.cls-1{isolation:isolate;}.cls-2{fill:#bbe170;}.cls-3{mix-blend-mode:multiply;fill:url(#linear-gradient);}.cls-4{font-size:30.83px;fill:#fff;font-family:ArialMT, Arial;}.cls-5{letter-spacing:-0.02em;}.cls-6{letter-spacing:0em;}.cls-7,.cls-8{fill:#87c22e;stroke:#fff;stroke-linecap:round;stroke-linejoin:round;stroke-width:2px;}.cls-8{stroke-dasharray:3 6;}</style><linearGradient id="linear-gradient" x1="6.47" y1="34.95" x2="420" y2="34.95" gradientUnits="userSpaceOnUse"><stop offset="0" stop-color="#bbe170"/><stop offset="1" stop-color="#bbe170" stop-opacity="0"/></linearGradient></defs><title>pro-tips</title><g class="cls-1"><g id="Layer_2" data-name="Layer 2"><g id="texts"><path class="cls-2" d="M0,0H450.41a35,35,0,0,1,35,35v0a35,35,0,0,1-35,35H0a0,0,0,0,1,0,0V0A0,0,0,0,1,0,0Z"/><polygon class="cls-3" points="70.69 69.9 6.47 0 420 0 420 69.73 70.69 69.9"/><text class="cls-4" transform="translate(165.41 44.79)">PRO<tspan class="cls-5" x="66.8" y="0"> </tspan><tspan class="cls-6" x="74.81" y="0">TIPS</tspan></text><rect class="cls-7" x="123" y="39" width="12" height="15"/><path class="cls-7" d="M125,54h8v1.59c0,2-2,3.41-4,3.41h-.07A3.7,3.7,0,0,1,125,55.59Z"/><circle class="cls-7" cx="128.96" cy="31.74" r="14.05"/><line class="cls-7" x1="123" y1="48" x2="135" y2="48"/><line class="cls-7" x1="123" y1="51" x2="135" y2="51"/><polyline class="cls-7" points="129 46 129 40.64 123.79 33.52"/><line class="cls-7" x1="128.96" y1="40.64" x2="134.17" y2="33.41"/><polyline class="cls-7" points="125.43 35.74 127.4 33.41 128.96 35.74 130.62 33.41 132.65 35.52"/><line class="cls-8" x1="114.83" y1="17.69" x2="106.37" y2="10.7"/><line class="cls-8" x1="142.89" y1="17.69" x2="151.35" y2="10.7"/><line class="cls-8" x1="129" y1="13" x2="129" y2="4"/></g></g></g></svg>