<svg xmlns="http://www.w3.org/2000/svg" viewBox="0 0 56 42"><defs><style>.cls-1{fill:#bf3019;}</style></defs><title>red-env</title><g id="Layer_2" data-name="Layer 2"><g id="texts"><path class="cls-1" d="M40.37,26.77,56,39.46V2L52.12,5.24,49,7.81,29.35,23.66a1.79,1.79,0,0,1-1.15.42,1.81,1.81,0,0,1-1.15-.42L7.4,7.81,4.1,5.24,0,2V39.46L15.86,26.77a1.53,1.53,0,0,1,2.28.42,2.17,2.17,0,0,1-.35,2.68L3,42H53.49L38.63,29.87a2.08,2.08,0,0,1-.44-2.6A1.44,1.44,0,0,1,40.37,26.77Z"/><polygon class="cls-1" points="10.39 4.66 10.39 4.66 28.22 19.29 46.06 4.66 46.06 4.66 48.8 2.58 52.16 0 48.8 0 46.06 0 46.06 0 10.39 0 10.39 0 7.64 0 4.28 0 7.64 2.58 10.39 4.66"/></g></g></svg>