<svg xmlns="http://www.w3.org/2000/svg" viewBox="0 0 112.77 160.01"><defs><style>.cls-1,.cls-3{fill:#fff;}.cls-2{fill:#5d9632;}.cls-3{stroke:#5d9632;stroke-linecap:round;stroke-linejoin:round;stroke-width:2px;}</style></defs><title>sign-holder</title><g id="Layer_2" data-name="Layer 2"><g id="texts"><path class="cls-1" d="M58.68,159a1.9,1.9,0,0,1-.83-.19,8.86,8.86,0,0,0-3.74-.93,5.74,5.74,0,0,0-.75,0l-.19,0a5.84,5.84,0,0,1-.83.08,2.36,2.36,0,0,1-1.38-.4,2.53,2.53,0,0,1-1-1.74,7.89,7.89,0,0,1,0-1.8c0-.22,0-.44,0-.66l.1-2.38,1.28-32.35L38.61,75.14a1,1,0,0,1,0-.19,7.38,7.38,0,0,1,0-1.07,6.76,6.76,0,0,1,6.74-6.36h.39a6.76,6.76,0,0,1,6.36,7l8.37,43.73a1,1,0,0,1,0,.22v.38L56,153.24a13.69,13.69,0,0,1,2.61,1.36l.19.13c.72.47,2.42,1.58,1.63,3.2A1.92,1.92,0,0,1,58.68,159Z"/><path class="cls-2" d="M45.28,68.52h.34A5.75,5.75,0,0,1,51,74.6l8.4,43.85v.38L54.87,153.9A13.5,13.5,0,0,1,58,155.43c.62.42,1.94,1.14,1.49,2.07a.91.91,0,0,1-1.22.43,9.86,9.86,0,0,0-4.17-1,6.76,6.76,0,0,0-.88.06,7,7,0,0,1-.89.1,1.38,1.38,0,0,1-.81-.22,1.54,1.54,0,0,1-.59-1.06,12.94,12.94,0,0,1,.07-2.27c0-.79.07-1.58.1-2.38l.23-5.73.28-7,.29-7.26.26-6.47.18-4.64.06-1.41h0v0L39.57,74.86a6.22,6.22,0,0,1,0-.92,5.75,5.75,0,0,1,5.74-5.42m0-2a7.76,7.76,0,0,0-7.73,7.31,8.2,8.2,0,0,0,0,1.22,2,2,0,0,0,.07.37l12.75,43.43,0,1.08-.18,4.64L50,127.8,49.91,131l-.13,3.32-.16,3.94-.16,4-.12,3-.11,2.87L49.12,151l0,1.13q0,.63-.05,1.25c0,.2,0,.4,0,.61a8.67,8.67,0,0,0,0,2,3.53,3.53,0,0,0,1.44,2.42,3.36,3.36,0,0,0,1.94.58,6.58,6.58,0,0,0,1-.09l.18,0a4.78,4.78,0,0,1,.62,0,7.84,7.84,0,0,1,3.3.83,2.91,2.91,0,0,0,3.89-1.36c.77-1.61.1-3.11-2-4.48l-.18-.12a14.1,14.1,0,0,0-2.08-1.16l4.34-33.53q0-.1,0-.19v-.38a2,2,0,0,0,0-.44L53,74.45a7.76,7.76,0,0,0-7.3-7.92Z"/><path class="cls-1" d="M81,41l-.41,0-26-3a6.27,6.27,0,0,1-.76-.14,5.6,5.6,0,1,1,2.8-10.85l22.55,5.83,26.74,2.71,2.88-3.09a1.73,1.73,0,0,1,2.26-.23,1.73,1.73,0,0,1,.41,2.41L109,38a1,1,0,0,1-1.57.08l-23.21.74A3.6,3.6,0,0,1,81,41Z"/><path class="cls-2" d="M55.21,27.76a4.61,4.61,0,0,1,1.15.15L79,33.76l27.46,2.79,0-.14a.68.68,0,0,1,.14-.24l2.88-3.09a.73.73,0,0,1,1.13.92l-2.45,3.45.19-.37-24.89.79A2.6,2.6,0,0,1,81,40l-.3,0-.39,0L54.69,36.94a5.05,5.05,0,0,1-.62-.12,4.6,4.6,0,0,1,1.15-9.06m0-2a6.6,6.6,0,0,0-1.65,13,7.08,7.08,0,0,0,.88.16l25.6,3,.39,0a4.58,4.58,0,0,0,4.4-2.11l22.26-.7.06,0a2,2,0,0,0,2.67-.55l2.45-3.45a2.73,2.73,0,0,0-4.22-3.44l-2.54,2.72L79.34,31.78,56.86,26a6.62,6.62,0,0,0-1.65-.21Z"/><path class="cls-1" d="M36.51,83.74c-7.23,0-11.73-4-11.73-10.35,0-3.88,7.15-17.68,16.49-35.31,2.89-5.46,5.39-10.17,6.73-13,.12-.26.66-1.95,1.08-3.36a1,1,0,0,1,1-.71H53.2a1,1,0,0,1,1,1.12,11.7,11.7,0,0,0,0,3.08h.14a1.08,1.08,0,0,1,1,.65c3.25,7.6-1.31,24.47-4.63,36.78-1.33,4.94-2.49,9.21-2.49,10.74C48.24,79.78,43.75,83.74,36.51,83.74Z"/><path class="cls-2" d="M53.2,22h0m0,0s-.35,2.91.22,4a.46.46,0,0,0,.45.21c.17,0,.35,0,.46,0s.1,0,.11,0c4.5,10.53-7.2,41.72-7.2,47.13,0,6.53-4.8,9.35-10.73,9.35s-10.73-2.82-10.73-9.35c0-5.54,18.46-38.12,23.13-47.86.21-.43,1.14-3.51,1.14-3.51H53.2m0-2H50.05a2,2,0,0,0-1.91,1.42c-.4,1.33-.92,3-1,3.26-1.32,2.75-3.81,7.46-6.7,12.9C30.67,56,23.78,69.28,23.78,73.39c0,7,4.88,11.35,12.73,11.35s12.73-4.35,12.73-11.35c0-1.4,1.19-5.81,2.45-10.48,3.36-12.46,8-29.52,4.59-37.44a2,2,0,0,0-1.18-1.12,14.22,14.22,0,0,1,.08-2,2,2,0,0,0-2-2.33Zm0,4h0Z"/><path class="cls-1" d="M51.51,21.57c-4.87,0-8.29-8-8.29-12.28a8.29,8.29,0,1,1,16.58,0C59.8,13.6,56.38,21.57,51.51,21.57Z"/><path class="cls-2" d="M51.51,2A7.29,7.29,0,0,1,58.8,9.29c0,4-3.26,11.28-7.29,11.28s-7.29-7.26-7.29-11.28A7.29,7.29,0,0,1,51.51,2m0-2a9.3,9.3,0,0,0-9.29,9.29c0,4.56,3.62,13.28,9.29,13.28S60.8,13.85,60.8,9.29A9.3,9.3,0,0,0,51.51,0Z"/><path class="cls-1" d="M8.78,157.69a3.24,3.24,0,0,1-2.17-1.28,4.6,4.6,0,0,0-.37-.36,7.51,7.51,0,0,0-2.73-1.46c-2-.54-2.8-1.61-2.43-3.18a6.58,6.58,0,0,1,.62-1.51c.08-.16.17-.32.24-.48.19-.4.37-.81.55-1.22l13.86-30.79,7.72-42.67,0-.11a7.27,7.27,0,0,1,.38-1,6.79,6.79,0,0,1,6.11-3.87,6.69,6.69,0,0,1,2.88.65,6.76,6.76,0,0,1,3.26,8.91L24.84,120.48l0,.13-.15.35,0,.09L7.46,151a14.93,14.93,0,0,1,3,4,1.92,1.92,0,0,1-.43,2.26A1.82,1.82,0,0,1,8.78,157.69Z"/><path class="cls-2" d="M30.59,70.77A5.75,5.75,0,0,1,35.79,79L23.88,120.2l-.15.35L6.21,151.14a15.25,15.25,0,0,1,3.34,4.23.91.91,0,0,1-.2,1.08.82.82,0,0,1-.57.24c-.72,0-1.42-1-1.91-1.42a8.54,8.54,0,0,0-3.1-1.65c-1-.28-2-.7-1.72-2a9.81,9.81,0,0,1,.79-1.79c.29-.63.57-1.27.86-1.9L6,142.81l2.91-6.46L12,129.56l2.74-6.1,2-4.4.61-1.35h0l.15-.35-.15.34,7.74-42.79a6.22,6.22,0,0,1,.32-.86,5.75,5.75,0,0,1,5.21-3.3m0-2a7.79,7.79,0,0,0-7,4.45,8.2,8.2,0,0,0-.43,1.14,2,2,0,0,0-.05.21l-7.7,42.55-.2.45-.3.68-.46,1-1.52,3.37-2.74,6.1-.8,1.78-2.25,5L4.19,142l-1.26,2.79-1.05,2.34-.29.66c-.18.41-.36.82-.55,1.22-.07.15-.14.29-.22.44a7.47,7.47,0,0,0-.71,1.74c-.23,1-.4,3.41,3.14,4.37a6.53,6.53,0,0,1,2.36,1.28c.08.07.17.17.27.28a4.09,4.09,0,0,0,2.89,1.59,2.81,2.81,0,0,0,1.91-.76,2.93,2.93,0,0,0,.65-3.45A15.18,15.18,0,0,0,8.7,150.8l16.76-29.26.09-.19.15-.35a2,2,0,0,0,.09-.25L37.67,79.67a7.75,7.75,0,0,0-7.08-10.91Z"/><path class="cls-1" d="M59.75,57.3a3.56,3.56,0,0,1-2.84-1.39l-16-20.7a6.16,6.16,0,0,1-.43-.64A5.6,5.6,0,1,1,50.22,29L61.36,48.49l19.46-9.06a1.68,1.68,0,0,1,.67-.16l4.23-.09a1.73,1.73,0,0,1,.3,3.43l-3.68.58L61.71,56.71a3.59,3.59,0,0,1-2,.58Z"/><path class="cls-2" d="M45.35,27.18a4.6,4.6,0,0,1,4,2.32L61,49.78l20.16-9.39.13-.06a.68.68,0,0,1,.27-.06l4.23-.09h0a.73.73,0,0,1,.11,1.45l-3.9.61.12-.08-.4.12.28,0L61.16,55.88a2.6,2.6,0,0,1-3.47-.58L57.45,55,41.72,34.6a5.06,5.06,0,0,1-.35-.53,4.6,4.6,0,0,1,4-6.89m0-2a6.6,6.6,0,0,0-5.73,9.88,7.09,7.09,0,0,0,.5.75L55.87,56.2l.24.31a4.6,4.6,0,0,0,6.14,1L82.71,44.14l3.47-.54a2.73,2.73,0,0,0-.42-5.42H85.7l-4.23.09a2.67,2.67,0,0,0-1.06.24l-.14.07L61.77,47.19,51.09,28.51a6.62,6.62,0,0,0-5.74-3.33Z"/><path class="cls-3" d="M50.61,63.88c-1.25,0-18.39-6.21-18.39-6.21l-6.44,7.95a62.9,62.9,0,0,0-6.62,23.05L15,116.12l-12.75,29,5.64,3,19.61-28.79,12-33,8.74,32.5-.5,32.25H57l4.75-33L53,68.52Z"/></g></g></svg>