<svg xmlns="http://www.w3.org/2000/svg" viewBox="0 0 668.02 208.76"><defs><style>.cls-1,.cls-10,.cls-5,.cls-9{fill:#fff;}.cls-1,.cls-10,.cls-2,.cls-4{stroke:#0080b1;}.cls-1,.cls-2,.cls-4,.cls-5{stroke-miterlimit:10;}.cls-1,.cls-10,.cls-2,.cls-5{stroke-width:2px;}.cls-2,.cls-4{fill:none;}.cls-3{fill:#0080b1;}.cls-5{stroke:#487fad;}.cls-6{fill:#487fad;}.cls-7{opacity:0.39;}.cls-8{opacity:0.2;}.cls-10{stroke-linecap:round;stroke-linejoin:round;}</style></defs><title>special-preview</title><g id="Layer_2" data-name="Layer 2"><g id="texts"><rect class="cls-1" x="543.72" y="34.42" width="63" height="75"/><line class="cls-2" x1="568.72" y1="49.42" x2="596.72" y2="49.42"/><line class="cls-2" x1="568.72" y1="60.42" x2="596.72" y2="60.42"/><line class="cls-2" x1="568.72" y1="72.42" x2="596.72" y2="72.42"/><line class="cls-2" x1="568.72" y1="84.42" x2="596.72" y2="84.42"/><line class="cls-2" x1="568.72" y1="95.42" x2="596.72" y2="95.42"/><rect class="cls-2" x="550.72" y="43.42" width="12" height="11"/><rect class="cls-2" x="550.72" y="58.42" width="12" height="12"/><rect class="cls-2" x="550.72" y="74.42" width="12" height="11"/><rect class="cls-2" x="550.72" y="89.42" width="12" height="11"/><polyline class="cls-2" points="551.2 49.21 557.05 52.85 562.53 43.54"/><polyline class="cls-2" points="551.2 64.54 557.05 68.18 562.53 58.87"/><polyline class="cls-2" points="551.2 79.87 557.05 83.52 562.53 74.21"/><polyline class="cls-2" points="551.2 95.21 557.05 98.85 562.53 89.54"/><path class="cls-3" d="M248,27.14a5.53,5.53,0,0,0,2.42,1.28c1.48.34,2.5-.18,2.73-1.21s-.26-1.66-1.62-2.51c-1.63-1-2.56-2.14-2.22-3.57.38-1.59,2.06-2.42,4.17-1.94a5.43,5.43,0,0,1,2.29,1l-.63,1a4.75,4.75,0,0,0-2-1c-1.49-.34-2.25.35-2.41,1-.23,1,.33,1.58,1.72,2.47,1.71,1.09,2.48,2.13,2.15,3.64s-1.93,2.67-4.58,2.05a6.31,6.31,0,0,1-2.7-1.33Z"/><path class="cls-3" d="M258.16,20.54a18.79,18.79,0,0,1,2.74.37,4.91,4.91,0,0,1,2.89,1.47,2.78,2.78,0,0,1,.54,2.34,3,3,0,0,1-1.28,2,4.91,4.91,0,0,1-3.62.44,5.39,5.39,0,0,1-1.13-.33l-.86,4.1L256,30.65Zm.37,5.24a5.2,5.2,0,0,0,1.16.35c1.73.36,2.93-.22,3.21-1.63s-.63-2.21-2.18-2.53a6.57,6.57,0,0,0-1.35-.17Z"/><path class="cls-3" d="M271.54,28.63c-1.73-.29-2.6-.44-4.33-.76l-.68,3.71c1.95.36,2.92.53,4.88.85l-.19,1.12c-2.54-.43-3.81-.65-6.35-1.12l1.92-10.29c2.36.44,3.54.65,5.91,1l-.19,1.12c-1.81-.3-2.71-.46-4.52-.79l-.59,3.25c1.72.31,2.59.47,4.31.76Z"/><path class="cls-3" d="M281.09,34.72a7.75,7.75,0,0,1-3.06.07c-3.2-.47-5.3-2.71-4.74-6.09.53-3.23,3.21-5,6.62-4.54a6.38,6.38,0,0,1,2.54.83L282,26a5.63,5.63,0,0,0-2.17-.75,4,4,0,0,0-5,3.61c-.4,2.53.93,4.42,3.68,4.82a6.25,6.25,0,0,0,2.44-.09Z"/><path class="cls-3" d="M285.67,25.11l-1.33,10.38-1.47-.19,1.37-10.38Z"/><path class="cls-3" d="M289.12,32.75c-.62,1.25-.93,1.88-1.56,3.13L286,35.71c2.05-4,3.06-6,5-10l1.72.19c1.07,4.32,1.62,6.48,2.78,10.8L294,36.59c-.36-1.36-.53-2-.88-3.4Zm3.8-.65c-.32-1.24-.47-1.87-.78-3.11-.18-.71-.27-1.34-.37-2h0c-.23.6-.48,1.21-.77,1.82l-1.43,2.89Z"/><path class="cls-3" d="M298.17,26.46l1.43.12-.79,9.3c1.94.16,2.91.24,4.85.38l-.08,1.13c-2.54-.18-3.81-.28-6.34-.51Z"/><path class="cls-3" d="M309.39,27.4a18.6,18.6,0,0,1,2.75-.06,4.88,4.88,0,0,1,3.07,1,2.79,2.79,0,0,1,.9,2.22,3,3,0,0,1-.94,2.2,4.88,4.88,0,0,1-3.49,1,5.32,5.32,0,0,1-1.17-.15l-.21,4.19-1.47-.08Zm1.17,5.12a5.15,5.15,0,0,0,1.2.17c1.75.08,2.85-.67,2.91-2.11s-1-2.09-2.54-2.16a6.51,6.51,0,0,0-1.36,0Z"/><path class="cls-3" d="M318.13,27.78a16.46,16.46,0,0,1,2.75-.15,4.84,4.84,0,0,1,3.19.9,2.57,2.57,0,0,1,.86,2,2.77,2.77,0,0,1-2.14,2.65v0a2.67,2.67,0,0,1,1.63,2.13,14.89,14.89,0,0,0,.85,2.88h-1.53a12,12,0,0,1-.73-2.51c-.32-1.44-.91-2-2.23-2.07l-1.37,0c0,1.81-.07,2.72-.11,4.53l-1.47,0Zm1.31,4.8,1.48,0c1.55,0,2.54-.75,2.56-1.95,0-1.35-1-2-2.53-2a6.18,6.18,0,0,0-1.42.09Z"/><path class="cls-3" d="M332.79,33.29c-1.75,0-2.63,0-4.38,0,0,1.51,0,2.26,0,3.77,2,0,3,0,4.93,0,0,.45,0,.68,0,1.13-2.57,0-3.85.05-6.42,0l0-10.47c2.39,0,3.59,0,6,0l0,1.13c-1.83,0-2.74,0-4.57,0,0,1.32,0,2,0,3.31,1.75,0,2.62,0,4.36,0Z"/><path class="cls-3" d="M338,38.08c-1.62-4.14-2.4-6.21-3.93-10.37l1.54,0c.74,2,1.12,3.07,1.88,5.11.53,1.4,1,2.66,1.33,3.87h0c.28-1.22.71-2.56,1.16-3.94.68-2.1,1-3.14,1.68-5.24l1.53-.07c-1.39,4.26-2.1,6.38-3.59,10.62Z"/><path class="cls-3" d="M345.8,27.27l.58,10.45-1.47.08-.53-10.45Z"/><path class="cls-3" d="M354.47,32.26c-1.75.14-2.62.2-4.37.32l.25,3.77c2-.13,3-.21,4.92-.37l.09,1.13c-2.56.21-3.85.3-6.41.46l-.65-10.45c2.39-.15,3.58-.24,6-.43l.09,1.13c-1.82.15-2.73.21-4.56.34l.22,3.3c1.74-.12,2.61-.18,4.35-.32Z"/><path class="cls-3" d="M359.29,36.77c-1.54-4.06-2.3-6.1-3.77-10.17l1.51-.13c.71,2.06,1.07,3.09,1.8,5.15.45,1.27.88,2.54,1.18,3.52h0c.09-1.05.32-2.32.57-3.71.39-2.16.58-3.24,1-5.4l1.49-.16c.76,2.05,1.15,3.08,1.93,5.13.45,1.2.9,2.4,1.19,3.48h0c.1-1.17.29-2.36.49-3.7.35-2.17.51-3.25.84-5.42l1.45-.18c-.72,4.31-1.11,6.47-1.91,10.78l-1.54.18c-.82-2.1-1.22-3.16-2-5.26a28.72,28.72,0,0,1-1.09-3.32h0a29.45,29.45,0,0,1-.51,3.49c-.42,2.23-.63,3.35-1.06,5.59Z"/><path class="cls-3" d="M371.27,34.64a1,1,0,0,1,.86-1.08,1,1,0,1,1,.25,1.91A1,1,0,0,1,371.27,34.64Zm.13-2.26c-.48-2.94-.72-4.42-1.19-7.36l1.57-.21c.31,3,.46,4.45.76,7.42Z"/><path class="cls-3" d="M375.14,34.11A1,1,0,0,1,376,33a1,1,0,1,1,.27,1.91A1,1,0,0,1,375.14,34.11Zm.11-2.26c-.51-2.94-.77-4.41-1.28-7.35l1.57-.23c.34,3,.51,4.45.85,7.41Z"/><path class="cls-4" d="M444.95,24.43c-77.63,26.13-157.11,26.12-234.73,0l8.23-23c72.29,24.25,146,24.25,218.27,0Z"/><path class="cls-5" d="M297.93,64S257.44,65.2,244,66.3c-16,1.32-46.47,8.81-46.47,21.33,0,18.14,13.58,31.11,24.3,31.11,65.88,0,249.6-.56,249.6-.56s7.67,1.63,14.25-8.57,21.73-31.28,10.37-39c0,0-41.64-28.81-84.93-28.81,0,0-25.8-.89-37.21-1C356,40.58,342.79,40.8,297.93,64Z"/><path class="cls-5" d="M489.29,66.35s-4.2,2.14-4.2,13.39,11.52,11.57,11.52,11.57"/><path class="cls-5" d="M470.72,97.88c0-1.25-.37-1.46.88-1.46h24.81c1.25,0,2.25.61,2.25,1.86l-2.25,13.21a2,2,0,0,1-2.26,1.93H471.6c-1.25,0-.88-.76-.88-2Z"/><rect class="cls-5" x="280.72" y="111.42" width="131" height="7"/><ellipse class="cls-5" cx="218.86" cy="78.92" rx="16.59" ry="2.83" transform="translate(-13.71 72.68) rotate(-18.29)"/><path class="cls-5" d="M491.31,76.37a8.39,8.39,0,0,1,3.32-6.71c.91.59,1.41.93,1.41.93,4.53,3.08,4.84,8.29,3.16,14.08A8.17,8.17,0,0,1,491.31,76.37Z"/><circle class="cls-5" cx="433.22" cy="105.9" r="28.1"/><circle class="cls-5" cx="433.22" cy="105.9" r="18.89"/><circle class="cls-5" cx="257.29" cy="105.9" r="28.1"/><circle class="cls-5" cx="257.29" cy="105.9" r="18.89"/><circle class="cls-5" cx="257.29" cy="105.9" r="4.58"/><rect class="cls-5" x="411.72" y="48.42" width="4" height="21"/><polygon class="cls-5" points="313.96 65.52 316.02 69.53 352.19 51.22 350.13 47.2 313.96 65.52"/><path class="cls-5" d="M380.47,50.38c47.48,0,56.9,4.81,60.49,6.71,0,0-.11,0-.11,0-.08.26-.83,1.12-3.06,2-.88.34-1.8,1-2.72,1.39-7.36,2.95-16.54,6.94-35.45,6.94H327.38c-1.07-1-9.55-1-18.56-3,11.29-5.73,20.21-10.08,27.61-12.79,16.23-.69,30.89-1.19,43.61-1.19h.68M380,46.37c-12.19,0-26.82-.05-44.39.7C326,50.53,314,56.42,297.93,64.42h-.21v0h1v.71h0v-.74h0v0h0v0h-.79c12.81,5,29.32,7,29.32,7h72.36c22,0,31.29-5.07,39.56-8.27s5.24-8.52,4-9.15c-3.7-1.91-12.09-7.64-63.18-7.64Z"/><path class="cls-5" d="M385.89,80.42a2.05,2.05,0,0,0,2.26,2h11.28a2.05,2.05,0,0,0,2.25-2h0a2.05,2.05,0,0,0-2.25-2H388.15a2.05,2.05,0,0,0-2.26,2Z"/><path class="cls-5" d="M4.51,119.38A5.53,5.53,0,0,0,1,124.7l0,.62a5.43,5.43,0,0,0,4,5C4.71,126.74,4.54,122.88,4.51,119.38Z"/><path class="cls-5" d="M127.43,72c16.57,3.1,44.11,26.47,44.11,26.47,54.4,0,59.66,13.95,61,21.95h.18v20H6.29s-5.24-22.07,0-26C78.27,60.91,119.62,70.54,127.43,72Z"/><path class="cls-5" d="M234.72,135.45c0-1.12-1.61-3-2.37-3H3.92c-.75,0-1.2,1.91-1.2,3v3c0,1.12.45,2,1.2,2H232.36c.75,0,2.37-.89,2.37-2Z"/><path class="cls-5" d="M162.32,99.42H39.86S75.91,72.51,120.1,75C120.1,75,138.62,74.42,162.32,99.42Z"/><rect class="cls-5" x="96.72" y="74.42" width="9" height="26"/><path class="cls-5" d="M211.39,140.42c0-15-9.32-20.82-20.83-20.82s-20.83,5.82-20.83,20.82Z"/><circle class="cls-5" cx="190.69" cy="141.72" r="16.32"/><circle class="cls-5" cx="190.69" cy="141.72" r="10.97"/><path class="cls-5" d="M62.16,140.42c0-15-9.32-20.82-20.83-20.82s-20.83,5.82-20.83,20.82Z"/><circle class="cls-5" cx="41.46" cy="141.72" r="16.32"/><circle class="cls-5" cx="41.46" cy="141.72" r="10.97"/><rect class="cls-5" x="105.72" y="104.42" width="20" height="7" rx="2.82" ry="2.82"/><path class="cls-5" d="M225.39,116.17a4.71,4.71,0,0,1,3.38-1.69c2.53,3.21,3.95,6.35,3.95,8.69h0v5.33a8,8,0,0,1-4-2.1C224.84,123.35,223.36,118.77,225.39,116.17Z"/><circle class="cls-5" cx="180.64" cy="177.55" r="19.4"/><circle class="cls-5" cx="180.64" cy="177.55" r="15.6"/><circle class="cls-5" cx="180.64" cy="177.55" r="9.19"/><path class="cls-6" d="M180.22,192.7a.51.51,0,0,1-.5-.57V163a.5.5,0,1,1,1,0v29.11A.51.51,0,0,1,180.22,192.7Z"/><path class="cls-6" d="M194.5,182.57l-.17,0-27.74-8.85a.57.57,0,1,1,.35-1.08l27.74,8.85a.57.57,0,0,1-.17,1.11Z"/><path class="cls-6" d="M166.77,182.57a.57.57,0,0,1-.17-1.11l27.74-8.85a.57.57,0,1,1,.35,1.08l-27.74,8.85Z"/><path class="cls-6" d="M172,189.85a.57.57,0,0,1-.46-.91l17.31-23.41a.57.57,0,0,1,.91.68l-17.31,23.41A.57.57,0,0,1,172,189.85Z"/><path class="cls-6" d="M189.29,189.85a.57.57,0,0,1-.46-.23l-17.31-23.41a.57.57,0,0,1,.91-.68l17.31,23.41a.57.57,0,0,1-.46.91Z"/><circle class="cls-5" cx="180.64" cy="177.55" r="3.73"/><circle class="cls-5" cx="341.74" cy="175.34" r="21.61"/><circle class="cls-5" cx="341.74" cy="175.34" r="17.37"/><circle class="cls-5" cx="341.74" cy="175.34" r="10.23"/><path class="cls-6" d="M341.72,192.22c-.35,0-1-.28-1-.63V159.17c0-.35.65-.63,1-.63s1,.28,1,.63v32.42C342.72,191.94,342.07,192.22,341.72,192.22Z"/><path class="cls-6" d="M357.18,180.94a.63.63,0,0,1-.19,0l-30.88-9.85a.63.63,0,1,1,.38-1.21l30.88,9.85a.63.63,0,0,1-.19,1.24Z"/><path class="cls-6" d="M326.3,180.94a.63.63,0,0,1-.19-1.24L357,169.85a.63.63,0,1,1,.38,1.21l-30.88,9.85A.63.63,0,0,1,326.3,180.94Z"/><path class="cls-6" d="M332.1,189a.63.63,0,0,1-.51-1L350.87,162a.63.63,0,0,1,1,.75l-19.27,26.07A.63.63,0,0,1,332.1,189Z"/><path class="cls-6" d="M351.38,189a.63.63,0,0,1-.51-.26L331.6,162.72a.63.63,0,0,1,1-.75L351.89,188a.63.63,0,0,1-.51,1Z"/><circle class="cls-5" cx="341.74" cy="175.34" r="4.15"/><path class="cls-5" d="M152.19,149.19a8.76,8.76,0,0,0-3.69,9s7.75-.62,17.71-5.54l7.11-3.41-4.64-4.45-12.88,3.41Z"/><path class="cls-5" d="M142.72,185.42h16.57s-3.79-26.62,20.37-28.61,23.4,26.61,23.4,26.61H315.31s-2.84-31.66,26.43-31.66a25.55,25.55,0,0,1,23,14.21s2.56,4.13,2.56,14.92c0,0,7.77-.09,9.57-6.24l-1.71-23.29-1.23-2.27-.19-2.84s1-3.5-5-11.56l-6.54-8.81s-11-8.62-17.05-19.42c0,0,.76-1.14-3-1.33a68.67,68.67,0,0,1-10.42-1c-5.12-.85-26.43-1.89-41.4-2s-26.05,1.14-44,5.12-40.45,14.59-40.45,14.59-13,6.25-20.65,10.89a122.11,122.11,0,0,1-23.49,10.42c-6.35,2.08-9.85,5.12-9.57,6.06s4.45,1.23,9-.47,9-2.84,8.29-.85a20,20,0,0,1-3.32,4.74,54.54,54.54,0,0,1-17.8,5.54s-5.68,5.64-5.68,11.51Z"/><path class="cls-5" d="M207,138.49s-3.68,21.94,0,39.94H310.1s-2-31.13,27.49-31.13c0,0,7.24-16.29-2.48-21.85"/><line class="cls-5" x1="262.72" y1="178.42" x2="262.72" y2="134.42"/><path class="cls-5" d="M345.15,106.47l-.57,3.51S347.9,117.64,361,127l1.23-1.14S351,117,345.15,106.47Z"/><path class="cls-5" d="M373.76,146.25S356,140.1,353.87,136s8.34-10.14,8.34-10.14l8.07,11S374.14,141.9,373.76,146.25Z"/><path class="cls-5" d="M363.9,128.19s-3.52,4.46-1.69,7.55,11.17,7.2,11.17,7.2a28.84,28.84,0,0,0-4.05-7.38Z"/><path class="cls-5" d="M366.94,132.33a14.71,14.71,0,0,0-.19,7.18s-4.57-2.32-5-4.84.71-4.43,2.11-6.47Z"/><line class="cls-5" x1="243.7" y1="142.18" x2="257.15" y2="141.52"/><line class="cls-5" x1="318.94" y1="135.46" x2="332.39" y2="134.8"/><rect class="cls-5" x="254.78" y="118.37" width="26.05" height="3.41" transform="translate(132.81 380.69) rotate(-86.77)"/><rect class="cls-5" x="313.77" y="116.9" width="14.08" height="3.41" transform="translate(184.3 432.21) rotate(-86.77)"/><rect class="cls-5" x="204.52" y="128.76" width="14.08" height="3.41" transform="translate(69.36 334.33) rotate(-86.77)"/><path class="cls-5" d="M289.1,108.42a115.28,115.28,0,0,1,31.15,4,65.5,65.5,0,0,1,13.81,5.39l-1.53,4.72c-8.35,1-39.45,4.92-65.89,7.93-25.12,2.86-60.71,4.91-72.91,5.57a137.7,137.7,0,0,1,24-12.65l3.93-1.59c12.33-5,25.08-10.18,54.73-12.81,4.27-.38,8.53-.55,12.68-.55h-.38m.38-3.46c-4.11,0-8.44.18-13,.58-33.35,3-46,9.22-59.62,14.65s-29.3,15.16-29.3,17.18,2.4,2.27,2.4,2.27S236,137.38,267,133.84s68.08-8.21,68.08-8.21l3-9.35c-5.89-4-23-11.32-49-11.32Z"/><path class="cls-5" d="M428.13,95.42H540.52c17.35,0,29.63,35,39.23,35h24.34c12.72,0,23.64,10.87,23.64,23.59v15c0,4.45-4.22,7.44-8.67,7.44H397.5c-4.45,0-7.77-3-7.77-7.44V134.44C389.72,115.32,414.49,95.42,428.13,95.42Z"/><path class="cls-5" d="M389.65,147.42s7.07-.13,7.07,5.36v3.08c0,3.51-4.44,4.56-7.07,4.56h.07v-13Z"/><path class="cls-5" d="M618.72,146.65v-9.21a8.29,8.29,0,0,1,.07-1.68A22.88,22.88,0,0,1,627.72,154v.83a3,3,0,0,1-.81.09A8.2,8.2,0,0,1,618.72,146.65Z"/><path class="cls-5" d="M619.05,176.42H397.5c-4.45,0-7.77-3-7.77-7.44v-3.56h238V169C627.72,173.44,623.5,176.42,619.05,176.42Z"/><path class="cls-5" d="M611.74,176.42c0-15-10.47-23.39-23.39-23.39S565,161.42,565,176.42Z"/><circle class="cls-5" cx="588.49" cy="178.22" r="18.32"/><circle class="cls-5" cx="588.5" cy="178.21" r="12.32"/><path class="cls-5" d="M458.81,176.42c0-15-10.47-23.39-23.39-23.39S412,161.42,412,176.42Z"/><circle class="cls-5" cx="435.57" cy="178.22" r="18.32"/><circle class="cls-5" cx="435.57" cy="178.21" r="12.32"/><path class="cls-5" d="M509.44,142.92c0,1.09.83,2.5,1.84,2.5h13c1,0,1.84-1.41,1.84-2.5h0c0-1.09-.82-2.5-1.84-2.5h-13c-1,0-1.84,1.41-1.84,2.5Z"/><rect class="cls-5" x="453.72" y="140.42" width="17" height="4" rx="1.84" ry="1.84"/><path class="cls-5" d="M564.72,127.4c0-2.12-2.11-3.78-4.23-3.78l-14.71-.09c-2.12,0-3.06,1.66-3.06,3.78v5.26c0,2.12.8,3.39,2.92,3.39l15.1.09c2.12,0,4-1.27,4-3.39Z"/><line class="cls-5" x1="451.5" y1="130.83" x2="438.68" y2="152.85"/><line class="cls-5" x1="504.72" y1="132.42" x2="504.72" y2="165.42"/><line class="cls-5" x1="495.72" y1="132.42" x2="515.72" y2="132.42"/><circle class="cls-5" cx="435.57" cy="178.22" r="8.44"/><circle class="cls-5" cx="435.57" cy="178.22" r="5.66"/><circle class="cls-5" cx="588.35" cy="178.22" r="8.44"/><circle class="cls-5" cx="588.35" cy="178.22" r="5.66"/><circle class="cls-5" cx="435.57" cy="178.22" r="2.3"/><circle class="cls-5" cx="588.35" cy="178.21" r="2.3"/><rect class="cls-5" x="450.72" y="100.42" width="50" height="31" rx="5.53" ry="5.53"/><path class="cls-5" d="M502.72,127.29a7.13,7.13,0,0,1-7.13,7.13H456.85a7.13,7.13,0,0,1-7.13-7.13V106.56a7.13,7.13,0,0,1,7.13-7.13h38.73a7.13,7.13,0,0,1,7.13,7.13Zm-3-20.95a3.92,3.92,0,0,0-3.92-3.92H456.64a3.92,3.92,0,0,0-3.92,3.92V126.5a3.92,3.92,0,0,0,3.92,3.92H495.8a3.92,3.92,0,0,0,3.92-3.92Z"/><path class="cls-5" d="M396.81,126.56c-.68,3,2.47,5.87,5.53,5.87h36.85c3.05,0,5.54-2.07,5.54-5.12V107c0-3.05-2.49-6.61-5.54-6.61H424.44C412.93,100.42,398.77,118,396.81,126.56Z"/><path class="cls-5" d="M439.18,133.42H402.33a7.59,7.59,0,0,1-6-2.63,5.24,5.24,0,0,1-1.14-4.56h0c1.07-4.7,5.25-11.21,10.65-16.76,3.69-3.8,11-10,18.55-10h14.74a7.91,7.91,0,0,1,7.54,7.61V127.3C446.72,131.25,443.13,133.42,439.18,133.42Zm-14.74-31c-4.65,0-10.57,3.39-16.25,9.23-4.94,5.08-8.88,11.26-9.82,15.37h0a2.08,2.08,0,0,0,.52,1.87,4.54,4.54,0,0,0,3.44,1.54h36.85c2.16,0,3.54-1,3.54-3.12V107c0-2.23-1.48-4.61-3.54-4.61Z"/><path class="cls-5" d="M510.72,127.3c0,3.05.95,5.12,4,5.12H557.1a5.64,5.64,0,0,0,5.53-5.87c0-9.33-14.13-26.13-24-26.13h-24c-3.05,0-4,3.56-4,6.61Z"/><path class="cls-5" d="M557.1,133.42H514.72c-3.91,0-6-2.17-6-6.12V107c0-3.75,1.82-7.61,6-7.61h24c10.78,0,25.56,17.22,25.56,27.13A6.76,6.76,0,0,1,557.1,133.42Zm-42.38-31c-2,0-3,2.38-3,4.61V127.3c0,2.18.86,3.12,3,3.12H557.1a3.71,3.71,0,0,0,3.92-3.87c0-8.33-13.36-24.13-22.35-24.13Z"/><rect class="cls-5" x="210.76" y="129.39" width="54.23" height="22.43" transform="translate(-37.4 116.57) rotate(-25.6)"/><g class="cls-7"><path class="cls-6" d="M219.49,152.43a4.9,4.9,0,0,0,3.43-.27c.58-.28,1.35-1,1-1.78-.62-1.28-5.34.58-7-2.81-1.16-2.41.45-4.91,2.73-6a6.4,6.4,0,0,1,4.86-.58l-.55,3a5,5,0,0,0-3,.38c-.6.29-1.36,1-1,1.78.65,1.35,5.35-.65,7,2.79,1,2.11-.08,4.75-2.72,6a6.88,6.88,0,0,1-5.46.47Z"/><path class="cls-6" d="M229.06,137.3l3.44-1.65,7.56,11.43-3,1.44-1.49-2.44-3.82,1.83v3.16l-3.2,1.53Zm5.13,6.49-1.38-2.27c-.44-.74-1.11-2.06-1.11-2.06l0,0s.14,1.57.14,2.52l0,2.94Z"/><path class="cls-6" d="M237.95,133l3-1.44,2.75,10.58,5-2.39.72,2.81-8,3.82Z"/><path class="cls-6" d="M247.54,128.45l7.65-3.67.73,2.81-4.67,2.24.64,2.43,3.72-1.78.72,2.81-3.72,1.78.66,2.52,4.91-2.35.73,2.81L251,141.84Z"/></g><rect class="cls-5" x="251.84" y="114.67" width="54.23" height="22.43" transform="translate(47.02 -73.78) rotate(16.44)"/><g class="cls-7"><path class="cls-6" d="M257.38,122.36a4.9,4.9,0,0,0,2.73,2.09c.62.18,1.65.19,1.9-.69.4-1.37-4.36-3.15-3.29-6.75.76-2.57,3.62-3.35,6-2.63a6.4,6.4,0,0,1,4,2.82l-2.4,1.84a5,5,0,0,0-2.51-1.75c-.64-.19-1.7-.14-1.94.66-.42,1.44,4.41,3.1,3.33,6.76-.66,2.24-3.24,3.48-6,2.65a6.88,6.88,0,0,1-4.37-3.31Z"/><path class="cls-6" d="M274.62,117.53l3.66,1.08-2,13.55-3.19-.94.53-2.81-4.06-1.2-2.12,2.34-3.4-1Zm-.53,8.25.49-2.61c.17-.84.55-2.27.55-2.27h0s-.95,1.26-1.59,2l-2,2.17Z"/><path class="cls-6" d="M284.07,120.32l3.19.94-5,9.7,5.32,1.57-1.35,2.57-8.48-2.5Z"/><path class="cls-6" d="M294.27,123.33l8.14,2.4-1.33,2.58-5-1.47L295,129.07l4,1.17-1.35,2.57-4-1.17L292.4,134l5.23,1.54-1.33,2.58-8.41-2.48Z"/></g><rect class="cls-5" x="442.2" y="108.16" width="40.72" height="27.76" transform="translate(-15.55 105.63) rotate(-12.81)"/><g class="cls-8"><path class="cls-6" d="M449.13,128a5.92,5.92,0,0,0,3.66.68c.7-.16,1.4-.6,1.21-1.44-.35-1.56-6.72-.26-7.67-4.45a4.34,4.34,0,0,1,2.78-5l-.42-1.83,2.12-.48.4,1.77a6.25,6.25,0,0,1,3.91.71l-.81,3.12a5.45,5.45,0,0,0-3.36-.53c-.7.16-1.41.65-1.23,1.43.38,1.66,6.68.1,7.66,4.41a4.39,4.39,0,0,1-2.93,5.14l.4,1.77-2.12.48-.4-1.77a7.22,7.22,0,0,1-4.41-1Z"/></g><g class="cls-8"><path class="cls-6" d="M459.9,125.54a5.92,5.92,0,0,0,3.66.68c.7-.16,1.4-.6,1.21-1.44-.35-1.56-6.72-.26-7.67-4.45a4.34,4.34,0,0,1,2.78-5l-.42-1.83,2.12-.48.4,1.77a6.25,6.25,0,0,1,3.91.71l-.81,3.12a5.45,5.45,0,0,0-3.36-.53c-.7.16-1.41.65-1.23,1.43.38,1.66,6.68.1,7.66,4.41a4.39,4.39,0,0,1-2.93,5.14l.4,1.77-2.12.48-.4-1.77a7.22,7.22,0,0,1-4.41-1Z"/></g><g class="cls-8"><path class="cls-6" d="M471.24,123a5.92,5.92,0,0,0,3.66.68c.7-.16,1.4-.6,1.21-1.44-.35-1.56-6.72-.26-7.67-4.45a4.34,4.34,0,0,1,2.78-5l-.42-1.83,2.12-.48.4,1.77a6.25,6.25,0,0,1,3.91.71l-.81,3.12a5.45,5.45,0,0,0-3.36-.53c-.7.16-1.41.65-1.23,1.43.38,1.66,6.68.1,7.66,4.41a4.39,4.39,0,0,1-2.93,5.14l.4,1.77-2.12.48-.4-1.77a7.22,7.22,0,0,1-4.41-1Z"/></g><rect class="cls-5" x="481.51" y="118.32" width="40.72" height="27.76" transform="translate(71.12 -157.3) rotate(19.15)"/><g class="cls-8"><path class="cls-6" d="M487.33,130.14a5.92,5.92,0,0,0,2.74,2.52c.68.24,1.51.23,1.79-.58.52-1.51-5.57-3.77-4.16-7.83a4.34,4.34,0,0,1,5-2.77l.62-1.77,2.06.71-.6,1.72a6.25,6.25,0,0,1,2.94,2.67L495.4,127a5.45,5.45,0,0,0-2.57-2.23c-.68-.24-1.54-.2-1.8.56-.56,1.6,5.62,3.62,4.17,7.79a4.39,4.39,0,0,1-5.21,2.8l-.6,1.72-2.06-.71.6-1.72a7.22,7.22,0,0,1-3.21-3.19Z"/></g><g class="cls-8"><path class="cls-6" d="M497.75,133.76a5.92,5.92,0,0,0,2.74,2.52c.68.24,1.51.23,1.79-.58.52-1.51-5.57-3.77-4.16-7.83a4.34,4.34,0,0,1,5-2.77l.62-1.77,2.06.71-.6,1.72a6.25,6.25,0,0,1,2.94,2.67l-2.33,2.22a5.45,5.45,0,0,0-2.57-2.23c-.68-.24-1.54-.2-1.8.56-.56,1.6,5.62,3.62,4.17,7.79a4.39,4.39,0,0,1-5.21,2.8l-.6,1.72-2.06-.71.6-1.72a7.22,7.22,0,0,1-3.21-3.19Z"/></g><g class="cls-8"><path class="cls-6" d="M508.75,137.57a5.92,5.92,0,0,0,2.74,2.52c.68.24,1.51.23,1.79-.58.52-1.51-5.57-3.77-4.16-7.83a4.34,4.34,0,0,1,5-2.77l.62-1.77,2.06.71-.6,1.72a6.25,6.25,0,0,1,2.94,2.67l-2.33,2.22a5.45,5.45,0,0,0-2.57-2.23c-.68-.24-1.54-.2-1.8.56-.56,1.6,5.62,3.62,4.17,7.79a4.39,4.39,0,0,1-5.21,2.8l-.6,1.72-2.06-.71.6-1.72a7.22,7.22,0,0,1-3.21-3.19Z"/></g><polygon class="cls-5" points="315.48 102.42 274.77 102.42 280.58 74.42 321.29 74.42 315.48 102.42"/><g class="cls-8"><path class="cls-6" d="M283.12,91.05a5.92,5.92,0,0,0,3.42,1.48c.72,0,1.5-.28,1.5-1.14,0-1.6-6.31-1.74-6.31-6,0-2.24,1-3.84,4-4.26V79.42h2V81a8.1,8.1,0,0,1,3.57,1.56l-1.52,2.86a5.56,5.56,0,0,0-3.18-1.26c-.72,0-1.53.32-1.53,1.12,0,1.7,6.58,1.58,6.58,6a4.83,4.83,0,0,1-3.91,4.36v1.75h-2V95.67a6.6,6.6,0,0,1-4.26-2Z"/></g><g class="cls-8"><path class="cls-6" d="M294.16,91.05a5.92,5.92,0,0,0,3.42,1.48c.72,0,1.5-.28,1.5-1.14,0-1.6-6.33-1.74-6.33-6,0-2.24,1-3.84,4-4.26V79.42h2V81a8.23,8.23,0,0,1,3.58,1.56l-1.52,2.86a5.54,5.54,0,0,0-3.18-1.26c-.72,0-1.53.32-1.53,1.12,0,1.7,6.56,1.58,6.56,6a4.85,4.85,0,0,1-3.93,4.36v1.75h-2V95.67a6.52,6.52,0,0,1-4.24-2Z"/></g><g class="cls-8"><path class="cls-6" d="M305.79,91.05a5.92,5.92,0,0,0,3.42,1.48c.72,0,1.5-.28,1.5-1.14,0-1.6-6.65-1.74-6.65-6a4.4,4.4,0,0,1,3.66-4.26V79.42h2V81c3,.28,3.9,1.56,3.9,1.56l-1.36,2.86a5.17,5.17,0,0,0-3.1-1.26c-.72,0-1.49.32-1.49,1.12,0,1.7,6.27,1.58,6.27,6,0,2.12-1.23,4-4.23,4.36v1.75h-2V95.67a10.39,10.39,0,0,1-3.92-2Z"/></g><line class="cls-5" x1="321.29" y1="74.35" x2="327.51" y2="103.7"/><line class="cls-5" x1="222.3" y1="11.87" x2="206.97" y2="0.81"/><line class="cls-5" x1="431.99" y1="11.87" x2="447.32" y2="0.81"/><path class="cls-9" d="M635,207.76a1.93,1.93,0,0,1-1.72-1.08c-.78-1.63.91-2.73,1.63-3.2l.19-.13a13.72,13.72,0,0,1,2.61-1.36l-4.44-34.28,0-.48-1.6-27.82a6.75,6.75,0,0,1,6.35-7.13h.39a6.75,6.75,0,0,1,6.74,6.36,7.21,7.21,0,0,1,0,1.07l-2.83,27.67,1.29,32.45.1,2.38c0,.21,0,.43,0,.65a7.82,7.82,0,0,1,0,1.8,2.52,2.52,0,0,1-1,1.74,2.35,2.35,0,0,1-1.38.4,5.83,5.83,0,0,1-.83-.08l-.19,0a5.74,5.74,0,0,0-.75,0,8.85,8.85,0,0,0-3.74.93A1.89,1.89,0,0,1,635,207.76Z"/><path class="cls-3" d="M638.41,133.27a5.75,5.75,0,0,1,5.74,5.42,6.22,6.22,0,0,1,0,.92l-2.84,27.73v0l.06,1.42.18,4.64.26,6.47.29,7.26.28,7,.23,5.73c0,.79.07,1.58.1,2.38a12.94,12.94,0,0,1,.07,2.27,1.54,1.54,0,0,1-.59,1.06,1.38,1.38,0,0,1-.81.22,7,7,0,0,1-.89-.1,6.76,6.76,0,0,0-.88-.06,9.86,9.86,0,0,0-4.17,1,.91.91,0,0,1-1.22-.43c-.45-.93.87-1.65,1.49-2.07a13.5,13.5,0,0,1,3.15-1.53l-4.54-35.06v-.38l-1.6-27.85a5.75,5.75,0,0,1,5.41-6.07h.34m0-2H638a7.76,7.76,0,0,0-7.29,8.18l1.6,27.83v.36q0,.1,0,.19l4.34,33.53a14.1,14.1,0,0,0-2.08,1.16l-.18.12c-2.1,1.36-2.77,2.87-2,4.48a2.91,2.91,0,0,0,3.89,1.36,7.84,7.84,0,0,1,3.3-.83,4.77,4.77,0,0,1,.62,0l.18,0a6.57,6.57,0,0,0,1,.09,3.36,3.36,0,0,0,1.94-.58,3.53,3.53,0,0,0,1.44-2.42,8.67,8.67,0,0,0,0-2c0-.21,0-.41,0-.61q0-.62-.05-1.25l0-1.13-.1-2.55-.13-3.18-.28-7-.25-6.22,0-1-.26-6.47-.09-2.32-.09-2.32,0-1.12v-.15l2.83-27.59a8.22,8.22,0,0,0,0-1.24,7.76,7.76,0,0,0-7.73-7.31Z"/><path class="cls-9" d="M624.94,119a3.58,3.58,0,0,1-2-.58l-20.63-13.53-3.68-.58a1.73,1.73,0,0,1,.27-3.43l4.26.09a1.68,1.68,0,0,1,.67.15l19.47,9.07,11.14-19.48a5.6,5.6,0,1,1,9.73,5.56,6,6,0,0,1-.42.64l-16,20.7A3.57,3.57,0,0,1,624.94,119Z"/><path class="cls-3" d="M639.33,88.93a4.6,4.6,0,0,1,4,6.89,5.06,5.06,0,0,1-.35.53l-15.74,20.38L627,117a2.6,2.6,0,0,1-3.47.58L602.71,104l.28,0-.4-.12.12.08-3.9-.61a.73.73,0,0,1,.11-1.45h0l4.23.09a.68.68,0,0,1,.27.06l.13.06,20.16,9.39,11.6-20.28a4.6,4.6,0,0,1,4-2.32m0-2h0a6.62,6.62,0,0,0-5.74,3.33l-10.68,18.68-18.5-8.61-.13-.06a2.68,2.68,0,0,0-1.07-.25L599,99.93h-.06a2.73,2.73,0,0,0-.42,5.42l3.47.54,20.45,13.41a4.6,4.6,0,0,0,6.15-1l.24-.31,15.74-20.38a7.13,7.13,0,0,0,.51-.76,6.6,6.6,0,0,0-5.73-9.88Z"/><polyline class="cls-10" points="632.45 94.08 626.54 99.79 634.67 106.67"/><path class="cls-9" d="M643.18,146.49c-7.24,0-11.73-4-11.73-10.35,0-5,3.17-36.5,7.88-47.53a1.08,1.08,0,0,1,1-.65h.14a11.93,11.93,0,0,0,0-3.08,1,1,0,0,1,1-1.12h3.14a1,1,0,0,1,1,.71c.43,1.42,1,3.1,1.09,3.37,4.82,10,8.23,43.11,8.23,48.29C654.9,142.53,650.41,146.49,643.18,146.49Z"/><path class="cls-3" d="M644.64,84.78s.93,3.07,1.14,3.51c4.67,9.74,8.13,42.32,8.13,47.86,0,6.53-4.8,9.35-10.73,9.35s-10.73-2.82-10.73-9.35c0-5.41,3.3-36.6,7.8-47.13,0,0,.05,0,.11,0s.29,0,.46,0a.46.46,0,0,0,.45-.21c.57-1.11.22-4,.22-4h3.14m0-2h-3.14a2,2,0,0,0-2,2.24,13.82,13.82,0,0,1,.08,2.09,2,2,0,0,0-1.18,1.12c-4.76,11.14-8,42.88-8,47.92,0,7,4.88,11.35,12.73,11.35s12.73-4.35,12.73-11.35c0-5.21-3.45-38.55-8.33-48.72-.11-.27-.63-1.89-1-3.22a2,2,0,0,0-1.91-1.42Z"/><path class="cls-9" d="M643.18,84.32c-4.87,0-8.29-8-8.29-12.28a8.29,8.29,0,0,1,16.58,0C651.46,76.35,648,84.32,643.18,84.32Z"/><path class="cls-3" d="M643.18,64.75A7.29,7.29,0,0,1,650.46,72c0,4-3.26,11.28-7.29,11.28s-7.29-7.26-7.29-11.28a7.29,7.29,0,0,1,7.29-7.29m0-2A9.3,9.3,0,0,0,633.89,72c0,4.56,3.62,13.28,9.29,13.28s9.29-8.72,9.29-13.28a9.3,9.3,0,0,0-9.29-9.29Z"/><path class="cls-9" d="M644.26,207.74a1.81,1.81,0,0,1-1.68-1.06,1.92,1.92,0,0,1,.45-2.26,15,15,0,0,1,4.25-2.56l-4.7-34.15a.91.91,0,0,1,0-.1v-.38L641,139.41a6.75,6.75,0,0,1,6.35-7.13h.39a6.75,6.75,0,0,1,6.73,6.36,7.17,7.17,0,0,1,0,1.07l-2.83,27.67,1.34,33.77c0,.46,0,.91.06,1.37,0,.18,0,.35,0,.53a6.58,6.58,0,0,1,0,1.63,2.35,2.35,0,0,1-2.6,2.1,7.24,7.24,0,0,1-.84-.06,6.16,6.16,0,0,0-.73,0,8,8,0,0,0-2.35.38,4.64,4.64,0,0,0-.48.2A4.48,4.48,0,0,1,644.26,207.74Z"/><path class="cls-3" d="M647.7,133.27a5.75,5.75,0,0,1,5.74,5.42,6.22,6.22,0,0,1,0,.92l-2.84,27.73v0l.06,1.49.19,4.82.26,6.68.29,7.43.28,7.08.22,5.63c0,.69,0,1.39.08,2.08a9.81,9.81,0,0,1,.07,2c-.15,1-.83,1.25-1.61,1.25a6.26,6.26,0,0,1-.73-.05,7.21,7.21,0,0,0-.85,0,9.06,9.06,0,0,0-2.65.42,7.5,7.5,0,0,1-2,.66.8.8,0,0,1-.78-.5.91.91,0,0,1,.21-1.08,15.25,15.25,0,0,1,4.68-2.67l-4.8-34.92v-.38L642,139.35a5.75,5.75,0,0,1,5.41-6.07h.34m0-2h-.45a7.76,7.76,0,0,0-7.29,8.18l1.6,27.83v.36a2,2,0,0,0,0,.21l4.6,33.4a15.18,15.18,0,0,0-3.83,2.42,2.93,2.93,0,0,0-.68,3.44,2.81,2.81,0,0,0,2.58,1.63,5.36,5.36,0,0,0,2.18-.6c.13-.06.26-.12.36-.15a7.05,7.05,0,0,1,2.06-.33,5.22,5.22,0,0,1,.61,0,8.09,8.09,0,0,0,1,.06,3.35,3.35,0,0,0,3.59-2.94,7.47,7.47,0,0,0,0-1.88c0-.16,0-.33,0-.49,0-.44,0-.89-.05-1.33l0-.72-.22-5.63-.28-7.08-.13-3.29-.16-4.14-.26-6.68-.17-4.24,0-.58,0-1v-.37l2.83-27.59a8.22,8.22,0,0,0,0-1.24,7.76,7.76,0,0,0-7.73-7.31Z"/><polyline class="cls-10" points="639 145.07 640.19 166.32 645.48 198.51 655.57 200.22 653.9 167.29 657.33 136.88 654.24 128.22 631.45 129.5 626.54 165.39 635.64 198.84 645.48 198.51 637.69 165.93 639.88 152.27"/><path class="cls-9" d="M639.8,135.34a1.73,1.73,0,0,1-1.58-2.42l1.69-3.88a1.65,1.65,0,0,1,.36-.53l17.43-16.94-15-14.81a5.6,5.6,0,0,1,7.88-8,6.24,6.24,0,0,1,.52.6l15.18,20.06a3.63,3.63,0,0,1-.7,5.08l-22.35,16.75-2,3.23A1.74,1.74,0,0,1,639.8,135.34Z"/><path class="cls-3" d="M646.65,88.18a4.59,4.59,0,0,1,3.23,1.33,5,5,0,0,1,.44.5l14.94,19.74.23.31a2.63,2.63,0,0,1-.51,3.68h0l-22.49,16.85.14-.22-.24.3.1-.08L640.43,134a.73.73,0,0,1-1.29-.67l1.69-3.88a.67.67,0,0,1,.14-.21l.1-.09,18.06-17.55L643.41,96.06a4.6,4.6,0,0,1,3.24-7.88m0-2h0A6.6,6.6,0,0,0,642,97.48l14.27,14.09-16.6,16.13-.09.09a2.67,2.67,0,0,0-.59.85l-1.69,3.88a2.73,2.73,0,0,0,4.83,2.5L644,132l22.18-16.62a4.64,4.64,0,0,0,.92-6.5l-.23-.31L651.91,88.8a7.05,7.05,0,0,0-.62-.71,6.56,6.56,0,0,0-4.64-1.91Z"/><polyline class="cls-10" points="650.16 105.02 658.98 96.4 652.55 91.08"/></g></g></svg>