<svg xmlns="http://www.w3.org/2000/svg" xmlns:xlink="http://www.w3.org/1999/xlink" viewBox="0 0 653.09 260.58"><defs><style>.cls-1{fill:#87c22e;}.cls-2{fill:#767676;}.cls-13,.cls-3,.cls-4,.cls-7{fill:none;}.cls-15,.cls-3,.cls-4,.cls-6,.cls-7{stroke:#fff;}.cls-13,.cls-3,.cls-8{stroke-miterlimit:10;}.cls-3,.cls-4{stroke-width:2px;}.cls-15,.cls-4,.cls-6,.cls-7{stroke-linecap:round;stroke-linejoin:round;}.cls-5{fill:#4d8736;}.cls-6{fill:#bf3019;}.cls-15,.cls-6,.cls-7,.cls-8{stroke-width:3px;}.cls-12,.cls-14,.cls-18,.cls-8,.cls-9{fill:#fff;}.cls-8{stroke:#e6e6e6;}.cls-9{font-size:23.28px;}.cls-12,.cls-9{font-family:MuseoSans-900Italic, MuseoSans 900Italic;font-style:italic;}.cls-10{letter-spacing:0em;}.cls-11{letter-spacing:-0.01em;}.cls-12{font-size:34.49px;}.cls-13{stroke:#2f66ab;stroke-width:4px;}.cls-14{font-size:24px;}.cls-14,.cls-16{font-family:ArialMT, Arial;}.cls-15,.cls-16{fill:#2f66ab;}.cls-16{font-size:20px;}.cls-17{letter-spacing:-0.07em;}.cls-18{font-size:22px;font-family:HelveticaNeueLTPro-Hv, HelveticaNeueLTPro Hv;}</style><symbol id="deliveremali" data-name="deliveremali" viewBox="0 0 94.05 33.5"><polygon class="cls-1" points="93.05 32.03 92.99 32.03 92.99 31.98 93.05 32.03"/><polygon class="cls-2" points="92.99 32.03 92.99 32.5 39.75 32.5 39.75 1 58.99 17.21 39.82 32.39 92.99 32.03"/><path class="cls-2" d="M93,32V32l-53.17.36L59,17.21l4.16,3.5a5,5,0,0,0,6.44,0l4.2-3.53Z"/><polygon class="cls-2" points="92.99 1 92.99 31.98 73.79 17.18 92.99 1"/><polygon class="cls-2" points="92.99 1 73.79 17.18 66.31 11.41 58.99 17.21 39.75 1 92.99 1"/><path class="cls-2" d="M66.31,11.41l7.48,5.77-4.2,3.53a5,5,0,0,1-6.44,0L59,17.21Z"/><line class="cls-3" x1="92.99" y1="1" x2="92.99" y2="31.98"/><polyline class="cls-3" points="92.99 32.03 92.99 32.5 39.75 32.5 39.75 1"/><polyline class="cls-4" points="73.79 17.18 92.99 31.98 93.05 32.03 92.99 32.03 39.82 32.39 58.99 17.21"/><path class="cls-4" d="M39.75,1,59,17.21l4.16,3.5a5,5,0,0,0,6.44,0l4.2-3.53L93,1Z"/><line class="cls-4" x1="29.67" y1="16.33" x2="1" y2="16.33"/><line class="cls-4" x1="29.67" y1="7.99" x2="1" y2="7.99"/><line class="cls-4" x1="29.67" y1="24.66" x2="1" y2="24.66"/></symbol></defs><title>unsubscribe-rate-formula</title><g id="Layer_2" data-name="Layer 2"><g id="texts"><rect class="cls-5" x="21.09" y="200.58" width="630" height="60" rx="10" ry="10"/><use width="94.05" height="33.5" transform="translate(121.83 140.4)" xlink:href="#deliveremali"/><polygon class="cls-1" points="212.96 32.03 212.9 32.03 212.9 31.98 212.96 32.03"/><polygon class="cls-2" points="212.9 32.03 212.9 32.5 159.66 32.5 159.66 1 178.9 17.21 159.73 32.39 212.9 32.03"/><path class="cls-2" d="M212.9,32V32l-53.17.36L178.9,17.21l4.16,3.5a5,5,0,0,0,6.44,0l4.2-3.53Z"/><polygon class="cls-2" points="212.9 1 212.9 31.98 193.7 17.18 212.9 1"/><polygon class="cls-2" points="212.9 1 193.7 17.18 186.22 11.41 178.9 17.21 159.66 1 212.9 1"/><path class="cls-2" d="M186.22,11.41l7.48,5.77-4.2,3.53a5,5,0,0,1-6.44,0l-4.16-3.5Z"/><line class="cls-3" x1="212.9" y1="1" x2="212.9" y2="31.98"/><polyline class="cls-3" points="212.9 32.03 212.9 32.5 159.66 32.5 159.66 1"/><polyline class="cls-4" points="193.7 17.18 212.9 31.98 212.96 32.03 212.9 32.03 159.73 32.39 178.9 17.21"/><path class="cls-4" d="M159.66,1,178.9,17.21l4.16,3.5a5,5,0,0,0,6.44,0l4.2-3.53L212.9,1Z"/><circle class="cls-6" cx="212.59" cy="24.61" r="13.09"/><line class="cls-7" x1="208.45" y1="28.75" x2="216.74" y2="20.46"/><line class="cls-7" x1="216.74" y1="28.75" x2="208.45" y2="20.46"/><rect class="cls-8" x="466.59" y="51.08" width="185" height="80"/><text class="cls-9" transform="translate(110.55 61.03)"># of people who<tspan x="19.07" y="20.79">unsubsc</tspan><tspan class="cls-10" x="99.77" y="20.79">r</tspan><tspan x="107.47" y="20.79">ibe</tspan></text><text class="cls-9" transform="translate(89.51 126.03)"># of deli<tspan class="cls-11" x="76.76" y="0">v</tspan><tspan x="87.73" y="0">e</tspan><tspan class="cls-11" x="99.39" y="0">r</tspan><tspan x="106.77" y="0">ed emails</tspan></text><text class="cls-12" transform="translate(338.32 104.61)">x 100</text><line class="cls-13" x1="71.5" y1="96.03" x2="311.5" y2="96.03"/><text class="cls-14" transform="translate(70.42 241.03)">An average unsubscribe rate is about 0.2 to 0.3%.</text><circle class="cls-15" cx="21.5" cy="231.03" r="20"/><polyline class="cls-15" points="10.5 233.78 19.25 240.39 31.5 224.03"/><text class="cls-16" transform="translate(490.76 86.09)">UNSUBSCRIBE<tspan x="46.31" y="27.84">R</tspan><tspan class="cls-17" x="60.75" y="27.84">A</tspan><tspan x="72.61" y="27.84">TE</tspan></text><circle class="cls-6" cx="466.5" cy="91.03" r="20"/><text class="cls-18" transform="translate(459.94 96.03)">=</text></g></g></svg>