<svg xmlns="http://www.w3.org/2000/svg" viewBox="0 0 260.4 129.17"><defs><style>.cls-1,.cls-2{fill:#87c22e;}.cls-1,.cls-3,.cls-4{stroke:#fff;}.cls-1,.cls-4{stroke-linecap:round;stroke-linejoin:round;stroke-width:2px;}.cls-3,.cls-4{fill:none;}.cls-3{stroke-miterlimit:10;}</style></defs><title>unsubscribe-rate</title><g id="Layer_2" data-name="Layer 2"><g id="texts"><path class="cls-1" d="M49.27,47.17a27.67,27.67,0,1,0-7.09,5.67l13.17,7.72Z"/><path class="cls-1" d="M211.13,47.17a27.67,27.67,0,1,1,7.09,5.67L205,60.56Z"/><path class="cls-2" d="M26.68,43.33a3.5,3.5,0,0,1-2.44-1l-11.39-11a3.5,3.5,0,0,1,4.87-5l8.58,8.33L39.38,17.73A3.5,3.5,0,1,1,44.91,22L29.44,42a3.5,3.5,0,0,1-2.52,1.35Z"/><path class="cls-3" d="M26.68,43.33a3.5,3.5,0,0,1-2.44-1l-11.39-11a3.5,3.5,0,0,1,4.87-5l8.58,8.33L39.38,17.73A3.5,3.5,0,1,1,44.91,22L29.44,42a3.5,3.5,0,0,1-2.52,1.35Z"/><path class="cls-4" d="M26.68,43.33a3.5,3.5,0,0,1-2.44-1l-11.39-11a3.5,3.5,0,0,1,4.87-5l8.58,8.33L39.38,17.73A3.5,3.5,0,1,1,44.91,22L29.44,42a3.5,3.5,0,0,1-2.52,1.35Z"/><path class="cls-1" d="M235.88,29.3,246,19.37a3,3,0,0,0-4.21-4.28l-10.15,10-10.15-10a3,3,0,0,0-4.21,4.28l10.09,9.93-10.09,9.93a3,3,0,1,0,4.21,4.28l10.15-10,10.15,10A3,3,0,0,0,246,39.23Z"/><polygon class="cls-4" points="195.07 126.2 194.65 51.6 148.64 90.8 195.07 126.2"/><polygon class="cls-4" points="195.07 126.31 67.04 127.9 113 91.08 66.46 52.32 66.89 128.17 195.08 127.45 195.07 126.31"/><path class="cls-4" d="M138.58,99.37a12,12,0,0,1-15.51.09L113,91.08,67.26,127.9l128.26-1.59v-.11L148.87,90.8Z"/><path class="cls-4" d="M66.46,52.32,113,91.08l10.07,8.38a12,12,0,0,0,15.51-.09l10.06-8.57,46-39.21Z"/></g></g></svg>