<svg xmlns="http://www.w3.org/2000/svg" xmlns:xlink="http://www.w3.org/1999/xlink" viewBox="0 0 485.41 70"><defs><style>.cls-1{fill:#bbe170;}.cls-2{mix-blend-mode:multiply;fill:url(#linear-gradient);}.cls-3{fill:#87c22e;}.cls-4,.cls-5,.cls-6{fill:none;stroke:#fff;}.cls-4,.cls-6{stroke-miterlimit:10;}.cls-4,.cls-5{stroke-width:2px;}.cls-5{stroke-linecap:round;stroke-linejoin:round;}.cls-7{font-size:30.83px;fill:#fff;font-family:ArialMT, Arial;}.cls-8{letter-spacing:-0.02em;}.cls-9{letter-spacing:0em;}.cls-10{letter-spacing:-0.02em;}</style><linearGradient id="linear-gradient" x1="6.47" y1="34.87" x2="420" y2="34.87" gradientUnits="userSpaceOnUse"><stop offset="0" stop-color="#bbe170"/><stop offset="1" stop-color="#bbe170" stop-opacity="0"/></linearGradient><symbol id="verde_titu" data-name="verde_titu" viewBox="0 0 485.41 70"><g id="_Group_" data-name="&lt;Group&gt;"><path class="cls-1" d="M0,0H450.41a35,35,0,0,1,35,35v0a35,35,0,0,1-35,35H0a0,0,0,0,1,0,0V0A0,0,0,0,1,0,0Z"/><polygon class="cls-2" points="70.69 69.75 6.47 0 420 0 420 69.44 70.69 69.75"/></g></symbol></defs><title>when-to-use-it</title><g id="Layer_2" data-name="Layer 2"><g id="texts"><use width="485.41" height="70" xlink:href="#verde_titu"/><polygon class="cls-3" points="152.71 47.78 152.65 47.78 152.65 47.73 152.71 47.78"/><polygon class="cls-3" points="152.65 47.78 152.65 48.25 99.41 48.25 99.41 16.75 118.65 32.96 99.48 48.14 152.65 47.78"/><path class="cls-3" d="M152.65,47.73v.05l-53.17.36L118.65,33l4.16,3.5a5,5,0,0,0,6.44,0l4.2-3.53Z"/><polygon class="cls-3" points="152.65 16.75 152.65 47.73 133.45 32.93 152.65 16.75"/><polygon class="cls-3" points="152.65 16.75 133.45 32.93 125.97 27.16 118.65 32.96 99.41 16.75 152.65 16.75"/><path class="cls-3" d="M126,27.16l7.48,5.77-4.2,3.53a5,5,0,0,1-6.44,0L118.65,33Z"/><line class="cls-4" x1="152.65" y1="16.75" x2="152.65" y2="47.73"/><polyline class="cls-4" points="152.65 47.78 152.65 48.25 99.41 48.25 99.41 16.75"/><polyline class="cls-5" points="133.45 32.93 152.65 47.73 152.71 47.78 152.65 47.78 99.48 48.14 118.65 32.96"/><path class="cls-5" d="M99.41,16.75,118.65,33l4.16,3.5a5,5,0,0,0,6.44,0l4.2-3.53,19.2-16.18"/><path class="cls-3" d="M140.37,36.5c.14-7,5.11-11.92,12.62-11.92,6,0,12,3.22,12,9.87,0,4.68-2.31,6.42-5.93,8.73-2.51,1.64-3.18,2.31-3.18,5.31H148.5V46c0-3.71,2-5.4,3.81-6.7,2-1.3,3.81-2.36,3.81-4.77a3,3,0,0,0-3.3-2.94c-2.7,0-4.32,1.59-4.32,4.14v.75Zm7.13,14h9v9h-9Z"/><path class="cls-6" d="M140.37,36.5c.14-7,5.11-11.92,12.62-11.92,6,0,12,3.22,12,9.87,0,4.68-2.31,6.42-5.93,8.73-2.51,1.64-3.18,2.31-3.18,5.31H148.5V46c0-3.71,2-5.4,3.81-6.7,2-1.3,3.81-2.36,3.81-4.77a3,3,0,0,0-3.3-2.94c-2.7,0-4.32,1.59-4.32,4.14v.75Zm7.13,14h9v9h-9Z"/><path class="cls-4" d="M140.37,36.5c.14-7,5.11-11.92,12.62-11.92,6,0,12,3.22,12,9.87,0,4.68-2.31,6.42-5.93,8.73-2.51,1.64-3.18,2.31-3.18,5.31H148.5V46c0-3.71,2-5.4,3.81-6.7,2-1.3,3.81-2.36,3.81-4.77a3,3,0,0,0-3.3-2.94c-2.7,0-4.32,1.59-4.32,4.14v.75Zm7.13,14h9v9h-9Z"/><text class="cls-7" transform="translate(180.41 44.5)">WHEN<tspan class="cls-8" x="94.19" y="0" xml:space="preserve"> T</tspan><tspan class="cls-9" x="120.47" y="0">O USE I</tspan><tspan class="cls-10" x="233.53" y="0">T</tspan></text></g></g></svg>