<svg xmlns="http://www.w3.org/2000/svg" viewBox="0 0 477.27 292.32"><defs><style>.cls-1{fill:#005379;}</style></defs><title>buildings</title><g id="Layer_2" data-name="Layer 2"><g id="Capa_2" data-name="Capa 2"><path class="cls-1" d="M474.73,134.18v-3h-5.07v-3.09H451.26v3.09h-13v3h-8.88v75.35h-2.54v-4.76h-5.23v-3h-5.95v3h-8.09v4.76H402v4.88h-1.78v28.78h-3.92V183.85h-3.92v-5.11h-24v5.11h-1.9v-5.11h-5.83v10.94H356v18.55H345.19V129.1h-2.85V107.62h-2.5v-5.71h-2.56V89.07H332.7V82.41H329V50.3h-3.21V46.5H329V44.24h-3.21V0h-4V44.24h-3.21V46.5h3.21V50.3h-3.21V82.41h-3.69v6.66h-4.58v12.84h-2.56v5.71h-2.5V129.1h-2.85v79.12H287.64v6.18h-4.48v-4.88h-6.3v-4.76h-4.5V130.1h-2.7v-3.24h-5.33v3.24h-1.21v-9.8h-9.63v9.8h-7.29v-7.74H218.76v7.74h-4.44v18.66h-1.74V91.92h-4V88.67h-.32V75H183.64v2H179V88.67H172.7v3.25h-3.41V243.19H161.9V183.85H158v-5.11H134v5.11h-1.9v-5.11h-5.83v10.94h-4.64v53.51h-1.76v-109h-2.54v-3h-5.07v-3.09H93.82v3.09h-13v3H71.94v75.35H69.41v-4.76H64.17v-3H58.23v3H50.14v4.76H44.55v4.88H42.81V129.1H40V107.62h-2.5v-5.71H34.9V89.07H30.32V82.41H12.49v6.66H7.91v12.84H5.35v5.71H2.85V129.1H0V246l477.27,46.29V134.18ZM19.5,226.3h-12v-6.18h12Zm0-11.89h-12v-6.18h12Zm0-11.89h-12v-6.18h12Zm0-11.89h-12v-6.18h12Zm0-11.89h-12v-6.18h12Zm0-11.89h-12v-6.18h12Zm0-11.89h-12v-6.18h12Zm0-11.89h-12v-6.18h12Zm0-11.89h-12V125h12Zm0-11.89h-12v-6.18h12Zm15.82,107h-12v-6.18h12Zm0-11.89h-12v-6.18h12Zm0-11.89h-12v-6.18h12Zm0-11.89h-12v-6.18h12Zm0-11.89h-12v-6.18h12Zm0-11.89h-12v-6.18h12Zm0-11.89h-12v-6.18h12Zm0-11.89h-12v-6.18h12Zm0-11.89h-12V125h12Zm0-11.89h-12v-6.18h12ZM94,187.77H82v-6.18H94Zm0-11.89H82v-6.18H94ZM94,164H82V157.8H94Zm0-11.89H82v-6.18H94Zm15.82,35.68h-12v-6.18h12Zm0-11.89h-12v-6.18h12Zm0-11.89h-12V157.8h12Zm0-11.89h-12v-6.18h12ZM189,216.79H177V210.6h12Zm0-11.89H177v-6.18h12ZM189,193H177v-6.18h12Zm0-11.89H177v-6.18h12Zm0-11.89H177V163h12Zm0-11.89H177v-6.18h12Zm0-11.89H177v-6.18h12Zm0-11.89H177v-6.18h12Zm0-11.89H177v-6.18h12Zm0-11.89H177v-6.18h12Zm15.82,107h-12V210.6h12Zm0-11.89h-12v-6.18h12Zm0-11.89h-12v-6.18h12Zm0-11.89h-12v-6.18h12Zm0-11.89h-12V163h12Zm0-11.89h-12v-6.18h12Zm0-11.89h-12v-6.18h12Zm0-11.89h-12v-6.18h12Zm0-11.89h-12v-6.18h12Zm0-11.89h-12v-6.18h12Zm117,116.54h-12v-6.18h12Zm0-11.89h-12v-6.18h12Zm0-11.89h-12v-6.18h12Zm0-11.89h-12v-6.18h12Zm0-11.89h-12v-6.18h12Zm0-11.89h-12v-6.18h12Zm0-11.89h-12v-6.18h12Zm0-11.89h-12v-6.18h12Zm0-11.89h-12V125h12Zm0-11.89h-12v-6.18h12Zm15.82,107h-12v-6.18h12Zm0-11.89h-12v-6.18h12Zm0-11.89h-12v-6.18h12Zm0-11.89h-12v-6.18h12Zm0-11.89h-12v-6.18h12Zm0-11.89h-12v-6.18h12Zm0-11.89h-12v-6.18h12Zm0-11.89h-12v-6.18h12Zm0-11.89h-12V125h12Zm0-11.89h-12v-6.18h12Zm113.72,68.5h-12v-6.18h12Zm0-11.89h-12v-6.18h12Zm0-11.89h-12V157.8h12Zm0-11.89h-12v-6.18h12Zm15.82,35.68h-12v-6.18h12Zm0-11.89h-12v-6.18h12Zm0-11.89h-12V157.8h12Zm0-11.89h-12v-6.18h12Z"/></g></g></svg>