<svg xmlns="http://www.w3.org/2000/svg" viewBox="0 0 485 222.64"><defs><style>.cls-1,.cls-17,.cls-4{fill:#fff;}.cls-2{fill:#e6e6e6;}.cls-11,.cls-3{fill:#0080b1;}.cls-4,.cls-5{stroke:#0080b1;}.cls-16,.cls-4{stroke-linecap:round;stroke-linejoin:round;}.cls-4{stroke-width:2px;}.cls-18,.cls-19,.cls-20,.cls-5,.cls-6{fill:none;}.cls-18,.cls-19,.cls-20,.cls-5,.cls-6,.cls-8,.cls-9{stroke-miterlimit:10;}.cls-16,.cls-19,.cls-5{stroke-width:3px;}.cls-6{stroke:#bf3019;}.cls-7{fill:#ccc;opacity:0.5;}.cls-10,.cls-8{fill:#87c22e;}.cls-8,.cls-9{stroke:#fff;}.cls-14,.cls-9{fill:#767676;}.cls-9{stroke-width:2.21px;}.cls-11{font-size:20px;}.cls-11,.cls-14,.cls-15,.cls-17{font-family:ArialMT, Arial;}.cls-12{letter-spacing:-0.02em;}.cls-13{letter-spacing:-0.07em;}.cls-14,.cls-15{font-size:16px;}.cls-15{fill:#2f66ab;}.cls-16{fill:#5d9632;}.cls-16,.cls-19{stroke:#e6e6e6;}.cls-17{font-size:26.52px;}.cls-18{stroke:#5d9632;stroke-width:5px;}.cls-20{stroke:gray;stroke-dasharray:3 6;opacity:0.27;}</style></defs><title>calculate-per-lead</title><g id="Layer_2" data-name="Layer 2"><g id="Layer_1-2" data-name="Layer 1"><rect class="cls-1" x="53.25" y="57.96" width="10.33" height="5.32"/><rect class="cls-1" x="53.25" y="68.19" width="10.33" height="5.32"/><rect class="cls-2" x="99.51" y="75.15" width="34.67" height="84.34"/><rect class="cls-2" x="107.39" y="70.14" width="26.8" height="12.27"/><rect class="cls-2" x="103.5" y="65.74" width="5.01" height="14.11"/><rect class="cls-2" x="110.15" y="65.74" width="20.66" height="7.57"/><path class="cls-1" d="M69.88,221.64a2.08,2.08,0,0,1-.91-.21,10.8,10.8,0,0,0-4.56-1.13,7.24,7.24,0,0,0-.92.06l-.24,0a6.61,6.61,0,0,1-1,.09,2.63,2.63,0,0,1-1.54-.44,2.84,2.84,0,0,1-1.14-2,9.17,9.17,0,0,1,0-2.11c0-.27,0-.54.06-.79l.12-2.85,1.53-38.7-15.27-33a1,1,0,0,1-.09-.32,8.57,8.57,0,0,1,0-1.25,7.89,7.89,0,0,1,7.87-7.44h.46a7.9,7.9,0,0,1,7.43,8.15l10,33.19a1,1,0,0,1,0,.32v.46L66.41,215a16.34,16.34,0,0,1,3.23,1.67l.24.15c.82.54,2.75,1.79,1.89,3.59A2.11,2.11,0,0,1,69.88,221.64Z"/><path class="cls-3" d="M53.84,132.63h.4a6.89,6.89,0,0,1,6.48,7.27l10.06,33.35v.46l-5.44,42a16.17,16.17,0,0,1,3.77,1.84c.74.5,2.32,1.36,1.78,2.48a1.09,1.09,0,0,1-1.46.51,11.8,11.8,0,0,0-5-1.23,8.06,8.06,0,0,0-1.05.07,8.31,8.31,0,0,1-1.07.11,1.65,1.65,0,0,1-1-.27,1.84,1.84,0,0,1-.71-1.27,15.48,15.48,0,0,1,.08-2.72c0-.95.08-1.9.12-2.85l.27-6.86.33-8.4.34-8.69.31-7.74.22-5.56.07-1.68h0V173l0,.45L47,140.22a7.42,7.42,0,0,1,0-1.1,6.89,6.89,0,0,1,6.87-6.49m0-2A8.89,8.89,0,0,0,45,139a9.41,9.41,0,0,0,0,1.4,2,2,0,0,0,.18.65l15.17,32.79,0,1.2v.18l-.21,5.38-.15,3.87-.15,3.87-.17,4.21L59.43,197l0,.58-.31,7.82,0,.79-.24,6.08q0,.67-.06,1.33t-.06,1.52c0,.24,0,.49-.05.75a10.07,10.07,0,0,0,0,2.33,3.83,3.83,0,0,0,1.56,2.63,3.64,3.64,0,0,0,2.1.62,7.5,7.5,0,0,0,1.1-.1l.22,0a6.17,6.17,0,0,1,.79,0,9.79,9.79,0,0,1,4.13,1,3.09,3.09,0,0,0,4.13-1.44c1.25-2.58-1.38-4.3-2.24-4.86l-.22-.15a16.72,16.72,0,0,0-2.7-1.47L72.74,174c0-.06,0-.13,0-.19v-.46a2,2,0,0,0-.08-.64l-10-33a8.9,8.9,0,0,0-8.38-9l-.52,0Z"/><path class="cls-1" d="M96.56,99.42l-.47,0L65,95.81a7.3,7.3,0,0,1-.88-.16A6.51,6.51,0,1,1,67.36,83l27,7,32.14,3.26L130,89.51a1.87,1.87,0,0,1,3.21,1,1.86,1.86,0,0,1-.32,1.4L130,96a1,1,0,0,1-1.63,0l-28,.89a4.11,4.11,0,0,1-3.79,2.53Z"/><path class="cls-3" d="M65.72,83.83a5.51,5.51,0,0,1,1.38.18l27.09,7,32.88,3.33.06-.16a.81.81,0,0,1,.17-.28l3.45-3.7a.87.87,0,0,1,1.35,1.1l-2.93,4.13.23-.45-29.8.94a3.12,3.12,0,0,1-3,2.51l-.36,0-.47-.05L65.1,94.82a6,6,0,0,1-.75-.14,5.51,5.51,0,0,1,1.38-10.85m0-2a7.51,7.51,0,0,0-1.88,14.78,8,8,0,0,0,1,.19l30.65,3.53.47.05a5.1,5.1,0,0,0,5-2.52L128,97l.16.11a2,2,0,0,0,2.67-.55l2.93-4.13a2.87,2.87,0,0,0-2.34-4.53,2.88,2.88,0,0,0-2.1.91l-3.18,3.41L94.55,89l-26.94-7a7.54,7.54,0,0,0-1.88-.24Z"/><rect class="cls-4" x="87.54" y="1" width="396.47" height="207.64"/><path class="cls-1" d="M43.33,150.67c-8.67,0-13.85-4.56-13.85-12.2,0-4.59,8.93-21.82,19.73-42.19,3.46-6.54,6.46-12.19,8.07-15.55.14-.3.78-2.3,1.31-4.06a1,1,0,0,1,1-.71h3.77a1,1,0,0,1,1,1.12,13.31,13.31,0,0,0,0,3.92l.32,0a1.1,1.1,0,0,1,1.05.65c3.87,9-1.58,29.2-5.56,43.92-1.6,5.93-3,11-3,12.92C57.18,146.1,52,150.67,43.33,150.67Z"/><path class="cls-3" d="M63.31,77h0m0,0s-.42,3.49.26,4.81a.55.55,0,0,0,.54.25c.21,0,.42,0,.55,0s.12,0,.14,0c5.39,12.61-8.62,50-8.62,56.44,0,7.82-5.75,11.2-12.85,11.2s-12.85-3.38-12.85-11.2c0-6.64,22.1-45.65,27.7-57.31.25-.52,1.37-4.2,1.37-4.2h3.77m0-2H59.55a2,2,0,0,0-1.91,1.42C57.14,78,56.52,80,56.37,80.32c-1.59,3.32-4.58,9-8,15.48C37.09,117,28.49,133.64,28.49,138.47c0,8.14,5.69,13.2,14.85,13.2s14.85-5.06,14.85-13.2c0-1.73,1.43-7,2.95-12.65,4-14.86,9.51-35.22,5.51-44.57A2.08,2.08,0,0,0,65.21,80a16.26,16.26,0,0,1,.07-2.75,2,2,0,0,0-2-2.34Zm0,4h0Z"/><path class="cls-1" d="M61.3,76.21c-5.72,0-9.73-9.41-9.73-14.51a9.73,9.73,0,1,1,19.46,0C71,66.8,67,76.21,61.3,76.21Z"/><path class="cls-3" d="M61.3,53A8.73,8.73,0,0,1,70,61.71c0,4.82-3.91,13.51-8.73,13.51s-8.73-8.69-8.73-13.51A8.73,8.73,0,0,1,61.3,53m0-2A10.74,10.74,0,0,0,50.57,61.71c0,5.33,4.18,15.51,10.73,15.51S72,67,72,61.71A10.74,10.74,0,0,0,61.3,51Z"/><path class="cls-1" d="M10.13,220.05a3.68,3.68,0,0,1-2.46-1.47,5.73,5.73,0,0,0-.46-.45,9.18,9.18,0,0,0-3.34-1.79c-.84-.23-3.4-.93-2.77-3.57A7.72,7.72,0,0,1,1.82,211c.1-.19.2-.39.29-.58.23-.49.45-1,.67-1.48L19.41,172l9.25-32a8.32,8.32,0,0,1,.44-1.18,7.93,7.93,0,0,1,7.14-4.52,7.81,7.81,0,0,1,3.36.76,7.9,7.9,0,0,1,3.77,10.5L29.11,175.79l-.17.39,0,.09-20.59,36a17.9,17.9,0,0,1,3.65,4.8,2.1,2.1,0,0,1-.47,2.48A2,2,0,0,1,10.13,220.05Z"/><path class="cls-3" d="M36.24,135.32a6.89,6.89,0,0,1,6.22,9.83L28.21,175.36l-.18.42L7,212.41a18.26,18.26,0,0,1,4,5.06,1.09,1.09,0,0,1-.24,1.29,1,1,0,0,1-.68.29c-.86,0-1.7-1.22-2.28-1.7a10.22,10.22,0,0,0-3.71-2c-1.24-.34-2.43-.84-2.06-2.38a11.75,11.75,0,0,1,1-2.14c.35-.75.68-1.52,1-2.28l2.77-6.15,3.49-7.74L14,186.57l3.29-7.3L19.61,174l.73-1.63v0l.18-.42-.18.39,9.27-32.07a7.48,7.48,0,0,1,.39-1,6.89,6.89,0,0,1,6.23-3.95m0-2a8.93,8.93,0,0,0-8,5.1,9.42,9.42,0,0,0-.5,1.31l-9.23,31.95-.54,1.21-.13.29-2.24,5-.13.29-3.29,7.3-1.83,4.06-1.83,4.06-1.68,3.74-1.8,4-.21.47-2.56,5.68-.36.8c-.22.49-.43,1-.66,1.46-.08.18-.18.36-.27.54a8.5,8.5,0,0,0-.81,2c-.32,1.34-.28,3.74,3.48,4.77a8.21,8.21,0,0,1,3,1.6c.07.05.24.23.36.36a4.58,4.58,0,0,0,3.18,1.78,3,3,0,0,0,2-.81,3.11,3.11,0,0,0,.69-3.66,18.13,18.13,0,0,0-3.3-4.52l20.21-35.29.09-.19.17-.4L44.27,146a8.89,8.89,0,0,0-8-12.68Z"/><path class="cls-1" d="M71.16,119a4.07,4.07,0,0,1-3.25-1.59L48.77,92.63a7.17,7.17,0,0,1-.5-.75,6.51,6.51,0,1,1,11.31-6.46L73,108.9,96.48,98a1.85,1.85,0,0,1,.72-.17l5.07-.11a1.87,1.87,0,0,1,1.89,1.58,1.87,1.87,0,0,1-1.56,2.14l-4.45.7L73.4,118.33a4.1,4.1,0,0,1-2.25.67Z"/><path class="cls-3" d="M53.92,83.13a5.51,5.51,0,0,1,4.79,2.78L72.6,110.2,96.74,99l.16-.07c.1,0,.21.15.32.14l5.06.11h0c.42,0,.79.09.86.52a.77.77,0,0,1-.73.89l-4.67.68.14-.12-.48.13.34-.06L72.85,117.5a3.11,3.11,0,0,1-4.15-.7l-.29-.38L49.56,92a6.06,6.06,0,0,1-.42-.63,5.51,5.51,0,0,1,4.78-8.25m0-2a7.51,7.51,0,0,0-6.52,11.24,8,8,0,0,0,.57.85l18.85,24.42.29.38a5.11,5.11,0,0,0,6.83,1.15l24.56-16.1,4.24-.66a2.85,2.85,0,0,0,1.88-1.15,2.35,2.35,0,0,0,.52-1.92,2.68,2.68,0,0,0-2.84-2.21h-.07L97.18,97a2.72,2.72,0,0,0-1.12.15l-.17,0L73.42,107.64l-13-22.7a7.55,7.55,0,0,0-6.53-3.8Z"/><circle class="cls-5" cx="137.39" cy="45.26" r="23.26"/><polyline class="cls-6" points="116.39 19.43 111.56 19.43 111.56 24.25"/><polyline class="cls-6" points="158.39 71.08 163.22 71.08 163.22 66.26"/><circle class="cls-7" cx="137.39" cy="45.26" r="17.74"/><rect class="cls-8" x="130.01" y="42.1" width="19.25" height="16.5" rx="3.06" ry="3.06"/><path class="cls-1" d="M137.94,51.73a3,3,0,0,0,1.76.76c.37,0,.77-.14.77-.59,0-.82-3.34-.9-3.34-3.11a2.23,2.23,0,0,1,2-2.19v-1h1.12v.94a3.22,3.22,0,0,1,1.88.8l-.76,1.47a2.81,2.81,0,0,0-1.62-.65c-.37,0-.78.17-.78.58,0,.87,3.34.81,3.34,3.08a2.26,2.26,0,0,1-2.06,2.24V55H139.1v-.94a3.72,3.72,0,0,1-2.1-1Z"/><circle class="cls-9" cx="129.06" cy="44.87" r="3.88"/><path class="cls-9" d="M126.68,50.34h4.76A2.65,2.65,0,0,1,134.09,53v8.67a0,0,0,0,1,0,0H124a0,0,0,0,1,0,0V53A2.65,2.65,0,0,1,126.68,50.34Z"/><path class="cls-10" d="M129.06,39.43a.75.75,0,0,1-.53-.22L125,35.64a.75.75,0,0,1,.53-1.28h1V30.52a.75.75,0,0,1,.75-.75h3.71a.75.75,0,0,1,.75.75v3.84h1a.75.75,0,0,1,.53,1.28l-3.58,3.58a.75.75,0,0,1-.53.22Z"/><path class="cls-1" d="M130.91,30.52v4.59h1.72l-3.58,3.58-3.58-3.58h1.72V30.52h3.71m1.72,4.59h0M130.91,29h-3.71a1.5,1.5,0,0,0-1.5,1.5v3.09h-.22a1.5,1.5,0,0,0-1.06,2.56L128,39.75a1.5,1.5,0,0,0,1.06.44h0a1.5,1.5,0,0,0,1.06-.44l3.54-3.54a1.5,1.5,0,0,0-1-2.6h-.23V30.52a1.5,1.5,0,0,0-1.5-1.5Z"/><text class="cls-11" transform="translate(177.14 40.16)">HOW<tspan class="cls-12" x="48.88" y="0" xml:space="preserve"> T</tspan><tspan x="65.93" y="0">O CALCUL</tspan><tspan class="cls-13" x="165.96" y="0">A</tspan><tspan x="177.81" y="0">TE</tspan><tspan x="0" y="21.22">COS</tspan><tspan class="cls-12" x="43.34" y="21.22">T</tspan><tspan x="55.2" y="21.22" xml:space="preserve"> PER LEAD </tspan></text><text class="cls-14" transform="translate(152.81 133.25)">Cost<tspan x="-15.13" y="16">per Lead</tspan></text><text class="cls-15" transform="translate(303.59 114.25)">Cost of Marketing<tspan x="32.89" y="16">Channel</tspan></text><text class="cls-15" transform="translate(305.81 164.92)"># of Leads From <tspan x="-6.68" y="16">Marketing Channel</tspan></text><circle class="cls-16" cx="252.15" cy="138.41" r="20.5"/><text class="cls-17" transform="translate(244.41 145.5)">=</text><line class="cls-18" x1="284.51" y1="140.63" x2="449.51" y2="140.63"/><rect class="cls-19" x="119.18" y="106.91" width="100" height="60.33"/><line class="cls-20" x1="87.54" y1="83.13" x2="484" y2="83.13"/></g></g></svg>