<svg xmlns="http://www.w3.org/2000/svg" viewBox="0 0 485 222.98"><defs><style>.cls-1{fill:#e6e6e6;}.cls-12,.cls-19,.cls-2,.cls-4,.cls-9{fill:#fff;}.cls-13,.cls-3{fill:#0080b1;}.cls-4,.cls-5,.cls-6{stroke:#0080b1;}.cls-10,.cls-11,.cls-18,.cls-4,.cls-8,.cls-9{stroke-linecap:round;stroke-linejoin:round;}.cls-4{stroke-width:2px;}.cls-11,.cls-20,.cls-21,.cls-22,.cls-5,.cls-6{fill:none;}.cls-20,.cls-21,.cls-22,.cls-5,.cls-6{stroke-miterlimit:10;}.cls-18,.cls-21,.cls-5{stroke-width:3px;}.cls-7{fill:#ccc;opacity:0.5;}.cls-10,.cls-16,.cls-8{fill:#767676;}.cls-8{stroke:#fff;stroke-width:2.75px;}.cls-10,.cls-11,.cls-9{stroke:#767676;}.cls-11,.cls-9{stroke-width:2.7px;}.cls-10{stroke-width:0.67px;}.cls-12{font-size:11.69px;font-family:MuseoSans-900, MuseoSans 900;}.cls-13{font-size:20px;}.cls-13,.cls-16,.cls-17,.cls-19{font-family:ArialMT, Arial;}.cls-14{letter-spacing:-0.02em;}.cls-15{letter-spacing:-0.07em;}.cls-16,.cls-17{font-size:16px;}.cls-17{fill:#2f66ab;}.cls-18{fill:#5d9632;}.cls-18,.cls-21{stroke:#e6e6e6;}.cls-19{font-size:26.52px;}.cls-20{stroke:#5d9632;stroke-width:5px;}.cls-22{stroke:gray;stroke-dasharray:3 6;opacity:0.27;}</style></defs><title>calculate-per-sale</title><g id="Layer_2" data-name="Layer 2"><g id="Layer_1-2" data-name="Layer 1"><rect class="cls-1" x="317.46" y="23.39" width="36.82" height="136.43"/><rect class="cls-1" x="319.91" y="4.91" width="31.91" height="29.87"/><rect class="cls-1" x="322.06" width="27.62" height="14.93"/><rect class="cls-2" x="323.9" y="9.61" width="10.33" height="5.32"/><rect class="cls-2" x="337.5" y="9.61" width="10.33" height="5.32"/><rect class="cls-2" x="323.9" y="19.84" width="10.33" height="5.32"/><rect class="cls-2" x="337.5" y="19.84" width="10.33" height="5.32"/><rect class="cls-2" x="323.9" y="30.07" width="10.33" height="5.32"/><rect class="cls-2" x="337.5" y="30.07" width="10.33" height="5.32"/><rect class="cls-2" x="323.9" y="40.3" width="10.33" height="5.32"/><rect class="cls-2" x="337.5" y="40.3" width="10.33" height="5.32"/><rect class="cls-2" x="323.9" y="50.53" width="10.33" height="5.32"/><rect class="cls-2" x="337.5" y="50.53" width="10.33" height="5.32"/><rect class="cls-2" x="323.9" y="60.76" width="10.33" height="5.32"/><rect class="cls-2" x="337.5" y="60.76" width="10.33" height="5.32"/><rect class="cls-2" x="323.9" y="70.98" width="10.33" height="5.32"/><rect class="cls-2" x="337.5" y="70.98" width="10.33" height="5.32"/><rect class="cls-2" x="323.9" y="81.21" width="10.33" height="5.32"/><rect class="cls-2" x="337.5" y="81.21" width="10.33" height="5.32"/><rect class="cls-2" x="323.9" y="91.44" width="10.33" height="5.32"/><rect class="cls-2" x="337.5" y="91.44" width="10.33" height="5.32"/><rect class="cls-2" x="323.9" y="101.67" width="10.33" height="5.32"/><rect class="cls-2" x="337.5" y="101.67" width="10.33" height="5.32"/><line class="cls-1" x1="422.04" y1="159.82" x2="422.04" y2="121.51"/><rect class="cls-1" x="426.02" y="66.07" width="5.01" height="14.11"/><rect class="cls-2" x="387.96" y="37.84" width="10.33" height="5.32"/><rect class="cls-2" x="387.96" y="48.07" width="10.33" height="5.32"/><rect class="cls-2" x="387.96" y="58.3" width="10.33" height="5.32"/><rect class="cls-2" x="387.96" y="68.53" width="10.33" height="5.32"/><rect class="cls-1" x="354.24" y="96.76" width="36.82" height="63.06"/><rect class="cls-1" x="355.78" y="92.56" width="26.8" height="10.43"/><rect class="cls-1" x="360.58" y="88.47" width="16.57" height="7.16"/><rect class="cls-1" x="367.54" y="85.92" width="5.11" height="3.89"/><path class="cls-2" d="M415.12,222a2.11,2.11,0,0,1-1.89-1.18c-.86-1.79,1.06-3,1.89-3.58l.23-.16a16.32,16.32,0,0,1,3.23-1.67l-5.33-41.2,0-.55a1,1,0,0,1,0-.32l10-33.19a7.9,7.9,0,0,1,7.43-8.15h.46A7.89,7.89,0,0,1,439,139.4a8.52,8.52,0,0,1,0,1.25,1,1,0,0,1-.09.32l-15.27,33,1.53,38.7.12,2.85c0,.26,0,.52.06.79a9.16,9.16,0,0,1,0,2.11,2.84,2.84,0,0,1-1.14,2,2.63,2.63,0,0,1-1.54.44,6.61,6.61,0,0,1-1-.09l-.24,0a7.26,7.26,0,0,0-.92-.06,10.8,10.8,0,0,0-4.56,1.13A2.07,2.07,0,0,1,415.12,222Z"/><path class="cls-3" d="M431.17,133a6.89,6.89,0,0,1,6.87,6.49,7.45,7.45,0,0,1,0,1.1l-15.38,33.23,0-.45v.46h0l.07,1.68.22,5.56.31,7.74.34,8.69.33,8.4.27,6.86c0,.95.08,1.9.12,2.85a15.49,15.49,0,0,1,.08,2.72,1.84,1.84,0,0,1-.71,1.27,1.65,1.65,0,0,1-1,.27,8.31,8.31,0,0,1-1.07-.11,8.06,8.06,0,0,0-1.05-.07,11.8,11.8,0,0,0-5,1.23,1.09,1.09,0,0,1-1.46-.51c-.54-1.11,1-2,1.78-2.48a16.17,16.17,0,0,1,3.77-1.84l-5.44-42v-.46l10.06-33.35a6.89,6.89,0,0,1,6.48-7.27h.4m0-2-.52,0a8.9,8.9,0,0,0-8.38,9l-10,33a2,2,0,0,0-.08.64v.46c0,.06,0,.13,0,.19l5.24,40.44a16.67,16.67,0,0,0-2.7,1.47l-.22.15c-.86.56-3.49,2.27-2.24,4.86a3.09,3.09,0,0,0,4.13,1.44,9.8,9.8,0,0,1,4.13-1,6.16,6.16,0,0,1,.79,0l.22,0a7.5,7.5,0,0,0,1.1.1,3.64,3.64,0,0,0,2.1-.62,3.83,3.83,0,0,0,1.56-2.63,10.07,10.07,0,0,0,0-2.33c0-.25,0-.51-.05-.75q0-.75-.06-1.49t-.06-1.35l-.27-6.86-.17-4.2-.17-4.2L425.4,193l-.17-4.35-.15-3.87-.15-3.87-.12-3-.1-2.57,0-1.2,15.17-32.79a2,2,0,0,0,.18-.65,9.43,9.43,0,0,0,0-1.4,8.89,8.89,0,0,0-8.87-8.38Z"/><path class="cls-2" d="M388.45,99.76a4.11,4.11,0,0,1-3.79-2.53l-28-.89a1,1,0,0,1-1.63,0l-2.93-4.13a1.87,1.87,0,0,1,1.53-3,1.88,1.88,0,0,1,1.37.6l3.51,3.77,32.14-3.26,27-7A6.51,6.51,0,1,1,420.91,96a7.1,7.1,0,0,1-.88.16l-31.11,3.59Z"/><path class="cls-3" d="M419.28,84.17A5.51,5.51,0,0,1,420.66,95a6,6,0,0,1-.75.14l-30.63,3.53-.47.05-.36,0a3.12,3.12,0,0,1-3-2.51l-29.8-.94.23.45-2.93-4.13a.87.87,0,0,1,1.35-1.1l3.45,3.7a.81.81,0,0,1,.17.28l.06.16,32.88-3.33,27.09-7a5.51,5.51,0,0,1,1.38-.18m0-2a7.54,7.54,0,0,0-1.88.24l-26.94,7-31.57,3.2-3.18-3.41a2.87,2.87,0,0,0-4.44,3.62l2.93,4.13a2,2,0,0,0,2.67.55l.16-.11,27,.85a5.09,5.09,0,0,0,5,2.52l.47-.05,30.63-3.53a8.13,8.13,0,0,0,1-.19,7.51,7.51,0,0,0-1.88-14.78Z"/><rect class="cls-4" x="1" y="1.34" width="396.47" height="207.64"/><path class="cls-2" d="M441.54,151c-8.67,0-13.85-4.56-13.85-12.2,0-1.87-1.38-7-3-12.92-4-14.72-9.42-34.88-5.56-43.92a1.1,1.1,0,0,1,1.05-.65l.32,0a13.31,13.31,0,0,0,0-3.92,1,1,0,0,1,1-1.12h3.76a1,1,0,0,1,1,.71c.53,1.76,1.17,3.76,1.31,4.06,1.61,3.36,4.6,9,8.07,15.55,10.79,20.37,19.73,37.6,19.73,42.19C455.39,146.44,450.22,151,441.54,151Z"/><path class="cls-3" d="M425.33,77.29s1.12,3.68,1.37,4.2c5.59,11.66,27.7,50.67,27.7,57.31,0,7.82-5.75,11.2-12.85,11.2s-12.85-3.38-12.85-11.2c0-6.48-14-43.83-8.62-56.44,0,0,.06,0,.14,0s.35,0,.55,0a.55.55,0,0,0,.54-.25c.68-1.33.26-4.81.26-4.81h3.77m0-2h-3.77a2,2,0,0,0-2,2.24,16.17,16.17,0,0,1,.09,2.84,2.08,2.08,0,0,0-1.43,1.2c-4,9.36,1.5,29.71,5.51,44.57,1.52,5.62,2.95,10.92,2.95,12.65,0,8.14,5.69,13.2,14.85,13.2s14.85-5.06,14.85-13.2c0-4.83-8.6-21.44-19.84-42.66-3.46-6.53-6.45-12.17-8-15.51-.14-.33-.76-2.29-1.26-3.92a2,2,0,0,0-1.91-1.42Z"/><path class="cls-2" d="M423.71,76.55C418,76.55,414,67.14,414,62a9.73,9.73,0,1,1,19.46,0C433.44,67.14,429.42,76.55,423.71,76.55Z"/><path class="cls-3" d="M423.71,53.31A8.73,8.73,0,0,1,432.44,62c0,4.82-3.91,13.51-8.73,13.51S415,66.86,415,62a8.73,8.73,0,0,1,8.73-8.73m0-2A10.74,10.74,0,0,0,413,62c0,5.33,4.18,15.51,10.73,15.51S434.44,67.37,434.44,62a10.74,10.74,0,0,0-10.73-10.73Z"/><path class="cls-2" d="M430.29,93.86a6.51,6.51,0,0,1-6-8.94,7.06,7.06,0,0,1,.39-.8l.07-.11L444.4,58l1.54-22.27-7-.53a1,1,0,0,1-.35-.09c-.79-.37-1.72-1-1.7-1.89,0-1.14,1.36-1.6,1.77-1.71a1,1,0,0,1,.26,0l9.32-.09a1,1,0,0,1,.9,1.45l-.55,1.1,1,.08a1,1,0,0,1,.86,1V65.42a1,1,0,0,1-.07.51l-14,23.92A6.44,6.44,0,0,1,430.29,93.86Z"/><path class="cls-3" d="M448.39,32.47h0m-.17-.1L447,34.8h0l-8-.6s-1.13-.53-1.12-1,1-.77,1-.77l9.31-.09m-1.27,2.43,2.44.19V65.42l-14,24a5.49,5.49,0,1,1-10.17-4.11,6,6,0,0,1,.34-.68l19.84-26.25,1.6-23.56m1.28-4.33h0l-9.3,0a2,2,0,0,0-.52,0c-1.55.43-2.48,1.41-2.5,2.65,0,1.44,1.22,2.32,2.28,2.81a2,2,0,0,0,.7.18l6,.45-1.45,21L423.91,83.4a2,2,0,0,0-.15.22,8.07,8.07,0,0,0-.45.92,7.51,7.51,0,0,0,13.88,5.75l14-23.86a2,2,0,0,0,.21-1V35A2,2,0,0,0,450,33.07a1.75,1.75,0,0,0,.16-.65,1.93,1.93,0,0,0-2-2Z"/><path class="cls-2" d="M474.88,220.39a2,2,0,0,1-1.35-.55,2.1,2.1,0,0,1-.47-2.48,17.91,17.91,0,0,1,3.65-4.8l-20.59-36,0-.09-.18-.42-14.25-30.19a7.9,7.9,0,0,1,3.77-10.5,7.81,7.81,0,0,1,3.36-.76,7.93,7.93,0,0,1,7.14,4.52,8.46,8.46,0,0,1,.44,1.17l9.25,32,16.63,36.94c.22.49.44,1,.67,1.47.09.19.19.39.29.58a7.74,7.74,0,0,1,.73,1.76c.62,2.64-1.93,3.34-2.77,3.57a9.19,9.19,0,0,0-3.35,1.79,5.7,5.7,0,0,0-.46.45A3.67,3.67,0,0,1,474.88,220.39Z"/><path class="cls-3" d="M448.77,135.66a6.89,6.89,0,0,1,6.23,3.95,7.46,7.46,0,0,1,.39,1l9.27,32.07-.18-.39.18.42v0l.73,1.63,2.37,5.27,3.29,7.3,3.66,8.12,3.48,7.74,2.77,6.15c.34.76.67,1.52,1,2.28a11.74,11.74,0,0,1,1,2.14c.36,1.54-.82,2-2.06,2.38a10.22,10.22,0,0,0-3.71,2c-.59.48-1.43,1.7-2.28,1.7a1,1,0,0,1-.68-.29,1.09,1.09,0,0,1-.24-1.29,18.27,18.27,0,0,1,4-5.06l-21-36.63-.18-.42-14.26-30.21a6.89,6.89,0,0,1,6.22-9.83m0-2h0a8.89,8.89,0,0,0-8,12.68L455,176.53l.17.4.09.19,20.21,35.29a18.15,18.15,0,0,0-3.3,4.52,3.11,3.11,0,0,0,.69,3.66,3,3,0,0,0,2,.81,4.58,4.58,0,0,0,3.18-1.78c.13-.13.3-.31.36-.36a8.21,8.21,0,0,1,3-1.6c3.77-1,3.8-3.43,3.48-4.77a8.51,8.51,0,0,0-.81-2c-.09-.18-.19-.36-.27-.54-.23-.49-.44-1-.66-1.46l-.35-.79L481.4,205,480,201.95l-.16-.35-3.33-7.39-1.83-4.06-1.83-4.06-1.64-3.65-1.64-3.65-2.37-5.27-.68-1.5-9.23-31.93a9.47,9.47,0,0,0-.5-1.33,8.93,8.93,0,0,0-8-5.1Z"/><circle class="cls-5" cx="54.33" cy="45.59" r="23.26"/><polyline class="cls-6" points="33.32 19.76 28.5 19.76 28.5 24.59"/><polyline class="cls-6" points="75.33 71.42 80.16 71.42 80.16 66.59"/><circle class="cls-7" cx="54.33" cy="45.59" r="17.74"/><path class="cls-8" d="M70.25,39.7A1.63,1.63,0,0,0,69,39.12H48.52l-.58-3.35a1.35,1.35,0,0,0-1.33-1.12H39.36a1.35,1.35,0,0,0,0,2.7h6.11L48.13,52.7a3.77,3.77,0,1,0,5.19,4.72h7.22a3.77,3.77,0,1,0,5.2-4.7h1.46a1.63,1.63,0,0,0,1.61-1.36L70.61,41A1.63,1.63,0,0,0,70.25,39.7Zm-9.71,15H53.32a3.78,3.78,0,0,0-1.82-2H62.36A3.78,3.78,0,0,0,60.54,54.71Z"/><line class="cls-9" x1="49.81" y1="56.06" x2="64.06" y2="56.06"/><path class="cls-10" d="M67.21,52.37H49.45L47.2,39.45H69A1.3,1.3,0,0,1,70.28,41L68.49,51.29A1.3,1.3,0,0,1,67.21,52.37Z"/><polyline class="cls-11" points="39.36 36 46.61 36 49.81 54.44"/><circle class="cls-9" cx="49.81" cy="56.06" r="2.43"/><circle class="cls-9" cx="64.06" cy="56.06" r="2.43"/><text class="cls-12" transform="translate(54.33 49.7)">$</text><text class="cls-13" transform="translate(95.37 40.5)">HOW<tspan class="cls-14" x="48.88" y="0" xml:space="preserve"> T</tspan><tspan x="65.93" y="0">O CALCUL</tspan><tspan class="cls-15" x="165.96" y="0">A</tspan><tspan x="177.81" y="0">TE</tspan><tspan x="0" y="21.22">COS</tspan><tspan class="cls-14" x="43.34" y="21.22">T</tspan><tspan x="55.2" y="21.22" xml:space="preserve"> PER SALE</tspan></text><text class="cls-16" transform="translate(67.69 129.58)">Cost<tspan x="-13.35" y="16">per Sale</tspan></text><text class="cls-17" transform="translate(218.47 110.58)">Cost of Marketing<tspan x="32.89" y="16">Channel</tspan></text><text class="cls-17" transform="translate(222.47 161.25)"># of Sales From <tspan x="-8.46" y="16">Marketing Channel</tspan></text><circle class="cls-18" cx="167.03" cy="134.75" r="20.5"/><text class="cls-19" transform="translate(159.29 141.84)">=</text><line class="cls-20" x1="199.39" y1="136.97" x2="364.39" y2="136.97"/><rect class="cls-21" x="34.06" y="103.25" width="100" height="60.33"/><line class="cls-22" x1="1.16" y1="83.47" x2="397.62" y2="83.47"/></g></g></svg>