<svg xmlns="http://www.w3.org/2000/svg" viewBox="0 0 1002.13 224.72"><defs><style>.cls-1{font-size:24px;font-family:HelveticaNeueLTPro-Lt, HelveticaNeueLTPro Lt;}.cls-1,.cls-11,.cls-13,.cls-25,.cls-28,.cls-32{fill:#fff;}.cls-2{letter-spacing:-0.01em;}.cls-3{letter-spacing:-0.01em;}.cls-4{letter-spacing:-0.01em;}.cls-5{letter-spacing:-0.01em;}.cls-6{letter-spacing:0em;}.cls-7{letter-spacing:0em;}.cls-8{letter-spacing:0em;}.cls-9{font-family:HelveticaNeue-Bold, HelveticaNeue Bold;font-weight:700;}.cls-10{fill:#e6e6e6;}.cls-12,.cls-20{fill:#0080b1;}.cls-13,.cls-14,.cls-23{stroke:#0080b1;}.cls-13,.cls-24,.cls-25,.cls-26,.cls-27,.cls-31{stroke-linecap:round;stroke-linejoin:round;}.cls-13{stroke-width:2px;}.cls-14,.cls-15,.cls-23,.cls-27,.cls-33,.cls-34,.cls-35{fill:none;}.cls-14,.cls-15,.cls-17,.cls-18,.cls-23,.cls-33,.cls-34,.cls-35{stroke-miterlimit:10;}.cls-14,.cls-31,.cls-34{stroke-width:3px;}.cls-15{stroke:#bf3019;}.cls-16{fill:#ccc;opacity:0.5;}.cls-17,.cls-19{fill:#87c22e;}.cls-17,.cls-18,.cls-24{stroke:#fff;}.cls-18,.cls-24,.cls-26,.cls-29{fill:#767676;}.cls-18{stroke-width:2.21px;}.cls-20{font-size:20px;}.cls-20,.cls-29,.cls-30,.cls-32{font-family:ArialMT, Arial;}.cls-21{letter-spacing:-0.02em;}.cls-22{letter-spacing:-0.07em;}.cls-24{stroke-width:2.75px;}.cls-25,.cls-26,.cls-27{stroke:#767676;}.cls-25,.cls-27{stroke-width:2.7px;}.cls-26{stroke-width:0.67px;}.cls-28{font-size:11.69px;font-family:MuseoSans-900, MuseoSans 900;}.cls-29,.cls-30{font-size:16px;}.cls-30{fill:#2f66ab;}.cls-31{fill:#5d9632;}.cls-31,.cls-34{stroke:#e6e6e6;}.cls-32{font-size:26.52px;}.cls-33{stroke:#5d9632;stroke-width:5px;}.cls-35{stroke:gray;stroke-dasharray:3 6;opacity:0.27;}</style></defs><title>calculate</title><g id="Layer_2" data-name="Layer 2"><g id="Layer_1-2" data-name="Layer 1"><text class="cls-1" transform="translate(232.3 20.09)"><tspan class="cls-2">U</tspan><tspan x="15.38" y="0">se the </tspan><tspan class="cls-3" x="80.38" y="0">f</tspan><tspan x="87.07" y="0">oll</tspan><tspan class="cls-4" x="111.57" y="0">o</tspan><tspan x="124.58" y="0">wing </tspan><tspan class="cls-5" x="179.69" y="0">f</tspan><tspan x="186.38" y="0">o</tspan><tspan class="cls-6" x="199.56" y="0">r</tspan><tspan class="cls-7" x="207.5" y="0">mulas </tspan><tspan class="cls-2" x="272.56" y="0">t</tspan><tspan x="280.36" y="0">o calcul</tspan><tspan class="cls-8" x="356.25" y="0">a</tspan><tspan class="cls-2" x="367.72" y="0">t</tspan><tspan x="375.52" y="0">e </tspan><tspan class="cls-9" x="392.63" y="0">CPL</tspan><tspan x="430.65" y="0" xml:space="preserve"> and </tspan><tspan class="cls-9" x="479.25" y="0">CPS</tspan><tspan x="517.77" y="0">:</tspan></text><rect class="cls-10" x="834.58" y="25.13" width="36.82" height="136.43"/><rect class="cls-10" x="837.03" y="6.65" width="31.91" height="29.87"/><rect class="cls-10" x="839.18" y="1.74" width="27.62" height="14.93"/><line class="cls-10" x1="864.6" y1="13.92" x2="841.38" y2="13.92"/><rect class="cls-11" x="841.02" y="11.36" width="10.33" height="5.32"/><rect class="cls-11" x="854.63" y="11.36" width="10.33" height="5.32"/><rect class="cls-11" x="841.02" y="21.59" width="10.33" height="5.32"/><rect class="cls-11" x="854.63" y="21.59" width="10.33" height="5.32"/><rect class="cls-11" x="841.02" y="31.81" width="10.33" height="5.32"/><rect class="cls-11" x="854.63" y="31.81" width="10.33" height="5.32"/><rect class="cls-11" x="841.02" y="42.04" width="10.33" height="5.32"/><rect class="cls-11" x="854.63" y="42.04" width="10.33" height="5.32"/><rect class="cls-11" x="841.02" y="52.27" width="10.33" height="5.32"/><rect class="cls-11" x="854.63" y="52.27" width="10.33" height="5.32"/><rect class="cls-11" x="841.02" y="62.5" width="10.33" height="5.32"/><rect class="cls-11" x="854.63" y="62.5" width="10.33" height="5.32"/><rect class="cls-11" x="841.02" y="72.73" width="10.33" height="5.32"/><rect class="cls-11" x="854.63" y="72.73" width="10.33" height="5.32"/><rect class="cls-11" x="841.02" y="82.96" width="10.33" height="5.32"/><rect class="cls-11" x="854.63" y="82.96" width="10.33" height="5.32"/><rect class="cls-11" x="841.02" y="93.18" width="10.33" height="5.32"/><rect class="cls-11" x="854.63" y="93.18" width="10.33" height="5.32"/><rect class="cls-11" x="841.02" y="103.41" width="10.33" height="5.32"/><rect class="cls-11" x="854.63" y="103.41" width="10.33" height="5.32"/><line class="cls-10" x1="939.16" y1="161.56" x2="939.16" y2="123.25"/><rect class="cls-10" x="943.15" y="67.82" width="5.01" height="14.11"/><line class="cls-10" x1="904.1" y1="36.52" x2="904.1" y2="26.91"/><line class="cls-10" x1="915.28" y1="31.71" x2="915.28" y2="24.25"/><rect class="cls-11" x="905.08" y="39.59" width="10.33" height="5.32"/><rect class="cls-11" x="905.08" y="49.82" width="10.33" height="5.32"/><rect class="cls-11" x="905.08" y="60.04" width="10.33" height="5.32"/><rect class="cls-11" x="905.08" y="70.27" width="10.33" height="5.32"/><rect class="cls-10" x="871.37" y="98.5" width="36.82" height="63.06"/><rect class="cls-10" x="872.9" y="94.31" width="26.8" height="10.43"/><rect class="cls-10" x="877.71" y="90.22" width="16.57" height="7.16"/><rect class="cls-10" x="884.66" y="87.66" width="5.11" height="3.89"/><rect class="cls-11" x="53.25" y="60.04" width="10.33" height="5.32"/><rect class="cls-11" x="53.25" y="70.27" width="10.33" height="5.32"/><line class="cls-10" x1="27.92" y1="123.25" x2="27.92" y2="161.56"/><line class="cls-10" x1="126.77" y1="123.25" x2="126.77" y2="161.56"/><rect class="cls-10" x="99.51" y="77.23" width="34.67" height="84.34"/><rect class="cls-10" x="107.39" y="72.22" width="26.8" height="12.27"/><rect class="cls-10" x="103.5" y="67.82" width="5.01" height="14.11"/><rect class="cls-10" x="110.15" y="67.82" width="20.66" height="7.57"/><path class="cls-11" d="M69.88,223.72a2.08,2.08,0,0,1-.91-.21,10.8,10.8,0,0,0-4.56-1.13,7.24,7.24,0,0,0-.92.06l-.24,0a6.61,6.61,0,0,1-1,.09,2.63,2.63,0,0,1-1.54-.44,2.84,2.84,0,0,1-1.14-2,9.17,9.17,0,0,1,0-2.11c0-.27,0-.54.06-.79l.12-2.85,1.53-38.7-15.27-33a1,1,0,0,1-.09-.32,8.57,8.57,0,0,1,0-1.25,7.89,7.89,0,0,1,7.87-7.44h.46a7.9,7.9,0,0,1,7.43,8.15l10,33.19a1,1,0,0,1,0,.32v.46l-5.34,41.29a16.34,16.34,0,0,1,3.23,1.67l.24.15c.82.54,2.75,1.79,1.89,3.59A2.11,2.11,0,0,1,69.88,223.72Z"/><path class="cls-12" d="M53.84,134.71h.4A6.89,6.89,0,0,1,60.72,142l10.06,33.35v.46l-5.44,42a16.17,16.17,0,0,1,3.77,1.84c.74.5,2.32,1.36,1.78,2.48a1.09,1.09,0,0,1-1.46.51,11.8,11.8,0,0,0-5-1.23,8.06,8.06,0,0,0-1.05.07,8.31,8.31,0,0,1-1.07.11,1.65,1.65,0,0,1-1-.27,1.84,1.84,0,0,1-.71-1.27,15.48,15.48,0,0,1,.08-2.72c0-.95.08-1.9.12-2.85l.27-6.86.33-8.4.34-8.69.31-7.74.22-5.56.07-1.68h0v-.46l0,.45L47,142.3a7.42,7.42,0,0,1,0-1.1,6.89,6.89,0,0,1,6.87-6.49m0-2A8.89,8.89,0,0,0,45,141.09a9.41,9.41,0,0,0,0,1.4,2,2,0,0,0,.18.65l15.17,32.79,0,1.2v.18l-.21,5.38-.15,3.87-.15,3.87-.17,4.21-.18,4.48,0,.58-.31,7.82,0,.79-.24,6.08q0,.67-.06,1.33t-.06,1.52c0,.24,0,.49-.05.75a10.07,10.07,0,0,0,0,2.33,3.83,3.83,0,0,0,1.56,2.63,3.64,3.64,0,0,0,2.1.62,7.5,7.5,0,0,0,1.1-.1l.22,0a6.17,6.17,0,0,1,.79,0,9.79,9.79,0,0,1,4.13,1A3.09,3.09,0,0,0,72.67,223c1.25-2.58-1.38-4.3-2.24-4.86l-.22-.15a16.72,16.72,0,0,0-2.7-1.47l5.24-40.44c0-.06,0-.13,0-.19v-.46a2,2,0,0,0-.08-.64l-10-33a8.9,8.9,0,0,0-8.38-9l-.52,0Z"/><path class="cls-11" d="M96.56,101.5l-.47,0L65,97.89a7.3,7.3,0,0,1-.88-.16,6.51,6.51,0,1,1,3.26-12.61l27,7,32.14,3.26L130,91.59a1.87,1.87,0,0,1,3.21,1,1.86,1.86,0,0,1-.32,1.4L130,98.08a1,1,0,0,1-1.63,0l-28,.89a4.11,4.11,0,0,1-3.79,2.53Z"/><path class="cls-12" d="M65.72,85.91a5.51,5.51,0,0,1,1.38.18l27.09,7,32.88,3.33.06-.16a.81.81,0,0,1,.17-.28l3.45-3.7a.87.87,0,0,1,1.35,1.1l-2.93,4.13.23-.45L99.6,98a3.12,3.12,0,0,1-3,2.51l-.36,0-.47-.05L65.1,96.9a6,6,0,0,1-.75-.14,5.51,5.51,0,0,1,1.38-10.85m0-2A7.51,7.51,0,0,0,63.85,98.7a8,8,0,0,0,1,.19l30.65,3.53.47.05a5.1,5.1,0,0,0,5-2.52l27-.85.16.11a2,2,0,0,0,2.67-.55l2.93-4.13A2.87,2.87,0,0,0,131.39,90a2.88,2.88,0,0,0-2.1.91l-3.18,3.41-31.57-3.2-26.94-7a7.54,7.54,0,0,0-1.88-.24Z"/><rect class="cls-13" x="87.54" y="3.08" width="396.47" height="207.64"/><path class="cls-11" d="M43.33,152.75c-8.67,0-13.85-4.56-13.85-12.2,0-4.59,8.93-21.82,19.73-42.19,3.46-6.54,6.46-12.19,8.07-15.55.14-.3.78-2.3,1.31-4.06a1,1,0,0,1,1-.71h3.77a1,1,0,0,1,1,1.12,13.31,13.31,0,0,0,0,3.92l.32,0a1.1,1.1,0,0,1,1.05.65c3.87,9-1.58,29.2-5.56,43.92-1.6,5.93-3,11-3,12.92C57.18,148.19,52,152.75,43.33,152.75Z"/><path class="cls-12" d="M63.31,79h0m0,0s-.42,3.49.26,4.81a.55.55,0,0,0,.54.25c.21,0,.42,0,.55,0s.12,0,.14,0c5.39,12.61-8.62,50-8.62,56.44,0,7.82-5.75,11.2-12.85,11.2s-12.85-3.38-12.85-11.2c0-6.64,22.1-45.65,27.7-57.31.25-.52,1.37-4.2,1.37-4.2h3.77m0-2H59.55a2,2,0,0,0-1.91,1.42c-.49,1.62-1.12,3.59-1.27,3.94-1.59,3.32-4.58,9-8,15.48-11.24,21.22-19.84,37.84-19.84,42.67,0,8.14,5.69,13.2,14.85,13.2s14.85-5.06,14.85-13.2c0-1.73,1.43-7,2.95-12.65,4-14.86,9.51-35.22,5.51-44.57a2.08,2.08,0,0,0-1.43-1.2,16.26,16.26,0,0,1,.07-2.75,2,2,0,0,0-2-2.34Zm0,4h0Z"/><path class="cls-11" d="M61.3,78.29c-5.72,0-9.73-9.41-9.73-14.51a9.73,9.73,0,0,1,19.46,0C71,68.88,67,78.29,61.3,78.29Z"/><path class="cls-12" d="M61.3,55.06A8.73,8.73,0,0,1,70,63.79c0,4.82-3.91,13.51-8.73,13.51s-8.73-8.69-8.73-13.51a8.73,8.73,0,0,1,8.73-8.73m0-2A10.74,10.74,0,0,0,50.57,63.79c0,5.33,4.18,15.51,10.73,15.51S72,69.11,72,63.79A10.74,10.74,0,0,0,61.3,53.06Z"/><path class="cls-11" d="M10.13,222.13a3.68,3.68,0,0,1-2.46-1.47,5.73,5.73,0,0,0-.46-.45,9.18,9.18,0,0,0-3.34-1.79c-.84-.23-3.4-.93-2.77-3.57a7.72,7.72,0,0,1,.73-1.76c.1-.19.2-.39.29-.58.23-.49.45-1,.67-1.48L19.41,174.1l9.25-32a8.32,8.32,0,0,1,.44-1.18,7.93,7.93,0,0,1,7.14-4.52,7.81,7.81,0,0,1,3.36.76,7.9,7.9,0,0,1,3.77,10.5L29.11,177.87l-.17.39,0,.09-20.59,36a17.9,17.9,0,0,1,3.65,4.8,2.1,2.1,0,0,1-.47,2.48A2,2,0,0,1,10.13,222.13Z"/><path class="cls-12" d="M36.24,137.4a6.89,6.89,0,0,1,6.22,9.83L28.21,177.44l-.18.42L7,214.49a18.26,18.26,0,0,1,4,5.06,1.09,1.09,0,0,1-.24,1.29,1,1,0,0,1-.68.29c-.86,0-1.7-1.22-2.28-1.7a10.22,10.22,0,0,0-3.71-2c-1.24-.34-2.43-.84-2.06-2.38a11.75,11.75,0,0,1,1-2.14c.35-.75.68-1.52,1-2.28l2.77-6.15,3.49-7.74L14,188.65l3.29-7.3,2.37-5.27.73-1.63v0l.18-.42-.18.39,9.27-32.07a7.48,7.48,0,0,1,.39-1,6.89,6.89,0,0,1,6.23-3.95m0-2a8.93,8.93,0,0,0-8,5.1,9.42,9.42,0,0,0-.5,1.31l-9.23,31.95L17.92,175l-.13.29-2.24,5-.13.29-3.29,7.3-1.83,4.06L8.47,196l-1.68,3.74-1.8,4-.21.47-2.56,5.68-.36.8c-.22.49-.43,1-.66,1.46-.08.18-.18.36-.27.54a8.5,8.5,0,0,0-.81,2c-.32,1.34-.28,3.74,3.48,4.77a8.21,8.21,0,0,1,3,1.6c.07.05.24.23.36.36a4.58,4.58,0,0,0,3.18,1.78,3,3,0,0,0,2-.81,3.11,3.11,0,0,0,.69-3.66,18.13,18.13,0,0,0-3.3-4.52l20.21-35.29.09-.19.17-.4,14.25-30.19a8.89,8.89,0,0,0-8-12.68Z"/><path class="cls-11" d="M71.16,121.08a4.07,4.07,0,0,1-3.25-1.59L48.77,94.71a7.17,7.17,0,0,1-.5-.75A6.51,6.51,0,1,1,59.58,87.5L73,111l23.46-10.93a1.85,1.85,0,0,1,.72-.17l5.07-.11a1.87,1.87,0,0,1,1.89,1.58,1.87,1.87,0,0,1-1.56,2.14l-4.45.7L73.4,120.41a4.1,4.1,0,0,1-2.25.67Z"/><path class="cls-12" d="M53.92,85.21A5.51,5.51,0,0,1,58.71,88L72.6,112.28,96.74,101l.16-.07c.1,0,.21.15.32.14l5.06.11h0c.42,0,.79.09.86.52a.77.77,0,0,1-.73.89l-4.67.68.14-.12-.48.13.34-.06L72.85,119.58a3.11,3.11,0,0,1-4.15-.7l-.29-.38L49.56,94.1a6.06,6.06,0,0,1-.42-.63,5.51,5.51,0,0,1,4.78-8.25m0-2a7.51,7.51,0,0,0-6.52,11.24,8,8,0,0,0,.57.85l18.85,24.42.29.38a5.11,5.11,0,0,0,6.83,1.15l24.56-16.1,4.24-.66a2.85,2.85,0,0,0,1.88-1.15,2.35,2.35,0,0,0,.52-1.92,2.68,2.68,0,0,0-2.84-2.21h-.07l-5.06-.11a2.72,2.72,0,0,0-1.12.15l-.17,0L73.42,109.72,60.45,87a7.55,7.55,0,0,0-6.53-3.8Z"/><path class="cls-11" d="M932.24,223.72a2.11,2.11,0,0,1-1.89-1.18c-.86-1.79,1.06-3,1.89-3.58l.23-.16a16.32,16.32,0,0,1,3.23-1.67l-5.33-41.2,0-.55a1,1,0,0,1,0-.32l10-33.19a7.9,7.9,0,0,1,7.43-8.15h.46a7.89,7.89,0,0,1,7.87,7.43,8.52,8.52,0,0,1,0,1.25,1,1,0,0,1-.09.32l-15.27,33,1.53,38.7.12,2.85c0,.26,0,.52.06.79a9.16,9.16,0,0,1,0,2.11,2.84,2.84,0,0,1-1.14,2,2.63,2.63,0,0,1-1.54.44,6.61,6.61,0,0,1-1-.09l-.24,0a7.26,7.26,0,0,0-.92-.06,10.8,10.8,0,0,0-4.56,1.13A2.07,2.07,0,0,1,932.24,223.72Z"/><path class="cls-12" d="M948.29,134.71a6.89,6.89,0,0,1,6.87,6.49,7.45,7.45,0,0,1,0,1.1l-15.38,33.23,0-.45v.46h0l.07,1.68.22,5.56.31,7.74.34,8.69.33,8.4.27,6.86c0,.95.08,1.9.12,2.85a15.49,15.49,0,0,1,.08,2.72,1.84,1.84,0,0,1-.71,1.27,1.65,1.65,0,0,1-1,.27,8.31,8.31,0,0,1-1.07-.11,8.06,8.06,0,0,0-1.05-.07,11.8,11.8,0,0,0-5,1.23,1.09,1.09,0,0,1-1.46-.51c-.54-1.11,1-2,1.78-2.48a16.17,16.17,0,0,1,3.77-1.84l-5.44-42v-.46L941.41,142a6.89,6.89,0,0,1,6.48-7.27h.4m0-2-.52,0a8.9,8.9,0,0,0-8.38,9l-10,33a2,2,0,0,0-.08.64v.46c0,.06,0,.13,0,.19l5.24,40.44a16.67,16.67,0,0,0-2.7,1.47l-.22.15c-.86.56-3.49,2.27-2.24,4.86a3.09,3.09,0,0,0,4.13,1.44,9.8,9.8,0,0,1,4.13-1,6.16,6.16,0,0,1,.79,0l.22,0a7.5,7.5,0,0,0,1.1.1,3.64,3.64,0,0,0,2.1-.62,3.83,3.83,0,0,0,1.56-2.63,10.07,10.07,0,0,0,0-2.33c0-.25,0-.51-.05-.75q0-.75-.06-1.49t-.06-1.35l-.27-6.86-.17-4.2-.17-4.2-.17-4.35-.17-4.35-.15-3.87-.15-3.87-.12-3-.1-2.57,0-1.2L957,143.14a2,2,0,0,0,.18-.65,9.43,9.43,0,0,0,0-1.4,8.89,8.89,0,0,0-8.87-8.38Z"/><path class="cls-11" d="M905.57,101.5A4.11,4.11,0,0,1,901.78,99l-28-.89a1,1,0,0,1-1.63,0l-2.93-4.13a1.87,1.87,0,0,1,1.53-3,1.88,1.88,0,0,1,1.37.6l3.51,3.77,32.14-3.26,27-7A6.51,6.51,0,1,1,938,97.73a7.1,7.1,0,0,1-.88.16L906,101.48Z"/><path class="cls-12" d="M936.4,85.91a5.51,5.51,0,0,1,1.38,10.85,6,6,0,0,1-.75.14l-30.63,3.53-.47.05-.36,0a3.12,3.12,0,0,1-3-2.51l-29.8-.94.23.45L870,93.37a.87.87,0,0,1,1.35-1.1l3.45,3.7a.81.81,0,0,1,.17.28l.06.16,32.88-3.33,27.09-7a5.51,5.51,0,0,1,1.38-.18m0-2a7.54,7.54,0,0,0-1.88.24l-26.94,7L876,94.31l-3.18-3.41a2.87,2.87,0,0,0-4.44,3.62l2.93,4.13a2,2,0,0,0,2.67.55l.16-.11,27,.85a5.09,5.09,0,0,0,5,2.52l.47-.05,30.63-3.53a8.13,8.13,0,0,0,1-.19,7.51,7.51,0,0,0-1.88-14.78Z"/><rect class="cls-13" x="518.12" y="3.08" width="396.47" height="207.64"/><path class="cls-11" d="M958.67,152.75c-8.67,0-13.85-4.56-13.85-12.2,0-1.87-1.38-7-3-12.92-4-14.72-9.42-34.88-5.56-43.92a1.1,1.1,0,0,1,1.05-.65l.32,0a13.31,13.31,0,0,0,0-3.92,1,1,0,0,1,1-1.12h3.76a1,1,0,0,1,1,.71c.53,1.76,1.17,3.76,1.31,4.06,1.61,3.36,4.6,9,8.07,15.55,10.79,20.37,19.73,37.6,19.73,42.19C972.51,148.19,967.34,152.75,958.67,152.75Z"/><path class="cls-12" d="M942.45,79s1.12,3.68,1.37,4.2c5.59,11.66,27.7,50.67,27.7,57.31,0,7.82-5.75,11.2-12.85,11.2s-12.85-3.38-12.85-11.2c0-6.48-14-43.83-8.62-56.44,0,0,.06,0,.14,0s.35,0,.55,0a.55.55,0,0,0,.54-.25c.68-1.33.26-4.81.26-4.81h3.77m0-2h-3.77a2,2,0,0,0-2,2.24,16.17,16.17,0,0,1,.09,2.84,2.08,2.08,0,0,0-1.43,1.2c-4,9.36,1.5,29.71,5.51,44.57,1.52,5.62,2.95,10.92,2.95,12.65,0,8.14,5.69,13.2,14.85,13.2s14.85-5.06,14.85-13.2c0-4.83-8.6-21.44-19.84-42.66-3.46-6.53-6.45-12.17-8-15.51-.14-.33-.76-2.29-1.26-3.92A2,2,0,0,0,942.45,77Z"/><path class="cls-11" d="M940.83,78.29c-5.72,0-9.73-9.41-9.73-14.51a9.73,9.73,0,1,1,19.46,0C950.56,68.88,946.55,78.29,940.83,78.29Z"/><path class="cls-12" d="M940.83,55.06a8.73,8.73,0,0,1,8.73,8.73c0,4.82-3.91,13.51-8.73,13.51s-8.73-8.69-8.73-13.51a8.73,8.73,0,0,1,8.73-8.73m0-2A10.74,10.74,0,0,0,930.1,63.79c0,5.33,4.18,15.51,10.73,15.51s10.73-10.18,10.73-15.51a10.74,10.74,0,0,0-10.73-10.73Z"/><path class="cls-11" d="M947.41,95.6a6.51,6.51,0,0,1-6-8.94,7.06,7.06,0,0,1,.39-.8l.07-.11,19.69-26,1.54-22.27-7-.53a1,1,0,0,1-.35-.09c-.79-.37-1.72-1-1.7-1.89,0-1.14,1.36-1.6,1.77-1.71a1,1,0,0,1,.26,0l9.32-.09a1,1,0,0,1,.9,1.45l-.55,1.1,1,.08a1,1,0,0,1,.86,1V67.16a1,1,0,0,1-.07.51l-14,23.92A6.44,6.44,0,0,1,947.41,95.6Z"/><path class="cls-12" d="M965.51,34.21h0m-.17-.1-1.21,2.43h0l-8-.6S955,35.41,955,35s1-.77,1-.77l9.31-.09m-1.27,2.43,2.44.19V67.16l-14,24A5.49,5.49,0,1,1,942.29,87a6,6,0,0,1,.34-.68L962.47,60.1l1.6-23.56m1.28-4.33h0l-9.3,0a2,2,0,0,0-.52,0c-1.55.43-2.48,1.41-2.5,2.65,0,1.44,1.22,2.32,2.28,2.81a2,2,0,0,0,.7.18l6,.45-1.45,21L941,85.14a2,2,0,0,0-.15.22,8.07,8.07,0,0,0-.45.92A7.51,7.51,0,0,0,954.32,92l14-23.86a2,2,0,0,0,.21-1V36.73a2,2,0,0,0-1.36-1.92,1.75,1.75,0,0,0,.16-.65,1.93,1.93,0,0,0-2-2Z"/><path class="cls-11" d="M992,222.13a2,2,0,0,1-1.35-.55,2.1,2.1,0,0,1-.47-2.48,17.91,17.91,0,0,1,3.65-4.8l-20.59-36,0-.09-.18-.42-14.25-30.19a7.9,7.9,0,0,1,3.77-10.5,7.81,7.81,0,0,1,3.36-.76,7.93,7.93,0,0,1,7.14,4.52,8.46,8.46,0,0,1,.44,1.17l9.25,32L999.35,211c.22.49.44,1,.67,1.47.09.19.19.39.29.58a7.74,7.74,0,0,1,.73,1.76c.62,2.64-1.93,3.34-2.77,3.57a9.19,9.19,0,0,0-3.35,1.79,5.7,5.7,0,0,0-.46.45A3.67,3.67,0,0,1,992,222.13Z"/><path class="cls-12" d="M965.89,137.4a6.89,6.89,0,0,1,6.23,3.95,7.46,7.46,0,0,1,.39,1l9.27,32.07-.18-.39.18.42v0l.73,1.63,2.37,5.27,3.29,7.3,3.66,8.12,3.48,7.74,2.77,6.15c.34.76.67,1.52,1,2.28a11.74,11.74,0,0,1,1,2.14c.36,1.54-.82,2-2.06,2.38a10.22,10.22,0,0,0-3.71,2c-.59.48-1.43,1.7-2.28,1.7a1,1,0,0,1-.68-.29,1.09,1.09,0,0,1-.24-1.29,18.27,18.27,0,0,1,4-5.06l-21-36.63-.18-.42-14.26-30.21a6.89,6.89,0,0,1,6.22-9.83m0-2h0a8.89,8.89,0,0,0-8,12.68l14.25,30.19.17.4.09.19,20.21,35.29a18.15,18.15,0,0,0-3.3,4.52,3.11,3.11,0,0,0,.69,3.66,3,3,0,0,0,2,.81,4.58,4.58,0,0,0,3.18-1.78c.13-.13.3-.31.36-.36a8.21,8.21,0,0,1,3-1.6c3.77-1,3.8-3.43,3.48-4.77a8.51,8.51,0,0,0-.81-2c-.09-.18-.19-.36-.27-.54-.23-.49-.44-1-.66-1.46l-.35-.79-1.38-3.07-1.38-3.07-.16-.35L993.65,196l-1.83-4.06L990,187.83l-1.64-3.65-1.64-3.65-2.37-5.27-.68-1.5-9.23-31.93a9.47,9.47,0,0,0-.5-1.33,8.93,8.93,0,0,0-8-5.1Z"/><circle class="cls-14" cx="137.39" cy="47.34" r="23.26"/><polyline class="cls-15" points="116.39 21.51 111.56 21.51 111.56 26.33"/><polyline class="cls-15" points="158.39 73.17 163.22 73.17 163.22 68.34"/><circle class="cls-16" cx="137.39" cy="47.34" r="17.74"/><rect class="cls-17" x="130.01" y="44.18" width="19.25" height="16.5" rx="3.06" ry="3.06"/><path class="cls-11" d="M137.94,53.81a3,3,0,0,0,1.76.76c.37,0,.77-.14.77-.59,0-.82-3.34-.9-3.34-3.11a2.23,2.23,0,0,1,2-2.19v-1h1.12v.94a3.22,3.22,0,0,1,1.88.8l-.76,1.47a2.81,2.81,0,0,0-1.62-.65c-.37,0-.78.17-.78.58,0,.87,3.34.81,3.34,3.08a2.26,2.26,0,0,1-2.06,2.24v.94H139.1v-.94a3.72,3.72,0,0,1-2.1-1Z"/><circle class="cls-18" cx="129.06" cy="46.95" r="3.88"/><path class="cls-18" d="M126.68,52.42h4.76a2.65,2.65,0,0,1,2.65,2.65v8.67a0,0,0,0,1,0,0H124a0,0,0,0,1,0,0V55.07A2.65,2.65,0,0,1,126.68,52.42Z"/><path class="cls-19" d="M129.06,41.52a.75.75,0,0,1-.53-.22L125,37.72a.75.75,0,0,1,.53-1.28h1V32.6a.75.75,0,0,1,.75-.75h3.71a.75.75,0,0,1,.75.75v3.84h1a.75.75,0,0,1,.53,1.28l-3.58,3.58a.75.75,0,0,1-.53.22Z"/><path class="cls-11" d="M130.91,32.6v4.59h1.72l-3.58,3.58-3.58-3.58h1.72V32.6h3.71m1.72,4.59h0m-1.73-6.09h-3.71a1.5,1.5,0,0,0-1.5,1.5v3.09h-.22a1.5,1.5,0,0,0-1.06,2.56L128,41.83a1.5,1.5,0,0,0,1.06.44h0a1.5,1.5,0,0,0,1.06-.44l3.54-3.54a1.5,1.5,0,0,0-1-2.6h-.23V32.6a1.5,1.5,0,0,0-1.5-1.5Z"/><text class="cls-20" transform="translate(177.14 42.24)">HOW<tspan class="cls-21" x="48.88" y="0" xml:space="preserve"> T</tspan><tspan x="65.93" y="0">O CALCUL</tspan><tspan class="cls-22" x="165.96" y="0">A</tspan><tspan x="177.81" y="0">TE</tspan><tspan x="0" y="21.22">COS</tspan><tspan class="cls-21" x="43.34" y="21.22">T</tspan><tspan x="55.2" y="21.22" xml:space="preserve"> PER LEAD </tspan></text><circle class="cls-14" cx="571.45" cy="47.34" r="23.26"/><polyline class="cls-23" points="550.45 21.51 545.62 21.51 545.62 26.33"/><polyline class="cls-23" points="592.45 73.17 597.28 73.17 597.28 68.34"/><circle class="cls-16" cx="571.45" cy="47.34" r="17.74"/><path class="cls-24" d="M587.38,41.44a1.63,1.63,0,0,0-1.25-.58H565.64l-.58-3.35a1.35,1.35,0,0,0-1.33-1.12h-7.25a1.35,1.35,0,1,0,0,2.7h6.11l2.66,15.35a3.77,3.77,0,1,0,5.19,4.72h7.22a3.77,3.77,0,1,0,5.2-4.7h1.46a1.63,1.63,0,0,0,1.61-1.36l1.79-10.32A1.63,1.63,0,0,0,587.38,41.44Zm-9.71,15h-7.22a3.78,3.78,0,0,0-1.82-2h10.87A3.78,3.78,0,0,0,577.66,56.46Z"/><line class="cls-25" x1="566.93" y1="57.81" x2="581.18" y2="57.81"/><path class="cls-26" d="M584.33,54.11H566.57L564.32,41.2h21.8a1.3,1.3,0,0,1,1.28,1.52L585.61,53A1.3,1.3,0,0,1,584.33,54.11Z"/><polyline class="cls-27" points="556.49 37.74 563.73 37.74 566.93 56.19"/><circle class="cls-25" cx="566.93" cy="57.81" r="2.43"/><circle class="cls-25" cx="581.18" cy="57.81" r="2.43"/><text class="cls-28" transform="translate(571.45 51.44)">$</text><text class="cls-20" transform="translate(612.49 42.24)">HOW<tspan class="cls-21" x="48.88" y="0" xml:space="preserve"> T</tspan><tspan x="65.93" y="0">O CALCUL</tspan><tspan class="cls-22" x="165.96" y="0">A</tspan><tspan x="177.81" y="0">TE</tspan><tspan x="0" y="21.22">COS</tspan><tspan class="cls-21" x="43.34" y="21.22">T</tspan><tspan x="55.2" y="21.22" xml:space="preserve"> PER SALE</tspan></text><text class="cls-29" transform="translate(152.81 135.33)">Cost<tspan x="-15.13" y="16">per Lead</tspan></text><text class="cls-30" transform="translate(303.59 116.33)">Cost of Marketing<tspan x="32.89" y="16">Channel</tspan></text><text class="cls-30" transform="translate(305.81 167)"># of Leads From <tspan x="-6.68" y="16">Marketing Channel</tspan></text><circle class="cls-31" cx="252.15" cy="140.5" r="20.5"/><text class="cls-32" transform="translate(244.41 147.58)">=</text><line class="cls-33" x1="284.51" y1="142.71" x2="449.51" y2="142.71"/><rect class="cls-34" x="119.18" y="109" width="100" height="60.33"/><text class="cls-29" transform="translate(584.81 131.33)">Cost<tspan x="-13.35" y="16">per Sale</tspan></text><text class="cls-30" transform="translate(735.59 112.33)">Cost of Marketing<tspan x="32.89" y="16">Channel</tspan></text><text class="cls-30" transform="translate(739.59 163)"># of Sales From <tspan x="-8.46" y="16">Marketing Channel</tspan></text><circle class="cls-31" cx="684.15" cy="136.5" r="20.5"/><text class="cls-32" transform="translate(676.41 143.58)">=</text><line class="cls-33" x1="716.51" y1="138.71" x2="881.51" y2="138.71"/><rect class="cls-34" x="551.18" y="105" width="100" height="60.33"/><line class="cls-35" x1="87.54" y1="85.21" x2="484" y2="85.21"/><line class="cls-35" x1="518.28" y1="85.21" x2="914.74" y2="85.21"/></g></g></svg>