<svg xmlns="http://www.w3.org/2000/svg" viewBox="0 0 346.76 201.62"><defs><style>.cls-1,.cls-3{fill:#fff;}.cls-2,.cls-5,.cls-6{fill:#0080b3;}.cls-3,.cls-4,.cls-7{stroke:#0080b3;}.cls-3{stroke-linecap:round;stroke-linejoin:round;}.cls-3,.cls-7,.cls-9{stroke-width:2px;}.cls-4,.cls-7,.cls-9{fill:none;stroke-miterlimit:10;}.cls-5{font-size:6.05px;}.cls-5,.cls-6{font-family:ArialMT, Arial;}.cls-6{font-size:15.96px;}.cls-8{fill:#95f050;}.cls-9{stroke:#0080b1;stroke-dasharray:5 8;}</style></defs><title>car-to-wrench</title><g id="Layer_2" data-name="Layer 2"><g id="Layer_1-2" data-name="Layer 1"><path class="cls-1" d="M112.58,183.72a10.76,10.76,0,0,1-.13-21.51h.13a10.8,10.8,0,0,1,10.75,10.63,10.76,10.76,0,0,1-10.63,10.88Z"/><path class="cls-2" d="M112.59,163.21a9.76,9.76,0,0,1,.11,19.51h-.12a9.76,9.76,0,0,1-.12-19.51h.12m0-2h-.14a11.76,11.76,0,0,0,.14,23.51h.14a11.76,11.76,0,0,0,11.61-11.9,11.8,11.8,0,0,0-11.75-11.61Z"/><path class="cls-1" d="M27.51,184.74a10.79,10.79,0,0,1-10.75-10.63,10.76,10.76,0,0,1,10.63-10.88h.13a10.76,10.76,0,0,1,.13,21.51Z"/><path class="cls-2" d="M27.52,164.23a9.76,9.76,0,0,1,.11,19.51h-.12a9.76,9.76,0,0,1-.11-19.51h.12m0-2h-.14a11.76,11.76,0,0,0,.14,23.51h.14a11.76,11.76,0,0,0,11.61-11.9,11.8,11.8,0,0,0-11.75-11.61Z"/><path class="cls-1" d="M11.11,175.18a8.81,8.81,0,0,1-7.41-3.39C-1,165.65,1.27,152.44,4,142.45c1.9-7,7.43-12.23,12.77-17.32,1.06-1,2.11-2,3.12-3a27,27,0,0,1,13.86-7.32h.13l45-.54c12.71,0,24.17,12.73,28.5,18.21,2.9,3.66,8.15,3.72,8.42,3.72h.31c1.26,0,6.11.2,15.86,2.71,11.38,2.94,10.6,12,10.46,13.15l.16,13.31c0,2.84-.68,5-2.12,6.47a6.74,6.74,0,0,1-4.73,1.89h-.4l-6.46.08a1,1,0,0,1-1-1c0-.62-.56-15.08-15.16-15.08h-.27c-4.43.05-7.94,1.39-10.44,4-4.36,4.52-4.25,11.36-4.25,11.43a1,1,0,0,1-1,1l-52,.63a1,1,0,0,1-1-.93c0-.59-1.27-14.54-16.1-14.54h-.29c-15,.18-15.08,14.26-15.07,14.86a1,1,0,0,1-1,1Z"/><path class="cls-2" d="M78.84,115.25c12.91,0,24.44,13.69,27.72,17.83s8.84,4.1,9.21,4.1h.31c1.17,0,5.93.18,15.61,2.68C143,142.77,141.39,152,141.39,152l.16,13.38c.08,6.85-4.51,7.36-5.85,7.36h-.37l-6.5.08s-.38-16.06-16.16-16.06h-.28c-16.06.19-15.67,16.44-15.67,16.44l-52,.63s-1.13-15.47-17.09-15.47h-.3c-16.25.2-16.06,15.87-16.06,15.87h-.15c-14,0-8.34-23.44-6.15-31.47s9.58-13.88,15.63-19.88a26.14,26.14,0,0,1,13.3-7l44.73-.54h.22m0-2H78.6l-44.73.54-.26,0a28,28,0,0,0-14.42,7.6c-1,1-2.07,2-3.11,3C10.63,129.59,5,134.95,3,142.18.24,152.4-2,165.93,2.9,172.4a9.76,9.76,0,0,0,8.21,3.78h.18a2,2,0,0,0,2-2c0-.55.08-13.68,14.09-13.85h.28c13.86,0,15.05,13.07,15.1,13.62a2,2,0,0,0,2,1.85h0l52-.63a2,2,0,0,0,2-2c0-.06-.07-6.55,4-10.73,2.31-2.38,5.57-3.61,9.71-3.66h.26c13.6,0,14.15,13.53,14.16,14.11a2,2,0,0,0,2,1.95h0l6.41-.08h.44a7.75,7.75,0,0,0,5.44-2.19c1.64-1.66,2.45-4.08,2.41-7.19l-.16-13.21c.58-3.88-1-11.57-11.21-14.2-9.86-2.55-14.82-2.75-16.11-2.75h-.33c-.41,0-5.06-.12-7.62-3.34-5.5-6.94-16.61-18.58-29.29-18.59Z"/><path class="cls-1" d="M33.62,121.59a19.25,19.25,0,0,1,4.44-.53h.51l26.17-.31.19,15.92-31.12.38Z"/><path class="cls-2" d="M63.74,121.78l.17,13.92-29.12.35-.16-13.65a18.83,18.83,0,0,1,3.43-.33h.59l25.1-.3m2-2-27.1.33h-.57a20.11,20.11,0,0,0-5.45.76l.21,17.24,33.12-.4-.22-17.92Z"/><path class="cls-1" d="M27.63,125.08a8.64,8.64,0,0,1,1.57-1.51l.16,13.55-13.65.16Z"/><path class="cls-2" d="M28.23,125.89l.12,10.23-10.23.12,10.11-10.36m2-4.11a9.85,9.85,0,0,0-3.27,2.59l-13.6,13.93,17.06-.21-.2-16.32Z"/><path class="cls-1" d="M69.17,120.71l9-.11h1.31c3.21,0,5.05.32,10.44,3.59,4.56,2.77,9.73,9.11,12,12.06l-32.59.39Z"/><path class="cls-2" d="M79.52,121.59c2.86,0,4.48.15,9.92,3.44,3.73,2.26,7.92,7,10.48,10.23l-29.56.36-.17-13.92,8-.1h1.3m0-2H78.19l-10,.12.22,17.92,35.56-.43s-7.2-10.09-13.46-13.89c-5.57-3.38-7.55-3.73-11-3.73Z"/><path class="cls-1" d="M112.58,176.45a3.49,3.49,0,1,1,3.49-3.53,3.5,3.5,0,0,1-3.49,3.53Z"/><path class="cls-2" d="M112.58,170.48a2.49,2.49,0,0,1,0,5h0a2.49,2.49,0,0,1,0-5h0m0-2h-.05a4.49,4.49,0,0,0,.05,9h.05a4.49,4.49,0,0,0,4.43-4.54,4.5,4.5,0,0,0-4.48-4.43Z"/><path class="cls-1" d="M27.51,177.47A3.49,3.49,0,1,1,31,173.95a3.49,3.49,0,0,1-3.44,3.53Z"/><path class="cls-2" d="M27.51,171.5a2.49,2.49,0,0,1,0,5h0a2.49,2.49,0,0,1,0-5h0m0-2h-.05a4.49,4.49,0,0,0,.05,9h.05a4.49,4.49,0,0,0-.05-9Z"/><circle class="cls-3" cx="197.72" cy="45.59" r="44.59"/><circle class="cls-3" cx="219" cy="156.03" r="44.59"/><circle class="cls-3" cx="301.17" cy="81.97" r="44.59"/><polygon class="cls-3" points="290.22 50.67 294.66 62.69 306.68 67.14 294.66 71.58 290.22 83.6 285.77 71.58 273.76 67.14 285.77 62.69 290.22 50.67"/><polygon class="cls-3" points="318.73 61.88 323.17 73.9 335.19 78.34 323.17 82.79 318.73 94.81 314.28 82.79 302.26 78.34 314.28 73.9 318.73 61.88"/><polygon class="cls-3" points="298.76 83.6 303.2 95.61 315.22 100.06 303.2 104.5 298.76 116.52 294.31 104.5 282.3 100.06 294.31 95.61 298.76 83.6"/><path class="cls-2" d="M246.46,140.93a1.3,1.3,0,0,1,1.3,1.3v27.61a1.3,1.3,0,0,1-1.3,1.3h-55a1.3,1.3,0,0,1-1.3-1.3V142.22a1.3,1.3,0,0,1,1.3-1.3h55m0-2h-55a3.3,3.3,0,0,0-3.3,3.3v27.61a3.3,3.3,0,0,0,3.3,3.3h55a3.3,3.3,0,0,0,3.3-3.3V142.22a3.3,3.3,0,0,0-3.3-3.3Z"/><rect class="cls-4" x="192.79" y="143.52" width="52.38" height="25.02"/><text class="cls-5" transform="translate(210.76 151.02)">YEAR</text><text class="cls-6" transform="translate(201.95 164.96)">2009</text><rect class="cls-2" x="208.63" y="149.24" width="0.82" height="0.93"/><rect class="cls-2" x="207.19" y="149.24" width="0.82" height="0.93"/><rect class="cls-2" x="205.75" y="149.24" width="0.82" height="0.93"/><rect class="cls-2" x="197.52" y="149.3" width="7.35" height="0.89"/><rect class="cls-2" x="196.07" y="149.24" width="0.82" height="0.93"/><rect class="cls-2" x="194.63" y="149.24" width="0.82" height="0.93"/><rect class="cls-2" x="193.19" y="149.24" width="0.82" height="0.93"/><rect class="cls-2" x="243.68" y="149.24" width="0.82" height="0.93"/><rect class="cls-2" x="242.24" y="149.24" width="0.82" height="0.93"/><rect class="cls-2" x="240.79" y="149.24" width="0.82" height="0.93"/><rect class="cls-2" x="232.57" y="149.3" width="7.35" height="0.89"/><rect class="cls-2" x="231.12" y="149.24" width="0.82" height="0.93"/><rect class="cls-2" x="229.68" y="149.24" width="0.82" height="0.93"/><rect class="cls-2" x="228.24" y="149.24" width="0.82" height="0.93"/><path class="cls-7" d="M212.14,16c.45.16.91.32,1.09.84a1.31,1.31,0,0,1-.37,1.47q-3.34,3.34-6.68,6.67a.51.51,0,0,0-.16.6c.77,2.4,1.53,4.81,2.31,7.21a.64.64,0,0,0,.37.35l7.13,2.27a.57.57,0,0,0,.68-.18q3.32-3.35,6.67-6.67a1.27,1.27,0,0,1,2.22.85,14.47,14.47,0,0,1-14.9,15.56,14.08,14.08,0,0,1-4.35-.8.49.49,0,0,0-.6.17l-6.15,6.63-6,6.45L187,64.29c-1.18,1.27-2.35,2.56-3.54,3.83a7.06,7.06,0,0,1-12-6.67,7.16,7.16,0,0,1,2.12-3.38l6.9-6.5,8.07-7.6q4.32-4.07,8.64-8.15a.53.53,0,0,0,.1-.66,14.3,14.3,0,0,1-.7-6.26,14.45,14.45,0,0,1,8-11.42A13.93,13.93,0,0,1,209.58,16,3.12,3.12,0,0,0,210,16ZM177.82,61a2.61,2.61,0,1,0,0,5.22,2.61,2.61,0,0,0,0-5.22Z"/><polygon class="cls-3" points="82.41 114.15 28.98 114.15 41.08 43.39 94.52 43.39 82.41 114.15"/><path class="cls-8" d="M48.15,95.19q-2.81-3.33-2.7-10.11h7.61Q53,88.8,54.21,90.5a5.26,5.26,0,0,0,3.47,2.08l2.22-11.45-.61-.22q-2.06-.72-3.92-1.5a11.26,11.26,0,0,1-3.22-2,8.83,8.83,0,0,1-2.17-3,11.28,11.28,0,0,1-.81-4.58,10.69,10.69,0,0,1,4.58-9.14,14.44,14.44,0,0,1,4.81-2.17,22.6,22.6,0,0,1,5.61-.69h.17l.89-4.39h2.67L67,58.18a15.18,15.18,0,0,1,3.92,1.39A10.61,10.61,0,0,1,74,62a10.11,10.11,0,0,1,2,3.56,12,12,0,0,1,.44,4.72H68.8A5.65,5.65,0,0,0,68,66.68a5.49,5.49,0,0,0-2.36-1.89L63.8,74.63q2.11.67,4.06,1.42a11.79,11.79,0,0,1,3.42,2,8.9,8.9,0,0,1,2.33,3.14A11.72,11.72,0,0,1,74.47,86a12.68,12.68,0,0,1-1.36,6.09,12.39,12.39,0,0,1-3.53,4.14,14.17,14.17,0,0,1-4.92,2.33,21.72,21.72,0,0,1-5.53.72l-.94,4.84H55.46l1-5Q51,98.53,48.15,95.19Zm14.53-30.9a7.11,7.11,0,0,0-2,.31,6.78,6.78,0,0,0-1.89.89A4.77,4.77,0,0,0,57.35,67a4.16,4.16,0,0,0-.56,2.19A3.5,3.5,0,0,0,58.1,72.1a10.16,10.16,0,0,0,3.2,1.64l1.78-9.45ZM62.6,92.55a6.17,6.17,0,0,0,2.08-1,5.32,5.32,0,0,0,2.17-4.47,4.56,4.56,0,0,0-.39-1.95,4.45,4.45,0,0,0-1-1.42,7,7,0,0,0-1.42-1q-.78-.42-1.56-.75L60.35,92.86A8.68,8.68,0,0,0,62.6,92.55Z"/><line class="cls-3" x1="94.52" y1="43.39" x2="115.79" y2="137.17"/><line class="cls-9" x1="131.69" y1="139.85" x2="171.16" y2="81.41"/><polyline class="cls-9" points="256.58 81.97 131.69 139.85 175.22 150.17"/></g></g></svg>