<svg xmlns="http://www.w3.org/2000/svg" viewBox="0 0 338.84 145.27"><defs><style>.cls-1,.cls-3{fill:#fff;}.cls-2{fill:#0080b3;}.cls-3{stroke:#0080b3;stroke-linecap:round;stroke-linejoin:round;stroke-width:2px;}.cls-4,.cls-6{fill:#95f050;}.cls-5{opacity:0.61;}.cls-6{font-size:37.11px;}.cls-6,.cls-8,.cls-9{font-family:ArialMT, Arial;}.cls-7{letter-spacing:-0.07em;}.cls-8{font-size:31.32px;}.cls-8,.cls-9{fill:#10ace8;}.cls-9{font-size:19.05px;}.cls-10{fill:#005379;}</style></defs><title>car-sign</title><g id="Layer_2" data-name="Layer 2"><g id="Layer_1-2" data-name="Layer 1"><path class="cls-1" d="M112.58,143.25a10.76,10.76,0,0,1-.13-21.51h.13a10.8,10.8,0,0,1,10.75,10.63,10.76,10.76,0,0,1-10.63,10.88Z"/><path class="cls-2" d="M112.59,122.74a9.76,9.76,0,0,1,.11,19.51h-.12a9.76,9.76,0,0,1-.12-19.51h.12m0-2h-.14a11.76,11.76,0,0,0,.14,23.51h.14a11.76,11.76,0,0,0,11.61-11.9,11.8,11.8,0,0,0-11.75-11.61Z"/><path class="cls-1" d="M27.51,144.27a10.79,10.79,0,0,1-10.75-10.63,10.76,10.76,0,0,1,10.63-10.88h.13a10.76,10.76,0,0,1,.13,21.51Z"/><path class="cls-2" d="M27.51,123.76a9.76,9.76,0,0,1,.12,19.51h-.12a9.76,9.76,0,0,1-.12-19.51h.12m0-2h-.14a11.76,11.76,0,0,0,.14,23.51h.14a11.76,11.76,0,0,0,11.61-11.9,11.8,11.8,0,0,0-11.75-11.61Z"/><path class="cls-1" d="M11.11,134.71a8.81,8.81,0,0,1-7.41-3.39C-1,125.17,1.27,112,4,102c1.9-7,7.43-12.23,12.77-17.32,1.06-1,2.11-2,3.12-3a27,27,0,0,1,13.86-7.32h.13l45-.54c12.71,0,24.17,12.73,28.5,18.21,2.9,3.66,8.15,3.72,8.42,3.72h.31c1.26,0,6.11.2,15.86,2.71,11.38,2.94,10.6,12,10.46,13.15l.16,13.31c0,2.84-.68,5-2.12,6.47a6.74,6.74,0,0,1-4.73,1.89h-.4l-6.46.08a1,1,0,0,1-1-1c0-.62-.56-15.08-15.16-15.08h-.27c-4.43.05-7.94,1.39-10.44,4-4.36,4.52-4.25,11.36-4.25,11.43a1,1,0,0,1-1,1l-52,.63a1,1,0,0,1-1-.93c0-.59-1.27-14.54-16.1-14.54h-.29c-15,.18-15.08,14.26-15.07,14.86a1,1,0,0,1-1,1Z"/><path class="cls-2" d="M78.84,74.78c12.91,0,24.44,13.69,27.72,17.83s8.84,4.1,9.21,4.1h.31c1.17,0,5.93.18,15.61,2.68,11.32,2.92,9.71,12.12,9.71,12.12l.16,13.38c.08,6.85-4.51,7.35-5.85,7.35h-.37l-6.5.08s-.38-16.06-16.16-16.06h-.28c-16.06.19-15.67,16.44-15.67,16.44l-52,.63s-1.13-15.47-17.09-15.47h-.3c-16.25.2-16.06,15.87-16.06,15.87h-.15c-14,0-8.34-23.44-6.15-31.47s9.58-13.88,15.63-19.88a26.14,26.14,0,0,1,13.3-7l44.73-.54h.22m0-2H78.6l-44.73.54-.26,0a28,28,0,0,0-14.42,7.6c-1,1-2.07,2-3.11,3C10.63,89.12,5,94.48,3,101.71.24,111.93-2,125.46,2.9,131.93a9.76,9.76,0,0,0,8.21,3.78h.18a2,2,0,0,0,2-2c0-.55.08-13.68,14.08-13.85h.28c13.95,0,15.06,13.06,15.1,13.62a2,2,0,0,0,2,1.85h0l52-.63a2,2,0,0,0,2-2c0-.06-.07-6.55,4-10.73,2.31-2.38,5.57-3.61,9.71-3.66h.26c13.6,0,14.15,13.53,14.16,14.11a2,2,0,0,0,2,1.95h0l6.41-.08h.44a7.75,7.75,0,0,0,5.44-2.19c1.64-1.66,2.45-4.08,2.41-7.19l-.16-13.21c.58-3.88-1-11.57-11.21-14.2-9.86-2.55-14.82-2.75-16.11-2.75h-.33c-.41,0-5.06-.12-7.62-3.34-5.5-6.94-16.62-18.59-29.29-18.59Z"/><path class="cls-1" d="M33.62,81.12a19.25,19.25,0,0,1,4.44-.53h.51l26.17-.31.19,15.92-31.12.38Z"/><path class="cls-2" d="M63.74,81.31l.17,13.92-29.12.35-.16-13.65a18.81,18.81,0,0,1,3.43-.33h.59l25.1-.3m2-2-27.1.33h-.57a20.09,20.09,0,0,0-5.45.76l.21,17.24,33.12-.4-.22-17.92Z"/><path class="cls-1" d="M27.63,84.61a8.64,8.64,0,0,1,1.57-1.51l.16,13.55-13.65.16Z"/><path class="cls-2" d="M28.23,85.42l.12,10.23-10.23.12L28.23,85.42m2-4.11a9.85,9.85,0,0,0-3.27,2.59L13.32,97.84l17.06-.21-.2-16.32Z"/><path class="cls-1" d="M69.17,80.24l9-.11h1.31c3.21,0,5.05.32,10.44,3.59,4.56,2.77,9.73,9.11,12,12.06l-32.59.39Z"/><path class="cls-2" d="M79.52,81.12h0c2.86,0,4.48.15,9.92,3.44,3.73,2.26,7.92,7,10.48,10.23l-29.56.36-.17-13.92,8-.1h1.3m0-2H78.19l-10,.12.22,17.92,35.56-.43s-7.2-10.09-13.46-13.89c-5.57-3.38-7.55-3.73-11-3.73Z"/><path class="cls-1" d="M112.58,136a3.49,3.49,0,1,1,3.49-3.53,3.5,3.5,0,0,1-3.49,3.53Z"/><path class="cls-2" d="M112.58,130a2.49,2.49,0,0,1,0,5h0a2.49,2.49,0,0,1,0-5h0m0-2h-.05a4.49,4.49,0,0,0,.05,9h.05a4.49,4.49,0,0,0,4.43-4.54,4.5,4.5,0,0,0-4.48-4.43Z"/><path class="cls-1" d="M27.51,137A3.49,3.49,0,1,1,31,133.48,3.5,3.5,0,0,1,27.51,137Z"/><path class="cls-2" d="M27.51,131a2.49,2.49,0,0,1,0,5h0a2.49,2.49,0,0,1,0-5h0m0-2h-.05a4.49,4.49,0,0,0,.05,9h.05a4.49,4.49,0,0,0-.05-9Z"/><polygon class="cls-3" points="82.41 73.68 28.98 73.68 41.08 2.92 94.52 2.92 82.41 73.68"/><path class="cls-4" d="M48.15,54.72q-2.81-3.33-2.7-10.11h7.61Q53,48.33,54.21,50a5.26,5.26,0,0,0,3.47,2.08l2.22-11.45-.61-.22q-2.06-.72-3.92-1.5a11.26,11.26,0,0,1-3.22-2,8.83,8.83,0,0,1-2.17-3,11.28,11.28,0,0,1-.81-4.58,10.69,10.69,0,0,1,4.58-9.14A14.44,14.44,0,0,1,58.57,18a22.6,22.6,0,0,1,5.61-.69h.17l.89-4.39h2.67L67,17.71a15.18,15.18,0,0,1,3.92,1.39A10.61,10.61,0,0,1,74,21.54a10.11,10.11,0,0,1,2,3.56,12,12,0,0,1,.44,4.72H68.8A5.65,5.65,0,0,0,68,26.21a5.49,5.49,0,0,0-2.36-1.89L63.8,34.16q2.11.67,4.06,1.42a11.79,11.79,0,0,1,3.42,2,8.9,8.9,0,0,1,2.33,3.14,11.72,11.72,0,0,1,.86,4.83,12.68,12.68,0,0,1-1.36,6.09,12.39,12.39,0,0,1-3.53,4.14,14.17,14.17,0,0,1-4.92,2.33,21.72,21.72,0,0,1-5.53.72l-.94,4.84H55.46l1-5Q51,58.06,48.15,54.72Zm14.53-30.9a7.11,7.11,0,0,0-2,.31,6.78,6.78,0,0,0-1.89.89,4.77,4.77,0,0,0-1.42,1.5,4.16,4.16,0,0,0-.56,2.19,3.5,3.5,0,0,0,1.31,2.92,10.16,10.16,0,0,0,3.2,1.64l1.78-9.45ZM62.6,52.08a6.17,6.17,0,0,0,2.08-1,5.32,5.32,0,0,0,2.17-4.47,4.56,4.56,0,0,0-.39-1.95,4.45,4.45,0,0,0-1-1.42,7,7,0,0,0-1.42-1q-.78-.42-1.56-.75L60.35,52.39A8.68,8.68,0,0,0,62.6,52.08Z"/><line class="cls-3" x1="94.52" y1="2.92" x2="115.78" y2="96.7"/><g class="cls-5"><text class="cls-6" transform="translate(158.55 77.62)">$<tspan class="cls-7" x="20.64" y="0">1</tspan><tspan x="38.52" y="0">1,100</tspan></text><text class="cls-8" transform="translate(159.99 103.94)">xxx xxxxx</text><text class="cls-9" transform="translate(159.99 16.35)">POWER WINDOWS <tspan x="0" y="22.86">AND DOORS</tspan></text><rect class="cls-10" x="175.92" y="112.45" width="7.81" height="2.24"/><rect class="cls-10" x="185.3" y="112.5" width="2.05" height="2.33"/><rect class="cls-10" x="188.91" y="112.5" width="2.05" height="2.33"/><rect class="cls-10" x="192.53" y="112.5" width="2.05" height="2.33"/><rect class="cls-10" x="196.77" y="112.45" width="18.42" height="2.24"/><rect class="cls-10" x="216.76" y="112.5" width="2.05" height="2.33"/><rect class="cls-10" x="220.38" y="112.5" width="2.05" height="2.33"/><rect class="cls-10" x="223.99" y="112.5" width="2.05" height="2.33"/><rect class="cls-10" x="228.23" y="112.45" width="18.42" height="2.24"/><rect class="cls-10" x="248.22" y="112.5" width="2.05" height="2.33"/><rect class="cls-10" x="251.84" y="112.5" width="2.05" height="2.33"/><rect class="cls-10" x="255.45" y="112.5" width="2.05" height="2.33"/><rect class="cls-10" x="259" y="112.45" width="3.95" height="2.24"/><rect class="cls-10" x="264.02" y="112.5" width="2.05" height="2.33"/><rect class="cls-10" x="267.64" y="112.5" width="2.05" height="2.33"/><rect class="cls-10" x="271.25" y="112.5" width="2.05" height="2.33"/><rect class="cls-10" x="265.49" y="118.58" width="7.81" height="2.24"/><rect class="cls-10" x="261.87" y="118.43" width="2.05" height="2.33" transform="translate(525.78 239.2) rotate(180)"/><rect class="cls-10" x="258.25" y="118.43" width="2.05" height="2.33" transform="translate(518.56 239.2) rotate(180)"/><rect class="cls-10" x="254.64" y="118.43" width="2.05" height="2.33" transform="translate(511.33 239.2) rotate(180)"/><rect class="cls-10" x="234.03" y="118.58" width="18.42" height="2.24"/><rect class="cls-10" x="230.41" y="118.43" width="2.05" height="2.33" transform="translate(462.86 239.2) rotate(180)"/><rect class="cls-10" x="226.79" y="118.43" width="2.05" height="2.33" transform="translate(455.63 239.2) rotate(180)"/><rect class="cls-10" x="223.18" y="118.43" width="2.05" height="2.33" transform="translate(448.41 239.2) rotate(180)"/><rect class="cls-10" x="202.56" y="118.58" width="18.42" height="2.24"/><rect class="cls-10" x="198.94" y="118.43" width="2.05" height="2.33" transform="translate(399.94 239.2) rotate(180)"/><rect class="cls-10" x="195.33" y="118.43" width="2.05" height="2.33" transform="translate(392.71 239.2) rotate(180)"/><rect class="cls-10" x="191.72" y="118.43" width="2.05" height="2.33" transform="translate(385.48 239.2) rotate(180)"/><rect class="cls-10" x="186.26" y="118.58" width="3.95" height="2.24"/><rect class="cls-10" x="183.14" y="118.43" width="2.05" height="2.33" transform="translate(368.34 239.2) rotate(180)"/><rect class="cls-10" x="179.53" y="118.43" width="2.05" height="2.33" transform="translate(361.11 239.2) rotate(180)"/><rect class="cls-10" x="175.92" y="118.43" width="2.05" height="2.33" transform="translate(353.88 239.2) rotate(180)"/><rect class="cls-10" x="175.92" y="125.2" width="7.81" height="2.24"/><rect class="cls-10" x="185.3" y="125.24" width="2.05" height="2.33"/><rect class="cls-10" x="188.91" y="125.24" width="2.05" height="2.33"/><rect class="cls-10" x="192.53" y="125.24" width="2.05" height="2.33"/><rect class="cls-10" x="196.77" y="125.2" width="18.42" height="2.24"/><rect class="cls-10" x="216.76" y="125.24" width="2.05" height="2.33"/><rect class="cls-10" x="220.38" y="125.24" width="2.05" height="2.33"/><rect class="cls-10" x="223.99" y="125.24" width="2.05" height="2.33"/><rect class="cls-10" x="228.23" y="125.2" width="18.42" height="2.24"/><rect class="cls-10" x="248.22" y="125.24" width="2.05" height="2.33"/><rect class="cls-10" x="251.84" y="125.24" width="2.05" height="2.33"/><rect class="cls-10" x="255.45" y="125.24" width="2.05" height="2.33"/><rect class="cls-10" x="259" y="125.2" width="3.95" height="2.24"/><rect class="cls-10" x="264.02" y="125.24" width="2.05" height="2.33"/><rect class="cls-10" x="267.64" y="125.24" width="2.05" height="2.33"/><rect class="cls-10" x="271.25" y="125.24" width="2.05" height="2.33"/><rect class="cls-10" x="265.49" y="131.32" width="7.81" height="2.24"/><rect class="cls-10" x="261.87" y="131.18" width="2.05" height="2.33" transform="translate(525.78 264.69) rotate(180)"/><rect class="cls-10" x="258.25" y="131.18" width="2.05" height="2.33" transform="translate(518.56 264.69) rotate(180)"/><rect class="cls-10" x="254.64" y="131.18" width="2.05" height="2.33" transform="translate(511.33 264.69) rotate(180)"/><rect class="cls-10" x="234.03" y="131.32" width="18.42" height="2.24"/><rect class="cls-10" x="230.41" y="131.18" width="2.05" height="2.33" transform="translate(462.86 264.69) rotate(180)"/><rect class="cls-10" x="226.79" y="131.18" width="2.05" height="2.33" transform="translate(455.63 264.69) rotate(180)"/><rect class="cls-10" x="223.18" y="131.18" width="2.05" height="2.33" transform="translate(448.41 264.69) rotate(180)"/><rect class="cls-10" x="202.56" y="131.32" width="18.42" height="2.24"/><rect class="cls-10" x="198.94" y="131.18" width="2.05" height="2.33" transform="translate(399.94 264.69) rotate(180)"/><rect class="cls-10" x="195.33" y="131.18" width="2.05" height="2.33" transform="translate(392.71 264.69) rotate(180)"/><rect class="cls-10" x="191.72" y="131.18" width="2.05" height="2.33" transform="translate(385.48 264.69) rotate(180)"/><rect class="cls-10" x="186.26" y="131.32" width="3.95" height="2.24"/><rect class="cls-10" x="183.14" y="131.18" width="2.05" height="2.33" transform="translate(368.34 264.69) rotate(180)"/><rect class="cls-10" x="179.53" y="131.18" width="2.05" height="2.33" transform="translate(361.11 264.69) rotate(180)"/><rect class="cls-10" x="175.92" y="131.18" width="2.05" height="2.33" transform="translate(353.88 264.69) rotate(180)"/></g></g></g></svg>