<svg xmlns="http://www.w3.org/2000/svg" xmlns:xlink="http://www.w3.org/1999/xlink" viewBox="0 0 603.23 240.58"><defs><style>.cls-1{isolation:isolate;}.cls-2{fill:#005379;}.cls-10,.cls-12,.cls-13,.cls-19,.cls-3{fill:#0080b1;}.cls-20,.cls-21,.cls-22,.cls-4,.cls-6{fill:#fff;}.cls-10,.cls-11,.cls-12,.cls-13,.cls-17,.cls-18,.cls-19,.cls-5,.cls-7,.cls-8,.cls-9{stroke:#fff;}.cls-12,.cls-15,.cls-17,.cls-18,.cls-19,.cls-5,.cls-6,.cls-7,.cls-8,.cls-9{stroke-miterlimit:10;}.cls-10,.cls-11,.cls-12,.cls-15,.cls-17,.cls-5,.cls-6,.cls-7,.cls-8,.cls-9{stroke-width:2px;}.cls-5{fill:url(#Degradado_sin_nombre_15);}.cls-6{opacity:0.3;stroke:url(#Degradado_sin_nombre_15-2);}.cls-7{fill:url(#Degradado_sin_nombre_15-3);}.cls-8{fill:url(#Degradado_sin_nombre_15-4);}.cls-9{fill:url(#Degradado_sin_nombre_15-5);}.cls-10,.cls-11,.cls-13{stroke-linecap:round;stroke-linejoin:round;}.cls-11,.cls-15,.cls-17,.cls-18{fill:none;}.cls-14{opacity:0.35;mix-blend-mode:multiply;}.cls-15{stroke:#000;}.cls-16{fill:url(#Degradado_sin_nombre_15-6);}.cls-20,.cls-22{font-size:15.87px;}.cls-20,.cls-21{font-family:ArialMT, Arial;}.cls-21{font-size:13.39px;}.cls-22{font-family:Arial-ItalicMT, Arial;font-style:italic;}.cls-23{letter-spacing:-0.07em;}</style><linearGradient id="Degradado_sin_nombre_15" x1="34.65" y1="144.08" x2="133.49" y2="144.08" gradientUnits="userSpaceOnUse"><stop offset="0" stop-color="#0080b1"/><stop offset="1" stop-color="#006e99"/></linearGradient><linearGradient id="Degradado_sin_nombre_15-2" x1="43.94" y1="143.93" x2="124.95" y2="143.93" xlink:href="#Degradado_sin_nombre_15"/><linearGradient id="Degradado_sin_nombre_15-3" x1="23.1" y1="144.51" x2="37.2" y2="144.51" xlink:href="#Degradado_sin_nombre_15"/><linearGradient id="Degradado_sin_nombre_15-4" x1="63.03" y1="200.68" x2="112.75" y2="200.68" xlink:href="#Degradado_sin_nombre_15"/><linearGradient id="Degradado_sin_nombre_15-5" x1="54.22" y1="206.51" x2="112.75" y2="206.51" xlink:href="#Degradado_sin_nombre_15"/><linearGradient id="Degradado_sin_nombre_15-6" x1="569.08" y1="193.01" x2="602.23" y2="193.01" xlink:href="#Degradado_sin_nombre_15"/></defs><title>car-selection</title><g class="cls-1"><g id="Layer_2" data-name="Layer 2"><g id="Layer_1-2" data-name="Layer 1"><path class="cls-2" d="M298.62,214.73c-22.68-5.11-18.29-24.62-41-29.74s-27.08,14.4-49.77,9.28-18.29-24.62-41-29.74-30.41,18.14-51.65,8.66c-4.57-2,14.07-14.14,14.07-19.15s-20-5-20-10,20-5,20-10S109,119.67,112.81,116.4c20.12-17.3,34.27,1.78,56.66-12.46s11.65-31.11,34-45.35S236.64,61.22,259,47s11.66-31.12,34-45.36"/><path class="cls-3" d="M131.48,147.23a1.79,1.79,0,0,1-.7-.15,1.66,1.66,0,0,1-1-1.09,2.11,2.11,0,0,1,.15-1.38l.15-.36a7.33,7.33,0,0,1-1.22-1,5.2,5.2,0,0,1-1.21-2.06,5.9,5.9,0,0,1-.31-1.71,3.79,3.79,0,0,1,.26-1.58,2.38,2.38,0,0,1,1.32-1.3,2.39,2.39,0,0,1,1.87,0,2.38,2.38,0,0,1,1.51,2.36l.58-1.38c-.53-.43-1-.81-1.3-1.13a5.76,5.76,0,0,1-1.26-1.76,5.34,5.34,0,0,1-.52-2.23,5.8,5.8,0,0,1,.47-2.34,6.14,6.14,0,0,1,1.82-2.43,5.89,5.89,0,0,1,2.89-1.24,6.49,6.49,0,0,1,.95-.07,7.48,7.48,0,0,1,1.58.18l.78-1.85a3.56,3.56,0,0,1,.74-1.2,1.46,1.46,0,0,1,1-.42,1.82,1.82,0,0,1,.71.15,1.61,1.61,0,0,1,1,1.2,2.38,2.38,0,0,1-.21,1.36l-.88,2.09a7.74,7.74,0,0,1,1.43,1.24,6.64,6.64,0,0,1,1.28,2.09,6.05,6.05,0,0,1,.4,2.13,5,5,0,0,1-.38,1.92,2.41,2.41,0,0,1-1.32,1.29,2.46,2.46,0,0,1-1,.2,2.55,2.55,0,0,1-1-.21,2.52,2.52,0,0,1-1.17-.94,2.26,2.26,0,0,1-.35-1.46,13.85,13.85,0,0,0,.06-1.42s0-.05,0-.08l-1.06,2.52a13.7,13.7,0,0,1,1.57,1.54A5.69,5.69,0,0,1,137,145.4a5.56,5.56,0,0,1-2.12.4,7.55,7.55,0,0,1-1.63-.19l-.14.32A1.8,1.8,0,0,1,131.48,147.23Zm3.7-6.11a1.47,1.47,0,0,0,.23-.39,1.38,1.38,0,0,0,.12-.43Zm.47-10.2a1.39,1.39,0,0,0-.73.75,1,1,0,0,0-.05.86l.1.18.77-1.82Z"/><path class="cls-4" d="M140.09,124.11a.84.84,0,0,1,.32.07.65.65,0,0,1,.44.46,1.46,1.46,0,0,1-.15.79l-1.21,2.88a7.31,7.31,0,0,1,1.93,1.51,5.6,5.6,0,0,1,1.09,1.77,5,5,0,0,1,.34,1.77,4,4,0,0,1-.3,1.54,1.4,1.4,0,0,1-.79.75,1.45,1.45,0,0,1-.57.12,1.68,1.68,0,0,1-1.32-.69,1.25,1.25,0,0,1-.19-.82,14.65,14.65,0,0,0,.06-1.55,2.8,2.8,0,0,0-.29-1.12,3.12,3.12,0,0,0-.9-1.07l-2.09,5a14.13,14.13,0,0,1,2,1.89,4.36,4.36,0,0,1,1,2,5,5,0,0,1-2.81,5.07,4.54,4.54,0,0,1-1.74.33,7.23,7.23,0,0,1-2.21-.38l-.48,1.13q-.29.68-.74.68a.79.79,0,0,1-.31-.07q-.68-.29-.31-1.16l.49-1.15a7.24,7.24,0,0,1-1.76-1.29,4.19,4.19,0,0,1-1-1.67,4.92,4.92,0,0,1-.27-1.43,2.8,2.8,0,0,1,.18-1.17,1.37,1.37,0,0,1,.78-.76,1.48,1.48,0,0,1,2,1.71,2.62,2.62,0,0,0,.95,2.48l1.87-4.44q-1.17-.92-1.83-1.55a4.73,4.73,0,0,1-1-1.45,4.33,4.33,0,0,1-.43-1.83,4.78,4.78,0,0,1,.4-1.94,5.14,5.14,0,0,1,1.53-2,4.89,4.89,0,0,1,2.41-1,5.55,5.55,0,0,1,.81-.06,7,7,0,0,1,2.17.37l1.12-2.65a2.73,2.73,0,0,1,.51-.87.47.47,0,0,1,.34-.14m-4.81,10.4,2-4.67a4.1,4.1,0,0,0-.83-.09,2.79,2.79,0,0,0-1.2.25,2.38,2.38,0,0,0-1.22,1.27,2,2,0,0,0,0,1.67,5,5,0,0,0,1.32,1.57m-1.07,7.86a3.4,3.4,0,0,0,1.06-.15,2.15,2.15,0,0,0,1.13-2.58,4.68,4.68,0,0,0-1.1-1.39l-1.72,4.08a5.76,5.76,0,0,0,.63,0m5.89-20.26a2.47,2.47,0,0,0-1.73.7,4.48,4.48,0,0,0-1,1.52l-.47,1.12a8.1,8.1,0,0,0-1-.06,7.58,7.58,0,0,0-1.1.08,6.89,6.89,0,0,0-3.37,1.45,7.14,7.14,0,0,0-2.12,2.82,6.79,6.79,0,0,0-.55,2.74,6.34,6.34,0,0,0,.62,2.67l.14.28a3.46,3.46,0,0,0-1,.25,3.35,3.35,0,0,0-1.87,1.83,4.79,4.79,0,0,0-.34,2,6.94,6.94,0,0,0,.37,2,6.15,6.15,0,0,0,1.43,2.41,7.63,7.63,0,0,0,.73.67,2.92,2.92,0,0,0-.05,1.64A2.64,2.64,0,0,0,130.4,148a2.78,2.78,0,0,0,1.08.23,2.7,2.7,0,0,0,2.39-1.5,8,8,0,0,0,1,.07,6.55,6.55,0,0,0,2.5-.48,6.94,6.94,0,0,0,4-7.3,6.47,6.47,0,0,0-.37-1.25h.14a3.44,3.44,0,0,0,1.34-.28,3.39,3.39,0,0,0,1.85-1.82,6,6,0,0,0,.45-2.3,7,7,0,0,0-.46-2.48,7.61,7.61,0,0,0-1.46-2.4,8.19,8.19,0,0,0-1-.91l.58-1.37a3.33,3.33,0,0,0,.27-1.93,2.63,2.63,0,0,0-1.63-1.94,2.83,2.83,0,0,0-1.1-.23Z"/><path class="cls-3" d="M10.75,111.17A1.74,1.74,0,0,1,9,109.58L9,109.2H8.85a7.28,7.28,0,0,1-1.46-.14,5.2,5.2,0,0,1-2.16-1A5.89,5.89,0,0,1,4,106.82a3.81,3.81,0,0,1-.68-1.45,2.37,2.37,0,0,1,.35-1.82,2.4,2.4,0,0,1,1.55-1.05,2.81,2.81,0,0,1,.56-.06,2.37,2.37,0,0,1,2,1.15l-.3-1.47c-.68-.05-1.25-.12-1.72-.2a5.75,5.75,0,0,1-2-.74,5.32,5.32,0,0,1-1.69-1.55,5.8,5.8,0,0,1-.93-2.2,6.16,6.16,0,0,1,.13-3,5.9,5.9,0,0,1,1.68-2.66,7.12,7.12,0,0,1,2.15-1.35l-.41-2A3.55,3.55,0,0,1,4.61,87,1.54,1.54,0,0,1,5.9,85.83a2.06,2.06,0,0,1,.42,0,1.54,1.54,0,0,1,1.12.45A2.37,2.37,0,0,1,8,87.48l.46,2.22h0a7.63,7.63,0,0,1,1.85.22,6.61,6.61,0,0,1,2.23,1,6.07,6.07,0,0,1,1.53,1.53,5,5,0,0,1,.78,1.8A2.41,2.41,0,0,1,14.56,96a2.45,2.45,0,0,1-1.61,1.1,2.87,2.87,0,0,1-.58.06,2.37,2.37,0,0,1-.91-.18,2.26,2.26,0,0,1-1.12-1,13.73,13.73,0,0,0-.76-1.21l-.05-.06.55,2.67a13.71,13.71,0,0,1,2.17.38,5.36,5.36,0,0,1,2.4,1.38,5.95,5.95,0,0,1,.69,7,6.2,6.2,0,0,1-3,2.3l.07.34a1.74,1.74,0,0,1-1.29,2.28A2,2,0,0,1,10.75,111.17Zm.63-7.44a1.45,1.45,0,0,0,0-.45,1.34,1.34,0,0,0-.15-.42ZM6,95.06a1.38,1.38,0,0,0-.17,1,1,1,0,0,0,.44.74l.18.09L6,95Z"/><path class="cls-4" d="M6.32,86.79a.55.55,0,0,1,.41.15,1.46,1.46,0,0,1,.32.74l.63,3.06q.43,0,.84,0a6.66,6.66,0,0,1,1.61.18,5.6,5.6,0,0,1,1.9.84A5,5,0,0,1,13.31,93a4,4,0,0,1,.63,1.44,1.4,1.4,0,0,1-.22,1.07,1.45,1.45,0,0,1-1,.66,1.88,1.88,0,0,1-.38,0,1.37,1.37,0,0,1-.53-.1,1.25,1.25,0,0,1-.63-.57,14.63,14.63,0,0,0-.83-1.31,2.8,2.8,0,0,0-.87-.76,3.12,3.12,0,0,0-1.35-.37l1.09,5.27a14.13,14.13,0,0,1,2.73.41,4.36,4.36,0,0,1,2,1.13,5,5,0,0,1,.56,5.77,5.68,5.68,0,0,1-3.29,2.19l.25,1.2q.2,1-.52,1.1l-.19,0q-.56,0-.73-.8l-.25-1.22a9.19,9.19,0,0,1-.93,0,6.22,6.22,0,0,1-1.26-.12,4.19,4.19,0,0,1-1.75-.82,4.92,4.92,0,0,1-1-1,2.8,2.8,0,0,1-.51-1.06,1.37,1.37,0,0,1,.21-1.07,1.39,1.39,0,0,1,.92-.62,1.77,1.77,0,0,1,.36,0,1.47,1.47,0,0,1,1.33.94,2.62,2.62,0,0,0,2.19,1.51l-1-4.71q-1.48-.1-2.38-.24a4.73,4.73,0,0,1-1.68-.61,4.34,4.34,0,0,1-1.39-1.27,4.78,4.78,0,0,1-.77-1.82,5.14,5.14,0,0,1,.11-2.54,4.89,4.89,0,0,1,1.4-2.21,6.48,6.48,0,0,1,2.62-1.43l-.58-2.82a2.73,2.73,0,0,1-.07-1,.56.56,0,0,1,.51-.42l.21,0M7.73,98.23l-1-5a3.18,3.18,0,0,0-1.58,1.28,2.38,2.38,0,0,0-.29,1.74,2,2,0,0,0,.92,1.4,5,5,0,0,0,2,.54m3,7.41a4,4,0,0,0,1.33-1.05,2.15,2.15,0,0,0-.54-2.77,4.68,4.68,0,0,0-1.69-.52l.9,4.34M6.32,84.79a3.06,3.06,0,0,0-.62.07,2.53,2.53,0,0,0-2.07,2,4.48,4.48,0,0,0,.07,1.8L4,89.84A7.8,7.8,0,0,0,2.26,91a6.89,6.89,0,0,0-2,3.1,7.14,7.14,0,0,0-.15,3.52,6.79,6.79,0,0,0,1.1,2.57,6.34,6.34,0,0,0,2,1.84l.27.15a3.47,3.47,0,0,0-.71.79,3.35,3.35,0,0,0-.5,2.57,4.78,4.78,0,0,0,.85,1.84,6.94,6.94,0,0,0,1.45,1.45A6.15,6.15,0,0,0,7.19,110a7.69,7.69,0,0,0,1,.14,2.66,2.66,0,0,0,2.58,2,3,3,0,0,0,.6-.06,2.65,2.65,0,0,0,1.89-1.46,3,3,0,0,0,.25-1.56,6.85,6.85,0,0,0,2.69-2.34,6.95,6.95,0,0,0-.83-8.29,6.47,6.47,0,0,0-1-.82,3.43,3.43,0,0,0,1.07-1.07A3.39,3.39,0,0,0,15.9,94,6,6,0,0,0,15,91.87a7,7,0,0,0-1.79-1.78,7.61,7.61,0,0,0-2.57-1.15,8.24,8.24,0,0,0-1.3-.21L9,87.28a3.33,3.33,0,0,0-.87-1.75,2.56,2.56,0,0,0-1.82-.74Z"/><path class="cls-3" d="M30.25,77.8a1.75,1.75,0,0,1-1.7-1.54l-.09-.37h-.41a6.93,6.93,0,0,1-1.18-.09,5.2,5.2,0,0,1-2.19-.94,5.91,5.91,0,0,1-1.27-1.18,3.8,3.8,0,0,1-.73-1.43A2.38,2.38,0,0,1,23,70.42a2.4,2.4,0,0,1,1.51-1.1,2.77,2.77,0,0,1,.64-.08,2.34,2.34,0,0,1,2,1.08l-.35-1.45c-.68,0-1.25-.08-1.72-.14A5.77,5.77,0,0,1,23,68.06a5.32,5.32,0,0,1-1.75-1.49,5.79,5.79,0,0,1-1-2.16,6.14,6.14,0,0,1,0-3,5.89,5.89,0,0,1,1.59-2.71,7.09,7.09,0,0,1,2.1-1.42l-.47-2a3.55,3.55,0,0,1-.12-1.4,1.54,1.54,0,0,1,1.25-1.25,2,2,0,0,1,.48-.06,1.54,1.54,0,0,1,1.07.41,2.37,2.37,0,0,1,.64,1.22l.53,2.2h.33a7.45,7.45,0,0,1,1.56.16,6.6,6.6,0,0,1,2.27.92A6.06,6.06,0,0,1,33.05,59a5,5,0,0,1,.84,1.77,2.41,2.41,0,0,1-.3,1.82A2.45,2.45,0,0,1,32,63.7a2.9,2.9,0,0,1-.67.08,2.38,2.38,0,0,1-.83-.15,2.27,2.27,0,0,1-1.15-1,13.73,13.73,0,0,0-.8-1.18l-.05-.06.64,2.65a13.78,13.78,0,0,1,2.18.31,5.68,5.68,0,0,1,3.38,8.3,6.2,6.2,0,0,1-2.89,2.4l.08.34a2.17,2.17,0,0,1-.06,1.38,1.63,1.63,0,0,1-1.16.94A1.91,1.91,0,0,1,30.25,77.8Zm.44-7.46a1.44,1.44,0,0,0,0-.45,1.37,1.37,0,0,0-.16-.41ZM25,61.86a1.38,1.38,0,0,0-.14,1,1,1,0,0,0,.47.72l.18.08L25,61.78Z"/><path class="cls-4" d="M25.07,53.58a.54.54,0,0,1,.39.14,1.45,1.45,0,0,1,.35.73l.74,3a8.7,8.7,0,0,1,1.1-.07,6.46,6.46,0,0,1,1.35.13,5.6,5.6,0,0,1,1.93.78,5,5,0,0,1,1.33,1.23A4,4,0,0,1,32.92,61,1.4,1.4,0,0,1,32.74,62a1.45,1.45,0,0,1-.95.69,1.84,1.84,0,0,1-.43.05,1.36,1.36,0,0,1-.48-.08,1.25,1.25,0,0,1-.64-.55,14.67,14.67,0,0,0-.87-1.28,2.8,2.8,0,0,0-.9-.73,3.12,3.12,0,0,0-1.36-.33L28.37,65a14.12,14.12,0,0,1,2.74.32,4.36,4.36,0,0,1,2,1.06,5,5,0,0,1,.75,5.75,5.68,5.68,0,0,1-3.21,2.3l.29,1.19q.23.94-.48,1.12l-.22,0q-.54,0-.73-.78l-.29-1.21A8.77,8.77,0,0,1,28,74.9a6,6,0,0,1-1-.08,4.19,4.19,0,0,1-1.77-.76,4.93,4.93,0,0,1-1.07-1,2.8,2.8,0,0,1-.55-1,1.37,1.37,0,0,1,.17-1.07,1.39,1.39,0,0,1,.9-.65,1.73,1.73,0,0,1,.41-.05,1.48,1.48,0,0,1,1.31.9,2.62,2.62,0,0,0,2.24,1.43l-1.13-4.68q-1.49,0-2.39-.16a4.73,4.73,0,0,1-1.7-.55A4.34,4.34,0,0,1,22,66a4.78,4.78,0,0,1-.83-1.79,5.14,5.14,0,0,1,0-2.55,4.89,4.89,0,0,1,1.33-2.26,6.49,6.49,0,0,1,2.57-1.52l-.68-2.8a2.73,2.73,0,0,1-.1-1q.06-.34.49-.44l.24,0M26.84,65,25.65,60a3.18,3.18,0,0,0-1.53,1.34,2.38,2.38,0,0,0-.23,1.75,2,2,0,0,0,1,1.37,5,5,0,0,0,2,.48m3.28,7.3a4,4,0,0,0,1.29-1.1,2.15,2.15,0,0,0-.63-2.75A4.68,4.68,0,0,0,29.08,68l1,4.31M25.07,51.58a3,3,0,0,0-.71.09,2.53,2.53,0,0,0-2,2.06,4.48,4.48,0,0,0,.13,1.8l.29,1.18a7.81,7.81,0,0,0-1.65,1.24,6.89,6.89,0,0,0-1.85,3.17,7.14,7.14,0,0,0,0,3.52,6.79,6.79,0,0,0,1.18,2.53,6.35,6.35,0,0,0,2.09,1.77l.28.14a3.47,3.47,0,0,0-.68.81,3.35,3.35,0,0,0-.41,2.58,4.78,4.78,0,0,0,.91,1.81,7,7,0,0,0,1.5,1.4,6.15,6.15,0,0,0,2.58,1.09,7.69,7.69,0,0,0,1,.1,2.68,2.68,0,0,0,2.55,1.91,2.92,2.92,0,0,0,.69-.08,2.65,2.65,0,0,0,1.84-1.52A3,3,0,0,0,33,75.63a6.85,6.85,0,0,0,2.61-2.43,6.94,6.94,0,0,0-1.11-8.25,6.46,6.46,0,0,0-1-.79,3.43,3.43,0,0,0,1-1.1,3.39,3.39,0,0,0,.41-2.57,6,6,0,0,0-1-2.12A7,7,0,0,0,32,56.65a7.61,7.61,0,0,0-2.61-1.06,8.25,8.25,0,0,0-1.31-.17L27.75,54a3.33,3.33,0,0,0-.93-1.72,2.55,2.55,0,0,0-1.75-.68Z"/><polygon class="cls-5" points="34.65 99.41 41.5 188.74 133.49 176.22 130.36 108.5 34.65 99.41"/><polygon class="cls-6" points="45.02 108.5 50.31 179.35 123.9 169.37 121.36 116.13 45.02 108.5"/><polygon class="cls-7" points="30.74 100.28 23.1 104.68 29.17 187.18 37.2 188.74 30.74 100.28"/><polygon class="cls-8" points="87.5 196.57 87.5 187.37 63.03 190.7 63.03 205.58 82.41 213.99 112.75 205.58 87.5 196.57"/><polygon class="cls-9" points="58.53 191.09 54.22 192.46 54.22 209.69 80.84 221.94 112.75 212.62 112.75 208.71 81.63 217.71 58.92 207.53 58.53 191.09"/><path class="cls-10" d="M186.42,175.89s-1.14,15.33-.64,23.83h0l-9.51-.68-30.44-10s-9.88,6-12,3.49c-3.15-5.68,10.91-10.11,10.91-10.11l40,6.37"/><path class="cls-11" d="M186,217.8c-.25-22.42-2-60.19,9-73.29.2-.24,5.32-1.53,6-2.18,1.73-1.78,2.58-10,2.58-10l6,1.82s0,6.39.15,7.34,13.61,6.13,13.8,7.22c2.61,15.31,4.19,45.82,4.25,68.88"/><path class="cls-3" d="M206.56,137.66c-9,0-15.51-15.43-15.51-23.46a15.51,15.51,0,0,1,31,0C222.07,122.23,215.52,137.66,206.56,137.66Z"/><path class="cls-4" d="M206.56,99.69a14.51,14.51,0,0,1,14.51,14.51c0,8-6.5,22.46-14.51,22.46S192,122.21,192,114.2a14.51,14.51,0,0,1,14.51-14.51m0-2A16.53,16.53,0,0,0,190,114.2c0,8.59,6.81,24.46,16.51,24.46s16.51-15.87,16.51-24.46a16.53,16.53,0,0,0-16.51-16.51Z"/><polygon class="cls-12" points="166.7 216.74 105.9 235.57 84.46 225.34 145.26 206.51 166.7 216.74"/><line class="cls-13" x1="97.36" y1="225.31" x2="108.69" y2="230.56"/><line class="cls-13" x1="105.35" y1="222.99" x2="116.69" y2="228.24"/><line class="cls-13" x1="113.35" y1="220.66" x2="124.69" y2="225.91"/><line class="cls-13" x1="121.35" y1="218.34" x2="132.68" y2="223.59"/><line class="cls-13" x1="129.35" y1="216.02" x2="140.68" y2="221.27"/><line class="cls-13" x1="137.35" y1="213.69" x2="148.68" y2="218.94"/><line class="cls-13" x1="145.35" y1="211.37" x2="156.68" y2="216.62"/><polygon class="cls-12" points="168.13 220.45 107.33 239.27 107.21 238.39 168.01 219.56 168.13 220.45"/><path class="cls-3" d="M147.44,213.85a2.49,2.49,0,0,1-2-.83,2.36,2.36,0,0,1-.58-1.92c.35-3,5.81-6.79,6.9-7.52a1,1,0,0,1,.34-.15l49.79-11.14c7.41-41.14,7.58-41.46,7.68-41.64,2-3.75,4.28-5.43,7.39-5.43a12.28,12.28,0,0,1,4.45,1c4.51,1.76,5.83,7,3.43,13.55l-12.7,43.9a1,1,0,0,1-.9.72l-52,3.41c-1.55,1.15-8.34,6.07-11.82,6.07Z"/><path class="cls-4" d="M216.95,146.23a11.36,11.36,0,0,1,4.08.9c4.71,1.84,4.64,7.37,2.85,12.28l-12.72,44-52.27,3.43s-8,6-11.45,6a1.54,1.54,0,0,1-1.24-.47c-2.18-2.38,6.11-8,6.11-8l50.44-11.28s7.5-41.64,7.69-42c1.69-3.16,3.63-4.9,6.51-4.9m0-2c-4.57,0-6.91,3.4-8.28,6-.2.37-.34.63-7.66,41.28l-49.14,11a2,2,0,0,0-.68.29c-1.62,1.09-6.94,4.91-7.34,8.23a3.4,3.4,0,0,0,.84,2.71,3.47,3.47,0,0,0,2.75,1.15c3.62,0,10-4.5,12.18-6.09l51.68-3.39a2,2,0,0,0,1.79-1.44l12.7-43.9c2.57-7.13,1-12.78-4-14.76a13.25,13.25,0,0,0-4.81-1Z"/><rect class="cls-3" x="290.49" width="306.2" height="216.74"/><polygon class="cls-12" points="93.67 239.03 71.11 230.49 70.99 227.59 93.55 237.99 93.67 239.03"/><g class="cls-14"><path d="M563,182a6.2,6.2,0,0,0,.53.36l28.74,15.73c.18.1.36.18.52.29a.66.66,0,0,1-.06,1.23c-.14.08-.29.13-.44.19l-6.95,3,.46.51,8.9,9.43c.65.69.65.87,0,1.53l-3.22,3.14c-.66.64-.88.63-1.52-.06l-8.71-9.52-.5-.52c-.14.21-.26.37-.37.55l-4,6.43c-.23.36-.41.93-.93.77a1.59,1.59,0,0,1-.75-.89q-6.18-15.27-12.32-30.55c-.09-.24-.23-.45-.35-.68v-1Z"/><path class="cls-15" d="M563,182a6.2,6.2,0,0,0,.53.36l28.74,15.73c.18.1.36.18.52.29a.66.66,0,0,1-.06,1.23c-.14.08-.29.13-.44.19l-6.95,3,.46.51,8.9,9.43c.65.69.65.87,0,1.53l-3.22,3.14c-.66.64-.88.63-1.52-.06l-8.71-9.52-.5-.52c-.14.21-.26.37-.37.55l-4,6.43c-.23.36-.41.93-.93.77a1.59,1.59,0,0,1-.75-.89q-6.18-15.27-12.32-30.55c-.09-.24-.23-.45-.35-.68v-1Z"/></g><path class="cls-16" d="M570,175a6.2,6.2,0,0,0,.53.36l28.74,15.73c.18.1.36.18.52.29a.66.66,0,0,1-.06,1.23c-.14.08-.29.13-.44.19l-6.95,3,.46.51,8.9,9.43c.65.69.65.87,0,1.53l-3.22,3.14c-.66.64-.88.63-1.52-.06l-8.71-9.52-.5-.52c-.14.21-.26.37-.37.55l-4,6.43c-.23.36-.41.93-.93.77a1.59,1.59,0,0,1-.75-.89q-6.18-15.27-12.32-30.55c-.09-.24-.23-.45-.35-.68v-1Z"/><path class="cls-17" d="M570,175a6.2,6.2,0,0,0,.53.36l28.74,15.73c.18.1.36.18.52.29a.66.66,0,0,1-.06,1.23c-.14.08-.29.13-.44.19l-6.95,3,.46.51,8.9,9.43c.65.69.65.87,0,1.53l-3.22,3.14c-.66.64-.88.63-1.52-.06l-8.71-9.52-.5-.52c-.14.21-.26.37-.37.55l-4,6.43c-.23.36-.41.93-.93.77a1.59,1.59,0,0,1-.75-.89q-6.18-15.27-12.32-30.55c-.09-.24-.23-.45-.35-.68v-1Z"/><path class="cls-3" d="M133.28,94.59a1.79,1.79,0,0,1-.7-.15,1.66,1.66,0,0,1-1-1.09,2.11,2.11,0,0,1,.15-1.38l.15-.36a7.33,7.33,0,0,1-1.22-1,5.2,5.2,0,0,1-1.21-2.06,5.9,5.9,0,0,1-.31-1.71,3.81,3.81,0,0,1,.26-1.58,2.37,2.37,0,0,1,1.32-1.3,2.39,2.39,0,0,1,1.87,0,2.38,2.38,0,0,1,1.51,2.36L134.7,85c-.52-.43-1-.81-1.3-1.13a5.77,5.77,0,0,1-1.26-1.76,5.34,5.34,0,0,1-.52-2.24,5.78,5.78,0,0,1,.47-2.34,6.14,6.14,0,0,1,1.82-2.43,5.89,5.89,0,0,1,2.89-1.24,6.49,6.49,0,0,1,.95-.07,7.49,7.49,0,0,1,1.58.18l.78-1.85a3.56,3.56,0,0,1,.74-1.2,1.46,1.46,0,0,1,1-.42,1.82,1.82,0,0,1,.71.15,1.61,1.61,0,0,1,1,1.2,2.38,2.38,0,0,1-.21,1.36l-.88,2.09A7.71,7.71,0,0,1,144,76.52a6.63,6.63,0,0,1,1.28,2.09,6.06,6.06,0,0,1,.4,2.13,5,5,0,0,1-.38,1.92A2.4,2.4,0,0,1,144,83.94a2.44,2.44,0,0,1-1,.2A2.68,2.68,0,0,1,140.84,83a2.26,2.26,0,0,1-.35-1.46,13.85,13.85,0,0,0,.06-1.42s0-.05,0-.08l-1.06,2.52a13.68,13.68,0,0,1,1.57,1.54,5.15,5.15,0,0,1,.76,5.63,5.42,5.42,0,0,1-3,3.05,5.56,5.56,0,0,1-2.12.4,7.55,7.55,0,0,1-1.63-.19l-.14.32A1.8,1.8,0,0,1,133.28,94.59Zm3.7-6.11a1.45,1.45,0,0,0,.23-.39,1.38,1.38,0,0,0,.12-.43Zm.47-10.2a1.39,1.39,0,0,0-.73.75,1,1,0,0,0-.05.86l.1.18.77-1.82Z"/><path class="cls-4" d="M141.9,71.47a.84.84,0,0,1,.32.07.65.65,0,0,1,.44.46,1.45,1.45,0,0,1-.15.79l-1.21,2.88a7.31,7.31,0,0,1,1.93,1.51A5.6,5.6,0,0,1,144.31,79a5,5,0,0,1,.34,1.77,4,4,0,0,1-.3,1.54,1.4,1.4,0,0,1-.79.75,1.45,1.45,0,0,1-.57.12,1.68,1.68,0,0,1-1.32-.69,1.25,1.25,0,0,1-.19-.82,14.65,14.65,0,0,0,.06-1.55,2.8,2.8,0,0,0-.29-1.12,3.12,3.12,0,0,0-.9-1.07l-2.09,5a14.12,14.12,0,0,1,2,1.89,4.36,4.36,0,0,1,1,2,5,5,0,0,1-2.81,5.07,4.54,4.54,0,0,1-1.74.33,7.23,7.23,0,0,1-2.21-.38L134,92.91q-.29.68-.74.68a.79.79,0,0,1-.31-.07q-.68-.29-.31-1.16l.49-1.15a7.24,7.24,0,0,1-1.76-1.29,4.19,4.19,0,0,1-1-1.67,4.92,4.92,0,0,1-.27-1.43,2.8,2.8,0,0,1,.18-1.17,1.37,1.37,0,0,1,.78-.76,1.48,1.48,0,0,1,2,1.71,2.62,2.62,0,0,0,.95,2.48l1.87-4.44q-1.17-.92-1.83-1.55a4.73,4.73,0,0,1-1-1.45,4.34,4.34,0,0,1-.43-1.83,4.78,4.78,0,0,1,.4-1.94,5.14,5.14,0,0,1,1.53-2,4.89,4.89,0,0,1,2.41-1,5.54,5.54,0,0,1,.81-.06,7,7,0,0,1,2.17.37l1.12-2.65a2.73,2.73,0,0,1,.51-.87.47.47,0,0,1,.34-.14m-4.81,10.4,2-4.67a4.11,4.11,0,0,0-.83-.09,2.79,2.79,0,0,0-1.2.25,2.38,2.38,0,0,0-1.22,1.27,2,2,0,0,0,0,1.67,5,5,0,0,0,1.32,1.57M136,89.73a3.4,3.4,0,0,0,1.06-.15A2.15,2.15,0,0,0,138.2,87a4.68,4.68,0,0,0-1.1-1.39l-1.72,4.08a5.76,5.76,0,0,0,.63,0m5.89-20.26a2.47,2.47,0,0,0-1.73.7,4.48,4.48,0,0,0-1,1.53l-.47,1.12a8.12,8.12,0,0,0-1-.06,7.58,7.58,0,0,0-1.1.08,6.89,6.89,0,0,0-3.37,1.45,7.14,7.14,0,0,0-2.12,2.82,6.79,6.79,0,0,0-.55,2.74,6.34,6.34,0,0,0,.62,2.67l.14.28a3.46,3.46,0,0,0-1,.25,3.35,3.35,0,0,0-1.87,1.83,4.79,4.79,0,0,0-.34,2,6.94,6.94,0,0,0,.37,2,6.15,6.15,0,0,0,1.43,2.41,7.65,7.65,0,0,0,.73.67,2.92,2.92,0,0,0-.05,1.64,2.64,2.64,0,0,0,1.57,1.76,2.78,2.78,0,0,0,1.08.23,2.7,2.7,0,0,0,2.39-1.5,8,8,0,0,0,1,.07,6.55,6.55,0,0,0,2.5-.48,6.95,6.95,0,0,0,4-7.3,6.46,6.46,0,0,0-.37-1.25H143a3.44,3.44,0,0,0,1.34-.28A3.39,3.39,0,0,0,146.2,83a6,6,0,0,0,.45-2.3,7,7,0,0,0-.46-2.48,7.62,7.62,0,0,0-1.47-2.4,8.18,8.18,0,0,0-1-.91l.58-1.37a3.33,3.33,0,0,0,.27-1.93A2.63,2.63,0,0,0,143,69.7a2.82,2.82,0,0,0-1.1-.23Z"/><path class="cls-3" d="M126,71.19a1.79,1.79,0,0,1-.69-.15,1.73,1.73,0,0,1-.85-2.47l.15-.36a7.42,7.42,0,0,1-1.22-1,5.22,5.22,0,0,1-1.21-2.06,5.9,5.9,0,0,1-.31-1.71,3.81,3.81,0,0,1,.26-1.58,2.37,2.37,0,0,1,1.33-1.3,2.39,2.39,0,0,1,1.87,0,2.37,2.37,0,0,1,1.51,2.36l.58-1.38c-.53-.43-1-.81-1.3-1.13a5.75,5.75,0,0,1-1.26-1.76,5.32,5.32,0,0,1-.52-2.24,5.78,5.78,0,0,1,.47-2.34,6.15,6.15,0,0,1,1.82-2.43,5.91,5.91,0,0,1,2.89-1.24,6.53,6.53,0,0,1,1-.07,7.49,7.49,0,0,1,1.58.18l.78-1.85a3.56,3.56,0,0,1,.73-1.19,1.46,1.46,0,0,1,1-.42,1.82,1.82,0,0,1,.71.15,1.62,1.62,0,0,1,1,1.2,2.38,2.38,0,0,1-.21,1.36l-.88,2.09a7.71,7.71,0,0,1,1.43,1.24A6.63,6.63,0,0,1,138,55.21a6.06,6.06,0,0,1,.4,2.13,5,5,0,0,1-.38,1.92,2.4,2.4,0,0,1-1.32,1.29,2.44,2.44,0,0,1-1,.2,2.69,2.69,0,0,1-2.16-1.15,2.26,2.26,0,0,1-.35-1.46,13.6,13.6,0,0,0,.06-1.42s0-.05,0-.08l-1.06,2.51a13.82,13.82,0,0,1,1.57,1.54,5.69,5.69,0,0,1-2.22,8.68,5.56,5.56,0,0,1-2.12.4,7.55,7.55,0,0,1-1.63-.19l-.14.32A1.8,1.8,0,0,1,126,71.19Zm3.7-6.11a1.44,1.44,0,0,0,.23-.39,1.37,1.37,0,0,0,.12-.43Zm.47-10.2a1.38,1.38,0,0,0-.73.75,1,1,0,0,0-.05.86l.1.18.77-1.82Z"/><path class="cls-4" d="M134.64,48.07a.84.84,0,0,1,.32.07.65.65,0,0,1,.44.46,1.46,1.46,0,0,1-.15.79L134,52.28A7.31,7.31,0,0,1,136,53.78a5.6,5.6,0,0,1,1.09,1.77,5,5,0,0,1,.34,1.77,4,4,0,0,1-.3,1.54,1.4,1.4,0,0,1-.79.75,1.45,1.45,0,0,1-.57.12,1.68,1.68,0,0,1-1.32-.69,1.25,1.25,0,0,1-.19-.82,14.61,14.61,0,0,0,.06-1.55,2.8,2.8,0,0,0-.29-1.12,3.13,3.13,0,0,0-.9-1.07l-2.09,5a14.12,14.12,0,0,1,2,1.89,4.36,4.36,0,0,1,1,2,5,5,0,0,1-2.81,5.07,4.54,4.54,0,0,1-1.74.33,7.23,7.23,0,0,1-2.21-.38l-.48,1.13q-.29.68-.74.68a.79.79,0,0,1-.31-.07q-.68-.29-.31-1.16l.49-1.15a7.24,7.24,0,0,1-1.76-1.29,4.19,4.19,0,0,1-1-1.67,4.92,4.92,0,0,1-.27-1.43,2.8,2.8,0,0,1,.18-1.17,1.37,1.37,0,0,1,.78-.76,1.48,1.48,0,0,1,2,1.71,2.62,2.62,0,0,0,.95,2.48l1.87-4.44q-1.17-.92-1.83-1.55a4.74,4.74,0,0,1-1-1.45,4.33,4.33,0,0,1-.43-1.83,4.78,4.78,0,0,1,.4-1.94,5.14,5.14,0,0,1,1.53-2,4.89,4.89,0,0,1,2.41-1,5.55,5.55,0,0,1,.81-.06,7,7,0,0,1,2.17.37l1.12-2.65a2.73,2.73,0,0,1,.51-.87.47.47,0,0,1,.34-.14m-4.81,10.4,2-4.67a4.1,4.1,0,0,0-.83-.09,2.79,2.79,0,0,0-1.2.25,2.38,2.38,0,0,0-1.22,1.27,2,2,0,0,0,0,1.67,5,5,0,0,0,1.32,1.57m-1.07,7.86a3.4,3.4,0,0,0,1.06-.15,2.15,2.15,0,0,0,1.13-2.58,4.68,4.68,0,0,0-1.1-1.39l-1.72,4.08a5.76,5.76,0,0,0,.63,0m5.89-20.26a2.47,2.47,0,0,0-1.73.7,4.48,4.48,0,0,0-1,1.53l-.47,1.12a8.1,8.1,0,0,0-1-.06,7.58,7.58,0,0,0-1.1.08A6.89,6.89,0,0,0,126,50.88a7.14,7.14,0,0,0-2.12,2.82,6.79,6.79,0,0,0-.55,2.74,6.34,6.34,0,0,0,.62,2.67l.14.28a3.46,3.46,0,0,0-1,.25,3.35,3.35,0,0,0-1.87,1.83,4.79,4.79,0,0,0-.34,2,6.94,6.94,0,0,0,.37,2,6.15,6.15,0,0,0,1.43,2.41,7.64,7.64,0,0,0,.73.67,2.68,2.68,0,0,0,1.52,3.4,2.78,2.78,0,0,0,1.08.23,2.7,2.7,0,0,0,2.39-1.5,8,8,0,0,0,1,.07,6.55,6.55,0,0,0,2.5-.48,6.94,6.94,0,0,0,4-7.3,6.46,6.46,0,0,0-.37-1.25h.14a3.44,3.44,0,0,0,1.34-.28,3.39,3.39,0,0,0,1.85-1.82,6,6,0,0,0,.45-2.3,7.05,7.05,0,0,0-.46-2.48,7.62,7.62,0,0,0-1.47-2.4,8.19,8.19,0,0,0-1-.91l.58-1.37a3.33,3.33,0,0,0,.27-1.93,2.63,2.63,0,0,0-1.63-1.94,2.83,2.83,0,0,0-1.1-.23Z"/><path class="cls-3" d="M39.49,122.52a1.75,1.75,0,0,1-1.7-1.54l-.09-.37h-.41a7,7,0,0,1-1.17-.09,5.21,5.21,0,0,1-2.19-.94,5.94,5.94,0,0,1-1.27-1.19,3.8,3.8,0,0,1-.73-1.43,2.37,2.37,0,0,1,.29-1.83,2.4,2.4,0,0,1,1.52-1.1,2.73,2.73,0,0,1,.64-.08,2.37,2.37,0,0,1,2,1.08L36,113.58c-.68,0-1.25-.08-1.72-.14a5.74,5.74,0,0,1-2.05-.67,5.32,5.32,0,0,1-1.75-1.49,5.79,5.79,0,0,1-1-2.16,6.15,6.15,0,0,1,0-3,5.9,5.9,0,0,1,1.59-2.71,7.09,7.09,0,0,1,2.1-1.42l-.47-2a3.54,3.54,0,0,1-.12-1.4,1.54,1.54,0,0,1,1.24-1.25,2,2,0,0,1,.48-.06,1.53,1.53,0,0,1,1.07.41A2.36,2.36,0,0,1,36,98.93l.53,2.21h.33a7.45,7.45,0,0,1,1.56.16,6.59,6.59,0,0,1,2.27.92,6,6,0,0,1,1.59,1.47,5,5,0,0,1,.84,1.77,2.4,2.4,0,0,1-.3,1.82,2.45,2.45,0,0,1-1.57,1.15,2.8,2.8,0,0,1-.67.08,2.37,2.37,0,0,1-.83-.15,2.28,2.28,0,0,1-1.15-1,13.37,13.37,0,0,0-.8-1.18l-.05-.06.64,2.65a13.84,13.84,0,0,1,2.18.31A5.68,5.68,0,0,1,44,117.4a6.19,6.19,0,0,1-2.89,2.4l.08.34a1.74,1.74,0,0,1-1.22,2.32A1.92,1.92,0,0,1,39.49,122.52Zm.44-7.46a1.47,1.47,0,0,0,0-.45,1.38,1.38,0,0,0-.16-.41Zm-5.69-8.48a1.38,1.38,0,0,0-.14,1,1,1,0,0,0,.47.72l.18.08-.46-1.92Z"/><path class="cls-4" d="M34.32,98.3a.55.55,0,0,1,.39.14,1.45,1.45,0,0,1,.35.73l.74,3a8.7,8.7,0,0,1,1.1-.07,6.47,6.47,0,0,1,1.35.13,5.6,5.6,0,0,1,1.93.78,5,5,0,0,1,1.33,1.23,4,4,0,0,1,.68,1.41,1.4,1.4,0,0,1-.19,1.07,1.45,1.45,0,0,1-.95.69,1.84,1.84,0,0,1-.43.05,1.36,1.36,0,0,1-.48-.08,1.25,1.25,0,0,1-.64-.55,14.68,14.68,0,0,0-.87-1.28,2.8,2.8,0,0,0-.9-.73,3.13,3.13,0,0,0-1.36-.33l1.27,5.23a14.12,14.12,0,0,1,2.74.32,4.36,4.36,0,0,1,2,1.06,5,5,0,0,1,.75,5.75,5.68,5.68,0,0,1-3.21,2.3l.29,1.19q.23.95-.48,1.12l-.22,0q-.54,0-.73-.78l-.29-1.21a8.77,8.77,0,0,1-1.18.09,6,6,0,0,1-1-.08,4.19,4.19,0,0,1-1.77-.76,4.92,4.92,0,0,1-1.07-1,2.8,2.8,0,0,1-.55-1,1.37,1.37,0,0,1,.17-1.07A1.39,1.39,0,0,1,34,115a1.74,1.74,0,0,1,.41-.05,1.48,1.48,0,0,1,1.31.9,2.62,2.62,0,0,0,2.24,1.43l-1.13-4.68q-1.49,0-2.39-.16a4.73,4.73,0,0,1-1.7-.55,4.34,4.34,0,0,1-1.43-1.22,4.78,4.78,0,0,1-.83-1.79,5.14,5.14,0,0,1,0-2.55,4.89,4.89,0,0,1,1.33-2.26,6.48,6.48,0,0,1,2.57-1.52l-.68-2.8a2.73,2.73,0,0,1-.1-1q.06-.34.49-.44l.24,0m1.77,11.39-1.19-4.93a3.18,3.18,0,0,0-1.53,1.34,2.38,2.38,0,0,0-.23,1.75,2,2,0,0,0,1,1.37,5,5,0,0,0,2,.48m3.28,7.3a4,4,0,0,0,1.29-1.1,2.15,2.15,0,0,0-.63-2.75,4.68,4.68,0,0,0-1.71-.46l1,4.31M34.32,96.3a3,3,0,0,0-.71.09,2.53,2.53,0,0,0-2,2.06,4.48,4.48,0,0,0,.13,1.8l.29,1.18a7.8,7.8,0,0,0-1.65,1.24,6.89,6.89,0,0,0-1.85,3.17,7.14,7.14,0,0,0,0,3.52,6.79,6.79,0,0,0,1.18,2.53,6.34,6.34,0,0,0,2.09,1.77l.28.14a3.47,3.47,0,0,0-.68.81,3.35,3.35,0,0,0-.41,2.58,4.79,4.79,0,0,0,.91,1.81,7,7,0,0,0,1.5,1.4,6.15,6.15,0,0,0,2.58,1.09,7.7,7.7,0,0,0,1,.1,2.68,2.68,0,0,0,2.55,1.91,2.92,2.92,0,0,0,.69-.08A2.65,2.65,0,0,0,42,121.92a3,3,0,0,0,.19-1.57,6.85,6.85,0,0,0,2.61-2.43,6.94,6.94,0,0,0-1.11-8.25,6.47,6.47,0,0,0-1-.79,3.43,3.43,0,0,0,1-1.1,3.39,3.39,0,0,0,.41-2.57,6,6,0,0,0-1-2.12,7,7,0,0,0-1.84-1.72,7.62,7.62,0,0,0-2.61-1.06,8.26,8.26,0,0,0-1.31-.17L37,98.7A3.33,3.33,0,0,0,36.07,97a2.55,2.55,0,0,0-1.75-.68Z"/><rect class="cls-4" x="389.61" y="54.61" width="0.88" height="1"/><rect class="cls-4" x="391.16" y="54.61" width="0.88" height="1"/><rect class="cls-4" x="392.7" y="54.61" width="0.88" height="1"/><rect class="cls-4" x="389.61" y="146.61" width="0.88" height="1"/><rect class="cls-4" x="391.16" y="146.61" width="0.88" height="1"/><rect class="cls-4" x="392.7" y="146.61" width="0.88" height="1"/><line class="cls-18" x1="410.61" y1="55.07" x2="481.03" y2="55.07"/><path class="cls-19" d="M420.19,25.68h36.29c5.6,0,9.57,11,12.66,11H477a7.33,7.33,0,0,1,7.35,7.4v4.83a2.68,2.68,0,0,1-2.52,2.77H410.3c-1.44,0-1.95-1.33-1.95-2.77V37.75C408.35,31.58,415.78,25.68,420.19,25.68Z"/><path class="cls-19" d="M407.76,42.68s1.59-.77,1.59,1v1a1.84,1.84,0,0,1-1.59,2h.59v-4Z"/><path class="cls-19" d="M481.35,41.7v-3a2.67,2.67,0,0,1,.07-.54,7.43,7.43,0,0,1,2.93,5.9v.27a1.46,1.46,0,0,1-.31,0A2.69,2.69,0,0,1,481.35,41.7Z"/><path class="cls-19" d="M481.83,51.68H410.3c-1.44,0-1.95-1.33-1.95-2.77v-.23h76v.23A2.68,2.68,0,0,1,481.83,51.68Z"/><path class="cls-19" d="M479.47,51.68c0-5-3.38-7.55-7.55-7.55s-7.55,2.55-7.55,7.55Z"/><circle class="cls-19" cx="471.96" cy="51.89" r="5.92"/><circle class="cls-19" cx="471.96" cy="51.89" r="3.98"/><path class="cls-19" d="M430.09,51.68c0-5-3.38-7.55-7.55-7.55S415,46.68,415,51.68Z"/><circle class="cls-19" cx="422.59" cy="51.89" r="5.92"/><circle class="cls-19" cx="422.59" cy="51.89" r="3.98"/><path class="cls-19" d="M446.44,40.68c0,.35.27,1,.59,1h4.18c.33,0,.59-.65.59-1h0c0-.35-.27-1-.59-1H447c-.33,0-.59.65-.59,1Z"/><rect class="cls-19" x="428.35" y="39.68" width="6" height="1" rx="0.48" ry="0.48"/><path class="cls-19" d="M464.35,35.48a1.37,1.37,0,0,0-1.4-1.22l-4.68,0c-.68,0-.92.54-.92,1.22v1.7c0,.68.18,1.09.86,1.09l4.86,0a1.16,1.16,0,0,0,1.28-1.09Z"/><line class="cls-19" x1="427.73" y1="36.59" x2="423.59" y2="43.7"/><line class="cls-19" x1="444.77" y1="37.11" x2="444.77" y2="47.86"/><line class="cls-19" x1="441.89" y1="37.11" x2="448.35" y2="37.11"/><circle class="cls-19" cx="422.59" cy="51.89" r="1.83"/><circle class="cls-19" cx="471.91" cy="51.89" r="1.83"/><rect class="cls-19" x="428.35" y="27.68" width="16" height="10" rx="1.78" ry="1.78"/><path class="cls-19" d="M410.07,35.45c-.22,1,.8,1.23,1.78,1.23h11.9c1,0,2.59-.24,2.59-1.23V28.91c0-1-1.61-1.23-2.59-1.23H419C415.28,27.68,410.71,32.68,410.07,35.45Z"/><path class="cls-19" d="M447.35,35.45c0,1-.19,1.23.8,1.23h13.68c1,0,1.78-.15,1.78-1.23,0-3-4.56-7.77-7.73-7.77h-7.73c-1,0-.8.24-.8,1.23Z"/><text class="cls-20" transform="translate(421.55 78.1)">$4,500</text><text class="cls-21" transform="translate(418.19 89.36)">xxx xxxxx</text><rect class="cls-2" x="425" y="93" width="3.34" height="0.96"/><rect class="cls-2" x="429.01" y="93.02" width="0.88" height="1"/><rect class="cls-2" x="430.55" y="93.02" width="0.88" height="1"/><rect class="cls-2" x="432.1" y="93.02" width="0.88" height="1"/><rect class="cls-2" x="433.91" y="93" width="7.88" height="0.96"/><rect class="cls-2" x="442.46" y="93.02" width="0.88" height="1"/><rect class="cls-2" x="444.01" y="93.02" width="0.88" height="1"/><rect class="cls-2" x="445.55" y="93.02" width="0.88" height="1"/><rect class="cls-2" x="447.37" y="93" width="7.88" height="0.96"/><rect class="cls-2" x="455.92" y="93.02" width="0.88" height="1"/><rect class="cls-2" x="457.46" y="93.02" width="0.88" height="1"/><rect class="cls-2" x="459.01" y="93.02" width="0.88" height="1"/><rect class="cls-2" x="460.53" y="93" width="1.69" height="0.96"/><rect class="cls-2" x="462.67" y="93.02" width="0.88" height="1"/><rect class="cls-2" x="464.22" y="93.02" width="0.88" height="1"/><rect class="cls-2" x="465.76" y="93.02" width="0.88" height="1"/><rect class="cls-2" x="463.3" y="95.62" width="3.34" height="0.96"/><rect class="cls-2" x="461.75" y="95.55" width="0.88" height="1" transform="translate(924.38 192.11) rotate(180)"/><rect class="cls-2" x="460.2" y="95.55" width="0.88" height="1" transform="translate(921.29 192.11) rotate(180)"/><rect class="cls-2" x="458.66" y="95.55" width="0.88" height="1" transform="translate(918.2 192.11) rotate(180)"/><rect class="cls-2" x="449.84" y="95.62" width="7.88" height="0.96"/><rect class="cls-2" x="448.3" y="95.55" width="0.88" height="1" transform="translate(897.47 192.11) rotate(180)"/><rect class="cls-2" x="446.75" y="95.55" width="0.88" height="1" transform="translate(894.38 192.11) rotate(180)"/><rect class="cls-2" x="445.21" y="95.55" width="0.88" height="1" transform="translate(891.29 192.11) rotate(180)"/><rect class="cls-2" x="436.39" y="95.62" width="7.88" height="0.96"/><rect class="cls-2" x="434.84" y="95.55" width="0.88" height="1" transform="translate(870.56 192.11) rotate(180)"/><rect class="cls-2" x="433.3" y="95.55" width="0.88" height="1" transform="translate(867.47 192.11) rotate(180)"/><rect class="cls-2" x="431.75" y="95.55" width="0.88" height="1" transform="translate(864.38 192.11) rotate(180)"/><rect class="cls-2" x="429.42" y="95.62" width="1.69" height="0.96"/><rect class="cls-2" x="428.09" y="95.55" width="0.88" height="1" transform="translate(857.05 192.11) rotate(180)"/><rect class="cls-2" x="426.54" y="95.55" width="0.88" height="1" transform="translate(853.96 192.11) rotate(180)"/><rect class="cls-2" x="425" y="95.55" width="0.88" height="1" transform="translate(850.87 192.11) rotate(180)"/><rect class="cls-2" x="425" y="98.45" width="3.34" height="0.96"/><rect class="cls-2" x="429.01" y="98.47" width="0.88" height="1"/><rect class="cls-2" x="430.55" y="98.47" width="0.88" height="1"/><rect class="cls-2" x="432.1" y="98.47" width="0.88" height="1"/><rect class="cls-2" x="433.91" y="98.45" width="7.88" height="0.96"/><rect class="cls-2" x="442.46" y="98.47" width="0.88" height="1"/><rect class="cls-2" x="444.01" y="98.47" width="0.88" height="1"/><rect class="cls-2" x="445.55" y="98.47" width="0.88" height="1"/><rect class="cls-2" x="447.37" y="98.45" width="7.88" height="0.96"/><rect class="cls-2" x="455.92" y="98.47" width="0.88" height="1"/><rect class="cls-2" x="457.46" y="98.47" width="0.88" height="1"/><rect class="cls-2" x="459.01" y="98.47" width="0.88" height="1"/><rect class="cls-2" x="460.53" y="98.45" width="1.69" height="0.96"/><rect class="cls-2" x="462.67" y="98.47" width="0.88" height="1"/><rect class="cls-2" x="464.22" y="98.47" width="0.88" height="1"/><rect class="cls-2" x="465.76" y="98.47" width="0.88" height="1"/><rect class="cls-2" x="463.3" y="101.06" width="3.34" height="0.96"/><rect class="cls-2" x="461.75" y="101" width="0.88" height="1" transform="translate(924.38 203.01) rotate(180)"/><rect class="cls-2" x="460.2" y="101" width="0.88" height="1" transform="translate(921.29 203.01) rotate(180)"/><rect class="cls-2" x="458.66" y="101" width="0.88" height="1" transform="translate(918.2 203.01) rotate(180)"/><rect class="cls-2" x="449.84" y="101.06" width="7.88" height="0.96"/><rect class="cls-2" x="448.3" y="101" width="0.88" height="1" transform="translate(897.47 203.01) rotate(180)"/><rect class="cls-2" x="446.75" y="101" width="0.88" height="1" transform="translate(894.38 203.01) rotate(180)"/><rect class="cls-2" x="445.21" y="101" width="0.88" height="1" transform="translate(891.29 203.01) rotate(180)"/><rect class="cls-2" x="436.39" y="101.06" width="7.88" height="0.96"/><rect class="cls-2" x="434.84" y="101" width="0.88" height="1" transform="translate(870.56 203.01) rotate(180)"/><rect class="cls-2" x="433.3" y="101" width="0.88" height="1" transform="translate(867.47 203.01) rotate(180)"/><rect class="cls-2" x="431.75" y="101" width="0.88" height="1" transform="translate(864.38 203.01) rotate(180)"/><rect class="cls-2" x="429.42" y="101.06" width="1.69" height="0.96"/><rect class="cls-2" x="428.09" y="101" width="0.88" height="1" transform="translate(857.05 203.01) rotate(180)"/><rect class="cls-2" x="426.54" y="101" width="0.88" height="1" transform="translate(853.96 203.01) rotate(180)"/><rect class="cls-2" x="425" y="101" width="0.88" height="1" transform="translate(850.87 203.01) rotate(180)"/><line class="cls-18" x1="410.61" y1="147.07" x2="481.03" y2="147.07"/><path class="cls-19" d="M420.19,117.68h36.29c5.6,0,9.57,11,12.66,11H477a7.33,7.33,0,0,1,7.35,7.4v4.83a2.68,2.68,0,0,1-2.52,2.77H410.3c-1.44,0-1.95-1.33-1.95-2.77V129.75C408.35,123.58,415.78,117.68,420.19,117.68Z"/><path class="cls-19" d="M407.76,134.68s1.59-.77,1.59,1v1a1.84,1.84,0,0,1-1.59,2h.59v-4Z"/><path class="cls-19" d="M481.35,133.7v-3a2.67,2.67,0,0,1,.07-.54,7.43,7.43,0,0,1,2.93,5.9v.27a1.46,1.46,0,0,1-.31,0A2.69,2.69,0,0,1,481.35,133.7Z"/><path class="cls-19" d="M481.83,143.68H410.3c-1.44,0-1.95-1.33-1.95-2.77v-.23h76v.23A2.68,2.68,0,0,1,481.83,143.68Z"/><path class="cls-19" d="M479.47,143.68c0-5-3.38-7.55-7.55-7.55s-7.55,2.55-7.55,7.55Z"/><circle class="cls-19" cx="471.96" cy="143.89" r="5.92"/><circle class="cls-19" cx="471.96" cy="143.89" r="3.98"/><path class="cls-19" d="M430.09,143.68c0-5-3.38-7.55-7.55-7.55s-7.55,2.55-7.55,7.55Z"/><circle class="cls-19" cx="422.59" cy="143.89" r="5.92"/><circle class="cls-19" cx="422.59" cy="143.89" r="3.98"/><path class="cls-19" d="M446.44,132.68c0,.35.27,1,.59,1h4.18c.33,0,.59-.65.59-1h0c0-.35-.27-1-.59-1H447c-.33,0-.59.65-.59,1Z"/><rect class="cls-19" x="428.35" y="131.68" width="6" height="1" rx="0.48" ry="0.48"/><path class="cls-19" d="M464.35,127.48a1.37,1.37,0,0,0-1.4-1.22l-4.68,0c-.68,0-.92.54-.92,1.22v1.7c0,.68.18,1.09.86,1.09l4.86,0a1.16,1.16,0,0,0,1.28-1.09Z"/><line class="cls-19" x1="427.73" y1="128.59" x2="423.59" y2="135.7"/><line class="cls-19" x1="444.77" y1="129.11" x2="444.77" y2="139.86"/><line class="cls-19" x1="441.89" y1="129.11" x2="448.35" y2="129.11"/><circle class="cls-19" cx="422.59" cy="143.89" r="1.83"/><circle class="cls-19" cx="471.91" cy="143.89" r="1.83"/><rect class="cls-19" x="428.35" y="119.68" width="16" height="10" rx="1.78" ry="1.78"/><path class="cls-19" d="M410.07,127.45c-.22,1,.8,1.23,1.78,1.23h11.9c1,0,2.59-.24,2.59-1.23v-6.54c0-1-1.61-1.23-2.59-1.23H419C415.28,119.68,410.71,124.68,410.07,127.45Z"/><path class="cls-19" d="M447.35,127.45c0,1-.19,1.23.8,1.23h13.68c1,0,1.78-.15,1.78-1.23,0-3-4.56-7.77-7.73-7.77h-7.73c-1,0-.8.24-.8,1.23Z"/><text class="cls-20" transform="translate(421.55 170.1)">$9,990</text><text class="cls-21" transform="translate(418.19 181.36)">xxx xxxxx</text><rect class="cls-2" x="425" y="185" width="3.34" height="0.96"/><rect class="cls-2" x="429.01" y="185.02" width="0.88" height="1"/><rect class="cls-2" x="430.55" y="185.02" width="0.88" height="1"/><rect class="cls-2" x="432.1" y="185.02" width="0.88" height="1"/><rect class="cls-2" x="433.91" y="185" width="7.88" height="0.96"/><rect class="cls-2" x="442.46" y="185.02" width="0.88" height="1"/><rect class="cls-2" x="444.01" y="185.02" width="0.88" height="1"/><rect class="cls-2" x="445.55" y="185.02" width="0.88" height="1"/><rect class="cls-2" x="447.37" y="185" width="7.88" height="0.96"/><rect class="cls-2" x="455.92" y="185.02" width="0.88" height="1"/><rect class="cls-2" x="457.46" y="185.02" width="0.88" height="1"/><rect class="cls-2" x="459.01" y="185.02" width="0.88" height="1"/><rect class="cls-2" x="460.53" y="185" width="1.69" height="0.96"/><rect class="cls-2" x="462.67" y="185.02" width="0.88" height="1"/><rect class="cls-2" x="464.22" y="185.02" width="0.88" height="1"/><rect class="cls-2" x="465.76" y="185.02" width="0.88" height="1"/><rect class="cls-2" x="463.3" y="187.62" width="3.34" height="0.96"/><rect class="cls-2" x="461.75" y="187.55" width="0.88" height="1" transform="translate(924.38 376.11) rotate(180)"/><rect class="cls-2" x="460.2" y="187.55" width="0.88" height="1" transform="translate(921.29 376.11) rotate(180)"/><rect class="cls-2" x="458.66" y="187.55" width="0.88" height="1" transform="translate(918.2 376.11) rotate(180)"/><rect class="cls-2" x="449.84" y="187.62" width="7.88" height="0.96"/><rect class="cls-2" x="448.3" y="187.55" width="0.88" height="1" transform="translate(897.47 376.11) rotate(180)"/><rect class="cls-2" x="446.75" y="187.55" width="0.88" height="1" transform="translate(894.38 376.11) rotate(180)"/><rect class="cls-2" x="445.21" y="187.55" width="0.88" height="1" transform="translate(891.29 376.11) rotate(180)"/><rect class="cls-2" x="436.39" y="187.62" width="7.88" height="0.96"/><rect class="cls-2" x="434.84" y="187.55" width="0.88" height="1" transform="translate(870.56 376.11) rotate(180)"/><rect class="cls-2" x="433.3" y="187.55" width="0.88" height="1" transform="translate(867.47 376.11) rotate(180)"/><rect class="cls-2" x="431.75" y="187.55" width="0.88" height="1" transform="translate(864.38 376.11) rotate(180)"/><rect class="cls-2" x="429.42" y="187.62" width="1.69" height="0.96"/><rect class="cls-2" x="428.09" y="187.55" width="0.88" height="1" transform="translate(857.05 376.11) rotate(180)"/><rect class="cls-2" x="426.54" y="187.55" width="0.88" height="1" transform="translate(853.96 376.11) rotate(180)"/><rect class="cls-2" x="425" y="187.55" width="0.88" height="1" transform="translate(850.87 376.11) rotate(180)"/><rect class="cls-2" x="425" y="190.45" width="3.34" height="0.96"/><rect class="cls-2" x="429.01" y="190.47" width="0.88" height="1"/><rect class="cls-2" x="430.55" y="190.47" width="0.88" height="1"/><rect class="cls-2" x="432.1" y="190.47" width="0.88" height="1"/><rect class="cls-2" x="433.91" y="190.45" width="7.88" height="0.96"/><rect class="cls-2" x="442.46" y="190.47" width="0.88" height="1"/><rect class="cls-2" x="444.01" y="190.47" width="0.88" height="1"/><rect class="cls-2" x="445.55" y="190.47" width="0.88" height="1"/><rect class="cls-2" x="447.37" y="190.45" width="7.88" height="0.96"/><rect class="cls-2" x="455.92" y="190.47" width="0.88" height="1"/><rect class="cls-2" x="457.46" y="190.47" width="0.88" height="1"/><rect class="cls-2" x="459.01" y="190.47" width="0.88" height="1"/><rect class="cls-2" x="460.53" y="190.45" width="1.69" height="0.96"/><rect class="cls-2" x="462.67" y="190.47" width="0.88" height="1"/><rect class="cls-2" x="464.22" y="190.47" width="0.88" height="1"/><rect class="cls-2" x="465.76" y="190.47" width="0.88" height="1"/><rect class="cls-2" x="463.3" y="193.06" width="3.34" height="0.96"/><rect class="cls-2" x="461.75" y="193" width="0.88" height="1" transform="translate(924.38 387.01) rotate(180)"/><rect class="cls-2" x="460.2" y="193" width="0.88" height="1" transform="translate(921.29 387.01) rotate(180)"/><rect class="cls-2" x="458.66" y="193" width="0.88" height="1" transform="translate(918.2 387.01) rotate(180)"/><rect class="cls-2" x="449.84" y="193.06" width="7.88" height="0.96"/><rect class="cls-2" x="448.3" y="193" width="0.88" height="1" transform="translate(897.47 387.01) rotate(180)"/><rect class="cls-2" x="446.75" y="193" width="0.88" height="1" transform="translate(894.38 387.01) rotate(180)"/><rect class="cls-2" x="445.21" y="193" width="0.88" height="1" transform="translate(891.29 387.01) rotate(180)"/><rect class="cls-2" x="436.39" y="193.06" width="7.88" height="0.96"/><rect class="cls-2" x="434.84" y="193" width="0.88" height="1" transform="translate(870.56 387.01) rotate(180)"/><rect class="cls-2" x="433.3" y="193" width="0.88" height="1" transform="translate(867.47 387.01) rotate(180)"/><rect class="cls-2" x="431.75" y="193" width="0.88" height="1" transform="translate(864.38 387.01) rotate(180)"/><rect class="cls-2" x="429.42" y="193.06" width="1.69" height="0.96"/><rect class="cls-2" x="428.09" y="193" width="0.88" height="1" transform="translate(857.05 387.01) rotate(180)"/><rect class="cls-2" x="426.54" y="193" width="0.88" height="1" transform="translate(853.96 387.01) rotate(180)"/><rect class="cls-2" x="425" y="193" width="0.88" height="1" transform="translate(850.87 387.01) rotate(180)"/><line class="cls-18" x1="502.47" y1="55.07" x2="572.9" y2="55.07"/><path class="cls-19" d="M512.12,25.68h36.29c5.6,0,9.57,11,12.66,11h7.86a7.39,7.39,0,0,1,7.42,7.4v4.83a2.73,2.73,0,0,1-2.58,2.77H502.23a3,3,0,0,1-2.89-2.77V37.75C499.35,31.58,507.72,25.68,512.12,25.68Z"/><path class="cls-19" d="M499.7,42.68s1.65-.77,1.65,1v1a1.88,1.88,0,0,1-1.65,2h-.35v-4Z"/><path class="cls-19" d="M573.35,41.7v-3a2.67,2.67,0,0,1,.07-.54,7.43,7.43,0,0,1,2.93,5.9v.27a1.46,1.46,0,0,1-.31,0A2.69,2.69,0,0,1,573.35,41.7Z"/><path class="cls-19" d="M573.77,51.68H502.23a3,3,0,0,1-2.89-2.77v-.23h77v.23A2.73,2.73,0,0,1,573.77,51.68Z"/><path class="cls-19" d="M571.4,51.68c0-5-3.38-7.55-7.55-7.55s-7.55,2.55-7.55,7.55Z"/><circle class="cls-19" cx="563.9" cy="51.89" r="5.92"/><circle class="cls-19" cx="563.9" cy="51.89" r="3.98"/><path class="cls-19" d="M522,51.68c0-5-3.38-7.55-7.55-7.55s-7.55,2.55-7.55,7.55Z"/><circle class="cls-19" cx="514.53" cy="51.89" r="5.92"/><circle class="cls-19" cx="514.53" cy="51.89" r="3.98"/><path class="cls-19" d="M538.38,40.68c0,.35.27,1,.59,1h4.18c.33,0,.59-.65.59-1h0c0-.35-.27-1-.59-1H539c-.33,0-.59.65-.59,1Z"/><rect class="cls-19" x="519.35" y="39.68" width="6" height="1" rx="0.48" ry="0.48"/><path class="cls-19" d="M556.35,35.48a1.4,1.4,0,0,0-1.43-1.22l-4.67,0c-.68,0-.91.54-.91,1.22v1.7c0,.68.15,1.09.83,1.09l4.88,0a1.17,1.17,0,0,0,1.29-1.09Z"/><line class="cls-19" x1="519.67" y1="36.59" x2="515.53" y2="43.7"/><line class="cls-19" x1="536.71" y1="37.11" x2="536.71" y2="47.86"/><line class="cls-19" x1="533.83" y1="37.11" x2="540.29" y2="37.11"/><circle class="cls-19" cx="514.53" cy="51.89" r="1.83"/><circle class="cls-19" cx="563.85" cy="51.89" r="1.83"/><rect class="cls-19" x="519.35" y="27.68" width="16" height="10" rx="1.78" ry="1.78"/><path class="cls-19" d="M502,35.45c-.22,1,.8,1.23,1.78,1.23h11.9c1,0,1.66-.24,1.66-1.23V28.91c0-1-.67-1.23-1.66-1.23h-4.76C507.22,27.68,502.64,32.68,502,35.45Z"/><path class="cls-19" d="M538.35,35.45c0,1,.75,1.23,1.73,1.23h13.68c1,0,1.78-.15,1.78-1.23,0-3-4.56-7.77-7.73-7.77h-7.73c-1,0-1.73.24-1.73,1.23Z"/><text class="cls-22" transform="translate(513.42 78.1)">$3,100</text><text class="cls-21" transform="translate(510.05 89.36)">xxx xxxxx</text><rect class="cls-2" x="516.86" y="93" width="3.34" height="0.96"/><rect class="cls-2" x="520.88" y="93.02" width="0.88" height="1"/><rect class="cls-2" x="522.42" y="93.02" width="0.88" height="1"/><rect class="cls-2" x="523.97" y="93.02" width="0.88" height="1"/><rect class="cls-2" x="525.78" y="93" width="7.88" height="0.96"/><rect class="cls-2" x="534.33" y="93.02" width="0.88" height="1"/><rect class="cls-2" x="535.87" y="93.02" width="0.88" height="1"/><rect class="cls-2" x="537.42" y="93.02" width="0.88" height="1"/><rect class="cls-2" x="539.23" y="93" width="7.88" height="0.96"/><rect class="cls-2" x="547.78" y="93.02" width="0.88" height="1"/><rect class="cls-2" x="549.33" y="93.02" width="0.88" height="1"/><rect class="cls-2" x="550.87" y="93.02" width="0.88" height="1"/><rect class="cls-2" x="552.39" y="93" width="1.69" height="0.96"/><rect class="cls-2" x="554.54" y="93.02" width="0.88" height="1"/><rect class="cls-2" x="556.08" y="93.02" width="0.88" height="1"/><rect class="cls-2" x="557.63" y="93.02" width="0.88" height="1"/><rect class="cls-2" x="555.16" y="95.62" width="3.34" height="0.96"/><rect class="cls-2" x="553.62" y="95.55" width="0.88" height="1" transform="translate(1108.11 192.11) rotate(180)"/><rect class="cls-2" x="552.07" y="95.55" width="0.88" height="1" transform="translate(1105.02 192.11) rotate(180)"/><rect class="cls-2" x="550.53" y="95.55" width="0.88" height="1" transform="translate(1101.93 192.11) rotate(180)"/><rect class="cls-2" x="541.71" y="95.62" width="7.88" height="0.96"/><rect class="cls-2" x="540.16" y="95.55" width="0.88" height="1" transform="translate(1081.2 192.11) rotate(180)"/><rect class="cls-2" x="538.62" y="95.55" width="0.88" height="1" transform="translate(1078.11 192.11) rotate(180)"/><rect class="cls-2" x="537.07" y="95.55" width="0.88" height="1" transform="translate(1075.02 192.11) rotate(180)"/><rect class="cls-2" x="528.26" y="95.62" width="7.88" height="0.96"/><rect class="cls-2" x="526.71" y="95.55" width="0.88" height="1" transform="translate(1054.29 192.11) rotate(180)"/><rect class="cls-2" x="525.16" y="95.55" width="0.88" height="1" transform="translate(1051.2 192.11) rotate(180)"/><rect class="cls-2" x="523.62" y="95.55" width="0.88" height="1" transform="translate(1048.11 192.11) rotate(180)"/><rect class="cls-2" x="521.29" y="95.62" width="1.69" height="0.96"/><rect class="cls-2" x="519.95" y="95.55" width="0.88" height="1" transform="translate(1040.78 192.11) rotate(180)"/><rect class="cls-2" x="518.41" y="95.55" width="0.88" height="1" transform="translate(1037.69 192.11) rotate(180)"/><rect class="cls-2" x="516.86" y="95.55" width="0.88" height="1" transform="translate(1034.6 192.11) rotate(180)"/><rect class="cls-2" x="516.86" y="98.45" width="3.34" height="0.96"/><rect class="cls-2" x="520.88" y="98.47" width="0.88" height="1"/><rect class="cls-2" x="522.42" y="98.47" width="0.88" height="1"/><rect class="cls-2" x="523.97" y="98.47" width="0.88" height="1"/><rect class="cls-2" x="525.78" y="98.45" width="7.88" height="0.96"/><rect class="cls-2" x="534.33" y="98.47" width="0.88" height="1"/><rect class="cls-2" x="535.87" y="98.47" width="0.88" height="1"/><rect class="cls-2" x="537.42" y="98.47" width="0.88" height="1"/><rect class="cls-2" x="539.23" y="98.45" width="7.88" height="0.96"/><rect class="cls-2" x="547.78" y="98.47" width="0.88" height="1"/><rect class="cls-2" x="549.33" y="98.47" width="0.88" height="1"/><rect class="cls-2" x="550.87" y="98.47" width="0.88" height="1"/><rect class="cls-2" x="552.39" y="98.45" width="1.69" height="0.96"/><rect class="cls-2" x="554.54" y="98.47" width="0.88" height="1"/><rect class="cls-2" x="556.08" y="98.47" width="0.88" height="1"/><rect class="cls-2" x="557.63" y="98.47" width="0.88" height="1"/><rect class="cls-2" x="555.16" y="101.06" width="3.34" height="0.96"/><rect class="cls-2" x="553.62" y="101" width="0.88" height="1" transform="translate(1108.11 203.01) rotate(180)"/><rect class="cls-2" x="552.07" y="101" width="0.88" height="1" transform="translate(1105.02 203.01) rotate(180)"/><rect class="cls-2" x="550.53" y="101" width="0.88" height="1" transform="translate(1101.93 203.01) rotate(180)"/><rect class="cls-2" x="541.71" y="101.06" width="7.88" height="0.96"/><rect class="cls-2" x="540.16" y="101" width="0.88" height="1" transform="translate(1081.2 203.01) rotate(180)"/><rect class="cls-2" x="538.62" y="101" width="0.88" height="1" transform="translate(1078.11 203.01) rotate(180)"/><rect class="cls-2" x="537.07" y="101" width="0.88" height="1" transform="translate(1075.02 203.01) rotate(180)"/><rect class="cls-2" x="528.26" y="101.06" width="7.88" height="0.96"/><rect class="cls-2" x="526.71" y="101" width="0.88" height="1" transform="translate(1054.29 203.01) rotate(180)"/><rect class="cls-2" x="525.16" y="101" width="0.88" height="1" transform="translate(1051.2 203.01) rotate(180)"/><rect class="cls-2" x="523.62" y="101" width="0.88" height="1" transform="translate(1048.11 203.01) rotate(180)"/><rect class="cls-2" x="521.29" y="101.06" width="1.69" height="0.96"/><rect class="cls-2" x="519.95" y="101" width="0.88" height="1" transform="translate(1040.78 203.01) rotate(180)"/><rect class="cls-2" x="518.41" y="101" width="0.88" height="1" transform="translate(1037.69 203.01) rotate(180)"/><rect class="cls-2" x="516.86" y="101" width="0.88" height="1" transform="translate(1034.6 203.01) rotate(180)"/><line class="cls-18" x1="502.47" y1="147.07" x2="572.9" y2="147.07"/><path class="cls-19" d="M512.12,117.68h36.29c5.6,0,9.57,11,12.66,11h7.86a7.39,7.39,0,0,1,7.42,7.4v4.83a2.73,2.73,0,0,1-2.58,2.77H502.23a3,3,0,0,1-2.89-2.77V129.75C499.35,123.58,507.72,117.68,512.12,117.68Z"/><path class="cls-19" d="M499.7,134.68s1.65-.77,1.65,1v1a1.88,1.88,0,0,1-1.65,2h-.35v-4Z"/><path class="cls-19" d="M573.35,133.7v-3a2.67,2.67,0,0,1,.07-.54,7.43,7.43,0,0,1,2.93,5.9v.27a1.46,1.46,0,0,1-.31,0A2.69,2.69,0,0,1,573.35,133.7Z"/><path class="cls-19" d="M573.77,143.68H502.23a3,3,0,0,1-2.89-2.77v-.23h77v.23A2.73,2.73,0,0,1,573.77,143.68Z"/><path class="cls-19" d="M571.4,143.68c0-5-3.38-7.55-7.55-7.55s-7.55,2.55-7.55,7.55Z"/><circle class="cls-19" cx="563.9" cy="143.89" r="5.92"/><circle class="cls-19" cx="563.9" cy="143.89" r="3.98"/><path class="cls-19" d="M522,143.68c0-5-3.38-7.55-7.55-7.55s-7.55,2.55-7.55,7.55Z"/><circle class="cls-19" cx="514.53" cy="143.89" r="5.92"/><circle class="cls-19" cx="514.53" cy="143.89" r="3.98"/><path class="cls-19" d="M538.38,132.68c0,.35.27,1,.59,1h4.18c.33,0,.59-.65.59-1h0c0-.35-.27-1-.59-1H539c-.33,0-.59.65-.59,1Z"/><rect class="cls-19" x="519.35" y="131.68" width="6" height="1" rx="0.48" ry="0.48"/><path class="cls-19" d="M556.35,127.48a1.4,1.4,0,0,0-1.43-1.22l-4.67,0c-.68,0-.91.54-.91,1.22v1.7c0,.68.15,1.09.83,1.09l4.88,0a1.17,1.17,0,0,0,1.29-1.09Z"/><line class="cls-19" x1="519.67" y1="128.59" x2="515.53" y2="135.7"/><line class="cls-19" x1="536.71" y1="129.11" x2="536.71" y2="139.86"/><line class="cls-19" x1="533.83" y1="129.11" x2="540.29" y2="129.11"/><circle class="cls-19" cx="514.53" cy="143.89" r="1.83"/><circle class="cls-19" cx="563.85" cy="143.89" r="1.83"/><rect class="cls-19" x="519.35" y="119.68" width="16" height="10" rx="1.78" ry="1.78"/><path class="cls-19" d="M502,127.45c-.22,1,.8,1.23,1.78,1.23h11.9c1,0,1.66-.24,1.66-1.23v-6.54c0-1-.67-1.23-1.66-1.23h-4.76C507.22,119.68,502.64,124.68,502,127.45Z"/><path class="cls-19" d="M538.35,127.45c0,1,.75,1.23,1.73,1.23h13.68c1,0,1.78-.15,1.78-1.23,0-3-4.56-7.77-7.73-7.77h-7.73c-1,0-1.73.24-1.73,1.23Z"/><text class="cls-20" transform="translate(509.44 170.1)">$<tspan class="cls-23" x="8.83" y="0">1</tspan><tspan x="16.47" y="0">1,100</tspan></text><text class="cls-21" transform="translate(510.05 181.36)">xxx xxxxx</text><rect class="cls-2" x="516.86" y="185" width="3.34" height="0.96"/><rect class="cls-2" x="520.88" y="185.02" width="0.88" height="1"/><rect class="cls-2" x="522.42" y="185.02" width="0.88" height="1"/><rect class="cls-2" x="523.97" y="185.02" width="0.88" height="1"/><rect class="cls-2" x="525.78" y="185" width="7.88" height="0.96"/><rect class="cls-2" x="534.33" y="185.02" width="0.88" height="1"/><rect class="cls-2" x="535.87" y="185.02" width="0.88" height="1"/><rect class="cls-2" x="537.42" y="185.02" width="0.88" height="1"/><rect class="cls-2" x="539.23" y="185" width="7.88" height="0.96"/><rect class="cls-2" x="547.78" y="185.02" width="0.88" height="1"/><rect class="cls-2" x="549.33" y="185.02" width="0.88" height="1"/><rect class="cls-2" x="550.87" y="185.02" width="0.88" height="1"/><rect class="cls-2" x="552.39" y="185" width="1.69" height="0.96"/><rect class="cls-2" x="554.54" y="185.02" width="0.88" height="1"/><rect class="cls-2" x="556.08" y="185.02" width="0.88" height="1"/><rect class="cls-2" x="557.63" y="185.02" width="0.88" height="1"/><rect class="cls-2" x="555.16" y="187.62" width="3.34" height="0.96"/><rect class="cls-2" x="553.62" y="187.55" width="0.88" height="1" transform="translate(1108.11 376.11) rotate(180)"/><rect class="cls-2" x="552.07" y="187.55" width="0.88" height="1" transform="translate(1105.02 376.11) rotate(180)"/><rect class="cls-2" x="550.53" y="187.55" width="0.88" height="1" transform="translate(1101.93 376.11) rotate(180)"/><rect class="cls-2" x="541.71" y="187.62" width="7.88" height="0.96"/><rect class="cls-2" x="540.16" y="187.55" width="0.88" height="1" transform="translate(1081.2 376.11) rotate(180)"/><rect class="cls-2" x="538.62" y="187.55" width="0.88" height="1" transform="translate(1078.11 376.11) rotate(180)"/><rect class="cls-2" x="537.07" y="187.55" width="0.88" height="1" transform="translate(1075.02 376.11) rotate(180)"/><rect class="cls-2" x="528.26" y="187.62" width="7.88" height="0.96"/><rect class="cls-2" x="526.71" y="187.55" width="0.88" height="1" transform="translate(1054.29 376.11) rotate(180)"/><rect class="cls-2" x="525.16" y="187.55" width="0.88" height="1" transform="translate(1051.2 376.11) rotate(180)"/><rect class="cls-2" x="523.62" y="187.55" width="0.88" height="1" transform="translate(1048.11 376.11) rotate(180)"/><rect class="cls-2" x="521.29" y="187.62" width="1.69" height="0.96"/><rect class="cls-2" x="519.95" y="187.55" width="0.88" height="1" transform="translate(1040.78 376.11) rotate(180)"/><rect class="cls-2" x="518.41" y="187.55" width="0.88" height="1" transform="translate(1037.69 376.11) rotate(180)"/><rect class="cls-2" x="516.86" y="187.55" width="0.88" height="1" transform="translate(1034.6 376.11) rotate(180)"/><rect class="cls-2" x="516.86" y="190.45" width="3.34" height="0.96"/><rect class="cls-2" x="520.88" y="190.47" width="0.88" height="1"/><rect class="cls-2" x="522.42" y="190.47" width="0.88" height="1"/><rect class="cls-2" x="523.97" y="190.47" width="0.88" height="1"/><rect class="cls-2" x="525.78" y="190.45" width="7.88" height="0.96"/><rect class="cls-2" x="534.33" y="190.47" width="0.88" height="1"/><rect class="cls-2" x="535.87" y="190.47" width="0.88" height="1"/><rect class="cls-2" x="537.42" y="190.47" width="0.88" height="1"/><rect class="cls-2" x="539.23" y="190.45" width="7.88" height="0.96"/><rect class="cls-2" x="547.78" y="190.47" width="0.88" height="1"/><rect class="cls-2" x="549.33" y="190.47" width="0.88" height="1"/><rect class="cls-2" x="550.87" y="190.47" width="0.88" height="1"/><rect class="cls-2" x="552.39" y="190.45" width="1.69" height="0.96"/><rect class="cls-2" x="554.54" y="190.47" width="0.88" height="1"/><rect class="cls-2" x="556.08" y="190.47" width="0.88" height="1"/><rect class="cls-2" x="557.63" y="190.47" width="0.88" height="1"/><rect class="cls-2" x="555.16" y="193.06" width="3.34" height="0.96"/><rect class="cls-2" x="553.62" y="193" width="0.88" height="1" transform="translate(1108.11 387.01) rotate(180)"/><rect class="cls-2" x="552.07" y="193" width="0.88" height="1" transform="translate(1105.02 387.01) rotate(180)"/><rect class="cls-2" x="550.53" y="193" width="0.88" height="1" transform="translate(1101.93 387.01) rotate(180)"/><rect class="cls-2" x="541.71" y="193.06" width="7.88" height="0.96"/><rect class="cls-2" x="540.16" y="193" width="0.88" height="1" transform="translate(1081.2 387.01) rotate(180)"/><rect class="cls-2" x="538.62" y="193" width="0.88" height="1" transform="translate(1078.11 387.01) rotate(180)"/><rect class="cls-2" x="537.07" y="193" width="0.88" height="1" transform="translate(1075.02 387.01) rotate(180)"/><rect class="cls-2" x="528.26" y="193.06" width="7.88" height="0.96"/><rect class="cls-2" x="526.71" y="193" width="0.88" height="1" transform="translate(1054.29 387.01) rotate(180)"/><rect class="cls-2" x="525.16" y="193" width="0.88" height="1" transform="translate(1051.2 387.01) rotate(180)"/><rect class="cls-2" x="523.62" y="193" width="0.88" height="1" transform="translate(1048.11 387.01) rotate(180)"/><rect class="cls-2" x="521.29" y="193.06" width="1.69" height="0.96"/><rect class="cls-2" x="519.95" y="193" width="0.88" height="1" transform="translate(1040.78 387.01) rotate(180)"/><rect class="cls-2" x="518.41" y="193" width="0.88" height="1" transform="translate(1037.69 387.01) rotate(180)"/><rect class="cls-2" x="516.86" y="193" width="0.88" height="1" transform="translate(1034.6 387.01) rotate(180)"/><rect class="cls-4" x="313.94" y="54.57" width="0.88" height="1"/><rect class="cls-4" x="315.49" y="54.57" width="0.88" height="1"/><rect class="cls-4" x="317.03" y="54.57" width="0.88" height="1"/><line class="cls-18" x1="318.22" y1="55.07" x2="388.64" y2="55.07"/><path class="cls-19" d="M328,25.68H364.3c5.6,0,9.57,11,12.66,11h7.86c4.11,0,6.53,3.29,6.53,7.4v4.83c0,1.44-.26,2.77-1.69,2.77H318.12a2.9,2.9,0,0,1-2.77-2.77V37.75C315.35,31.58,323.61,25.68,328,25.68Z"/><path class="cls-19" d="M315.59,42.68s1.76-.77,1.76,1v1a2,2,0,0,1-1.76,2h-.24v-4Z"/><path class="cls-19" d="M389.35,41.7v-3c0-.19-.47-.37-.43-.54,1.77,1.36,2.43,3.49,2.43,5.9v.27s.29,0,.19,0C390.06,44.37,389.35,43.17,389.35,41.7Z"/><path class="cls-19" d="M389.65,51.68H318.12a2.9,2.9,0,0,1-2.77-2.77v-.23h76v.23C391.35,50.34,391.09,51.68,389.65,51.68Z"/><path class="cls-19" d="M387.29,51.68c0-5-3.38-7.55-7.55-7.55s-7.55,2.55-7.55,7.55Z"/><circle class="cls-19" cx="379.79" cy="51.89" r="5.92"/><circle class="cls-19" cx="379.79" cy="51.89" r="3.98"/><path class="cls-19" d="M337.92,51.68c0-5-3.38-7.55-7.55-7.55s-7.55,2.55-7.55,7.55Z"/><circle class="cls-19" cx="330.42" cy="51.89" r="5.92"/><circle class="cls-19" cx="330.42" cy="51.89" r="3.98"/><path class="cls-19" d="M354.27,40.68c0,.35.27,1,.59,1H359c.33,0,.59-.65.59-1h0c0-.35-.27-1-.59-1h-4.18c-.33,0-.59.65-.59,1Z"/><rect class="cls-19" x="335.35" y="39.68" width="6" height="1" rx="0.48" ry="0.48"/><path class="cls-19" d="M371.35,35.48c0-.68-.3-1.22-1-1.22l-4.39,0c-.68,0-.63.54-.63,1.22v1.7c0,.68.09,1.09.77,1.09l4.41,0c.68,0,.82-.41.82-1.09Z"/><line class="cls-19" x1="335.56" y1="36.59" x2="331.42" y2="43.7"/><line class="cls-19" x1="352.6" y1="37.11" x2="352.6" y2="47.86"/><line class="cls-19" x1="349.72" y1="37.11" x2="356.18" y2="37.11"/><circle class="cls-19" cx="330.42" cy="51.89" r="1.83"/><circle class="cls-19" cx="379.74" cy="51.89" r="1.83"/><rect class="cls-19" x="335.35" y="27.68" width="16" height="10" rx="1.78" ry="1.78"/><path class="cls-19" d="M317.9,35.45c-.22,1,.8,1.23,1.78,1.23h11.9c1,0,1.77-.24,1.77-1.23V28.91c0-1-.78-1.23-1.77-1.23h-4.76C323.1,27.68,318.53,32.68,317.9,35.45Z"/><path class="cls-19" d="M354.35,35.45c0,1,.64,1.23,1.62,1.23h13.68c1,0,1.78-.15,1.78-1.23,0-3-4.56-7.77-7.73-7.77H356c-1,0-1.62.24-1.62,1.23Z"/><text class="cls-20" transform="translate(324.75 78.1)">$10,000</text><text class="cls-21" transform="translate(325.8 89.36)">xxx xxxxx</text><rect class="cls-2" x="332.61" y="93" width="3.34" height="0.96"/><rect class="cls-2" x="336.62" y="93.02" width="0.88" height="1"/><rect class="cls-2" x="338.17" y="93.02" width="0.88" height="1"/><rect class="cls-2" x="339.71" y="93.02" width="0.88" height="1"/><rect class="cls-2" x="341.53" y="93" width="7.88" height="0.96"/><rect class="cls-2" x="350.08" y="93.02" width="0.88" height="1"/><rect class="cls-2" x="351.62" y="93.02" width="0.88" height="1"/><rect class="cls-2" x="353.17" y="93.02" width="0.88" height="1"/><rect class="cls-2" x="354.98" y="93" width="7.88" height="0.96"/><rect class="cls-2" x="363.53" y="93.02" width="0.88" height="1"/><rect class="cls-2" x="365.08" y="93.02" width="0.88" height="1"/><rect class="cls-2" x="366.62" y="93.02" width="0.88" height="1"/><rect class="cls-2" x="368.14" y="93" width="1.69" height="0.96"/><rect class="cls-2" x="370.29" y="93.02" width="0.88" height="1"/><rect class="cls-2" x="371.83" y="93.02" width="0.88" height="1"/><rect class="cls-2" x="373.38" y="93.02" width="0.88" height="1"/><rect class="cls-2" x="370.91" y="95.62" width="3.34" height="0.96"/><rect class="cls-2" x="369.36" y="95.55" width="0.88" height="1" transform="translate(739.61 192.11) rotate(180)"/><rect class="cls-2" x="367.82" y="95.55" width="0.88" height="1" transform="translate(736.51 192.11) rotate(180)"/><rect class="cls-2" x="366.27" y="95.55" width="0.88" height="1" transform="translate(733.42 192.11) rotate(180)"/><rect class="cls-2" x="357.46" y="95.62" width="7.88" height="0.96"/><rect class="cls-2" x="355.91" y="95.55" width="0.88" height="1" transform="translate(712.7 192.11) rotate(180)"/><rect class="cls-2" x="354.37" y="95.55" width="0.88" height="1" transform="translate(709.61 192.11) rotate(180)"/><rect class="cls-2" x="352.82" y="95.55" width="0.88" height="1" transform="translate(706.52 192.11) rotate(180)"/><rect class="cls-2" x="344.01" y="95.62" width="7.88" height="0.96"/><rect class="cls-2" x="342.46" y="95.55" width="0.88" height="1" transform="translate(685.79 192.11) rotate(180)"/><rect class="cls-2" x="340.91" y="95.55" width="0.88" height="1" transform="translate(682.7 192.11) rotate(180)"/><rect class="cls-2" x="339.37" y="95.55" width="0.88" height="1" transform="translate(679.61 192.11) rotate(180)"/><rect class="cls-2" x="337.03" y="95.62" width="1.69" height="0.96"/><rect class="cls-2" x="335.7" y="95.55" width="0.88" height="1" transform="translate(672.28 192.11) rotate(180)"/><rect class="cls-2" x="334.16" y="95.55" width="0.88" height="1" transform="translate(669.19 192.11) rotate(180)"/><rect class="cls-2" x="332.61" y="95.55" width="0.88" height="1" transform="translate(666.1 192.11) rotate(180)"/><rect class="cls-2" x="332.61" y="98.45" width="3.34" height="0.96"/><rect class="cls-2" x="336.62" y="98.47" width="0.88" height="1"/><rect class="cls-2" x="338.17" y="98.47" width="0.88" height="1"/><rect class="cls-2" x="339.71" y="98.47" width="0.88" height="1"/><rect class="cls-2" x="341.53" y="98.45" width="7.88" height="0.96"/><rect class="cls-2" x="350.08" y="98.47" width="0.88" height="1"/><rect class="cls-2" x="351.62" y="98.47" width="0.88" height="1"/><rect class="cls-2" x="353.17" y="98.47" width="0.88" height="1"/><rect class="cls-2" x="354.98" y="98.45" width="7.88" height="0.96"/><rect class="cls-2" x="363.53" y="98.47" width="0.88" height="1"/><rect class="cls-2" x="365.08" y="98.47" width="0.88" height="1"/><rect class="cls-2" x="366.62" y="98.47" width="0.88" height="1"/><rect class="cls-2" x="368.14" y="98.45" width="1.69" height="0.96"/><rect class="cls-2" x="370.29" y="98.47" width="0.88" height="1"/><rect class="cls-2" x="371.83" y="98.47" width="0.88" height="1"/><rect class="cls-2" x="373.38" y="98.47" width="0.88" height="1"/><rect class="cls-2" x="370.91" y="101.06" width="3.34" height="0.96"/><rect class="cls-2" x="369.36" y="101" width="0.88" height="1" transform="translate(739.61 203.01) rotate(180)"/><rect class="cls-2" x="367.82" y="101" width="0.88" height="1" transform="translate(736.51 203.01) rotate(180)"/><rect class="cls-2" x="366.27" y="101" width="0.88" height="1" transform="translate(733.42 203.01) rotate(180)"/><rect class="cls-2" x="357.46" y="101.06" width="7.88" height="0.96"/><rect class="cls-2" x="355.91" y="101" width="0.88" height="1" transform="translate(712.7 203.01) rotate(180)"/><rect class="cls-2" x="354.37" y="101" width="0.88" height="1" transform="translate(709.61 203.01) rotate(180)"/><rect class="cls-2" x="352.82" y="101" width="0.88" height="1" transform="translate(706.52 203.01) rotate(180)"/><rect class="cls-2" x="344.01" y="101.06" width="7.88" height="0.96"/><rect class="cls-2" x="342.46" y="101" width="0.88" height="1" transform="translate(685.79 203.01) rotate(180)"/><rect class="cls-2" x="340.91" y="101" width="0.88" height="1" transform="translate(682.7 203.01) rotate(180)"/><rect class="cls-2" x="339.37" y="101" width="0.88" height="1" transform="translate(679.61 203.01) rotate(180)"/><rect class="cls-2" x="337.03" y="101.06" width="1.69" height="0.96"/><rect class="cls-2" x="335.7" y="101" width="0.88" height="1" transform="translate(672.28 203.01) rotate(180)"/><rect class="cls-2" x="334.16" y="101" width="0.88" height="1" transform="translate(669.19 203.01) rotate(180)"/><rect class="cls-2" x="332.61" y="101" width="0.88" height="1" transform="translate(666.1 203.01) rotate(180)"/><line class="cls-18" x1="318.22" y1="147.07" x2="388.64" y2="147.07"/><path class="cls-19" d="M328,117.68H364.3c5.6,0,9.57,11,12.66,11h7.86c4.11,0,6.53,3.29,6.53,7.4v4.83c0,1.44-.26,2.77-1.69,2.77H318.12a2.9,2.9,0,0,1-2.77-2.77V129.75C315.35,123.58,323.61,117.68,328,117.68Z"/><path class="cls-19" d="M315.59,134.68s1.76-.77,1.76,1v1a2,2,0,0,1-1.76,2h-.24v-4Z"/><path class="cls-19" d="M389.35,133.7v-3c0-.19-.47-.37-.43-.54,1.77,1.36,2.43,3.49,2.43,5.9v.27s.29,0,.19,0C390.06,136.37,389.35,135.17,389.35,133.7Z"/><path class="cls-19" d="M389.65,143.68H318.12a2.9,2.9,0,0,1-2.77-2.77v-.23h76v.23C391.35,142.34,391.09,143.68,389.65,143.68Z"/><path class="cls-19" d="M387.29,143.68c0-5-3.38-7.55-7.55-7.55s-7.55,2.55-7.55,7.55Z"/><circle class="cls-19" cx="379.79" cy="143.89" r="5.92"/><circle class="cls-19" cx="379.79" cy="143.89" r="3.98"/><path class="cls-19" d="M337.92,143.68c0-5-3.38-7.55-7.55-7.55s-7.55,2.55-7.55,7.55Z"/><circle class="cls-19" cx="330.42" cy="143.89" r="5.92"/><circle class="cls-19" cx="330.42" cy="143.89" r="3.98"/><path class="cls-19" d="M354.27,132.68c0,.35.27,1,.59,1H359c.33,0,.59-.65.59-1h0c0-.35-.27-1-.59-1h-4.18c-.33,0-.59.65-.59,1Z"/><rect class="cls-19" x="335.35" y="131.68" width="6" height="1" rx="0.48" ry="0.48"/><path class="cls-19" d="M371.35,127.48c0-.68-.3-1.22-1-1.22l-4.39,0c-.68,0-.63.54-.63,1.22v1.7c0,.68.09,1.09.77,1.09l4.41,0c.68,0,.82-.41.82-1.09Z"/><line class="cls-19" x1="335.56" y1="128.59" x2="331.42" y2="135.7"/><line class="cls-19" x1="352.6" y1="129.11" x2="352.6" y2="139.86"/><line class="cls-19" x1="349.72" y1="129.11" x2="356.18" y2="129.11"/><text></text><circle class="cls-19" cx="379.74" cy="143.89" r="1.83"/><rect class="cls-19" x="335.35" y="119.68" width="16" height="10" rx="1.78" ry="1.78"/><path class="cls-19" d="M317.9,127.45c-.22,1,.8,1.23,1.78,1.23h11.9c1,0,1.77-.24,1.77-1.23v-6.54c0-1-.78-1.23-1.77-1.23h-4.76C323.1,119.68,318.53,124.68,317.9,127.45Z"/><path class="cls-19" d="M354.35,127.45c0,1,.64,1.23,1.62,1.23h13.68c1,0,1.78-.15,1.78-1.23,0-3-4.56-7.77-7.73-7.77H356c-1,0-1.62.24-1.62,1.23Z"/><text class="cls-20" transform="translate(324.75 170.1)">$15,500</text><text class="cls-21" transform="translate(325.8 181.36)">xxx xxxxx</text><rect class="cls-2" x="332.61" y="185" width="3.34" height="0.96"/><rect class="cls-2" x="336.62" y="185.02" width="0.88" height="1"/><rect class="cls-2" x="338.17" y="185.02" width="0.88" height="1"/><rect class="cls-2" x="339.71" y="185.02" width="0.88" height="1"/><rect class="cls-2" x="341.53" y="185" width="7.88" height="0.96"/><rect class="cls-2" x="350.08" y="185.02" width="0.88" height="1"/><rect class="cls-2" x="351.62" y="185.02" width="0.88" height="1"/><rect class="cls-2" x="353.17" y="185.02" width="0.88" height="1"/><rect class="cls-2" x="354.98" y="185" width="7.88" height="0.96"/><rect class="cls-2" x="363.53" y="185.02" width="0.88" height="1"/><rect class="cls-2" x="365.08" y="185.02" width="0.88" height="1"/><rect class="cls-2" x="366.62" y="185.02" width="0.88" height="1"/><rect class="cls-2" x="368.14" y="185" width="1.69" height="0.96"/><rect class="cls-2" x="370.29" y="185.02" width="0.88" height="1"/><rect class="cls-2" x="371.83" y="185.02" width="0.88" height="1"/><rect class="cls-2" x="373.38" y="185.02" width="0.88" height="1"/><rect class="cls-2" x="370.91" y="187.62" width="3.34" height="0.96"/><rect class="cls-2" x="369.36" y="187.55" width="0.88" height="1" transform="translate(739.61 376.11) rotate(180)"/><rect class="cls-2" x="367.82" y="187.55" width="0.88" height="1" transform="translate(736.51 376.11) rotate(180)"/><rect class="cls-2" x="366.27" y="187.55" width="0.88" height="1" transform="translate(733.42 376.11) rotate(180)"/><rect class="cls-2" x="357.46" y="187.62" width="7.88" height="0.96"/><rect class="cls-2" x="355.91" y="187.55" width="0.88" height="1" transform="translate(712.7 376.11) rotate(180)"/><rect class="cls-2" x="354.37" y="187.55" width="0.88" height="1" transform="translate(709.61 376.11) rotate(180)"/><rect class="cls-2" x="352.82" y="187.55" width="0.88" height="1" transform="translate(706.52 376.11) rotate(180)"/><rect class="cls-2" x="344.01" y="187.62" width="7.88" height="0.96"/><rect class="cls-2" x="342.46" y="187.55" width="0.88" height="1" transform="translate(685.79 376.11) rotate(180)"/><rect class="cls-2" x="340.91" y="187.55" width="0.88" height="1" transform="translate(682.7 376.11) rotate(180)"/><rect class="cls-2" x="339.37" y="187.55" width="0.88" height="1" transform="translate(679.61 376.11) rotate(180)"/><rect class="cls-2" x="337.03" y="187.62" width="1.69" height="0.96"/><rect class="cls-2" x="335.7" y="187.55" width="0.88" height="1" transform="translate(672.28 376.11) rotate(180)"/><rect class="cls-2" x="334.16" y="187.55" width="0.88" height="1" transform="translate(669.19 376.11) rotate(180)"/><rect class="cls-2" x="332.61" y="187.55" width="0.88" height="1" transform="translate(666.1 376.11) rotate(180)"/><rect class="cls-2" x="332.61" y="190.45" width="3.34" height="0.96"/><rect class="cls-2" x="336.62" y="190.47" width="0.88" height="1"/><rect class="cls-2" x="338.17" y="190.47" width="0.88" height="1"/><rect class="cls-2" x="339.71" y="190.47" width="0.88" height="1"/><rect class="cls-2" x="341.53" y="190.45" width="7.88" height="0.96"/><rect class="cls-2" x="350.08" y="190.47" width="0.88" height="1"/><rect class="cls-2" x="351.62" y="190.47" width="0.88" height="1"/><rect class="cls-2" x="353.17" y="190.47" width="0.88" height="1"/><rect class="cls-2" x="354.98" y="190.45" width="7.88" height="0.96"/><rect class="cls-2" x="363.53" y="190.47" width="0.88" height="1"/><rect class="cls-2" x="365.08" y="190.47" width="0.88" height="1"/><rect class="cls-2" x="366.62" y="190.47" width="0.88" height="1"/><rect class="cls-2" x="368.14" y="190.45" width="1.69" height="0.96"/><rect class="cls-2" x="370.29" y="190.47" width="0.88" height="1"/><rect class="cls-2" x="371.83" y="190.47" width="0.88" height="1"/><rect class="cls-2" x="373.38" y="190.47" width="0.88" height="1"/><rect class="cls-2" x="370.91" y="193.06" width="3.34" height="0.96"/><rect class="cls-2" x="369.36" y="193" width="0.88" height="1" transform="translate(739.61 387.01) rotate(180)"/><rect class="cls-2" x="367.82" y="193" width="0.88" height="1" transform="translate(736.51 387.01) rotate(180)"/><rect class="cls-2" x="366.27" y="193" width="0.88" height="1" transform="translate(733.42 387.01) rotate(180)"/><rect class="cls-2" x="357.46" y="193.06" width="7.88" height="0.96"/><rect class="cls-2" x="355.91" y="193" width="0.88" height="1" transform="translate(712.7 387.01) rotate(180)"/><rect class="cls-2" x="354.37" y="193" width="0.88" height="1" transform="translate(709.61 387.01) rotate(180)"/><rect class="cls-2" x="352.82" y="193" width="0.88" height="1" transform="translate(706.52 387.01) rotate(180)"/><rect class="cls-2" x="344.01" y="193.06" width="7.88" height="0.96"/><rect class="cls-2" x="342.46" y="193" width="0.88" height="1" transform="translate(685.79 387.01) rotate(180)"/><rect class="cls-2" x="340.91" y="193" width="0.88" height="1" transform="translate(682.7 387.01) rotate(180)"/><rect class="cls-2" x="339.37" y="193" width="0.88" height="1" transform="translate(679.61 387.01) rotate(180)"/><rect class="cls-2" x="337.03" y="193.06" width="1.69" height="0.96"/><rect class="cls-2" x="335.7" y="193" width="0.88" height="1" transform="translate(672.28 387.01) rotate(180)"/><rect class="cls-2" x="334.16" y="193" width="0.88" height="1" transform="translate(669.19 387.01) rotate(180)"/><rect class="cls-2" x="332.61" y="193" width="0.88" height="1" transform="translate(666.1 387.01) rotate(180)"/><rect class="cls-4" x="313.94" y="146.57" width="0.88" height="1"/><rect class="cls-4" x="315.49" y="146.57" width="0.88" height="1"/><rect class="cls-4" x="317.03" y="146.57" width="0.88" height="1"/></g></g></g></svg>