<svg xmlns="http://www.w3.org/2000/svg" viewBox="0 0 1293.1 75.69"><defs><style>.cls-1{fill:#e6e7e8;}.cls-2,.cls-6{fill:#fff;}.cls-11,.cls-3,.cls-4,.cls-7{fill:none;}.cls-11,.cls-3,.cls-4,.cls-6,.cls-7{stroke:#0080b3;}.cls-3,.cls-4,.cls-6{stroke-linecap:round;stroke-linejoin:round;}.cls-11,.cls-3,.cls-4,.cls-6{stroke-width:2px;}.cls-4{stroke-dasharray:2.98 5.97;}.cls-10,.cls-5,.cls-8{fill:#0080b3;}.cls-11,.cls-7{stroke-miterlimit:10;}.cls-8{font-size:5px;font-family:HelveticaNeueLTPro-LtCn, HelveticaNeueLTPro LtCn;}.cls-9{letter-spacing:-0.01em;}.cls-10{font-size:13.19px;font-family:HelveticaNeueLTPro-BdCn, HelveticaNeueLTPro BdCn;}</style></defs><title>car-border</title><g id="Layer_2" data-name="Layer 2"><g id="Layer_1-2" data-name="Layer 1"><rect class="cls-1" y="13" width="1293.1" height="41.87"/><line class="cls-2" x1="488.48" y1="36.69" x2="864.3" y2="36.69"/><line class="cls-3" x1="488.48" y1="36.69" x2="489.98" y2="36.69"/><line class="cls-4" x1="495.94" y1="36.69" x2="859.82" y2="36.69"/><line class="cls-3" x1="862.8" y1="36.69" x2="864.3" y2="36.69"/><path class="cls-2" d="M471.35,62.25a9.06,9.06,0,0,1-.11-18.12h.11a9.06,9.06,0,0,1,.11,18.12Z"/><path class="cls-5" d="M471.36,45.13a8.06,8.06,0,0,1,.1,16.12h-.1a8.06,8.06,0,0,1-.09-16.12h.1m0-2h-.12a10.06,10.06,0,0,0,.12,20.12h.12a10.06,10.06,0,0,0-.12-20.12Z"/><path class="cls-2" d="M401.06,63.1A9.06,9.06,0,0,1,400.95,45h.11a9.06,9.06,0,0,1,.11,18.12Z"/><path class="cls-5" d="M401.06,46a8.06,8.06,0,0,1,.09,16.12h-.1A8.06,8.06,0,0,1,401,46h.1m0-2h-.12a10.06,10.06,0,0,0,.12,20.12h.12A10.06,10.06,0,0,0,401.06,44Z"/><path class="cls-2" d="M387.5,55.2a7.44,7.44,0,0,1-6.26-2.87c-3.92-5.14-2-16.1.21-24.4,1.58-5.81,6.17-10.17,10.6-14.39.87-.83,1.74-1.66,2.58-2.49A22.46,22.46,0,0,1,406.18,5h.13l37.16-.45c10.58,0,20.09,10.57,23.69,15.11,2.33,2.95,6.57,3,6.82,3h.26c1,0,5.07.16,13.15,2.25,9.49,2.45,8.9,10,8.77,11l.13,11a7.37,7.37,0,0,1-1.8,5.47,5.75,5.75,0,0,1-4,1.62h-.34l-5.33.06a1,1,0,0,1-1-1c0-.5-.47-12.29-12.35-12.29h-.22c-3.61,0-6.47,1.13-8.5,3.24-3.55,3.68-3.46,9.27-3.46,9.32a1,1,0,0,1-1,1l-43,.52a1,1,0,0,1-1-.93c0-.48-1-11.86-13.13-11.86h-.24c-12.24.15-12.29,11.62-12.28,12.11a1,1,0,0,1-1,1Z"/><path class="cls-5" d="M443.47,5.49c10.67,0,20.19,11.31,22.91,14.73s7.3,3.38,7.61,3.38h.26c1,0,4.9.15,12.9,2.22,9.35,2.42,8,10,8,10l.13,11.06c.07,5.66-3.73,6.08-4.84,6.08h-.3l-5.37.06s-.31-13.27-13.36-13.27h-.23c-13.27.16-12.95,13.59-12.95,13.59l-43,.52s-.93-12.78-14.12-12.78h-.25c-13.43.16-13.27,13.12-13.27,13.12h-.13c-11.53,0-6.89-19.37-5.09-26s7.92-11.47,12.92-16.43a21.6,21.6,0,0,1,11-5.82l37-.45h.18m0-2h-.21l-37,.45L406,4a23.55,23.55,0,0,0-12.11,6.38c-.83.82-1.71,1.66-2.56,2.47-4.53,4.31-9.22,8.78-10.88,14.85-3.38,12.38-3.39,20.89,0,25.27a8.5,8.5,0,0,0,7.06,3.26h.15a2,2,0,0,0,2-2c0-1.12.27-11,11.3-11.09h.22c11.2,0,12.1,10.48,12.13,10.93a2,2,0,0,0,2,1.85h0l43-.52a2,2,0,0,0,2-2s-.05-5.27,3.2-8.62a10.57,10.57,0,0,1,7.77-2.91h.21c4.55,0,7.83,1.83,9.73,5.44a15.16,15.16,0,0,1,1.62,5.88,2,2,0,0,0,2,1.95h0l5.28-.06h.37a6.76,6.76,0,0,0,4.74-1.91,8.32,8.32,0,0,0,2.09-6.19L497.16,36c.49-3.33-.89-9.87-9.52-12.1-8.19-2.12-12.33-2.28-13.4-2.28H474c-.28,0-4-.12-6-2.63C463.36,13.2,454.09,3.5,443.47,3.49Z"/><path class="cls-2" d="M406.28,10.88a15.78,15.78,0,0,1,3.49-.4h.41l21.46-.26L431.8,23l-25.37.31Z"/><path class="cls-5" d="M430.65,11.24l.13,10.81-23.37.28-.13-10.64a15.16,15.16,0,0,1,2.48-.22h.49l20.39-.25m2-2-22.39.27h-.47a16.6,16.6,0,0,0-4.5.63l.17,14.25L432.81,24l-.18-14.81Z"/><path class="cls-2" d="M401.28,13.74a7.09,7.09,0,0,1,1-1l.13,10.67-10.68.13Z"/><path class="cls-5" d="M401.31,15.14l.09,7.27-7.27.09,7.18-7.36m1.95-4.24a8.14,8.14,0,0,0-2.7,2.14L389.33,24.55l14.1-.17-.16-13.48Z"/><path class="cls-2" d="M435.66,10.18l7.29-.09H444c2.67,0,4.1.25,8.53,2.94,3.61,2.19,7.69,7.12,9.65,9.65L435.81,23Z"/><path class="cls-5" d="M444,11.09c2.3,0,3.6.12,8,2.8,2.83,1.72,6,5.23,8.12,7.82L436.8,22l-.13-10.81,6.29-.08H444m0-2h-1.09l-8.29.1L434.82,24l29.38-.35s-6-8.34-11.12-11.48c-4.61-2.8-6.24-3.09-9.05-3.09Z"/><path class="cls-2" d="M471.35,56.24a3.05,3.05,0,1,1,3.05-3.09,3.05,3.05,0,0,1-3,3.09Z"/><path class="cls-5" d="M471.36,51.13a2.05,2.05,0,0,1,0,4.11h0a2.05,2.05,0,0,1,0-4.11h0m0-2h0a4.05,4.05,0,1,0,4.1,4,4,4,0,0,0-4.1-4Z"/><path class="cls-2" d="M401.06,57.09A3.05,3.05,0,1,1,404.11,54a3.06,3.06,0,0,1-3.05,3.09Z"/><path class="cls-5" d="M401.06,52a2.05,2.05,0,0,1,0,4.11h0A2.05,2.05,0,0,1,401,52h0m0-2h0a4.05,4.05,0,1,0,4.1,4,4,4,0,0,0-4.1-4Z"/><circle class="cls-6" cx="602.96" cy="37.85" r="36.85"/><circle class="cls-6" cx="733.63" cy="37.85" r="36.85"/><circle class="cls-6" cx="864.3" cy="37.85" r="36.85"/><polygon class="cls-6" points="855.25 11.99 858.92 21.92 868.85 25.59 858.92 29.27 855.25 39.2 851.58 29.27 841.65 25.59 851.58 21.92 855.25 11.99"/><polygon class="cls-6" points="878.81 21.25 882.48 31.18 892.41 34.85 882.48 38.53 878.81 48.46 875.13 38.53 865.2 34.85 875.13 31.18 878.81 21.25"/><polygon class="cls-6" points="862.31 39.2 865.98 49.12 875.91 52.8 865.98 56.47 862.31 66.4 858.63 56.47 848.7 52.8 858.63 49.12 862.31 39.2"/><path class="cls-5" d="M756.33,25.37a1.07,1.07,0,0,1,1.07,1.07V49.25a1.07,1.07,0,0,1-1.07,1.07H710.9a1.07,1.07,0,0,1-1.07-1.07V26.44a1.07,1.07,0,0,1,1.07-1.07h45.42m0-2H710.9a3.07,3.07,0,0,0-3.07,3.07V49.25a3.07,3.07,0,0,0,3.07,3.07h45.42a3.07,3.07,0,0,0,3.07-3.07V26.44a3.07,3.07,0,0,0-3.07-3.07Z"/><rect class="cls-7" x="711.97" y="27.51" width="43.28" height="20.67"/><text class="cls-8" transform="translate(728.19 33.71)"><tspan class="cls-9">Y</tspan><tspan x="2.67" y="0">EAR</tspan></text><text class="cls-10" transform="translate(720.68 45.22)">2009</text><rect class="cls-5" x="725.06" y="32.24" width="0.68" height="0.77" transform="translate(1450.8 65.25) rotate(180)"/><rect class="cls-5" x="723.87" y="32.24" width="0.68" height="0.77" transform="translate(1448.42 65.25) rotate(180)"/><rect class="cls-5" x="722.68" y="32.24" width="0.68" height="0.77" transform="translate(1446.04 65.25) rotate(180)"/><rect class="cls-5" x="715.88" y="32.29" width="6.08" height="0.74"/><rect class="cls-5" x="714.69" y="32.24" width="0.68" height="0.77" transform="translate(1430.05 65.25) rotate(180)"/><rect class="cls-5" x="713.5" y="32.24" width="0.68" height="0.77" transform="translate(1427.67 65.25) rotate(180)"/><rect class="cls-5" x="712.31" y="32.24" width="0.68" height="0.77" transform="translate(1425.29 65.25) rotate(180)"/><rect class="cls-5" x="754.03" y="32.24" width="0.68" height="0.77" transform="translate(1508.73 65.25) rotate(180)"/><rect class="cls-5" x="752.83" y="32.24" width="0.68" height="0.77" transform="translate(1506.34 65.25) rotate(180)"/><rect class="cls-5" x="751.64" y="32.24" width="0.68" height="0.77" transform="translate(1503.96 65.25) rotate(180)"/><rect class="cls-5" x="744.84" y="32.29" width="6.08" height="0.74"/><rect class="cls-5" x="743.65" y="32.24" width="0.68" height="0.77" transform="translate(1487.98 65.25) rotate(180)"/><rect class="cls-5" x="742.46" y="32.24" width="0.68" height="0.77" transform="translate(1485.6 65.25) rotate(180)"/><rect class="cls-5" x="741.27" y="32.24" width="0.68" height="0.77" transform="translate(1483.21 65.25) rotate(180)"/><path class="cls-11" d="M614.87,13.36c.37.13.75.27.9.69a1.08,1.08,0,0,1-.31,1.21l-5.52,5.51a.42.42,0,0,0-.13.5c.64,2,1.26,4,1.91,6a.53.53,0,0,0,.3.29l5.89,1.88a.47.47,0,0,0,.56-.15q2.74-2.77,5.51-5.51a1,1,0,0,1,1.84.7A12,12,0,0,1,613.51,37.3a11.64,11.64,0,0,1-3.59-.66.41.41,0,0,0-.5.14l-5.08,5.48-4.92,5.33L594.1,53.3c-1,1.05-1.94,2.12-2.93,3.16A5.83,5.83,0,0,1,581.23,51,5.92,5.92,0,0,1,583,48.16l5.7-5.37,6.67-6.28,7.14-6.73a.44.44,0,0,0,.09-.55,11.82,11.82,0,0,1-.58-5.17,11.94,11.94,0,0,1,6.57-9.44,11.51,11.51,0,0,1,4.2-1.19,2.58,2.58,0,0,0,.31-.07Zm-28.36,37.2a2.16,2.16,0,1,0,0,4.31,2.16,2.16,0,0,0,0-4.31Z"/></g></g></svg>