<svg xmlns="http://www.w3.org/2000/svg" viewBox="0 0 431.16 104.26"><defs><style>.cls-1,.cls-12,.cls-6,.cls-8{fill:#fff;}.cls-1{fill-rule:evenodd;}.cls-2,.cls-4{fill:#0080b1;}.cls-3{fill:#73ba3e;}.cls-4,.cls-5,.cls-7{stroke:#fff;stroke-miterlimit:10;}.cls-4,.cls-5{stroke-width:2px;}.cls-5,.cls-7{fill:none;}.cls-8{font-size:9.75px;font-family:HelveticaNeue-BoldItalic, HelveticaNeue BoldItalic;font-weight:700;font-style:italic;}.cls-9{letter-spacing:-0.02em;}.cls-10{letter-spacing:0.01em;}.cls-11{letter-spacing:0em;}.cls-12{font-size:15.87px;font-family:ArialMT, Arial;}.cls-13{letter-spacing:-0.07em;}</style></defs><title>car-to-map</title><g id="Layer_2" data-name="Layer 2"><g id="Layer_1-2" data-name="Layer 1"><polygon class="cls-1" points="241.34 26.76 241.34 27.35 241.78 26.76 241.34 26.76"/><path class="cls-1" d="M318.85,26.76h-2.56l-4.18,8.58-4.9-.47,3.23-8.1h-2.92L296.71,53.87a7.89,7.89,0,0,0-.87-.2V26.76h-2.71V45.94l-25.69-5.13,12.6-14h-3.4l-5.22,5.81L263.3,31.2l2.51-4.44h-3.43l-2.2,3.91-18.82-3.18v2.73l28,4.72-4.74,5.28-23.22-4.64v2.73l12,2.39L246.79,48h-.22l-.59.62-4.64-1v2.81l2.42.5-.06.06h.36l-2.73,3v3.66l6-6.7h15.79l-.76,9.22H241.34v2.72h5.22l19.14,8.45L256.5,77.6a79.06,79.06,0,0,0-15.15-13.35L242,74.77a66.83,66.83,0,0,1,7.75,7.41l-8.39,5.68v6.38L247.19,98l-5.85,4.72v1.59h2.35l5.92-4.77.32.2.69-1,6.29-5.07,0,.51.54.07a23.28,23.28,0,0,1-.54,8.11c-.15.64-.32,1.3-.52,2h15.5q-1.16-3.38-2.63-6.7c-.29-.64-.59-1.28-.91-1.91L293.14,99v5.29h2.71V99.67l8.47-.32.36,4.91h3l-1.3-17.74A57.71,57.71,0,0,0,318.85,98V94.4c-.91-.67-1.78-1.35-2.61-2l2.61-5V81.61l-4.71,8.94a51.67,51.67,0,0,1-7-7.83l5.78-9.8,6,3.49V73.27l-4.58-2.68,4.52-7.67h.06V60.2H302.35a8,8,0,0,0-.88-2.53l17.38-14V40.18l-6.76,5.45-9.15,0,3.12-7.83,12.8,1V36l-3-.29,3-6.17ZM266.25,43.3l26.86,5.37L265.86,48Zm14.23,16.9h-6.62l-.08-9,6.61.17ZM265.61,51l5.18.13.09,9h-6ZM250.07,48l6-6.69,7.75,1.55L263.4,48Zm3.11,15h33.45a8,8,0,0,0,.88,2.53l-10.13,8.16-9-4,0-.06,0,0Zm15.39,9.72L275,75.49l-12.45,10q-2.05-3.05-4.38-5.89ZM249.42,96.16l-8-5.11,10.09-6.83a67.06,67.06,0,0,1,4.72,6.49Zm15.44-7,0,0-.62-1.37,3.51-2.83,0,.56,5.15.74L266.44,92C265.91,91.06,265.38,90.09,264.87,89.11Zm28.27,7.16-23.4-3.13,7.1-6.41,16.3,2.33Zm0-9.91L270,83l7.62-6.14h15.52Zm0-12.45h-11.8l7.88-6.35a7.93,7.93,0,0,0,3.92,1.89Zm0-20.24a8,8,0,0,0-6.51,6.53h-3.16l-.08-8.71,9.75.25Zm2.71,15.77a7.89,7.89,0,0,0,1.26-.32,53.08,53.08,0,0,0,5.56,12.19l-6.82,3.3Zm0,27.51V88.44l7.4-3.57.87,11.77Zm6.51-34h12.88l-10,17a50.27,50.27,0,0,1-5.52-12.28A8,8,0,0,0,302.35,62.92Zm6.48-14.67-9.07,7.31q-.29-.26-.61-.49l2.59-6.49Z"/><path class="cls-2" d="M262.29,89.81l.05.11a76.42,76.42,0,0,1,4.36,8.36q1.33,3,2.37,6h-3.36q-.86-2.41-1.9-4.8a31.62,31.62,0,0,1-.66,4.8h-3.68q.12-.45.22-.9c1-4.36,1.13-8.95-.33-12.48a70.42,70.42,0,0,0-17.59-19.51l-.23-3.87a75,75,0,0,1,20.74,22.31Z"/><ellipse class="cls-2" cx="294.49" cy="61.56" rx="5.38" ry="5.4"/><path class="cls-3" d="M260.09,68.52a5.77,5.77,0,1,1,11.55,0c0,3.19-5.77,11.55-5.77,11.55S260.09,71.71,260.09,68.52Z"/><circle class="cls-2" cx="265.86" cy="68.53" r="1.92"/><path class="cls-3" d="M255.31,33.12a5.77,5.77,0,0,1,11.55,0c0,3.19-5.77,11.55-5.77,11.55S255.31,36.31,255.31,33.12Z"/><circle class="cls-2" cx="261.08" cy="33.13" r="1.92"/><path class="cls-3" d="M236,47.92a5.77,5.77,0,0,1,11.55,0c0,3.19-5.77,11.55-5.77,11.55S236,51.11,236,47.92Z"/><circle class="cls-2" cx="241.77" cy="47.92" r="1.92"/><path class="cls-3" d="M298.22,19.66a5.77,5.77,0,1,1,11.55,0c0,3.19-5.77,11.55-5.77,11.55S298.22,22.85,298.22,19.66Z"/><circle class="cls-2" cx="304" cy="19.66" r="1.92"/><path class="cls-3" d="M313.07,87.3a5.77,5.77,0,1,1,11.55,0c0,3.19-5.77,11.55-5.77,11.55S313.07,90.49,313.07,87.3Z"/><circle class="cls-2" cx="318.85" cy="87.3" r="1.92"/><path class="cls-4" d="M33.11,22.49h88.66c13.69,0,23.38,28,30.94,28h19.2c10,0,17.09,7.21,17.09,17.25V79.55c0,3.51-1.77,6.94-5.28,6.94H8.95C5.44,86.49,1,83.06,1,79.55V52.29C1,37.22,22.35,22.49,33.11,22.49Z"/><path class="cls-4" d="M2.76,65.49S6,62.43,6,66.76v2.43c0,2.77-1.17,5.3-3.24,5.3H1v-9Z"/><path class="cls-4" d="M182,61.92V54.66a6.59,6.59,0,0,1,0-1.33,18,18,0,0,1,7,14.41v.65a1.89,1.89,0,0,1-.59.07A6.43,6.43,0,0,1,182,61.92Z"/><path class="cls-4" d="M183.72,86.49H8.95C5.44,86.49,1,83.06,1,79.55v-.06H189v.06C189,83.06,187.23,86.49,183.72,86.49Z"/><path class="cls-4" d="M178,86.49c0-12-8.26-18.45-18.45-18.45s-18.45,6.45-18.45,18.45Z"/><circle class="cls-4" cx="159.62" cy="86.83" r="14.46"/><circle class="cls-4" cx="159.62" cy="86.83" r="9.72"/><path class="cls-4" d="M57.32,86.49c0-12-8.26-18.45-18.45-18.45S20.42,74.49,20.42,86.49Z"/><circle class="cls-4" cx="38.98" cy="86.83" r="14.46"/><circle class="cls-4" cx="38.98" cy="86.83" r="9.72"/><path class="cls-4" d="M97.26,60c0,.86.65,2.5,1.45,2.5h10.22c.8,0,1.45-1.64,1.45-2.5h0c0-.86-.65-2.5-1.45-2.5H98.71c-.8,0-1.45,1.64-1.45,2.5Z"/><rect class="cls-4" x="50" y="57.49" width="15" height="3" rx="1.17" ry="1.17"/><path class="cls-4" d="M140,46.74a2.89,2.89,0,0,0-2.9-3L126,43.69c-1.67,0-2,1.31-2,3v4.15c0,1.67.39,2.67,2.06,2.67l11.35.07A2.4,2.4,0,0,0,140,50.89Z"/><line class="cls-4" x1="51.55" y1="49.45" x2="41.44" y2="66.82"/><line class="cls-4" x1="93.18" y1="50.72" x2="93.18" y2="76.98"/><line class="cls-4" x1="86.15" y1="50.72" x2="101.92" y2="50.72"/><circle class="cls-4" cx="38.99" cy="86.83" r="4.47"/><circle class="cls-4" cx="159.5" cy="86.83" r="4.47"/><rect class="cls-4" x="50" y="28.49" width="39" height="25" rx="4.36" ry="4.36"/><path class="cls-4" d="M8.41,47.48c-.54,2.35,2,3,4.36,3H41.83c2.41,0,3.17-1.42,3.17-3.83v-16c0-2.41-.76-2.19-3.17-2.19H30.21C21.12,28.49,10,40.72,8.41,47.48Z"/><path class="cls-4" d="M96,46.66c0,2.41,3,3.83,5.42,3.83h33.43c2.41,0,4.36-.37,4.36-3,0-7.36-11.14-19-18.89-19H101.42C99,28.49,96,28.27,96,30.68Z"/><path class="cls-5" d="M153,43.3s34.59-34,76.8-5.54"/><polygon class="cls-6" points="219.77 41.14 219.41 39.17 229.11 37.41 226.64 27.86 228.58 27.36 231.58 38.99 219.77 41.14"/><path class="cls-5" d="M149.9,39S189-25,292.46,13.12"/><polygon class="cls-6" points="283.47 18.65 282.67 16.82 291.72 12.9 287.16 4.16 288.94 3.23 294.49 13.88 283.47 18.65"/><rect class="cls-7" x="328.67" y="26.76" width="102" height="21.9" rx="8.23" ry="8.23"/><text class="cls-8" transform="translate(344.91 40.49)"><tspan class="cls-9">XXXXX</tspan><tspan x="27.11" y="0">X B</tspan><tspan class="cls-10" x="40.02" y="0">R</tspan><tspan class="cls-11" x="45.32" y="0">AND</tspan></text><rect class="cls-6" x="338.06" y="54.33" width="1.62" height="1.84"/><rect class="cls-6" x="341.4" y="54.3" width="14.51" height="1.76"/><rect class="cls-6" x="357.15" y="54.33" width="1.62" height="1.84"/><rect class="cls-6" x="359.99" y="54.33" width="1.62" height="1.84"/><rect class="cls-6" x="362.84" y="54.33" width="1.62" height="1.84"/><rect class="cls-6" x="365.64" y="54.3" width="3.11" height="1.76"/><rect class="cls-6" x="369.59" y="54.33" width="1.62" height="1.84"/><rect class="cls-6" x="372.43" y="54.33" width="1.62" height="1.84"/><rect class="cls-6" x="375.28" y="54.33" width="1.62" height="1.84"/><rect class="cls-6" x="370.74" y="59.12" width="6.15" height="1.76"/><rect class="cls-6" x="367.89" y="59.01" width="1.62" height="1.84" transform="translate(737.4 119.85) rotate(180)"/><rect class="cls-6" x="365.04" y="59.01" width="1.62" height="1.84" transform="translate(731.7 119.85) rotate(180)"/><rect class="cls-6" x="362.2" y="59.01" width="1.62" height="1.84" transform="translate(726.01 119.85) rotate(180)"/><rect class="cls-6" x="345.96" y="59.12" width="14.51" height="1.76"/><rect class="cls-6" x="343.11" y="59.01" width="1.62" height="1.84" transform="translate(687.84 119.85) rotate(180)"/><rect class="cls-6" x="340.27" y="59.01" width="1.62" height="1.84" transform="translate(682.15 119.85) rotate(180)"/><rect class="cls-6" x="337.42" y="59.01" width="1.62" height="1.84" transform="translate(676.46 119.85) rotate(180)"/><rect class="cls-6" x="415.96" y="59.01" width="1.62" height="1.84" transform="translate(833.54 119.85) rotate(180)"/><rect class="cls-6" x="399.73" y="59.12" width="14.51" height="1.76"/><rect class="cls-6" x="396.88" y="59.01" width="1.62" height="1.84" transform="translate(795.37 119.85) rotate(180)"/><rect class="cls-6" x="394.03" y="59.01" width="1.62" height="1.84" transform="translate(789.67 119.85) rotate(180)"/><rect class="cls-6" x="391.18" y="59.01" width="1.62" height="1.84" transform="translate(783.98 119.85) rotate(180)"/><rect class="cls-6" x="386.89" y="59.12" width="3.11" height="1.76"/><rect class="cls-6" x="384.43" y="59.01" width="1.62" height="1.84" transform="translate(770.48 119.85) rotate(180)"/><rect class="cls-6" x="381.59" y="59.01" width="1.62" height="1.84" transform="translate(764.79 119.85) rotate(180)"/><rect class="cls-6" x="378.74" y="59.01" width="1.62" height="1.84" transform="translate(759.1 119.85) rotate(180)"/><rect class="cls-6" x="378.74" y="54.3" width="6.15" height="1.76"/><rect class="cls-6" x="386.13" y="54.33" width="1.62" height="1.84"/><rect class="cls-6" x="388.98" y="54.33" width="1.62" height="1.84"/><rect class="cls-6" x="391.82" y="54.33" width="1.62" height="1.84"/><rect class="cls-6" x="395.16" y="54.3" width="14.51" height="1.76"/><rect class="cls-6" x="410.91" y="54.33" width="1.62" height="1.84"/><rect class="cls-6" x="413.75" y="54.33" width="1.62" height="1.84"/><rect class="cls-6" x="416.6" y="54.33" width="1.62" height="1.84"/><rect class="cls-6" x="338.06" y="63.7" width="1.62" height="1.84"/><rect class="cls-6" x="341.4" y="63.66" width="14.51" height="1.76"/><rect class="cls-6" x="357.15" y="63.7" width="1.62" height="1.84"/><rect class="cls-6" x="359.99" y="63.7" width="1.62" height="1.84"/><rect class="cls-6" x="362.84" y="63.7" width="1.62" height="1.84"/><rect class="cls-6" x="365.64" y="63.66" width="3.11" height="1.76"/><rect class="cls-6" x="369.59" y="63.7" width="1.62" height="1.84"/><rect class="cls-6" x="372.43" y="63.7" width="1.62" height="1.84"/><rect class="cls-6" x="375.28" y="63.7" width="1.62" height="1.84"/><rect class="cls-6" x="370.74" y="68.48" width="6.15" height="1.76"/><rect class="cls-6" x="367.89" y="68.37" width="1.62" height="1.84" transform="translate(737.4 138.58) rotate(180)"/><rect class="cls-6" x="365.04" y="68.37" width="1.62" height="1.84" transform="translate(731.7 138.58) rotate(180)"/><rect class="cls-6" x="362.2" y="68.37" width="1.62" height="1.84" transform="translate(726.01 138.58) rotate(180)"/><rect class="cls-6" x="345.96" y="68.48" width="14.51" height="1.76"/><rect class="cls-6" x="343.11" y="68.37" width="1.62" height="1.84" transform="translate(687.84 138.58) rotate(180)"/><rect class="cls-6" x="340.27" y="68.37" width="1.62" height="1.84" transform="translate(682.15 138.58) rotate(180)"/><rect class="cls-6" x="337.42" y="68.37" width="1.62" height="1.84" transform="translate(676.46 138.58) rotate(180)"/><rect class="cls-6" x="415.96" y="68.37" width="1.62" height="1.84" transform="translate(833.54 138.58) rotate(180)"/><rect class="cls-6" x="399.73" y="68.48" width="14.51" height="1.76"/><rect class="cls-6" x="396.88" y="68.37" width="1.62" height="1.84" transform="translate(795.37 138.58) rotate(180)"/><rect class="cls-6" x="394.03" y="68.37" width="1.62" height="1.84" transform="translate(789.67 138.58) rotate(180)"/><rect class="cls-6" x="391.18" y="68.37" width="1.62" height="1.84" transform="translate(783.98 138.58) rotate(180)"/><rect class="cls-6" x="386.89" y="68.48" width="3.11" height="1.76"/><rect class="cls-6" x="384.43" y="68.37" width="1.62" height="1.84" transform="translate(770.48 138.58) rotate(180)"/><rect class="cls-6" x="381.59" y="68.37" width="1.62" height="1.84" transform="translate(764.79 138.58) rotate(180)"/><rect class="cls-6" x="378.74" y="68.37" width="1.62" height="1.84" transform="translate(759.1 138.58) rotate(180)"/><rect class="cls-6" x="378.74" y="63.66" width="6.15" height="1.76"/><rect class="cls-6" x="386.13" y="63.7" width="1.62" height="1.84"/><rect class="cls-6" x="388.98" y="63.7" width="1.62" height="1.84"/><rect class="cls-6" x="391.82" y="63.7" width="1.62" height="1.84"/><rect class="cls-6" x="395.16" y="63.66" width="14.51" height="1.76"/><rect class="cls-6" x="410.91" y="63.7" width="1.62" height="1.84"/><rect class="cls-6" x="413.75" y="63.7" width="1.62" height="1.84"/><rect class="cls-6" x="416.6" y="63.7" width="1.62" height="1.84"/><text class="cls-12" transform="translate(337.42 87.3)">$<tspan class="cls-13" x="8.83" y="0">1</tspan><tspan x="16.47" y="0">1,100</tspan></text></g></g></svg>