<svg xmlns="http://www.w3.org/2000/svg" viewBox="0 0 274.68 122.67"><defs><style>.cls-1,.cls-7{fill:none;}.cls-1{stroke:#0080b1;}.cls-1,.cls-5{stroke-linecap:round;stroke-linejoin:round;stroke-width:2px;}.cls-2,.cls-8{fill:#fff;}.cls-2,.cls-5,.cls-7{stroke:#fff;}.cls-2,.cls-7{stroke-miterlimit:10;}.cls-3{fill:#95f050;}.cls-4{fill:#00a4e3;}.cls-5{fill:#0080b1;}.cls-6{fill:#72b83e;}</style></defs><title>check</title><g id="Layer_2" data-name="Layer 2"><g id="Layer_1-2" data-name="Layer 1"><rect class="cls-1" x="60.46" y="1" width="213.22" height="120.67" rx="5.37" ry="5.37"/><rect class="cls-1" x="183.85" y="58.69" width="73.75" height="16.23"/><rect class="cls-1" x="187.87" y="62.28" width="9.05" height="9.05"/><line class="cls-1" x1="201.5" y1="63.03" x2="251.69" y2="63.03"/><line class="cls-1" x1="201.5" y1="66.58" x2="251.69" y2="66.58"/><line class="cls-1" x1="201.5" y1="70.14" x2="251.69" y2="70.14"/><rect class="cls-1" x="183.85" y="79.43" width="73.75" height="16.23"/><rect class="cls-1" x="187.87" y="83.02" width="9.05" height="9.05"/><line class="cls-1" x1="201.5" y1="83.77" x2="251.69" y2="83.77"/><line class="cls-1" x1="201.5" y1="87.32" x2="251.69" y2="87.32"/><line class="cls-1" x1="201.5" y1="90.88" x2="251.69" y2="90.88"/><rect class="cls-1" x="81.4" y="11.9" width="93.26" height="12.78"/><rect class="cls-1" x="180.56" y="11.9" width="14.46" height="12.78"/><path class="cls-2" d="M191.3,21.21l-1.82-1.82a3.12,3.12,0,1,0-.94.85l1.87,1.87a.63.63,0,1,0,.89-.89ZM188,19.66a2.36,2.36,0,1,1,.92-.82A2.34,2.34,0,0,1,188,19.66Z"/><rect class="cls-3" x="75.54" y="36.62" width="184.97" height="13.39"/><line class="cls-1" x1="91.16" y1="41.48" x2="175.55" y2="41.48"/><line class="cls-1" x1="91.16" y1="45.16" x2="148.52" y2="45.16"/><rect class="cls-1" x="79.21" y="39.82" width="7.24" height="7.24"/><line class="cls-1" x1="91.16" y1="61.24" x2="175.55" y2="61.24"/><line class="cls-1" x1="91.16" y1="64.92" x2="148.52" y2="64.92"/><rect class="cls-1" x="79.21" y="59.58" width="7.24" height="7.24"/><line class="cls-1" x1="91.16" y1="81" x2="175.55" y2="81"/><line class="cls-1" x1="91.16" y1="84.68" x2="148.52" y2="84.68"/><rect class="cls-1" x="79.21" y="79.34" width="7.24" height="7.24"/><line class="cls-1" x1="91.16" y1="100.76" x2="175.55" y2="100.76"/><line class="cls-1" x1="91.16" y1="104.44" x2="148.52" y2="104.44"/><rect class="cls-1" x="79.21" y="99.1" width="7.24" height="7.24"/><path class="cls-4" d="M247.56,45.56l19,17.69a1.69,1.69,0,0,1-1.05,2.93l-5.18.31,3.19,6.83-9.28,4-2.88-6.51-3.77,3.94a1.69,1.69,0,0,1-2.91-1.17V46.8A1.69,1.69,0,0,1,247.56,45.56Z"/><polygon class="cls-5" points="247.7 49.76 262.37 63.39 255.81 63.78 259.57 71.82 255.81 73.45 252.33 65.58 247.7 70.42 247.7 49.76"/><path class="cls-4" d="M60.5,73.7a34.68,34.68,0,1,0-8.88,7.1l16.51,9.68Z"/><path class="cls-6" d="M32.18,69.89a5.36,5.36,0,0,1-3.75-1.52L14.16,54.52a5.39,5.39,0,1,1,7.5-7.73l10,9.66,15.7-20.25a5.39,5.39,0,1,1,8.52,6.6l-19.39,25a5.39,5.39,0,0,1-3.88,2.07Z"/><path class="cls-7" d="M32.18,68.89a4.39,4.39,0,0,1-3.05-1.24L14.85,53.8A4.39,4.39,0,0,1,21,47.5L31.72,57.94,48.1,36.8A4.39,4.39,0,1,1,55,42.18l-19.39,25a4.39,4.39,0,0,1-3.16,1.69Z"/><path class="cls-8" d="M51.57,35.11A4.39,4.39,0,0,1,55,42.18l-19.39,25a4.38,4.38,0,0,1-3.16,1.69h-.31a4.39,4.39,0,0,1-3.05-1.24L14.85,53.8A4.39,4.39,0,1,1,21,47.5L31.72,57.94,48.1,36.8a4.38,4.38,0,0,1,3.47-1.7m0-2h0a6.35,6.35,0,0,0-5.05,2.47l-15,19.37-9.16-8.88a6.39,6.39,0,0,0-8.89,9.17L27.74,69.09a6.36,6.36,0,0,0,4.45,1.8l.45,0a6.39,6.39,0,0,0,4.6-2.46l19.39-25a6.4,6.4,0,0,0-1.13-9,6.33,6.33,0,0,0-3.91-1.34Z"/></g></g></svg>