<svg xmlns="http://www.w3.org/2000/svg" viewBox="0 0 225.54 133.32"><defs><style>.cls-1,.cls-4{fill:#fff;}.cls-1{stroke:#0080b3;stroke-linecap:round;stroke-linejoin:round;stroke-width:2px;}.cls-2{fill:#00a4e3;}.cls-3{fill:#72b83e;}</style></defs><title>clear</title><g id="Layer_2" data-name="Layer 2"><g id="Layer_1-2" data-name="Layer 1"><rect class="cls-1" x="1" y="1" width="172" height="131.32" rx="22.1" ry="22.1"/><path class="cls-1" d="M28,67.71c.22-.93.44-1.86.67-2.79A24.44,24.44,0,0,1,36,52.68c1.26-1.16,2.36-2.5,3.58-3.81l-.64-.24a10.54,10.54,0,0,1-5.44-3.91A3.79,3.79,0,0,1,35,38.84a13.59,13.59,0,0,1,8-1.2A3.71,3.71,0,0,1,46.34,41c.07.4.11.81.2,1.45.87-.8,1.6-1.47,2.32-2.16,3.18-3,6.24-6.17,9.57-9a13.32,13.32,0,0,1,8.79-3.12c13.94,0,27.88-.05,41.82,0A15.18,15.18,0,0,1,120,33c3.14,3.14,6.39,6.18,9.77,9.43.08-.51.15-.83.18-1.14a3.85,3.85,0,0,1,3.78-3.76,13.88,13.88,0,0,1,7.67,1.29,3.8,3.8,0,0,1,1.47,5.83,10.53,10.53,0,0,1-5.33,3.9l-.72.25s-.08.09-.13.16c.88.91,1.72,1.86,2.66,2.71a26.11,26.11,0,0,1,7.52,10.5,22.15,22.15,0,0,1,1.51,7.39q0,7.6,0,15.19a14.39,14.39,0,0,1-3.46,9.35,2.13,2.13,0,0,0-.4,1.21c-.07,2,0,4-.13,6a6,6,0,0,1-5.45,5.44,88.06,88.06,0,0,1-9.31,0c-3.63-.19-5.94-2.79-6-6.44,0-1.44.12-1.32-1.38-1.32Q88.1,99,54,99c-1,0-1.28.24-1.29,1.26a6.15,6.15,0,0,1-6.12,6.54,82.41,82.41,0,0,1-9,0,6,6,0,0,1-5.65-5.66c-.15-1.91-.06-3.84-.1-5.76a1.67,1.67,0,0,0-.22-1,15.1,15.1,0,0,1-3.54-7.55,1.23,1.23,0,0,0-.11-.26Q28,77.13,28,67.71ZM129.06,50.49c-.4-.42-.64-.69-.9-.95-3.9-3.8-7.84-7.55-11.69-11.4a12.16,12.16,0,0,0-9.2-3.74c-13.17.1-26.34,0-39.51,0a9.8,9.8,0,0,0-7,2.8c-4.29,4.09-8.51,8.24-12.75,12.37-.24.23-.45.49-.79.87ZM115.7,69.11H60.62A13.4,13.4,0,0,0,63.43,78a6.12,6.12,0,0,0,4.93,2.55c13.2,0,26.4,0,39.6,0a5.62,5.62,0,0,0,3.08-.88C114.61,77.11,115.64,73.35,115.7,69.11Zm-2.22,16.3H62.84a6.86,6.86,0,0,0,7,6.87q18.3.07,36.61,0A6.9,6.9,0,0,0,113.48,85.42Zm18.77-11.08,0-.18a56.84,56.84,0,0,0,6-.38c3.31-.54,5.54-4.12,5-7.75a6.61,6.61,0,0,0-8.88-5.29,37.76,37.76,0,0,0-9,5,22.91,22.91,0,0,0-3.89,4c-.9,1.15-.43,2.35.88,3a4.08,4.08,0,0,0,1.25.47C126.55,73.68,129.41,74,132.26,74.34ZM44,73.93V74c1.34,0,2.69.06,4,0a14.56,14.56,0,0,0,5.8-1.13,1.93,1.93,0,0,0,.94-3,12.43,12.43,0,0,0-1.92-2.37,31.38,31.38,0,0,0-9-5.89,11.41,11.41,0,0,0-4.66-1.24c-4.18.12-7,4.24-6.11,8.33.61,2.8,3.28,5.27,6,5.25C40.66,73.92,42.33,73.93,44,73.93ZM58.51,92.21C55.69,89,53,85.9,50.35,82.85a1.35,1.35,0,0,0-.91-.39q-5.81,0-11.63,0a1.09,1.09,0,0,0-.82.32c-.94,1.57-1.49,3.23-.61,5a8.07,8.07,0,0,0,7.06,4.43c4.66.3,9.35.08,14,.07C57.74,92.29,58,92.25,58.51,92.21Zm59.42-.16.1.25h1.12c4,0,8.07-.08,12.11,0a11.05,11.05,0,0,0,6.16-1.77c2.89-1.73,3.67-4.55,2.14-7.41a1.18,1.18,0,0,0-1.2-.72c-3.78,0-7.56,0-11.34,0a1.87,1.87,0,0,0-1.19.57c-1.16,1.23-2.25,2.53-3.37,3.8Z"/><path class="cls-2" d="M165,84.88a34.68,34.68,0,1,1,8.88,7.1l-16.51,9.68Z"/><path class="cls-3" d="M206.06,82.36A4.73,4.73,0,0,1,202.72,81l-12-11.84L178.67,81A4.76,4.76,0,0,1,172,74.21l11.92-11.73L172,50.74A4.76,4.76,0,0,1,178.67,44l12,11.84,12-11.84a4.76,4.76,0,1,1,6.68,6.78L197.48,62.48,209.4,74.21a4.76,4.76,0,0,1-3.34,8.15Z"/><path class="cls-4" d="M206.06,43.59A3.76,3.76,0,0,1,208.7,50L196.06,62.48,208.7,74.92a3.76,3.76,0,0,1-5.28,5.36L190.7,67.75,178,80.28a3.76,3.76,0,0,1-5.28-5.36l12.64-12.45L172.7,50A3.76,3.76,0,0,1,178,44.67L190.7,57.2l12.72-12.53a3.75,3.75,0,0,1,2.64-1.08m0-2a5.73,5.73,0,0,0-4,1.66L190.7,54.39,179.38,43.25a5.76,5.76,0,1,0-8.08,8.21l11.19,11-11.19,11a5.76,5.76,0,0,0,8.08,8.21L190.7,70.56,202,81.71a5.76,5.76,0,1,0,8.08-8.21l-11.19-11,11.19-11a5.76,5.76,0,0,0-4-9.87Z"/></g></g></svg>