<svg xmlns="http://www.w3.org/2000/svg" viewBox="0 0 463 196.7"><defs><style>.cls-1,.cls-12,.cls-2,.cls-9{fill:#fff;}.cls-1{stroke:#e6e6e6;stroke-miterlimit:10;}.cls-1,.cls-5,.cls-8{stroke-width:3px;}.cls-2{font-size:23.28px;font-family:MuseoSans-900Italic, MuseoSans 900Italic;font-style:italic;}.cls-3{letter-spacing:-0.01em;}.cls-4{letter-spacing:0em;}.cls-5{fill:none;stroke:#76bd3f;}.cls-5,.cls-8{stroke-linecap:round;stroke-linejoin:round;}.cls-6{font-size:20px;fill:#0066ae;}.cls-6,.cls-9{font-family:ArialMT, Arial;}.cls-7{letter-spacing:-0.02em;}.cls-8{fill:#76bd3f;stroke:#fff;}.cls-9{font-size:22px;}.cls-10{fill:#bbe170;}.cls-11{fill:#a1c260;}</style></defs><title>cost-per-sale</title><g id="Layer_2" data-name="Layer 2"><g id="Layer_1-2" data-name="Layer 1"><rect class="cls-1" x="276.5" y="56.21" width="185" height="80"/><text class="cls-2" transform="translate(19.37 80.28)"><tspan class="cls-3">C</tspan><tspan x="13.25" y="0">ost os the Listing(s)</tspan></text><text class="cls-2" transform="translate(94.42 129.28)"><tspan class="cls-4">S</tspan><tspan x="11.55" y="0">ales</tspan></text><line class="cls-5" x1="1.5" y1="99.28" x2="241.5" y2="99.28"/><text class="cls-6" transform="translate(340.4 91.27)">COS<tspan class="cls-7" x="43.34" y="0">T</tspan><tspan x="-21.31" y="27.84">PER SALE</tspan></text><circle class="cls-8" cx="276.5" cy="96.21" r="20"/><text class="cls-9" transform="translate(270.08 101.21)">=</text><path class="cls-10" d="M111.4,1.85l.46,2.74a15.14,15.14,0,0,1,4.69.36,9.05,9.05,0,0,1,3.71,2,11,11,0,0,1,2.16,2.38,6.42,6.42,0,0,1,1,2.41,3.1,3.1,0,0,1-.52,2.35,3,3,0,0,1-2,1.29q-2.41.41-3.57-2.17a5.75,5.75,0,0,0-4.62-3.56l1.79,10.57q3.19.35,5.11.76a10.13,10.13,0,0,1,3.58,1.51,9.65,9.65,0,0,1,2.91,2.94,11,11,0,0,1,1.54,4.12,11.76,11.76,0,0,1-.4,5.65A10.73,10.73,0,0,1,124.07,40a13.61,13.61,0,0,1-5.74,2.93l1.07,6.33a6.27,6.27,0,0,1,.09,2.23,1.21,1.21,0,0,1-1.12.9A1.37,1.37,0,0,1,117,52a3.33,3.33,0,0,1-.65-1.67l-1.16-6.86a15.31,15.31,0,0,1-5.26-.55,12.07,12.07,0,0,1-4-2,11.26,11.26,0,0,1-2.68-2.94A9.13,9.13,0,0,1,102,34.69a3.17,3.17,0,0,1,.55-2.35A3.07,3.07,0,0,1,104.68,31a3.21,3.21,0,0,1,2,.22,2.79,2.79,0,0,1,1.31,1.32,33.32,33.32,0,0,0,1.69,3,6.21,6.21,0,0,0,1.83,1.77,6.65,6.65,0,0,0,2.87,1l-2-11.81a29.75,29.75,0,0,1-5.85-1.17,9.5,9.5,0,0,1-4.14-2.68A10.11,10.11,0,0,1,100,17.3a10,10,0,0,1,1.48-7.62q2.22-3.25,7.22-4.56l-.45-2.69Q107.93.29,109.47,0T111.4,1.85Zm-.17,18-1.64-9.73a8.59,8.59,0,0,0-2.93,2.22,4.09,4.09,0,0,0-.62,3.34,4.06,4.06,0,0,0,1.59,2.85A10,10,0,0,0,111.22,19.8Zm4.39,7,1.88,11.13a6.76,6.76,0,0,0,3.48-2.7,5.4,5.4,0,0,0,.74-3.84,4.47,4.47,0,0,0-1.89-3.19A10.72,10.72,0,0,0,115.61,26.82Z"/><path class="cls-11" d="M141.39,25.29l-.32,1.49a8.27,8.27,0,0,1,2.31,1.12,5,5,0,0,1,1.48,1.75,6,6,0,0,1,.62,1.64,3.51,3.51,0,0,1,0,1.43,1.69,1.69,0,0,1-.74,1.09,1.61,1.61,0,0,1-1.28.25,1.71,1.71,0,0,1-1.38-1.82,3.14,3.14,0,0,0-1.63-2.73l-1.21,5.73q1.55.82,2.45,1.41a5.54,5.54,0,0,1,1.51,1.49,5.27,5.27,0,0,1,.89,2.08,6,6,0,0,1,0,2.4,6.43,6.43,0,0,1-1.33,2.79,5.87,5.87,0,0,1-2.57,1.79,7.44,7.44,0,0,1-3.51.34L136,51a3.43,3.43,0,0,1-.4,1.15.66.66,0,0,1-.75.23.75.75,0,0,1-.61-.45,1.82,1.82,0,0,1,0-1l.79-3.72a8.37,8.37,0,0,1-2.56-1.33A6.6,6.6,0,0,1,130.78,44a6.15,6.15,0,0,1-.77-2,5,5,0,0,1,0-1.9,1.73,1.73,0,0,1,.75-1.09,1.68,1.68,0,0,1,1.36-.27,1.76,1.76,0,0,1,1,.5,1.52,1.52,0,0,1,.4.93,18.21,18.21,0,0,0,.26,1.86,3.39,3.39,0,0,0,.57,1.27,3.63,3.63,0,0,0,1.27,1.06l1.36-6.4a16.26,16.26,0,0,1-2.74-1.77,5.19,5.19,0,0,1-1.57-2.2,5.52,5.52,0,0,1-.12-3.13,5.49,5.49,0,0,1,2.28-3.58,6.56,6.56,0,0,1,4.59-.87L139.7,25q.25-1.16,1.08-1T141.39,25.29Zm-3.69,9.09,1.12-5.28a4.69,4.69,0,0,0-1.94.54,2.23,2.23,0,0,0-1,1.58,2.22,2.22,0,0,0,.24,1.77A5.45,5.45,0,0,0,137.7,34.38Zm.82,4.45-1.28,6a3.69,3.69,0,0,0,2.31-.68,3,3,0,0,0,1.15-1.8,2.44,2.44,0,0,0-.32-2A5.86,5.86,0,0,0,138.53,38.83Z"/><path class="cls-11" d="M89.17,26.22l.58,1.41a8.27,8.27,0,0,1,2.54-.38,5,5,0,0,1,2.21.61,6,6,0,0,1,1.44,1A3.51,3.51,0,0,1,96.78,30a1.69,1.69,0,0,1,0,1.32,1.61,1.61,0,0,1-.92.93,1.71,1.71,0,0,1-2.17-.72,3.14,3.14,0,0,0-2.89-1.34L93,35.64q1.74-.2,2.82-.21a5.54,5.54,0,0,1,2.09.37A5.27,5.27,0,0,1,99.85,37a6,6,0,0,1,1.32,2,6.43,6.43,0,0,1,.47,3.06A5.87,5.87,0,0,1,100.52,45a7.44,7.44,0,0,1-2.71,2.25l1.33,3.24a3.43,3.43,0,0,1,.32,1.18.66.66,0,0,1-.49.61.75.75,0,0,1-.75,0,1.82,1.82,0,0,1-.55-.81L96.23,48a8.37,8.37,0,0,1-2.87.34,6.6,6.6,0,0,1-2.4-.61,6.15,6.15,0,0,1-1.78-1.25,5,5,0,0,1-1.06-1.58,1.73,1.73,0,0,1,0-1.32,1.68,1.68,0,0,1,1-1,1.76,1.76,0,0,1,1.07-.12A1.52,1.52,0,0,1,91,43a18.21,18.21,0,0,0,1.26,1.39,3.39,3.39,0,0,0,1.19.72,3.63,3.63,0,0,0,1.65.16L92.63,39.2a16.26,16.26,0,0,1-3.26.08,5.19,5.19,0,0,1-2.53-.93A5.52,5.52,0,0,1,85,35.83a5.49,5.49,0,0,1-.13-4.24,6.56,6.56,0,0,1,3.3-3.3l-.57-1.38q-.45-1.09.34-1.42T89.17,26.22Zm2.07,9.59-2-5a4.69,4.69,0,0,0-1.29,1.54,2.68,2.68,0,0,0,1.27,3.19A5.45,5.45,0,0,0,91.24,35.81ZM94.43,39l2.34,5.7a3.69,3.69,0,0,0,1.53-1.86,3,3,0,0,0-.07-2.13,2.44,2.44,0,0,0-1.39-1.47A5.86,5.86,0,0,0,94.43,39Z"/><path class="cls-12" d="M128.1,191.1H128a2.79,2.79,0,0,1-2.09-1.09l-4.24-5.53-10,9.54c10.56.27,21.61-2.41,22.38-8l-3.89,4.22A2.79,2.79,0,0,1,128.1,191.1Z"/><path class="cls-12" d="M120.41,173.42a2.79,2.79,0,0,1,1.93-.77h.22a2.79,2.79,0,0,1,2,1.09l4,5.17,3.12-3.38a21.07,21.07,0,0,0-7.31-7.9,14,14,0,0,1-22.42,0,21,21,0,0,0-9.76,17.72c0,3.32,3.45,5.69,8.37,7.1l.11-.13Z"/><circle class="cls-12" cx="113.12" cy="159.17" r="10.79"/><polygon class="cls-10" points="144.94 167.61 137.14 167.93 133.96 171.38 139.47 171.15 128.32 183.25 122.34 175.44 102.56 194.35 104.81 196.7 121.96 180.31 128.09 188.31 141.86 173.36 142.09 178.86 145.26 175.41 144.94 167.61"/></g></g></svg>