<svg xmlns="http://www.w3.org/2000/svg" viewBox="0 0 462 190.75"><defs><style>.cls-1,.cls-10,.cls-2,.cls-9{fill:#fff;}.cls-1{stroke:#e6e6e6;stroke-miterlimit:10;}.cls-1,.cls-5,.cls-8{stroke-width:3px;}.cls-2{font-size:23.28px;font-family:MuseoSans-900Italic, MuseoSans 900Italic;font-style:italic;}.cls-3{letter-spacing:-0.01em;}.cls-4{letter-spacing:-0.01em;}.cls-5{fill:none;stroke:#76bd3f;}.cls-5,.cls-8{stroke-linecap:round;stroke-linejoin:round;}.cls-6{font-size:20px;fill:#0066ae;}.cls-6,.cls-9{font-family:ArialMT, Arial;}.cls-7{letter-spacing:-0.02em;}.cls-8{fill:#76bd3f;stroke:#fff;}.cls-9{font-size:22px;}.cls-11{fill:#bbe170;}.cls-12{fill:#a1c260;}</style></defs><title>cost-per-lead</title><g id="Layer_2" data-name="Layer 2"><g id="Layer_1-2" data-name="Layer 1"><rect class="cls-1" x="275.5" y="61.93" width="185" height="80"/><text class="cls-2" transform="translate(20.59 80.93)"><tspan class="cls-3">C</tspan><tspan x="13.25" y="0">ost of the Listing(s)</tspan></text><text class="cls-2" transform="translate(91.05 130.93)"><tspan class="cls-4">L</tspan><tspan x="10.66" y="0">eads</tspan></text><line class="cls-5" x1="1.5" y1="100.93" x2="241.5" y2="100.93"/><text class="cls-6" transform="translate(344.4 96.99)">COS<tspan class="cls-7" x="43.34" y="0">T</tspan><tspan x="-21.87" y="27.84">PER LEAD</tspan></text><circle class="cls-8" cx="275.5" cy="101.93" r="20"/><text class="cls-9" transform="translate(269.08 106.93)">=</text><path class="cls-10" d="M122.92,185.15h-.13a2.79,2.79,0,0,1-2.09-1.09l-4.24-5.53-10,9.54c10.56.27,21.61-2.41,22.38-8L125,184.25A2.79,2.79,0,0,1,122.92,185.15Z"/><path class="cls-10" d="M115.23,167.47a2.79,2.79,0,0,1,1.93-.77h.22a2.79,2.79,0,0,1,2,1.09l4,5.17,3.12-3.38a21.07,21.07,0,0,0-7.31-7.9,14,14,0,0,1-22.42,0A21,21,0,0,0,87,179.4c0,3.32,3.45,5.69,8.37,7.1l.11-.13Z"/><circle class="cls-10" cx="107.94" cy="153.22" r="10.79"/><polygon class="cls-11" points="139.77 161.66 131.97 161.98 128.79 165.43 134.29 165.2 123.15 177.3 117.16 169.49 97.39 188.4 99.64 190.75 116.79 174.36 122.92 182.36 136.69 167.41 136.91 172.91 140.09 169.46 139.77 161.66"/><path class="cls-11" d="M108.34,1.85l.46,2.74a15.14,15.14,0,0,1,4.69.36,9.05,9.05,0,0,1,3.71,2,11,11,0,0,1,2.16,2.38,6.42,6.42,0,0,1,1,2.41,3.1,3.1,0,0,1-.52,2.35,3,3,0,0,1-2,1.29q-2.41.41-3.57-2.17a5.75,5.75,0,0,0-4.62-3.56l1.79,10.57q3.19.35,5.11.76a10.13,10.13,0,0,1,3.58,1.51A9.65,9.65,0,0,1,123,25.43a11,11,0,0,1,1.54,4.12,11.76,11.76,0,0,1-.4,5.65A10.73,10.73,0,0,1,121,40a13.61,13.61,0,0,1-5.74,2.93l1.07,6.33a6.27,6.27,0,0,1,.09,2.23,1.21,1.21,0,0,1-1.12.9A1.37,1.37,0,0,1,114,52a3.33,3.33,0,0,1-.65-1.67l-1.16-6.86a15.31,15.31,0,0,1-5.26-.55,12.07,12.07,0,0,1-4-2,11.26,11.26,0,0,1-2.68-2.94,9.13,9.13,0,0,1-1.26-3.25,3.17,3.17,0,0,1,.55-2.35A3.07,3.07,0,0,1,101.62,31a3.21,3.21,0,0,1,2,.22,2.79,2.79,0,0,1,1.31,1.32,33.32,33.32,0,0,0,1.69,3,6.21,6.21,0,0,0,1.83,1.77,6.65,6.65,0,0,0,2.87,1l-2-11.81a29.75,29.75,0,0,1-5.85-1.17,9.5,9.5,0,0,1-4.14-2.68A10.11,10.11,0,0,1,97,17.3a10,10,0,0,1,1.48-7.62q2.22-3.25,7.22-4.56l-.45-2.69Q104.87.29,106.42,0T108.34,1.85Zm-.17,18-1.64-9.73a8.59,8.59,0,0,0-2.93,2.22,4.09,4.09,0,0,0-.62,3.34,4.06,4.06,0,0,0,1.59,2.85A10,10,0,0,0,108.17,19.8Zm4.39,7,1.88,11.13a6.76,6.76,0,0,0,3.48-2.7,5.4,5.4,0,0,0,.74-3.84,4.47,4.47,0,0,0-1.89-3.19A10.72,10.72,0,0,0,112.56,26.82Z"/><path class="cls-12" d="M138.34,25.29,138,26.78a8.27,8.27,0,0,1,2.31,1.12,5,5,0,0,1,1.48,1.75,6,6,0,0,1,.62,1.64,3.51,3.51,0,0,1,0,1.43,1.69,1.69,0,0,1-.74,1.09,1.61,1.61,0,0,1-1.28.25,1.71,1.71,0,0,1-1.38-1.82,3.14,3.14,0,0,0-1.63-2.73l-1.21,5.73q1.55.82,2.45,1.41a5.54,5.54,0,0,1,1.51,1.49,5.27,5.27,0,0,1,.89,2.08,6,6,0,0,1,0,2.4,6.43,6.43,0,0,1-1.33,2.79,5.87,5.87,0,0,1-2.57,1.79,7.44,7.44,0,0,1-3.51.34L132.9,51a3.43,3.43,0,0,1-.4,1.15.66.66,0,0,1-.75.23.75.75,0,0,1-.61-.45,1.82,1.82,0,0,1,0-1l.79-3.72a8.37,8.37,0,0,1-2.56-1.33A6.6,6.6,0,0,1,127.73,44a6.15,6.15,0,0,1-.77-2,5,5,0,0,1,0-1.9,1.73,1.73,0,0,1,.75-1.09,1.68,1.68,0,0,1,1.36-.27,1.76,1.76,0,0,1,1,.5,1.52,1.52,0,0,1,.4.93,18.21,18.21,0,0,0,.26,1.86,3.39,3.39,0,0,0,.57,1.27,3.63,3.63,0,0,0,1.27,1.06l1.36-6.4a16.26,16.26,0,0,1-2.74-1.77,5.19,5.19,0,0,1-1.57-2.2,5.52,5.52,0,0,1-.12-3.13,5.49,5.49,0,0,1,2.28-3.58,6.56,6.56,0,0,1,4.59-.87l.31-1.46q.25-1.16,1.08-1T138.34,25.29Zm-3.69,9.09,1.12-5.28a4.69,4.69,0,0,0-1.94.54,2.23,2.23,0,0,0-1,1.58,2.22,2.22,0,0,0,.24,1.77A5.45,5.45,0,0,0,134.65,34.38Zm.82,4.45-1.28,6a3.69,3.69,0,0,0,2.31-.68,3,3,0,0,0,1.15-1.8,2.44,2.44,0,0,0-.32-2A5.86,5.86,0,0,0,135.47,38.83Z"/><path class="cls-12" d="M86.12,26.22l.58,1.41a8.27,8.27,0,0,1,2.54-.38,5,5,0,0,1,2.21.61,6,6,0,0,1,1.44,1A3.51,3.51,0,0,1,93.73,30a1.69,1.69,0,0,1,0,1.32,1.61,1.61,0,0,1-.92.93,1.71,1.71,0,0,1-2.17-.72,3.14,3.14,0,0,0-2.89-1.34L90,35.64q1.74-.2,2.82-.21a5.54,5.54,0,0,1,2.09.37A5.27,5.27,0,0,1,96.79,37a6,6,0,0,1,1.32,2,6.43,6.43,0,0,1,.47,3.06A5.87,5.87,0,0,1,97.47,45a7.44,7.44,0,0,1-2.71,2.25l1.33,3.24a3.43,3.43,0,0,1,.32,1.18.66.66,0,0,1-.49.61.75.75,0,0,1-.75,0,1.82,1.82,0,0,1-.55-.81L93.18,48a8.37,8.37,0,0,1-2.87.34,6.6,6.6,0,0,1-2.4-.61,6.15,6.15,0,0,1-1.78-1.25,5,5,0,0,1-1.06-1.58,1.73,1.73,0,0,1,0-1.32,1.68,1.68,0,0,1,1-1,1.76,1.76,0,0,1,1.07-.12A1.52,1.52,0,0,1,88,43a18.21,18.21,0,0,0,1.26,1.39,3.39,3.39,0,0,0,1.19.72,3.63,3.63,0,0,0,1.65.16L89.58,39.2a16.26,16.26,0,0,1-3.26.08,5.19,5.19,0,0,1-2.53-.93,5.52,5.52,0,0,1-1.86-2.52,5.49,5.49,0,0,1-.13-4.24,6.56,6.56,0,0,1,3.3-3.3l-.57-1.38q-.45-1.09.34-1.42T86.12,26.22Zm2.07,9.59-2-5a4.69,4.69,0,0,0-1.29,1.54,2.68,2.68,0,0,0,1.27,3.19A5.45,5.45,0,0,0,88.19,35.81ZM91.38,39l2.34,5.7a3.69,3.69,0,0,0,1.53-1.86,3,3,0,0,0-.07-2.13,2.44,2.44,0,0,0-1.39-1.47A5.86,5.86,0,0,0,91.38,39Z"/></g></g></svg>