<svg xmlns="http://www.w3.org/2000/svg" viewBox="0 0 642.04 303.06"><defs><style>.cls-1,.cls-2,.cls-4,.cls-5,.cls-6{fill:#fff;}.cls-1{stroke:#0080b3;}.cls-1,.cls-6{stroke-linecap:round;stroke-linejoin:round;}.cls-1,.cls-12,.cls-6{stroke-width:2px;}.cls-11,.cls-3{fill:#0080b3;}.cls-4{font-size:47.32px;}.cls-4,.cls-5{font-family:MuseoSans-900, MuseoSans 900;}.cls-5{font-size:32.87px;}.cls-6{stroke:#158bc9;}.cls-14,.cls-7{font-size:24px;fill:#5d5d5d;}.cls-7{font-family:HelveticaNeueLTPro-Lt, HelveticaNeueLTPro Lt;}.cls-8{letter-spacing:-0.01em;}.cls-9{letter-spacing:-0.01em;}.cls-10{letter-spacing:-0.01em;}.cls-11{font-size:78px;}.cls-11,.cls-14{font-family:ArialMT, Arial;}.cls-12{fill:none;stroke:#777;stroke-miterlimit:10;stroke-dasharray:5 8;}.cls-13{fill:#ccc;}.cls-15{letter-spacing:-0.06em;}</style></defs><title>fifty-five</title><g id="Layer_2" data-name="Layer 2"><g id="Layer_1-2" data-name="Layer 1"><ellipse class="cls-1" cx="154.37" cy="203.95" rx="10.41" ry="11.67"/><polyline class="cls-1" points="154.37 222.15 146.27 222.15 133.5 205.43 136.18 176.73 128.45 176.73 124.35 207.64 139.36 235.86 139.36 276.55 154.37 284.75"/><polyline class="cls-1" points="131.51 170.94 135.72 170.71 137.18 168.43 138.52 168.72 137.29 172.87 134.72 174.45 133.96 176 130.22 176 129.11 170.41 129.11 166.07 131.68 162.17 136.14 162.17 135.25 166.15 135.72 170.71"/><polyline class="cls-1" points="154.37 222.15 162.46 222.15 175.24 205.43 172.56 176.73 180.28 176.73 184.38 207.64 169.38 235.86 169.38 276.55 154.37 284.75"/><polyline class="cls-1" points="177.23 170.94 173.02 170.71 171.56 168.43 170.22 168.72 171.44 172.87 174.01 174.45 174.78 176 178.52 176 179.63 170.41 179.63 166.07 177.06 162.17 172.6 162.17 173.49 166.15 173.02 170.71"/><line class="cls-1" x1="139.36" y1="266.77" x2="169.38" y2="266.77"/><polygon class="cls-1" points="150.51 222.15 152.32 227.81 156.75 227.81 158.36 222.15 150.51 222.15"/><polyline class="cls-1" points="152.32 227.81 148.7 252.28 154.37 262.44 159.97 252.28 156.75 227.81"/><rect class="cls-1" x="100.12" y="101.67" width="100.9" height="64.53"/><path class="cls-2" d="M175.7,155.61a6.28,6.28,0,0,1-.07-12.56h0a6.32,6.32,0,0,1,6.35,6.2,6.28,6.28,0,0,1-6.2,6.36Z"/><path class="cls-3" d="M175.7,144.05a5.28,5.28,0,0,1,.06,10.56h-.06a5.28,5.28,0,0,1-.06-10.56h.06m0-2h-.09a7.28,7.28,0,0,0-7.19,7.37,7.31,7.31,0,0,0,7.28,7.19h.09a7.28,7.28,0,0,0-.09-14.56Z"/><path class="cls-2" d="M129.66,156.17a6.28,6.28,0,0,1-.07-12.56h0a6.32,6.32,0,0,1,6.35,6.2,6.28,6.28,0,0,1-6.2,6.36Z"/><path class="cls-3" d="M129.66,144.61a5.28,5.28,0,0,1,.06,10.56h-.06a5.28,5.28,0,0,1-.06-10.56h.06m0-2h-.09a7.28,7.28,0,0,0,.09,14.56h.09a7.28,7.28,0,0,0,7.19-7.37,7.31,7.31,0,0,0-7.28-7.19Z"/><path class="cls-2" d="M120.78,151a5.2,5.2,0,0,1-4.38-2c-2.65-3.48-1.42-10.77.08-16.28,1.06-3.9,4.1-6.79,7-9.58.57-.54,1.14-1.08,1.68-1.62A15.09,15.09,0,0,1,133,117.4h.13l24.34-.29c6.82,0,12.82,6.28,15.79,10a5.8,5.8,0,0,0,4.19,1.84h.18a37.61,37.61,0,0,1,8.7,1.48c6.39,1.65,6.1,6.74,6,7.58l.09,7.18A5.16,5.16,0,0,1,191.1,149a4.11,4.11,0,0,1-2.89,1.16H188l-3.48,0a1,1,0,0,1-1-1c0-.31-.31-7.71-7.75-7.71h-.14a7.22,7.22,0,0,0-5.31,2,9.17,9.17,0,0,0-2.18,5.87,1,1,0,0,1-1,1l-28.16.34a1,1,0,0,1-1-.93c0-.3-.67-7.45-8.25-7.45h-.15c-7.71.09-7.71,7.27-7.7,7.58a1,1,0,0,1-1,1Z"/><path class="cls-3" d="M157.44,118.1c7,0,13.23,7.41,15,9.65a6.83,6.83,0,0,0,5,2.22h.17a36.66,36.66,0,0,1,8.45,1.45c6.12,1.58,5.25,6.56,5.25,6.56l.09,7.24c0,3.71-2.44,4-3.17,4H188l-3.52,0s-.21-8.69-8.75-8.69h-.15c-8.69.1-8.48,8.9-8.48,8.9l-28.14.34s-.61-8.37-9.25-8.37h-.16c-8.79.11-8.69,8.59-8.69,8.59h-.08c-7.55,0-4.52-12.69-3.33-17s5.19-7.51,8.46-10.76a14.15,14.15,0,0,1,7.2-3.81l24.21-.29h.12m0-2h-.14l-24.21.29-.26,0a16.18,16.18,0,0,0-8.32,4.37c-.54.54-1.1,1.07-1.67,1.61-3,2.89-6.18,5.88-7.31,10-2.27,8.33-2.24,14.1.09,17.15a6.24,6.24,0,0,0,5.17,2.41h.11a2,2,0,0,0,2-2c0-1.07.32-6.49,6.72-6.57h.14c6.7,0,7.24,6.25,7.26,6.52a2,2,0,0,0,2,1.85h0l28.14-.34a2,2,0,0,0,2-2,8.15,8.15,0,0,1,1.91-5.16,6.19,6.19,0,0,1,4.6-1.69h.13c6.4,0,6.73,6,6.75,6.74a2,2,0,0,0,2,2h0l3.43,0h.26a5.12,5.12,0,0,0,3.6-1.46,6.11,6.11,0,0,0,1.57-4.55l-.09-7.08c.33-2.42-.67-7.06-6.75-8.64a38.26,38.26,0,0,0-8.95-1.51h-.2A4.84,4.84,0,0,1,174,126.5c-3.08-3.89-9.33-10.41-16.57-10.41Z"/><path class="cls-2" d="M133.43,121.9a10.24,10.24,0,0,1,1.94-.19h.25l13.73-.16.09,7.7-15.93.19Z"/><path class="cls-3" d="M148.36,122.56l.07,5.7-13.93.17-.07-5.67a9,9,0,0,1,.93-.05h.33l12.67-.15m2-2-14.67.18h-.31a10.87,10.87,0,0,0-2.95.41l.11,9.33,17.93-.22-.12-9.7Z"/><path class="cls-2" d="M130.05,123.74l.08-.09.07,5.83-5.82.07Z"/><path class="cls-3" d="M129.16,126.08l0,2.41-2.41,0,2.38-2.44m1.95-4.45a5.33,5.33,0,0,0-1.77,1.4L122,130.58l9.23-.11-.11-8.83Z"/><path class="cls-2" d="M152.67,121.51l5.13-.06c1.57,0,2.46.08,5.42,1.88A26.87,26.87,0,0,1,169,129l-16.25.2Z"/><path class="cls-3" d="M157.81,122.45h0c1.31,0,2,0,4.89,1.73a20.88,20.88,0,0,1,4.2,3.86l-13.15.16-.07-5.7,3.43,0h.69m0-2h-.72l-5.43.07.12,9.7L171,130s-3.9-5.46-7.28-7.52c-3-1.83-4.08-2-5.93-2Z"/><path class="cls-2" d="M175.7,151.68a2.35,2.35,0,1,1,1.68-.71,2.35,2.35,0,0,1-1.68.71Z"/><path class="cls-3" d="M175.7,148a1.35,1.35,0,0,1,0,2.69h0a1.35,1.35,0,0,1,0-2.69h0m0-2h0a3.34,3.34,0,0,0-3.3,3.39A3.35,3.35,0,1,0,175.7,146Z"/><path class="cls-2" d="M129.66,152.23a2.35,2.35,0,0,1-2.35-2.32,2.35,2.35,0,0,1,2.32-2.37,2.36,2.36,0,0,1,2.37,2.32,2.34,2.34,0,0,1-2.32,2.37Z"/><path class="cls-3" d="M129.66,148.54a1.35,1.35,0,0,1,0,2.69h0a1.35,1.35,0,0,1,0-2.69h0m0-2h0a3.34,3.34,0,0,0-3.3,3.39,3.35,3.35,0,0,0,5.74,2.3,3.32,3.32,0,0,0,1-2.38,3.36,3.36,0,0,0-3.34-3.3Z"/><rect class="cls-1" x="179.44" y="122.67" width="100.9" height="64.53"/><text class="cls-4" transform="translate(208.54 171.47)">%</text><text class="cls-4" transform="translate(208.54 171.47)">%</text><path class="cls-3" d="M237.59,140.2,219.52,172h-2.65l18.08-31.8h2.65m-20.2,0c4.31,0,7.15,3.31,7.15,9.18,0,6.48-3.41,9.7-7.38,9.7S210,156,210,149.8s3.36-9.61,7.43-9.61m-.14,16.37c2.74,0,4-2.93,4-7,0-3.74-1.09-6.86-4-6.86-2.6,0-4,3.08-4,7s1.37,6.91,4,6.91m20.2-3.64c4.31,0,7.1,3.31,7.1,9.18,0,6.48-3.41,9.7-7.33,9.7s-7.14-3.08-7.19-9.23,3.36-9.65,7.43-9.65m-.14,16.37c2.74,0,4-2.93,4-7,0-3.74-1.09-6.86-4-6.86-2.6,0-4,3.08-4,7s1.47,6.91,4,6.91m.28-31.1h-2.65a2,2,0,0,0-1.74,1l-6.74,11.86q.07-.81.07-1.7c0-6.79-3.59-11.18-9.15-11.18-4.54,0-9.43,3.63-9.43,11.61.06,7.79,4.66,11.27,9.19,11.27a8.75,8.75,0,0,0,4.24-1.08l-6.26,11a2,2,0,0,0,1.74,3h2.65a2,2,0,0,0,1.74-1l6.84-12q-.07.78-.07,1.62c.06,7.76,4.66,11.23,9.19,11.23s9.33-3.62,9.33-11.7c0-6.79-3.57-11.18-9.1-11.18a8.69,8.69,0,0,0-4.31,1.15l6.19-10.89a2,2,0,0,0-1.74-3Zm0,4h0Zm-20.35,12.37a1.1,1.1,0,0,1-.84-.38c-.59-.6-1.2-2.1-1.14-4.48,0-2.87.85-5,2-5,1.83,0,2,3.72,2,4.86,0,.84-.1,5-2,5Zm20.06,12.73a1.07,1.07,0,0,1-.82-.37c-.6-.61-1.24-2.11-1.21-4.51,0-2.85.87-5,2-5,1.83,0,2,3.72,2,4.86,0,.84-.1,5-2,5Z"/><path class="cls-2" d="M236.66,247.92a6.56,6.56,0,0,1-3.33-12.21l23.81-14-.72-32.35a1.81,1.81,0,0,1-.16-.69l-.18-5.1a1.88,1.88,0,0,1,1.56-1.92l.31,0a1.87,1.87,0,0,1,1.85,1.57l.86,5a1,1,0,0,1,0,.37l5.8,33a4.15,4.15,0,0,1-1,5.35L240.73,246.5a7.22,7.22,0,0,1-.75.51,6.56,6.56,0,0,1-3.32.91Z"/><path class="cls-3" d="M258,182.6a.88.88,0,0,1,.87.73l.86,5-.16-.48,6,34a3.14,3.14,0,0,1-.65,4.2l-.38.3-24.37,19.33a6.09,6.09,0,0,1-.63.43,5.56,5.56,0,1,1-5.64-9.58l24.32-14.33-.74-33.15-.08-.16a.82.82,0,0,1-.08-.33l-.18-5.1a.88.88,0,0,1,.73-.9H258m0-2h0a2.88,2.88,0,0,0-2.88,3l.18,5.1a2.81,2.81,0,0,0,.16.85l.71,31.58-23.31,13.73a7.56,7.56,0,1,0,7.67,13,8.1,8.1,0,0,0,.85-.58L265.73,228l.38-.3a5.16,5.16,0,0,0,1.31-6.48l-5.75-32.64a2,2,0,0,0,0-.52l-.86-5a2.87,2.87,0,0,0-2.84-2.4Z"/><path class="cls-2" d="M225.44,247.92a6.56,6.56,0,0,1-3.32-.91,7.13,7.13,0,0,1-.74-.51l-24.76-19.63a4.15,4.15,0,0,1-1-5.35l5.8-33a1,1,0,0,1,0-.37l.86-5a1.87,1.87,0,0,1,1.85-1.56l.31,0a1.88,1.88,0,0,1,1.56,1.92l-.18,5.1a1.82,1.82,0,0,1-.16.69L205,221.68l23.81,14a6.56,6.56,0,0,1-3.33,12.21Z"/><path class="cls-3" d="M204.15,182.6h.15a.88.88,0,0,1,.73.9l-.18,5.1a.82.82,0,0,1-.08.33l-.08.16L204,222.25l24.32,14.33a5.56,5.56,0,1,1-5.64,9.58,6.09,6.09,0,0,1-.63-.43l-24.37-19.33-.38-.3a3.14,3.14,0,0,1-.65-4.2l6-34-.16.48.86-5a.88.88,0,0,1,.87-.73m0-2a2.87,2.87,0,0,0-2.84,2.4l-.86,5a2,2,0,0,0,0,.52l-5.75,32.64a5.16,5.16,0,0,0,1.31,6.48l.37.3,24.37,19.33a8.17,8.17,0,0,0,.86.59,7.56,7.56,0,0,0,7.67-13L206,221.12l.71-31.58a2.8,2.8,0,0,0,.16-.86l.18-5.1a2.88,2.88,0,0,0-2.88-3Z"/><path class="cls-2" d="M230.89,290.05c-8.74,0-14-4.6-14-12.3,0-6.75,11.23-48.42,11.71-50.19a1,1,0,0,1,1-.74h3.8a1,1,0,0,1,1,.77c.43,1.78,10.48,43.58,10.48,50.16C244.85,285.45,239.63,290.05,230.89,290.05Z"/><path class="cls-3" d="M233.4,227.83s10.45,43.39,10.45,49.92c0,7.89-5.8,11.3-13,11.3s-13-3.41-13-11.3c0-6.69,11.68-49.92,11.68-49.92h3.8m0-2h-3.8a2,2,0,0,0-1.93,1.48c-1.2,4.45-11.75,43.68-11.75,50.45,0,8.2,5.73,13.3,15,13.3s15-5.1,15-13.3c0-6.7-10.07-48.61-10.5-50.39a2,2,0,0,0-1.94-1.53Z"/><path class="cls-2" d="M231.37,227.07c-5.76,0-9.81-9.49-9.81-14.63a9.81,9.81,0,0,1,19.61,0C241.17,217.58,237.13,227.07,231.37,227.07Z"/><path class="cls-3" d="M231.37,203.64a8.81,8.81,0,0,1,8.81,8.81c0,4.86-3.94,13.63-8.81,13.63s-8.81-8.76-8.81-13.63a8.81,8.81,0,0,1,8.81-8.81m0-2a10.82,10.82,0,0,0-10.81,10.81c0,5.37,4.21,15.63,10.81,15.63s10.81-10.26,10.81-15.63a10.82,10.82,0,0,0-10.81-10.81Z"/><rect class="cls-1" x="21.59" y="122.67" width="100.9" height="64.53" transform="translate(-23.15 13.04) rotate(-8.92)"/><path class="cls-2" d="M84.66,247.92a6.56,6.56,0,0,1-3.45-12.14l20.93-20.94-.73-32.51a1.82,1.82,0,0,1-.16-.69l-.18-5.1a1.88,1.88,0,0,1,1.56-1.92l.31,0a1.87,1.87,0,0,1,1.85,1.57l.86,5a1,1,0,0,1,0,.37l5.8,33a4.15,4.15,0,0,1-1,5.35l-.29.23L88.89,246.35a1,1,0,0,1-.16.16A7.2,7.2,0,0,1,88,247a6.56,6.56,0,0,1-3.32.91Z"/><path class="cls-3" d="M103,175.6a.88.88,0,0,1,.87.73l.86,5-.16-.48,6,34a3.14,3.14,0,0,1-.65,4.2l-.38.3L88.11,245.72a6.09,6.09,0,0,1-.63.43,5.56,5.56,0,1,1-5.64-9.58l21.32-21.33-.74-33.15-.08-.16a.82.82,0,0,1-.08-.33l-.18-5.1a.88.88,0,0,1,.73-.9H103m0-2h0a2.88,2.88,0,0,0-2.88,3l.18,5.1a2.81,2.81,0,0,0,.16.85l.71,31.9L80.59,235a7.56,7.56,0,0,0,7.91,12.88,8.1,8.1,0,0,0,.85-.58,2,2,0,0,0,.32-.32l21.24-26.16.2-.16a5.16,5.16,0,0,0,1.31-6.48l-5.75-32.64a2,2,0,0,0,0-.52l-.86-5a2.87,2.87,0,0,0-2.84-2.4Z"/><path class="cls-2" d="M73.44,247.92a6.56,6.56,0,0,1-3.32-.91,7,7,0,0,1-.66-.45l-27.3-14.29-.16-.1-.38-.3a4.15,4.15,0,0,1-1-5.35l5.8-33a1,1,0,0,1,0-.37l.86-5a1.87,1.87,0,0,1,1.85-1.56l.31,0A1.88,1.88,0,0,1,51,188.55l-.18,5.1a1.82,1.82,0,0,1-.16.69L50,226.54l26.62,9.09.18.08a6.56,6.56,0,0,1-3.33,12.21Z"/><path class="cls-3" d="M49.15,187.6h.15a.88.88,0,0,1,.73.9l-.18,5.1a.82.82,0,0,1-.08.33l-.08.16L49,227.25l27.32,9.33a5.56,5.56,0,1,1-5.64,9.58,6.09,6.09,0,0,1-.63-.43L42.62,231.39l-.38-.3a3.14,3.14,0,0,1-.65-4.2l6-34-.16.48.86-5a.88.88,0,0,1,.87-.73m0-2a2.87,2.87,0,0,0-2.84,2.4l-.86,5a2,2,0,0,0,0,.52l-5.75,32.64A5.16,5.16,0,0,0,41,232.66l.37.3a2,2,0,0,0,.32.21l27.22,14.25a8,8,0,0,0,.69.46,7.56,7.56,0,0,0,7.67-13,2,2,0,0,0-.37-.17L51,225.83l.7-31.29a2.79,2.79,0,0,0,.16-.86l.18-5.1a2.88,2.88,0,0,0-2.88-3Z"/><path class="cls-2" d="M78.89,290.05c-8.74,0-14-4.6-14-12.3,0-6.75,11.23-48.42,11.71-50.19a1,1,0,0,1,1-.74h3.8a1,1,0,0,1,1,.77c.43,1.78,10.48,43.58,10.48,50.16C92.85,285.45,87.63,290.05,78.89,290.05Z"/><path class="cls-3" d="M81.4,227.83s10.45,43.39,10.45,49.92c0,7.89-5.8,11.3-13,11.3s-13-3.41-13-11.3c0-6.69,11.68-49.92,11.68-49.92h3.8m0-2H77.6a2,2,0,0,0-1.93,1.48c-1.2,4.45-11.75,43.68-11.75,50.45,0,8.2,5.73,13.3,15,13.3s15-5.1,15-13.3c0-6.7-10.07-48.61-10.5-50.39a2,2,0,0,0-1.94-1.53Z"/><path class="cls-2" d="M78.6,227.69c-5,0-10.78-6.53-12.29-10.94a9.81,9.81,0,1,1,18.55-6.36,20.24,20.24,0,0,1,.4,9.52c-.76,4-2.51,6.67-4.93,7.5a5.33,5.33,0,0,1-1.73.28Z"/><path class="cls-3" d="M75.58,204.76a8.81,8.81,0,0,1,8.33,6c1.58,4.6.69,14.17-3.91,15.75a4.3,4.3,0,0,1-1.4.23c-4.44,0-9.92-6.11-11.35-10.26a8.81,8.81,0,0,1,8.33-11.67m0-2a10.81,10.81,0,0,0-10.22,14.31c1.59,4.62,7.68,11.61,13.24,11.61a6.31,6.31,0,0,0,2.05-.33c6.24-2.14,6.89-13.21,5.15-18.29a10.81,10.81,0,0,0-10.22-7.3Z"/><text class="cls-5" transform="translate(33.61 172.39) rotate(-8.92)">SALE</text><text class="cls-5" transform="translate(33.61 172.39) rotate(-8.92)">SALE</text><path class="cls-3" d="M41,148.59a8.57,8.57,0,0,1,3,.48l-.42,2.43a8.71,8.71,0,0,0-2.92-.5,9,9,0,0,0-1.4.11c-3,.47-3.84,2.43-3.61,3.93.32,2,1.81,2.84,5,3.54,3.93.85,6.09,2.34,6.59,5.55.53,3.38-1.51,6.69-6.67,7.5a12.68,12.68,0,0,1-1.95.15,9.94,9.94,0,0,1-3.86-.67l.34-2.48a10.18,10.18,0,0,0,3.83.75,9.41,9.41,0,0,0,1.46-.11c2.89-.45,4.34-2.25,4-4.45-.32-2-1.67-3-4.81-3.7-3.77-.71-6.27-2.21-6.75-5.29-.54-3.41,1.89-6.39,6.15-7.05a13.06,13.06,0,0,1,2-.16m0-2a15.1,15.1,0,0,0-2.33.19c-5.25.82-8.53,4.75-7.81,9.34.87,5.52,6.46,6.59,8.33,6.94,3,.65,3.12,1.36,3.22,2.05.24,1.53-1.35,2-2.33,2.17a7.43,7.43,0,0,1-1.15.09,8.24,8.24,0,0,1-3.06-.59,2,2,0,0,0-2.75,1.57l-.34,2.48A2,2,0,0,0,34,172.92a11.79,11.79,0,0,0,4.69.85,14.62,14.62,0,0,0,2.26-.17,10.47,10.47,0,0,0,6.72-3.51,7.92,7.92,0,0,0,1.62-6.28c-.78-5-4.77-6.47-8.15-7.2s-3.36-1.28-3.46-1.89a1.1,1.1,0,0,1,.21-.83,2.64,2.64,0,0,1,1.73-.81,7.06,7.06,0,0,1,1.09-.09,6.73,6.73,0,0,1,2.24.38,2,2,0,0,0,2.64-1.54l.42-2.43a2,2,0,0,0-1.27-2.21,10.62,10.62,0,0,0-3.69-.6Z"/><path class="cls-3" d="M57.84,146.17l10.9,20.71-3,.47-3.42-6.52-7.76,1.22-1.19,7.24-2.92.46,4-23.05,3.41-.54m-3.06,13.59,6.59-1-3.13-6c-.71-1.35-1.24-2.6-1.76-3.82h-.07c-.12,1.35-.27,2.74-.48,4.13l-1.15,6.67m3.06-15.59-.31,0-3.41.54a2,2,0,0,0-1.66,1.63l-4,23.05a2,2,0,0,0,2,2.34l.31,0,2.92-.46a2,2,0,0,0,1.66-1.65l1-5.81L61.2,163,64,168.28a2,2,0,0,0,1.77,1.07l.31,0,3-.47a2,2,0,0,0,1.46-2.91l-10.9-20.71a2,2,0,0,0-1.77-1.07Zm-.61,13.18.29-1.67.79,1.5-1.08.17Z"/><path class="cls-3" d="M71.35,144l3.06,19.51,9.35-1.47.37,2.37L72,166.38l-3.43-21.88,2.83-.44m0-2-.31,0-2.83.44a2,2,0,0,0-1.67,2.29L70,166.69a2,2,0,0,0,2,1.69l.31,0,12.18-1.91a2,2,0,0,0,1.67-2.29l-.37-2.37a2,2,0,0,0-2-1.69l-.31,0-7.38,1.16-2.75-17.54a2,2,0,0,0-2-1.69Z"/><path class="cls-3" d="M95.67,140.23,96,142.6,87,144l1.09,6.92,8.51-1.33.37,2.34-8.51,1.33,1.24,7.89,9.48-1.49.37,2.37L87.29,164l-3.44-21.88,11.82-1.86m0-2-.31,0-11.82,1.86a2,2,0,0,0-1.67,2.29l3.44,21.88a2,2,0,0,0,2,1.69l.31,0L99.9,164a2,2,0,0,0,1.67-2.29l-.37-2.37a2,2,0,0,0-2-1.69l-.31,0-7.51,1.18-.62-3.94,6.53-1A2,2,0,0,0,99,151.62l-.37-2.34a2,2,0,0,0-2-1.69l-.31,0-6.53,1-.47-3,7-1.1A2,2,0,0,0,98,142.29l-.37-2.37a2,2,0,0,0-2-1.69Z"/><path class="cls-6" d="M68.21,265s13.5,6.84,22.16-2.6"/><line class="cls-6" x1="60.04" y1="230.74" x2="57.35" y2="239.1"/><line class="cls-6" x1="91.85" y1="224.98" x2="98.55" y2="232.87"/><text class="cls-7" transform="translate(296.04 223.76)">of au<tspan class="cls-8" x="50.06" y="0">t</tspan><tspan x="57.86" y="0">o shoppers </tspan><tspan class="cls-9" x="173.9" y="0">w</tspan><tspan x="191.33" y="0">ould </tspan><tspan class="cls-8" x="242.01" y="0">c</tspan><tspan x="252.62" y="0">onsider</tspan><tspan x="0" y="28.8">an online </tspan><tspan class="cls-9" x="98.18" y="28.8">v</tspan><tspan x="109.49" y="28.8">ehicle pu</tspan><tspan class="cls-9" x="200.85" y="28.8">r</tspan><tspan x="208.46" y="28.8">chas</tspan><tspan class="cls-10" x="253.6" y="28.8">e</tspan><tspan x="265.34" y="28.8">.</tspan></text><text class="cls-11" transform="translate(456.15 169.2)">55% </text><line class="cls-12" x1="312.04" y1="191.76" x2="622.04" y2="191.76"/><rect class="cls-13" x="0.02" width="2.02" height="18.26"/><rect class="cls-13" x="8.15" y="-8.12" width="2.02" height="18.26" transform="translate(8.15 10.17) rotate(-90)"/><rect class="cls-13" x="8.12" y="292.92" width="2.02" height="18.26" transform="translate(-292.92 311.18) rotate(-90)"/><rect class="cls-13" y="284.8" width="2.02" height="18.26" transform="translate(2.02 587.86) rotate(180)"/><rect class="cls-13" x="640.02" width="2.02" height="18.26" transform="translate(1282.07 18.26) rotate(-180)"/><rect class="cls-13" x="631.9" y="-8.12" width="2.02" height="18.26" transform="translate(631.9 633.92) rotate(-90)"/><rect class="cls-13" x="631.9" y="292.92" width="2.02" height="18.26" transform="translate(330.86 934.96) rotate(-90)"/><rect class="cls-13" x="640.02" y="284.8" width="2.02" height="18.26"/><path class="cls-3" d="M317.07,109.2h.18v.1l-.16,0Zm.16,1.4v-.1l.06-.1.17-.18.19,0,.19.13,0,.34,0,.4,0,.06h-.11l-.37-.11-.18-.1-.09-.1-.06-.25,0-.1h.1l.14.13Zm.73,1,.12-.25,0,0h.08l.24.33-.09.07-.15,0-.07.08v.12l.14.1.1.41,0,0,0-.08h.07l.25.25.06.2-.08.19-.14-.07-.08-.18h-.16l-.14-.19,0-.39-.12-.1-.21-.16v-.13Zm22.9,21.68-.28,0-.13.3V134l.43.92v.27l.17.25.16-.35.11,0,.12.4.18.36.16.19,0,.24.37-.19.1-.28-.11-.13-.12-.49.31-.06-.48-.51-.31.06-.08-.35-.14-.29-.31-.14-.17-.27Zm73.69,40.6h-.18l-.23.3-.38.26.06.19.17,0,.24.36.38.13.07-.28.19-.32-.12-.44Zm11.69-29.48-.1,0-.17,0-.19.07,0,0v-.09l0-.11.07-.12-.07-.08,0-.14,0,0-.18,0,0-.05,0-.07.15-.12,0,0-.12-.09h-.09l-.05-.13,0-.11-.06-.05-.07.12,0,.19-.22-.11,0,0,0,.08-.19-.2-.16-.44v-.07l.09-.09-.05-.16.06-.09.19-.08v-.09l-.14-.15,0,0-.11,0-.06.06,0-.18.05-.12.09-.1.1,0,0-.08,0-.13,0-.07h-.13l-.16.17v0l0-.16.06-.15,0-.05.1.05h.1l.06-.06,0-.16,0,0,0,0,0,.11-.05,0-.06-.33,0-.1.19-.37.16-.12.17-.05h0l0-.08,0-.08,0-.25,0-.06h-.06l-.1,0-.06.09,0,.14-.42.37-.09,0h0l-.11.12,0,.12-.08.1-.06,0-.14,0v.07l.15.18.07.26v.06l-.09.13,0,.14-.08.18,0,.13-.08.14,0,.14v0l.05.45,0,.14.16.33.06.22,0,.19.09.29V144h0l-.18-.13h-.09l-.3-.24-.14,0-.25-.05-.11-.14h0l-.08,0-.16-.13-.2-.28-.07,0-.28.12h-.08l-.06,0,0-.1,0-.13,0-.11.05-.11.09-.11.12-.1v-.06l-.22,0,0,0-.07.18-.07.18V143l0,.14.06.1.08,0h.11l.08,0,.08,0,.09,0h.07l.06.13.07.16.06.12.05.07.16.1.15,0,.38.1.26.24.12.1,0,0,.19.15.14.1.09.11v.12l-.06.2,0,.28,0,.1-.11,0-.32-.08-.2-.29-.1-.09-.2-.17h0l.07.12.1.1.12.11.15.21.06.06,0,0,.4.19,0,0,0,.08,0,0,.09.06,0,.11V146l0,.12-.06,0-.16-.09h0l0,0v.07l0,.12v.07l-.15.09,0,0,.12.07.08.12.06,0,.1.13v.11l0,.13-.2.11-.07,0-.36-.33-.07-.14,0-.07,0,0-.08,0h0l-.16,0,.08.09h.11l0,.09,0,.19,0,.08.22.19.12.16.05.08h0l.11,0,.14-.07h0l.07,0h.1l.2.06.15,0,.16.08.13.19.28.77.14.56.11.35.43,1.06-.17-.28-.13-.17,0-.08-.16-.51-.16-.52-.14-.18-.11,0h-.06v0l0,.05.12.09,0,.08.12.34.09.33v.09l-.14-.05,0,0-.18,0h-.09l-.18.07-.19.06-.48.15-.24.12H424l0,0-.05.1,0,0,.1,0,.38,0h.34l.38-.05h.13l.08,0,.14.13h.06l.09-.08.08,0,.1,0,.11.11.09.19.05.34-.05.25-.08.09-.17.09-.14.1-.22.28-.19.15-.16.06h-.44l-.38-.05h-.1l-.05.05v0l.17.11.05.07v.09l0,.12-.12.24-.14.21,0,.07.06.05h.08l.12,0,.09-.05h.07l.13.11h.07l0,0,.05,0,0,.06V153l-.07.12-.08.09,0,.06.42-.38,0,.07-.76.84-.11,0-.34-.09h-.27l-.34.05-.33.1-.25.11-.65.43-.32.27-.13.14-.08.09-.16.24-.3.61-.11.13h-.09l-.47,0-.28,0-.23,0-.2.08-.42.21-.23.18-.25.26-.09.12-.15.2-.16.28-.16.47-.07.14-.11.13-.07.06-.21.18-.17.05h-.12l-.09,0-.07.05,0,.08v.11l-.06.08-.55.43-.1.12-.24.19-.56.26-.16.07h0l-.12,0h-.13l0,0,0,0,0,.14,0,.09-.08.14-.74.59-.09.09-.07.11.06.06,0,.1-.19.11,0,.1-.07.07-.09,0-.06.14-.06.09-.16.14v0l0,.12v.12l0,.11,0,0-.11.1.06.08v.1l-.08.21-.06.28,0,.14-.22.34-.08.21,0,.06-.05.07v0l.09.05V164l-.06.34v.24l0,.54v0l.14.64.14.64.11.41.14.43,0,.06.21.54,0,.1.32.71.5,1,.2.38.13.36v.47l0,.28.08.35.22.6.29.78.28.76,0,.12.17.64v0l.08.53v.67l0,.43-.07.9v.15l-.08.52,0,0,0-.06-.08,0-.06.06-.11.22-.08.25,0,.36-.09.13-.18.17-.11.06-.16,0-.08.06-.1.05h-.07l-.05,0h-.36l-.26.06h-.16l-.11,0-.08-.08-.06-.12v-.13l0-.17v-.07l-.27-.63-.16-.25-.1-.21,0,0-.1-.08-.2-.08h-.24l-.14,0,0,0-.11-.22-.28-.93-.1-.19-.15-.17-.11-.08-.12,0-.06-.07-.12-.3v-.07l0,0h.09l0-.07,0-.13,0-.19,0-.14v-.08l0,0-.06,0-.07.09-.06.22-.05,0-.07,0-.07,0,0-.05-.22-.4-.32-.62-.31-.53-.17-.3h.06l.11-.09.2-.26.14-.18.12-.17,0-.12v-.1l0-.06-.06,0h0l0,.12h-.06l-.06-.06,0-.1-.07-.08-.13,0h-.11l0,0,.22.19v.15l-.08.2,0,.06-.08,0,0,.1h0l-.07-.19-.13-.26,0-.12V172l.09-.36v-.34L410,171l.11-.37,0-.12,0-.48v-.34l0-.18-.2-.37-.1-.19,0-.11,0-.05-.09,0-.15,0h-.1l-.08,0h-.06l-.05-.07-.06-.13-.14-.18-.14-.24-.17-.15-.2-.24-.12-.29h0l-.24-.22-.26-.36-.12-.12-.17-.12-.5-.28-.18,0h-.42l-.13.07-.06.06,0,.1v.09l0,.12-.08,0H406l-.14,0-.78.4-.08,0h-.06l-.26.1-.4.06-.25,0-.08-.05.05,0,0-.07V167l-.06-.14-.14-.17-.47-.38-.44-.29-.28-.16-.16-.07-.15-.07-.42-.13-.34-.06-.13,0-.56,0h-.24l-.28,0-1.38.2-.58.09,0-.06,0-.06,0-.08-.2-.27-.06-.16V165l0-.15-.06-.09-.08,0h0l-.08,0-.09.18-.09.4,0,.12,0,.07-.06,0-.2-.09-.16,0-.15,0,0,0-.2.05-.22,0h-.24l-.28-.07h-.06l-.38,0-.58.13-.12-.09h0l0,0v.06l0,.08-.19.21-.17.08-.19.09-.08,0-.1.1-.08.08,0,0-.07,0-.12,0,0,.07,0,.08.07,0,.12,0,0,.1.07,0h.09l.07,0,.12-.21.16-.18.07,0,.1,0,0,0v.12l.08.09.06,0,.18-.08v.09l-.08.1,0,.08-.13.07,0,0,.08.09v0l-.22,0-.12.06h-.28l-.07,0v.06l.11.12-.15,0-.12.08,0,.05v.17l0,.07.08.06.21.12.1.09.24,0,.32.15h.11l0,0,.2.26.13.06,0,.08-.13.22-.19.13L395,169l-.16.11-.11.11h0l0-.13V169l0-.07-.19-.25-.13-.11-.6-.27-.08-.07,0-.15-.06-.13-.07,0-.21,0-.07,0,0,.07,0,.2v.11l-.08.1,0,.05.07,0-.15.11-.22.14-.16.06v-.1l-.07-.1,0-.14-.06-.06-.06,0-.06,0-.08.08-.06,0-.06,0-.06-.11-.07,0H392l-.07.12-.08,0-.11.13-.24.16v0l0,.05-.14,0-.34-.26-.53-.19-.14-.08-.06-.08.05-.14.08-.07v-.06l0-.06,0-.06h0l-.06-.06-.52-.25-.1-.12-.11-.08-.07-.17-.08-.05-.17,0h-.16l-.07,0-.07-.11-.08,0-.13,0-.18.09-.11.09,0,.09.06.1.2.06h.23l.11,0,.22.12v.05l-.06.05-.1,0h-.18l-.33-.1-.25,0h-.55l-.44-.08-.08,0-.31-.09-.74-.26-.28-.06-.21,0-.48,0-.3,0-.2,0-.28.1-.51.12-.42.15-.26.11,0,0-.26.11-.6.31h0l0-.06.12-.11.36-.21-.08-.06-.28,0h-.14l-.06,0,.08-.17,0-.14,0-.11-.07-.07-.11,0-.2.16h-.16l-.06.07,0,.08v.11l0,.12.06.05.07.06.08.16.05.23,0,.06h.09v.07l-.21.19-.46.36-.52.4-.37.24-.09.05-.62.36-1.15.64.16-.14.43-.26.09-.07,0-.05,0,0-.12,0-.28.07,0,0V170l0,0h-.06l-.18.07-.25.1h-.12l-.14-.08-.1-.14H378V170l.1.21.15.12.14.2,0,.1-.2.12-.16.05h-.1l-.08,0h-.09l-.05.07,0,.08h0l-.05.18-.07.1-.17.14-.14.07-.08.07-.12.26-.18.25-.08.1-.09,0h-.05l-.1,0-.09,0-.08.05,0,.07v.08l0,.08.14.18v.13l0,.17-.13.37-.06.14-.08.09-.1.06H376v-.09l-.17.12v.07l.07,0H376l.06,0,0,.07,0,.13-.06.15,0,.15,0,.07-.1.1v.09l0,.29.09.22.08.26v.09l.07.38.06.13,0,.1.07.06,0,.13,0,.08,0,.24,0,.13.12.1,0,.15h.06l0,.15-.26,0-.23.16-.17,0-.32-.22-.34-.21-.44-.06h-.43l-.33-.07-.29-.22-.21-.12-.16,0-.19,0-.28-.15-.27-.15-.17,0-.21-.06-.13-.1-.1-.18-.13-.32-.18-.48-.28-.43-.12-.35v-.25l-.08-.12,0-.3,0-.29,0-.11-.09-.19-.37-.16-.21-.27-.08,0-.08-.15-.06-.13-.13-.25-.12-.14-.06-.08-.25-.26-.24-.18-.14-.31-.13-.34-.07-.2-.06-.1,0-.06-.13-.21-.12-.31-.15-.22-.09-.27-.16-.35-.16-.21-.2-.19-.07-.06-.28-.26-.29-.21-.23-.15-.23-.28-.33-.32-.29,0-.12,0-.21,0-.26,0h-.4l-.37-.08h-.31l-.25.12-.18,0-.19.06-.27.27-.17.46-.07.17,0,.08-.09.19v.17l-.1.09-.19.16-.1.12,0,0,0,0-.05.07,0,0-.38,0-.17-.05-.3-.2-.33-.18-.27-.14-.07,0-.28-.14-.33-.13-.11,0-.28-.27-.2-.17-.29-.17-.31-.42-.19-.36-.11-.28v-.48l-.2-.41-.19-.39,0-.08-.13-.3-.11-.13-.1-.1-.17-.11-.07-.05-.38-.22-.22-.12-.19-.19-.23-.26-.25-.25-.13-.1-.1-.09-.19-.23h-.05l0-.06h0l0,0,0-.09h0l-.06-.06h-.08l-.33-.22-.24-.3,0-.1-.17-.29-.17-.09-.1,0-.08-.09h-3.87l0,1.2h-6.56l-.95-.34-2.71-1-1.56-.57-3.41-1.24.07-.12,0-.09,0-.13,0,0h0l.08-.11v0l.06-.1-.67.05-2.51.22-.73.07-1.05.1-.57.06-.23-.44,0-.09-.05-.24,0-.3-.07-.27-.14-.32-.2-.32-.16-.21-.16-.16-.1-.1-.44-.36-.51-.38-.16-.09-.11,0-.21.05h-.12l-.19-.09,0-.08,0-.24-.1-.2-.13-.15-.14-.07-.18,0H327l-.31-.09-.08,0-.28-.13-.22-.15-.18-.2-.16-.14-.23-.16-.08,0-.13-.07-.16,0h-.28l-1-.16-.62,0-.42-.23,0-.07,0-.12v-.54l0-.32v-.4l0-.11-.05-.07-.08-.06-.18-.07-.12-.1-.07-.14,0-.32-.05-.1-.24-.18-.39-.4-.22-.16-.21-.32-.34-.52-.36-.44-.33-.34-.12-.18-.14-.4-.06-.37,0-.08.1,0,.06,0,.05-.09,0-.15,0-.21,0-.16-.09-.19-.1-.11-.08,0-.28,0-.14-.06-.17-.13-.21-.21-.2-.2-.08-.2,0-.33-.11-.38-.15-.06v-.27l0-.2,0-.12,0-.2.1-.08.14,0,.06,0,.08.21,0,0,0,0,0,.16.07.12.35.2h.08v-.09l-.06-.22L319,145l-.12-.12,0-.07,0-.19,0,0-.14-.16v0l.09-.13.12-.08,0-.07,0,0-.08-.11-.13-.06h0l-.12.08,0,0,0,.19,0,.13,0,.17.13.14-.12.14-.14,0-.08-.08-.34-.2-.29-.22-.2-.06-.1,0,0,0v-.09l0-.2v-.15l0-.21,0-.07-.07-.08-.07-.05L317,143l-.4-.38-.3-.36-.23-.24-.19-.2-.18-.24,0-.12v-.28l-.2-.73,0-.21,0-.5v-.2l0-.2-.11-.37-.06-.13-.35-.49-.16-.21-.48-.42-.11-.28-.05-.2-.07-.2.09-.31.38-.82.11-.31.05-.23,0-.43.08-.41,0-.33v-.29l0-.32-.1-.4-.24-.25,0-.09.06-.37v-.22l-.2-.14-.11-.15-.12-.49-.09-.58.09-.44-.05-.23-.21-.27-.1-.31.11-.37.23-.74,0-.33.17-.36.09-.26.1-.37.1-.51,0-.29.09-.68.06-.65.06-.45,0-.65,0-.6.11-.77.06-.46v-.27l0-.24,0-.19,0-.82,0-.44,0-.53.1-.25v-.15l-.16-.48v-.09l.33.22.12-.06.55-.13,0-.11-.19,0-.11-.05h-.08l-.36.14-.12,0-.12-.09-.13-.08-.06-.12,0-1,.08,0,0,.1,0,.42,0,0,.12-.06.06-.09,0-.09-.05-.19v-.08l.14-.23V117l-.08-.06-.18.09-.1,0-.17-.1,0-.15-.06-.37h.09l.1.09.3-.21v-.06l-.17-.08-.1-.12-.07,0-.13,0,0,.23,0,.07-.1,0-.06-.86-.08-.29-.21-.3-.08-.61-.18-.75-.36-.43-.08-.1-.17-.86.06-.55-.06-.19,0,0h.09l.27.1.26.14.52.22.39.2.18.05.93.1.35.06.35,0,.17-.06.1,0,.23.14.2.05.08,0h.07l0-.13.07-.05h.08l0,0,0,.11.07.08.06-.06,0,0,0,.1,0,.13v.06l.14.34-.19.3,0,.11,0,0,.3-.36,0-.07,0-.11.11.06.06.09.07.2v.21l-.09.07v.06l.05.12,0,.19v.16l0,.08v.1l.06.07.07.09.1.31-.1.14-.07,0h-.12l0,0,0,0,.18.09h.06l.06-.09.12-.09,0-.08v-.09l-.11-.4,0-.18.09-.12-.11-.18,0-.21v-.21l0-.11.18-.42.12-.17v-.1l0-.08-.18-.27-.1-.24-.07-.09-.05,0-.06.1v.08l.22.37-.21-.17-.14-.07-.08-.22v-.2h.09l.18-.06,0-.1v0l-.28-.16,0-.12,0-.17-.08.05-.15,0-.1-.13,0-.17.22-.06.16.12h.11V111l-.06-.24.12-.07v-.08l-.05-.13,0-.1,0-.2,0-.06-.07,0h-.08l0,.09v.14l-.07,0-.08-.13-.08-.27-.21-.27-.06-.39h63.39l-.08.05v.18l.19.18.26-.05.28-.27.5.44.22,0,0,.08,0,0,0,.16.12.13.12.08h.09l0,0,.19,0,.08,0h.22l.15.06,0,.09,0,0,.4,0,.23,0,.2.09.1.1,0,.05,0,.1.07.05h.3l.06-.05,0,0,.32-.08,0-.1.12-.09.28-.08h.17l.28,0,.24,0,.39.14.18.09h0l.1.07,0,.06-.08,0,0,.1.07.06.07,0,.14,0,.18.07.06.08,0,.16.07.15,0,0,.11.27.08-.05.15,0-.05-.07v-.08l.06-.13.07,0,.22,0,.15,0,.11.09.05.08,0,.08.1.1h.07l.11,0,0,.05h.11l0,0,.13,0,0,0,.05.17,0,.08.24.07,0,.16.14-.06h.13l0,.06.14-.07.25,0,.26-.21.28-.16.22-.1.13,0,.1.07v.1l0,0,.08.12,0,0,.11.16.24,0,.08,0h.08l0,.06.18,0h.2l0,0,.08,0h.41l.21.06.17.11v.06l.09.06h0l0,.06.06,0,.12,0,0-.05.21,0,.07,0h.23l.06,0h0l0,0-.6.34-.42.2-1,.42-.5.26-.35.22-.27.21-.22.18-.06,0-.89.93-.48.44-.36.31-.49.42-.1.13v.11l.09.15.28,0,.29,0,.5-.15.08,0,.66-.28.28-.06.33-.22.18,0,.08,0,.1.07,0,.1v.09l-.05.12-.12.22,0,.19-.12.31,0,0h.08l.28-.12h.14l.22.11.11,0,.29.1.76-.37.44-.29.26-.15.88-.21.3-.15.25-.16.37-.17.14-.12.28-.29.53-.41.14-.13.18-.16.18-.14.25-.14.22-.08.32-.06h.32l.2,0,.08,0v.07l-.35.11-.06,0-.11.15-.48.4h0l-.33.48-.18.34,0,0-.05.15,0,.16v.1l0,0,.06,0,.39-.32.15-.09h.06l0,0,.07,0,.18,0,.24,0,.3.08.2.13.1,0,.11.11.3.47.22.25.1.17.1.06.19,0,.28,0h.17l.13,0,.25.17.06,0,.19-.08.12,0,0,0,0-.19,0-.06.07,0,.05.13h.09l.82-.47.21-.08.62-.09.82-.07.5-.11h.12l.5-.06,0,0-.05.24,0,.45,0,.08.05.06.36.09h.48l.23.08.12,0,.18-.13.18,0,.11,0,.08-.06h.06l.12,0,.06.09,0,.2v.15l0,.17v.17l0,.1-.12.08,0,.06v.06l0,0,.17,0,.15.1.06.17.11.09.17.1.22,0,.06,0v-.14l0-.06h.27l.14.06.18.23v.09l-.06.09-.12,0h-.18l-.58-.07-.45,0h-.1l-.35,0-.21,0-.27-.06-.11-.1-.18-.06h-.06l-.13.3,0,.24-.08,0-.12-.05-.52-.42-.19-.09-.46-.16-.22,0-.19,0-.09,0-.26.24-.14.07-.36.06-.18.07-.3-.05H402l-.18.09-.08.1-.14.27-.2.17-.25.2-.13.22-.1,0,0-.05v-.07l.12-.23.18-.25,0-.1,0-.06h-.06l-.18.07h-.22l-.23.34-.15.09-.08,0-.07-.21,0-.07h0l0,.06-.05.19-.06.11-.23.27-.12.23-.24.46-.54.88v.15l-.15.29-.11.09-.14.08-.12.07,0,.07,0,.14-.12.2-.15.29,0,.15-.08.3,0,.06.06.05H398l.06,0,.37-.35,0,0,0,0,.28-.4.15-.12.19-.09.18,0,.08-.26.29-.57.06-.09.18-.14.18-.2.1,0,.05,0v.08l-.09.17-.08.3-.22.33-.06.19-.28.5-.15.33-.14.32-.08.25-.07.31,0,.24v.23l0,.17-.08.15-.12.16-.08.16-.12.37,0,.14v.55l0,.19-.11.38-.18.58-.06.3v.42l0,.41.14.5.06.15,0,.14,0,.26,0,.18v.36l0,.54,0,.18.06.19.08.16.12.25.23.73.16.39.24.17.08,0,.33,0,.06,0,.14,0,.27-.1.25-.12.25-.12.27-.25.18-.21.16-.25.42-.78.13-.3.08-.25,0-.09.07-.34.06-.43v-.23l0-.37-.06-.43-.09-.32,0-.13-.33-1-.1-.3,0-.23,0-.19.07-.23,0-.16v-.08l0-.3,0-.22v-.16l.06-.16.14-.24.2-.42.1-.3.06-.36,0-.1v-.33l0-.11.06-.07.19-.11.06-.06,0-.06v0l.07-.35.27-.18.27-.06.08-.1.36-.54.14-.09,0,.06-.07.11,0,.09,0,.14-.12.71,0,.14,0,0h0l.1-.21,0-.19.06-.11,0-.05,0,.06-.07.26-.09.28,0,.06h0l0-.06.11-.25.1-.32.06-.37,0-.44V122l.06-.14.09-.1.26-.16.21,0,.26-.06.09-.05v-.07l-.13-.06-.09-.07-.08-.11,0-.15v-.14l.07-.14.2-.26.09-.15.19,0,.22-.08.06,0h0l.52.3.41.11.17.09.16.15.11.13.11.09.34.11.92.43.24.2.07.24.13.26.06.18v.07l-.06,0-.12,0-.08,0,0,.06v.18l.06.14.12.17,0,.06.05.12.07.37v.18l-.06.46-.05.36-.09.2-.11.15-.12.09-.09.12-.08.2-.05.15-.07.13-.2.22-.29.13-.1.11,0,.1,0,.07-.07.38,0,.14.08.12.12.09.15.06.15,0,.11,0,.41-.34.37-.58.25-.18.42-.18.16,0,.17,0,.22.13.14.15.16.27.08.25,0,.3.21,1.35.07.3.12.51v.11l-.08.25v.1l0,.15v.18l-.05.21-.07.17-.11.14-.17.1,0-.13.09-.19,0,0-.13,0h0l-.14.1,0,.07,0,.14-.12.17-.06.21,0,.15-.15.18-.15.06-.13.09-.09.21v.21l0,.19-.1.21,0,0-.47.57,0,.07-.06.24.05.07.06,0,.24.08.3.16.48.25h.13l.13-.07h.06l.19.09.12.11.19.18.18.09.17,0,.25-.06.73-.19h.13l.37,0,.2,0,.22-.12.33-.24.45-.33.58-.28.09,0,1.12-.41.65-.32.29-.23.23-.06.58-.3.46-.29.89-.62.05-.06.32-.35.17-.15.1-.15,0-.16,0-.16v-.13l0,0-.1,0,0,0-.07-.16v-.11h0l-.1-.05,0-.13v-.43l.22-.06.35-.09.42-.1.36,0h.67l.41,0h0l.42.09.36.14.24.06.36,0,.16,0,.78,0,.37-.11.18-.1.25-.18.34-.24.17-.08.25-.07.09-.07.06-.13,0-.22v-.23l-.07-.32,0-.08.2-.11,0-.06,0-.12-.19-.11-.14-.14-.1-.18,0-.09,0-.09.07-.11.12-.11.08,0,.08-.05,0-.09.11-.09.28-.19h.1l.21-.18.11-.18.4-.44.36-.35.4-.34.58-.39.18-.1.41-.11h.6l.48,0h2.1l.18,0h3.33l.91,0,0-.14.1-.18,0,0,0-.06.09-.2L436,122l.06-.05,0,0,.06-.08.13-.08h.06l.07.05,0,.06h.08l0,0,0,0,.07,0,.11-.2.17,0,0,0,.07,0,.07.06,0,.08.08.15h.11l0-.07,0-.07,0-.07,0-.1,0,0,0-.1v-.08l0-.06h.11l.06.06h.07l.06.06.07-.09,0-.07-.09-.08-.07-.19.07-.19.14-.17,0,0,.1-.08.21-.17h0l.12-.1,0-.09v-.05l.07-.14.13-.12h0l.12-.16v-.07l0-.05-.08-.07h0v-.22l0-.07,0,0,0-.1,0,0,0-.1-.07-.08v-.14l.14-.37.26-.27.08,0,0-.35,0-.18.05-.41.23-.32.23-.28,1.32-2,.29.09h.1l0,.09,0,.08v.41l0,0,.31.22.11-.06.41-.15h0l.1,0,0-.08.19-.08h.1l0,0,.16,0V115l0-.06.18,0,.1,0,.2.12.35.34.13.19.12.1,0,.06.21.13v.33l0,4.28.5.29h.15l.1,0,.07.16v.18l-.1,0-.09,0,.09.22.09.11v.14l-.05.05,0,.1-.06.05,0,0,0,.1.06.06,0,.11.06.05v.05l.14.11.11-.07v-.06l.05,0,.11.06.06,0,0,0,.07.06.07.1.07.2.2.44.06.29v.06l-.25.25-.12.16-.13.11-.21.11,0,0v-.21l0,0-.09.05,0,.13-.07.08-.21,0-.07,0-.12.17-.28.15h-.05l-.07-.07h-.12l0,0-.07.27-.08.07-.11,0-.24.1-.09-.09-.06-.12-.07-.06-.12,0-.1,0,0,.06.12.19,0,.08v.1l-.06.08-.18.15-.08,0-.09,0-.06-.06,0-.08v-.07l.06-.22,0-.06-.1-.05-.06.07-.08,0-.1.1,0,.2v.15l-.06,0-.49-.2,0-.07,0-.27h0l0,0-.16,0-.09.05,0,.08,0,.25-.12.26-.12.35v.11l.06.06v0l-.38.38-.07,0-.17,0-.12,0-.11.06-.13.14-.12.06-.11.12,0,0-.07,0-.14.11-.3.23h-.06l-.08-.09-.08,0-.16.09-.06,0v-.18l0-.09h0l-.32.22-.12.24V127l0,.28,0,0-.2.09,0,0-.08.12,0,.15,0,.08-.1.13-.24.21-.06.13,0,.2-.1.22-.15.21-.16.31-.1.28.06.29.06.19.08.1.08,0h.12l.06.07v0l-.13.15-.34.14-.06.06,0,.1-.16.13v.08h-.07l0,.08v.12l-.06.09v.08l.06.09h.08l0,0h.1l.1.08.1.08.12.13.16.3,0,.11v.08l0,.11v0l.28.24.09.27,0,.05.1.09.14.06.35.06.35-.11.12-.07.06-.09v-.13l0-.1-.09-.08-.07-.26-.06-.08-.06,0h-.09l0,0,0,0,.09,0,.14.08.1.1.08.15.08.23,0,.25,0,.26,0,.17-.1.29,0,0,0-.17,0-.06-.11,0-.46.09h-.19l-.61.27-.13.07-.25.14-.28.11.44-.31.08-.11,0-.16v-.12l0-.13-.08,0h-.05l-.12.16-.16.12,0,0-.08,0-.08.06-.08.14-.05,0-.33.12-.1,0,0,0-.08-.3,0,0,0,.23-.13.12-.06,0,.16-.42.17-.21,0,0h0l0-.06-.08.12h-.08l0-.08-.06,0-.1.06-.11,0v.13l0,.21v.24l0,.13-.09.13-.1.07-.19.06-.43.11h-.23l-.13,0-.4.05h-.1l-.4.11-.48,0-.7,0h-.08l-.08,0-.45.29-.06,0-.38.13-.49.26-.24.09-.07,0-.25.29,0,0-.06.11,0,.07.06,0,.08-.07.21-.12.3-.11.12,0h0l.1,0,.36,0,.13,0,.17-.09.64,0,.51-.12.7-.39,0,.1.12.14.06,0,.18,0,.13.09.11,0,.22-.14,0,.07-.31.17-.74.34-1.28.51-.42.14-.28.07-.32.05-.28,0-.49.05-.29,0h-.05l-.19,0-.09-.1v-.28l-.2.15-.06,0,0,0-.09.12v0l-.05.11-.06.19v.07l0,0,.06,0h.2l.21,0,0,0,0,.11v.23l0,.36-.06.3-.16.84-.12.36-.14.31-.2.33-.11.18-.22.24-.16.15-.19.18-.15.2-.32.49-.12.11-.11.05h-.07l0-.06.07-.33v-.15l-.05-.09-.07,0-.19-.07h-.18l-.07,0-.24-.24-.26-.19-.08-.08-.23-.22,0-.12h0v-.21l-.06-.08h0v-.08h0l.11-.16-.12.08-.08.13v.08l0,.09v.21l0,.1.15.24.11.19.07.16.12.56.17.35.05.11.16.22.2.19,0,.11.1.85-.1.36-.34.89v0l-.2.32-.08.09-.16.08-.09.09-.1.16-.1.23-.12.38-.11.27,0,.07-.26.48,0,.13-.06.12-.12.12-.09,0-.08,0-.07-.14,0-.16v-.16l.07-.33.1-.35.05-.17.11-.24.17-.28.16-.19,0-.07,0-.09,0-.06ZM381.4,108.58v-.71l.19.09.22,0h0l0,.08.13.26-.1.29-.35.15,0-.13Zm-53.92,49.73.32.43,0,0-.11-.1-.12-.2,0-.1Zm48.85,15.8v.32l0,.36.14.6.11.49h0l-.14-.48-.06-.19-.06-.27,0-.39v-.41l0-.35,0-.15,0-.18.08-.28.14-.32,0-.08.28-.48,0-.13.07-.07,0,0,.18-.29.22-.29.11-.05.12-.12.46-.3.34-.15-.16.15-.56.42-.23.21,0,0-.26.3-.16.22-.1.15-.2.34-.08.18-.1.21-.13.36,0,.2,0,.14Zm34.88,1.41.05,0,.08.12.18.12-.06,0-.09,0-.08-.08Zm4.49,3.1-.25.43-.09.11-.38.39.15-.21,0-.09.06,0,0-.08.08-.07.12-.19,0-.11.15-.18.18-.31ZM396,112.77l-.28.16-.07.11-.32.14h-.16l-.1,0,0-.05,0-.07.08-.08.47-.3.9-.49.17-.05h.08l0,.07-.34.35Zm9.7,7.27-.07-.11v0l.16.11.27.11.07.07v.06l-.07,0-.13,0Zm-2.11.28v.28l0,.09-.08.06h-.08l0-.07,0-.14.09-.21.09,0Zm-3.31,1.21,0-.07.05-.05.16,0,0,0-.08.17-.08.07-.06,0Zm37.5,12.39.1,0,.07,0,.18.2-.08.1-.52.13-.06,0,0-.07.12-.09Zm1.22.5.15-.11.05-.1.08.13,0,.08,0,.07-.09,0H439l-.16,0Zm-3.3.37v0l-.06,0,0-.11Zm-6.13,1.87,0,0,.1-.15.19-.09,0,.06v.08l0,.08-.11.1-.19.07v-.09ZM324.41,155.43l.53.13H325l.12,0,.05,0-.08.06-.29.08h-.15l-.18-.06-.1-.16Zm-.3.21.09.09,0,.06-.1.06h-.12l-.11,0-.12-.14,0,0,.31-.06Zm3.94,1.78v.06l-.06,0-.14,0-.09-.07-.1-.14-.07-.06,0,0h.1l.18.08Zm-2.79.21.14.07,0,.07-.14,0,0,0Zm100.8-5.29-.43.2v0l.43-.21.26-.13.17-.12.07-.12.06-.25.06-.07-.06.49-.14.1Zm-102.68,3.09.06.09-.07,0-.17,0Zm102.91-5.15,0,.12v.09l0,0-.08-.2,0,0Zm-13.23,29.84.11.14v.07l-.1,0h-.28l-.35.15-.27,0v0l.07,0,.15-.06.26-.15.22-.09.12-.08Z"/><text class="cls-14" transform="translate(129.68 40.83)">According to the <tspan class="cls-3" x="180.11" y="0">2015 Google/TNS </tspan><tspan class="cls-3"><tspan x="41.34" y="28.8">Global</tspan><tspan class="cls-15" x="110.72" y="28.8"> </tspan><tspan x="116.06" y="28.8">Auto Shopper Study:</tspan></tspan></text></g></g></svg>