<svg xmlns="http://www.w3.org/2000/svg" viewBox="0 0 79.88 82.54"><defs><style>.cls-1{fill:#f8f8f8;stroke:#b3b3b3;stroke-miterlimit:10;stroke-width:2.36px;}.cls-2{fill:#0080b1;}.cls-3,.cls-8{fill:#ccc;}.cls-4,.cls-5,.cls-6{fill:none;}.cls-4{stroke:#fff;stroke-width:6px;}.cls-4,.cls-5,.cls-6,.cls-7,.cls-8{stroke-linecap:round;stroke-linejoin:round;}.cls-5,.cls-7,.cls-8{stroke:#777;}.cls-5,.cls-6,.cls-7,.cls-8{stroke-width:2px;}.cls-6{stroke:#0080b3;}.cls-7{fill:#fff;}.cls-9{fill:#777;}</style></defs><title>icon-env</title><g id="Layer_2" data-name="Layer 2"><g id="Layer_1-2" data-name="Layer 1"><circle class="cls-1" cx="40.4" cy="41.27" r="38.3"/><circle class="cls-2" cx="40.4" cy="41.27" r="30.34"/><rect class="cls-3" width="0.66" height="5.94"/><rect class="cls-3" x="2.64" y="-2.64" width="0.66" height="5.94" transform="translate(2.64 3.3) rotate(-90)"/><rect class="cls-3" x="76.27" y="79.24" width="0.66" height="5.94" transform="translate(-5.61 158.81) rotate(-90)"/><rect class="cls-3" x="78.91" y="76.6" width="0.66" height="5.94"/><polygon class="cls-4" points="51.67 30.65 24.86 30.65 24.86 51.88 57.05 51.88 57.05 36.03 51.67 36.03 51.67 30.65"/><polygon class="cls-4" points="51.67 36.03 57.05 36.03 51.67 30.65 51.67 36.03"/><polygon class="cls-4" points="51.67 30.65 24.86 30.65 24.86 51.88 57.05 51.88 57.05 36.03 51.67 36.03 51.67 30.65"/><polygon class="cls-4" points="51.67 36.03 57.05 36.03 51.67 30.65 51.67 36.03"/><line class="cls-4" x1="34.93" y1="36.03" x2="47.66" y2="36.03"/><line class="cls-4" x1="29.12" y1="42.09" x2="52.18" y2="42.09"/><line class="cls-4" x1="29.12" y1="45.61" x2="52.18" y2="45.61"/><rect class="cls-4" x="29.12" y="34.52" width="3.4" height="3.4"/><polygon class="cls-5" points="51.67 30.65 24.86 30.65 24.86 51.88 57.05 51.88 57.05 36.03 51.67 36.03 51.67 30.65"/><polygon class="cls-6" points="51.67 36.03 57.05 36.03 51.67 30.65 51.67 36.03"/><polygon class="cls-7" points="51.67 30.65 24.86 30.65 24.86 51.88 57.05 51.88 57.05 36.03 51.67 36.03 51.67 30.65"/><polygon class="cls-8" points="51.67 36.03 57.05 36.03 51.67 30.65 51.67 36.03"/><line class="cls-5" x1="34.93" y1="36.03" x2="47.66" y2="36.03"/><line class="cls-5" x1="29.12" y1="42.09" x2="52.18" y2="42.09"/><line class="cls-5" x1="29.12" y1="45.61" x2="52.18" y2="45.61"/><rect class="cls-9" x="29.12" y="34.52" width="3.4" height="3.4"/></g></g></svg>