<svg xmlns="http://www.w3.org/2000/svg" viewBox="0 0 425.77 317.93"><defs><style>.cls-1,.cls-10,.cls-2{fill:#fff;}.cls-2{font-size:20px;}.cls-11,.cls-12,.cls-2,.cls-5{font-family:ArialMT, Arial;}.cls-3{letter-spacing:-0.04em;}.cls-4{letter-spacing:-0.02em;}.cls-5{font-size:28px;fill:#0066ae;}.cls-6{fill:#0099d4;}.cls-7{fill:none;stroke-miterlimit:10;}.cls-7,.cls-9{stroke:#fff;}.cls-8{fill:#00a4e3;}.cls-11,.cls-12,.cls-9{fill:#0080b1;}.cls-9{stroke-linecap:round;stroke-linejoin:round;stroke-width:2px;}.cls-10{opacity:0.24;}.cls-11{font-size:14.49px;}.cls-12{font-size:7.95px;}</style></defs><title>leads</title><g id="Layer_2" data-name="Layer 2"><g id="Layer_1-2" data-name="Layer 1"><rect class="cls-1" x="3.04" width="330" height="50"/><text class="cls-2" transform="translate(17.42 223.29)"><tspan class="cls-3">T</tspan><tspan x="11.47" y="0">racking the number of leads you’re </tspan><tspan x="-4.26" y="23.98">getting from an online listing platform </tspan><tspan x="-5.75" y="47.96">tells you how e</tspan><tspan class="cls-4" x="126.55" y="47.96">f</tspan><tspan x="131.74" y="47.96">fective the listings are </tspan><tspan x="-1.48" y="71.93">at driving interest in your dealership.</tspan></text><text class="cls-5" transform="translate(119.63 33.96)">LEADS</text><path class="cls-6" d="M363,271.42h14.34c12.25,0,15.54-8.07,15.54-30.77v-46.9c0-40,17-46,20.91-49.89-3.88-2.39-20.91-8.36-20.91-48.4V48.56c0-22.7-3.29-30.77-15.54-30.77H363V7.93H378c16.73,0,26.29,8.07,26.29,35.25v47.5c0,24.2,3.88,47.5,21.51,48.4v11.35c-17.63.9-21.51,24.2-21.51,48.4V246c0,27.19-9.56,35.25-26.29,35.25H363Z"/><rect class="cls-7" x="95.73" y="81.94" width="255.97" height="17.12"/><rect class="cls-7" x="95.73" y="107.15" width="85.37" height="17.12"/><rect class="cls-7" x="95.73" y="132.36" width="113.22" height="17.12"/><rect class="cls-7" x="95.73" y="157.56" width="46.9" height="17.12"/><path class="cls-8" d="M327.78,92.61l25.55,23.74a2.27,2.27,0,0,1-1.41,3.93l-7,.42,4.29,9.17-12.45,5.42-3.87-8.74-5.06,5.28a2.27,2.27,0,0,1-3.91-1.57v-36A2.27,2.27,0,0,1,327.78,92.61Z"/><polygon class="cls-9" points="327.97 98.24 347.65 116.53 338.85 117.06 343.89 127.84 338.85 130.04 334.18 119.48 327.97 125.96 327.97 98.24"/><rect class="cls-1" x="31.28" y="85.58" width="2.42" height="2.75"/><rect class="cls-1" x="36.28" y="85.53" width="21.7" height="2.64"/><rect class="cls-1" x="59.83" y="85.58" width="2.42" height="2.75"/><rect class="cls-1" x="64.08" y="85.58" width="2.42" height="2.75"/><rect class="cls-1" x="68.34" y="85.58" width="2.42" height="2.75"/><rect class="cls-1" x="72.53" y="85.53" width="4.65" height="2.64"/><rect class="cls-1" x="78.44" y="85.58" width="2.42" height="2.75"/><rect class="cls-1" x="82.69" y="85.58" width="2.42" height="2.75"/><rect class="cls-1" x="86.95" y="85.58" width="2.42" height="2.75"/><rect class="cls-1" x="80.16" y="92.74" width="9.2" height="2.64"/><rect class="cls-1" x="75.9" y="92.57" width="2.42" height="2.75" transform="translate(154.21 187.89) rotate(180)"/><rect class="cls-1" x="71.64" y="92.57" width="2.42" height="2.75" transform="translate(145.7 187.89) rotate(180)"/><rect class="cls-1" x="67.39" y="92.57" width="2.42" height="2.75" transform="translate(137.19 187.89) rotate(180)"/><rect class="cls-1" x="43.1" y="92.74" width="21.7" height="2.64"/><rect class="cls-1" x="38.84" y="92.57" width="2.42" height="2.75" transform="translate(80.09 187.89) rotate(180)"/><rect class="cls-1" x="34.58" y="92.57" width="2.42" height="2.75" transform="translate(71.58 187.89) rotate(180)"/><rect class="cls-1" x="30.33" y="92.57" width="2.42" height="2.75" transform="translate(63.07 187.89) rotate(180)"/><circle class="cls-10" cx="14.62" cy="90.5" r="14.62"/><circle class="cls-1" cx="14.62" cy="90.5" r="11.05"/><text class="cls-11" transform="translate(10.59 95.02)">1</text><rect class="cls-1" x="31.28" y="110.79" width="2.42" height="2.75"/><rect class="cls-1" x="36.28" y="110.73" width="21.7" height="2.64"/><rect class="cls-1" x="59.83" y="110.79" width="2.42" height="2.75"/><rect class="cls-1" x="64.08" y="110.79" width="2.42" height="2.75"/><rect class="cls-1" x="68.34" y="110.79" width="2.42" height="2.75"/><rect class="cls-1" x="72.53" y="110.73" width="4.65" height="2.64"/><rect class="cls-1" x="78.44" y="110.79" width="2.42" height="2.75"/><rect class="cls-1" x="82.69" y="110.79" width="2.42" height="2.75"/><rect class="cls-1" x="86.95" y="110.79" width="2.42" height="2.75"/><rect class="cls-1" x="80.16" y="117.94" width="9.2" height="2.64"/><rect class="cls-1" x="75.9" y="117.78" width="2.42" height="2.75" transform="translate(154.21 238.3) rotate(180)"/><rect class="cls-1" x="71.64" y="117.78" width="2.42" height="2.75" transform="translate(145.7 238.3) rotate(180)"/><rect class="cls-1" x="67.39" y="117.78" width="2.42" height="2.75" transform="translate(137.19 238.3) rotate(180)"/><rect class="cls-1" x="43.1" y="117.94" width="21.7" height="2.64"/><rect class="cls-1" x="38.84" y="117.78" width="2.42" height="2.75" transform="translate(80.09 238.3) rotate(180)"/><rect class="cls-1" x="34.58" y="117.78" width="2.42" height="2.75" transform="translate(71.58 238.3) rotate(180)"/><rect class="cls-1" x="30.33" y="117.78" width="2.42" height="2.75" transform="translate(63.07 238.3) rotate(180)"/><circle class="cls-1" cx="19.61" cy="115.71" r="6.06"/><text class="cls-12" transform="translate(17.4 118.19)">2</text><rect class="cls-1" x="31.28" y="136" width="2.42" height="2.75"/><rect class="cls-1" x="36.28" y="135.94" width="21.7" height="2.64"/><rect class="cls-1" x="59.83" y="136" width="2.42" height="2.75"/><rect class="cls-1" x="64.08" y="136" width="2.42" height="2.75"/><rect class="cls-1" x="68.34" y="136" width="2.42" height="2.75"/><rect class="cls-1" x="72.53" y="135.94" width="4.65" height="2.64"/><rect class="cls-1" x="78.44" y="136" width="2.42" height="2.75"/><rect class="cls-1" x="82.69" y="136" width="2.42" height="2.75"/><rect class="cls-1" x="86.95" y="136" width="2.42" height="2.75"/><rect class="cls-1" x="80.16" y="143.15" width="9.2" height="2.64"/><rect class="cls-1" x="75.9" y="142.99" width="2.42" height="2.75" transform="translate(154.21 288.72) rotate(180)"/><rect class="cls-1" x="71.64" y="142.99" width="2.42" height="2.75" transform="translate(145.7 288.72) rotate(180)"/><rect class="cls-1" x="67.39" y="142.99" width="2.42" height="2.75" transform="translate(137.19 288.72) rotate(180)"/><rect class="cls-1" x="43.1" y="143.15" width="21.7" height="2.64"/><rect class="cls-1" x="38.84" y="142.99" width="2.42" height="2.75" transform="translate(80.09 288.72) rotate(180)"/><rect class="cls-1" x="34.58" y="142.99" width="2.42" height="2.75" transform="translate(71.58 288.72) rotate(180)"/><rect class="cls-1" x="30.33" y="142.99" width="2.42" height="2.75" transform="translate(63.07 288.72) rotate(180)"/><circle class="cls-1" cx="19.61" cy="140.92" r="6.06"/><text class="cls-12" transform="translate(17.4 143.39)">3</text><rect class="cls-1" x="31.28" y="161.2" width="2.42" height="2.75"/><rect class="cls-1" x="36.28" y="161.15" width="21.7" height="2.64"/><rect class="cls-1" x="59.83" y="161.2" width="2.42" height="2.75"/><rect class="cls-1" x="64.08" y="161.2" width="2.42" height="2.75"/><rect class="cls-1" x="68.34" y="161.2" width="2.42" height="2.75"/><rect class="cls-1" x="72.53" y="161.15" width="4.65" height="2.64"/><rect class="cls-1" x="78.44" y="161.2" width="2.42" height="2.75"/><rect class="cls-1" x="82.69" y="161.2" width="2.42" height="2.75"/><rect class="cls-1" x="86.95" y="161.2" width="2.42" height="2.75"/><rect class="cls-1" x="80.16" y="168.36" width="9.2" height="2.64"/><rect class="cls-1" x="75.9" y="168.19" width="2.42" height="2.75" transform="translate(154.21 339.13) rotate(180)"/><rect class="cls-1" x="71.64" y="168.19" width="2.42" height="2.75" transform="translate(145.7 339.13) rotate(180)"/><rect class="cls-1" x="67.39" y="168.19" width="2.42" height="2.75" transform="translate(137.19 339.13) rotate(180)"/><rect class="cls-1" x="43.1" y="168.36" width="21.7" height="2.64"/><rect class="cls-1" x="38.84" y="168.19" width="2.42" height="2.75" transform="translate(80.09 339.13) rotate(180)"/><rect class="cls-1" x="34.58" y="168.19" width="2.42" height="2.75" transform="translate(71.58 339.13) rotate(180)"/><rect class="cls-1" x="30.33" y="168.19" width="2.42" height="2.75" transform="translate(63.07 339.13) rotate(180)"/><circle class="cls-1" cx="19.61" cy="166.12" r="6.06"/><text class="cls-12" transform="translate(17.4 168.6)">4</text></g></g></svg>