<svg xmlns="http://www.w3.org/2000/svg" viewBox="0 0 218.2 222.53"><defs><style>.cls-1{fill:#fff;fill-rule:evenodd;}.cls-2{fill:#0080b1;}.cls-3{fill:#73ba3e;}</style></defs><title>map</title><g id="Layer_2" data-name="Layer 2"><g id="Layer_1-2" data-name="Layer 1"><polygon class="cls-1" points="13.16 31.71 13.16 33.16 14.23 31.71 13.16 31.71"/><path class="cls-1" d="M204,31.71h-6.31L187.38,52.82l-12.06-1.16,8-20h-7.18l-26.6,66.74a19.43,19.43,0,0,0-2.14-.49V31.71h-6.67V78.93L77.43,66.29l31-34.58h-8.38L87.24,46l-20-3.38,6.17-10.93H64.93L59.5,41.34,13.16,33.51v6.73L82,51.86l-11.67,13L13.16,53.44v6.73L42.59,66l-16,17.84H26l-1.45,1.53L13.16,83.05V90l6,1.24-.14.14h.9l-6.72,7.48v9L28,91.34H66.85L65,114H13.16v6.69H26l47.13,20.81L50.46,156.89A194.65,194.65,0,0,0,13.16,124l1.57,25.91a164.55,164.55,0,0,1,19.09,18.24l-20.66,14v15.7L27.56,207l-14.4,11.61v3.93h5.78l14.58-11.75.79.5,1.69-2.5L51.47,196.3l.05,1.27,1.33.18c1,6.84,0,14.36-1.33,20-.37,1.58-.79,3.2-1.27,4.82H88.4q-2.85-8.33-6.48-16.5c-.71-1.58-1.46-3.15-2.24-4.7l61,8.17v13h6.67V211.22l20.86-.78.9,12.09h7.35l-3.2-43.68A142.08,142.08,0,0,0,204,207v-8.77c-2.25-1.65-4.38-3.33-6.44-5L204,181V166.75l-11.59,22a127.21,127.21,0,0,1-17.31-19.28l14.22-24.12L204,154v-7.75l-11.28-6.6,11.13-18.88H204V114H163.37a19.61,19.61,0,0,0-2.17-6.22L204,73.32V64.74L187.33,78.16l-22.54-.09,7.68-19.27L204,61.23V54.42l-7.39-.71L204,38.53ZM74.47,72.42l66.12,13.22L73.53,83.89Zm35,41.61H93.23L93,92l16.28.42ZM72.91,91.46l12.75.33L85.88,114H71ZM34.65,83.89,49.44,67.42l19.07,3.81-1,12.66Zm7.65,36.83h82.36a19.61,19.61,0,0,0,2.17,6.22L101.9,147l-22.16-9.79-.06-.15-.11.08Zm37.89,23.93,15.95,7L65.49,176.41q-5.06-7.51-10.78-14.5ZM33,202.57,13.23,190l24.85-16.83a165.11,165.11,0,0,1,11.61,16Zm38-17.34,0-.1-1.53-3.38,8.64-7,.06,1.37L90.9,178l-16,14.42C73.64,190,72.33,187.63,71.08,185.23Zm69.61,17.63-57.62-7.72,17.47-15.79,40.14,5.75Zm0-24.41-57-8.15,18.75-15.12h38.22Zm0-30.65H111.63L131,132.15a19.53,19.53,0,0,0,9.66,4.64Zm0-49.83a19.67,19.67,0,0,0-16,16.07h-7.79l-.19-21.43,24,.63Zm6.67,38.82a19.42,19.42,0,0,0,3.1-.8,130.68,130.68,0,0,0,13.7,30l-16.8,8.12Zm0,67.73v-21l18.21-8.8,2.15,29Zm16-83.8h31.7l-24.66,41.83a123.77,123.77,0,0,1-13.6-30.22A19.68,19.68,0,0,0,163.37,120.73Zm16-36.11-22.33,18q-.73-.64-1.51-1.21l6.37-16Z"/><path class="cls-2" d="M64.74,186.93l.13.28a188.16,188.16,0,0,1,10.74,20.58q3.26,7.32,5.84,14.74H73.18q-2.11-5.94-4.68-11.83a77.86,77.86,0,0,1-1.63,11.83H57.8q.29-1.1.54-2.2c2.48-10.74,2.79-22-.81-30.74a173.37,173.37,0,0,0-43.31-48L13.64,132A184.61,184.61,0,0,1,64.7,186.94Z"/><ellipse class="cls-2" cx="144.02" cy="117.38" rx="13.25" ry="13.29"/><path class="cls-3" d="M59.31,134.53a14.22,14.22,0,0,1,28.44,0c0,7.85-14.22,28.43-14.22,28.43S59.31,142.39,59.31,134.53Z"/><circle class="cls-2" cx="73.53" cy="134.54" r="4.74"/><path class="cls-3" d="M47.55,47.38a14.22,14.22,0,0,1,28.44,0c0,7.85-14.22,28.43-14.22,28.43S47.55,55.23,47.55,47.38Z"/><circle class="cls-2" cx="61.76" cy="47.39" r="4.74"/><path class="cls-3" d="M0,83.8a14.22,14.22,0,0,1,28.44,0c0,7.85-14.22,28.43-14.22,28.43S0,91.65,0,83.8Z"/><circle class="cls-2" cx="14.22" cy="83.81" r="4.74"/><path class="cls-3" d="M153.2,14.22a14.22,14.22,0,1,1,28.44,0c0,7.85-14.22,28.43-14.22,28.43S153.2,22.07,153.2,14.22Z"/><circle class="cls-2" cx="167.42" cy="14.23" r="4.74"/><path class="cls-3" d="M189.76,180.76a14.22,14.22,0,1,1,28.44,0c0,7.85-14.22,28.43-14.22,28.43S189.76,188.61,189.76,180.76Z"/><circle class="cls-2" cx="203.98" cy="180.76" r="4.74"/></g></g></svg>