<svg xmlns="http://www.w3.org/2000/svg" viewBox="0 0 311.92 163.4"><defs><style>.cls-1,.cls-3,.cls-8{fill:#fff;}.cls-1,.cls-2{stroke:#0080b1;}.cls-1,.cls-2,.cls-6{stroke-linecap:round;stroke-linejoin:round;stroke-width:2px;}.cls-2{fill:none;}.cls-3,.cls-6{stroke:#fff;}.cls-3{stroke-miterlimit:10;}.cls-4{fill:#95f050;}.cls-5{fill:#00a4e3;}.cls-6{fill:#0080b1;}.cls-7{fill:#bdccd4;}.cls-8{font-size:19.53px;font-family:ArialMT, Arial;}.cls-9{letter-spacing:-0.07em;}.cls-10{letter-spacing:-0.02em;}</style></defs><title>only-now</title><g id="Layer_2" data-name="Layer 2"><g id="Layer_1-2" data-name="Layer 1"><rect class="cls-1" x="1" y="16.64" width="257.56" height="145.76" rx="5.37" ry="5.37"/><rect class="cls-2" x="150.04" y="86.33" width="89.08" height="19.61"/><rect class="cls-2" x="154.9" y="90.67" width="10.94" height="10.94"/><line class="cls-2" x1="171.37" y1="91.57" x2="231.99" y2="91.57"/><line class="cls-2" x1="171.37" y1="95.86" x2="231.99" y2="95.86"/><line class="cls-2" x1="171.37" y1="100.16" x2="231.99" y2="100.16"/><rect class="cls-2" x="150.04" y="111.39" width="89.08" height="19.61"/><rect class="cls-2" x="154.9" y="115.72" width="10.94" height="10.94"/><line class="cls-2" x1="171.37" y1="116.62" x2="231.99" y2="116.62"/><line class="cls-2" x1="171.37" y1="120.92" x2="231.99" y2="120.92"/><line class="cls-2" x1="171.37" y1="125.21" x2="231.99" y2="125.21"/><rect class="cls-2" x="26.29" y="29.81" width="112.65" height="15.44"/><rect class="cls-2" x="146.07" y="29.81" width="17.47" height="15.44"/><path class="cls-3" d="M159,41.06l-2.2-2.2a3.77,3.77,0,1,0-1.13,1L158,42.14A.76.76,0,1,0,159,41.06Zm-4-1.87a2.85,2.85,0,1,1,1.11-1A2.82,2.82,0,0,1,155.06,39.19Z"/><rect class="cls-4" x="19.22" y="59.67" width="223.43" height="16.18"/><line class="cls-2" x1="38.08" y1="65.54" x2="140.02" y2="65.54"/><line class="cls-2" x1="38.08" y1="69.98" x2="107.37" y2="69.98"/><rect class="cls-2" x="23.65" y="63.54" width="8.74" height="8.74"/><line class="cls-2" x1="38.08" y1="89.4" x2="140.02" y2="89.4"/><line class="cls-2" x1="38.08" y1="93.85" x2="107.37" y2="93.85"/><rect class="cls-2" x="23.65" y="87.41" width="8.74" height="8.74"/><line class="cls-2" x1="38.08" y1="113.27" x2="140.02" y2="113.27"/><line class="cls-2" x1="38.08" y1="117.72" x2="107.37" y2="117.72"/><rect class="cls-2" x="23.65" y="111.28" width="8.74" height="8.74"/><line class="cls-2" x1="38.08" y1="137.14" x2="140.02" y2="137.14"/><line class="cls-2" x1="38.08" y1="141.59" x2="107.37" y2="141.59"/><rect class="cls-2" x="23.65" y="135.15" width="8.74" height="8.74"/><path class="cls-5" d="M227,70.47l23,21.37a2,2,0,0,1-1.27,3.54l-6.26.38,3.86,8.26-11.21,4.88L231.64,101l-4.56,4.76a2,2,0,0,1-3.52-1.41V72A2,2,0,0,1,227,70.47Z"/><polygon class="cls-6" points="227.17 75.54 244.89 92 236.97 92.48 241.5 102.19 236.97 104.16 232.76 94.66 227.17 100.49 227.17 75.54"/><path class="cls-7" d="M276.4,88c-3.13,0-6-2.05-8.76-4-2-1.42-4-2.9-5.59-3.1l-.39,0a18.45,18.45,0,0,0-5.5,1.57c-2.51,1-5.11,2-7.64,2a7.51,7.51,0,0,1-3.79-1c-3.54-2-4.25-6.47-4.87-10.39-.37-2.33-.76-4.74-1.63-5.87S235,64.9,232.73,63.9c-3.54-1.59-7.56-3.39-8.58-7.17s1.54-7.36,3.8-10.51c1.43-2,2.9-4,3.1-5.59s-.7-3.69-1.55-5.9c-1.43-3.7-3.05-7.89-1-11.43s6.47-4.25,10.39-4.87c2.33-.37,4.74-.76,5.88-1.63S247,13.54,248,11.31c1.59-3.54,3.39-7.56,7.17-8.58a6.69,6.69,0,0,1,1.75-.23c3.13,0,6,2.05,8.76,4,2,1.42,4,2.9,5.59,3.1l.39,0a18.45,18.45,0,0,0,5.5-1.57c2.51-1,5.11-2,7.64-2a7.51,7.51,0,0,1,3.79,1c3.54,2,4.25,6.47,4.87,10.39.37,2.33.76,4.74,1.63,5.88s3.26,2.27,5.49,3.27c3.54,1.59,7.56,3.39,8.58,7.17s-1.54,7.36-3.8,10.51c-1.43,2-2.9,4-3.1,5.59s.7,3.7,1.55,5.9c1.43,3.7,3.06,7.89,1,11.43s-6.47,4.25-10.39,4.88c-2.33.37-4.74.76-5.87,1.63s-2.27,3.26-3.27,5.49c-1.59,3.54-3.39,7.56-7.17,8.58A6.7,6.7,0,0,1,276.4,88Z"/><path class="cls-4" d="M256.93,5c4.45,0,9.49,6.53,14,7.11a5.59,5.59,0,0,0,.71,0c3.86,0,9.08-3.55,13.14-3.55a5,5,0,0,1,2.55.62c4.41,2.53,2.85,11.83,5.77,15.62s12.37,4.85,13.64,9.56-6.33,10.21-7,15.13c-.61,4.74,5.42,12,2.88,16.4s-11.83,2.85-15.62,5.77-4.85,12.37-9.56,13.64a4.2,4.2,0,0,1-1.1.14c-4.45,0-9.49-6.53-14-7.11a5.58,5.58,0,0,0-.71,0c-3.86,0-9.08,3.55-13.14,3.55a5,5,0,0,1-2.55-.62c-4.41-2.53-2.85-11.83-5.77-15.62s-12.37-4.85-13.64-9.56,6.33-10.21,7-15.13c.61-4.74-5.42-12-2.88-16.4s11.83-2.85,15.62-5.77,4.85-12.37,9.56-13.64a4.2,4.2,0,0,1,1.1-.14m0-5h0a9.24,9.24,0,0,0-2.41.32c-4.92,1.33-7.07,6.12-8.8,10-.71,1.58-1.78,4-2.51,4.53s-3.21.9-4.74,1.14c-4.25.68-9.54,1.52-12.16,6.1s-.69,9.57.86,13.58c.56,1.45,1.5,3.88,1.4,4.67s-1.64,3-2.65,4.45c-2.46,3.43-5.52,7.7-4.19,12.62s6.12,7.07,10,8.8c1.58.71,4,1.78,4.53,2.51s.9,3.21,1.14,4.74c.68,4.25,1.52,9.54,6.1,12.16a10,10,0,0,0,5,1.29c3,0,5.94-1.14,8.54-2.15a18.59,18.59,0,0,1,4.6-1.4h.07c.92.12,3,1.64,4.45,2.65,2.94,2.11,6.28,4.5,10.22,4.5a9.21,9.21,0,0,0,2.41-.32c4.92-1.33,7.07-6.12,8.8-10,.71-1.58,1.78-4,2.51-4.53s3.21-.9,4.74-1.14c4.25-.68,9.54-1.52,12.16-6.1s.69-9.57-.86-13.58c-.56-1.45-1.5-3.88-1.4-4.67s1.64-3,2.65-4.45c2.46-3.43,5.52-7.7,4.19-12.62s-6.12-7.07-10-8.8c-1.58-.71-4-1.78-4.53-2.51s-.9-3.21-1.14-4.74c-.68-4.25-1.52-9.54-6.1-12.16a10,10,0,0,0-5-1.29c-3,0-5.94,1.14-8.54,2.15a18.6,18.6,0,0,1-4.6,1.4h-.07c-.92-.12-3-1.64-4.45-2.65C264.2,2.39,260.86,0,256.93,0Z"/><text class="cls-8" transform="matrix(0.87, 0.5, -0.5, 0.87, 246.65, 28.53)">ON<tspan class="cls-9" x="29.3" y="0">L</tspan><tspan class="cls-10" x="38.71" y="0">Y</tspan><tspan x="1.83" y="23.44">NOW</tspan></text></g></g></svg>