<svg xmlns="http://www.w3.org/2000/svg" viewBox="0 0 301.71 142.08"><defs><style>.cls-1{fill:none;}.cls-1,.cls-8{stroke:#0080b1;}.cls-1,.cls-5,.cls-8{stroke-linecap:round;stroke-linejoin:round;stroke-width:2px;}.cls-2,.cls-6,.cls-7,.cls-8{fill:#fff;}.cls-2,.cls-5{stroke:#fff;}.cls-2{stroke-miterlimit:10;}.cls-3{fill:#95f050;}.cls-4{fill:#00a4e3;}.cls-5{fill:#0080b1;}.cls-6{font-size:14px;}.cls-6,.cls-7{font-family:ArialMT, Arial;}.cls-7{font-size:16px;}</style></defs><title>question-marks</title><g id="Layer_2" data-name="Layer 2"><g id="Layer_1-2" data-name="Layer 1"><rect class="cls-1" x="15.76" y="20.41" width="253.23" height="120.67" rx="5.37" ry="5.37"/><rect class="cls-1" x="179.15" y="78.1" width="73.75" height="16.23"/><rect class="cls-1" x="183.18" y="81.69" width="9.05" height="9.05"/><line class="cls-1" x1="196.81" y1="82.44" x2="246.99" y2="82.44"/><line class="cls-1" x1="196.81" y1="85.99" x2="246.99" y2="85.99"/><line class="cls-1" x1="196.81" y1="89.55" x2="246.99" y2="89.55"/><rect class="cls-1" x="179.15" y="98.84" width="73.75" height="16.23"/><rect class="cls-1" x="183.18" y="102.43" width="9.05" height="9.05"/><line class="cls-1" x1="196.81" y1="103.18" x2="246.99" y2="103.18"/><line class="cls-1" x1="196.81" y1="106.73" x2="246.99" y2="106.73"/><line class="cls-1" x1="196.81" y1="110.29" x2="246.99" y2="110.29"/><rect class="cls-1" x="76.7" y="31.31" width="93.26" height="12.78"/><rect class="cls-1" x="175.86" y="31.31" width="14.46" height="12.78"/><path class="cls-2" d="M186.61,40.62l-1.82-1.82a3.12,3.12,0,1,0-.94.85l1.87,1.87a.63.63,0,1,0,.89-.89Zm-3.3-1.55a2.36,2.36,0,1,1,.92-.82A2.34,2.34,0,0,1,183.31,39.07Z"/><rect class="cls-3" x="70.85" y="56.03" width="184.97" height="13.39"/><line class="cls-1" x1="86.46" y1="60.88" x2="170.85" y2="60.88"/><line class="cls-1" x1="86.46" y1="64.57" x2="143.83" y2="64.57"/><rect class="cls-1" x="74.52" y="59.23" width="7.24" height="7.24"/><line class="cls-1" x1="86.46" y1="80.64" x2="170.85" y2="80.64"/><line class="cls-1" x1="86.46" y1="84.33" x2="143.83" y2="84.33"/><rect class="cls-1" x="74.52" y="78.99" width="7.24" height="7.24"/><line class="cls-1" x1="86.46" y1="100.41" x2="170.85" y2="100.41"/><line class="cls-1" x1="86.46" y1="104.09" x2="143.83" y2="104.09"/><rect class="cls-1" x="74.52" y="98.75" width="7.24" height="7.24"/><line class="cls-1" x1="86.46" y1="120.17" x2="170.85" y2="120.17"/><line class="cls-1" x1="86.46" y1="123.85" x2="143.83" y2="123.85"/><rect class="cls-1" x="74.52" y="118.51" width="7.24" height="7.24"/><path class="cls-4" d="M242.86,65l19,17.69a1.69,1.69,0,0,1-1.05,2.93l-5.18.31,3.19,6.83-9.28,4-2.88-6.51-3.77,3.94A1.69,1.69,0,0,1,240,93V66.21A1.69,1.69,0,0,1,242.86,65Z"/><polygon class="cls-5" points="243 69.17 257.67 82.8 251.11 83.19 254.87 91.23 251.11 92.86 247.63 84.99 243 89.83 243 69.17"/><rect class="cls-3" x="24.91" y="56.03" width="41.25" height="69.72"/><text class="cls-6" transform="translate(24.92 87.56)">CLICK<tspan x="1.17" y="16.8">HERE</tspan></text><rect class="cls-4" x="196.81" y="28.56" width="59.01" height="18.91"/><text class="cls-7" transform="translate(202.75 44.09)">CLICK</text><path class="cls-8" d="M270.75,10.83a10.94,10.94,0,0,1,4-2.58,12.73,12.73,0,0,1,4.77-.75,17.86,17.86,0,0,1,5.22,1,15.2,15.2,0,0,1,3.7,1.82A10.29,10.29,0,0,1,291.19,13a8.16,8.16,0,0,1,1.35,3.46,8.88,8.88,0,0,1-.46,4.18,8.28,8.28,0,0,1-1.55,2.82,9.8,9.8,0,0,1-2.24,1.92,11.65,11.65,0,0,1-2.71,1.23,29.86,29.86,0,0,1-3,.76,17,17,0,0,0-4.41,1.29,6.41,6.41,0,0,0-3.1,3.3l-6.2-2.08a18.29,18.29,0,0,1,2.23-3.54,9.17,9.17,0,0,1,2.46-2.1,11.83,11.83,0,0,1,2.9-1.17q1.58-.41,3.57-.74a10,10,0,0,0,3-1.14,4.28,4.28,0,0,0,1.92-2.44,3.38,3.38,0,0,0-.29-3.18,5,5,0,0,0-2.57-1.86,5.15,5.15,0,0,0-4.46.44,7,7,0,0,0-1.73,1.48,9.28,9.28,0,0,0-1.3,2l-6.67-2.24A13,13,0,0,1,270.75,10.83ZM273.85,35l-4,6.72-7.42-2.49,4-6.72Z"/><path class="cls-8" d="M1.09,15.83a10.94,10.94,0,0,1,.43-4.74A12.73,12.73,0,0,1,3.86,6.86a17.86,17.86,0,0,1,4-3.52,15.2,15.2,0,0,1,3.71-1.8A10.29,10.29,0,0,1,15.33,1a8.16,8.16,0,0,1,3.56,1.06A8.88,8.88,0,0,1,21.9,5a8.28,8.28,0,0,1,1.28,3,9.8,9.8,0,0,1,.14,2.94,11.65,11.65,0,0,1-.7,2.9,29.86,29.86,0,0,1-1.26,2.86,17,17,0,0,0-1.69,4.27,6.41,6.41,0,0,0,.7,4.47L14.92,29a18.29,18.29,0,0,1-1.42-3.94,9.17,9.17,0,0,1-.15-3.23,11.83,11.83,0,0,1,.86-3q.64-1.5,1.61-3.27a10,10,0,0,0,.94-3.06,4.28,4.28,0,0,0-.75-3,3.38,3.38,0,0,0-2.69-1.73,5,5,0,0,0-3,.88,5.15,5.15,0,0,0-2.4,3.79A7,7,0,0,0,8,14.73,9.28,9.28,0,0,0,8.78,17L2.91,20.87A13,13,0,0,1,1.09,15.83Zm21,12.39,2.85,7.27-6.53,4.33-2.85-7.27Z"/><path class="cls-8" d="M278.34,39.85a10.94,10.94,0,0,1,3.78-2.9,12.73,12.73,0,0,1,4.7-1.14,17.86,17.86,0,0,1,5.28.54,15.2,15.2,0,0,1,3.84,1.51,10.29,10.29,0,0,1,2.95,2.44,8.16,8.16,0,0,1,1.63,3.34,8.88,8.88,0,0,1-.12,4.21,8.28,8.28,0,0,1-1.31,2.94A9.8,9.8,0,0,1,297,52.88a11.65,11.65,0,0,1-2.6,1.45,29.86,29.86,0,0,1-3,1A17,17,0,0,0,287.16,57a6.41,6.41,0,0,0-2.82,3.54L278,59a18.29,18.29,0,0,1,1.94-3.71A9.17,9.17,0,0,1,282.2,53a11.83,11.83,0,0,1,2.8-1.4q1.54-.54,3.5-1a10,10,0,0,0,2.89-1.38,4.28,4.28,0,0,0,1.71-2.59,3.38,3.38,0,0,0-.55-3.15,5,5,0,0,0-2.71-1.64,5.15,5.15,0,0,0-4.41.8,7,7,0,0,0-1.6,1.62,9.28,9.28,0,0,0-1.13,2.1l-6.83-1.69A13,13,0,0,1,278.34,39.85Zm5.07,23.82-3.42,7-7.6-1.88,3.42-7Z"/></g></g></svg>