<svg xmlns="http://www.w3.org/2000/svg" viewBox="0 0 422.73 333.64"><defs><style>.cls-1,.cls-2{fill:#fff;}.cls-2{font-size:20px;}.cls-2,.cls-4{font-family:ArialMT, Arial;}.cls-3{letter-spacing:-0.04em;}.cls-4{font-size:28px;fill:#0066ae;}.cls-5{fill:#0099d4;}.cls-6{fill:none;}.cls-6,.cls-7{stroke:#fff;stroke-linecap:round;stroke-linejoin:round;stroke-width:2px;}.cls-7{fill:#0080b3;}</style></defs><title>sales</title><g id="Layer_2" data-name="Layer 2"><g id="Layer_1-2" data-name="Layer 1"><rect class="cls-1" width="330" height="50"/><text class="cls-2" transform="translate(9.18 253.1)"><tspan class="cls-3">T</tspan><tspan x="11.47" y="0">racking the number of sales coming </tspan><tspan x="-1.46" y="23.98">from a listing platform tells you if your </tspan><tspan x="17.95" y="47.96">leads are actually converting into </tspan><tspan x="137.47" y="71.93">sales. </tspan></text><text class="cls-4" transform="translate(117.36 33.96)">SALES</text><path class="cls-5" d="M360,268.49h14.34c12.25,0,15.54-8.07,15.54-30.77v-46.9c0-40,17-46,20.91-49.89-3.88-2.39-20.91-8.36-20.91-48.4V45.63c0-22.7-3.29-30.77-15.54-30.77H360V5h14.94c16.73,0,26.29,8.07,26.29,35.25v47.5c0,24.2,3.88,47.5,21.51,48.4V147.5c-17.63.9-21.51,24.2-21.51,48.4v47.2c0,27.19-9.56,35.25-26.29,35.25H360Z"/><path class="cls-6" d="M37.28,175.22a6.58,6.58,0,0,0-4.17,6.33l0,.74a6.46,6.46,0,0,0,4.79,6C37.51,184,37.31,179.38,37.28,175.22Z"/><path class="cls-6" d="M309.65,177.93c-1.6-10-7.86-26.85-72.6-26.85,0,0-32.78-28.55-52.49-32.24-9.3-1.74-58.5-13.17-144.16,50.55-6.23,4.64,0,30.93,0,30.93H57.31c0-17.42,11.09-24.78,24.78-24.78s24.78,7.37,24.78,24.78h128c0-17.42,11.09-24.78,24.78-24.78s24.78,7.37,24.78,24.78h25.47l-.29-22.39Z"/><path class="cls-6" d="M37.58,191.61A3.29,3.29,0,0,0,35,194.34v3.53c0,1.33,1.68,2.45,2.58,2.45H57.31a32.34,32.34,0,0,1,1.1-8.71Z"/><path class="cls-6" d="M309.43,191.61H283.37a32.33,32.33,0,0,1,1.1,8.71h25c.9,0,1.76-1.12,1.76-2.45v-3.53C311.18,193,310.32,191.61,309.43,191.61Z"/><path class="cls-6" d="M105.78,191.61a32.33,32.33,0,0,1,1.1,8.71h128a32.34,32.34,0,0,1,1.1-8.71Z"/><path class="cls-6" d="M148.21,128c-39.19,6.21-67.86,27.6-67.86,27.6h67.86Z"/><path class="cls-6" d="M158.16,155.64h67.92c-28.21-29.86-50.24-29.09-50.24-29.09a126.36,126.36,0,0,0-17.68.29Z"/><circle class="cls-6" cx="82.25" cy="201.8" r="17.17"/><circle class="cls-6" cx="260.6" cy="201.8" r="17.17"/><path class="cls-6" d="M301.14,171.39c.94-1.2,2.95-1.86,4.62-2,3,3.82,3.6,6.54,3.6,9.32v6.81c-2-.22-2.33-.75-3.86-1.95C300.87,179.94,298.72,174.49,301.14,171.39Z"/><line class="cls-6" x1="158.16" y1="165.02" x2="182.48" y2="165.02"/><polygon class="cls-7" points="148.21 78.01 151.88 87.94 161.81 91.61 151.88 95.28 148.21 105.21 144.54 95.28 134.61 91.61 144.54 87.94 148.21 78.01"/><polygon class="cls-7" points="30.25 107.21 33.92 117.14 43.85 120.81 33.92 124.49 30.25 134.42 26.57 124.49 16.64 120.81 26.57 117.14 30.25 107.21"/><polygon class="cls-7" points="289.47 77.01 293.14 86.94 303.07 90.61 293.14 94.28 289.47 104.21 285.8 94.28 275.87 90.61 285.8 86.94 289.47 77.01"/><polygon class="cls-7" points="230.34 101.36 232.97 108.46 240.07 111.09 232.97 113.72 230.34 120.81 227.72 113.72 220.62 111.09 227.72 108.46 230.34 101.36"/><polygon class="cls-7" points="75.81 62.55 78.43 69.65 85.53 72.28 78.43 74.91 75.81 82.01 73.18 74.91 66.08 72.28 73.18 69.65 75.81 62.55"/></g></g></svg>