<svg xmlns="http://www.w3.org/2000/svg" viewBox="0 0 422.77 273.34"><defs><style>.cls-1,.cls-6{fill:#fff;}.cls-2{font-size:28px;fill:#0066ae;font-family:ArialMT, Arial;}.cls-3{letter-spacing:-0.02em;}.cls-4{fill:#0099d4;}.cls-5,.cls-7{fill:none;}.cls-5,.cls-6,.cls-7,.cls-9{stroke:#fff;}.cls-5,.cls-7,.cls-9{stroke-linecap:round;stroke-linejoin:round;}.cls-5,.cls-9{stroke-width:2px;}.cls-6{stroke-miterlimit:10;}.cls-8{fill:#00a4e3;}.cls-9{fill:#0080b1;}</style></defs><title>site-traffic</title><g id="Layer_2" data-name="Layer 2"><g id="Layer_1-2" data-name="Layer 1"><rect class="cls-1" x="0.04" y="23" width="330" height="50"/><text class="cls-2" transform="translate(68.68 56.96)">SITE<tspan class="cls-3" x="62.23" y="0"> </tspan><tspan x="69.51" y="0">TRAFFIC</tspan></text><path class="cls-4" d="M360,263.49h14.34c12.25,0,15.54-8.07,15.54-30.77v-46.9c0-40,17-46,20.91-49.89-3.88-2.39-20.91-8.36-20.91-48.4V40.63c0-22.7-3.29-30.77-15.54-30.77H360V0H375c16.73,0,26.29,8.07,26.29,35.25v47.5c0,24.2,3.88,47.5,21.51,48.4V142.5c-17.63.9-21.51,24.2-21.51,48.4v47.2c0,27.19-9.56,35.25-26.29,35.25H360Z"/><rect class="cls-5" x="1" y="87.05" width="329.04" height="161.91" rx="5.37" ry="5.37"/><polygon class="cls-5" points="55.1 121.95 54.96 97.5 39.88 110.35 55.1 121.95"/><polygon class="cls-5" points="55.1 121.99 13.14 122.51 28.21 110.44 12.96 97.74 13.1 122.6 55.1 122.36 55.1 121.99"/><path class="cls-5" d="M36.59,113.16a4,4,0,0,1-5.08,0l-3.3-2.75L13.14,122.51l42-.52v0l-15.21-11.6Z"/><path class="cls-5" d="M13,97.74l15.25,12.7,3.3,2.75a4,4,0,0,0,5.08,0l3.3-2.81L55,97.5Z"/><rect class="cls-5" x="72.03" y="101.67" width="125.13" height="17.15"/><rect class="cls-5" x="205.09" y="101.67" width="19.4" height="17.15"/><path class="cls-6" d="M219.5,114.17l-2.45-2.45a4.19,4.19,0,1,0-1.26,1.14l2.51,2.51a.85.85,0,0,0,1.2-1.2Zm-4.43-2.08a3.16,3.16,0,1,1,1.24-1.1A3.13,3.13,0,0,1,215.07,112.09Z"/><rect class="cls-5" x="64.18" y="134.85" width="248.19" height="17.97"/><line class="cls-5" x1="105.48" y1="141.36" x2="218.72" y2="141.36"/><line class="cls-5" x1="105.48" y1="146.3" x2="182.46" y2="146.3"/><path class="cls-7" d="M69.51,145.12a.59.59,0,0,0-.37.57v.07a.58.58,0,0,0,.43.53C69.53,145.91,69.52,145.5,69.51,145.12Z"/><path class="cls-7" d="M93.78,145.36c-.14-.89-.7-2.4-6.49-2.4,0,0-2.93-2.55-4.69-2.88-.83-.16-5.23-1.18-12.89,4.52-.56.41,0,2.77,0,2.77h1.51a2.22,2.22,0,0,1,4.43,0H87.09a2.22,2.22,0,0,1,4.43,0H93.8v-2Z"/><path class="cls-7" d="M69.45,146.59a.29.29,0,0,0-.23.24v.32a.26.26,0,0,0,.23.22h1.76a2.89,2.89,0,0,1,.1-.78Z"/><path class="cls-7" d="M93.76,146.59H91.43a2.89,2.89,0,0,1,.1.78h2.23c.08,0,.16-.1.16-.22v-.32C93.91,146.71,93.84,146.59,93.76,146.59Z"/><path class="cls-7" d="M79.76,143.72h6.07c-2.72-2.55-4.49-2.55-4.49-2.55a11.3,11.3,0,0,0-1.58,0Z"/><circle class="cls-7" cx="73.44" cy="147.5" r="1.54"/><circle class="cls-7" cx="89.39" cy="147.5" r="1.54"/><path class="cls-7" d="M93,144.78a.49.49,0,0,1,.35-.18,1.65,1.65,0,0,1,.41.92h0v.57a.79.79,0,0,1-.42-.22C92.95,145.54,92.8,145.06,93,144.78Z"/><line class="cls-7" x1="79.7" y1="145.12" x2="81.87" y2="145.12"/><rect class="cls-5" x="64.18" y="161.85" width="248.19" height="17.97"/><line class="cls-5" x1="105.48" y1="168.36" x2="218.72" y2="168.36"/><line class="cls-5" x1="105.48" y1="173.3" x2="182.46" y2="173.3"/><path class="cls-7" d="M69.51,172.12a.59.59,0,0,0-.37.57v.07a.58.58,0,0,0,.43.53C69.53,172.91,69.52,172.5,69.51,172.12Z"/><path class="cls-7" d="M93.78,172.36c-.14-.89-.7-2.4-6.49-2.4,0,0-2.93-2.55-4.69-2.88-.83-.16-5.23-1.18-12.89,4.52-.56.41,0,2.77,0,2.77h1.51a2.22,2.22,0,0,1,4.43,0H87.09a2.22,2.22,0,0,1,4.43,0H93.8v-2Z"/><path class="cls-7" d="M69.45,173.59a.29.29,0,0,0-.23.24v.32a.26.26,0,0,0,.23.22h1.76a2.89,2.89,0,0,1,.1-.78Z"/><path class="cls-7" d="M93.76,173.59H91.43a2.89,2.89,0,0,1,.1.78h2.23c.08,0,.16-.1.16-.22v-.32C93.91,173.71,93.84,173.59,93.76,173.59Z"/><path class="cls-7" d="M79.76,170.72h6.07c-2.72-2.55-4.49-2.55-4.49-2.55a11.3,11.3,0,0,0-1.58,0Z"/><circle class="cls-7" cx="73.44" cy="174.5" r="1.54"/><circle class="cls-7" cx="89.39" cy="174.5" r="1.54"/><path class="cls-7" d="M93,171.78a.49.49,0,0,1,.35-.18,1.65,1.65,0,0,1,.41.92h0v.57a.79.79,0,0,1-.42-.22C92.95,172.54,92.8,172.06,93,171.78Z"/><line class="cls-7" x1="79.7" y1="172.12" x2="81.87" y2="172.12"/><rect class="cls-5" x="64.18" y="187.85" width="248.19" height="17.97"/><line class="cls-5" x1="105.48" y1="194.36" x2="218.72" y2="194.36"/><line class="cls-5" x1="105.48" y1="199.3" x2="182.46" y2="199.3"/><path class="cls-7" d="M69.51,198.12a.59.59,0,0,0-.37.57v.07a.58.58,0,0,0,.43.53C69.53,198.91,69.52,198.5,69.51,198.12Z"/><path class="cls-7" d="M93.78,198.36c-.14-.89-.7-2.4-6.49-2.4,0,0-2.93-2.55-4.69-2.88-.83-.16-5.23-1.18-12.89,4.52-.56.41,0,2.77,0,2.77h1.51a2.22,2.22,0,0,1,4.43,0H87.09a2.22,2.22,0,0,1,4.43,0H93.8v-2Z"/><path class="cls-7" d="M69.45,199.59a.29.29,0,0,0-.23.24v.32a.26.26,0,0,0,.23.22h1.76a2.89,2.89,0,0,1,.1-.78Z"/><path class="cls-7" d="M93.76,199.59H91.43a2.89,2.89,0,0,1,.1.78h2.23c.08,0,.16-.1.16-.22v-.32C93.91,199.71,93.84,199.59,93.76,199.59Z"/><path class="cls-7" d="M79.76,196.72h6.07c-2.72-2.55-4.49-2.55-4.49-2.55a11.3,11.3,0,0,0-1.58,0Z"/><circle class="cls-7" cx="73.44" cy="200.5" r="1.54"/><circle class="cls-7" cx="89.39" cy="200.5" r="1.54"/><path class="cls-7" d="M93,197.78a.49.49,0,0,1,.35-.18,1.65,1.65,0,0,1,.41.92h0v.57a.79.79,0,0,1-.42-.22C92.95,198.54,92.8,198.06,93,197.78Z"/><line class="cls-7" x1="79.7" y1="198.12" x2="81.87" y2="198.12"/><rect class="cls-5" x="64.18" y="214.85" width="248.19" height="17.97"/><line class="cls-5" x1="105.48" y1="221.36" x2="218.72" y2="221.36"/><line class="cls-5" x1="105.48" y1="226.3" x2="182.46" y2="226.3"/><path class="cls-7" d="M69.51,225.12a.59.59,0,0,0-.37.57v.07a.58.58,0,0,0,.43.53C69.53,225.91,69.52,225.5,69.51,225.12Z"/><path class="cls-7" d="M93.78,225.36c-.14-.89-.7-2.4-6.49-2.4,0,0-2.93-2.55-4.69-2.88-.83-.16-5.23-1.18-12.89,4.52-.56.41,0,2.77,0,2.77h1.51a2.22,2.22,0,0,1,4.43,0H87.09a2.22,2.22,0,0,1,4.43,0H93.8v-2Z"/><path class="cls-7" d="M69.45,226.59a.29.29,0,0,0-.23.24v.32a.26.26,0,0,0,.23.22h1.76a2.89,2.89,0,0,1,.1-.78Z"/><path class="cls-7" d="M93.76,226.59H91.43a2.89,2.89,0,0,1,.1.78h2.23c.08,0,.16-.1.16-.22v-.32C93.91,226.71,93.84,226.59,93.76,226.59Z"/><path class="cls-7" d="M79.76,223.72h6.07c-2.72-2.55-4.49-2.55-4.49-2.55a11.3,11.3,0,0,0-1.58,0Z"/><circle class="cls-7" cx="73.44" cy="227.5" r="1.54"/><circle class="cls-7" cx="89.39" cy="227.5" r="1.54"/><path class="cls-7" d="M93,224.78a.49.49,0,0,1,.35-.18,1.65,1.65,0,0,1,.41.92h0v.57a.79.79,0,0,1-.42-.22C92.95,225.54,92.8,225.06,93,224.78Z"/><line class="cls-7" x1="79.7" y1="225.12" x2="81.87" y2="225.12"/><line class="cls-5" x1="13.14" y1="137.76" x2="53.2" y2="137.76"/><line class="cls-5" x1="13.14" y1="148.85" x2="53.2" y2="148.85"/><line class="cls-5" x1="13.14" y1="159.94" x2="53.2" y2="159.94"/><line class="cls-5" x1="13.14" y1="171.03" x2="53.2" y2="171.03"/><line class="cls-5" x1="13.14" y1="182.11" x2="53.2" y2="182.11"/><path class="cls-8" d="M134.2,165.13l25.55,23.74a2.27,2.27,0,0,1-1.41,3.93l-7,.42,4.29,9.17-12.45,5.42-3.87-8.74-5.06,5.28a2.27,2.27,0,0,1-3.91-1.57v-36A2.27,2.27,0,0,1,134.2,165.13Z"/><polygon class="cls-9" points="134.38 170.76 154.07 189.05 145.27 189.58 150.31 200.36 145.27 202.56 140.59 192 134.38 198.48 134.38 170.76"/></g></g></svg>