<svg xmlns="http://www.w3.org/2000/svg" viewBox="0 0 344.39 147.76"><defs><style>.cls-1{fill:#95f050;}.cls-2,.cls-4{fill:#fff;}.cls-2,.cls-3{stroke:#0080b1;}.cls-2,.cls-3,.cls-6{stroke-linecap:round;stroke-linejoin:round;stroke-width:2px;}.cls-3{fill:none;}.cls-4,.cls-6{stroke:#fff;}.cls-4{stroke-miterlimit:10;}.cls-5{fill:#00a4e3;}.cls-6{fill:#0080b1;}</style></defs><title>thumbs-up</title><g id="Layer_2" data-name="Layer 2"><g id="Layer_1-2" data-name="Layer 1"><path class="cls-1" d="M37.16,102.48a85.74,85.74,0,0,1-15.58-1.27c-4.33-.8-10.37-2.44-12.88-7.46A11.05,11.05,0,0,1,7.57,87.4c-3.38-3.22-4.1-8.13-1.92-12.95C2.05,70.82.85,66.82,2.16,62.83a16.33,16.33,0,0,1,2.19-4.34C1.88,55.28.94,51.66,1.83,48.61c1.44-4.92,5.73-8.11,12.42-9.23a61.94,61.94,0,0,1,10.17-.8,88.73,88.73,0,0,1,11.13.75,18.76,18.76,0,0,0-.1-5.61,19.34,19.34,0,0,0-2.82-6.49c-.4-.67-.81-1.37-1.21-2.1C30.06,22.64,25.94,14,30.09,7.22,31.7,4.59,35,1.76,38.57,1.76A6.16,6.16,0,0,1,43,3.63c2.49,2.48,3.71,5.81,4.89,9a34.07,34.07,0,0,0,2.33,5.43c1.56,2.67,3.36,5.3,5.1,7.85s3.38,4.93,4.91,7.52c2.63,4.42,5.66,9.59,8.29,15C69.29,50,69.63,50.6,71,51a23.86,23.86,0,0,0,6,.88q1.17,0,2.35,0a57.75,57.75,0,0,0,6.38-.34l.41,0a3.05,3.05,0,0,1,3.07,3,3.57,3.57,0,0,1-3.15,3.82,59.69,59.69,0,0,1-6.62.37h0q-1.28,0-2.56-.06H76.8c-3.82-.18-9.6-.44-12.49-4a17.84,17.84,0,0,1-2.23-3.87c-.24-.51-.48-1-.73-1.5-1.23-2.34-2.53-4.73-3.88-7.09-2.85-5-6-10.33-9.53-15.44l-.73-1a42.77,42.77,0,0,1-4.33-7.13c-.54-1.2-1-2.43-1.48-3.62s-1.06-2.73-1.67-4l-.19-.42c-.21-.46-.83-1.85-1.21-2l-.13,0c-2.24.92-3,3.42-3,5.28,0,3.5,1.62,6.37,3.33,9.4C40,26,41.57,28.82,42.08,32.2A28.5,28.5,0,0,1,41.6,44a3.37,3.37,0,0,1-3.37,2.47,4.27,4.27,0,0,1-.66-.05A85.66,85.66,0,0,0,24.46,45.4c-1.81,0-3.58.07-5.26.2-3.12.25-7.83.63-9.88,3.12-2.53,3.08,1.21,6.56,2,7.23a3.4,3.4,0,0,1,0,5A9,9,0,0,0,9,64c-1.07,2.37-.12,4.7,2.84,6.93a3.41,3.41,0,0,1,1,4.66,7.1,7.1,0,0,0-1.54,5.23,3.59,3.59,0,0,0,1.86,2.35,3.38,3.38,0,0,1,1.5,4,2.27,2.27,0,0,1-.13.4c0,.08-.08.2-.11.27a3.73,3.73,0,0,0-.16,1.05,4.56,4.56,0,0,0,2.55,3.7c3,1.73,6.76,2.22,10,2.54,3.69.36,7.5.55,11.34.55,1.91,0,3.85,0,5.77-.13h.18a3.18,3.18,0,0,1,3.23,3.24,3.41,3.41,0,0,1-3.27,3.58C41.6,102.42,39.33,102.48,37.16,102.48Z"/><path class="cls-1" d="M38.57,3.26a4.63,4.63,0,0,1,3.35,1.43c3.7,3.67,4.42,9.76,7,14.16C52,24.12,55.8,29,58.93,34.23c2.89,4.85,5.74,9.77,8.23,14.85.86,1.76,1.46,2.78,3.46,3.37a25.64,25.64,0,0,0,6.4.94q1.2,0,2.4,0A59,59,0,0,0,86,53.08h.25c2.19,0,2.09,3.57-.25,3.83a58.14,58.14,0,0,1-6.45.36q-1.25,0-2.49-.06c-3.57-.16-9-.37-11.55-3.42a29,29,0,0,1-2.8-5.12q-1.89-3.6-3.91-7.14C55.75,36.24,52.64,31,49.16,26A49,49,0,0,1,44.24,18c-1.13-2.53-2-5.17-3.16-7.68-.55-1.18-1.31-3.24-2.76-3.24a1.84,1.84,0,0,0-.71.15c-2.65,1.09-4,3.92-4,6.66,0,7.16,5.92,11.66,6.94,18.48a27.25,27.25,0,0,1-.45,11.23A1.86,1.86,0,0,1,38.23,45a2.81,2.81,0,0,1-.43,0A87.58,87.58,0,0,0,24.46,43.9c-1.81,0-3.61.07-5.38.21-3.52.28-8.48.7-10.92,3.66-2.62,3.19-.55,7,2.17,9.32a1.9,1.9,0,0,1,0,2.7,10.51,10.51,0,0,0-2.7,3.56c-1.62,3.58.42,6.57,3.3,8.74a1.93,1.93,0,0,1,.68,2.61c-2.23,3.22-3.09,7.45.8,9.73A1.94,1.94,0,0,1,13.1,87l.11-.22s-.17.4-.21.55a5.12,5.12,0,0,0-.22,1.52,6,6,0,0,0,3.3,5c3.19,1.82,7,2.38,10.61,2.73,3.81.37,7.65.55,11.49.55q2.93,0,5.84-.14h.11c2.35,0,2.3,3.71-.11,3.82s-4.56.17-6.86.17a84.8,84.8,0,0,1-15.31-1.24c-4.32-.8-9.67-2.38-11.81-6.65a9.32,9.32,0,0,1-.85-6.25,10.43,10.43,0,0,0,1.29.89L9.8,85.11a8.27,8.27,0,0,0-.6,1.72c-3.93-3.17-4.08-8.34-1.71-12.7.49.44,1,.86,1.52,1.25l-.68-2.61a14.69,14.69,0,0,0-.83,1.36C4.43,71.36,2.17,67.6,3.59,63.3a14.56,14.56,0,0,1,2.69-4.84,14.4,14.4,0,0,0,1.36,1.33v-2.7a12.3,12.3,0,0,0-1.36,1.37c-2.27-2.54-4-6.16-3-9.43,1.49-5.1,6.36-7.36,11.23-8.17a60.21,60.21,0,0,1,9.92-.78A90.5,90.5,0,0,1,36.82,41l-.05.3c-.08.44-.18.89-.3,1.32l2.35-1.33-2-.29a21.89,21.89,0,0,0,.1-7.57c-.67-3.58-2.49-5.93-4.19-9C30.15,19.69,28.32,13,31.37,8c1.42-2.33,4.37-4.74,7.2-4.74m0-3c-4.11,0-7.94,3.2-9.76,6.18-3.08,5-2.6,12.3,1.3,19.41.42.76.83,1.46,1.23,2.14A17.93,17.93,0,0,1,34,34a15.91,15.91,0,0,1,.21,3.66,87.82,87.82,0,0,0-9.77-.57A63.46,63.46,0,0,0,14,37.9C6.81,39.1,2,42.75.39,48.19c-.94,3.23-.14,7,2.14,10.34A17.93,17.93,0,0,0,.74,62.36C-.66,66.58.47,70.93,3.9,74.77c-1.81,4.81-1,9.75,2.11,13.17a12.69,12.69,0,0,0,1.35,6.47c2.81,5.62,9.3,7.41,13.95,8.27A87.13,87.13,0,0,0,37.16,104c2.2,0,4.49-.06,7-.17a4.88,4.88,0,0,0,4.7-5.11A4.69,4.69,0,0,0,44.12,94h-.25c-1.9.09-3.82.13-5.7.13-3.79,0-7.56-.18-11.2-.54-3.1-.31-6.64-.76-9.41-2.35a3.25,3.25,0,0,1-1.79-2.45,2.4,2.4,0,0,1,.1-.56l.06-.16a3.92,3.92,0,0,0,.18-.54,4.92,4.92,0,0,0-2.18-5.7,2.09,2.09,0,0,1-1.16-1.38,5.85,5.85,0,0,1,1.31-4.05,4.88,4.88,0,0,0-1.34-6.71c-3.5-2.64-2.68-4.44-2.38-5.11a7.48,7.48,0,0,1,1.92-2.52,4.89,4.89,0,0,0,0-7.25c-.59-.51-3.45-3.13-1.81-5.14s6-2.35,8.84-2.58c1.64-.13,3.37-.2,5.14-.2a84.1,84.1,0,0,1,12.88,1,5.83,5.83,0,0,0,.89.07A4.84,4.84,0,0,0,43,44.45,30,30,0,0,0,43.57,32c-.55-3.65-2.19-6.56-3.78-9.37-1.68-3-3.13-5.55-3.13-8.66a4.7,4.7,0,0,1,1.23-3.32l.27.58.2.44c.59,1.26,1.09,2.56,1.63,3.94.47,1.21,1,2.46,1.51,3.69A43.92,43.92,0,0,0,46,26.65l.73,1C50.22,32.74,53.32,38,56.16,43c1.34,2.35,2.64,4.72,3.86,7,.23.45.46.93.7,1.44a19.27,19.27,0,0,0,2.43,4.19c3.31,4,9.49,4.32,13.58,4.51h.15c.86,0,1.75.06,2.63.06a61.26,61.26,0,0,0,6.79-.38,5,5,0,0,0,4.48-5.39,4.52,4.52,0,0,0-4.57-4.42,5.2,5.2,0,0,0-.58,0,56.11,56.11,0,0,1-6.21.33c-.75,0-1.52,0-2.3,0a22.42,22.42,0,0,1-5.65-.82c-.75-.22-.85-.25-1.61-1.81-2.38-4.88-5.06-9.55-8.34-15.06-1.56-2.62-3.29-5.15-5-7.6-1.81-2.64-3.51-5.13-5-7.76a33.1,33.1,0,0,1-2.22-5.19C48,8.77,46.76,5.27,44,2.56A7.63,7.63,0,0,0,38.57.26h0Z"/><rect class="cls-2" x="85.84" y="1" width="257.56" height="145.76" rx="5.37" ry="5.37"/><rect class="cls-3" x="234.88" y="70.69" width="89.08" height="19.61"/><rect class="cls-3" x="239.74" y="75.02" width="10.94" height="10.94"/><line class="cls-3" x1="256.21" y1="75.93" x2="316.83" y2="75.93"/><line class="cls-3" x1="256.21" y1="80.22" x2="316.83" y2="80.22"/><line class="cls-3" x1="256.21" y1="84.51" x2="316.83" y2="84.51"/><rect class="cls-3" x="234.88" y="95.74" width="89.08" height="19.61"/><rect class="cls-3" x="239.74" y="100.08" width="10.94" height="10.94"/><line class="cls-3" x1="256.21" y1="100.98" x2="316.83" y2="100.98"/><line class="cls-3" x1="256.21" y1="105.27" x2="316.83" y2="105.27"/><line class="cls-3" x1="256.21" y1="109.57" x2="316.83" y2="109.57"/><rect class="cls-3" x="111.13" y="14.17" width="112.65" height="15.44"/><rect class="cls-3" x="230.9" y="14.17" width="17.47" height="15.44"/><path class="cls-4" d="M243.88,25.41l-2.2-2.2a3.77,3.77,0,1,0-1.13,1l2.26,2.26a.76.76,0,0,0,1.08-1.08Zm-4-1.87a2.85,2.85,0,1,1,1.11-1A2.82,2.82,0,0,1,239.9,23.54Z"/><rect class="cls-1" x="104.05" y="44.03" width="223.43" height="16.18"/><line class="cls-3" x1="122.91" y1="49.89" x2="224.85" y2="49.89"/><line class="cls-3" x1="122.91" y1="54.34" x2="192.21" y2="54.34"/><rect class="cls-3" x="108.49" y="47.9" width="8.74" height="8.74"/><line class="cls-3" x1="122.91" y1="73.76" x2="224.85" y2="73.76"/><line class="cls-3" x1="122.91" y1="78.21" x2="192.21" y2="78.21"/><rect class="cls-3" x="108.49" y="71.76" width="8.74" height="8.74"/><line class="cls-3" x1="122.91" y1="97.63" x2="224.85" y2="97.63"/><line class="cls-3" x1="122.91" y1="102.08" x2="192.21" y2="102.08"/><rect class="cls-3" x="108.49" y="95.63" width="8.74" height="8.74"/><line class="cls-3" x1="122.91" y1="121.5" x2="224.85" y2="121.5"/><line class="cls-3" x1="122.91" y1="125.95" x2="192.21" y2="125.95"/><rect class="cls-3" x="108.49" y="119.5" width="8.74" height="8.74"/><path class="cls-5" d="M311.84,54.82l23,21.37a2,2,0,0,1-1.27,3.54l-6.26.38,3.86,8.26L320,93.25l-3.48-7.86-4.56,4.76a2,2,0,0,1-3.52-1.41V56.32A2,2,0,0,1,311.84,54.82Z"/><polygon class="cls-6" points="312 59.89 329.72 76.36 321.8 76.84 326.34 86.54 321.8 88.52 317.59 79.01 312 84.85 312 59.89"/></g></g></svg>