<svg xmlns="http://www.w3.org/2000/svg" viewBox="0 0 422.77 273.34"><defs><style>.cls-1{fill:#fff;}.cls-2{font-size:25px;fill:#0066ae;font-family:MuseoSans-900Italic, MuseoSans 900Italic;font-style:italic;}.cls-3{letter-spacing:0.01em;}.cls-4{fill:#0099d4;}.cls-10,.cls-5,.cls-6,.cls-7,.cls-8,.cls-9{fill:none;}.cls-10,.cls-12,.cls-5,.cls-6,.cls-7,.cls-8,.cls-9{stroke:#fff;}.cls-12,.cls-5,.cls-8,.cls-9{stroke-linecap:round;stroke-linejoin:round;}.cls-12,.cls-5,.cls-6{stroke-width:2px;}.cls-10,.cls-6,.cls-7{stroke-miterlimit:10;}.cls-7,.cls-8{stroke-width:1.5px;}.cls-9{stroke-width:1.32px;}.cls-10{stroke-width:1.3px;}.cls-11{fill:#00a4e3;}.cls-12{fill:#0080b1;}</style></defs><title>views</title><g id="Layer_2" data-name="Layer 2"><g id="Layer_1-2" data-name="Layer 1"><rect class="cls-1" x="0.04" y="25" width="330" height="50"/><text class="cls-2" transform="translate(39.4 58.96)">VI<tspan class="cls-3" x="19.92" y="0">E</tspan><tspan x="32.45" y="0">WS AND CLICK-THRU</tspan></text><path class="cls-4" d="M360,263.49h14.34c12.25,0,15.54-8.07,15.54-30.77v-46.9c0-40,17-46,20.91-49.89-3.88-2.39-20.91-8.36-20.91-48.4V40.63c0-22.7-3.29-30.77-15.54-30.77H360V0H375c16.73,0,26.29,8.07,26.29,35.25v47.5c0,24.2,3.88,47.5,21.51,48.4V142.5c-17.63.9-21.51,24.2-21.51,48.4v47.2c0,27.19-9.56,35.25-26.29,35.25H360Z"/><path class="cls-5" d="M114.83,170.37a2.66,2.66,0,0,0-1.68,2.55v.3a2.61,2.61,0,0,0,1.93,2.41C114.92,173.9,114.84,172,114.83,170.37Z"/><path class="cls-5" d="M224.38,171.46c-.65-4-3.17-10.84-29.31-10.84,0,0-13.23-11.53-21.19-13-3.75-.7-23.62-5.32-58.2,20.41-2.52,1.87,0,12.49,0,12.49h6.83c0-7,4.48-10,10-10s10,3,10,10H194.2c0-7,4.48-10,10-10s10,3,10,10H224.5v-9Z"/><path class="cls-5" d="M114.54,177a1.33,1.33,0,0,0-1,1.1v1.42a1.19,1.19,0,0,0,1,1h8A13.06,13.06,0,0,1,123,177Z"/><path class="cls-5" d="M224.29,177H213.77a13.05,13.05,0,0,1,.45,3.52h10.07c.36,0,.71-.45.71-1v-1.42C225,177.55,224.65,177,224.29,177Z"/><path class="cls-5" d="M142.07,177a13.05,13.05,0,0,1,.45,3.52H194.2a13.06,13.06,0,0,1,.45-3.52Z"/><path class="cls-5" d="M159.21,151.32a68.52,68.52,0,0,0-27.4,11.14h27.4Z"/><path class="cls-5" d="M163.22,162.47h27.42c-11.39-12.05-20.28-11.74-20.28-11.74a51,51,0,0,0-7.14.12Z"/><circle class="cls-5" cx="132.58" cy="181.1" r="6.93"/><circle class="cls-5" cx="204.58" cy="181.1" r="6.93"/><path class="cls-5" d="M220.94,168.82a2.19,2.19,0,0,1,1.59-.81,7.45,7.45,0,0,1,1.86,4.17h0v2.56a3.58,3.58,0,0,1-1.88-1C220.65,172.27,220,170.07,220.94,168.82Z"/><line class="cls-5" x1="163.22" y1="166.25" x2="173.04" y2="166.25"/><polygon class="cls-5" points="194.9 125.83 136.14 125.83 139.79 119.62 136.14 113.41 194.9 113.41 190.65 119.62 194.9 125.83"/><line class="cls-5" x1="30.22" y1="135.33" x2="72.56" y2="135.33"/><line class="cls-5" x1="86.99" y1="135.33" x2="129.33" y2="135.33"/><line class="cls-5" x1="143.77" y1="135.33" x2="186.1" y2="135.33"/><line class="cls-5" x1="200.54" y1="135.33" x2="242.87" y2="135.33"/><line class="cls-5" x1="257.31" y1="135.33" x2="299.64" y2="135.33"/><line class="cls-6" x1="330.04" y1="104.62" x2="1.04" y2="104.62"/><line class="cls-5" x1="17.29" y1="96.25" x2="123.31" y2="96.25"/><line class="cls-5" x1="318.24" y1="93.38" x2="323.72" y2="98.87"/><line class="cls-5" x1="318.24" y1="98.87" x2="323.72" y2="93.38"/><line class="cls-5" x1="310.76" y1="96.25" x2="302.87" y2="96.25"/><rect class="cls-5" x="1" y="88.01" width="329.04" height="161.91" rx="5.37" ry="5.37"/><path class="cls-7" d="M71.73,215.49a5.46,5.46,0,0,0-3.6-2.77,15.72,15.72,0,0,1-6-2.14c-3.55-2.3-5.27-7.1-14.51-7.1H42.44c-7.42,0-10.82,6.88-11.75,11.17a21.22,21.22,0,0,0,0,5c.07.82.48,1.62,1.31,1.62h2a5.8,5.8,0,0,1,5.59-5.59,5.8,5.8,0,0,1,5.59,5.59H57.49a5.59,5.59,0,0,1,11.17,0H70.8a1.47,1.47,0,0,0,1.68-1.59A11.75,11.75,0,0,0,71.73,215.49Z"/><circle class="cls-7" cx="39.51" cy="221.79" r="3.15"/><circle class="cls-7" cx="63.23" cy="221.79" r="3.15"/><path class="cls-7" d="M30,215.87c-.41.14-1.3.53-1.3,1V217c0,.46.59.85,1,1C29.68,217.27,30,216.54,30,215.87Z"/><path class="cls-7" d="M70,214.2a1.08,1.08,0,0,0-.43,1.46l.42.77a1.08,1.08,0,0,0,1.46.43l.11-.06a1.07,1.07,0,0,0,.47-.52,4.2,4.2,0,0,0-.29-.78A5.27,5.27,0,0,0,70.57,214a1.06,1.06,0,0,0-.48.13Z"/><rect class="cls-8" x="43.44" y="206.69" width="4.85" height="4.15"/><path class="cls-8" d="M40.77,206.54v4.31H37C35.22,210.85,37.31,206.68,40.77,206.54Z"/><path class="cls-8" d="M57.68,210.53c-2.3-3.44-6.8-4-6.8-4V211h7C57.88,210.79,57.68,210.53,57.68,210.53Z"/><line class="cls-8" x1="49.89" y1="213.92" x2="52.75" y2="213.92"/><line class="cls-8" x1="42.85" y1="213.92" x2="45.7" y2="213.92"/><path class="cls-7" d="M84.85,216.68a1.12,1.12,0,0,0-.71,1.08v.13a1.1,1.1,0,0,0,.82,1C84.89,218.17,84.86,217.39,84.85,216.68Z"/><path class="cls-7" d="M131.24,217.14c-.27-1.7-1.34-4.59-12.41-4.59,0,0-5.6-4.88-9-5.51-1.59-.3-10-2.25-24.64,8.64-1.07.79,0,5.29,0,5.29h2.89a4.24,4.24,0,0,1,8.47,0h21.88a4.24,4.24,0,0,1,8.47,0h3.33a1,1,0,0,0,1-1Z"/><path class="cls-7" d="M84.73,219.48a.56.56,0,0,0-.44.47v.6a.5.5,0,0,0,.44.42h3.37a5.53,5.53,0,0,1,.19-1.49Z"/><path class="cls-7" d="M131.2,219.48h-4.45a5.53,5.53,0,0,1,.19,1.49h4.27c.15,0,.3-.19.3-.42v-.6C131.5,219.72,131.35,219.48,131.2,219.48Z"/><path class="cls-7" d="M96.39,219.48a5.53,5.53,0,0,1,.19,1.49h21.88a5.53,5.53,0,0,1,.19-1.49Z"/><path class="cls-9" d="M103.33,209.38a25.55,25.55,0,0,0-10.22,4.15h10.22Z"/><path class="cls-9" d="M105.56,213.54h10.23c-4.25-4.5-7.56-4.38-7.56-4.38a19,19,0,0,0-2.66,0Z"/><circle class="cls-10" cx="122.63" cy="221.44" r="2.55"/><circle class="cls-10" cx="92.38" cy="221.44" r="2.55"/><path class="cls-6" d="M129.78,216a.73.73,0,0,1,.57-.34,2.91,2.91,0,0,1,.69,1.77h0v1.08c-1-.08-.43-.22-.69-.43A1.55,1.55,0,0,1,129.78,216Z"/><line class="cls-9" x1="105.56" y1="214.95" x2="109.22" y2="214.95"/><path class="cls-7" d="M186.4,215.49a5.46,5.46,0,0,0-3.6-2.77,15.72,15.72,0,0,1-6-2.14c-3.55-2.3-5.27-7.1-14.51-7.1h-5.22c-7.42,0-10.82,6.88-11.75,11.17a21.22,21.22,0,0,0,0,5c.07.82.48,1.62,1.31,1.62h2a5.59,5.59,0,0,1,11.17,0h12.36a5.59,5.59,0,0,1,11.17,0h2.14a1.47,1.47,0,0,0,1.68-1.59A11.75,11.75,0,0,0,186.4,215.49Z"/><circle class="cls-7" cx="154.18" cy="221.79" r="3.15"/><circle class="cls-7" cx="177.9" cy="221.79" r="3.15"/><path class="cls-7" d="M144.67,215.87c-.41.14-1.3.53-1.3,1V217c0,.46.59.85,1,1C144.35,217.27,144.64,216.54,144.67,215.87Z"/><path class="cls-7" d="M184.65,214.2a1.08,1.08,0,0,0-.43,1.46l.42.77a1.08,1.08,0,0,0,1.46.43l.11-.06a1.07,1.07,0,0,0,.47-.52,4.2,4.2,0,0,0-.29-.78,5.27,5.27,0,0,0-1.16-1.48,1.06,1.06,0,0,0-.48.13Z"/><rect class="cls-8" x="158.11" y="206.69" width="4.85" height="4.15"/><path class="cls-8" d="M155.44,206.54v4.31h-3.76C149.89,210.85,152,206.68,155.44,206.54Z"/><path class="cls-8" d="M172.34,210.53c-2.3-3.44-6.8-4-6.8-4V211h7C172.55,210.79,172.34,210.53,172.34,210.53Z"/><line class="cls-8" x1="164.56" y1="213.92" x2="167.41" y2="213.92"/><line class="cls-8" x1="157.52" y1="213.92" x2="160.37" y2="213.92"/><path class="cls-7" d="M243.73,215.49a5.46,5.46,0,0,0-3.6-2.77,15.72,15.72,0,0,1-6-2.14c-3.55-2.3-5.27-7.1-14.51-7.1h-5.22c-7.42,0-10.82,6.88-11.75,11.17a21.22,21.22,0,0,0,0,5c.07.82.48,1.62,1.31,1.62h2a5.59,5.59,0,0,1,11.17,0h12.36a5.59,5.59,0,0,1,11.17,0h2.14a1.47,1.47,0,0,0,1.68-1.59A11.75,11.75,0,0,0,243.73,215.49Z"/><circle class="cls-7" cx="211.51" cy="221.79" r="3.15"/><circle class="cls-7" cx="235.23" cy="221.79" r="3.15"/><path class="cls-7" d="M202,215.87c-.41.14-1.3.53-1.3,1V217c0,.46.59.85,1,1C201.68,217.27,202,216.54,202,215.87Z"/><path class="cls-7" d="M242,214.2a1.08,1.08,0,0,0-.43,1.46l.42.77a1.08,1.08,0,0,0,1.46.43l.11-.06a1.07,1.07,0,0,0,.47-.52,4.2,4.2,0,0,0-.29-.78,5.27,5.27,0,0,0-1.16-1.48,1.06,1.06,0,0,0-.48.13Z"/><rect class="cls-8" x="215.44" y="206.69" width="4.85" height="4.15"/><path class="cls-8" d="M212.77,206.54v4.31H209C207.22,210.85,209.31,206.68,212.77,206.54Z"/><path class="cls-8" d="M229.68,210.53c-2.3-3.44-6.8-4-6.8-4V211h7C229.88,210.79,229.68,210.53,229.68,210.53Z"/><line class="cls-8" x1="221.89" y1="213.92" x2="224.75" y2="213.92"/><line class="cls-8" x1="214.85" y1="213.92" x2="217.7" y2="213.92"/><path class="cls-7" d="M301.06,215.49a5.46,5.46,0,0,0-3.6-2.77,15.72,15.72,0,0,1-6-2.14c-3.55-2.3-5.27-7.1-14.51-7.1h-5.22c-7.42,0-10.82,6.88-11.75,11.17a21.22,21.22,0,0,0,0,5c.07.82.48,1.62,1.31,1.62h2a5.59,5.59,0,0,1,11.17,0h12.36a5.59,5.59,0,0,1,11.17,0h2.14a1.47,1.47,0,0,0,1.68-1.59A11.75,11.75,0,0,0,301.06,215.49Z"/><circle class="cls-7" cx="268.85" cy="221.79" r="3.15"/><circle class="cls-7" cx="292.56" cy="221.79" r="3.15"/><path class="cls-7" d="M259.33,215.87c-.41.14-1.3.53-1.3,1V217c0,.46.59.85,1,1C259,217.27,259.31,216.54,259.33,215.87Z"/><path class="cls-7" d="M299.31,214.2a1.08,1.08,0,0,0-.43,1.46l.42.77a1.08,1.08,0,0,0,1.46.43l.11-.06a1.07,1.07,0,0,0,.47-.52,4.2,4.2,0,0,0-.29-.78,5.27,5.27,0,0,0-1.16-1.48,1.06,1.06,0,0,0-.48.13Z"/><rect class="cls-8" x="272.78" y="206.69" width="4.85" height="4.15"/><path class="cls-8" d="M270.11,206.54v4.31h-3.76C264.56,210.85,266.64,206.68,270.11,206.54Z"/><path class="cls-8" d="M287,210.53c-2.3-3.44-6.8-4-6.8-4V211h7C287.21,210.79,287,210.53,287,210.53Z"/><line class="cls-8" x1="279.23" y1="213.92" x2="282.08" y2="213.92"/><line class="cls-8" x1="272.18" y1="213.92" x2="275.04" y2="213.92"/><polygon class="cls-8" points="311.59 205.35 311.59 221.35 318.84 213.75 311.59 205.35"/><polygon class="cls-8" points="22.39 221.35 22.39 205.35 15.14 212.95 22.39 221.35"/><line class="cls-8" x1="27.28" y1="234.99" x2="300.77" y2="234.99"/><line class="cls-8" x1="27.28" y1="242.51" x2="300.77" y2="242.51"/><path class="cls-11" d="M105.35,206.78l25.55,23.74a2.27,2.27,0,0,1-1.41,3.93l-7,.42,4.29,9.17-12.45,5.42-3.87-8.74L105.44,246a2.27,2.27,0,0,1-3.91-1.57v-36A2.27,2.27,0,0,1,105.35,206.78Z"/><polygon class="cls-12" points="105.53 212.41 125.21 230.7 116.42 231.23 121.46 242.01 116.42 244.2 111.74 233.64 105.53 240.13 105.53 212.41"/></g></g></svg>