<svg xmlns="http://www.w3.org/2000/svg" viewBox="0 0 418.26 134.07"><defs><style>.cls-1{fill:none;}.cls-1,.cls-8,.cls-9{stroke:#0080b1;}.cls-1,.cls-5{stroke-linecap:round;stroke-linejoin:round;stroke-width:2px;}.cls-2,.cls-7,.cls-8,.cls-9{fill:#fff;}.cls-2,.cls-5{stroke:#fff;}.cls-2,.cls-8,.cls-9{stroke-miterlimit:10;}.cls-3,.cls-6{fill:#95f050;}.cls-4{fill:#00a4e3;}.cls-5{fill:#0080b1;}.cls-6{opacity:0.3;}.cls-9{stroke-width:0.5px;}.cls-10{font-size:8.13px;fill:#003650;}.cls-10,.cls-11{font-family:ArialMT, Arial;}.cls-11{font-size:6.86px;fill:#10ace8;}.cls-12{fill:#005379;}</style></defs><title>web-selection</title><g id="Layer_2" data-name="Layer 2"><g id="Layer_1-2" data-name="Layer 1"><rect class="cls-1" x="1" y="12.4" width="213.22" height="120.67" rx="5.37" ry="5.37"/><rect class="cls-1" x="124.39" y="70.1" width="73.75" height="16.23"/><rect class="cls-1" x="128.41" y="73.69" width="9.05" height="9.05"/><line class="cls-1" x1="142.04" y1="74.43" x2="192.23" y2="74.43"/><line class="cls-1" x1="142.04" y1="77.99" x2="192.23" y2="77.99"/><line class="cls-1" x1="142.04" y1="81.54" x2="192.23" y2="81.54"/><rect class="cls-1" x="124.39" y="90.84" width="73.75" height="16.23"/><rect class="cls-1" x="128.41" y="94.43" width="9.05" height="9.05"/><line class="cls-1" x1="142.04" y1="95.17" x2="192.23" y2="95.17"/><line class="cls-1" x1="142.04" y1="98.73" x2="192.23" y2="98.73"/><line class="cls-1" x1="142.04" y1="102.28" x2="192.23" y2="102.28"/><rect class="cls-1" x="21.94" y="23.3" width="93.26" height="12.78"/><rect class="cls-1" x="121.1" y="23.3" width="14.46" height="12.78"/><path class="cls-2" d="M131.84,32.62,130,30.79a3.12,3.12,0,1,0-.94.85l1.87,1.87a.63.63,0,0,0,.89-.89Zm-3.3-1.55a2.36,2.36,0,1,1,.92-.82A2.34,2.34,0,0,1,128.54,31.07Z"/><rect class="cls-3" x="16.08" y="48.03" width="184.97" height="13.39"/><line class="cls-1" x1="31.69" y1="52.88" x2="116.09" y2="52.88"/><line class="cls-1" x1="31.69" y1="56.56" x2="89.06" y2="56.56"/><rect class="cls-1" x="19.75" y="51.23" width="7.24" height="7.24"/><line class="cls-1" x1="31.69" y1="72.64" x2="116.09" y2="72.64"/><line class="cls-1" x1="31.69" y1="76.32" x2="89.06" y2="76.32"/><rect class="cls-1" x="19.75" y="70.99" width="7.24" height="7.24"/><line class="cls-1" x1="31.69" y1="92.4" x2="116.09" y2="92.4"/><line class="cls-1" x1="31.69" y1="96.08" x2="89.06" y2="96.08"/><rect class="cls-1" x="19.75" y="90.75" width="7.24" height="7.24"/><line class="cls-1" x1="31.69" y1="112.16" x2="116.09" y2="112.16"/><line class="cls-1" x1="31.69" y1="115.84" x2="89.06" y2="115.84"/><rect class="cls-1" x="19.75" y="110.51" width="7.24" height="7.24"/><path class="cls-4" d="M188.1,57l19,17.69a1.69,1.69,0,0,1-1.05,2.93l-5.18.31,3.19,6.83-9.28,4-2.88-6.51-3.77,3.94A1.69,1.69,0,0,1,185.25,85V58.2A1.69,1.69,0,0,1,188.1,57Z"/><polygon class="cls-5" points="188.24 61.16 202.91 74.79 196.35 75.19 200.1 83.22 196.35 84.86 192.87 76.99 188.24 81.82 188.24 61.16"/><polygon class="cls-6" points="201.06 48.03 243.26 1 243.26 108.5 201.06 61.42 201.06 48.03"/><rect class="cls-1" x="243.26" y="1" width="174" height="107.5"/><rect class="cls-7" x="258.85" y="27.42" width="0.45" height="0.51"/><rect class="cls-7" x="259.64" y="27.42" width="0.45" height="0.51"/><rect class="cls-7" x="260.44" y="27.42" width="0.45" height="0.51"/><path class="cls-8" d="M266.06,12.5h18.59c2.87,0,4.9,6,6.49,6h4c2.1,0,3.1,1.44,3.1,3.54v2.48c0,.74.11,1-.63,1H261c-.74,0-1.74-.25-1.74-1V18.8C259.26,15.64,263.8,12.5,266.06,12.5Z"/><path class="cls-9" d="M259.7,21.5s.56-.57.56.34v.51c0,.58-.13,1.15-.56,1.15h-.44v-2Z"/><path class="cls-8" d="M297.26,20.82V19.3c0-.1-.25-.19-.23-.28a3.59,3.59,0,0,1,1.23,3v.14l.11,0C297.61,22.19,297.26,21.58,297.26,20.82Z"/><path class="cls-8" d="M297.63,25.5H261c-.74,0-1.74-.25-1.74-1v0h39v0C298.26,25.25,298.37,25.5,297.63,25.5Z"/><path class="cls-8" d="M296.42,25.5a3.87,3.87,0,0,0-7.74,0Z"/><circle class="cls-9" cx="292.58" cy="26.04" r="3.03"/><circle class="cls-9" cx="292.58" cy="26.04" r="2.04"/><path class="cls-8" d="M271.13,25.5a3.87,3.87,0,0,0-7.74,0Z"/><circle class="cls-9" cx="267.29" cy="26.04" r="3.03"/><circle class="cls-9" cx="267.29" cy="26.04" r="2.04"/><path class="cls-8" d="M279.51,20c0,.18.14.5.3.5H282c.17,0,.3-.32.3-.5h0c0-.18-.14-.5-.3-.5h-2.14c-.17,0-.3.32-.3.5Z"/><rect class="cls-8" x="270.26" y="19.5" width="3" height="1" rx="0.25" ry="0.25"/><path class="cls-8" d="M288.26,17.64c0-.35-.15-.63-.5-.63h-2.21c-.35,0-.28.28-.28.63v.87c0,.35,0,.56.36.56h2.24c.35,0,.4-.21.4-.56Z"/><line class="cls-9" x1="269.92" y1="18.21" x2="267.81" y2="21.85"/><line class="cls-9" x1="278.65" y1="18.47" x2="278.65" y2="23.98"/><line class="cls-9" x1="277.18" y1="18.47" x2="280.48" y2="18.47"/><circle class="cls-9" cx="267.29" cy="26.04" r="0.94"/><circle class="cls-9" cx="292.56" cy="26.04" r="0.94"/><rect class="cls-8" x="270.26" y="13.5" width="8" height="5" rx="0.91" ry="0.91"/><path class="cls-8" d="M260.88,17.68c-.11.49.41.82.91.82h6.09c.5,0,1.37-.37,1.37-.88V14.27c0-.5-.87-.77-1.37-.77h-2.44C263.55,13.5,261.2,16.26,260.88,17.68Z"/><path class="cls-8" d="M279.26,17.62c0,.5.62.88,1.12.88h7a.82.82,0,0,0,.91-.82c0-1.54-2.34-4.18-4-4.18h-4c-.5,0-1.12.27-1.12.77Z"/><path class="cls-8" d="M266.06,58.5h18.59c2.87,0,4.9,6,6.49,6h4c2.1,0,3.1,1.44,3.1,3.54v2.48c0,.74.11,1-.63,1H261c-.74,0-1.74-.25-1.74-1V64.8C259.26,61.64,263.8,58.5,266.06,58.5Z"/><path class="cls-9" d="M259.7,67.5s.56-.57.56.34v.51c0,.58-.13,1.15-.56,1.15h-.44v-2Z"/><path class="cls-8" d="M297.26,66.82V65.3c0-.1-.25-.19-.23-.28a3.59,3.59,0,0,1,1.23,3v.14l.11,0C297.61,68.19,297.26,67.58,297.26,66.82Z"/><path class="cls-8" d="M297.63,71.5H261c-.74,0-1.74-.25-1.74-1v0h39v0C298.26,71.25,298.37,71.5,297.63,71.5Z"/><path class="cls-8" d="M296.42,71.5a3.87,3.87,0,0,0-7.74,0Z"/><circle class="cls-9" cx="292.58" cy="72.04" r="3.03"/><circle class="cls-9" cx="292.58" cy="72.04" r="2.04"/><path class="cls-8" d="M271.13,71.5a3.87,3.87,0,0,0-7.74,0Z"/><circle class="cls-9" cx="267.29" cy="72.04" r="3.03"/><circle class="cls-9" cx="267.29" cy="72.04" r="2.04"/><path class="cls-8" d="M279.51,66c0,.18.14.5.3.5H282c.17,0,.3-.32.3-.5h0c0-.18-.14-.5-.3-.5h-2.14c-.17,0-.3.32-.3.5Z"/><rect class="cls-8" x="270.26" y="65.5" width="3" height="1" rx="0.25" ry="0.25"/><path class="cls-8" d="M288.26,63.64c0-.35-.15-.63-.5-.63h-2.21c-.35,0-.28.28-.28.63v.87c0,.35,0,.56.36.56h2.24c.35,0,.4-.21.4-.56Z"/><line class="cls-9" x1="269.92" y1="64.21" x2="267.81" y2="67.85"/><line class="cls-9" x1="278.65" y1="64.47" x2="278.65" y2="69.98"/><line class="cls-9" x1="277.18" y1="64.47" x2="280.48" y2="64.47"/><circle class="cls-9" cx="267.29" cy="72.04" r="0.94"/><circle class="cls-9" cx="292.56" cy="72.04" r="0.94"/><rect class="cls-8" x="270.26" y="59.5" width="8" height="5" rx="0.91" ry="0.91"/><path class="cls-8" d="M260.88,63.68c-.11.49.41.82.91.82h6.09c.5,0,1.37-.37,1.37-.88V60.27c0-.5-.87-.77-1.37-.77h-2.44C263.55,59.5,261.2,62.26,260.88,63.68Z"/><path class="cls-8" d="M279.26,63.62c0,.5.62.88,1.12.88h7a.82.82,0,0,0,.91-.82c0-1.54-2.34-4.18-4-4.18h-4c-.5,0-1.12.27-1.12.77Z"/><text class="cls-10" transform="translate(264.39 39.47)">$10,000</text><text class="cls-11" transform="translate(264.93 45.24)">xxx xxxxx</text><rect class="cls-12" x="268.42" y="47.1" width="1.71" height="0.49"/><rect class="cls-12" x="270.47" y="47.11" width="0.45" height="0.51"/><rect class="cls-12" x="271.26" y="47.11" width="0.45" height="0.51"/><rect class="cls-12" x="272.05" y="47.11" width="0.45" height="0.51"/><rect class="cls-12" x="272.98" y="47.1" width="4.04" height="0.49"/><rect class="cls-12" x="277.36" y="47.11" width="0.45" height="0.51"/><rect class="cls-12" x="278.15" y="47.11" width="0.45" height="0.51"/><rect class="cls-12" x="278.94" y="47.11" width="0.45" height="0.51"/><rect class="cls-12" x="279.87" y="47.1" width="4.04" height="0.49"/><rect class="cls-12" x="284.25" y="47.11" width="0.45" height="0.51"/><rect class="cls-12" x="285.04" y="47.11" width="0.45" height="0.51"/><rect class="cls-12" x="285.84" y="47.11" width="0.45" height="0.51"/><rect class="cls-12" x="286.61" y="47.1" width="0.87" height="0.49"/><rect class="cls-12" x="287.71" y="47.11" width="0.45" height="0.51"/><rect class="cls-12" x="288.5" y="47.11" width="0.45" height="0.51"/><rect class="cls-12" x="289.3" y="47.11" width="0.45" height="0.51"/><rect class="cls-12" x="288.03" y="48.44" width="1.71" height="0.49"/><rect class="cls-12" x="287.24" y="48.41" width="0.45" height="0.51" transform="translate(574.93 97.33) rotate(180)"/><rect class="cls-12" x="286.45" y="48.41" width="0.45" height="0.51" transform="translate(573.35 97.33) rotate(180)"/><rect class="cls-12" x="285.66" y="48.41" width="0.45" height="0.51" transform="translate(571.76 97.33) rotate(180)"/><rect class="cls-12" x="281.14" y="48.44" width="4.04" height="0.49"/><rect class="cls-12" x="280.35" y="48.41" width="0.45" height="0.51" transform="translate(561.15 97.33) rotate(180)"/><rect class="cls-12" x="279.56" y="48.41" width="0.45" height="0.51" transform="translate(559.56 97.33) rotate(180)"/><rect class="cls-12" x="278.77" y="48.41" width="0.45" height="0.51" transform="translate(557.98 97.33) rotate(180)"/><rect class="cls-12" x="274.25" y="48.44" width="4.04" height="0.49"/><rect class="cls-12" x="273.46" y="48.41" width="0.45" height="0.51" transform="translate(547.37 97.33) rotate(180)"/><rect class="cls-12" x="272.67" y="48.41" width="0.45" height="0.51" transform="translate(545.78 97.33) rotate(180)"/><rect class="cls-12" x="271.88" y="48.41" width="0.45" height="0.51" transform="translate(544.2 97.33) rotate(180)"/><rect class="cls-12" x="270.68" y="48.44" width="0.87" height="0.49"/><rect class="cls-12" x="270" y="48.41" width="0.45" height="0.51" transform="translate(540.45 97.33) rotate(180)"/><rect class="cls-12" x="269.21" y="48.41" width="0.45" height="0.51" transform="translate(538.86 97.33) rotate(180)"/><rect class="cls-12" x="268.42" y="48.41" width="0.45" height="0.51" transform="translate(537.28 97.33) rotate(180)"/><rect class="cls-12" x="268.42" y="49.89" width="1.71" height="0.49"/><rect class="cls-12" x="270.47" y="49.9" width="0.45" height="0.51"/><rect class="cls-12" x="271.26" y="49.9" width="0.45" height="0.51"/><rect class="cls-12" x="272.05" y="49.9" width="0.45" height="0.51"/><rect class="cls-12" x="272.98" y="49.89" width="4.04" height="0.49"/><rect class="cls-12" x="277.36" y="49.9" width="0.45" height="0.51"/><rect class="cls-12" x="278.15" y="49.9" width="0.45" height="0.51"/><rect class="cls-12" x="278.94" y="49.9" width="0.45" height="0.51"/><rect class="cls-12" x="279.87" y="49.89" width="4.04" height="0.49"/><rect class="cls-12" x="284.25" y="49.9" width="0.45" height="0.51"/><rect class="cls-12" x="285.04" y="49.9" width="0.45" height="0.51"/><rect class="cls-12" x="285.84" y="49.9" width="0.45" height="0.51"/><rect class="cls-12" x="286.61" y="49.89" width="0.87" height="0.49"/><rect class="cls-12" x="287.71" y="49.9" width="0.45" height="0.51"/><rect class="cls-12" x="288.5" y="49.9" width="0.45" height="0.51"/><rect class="cls-12" x="289.3" y="49.9" width="0.45" height="0.51"/><rect class="cls-12" x="288.03" y="51.23" width="1.71" height="0.49"/><rect class="cls-12" x="287.24" y="51.2" width="0.45" height="0.51" transform="translate(574.93 102.91) rotate(180)"/><rect class="cls-12" x="286.45" y="51.2" width="0.45" height="0.51" transform="translate(573.35 102.91) rotate(180)"/><rect class="cls-12" x="285.66" y="51.2" width="0.45" height="0.51" transform="translate(571.76 102.91) rotate(180)"/><rect class="cls-12" x="281.14" y="51.23" width="4.04" height="0.49"/><rect class="cls-12" x="280.35" y="51.2" width="0.45" height="0.51" transform="translate(561.15 102.91) rotate(180)"/><rect class="cls-12" x="279.56" y="51.2" width="0.45" height="0.51" transform="translate(559.56 102.91) rotate(180)"/><rect class="cls-12" x="278.77" y="51.2" width="0.45" height="0.51" transform="translate(557.98 102.91) rotate(180)"/><rect class="cls-12" x="274.25" y="51.23" width="4.04" height="0.49"/><rect class="cls-12" x="273.46" y="51.2" width="0.45" height="0.51" transform="translate(547.37 102.91) rotate(180)"/><rect class="cls-12" x="272.67" y="51.2" width="0.45" height="0.51" transform="translate(545.78 102.91) rotate(180)"/><rect class="cls-12" x="271.88" y="51.2" width="0.45" height="0.51" transform="translate(544.2 102.91) rotate(180)"/><rect class="cls-12" x="270.68" y="51.23" width="0.87" height="0.49"/><rect class="cls-12" x="270" y="51.2" width="0.45" height="0.51" transform="translate(540.45 102.91) rotate(180)"/><rect class="cls-12" x="269.21" y="51.2" width="0.45" height="0.51" transform="translate(538.86 102.91) rotate(180)"/><rect class="cls-12" x="268.42" y="51.2" width="0.45" height="0.51" transform="translate(537.28 102.91) rotate(180)"/><text class="cls-10" transform="translate(264.39 86.59)">$15,500</text><text class="cls-11" transform="translate(264.93 92.36)">xxx xxxxx</text><rect class="cls-12" x="268.42" y="94.22" width="1.71" height="0.49"/><rect class="cls-12" x="270.47" y="94.23" width="0.45" height="0.51"/><rect class="cls-12" x="271.26" y="94.23" width="0.45" height="0.51"/><rect class="cls-12" x="272.05" y="94.23" width="0.45" height="0.51"/><rect class="cls-12" x="272.98" y="94.22" width="4.04" height="0.49"/><rect class="cls-12" x="277.36" y="94.23" width="0.45" height="0.51"/><rect class="cls-12" x="278.15" y="94.23" width="0.45" height="0.51"/><rect class="cls-12" x="278.94" y="94.23" width="0.45" height="0.51"/><rect class="cls-12" x="279.87" y="94.22" width="4.04" height="0.49"/><rect class="cls-12" x="284.25" y="94.23" width="0.45" height="0.51"/><rect class="cls-12" x="285.04" y="94.23" width="0.45" height="0.51"/><rect class="cls-12" x="285.84" y="94.23" width="0.45" height="0.51"/><rect class="cls-12" x="286.61" y="94.22" width="0.87" height="0.49"/><rect class="cls-12" x="287.71" y="94.23" width="0.45" height="0.51"/><rect class="cls-12" x="288.5" y="94.23" width="0.45" height="0.51"/><rect class="cls-12" x="289.3" y="94.23" width="0.45" height="0.51"/><rect class="cls-12" x="288.03" y="95.56" width="1.71" height="0.49"/><rect class="cls-12" x="287.24" y="95.53" width="0.45" height="0.51" transform="translate(574.93 191.57) rotate(180)"/><rect class="cls-12" x="286.45" y="95.53" width="0.45" height="0.51" transform="translate(573.35 191.57) rotate(180)"/><rect class="cls-12" x="285.66" y="95.53" width="0.45" height="0.51" transform="translate(571.76 191.57) rotate(180)"/><rect class="cls-12" x="281.14" y="95.56" width="4.04" height="0.49"/><rect class="cls-12" x="280.35" y="95.53" width="0.45" height="0.51" transform="translate(561.15 191.57) rotate(180)"/><rect class="cls-12" x="279.56" y="95.53" width="0.45" height="0.51" transform="translate(559.56 191.57) rotate(180)"/><rect class="cls-12" x="278.77" y="95.53" width="0.45" height="0.51" transform="translate(557.98 191.57) rotate(180)"/><rect class="cls-12" x="274.25" y="95.56" width="4.04" height="0.49"/><rect class="cls-12" x="273.46" y="95.53" width="0.45" height="0.51" transform="translate(547.37 191.57) rotate(180)"/><rect class="cls-12" x="272.67" y="95.53" width="0.45" height="0.51" transform="translate(545.78 191.57) rotate(180)"/><rect class="cls-12" x="271.88" y="95.53" width="0.45" height="0.51" transform="translate(544.2 191.57) rotate(180)"/><rect class="cls-12" x="270.68" y="95.56" width="0.87" height="0.49"/><rect class="cls-12" x="270" y="95.53" width="0.45" height="0.51" transform="translate(540.45 191.57) rotate(180)"/><rect class="cls-12" x="269.21" y="95.53" width="0.45" height="0.51" transform="translate(538.86 191.57) rotate(180)"/><rect class="cls-12" x="268.42" y="95.53" width="0.45" height="0.51" transform="translate(537.28 191.57) rotate(180)"/><rect class="cls-12" x="268.42" y="97.01" width="1.71" height="0.49"/><rect class="cls-12" x="270.47" y="97.02" width="0.45" height="0.51"/><rect class="cls-12" x="271.26" y="97.02" width="0.45" height="0.51"/><rect class="cls-12" x="272.05" y="97.02" width="0.45" height="0.51"/><rect class="cls-12" x="272.98" y="97.01" width="4.04" height="0.49"/><rect class="cls-12" x="277.36" y="97.02" width="0.45" height="0.51"/><rect class="cls-12" x="278.15" y="97.02" width="0.45" height="0.51"/><rect class="cls-12" x="278.94" y="97.02" width="0.45" height="0.51"/><rect class="cls-12" x="279.87" y="97.01" width="4.04" height="0.49"/><rect class="cls-12" x="284.25" y="97.02" width="0.45" height="0.51"/><rect class="cls-12" x="285.04" y="97.02" width="0.45" height="0.51"/><rect class="cls-12" x="285.84" y="97.02" width="0.45" height="0.51"/><rect class="cls-12" x="286.61" y="97.01" width="0.87" height="0.49"/><rect class="cls-12" x="287.71" y="97.02" width="0.45" height="0.51"/><rect class="cls-12" x="288.5" y="97.02" width="0.45" height="0.51"/><rect class="cls-12" x="289.3" y="97.02" width="0.45" height="0.51"/><rect class="cls-12" x="288.03" y="98.35" width="1.71" height="0.49"/><rect class="cls-12" x="287.24" y="98.32" width="0.45" height="0.51" transform="translate(574.93 197.16) rotate(180)"/><rect class="cls-12" x="286.45" y="98.32" width="0.45" height="0.51" transform="translate(573.35 197.16) rotate(180)"/><rect class="cls-12" x="285.66" y="98.32" width="0.45" height="0.51" transform="translate(571.76 197.16) rotate(180)"/><rect class="cls-12" x="281.14" y="98.35" width="4.04" height="0.49"/><rect class="cls-12" x="280.35" y="98.32" width="0.45" height="0.51" transform="translate(561.15 197.16) rotate(180)"/><rect class="cls-12" x="279.56" y="98.32" width="0.45" height="0.51" transform="translate(559.56 197.16) rotate(180)"/><rect class="cls-12" x="278.77" y="98.32" width="0.45" height="0.51" transform="translate(557.98 197.16) rotate(180)"/><rect class="cls-12" x="274.25" y="98.35" width="4.04" height="0.49"/><rect class="cls-12" x="273.46" y="98.32" width="0.45" height="0.51" transform="translate(547.37 197.16) rotate(180)"/><rect class="cls-12" x="272.67" y="98.32" width="0.45" height="0.51" transform="translate(545.78 197.16) rotate(180)"/><rect class="cls-12" x="271.88" y="98.32" width="0.45" height="0.51" transform="translate(544.2 197.16) rotate(180)"/><rect class="cls-12" x="270.68" y="98.35" width="0.87" height="0.49"/><rect class="cls-12" x="270" y="98.32" width="0.45" height="0.51" transform="translate(540.45 197.16) rotate(180)"/><rect class="cls-12" x="269.21" y="98.32" width="0.45" height="0.51" transform="translate(538.86 197.16) rotate(180)"/><rect class="cls-12" x="268.42" y="98.32" width="0.45" height="0.51" transform="translate(537.28 197.16) rotate(180)"/><rect class="cls-7" x="258.85" y="74.54" width="0.45" height="0.51"/><rect class="cls-7" x="259.64" y="74.54" width="0.45" height="0.51"/><rect class="cls-7" x="260.44" y="74.54" width="0.45" height="0.51"/><rect class="cls-7" x="310.85" y="27.42" width="0.45" height="0.51"/><rect class="cls-7" x="311.64" y="27.42" width="0.45" height="0.51"/><rect class="cls-7" x="312.44" y="27.42" width="0.45" height="0.51"/><path class="cls-8" d="M318.06,12.5h18.59c2.87,0,4.9,6,6.49,6h4c2.1,0,3.1,1.44,3.1,3.54v2.48c0,.74.11,1-.63,1H313c-.74,0-1.74-.25-1.74-1V18.8C311.26,15.64,315.8,12.5,318.06,12.5Z"/><path class="cls-9" d="M311.7,21.5s.56-.57.56.34v.51c0,.58-.13,1.15-.56,1.15h-.44v-2Z"/><path class="cls-8" d="M349.26,20.82V19.3c0-.1-.25-.19-.23-.28a3.59,3.59,0,0,1,1.23,3v.14l.11,0C349.61,22.19,349.26,21.58,349.26,20.82Z"/><path class="cls-8" d="M349.63,25.5H313c-.74,0-1.74-.25-1.74-1v0h39v0C350.26,25.25,350.37,25.5,349.63,25.5Z"/><path class="cls-8" d="M348.42,25.5a3.87,3.87,0,0,0-7.74,0Z"/><circle class="cls-9" cx="344.58" cy="26.04" r="3.03"/><circle class="cls-9" cx="344.58" cy="26.04" r="2.04"/><path class="cls-8" d="M323.13,25.5a3.87,3.87,0,0,0-7.74,0Z"/><circle class="cls-9" cx="319.29" cy="26.04" r="3.03"/><circle class="cls-9" cx="319.29" cy="26.04" r="2.04"/><path class="cls-8" d="M331.51,20c0,.18.14.5.3.5H334c.17,0,.3-.32.3-.5h0c0-.18-.14-.5-.3-.5h-2.14c-.17,0-.3.32-.3.5Z"/><rect class="cls-8" x="322.26" y="19.5" width="3" height="1" rx="0.25" ry="0.25"/><path class="cls-8" d="M340.26,17.64c0-.35-.15-.63-.5-.63h-2.21c-.35,0-.28.28-.28.63v.87c0,.35,0,.56.36.56h2.24c.35,0,.4-.21.4-.56Z"/><line class="cls-9" x1="321.92" y1="18.21" x2="319.81" y2="21.85"/><line class="cls-9" x1="330.65" y1="18.47" x2="330.65" y2="23.98"/><line class="cls-9" x1="329.18" y1="18.47" x2="332.48" y2="18.47"/><circle class="cls-9" cx="319.29" cy="26.04" r="0.94"/><circle class="cls-9" cx="344.56" cy="26.04" r="0.94"/><rect class="cls-8" x="322.26" y="13.5" width="8" height="5" rx="0.91" ry="0.91"/><path class="cls-8" d="M312.88,17.68c-.11.49.41.82.91.82h6.09c.5,0,1.37-.37,1.37-.88V14.27c0-.5-.87-.77-1.37-.77h-2.44C315.55,13.5,313.2,16.26,312.88,17.68Z"/><path class="cls-8" d="M331.26,17.62c0,.5.62.88,1.12.88h7a.82.82,0,0,0,.91-.82c0-1.54-2.34-4.18-4-4.18h-4c-.5,0-1.12.27-1.12.77Z"/><path class="cls-8" d="M318.06,58.5h18.59c2.87,0,4.9,6,6.49,6h4c2.1,0,3.1,1.44,3.1,3.54v2.48c0,.74.11,1-.63,1H313c-.74,0-1.74-.25-1.74-1V64.8C311.26,61.64,315.8,58.5,318.06,58.5Z"/><path class="cls-9" d="M311.7,67.5s.56-.57.56.34v.51c0,.58-.13,1.15-.56,1.15h-.44v-2Z"/><path class="cls-8" d="M349.26,66.82V65.3c0-.1-.25-.19-.23-.28a3.59,3.59,0,0,1,1.23,3v.14l.11,0C349.61,68.19,349.26,67.58,349.26,66.82Z"/><path class="cls-8" d="M349.63,71.5H313c-.74,0-1.74-.25-1.74-1v0h39v0C350.26,71.25,350.37,71.5,349.63,71.5Z"/><path class="cls-8" d="M348.42,71.5a3.87,3.87,0,0,0-7.74,0Z"/><circle class="cls-9" cx="344.58" cy="72.04" r="3.03"/><circle class="cls-9" cx="344.58" cy="72.04" r="2.04"/><path class="cls-8" d="M323.13,71.5a3.87,3.87,0,0,0-7.74,0Z"/><circle class="cls-9" cx="319.29" cy="72.04" r="3.03"/><circle class="cls-9" cx="319.29" cy="72.04" r="2.04"/><path class="cls-8" d="M331.51,66c0,.18.14.5.3.5H334c.17,0,.3-.32.3-.5h0c0-.18-.14-.5-.3-.5h-2.14c-.17,0-.3.32-.3.5Z"/><rect class="cls-8" x="322.26" y="65.5" width="3" height="1" rx="0.25" ry="0.25"/><path class="cls-8" d="M340.26,63.64c0-.35-.15-.63-.5-.63h-2.21c-.35,0-.28.28-.28.63v.87c0,.35,0,.56.36.56h2.24c.35,0,.4-.21.4-.56Z"/><line class="cls-9" x1="321.92" y1="64.21" x2="319.81" y2="67.85"/><line class="cls-9" x1="330.65" y1="64.47" x2="330.65" y2="69.98"/><line class="cls-9" x1="329.18" y1="64.47" x2="332.48" y2="64.47"/><circle class="cls-9" cx="319.29" cy="72.04" r="0.94"/><circle class="cls-9" cx="344.56" cy="72.04" r="0.94"/><rect class="cls-8" x="322.26" y="59.5" width="8" height="5" rx="0.91" ry="0.91"/><path class="cls-8" d="M312.88,63.68c-.11.49.41.82.91.82h6.09c.5,0,1.37-.37,1.37-.88V60.27c0-.5-.87-.77-1.37-.77h-2.44C315.55,59.5,313.2,62.26,312.88,63.68Z"/><path class="cls-8" d="M331.26,63.62c0,.5.62.88,1.12.88h7a.82.82,0,0,0,.91-.82c0-1.54-2.34-4.18-4-4.18h-4c-.5,0-1.12.27-1.12.77Z"/><text class="cls-10" transform="translate(316.39 39.47)">$10,000</text><text class="cls-11" transform="translate(316.93 45.24)">xxx xxxxx</text><rect class="cls-12" x="320.42" y="47.1" width="1.71" height="0.49"/><rect class="cls-12" x="322.47" y="47.11" width="0.45" height="0.51"/><rect class="cls-12" x="323.26" y="47.11" width="0.45" height="0.51"/><rect class="cls-12" x="324.05" y="47.11" width="0.45" height="0.51"/><rect class="cls-12" x="324.98" y="47.1" width="4.04" height="0.49"/><rect class="cls-12" x="329.36" y="47.11" width="0.45" height="0.51"/><rect class="cls-12" x="330.15" y="47.11" width="0.45" height="0.51"/><rect class="cls-12" x="330.94" y="47.11" width="0.45" height="0.51"/><rect class="cls-12" x="331.87" y="47.1" width="4.04" height="0.49"/><rect class="cls-12" x="336.25" y="47.11" width="0.45" height="0.51"/><rect class="cls-12" x="337.04" y="47.11" width="0.45" height="0.51"/><rect class="cls-12" x="337.84" y="47.11" width="0.45" height="0.51"/><rect class="cls-12" x="338.61" y="47.1" width="0.87" height="0.49"/><rect class="cls-12" x="339.71" y="47.11" width="0.45" height="0.51"/><rect class="cls-12" x="340.5" y="47.11" width="0.45" height="0.51"/><rect class="cls-12" x="341.3" y="47.11" width="0.45" height="0.51"/><rect class="cls-12" x="340.03" y="48.44" width="1.71" height="0.49"/><rect class="cls-12" x="339.24" y="48.41" width="0.45" height="0.51" transform="translate(678.93 97.33) rotate(180)"/><rect class="cls-12" x="338.45" y="48.41" width="0.45" height="0.51" transform="translate(677.35 97.33) rotate(180)"/><rect class="cls-12" x="337.66" y="48.41" width="0.45" height="0.51" transform="translate(675.76 97.33) rotate(180)"/><rect class="cls-12" x="333.14" y="48.44" width="4.04" height="0.49"/><rect class="cls-12" x="332.35" y="48.41" width="0.45" height="0.51" transform="translate(665.15 97.33) rotate(180)"/><rect class="cls-12" x="331.56" y="48.41" width="0.45" height="0.51" transform="translate(663.56 97.33) rotate(180)"/><rect class="cls-12" x="330.77" y="48.41" width="0.45" height="0.51" transform="translate(661.98 97.33) rotate(180)"/><rect class="cls-12" x="326.25" y="48.44" width="4.04" height="0.49"/><rect class="cls-12" x="325.46" y="48.41" width="0.45" height="0.51" transform="translate(651.37 97.33) rotate(180)"/><rect class="cls-12" x="324.67" y="48.41" width="0.45" height="0.51" transform="translate(649.78 97.33) rotate(180)"/><rect class="cls-12" x="323.88" y="48.41" width="0.45" height="0.51" transform="translate(648.2 97.33) rotate(180)"/><rect class="cls-12" x="322.68" y="48.44" width="0.87" height="0.49"/><rect class="cls-12" x="322" y="48.41" width="0.45" height="0.51" transform="translate(644.45 97.33) rotate(180)"/><rect class="cls-12" x="321.21" y="48.41" width="0.45" height="0.51" transform="translate(642.86 97.33) rotate(180)"/><rect class="cls-12" x="320.42" y="48.41" width="0.45" height="0.51" transform="translate(641.28 97.33) rotate(180)"/><rect class="cls-12" x="320.42" y="49.89" width="1.71" height="0.49"/><rect class="cls-12" x="322.47" y="49.9" width="0.45" height="0.51"/><rect class="cls-12" x="323.26" y="49.9" width="0.45" height="0.51"/><rect class="cls-12" x="324.05" y="49.9" width="0.45" height="0.51"/><rect class="cls-12" x="324.98" y="49.89" width="4.04" height="0.49"/><rect class="cls-12" x="329.36" y="49.9" width="0.45" height="0.51"/><rect class="cls-12" x="330.15" y="49.9" width="0.45" height="0.51"/><rect class="cls-12" x="330.94" y="49.9" width="0.45" height="0.51"/><rect class="cls-12" x="331.87" y="49.89" width="4.04" height="0.49"/><rect class="cls-12" x="336.25" y="49.9" width="0.45" height="0.51"/><rect class="cls-12" x="337.04" y="49.9" width="0.45" height="0.51"/><rect class="cls-12" x="337.84" y="49.9" width="0.45" height="0.51"/><rect class="cls-12" x="338.61" y="49.89" width="0.87" height="0.49"/><rect class="cls-12" x="339.71" y="49.9" width="0.45" height="0.51"/><rect class="cls-12" x="340.5" y="49.9" width="0.45" height="0.51"/><rect class="cls-12" x="341.3" y="49.9" width="0.45" height="0.51"/><rect class="cls-12" x="340.03" y="51.23" width="1.71" height="0.49"/><rect class="cls-12" x="339.24" y="51.2" width="0.45" height="0.51" transform="translate(678.93 102.91) rotate(180)"/><rect class="cls-12" x="338.45" y="51.2" width="0.45" height="0.51" transform="translate(677.35 102.91) rotate(180)"/><rect class="cls-12" x="337.66" y="51.2" width="0.45" height="0.51" transform="translate(675.76 102.91) rotate(180)"/><rect class="cls-12" x="333.14" y="51.23" width="4.04" height="0.49"/><rect class="cls-12" x="332.35" y="51.2" width="0.45" height="0.51" transform="translate(665.15 102.91) rotate(180)"/><rect class="cls-12" x="331.56" y="51.2" width="0.45" height="0.51" transform="translate(663.56 102.91) rotate(180)"/><rect class="cls-12" x="330.77" y="51.2" width="0.45" height="0.51" transform="translate(661.98 102.91) rotate(180)"/><rect class="cls-12" x="326.25" y="51.23" width="4.04" height="0.49"/><rect class="cls-12" x="325.46" y="51.2" width="0.45" height="0.51" transform="translate(651.37 102.91) rotate(180)"/><rect class="cls-12" x="324.67" y="51.2" width="0.45" height="0.51" transform="translate(649.78 102.91) rotate(180)"/><rect class="cls-12" x="323.88" y="51.2" width="0.45" height="0.51" transform="translate(648.2 102.91) rotate(180)"/><rect class="cls-12" x="322.68" y="51.23" width="0.87" height="0.49"/><rect class="cls-12" x="322" y="51.2" width="0.45" height="0.51" transform="translate(644.45 102.91) rotate(180)"/><rect class="cls-12" x="321.21" y="51.2" width="0.45" height="0.51" transform="translate(642.86 102.91) rotate(180)"/><rect class="cls-12" x="320.42" y="51.2" width="0.45" height="0.51" transform="translate(641.28 102.91) rotate(180)"/><text class="cls-10" transform="translate(316.39 86.59)">$15,500</text><text class="cls-11" transform="translate(316.93 92.36)">xxx xxxxx</text><rect class="cls-12" x="320.42" y="94.22" width="1.71" height="0.49"/><rect class="cls-12" x="322.47" y="94.23" width="0.45" height="0.51"/><rect class="cls-12" x="323.26" y="94.23" width="0.45" height="0.51"/><rect class="cls-12" x="324.05" y="94.23" width="0.45" height="0.51"/><rect class="cls-12" x="324.98" y="94.22" width="4.04" height="0.49"/><rect class="cls-12" x="329.36" y="94.23" width="0.45" height="0.51"/><rect class="cls-12" x="330.15" y="94.23" width="0.45" height="0.51"/><rect class="cls-12" x="330.94" y="94.23" width="0.45" height="0.51"/><rect class="cls-12" x="331.87" y="94.22" width="4.04" height="0.49"/><rect class="cls-12" x="336.25" y="94.23" width="0.45" height="0.51"/><rect class="cls-12" x="337.04" y="94.23" width="0.45" height="0.51"/><rect class="cls-12" x="337.84" y="94.23" width="0.45" height="0.51"/><rect class="cls-12" x="338.61" y="94.22" width="0.87" height="0.49"/><rect class="cls-12" x="339.71" y="94.23" width="0.45" height="0.51"/><rect class="cls-12" x="340.5" y="94.23" width="0.45" height="0.51"/><rect class="cls-12" x="341.3" y="94.23" width="0.45" height="0.51"/><rect class="cls-12" x="340.03" y="95.56" width="1.71" height="0.49"/><rect class="cls-12" x="339.24" y="95.53" width="0.45" height="0.51" transform="translate(678.93 191.57) rotate(180)"/><rect class="cls-12" x="338.45" y="95.53" width="0.45" height="0.51" transform="translate(677.35 191.57) rotate(180)"/><rect class="cls-12" x="337.66" y="95.53" width="0.45" height="0.51" transform="translate(675.76 191.57) rotate(180)"/><rect class="cls-12" x="333.14" y="95.56" width="4.04" height="0.49"/><rect class="cls-12" x="332.35" y="95.53" width="0.45" height="0.51" transform="translate(665.15 191.57) rotate(180)"/><rect class="cls-12" x="331.56" y="95.53" width="0.45" height="0.51" transform="translate(663.56 191.57) rotate(180)"/><rect class="cls-12" x="330.77" y="95.53" width="0.45" height="0.51" transform="translate(661.98 191.57) rotate(180)"/><rect class="cls-12" x="326.25" y="95.56" width="4.04" height="0.49"/><rect class="cls-12" x="325.46" y="95.53" width="0.45" height="0.51" transform="translate(651.37 191.57) rotate(180)"/><rect class="cls-12" x="324.67" y="95.53" width="0.45" height="0.51" transform="translate(649.78 191.57) rotate(180)"/><rect class="cls-12" x="323.88" y="95.53" width="0.45" height="0.51" transform="translate(648.2 191.57) rotate(180)"/><rect class="cls-12" x="322.68" y="95.56" width="0.87" height="0.49"/><rect class="cls-12" x="322" y="95.53" width="0.45" height="0.51" transform="translate(644.45 191.57) rotate(180)"/><rect class="cls-12" x="321.21" y="95.53" width="0.45" height="0.51" transform="translate(642.86 191.57) rotate(180)"/><rect class="cls-12" x="320.42" y="95.53" width="0.45" height="0.51" transform="translate(641.28 191.57) rotate(180)"/><rect class="cls-12" x="320.42" y="97.01" width="1.71" height="0.49"/><rect class="cls-12" x="322.47" y="97.02" width="0.45" height="0.51"/><rect class="cls-12" x="323.26" y="97.02" width="0.45" height="0.51"/><rect class="cls-12" x="324.05" y="97.02" width="0.45" height="0.51"/><rect class="cls-12" x="324.98" y="97.01" width="4.04" height="0.49"/><rect class="cls-12" x="329.36" y="97.02" width="0.45" height="0.51"/><rect class="cls-12" x="330.15" y="97.02" width="0.45" height="0.51"/><rect class="cls-12" x="330.94" y="97.02" width="0.45" height="0.51"/><rect class="cls-12" x="331.87" y="97.01" width="4.04" height="0.49"/><rect class="cls-12" x="336.25" y="97.02" width="0.45" height="0.51"/><rect class="cls-12" x="337.04" y="97.02" width="0.45" height="0.51"/><rect class="cls-12" x="337.84" y="97.02" width="0.45" height="0.51"/><rect class="cls-12" x="338.61" y="97.01" width="0.87" height="0.49"/><rect class="cls-12" x="339.71" y="97.02" width="0.45" height="0.51"/><rect class="cls-12" x="340.5" y="97.02" width="0.45" height="0.51"/><rect class="cls-12" x="341.3" y="97.02" width="0.45" height="0.51"/><rect class="cls-12" x="340.03" y="98.35" width="1.71" height="0.49"/><rect class="cls-12" x="339.24" y="98.32" width="0.45" height="0.51" transform="translate(678.93 197.16) rotate(180)"/><rect class="cls-12" x="338.45" y="98.32" width="0.45" height="0.51" transform="translate(677.35 197.16) rotate(180)"/><rect class="cls-12" x="337.66" y="98.32" width="0.45" height="0.51" transform="translate(675.76 197.16) rotate(180)"/><rect class="cls-12" x="333.14" y="98.35" width="4.04" height="0.49"/><rect class="cls-12" x="332.35" y="98.32" width="0.45" height="0.51" transform="translate(665.15 197.16) rotate(180)"/><rect class="cls-12" x="331.56" y="98.32" width="0.45" height="0.51" transform="translate(663.56 197.16) rotate(180)"/><rect class="cls-12" x="330.77" y="98.32" width="0.45" height="0.51" transform="translate(661.98 197.16) rotate(180)"/><rect class="cls-12" x="326.25" y="98.35" width="4.04" height="0.49"/><rect class="cls-12" x="325.46" y="98.32" width="0.45" height="0.51" transform="translate(651.37 197.16) rotate(180)"/><rect class="cls-12" x="324.67" y="98.32" width="0.45" height="0.51" transform="translate(649.78 197.16) rotate(180)"/><rect class="cls-12" x="323.88" y="98.32" width="0.45" height="0.51" transform="translate(648.2 197.16) rotate(180)"/><rect class="cls-12" x="322.68" y="98.35" width="0.87" height="0.49"/><rect class="cls-12" x="322" y="98.32" width="0.45" height="0.51" transform="translate(644.45 197.16) rotate(180)"/><rect class="cls-12" x="321.21" y="98.32" width="0.45" height="0.51" transform="translate(642.86 197.16) rotate(180)"/><rect class="cls-12" x="320.42" y="98.32" width="0.45" height="0.51" transform="translate(641.28 197.16) rotate(180)"/><rect class="cls-7" x="310.85" y="74.54" width="0.45" height="0.51"/><rect class="cls-7" x="311.64" y="74.54" width="0.45" height="0.51"/><rect class="cls-7" x="312.44" y="74.54" width="0.45" height="0.51"/><rect class="cls-7" x="362.85" y="27.42" width="0.45" height="0.51"/><rect class="cls-7" x="363.64" y="27.42" width="0.45" height="0.51"/><rect class="cls-7" x="364.44" y="27.42" width="0.45" height="0.51"/><path class="cls-8" d="M370.06,12.5h18.59c2.87,0,4.9,6,6.49,6h4c2.1,0,3.1,1.44,3.1,3.54v2.48c0,.74.11,1-.63,1H365c-.74,0-1.74-.25-1.74-1V18.8C363.26,15.64,367.8,12.5,370.06,12.5Z"/><path class="cls-9" d="M363.7,21.5s.56-.57.56.34v.51c0,.58-.13,1.15-.56,1.15h-.44v-2Z"/><path class="cls-8" d="M401.26,20.82V19.3c0-.1-.25-.19-.23-.28a3.59,3.59,0,0,1,1.23,3v.14l.11,0C401.61,22.19,401.26,21.58,401.26,20.82Z"/><path class="cls-8" d="M401.63,25.5H365c-.74,0-1.74-.25-1.74-1v0h39v0C402.26,25.25,402.37,25.5,401.63,25.5Z"/><path class="cls-8" d="M400.42,25.5a3.87,3.87,0,0,0-7.74,0Z"/><circle class="cls-9" cx="396.58" cy="26.04" r="3.03"/><circle class="cls-9" cx="396.58" cy="26.04" r="2.04"/><path class="cls-8" d="M375.13,25.5a3.87,3.87,0,0,0-7.74,0Z"/><circle class="cls-9" cx="371.29" cy="26.04" r="3.03"/><circle class="cls-9" cx="371.29" cy="26.04" r="2.04"/><path class="cls-8" d="M383.51,20c0,.18.14.5.3.5H386c.17,0,.3-.32.3-.5h0c0-.18-.14-.5-.3-.5h-2.14c-.17,0-.3.32-.3.5Z"/><rect class="cls-8" x="374.26" y="19.5" width="3" height="1" rx="0.25" ry="0.25"/><path class="cls-8" d="M392.26,17.64c0-.35-.15-.63-.5-.63h-2.21c-.35,0-.28.28-.28.63v.87c0,.35,0,.56.36.56h2.24c.35,0,.4-.21.4-.56Z"/><line class="cls-9" x1="373.92" y1="18.21" x2="371.81" y2="21.85"/><line class="cls-9" x1="382.65" y1="18.47" x2="382.65" y2="23.98"/><line class="cls-9" x1="381.18" y1="18.47" x2="384.48" y2="18.47"/><circle class="cls-9" cx="371.29" cy="26.04" r="0.94"/><circle class="cls-9" cx="396.56" cy="26.04" r="0.94"/><rect class="cls-8" x="374.26" y="13.5" width="8" height="5" rx="0.91" ry="0.91"/><path class="cls-8" d="M364.88,17.68c-.11.49.41.82.91.82h6.09c.5,0,1.37-.37,1.37-.88V14.27c0-.5-.87-.77-1.37-.77h-2.44C367.55,13.5,365.2,16.26,364.88,17.68Z"/><path class="cls-8" d="M383.26,17.62c0,.5.62.88,1.12.88h7a.82.82,0,0,0,.91-.82c0-1.54-2.34-4.18-4-4.18h-4c-.5,0-1.12.27-1.12.77Z"/><path class="cls-8" d="M370.06,58.5h18.59c2.87,0,4.9,6,6.49,6h4c2.1,0,3.1,1.44,3.1,3.54v2.48c0,.74.11,1-.63,1H365c-.74,0-1.74-.25-1.74-1V64.8C363.26,61.64,367.8,58.5,370.06,58.5Z"/><path class="cls-9" d="M363.7,67.5s.56-.57.56.34v.51c0,.58-.13,1.15-.56,1.15h-.44v-2Z"/><path class="cls-8" d="M401.26,66.82V65.3c0-.1-.25-.19-.23-.28a3.59,3.59,0,0,1,1.23,3v.14l.11,0C401.61,68.19,401.26,67.58,401.26,66.82Z"/><path class="cls-8" d="M401.63,71.5H365c-.74,0-1.74-.25-1.74-1v0h39v0C402.26,71.25,402.37,71.5,401.63,71.5Z"/><path class="cls-8" d="M400.42,71.5a3.87,3.87,0,0,0-7.74,0Z"/><circle class="cls-9" cx="396.58" cy="72.04" r="3.03"/><circle class="cls-9" cx="396.58" cy="72.04" r="2.04"/><path class="cls-8" d="M375.13,71.5a3.87,3.87,0,0,0-7.74,0Z"/><circle class="cls-9" cx="371.29" cy="72.04" r="3.03"/><circle class="cls-9" cx="371.29" cy="72.04" r="2.04"/><path class="cls-8" d="M383.51,66c0,.18.14.5.3.5H386c.17,0,.3-.32.3-.5h0c0-.18-.14-.5-.3-.5h-2.14c-.17,0-.3.32-.3.5Z"/><rect class="cls-8" x="374.26" y="65.5" width="3" height="1" rx="0.25" ry="0.25"/><path class="cls-8" d="M392.26,63.64c0-.35-.15-.63-.5-.63h-2.21c-.35,0-.28.28-.28.63v.87c0,.35,0,.56.36.56h2.24c.35,0,.4-.21.4-.56Z"/><line class="cls-9" x1="373.92" y1="64.21" x2="371.81" y2="67.85"/><line class="cls-9" x1="382.65" y1="64.47" x2="382.65" y2="69.98"/><line class="cls-9" x1="381.18" y1="64.47" x2="384.48" y2="64.47"/><circle class="cls-9" cx="371.29" cy="72.04" r="0.94"/><circle class="cls-9" cx="396.56" cy="72.04" r="0.94"/><rect class="cls-8" x="374.26" y="59.5" width="8" height="5" rx="0.91" ry="0.91"/><path class="cls-8" d="M364.88,63.68c-.11.49.41.82.91.82h6.09c.5,0,1.37-.37,1.37-.88V60.27c0-.5-.87-.77-1.37-.77h-2.44C367.55,59.5,365.2,62.26,364.88,63.68Z"/><path class="cls-8" d="M383.26,63.62c0,.5.62.88,1.12.88h7a.82.82,0,0,0,.91-.82c0-1.54-2.34-4.18-4-4.18h-4c-.5,0-1.12.27-1.12.77Z"/><text class="cls-10" transform="translate(368.39 39.47)">$10,000</text><text class="cls-11" transform="translate(368.93 45.24)">xxx xxxxx</text><rect class="cls-12" x="372.42" y="47.1" width="1.71" height="0.49"/><rect class="cls-12" x="374.47" y="47.11" width="0.45" height="0.51"/><rect class="cls-12" x="375.26" y="47.11" width="0.45" height="0.51"/><rect class="cls-12" x="376.05" y="47.11" width="0.45" height="0.51"/><rect class="cls-12" x="376.98" y="47.1" width="4.04" height="0.49"/><rect class="cls-12" x="381.36" y="47.11" width="0.45" height="0.51"/><rect class="cls-12" x="382.15" y="47.11" width="0.45" height="0.51"/><rect class="cls-12" x="382.94" y="47.11" width="0.45" height="0.51"/><rect class="cls-12" x="383.87" y="47.1" width="4.04" height="0.49"/><rect class="cls-12" x="388.25" y="47.11" width="0.45" height="0.51"/><rect class="cls-12" x="389.04" y="47.11" width="0.45" height="0.51"/><rect class="cls-12" x="389.84" y="47.11" width="0.45" height="0.51"/><rect class="cls-12" x="390.61" y="47.1" width="0.87" height="0.49"/><rect class="cls-12" x="391.71" y="47.11" width="0.45" height="0.51"/><rect class="cls-12" x="392.5" y="47.11" width="0.45" height="0.51"/><rect class="cls-12" x="393.3" y="47.11" width="0.45" height="0.51"/><rect class="cls-12" x="392.03" y="48.44" width="1.71" height="0.49"/><rect class="cls-12" x="391.24" y="48.41" width="0.45" height="0.51" transform="translate(782.93 97.33) rotate(180)"/><rect class="cls-12" x="390.45" y="48.41" width="0.45" height="0.51" transform="translate(781.35 97.33) rotate(180)"/><rect class="cls-12" x="389.66" y="48.41" width="0.45" height="0.51" transform="translate(779.76 97.33) rotate(180)"/><rect class="cls-12" x="385.14" y="48.44" width="4.04" height="0.49"/><rect class="cls-12" x="384.35" y="48.41" width="0.45" height="0.51" transform="translate(769.15 97.33) rotate(180)"/><rect class="cls-12" x="383.56" y="48.41" width="0.45" height="0.51" transform="translate(767.56 97.33) rotate(180)"/><rect class="cls-12" x="382.77" y="48.41" width="0.45" height="0.51" transform="translate(765.98 97.33) rotate(180)"/><rect class="cls-12" x="378.25" y="48.44" width="4.04" height="0.49"/><rect class="cls-12" x="377.46" y="48.41" width="0.45" height="0.51" transform="translate(755.37 97.33) rotate(180)"/><rect class="cls-12" x="376.67" y="48.41" width="0.45" height="0.51" transform="translate(753.78 97.33) rotate(180)"/><rect class="cls-12" x="375.88" y="48.41" width="0.45" height="0.51" transform="translate(752.2 97.33) rotate(180)"/><rect class="cls-12" x="374.68" y="48.44" width="0.87" height="0.49"/><rect class="cls-12" x="374" y="48.41" width="0.45" height="0.51" transform="translate(748.45 97.33) rotate(180)"/><rect class="cls-12" x="373.21" y="48.41" width="0.45" height="0.51" transform="translate(746.86 97.33) rotate(180)"/><rect class="cls-12" x="372.42" y="48.41" width="0.45" height="0.51" transform="translate(745.28 97.33) rotate(180)"/><rect class="cls-12" x="372.42" y="49.89" width="1.71" height="0.49"/><rect class="cls-12" x="374.47" y="49.9" width="0.45" height="0.51"/><rect class="cls-12" x="375.26" y="49.9" width="0.45" height="0.51"/><rect class="cls-12" x="376.05" y="49.9" width="0.45" height="0.51"/><rect class="cls-12" x="376.98" y="49.89" width="4.04" height="0.49"/><rect class="cls-12" x="381.36" y="49.9" width="0.45" height="0.51"/><rect class="cls-12" x="382.15" y="49.9" width="0.45" height="0.51"/><rect class="cls-12" x="382.94" y="49.9" width="0.45" height="0.51"/><rect class="cls-12" x="383.87" y="49.89" width="4.04" height="0.49"/><rect class="cls-12" x="388.25" y="49.9" width="0.45" height="0.51"/><rect class="cls-12" x="389.04" y="49.9" width="0.45" height="0.51"/><rect class="cls-12" x="389.84" y="49.9" width="0.45" height="0.51"/><rect class="cls-12" x="390.61" y="49.89" width="0.87" height="0.49"/><rect class="cls-12" x="391.71" y="49.9" width="0.45" height="0.51"/><rect class="cls-12" x="392.5" y="49.9" width="0.45" height="0.51"/><rect class="cls-12" x="393.3" y="49.9" width="0.45" height="0.51"/><rect class="cls-12" x="392.03" y="51.23" width="1.71" height="0.49"/><rect class="cls-12" x="391.24" y="51.2" width="0.45" height="0.51" transform="translate(782.93 102.91) rotate(180)"/><rect class="cls-12" x="390.45" y="51.2" width="0.45" height="0.51" transform="translate(781.35 102.91) rotate(180)"/><rect class="cls-12" x="389.66" y="51.2" width="0.45" height="0.51" transform="translate(779.76 102.91) rotate(180)"/><rect class="cls-12" x="385.14" y="51.23" width="4.04" height="0.49"/><rect class="cls-12" x="384.35" y="51.2" width="0.45" height="0.51" transform="translate(769.15 102.91) rotate(180)"/><rect class="cls-12" x="383.56" y="51.2" width="0.45" height="0.51" transform="translate(767.56 102.91) rotate(180)"/><rect class="cls-12" x="382.77" y="51.2" width="0.45" height="0.51" transform="translate(765.98 102.91) rotate(180)"/><rect class="cls-12" x="378.25" y="51.23" width="4.04" height="0.49"/><rect class="cls-12" x="377.46" y="51.2" width="0.45" height="0.51" transform="translate(755.37 102.91) rotate(180)"/><rect class="cls-12" x="376.67" y="51.2" width="0.45" height="0.51" transform="translate(753.78 102.91) rotate(180)"/><rect class="cls-12" x="375.88" y="51.2" width="0.45" height="0.51" transform="translate(752.2 102.91) rotate(180)"/><rect class="cls-12" x="374.68" y="51.23" width="0.87" height="0.49"/><rect class="cls-12" x="374" y="51.2" width="0.45" height="0.51" transform="translate(748.45 102.91) rotate(180)"/><rect class="cls-12" x="373.21" y="51.2" width="0.45" height="0.51" transform="translate(746.86 102.91) rotate(180)"/><rect class="cls-12" x="372.42" y="51.2" width="0.45" height="0.51" transform="translate(745.28 102.91) rotate(180)"/><text class="cls-10" transform="translate(368.39 86.59)">$15,500</text><text class="cls-11" transform="translate(368.93 92.36)">xxx xxxxx</text><rect class="cls-12" x="372.42" y="94.22" width="1.71" height="0.49"/><rect class="cls-12" x="374.47" y="94.23" width="0.45" height="0.51"/><rect class="cls-12" x="375.26" y="94.23" width="0.45" height="0.51"/><rect class="cls-12" x="376.05" y="94.23" width="0.45" height="0.51"/><rect class="cls-12" x="376.98" y="94.22" width="4.04" height="0.49"/><rect class="cls-12" x="381.36" y="94.23" width="0.45" height="0.51"/><rect class="cls-12" x="382.15" y="94.23" width="0.45" height="0.51"/><rect class="cls-12" x="382.94" y="94.23" width="0.45" height="0.51"/><rect class="cls-12" x="383.87" y="94.22" width="4.04" height="0.49"/><rect class="cls-12" x="388.25" y="94.23" width="0.45" height="0.51"/><rect class="cls-12" x="389.04" y="94.23" width="0.45" height="0.51"/><rect class="cls-12" x="389.84" y="94.23" width="0.45" height="0.51"/><rect class="cls-12" x="390.61" y="94.22" width="0.87" height="0.49"/><rect class="cls-12" x="391.71" y="94.23" width="0.45" height="0.51"/><rect class="cls-12" x="392.5" y="94.23" width="0.45" height="0.51"/><rect class="cls-12" x="393.3" y="94.23" width="0.45" height="0.51"/><rect class="cls-12" x="392.03" y="95.56" width="1.71" height="0.49"/><rect class="cls-12" x="391.24" y="95.53" width="0.45" height="0.51" transform="translate(782.93 191.57) rotate(180)"/><rect class="cls-12" x="390.45" y="95.53" width="0.45" height="0.51" transform="translate(781.35 191.57) rotate(180)"/><rect class="cls-12" x="389.66" y="95.53" width="0.45" height="0.51" transform="translate(779.76 191.57) rotate(180)"/><rect class="cls-12" x="385.14" y="95.56" width="4.04" height="0.49"/><rect class="cls-12" x="384.35" y="95.53" width="0.45" height="0.51" transform="translate(769.15 191.57) rotate(180)"/><rect class="cls-12" x="383.56" y="95.53" width="0.45" height="0.51" transform="translate(767.56 191.57) rotate(180)"/><rect class="cls-12" x="382.77" y="95.53" width="0.45" height="0.51" transform="translate(765.98 191.57) rotate(180)"/><rect class="cls-12" x="378.25" y="95.56" width="4.04" height="0.49"/><rect class="cls-12" x="377.46" y="95.53" width="0.45" height="0.51" transform="translate(755.37 191.57) rotate(180)"/><rect class="cls-12" x="376.67" y="95.53" width="0.45" height="0.51" transform="translate(753.78 191.57) rotate(180)"/><rect class="cls-12" x="375.88" y="95.53" width="0.45" height="0.51" transform="translate(752.2 191.57) rotate(180)"/><rect class="cls-12" x="374.68" y="95.56" width="0.87" height="0.49"/><rect class="cls-12" x="374" y="95.53" width="0.45" height="0.51" transform="translate(748.45 191.57) rotate(180)"/><rect class="cls-12" x="373.21" y="95.53" width="0.45" height="0.51" transform="translate(746.86 191.57) rotate(180)"/><rect class="cls-12" x="372.42" y="95.53" width="0.45" height="0.51" transform="translate(745.28 191.57) rotate(180)"/><rect class="cls-12" x="372.42" y="97.01" width="1.71" height="0.49"/><rect class="cls-12" x="374.47" y="97.02" width="0.45" height="0.51"/><rect class="cls-12" x="375.26" y="97.02" width="0.45" height="0.51"/><rect class="cls-12" x="376.05" y="97.02" width="0.45" height="0.51"/><rect class="cls-12" x="376.98" y="97.01" width="4.04" height="0.49"/><rect class="cls-12" x="381.36" y="97.02" width="0.45" height="0.51"/><rect class="cls-12" x="382.15" y="97.02" width="0.45" height="0.51"/><rect class="cls-12" x="382.94" y="97.02" width="0.45" height="0.51"/><rect class="cls-12" x="383.87" y="97.01" width="4.04" height="0.49"/><rect class="cls-12" x="388.25" y="97.02" width="0.45" height="0.51"/><rect class="cls-12" x="389.04" y="97.02" width="0.45" height="0.51"/><rect class="cls-12" x="389.84" y="97.02" width="0.45" height="0.51"/><rect class="cls-12" x="390.61" y="97.01" width="0.87" height="0.49"/><rect class="cls-12" x="391.71" y="97.02" width="0.45" height="0.51"/><rect class="cls-12" x="392.5" y="97.02" width="0.45" height="0.51"/><rect class="cls-12" x="393.3" y="97.02" width="0.45" height="0.51"/><rect class="cls-12" x="392.03" y="98.35" width="1.71" height="0.49"/><rect class="cls-12" x="391.24" y="98.32" width="0.45" height="0.51" transform="translate(782.93 197.16) rotate(180)"/><rect class="cls-12" x="390.45" y="98.32" width="0.45" height="0.51" transform="translate(781.35 197.16) rotate(180)"/><rect class="cls-12" x="389.66" y="98.32" width="0.45" height="0.51" transform="translate(779.76 197.16) rotate(180)"/><rect class="cls-12" x="385.14" y="98.35" width="4.04" height="0.49"/><rect class="cls-12" x="384.35" y="98.32" width="0.45" height="0.51" transform="translate(769.15 197.16) rotate(180)"/><rect class="cls-12" x="383.56" y="98.32" width="0.45" height="0.51" transform="translate(767.56 197.16) rotate(180)"/><rect class="cls-12" x="382.77" y="98.32" width="0.45" height="0.51" transform="translate(765.98 197.16) rotate(180)"/><rect class="cls-12" x="378.25" y="98.35" width="4.04" height="0.49"/><rect class="cls-12" x="377.46" y="98.32" width="0.45" height="0.51" transform="translate(755.37 197.16) rotate(180)"/><rect class="cls-12" x="376.67" y="98.32" width="0.45" height="0.51" transform="translate(753.78 197.16) rotate(180)"/><rect class="cls-12" x="375.88" y="98.32" width="0.45" height="0.51" transform="translate(752.2 197.16) rotate(180)"/><rect class="cls-12" x="374.68" y="98.35" width="0.87" height="0.49"/><rect class="cls-12" x="374" y="98.32" width="0.45" height="0.51" transform="translate(748.45 197.16) rotate(180)"/><rect class="cls-12" x="373.21" y="98.32" width="0.45" height="0.51" transform="translate(746.86 197.16) rotate(180)"/><rect class="cls-12" x="372.42" y="98.32" width="0.45" height="0.51" transform="translate(745.28 197.16) rotate(180)"/><rect class="cls-7" x="362.85" y="74.54" width="0.45" height="0.51"/><rect class="cls-7" x="363.64" y="74.54" width="0.45" height="0.51"/><rect class="cls-7" x="364.44" y="74.54" width="0.45" height="0.51"/></g></g></svg>