<svg xmlns="http://www.w3.org/2000/svg" xmlns:xlink="http://www.w3.org/1999/xlink" viewBox="0 0 485 70"><defs><style>.cls-1{isolation:isolate;}.cls-2{fill:#00a2e0;}.cls-3{mix-blend-mode:multiply;fill:url(#Degradado_sin_nombre_4);}.cls-4{fill:#0080b1;}.cls-5,.cls-6,.cls-7{fill:none;stroke:#fff;}.cls-5,.cls-7{stroke-miterlimit:10;}.cls-5,.cls-6{stroke-width:2px;}.cls-6{stroke-linecap:round;stroke-linejoin:round;}.cls-8{font-size:30.83px;fill:#fff;font-family:MuseoSans-900, MuseoSans 900;}.cls-9{letter-spacing:-0.04em;}.cls-10{letter-spacing:-0.03em;}</style><linearGradient id="Degradado_sin_nombre_4" x1="6.07" y1="35" x2="420" y2="35" gradientUnits="userSpaceOnUse"><stop offset="0.02" stop-color="#0080b1"/><stop offset="1" stop-color="#0080b1" stop-opacity="0"/></linearGradient></defs><title>when-to-use-it</title><g class="cls-1"><g id="Layer_2" data-name="Layer 2"><g id="Layer_1-2" data-name="Layer 1"><g id="_Group_" data-name="&lt;Group&gt;"><path class="cls-2" d="M0,0H450a35,35,0,0,1,35,35v0a35,35,0,0,1-35,35H0a0,0,0,0,1,0,0V0A0,0,0,0,1,0,0Z"/><polygon class="cls-3" points="70.49 70 6.07 0 420 0 420 69.94 70.49 70"/></g><polygon class="cls-4" points="152.3 48.28 152.24 48.28 152.24 48.23 152.3 48.28"/><polygon class="cls-4" points="152.24 48.28 152.24 48.75 99 48.75 99 17.25 118.24 33.46 99.07 48.64 152.24 48.28"/><path class="cls-4" d="M152.24,48.23v.05l-53.17.36,19.17-15.18L122.4,37a5,5,0,0,0,6.44,0l4.2-3.53Z"/><polygon class="cls-4" points="152.24 17.25 152.24 48.23 133.04 33.43 152.24 17.25"/><polygon class="cls-4" points="152.24 17.25 133.04 33.43 125.56 27.66 118.24 33.46 99 17.25 152.24 17.25"/><path class="cls-4" d="M125.56,27.66,133,33.43,128.84,37a5,5,0,0,1-6.44,0l-4.16-3.5Z"/><line class="cls-5" x1="152.24" y1="17.25" x2="152.24" y2="48.23"/><polyline class="cls-5" points="152.24 48.28 152.24 48.75 99 48.75 99 17.25"/><polyline class="cls-6" points="133.04 33.43 152.24 48.23 152.3 48.28 152.24 48.28 99.07 48.64 118.24 33.46"/><path class="cls-6" d="M99,17.25l19.24,16.21L122.4,37a5,5,0,0,0,6.44,0l4.2-3.53,19.2-16.18"/><path class="cls-4" d="M140,37.16c.14-7.61,5.11-12,12.62-12,6,0,12,3.18,12,9.83,0,4.68-2.31,6.36-5.93,8.68-2.51,1.64-3.18,2.36-3.18,5.25h-7.61V46.51c0-3.71,2.12-5.4,3.9-6.7,2-1.3,3.85-2.36,3.85-4.77a2.88,2.88,0,0,0-3.13-2.94c-2.7,0-4,1.59-4.14,4.14v.91Zm7.28,14.17h9v9h-9Z"/><path class="cls-7" d="M140,37.16c.14-7.61,5.11-12,12.62-12,6,0,12,3.18,12,9.83,0,4.68-2.31,6.36-5.93,8.68-2.51,1.64-3.18,2.36-3.18,5.25h-7.61V46.51c0-3.71,2.12-5.4,3.9-6.7,2-1.3,3.85-2.36,3.85-4.77a2.88,2.88,0,0,0-3.13-2.94c-2.7,0-4,1.59-4.14,4.14v.91Zm7.28,14.17h9v9h-9Z"/><path class="cls-5" d="M140,37.16c.14-7.61,5.11-12,12.62-12,6,0,12,3.18,12,9.83,0,4.68-2.31,6.36-5.93,8.68-2.51,1.64-3.18,2.36-3.18,5.25h-7.61V46.51c0-3.71,2.12-5.4,3.9-6.7,2-1.3,3.85-2.36,3.85-4.77a2.88,2.88,0,0,0-3.13-2.94c-2.7,0-4,1.59-4.14,4.14v.91Zm7.28,14.17h9v9h-9Z"/><text class="cls-8" transform="translate(180 45)">WHEN<tspan class="cls-9" x="81.63" y="0"> </tspan><tspan class="cls-10" x="86.9" y="0">T</tspan><tspan x="101.39" y="0">O USE IT</tspan></text></g></g></g></svg>