<svg xmlns="http://www.w3.org/2000/svg" viewBox="0 0 274.74 131.37"><defs><style>.cls-1{fill:none;stroke:#0080b1;}.cls-1,.cls-3{stroke-linecap:round;stroke-linejoin:round;stroke-width:2px;}.cls-2{fill:#00a4e3;}.cls-3{fill:#0080b1;stroke:#fff;}.cls-4{fill:#72b83e;}.cls-5{fill:#fff;}</style></defs><title>x-markl</title><g id="Layer_2" data-name="Layer 2"><g id="Layer_1-2" data-name="Layer 1"><rect class="cls-1" x="1" y="1" width="213.22" height="120.67" rx="5.37" ry="5.37"/><rect class="cls-1" x="21.94" y="11.9" width="93.26" height="12.78"/><rect class="cls-1" x="121.1" y="11.9" width="14.46" height="12.78"/><line class="cls-1" x1="31.69" y1="41.48" x2="116.09" y2="41.48"/><line class="cls-1" x1="31.69" y1="45.16" x2="89.06" y2="45.16"/><rect class="cls-1" x="19.75" y="39.82" width="7.24" height="7.24"/><line class="cls-1" x1="31.69" y1="61.24" x2="116.09" y2="61.24"/><line class="cls-1" x1="31.69" y1="64.92" x2="89.06" y2="64.92"/><rect class="cls-1" x="19.75" y="59.58" width="7.24" height="7.24"/><line class="cls-1" x1="31.69" y1="81" x2="116.09" y2="81"/><line class="cls-1" x1="31.69" y1="84.68" x2="89.06" y2="84.68"/><rect class="cls-1" x="19.75" y="79.34" width="7.24" height="7.24"/><line class="cls-1" x1="31.69" y1="100.76" x2="116.09" y2="100.76"/><line class="cls-1" x1="31.69" y1="104.44" x2="89.06" y2="104.44"/><rect class="cls-1" x="19.75" y="99.1" width="7.24" height="7.24"/><path class="cls-2" d="M116,99.56l19,17.69a1.69,1.69,0,0,1-1.05,2.93l-5.18.31,3.19,6.83-9.28,4-2.88-6.51-3.77,3.94a1.69,1.69,0,0,1-2.91-1.17V100.8A1.69,1.69,0,0,1,116,99.56Z"/><polygon class="cls-3" points="116.16 103.76 130.82 117.39 124.27 117.78 128.02 125.82 124.27 127.45 120.78 119.58 116.16 124.42 116.16 103.76"/><path class="cls-1" d="M131.84,21.21,130,19.39a3.12,3.12,0,1,0-.94.85l1.87,1.87a.63.63,0,0,0,.89-.89Zm-3.3-1.55a2.36,2.36,0,1,1,.92-.82A2.34,2.34,0,0,1,128.54,19.66Z"/><path class="cls-2" d="M214.25,81.78a34.68,34.68,0,1,1,8.88,7.1l-16.51,9.68Z"/><path class="cls-4" d="M255.26,79.27a4.73,4.73,0,0,1-3.34-1.37l-12-11.84-12,11.84a4.76,4.76,0,0,1-6.68-6.79l11.92-11.73L221.2,47.65a4.76,4.76,0,0,1,6.68-6.79l12,11.84,12-11.84a4.76,4.76,0,0,1,6.68,6.79L246.68,59.38,258.6,71.11a4.76,4.76,0,0,1-3.34,8.15Z"/><path class="cls-5" d="M255.26,40.5a3.76,3.76,0,0,1,2.64,6.44L245.26,59.38,257.9,71.83a3.76,3.76,0,1,1-5.28,5.36L239.9,64.66,227.18,77.19a3.76,3.76,0,0,1-5.28-5.36l12.64-12.45L221.9,46.94a3.76,3.76,0,0,1,5.28-5.36L239.9,54.1l12.72-12.53a3.75,3.75,0,0,1,2.64-1.08m0-2a5.73,5.73,0,0,0-4,1.66L239.9,51.3,228.58,40.15a5.76,5.76,0,1,0-8.08,8.21l11.19,11-11.19,11a5.76,5.76,0,1,0,8.08,8.21L239.9,67.47l11.32,11.15a5.76,5.76,0,1,0,8.08-8.21l-11.19-11,11.19-11a5.76,5.76,0,0,0-4-9.87Z"/><rect class="cls-1" x="127.95" y="38.24" width="73.75" height="16.23"/><rect class="cls-1" x="131.97" y="41.83" width="9.05" height="9.05"/><line class="cls-1" x1="145.6" y1="42.58" x2="195.79" y2="42.58"/><line class="cls-1" x1="145.6" y1="46.13" x2="195.79" y2="46.13"/><line class="cls-1" x1="145.6" y1="49.69" x2="195.79" y2="49.69"/><rect class="cls-1" x="127.95" y="58.98" width="73.75" height="16.23"/><rect class="cls-1" x="131.97" y="62.57" width="9.05" height="9.05"/><line class="cls-1" x1="145.6" y1="63.32" x2="195.79" y2="63.32"/><line class="cls-1" x1="145.6" y1="66.87" x2="195.79" y2="66.87"/><line class="cls-1" x1="145.6" y1="70.43" x2="195.79" y2="70.43"/></g></g></svg>