<svg xmlns="http://www.w3.org/2000/svg" viewBox="0 0 651.5 211.62"><defs><style>.cls-1{isolation:isolate;}.cls-2{fill:#ccc;mix-blend-mode:multiply;}.cls-15,.cls-3{font-size:24px;}.cls-15,.cls-18,.cls-3{fill:#fff;}.cls-3{font-family:HelveticaNeueLTPro-Lt, HelveticaNeueLTPro Lt;}.cls-4{letter-spacing:-0.04em;}.cls-5{letter-spacing:-0.01em;}.cls-6{letter-spacing:0em;}.cls-7{letter-spacing:-0.01em;}.cls-8{letter-spacing:-0.01em;}.cls-9{letter-spacing:-0.01em;}.cls-10{letter-spacing:0.02em;}.cls-11{letter-spacing:0.02em;}.cls-12{letter-spacing:-0.07em;}.cls-13{letter-spacing:-0.01em;}.cls-14{letter-spacing:-0.01em;}.cls-15{font-family:ArialMT, Arial;}.cls-16{fill:#0066ae;stroke-width:3px;}.cls-16,.cls-19{stroke:#fff;stroke-linecap:round;stroke-linejoin:round;}.cls-17,.cls-19{fill:#64c202;}.cls-19{stroke-width:2px;}</style></defs><title>benchmark</title><g class="cls-1"><g id="Layer_2" data-name="Layer 2"><g id="Layer_1-2" data-name="Layer 1"><rect class="cls-2" x="21.5" y="151.62" width="630" height="60" rx="10" ry="10"/><text class="cls-3" transform="translate(230.54 47.15)"><tspan class="cls-4"> </tspan><tspan class="cls-5" x="4.1" y="0">T</tspan><tspan x="15.86" y="0">his is the p</tspan><tspan class="cls-6" x="121.63" y="0">r</tspan><tspan x="129.57" y="0">i</tspan><tspan class="cls-7" x="135.19" y="0">c</tspan><tspan x="145.8" y="0">e </tspan><tspan class="cls-8" x="162.91" y="0">y</tspan><tspan x="173.97" y="0">ou will p</tspan><tspan class="cls-9" x="258.81" y="0">a</tspan><tspan x="270.19" y="0">y each time </tspan><tspan x="-1.58" y="28.8">someone clicks on </tspan><tspan class="cls-8" x="186.96" y="28.8">y</tspan><tspan x="198.02" y="28.8">our paid sea</tspan><tspan class="cls-8" x="319.92" y="28.8">r</tspan><tspan x="327.52" y="28.8">ch a</tspan><tspan class="cls-8" x="368.25" y="28.8">d</tspan><tspan x="381.55" y="28.8">. </tspan><tspan class="cls-10" x="43.32" y="57.6">I</tspan><tspan class="cls-11" x="49.44" y="57.6">t</tspan><tspan class="cls-12" x="57.89" y="57.6">’</tspan><tspan x="61.13" y="57.6">s set be</tspan><tspan class="cls-13" x="135.96" y="57.6">f</tspan><tspan x="142.65" y="57.6">o</tspan><tspan class="cls-8" x="155.83" y="57.6">r</tspan><tspan x="163.44" y="57.6">e the ad goes li</tspan><tspan class="cls-8" x="313.6" y="57.6">v</tspan><tspan class="cls-14" x="324.91" y="57.6">e</tspan><tspan x="336.64" y="57.6">. </tspan></text><text class="cls-15" transform="translate(53.78 191.62)">The benchmark for CPC in the auto industry is $1.43.</text><circle class="cls-16" cx="21.5" cy="181.62" r="20"/><polyline class="cls-16" points="10.5 184.37 19.25 190.98 31.5 174.62"/><path class="cls-17" d="M191.06,68.34h-.22A2.09,2.09,0,0,1,189,65.75l.09-1a10.84,10.84,0,0,1-2.45-.93,7.22,7.22,0,0,1-2.46-2.2A8.27,8.27,0,0,1,183,59.52a5.14,5.14,0,0,1-.32-2.14,3.13,3.13,0,0,1,3.09-2.82h.3A3.11,3.11,0,0,1,189,57.38a3,3,0,0,0,.62,1.44l.41-4.61c-1.07-.41-2-.79-2.64-1.12a8,8,0,0,1-2.41-1.8,7.4,7.4,0,0,1-1.63-2.74,8.08,8.08,0,0,1-.36-3.31,8.59,8.59,0,0,1,1.39-4,8.23,8.23,0,0,1,3.32-2.87,10.14,10.14,0,0,1,3.83-1l.3-3.35a4.84,4.84,0,0,1,.44-1.83,1.75,1.75,0,0,1,1.63-.92h.24a1.92,1.92,0,0,1,1.62,1A3,3,0,0,1,196,34l-.33,3.73a11.17,11.17,0,0,1,2.83,1.16,9.3,9.3,0,0,1,2.6,2.24,8.44,8.44,0,0,1,1.44,2.66,6.86,6.86,0,0,1,.32,2.68,3,3,0,0,1-1.11,2.08,3.09,3.09,0,0,1-2.07.76h-.32a3.26,3.26,0,0,1-1.8-.69,2.83,2.83,0,0,1-1-1.63,20.93,20.93,0,0,0-.57-2.08,3.15,3.15,0,0,0-.69-1.09l-.16-.15-.5,5.61a20.37,20.37,0,0,1,3.15,1.55A7.12,7.12,0,0,1,201.14,58a7.52,7.52,0,0,1-2.64,5.3,8.88,8.88,0,0,1-5.3,1.9l-.08.92C192.93,68.18,191.49,68.34,191.06,68.34Zm2.65-8.84a3.4,3.4,0,0,0,.61-.35c.12-.09.49-.36.58-1.32a1.68,1.68,0,0,0-.31-1.34A3.54,3.54,0,0,0,194,56ZM191,43a3,3,0,0,0-1,.6,2.52,2.52,0,0,0-.83,1.69,2,2,0,0,0,.44,1.59,4.55,4.55,0,0,0,1,.75Z"/><path class="cls-18" d="M193.87,32.31H194a1,1,0,0,1,.82.45,2.15,2.15,0,0,1,.14,1.18l-.41,4.59A10.77,10.77,0,0,1,198,39.78a8.26,8.26,0,0,1,2.32,2,7.43,7.43,0,0,1,1.27,2.34,5.87,5.87,0,0,1,.27,2.29,2.07,2.07,0,0,1-.77,1.41,2.1,2.1,0,0,1-1.41.52h-.23a2.26,2.26,0,0,1-1.26-.47,1.85,1.85,0,0,1-.64-1.07,21.59,21.59,0,0,0-.61-2.2,4.12,4.12,0,0,0-.91-1.44,4.61,4.61,0,0,0-1.74-1.1l-.71,7.9a20.85,20.85,0,0,1,3.68,1.74,6.43,6.43,0,0,1,2.28,2.42,7.31,7.31,0,0,1-1.67,8.38,8.35,8.35,0,0,1-5.54,1.69h0l-.16,1.8q-.12,1.34-1.07,1.34h-.13q-1.09-.1-1-1.49l.16-1.84a10.66,10.66,0,0,1-3.05-1,6.18,6.18,0,0,1-2.12-1.9,7.26,7.26,0,0,1-1-1.89,4.13,4.13,0,0,1-.27-1.72,2,2,0,0,1,.75-1.42,2,2,0,0,1,1.35-.5H186a2.12,2.12,0,0,1,2,2,3.87,3.87,0,0,0,2.45,3.06l.63-7.07q-2.06-.77-3.26-1.35a7,7,0,0,1-2.11-1.58,6.39,6.39,0,0,1-1.42-2.38,7.05,7.05,0,0,1-.32-2.9,7.58,7.58,0,0,1,1.23-3.55,7.21,7.21,0,0,1,2.92-2.52,9.53,9.53,0,0,1,4.24-.9h.07l.38-4.23a4,4,0,0,1,.33-1.44.77.77,0,0,1,.75-.39m-1.75,9.38a4.69,4.69,0,0,0-2.77,1.14,3.51,3.51,0,0,0-1.15,2.33,2.91,2.91,0,0,0,.71,2.37,7.43,7.43,0,0,0,2.55,1.61l.66-7.44m.46,19.19a6,6,0,0,0,2.33-.92,3.17,3.17,0,0,0,.42-4.13,6.9,6.9,0,0,0-2.17-1.45l-.58,6.51m1.29-30.57a2.75,2.75,0,0,0-2.51,1.45A5.72,5.72,0,0,0,190.8,34l-.23,2.52a10.83,10.83,0,0,0-3.35,1,9.22,9.22,0,0,0-3.71,3.22A9.59,9.59,0,0,0,182,45.17a9.07,9.07,0,0,0,.41,3.71A8.41,8.41,0,0,0,184.23,52a8.89,8.89,0,0,0,1.92,1.58l-.38,0a4.06,4.06,0,0,0-2.63,1,4,4,0,0,0-1.46,2.77,6.12,6.12,0,0,0,.37,2.56,9.29,9.29,0,0,0,1.3,2.41,8.15,8.15,0,0,0,2.78,2.48,11,11,0,0,0,1.86.78v.14a3.61,3.61,0,0,0,.49,2.33,3,3,0,0,0,2.29,1.33h.31a3.1,3.1,0,0,0,3.06-3.16v-.09a9.45,9.45,0,0,0,5-2.05,8.65,8.65,0,0,0-.48-13.79,5,5,0,0,0,.58.08l.41,0a4.12,4.12,0,0,0,2.72-1,4.06,4.06,0,0,0,1.46-2.75,7.89,7.89,0,0,0-.36-3.07,9.45,9.45,0,0,0-1.61-3A10.28,10.28,0,0,0,199,38.06a11.59,11.59,0,0,0-2.27-1l.26-2.91a4,4,0,0,0-.37-2.3,2.89,2.89,0,0,0-2.41-1.5Zm1.81,18.34.07-.81a3.83,3.83,0,0,0,.73,1.17l-.8-.36Zm-6.75,6.28-.09-.1.09,0v.06Z"/><path class="cls-17" d="M162.4,85.85h-.22a1.94,1.94,0,0,1-1.54-.87,2.64,2.64,0,0,1-.33-1.7l.09-1a10.79,10.79,0,0,1-2.45-.93,7.19,7.19,0,0,1-2.46-2.2A8.23,8.23,0,0,1,154.33,77a5.14,5.14,0,0,1-.32-2.14,3.13,3.13,0,0,1,3.09-2.82h.3a3.11,3.11,0,0,1,2.89,2.81,3,3,0,0,0,.62,1.44l.41-4.61c-1.07-.41-2-.79-2.64-1.12a8,8,0,0,1-2.41-1.8,7.4,7.4,0,0,1-1.63-2.74,8.08,8.08,0,0,1-.36-3.31,8.6,8.6,0,0,1,1.39-4A8.23,8.23,0,0,1,159,55.89a10.17,10.17,0,0,1,3.83-1l.3-3.35a4.81,4.81,0,0,1,.44-1.83,1.75,1.75,0,0,1,1.63-.92h.24a1.9,1.9,0,0,1,1.62,1,3.05,3.05,0,0,1,.26,1.74L167,55.27a11.17,11.17,0,0,1,2.83,1.16,9.32,9.32,0,0,1,2.6,2.24,8.49,8.49,0,0,1,1.44,2.66,6.87,6.87,0,0,1,.32,2.68,3,3,0,0,1-1.11,2.08,3.09,3.09,0,0,1-2.07.76h-.32a3.24,3.24,0,0,1-1.8-.69,2.83,2.83,0,0,1-1-1.63,20.87,20.87,0,0,0-.57-2.08,3.12,3.12,0,0,0-.69-1.09l-.16-.15-.5,5.61a20.39,20.39,0,0,1,3.15,1.55,7.91,7.91,0,0,1,.73,12.42,8.89,8.89,0,0,1-5.3,1.9l-.08.92C164.28,85.69,162.84,85.85,162.4,85.85ZM165.05,77a3.4,3.4,0,0,0,.61-.35c.12-.09.49-.36.58-1.32a1.69,1.69,0,0,0-.31-1.34,3.63,3.63,0,0,0-.57-.49Zm-2.71-16.53a3,3,0,0,0-1,.6,2.51,2.51,0,0,0-.83,1.69,1.94,1.94,0,0,0,.44,1.59,4.54,4.54,0,0,0,1,.75Z"/><path class="cls-18" d="M165.21,49.83h.15a1,1,0,0,1,.82.45,2.15,2.15,0,0,1,.14,1.18L165.92,56a10.79,10.79,0,0,1,3.39,1.25,8.26,8.26,0,0,1,2.32,2,7.43,7.43,0,0,1,1.27,2.34,5.87,5.87,0,0,1,.27,2.29,2.07,2.07,0,0,1-.77,1.41,2.11,2.11,0,0,1-1.41.52h-.23a2.26,2.26,0,0,1-1.26-.47,1.85,1.85,0,0,1-.64-1.07,21.63,21.63,0,0,0-.61-2.2,4.12,4.12,0,0,0-.91-1.44,4.61,4.61,0,0,0-1.74-1.1l-.71,7.9a20.81,20.81,0,0,1,3.68,1.74,6.43,6.43,0,0,1,2.28,2.42A7.31,7.31,0,0,1,169.2,80a8.35,8.35,0,0,1-5.54,1.69h0l-.16,1.8q-.12,1.34-1.07,1.34h-.13q-1.09-.1-1-1.49l.16-1.84a10.66,10.66,0,0,1-3.05-1,6.18,6.18,0,0,1-2.12-1.9,7.26,7.26,0,0,1-1-1.89A4.13,4.13,0,0,1,155,75a2,2,0,0,1,.75-1.41,2,2,0,0,1,1.35-.5h.21a2.12,2.12,0,0,1,2,2,3.87,3.87,0,0,0,2.45,3.06l.63-7.07q-2.06-.77-3.26-1.35A7,7,0,0,1,157,68.14a6.39,6.39,0,0,1-1.42-2.38,7,7,0,0,1-.32-2.9,7.58,7.58,0,0,1,1.23-3.55,7.21,7.21,0,0,1,2.92-2.52,9.53,9.53,0,0,1,4.24-.9h.07l.38-4.23a4,4,0,0,1,.33-1.44.77.77,0,0,1,.75-.39m-1.75,9.38a4.68,4.68,0,0,0-2.77,1.14,3.51,3.51,0,0,0-1.15,2.33,2.91,2.91,0,0,0,.71,2.37,7.43,7.43,0,0,0,2.55,1.61l.67-7.44m.46,19.19a6,6,0,0,0,2.33-.92,3.17,3.17,0,0,0,.42-4.13,6.9,6.9,0,0,0-2.17-1.45l-.58,6.51m1.29-30.57a2.75,2.75,0,0,0-2.51,1.44,5.72,5.72,0,0,0-.56,2.21L161.92,54a10.81,10.81,0,0,0-3.35,1,9.22,9.22,0,0,0-3.71,3.22,9.59,9.59,0,0,0-1.56,4.47,9.06,9.06,0,0,0,.41,3.71,8.41,8.41,0,0,0,1.86,3.12,8.9,8.9,0,0,0,1.92,1.58l-.38,0A4.13,4.13,0,0,0,153,74.8a6.12,6.12,0,0,0,.37,2.56,9.29,9.29,0,0,0,1.3,2.41,8.15,8.15,0,0,0,2.78,2.48,10.91,10.91,0,0,0,1.86.78v.14a3.08,3.08,0,0,0,2.78,3.66h.31a3.1,3.1,0,0,0,3.06-3.16V83.6a9.45,9.45,0,0,0,5-2.05A8.65,8.65,0,0,0,170,67.76a5,5,0,0,0,.58.09l.41,0a4.12,4.12,0,0,0,2.72-1,4.06,4.06,0,0,0,1.46-2.75,7.89,7.89,0,0,0-.36-3.07,9.46,9.46,0,0,0-1.61-3,10.3,10.3,0,0,0-2.88-2.48,11.6,11.6,0,0,0-2.27-1l.26-2.91a4,4,0,0,0-.37-2.3,2.89,2.89,0,0,0-2.41-1.5ZM167,66.17l.07-.81a3.83,3.83,0,0,0,.73,1.17l-.8-.36Zm-6.75,6.28-.09-.1.09,0v.06Z"/><path class="cls-17" d="M171.5,38h-.22a1.94,1.94,0,0,1-1.53-.87,2.64,2.64,0,0,1-.33-1.7l.09-1a10.78,10.78,0,0,1-2.45-.93,7.19,7.19,0,0,1-2.46-2.2,8.19,8.19,0,0,1-1.15-2.14,5.13,5.13,0,0,1-.32-2.14,3.13,3.13,0,0,1,3.09-2.82h.3a3.11,3.11,0,0,1,2.89,2.81,3,3,0,0,0,.62,1.44l.41-4.61c-1.07-.41-2-.79-2.64-1.12a8,8,0,0,1-2.41-1.8,7.4,7.4,0,0,1-1.63-2.74,8.07,8.07,0,0,1-.36-3.3,8.6,8.6,0,0,1,1.39-4,8.24,8.24,0,0,1,3.32-2.87,10.16,10.16,0,0,1,3.83-1l.3-3.35a4.8,4.8,0,0,1,.44-1.83A1.74,1.74,0,0,1,174.31,1h.24a1.92,1.92,0,0,1,1.62,1,3,3,0,0,1,.26,1.74l-.33,3.72a11.17,11.17,0,0,1,2.83,1.16,9.29,9.29,0,0,1,2.6,2.24A8.48,8.48,0,0,1,183,13.51a6.91,6.91,0,0,1,.32,2.68,3,3,0,0,1-1.11,2.08,3.09,3.09,0,0,1-2.07.76h-.32a3.24,3.24,0,0,1-1.8-.69,2.84,2.84,0,0,1-1-1.63,20.33,20.33,0,0,0-.57-2.08,3.16,3.16,0,0,0-.69-1.09l-.16-.15-.5,5.61a20.39,20.39,0,0,1,3.15,1.55,7.12,7.12,0,0,1,3.38,7.12,7.52,7.52,0,0,1-2.64,5.3,8.87,8.87,0,0,1-5.3,1.9l-.08.92C173.38,37.86,171.94,38,171.5,38Zm2.65-8.84a3.4,3.4,0,0,0,.61-.35c.12-.09.49-.36.58-1.32a1.68,1.68,0,0,0-.31-1.34,3.5,3.5,0,0,0-.57-.49Zm-2.71-16.53a3,3,0,0,0-1,.6,2.52,2.52,0,0,0-.83,1.69,2,2,0,0,0,.44,1.59,4.55,4.55,0,0,0,1,.75Z"/><path class="cls-18" d="M174.31,2h.15a1,1,0,0,1,.82.45,2.15,2.15,0,0,1,.14,1.18L175,8.22a10.79,10.79,0,0,1,3.39,1.25,8.26,8.26,0,0,1,2.32,2A7.43,7.43,0,0,1,182,13.81a5.87,5.87,0,0,1,.27,2.29,2.07,2.07,0,0,1-.77,1.41,2.11,2.11,0,0,1-1.41.52h-.23a2.26,2.26,0,0,1-1.26-.47,1.85,1.85,0,0,1-.64-1.07,21.59,21.59,0,0,0-.61-2.2,4.12,4.12,0,0,0-.91-1.44,4.61,4.61,0,0,0-1.74-1.1l-.71,7.9a20.85,20.85,0,0,1,3.68,1.74A6.43,6.43,0,0,1,180,23.81a6.52,6.52,0,0,1,.62,3.76,6.53,6.53,0,0,1-2.29,4.63,8.35,8.35,0,0,1-5.54,1.69h0l-.16,1.8Q172.45,37,171.5,37h-.13q-1.09-.1-1-1.49l.16-1.84a10.66,10.66,0,0,1-3.05-1,6.18,6.18,0,0,1-2.12-1.9,7.26,7.26,0,0,1-1-1.89,4.13,4.13,0,0,1-.27-1.72,2,2,0,0,1,.75-1.41,2,2,0,0,1,1.35-.5h.21a2.12,2.12,0,0,1,2,2,3.87,3.87,0,0,0,2.45,3.06l.63-7.07q-2.06-.77-3.26-1.35a7,7,0,0,1-2.11-1.58,6.39,6.39,0,0,1-1.42-2.38,7,7,0,0,1-.32-2.9,7.58,7.58,0,0,1,1.23-3.55A7.21,7.21,0,0,1,168.55,9a9.52,9.52,0,0,1,4.24-.9h.07l.38-4.23a4,4,0,0,1,.33-1.44.77.77,0,0,1,.75-.39m-1.75,9.38a4.68,4.68,0,0,0-2.77,1.14,3.51,3.51,0,0,0-1.15,2.33,2.91,2.91,0,0,0,.71,2.37,7.43,7.43,0,0,0,2.55,1.61l.66-7.44M173,30.57a6,6,0,0,0,2.33-.92,2.66,2.66,0,0,0,1-2,2.63,2.63,0,0,0-.57-2.1,6.9,6.9,0,0,0-2.17-1.45L173,30.57M174.31,0a2.75,2.75,0,0,0-2.51,1.44,5.72,5.72,0,0,0-.56,2.21L171,6.18a10.81,10.81,0,0,0-3.35,1A9.22,9.22,0,0,0,164,10.39a9.59,9.59,0,0,0-1.55,4.47,9.07,9.07,0,0,0,.41,3.71,8.41,8.41,0,0,0,1.86,3.12,8.89,8.89,0,0,0,1.92,1.58l-.38,0a4.06,4.06,0,0,0-2.63,1A4,4,0,0,0,162.12,27a6.12,6.12,0,0,0,.37,2.56,9.29,9.29,0,0,0,1.3,2.41,8.15,8.15,0,0,0,2.78,2.48,11,11,0,0,0,1.86.78v.14A3.08,3.08,0,0,0,171.19,39h.31a3.1,3.1,0,0,0,3.06-3.16v-.09a9.45,9.45,0,0,0,5-2.05,8.49,8.49,0,0,0,3-6,8.1,8.1,0,0,0-3.47-7.81,5,5,0,0,0,.58.09l.41,0a4.12,4.12,0,0,0,2.72-1,4.06,4.06,0,0,0,1.46-2.75,7.89,7.89,0,0,0-.36-3.07,9.45,9.45,0,0,0-1.61-3,10.28,10.28,0,0,0-2.88-2.48,11.6,11.6,0,0,0-2.27-1l.26-2.91a4,4,0,0,0-.37-2.3A2.89,2.89,0,0,0,174.64,0Zm1.81,18.34.07-.81a3.82,3.82,0,0,0,.73,1.17l-.8-.36Zm-6.75,6.28-.09-.1.09,0v.06Z"/><g id="_Group_" data-name="&lt;Group&gt;"><path class="cls-19" d="M116.59,29.58a3.61,3.61,0,0,1-.71,5.19c-2.61,2-5.28,3.83-7.91,5.75-2.41,1.76-4.81,3.52-7.24,5.23-2,1.4-4.19,1.14-5.48-.6a3.79,3.79,0,0,1,1-5.43q7.52-5.55,15.14-11A3.7,3.7,0,0,1,116.59,29.58Z"/><path class="cls-19" d="M89.33,12.83c2.27.31,3.52,2.2,3.12,4.86-.94,5.92-1.85,11.87-2.87,17.8A10.29,10.29,0,0,1,88.46,38c-1.87,1.14-3.23,1.2-4.59.4a3.56,3.56,0,0,1-1.76-3.81c.33-2.56.8-5.1,1.2-7.64.56-3.5,1.09-7,1.69-10.51C85.43,13.9,87.1,12.52,89.33,12.83Z"/><path class="cls-19" d="M74.43,36.06c1.43,2,1.11,4.37-.67,5.63s-4,.78-5.5-1.29C66.46,38,64.7,35.51,62.91,33s-3.5-4.81-5.23-7.22c-1.4-2-1.18-4.19.51-5.5a3.82,3.82,0,0,1,5.57,1Q69.11,28.67,74.43,36.06Z"/><path class="cls-19" d="M70.29,63c1.36,1.83,1,4-1.09,5.52-2.47,1.87-5,3.65-7.51,5.46s-4.83,3.52-7.26,5.23c-2,1.38-4.23,1.09-5.48-.65A3.77,3.77,0,0,1,50,73.17q7.35-5.41,14.77-10.69C66.81,61,69,61.3,70.29,63Z"/><path class="cls-19" d="M67.57,50.32c.36,1.51-.18,2.81-1.85,4.14a9.7,9.7,0,0,1-2.65.27C57,53.84,51,52.84,44.92,51.83a3.74,3.74,0,0,1-3.36-4.34,3.69,3.69,0,0,1,4.54-3.1c6.1,1,12.21,2,18.31,2.94A3.64,3.64,0,0,1,67.57,50.32Z"/></g><path class="cls-17" d="M131.95,129.47a29,29,0,0,1-7.14-.95,30.8,30.8,0,0,1-16.52-10.23c-3.67-4.56-7.09-9.42-10.41-14.12-1.47-2.08-2.94-4.17-4.44-6.24a1,1,0,0,1,.44-1.52,8.64,8.64,0,0,1,3.19-.61,8.84,8.84,0,0,1,7.08,3.59c1.24,1.65,2.47,3.36,3.65,5,.77,1.08,1.54,2.15,2.33,3.22a3.21,3.21,0,0,0,2.38,1.53,2.6,2.6,0,0,0,1.53-.57c1.37-1,1.46-2.36.25-4-6.06-8.45-11.53-16-16.7-23.16L79.81,56.92c-1.61-2.24-1.36-4.69.61-6.1A4,4,0,0,1,82.76,50a4.59,4.59,0,0,1,3.66,2.08l5.51,7.6,5.5,7.59,5.05,7q3.61,5,7.22,10A3,3,0,0,0,112,85.81a2.63,2.63,0,0,0,1.46-.53,2.48,2.48,0,0,0,1.16-1.58,3.27,3.27,0,0,0-.79-2.37c-1.83-2.51-3.69-5-5.54-7.51L105.5,70a3.76,3.76,0,0,1-.92-2.73,3.9,3.9,0,0,1,1.76-2.39l.35-.26.3-.23a4.6,4.6,0,0,1,2.65-1.11c1.37,0,2.28,1.07,3,2.11,2.66,3.86,5.38,7.71,8.09,11.42a2.44,2.44,0,0,0,2,1.17,2.73,2.73,0,0,0,1.59-.58,2.54,2.54,0,0,0,1.12-1.62,2.84,2.84,0,0,0-.65-2.09l-.16-.21c-1.22-1.7-2.5-3.42-3.77-5.13q-1.3-1.76-2.6-3.51a4.4,4.4,0,0,1,3.55-7.07h0a4.28,4.28,0,0,1,2.94,1.81c1.4,1.86,2.77,3.81,4.09,5.69.8,1.14,1.6,2.28,2.42,3.4a3.14,3.14,0,0,0,2.32,1.51,2.63,2.63,0,0,0,1.55-.59c1.69-1.24,1.1-2.82.32-3.92l-.55-.78c-1.15-1.62-2.33-3.29-3.57-4.89a3,3,0,0,1,.41-4.5,15.36,15.36,0,0,1,1.27-1l.29-.21a3.46,3.46,0,0,1,2-.71,3.1,3.1,0,0,1,2.53,1.46c.73,1,1.44,2,2.15,3l7.66,10.58Q155,78.84,162.41,89.09a18.78,18.78,0,0,1-1.51,24.46,19,19,0,0,1-2.77,2.33c-1.46,1.07-2.93,2.12-4.4,3.18-2.49,1.78-5.06,3.63-7.53,5.51A23.09,23.09,0,0,1,131.95,129.47Z"/><path class="cls-18" d="M82.76,51a3.62,3.62,0,0,1,2.85,1.67c3.67,5.06,7.33,10.13,11,15.19,4.1,5.66,8.17,11.34,12.27,17A4,4,0,0,0,112,86.81a3.59,3.59,0,0,0,2-.7c1.92-1.31,2.16-3.25.62-5.37-2.76-3.79-5.57-7.53-8.35-11.29-1.16-1.56-1-2.54.62-3.72.22-.18.47-.33.69-.51a3.7,3.7,0,0,1,2-.89c.77,0,1.4.55,2.16,1.67q4,5.78,8.11,11.45A3.42,3.42,0,0,0,122.69,79a3.69,3.69,0,0,0,2.18-.78,3.36,3.36,0,0,0,.69-5.1l-.13-.18c-2.09-2.92-4.28-5.79-6.39-8.69a3.41,3.41,0,0,1,2.76-5.48h0a3.3,3.3,0,0,1,2.09,1.4c2.23,3,4.32,6.06,6.5,9.09a4,4,0,0,0,3.13,1.93,3.6,3.6,0,0,0,2.15-.79c1.78-1.31,2-3.27.53-5.3s-2.69-3.83-4.14-5.7a2,2,0,0,1,.29-3.14c.47-.42,1-.78,1.49-1.16a2.46,2.46,0,0,1,1.4-.52A2.17,2.17,0,0,1,137,55.66c.76,1,1.49,2,2.23,3.07q11.19,15.47,22.38,30.94a17.73,17.73,0,0,1-4.05,25.39c-4,2.92-8,5.72-12,8.71a22,22,0,0,1-13.64,4.7,27.85,27.85,0,0,1-6.89-.92,29.64,29.64,0,0,1-16-9.89c-5.23-6.5-9.87-13.47-14.81-20.31a7.66,7.66,0,0,1,2.82-.54,7.87,7.87,0,0,1,6.29,3.19c2,2.69,4,5.48,6,8.22a4.05,4.05,0,0,0,3.19,1.94,3.57,3.57,0,0,0,2.12-.76c1.83-1.34,2-3.3.47-5.41q-8.32-11.59-16.7-23.16L80.62,56.33c-1.29-1.8-1.11-3.63.38-4.7A3,3,0,0,1,82.76,51m0-2h0a5,5,0,0,0-2.94,1c-2.4,1.72-2.74,4.8-.82,7.48l8.91,12.28L96.77,82c5.14,7.08,10.6,14.66,16.7,23.16,1.24,1.71.45,2.29,0,2.63a1.64,1.64,0,0,1-.93.37c-.65,0-1.26-.7-1.57-1.12-.78-1.07-1.56-2.15-2.33-3.22-1.19-1.65-2.41-3.36-3.66-5a9.83,9.83,0,0,0-7.88-4,9.64,9.64,0,0,0-3.56.68,2,2,0,0,0-.88,3c1.49,2.07,3,4.18,4.43,6.23,3.32,4.71,6.76,9.59,10.44,14.16a31.79,31.79,0,0,0,17.05,10.57,30,30,0,0,0,7.39,1,24.07,24.07,0,0,0,14.85-5.11c2.46-1.87,5-3.71,7.5-5.49,1.48-1.06,3-2.12,4.43-3.2a19.72,19.72,0,0,0,4.5-28.17c-5-6.9-10-13.89-14.93-20.65l-7.45-10.29c-.74-1-1.48-2.06-2.24-3.09a4.06,4.06,0,0,0-3.33-1.86,4.41,4.41,0,0,0-2.55.88l-.31.22A16.49,16.49,0,0,0,131,54.8a4,4,0,0,0-.53,5.85c1.23,1.58,2.41,3.25,3.55,4.87l.54.77c1.15,1.62.34,2.21-.09,2.53a1.76,1.76,0,0,1-1,.4c-.62,0-1.21-.69-1.51-1.1-.81-1.12-1.61-2.26-2.41-3.39-1.33-1.89-2.7-3.84-4.12-5.72a5.08,5.08,0,0,0-3.68-2.2h-.1a5.43,5.43,0,0,0-4.83,3,5.49,5.49,0,0,0,.51,5.66c.87,1.19,1.74,2.36,2.61,3.54,1.25,1.68,2.54,3.42,3.77,5.13l.14.19,0,0a2,2,0,0,1,.47,1.34,1.63,1.63,0,0,1-.71,1,1.76,1.76,0,0,1-1,.4,1.47,1.47,0,0,1-1.16-.74c-2.71-3.71-5.42-7.55-8.09-11.42-.51-.75-1.72-2.54-3.81-2.54a5.61,5.61,0,0,0-3.2,1.27l-.08.06-.26.19-.39.29a4.78,4.78,0,0,0-2.13,3,4.68,4.68,0,0,0,1.11,3.48l2.79,3.77c1.83,2.46,3.71,5,5.55,7.51a2.39,2.39,0,0,1,.61,1.61,1.56,1.56,0,0,1-.75.93,1.76,1.76,0,0,1-.9.35c-.59,0-1.2-.71-1.5-1.13q-3.61-5-7.2-10l-5.06-7-5.5-7.59-5.5-7.6A5.57,5.57,0,0,0,82.76,49Z"/></g></g></g></svg>