<svg xmlns="http://www.w3.org/2000/svg" viewBox="0 0 422.77 239.11"><defs><style>.cls-1{isolation:isolate;}.cls-2{fill:#fff;}.cls-3,.cls-7{fill:#2f9622;}.cls-10,.cls-11,.cls-12,.cls-13,.cls-15,.cls-3,.cls-8,.cls-9{stroke:#fff;}.cls-11,.cls-12,.cls-15,.cls-3,.cls-8{stroke-linecap:round;stroke-linejoin:round;}.cls-15,.cls-3,.cls-8,.cls-9{stroke-width:2px;}.cls-4{font-size:28px;fill:#0066ae;font-family:ArialMT, Arial;}.cls-5{letter-spacing:-0.07em;}.cls-6{opacity:0.27;mix-blend-mode:multiply;}.cls-10,.cls-11,.cls-12,.cls-13,.cls-8,.cls-9{fill:none;}.cls-10,.cls-13,.cls-9{stroke-miterlimit:10;}.cls-10,.cls-11{stroke-width:1.5px;}.cls-12{stroke-width:1.32px;}.cls-13{stroke-width:1.3px;}.cls-14,.cls-15{fill:#64c202;}</style></defs><title>click-thru</title><g class="cls-1"><g id="Layer_2" data-name="Layer 2"><g id="Layer_1-2" data-name="Layer 1"><rect class="cls-2" x="0.04" width="330" height="50"/><path class="cls-3" d="M265,0" transform="translate(0 -12.84)"/><text class="cls-4" transform="translate(37.57 33.96)">CLICK-THRU R<tspan class="cls-5" x="197.56" y="0">A</tspan><tspan x="214.16" y="0">TE</tspan></text><g class="cls-6"><path class="cls-7" d="M360,243.51h14.34c12.25,0,15.54-6.91,15.54-26.35V177c0-34.29,17-39.4,20.91-42.73-3.88-2-20.91-7.16-20.91-41.45V52.64c0-19.45-3.29-26.35-15.54-26.35H360V17.84H375c16.73,0,26.29,6.91,26.29,30.19V88.72c0,20.72,3.88,40.68,21.51,41.45v9.72c-17.63.77-21.51,20.72-21.51,41.45v40.43C401.26,245,391.7,252,375,252H360Z" transform="translate(0 -12.84)"/></g><path class="cls-8" d="M114.83,162.21a2.66,2.66,0,0,0-1.68,2.55v.3a2.61,2.61,0,0,0,1.93,2.41C114.92,165.74,114.84,163.89,114.83,162.21Z" transform="translate(0 -12.84)"/><path class="cls-8" d="M224.38,163.3c-.65-4-3.17-10.84-29.31-10.84,0,0-13.23-11.53-21.19-13-3.75-.7-23.62-5.32-58.2,20.41-2.52,1.87,0,12.49,0,12.49h6.83c0-7,4.48-10,10-10s10,3,10,10H194.2c0-7,4.48-10,10-10s10,3,10,10H224.5v-9Z" transform="translate(0 -12.84)"/><path class="cls-8" d="M114.54,168.83a1.33,1.33,0,0,0-1,1.1v1.42a1.19,1.19,0,0,0,1,1h8a13.06,13.06,0,0,1,.45-3.52Z" transform="translate(0 -12.84)"/><path class="cls-8" d="M224.29,168.83H213.77a13.05,13.05,0,0,1,.45,3.52h10.07c.36,0,.71-.45.71-1v-1.42C225,169.4,224.65,168.83,224.29,168.83Z" transform="translate(0 -12.84)"/><path class="cls-8" d="M142.07,168.83a13.05,13.05,0,0,1,.45,3.52H194.2a13.06,13.06,0,0,1,.45-3.52Z" transform="translate(0 -12.84)"/><path class="cls-8" d="M159.21,143.17a68.52,68.52,0,0,0-27.4,11.14h27.4Z" transform="translate(0 -12.84)"/><path class="cls-8" d="M163.22,154.31h27.42c-11.39-12.05-20.28-11.74-20.28-11.74a51,51,0,0,0-7.14.12Z" transform="translate(0 -12.84)"/><circle class="cls-8" cx="132.58" cy="160.1" r="6.93"/><circle class="cls-8" cx="204.58" cy="160.1" r="6.93"/><path class="cls-8" d="M220.94,160.67a1.55,1.55,0,0,1,1.25-.81,6.67,6.67,0,0,1,1.53,4.17h0v2.56c-1-.2-.93-.52-1.55-1C220.31,164.12,220,161.92,220.94,160.67Z" transform="translate(0 -12.84)"/><line class="cls-8" x1="163.22" y1="145.25" x2="173.04" y2="145.25"/><polygon class="cls-8" points="194.9 104.83 136.14 104.83 139.79 98.62 136.14 92.41 194.9 92.41 190.65 98.62 194.9 104.83"/><line class="cls-8" x1="30.22" y1="114.33" x2="72.56" y2="114.33"/><line class="cls-8" x1="86.99" y1="114.33" x2="129.33" y2="114.33"/><line class="cls-8" x1="143.77" y1="114.33" x2="186.1" y2="114.33"/><line class="cls-8" x1="200.54" y1="114.33" x2="242.87" y2="114.33"/><line class="cls-8" x1="257.31" y1="114.33" x2="299.64" y2="114.33"/><line class="cls-9" x1="330.04" y1="83.62" x2="1.04" y2="83.62"/><line class="cls-8" x1="17.29" y1="75.25" x2="123.31" y2="75.25"/><line class="cls-8" x1="318.24" y1="72.38" x2="323.72" y2="77.87"/><line class="cls-8" x1="318.24" y1="77.87" x2="323.72" y2="72.38"/><line class="cls-8" x1="310.76" y1="75.25" x2="302.87" y2="75.25"/><rect class="cls-8" x="1" y="67.01" width="329.04" height="161.91" rx="5.37" ry="5.37"/><path class="cls-10" d="M71.73,207.33a5.46,5.46,0,0,0-3.6-2.77,15.72,15.72,0,0,1-6-2.14c-3.55-2.3-5.27-7.1-14.51-7.1H42.44c-7.42,0-10.82,6.88-11.75,11.17a21.22,21.22,0,0,0,0,5c.07.82.48,1.62,1.31,1.62h2a5.8,5.8,0,0,1,5.59-5.59,5.8,5.8,0,0,1,5.59,5.59H57.49a5.59,5.59,0,0,1,11.17,0H70.8a1.47,1.47,0,0,0,1.68-1.59A11.75,11.75,0,0,0,71.73,207.33Z" transform="translate(0 -12.84)"/><circle class="cls-10" cx="39.51" cy="200.79" r="3.15"/><circle class="cls-10" cx="63.23" cy="200.79" r="3.15"/><path class="cls-10" d="M30,207.71c-.41.14-1.3.53-1.3,1v.12c0,.46.59.85,1,1C29.68,209.12,30,208.38,30,207.71Z" transform="translate(0 -12.84)"/><path class="cls-10" d="M70,206a1.08,1.08,0,0,0-.43,1.46l.42.77a1.08,1.08,0,0,0,1.46.43l.11-.06a1.07,1.07,0,0,0,.47-.52,4.2,4.2,0,0,0-.29-.78,5.27,5.27,0,0,0-1.16-1.48,1.06,1.06,0,0,0-.48.13Z" transform="translate(0 -12.84)"/><rect class="cls-11" x="43.44" y="185.69" width="4.85" height="4.15"/><path class="cls-11" d="M40.77,198.38v4.31H37C35.22,202.69,37.31,198.53,40.77,198.38Z" transform="translate(0 -12.84)"/><path class="cls-11" d="M57.68,202.38c-2.3-3.44-6.8-4-6.8-4v4.42h7C57.88,202.63,57.68,202.38,57.68,202.38Z" transform="translate(0 -12.84)"/><line class="cls-11" x1="49.89" y1="192.92" x2="52.75" y2="192.92"/><line class="cls-11" x1="42.85" y1="192.92" x2="45.7" y2="192.92"/><path class="cls-10" d="M84.85,208.52a1.12,1.12,0,0,0-.71,1.08v.13a1.1,1.1,0,0,0,.82,1C84.89,210,84.86,209.23,84.85,208.52Z" transform="translate(0 -12.84)"/><path class="cls-10" d="M131.24,209c-.27-1.7-1.34-4.59-12.41-4.59,0,0-5.6-4.88-9-5.51-1.59-.3-10-2.25-24.64,8.64-1.07.79,0,5.29,0,5.29h2.89a4.24,4.24,0,0,1,8.47,0h21.88a4.24,4.24,0,0,1,8.47,0h3.33a1,1,0,0,0,1-1Z" transform="translate(0 -12.84)"/><path class="cls-10" d="M84.73,211.32a.56.56,0,0,0-.44.47v.6a.5.5,0,0,0,.44.42h3.37a5.53,5.53,0,0,1,.19-1.49Z" transform="translate(0 -12.84)"/><path class="cls-10" d="M131.2,211.32h-4.45a5.53,5.53,0,0,1,.19,1.49h4.27c.15,0,.3-.19.3-.42v-.6C131.5,211.56,131.35,211.32,131.2,211.32Z" transform="translate(0 -12.84)"/><path class="cls-10" d="M96.39,211.32a5.53,5.53,0,0,1,.19,1.49h21.88a5.53,5.53,0,0,1,.19-1.49Z" transform="translate(0 -12.84)"/><path class="cls-12" d="M103.33,201.23a25.55,25.55,0,0,0-10.22,4.15h10.22Z" transform="translate(0 -12.84)"/><path class="cls-12" d="M105.56,205.38h10.23c-4.25-4.5-7.56-4.38-7.56-4.38a19,19,0,0,0-2.66,0Z" transform="translate(0 -12.84)"/><circle class="cls-13" cx="122.63" cy="200.44" r="2.55"/><circle class="cls-13" cx="92.38" cy="200.44" r="2.55"/><path class="cls-9" d="M129.78,207.87a.73.73,0,0,1,.57-.34,2.91,2.91,0,0,1,.69,1.77h0v1.08c-1-.08-.43-.22-.69-.43A1.55,1.55,0,0,1,129.78,207.87Z" transform="translate(0 -12.84)"/><line class="cls-12" x1="105.56" y1="193.95" x2="109.22" y2="193.95"/><path class="cls-10" d="M186.4,207.33a5.46,5.46,0,0,0-3.6-2.77,15.72,15.72,0,0,1-6-2.14c-3.55-2.3-5.27-7.1-14.51-7.1h-5.22c-7.42,0-10.82,6.88-11.75,11.17a21.22,21.22,0,0,0,0,5c.07.82.48,1.62,1.31,1.62h2a5.59,5.59,0,0,1,11.17,0h12.36a5.59,5.59,0,0,1,11.17,0h2.14a1.47,1.47,0,0,0,1.68-1.59A11.75,11.75,0,0,0,186.4,207.33Z" transform="translate(0 -12.84)"/><circle class="cls-10" cx="154.18" cy="200.79" r="3.15"/><circle class="cls-10" cx="177.9" cy="200.79" r="3.15"/><path class="cls-10" d="M144.67,207.71c-.41.14-1.3.53-1.3,1v.12c0,.46.59.85,1,1C144.35,209.12,144.64,208.38,144.67,207.71Z" transform="translate(0 -12.84)"/><path class="cls-10" d="M184.65,206a1.08,1.08,0,0,0-.43,1.46l.42.77a1.08,1.08,0,0,0,1.46.43l.11-.06a1.07,1.07,0,0,0,.47-.52,4.2,4.2,0,0,0-.29-.78,5.27,5.27,0,0,0-1.16-1.48,1.06,1.06,0,0,0-.48.13Z" transform="translate(0 -12.84)"/><rect class="cls-11" x="158.11" y="185.69" width="4.85" height="4.15"/><path class="cls-11" d="M155.44,198.38v4.31h-3.76C149.89,202.69,152,198.53,155.44,198.38Z" transform="translate(0 -12.84)"/><path class="cls-11" d="M172.34,202.38c-2.3-3.44-6.8-4-6.8-4v4.42h7C172.55,202.63,172.34,202.38,172.34,202.38Z" transform="translate(0 -12.84)"/><line class="cls-11" x1="164.56" y1="192.92" x2="167.41" y2="192.92"/><line class="cls-11" x1="157.52" y1="192.92" x2="160.37" y2="192.92"/><path class="cls-10" d="M243.73,207.33a5.46,5.46,0,0,0-3.6-2.77,15.72,15.72,0,0,1-6-2.14c-3.55-2.3-5.27-7.1-14.51-7.1h-5.22c-7.42,0-10.82,6.88-11.75,11.17a21.22,21.22,0,0,0,0,5c.07.82.48,1.62,1.31,1.62h2a5.59,5.59,0,0,1,11.17,0h12.36a5.59,5.59,0,0,1,11.17,0h2.14a1.47,1.47,0,0,0,1.68-1.59A11.75,11.75,0,0,0,243.73,207.33Z" transform="translate(0 -12.84)"/><circle class="cls-10" cx="211.51" cy="200.79" r="3.15"/><circle class="cls-10" cx="235.23" cy="200.79" r="3.15"/><path class="cls-10" d="M202,207.71c-.41.14-1.3.53-1.3,1v.12c0,.46.59.85,1,1C201.68,209.12,202,208.38,202,207.71Z" transform="translate(0 -12.84)"/><path class="cls-10" d="M242,206a1.08,1.08,0,0,0-.43,1.46l.42.77a1.08,1.08,0,0,0,1.46.43l.11-.06a1.07,1.07,0,0,0,.47-.52,4.2,4.2,0,0,0-.29-.78,5.27,5.27,0,0,0-1.16-1.48,1.06,1.06,0,0,0-.48.13Z" transform="translate(0 -12.84)"/><rect class="cls-11" x="215.44" y="185.69" width="4.85" height="4.15"/><path class="cls-11" d="M212.77,198.38v4.31H209C207.22,202.69,209.31,198.53,212.77,198.38Z" transform="translate(0 -12.84)"/><path class="cls-11" d="M229.68,202.38c-2.3-3.44-6.8-4-6.8-4v4.42h7C229.88,202.63,229.68,202.38,229.68,202.38Z" transform="translate(0 -12.84)"/><line class="cls-11" x1="221.89" y1="192.92" x2="224.75" y2="192.92"/><line class="cls-11" x1="214.85" y1="192.92" x2="217.7" y2="192.92"/><path class="cls-10" d="M301.06,207.33a5.46,5.46,0,0,0-3.6-2.77,15.72,15.72,0,0,1-6-2.14c-3.55-2.3-5.27-7.1-14.51-7.1h-5.22c-7.42,0-10.82,6.88-11.75,11.17a21.22,21.22,0,0,0,0,5c.07.82.48,1.62,1.31,1.62h2a5.59,5.59,0,0,1,11.17,0h12.36a5.59,5.59,0,0,1,11.17,0h2.14a1.47,1.47,0,0,0,1.68-1.59A11.75,11.75,0,0,0,301.06,207.33Z" transform="translate(0 -12.84)"/><circle class="cls-10" cx="268.85" cy="200.79" r="3.15"/><circle class="cls-10" cx="292.56" cy="200.79" r="3.15"/><path class="cls-10" d="M259.33,207.71c-.41.14-1.3.53-1.3,1v.12c0,.46.59.85,1,1C259,209.12,259.31,208.38,259.33,207.71Z" transform="translate(0 -12.84)"/><path class="cls-10" d="M299.31,206a1.08,1.08,0,0,0-.43,1.46l.42.77a1.08,1.08,0,0,0,1.46.43l.11-.06a1.07,1.07,0,0,0,.47-.52,4.2,4.2,0,0,0-.29-.78,5.27,5.27,0,0,0-1.16-1.48,1.06,1.06,0,0,0-.48.13Z" transform="translate(0 -12.84)"/><rect class="cls-11" x="272.78" y="185.69" width="4.85" height="4.15"/><path class="cls-11" d="M270.11,198.38v4.31h-3.76C264.56,202.69,266.64,198.53,270.11,198.38Z" transform="translate(0 -12.84)"/><path class="cls-11" d="M287,202.38c-2.3-3.44-6.8-4-6.8-4v4.42h7C287.21,202.63,287,202.38,287,202.38Z" transform="translate(0 -12.84)"/><line class="cls-11" x1="279.23" y1="192.92" x2="282.08" y2="192.92"/><line class="cls-11" x1="272.18" y1="192.92" x2="275.04" y2="192.92"/><polygon class="cls-11" points="311.59 184.35 311.59 200.35 318.84 192.75 311.59 184.35"/><polygon class="cls-11" points="22.39 200.35 22.39 184.35 15.14 191.95 22.39 200.35"/><line class="cls-11" x1="27.28" y1="213.99" x2="300.77" y2="213.99"/><line class="cls-11" x1="27.28" y1="221.51" x2="300.77" y2="221.51"/><path class="cls-14" d="M105.35,198.13l25.55,23.74a2.27,2.27,0,0,1-1.41,3.93l-7,.42,3,6.4a3,3,0,0,1-1.51,4l-6.93,3a3,3,0,0,1-3.91-1.52l-2.67-6-5.06,5.28a2.27,2.27,0,0,1-3.91-1.57v-36A2.27,2.27,0,0,1,105.35,198.13Z" transform="translate(0 -12.84)"/><polygon class="cls-15" points="105.53 190.91 125.21 209.2 116.42 209.73 121.46 220.51 116.42 222.71 111.74 212.15 105.53 218.64 105.53 190.91"/></g></g></g></svg>