<svg xmlns="http://www.w3.org/2000/svg" viewBox="0 0 422.73 233.34"><defs><style>.cls-1{isolation:isolate;}.cls-2{fill:#fff;}.cls-3{font-size:28px;fill:#0066ae;font-family:ArialMT, Arial;}.cls-4{letter-spacing:-0.06em;}.cls-5{opacity:0.27;mix-blend-mode:multiply;}.cls-6{fill:#2f9622;}.cls-7,.cls-8{fill:#64c202;}.cls-10,.cls-7,.cls-9{stroke:#fff;}.cls-10,.cls-7{stroke-linecap:round;stroke-linejoin:round;stroke-width:2px;}.cls-10,.cls-9{fill:none;}.cls-9{stroke-miterlimit:10;}</style></defs><title>cost-per-click</title><g class="cls-1"><g id="Layer_2" data-name="Layer 2"><g id="Layer_1-2" data-name="Layer 1"><rect class="cls-2" y="8.26" width="330" height="50"/><text class="cls-3" transform="translate(45.04 42.22)">COS<tspan class="cls-4" x="60.68" y="0">T</tspan><tspan x="76.23" y="0">-PER-CLICK</tspan></text><g class="cls-5"><path class="cls-6" d="M360,223.48h14.34c12.25,0,15.54-8.07,15.54-30.77v-26.9c0-40,17-46,20.91-49.89-3.88-2.39-20.91-8.36-20.91-48.4V40.63c0-22.7-3.29-30.77-15.54-30.77H360V0h14.94c16.73,0,26.29,8.07,26.29,35.25v27.5c0,24.2,3.88,47.5,21.51,48.4V122.5c-17.63.9-21.51,24.2-21.51,48.4v27.2c0,27.19-9.56,35.25-26.29,35.25H360Z"/></g><path class="cls-7" d="M91.34,124.08a27.67,27.67,0,1,0-7.09,5.67l13.17,7.72Z"/><path class="cls-7" d="M253.2,124.08a27.67,27.67,0,1,1,7.09,5.67l-13.17,7.72Z"/><path class="cls-8" d="M68.75,120.23a3.5,3.5,0,0,1-2.44-1l-11.39-11a3.5,3.5,0,0,1,4.87-5l8.58,8.33L81.45,94.64A3.5,3.5,0,1,1,87,98.93l-15.47,20A3.5,3.5,0,0,1,69,120.23Z"/><path class="cls-9" d="M68.75,120.23a3.5,3.5,0,0,1-2.44-1l-11.39-11a3.5,3.5,0,0,1,4.87-5l8.58,8.33L81.45,94.64A3.5,3.5,0,1,1,87,98.93l-15.47,20A3.5,3.5,0,0,1,69,120.23Z"/><path class="cls-10" d="M68.75,120.23a3.5,3.5,0,0,1-2.44-1l-11.39-11a3.5,3.5,0,0,1,4.87-5l8.58,8.33L81.45,94.64A3.5,3.5,0,1,1,87,98.93l-15.47,20A3.5,3.5,0,0,1,69,120.23Z"/><path class="cls-7" d="M277.95,106.21,288,96.27A3,3,0,0,0,283.82,92l-10.15,10L263.52,92a3,3,0,0,0-4.21,4.28l10.09,9.93-10.09,9.93a3,3,0,1,0,4.21,4.28l10.15-10,10.15,10a3,3,0,0,0,4.21-4.28Z"/><polygon class="cls-10" points="237.14 203.1 236.72 128.5 190.71 167.71 237.14 203.1"/><polygon class="cls-10" points="237.14 203.21 109.1 204.81 155.07 167.98 108.53 129.22 108.96 205.08 237.14 204.35 237.14 203.21"/><path class="cls-10" d="M180.65,176.28a12,12,0,0,1-15.51.09L155.07,168l-46,36.82,128-1.59v-.11l-46.43-35.39Z"/><path class="cls-10" d="M108.53,129.22,155.07,168l10.07,8.38a12,12,0,0,0,15.51-.09l10.06-8.57,46-39.21Z"/></g></g></g></svg>