<svg xmlns="http://www.w3.org/2000/svg" viewBox="0 0 328.89 208.27"><defs><style>.cls-1{font-size:20.29px;fill:#64c202;font-family:ArialMT, Arial;}.cls-2{fill:#fff;stroke:#64c202;stroke-linecap:round;stroke-linejoin:round;stroke-width:2px;}.cls-3{fill:none;stroke:#2f9622;stroke-miterlimit:10;}</style></defs><title>mag-on-sale</title><g id="Layer_2" data-name="Layer 2"><g id="Layer_1-2" data-name="Layer 1"><text class="cls-1" transform="translate(209.88 29.58)">car</text><text class="cls-1" transform="translate(223.02 113.07)">car brand</text><text class="cls-1" transform="translate(195.61 160.94)">ON SALE</text><text class="cls-1" transform="translate(220.87 69.16)">used cars</text><rect class="cls-2" x="19.85" y="135.75" width="21.19" height="72.01" transform="translate(104.81 13.97) rotate(35.29)"/><rect class="cls-2" x="38.96" y="129.68" width="30.61" height="16.95" transform="translate(89.78 -5.96) rotate(35.29)"/><circle class="cls-2" cx="99.53" cy="74.19" r="73.18" transform="translate(-18.52 112.58) rotate(-54.71)"/><circle class="cls-2" cx="99.53" cy="74.19" r="73.18" transform="translate(-18.52 112.58) rotate(-54.71)"/><circle class="cls-2" cx="99.53" cy="74.19" r="64.56" transform="translate(-18.52 112.58) rotate(-54.71)"/><circle class="cls-2" cx="99.53" cy="74.19" r="57.83" transform="translate(-18.52 112.58) rotate(-54.71)"/><path class="cls-2" d="M65.2,49.89a42.06,42.06,0,0,1,58.63-10"/><path class="cls-3" d="M241.41,9.33H206.55a11.61,11.61,0,0,0-11.61,11.61v4.67a11.63,11.63,0,0,0,.15,1.79L182.8,39.7l14.52-7.05a11.58,11.58,0,0,0,9.23,4.58h34.86A11.61,11.61,0,0,0,253,25.62V20.95A11.61,11.61,0,0,0,241.41,9.33Z"/><path class="cls-3" d="M290.49,139.7H188.7a11.61,11.61,0,0,0-11.32,9.07L158,142.37l19.06,13.44V156A11.61,11.61,0,0,0,188.7,167.6H290.49A11.61,11.61,0,0,0,302.1,156v-4.67A11.61,11.61,0,0,0,290.49,139.7Z"/><path class="cls-3" d="M306,48.92h-81.9a11.61,11.61,0,0,0-11.61,11.61V62l-22.67,9.86,23-4a11.61,11.61,0,0,0,11.29,8.94H306a11.61,11.61,0,0,0,11.61-11.61V60.53A11.61,11.61,0,0,0,306,48.92Z"/><path class="cls-3" d="M316.78,92.83H215a11.61,11.61,0,0,0-11.61,11.61v2l-19.09-2.19L204,112.78a11.61,11.61,0,0,0,11,8H316.78a11.61,11.61,0,0,0,11.61-11.61v-4.67A11.61,11.61,0,0,0,316.78,92.83Z"/></g></g></svg>