<svg xmlns="http://www.w3.org/2000/svg" viewBox="0 0 642.04 303.06"><defs><style>.cls-1,.cls-2,.cls-4,.cls-5{fill:#fff;}.cls-1{stroke:#2f9622;stroke-linecap:round;stroke-linejoin:round;stroke-width:2px;}.cls-3{fill:#2f9622;}.cls-4{font-size:47.32px;}.cls-4,.cls-5{font-family:MuseoSans-900, MuseoSans 900;}.cls-5{font-size:32.87px;}.cls-6{font-size:24px;fill:#5d5d5d;font-family:ArialMT, Arial;}.cls-7{fill:#ccc;}</style></defs><title>sale-per</title><g id="Layer_2" data-name="Layer 2"><g id="Layer_1-2" data-name="Layer 1"><ellipse class="cls-1" cx="327.37" cy="203.95" rx="10.41" ry="11.67"/><polyline class="cls-1" points="327.37 222.15 319.27 222.15 306.5 205.43 309.18 176.73 301.45 176.73 297.35 207.64 312.36 235.86 312.36 276.55 327.37 284.75"/><polyline class="cls-1" points="304.51 170.94 308.71 170.71 310.18 168.43 311.52 168.72 310.29 172.87 307.72 174.45 306.96 176 303.22 176 302.11 170.41 302.11 166.07 304.68 162.17 309.14 162.17 308.25 166.15 308.71 170.71"/><polyline class="cls-1" points="327.37 222.15 335.46 222.15 348.24 205.43 345.56 176.73 353.28 176.73 357.38 207.64 342.38 235.86 342.38 276.55 327.37 284.75"/><polyline class="cls-1" points="350.23 170.94 346.02 170.71 344.56 168.43 343.21 168.72 344.44 172.87 347.01 174.45 347.77 176 351.52 176 352.63 170.41 352.63 166.07 350.06 162.17 345.6 162.17 346.49 166.15 346.02 170.71"/><line class="cls-1" x1="312.36" y1="266.77" x2="342.38" y2="266.77"/><polygon class="cls-1" points="323.51 222.15 325.32 227.81 329.75 227.81 331.36 222.15 323.51 222.15"/><polyline class="cls-1" points="325.32 227.81 321.7 252.28 327.37 262.44 332.97 252.28 329.75 227.81"/><rect class="cls-1" x="273.12" y="101.67" width="100.9" height="64.53"/><path class="cls-2" d="M348.7,155.61a6.3,6.3,0,0,1-6.28-6.21,6.28,6.28,0,0,1,6.21-6.35h0a6.28,6.28,0,0,1,.15,12.56Z"/><path class="cls-3" d="M348.7,144.05a5.28,5.28,0,0,1,.06,10.56h-.06a5.28,5.28,0,0,1-.06-10.56h.06m0-2h-.09a7.28,7.28,0,0,0-7.19,7.37,7.31,7.31,0,0,0,7.28,7.19h.09a7.28,7.28,0,0,0-.09-14.56Z"/><path class="cls-2" d="M302.66,156.17a6.3,6.3,0,0,1-6.28-6.21,6.28,6.28,0,0,1,6.21-6.35h0a6.32,6.32,0,0,1,6.35,6.2,6.28,6.28,0,0,1-6.2,6.36Z"/><path class="cls-3" d="M302.66,144.61a5.28,5.28,0,0,1,.06,10.56h-.06a5.28,5.28,0,0,1-.06-10.56h.06m0-2h-.09a7.28,7.28,0,0,0,.09,14.56h.09a7.28,7.28,0,0,0-.09-14.56Z"/><path class="cls-2" d="M293.78,151a5.2,5.2,0,0,1-4.38-2c-2.65-3.47-1.42-10.77.08-16.28,1.06-3.9,4.1-6.79,7-9.59.57-.54,1.13-1.08,1.68-1.62A15.09,15.09,0,0,1,306,117.4h.13l24.34-.29c7.08,0,13.4,7,15.79,10a5.8,5.8,0,0,0,4.19,1.84h.18a37.6,37.6,0,0,1,8.7,1.48c6.39,1.65,6.1,6.74,6,7.58l.09,7.18A5.15,5.15,0,0,1,364.1,149a4.11,4.11,0,0,1-2.89,1.16H361l-3.48,0a1,1,0,0,1-1-1c0-.31-.31-7.71-7.75-7.71h-.14a7.21,7.21,0,0,0-5.31,2,9.17,9.17,0,0,0-2.18,5.87,1,1,0,0,1-1,1l-28.16.34a1,1,0,0,1-1-.93c0-.3-.67-7.45-8.25-7.45h-.15c-7.71.09-7.71,7.27-7.7,7.58a1,1,0,0,1-1,1Z"/><path class="cls-3" d="M330.44,118.1c7,0,13.23,7.41,15,9.65a6.83,6.83,0,0,0,5,2.22h.17a36.66,36.66,0,0,1,8.45,1.45c6.12,1.58,5.25,6.56,5.25,6.56l.09,7.24c0,3.71-2.44,4-3.17,4H361l-3.52,0s-.21-8.69-8.75-8.69h-.15c-8.69.1-8.48,8.9-8.48,8.9l-28.14.34s-.61-8.37-9.25-8.37h-.16c-8.79.11-8.69,8.59-8.69,8.59h-.08c-7.55,0-4.52-12.69-3.33-17s5.19-7.51,8.46-10.76a14.15,14.15,0,0,1,7.2-3.81l24.21-.29h.12m0-2h-.14l-24.21.29-.26,0a16.18,16.18,0,0,0-8.32,4.37c-.54.54-1.1,1.07-1.67,1.61-3,2.89-6.18,5.88-7.31,10-2.27,8.33-2.24,14.1.09,17.15a6.24,6.24,0,0,0,5.17,2.41h.11a2,2,0,0,0,2-2c0-1.07.32-6.49,6.72-6.57h.14c6.7,0,7.24,6.25,7.26,6.52a2,2,0,0,0,2,1.85h0l28.14-.34a2,2,0,0,0,2-2,8.14,8.14,0,0,1,1.91-5.16,6.19,6.19,0,0,1,4.6-1.69h.13c6.4,0,6.73,6,6.75,6.74a2,2,0,0,0,2,2h0l3.43,0h.26a5.12,5.12,0,0,0,3.6-1.46,6.11,6.11,0,0,0,1.57-4.55l-.09-7.08c.33-2.42-.67-7.06-6.75-8.64a38.26,38.26,0,0,0-8.95-1.51h-.2A4.84,4.84,0,0,1,347,126.5c-3.08-3.89-9.33-10.41-16.57-10.41Z"/><path class="cls-2" d="M306.43,121.9a10.24,10.24,0,0,1,1.94-.19h.25l13.73-.16.09,7.7-15.93.19Z"/><path class="cls-3" d="M321.36,122.56l.07,5.7-13.93.17-.07-5.67a9,9,0,0,1,.93-.05h.33l12.67-.15m2-2-14.67.18h-.31a10.87,10.87,0,0,0-2.95.41l.11,9.33,17.93-.22-.12-9.7Z"/><path class="cls-2" d="M303.05,123.74l.08-.09.07,5.83-5.82.07Z"/><path class="cls-3" d="M302.16,126.08l0,2.41-2.41,0,2.38-2.44m1.95-4.45a5.33,5.33,0,0,0-1.77,1.4L295,130.58l9.23-.11-.11-8.83Z"/><path class="cls-2" d="M325.67,121.51l5.13-.06c1.57,0,2.46.08,5.42,1.88A26.88,26.88,0,0,1,342,129l-16.25.2Z"/><path class="cls-3" d="M330.81,122.45h0c1.31,0,2,0,4.89,1.73a20.88,20.88,0,0,1,4.2,3.86l-13.15.16-.07-5.7,3.43,0h.69m0-2h-.72l-5.43.07.12,9.7L344,130s-3.9-5.46-7.28-7.52c-3-1.83-4.08-2-5.93-2Z"/><path class="cls-2" d="M348.7,151.68a2.35,2.35,0,0,1-2.34-2.32,2.35,2.35,0,0,1,2.32-2.37,2.36,2.36,0,0,1,2.37,2.32,2.35,2.35,0,0,1-2.32,2.37Z"/><path class="cls-3" d="M348.7,148a1.35,1.35,0,0,1,0,2.69h0a1.35,1.35,0,0,1,0-2.69h0m0-2h0a3.34,3.34,0,0,0-3.3,3.39A3.35,3.35,0,1,0,348.7,146Z"/><path class="cls-2" d="M302.66,152.23a2.35,2.35,0,0,1-2.34-2.32,2.35,2.35,0,0,1,2.32-2.37,2.36,2.36,0,0,1,2.37,2.32,2.35,2.35,0,0,1-2.32,2.37Z"/><path class="cls-3" d="M302.66,148.54a1.35,1.35,0,0,1,0,2.69h0a1.35,1.35,0,0,1,0-2.69h0m0-2h0a3.34,3.34,0,0,0-3.3,3.39,3.35,3.35,0,1,0,3.35-3.39Z"/><path class="cls-2" d="M485.23,186H485a1.94,1.94,0,0,1-1.53-.87,2.64,2.64,0,0,1-.33-1.7l.09-1a10.77,10.77,0,0,1-2.45-.93,7.2,7.2,0,0,1-2.46-2.2,8.3,8.3,0,0,1-1.15-2.14,5.13,5.13,0,0,1-.32-2.14,3.13,3.13,0,0,1,3.09-2.82h.3a3.11,3.11,0,0,1,2.89,2.81,3,3,0,0,0,.62,1.44l.41-4.61c-1.07-.41-2-.79-2.64-1.12a8,8,0,0,1-2.41-1.8,7.4,7.4,0,0,1-1.63-2.74,8.07,8.07,0,0,1-.36-3.3,8.6,8.6,0,0,1,1.39-4,8.23,8.23,0,0,1,3.32-2.87,10.16,10.16,0,0,1,3.83-1l.3-3.35a4.8,4.8,0,0,1,.44-1.83,1.74,1.74,0,0,1,1.63-.92h.24a1.92,1.92,0,0,1,1.62,1,3,3,0,0,1,.26,1.74l-.33,3.72a11.17,11.17,0,0,1,2.83,1.16,9.28,9.28,0,0,1,2.6,2.24,8.45,8.45,0,0,1,1.44,2.66,6.9,6.9,0,0,1,.32,2.68,3,3,0,0,1-1.11,2.08,3.08,3.08,0,0,1-2.06.76h-.33a3.24,3.24,0,0,1-1.8-.69,2.84,2.84,0,0,1-1-1.63,20.61,20.61,0,0,0-.57-2.08,3.14,3.14,0,0,0-.69-1.09l-.16-.15-.5,5.61a20.39,20.39,0,0,1,3.15,1.55,7.91,7.91,0,0,1,.73,12.42,8.87,8.87,0,0,1-5.3,1.9l-.08.92C487.11,185.81,485.67,186,485.23,186Zm2.65-8.84a3.32,3.32,0,0,0,.61-.35c.12-.09.49-.36.58-1.32a1.68,1.68,0,0,0-.31-1.34,3.5,3.5,0,0,0-.57-.49Zm-2.71-16.53a3,3,0,0,0-1,.6,2.52,2.52,0,0,0-.83,1.69,2,2,0,0,0,.44,1.59,4.52,4.52,0,0,0,1,.75Z"/><path class="cls-3" d="M488,149.94h.15a1,1,0,0,1,.82.45,2.15,2.15,0,0,1,.14,1.18l-.41,4.59a10.78,10.78,0,0,1,3.39,1.25,8.26,8.26,0,0,1,2.32,2,7.43,7.43,0,0,1,1.27,2.34A5.87,5.87,0,0,1,496,164a2.07,2.07,0,0,1-.77,1.41,2.11,2.11,0,0,1-1.41.52h-.23a2.26,2.26,0,0,1-1.26-.47,1.85,1.85,0,0,1-.64-1.07,21.57,21.57,0,0,0-.61-2.2,4.12,4.12,0,0,0-.91-1.44,4.61,4.61,0,0,0-1.74-1.1l-.71,7.9a20.83,20.83,0,0,1,3.68,1.74,6.43,6.43,0,0,1,2.28,2.42,7.31,7.31,0,0,1-1.67,8.38,8.35,8.35,0,0,1-5.54,1.7h0l-.16,1.8q-.12,1.34-1.07,1.34h-.13q-1.09-.1-1-1.49l.16-1.84a10.67,10.67,0,0,1-3.05-1,6.18,6.18,0,0,1-2.12-1.9,7.26,7.26,0,0,1-1-1.89,4.13,4.13,0,0,1-.27-1.72,2,2,0,0,1,.75-1.41,2,2,0,0,1,1.35-.5h.21a2.12,2.12,0,0,1,2,2,3.87,3.87,0,0,0,2.45,3.06l.63-7.07q-2.06-.77-3.26-1.35a7,7,0,0,1-2.11-1.58,6.39,6.39,0,0,1-1.42-2.38,7.05,7.05,0,0,1-.31-2.9,7.58,7.58,0,0,1,1.23-3.55,7.21,7.21,0,0,1,2.92-2.52,9.52,9.52,0,0,1,4.24-.9h.07l.38-4.23a4,4,0,0,1,.33-1.44.77.77,0,0,1,.75-.39m-1.75,9.38a4.68,4.68,0,0,0-2.77,1.14,3.51,3.51,0,0,0-1.15,2.33,2.91,2.91,0,0,0,.71,2.37,7.43,7.43,0,0,0,2.55,1.61l.66-7.44m.46,19.19a6,6,0,0,0,2.33-.92,3.17,3.17,0,0,0,.42-4.13,6.9,6.9,0,0,0-2.17-1.45l-.58,6.51M488,147.94a2.75,2.75,0,0,0-2.51,1.45,5.72,5.72,0,0,0-.56,2.21l-.23,2.52a10.81,10.81,0,0,0-3.35,1,9.22,9.22,0,0,0-3.71,3.22,9.59,9.59,0,0,0-1.56,4.47,9.07,9.07,0,0,0,.41,3.71,8.41,8.41,0,0,0,1.86,3.12,8.91,8.91,0,0,0,1.92,1.58l-.38,0a4.05,4.05,0,0,0-2.63,1,4,4,0,0,0-1.46,2.77,6.12,6.12,0,0,0,.37,2.56,9.29,9.29,0,0,0,1.3,2.41,8.15,8.15,0,0,0,2.78,2.48,11,11,0,0,0,1.86.78v.14a3.61,3.61,0,0,0,.49,2.33,3,3,0,0,0,2.29,1.33h.31a3.1,3.1,0,0,0,3.06-3.16v-.09a9.45,9.45,0,0,0,5-2.05,8.64,8.64,0,0,0-.48-13.79,5,5,0,0,0,.58.08l.41,0a4.12,4.12,0,0,0,2.72-1,4.06,4.06,0,0,0,1.46-2.75,7.89,7.89,0,0,0-.36-3.07,9.45,9.45,0,0,0-1.61-3,10.29,10.29,0,0,0-2.88-2.48,11.61,11.61,0,0,0-2.27-1l.26-2.91a4,4,0,0,0-.37-2.3,2.89,2.89,0,0,0-2.41-1.49Zm1.81,18.34.07-.81a3.83,3.83,0,0,0,.73,1.17l-.8-.36Zm-6.75,6.28-.09-.1.09,0v.06Z"/><path class="cls-2" d="M456.57,203.48h-.22a1.94,1.94,0,0,1-1.54-.87,2.64,2.64,0,0,1-.33-1.7l.09-1a10.78,10.78,0,0,1-2.45-.93,7.2,7.2,0,0,1-2.46-2.2,8.21,8.21,0,0,1-1.15-2.14,5.13,5.13,0,0,1-.32-2.14,3.13,3.13,0,0,1,3.09-2.82h.3a3.11,3.11,0,0,1,2.89,2.81,3,3,0,0,0,.62,1.44l.41-4.6c-1.07-.41-2-.79-2.64-1.12a8,8,0,0,1-2.41-1.8,7.4,7.4,0,0,1-1.63-2.74,8.07,8.07,0,0,1-.36-3.3,8.6,8.6,0,0,1,1.39-4,8.24,8.24,0,0,1,3.32-2.87,10.16,10.16,0,0,1,3.83-1l.3-3.35a4.79,4.79,0,0,1,.44-1.83,1.74,1.74,0,0,1,1.63-.92h.24a1.92,1.92,0,0,1,1.62,1,3,3,0,0,1,.26,1.74l-.33,3.72a11.23,11.23,0,0,1,2.83,1.16,9.32,9.32,0,0,1,2.6,2.24A8.47,8.47,0,0,1,468,179a6.9,6.9,0,0,1,.32,2.68,3,3,0,0,1-1.11,2.08,3.09,3.09,0,0,1-2.07.76h-.32a3.25,3.25,0,0,1-1.8-.69,2.84,2.84,0,0,1-1-1.63,20.36,20.36,0,0,0-.57-2.08,3.16,3.16,0,0,0-.69-1.09l-.16-.15-.5,5.61a20.39,20.39,0,0,1,3.15,1.55,7.43,7.43,0,0,1,2.63,2.79,8.3,8.3,0,0,1-1.9,9.63,8.87,8.87,0,0,1-5.3,1.9l-.08.92C458.45,203.32,457,203.48,456.57,203.48Zm2.65-8.84a3.4,3.4,0,0,0,.61-.35c.12-.09.49-.36.58-1.32a1.69,1.69,0,0,0-.31-1.34,3.6,3.6,0,0,0-.57-.49Zm-2.71-16.53a3,3,0,0,0-1,.6,2.52,2.52,0,0,0-.83,1.69,2,2,0,0,0,.44,1.59,4.58,4.58,0,0,0,1,.75Z"/><path class="cls-3" d="M459.38,167.45h.15a1,1,0,0,1,.82.45,2.15,2.15,0,0,1,.14,1.18l-.41,4.59a10.77,10.77,0,0,1,3.39,1.25,8.26,8.26,0,0,1,2.32,2,7.43,7.43,0,0,1,1.27,2.34,5.87,5.87,0,0,1,.27,2.29,2.07,2.07,0,0,1-.77,1.41,2.11,2.11,0,0,1-1.41.52h-.23a2.26,2.26,0,0,1-1.26-.47,1.85,1.85,0,0,1-.64-1.07,21.63,21.63,0,0,0-.61-2.2,4.13,4.13,0,0,0-.91-1.44,4.61,4.61,0,0,0-1.74-1.1l-.71,7.9a20.83,20.83,0,0,1,3.68,1.74,6.43,6.43,0,0,1,2.28,2.42,7.31,7.31,0,0,1-1.67,8.38,8.35,8.35,0,0,1-5.54,1.7h0l-.16,1.8q-.12,1.34-1.07,1.34h-.13q-1.09-.1-1-1.49l.16-1.84a10.68,10.68,0,0,1-3.05-1,6.18,6.18,0,0,1-2.12-1.9,7.26,7.26,0,0,1-1-1.89,4.13,4.13,0,0,1-.27-1.72,2,2,0,0,1,.75-1.41,2,2,0,0,1,1.35-.5h.21a2.12,2.12,0,0,1,2,2,3.87,3.87,0,0,0,2.45,3.06l.63-7.07q-2.06-.77-3.26-1.35a7,7,0,0,1-2.11-1.58,6.39,6.39,0,0,1-1.42-2.38,7,7,0,0,1-.32-2.9,7.58,7.58,0,0,1,1.23-3.55,7.21,7.21,0,0,1,2.92-2.52,9.53,9.53,0,0,1,4.24-.9h.07l.38-4.23a4,4,0,0,1,.33-1.44.77.77,0,0,1,.75-.39m-1.75,9.38a4.68,4.68,0,0,0-2.77,1.14,3.51,3.51,0,0,0-1.15,2.33,2.91,2.91,0,0,0,.71,2.37,7.43,7.43,0,0,0,2.55,1.61l.66-7.44M458.1,196a6,6,0,0,0,2.33-.92,3.17,3.17,0,0,0,.42-4.13,6.9,6.9,0,0,0-2.17-1.45L458.1,196m1.29-30.57a2.75,2.75,0,0,0-2.51,1.44,5.73,5.73,0,0,0-.56,2.21l-.23,2.52a10.81,10.81,0,0,0-3.35,1,9.22,9.22,0,0,0-3.71,3.22,9.59,9.59,0,0,0-1.56,4.47,9.07,9.07,0,0,0,.41,3.71,8.41,8.41,0,0,0,1.86,3.12,8.89,8.89,0,0,0,1.92,1.58l-.38,0a4.06,4.06,0,0,0-2.63,1,4,4,0,0,0-1.46,2.77,6.12,6.12,0,0,0,.37,2.56,9.28,9.28,0,0,0,1.3,2.41,8.14,8.14,0,0,0,2.78,2.48,11,11,0,0,0,1.86.78v.14a3.08,3.08,0,0,0,2.78,3.66h.31a3.1,3.1,0,0,0,3.06-3.16v-.09a9.45,9.45,0,0,0,5-2.05,8.65,8.65,0,0,0-.48-13.79,5,5,0,0,0,.58.09l.41,0a4.12,4.12,0,0,0,2.72-1,4.06,4.06,0,0,0,1.46-2.75,7.89,7.89,0,0,0-.36-3.07,9.45,9.45,0,0,0-1.61-3,10.28,10.28,0,0,0-2.88-2.49,11.61,11.61,0,0,0-2.27-1l.26-2.91a4,4,0,0,0-.37-2.3,2.89,2.89,0,0,0-2.41-1.5Zm1.81,18.34.07-.81a3.83,3.83,0,0,0,.73,1.17l-.8-.36Zm-6.75,6.28-.09-.1.09,0v.06Z"/><path class="cls-2" d="M465.67,155.65h-.22a1.94,1.94,0,0,1-1.54-.87,2.65,2.65,0,0,1-.33-1.7l.09-1a10.78,10.78,0,0,1-2.45-.93,7.21,7.21,0,0,1-2.46-2.2,8.25,8.25,0,0,1-1.15-2.14,5.14,5.14,0,0,1-.32-2.14,3.13,3.13,0,0,1,3.1-2.82h.3a3.11,3.11,0,0,1,2.89,2.81,3,3,0,0,0,.62,1.44l.41-4.6c-1.07-.41-2-.79-2.64-1.12a8,8,0,0,1-2.41-1.8,7.4,7.4,0,0,1-1.63-2.74,8.08,8.08,0,0,1-.36-3.31,8.6,8.6,0,0,1,1.39-4,8.23,8.23,0,0,1,3.32-2.87,10.16,10.16,0,0,1,3.83-1l.3-3.35a4.81,4.81,0,0,1,.44-1.83,1.75,1.75,0,0,1,1.63-.92h.24a1.92,1.92,0,0,1,1.62,1,3.05,3.05,0,0,1,.26,1.74l-.33,3.72a11.17,11.17,0,0,1,2.83,1.16,9.29,9.29,0,0,1,2.6,2.24,8.47,8.47,0,0,1,1.44,2.66,6.87,6.87,0,0,1,.32,2.68,3.21,3.21,0,0,1-3.18,2.85H474a3.26,3.26,0,0,1-1.8-.69,2.83,2.83,0,0,1-1-1.63,20.56,20.56,0,0,0-.57-2.08,3.09,3.09,0,0,0-.69-1.09l-.16-.15-.5,5.61a20.37,20.37,0,0,1,3.15,1.55A7.44,7.44,0,0,1,475,141a8.3,8.3,0,0,1-1.9,9.63,8.89,8.89,0,0,1-5.3,1.9l-.08.92C467.55,155.49,466.11,155.65,465.67,155.65Zm2.65-8.84a3.4,3.4,0,0,0,.61-.35c.12-.09.49-.36.58-1.32a1.69,1.69,0,0,0-.31-1.34,3.54,3.54,0,0,0-.57-.49Zm-2.71-16.53a3,3,0,0,0-1,.6,2.51,2.51,0,0,0-.83,1.68,1.94,1.94,0,0,0,.44,1.59,4.52,4.52,0,0,0,1,.75Z"/><path class="cls-3" d="M468.48,119.63h.15a1,1,0,0,1,.82.45,2.15,2.15,0,0,1,.14,1.18l-.41,4.59a10.79,10.79,0,0,1,3.39,1.25,8.26,8.26,0,0,1,2.32,2,7.43,7.43,0,0,1,1.27,2.34,5.87,5.87,0,0,1,.27,2.29,2.07,2.07,0,0,1-.77,1.41,2.11,2.11,0,0,1-1.41.52H474a2.26,2.26,0,0,1-1.26-.47,1.85,1.85,0,0,1-.64-1.07,21.59,21.59,0,0,0-.61-2.2,4.12,4.12,0,0,0-.91-1.44,4.61,4.61,0,0,0-1.74-1.1l-.71,7.9a20.83,20.83,0,0,1,3.68,1.74,6.43,6.43,0,0,1,2.28,2.42,7.31,7.31,0,0,1-1.67,8.38,8.35,8.35,0,0,1-5.54,1.69h0l-.16,1.8q-.12,1.34-1.07,1.34h-.13q-1.09-.1-1-1.49l.16-1.84a10.66,10.66,0,0,1-3.05-1,6.18,6.18,0,0,1-2.12-1.9,7.26,7.26,0,0,1-1-1.89,4.13,4.13,0,0,1-.27-1.72,2,2,0,0,1,.75-1.41,2,2,0,0,1,1.35-.5h.21a2.12,2.12,0,0,1,2,2,3.87,3.87,0,0,0,2.45,3.06l.63-7.07q-2.06-.77-3.26-1.35a7,7,0,0,1-2.11-1.58,6.39,6.39,0,0,1-1.42-2.38,7.05,7.05,0,0,1-.31-2.9,7.57,7.57,0,0,1,1.23-3.55,7.21,7.21,0,0,1,2.92-2.52,9.52,9.52,0,0,1,4.24-.9H467l.38-4.23a4,4,0,0,1,.33-1.44.77.77,0,0,1,.75-.39M466.74,129a4.68,4.68,0,0,0-2.77,1.14,3.51,3.51,0,0,0-1.15,2.33,2.91,2.91,0,0,0,.71,2.37,7.43,7.43,0,0,0,2.55,1.61l.66-7.44m.46,19.19a6,6,0,0,0,2.33-.92,3.17,3.17,0,0,0,.42-4.13,6.9,6.9,0,0,0-2.17-1.45l-.58,6.51m1.29-30.57a2.75,2.75,0,0,0-2.51,1.44,5.72,5.72,0,0,0-.56,2.21l-.23,2.52a10.81,10.81,0,0,0-3.35,1,9.22,9.22,0,0,0-3.71,3.22,9.59,9.59,0,0,0-1.56,4.47,9.07,9.07,0,0,0,.41,3.71,8.41,8.41,0,0,0,1.86,3.12,8.91,8.91,0,0,0,1.92,1.58l-.38,0a4.05,4.05,0,0,0-2.63,1,4,4,0,0,0-1.46,2.77,6.12,6.12,0,0,0,.37,2.56,9.29,9.29,0,0,0,1.3,2.41,8.15,8.15,0,0,0,2.78,2.48,11,11,0,0,0,1.86.78V153a3.61,3.61,0,0,0,.49,2.33,3,3,0,0,0,2.29,1.33h.31a3.1,3.1,0,0,0,3.06-3.16v-.09a9.45,9.45,0,0,0,5-2.05,8.65,8.65,0,0,0-.48-13.79,5,5,0,0,0,.58.09l.41,0a4.12,4.12,0,0,0,2.72-1,4.06,4.06,0,0,0,1.46-2.75,7.88,7.88,0,0,0-.36-3.07,9.45,9.45,0,0,0-1.6-3,10.29,10.29,0,0,0-2.88-2.49,11.63,11.63,0,0,0-2.27-1l.26-2.91a4,4,0,0,0-.37-2.3,2.89,2.89,0,0,0-2.41-1.5ZM470.3,136l.07-.81a3.82,3.82,0,0,0,.73,1.17l-.8-.36Zm-6.75,6.28-.09-.1.09,0v.06Z"/><path class="cls-2" d="M534.35,155h-.22a2.09,2.09,0,0,1-1.87-2.58l.09-1a10.77,10.77,0,0,1-2.45-.93,7.2,7.2,0,0,1-2.46-2.2,8.27,8.27,0,0,1-1.15-2.14A5.14,5.14,0,0,1,526,144a3.13,3.13,0,0,1,3.09-2.82h.3a3.11,3.11,0,0,1,2.89,2.81,3,3,0,0,0,.62,1.44l.41-4.6c-1.07-.41-2-.79-2.64-1.12a8,8,0,0,1-2.41-1.8,7.38,7.38,0,0,1-1.63-2.74,8.08,8.08,0,0,1-.36-3.31,8.6,8.6,0,0,1,1.39-4A8.24,8.24,0,0,1,531,125a10.14,10.14,0,0,1,3.83-1l.3-3.35a4.83,4.83,0,0,1,.44-1.83,1.75,1.75,0,0,1,1.63-.92h.24a1.9,1.9,0,0,1,1.61,1,3.05,3.05,0,0,1,.26,1.74l-.33,3.72a11.17,11.17,0,0,1,2.83,1.16,9.3,9.3,0,0,1,2.6,2.24,8.45,8.45,0,0,1,1.44,2.66,6.88,6.88,0,0,1,.32,2.68,3,3,0,0,1-1.11,2.08A3.09,3.09,0,0,1,543,136h-.32a3.26,3.26,0,0,1-1.8-.69,2.83,2.83,0,0,1-1-1.63,20.6,20.6,0,0,0-.57-2.08,3.12,3.12,0,0,0-.69-1.09l-.16-.15-.5,5.61a20.37,20.37,0,0,1,3.15,1.55,7.12,7.12,0,0,1,3.38,7.12,7.52,7.52,0,0,1-2.64,5.3,8.87,8.87,0,0,1-5.3,1.9l-.08.92C536.23,154.8,534.79,155,534.35,155Zm2.65-8.84a3.32,3.32,0,0,0,.61-.35c.12-.09.49-.36.58-1.32a1.69,1.69,0,0,0-.31-1.34,3.6,3.6,0,0,0-.57-.49Zm-2.71-16.53a3,3,0,0,0-1,.6,2.52,2.52,0,0,0-.83,1.69,2,2,0,0,0,.44,1.59,4.52,4.52,0,0,0,1,.75Z"/><path class="cls-3" d="M537.17,118.94h.15a1,1,0,0,1,.82.45,2.15,2.15,0,0,1,.14,1.18l-.41,4.59a10.77,10.77,0,0,1,3.39,1.25,8.26,8.26,0,0,1,2.32,2,7.43,7.43,0,0,1,1.27,2.34,5.87,5.87,0,0,1,.27,2.29,2.07,2.07,0,0,1-.77,1.41A2.11,2.11,0,0,1,543,135h-.23a2.26,2.26,0,0,1-1.26-.47,1.85,1.85,0,0,1-.64-1.07,21.63,21.63,0,0,0-.61-2.2,4.13,4.13,0,0,0-.91-1.44,4.61,4.61,0,0,0-1.74-1.1l-.71,7.9a20.83,20.83,0,0,1,3.68,1.74,6.43,6.43,0,0,1,2.28,2.42,7.31,7.31,0,0,1-1.67,8.38,8.35,8.35,0,0,1-5.54,1.7h0l-.16,1.8q-.12,1.34-1.07,1.34h-.13q-1.09-.1-1-1.49l.16-1.84a10.68,10.68,0,0,1-3.05-1,6.18,6.18,0,0,1-2.12-1.9,7.26,7.26,0,0,1-1-1.89,4.13,4.13,0,0,1-.27-1.72,2,2,0,0,1,.75-1.41,2,2,0,0,1,1.35-.5h.21a2.12,2.12,0,0,1,2,2,3.87,3.87,0,0,0,2.45,3.06l.63-7.07q-2.06-.77-3.26-1.35a7,7,0,0,1-2.11-1.58,6.39,6.39,0,0,1-1.42-2.38,7,7,0,0,1-.32-2.9,7.58,7.58,0,0,1,1.23-3.55,7.21,7.21,0,0,1,2.92-2.52,9.53,9.53,0,0,1,4.24-.9h.07l.38-4.23a4,4,0,0,1,.33-1.44.77.77,0,0,1,.75-.39m-1.75,9.38a4.68,4.68,0,0,0-2.77,1.14,3.51,3.51,0,0,0-1.15,2.33,2.91,2.91,0,0,0,.71,2.37,7.43,7.43,0,0,0,2.55,1.61l.66-7.44m.46,19.19a6,6,0,0,0,2.33-.92,3.17,3.17,0,0,0,.42-4.13,6.9,6.9,0,0,0-2.17-1.45l-.58,6.51m1.29-30.57a2.75,2.75,0,0,0-2.51,1.44,5.73,5.73,0,0,0-.56,2.21l-.23,2.52a10.81,10.81,0,0,0-3.35,1,9.22,9.22,0,0,0-3.71,3.22,9.59,9.59,0,0,0-1.56,4.47,9.07,9.07,0,0,0,.41,3.71,8.4,8.4,0,0,0,1.86,3.12,8.89,8.89,0,0,0,1.92,1.58l-.38,0a4.06,4.06,0,0,0-2.63,1,4,4,0,0,0-1.46,2.77,6.12,6.12,0,0,0,.37,2.56,9.28,9.28,0,0,0,1.3,2.41,8.15,8.15,0,0,0,2.78,2.48,11,11,0,0,0,1.86.78v.14A3.08,3.08,0,0,0,534,156h.31a3.1,3.1,0,0,0,3.06-3.16v-.09a9.45,9.45,0,0,0,5-2.05,8.65,8.65,0,0,0-.48-13.79,5,5,0,0,0,.58.09l.41,0a4.12,4.12,0,0,0,2.72-1,4.06,4.06,0,0,0,1.46-2.75,7.89,7.89,0,0,0-.36-3.07,9.45,9.45,0,0,0-1.61-3,10.28,10.28,0,0,0-2.88-2.49,11.61,11.61,0,0,0-2.27-1l.26-2.91a4,4,0,0,0-.37-2.3,2.89,2.89,0,0,0-2.41-1.5ZM539,135.28l.07-.81a3.83,3.83,0,0,0,.73,1.17l-.8-.36Zm-6.75,6.28-.09-.1.09,0v.06Z"/><path class="cls-2" d="M543.46,206.41h-.22a1.94,1.94,0,0,1-1.54-.87,2.64,2.64,0,0,1-.33-1.7l.09-1a10.83,10.83,0,0,1-2.45-.93,7.22,7.22,0,0,1-2.46-2.2,8.24,8.24,0,0,1-1.15-2.14,5.13,5.13,0,0,1-.32-2.14,3.13,3.13,0,0,1,3.09-2.82h.3a3.11,3.11,0,0,1,2.89,2.81,3,3,0,0,0,.62,1.44l.41-4.61c-1.07-.41-2-.79-2.64-1.12a8,8,0,0,1-2.41-1.8,7.4,7.4,0,0,1-1.63-2.74,8.07,8.07,0,0,1-.36-3.3,8.6,8.6,0,0,1,1.39-4,8.24,8.24,0,0,1,3.32-2.87,10.16,10.16,0,0,1,3.83-1l.3-3.35a4.78,4.78,0,0,1,.44-1.83,1.74,1.74,0,0,1,1.63-.92h.24a1.92,1.92,0,0,1,1.62,1,3,3,0,0,1,.26,1.74l-.33,3.72a11.23,11.23,0,0,1,2.83,1.16,9.33,9.33,0,0,1,2.6,2.24,8.45,8.45,0,0,1,1.44,2.66,6.89,6.89,0,0,1,.32,2.68,3,3,0,0,1-1.11,2.08,3.09,3.09,0,0,1-2.07.76h-.32a3.25,3.25,0,0,1-1.8-.69,2.84,2.84,0,0,1-1-1.63,20.33,20.33,0,0,0-.57-2.08,3.16,3.16,0,0,0-.69-1.09l-.16-.15-.5,5.61a20.27,20.27,0,0,1,3.15,1.55,7.44,7.44,0,0,1,2.63,2.79,8.3,8.3,0,0,1-1.9,9.63,8.89,8.89,0,0,1-5.3,1.9l-.08.92C545.33,206.24,543.89,206.41,543.46,206.41Zm2.65-8.84a3.4,3.4,0,0,0,.61-.35c.12-.09.49-.36.58-1.32a1.69,1.69,0,0,0-.31-1.34,3.6,3.6,0,0,0-.57-.49ZM543.4,181a3,3,0,0,0-1,.6,2.52,2.52,0,0,0-.83,1.69,2,2,0,0,0,.44,1.59,4.59,4.59,0,0,0,1,.75Z"/><path class="cls-3" d="M546.27,170.38h.15a1,1,0,0,1,.82.45,2.15,2.15,0,0,1,.14,1.18L547,176.6a10.77,10.77,0,0,1,3.39,1.25,8.26,8.26,0,0,1,2.32,2,7.43,7.43,0,0,1,1.27,2.34,5.87,5.87,0,0,1,.27,2.29,2.07,2.07,0,0,1-.77,1.41,2.11,2.11,0,0,1-1.41.52h-.23a2.26,2.26,0,0,1-1.26-.47,1.85,1.85,0,0,1-.64-1.07,21.6,21.6,0,0,0-.61-2.2,4.12,4.12,0,0,0-.91-1.44,4.61,4.61,0,0,0-1.74-1.1L546,188a20.83,20.83,0,0,1,3.68,1.74,6.43,6.43,0,0,1,2.28,2.42,7.31,7.31,0,0,1-1.67,8.38,8.35,8.35,0,0,1-5.54,1.7h0l-.16,1.8q-.12,1.34-1.07,1.34h-.13q-1.09-.1-1-1.49l.16-1.84a10.68,10.68,0,0,1-3.05-1,6.18,6.18,0,0,1-2.12-1.9,7.26,7.26,0,0,1-1-1.89,4.13,4.13,0,0,1-.27-1.72,2,2,0,0,1,.75-1.41,2,2,0,0,1,1.35-.5h.21a2.12,2.12,0,0,1,2,2,3.87,3.87,0,0,0,2.45,3.06l.63-7.07q-2.06-.77-3.26-1.35a7,7,0,0,1-2.11-1.58,6.39,6.39,0,0,1-1.42-2.38,7,7,0,0,1-.31-2.9,7.58,7.58,0,0,1,1.23-3.55,7.21,7.21,0,0,1,2.92-2.52,9.53,9.53,0,0,1,4.24-.9h.07l.38-4.23a4,4,0,0,1,.33-1.44.77.77,0,0,1,.75-.39m-1.75,9.38a4.68,4.68,0,0,0-2.77,1.14,3.51,3.51,0,0,0-1.15,2.33,2.91,2.91,0,0,0,.71,2.37,7.43,7.43,0,0,0,2.55,1.61l.66-7.44M545,199a6,6,0,0,0,2.33-.92,3.17,3.17,0,0,0,.42-4.13,6.9,6.9,0,0,0-2.17-1.45L545,199m1.29-30.57a2.75,2.75,0,0,0-2.51,1.45,5.72,5.72,0,0,0-.55,2.21l-.23,2.52a10.82,10.82,0,0,0-3.35,1,9.22,9.22,0,0,0-3.71,3.22,9.59,9.59,0,0,0-1.56,4.47,9.07,9.07,0,0,0,.41,3.71,8.41,8.41,0,0,0,1.86,3.12,8.9,8.9,0,0,0,1.92,1.58l-.38,0a4.06,4.06,0,0,0-2.63,1,4,4,0,0,0-1.46,2.77,6.12,6.12,0,0,0,.37,2.56,9.29,9.29,0,0,0,1.3,2.41,8.15,8.15,0,0,0,2.78,2.48,11,11,0,0,0,1.86.78v.14a3.61,3.61,0,0,0,.49,2.33,3,3,0,0,0,2.29,1.33h.31a3.1,3.1,0,0,0,3.06-3.16v-.09a9.45,9.45,0,0,0,5-2.05,8.65,8.65,0,0,0-.48-13.79,5,5,0,0,0,.58.09l.41,0a4.12,4.12,0,0,0,2.72-1,4.06,4.06,0,0,0,1.46-2.75,7.89,7.89,0,0,0-.36-3.07,9.45,9.45,0,0,0-1.61-3,10.28,10.28,0,0,0-2.88-2.49,11.61,11.61,0,0,0-2.27-1l.26-2.91a4,4,0,0,0-.37-2.3,2.89,2.89,0,0,0-2.41-1.49Zm1.81,18.34.07-.81a3.83,3.83,0,0,0,.73,1.17l-.8-.36ZM541.33,193l-.09-.1.09,0V193Z"/><path class="cls-2" d="M576.53,175.1h-.22a2.09,2.09,0,0,1-1.87-2.58l.09-1a10.83,10.83,0,0,1-2.45-.93,7.22,7.22,0,0,1-2.46-2.2,8.29,8.29,0,0,1-1.15-2.14,5.14,5.14,0,0,1-.32-2.14,3.13,3.13,0,0,1,3.09-2.82h.3a3.11,3.11,0,0,1,2.89,2.81,3,3,0,0,0,.62,1.44l.41-4.6c-1.07-.41-2-.79-2.64-1.12a8,8,0,0,1-2.41-1.8,7.4,7.4,0,0,1-1.63-2.74,8.08,8.08,0,0,1-.36-3.3,8.59,8.59,0,0,1,1.39-4,8.24,8.24,0,0,1,3.32-2.87,10.16,10.16,0,0,1,3.83-1l.3-3.35a4.79,4.79,0,0,1,.44-1.83,1.77,1.77,0,0,1,1.63-.92h.24a1.92,1.92,0,0,1,1.62,1,3,3,0,0,1,.26,1.74l-.33,3.72a11.17,11.17,0,0,1,2.83,1.16,9.28,9.28,0,0,1,2.6,2.24,8.42,8.42,0,0,1,1.44,2.66,6.88,6.88,0,0,1,.32,2.68,3,3,0,0,1-1.11,2.08,3.09,3.09,0,0,1-2.07.76h-.32a3.26,3.26,0,0,1-1.8-.69,2.83,2.83,0,0,1-1-1.63,20.36,20.36,0,0,0-.57-2.08,3.16,3.16,0,0,0-.69-1.09l-.16-.15-.5,5.61a20.39,20.39,0,0,1,3.15,1.55,7.43,7.43,0,0,1,2.63,2.79A8.3,8.3,0,0,1,584,170a8.88,8.88,0,0,1-5.3,1.9l-.08.92C578.41,174.94,577,175.1,576.53,175.1Zm2.65-8.84a3.4,3.4,0,0,0,.61-.35c.12-.09.49-.36.58-1.32a1.69,1.69,0,0,0-.31-1.34,3.5,3.5,0,0,0-.57-.49Zm-2.71-16.53a3,3,0,0,0-1,.6,2.52,2.52,0,0,0-.83,1.69,2,2,0,0,0,.44,1.59,4.55,4.55,0,0,0,1,.75Z"/><path class="cls-3" d="M579.34,139.08h.15a1,1,0,0,1,.82.45,2.15,2.15,0,0,1,.14,1.18l-.41,4.59a10.78,10.78,0,0,1,3.39,1.25,8.26,8.26,0,0,1,2.32,2,7.43,7.43,0,0,1,1.27,2.34,5.87,5.87,0,0,1,.27,2.29,2.07,2.07,0,0,1-.77,1.41,2.11,2.11,0,0,1-1.41.52h-.23a2.26,2.26,0,0,1-1.26-.47,1.85,1.85,0,0,1-.64-1.07,21.58,21.58,0,0,0-.61-2.2,4.12,4.12,0,0,0-.91-1.44,4.61,4.61,0,0,0-1.74-1.1l-.71,7.9a20.83,20.83,0,0,1,3.68,1.74,6.43,6.43,0,0,1,2.28,2.42,7.31,7.31,0,0,1-1.67,8.38,8.35,8.35,0,0,1-5.54,1.69h0l-.16,1.8q-.12,1.34-1.07,1.34h-.13q-1.09-.1-1-1.49l.16-1.84a10.68,10.68,0,0,1-3.05-1,6.18,6.18,0,0,1-2.12-1.9,7.25,7.25,0,0,1-1-1.89,4.13,4.13,0,0,1-.27-1.72,2,2,0,0,1,.75-1.41,2,2,0,0,1,1.35-.5h.21a2.12,2.12,0,0,1,2,2,3.87,3.87,0,0,0,2.45,3.06l.63-7.07q-2.06-.77-3.26-1.35a7,7,0,0,1-2.11-1.58,6.39,6.39,0,0,1-1.42-2.38,7,7,0,0,1-.31-2.9,7.58,7.58,0,0,1,1.23-3.55,7.21,7.21,0,0,1,2.92-2.52,9.53,9.53,0,0,1,4.24-.9h.07l.38-4.23a4,4,0,0,1,.33-1.44.77.77,0,0,1,.75-.39m-1.75,9.38a4.68,4.68,0,0,0-2.77,1.14,3.51,3.51,0,0,0-1.15,2.33,2.91,2.91,0,0,0,.71,2.37,7.43,7.43,0,0,0,2.55,1.61l.66-7.44m.46,19.19a6,6,0,0,0,2.33-.92,3.17,3.17,0,0,0,.42-4.13,6.9,6.9,0,0,0-2.17-1.45l-.58,6.51m1.29-30.57a2.75,2.75,0,0,0-2.51,1.44,5.72,5.72,0,0,0-.56,2.21l-.23,2.52a10.81,10.81,0,0,0-3.35,1,9.22,9.22,0,0,0-3.71,3.22,9.59,9.59,0,0,0-1.56,4.47,9.06,9.06,0,0,0,.41,3.71,8.41,8.41,0,0,0,1.86,3.12,8.9,8.9,0,0,0,1.92,1.58l-.38,0a4.05,4.05,0,0,0-2.63,1,4,4,0,0,0-1.46,2.77,6.12,6.12,0,0,0,.37,2.56,9.28,9.28,0,0,0,1.3,2.41,8.15,8.15,0,0,0,2.78,2.48,11,11,0,0,0,1.86.78v.14a3.61,3.61,0,0,0,.49,2.33,3,3,0,0,0,2.29,1.33h.31a3.1,3.1,0,0,0,3.06-3.16v-.09a9.45,9.45,0,0,0,5-2.05,8.65,8.65,0,0,0-.48-13.79,5,5,0,0,0,.58.09l.41,0a4.12,4.12,0,0,0,2.72-1,4.06,4.06,0,0,0,1.46-2.75,7.88,7.88,0,0,0-.36-3.07,9.44,9.44,0,0,0-1.61-3,10.28,10.28,0,0,0-2.88-2.49,11.61,11.61,0,0,0-2.27-1l.26-2.91a4,4,0,0,0-.37-2.3,2.89,2.89,0,0,0-2.41-1.49Zm1.81,18.34.07-.81a3.83,3.83,0,0,0,.73,1.17l-.8-.36Zm-6.75,6.28-.09-.1.09,0v.06Z"/><path class="cls-2" d="M110.66,210.8h-.22a1.94,1.94,0,0,1-1.54-.87,2.64,2.64,0,0,1-.33-1.7l.09-1a10.78,10.78,0,0,1-2.45-.93,7.19,7.19,0,0,1-2.46-2.2A8.22,8.22,0,0,1,102.6,202a5.13,5.13,0,0,1-.32-2.14,3.13,3.13,0,0,1,3.09-2.82h.3a3.11,3.11,0,0,1,2.89,2.81,3,3,0,0,0,.62,1.44l.41-4.6c-1.07-.41-2-.79-2.64-1.12a8,8,0,0,1-2.41-1.8,7.4,7.4,0,0,1-1.63-2.74,8.07,8.07,0,0,1-.36-3.3,8.61,8.61,0,0,1,1.39-4,8.24,8.24,0,0,1,3.32-2.87,10.16,10.16,0,0,1,3.83-1l.3-3.35a4.79,4.79,0,0,1,.44-1.83,1.74,1.74,0,0,1,1.63-.92h.24a1.9,1.9,0,0,1,1.62,1,3,3,0,0,1,.26,1.74l-.33,3.72a11.21,11.21,0,0,1,2.83,1.16,9.32,9.32,0,0,1,2.6,2.24,8.47,8.47,0,0,1,1.44,2.66,6.89,6.89,0,0,1,.32,2.68,3,3,0,0,1-1.11,2.08,3.09,3.09,0,0,1-2.07.76h-.32a3.24,3.24,0,0,1-1.8-.69,2.84,2.84,0,0,1-1-1.63,20.33,20.33,0,0,0-.57-2.08,3.16,3.16,0,0,0-.69-1.09l-.16-.15-.5,5.61a20.39,20.39,0,0,1,3.15,1.55,7.91,7.91,0,0,1,.73,12.42,8.87,8.87,0,0,1-5.3,1.9l-.08.92C112.54,210.63,111.1,210.8,110.66,210.8Zm2.65-8.84a3.32,3.32,0,0,0,.61-.35c.12-.09.49-.36.58-1.32a1.69,1.69,0,0,0-.31-1.34,3.55,3.55,0,0,0-.57-.49Zm-2.71-16.53a3,3,0,0,0-1,.6,2.52,2.52,0,0,0-.83,1.69,2,2,0,0,0,.44,1.59,4.58,4.58,0,0,0,1,.75Z"/><path class="cls-3" d="M113.47,174.77h.15a1,1,0,0,1,.82.45,2.15,2.15,0,0,1,.14,1.18l-.41,4.59a10.78,10.78,0,0,1,3.39,1.25,8.26,8.26,0,0,1,2.32,2,7.43,7.43,0,0,1,1.27,2.34,5.87,5.87,0,0,1,.27,2.29,2.07,2.07,0,0,1-.77,1.41,2.11,2.11,0,0,1-1.41.52H119a2.26,2.26,0,0,1-1.26-.47,1.85,1.85,0,0,1-.64-1.07,21.6,21.6,0,0,0-.61-2.2,4.12,4.12,0,0,0-.91-1.44,4.61,4.61,0,0,0-1.74-1.1l-.71,7.9a20.83,20.83,0,0,1,3.68,1.74,6.43,6.43,0,0,1,2.28,2.42,7.31,7.31,0,0,1-1.67,8.38,8.35,8.35,0,0,1-5.54,1.7h0l-.16,1.8q-.12,1.34-1.07,1.34h-.13q-1.09-.1-1-1.49l.16-1.84a10.68,10.68,0,0,1-3.05-1,6.18,6.18,0,0,1-2.12-1.9,7.26,7.26,0,0,1-1-1.89,4.13,4.13,0,0,1-.27-1.72,2,2,0,0,1,.75-1.41,2,2,0,0,1,1.35-.5h.21a2.12,2.12,0,0,1,2,2,3.87,3.87,0,0,0,2.45,3.06l.63-7.07q-2.06-.77-3.26-1.35a7,7,0,0,1-2.11-1.58,6.39,6.39,0,0,1-1.42-2.38,7,7,0,0,1-.31-2.9,7.58,7.58,0,0,1,1.23-3.55,7.21,7.21,0,0,1,2.92-2.52,9.52,9.52,0,0,1,4.24-.9H112l.38-4.23a4,4,0,0,1,.33-1.44.77.77,0,0,1,.75-.39m-1.75,9.38a4.68,4.68,0,0,0-2.77,1.14,3.51,3.51,0,0,0-1.15,2.33,2.91,2.91,0,0,0,.71,2.37,7.43,7.43,0,0,0,2.55,1.61l.66-7.44m.46,19.19a6,6,0,0,0,2.33-.92,3.17,3.17,0,0,0,.42-4.13,6.9,6.9,0,0,0-2.17-1.45l-.58,6.51m1.29-30.57a2.75,2.75,0,0,0-2.51,1.45,5.72,5.72,0,0,0-.56,2.21l-.23,2.52a10.81,10.81,0,0,0-3.35,1,9.22,9.22,0,0,0-3.71,3.22,9.59,9.59,0,0,0-1.56,4.47,9.07,9.07,0,0,0,.41,3.71,8.41,8.41,0,0,0,1.86,3.12,8.89,8.89,0,0,0,1.92,1.58l-.38,0a4.06,4.06,0,0,0-2.63,1,4,4,0,0,0-1.46,2.77,6.12,6.12,0,0,0,.37,2.56,9.28,9.28,0,0,0,1.3,2.41,8.15,8.15,0,0,0,2.78,2.48,11,11,0,0,0,1.86.78v.14a3.08,3.08,0,0,0,2.78,3.66h.31a3.1,3.1,0,0,0,3.06-3.16v-.09a9.45,9.45,0,0,0,5-2.05,8.65,8.65,0,0,0-.48-13.79,5,5,0,0,0,.58.08l.41,0a4.12,4.12,0,0,0,2.72-1,4.06,4.06,0,0,0,1.46-2.75,7.89,7.89,0,0,0-.36-3.07,9.44,9.44,0,0,0-1.61-3,10.29,10.29,0,0,0-2.88-2.49,11.62,11.62,0,0,0-2.27-1l.26-2.91a4,4,0,0,0-.37-2.3,2.89,2.89,0,0,0-2.41-1.49Zm1.81,18.34.07-.81a3.82,3.82,0,0,0,.73,1.17l-.8-.36Zm-6.75,6.28-.09-.1.09,0v.06Z"/><path class="cls-2" d="M193.53,206.77h-.22a1.94,1.94,0,0,1-1.54-.87,2.64,2.64,0,0,1-.33-1.7l.09-1a10.78,10.78,0,0,1-2.45-.93,7.2,7.2,0,0,1-2.46-2.2,8.26,8.26,0,0,1-1.15-2.14,5.11,5.11,0,0,1-.32-2.14,3.13,3.13,0,0,1,3.09-2.82h.3a3.11,3.11,0,0,1,2.89,2.81,3,3,0,0,0,.62,1.44l.41-4.6c-1.07-.41-2-.79-2.64-1.12a8,8,0,0,1-2.41-1.8,7.4,7.4,0,0,1-1.63-2.74,8.09,8.09,0,0,1-.36-3.31,8.62,8.62,0,0,1,1.39-4,8.24,8.24,0,0,1,3.32-2.87,10.16,10.16,0,0,1,3.83-1l.3-3.35a4.83,4.83,0,0,1,.44-1.83,1.75,1.75,0,0,1,1.63-.92h.24a1.9,1.9,0,0,1,1.62,1,3.06,3.06,0,0,1,.26,1.74l-.33,3.72a11.16,11.16,0,0,1,2.83,1.16,9.28,9.28,0,0,1,2.6,2.24,8.44,8.44,0,0,1,1.44,2.66,6.89,6.89,0,0,1,.32,2.68,3,3,0,0,1-1.11,2.08,3.09,3.09,0,0,1-2.07.76h-.32a3.26,3.26,0,0,1-1.8-.69,2.83,2.83,0,0,1-1-1.63,20.24,20.24,0,0,0-.57-2.08,3.09,3.09,0,0,0-.69-1.09l-.16-.15-.5,5.61a20.37,20.37,0,0,1,3.15,1.55,7.44,7.44,0,0,1,2.63,2.79,8.3,8.3,0,0,1-1.9,9.63,8.87,8.87,0,0,1-5.3,1.9l-.08.92C195.4,206.61,194,206.77,193.53,206.77Zm2.65-8.84a3.32,3.32,0,0,0,.61-.35c.12-.09.49-.36.58-1.31a1.69,1.69,0,0,0-.31-1.34,3.55,3.55,0,0,0-.57-.49Zm-2.71-16.53a3.05,3.05,0,0,0-1,.6,2.52,2.52,0,0,0-.83,1.69,2,2,0,0,0,.44,1.59,4.52,4.52,0,0,0,1,.75Z"/><path class="cls-3" d="M196.34,170.74h.15a1,1,0,0,1,.82.45,2.15,2.15,0,0,1,.14,1.18L197,177a10.77,10.77,0,0,1,3.39,1.25,8.26,8.26,0,0,1,2.32,2,7.43,7.43,0,0,1,1.27,2.34,5.87,5.87,0,0,1,.27,2.29,2.07,2.07,0,0,1-.77,1.41,2.11,2.11,0,0,1-1.41.52h-.23a2.26,2.26,0,0,1-1.26-.47,1.85,1.85,0,0,1-.64-1.07,21.63,21.63,0,0,0-.61-2.2,4.13,4.13,0,0,0-.91-1.44,4.61,4.61,0,0,0-1.74-1.1l-.71,7.9a20.83,20.83,0,0,1,3.68,1.74,6.43,6.43,0,0,1,2.28,2.42,7.31,7.31,0,0,1-1.67,8.38,8.35,8.35,0,0,1-5.54,1.7h0l-.16,1.8q-.12,1.34-1.07,1.34h-.13q-1.09-.1-1-1.49l.16-1.84a10.68,10.68,0,0,1-3.05-1,6.18,6.18,0,0,1-2.12-1.9,7.26,7.26,0,0,1-1-1.89,4.13,4.13,0,0,1-.27-1.72,2,2,0,0,1,.75-1.41,2,2,0,0,1,1.35-.5h.21a2.12,2.12,0,0,1,2,2,3.87,3.87,0,0,0,2.45,3.06l.63-7.07q-2.06-.77-3.26-1.35a7,7,0,0,1-2.11-1.58,6.39,6.39,0,0,1-1.42-2.38,7,7,0,0,1-.32-2.9,7.58,7.58,0,0,1,1.23-3.55,7.21,7.21,0,0,1,2.92-2.52,9.53,9.53,0,0,1,4.24-.9h.07l.38-4.23a4,4,0,0,1,.33-1.44.77.77,0,0,1,.75-.39m-1.75,9.38a4.68,4.68,0,0,0-2.77,1.14,3.51,3.51,0,0,0-1.15,2.33,2.91,2.91,0,0,0,.71,2.37,7.43,7.43,0,0,0,2.55,1.61l.66-7.44m.46,19.19a6,6,0,0,0,2.33-.92,3.17,3.17,0,0,0,.42-4.13,6.9,6.9,0,0,0-2.17-1.45l-.58,6.51m1.29-30.57a2.75,2.75,0,0,0-2.51,1.44,5.73,5.73,0,0,0-.56,2.21l-.23,2.52a10.81,10.81,0,0,0-3.35,1,9.22,9.22,0,0,0-3.71,3.22,9.59,9.59,0,0,0-1.56,4.47,9.07,9.07,0,0,0,.41,3.71,8.41,8.41,0,0,0,1.86,3.12,8.89,8.89,0,0,0,1.92,1.58l-.38,0a4.06,4.06,0,0,0-2.63,1,4,4,0,0,0-1.46,2.77,6.12,6.12,0,0,0,.37,2.56,9.28,9.28,0,0,0,1.3,2.41,8.15,8.15,0,0,0,2.78,2.48,11,11,0,0,0,1.86.78v.14a3.08,3.08,0,0,0,2.78,3.66h.31a3.1,3.1,0,0,0,3.06-3.16v-.09a9.45,9.45,0,0,0,5-2.05,8.65,8.65,0,0,0-.48-13.79,5,5,0,0,0,.58.09l.41,0a4.12,4.12,0,0,0,2.72-1A4.06,4.06,0,0,0,206.3,185a7.89,7.89,0,0,0-.36-3.07,9.45,9.45,0,0,0-1.61-3,10.28,10.28,0,0,0-2.88-2.49,11.61,11.61,0,0,0-2.27-1l.26-2.91a4,4,0,0,0-.37-2.3,2.89,2.89,0,0,0-2.41-1.5Zm1.81,18.34.07-.81a3.83,3.83,0,0,0,.73,1.17l-.8-.36Zm-6.75,6.28-.09-.1.09,0v.06Z"/><path class="cls-2" d="M78.21,178.25H78a1.94,1.94,0,0,1-1.54-.87,2.64,2.64,0,0,1-.33-1.7l.09-1a10.78,10.78,0,0,1-2.45-.93,7.19,7.19,0,0,1-2.46-2.2,8.23,8.23,0,0,1-1.15-2.14,5.14,5.14,0,0,1-.32-2.14,3.13,3.13,0,0,1,3.09-2.82h.3a3.11,3.11,0,0,1,2.89,2.81,3,3,0,0,0,.62,1.44l.41-4.6c-1.07-.41-2-.79-2.64-1.12a8,8,0,0,1-2.41-1.8,7.4,7.4,0,0,1-1.63-2.74,8.08,8.08,0,0,1-.36-3.31,8.61,8.61,0,0,1,1.39-4,8.24,8.24,0,0,1,3.32-2.87,10.16,10.16,0,0,1,3.83-1L79,144a4.84,4.84,0,0,1,.44-1.83,1.75,1.75,0,0,1,1.63-.92h.24a1.91,1.91,0,0,1,1.62,1,3.06,3.06,0,0,1,.26,1.74l-.33,3.72a11.17,11.17,0,0,1,2.83,1.16,9.3,9.3,0,0,1,2.6,2.24,8.47,8.47,0,0,1,1.44,2.66,6.87,6.87,0,0,1,.32,2.68,3.21,3.21,0,0,1-3.18,2.85h-.32a3.24,3.24,0,0,1-1.8-.69,2.84,2.84,0,0,1-1-1.63,20.68,20.68,0,0,0-.57-2.08,3.14,3.14,0,0,0-.69-1.09l-.16-.15-.5,5.61a20.3,20.3,0,0,1,3.15,1.55,7.91,7.91,0,0,1,.73,12.42,8.88,8.88,0,0,1-5.3,1.9l-.08.92C80.09,178.08,78.65,178.25,78.21,178.25Zm2.65-8.84a3.32,3.32,0,0,0,.61-.35c.12-.09.49-.36.58-1.32a1.69,1.69,0,0,0-.31-1.33,3.51,3.51,0,0,0-.57-.49Zm-2.71-16.53a3,3,0,0,0-1,.6,2.52,2.52,0,0,0-.83,1.69,2,2,0,0,0,.44,1.59,4.55,4.55,0,0,0,1,.75Z"/><path class="cls-3" d="M81,142.22h.15a1,1,0,0,1,.82.45,2.15,2.15,0,0,1,.14,1.18l-.41,4.59a10.79,10.79,0,0,1,3.39,1.25,8.26,8.26,0,0,1,2.32,2A7.43,7.43,0,0,1,88.72,154a5.87,5.87,0,0,1,.27,2.29,2.07,2.07,0,0,1-.77,1.41,2.11,2.11,0,0,1-1.41.52h-.23a2.26,2.26,0,0,1-1.26-.47,1.85,1.85,0,0,1-.64-1.07,21.59,21.59,0,0,0-.61-2.2,4.12,4.12,0,0,0-.91-1.44,4.61,4.61,0,0,0-1.74-1.1l-.71,7.9a20.83,20.83,0,0,1,3.68,1.74A6.43,6.43,0,0,1,86.68,164,7.31,7.31,0,0,1,85,172.41a8.35,8.35,0,0,1-5.54,1.7h0l-.16,1.8q-.12,1.34-1.07,1.34h-.13q-1.09-.1-1-1.49l.16-1.84a10.66,10.66,0,0,1-3.05-1,6.18,6.18,0,0,1-2.12-1.9,7.26,7.26,0,0,1-1-1.89,4.13,4.13,0,0,1-.27-1.72,2,2,0,0,1,.75-1.41,2,2,0,0,1,1.35-.5h.21a2.12,2.12,0,0,1,2,2,3.87,3.87,0,0,0,2.45,3.06l.63-7.07q-2.06-.77-3.26-1.35a7,7,0,0,1-2.11-1.58,6.39,6.39,0,0,1-1.42-2.38,7.05,7.05,0,0,1-.32-2.9,7.58,7.58,0,0,1,1.23-3.55,7.21,7.21,0,0,1,2.92-2.52,9.52,9.52,0,0,1,4.24-.9h.07l.38-4.23a4,4,0,0,1,.33-1.44.77.77,0,0,1,.75-.39m-1.75,9.38a4.68,4.68,0,0,0-2.77,1.14,3.51,3.51,0,0,0-1.15,2.33,2.91,2.91,0,0,0,.71,2.37A7.43,7.43,0,0,0,78.61,159l.66-7.44m.46,19.19a6,6,0,0,0,2.33-.92,3.17,3.17,0,0,0,.42-4.13,6.9,6.9,0,0,0-2.17-1.45l-.58,6.51M81,140.22a2.75,2.75,0,0,0-2.51,1.44,5.72,5.72,0,0,0-.55,2.21l-.23,2.52a10.81,10.81,0,0,0-3.35,1,9.22,9.22,0,0,0-3.71,3.22,9.59,9.59,0,0,0-1.56,4.47,9.07,9.07,0,0,0,.41,3.71,8.41,8.41,0,0,0,1.86,3.12,8.9,8.9,0,0,0,1.92,1.58l-.38,0a4.05,4.05,0,0,0-2.63,1,4,4,0,0,0-1.46,2.77,6.12,6.12,0,0,0,.37,2.56,9.29,9.29,0,0,0,1.3,2.41,8.15,8.15,0,0,0,2.78,2.48,11,11,0,0,0,1.86.78v.14a3.61,3.61,0,0,0,.49,2.33,3,3,0,0,0,2.29,1.33h.31a3.1,3.1,0,0,0,3.06-3.16V176a9.45,9.45,0,0,0,5-2.05,8.65,8.65,0,0,0-.48-13.79,5,5,0,0,0,.58.09l.41,0a4.12,4.12,0,0,0,2.72-1A4.06,4.06,0,0,0,91,156.5a7.89,7.89,0,0,0-.36-3.07,9.45,9.45,0,0,0-1.61-3A10.29,10.29,0,0,0,86.15,148a11.61,11.61,0,0,0-2.27-1l.26-2.91a4,4,0,0,0-.37-2.3,2.89,2.89,0,0,0-2.41-1.49Zm1.81,18.34.07-.81a3.83,3.83,0,0,0,.73,1.17l-.8-.36Zm-6.75,6.28-.09-.1.09,0v.06Z"/><path class="cls-2" d="M126.85,152.07h-.22a2.09,2.09,0,0,1-1.87-2.58l.09-1a10.78,10.78,0,0,1-2.45-.93,7.22,7.22,0,0,1-2.46-2.2,8.3,8.3,0,0,1-1.15-2.14,5.13,5.13,0,0,1-.32-2.14,3.13,3.13,0,0,1,3.09-2.82h.3a3.11,3.11,0,0,1,2.89,2.81,3,3,0,0,0,.62,1.44l.41-4.61c-1.07-.41-2-.79-2.64-1.12a8,8,0,0,1-2.41-1.8,7.39,7.39,0,0,1-1.63-2.74,8.07,8.07,0,0,1-.36-3.3,8.59,8.59,0,0,1,1.39-4,8.24,8.24,0,0,1,3.32-2.87,10.14,10.14,0,0,1,3.83-1l.3-3.35A4.83,4.83,0,0,1,128,116a1.77,1.77,0,0,1,1.63-.92h.24a1.92,1.92,0,0,1,1.62,1,3,3,0,0,1,.26,1.74l-.33,3.72a11.17,11.17,0,0,1,2.83,1.16,9.28,9.28,0,0,1,2.6,2.24,8.46,8.46,0,0,1,1.44,2.66,6.88,6.88,0,0,1,.32,2.68,3,3,0,0,1-1.11,2.08,3.09,3.09,0,0,1-2.07.76h-.32a3.26,3.26,0,0,1-1.8-.69,2.83,2.83,0,0,1-1-1.63,20.39,20.39,0,0,0-.57-2.09,3.14,3.14,0,0,0-.69-1.09l-.16-.15-.5,5.61a20.46,20.46,0,0,1,3.15,1.55,7.43,7.43,0,0,1,2.63,2.79,8.3,8.3,0,0,1-1.9,9.63,8.87,8.87,0,0,1-5.3,1.9l-.08.92C128.72,151.91,127.28,152.07,126.85,152.07Zm2.65-8.84a3.4,3.4,0,0,0,.61-.35c.12-.09.49-.36.58-1.32a1.68,1.68,0,0,0-.31-1.34,3.5,3.5,0,0,0-.57-.49Zm-2.71-16.53a3,3,0,0,0-1,.6A2.52,2.52,0,0,0,125,129a2,2,0,0,0,.44,1.59,4.52,4.52,0,0,0,1,.75Z"/><path class="cls-3" d="M129.66,116h.15a1,1,0,0,1,.82.45,2.15,2.15,0,0,1,.14,1.18l-.41,4.59a10.78,10.78,0,0,1,3.39,1.25,8.26,8.26,0,0,1,2.32,2,7.43,7.43,0,0,1,1.27,2.34,5.87,5.87,0,0,1,.27,2.29,2.07,2.07,0,0,1-.77,1.41,2.11,2.11,0,0,1-1.41.52h-.23a2.26,2.26,0,0,1-1.26-.47,1.85,1.85,0,0,1-.64-1.07,21.6,21.6,0,0,0-.61-2.2,4.13,4.13,0,0,0-.91-1.44,4.61,4.61,0,0,0-1.74-1.1l-.71,7.9a20.85,20.85,0,0,1,3.68,1.74,6.43,6.43,0,0,1,2.28,2.42,7.31,7.31,0,0,1-1.67,8.38,8.35,8.35,0,0,1-5.54,1.7h0l-.16,1.8q-.12,1.34-1.07,1.34h-.13q-1.09-.1-1-1.49l.16-1.84a10.67,10.67,0,0,1-3.05-1,6.18,6.18,0,0,1-2.12-1.9,7.26,7.26,0,0,1-1-1.89,4.13,4.13,0,0,1-.27-1.72,2,2,0,0,1,.75-1.41,2,2,0,0,1,1.35-.5h.21a2.12,2.12,0,0,1,2,2,3.87,3.87,0,0,0,2.45,3.06l.63-7.07q-2.06-.77-3.26-1.35a7,7,0,0,1-2.11-1.58,6.39,6.39,0,0,1-1.42-2.38,7,7,0,0,1-.32-2.9,7.58,7.58,0,0,1,1.23-3.55,7.21,7.21,0,0,1,2.92-2.52,9.52,9.52,0,0,1,4.24-.9h.07l.38-4.23a4,4,0,0,1,.33-1.44.77.77,0,0,1,.75-.39m-1.75,9.38a4.68,4.68,0,0,0-2.77,1.14,3.51,3.51,0,0,0-1.15,2.33,2.91,2.91,0,0,0,.71,2.37,7.43,7.43,0,0,0,2.55,1.61l.66-7.44m.46,19.19a6,6,0,0,0,2.33-.92,3.17,3.17,0,0,0,.42-4.13,6.9,6.9,0,0,0-2.17-1.45l-.58,6.51M129.66,114a2.75,2.75,0,0,0-2.51,1.45,5.72,5.72,0,0,0-.56,2.21l-.23,2.52a10.81,10.81,0,0,0-3.35,1,9.22,9.22,0,0,0-3.71,3.22,9.59,9.59,0,0,0-1.56,4.47,9.07,9.07,0,0,0,.41,3.71,8.41,8.41,0,0,0,1.86,3.12,8.89,8.89,0,0,0,1.92,1.58l-.38,0a4.06,4.06,0,0,0-2.63,1,4,4,0,0,0-1.46,2.77,6.12,6.12,0,0,0,.37,2.56,9.29,9.29,0,0,0,1.3,2.41,8.15,8.15,0,0,0,2.78,2.48,11,11,0,0,0,1.86.78v.14a3.08,3.08,0,0,0,2.78,3.66h.31a3.1,3.1,0,0,0,3.06-3.16v-.09a9.45,9.45,0,0,0,5-2.05,8.65,8.65,0,0,0-.48-13.79,4.93,4.93,0,0,0,.58.08l.41,0a4.12,4.12,0,0,0,2.72-1,4.06,4.06,0,0,0,1.46-2.75,7.89,7.89,0,0,0-.36-3.07,9.44,9.44,0,0,0-1.61-3,10.28,10.28,0,0,0-2.88-2.49,11.61,11.61,0,0,0-2.27-1l.26-2.91a4,4,0,0,0-.37-2.3,2.89,2.89,0,0,0-2.41-1.49Zm1.81,18.34.07-.81a3.83,3.83,0,0,0,.73,1.17l-.8-.36Zm-6.75,6.28-.09-.1.09,0v.06Z"/><path class="cls-2" d="M154.71,195.76h-.22a1.94,1.94,0,0,1-1.54-.87,2.64,2.64,0,0,1-.33-1.7l.09-1a10.78,10.78,0,0,1-2.45-.93,7.2,7.2,0,0,1-2.46-2.2,8.26,8.26,0,0,1-1.15-2.14,5.12,5.12,0,0,1-.32-2.14,3.13,3.13,0,0,1,3.09-2.82h.3a3.11,3.11,0,0,1,2.89,2.81,3,3,0,0,0,.62,1.44l.41-4.6c-1.07-.41-2-.79-2.64-1.12a8,8,0,0,1-2.41-1.8A7.4,7.4,0,0,1,147,176a8.09,8.09,0,0,1-.36-3.31,8.62,8.62,0,0,1,1.39-4,8.24,8.24,0,0,1,3.32-2.87,10.16,10.16,0,0,1,3.83-1l.3-3.35a4.83,4.83,0,0,1,.44-1.83,1.75,1.75,0,0,1,1.63-.92h.24a1.9,1.9,0,0,1,1.62,1,3.06,3.06,0,0,1,.26,1.74l-.33,3.72a11.14,11.14,0,0,1,2.83,1.16,9.28,9.28,0,0,1,2.6,2.24,8.47,8.47,0,0,1,1.44,2.66,6.89,6.89,0,0,1,.32,2.68,3,3,0,0,1-1.11,2.08,3.09,3.09,0,0,1-2.07.76H163a3.26,3.26,0,0,1-1.8-.69,2.83,2.83,0,0,1-1-1.63,20.24,20.24,0,0,0-.57-2.08,3.08,3.08,0,0,0-.69-1.09l-.16-.15-.5,5.61a20.37,20.37,0,0,1,3.15,1.55,7.44,7.44,0,0,1,2.63,2.79,8.3,8.3,0,0,1-1.9,9.63,8.87,8.87,0,0,1-5.3,1.9l-.08.92C156.58,195.6,155.14,195.76,154.71,195.76Zm2.65-8.84a3.32,3.32,0,0,0,.61-.35c.12-.09.49-.36.58-1.31a1.69,1.69,0,0,0-.31-1.34,3.55,3.55,0,0,0-.57-.49Zm-2.71-16.53a3.05,3.05,0,0,0-1,.6,2.52,2.52,0,0,0-.83,1.69,2,2,0,0,0,.44,1.59,4.58,4.58,0,0,0,1,.75Z"/><path class="cls-3" d="M157.52,159.73h.15a1,1,0,0,1,.82.45,2.15,2.15,0,0,1,.14,1.18l-.41,4.59a10.77,10.77,0,0,1,3.39,1.25,8.26,8.26,0,0,1,2.32,2,7.43,7.43,0,0,1,1.27,2.34,5.87,5.87,0,0,1,.27,2.29,2.07,2.07,0,0,1-.77,1.41,2.11,2.11,0,0,1-1.41.52h-.23a2.26,2.26,0,0,1-1.26-.47,1.85,1.85,0,0,1-.64-1.07,21.6,21.6,0,0,0-.61-2.2,4.13,4.13,0,0,0-.91-1.44,4.61,4.61,0,0,0-1.74-1.1l-.71,7.9a20.83,20.83,0,0,1,3.68,1.74,6.43,6.43,0,0,1,2.28,2.42,7.31,7.31,0,0,1-1.67,8.38,8.35,8.35,0,0,1-5.54,1.7h0l-.16,1.8q-.12,1.34-1.07,1.34h-.13q-1.09-.1-1-1.49l.16-1.84a10.68,10.68,0,0,1-3.05-1,6.18,6.18,0,0,1-2.12-1.9,7.26,7.26,0,0,1-1-1.89,4.13,4.13,0,0,1-.27-1.72,2,2,0,0,1,.75-1.41,2,2,0,0,1,1.35-.5h.21a2.12,2.12,0,0,1,2,2,3.87,3.87,0,0,0,2.45,3.06l.63-7.07q-2.06-.77-3.26-1.35a7,7,0,0,1-2.11-1.58,6.39,6.39,0,0,1-1.42-2.38,7,7,0,0,1-.32-2.9,7.58,7.58,0,0,1,1.23-3.55,7.21,7.21,0,0,1,2.92-2.52,9.52,9.52,0,0,1,4.24-.9h.07l.38-4.23a4,4,0,0,1,.33-1.44.77.77,0,0,1,.75-.39m-1.75,9.38a4.68,4.68,0,0,0-2.77,1.14,3.51,3.51,0,0,0-1.15,2.33,2.91,2.91,0,0,0,.71,2.37,7.43,7.43,0,0,0,2.55,1.61l.67-7.44m.46,19.19a6,6,0,0,0,2.33-.92,3.17,3.17,0,0,0,.42-4.13,6.9,6.9,0,0,0-2.17-1.45l-.58,6.51m1.29-30.57a2.75,2.75,0,0,0-2.51,1.45,5.72,5.72,0,0,0-.55,2.21l-.23,2.52a10.82,10.82,0,0,0-3.35,1,9.22,9.22,0,0,0-3.71,3.22,9.59,9.59,0,0,0-1.56,4.47,9.07,9.07,0,0,0,.41,3.71,8.41,8.41,0,0,0,1.86,3.12A8.9,8.9,0,0,0,149.8,181l-.38,0a4.06,4.06,0,0,0-2.63,1,4,4,0,0,0-1.46,2.77,6.12,6.12,0,0,0,.37,2.56,9.28,9.28,0,0,0,1.3,2.41,8.14,8.14,0,0,0,2.78,2.48,11,11,0,0,0,1.86.78v.14a3.08,3.08,0,0,0,2.78,3.66h.31a3.1,3.1,0,0,0,3.06-3.16v-.09a9.45,9.45,0,0,0,5-2.05,8.65,8.65,0,0,0-.48-13.79,5,5,0,0,0,.58.08l.41,0a4.12,4.12,0,0,0,2.72-1,4.06,4.06,0,0,0,1.46-2.75,7.89,7.89,0,0,0-.36-3.07,9.44,9.44,0,0,0-1.61-3,10.28,10.28,0,0,0-2.88-2.49,11.61,11.61,0,0,0-2.27-1l.26-2.91a4,4,0,0,0-.37-2.3,2.89,2.89,0,0,0-2.41-1.5Zm1.81,18.34.07-.81a3.83,3.83,0,0,0,.73,1.17l-.8-.36Zm-6.75,6.28-.09-.1.09,0v.06Z"/><path class="cls-2" d="M183.76,166h-.22a2.09,2.09,0,0,1-1.87-2.58l.09-1a10.83,10.83,0,0,1-2.45-.93,7.19,7.19,0,0,1-2.46-2.21,8.23,8.23,0,0,1-1.15-2.13,5.14,5.14,0,0,1-.32-2.14,3.13,3.13,0,0,1,3.09-2.82h.3a3.11,3.11,0,0,1,2.89,2.81,3,3,0,0,0,.62,1.44l.41-4.61c-1.07-.41-1.95-.79-2.64-1.12a8,8,0,0,1-2.41-1.8,7.37,7.37,0,0,1-1.63-2.74,8.08,8.08,0,0,1-.36-3.3,8.59,8.59,0,0,1,1.39-4,8.24,8.24,0,0,1,3.32-2.87,10.15,10.15,0,0,1,3.83-1l.3-3.35a4.79,4.79,0,0,1,.44-1.83,1.77,1.77,0,0,1,1.63-.92h.24a1.92,1.92,0,0,1,1.62,1,3,3,0,0,1,.26,1.74l-.33,3.72a11.17,11.17,0,0,1,2.83,1.16,9.28,9.28,0,0,1,2.6,2.24,8.42,8.42,0,0,1,1.44,2.66,6.88,6.88,0,0,1,.32,2.68,3,3,0,0,1-1.11,2.08,3.09,3.09,0,0,1-2.07.76H192a3.26,3.26,0,0,1-1.8-.69,2.83,2.83,0,0,1-1-1.63,20.39,20.39,0,0,0-.57-2.09,3.17,3.17,0,0,0-.69-1.09l-.16-.15-.5,5.61a20.37,20.37,0,0,1,3.15,1.55,7.43,7.43,0,0,1,2.63,2.79,8.3,8.3,0,0,1-1.9,9.63,8.87,8.87,0,0,1-5.3,1.9l-.08.92C185.64,165.86,184.2,166,183.76,166Zm2.65-8.84a3.4,3.4,0,0,0,.61-.35c.12-.09.49-.36.58-1.32a1.68,1.68,0,0,0-.31-1.34,3.5,3.5,0,0,0-.57-.49Zm-2.71-16.53a3,3,0,0,0-1,.6,2.52,2.52,0,0,0-.83,1.69,2,2,0,0,0,.44,1.59,4.57,4.57,0,0,0,1,.75Z"/><path class="cls-3" d="M186.57,130h.15a1,1,0,0,1,.82.45,2.15,2.15,0,0,1,.14,1.18l-.41,4.59a10.79,10.79,0,0,1,3.39,1.25,8.27,8.27,0,0,1,2.32,2,7.43,7.43,0,0,1,1.27,2.34,5.87,5.87,0,0,1,.27,2.29,2.07,2.07,0,0,1-.77,1.41,2.11,2.11,0,0,1-1.41.52h-.23a2.26,2.26,0,0,1-1.26-.47,1.85,1.85,0,0,1-.64-1.07,21.63,21.63,0,0,0-.61-2.2,4.12,4.12,0,0,0-.91-1.44,4.61,4.61,0,0,0-1.74-1.1l-.71,7.9a20.83,20.83,0,0,1,3.68,1.74,6.43,6.43,0,0,1,2.28,2.42,7.31,7.31,0,0,1-1.67,8.38,8.35,8.35,0,0,1-5.54,1.7h0l-.16,1.8q-.12,1.34-1.07,1.34h-.13q-1.09-.1-1-1.49l.16-1.84a10.66,10.66,0,0,1-3.05-1,6.18,6.18,0,0,1-2.12-1.9,7.26,7.26,0,0,1-1-1.89,4.13,4.13,0,0,1-.27-1.72,2,2,0,0,1,.75-1.41,2,2,0,0,1,1.35-.5h.21a2.12,2.12,0,0,1,2,2,3.87,3.87,0,0,0,2.45,3.06l.63-7.07q-2.06-.77-3.26-1.35a7,7,0,0,1-2.11-1.58,6.39,6.39,0,0,1-1.42-2.38,7,7,0,0,1-.32-2.9,7.58,7.58,0,0,1,1.23-3.55,7.21,7.21,0,0,1,2.92-2.52,9.52,9.52,0,0,1,4.24-.9h.07l.38-4.23a4,4,0,0,1,.33-1.44.77.77,0,0,1,.75-.39m-1.75,9.38a4.68,4.68,0,0,0-2.77,1.14,3.51,3.51,0,0,0-1.15,2.33,2.91,2.91,0,0,0,.71,2.37,7.43,7.43,0,0,0,2.55,1.61l.66-7.44m.46,19.19a6,6,0,0,0,2.33-.92,3.17,3.17,0,0,0,.42-4.13,6.9,6.9,0,0,0-2.17-1.45l-.58,6.51M186.57,128a2.75,2.75,0,0,0-2.51,1.44,5.73,5.73,0,0,0-.56,2.21l-.23,2.52a10.81,10.81,0,0,0-3.35,1,9.22,9.22,0,0,0-3.71,3.22,9.59,9.59,0,0,0-1.56,4.47,9.06,9.06,0,0,0,.41,3.71,8.41,8.41,0,0,0,1.86,3.12,8.9,8.9,0,0,0,1.92,1.58l-.38,0a4.13,4.13,0,0,0-4.09,3.73,6.12,6.12,0,0,0,.37,2.56,9.29,9.29,0,0,0,1.3,2.41,8.14,8.14,0,0,0,2.78,2.48,11,11,0,0,0,1.86.78v.14a3.08,3.08,0,0,0,2.78,3.66h.31a3.1,3.1,0,0,0,3.06-3.16v-.09a9.45,9.45,0,0,0,5-2.05,8.65,8.65,0,0,0-.48-13.79,5,5,0,0,0,.58.09l.41,0a4.12,4.12,0,0,0,2.72-1,4.06,4.06,0,0,0,1.46-2.75,7.89,7.89,0,0,0-.36-3.07,9.45,9.45,0,0,0-1.6-3,10.29,10.29,0,0,0-2.88-2.49,11.63,11.63,0,0,0-2.27-1l.26-2.91a4,4,0,0,0-.37-2.3A2.89,2.89,0,0,0,186.9,128Zm1.81,18.34.07-.81a3.82,3.82,0,0,0,.73,1.17l-.8-.36Zm-6.75,6.28-.09-.1.09,0v.06Z"/><rect class="cls-1" x="352.44" y="122.67" width="100.9" height="64.53"/><text class="cls-4" transform="translate(381.54 171.47)">%</text><text class="cls-4" transform="translate(381.54 171.47)">%</text><path class="cls-3" d="M410.59,140.2,392.52,172h-2.65l18.08-31.8h2.65m-20.21,0c4.31,0,7.15,3.31,7.15,9.18,0,6.48-3.41,9.7-7.38,9.7S383,156,383,149.8s3.36-9.61,7.43-9.61m-.14,16.37c2.74,0,4-2.93,4-7,0-3.74-1.09-6.86-4-6.86-2.6,0-4,3.08-4,7s1.37,6.91,4,6.91m20.21-3.64c4.31,0,7.1,3.31,7.1,9.18,0,6.48-3.41,9.7-7.33,9.7s-7.14-3.08-7.19-9.23,3.36-9.65,7.43-9.65m-.14,16.37c2.74,0,4-2.93,4-7,0-3.74-1.09-6.86-4-6.86-2.6,0-4,3.08-4,7s1.47,6.91,4,6.91m.28-31.1h-2.65a2,2,0,0,0-1.74,1l-6.74,11.86q.07-.81.07-1.7c0-6.79-3.59-11.18-9.15-11.18-4.54,0-9.43,3.63-9.43,11.61.06,7.79,4.66,11.27,9.19,11.27a8.75,8.75,0,0,0,4.24-1.08l-6.26,11a2,2,0,0,0,1.74,3h2.65a2,2,0,0,0,1.74-1l6.84-12q-.07.78-.07,1.62c.06,7.76,4.66,11.23,9.19,11.23s9.33-3.62,9.33-11.7c0-6.79-3.57-11.18-9.1-11.18a8.69,8.69,0,0,0-4.31,1.15l6.19-10.89a2,2,0,0,0-1.74-3Zm0,4h0Zm-20.35,12.37a1.1,1.1,0,0,1-.84-.38c-.59-.6-1.2-2.1-1.14-4.48,0-2.87.85-5,2-5,1.83,0,2,3.72,2,4.86,0,.84-.1,5-2,5Zm20.06,12.73a1.07,1.07,0,0,1-.81-.37c-.6-.61-1.24-2.12-1.21-4.51,0-2.85.87-5,2-5,1.83,0,2,3.72,2,4.86,0,.84-.1,5-2,5Z"/><path class="cls-2" d="M409.66,247.92a6.56,6.56,0,0,1-3.33-12.21l23.81-14-.72-32.35a1.81,1.81,0,0,1-.16-.69l-.18-5.1a1.88,1.88,0,0,1,1.56-1.92l.32,0a1.87,1.87,0,0,1,1.85,1.57l.86,5a1,1,0,0,1,0,.37l5.8,33a4.15,4.15,0,0,1-1,5.35L413.73,246.5a7,7,0,0,1-.75.51,6.55,6.55,0,0,1-3.32.91Z"/><path class="cls-3" d="M431,182.6a.88.88,0,0,1,.87.73l.86,5-.16-.48,6,34a3.14,3.14,0,0,1-.65,4.2l-.38.3-24.37,19.33a6.09,6.09,0,0,1-.63.43,5.56,5.56,0,1,1-5.64-9.58l24.32-14.33-.74-33.15-.08-.16a.82.82,0,0,1-.08-.33l-.18-5.1a.88.88,0,0,1,.73-.9H431m0-2h0a2.88,2.88,0,0,0-2.88,3l.18,5.1a2.81,2.81,0,0,0,.16.85l.71,31.58-23.31,13.73a7.56,7.56,0,1,0,7.67,13,8.1,8.1,0,0,0,.85-.58L438.73,228l.38-.3a5.16,5.16,0,0,0,1.31-6.48l-5.75-32.64a2,2,0,0,0,0-.52l-.86-5a2.87,2.87,0,0,0-2.84-2.4Z"/><path class="cls-2" d="M398.44,247.92a6.56,6.56,0,0,1-3.33-.91,7.36,7.36,0,0,1-.74-.51l-24.76-19.63a4.16,4.16,0,0,1-1-5.35l5.8-33a1,1,0,0,1,0-.37l.86-5a1.88,1.88,0,0,1,1.85-1.56l.32,0a1.88,1.88,0,0,1,1.56,1.92l-.18,5.1a1.81,1.81,0,0,1-.16.69L378,221.68l23.81,14a6.56,6.56,0,0,1-3.33,12.21Z"/><path class="cls-3" d="M377.15,182.6h.15a.88.88,0,0,1,.73.9l-.18,5.1a.82.82,0,0,1-.08.33l-.08.16L377,222.25l24.32,14.33a5.56,5.56,0,1,1-5.64,9.58,6.09,6.09,0,0,1-.63-.43l-24.37-19.33-.38-.3a3.14,3.14,0,0,1-.65-4.2l6-34-.16.48.86-5a.88.88,0,0,1,.87-.73m0-2a2.87,2.87,0,0,0-2.84,2.4l-.86,5a2,2,0,0,0,0,.52l-5.75,32.64a5.16,5.16,0,0,0,1.31,6.48l.37.3,24.37,19.33a8.16,8.16,0,0,0,.86.59,7.56,7.56,0,0,0,7.67-13L379,221.12l.71-31.58a2.8,2.8,0,0,0,.16-.86l.18-5.1a2.88,2.88,0,0,0-2.88-3Z"/><path class="cls-2" d="M403.89,290.05c-8.74,0-14-4.6-14-12.3,0-6.75,11.23-48.42,11.71-50.19a1,1,0,0,1,1-.74h3.8a1,1,0,0,1,1,.77c.43,1.78,10.48,43.58,10.48,50.16C417.85,285.45,412.63,290.05,403.89,290.05Z"/><path class="cls-3" d="M406.4,227.83s10.45,43.39,10.45,49.92c0,7.89-5.8,11.3-13,11.3s-13-3.41-13-11.3c0-6.69,11.68-49.92,11.68-49.92h3.8m0-2h-3.8a2,2,0,0,0-1.93,1.48c-1.2,4.45-11.75,43.68-11.75,50.45,0,8.2,5.73,13.3,15,13.3s15-5.1,15-13.3c0-6.7-10.07-48.61-10.5-50.39a2,2,0,0,0-1.94-1.53Z"/><path class="cls-2" d="M404.37,227.07c-5.76,0-9.81-9.49-9.81-14.63a9.81,9.81,0,0,1,19.61,0C414.17,217.58,410.13,227.07,404.37,227.07Z"/><path class="cls-3" d="M404.37,203.64a8.81,8.81,0,0,1,8.81,8.81c0,4.86-3.94,13.63-8.81,13.63s-8.81-8.76-8.81-13.63a8.81,8.81,0,0,1,8.81-8.81m0-2a10.82,10.82,0,0,0-10.81,10.81c0,5.37,4.21,15.63,10.81,15.63s10.81-10.26,10.81-15.63a10.82,10.82,0,0,0-10.81-10.81Z"/><rect class="cls-1" x="194.59" y="122.67" width="100.9" height="64.53" transform="translate(-21.06 39.87) rotate(-8.92)"/><path class="cls-2" d="M257.66,247.92a6.56,6.56,0,0,1-3.45-12.14l20.93-20.94-.73-32.51a1.81,1.81,0,0,1-.16-.69l-.18-5.1a1.88,1.88,0,0,1,1.56-1.92l.32,0a1.87,1.87,0,0,1,1.85,1.57l.86,5a1,1,0,0,1,0,.37l5.8,33a4.15,4.15,0,0,1-1,5.35l-.29.23-21.3,26.24a1,1,0,0,1-.16.16,7.14,7.14,0,0,1-.74.51,6.55,6.55,0,0,1-3.32.91Z"/><path class="cls-3" d="M276,175.6a.88.88,0,0,1,.87.73l.86,5-.16-.48,6,34a3.14,3.14,0,0,1-.65,4.2l-.38.3-21.37,26.33a6.09,6.09,0,0,1-.63.43,5.56,5.56,0,1,1-5.64-9.58l21.32-21.33-.74-33.15-.08-.16a.82.82,0,0,1-.08-.33l-.18-5.1a.88.88,0,0,1,.73-.9H276m0-2h0a2.88,2.88,0,0,0-2.88,3l.18,5.1a2.81,2.81,0,0,0,.16.85l.71,31.9L253.59,235a7.56,7.56,0,0,0,7.91,12.88,8.1,8.1,0,0,0,.85-.58,2,2,0,0,0,.32-.32l21.24-26.16.2-.16a5.16,5.16,0,0,0,1.31-6.48l-5.75-32.64a2,2,0,0,0,0-.52l-.86-5a2.87,2.87,0,0,0-2.84-2.4Z"/><path class="cls-2" d="M246.44,247.92a6.56,6.56,0,0,1-3.33-.91,7.21,7.21,0,0,1-.67-.45l-27.3-14.29-.16-.1-.38-.3a4.16,4.16,0,0,1-1-5.35l5.8-33a1,1,0,0,1,0-.37l.86-5a1.88,1.88,0,0,1,1.85-1.56l.32,0a1.88,1.88,0,0,1,1.56,1.92l-.18,5.1a1.81,1.81,0,0,1-.16.69l-.72,32.2,26.62,9.09.18.08a6.56,6.56,0,0,1-3.33,12.21Z"/><path class="cls-3" d="M222.15,187.6h.15a.88.88,0,0,1,.73.9l-.18,5.1a.82.82,0,0,1-.08.33l-.08.16L222,227.25l27.32,9.33a5.56,5.56,0,1,1-5.64,9.58,6.09,6.09,0,0,1-.63-.43l-27.37-14.33-.38-.3a3.14,3.14,0,0,1-.65-4.2l6-34-.16.48.86-5a.88.88,0,0,1,.87-.73m0-2a2.87,2.87,0,0,0-2.84,2.4l-.86,5a2,2,0,0,0,0,.52l-5.75,32.64a5.16,5.16,0,0,0,1.31,6.48l.37.3a2,2,0,0,0,.32.21l27.22,14.25a8,8,0,0,0,.69.46,7.56,7.56,0,0,0,7.67-13,2,2,0,0,0-.37-.17L224,225.83l.7-31.29a2.8,2.8,0,0,0,.16-.86l.18-5.1a2.88,2.88,0,0,0-2.88-3Z"/><path class="cls-2" d="M251.89,290.05c-8.74,0-14-4.6-14-12.3,0-6.75,11.23-48.42,11.71-50.19a1,1,0,0,1,1-.74h3.8a1,1,0,0,1,1,.77c.43,1.78,10.48,43.58,10.48,50.16C265.85,285.45,260.63,290.05,251.89,290.05Z"/><path class="cls-3" d="M254.4,227.83s10.45,43.39,10.45,49.92c0,7.89-5.8,11.3-13,11.3s-13-3.41-13-11.3c0-6.69,11.68-49.92,11.68-49.92h3.8m0-2h-3.8a2,2,0,0,0-1.93,1.48c-1.2,4.45-11.75,43.68-11.75,50.45,0,8.2,5.73,13.3,15,13.3s15-5.1,15-13.3c0-6.7-10.07-48.61-10.5-50.39a2,2,0,0,0-1.94-1.53Z"/><path class="cls-2" d="M251.6,227.69c-5,0-10.78-6.53-12.29-10.94a9.81,9.81,0,1,1,18.55-6.36,20.24,20.24,0,0,1,.4,9.52c-.76,4-2.51,6.67-4.93,7.5a5.33,5.33,0,0,1-1.73.28Z"/><path class="cls-3" d="M248.58,204.76a8.81,8.81,0,0,1,8.33,6c1.58,4.6.69,14.17-3.91,15.75a4.3,4.3,0,0,1-1.4.23c-4.44,0-9.92-6.11-11.35-10.26a8.81,8.81,0,0,1,8.33-11.67m0-2a10.81,10.81,0,0,0-10.22,14.31c1.59,4.62,7.68,11.61,13.24,11.61a6.31,6.31,0,0,0,2.05-.33c6.24-2.14,6.89-13.21,5.15-18.29a10.81,10.81,0,0,0-10.22-7.3Z"/><text class="cls-5" transform="translate(206.61 172.39) rotate(-8.92)">SALE</text><text class="cls-5" transform="translate(206.61 172.39) rotate(-8.92)">SALE</text><path class="cls-3" d="M214,148.59a8.57,8.57,0,0,1,3,.48l-.42,2.43a8.72,8.72,0,0,0-2.92-.5,9,9,0,0,0-1.4.11c-3,.47-3.84,2.43-3.61,3.93.32,2,1.81,2.84,5,3.54,3.93.85,6.09,2.34,6.59,5.55.53,3.38-1.51,6.69-6.67,7.5a12.68,12.68,0,0,1-1.95.15,9.94,9.94,0,0,1-3.86-.67l.34-2.48a10.18,10.18,0,0,0,3.83.75,9.42,9.42,0,0,0,1.46-.11c2.89-.45,4.34-2.25,4-4.45-.32-2-1.67-3-4.81-3.7-3.77-.71-6.27-2.21-6.75-5.29-.54-3.41,1.89-6.39,6.15-7.05a13.06,13.06,0,0,1,2-.16m0-2a15.1,15.1,0,0,0-2.33.19c-5.25.82-8.53,4.75-7.81,9.34.87,5.52,6.45,6.59,8.33,6.94,3,.65,3.12,1.36,3.23,2.05.24,1.53-1.35,2-2.33,2.17a7.43,7.43,0,0,1-1.15.09,8.24,8.24,0,0,1-3.06-.59,2,2,0,0,0-2.75,1.57l-.34,2.48a2,2,0,0,0,1.14,2.09,11.78,11.78,0,0,0,4.69.85,14.62,14.62,0,0,0,2.26-.17,10.47,10.47,0,0,0,6.72-3.51,7.92,7.92,0,0,0,1.62-6.28c-.78-5-4.76-6.47-8.15-7.2s-3.36-1.28-3.46-1.89c-.13-.82.6-1.43,1.94-1.64a7.06,7.06,0,0,1,1.09-.09,6.73,6.73,0,0,1,2.24.38,2,2,0,0,0,2.64-1.54l.42-2.43a2,2,0,0,0-1.27-2.21,10.62,10.62,0,0,0-3.69-.6Z"/><path class="cls-3" d="M230.84,146.17l10.9,20.71-3,.47-3.42-6.52-7.76,1.22-1.19,7.24-2.92.46,4-23.05,3.41-.54m-3.06,13.59,6.59-1-3.13-6c-.71-1.35-1.24-2.6-1.76-3.82h-.06c-.12,1.35-.27,2.74-.48,4.13l-1.15,6.67m3.06-15.59-.31,0-3.41.54a2,2,0,0,0-1.66,1.63l-4,23.05a2,2,0,0,0,2,2.34l.31,0,2.92-.46a2,2,0,0,0,1.66-1.65l1-5.81,4.92-.77,2.75,5.25a2,2,0,0,0,1.77,1.07l.31,0,3-.47a2,2,0,0,0,1.46-2.91l-10.9-20.71a2,2,0,0,0-1.77-1.07Zm-.61,13.18.29-1.67.79,1.5-1.08.17Z"/><path class="cls-3" d="M244.35,144l3.06,19.51,9.35-1.47.37,2.37L245,166.38l-3.43-21.88,2.82-.44m0-2-.31,0-2.82.44a2,2,0,0,0-1.67,2.29L243,166.69a2,2,0,0,0,2,1.69l.31,0,12.18-1.91a2,2,0,0,0,1.67-2.29l-.37-2.37a2,2,0,0,0-2-1.69l-.31,0-7.38,1.16-2.75-17.54a2,2,0,0,0-2-1.69Z"/><path class="cls-3" d="M268.67,140.23l.37,2.37L260,144l1.08,6.92,8.51-1.33.37,2.34-8.51,1.33,1.24,7.89,9.48-1.49.37,2.37L260.29,164l-3.43-21.88,11.82-1.86m0-2-.31,0-11.82,1.86a2,2,0,0,0-1.67,2.29l3.43,21.88a2,2,0,0,0,2,1.69l.31,0L272.9,164a2,2,0,0,0,1.67-2.29l-.37-2.37a2,2,0,0,0-2-1.69l-.31,0-7.51,1.18-.62-3.94,6.53-1a2,2,0,0,0,1.67-2.29l-.37-2.34a2,2,0,0,0-2-1.69l-.31,0-6.53,1-.47-3,7-1.1a2,2,0,0,0,1.67-2.29l-.37-2.37a2,2,0,0,0-2-1.69Z"/><path class="cls-1" d="M241.21,265s13.5,6.84,22.16-2.6"/><line class="cls-1" x1="233.04" y1="230.74" x2="230.35" y2="239.1"/><line class="cls-1" x1="264.85" y1="224.98" x2="271.55" y2="232.87"/><text class="cls-6" transform="translate(46.3 44.84)">Of course, you&apos;ll be competing with other advertisers.</text><rect class="cls-7" x="0.02" width="2.02" height="18.26"/><rect class="cls-7" x="8.15" y="-8.12" width="2.02" height="18.26" transform="translate(8.15 10.17) rotate(-90)"/><rect class="cls-7" x="8.12" y="292.92" width="2.02" height="18.26" transform="translate(-292.92 311.18) rotate(-90)"/><rect class="cls-7" y="284.8" width="2.02" height="18.26" transform="translate(2.02 587.86) rotate(180)"/><rect class="cls-7" x="640.02" width="2.02" height="18.26" transform="translate(1282.07 18.26) rotate(-180)"/><rect class="cls-7" x="631.9" y="-8.12" width="2.02" height="18.26" transform="translate(631.9 633.92) rotate(-90)"/><rect class="cls-7" x="631.9" y="292.92" width="2.02" height="18.26" transform="translate(330.86 934.96) rotate(-90)"/><rect class="cls-7" x="640.02" y="284.8" width="2.02" height="18.26"/></g></g></svg>