<svg xmlns="http://www.w3.org/2000/svg" viewBox="0 0 1017.95 498.14"><defs><style>.cls-1{fill:#fff;stroke:#2f9622;}.cls-1,.cls-24{stroke-miterlimit:10;}.cls-2{fill:#e6e7e8;}.cls-13,.cls-3{font-size:18px;}.cls-13,.cls-14,.cls-3{fill:#5d5d5d;font-family:HelveticaNeueLTPro-Lt, HelveticaNeueLTPro Lt;}.cls-4{letter-spacing:-0.01em;}.cls-5{letter-spacing:-0.01em;}.cls-6{letter-spacing:-0.01em;}.cls-7{letter-spacing:-0.01em;}.cls-8{letter-spacing:0em;}.cls-9{font-size:17px;fill:#2f9622;font-family:HelveticaNeue-Bold, HelveticaNeue Bold;}.cls-10,.cls-11,.cls-12{font-weight:700;}.cls-11{letter-spacing:-0.01em;}.cls-12{letter-spacing:0em;}.cls-14{font-size:12px;}.cls-15{letter-spacing:-0.02em;}.cls-16{letter-spacing:-0.01em;}.cls-17{letter-spacing:0.01em;}.cls-18{letter-spacing:0.01em;}.cls-19{letter-spacing:-0.02em;}.cls-20{letter-spacing:-0.01em;}.cls-21{letter-spacing:0em;}.cls-22{letter-spacing:-0.01em;}.cls-23{letter-spacing:-0.01em;}.cls-24{fill:none;stroke:#fcee21;stroke-width:2px;}</style></defs><title>table</title><g id="Layer_2" data-name="Layer 2"><g id="Layer_1-2" data-name="Layer 1"><rect class="cls-1" x="0.5" y="0.5" width="1016.95" height="497.14"/><rect class="cls-2" x="28.73" y="22.49" width="448" height="62.13" rx="17.38" ry="17.38"/><rect class="cls-2" x="483.42" y="23.1" width="165.5" height="62.13" rx="17.38" ry="17.38"/><rect class="cls-2" x="656.42" y="22.57" width="165.5" height="62.13" rx="17.38" ry="17.38"/><rect class="cls-2" x="828.42" y="22.57" width="165.5" height="62.13" rx="17.38" ry="17.38"/><text class="cls-3" transform="translate(161.41 59.34)"><tspan class="cls-4">A</tspan><tspan x="10.8" y="0">d </tspan><tspan class="cls-5" x="24.77" y="0">g</tspan><tspan class="cls-6" x="34.72" y="0">r</tspan><tspan x="40.43" y="0">oup (</tspan><tspan class="cls-7" x="79.4" y="0">b</tspan><tspan class="cls-8" x="89.51" y="0">y </tspan><tspan class="cls-6" x="101.81" y="0">r</tspan><tspan x="107.51" y="0">e</tspan><tspan class="cls-6" x="116.53" y="0">v</tspan><tspan x="125.01" y="0">elan</tspan><tspan class="cls-5" x="156.94" y="0">c</tspan><tspan x="164.9" y="0">e)</tspan></text><text class="cls-9" transform="translate(37.74 122.6)"><tspan class="cls-10">Chev</tspan><tspan class="cls-11" x="35.99" y="0">r</tspan><tspan class="cls-10" x="41.38" y="0">olet </tspan><tspan class="cls-12" x="72.47" y="0">D</tspan><tspan class="cls-10" x="83.86" y="0">ealership</tspan><tspan class="cls-13" x="148.48" y="0"> </tspan><tspan class="cls-14" x="152.29" y="0">(24)</tspan><tspan class="cls-3"><tspan x="0" y="21.6">chev</tspan><tspan class="cls-6" x="35.73" y="21.6">r</tspan><tspan x="41.44" y="21.6">olet dealershi</tspan><tspan class="cls-15" x="142.68" y="21.6">p</tspan><tspan x="152.49" y="21.6">, chev</tspan><tspan class="cls-6" x="195.76" y="21.6">r</tspan><tspan x="201.47" y="21.6">olet dealership</tspan><tspan class="cls-16" x="312.96" y="21.6">s</tspan><tspan class="cls-8" x="319.89" y="21.6">, ...</tspan></tspan></text><text class="cls-3" transform="translate(578.85 143.81)">32,010</text><text class="cls-3" transform="translate(764.57 143.81)"><tspan class="cls-17">H</tspan><tspan x="11.92" y="0">igh</tspan></text><text class="cls-3" transform="translate(931.08 143.81)">$3.75</text><text class="cls-9" transform="translate(37.74 184.35)"><tspan class="cls-10">Chev</tspan><tspan class="cls-11" x="35.99" y="0">r</tspan><tspan class="cls-10" x="41.38" y="0">olet </tspan><tspan class="cls-12" x="72.47" y="0">D</tspan><tspan class="cls-10" x="83.86" y="0">ealership</tspan><tspan class="cls-13" x="148.48" y="0"> </tspan><tspan class="cls-14" x="152.29" y="0">(11)</tspan><tspan class="cls-3"><tspan x="0" y="21.6">chev</tspan><tspan class="cls-6" x="35.73" y="21.6">r</tspan><tspan x="41.44" y="21.6">olet dealershi</tspan><tspan class="cls-15" x="142.68" y="21.6">p</tspan><tspan x="152.49" y="21.6">, chev</tspan><tspan class="cls-6" x="195.76" y="21.6">r</tspan><tspan x="201.47" y="21.6">olet dealership</tspan><tspan class="cls-16" x="312.96" y="21.6">s</tspan><tspan class="cls-8" x="319.89" y="21.6">, ...</tspan></tspan></text><text class="cls-3" transform="translate(578.85 205.56)">23,670</text><text class="cls-3" transform="translate(764.57 205.56)"><tspan class="cls-17">H</tspan><tspan x="11.92" y="0">igh</tspan></text><text class="cls-3" transform="translate(931.08 205.56)">$4.18</text><text class="cls-9" transform="translate(37.74 246.09)"><tspan class="cls-10">Chev</tspan><tspan class="cls-11" x="35.99" y="0">r</tspan><tspan class="cls-10" x="41.38" y="0">olet </tspan><tspan class="cls-12" x="72.47" y="0">D</tspan><tspan class="cls-10" x="83.86" y="0">ealership</tspan><tspan class="cls-13" x="148.48" y="0"> </tspan><tspan class="cls-14" x="152.29" y="0">(26)</tspan><tspan class="cls-3"><tspan x="0" y="21.6">chev</tspan><tspan class="cls-6" x="35.73" y="21.6">r</tspan><tspan x="41.44" y="21.6">olet dealershi</tspan><tspan class="cls-15" x="142.68" y="21.6">p</tspan><tspan x="152.49" y="21.6">, chev</tspan><tspan class="cls-6" x="195.76" y="21.6">r</tspan><tspan x="201.47" y="21.6">olet dealership</tspan><tspan class="cls-16" x="312.96" y="21.6">s</tspan><tspan class="cls-8" x="319.89" y="21.6">, ...</tspan></tspan></text><text class="cls-3" transform="translate(588.09 267.3)">7,800</text><text class="cls-3" transform="translate(764.57 267.3)"><tspan class="cls-17">H</tspan><tspan x="11.92" y="0">igh</tspan></text><text class="cls-3" transform="translate(931.08 267.3)">$4.08</text><text class="cls-9" transform="translate(37.74 307.84)"><tspan class="cls-10">Chev</tspan><tspan class="cls-11" x="35.99" y="0">r</tspan><tspan class="cls-10" x="41.38" y="0">olet </tspan><tspan class="cls-12" x="72.47" y="0">D</tspan><tspan class="cls-10" x="83.86" y="0">ealership</tspan><tspan class="cls-13" x="148.48" y="0"> </tspan><tspan class="cls-14" x="152.29" y="0">(11)</tspan><tspan class="cls-3"><tspan x="0" y="21.6">chev</tspan><tspan class="cls-6" x="35.73" y="21.6">r</tspan><tspan x="41.44" y="21.6">olet dealershi</tspan><tspan class="cls-15" x="142.68" y="21.6">p</tspan><tspan x="152.49" y="21.6">, chev</tspan><tspan class="cls-6" x="195.76" y="21.6">r</tspan><tspan x="201.47" y="21.6">olet dealership</tspan><tspan class="cls-16" x="312.96" y="21.6">s</tspan><tspan class="cls-8" x="319.89" y="21.6">, ...</tspan></tspan></text><text class="cls-3" transform="translate(578.85 329.05)">27,600</text><text class="cls-3" transform="translate(737.85 329.05)"><tspan class="cls-18">M</tspan><tspan x="14.58" y="0">edium</tspan></text><text class="cls-3" transform="translate(931.08 329.05)">$2.15</text><text class="cls-9" transform="translate(37.74 369.59)"><tspan class="cls-10">Chev</tspan><tspan class="cls-11" x="35.99" y="0">r</tspan><tspan class="cls-10" x="41.38" y="0">olet </tspan><tspan class="cls-12" x="72.47" y="0">D</tspan><tspan class="cls-10" x="83.86" y="0">ealership</tspan><tspan class="cls-13" x="148.48" y="0"> </tspan><tspan class="cls-14" x="152.29" y="0">(10)</tspan><tspan class="cls-3"><tspan x="0" y="21.6">chev</tspan><tspan class="cls-6" x="35.73" y="21.6">r</tspan><tspan x="41.44" y="21.6">olet dealershi</tspan><tspan class="cls-15" x="142.68" y="21.6">p</tspan><tspan x="152.49" y="21.6">, chev</tspan><tspan class="cls-6" x="195.76" y="21.6">r</tspan><tspan x="201.47" y="21.6">olet dealership</tspan><tspan class="cls-16" x="312.96" y="21.6">s</tspan><tspan class="cls-8" x="319.89" y="21.6">, ...</tspan></tspan></text><text class="cls-3" transform="translate(578.85 390.8)">11,900</text><text class="cls-3" transform="translate(764.57 390.8)"><tspan class="cls-17">H</tspan><tspan x="11.92" y="0">igh</tspan></text><text class="cls-3" transform="translate(931.08 390.8)">$3.84</text><text class="cls-9" transform="translate(37.74 431.33)"><tspan class="cls-10">Chev</tspan><tspan class="cls-11" x="35.99" y="0">r</tspan><tspan class="cls-10" x="41.38" y="0">olet </tspan><tspan class="cls-12" x="72.47" y="0">D</tspan><tspan class="cls-10" x="83.86" y="0">ealership</tspan><tspan class="cls-13" x="148.48" y="0"> </tspan><tspan class="cls-14" x="152.29" y="0">(28)</tspan><tspan class="cls-3"><tspan x="0" y="21.6">chev</tspan><tspan class="cls-6" x="35.73" y="21.6">r</tspan><tspan x="41.44" y="21.6">olet dealershi</tspan><tspan class="cls-15" x="142.68" y="21.6">p</tspan><tspan x="152.49" y="21.6">, chev</tspan><tspan class="cls-6" x="195.76" y="21.6">r</tspan><tspan x="201.47" y="21.6">olet dealership</tspan><tspan class="cls-16" x="312.96" y="21.6">s</tspan><tspan class="cls-8" x="319.89" y="21.6">, ...</tspan></tspan></text><text class="cls-3" transform="translate(578.85 452.54)">82,060</text><text class="cls-3" transform="translate(737.85 452.54)"><tspan class="cls-18">M</tspan><tspan x="14.58" y="0">edium</tspan></text><text class="cls-3" transform="translate(931.08 452.54)">$1.52</text><text class="cls-3" transform="translate(515.56 49.15)"><tspan class="cls-19">A</tspan><tspan class="cls-6" x="10.64" y="0">v</tspan><tspan class="cls-20" x="19.12" y="0">g</tspan><tspan x="28.91" y="0">. mo</tspan><tspan class="cls-21" x="61.34" y="0">n</tspan><tspan x="71.26" y="0">thly </tspan><tspan x="19.51" y="21.6">sea</tspan><tspan class="cls-6" x="44.33" y="21.6">r</tspan><tspan x="50.04" y="21.6">ches</tspan></text><text class="cls-3" transform="translate(690.81 59.34)"><tspan class="cls-22">C</tspan><tspan x="10.24" y="0">ompetition</tspan></text><text class="cls-3" transform="translate(858.19 59.34)">Sugges<tspan class="cls-23" x="55.06" y="0">t</tspan><tspan x="60.91" y="0">ed bid</tspan></text><rect class="cls-24" x="28.42" y="98.69" width="959" height="62"/><rect class="cls-24" x="28.42" y="405.8" width="959" height="62"/></g></g></svg>