<svg xmlns="http://www.w3.org/2000/svg" viewBox="0 0 188 137.23"><defs><style>.cls-1,.cls-3{fill:#5d9632;}.cls-1,.cls-2{stroke:#fff;stroke-linecap:round;stroke-linejoin:round;stroke-width:2px;}.cls-2{fill:none;}.cls-4,.cls-5{fill:#fff;}.cls-5{font-size:30.83px;font-family:MuseoSans-900Italic, MuseoSans 900Italic;font-style:italic;}</style></defs><title>car-gears_1</title><g id="Layer_2" data-name="Layer 2"><g id="texts"><rect class="cls-1" x="19.5" y="1" width="148.84" height="100"/><rect class="cls-1" x="31.13" y="12.63" width="125.58" height="76.74"/><rect class="cls-2" x="49.74" y="80.34" width="93.02" height="4.12"/><line class="cls-2" x1="31.13" y1="75.42" x2="156.71" y2="75.42"/><path class="cls-3" d="M44.59,56.17a1,1,0,0,1-.26,0,3.46,3.46,0,0,1-2.56-3.18v-.29A3.5,3.5,0,0,1,44,49.28a1,1,0,0,1,1.38.92c0,1.71.1,3.39.24,4.87a1,1,0,0,1-1,1.1Z"/><path class="cls-4" d="M44.34,50.21c0,1.58.09,3.33.25,5a2.46,2.46,0,0,1-1.82-2.27v-.28a2.5,2.5,0,0,1,1.59-2.41m0-2a2,2,0,0,0-.75.15,4.5,4.5,0,0,0-2.83,4.35V53a4.45,4.45,0,0,0,3.3,4.1A2,2,0,0,0,46.58,55c-.14-1.46-.22-3.11-.24-4.78a2,2,0,0,0-2-2Z"/><path class="cls-3" d="M45.14,60.5a.9.9,0,0,1-1-.64c-.59-2.5-2.31-10.73.38-12.73C66.93,30.47,83.16,27,92.83,27a35,35,0,0,1,7.06.7l.28.06c7.13,1.33,18.19,10.57,20.16,12.25,22.77.06,27.08,5.6,28.07,10.61a1,1,0,0,1,.12.6v8.52c0,.55-.28.74-.83.74Z"/><path class="cls-4" d="M92.83,28a34.61,34.61,0,0,1,7.15.72c7.5,1.4,20,12.39,20,12.39,24.63,0,27,6.34,27.61,10.34h-.06v8H45.14s-2.37-9.87,0-11.64C68,30.83,84.08,28,92.83,28m0-2h0C83,26,66.55,29.57,43.95,46.39c-3,2.22-1.75,9.49-.75,13.7a1.89,1.89,0,0,0,1.95,1.41H147.67a1.66,1.66,0,0,0,1.84-1.74V51.24a2,2,0,0,0-.18-1c-1.12-5.31-5.77-11.11-28.68-11.23C118,36.83,107.4,28.12,100.32,26.8l-.26-.05a36.12,36.12,0,0,0-7.23-.7Z"/><path class="cls-3" d="M44.07,60.5a1.52,1.52,0,0,1-1.57-1.67V57.48a1.82,1.82,0,0,1,1.57-2h103.4a2.18,2.18,0,0,1,2,2v1.34a1.9,1.9,0,0,1-2,1.67Z"/><path class="cls-4" d="M147.47,56.5c.34,0,1,.48,1,1v1.34c0,.5-.69.67-1,.67H44.07c-.34,0-.57-.17-.57-.67V57.48c0-.5.23-1,.57-1H147.5m0-2H44.07a2.81,2.81,0,0,0-2.57,3v1.34a2.51,2.51,0,0,0,2.57,2.67h103.4a2.9,2.9,0,0,0,3-2.67V57.48a3.15,3.15,0,0,0-3-3Z"/><path class="cls-3" d="M63.67,40.5c.59-1,1.21-.83,1.87-1.2a66.2,66.2,0,0,1,12.29-5.43,53.4,53.4,0,0,1,16.23-2.68h1.08c4.39.1,8.66,1.76,13,4.87a25.83,25.83,0,0,1,5.19,4.44Z"/><path class="cls-4" d="M94.5,30.5v1.67h.84c4.19.1,8.16,1.7,12.38,4.69a28.42,28.42,0,0,1,3.1,2.63H67.44a57.28,57.28,0,0,1,26.84-7.28l.22-2m-.45,0a54.43,54.43,0,0,0-16.53,2.7A66.91,66.91,0,0,0,65,38.33c-1.19.67-2.35,1.47-3.49,2.22-.23.15-.93.94-1.22.94h55.43a70.46,70.46,0,0,0-7-6.26c-4.1-2.9-8.53-4.89-13.6-5-.37,0-.74-.06-1.11-.06Z"/><rect class="cls-3" x="87.5" y="32.5" width="1" height="8"/><polygon class="cls-4" points="89.5 31.5 86.5 31.5 86.5 41.5 89.5 41.5 89.5 31.5 89.5 31.5"/><circle class="cls-3" cx="128.61" cy="60.32" r="8.39"/><path class="cls-4" d="M128.61,52.94a7.39,7.39,0,1,1-7.39,7.39,7.38,7.38,0,0,1,7.39-7.39m0-2A9.39,9.39,0,1,0,138,60.32a9.4,9.4,0,0,0-9.38-9.39Z"/><circle class="cls-3" cx="128.61" cy="60.32" r="3.73"/><path class="cls-4" d="M128.61,57.59a2.73,2.73,0,1,1-2.73,2.73,2.73,2.73,0,0,1,2.73-2.73m0-2a4.73,4.73,0,1,0,4.73,4.73,4.74,4.74,0,0,0-4.73-4.73Z"/><circle class="cls-3" cx="61.06" cy="60.32" r="8.39"/><path class="cls-4" d="M61.06,52.94a7.39,7.39,0,1,1-7.39,7.39,7.38,7.38,0,0,1,7.39-7.39m0-2a9.39,9.39,0,1,0,9.38,9.39,9.4,9.4,0,0,0-9.38-9.39Z"/><circle class="cls-3" cx="61.06" cy="60.32" r="3.73"/><path class="cls-4" d="M61.06,57.59a2.73,2.73,0,1,1-2.73,2.73,2.73,2.73,0,0,1,2.73-2.73m0-2a4.73,4.73,0,1,0,4.73,4.73,4.74,4.74,0,0,0-4.73-4.73Z"/><rect class="cls-3" x="90.5" y="44.5" width="7" height="1" rx="0.28" ry="0.28"/><path class="cls-4" d="M97.65,43.5H91.21c-.7,0-1.71.74-1.71,1.44v.76c0,.7,1,.8,1.71.8h6.44c.7,0,.85-.09.85-.8v-.76c0-.7-.15-1.44-.85-1.44Z"/><path class="cls-3" d="M147.54,55.32a2.84,2.84,0,0,1-2.08-.93,1.64,1.64,0,0,0-.22-.22c-2.23-1.75-3-4.4-1.7-6A3.13,3.13,0,0,1,145.77,47h.1a.85.85,0,0,1,.7.38,7.81,7.81,0,0,1,1.93,4.55v2.41a.94.94,0,0,1-.26.75.9.9,0,0,1-.62.25Z"/><path class="cls-4" d="M145.78,48a6.93,6.93,0,0,1,1.72,3.93v2.41a3.05,3.05,0,0,1-1.74-.95c-1.76-1.38-2.45-3.45-1.53-4.63a2.17,2.17,0,0,1,1.54-.77m.08-2h-.19a4.16,4.16,0,0,0-2.93,1.52c-1.63,2.08-.81,5.34,1.87,7.44l.1.1a3.8,3.8,0,0,0,2.69,1.25l.26,0a1.79,1.79,0,0,0,1.24-.5,1.93,1.93,0,0,0,.6-1.5V51.92a9,9,0,0,0-2.15-5.17,1.84,1.84,0,0,0-1.49-.76Z"/><circle class="cls-1" cx="92.76" cy="44.02" r="24.42"/><polygon class="cls-1" points="106.23 44.5 86.5 58.45 86.5 30.55 106.23 44.5"/><rect class="cls-1" x="35.78" y="80.07" width="9.3" height="4.65"/><rect class="cls-1" x="147.41" y="80.07" width="4.65" height="4.65"/><path class="cls-1" d="M60.28,83.1a25.94,25.94,0,0,0-2.6-6.85h0L61.1,69,55.46,63.4l-7.18,3.39v0a26.75,26.75,0,0,0-6.85-2.95l-2.66-7.69h-8L28.13,63.8a27.07,27.07,0,0,0-6.85,3h0l-7.18-3.41L8.42,69.06l3.38,7.18h-.06a26.78,26.78,0,0,0-3,6.85L1,85.76v8l7.76,2.66a27.14,27.14,0,0,0,3.12,6.85h0l-3.42,7.17L14.09,116l7.18-3.44v-.06a26.23,26.23,0,0,0,6.85,2.76l2.66,7.31h8l2.66-7.31a26,26,0,0,0,6.85-2.67h0l7.17,3.42,5.63-5.64-3.45-7.18h-.07a26.22,26.22,0,0,0,2.73-6.85l7.24-2.66v-8Z"/><path class="cls-1" d="M118.5,105a20.5,20.5,0,0,0-2.06-5.41h0l2.7-5.68-4.46-4.47L109,92.1v0a21.14,21.14,0,0,0-5.41-2.33l-2.1-6.07H95.2l-2.1,6.07a21.39,21.39,0,0,0-5.41,2.41h0L82,89.44l-4.47,4.46,2.67,5.67h0A21.16,21.16,0,0,0,77.79,105l-6.13,2.1v6.3l6.13,2.1a21.45,21.45,0,0,0,2.47,5.41h0l-2.7,5.67L82,131l5.67-2.72v0a20.73,20.73,0,0,0,5.41,2.18l2.1,5.78h6.3l2.1-5.78a20.58,20.58,0,0,0,5.41-2.11h0l5.67,2.7,4.45-4.46-2.72-5.67h-.06a20.72,20.72,0,0,0,2.15-5.41l5.72-2.1v-6.3Z"/><path class="cls-1" d="M181.27,84.41A20.5,20.5,0,0,0,179.22,79h0l2.7-5.68-4.46-4.47-5.67,2.68v0a21.14,21.14,0,0,0-5.41-2.33l-2.1-6.07H158l-2.1,6.07a21.39,21.39,0,0,0-5.41,2.41h0l-5.68-2.7-4.47,4.46L143,79h0a21.16,21.16,0,0,0-2.36,5.41l-6.13,2.1v6.3l6.13,2.1a21.45,21.45,0,0,0,2.47,5.41h0l-2.7,5.67,4.46,4.45,5.67-2.72v0a20.73,20.73,0,0,0,5.41,2.18l2.1,5.78h6.3l2.1-5.78a20.58,20.58,0,0,0,5.41-2.11h0l5.67,2.7L181.9,106l-2.72-5.67h-.06a20.72,20.72,0,0,0,2.15-5.41l5.72-2.1v-6.3Z"/><text class="cls-5" transform="translate(26.58 100.36)">1</text><text class="cls-5" transform="translate(89.26 120.12)">2</text><text class="cls-5" transform="translate(152.03 101.36)">3</text></g></g></svg>