<svg xmlns="http://www.w3.org/2000/svg" viewBox="0 0 655.69 141.68"><defs><style>.cls-1{isolation:isolate;}.cls-2,.cls-5,.cls-6{fill:none;stroke:#fff;stroke-miterlimit:10;}.cls-2{stroke-width:3px;}.cls-3{font-size:53px;fill:#e6e6e6;font-family:ArialMT, Arial;}.cls-4{letter-spacing:-0.06em;}.cls-5{stroke-width:4px;}.cls-6{stroke-width:2px;}.cls-15,.cls-7{fill:#bf3019;}.cls-7{opacity:0.49;mix-blend-mode:multiply;}.cls-8{fill:#4d4d4d;}.cls-9{fill:#fff;}.cls-10{fill:#87c22e;}.cls-11{fill:#518bc7;}.cls-12{fill:#1a1a1a;}.cls-13{fill:#ff7963;}.cls-14{fill:#5d9632;}.cls-16{fill:#731d0f;}.cls-17{fill:#330d07;}.cls-18{fill:gray;}.cls-19{fill:#0080b1;}</style></defs><title>video-rich-title</title><g class="cls-1"><g id="Layer_2" data-name="Layer 2"><g id="texts"><path class="cls-2" d="M106.84,115.7"/><text class="cls-3" transform="translate(166.84 63.2)">VIDEO<tspan class="cls-4" x="164.93" y="0"> </tspan><tspan x="176.73" y="0">AND OTHER</tspan><tspan x="0" y="54">RICH MEDI</tspan><tspan class="cls-4" x="276.77" y="54">A</tspan></text><circle class="cls-5" cx="70.84" cy="70.84" r="62.88"/><polyline class="cls-6" points="14.05 1 1 1 1 14.05"/><polyline class="cls-6" points="127.63 140.68 140.68 140.68 140.68 127.63"/><circle class="cls-7" cx="70.84" cy="70.84" r="47.98"/><rect class="cls-8" x="25.06" y="38.52" width="89.72" height="63.94" rx="1" ry="1"/><path class="cls-9" d="M113.78,39.52v61.94H26.06V39.52h87.72m0-2H26.06a2,2,0,0,0-2,2v61.94a2,2,0,0,0,2,2h87.72a2,2,0,0,0,2-2V39.52a2,2,0,0,0-2-2Z"/><rect class="cls-10" x="32.91" y="46.38" width="74.01" height="48.23"/><rect class="cls-11" x="32.91" y="46.38" width="74.01" height="23.26"/><rect class="cls-12" x="32.91" y="86.38" width="74.01" height="8.22"/><path class="cls-13" d="M101.87,72.81v.8a.57.57,0,0,1-.28.52V72.23A.7.7,0,0,1,101.87,72.81Z"/><path class="cls-14" d="M101.59,74.13v0h-.11Z"/><path class="cls-13" d="M101.59,72.23v1.89l-.11,0H94.7a4.23,4.23,0,0,0-.64-2h7.41A.21.21,0,0,1,101.59,72.23Z"/><path class="cls-15" d="M101.59,71v1.28a.21.21,0,0,0-.11,0H94.06a4.35,4.35,0,0,0-7.4,0H54.25a4.35,4.35,0,0,0-7.4,0H40.8c0-.25-.08-.52-.12-.8l.16.05c-.09-1-.14-2-.14-2.92l-.1,0a2,2,0,0,1,.57-1.36C60.37,52.93,71.4,55.5,73.48,55.89c4.42.83,11.77,7.23,11.77,7.23,14.2,0,15.85,3.62,16.25,5.87a5.27,5.27,0,0,0-1-1.77,1.29,1.29,0,0,0-.91.45c-.54.7-.14,1.92.9,2.73C100.86,70.67,100.76,70.85,101.59,71Zm-34-7.68H82.79a28.09,28.09,0,0,0-4.13-3.63,14.27,14.27,0,0,0-8-2.92,29.75,29.75,0,0,0-3.08.09V56.4H65.34v.7a34.15,34.15,0,0,0-5.09,1.21,39.43,39.43,0,0,0-7.36,3.22c-.7.39-1.39.81-2.05,1.26-.14.09-.55.5-.72.5H65.34v.28h2.23Zm5.3,2.59v-.45a.75.75,0,0,0-.75-.75h-3.8a.75.75,0,0,0-.75.75v.45a.75.75,0,0,0,.75.75h3.8A.76.76,0,0,0,72.87,65.87Z"/><path class="cls-13" d="M101.59,69.53V71c-.83-.11-.72-.29-1.07-.56-1-.81-1.44-2-.9-2.73a1.29,1.29,0,0,1,.91-.45,5.27,5.27,0,0,1,1,1.77s0,.1,0,.15h0A2,2,0,0,1,101.59,69.53Z"/><path class="cls-14" d="M101.59,69.13v.4a2,2,0,0,0,0-.4Z"/><path class="cls-14" d="M101.54,69.13h0s0-.1,0-.15A.76.76,0,0,1,101.54,69.13Z"/><path class="cls-16" d="M94.7,74.16a3.1,3.1,0,0,1,0,.33,4.36,4.36,0,0,1-8.71,0,3.1,3.1,0,0,1,0-.33h2.76a2,2,0,0,0,0,.33,1.61,1.61,0,1,0,3.22,0,2,2,0,0,0,0-.33Z"/><path class="cls-16" d="M94.7,74.16H91.94a1.61,1.61,0,0,0-3.16,0H86a4.23,4.23,0,0,1,.64-2h7.4A4.23,4.23,0,0,1,94.7,74.16Z"/><path class="cls-16" d="M94.06,72.2h-7.4a4.35,4.35,0,0,1,7.4,0Z"/><path class="cls-17" d="M91.94,74.16a2,2,0,0,1,0,.33,1.61,1.61,0,1,1-3.22,0,2,2,0,0,1,0-.33Z"/><path class="cls-17" d="M91.94,74.16H88.78a1.61,1.61,0,0,1,3.16,0Z"/><path class="cls-13" d="M54.25,72.2H86.66a4.23,4.23,0,0,0-.64,2H54.89A4.23,4.23,0,0,0,54.25,72.2Z"/><path class="cls-13" d="M82.79,63.28H67.57V56.82a29.75,29.75,0,0,1,3.08-.09,14.27,14.27,0,0,1,8,2.92A28.09,28.09,0,0,1,82.79,63.28Z"/><path class="cls-16" d="M72.87,65.42v.45a.76.76,0,0,1-.75.75h-3.8a.75.75,0,0,1-.75-.75v-.45a.75.75,0,0,1,.75-.75h3.8A.75.75,0,0,1,72.87,65.42Z"/><rect class="cls-15" x="65.34" y="63.28" width="2.23" height="0.28"/><path class="cls-15" d="M67.57,56.82v6.46H65.34V57.09C66.08,57,66.82,56.88,67.57,56.82Z"/><path class="cls-15" d="M67.57,56.4v.42c-.75.06-1.49.16-2.23.28v-.7Z"/><path class="cls-13" d="M65.34,57.09v6.18H50.12c.17,0,.58-.41.72-.5.67-.44,1.36-.86,2.05-1.26a39.43,39.43,0,0,1,7.36-3.22A34.15,34.15,0,0,1,65.34,57.09Z"/><path class="cls-16" d="M54.89,74.16a3.1,3.1,0,0,1,0,.33,4.36,4.36,0,1,1-8.71,0,3.1,3.1,0,0,1,0-.33H49a1.53,1.53,0,0,0,0,.33,1.61,1.61,0,1,0,3.22,0,1.53,1.53,0,0,0,0-.33Z"/><path class="cls-16" d="M54.89,74.16H52.12a1.61,1.61,0,0,0-3.15,0H46.21a4.23,4.23,0,0,1,.64-2h7.4A4.23,4.23,0,0,1,54.89,74.16Z"/><path class="cls-16" d="M54.25,72.2h-7.4a4.35,4.35,0,0,1,7.4,0Z"/><path class="cls-17" d="M52.12,74.16a1.53,1.53,0,0,1,0,.33,1.61,1.61,0,1,1-3.22,0,1.53,1.53,0,0,1,0-.33Z"/><path class="cls-17" d="M52.12,74.16H49a1.61,1.61,0,0,1,3.15,0Z"/><path class="cls-13" d="M40.8,72.2h6.05a4.23,4.23,0,0,0-.64,2h-5S41,73.31,40.8,72.2Z"/><path class="cls-13" d="M41.17,74.16h-.63a.67.67,0,0,1-.58-.55v-.8a.74.74,0,0,1,.58-.61h.26C41,73.31,41.17,74.16,41.17,74.16Z"/><path class="cls-15" d="M40.84,71.45l-.16-.05a12.45,12.45,0,0,1-.08-2.82l.1,0C40.7,69.46,40.74,70.49,40.84,71.45Z"/><path class="cls-13" d="M40.59,68.57a12.45,12.45,0,0,0,.08,2.82,1.46,1.46,0,0,1-.91-1.28v-.17A1.47,1.47,0,0,1,40.59,68.57Z"/><circle class="cls-12" cx="69.23" cy="64.88" r="14.39"/><path class="cls-9" d="M75.81,66.13,67.4,72.07a1.18,1.18,0,0,1-1.86-1V59.22a1.18,1.18,0,0,1,1.86-1l8.41,5.95A1.18,1.18,0,0,1,75.81,66.13Z"/><rect class="cls-18" x="35.65" y="89.13" width="5.48" height="2.74"/><rect class="cls-18" x="101.44" y="89.13" width="2.74" height="2.74"/><rect class="cls-18" x="43.87" y="89.28" width="54.82" height="2.43"/><rect class="cls-19" x="43.87" y="89.28" width="35.32" height="2.43"/></g></g></g></svg>