<svg xmlns="http://www.w3.org/2000/svg" viewBox="0 0 1073.04 141.68"><defs><style>.cls-1{isolation:isolate;}.cls-2,.cls-22,.cls-8,.cls-9{fill:none;stroke:#fff;}.cls-2,.cls-8,.cls-9{stroke-miterlimit:10;}.cls-2,.cls-22{stroke-width:3px;}.cls-3{font-size:42px;fill:#e6e6e6;font-family:ArialMT, Arial;}.cls-4{letter-spacing:-0.07em;}.cls-5{letter-spacing:-0.06em;}.cls-6{letter-spacing:-0.02em;}.cls-7{letter-spacing:-0.04em;}.cls-8{stroke-width:4px;}.cls-9{stroke-width:2px;}.cls-10,.cls-19{fill:#bf3019;}.cls-10{opacity:0.49;mix-blend-mode:multiply;}.cls-11{fill:gray;}.cls-12{fill:#ffeeb0;}.cls-13{fill:#87c22e;}.cls-14{fill:#fff;}.cls-15{fill:#0080b1;}.cls-16{fill:#f0b35d;}.cls-17{fill:#004b69;}.cls-18{fill:#962613;}.cls-20{fill:#ffd08a;}.cls-21{fill:#e6e7e8;}.cls-22{stroke-linecap:round;stroke-linejoin:round;}</style></defs><title>attributing-leads-title</title><g class="cls-1"><g id="Layer_2" data-name="Layer 2"><g id="texts"><path class="cls-2" d="M106.84,115.7"/><text class="cls-3" transform="translate(166.84 55.7)"><tspan class="cls-4">A</tspan><tspan x="24.9" y="0">TTRIBUTING LEADS</tspan><tspan class="cls-5" x="426.28" y="0"> </tspan><tspan x="435.63" y="0">AND</tspan><tspan x="0" y="54">SHOWROOM VISITS</tspan><tspan class="cls-6" x="406.01" y="54" xml:space="preserve"> T</tspan><tspan x="441.82" y="54">O DIGI</tspan><tspan class="cls-4" x="572.5" y="54">T</tspan><tspan x="595.03" y="54">A</tspan><tspan class="cls-7" x="623.05" y="54">L</tspan><tspan x="644.85" y="54" xml:space="preserve"> MARKETING</tspan></text><circle class="cls-8" cx="70.84" cy="70.84" r="62.88"/><polyline class="cls-9" points="14.05 1 1 1 1 14.05"/><polyline class="cls-9" points="127.63 140.68 140.68 140.68 140.68 127.63"/><circle class="cls-10" cx="70.84" cy="70.84" r="47.98"/><path class="cls-11" d="M54.06,82.68,51.6,85.92a2,2,0,0,0-1.94.06l-.1.07a2,2,0,0,0-.89-.81A10.46,10.46,0,0,0,45.15,85c-2.42,0-3.35-.06-4,.6a4.12,4.12,0,0,0-.77,1.17,2.05,2.05,0,0,0-.74-.77,2.14,2.14,0,0,0-2.83.7c-.87,1.28-1.71,2.58-2.57,3.87l-2.58,4c-.86,1.33-1.7,2.69-2.53,4l-2.51,4.05-.05.09a1.7,1.7,0,0,0,0,1.74l2,3.45H26.17a3.6,3.6,0,0,1-3.6-3.6V68a30,30,0,0,1,30-30h34a30,30,0,0,1,30,30v36.31a3.6,3.6,0,0,1-3.6,3.6h-2.14l3-3.65a1.72,1.72,0,0,0,0-2.15l-.12-.14L105,90.66c.5-.76.79-1.29.79-1.29-2.3-4.73-8.48-4-8.48-4a4.85,4.85,0,0,0-.8-.07H93.9V83.6c3.43,0,6.22-3.12,6.22-7s-2.78-7-6.22-7-6.22,3.12-6.22,7a7.59,7.59,0,0,0,.9,3.61L87,81.32l-1.52,1.36L81.2,77.07a3.16,3.16,0,0,0-.29-.33,3.06,3.06,0,0,0-5.16,1.55,13.43,13.43,0,0,0-3.47-4l.28-1H67.48l.24.77a12.35,12.35,0,0,0-3.93,4.63,3,3,0,0,0-.87-1.89,3.06,3.06,0,0,0-4.33,0,3.23,3.23,0,0,0-.29.33Zm22.66-19c0-4.17-3-7.55-6.73-7.55s-6.73,3.38-6.73,7.55,3,7.55,6.73,7.55S76.72,67.81,76.72,63.64ZM51.48,75.14c0-4.29-2.61-7.76-5.83-7.76s-5.83,3.48-5.83,7.76,3.72,8.09,5.83,7.77S51.48,79.43,51.48,75.14Z"/><path class="cls-12" d="M113.91,102.15a1.72,1.72,0,0,1,0,2.15l-3,3.65H107l3-4.55-8.2-8.73a26.77,26.77,0,0,0,3.14-4L113.79,102Z"/><path class="cls-11" d="M101.85,94.67l8.2,8.73-3,4.55h-6.19V95.56A10.24,10.24,0,0,0,101.85,94.67Z"/><path class="cls-13" d="M105.78,89.37s-.29.53-.79,1.29l-2.79-3.59a2.24,2.24,0,0,0-.17-.2,2.74,2.74,0,0,0-3-.68,4.27,4.27,0,0,0-1.77-.77S103.47,84.64,105.78,89.37Z"/><path class="cls-13" d="M102.19,87.07,105,90.66a26.77,26.77,0,0,1-3.14,4l-1-1.06V89.69a4.33,4.33,0,0,0-1.78-3.51,2.74,2.74,0,0,1,3,.68A2.24,2.24,0,0,1,102.19,87.07Z"/><path class="cls-13" d="M100.85,93.61l1,1.06a10.24,10.24,0,0,1-1,.89Z"/><path class="cls-13" d="M100.85,95.56v12.38H94.71l2.53-4.59-.59-4.49h3.09v-3.5L98,93.18l.12-.09A10.14,10.14,0,0,0,100.85,95.56Z"/><path class="cls-13" d="M100.85,93.61v1.95a10.14,10.14,0,0,1-2.75-2.48,7.16,7.16,0,0,1-.81-7.68,4.27,4.27,0,0,1,1.77.77,2.82,2.82,0,0,0-.91.57A2.74,2.74,0,0,0,98,90.62Z"/><path class="cls-13" d="M100.85,89.69v3.92l-2.81-3a2.74,2.74,0,0,1,.12-3.87,2.82,2.82,0,0,1,.91-.57A4.33,4.33,0,0,1,100.85,89.69Z"/><polygon class="cls-14" points="99.75 95.37 99.75 98.87 96.65 98.87 96.19 95.37 99.75 95.37"/><polygon class="cls-13" points="97.98 93.18 99.75 95.37 96.19 95.37 95.96 93.63 97.03 92 97.98 93.18"/><path class="cls-12" d="M93.9,69.65c3.43,0,6.22,3.12,6.22,7s-2.78,7-6.22,7a6.12,6.12,0,0,1-5.32-3.36,7.59,7.59,0,0,1-.9-3.61C87.67,72.77,90.46,69.65,93.9,69.65Z"/><path class="cls-13" d="M98.1,93.09l-.12.09L97,92,96,93.63l-.64-4.9,1-3.39h.22a4.85,4.85,0,0,1,.8.07A7.16,7.16,0,0,0,98.1,93.09Z"/><polygon class="cls-15" points="96.65 98.87 97.24 103.36 94.71 107.95 93.07 107.95 90.51 103.36 92.2 91.94 92.67 88.73 95.32 88.73 95.96 93.63 94.83 95.37 94.83 98.87 96.65 98.87"/><polygon class="cls-15" points="96.19 95.37 96.65 98.87 94.83 98.87 94.83 95.37 96.19 95.37"/><polygon class="cls-15" points="96.28 85.34 95.32 88.73 92.67 88.73 91.59 85.34 93.9 85.34 96.28 85.34"/><polygon class="cls-15" points="95.96 93.63 96.19 95.37 94.83 95.37 95.96 93.63"/><path class="cls-11" d="M93.9,83.6v1.74h-3a4.43,4.43,0,0,0-1.08.14l0-.06a11.09,11.09,0,0,0-2.22,0l-2.09-2.75L87,81.32l1.61-1.08A6.12,6.12,0,0,0,93.9,83.6Z"/><path class="cls-13" d="M90.51,103.36l2.56,4.59H86.51V97.71L91,92.87h0a1.73,1.73,0,0,0,.65-1l.59.09Z"/><path class="cls-13" d="M91.59,85.34l1.09,3.39-.47,3.22-.59-.09a1.75,1.75,0,0,0-.31-1.45l-.16-.2-.67-.89a7.69,7.69,0,0,0-.69-3.83,4.43,4.43,0,0,1,1.08-.14Z"/><path class="cls-16" d="M91.3,90.41a1.75,1.75,0,0,1,.31,1.45,1.73,1.73,0,0,1-.65,1h0l-4.45,4.84V95.37c.93-.62,3.66-2.71,4-6.06l.67.89Z"/><path class="cls-13" d="M89.78,85.48a7.69,7.69,0,0,1,.69,3.83l-.76-1a2.64,2.64,0,0,0-.82-1.57,2.71,2.71,0,0,0-.71-.48A4.3,4.3,0,0,1,89.78,85.48Z"/><path class="cls-16" d="M89.71,88.32l.76,1c-.3,3.35-3,5.44-4,6.06V93.28L89,90.62A2.69,2.69,0,0,0,89.71,88.32Z"/><path class="cls-13" d="M89.75,85.41l0,.06a4.3,4.3,0,0,0-1.6.79h0l-.63-.83A11.09,11.09,0,0,1,89.75,85.41Z"/><path class="cls-16" d="M89.71,88.32a2.69,2.69,0,0,1-.7,2.3l-2.5,2.66v-1l.55-.88-.55-.55V89.69a4.32,4.32,0,0,1,1.66-3.42Z"/><path class="cls-13" d="M89.71,88.32l-1.54-2h0a2.71,2.71,0,0,1,.71.48A2.64,2.64,0,0,1,89.71,88.32Z"/><path class="cls-13" d="M88.18,86.27h0v0Z"/><path class="cls-16" d="M88.16,86.25v0a4.32,4.32,0,0,0-1.66,3.42v1.19L83.9,88.3l1-1.23a2.24,2.24,0,0,1,.17-.2A2.75,2.75,0,0,1,88.16,86.25Z"/><path class="cls-16" d="M87.53,85.43l.63.83a2.75,2.75,0,0,0-3.14.61,2.24,2.24,0,0,0-.17.2l-1,1.23-1-1A8.51,8.51,0,0,1,87.53,85.43Z"/><path class="cls-16" d="M85.44,82.68l2.09,2.75a8.51,8.51,0,0,0-4.67,1.86l-1.21-1.19Z"/><polygon class="cls-13" points="87.06 91.43 86.51 92.31 86.51 90.88 87.06 91.43"/><path class="cls-11" d="M86.51,97.71v10.24H80l-.32-.47v-.9a.48.48,0,0,0,.39-.23l.66-2.37Z"/><path class="cls-16" d="M86.51,95.37v2.34L80.74,104v0l-.16.2.14-.16-.66,2.37a.48.48,0,0,1-.39.23v-3.42l0,0,4.94-7.87.53-.57a10.24,10.24,0,0,0,1,.89Z"/><path class="cls-16" d="M86.51,93.28v2.09l-.31.19a10.24,10.24,0,0,1-1-.89Z"/><path class="cls-16" d="M86.51,92.31v1L85.2,94.67l-.1-.11Z"/><path class="cls-13" d="M86.51,90.88v1.43L85.1,94.56a26.44,26.44,0,0,1-3-3.91L83.9,88.3Z"/><path class="cls-17" d="M85.44,82.68l-3.79,3.41L77.52,82a23.53,23.53,0,0,0-1.77-3.71,3.06,3.06,0,0,1,5.16-1.55,3.16,3.16,0,0,1,.29.33Z"/><path class="cls-16" d="M85.2,94.67l-.53.57.42-.68Z"/><path class="cls-12" d="M85.1,94.56l-.42.68-5,5.29V96.1c0-.81,0-1.59,0-2.35l2.4-3.09A26.44,26.44,0,0,0,85.1,94.56Z"/><polygon class="cls-11" points="84.67 95.24 79.73 103.11 79.69 103.15 79.69 100.53 84.67 95.24"/><path class="cls-13" d="M83.9,88.3l-1.83,2.36c-.5-.76-.79-1.29-.79-1.29a6.49,6.49,0,0,1,1.59-2.09Z"/><path class="cls-11" d="M81.65,86.09l1.21,1.19a6.49,6.49,0,0,0-1.59,2.09s.29.53.79,1.29l-2.4,3.09a39.56,39.56,0,0,0-1.12-8.42,29.45,29.45,0,0,0-1-3.33Z"/><polygon class="cls-11" points="80.01 107.95 79.69 107.95 79.69 107.47 80.01 107.95"/><path class="cls-17" d="M79.67,93.75c0,.76,0,1.55,0,2.35v4.42L77,103.4l2.7,4.07v.47H76.2l-3-3.65a1.72,1.72,0,0,1,0-2.15l.12-.14Z"/><path class="cls-17" d="M79.69,106.57v.9L77,103.4l2.7-2.87v2.62l0,0a.46.46,0,0,0-.09.14l-.35,2.58a.48.48,0,0,0,.19.6A.47.47,0,0,0,79.69,106.57Z"/><path class="cls-15" d="M79.69,103.15v3.42a.47.47,0,0,1-.27-.07.48.48,0,0,1-.19-.6l.35-2.58a.46.46,0,0,1,.09-.14Z"/><path class="cls-17" d="M79.67,93.75,73.26,102l-.12.14a1.72,1.72,0,0,0,0,2.15l3,3.65H70V99.33l3.63-6.58-.48-3.65h4.35V85.6l1.06-.27A39.56,39.56,0,0,1,79.67,93.75Z"/><path class="cls-17" d="M78.54,85.33l-1.06.27-2.72-3.36-2.11,3.23-1.13-8.55.76-2.67a13.43,13.43,0,0,1,3.47,4,3.09,3.09,0,0,0,.85,2.81l.92.91A29.45,29.45,0,0,1,78.54,85.33Z"/><path class="cls-17" d="M77.52,82l-.92-.91a3.09,3.09,0,0,1-.85-2.81A23.53,23.53,0,0,1,77.52,82Z"/><polygon class="cls-14" points="77.48 85.6 77.48 89.1 73.13 89.1 72.67 85.6 77.48 85.6"/><polygon class="cls-17" points="74.76 82.24 77.48 85.6 72.67 85.6 72.65 85.47 74.76 82.24"/><ellipse class="cls-16" cx="69.98" cy="63.64" rx="6.73" ry="7.55"/><polygon class="cls-18" points="73.13 89.1 73.61 92.76 69.98 99.33 69.98 76.92 71.52 76.92 72.65 85.47 72.56 85.6 72.56 89.1 73.13 89.1"/><polygon class="cls-14" points="72.67 85.6 73.13 89.1 72.56 89.1 72.56 85.6 72.67 85.6"/><polygon class="cls-18" points="72.65 85.47 72.67 85.6 72.56 85.6 72.65 85.47"/><path class="cls-11" d="M72.56,73.25l-.28,1a5,5,0,0,0-2.25-1Z"/><path class="cls-18" d="M72.28,74.25l-.76,2.67H70V73.25H70A5,5,0,0,1,72.28,74.25Z"/><path class="cls-17" d="M70,99.33v8.61H60.79l2-3.45a1.7,1.7,0,0,0,0-1.74l-.05-.09-2.42-3.9V96.1a41.8,41.8,0,0,1,2.26-14.64l.37-.37a3.05,3.05,0,0,0,.9-2.45A12.35,12.35,0,0,1,67.73,74l.93,2.9L66.31,92.76Z"/><polygon class="cls-19" points="69.98 76.92 69.98 99.33 66.31 92.76 68.66 76.92 69.98 76.92"/><path class="cls-19" d="M70,73.25v3.67H68.66L67.73,74a4.21,4.21,0,0,1,2.2-.77Z"/><path class="cls-11" d="M67.48,73.25h2.45a4.21,4.21,0,0,0-2.2.77Z"/><path class="cls-17" d="M63.8,78.65a3.05,3.05,0,0,1-.9,2.45l-.37.37A23,23,0,0,1,63.8,78.65Z"/><path class="cls-17" d="M62.93,76.76a3,3,0,0,1,.87,1.89,23,23,0,0,0-1.27,2.81l-4.68,4.63-3.79-3.41,4.24-5.61a3.23,3.23,0,0,1,.29-.33A3.06,3.06,0,0,1,62.93,76.76Z"/><path class="cls-17" d="M62.74,102.75a1.7,1.7,0,0,1,0,1.74l-2,3.45h-.53v-1.65a.45.45,0,0,0,0-.4V98.77l2.42,3.9Z"/><path class="cls-11" d="M57.85,86.09l4.68-4.63A41.8,41.8,0,0,0,60.27,96.1v2.66l-.09-.15c-.83-1.35-1.67-2.71-2.53-4l-2.58-4-.69-1Z"/><path class="cls-16" d="M60.28,105.9a.45.45,0,0,1,0,.4v-.4Z"/><path class="cls-20" d="M60.27,106.29v1.65H57.12c.58-1.19,1.29-2.68,1.74-3.6l.56,2a.47.47,0,0,0,.66.16A.44.44,0,0,0,60.27,106.29Z"/><path class="cls-16" d="M60.27,105.84v.45a.44.44,0,0,1-.19.21.47.47,0,0,1-.66-.16l-.56-2,.31-.62s0,0,0,0c-.13-.18-4-5.63-4.9-6.92L53.75,96a11.06,11.06,0,0,0-1.5-4.5l.19-.1,7.33,11.68.06.06a.48.48,0,0,1,.1.14Z"/><path class="cls-20" d="M60.27,98.77v7.07l-.33-2.53a.48.48,0,0,0-.1-.14l-.06-.06L52.44,91.43l1.94-1.91.69,1,2.58,4c.86,1.33,1.7,2.69,2.53,4Z"/><path class="cls-16" d="M59.17,103.72s0,0,0,0l-.31.62-.1-.37.14.16-.16-.2v0l-5.23-5.7A7.62,7.62,0,0,0,53.75,96l.52.77C55.14,98.09,59,103.54,59.17,103.72Z"/><path class="cls-11" d="M58.76,104l.1.37c-.45.92-1.17,2.41-1.74,3.6H51.39a23.67,23.67,0,0,1,1.4-7.59,10.66,10.66,0,0,0,.73-2.08Z"/><path class="cls-16" d="M54.06,82.68l3.79,3.41-3.48,3.42c-.62-.94-1.24-1.89-1.88-2.83a2.24,2.24,0,0,0-.9-.76Z"/><path class="cls-16" d="M54.38,89.51l-1.94,1.91-.19.1-.12-.22c-.83-1.63-1.38-2.83-1.79-3.73l1.25-1.65a2.24,2.24,0,0,1,.9.76C53.14,87.62,53.76,88.57,54.38,89.51Z"/><path class="cls-16" d="M53.75,96a7.62,7.62,0,0,1-.22,2.25L51.48,96v-.3l-2.81-3.46-.28.44a1.75,1.75,0,0,1-.18-2.32l.15-.2.81-1.06c.8,1.24,1.63,2.47,2.43,3.71Z"/><path class="cls-16" d="M53.75,96,51.6,92.84c-.81-1.24-1.63-2.46-2.43-3.71l1.18-1.56c.41.89,1,2.1,1.79,3.73l.12.22A11.06,11.06,0,0,1,53.75,96Z"/><path class="cls-13" d="M51.48,96l2.05,2.23a10.66,10.66,0,0,1-.73,2.08,23.67,23.67,0,0,0-1.4,7.59H38.91a23.67,23.67,0,0,0-1.4-7.59,8.09,8.09,0,0,1-.51-6.5l.68-1c.86-1.33,1.76-2.65,2.6-4a2.08,2.08,0,0,0,.06-2.09,4.12,4.12,0,0,1,.77-1.17l4,8.63,3.52-9a2,2,0,0,1,.89.81A2.06,2.06,0,0,0,49,88.85l.18.29-.81,1.06-.15.2a1.75,1.75,0,0,0,.18,2.32l-2,3v3.6h5.06Z"/><path class="cls-20" d="M51.6,85.92l-1.25,1.65a13.4,13.4,0,0,0-.78-1.52l.1-.07A2,2,0,0,1,51.6,85.92Z"/><polygon class="cls-14" points="51.48 96.05 51.48 99.34 46.42 99.34 46.42 95.74 51.2 95.74 51.48 96.05"/><polygon class="cls-16" points="51.48 95.74 51.48 96.05 51.2 95.74 51.48 95.74"/><path class="cls-16" d="M48.67,92.28l2.81,3.46H51.2l-2.64-2.88h0l-.16-.14Z"/><path class="cls-13" d="M48.56,92.87l2.64,2.88H46.42l2-3,.16.14Z"/><path class="cls-13" d="M50.35,87.58l-1.18,1.56L49,88.85a2.06,2.06,0,0,1,.58-2.79A13.4,13.4,0,0,1,50.35,87.58Z"/><ellipse class="cls-20" cx="45.65" cy="75.14" rx="5.83" ry="7.77"/><path class="cls-21" d="M48.67,85.25l-3.52,9-4-8.63c.68-.66,1.6-.6,4-.6A10.46,10.46,0,0,1,48.67,85.25Z"/><path class="cls-13" d="M40.35,86.76a2.08,2.08,0,0,1-.06,2.09c-.85,1.35-1.74,2.66-2.6,4l-.68,1a19.21,19.21,0,0,1,1.17-2.55C39.29,89.12,39.88,87.69,40.35,86.76Z"/><path class="cls-20" d="M39.61,86a2.05,2.05,0,0,1,.74.77c-.47.94-1.06,2.36-2.19,4.55A19.21,19.21,0,0,0,37,93.85l-2,2.94c-.87,1.3-4.77,6.74-4.9,6.92,0,0,0,0,0,0,.35.7,1.32,2.7,2.05,4.22H28.48l-2-3.45a1.7,1.7,0,0,1,0-1.74l.05-.09,2.51-4.05c.83-1.35,1.67-2.71,2.53-4l2.58-4c.86-1.29,1.7-2.59,2.57-3.87A2.14,2.14,0,0,1,39.61,86Z"/><path class="cls-11" d="M38.91,107.95H32.16c-.73-1.52-1.7-3.52-2.05-4.22,0,0,0,0,0,0,.13-.18,4-5.63,4.9-6.92l2-2.94a8.09,8.09,0,0,0,.51,6.5A23.67,23.67,0,0,1,38.91,107.95Z"/><path class="cls-8" d="M28.48,107.95H26.17a3.6,3.6,0,0,1-3.6-3.6V68a30,30,0,0,1,30-30h34a30,30,0,0,1,30,30v36.31a3.6,3.6,0,0,1-3.6,3.6H28.48Z"/><path class="cls-14" d="M72.86,49.6v-6a1,1,0,0,0-1-1H68.19a1,1,0,0,0-1,1v6H65.76a.5.5,0,0,0-.35.85l3.91,3.91a1,1,0,0,0,1.41,0l3.91-3.91a.5.5,0,0,0-.35-.85Z"/><line class="cls-22" x1="45.15" y1="57.12" x2="45.15" y2="54.16"/><line class="cls-22" x1="41.71" y1="58.24" x2="39.96" y2="55.84"/><line class="cls-22" x1="39.58" y1="61.17" x2="36.76" y2="60.26"/><line class="cls-22" x1="50.72" y1="61.17" x2="53.54" y2="60.26"/><line class="cls-22" x1="48.6" y1="58.24" x2="50.34" y2="55.84"/><line class="cls-22" x1="93.93" y1="60.63" x2="93.93" y2="57.67"/><line class="cls-22" x1="90.49" y1="61.75" x2="88.75" y2="59.35"/><line class="cls-22" x1="88.36" y1="64.68" x2="85.54" y2="63.76"/><line class="cls-22" x1="99.51" y1="64.68" x2="102.33" y2="63.76"/><line class="cls-22" x1="97.38" y1="61.75" x2="99.12" y2="59.35"/><path class="cls-13" d="M82.65,90.46"/></g></g></g></svg>