<svg xmlns="http://www.w3.org/2000/svg" viewBox="0 0 578.84 213.58"><defs><style>.cls-1,.cls-14,.cls-2,.cls-8{fill:#0080b1;}.cls-1,.cls-10,.cls-12,.cls-13,.cls-14,.cls-15,.cls-4,.cls-6,.cls-7,.cls-8,.cls-9{stroke:#fff;}.cls-1,.cls-12,.cls-14,.cls-15,.cls-6,.cls-7{stroke-linecap:round;}.cls-1,.cls-14,.cls-15,.cls-6,.cls-7{stroke-linejoin:round;}.cls-1,.cls-10,.cls-13,.cls-6,.cls-7,.cls-8{stroke-width:2px;}.cls-3,.cls-5{fill:#fff;}.cls-10,.cls-12,.cls-13,.cls-15,.cls-4,.cls-6,.cls-7,.cls-9{fill:none;}.cls-10,.cls-12,.cls-13,.cls-4,.cls-8,.cls-9{stroke-miterlimit:10;}.cls-12,.cls-4{stroke-width:4px;}.cls-4{stroke-dasharray:2.06 12.34;}.cls-5{font-size:30px;font-family:ArialMT, Arial;}.cls-6{stroke-dasharray:3 6;}.cls-11{fill:#5d9632;}.cls-13{stroke-dasharray:2 2;}</style></defs><title>24</title><g id="Layer_2" data-name="Layer 2"><g id="texts"><polyline class="cls-1" points="122.31 172.99 87.31 155.49 82.31 157.99"/><polyline class="cls-1" points="94.81 115.49 97.31 122.99 97.31 165.49 82.31 157.99 79.81 162.99 119.81 182.99 117.31 175.49 104.81 168.8 104.81 125.49 109.81 122.99"/><polygon class="cls-1" points="117.31 175.49 122.31 172.99 124.81 180.49 119.81 182.99 117.31 175.49"/><polyline class="cls-1" points="46 196.59 11 179.09 6 181.59"/><polygon class="cls-1" points="3.5 121.58 3.5 131.59 51 154.09 51 144.09 3.5 121.58"/><path class="cls-1" d="M3.5,121.58c2.5,0,85-19,85-19l40,16.5-77.5,25Z"/><polygon class="cls-1" points="51 154.09 128.5 129.09 128.5 119.08 51 144.09 51 154.09"/><path class="cls-2" d="M243.5,106.58A38.5,38.5,0,1,1,282,68.08,38.54,38.54,0,0,1,243.5,106.58Z"/><path class="cls-3" d="M243.5,30.58A37.5,37.5,0,1,1,206,68.08a37.5,37.5,0,0,1,37.5-37.5m0-2A39.5,39.5,0,1,0,283,68.08a39.54,39.54,0,0,0-39.5-39.5Z"/><path class="cls-2" d="M243.5,101.58A33.5,33.5,0,1,1,277,68.08,33.54,33.54,0,0,1,243.5,101.58Z"/><path class="cls-3" d="M243.5,35.58A32.5,32.5,0,1,1,211,68.08a32.5,32.5,0,0,1,32.5-32.5m0-2A34.5,34.5,0,1,0,278,68.08a34.54,34.54,0,0,0-34.5-34.5Z"/><circle class="cls-2" cx="243.5" cy="68.08" r="27.5"/><circle class="cls-4" cx="243.5" cy="68.08" r="27.5"/><text class="cls-5" transform="translate(227.63 78.08)">24</text><line class="cls-6" x1="128.62" y1="81.78" x2="107.91" y2="77.2"/><line class="cls-6" x1="153.05" y1="61.89" x2="157.63" y2="41.17"/><line class="cls-6" x1="138.25" y1="68.91" x2="127.5" y2="52.05"/><line class="cls-6" x1="131.13" y1="91.62" x2="118.49" y2="99.7"/><line class="cls-6" x1="175.29" y1="58.79" x2="162.65" y2="66.86"/><rect class="cls-2" x="379.11" y="30.03" width="135.54" height="11.68" rx="1" ry="1"/><path class="cls-3" d="M513.65,31v9.68H380.11V31H513.65m0-2H380.11a2,2,0,0,0-2,2v9.68a2,2,0,0,0,2,2H513.65a2,2,0,0,0,2-2V31a2,2,0,0,0-2-2Z"/><rect class="cls-2" x="406.21" y="1" width="83.28" height="32.96" rx="1" ry="1"/><path class="cls-3" d="M488.49,2V33H407.21V2h81.28m0-2H407.21a2,2,0,0,0-2,2V33a2,2,0,0,0,2,2h81.28a2,2,0,0,0,2-2V2a2,2,0,0,0-2-2Z"/><rect class="cls-2" x="382.98" y="39.71" width="127.79" height="85.22" rx="1" ry="1"/><path class="cls-3" d="M509.78,40.71v83.22H384V40.71H509.78m0-2H384a2,2,0,0,0-2,2v83.22a2,2,0,0,0,2,2H509.78a2,2,0,0,0,2-2V40.71a2,2,0,0,0-2-2Z"/><rect class="cls-2" x="477.81" y="119.05" width="48.45" height="5.87" rx="1" ry="1"/><path class="cls-3" d="M525.26,120.05v3.87H478.81v-3.87h46.45m0-2H478.81a2,2,0,0,0-2,2v3.87a2,2,0,0,0,2,2h46.45a2,2,0,0,0,2-2v-3.87a2,2,0,0,0-2-2Z"/><rect class="cls-2" x="373.31" y="119.05" width="48.45" height="5.87" rx="1" ry="1"/><path class="cls-3" d="M420.75,120.05v3.87H374.31v-3.87h46.45m0-2H374.31a2,2,0,0,0-2,2v3.87a2,2,0,0,0,2,2h46.45a2,2,0,0,0,2-2v-3.87a2,2,0,0,0-2-2Z"/><rect class="cls-2" x="427.49" y="80.35" width="42.64" height="44.58" rx="1" ry="1"/><path class="cls-3" d="M469.14,81.35v42.58H428.49V81.35h40.64m0-2H428.49a2,2,0,0,0-2,2v42.58a2,2,0,0,0,2,2h40.64a2,2,0,0,0,2-2V81.35a2,2,0,0,0-2-2Z"/><line class="cls-7" x1="449.78" y1="81.35" x2="449.78" y2="123.92"/><rect class="cls-2" x="382.98" y="88.09" width="31.03" height="17.48" rx="1" ry="1"/><path class="cls-3" d="M413,89.09v15.48H384V89.09h29m0-2H384a2,2,0,0,0-2,2v15.48a2,2,0,0,0,2,2h29a2,2,0,0,0,2-2V89.09a2,2,0,0,0-2-2Z"/><rect class="cls-2" x="483.62" y="88.09" width="27.16" height="17.48" rx="1" ry="1"/><path class="cls-3" d="M509.78,89.09v15.48H484.62V89.09h25.16m0-2H484.62a2,2,0,0,0-2,2v15.48a2,2,0,0,0,2,2h25.16a2,2,0,0,0,2-2V89.09a2,2,0,0,0-2-2Z"/><line class="cls-7" x1="395.59" y1="89.09" x2="395.59" y2="104.57"/><line class="cls-7" x1="494.29" y1="89.09" x2="494.29" y2="104.57"/><rect class="cls-2" x="400.4" y="64.86" width="92.96" height="9.74" rx="1" ry="1"/><path class="cls-3" d="M492.36,65.86v7.74h-91V65.86h91m0-2h-91a2,2,0,0,0-2,2v7.74a2,2,0,0,0,2,2h91a2,2,0,0,0,2-2V65.86a2,2,0,0,0-2-2Z"/><path class="cls-2" d="M376.24,66.86a1,1,0,0,1-1-1V43.8a4.1,4.1,0,0,1,4.1-4.1h137a4.1,4.1,0,0,1,4.1,4.1V65.86a1,1,0,0,1-1,1Z"/><path class="cls-3" d="M516.36,40.71a3.1,3.1,0,0,1,3.1,3.1V65.86H376.24V43.8a3.1,3.1,0,0,1,3.1-3.1h137m0-2h-137a5.1,5.1,0,0,0-5.1,5.1V65.86a2,2,0,0,0,2,2H519.45a2,2,0,0,0,2-2V43.8a5.1,5.1,0,0,0-5.1-5.1Z"/><line class="cls-7" x1="383.98" y1="40.71" x2="383.98" y2="65.86"/><line class="cls-7" x1="393.66" y1="40.71" x2="393.66" y2="65.86"/><line class="cls-7" x1="403.34" y1="40.71" x2="403.34" y2="65.86"/><line class="cls-7" x1="413.01" y1="40.71" x2="413.01" y2="65.86"/><line class="cls-7" x1="422.69" y1="40.71" x2="422.69" y2="65.86"/><line class="cls-7" x1="432.36" y1="40.71" x2="432.36" y2="65.86"/><line class="cls-7" x1="442.04" y1="40.71" x2="442.04" y2="65.86"/><line class="cls-7" x1="451.72" y1="40.71" x2="451.72" y2="65.86"/><line class="cls-7" x1="461.39" y1="40.71" x2="461.39" y2="65.86"/><line class="cls-7" x1="471.07" y1="40.71" x2="471.07" y2="65.86"/><line class="cls-7" x1="480.75" y1="40.71" x2="480.75" y2="65.86"/><line class="cls-7" x1="490.42" y1="40.71" x2="490.42" y2="65.86"/><line class="cls-7" x1="500.1" y1="40.71" x2="500.1" y2="65.86"/><line class="cls-7" x1="509.78" y1="40.71" x2="509.78" y2="65.86"/><line class="cls-7" x1="453.65" y1="102.64" x2="453.65" y2="104.57"/><line class="cls-7" x1="445.91" y1="102.64" x2="445.91" y2="104.57"/><line class="cls-7" x1="314" y1="125.08" x2="551" y2="125.08"/><path class="cls-2" d="M463,30.27a4.38,4.38,0,0,1-.05-8.77h0a4.41,4.41,0,0,1,4.44,4.33A4.38,4.38,0,0,1,463,30.27Z"/><path class="cls-3" d="M463,22.5a3.38,3.38,0,0,1,0,6.77h0a3.38,3.38,0,0,1,0-6.77h0m0-2h-.07A5.38,5.38,0,0,0,457.6,26,5.4,5.4,0,0,0,463,31.27h.07a5.38,5.38,0,0,0,5.32-5.45A5.4,5.4,0,0,0,463,20.5Z"/><path class="cls-2" d="M433.48,30.63a4.38,4.38,0,0,1-.05-8.77h0a4.38,4.38,0,0,1,.1,8.77Z"/><path class="cls-3" d="M433.48,22.86a3.38,3.38,0,0,1,0,6.77h0a3.38,3.38,0,0,1,0-6.77h0m0-2h-.07a5.38,5.38,0,0,0,.06,10.77h.07a5.38,5.38,0,0,0,5.32-5.45,5.4,5.4,0,0,0-5.38-5.32Z"/><path class="cls-2" d="M427.79,27.31a3.72,3.72,0,0,1-3.09-1.43c-1.44-1.88-1.44-5.5,0-10.75.71-2.59,2.69-4.48,4.61-6.31l1.07-1a10.06,10.06,0,0,1,5.17-2.72h.13l15.52-.19c4.61,0,8.54,4.11,10.48,6.56a3.41,3.41,0,0,0,2.41,1h.11a24.43,24.43,0,0,1,5.66,1c3.72,1,4.32,3.79,4.12,5.24l.05,4.56a3.65,3.65,0,0,1-.92,2.71,3,3,0,0,1-2.11.85h-.16l-2.22,0a1,1,0,0,1-1-1c0-.47-.27-4.59-4.61-4.59a4.35,4.35,0,0,0-3.24,1.18,5.54,5.54,0,0,0-1.29,3.5,1,1,0,0,1-1,1l-18,.22a1,1,0,0,1-1-.93,4.72,4.72,0,0,0-4.93-4.44,4.4,4.4,0,0,0-4.67,4.49,1,1,0,0,1-1,1Z"/><path class="cls-3" d="M451.28,5.87c4.48,0,8.48,4.75,9.61,6.18a4.37,4.37,0,0,0,3.19,1.42h.11a23.48,23.48,0,0,1,5.41.93c3.92,1,3.37,4.2,3.37,4.2l.06,4.64c0,2.38-1.56,2.55-2,2.55h-.13l-2.25,0s-.13-5.57-5.61-5.57h-.1c-5.57.07-5.44,5.7-5.44,5.7l-18,.22s-.39-5.37-5.93-5.37h-.1c-5.64.07-5.57,5.5-5.57,5.5h-.05c-4.84,0-2.89-8.13-2.13-10.92s3.32-4.81,5.42-6.9a9.07,9.07,0,0,1,4.61-2.44l15.52-.19h.08m0-2h-.1l-15.51.19-.26,0a11,11,0,0,0-5.74,3l-1.06,1c-1.92,1.83-4.1,3.91-4.88,6.77-1.54,5.64-1.48,9.44.18,11.62a4.67,4.67,0,0,0,3.89,1.83h.08a2,2,0,0,0,2-2,3.32,3.32,0,0,1,3.59-3.48h.08a3.71,3.71,0,0,1,3.93,3.51,2,2,0,0,0,2,1.85h0l18-.22a2,2,0,0,0,2-2,3.34,3.34,0,0,1,3.46-3.65H463a3.52,3.52,0,0,1,3.61,3.62,2,2,0,0,0,2,2h0l2.17,0H471a4,4,0,0,0,2.82-1.15A4.6,4.6,0,0,0,475,23.22L475,18.74c.22-1.8-.53-5.15-4.87-6.27a25.21,25.21,0,0,0-5.91-1h-.13a2.38,2.38,0,0,1-1.6-.66c-2.05-2.59-6.24-6.94-11.18-6.94Z"/><path class="cls-2" d="M436.26,8.61a6.14,6.14,0,0,1,.88-.07h.14l8.47-.1.05,4.22-9.49.11Z"/><path class="cls-3" d="M444.76,9.46l0,2.22-7.49.09,0-2.22h.09l7.4-.09m2-2-9.4.11h-.2a7,7,0,0,0-1.89.26l.07,6,11.49-.14-.07-6.22Z"/><polygon class="cls-2" points="433.43 10.31 433.46 12.81 430.96 12.84 433.43 10.31"/><path class="cls-3" d="M434.41,8.14a3.42,3.42,0,0,0-1.13.9l-4.72,4.83,5.92-.07-.07-5.66Z"/><path class="cls-2" d="M448.59,8.41l2.93,0c1,0,1.46,0,3.28,1.15a15,15,0,0,1,3.15,3l-9.31.11Z"/><path class="cls-3" d="M451.52,9.38c.76,0,1.1,0,2.76,1a8.48,8.48,0,0,1,1.42,1.16l-6.07.07,0-2.22,1.48,0h.44m0-2h-.46l-3.48,0,.07,6.22L460,13.49s-2.5-3.5-4.67-4.82c-1.93-1.17-2.62-1.3-3.8-1.3Z"/><path class="cls-3" d="M463,27.75a1.86,1.86,0,1,1,1.86-1.88A1.86,1.86,0,0,1,463,27.75Z"/><path class="cls-2" d="M463,25a.86.86,0,0,1,0,1.72h0A.86.86,0,0,1,463,25h0m0-2h0a2.86,2.86,0,1,0,2.89,2.83A2.85,2.85,0,0,0,463,23Z"/><path class="cls-3" d="M433.48,28.11a1.87,1.87,0,0,1-1.86-1.84,1.86,1.86,0,0,1,1.84-1.88,1.87,1.87,0,0,1,1.88,1.84,1.86,1.86,0,0,1-1.84,1.88Z"/><path class="cls-2" d="M433.48,25.38a.86.86,0,0,1,0,1.72h0a.86.86,0,0,1,0-1.72h0m0-2h0a2.86,2.86,0,1,0,2.89,2.83,2.85,2.85,0,0,0-2.89-2.83Z"/><ellipse class="cls-1" cx="343.61" cy="89.31" rx="8.62" ry="9.66"/><polyline class="cls-1" points="343.61 104.37 336.91 104.37 326.34 90.53 328.56 66.77 322.16 66.77 318.76 92.36 331.19 115.73 331.19 149.4 321.99 203.71 330.47 203.71 343.61 156.19"/><polyline class="cls-1" points="324.69 61.98 328.17 61.79 329.38 59.9 330.49 60.14 329.48 63.58 327.35 64.89 326.72 66.17 323.62 66.17 322.7 61.55 322.7 57.95 324.83 54.72 328.52 54.72 327.78 58.02 328.17 61.79"/><polygon class="cls-1" points="321.99 203.71 313.5 209.63 313.5 212.59 324.46 211.02 329.34 210.32 330.47 203.71 321.99 203.71"/><polyline class="cls-1" points="343.61 104.37 350.31 104.37 360.88 90.53 358.67 66.77 365.06 66.77 368.46 92.36 356.03 115.73 356.03 149.4 365.24 203.71 356.75 203.71 343.61 156.19"/><polyline class="cls-1" points="362.54 61.98 359.05 61.79 357.84 59.9 356.73 60.14 357.75 63.58 359.87 64.89 360.5 66.17 363.6 66.17 364.52 61.55 364.52 57.95 362.39 54.72 358.7 54.72 359.44 58.02 359.05 61.79"/><polyline class="cls-1" points="356.75 203.71 365.24 203.71 373.72 209.63 373.72 212.59 362.76 211.02 357.88 210.32 356.75 203.71"/><line class="cls-1" x1="331.19" y1="141.31" x2="356.03" y2="141.31"/><polygon class="cls-1" points="340.42 104.37 341.92 109.06 345.58 109.06 346.92 104.37 340.42 104.37"/><polyline class="cls-1" points="341.92 109.06 338.92 129.32 343.61 137.72 348.25 129.32 345.58 109.06"/><circle class="cls-8" cx="416.94" cy="161.79" r="15.91"/><circle class="cls-8" cx="416.94" cy="161.79" r="12.79"/><circle class="cls-8" cx="416.94" cy="161.79" r="11.22"/><circle class="cls-9" cx="416.94" cy="161.79" r="7.53"/><path class="cls-3" d="M416.94,174.21a.47.47,0,0,1-.47-.47V149.88a.47.47,0,1,1,.93,0v23.87A.47.47,0,0,1,416.94,174.21Z"/><path class="cls-3" d="M428.31,165.9l-.14,0-22.74-7.25a.47.47,0,1,1,.28-.89L428.45,165a.47.47,0,0,1-.14.91Z"/><path class="cls-3" d="M405.57,165.9a.47.47,0,0,1-.14-.91l22.74-7.25a.47.47,0,1,1,.28.89l-22.74,7.25Z"/><path class="cls-3" d="M409.84,171.87a.47.47,0,0,1-.37-.74l14.19-19.19a.47.47,0,0,1,.75.55l-14.19,19.19A.46.46,0,0,1,409.84,171.87Z"/><path class="cls-3" d="M424,171.87a.46.46,0,0,1-.38-.19l-14.19-19.19a.47.47,0,0,1,.75-.55l14.19,19.19a.47.47,0,0,1-.37.74Z"/><circle class="cls-8" cx="416.94" cy="161.79" r="3.05"/><circle class="cls-8" cx="549.02" cy="159.98" r="17.71"/><circle class="cls-8" cx="549.02" cy="159.98" r="14.24"/><circle class="cls-8" cx="549.02" cy="159.98" r="12.5"/><circle class="cls-8" cx="549.02" cy="159.98" r="8.38"/><path class="cls-3" d="M549,173.82a.52.52,0,0,1-.52-.52V146.72a.52.52,0,0,1,1,0V173.3A.52.52,0,0,1,549,173.82Z"/><path class="cls-3" d="M561.68,164.57l-.16,0-25.32-8.08a.52.52,0,1,1,.32-1l25.32,8.08a.52.52,0,0,1-.16,1Z"/><path class="cls-3" d="M536.36,164.57a.52.52,0,0,1-.16-1l25.32-8.08a.52.52,0,1,1,.32,1l-25.32,8.08Z"/><path class="cls-3" d="M541.12,171.21a.52.52,0,0,1-.42-.83L556.5,149a.52.52,0,0,1,.83.62L541.54,171A.52.52,0,0,1,541.12,171.21Z"/><path class="cls-3" d="M556.92,171.21a.52.52,0,0,1-.42-.21l-15.8-21.37a.52.52,0,0,1,.83-.62l15.8,21.37a.52.52,0,0,1-.42.83Z"/><circle class="cls-8" cx="549.02" cy="159.98" r="3.4"/><path class="cls-8" d="M393.61,138.54a7.18,7.18,0,0,0-3,7.34,44.11,44.11,0,0,0,14.52-4.54l5.83-2.8-3.81-3.65-10.56,2.8Z"/><path class="cls-8" d="M386,167.89h13.44s-3.11-21.51,16.7-23.14,19.18,22.13,19.18,22.13h92S525,140.79,549,140.79a20.81,20.81,0,0,1,18.87,11.58s2.1,3.35,2.1,12.2c0,0,6.37-.09,7.84-5.14l-1.4-19.11-1-1.86-.16-2.33s.85-2.87-4.12-9.48l-5.36-7.22s-9-7.07-14-15.92c0,0,.62-.93-2.49-1.09a56.3,56.3,0,0,1-8.54-.85c-4.19-.7-21.67-1.55-33.94-1.63s-21.36.93-36,4.19-33.16,12-33.16,12S427,121.22,420.72,125a100.11,100.11,0,0,1-19.26,8.54c-5.2,1.71-8.08,4.19-7.84,5s3.65,1,7.42-.39,7.42-2.33,6.8-.7a16.37,16.37,0,0,1-2.72,3.88,43.88,43.88,0,0,1-14.52,4.54S386,150.5,386,155.31Z"/><path class="cls-10" d="M444.06,118.77a19.43,19.43,0,0,0-3.06,8.66s-5.44,20.16-2.43,35.39h84.51s-1.63-25.68,22.54-25.68c0,0,3.83-15.91-4.15-20.47,0,0-.5-4-3-5.87"/><path class="cls-8" d="M484.2,162.82V123.53s-.56-11.81,7.9-17.67"/><path class="cls-8" d="M551.82,103.51l-.47,2.87s2.72,6.29,13.44,14l1-.93S556.63,112.13,551.82,103.51Z"/><path class="cls-8" d="M575.27,136.13s-14.52-5-16.31-8.39,6.83-8.31,6.83-8.31l6.62,9S575.58,132.56,575.27,136.13Z"/><path class="cls-8" d="M567.18,121.32s-2.89,3.65-1.39,6.19,9.16,5.9,9.16,5.9a23.65,23.65,0,0,0-3.32-6Z"/><path class="cls-8" d="M569.68,124.71a12.06,12.06,0,0,0-.16,5.88s-3.75-1.9-4.07-4,.58-3.63,1.73-5.31Z"/><line class="cls-8" x1="468.64" y1="132.79" x2="479.66" y2="132.25"/><line class="cls-8" x1="530.33" y1="127.28" x2="541.35" y2="126.74"/><path class="cls-10" d="M505.86,105.08a94.5,94.5,0,0,1,25.54,3.3,53.58,53.58,0,0,1,11.32,4.43l-1.26,3.87c-6.84.86-32.34,4-54,6.51-20.6,2.34-49.77,4-59.78,4.57a112.9,112.9,0,0,1,19.71-10.37l3.22-1.3c10.11-4.11,20.56-8.37,44.87-10.52,3.5-.31,7-.47,10.39-.47h0"/><path class="cls-8" d="M488.5,107.43"/><line class="cls-11" x1="206" y1="134.31" x2="291" y2="134.31"/><line class="cls-12" x1="206" y1="134.31" x2="286.19" y2="134.31"/><path class="cls-3" d="M258.85,153.51a2,2,0,0,1,.62-2.76l25.81-16.44-25.81-16.44a2,2,0,1,1,2.15-3.37l28.46,18.12a2,2,0,0,1,0,3.38l-28.46,18.13a2,2,0,0,1-2.77-.61Z"/><polyline class="cls-1" points="18.5 139.09 21 146.59 21 189.09 6 181.59 3.5 186.59 43.5 206.59 41 199.09 28.5 192.39 28.5 149.09 33.5 146.59"/><polygon class="cls-1" points="41 199.09 46 196.59 48.5 204.09 43.5 206.59 41 199.09"/><polygon class="cls-1" points="43.5 127.72 57.05 135.84 99.51 122.83 86 116.11 43.5 127.72"/><line class="cls-13" x1="54.18" y1="128.95" x2="84.27" y2="120.03"/><line class="cls-13" x1="58.35" y1="131.86" x2="88.44" y2="122.93"/><polygon class="cls-1" points="10.43 31.13 16.02 104.08 91.15 93.86 88.59 38.55 10.43 31.13"/><polygon class="cls-1" points="18.9 38.55 23.22 96.41 83.32 88.26 81.24 44.78 18.9 38.55"/><polygon class="cls-1" points="10.43 31.13 1 35.44 5.96 102.81 16.02 104.08 10.43 31.13"/><polygon class="cls-1" points="61.09 108.37 61.09 97.97 41.11 100.86 41.11 115.72 46.06 118.6 70.84 111.73 61.09 108.37"/><polygon class="cls-1" points="41.11 100.86 33.91 101.65 33.91 119.08 44.78 125.09 70.84 117.48 70.84 111.73 46.06 118.6 41.11 115.72 41.11 100.86"/><rect class="cls-1" x="140.6" y="167.63" width="15.22" height="6.36"/><rect class="cls-1" x="145.66" y="173.99" width="5.11" height="13.6"/><path class="cls-1" d="M171.85,199.51a3.46,3.46,0,0,1-3.5-3.46,4.91,4.91,0,0,0-4.88-5H133a4.89,4.89,0,0,0-4.88,4.88,3.54,3.54,0,0,1-3.5,3.54,3.46,3.46,0,0,1-3.5-3.46V196A11.9,11.9,0,0,1,133,184.08h30.45A11.9,11.9,0,0,1,175.35,196,3.54,3.54,0,0,1,171.85,199.51Z"/><circle class="cls-1" cx="124.64" cy="203.81" r="7.75"/><path class="cls-1" d="M132.39,206.3a2.5,2.5,0,0,1-2.5-2.5,5.25,5.25,0,0,0-10.51,0,2.5,2.5,0,0,1-5,0,10.25,10.25,0,0,1,20.51,0A2.5,2.5,0,0,1,132.39,206.3Z"/><circle class="cls-1" cx="124.64" cy="203.81" r="3.56"/><circle class="cls-1" cx="171.49" cy="203.81" r="7.75"/><path class="cls-1" d="M179.24,206.3a2.5,2.5,0,0,1-2.5-2.5,5.25,5.25,0,0,0-10.51,0,2.5,2.5,0,0,1-5,0,10.25,10.25,0,0,1,20.51,0A2.5,2.5,0,0,1,179.24,206.3Z"/><circle class="cls-1" cx="171.49" cy="203.81" r="3.56"/><path class="cls-1" d="M155.79,138.65l.43-8.81a26,26,0,0,1,2.92-10.77l1.78-3.41a26,26,0,0,0,2.87-9.9L166.26,76a5,5,0,0,1,5-4.59l8.81,0a13.37,13.37,0,0,1,13,10.3l0,.19a13.37,13.37,0,0,1-4.35,13.26l-.25.21a13.37,13.37,0,0,0-4.66,9L181.1,136a11,11,0,0,0,.07,2.54L183,151.05a11,11,0,0,1-3.74,9.95l-7.32,6.25a11,11,0,0,1-7.14,2.63H126a9.24,9.24,0,0,1-7.06-3.28l-.07-.08a9.24,9.24,0,0,1-1.41-9.67l2-4.5a9.24,9.24,0,0,1,7.92-5.52l27.7-1.63.55-4.93Q155.75,139.47,155.79,138.65Z"/><path class="cls-14" d="M33.48,72.68a3.39,3.39,0,0,1,3.4-3.82A4.08,4.08,0,0,1,41,72.37a3.57,3.57,0,0,1-3.4,3.82A3.91,3.91,0,0,1,33.48,72.68Z"/><path class="cls-2" d="M34.59,72.64a2.41,2.41,0,0,1,2.4-2.7,2.86,2.86,0,0,1,2.91,2.48,2.5,2.5,0,0,1-2.4,2.7A2.77,2.77,0,0,1,34.59,72.64Z"/><path class="cls-3" d="M36.52,72.56a.66.66,0,0,1,.65-.73.77.77,0,0,1,.79.67.67.67,0,0,1-.65.73A.76.76,0,0,1,36.52,72.56Z"/><path class="cls-14" d="M64.25,71.1C64.16,69.39,66,68,68.31,68s4.27,1.24,4.32,2.78-1.76,2.92-4.06,3.1S64.34,72.81,64.25,71.1Z"/><path class="cls-2" d="M65.48,71.05c-.06-1.19,1.22-2.16,2.86-2.18s3,.86,3,2S70.16,72.91,68.53,73,65.55,72.24,65.48,71.05Z"/><ellipse class="cls-3" cx="68.44" cy="70.94" rx="0.81" ry="0.56" transform="translate(-2.6 2.61) rotate(-2.14)"/><path class="cls-14" d="M31.14,67.13a1.58,1.58,0,0,0-.54,1.78,9.87,9.87,0,0,0,3.35-1.1l1.33-.65-1-.87-2.46.64Z"/><path class="cls-14" d="M30.09,74.33l3.17-.17S32,69,36.66,68.6s5,4.88,5,4.88l21.7-1.13s-.82-4.61,4.91-4.59c0,0,3-.12,4.57,1.82a2.87,2.87,0,0,1,.56,1.89s1.5-.08,1.83-.87l-.41-2.9-.25-.29,0-.36s.19-.44-1-1.48L72.18,64.4a14.58,14.58,0,0,1-3.49-2.77s.14-.14-.61-.23A20,20,0,0,1,66,61.09c-1-.2-5.29-.71-8.28-1a40,40,0,0,0-8.7.12,41.07,41.07,0,0,0-7.81,2s-2.46,1-3.89,1.83A23.5,23.5,0,0,1,32.89,66c-1.2.39-1.83,1-1.75,1.17s.9.25,1.76-.08,1.72-.53,1.61-.15a3.36,3.36,0,0,1-.56.91,9.73,9.73,0,0,1-3.35,1.1,3.62,3.62,0,0,0-.84,2.33Z"/><path class="cls-15" d="M42.81,62.92a3.54,3.54,0,0,0-.56,1.86s-.89,4.43.13,7.77l20-.87s-.66-4.59,5.12-4.53c0,0,.8-2.63-1.16-3.48a1.76,1.76,0,0,0-.77-1"/><path class="cls-14" d="M53.15,72.08l-.59-7.76A3.4,3.4,0,0,1,54.22,61"/><path class="cls-14" d="M68.69,61.63l-.09.46a9.2,9.2,0,0,0,3.34,2.45l.24-.14A14.93,14.93,0,0,1,68.69,61.63Z"/><path class="cls-14" d="M74.54,67.06s-3.51-.85-4-1.4,1.6-1.26,1.6-1.26l1.64,1.46S74.6,66.51,74.54,67.06Z"/><path class="cls-14" d="M72.53,64.71s-.68.55-.3,1a8.55,8.55,0,0,0,2.23,1,3.81,3.81,0,0,0-.83-1Z"/><path class="cls-14" d="M73.15,65.27a1.24,1.24,0,0,0,0,.92s-.91-.32-1-.65.12-.57.39-.82Z"/><line class="cls-14" x1="48.97" y1="66.07" x2="51.61" y2="66.01"/><line class="cls-14" x1="63.7" y1="65.38" x2="66.35" y2="65.37"/><path class="cls-15" d="M57.55,61.06a33.32,33.32,0,0,1,6.23,1,19.22,19.22,0,0,1,2.78.93l-.27.64c-1.64.06-7.76.35-13,.61-4.92.29-11.9.43-14.29.48a21.51,21.51,0,0,1,4.54-2.1l.75-.24A31.13,31.13,0,0,1,55,61c.84,0,1.69,0,2.52.1h0"/><path class="cls-1" d="M53.37,61.2"/><polygon class="cls-14" points="36.47 80.35 36.47 85.45 68.84 82.37 68.5 77.93 36.47 80.35"/><polygon class="cls-14" points="26.85 48.05 27.29 54.97 74.41 55.73 74.06 51.08 26.85 48.05"/><polygon class="cls-1" points="72.55 76.86 87.07 84.12 82.13 85.88 86.86 91.26 84.33 93.36 79.77 88.07 77.16 92.88 72.55 76.86"/></g></g></svg>