<svg xmlns="http://www.w3.org/2000/svg" viewBox="0 0 667.11 167.06"><defs><style>.cls-1,.cls-2{fill:#2c81b1;}.cls-1{stroke:#fff;stroke-linecap:round;stroke-linejoin:round;stroke-width:1.8px;}.cls-10,.cls-3,.cls-8{fill:#fff;}.cls-4{font-size:20.4px;}.cls-4,.cls-5{fill:#f0f0f0;}.cls-4,.cls-5,.cls-8{font-family:ArialMT, Arial;}.cls-5{font-size:17.72px;}.cls-6{letter-spacing:-0.04em;}.cls-7{letter-spacing:-0.02em;}.cls-10,.cls-8{font-size:21px;}.cls-9{letter-spacing:-0.06em;}.cls-10{font-family:HelveticaNeueLTPro-Lt, HelveticaNeueLTPro Lt;}.cls-11{letter-spacing:0em;}.cls-12{letter-spacing:-0.01em;}.cls-13{letter-spacing:-0.05em;}</style></defs><title>30</title><g id="Layer_2" data-name="Layer 2"><g id="texts"><path class="cls-1" d="M204.8,122V69.3a25,25,0,0,1,25-25H390.3a25,25,0,0,1,25,25V122"/><path class="cls-2" d="M312.87,137.09a.89.89,0,0,1-.31-.05l-20.46-7.4a.9.9,0,0,1-.45-1.34l3.91-5.93a4.62,4.62,0,0,1,3.85-2.08h1a.59.59,0,0,0,.57-.47l1.57-7.46a9.58,9.58,0,0,0-2.81-8.92l-8-7.52-5-4.49a5.05,5.05,0,0,0-3.39-1.3,5.12,5.12,0,0,0-.58,0l-25.62,3H257a.9.9,0,0,1-.9-.9l-.06-22.32a.9.9,0,0,1,.9-.9.89.89,0,0,1,.38.08l9.08,4.17a3.15,3.15,0,0,1,1.76,2.21l.24,1.12a.35.35,0,0,0,.34.28l10.44-1.67a.35.35,0,0,0,.29-.33,3.14,3.14,0,0,1,2.58-3l21.81-4a49.81,49.81,0,0,1,17.57,0l21.83,3.86a3.12,3.12,0,0,1,2.59,2.92.36.36,0,0,0,.3.36l10.41,1.61a.36.36,0,0,0,.38-.27l.23-1.12A3.15,3.15,0,0,1,359,73L368,68.81a.9.9,0,0,1,1.28.82L369.37,92a.9.9,0,0,1-.9.9h-.1L342.74,90a5.13,5.13,0,0,0-.56,0,5,5,0,0,0-3.41,1.32l-5,4.52-8,7.55a9.59,9.59,0,0,0-2.76,8.93l1.61,7.45a.59.59,0,0,0,.57.46h1a4.62,4.62,0,0,1,3.86,2.06l3.94,5.91a.9.9,0,0,1-.44,1.35L313.18,137A.9.9,0,0,1,312.87,137.09Z"/><path class="cls-3" d="M312.82,68a48.88,48.88,0,0,1,8.5.75l21.83,3.86A2.24,2.24,0,0,1,345,74.72v0a1.25,1.25,0,0,0,1.06,1.17l10.4,1.61h.19a1.25,1.25,0,0,0,1.22-1l.23-1.12a2.24,2.24,0,0,1,1.25-1.58l9.06-4.21L368.47,92l-25.63-2.85a6,6,0,0,0-4.68,1.52l-5,4.52-8,7.56a10.43,10.43,0,0,0-3,9.78l1.61,7.45a1.49,1.49,0,0,0,1.46,1.18h1a3.73,3.73,0,0,1,3.1,1.66l3.94,5.91-20.42,7.5-20.46-7.4,3.91-5.93a3.73,3.73,0,0,1,3.1-1.67h1a1.49,1.49,0,0,0,1.45-1.18l1.57-7.46a10.43,10.43,0,0,0-3.07-9.76l-8-7.52-5-4.5a6,6,0,0,0-4.68-1.5l-25.62,3L257,69.92l9.08,4.17a2.24,2.24,0,0,1,1.26,1.57l.24,1.12a1.25,1.25,0,0,0,1.22,1l.2,0,10.39-1.66a1.25,1.25,0,0,0,1.05-1.17v0a2.24,2.24,0,0,1,1.84-2.09l21.81-4a48.87,48.87,0,0,1,8.75-.79m0-1.8a50.8,50.8,0,0,0-9.07.82l-21.81,4a4,4,0,0,0-3.27,3.36l-9.45,1.51-.13-.61a4.06,4.06,0,0,0-2.27-2.84l-9.08-4.17a1.8,1.8,0,0,0-2.56,1.64l.06,22.32A1.8,1.8,0,0,0,257,94h.21l25.62-3,.48,0a4.15,4.15,0,0,1,2.79,1.07l5,4.5,8,7.5a8.68,8.68,0,0,1,2.54,8.07l-1.52,7.21h-.71a5.52,5.52,0,0,0-4.6,2.49l-3.91,5.93a1.8,1.8,0,0,0,.89,2.69l20.46,7.4a1.8,1.8,0,0,0,1.24,0l20.42-7.5a1.8,1.8,0,0,0,.88-2.69l-3.94-5.91a5.52,5.52,0,0,0-4.6-2.46h-.72l-1.56-7.2a8.68,8.68,0,0,1,2.5-8.09l8-7.56,4.93-4.5a4.15,4.15,0,0,1,2.8-1.09l.46,0,25.63,2.85h.2a1.8,1.8,0,0,0,1.8-1.81l-.06-22.32A1.8,1.8,0,0,0,367.65,68l-9.06,4.21a4.06,4.06,0,0,0-2.25,2.85l-.12.61-9.46-1.46a4,4,0,0,0-3.28-3.34L321.63,67a50.81,50.81,0,0,0-8.81-.77Z"/><path class="cls-2" d="M310.77,95a.89.89,0,0,1-.4-.1L288.78,84.08a.9.9,0,0,1-.5-.8l0-7.53a.9.9,0,0,1,.79-.9l21.55-2.63h.23l26,3.53a.9.9,0,0,1,.78.89V81a.9.9,0,0,1-.49.81L311.18,94.91A.91.91,0,0,1,310.77,95Z"/><path class="cls-3" d="M310.72,73.11l26,3.53V81L310.77,94.1,289.19,83.27l0-7.53,21.55-2.63m0-1.8h-.22L289,74a1.8,1.8,0,0,0-1.59,1.8l0,7.53a1.8,1.8,0,0,0,1,1.61L310,95.71a1.8,1.8,0,0,0,1.62,0L337.5,82.59a1.8,1.8,0,0,0,1-1.61V76.64a1.8,1.8,0,0,0-1.56-1.78l-26-3.53-.24,0Z"/><path class="cls-2" d="M312.84,125.91l-.17,0L302.83,124a.9.9,0,0,1-.63-1.29l1-1.93a.9.9,0,0,1,.8-.5h.14l7.77,1.2,10.48-.64a.9.9,0,0,1,.9.9v2.44a.9.9,0,0,1-.82.9Z"/><path class="cls-3" d="M304,121.17l7.86,1.22,10.53-.64v2.44l-9.54.83L303,123.1l1-1.93m0-1.8a1.8,1.8,0,0,0-1.61,1l-1,1.93a1.8,1.8,0,0,0,1.27,2.58l9.83,1.91a1.8,1.8,0,0,0,.34,0H313l9.54-.83a1.8,1.8,0,0,0,1.65-1.8v-2.44a1.8,1.8,0,0,0-1.8-1.8h-.11l-10.33.63-7.67-1.19-.28,0Z"/><path class="cls-2" d="M350.09,84l-3.17-.44a.9.9,0,0,1-.78-.89V77.23a.9.9,0,0,1,.9-.9h.14l3.48.55a.9.9,0,0,1,.76.94l-.29,5.36a.9.9,0,0,1-.9.85Z"/><path class="cls-3" d="M347,77.23l3.48.55-.29,5.36L347,82.71V77.23m0-1.8a1.8,1.8,0,0,0-1.8,1.81v5.48a1.8,1.8,0,0,0,1.56,1.78l3.17.44.25,0a1.8,1.8,0,0,0,1.8-1.7l.29-5.36A1.8,1.8,0,0,0,350.79,76l-3.48-.55-.28,0Z"/><path class="cls-2" d="M355.22,84.73l-3.08-.33a.9.9,0,0,1-.8-1l.34-5.16a.9.9,0,0,1,.9-.84h.14l3.13.48a.9.9,0,0,1,.76,1l-.38,5a.9.9,0,0,1-.9.83Z"/><path class="cls-3" d="M352.58,78.34l3.13.48-.38,5-3.08-.33.34-5.16m0-1.8a1.8,1.8,0,0,0-1.8,1.69l-.34,5.16A1.8,1.8,0,0,0,352,85.29l3.08.33h.19a1.8,1.8,0,0,0,1.8-1.67l.38-5A1.8,1.8,0,0,0,356,77l-3.13-.48-.27,0Z"/><path class="cls-2" d="M312.71,152.25A75.67,75.67,0,0,1,312.52.9h.2a75.67,75.67,0,0,1,.19,151.34Zm-.14-130.7a55,55,0,0,0,.14,110h.15a55,55,0,0,0-.14-110Z"/><path class="cls-3" d="M312.72,1.8a74.77,74.77,0,0,1,.19,149.54h-.2A74.77,74.77,0,0,1,312.52,1.8h.2m0,130.69h.15a55.92,55.92,0,0,0-.14-111.85h-.15a55.92,55.92,0,0,0,.14,111.85m0-132.5h-.21a76.57,76.57,0,0,0,.19,153.15h.2A76.57,76.57,0,0,0,312.72,0Zm0,130.69a54.12,54.12,0,0,1-.14-108.24h.14a54.12,54.12,0,0,1,.14,108.24Z"/><path class="cls-2" d="M276,84.24a.9.9,0,0,1-.9-.85L274.79,78a.9.9,0,0,1,.75-.94l3.48-.57h.15a.9.9,0,0,1,.9.9v5.48a.9.9,0,0,1-.77.89l-3.17.45Z"/><path class="cls-3" d="M279.17,77.41v5.48l-3.17.45L275.69,78l3.48-.57m0-1.8-.29,0-3.48.57a1.8,1.8,0,0,0-1.51,1.89l.32,5.36a1.8,1.8,0,0,0,1.8,1.7l.25,0,3.17-.45A1.8,1.8,0,0,0,281,82.88V77.4a1.8,1.8,0,0,0-1.8-1.8Z"/><path class="cls-2" d="M270.91,85a.9.9,0,0,1-.9-.83l-.41-5a.9.9,0,0,1,.76-1l3.12-.49h.14a.9.9,0,0,1,.9.84l.37,5.16a.9.9,0,0,1-.8,1l-3.08.35Z"/><path class="cls-3" d="M273.62,78.54,274,83.7l-3.08.35-.41-5,3.12-.49m0-1.8-.28,0-3.12.49a1.8,1.8,0,0,0-1.52,1.93l.41,5a1.8,1.8,0,0,0,1.8,1.66h.2l3.08-.35a1.8,1.8,0,0,0,1.6-1.92l-.37-5.16a1.8,1.8,0,0,0-1.8-1.68Z"/><polyline class="cls-1" points="237.03 112.69 248.94 111.77 251.45 83.9 259.28 83.9 264.44 125.31 258.06 134.17 253.09 142.84 225 142.84 226.59 138.67 214.95 114.86 214.95 97.58 221.94 93.27 228.8 78.7 236.5 77.41 239.42 96 243.28 106.31 249.45 106.07 248.94 111.77"/><polygon class="cls-1" points="255.36 158.39 214.61 158.39 221.11 142.84 261.86 142.84 255.36 158.39"/><polyline class="cls-1" points="211.52 166.16 214.61 158.39 255.36 158.39 252.27 166.16"/><polygon class="cls-1" points="257.8 88.19 252.91 88.19 253.62 81.3 257.1 81.3 257.8 88.19"/><polyline class="cls-1" points="388.43 112.69 376.53 111.77 374.02 83.9 366.19 83.9 361.02 125.31 367.4 134.17 372.37 142.84 400.47 142.84 398.88 138.67 410.52 114.86 410.52 97.58 403.52 93.27 396.66 78.7 388.96 77.41 386.05 96 382.19 106.31 376.02 106.07 376.53 111.77"/><polygon class="cls-1" points="370.11 158.39 410.86 158.39 404.36 142.84 363.61 142.84 370.11 158.39"/><polyline class="cls-1" points="413.95 166.16 410.86 158.39 370.11 158.39 373.19 166.16"/><polygon class="cls-1" points="367.66 88.19 372.55 88.19 371.85 81.3 368.37 81.3 367.66 88.19"/><path class="cls-2" d="M108.31,148.57c-15.57,0-22.28-8.18-22.55-8.53a1,1,0,0,1,0-1.25L94.44,128a1,1,0,0,1,.76-.37h0A1,1,0,0,1,96,128s3.84,4.25,11.74,4.25c6,0,9.15-3.21,9.15-6.37,0-3.83-5.07-4.64-9.32-4.64h-4.34a1,1,0,0,1-1-.77l-1.74-7.37a1,1,0,0,1,.25-.92l9.28-9.8a53.58,53.58,0,0,1,4.19-3.94c-.81,0-1.76.08-2.85.08H97.21a1,1,0,0,1-1-1.19l2.52-13a1,1,0,0,1,1-.81h39.12a1,1,0,0,1,1,1.19L138,94.15a1,1,0,0,1-.27.52l-13.85,13.85c5.5,2.14,10.59,7.82,10.59,16.58C134.47,136.76,125.48,148.57,108.31,148.57Z"/><path class="cls-3" d="M138.85,84.5h0m0,0L137,94l-15,15c5.64,1.47,11.45,7,11.45,16.13,0,10.93-8.59,22.47-25.16,22.47-15.27,0-21.77-8.16-21.77-8.16l8.67-10.76s4,4.6,12.49,4.6c6.33,0,10.15-3.47,10.15-7.37s-4.25-5.64-10.32-5.64h-4.34l-1.74-7.37,9.28-9.8a46.89,46.89,0,0,1,6.59-5.81v-.17a32.57,32.57,0,0,1-6,.43H97.21l2.52-13h39.12m0-2H99.72a2,2,0,0,0-2,1.62l-2.52,13a2,2,0,0,0,2,2.38h14.28c-.69.65-1.43,1.37-2.19,2.17L100,111.49a2,2,0,0,0-.49,1.83l1.74,7.37a2,2,0,0,0,1.95,1.54h4.34c3.11,0,8.32.47,8.32,3.64,0,2.67-2.8,5.37-8.15,5.37-7.39,0-10.85-3.76-11-3.92a2,2,0,0,0-1.5-.67h-.05a2,2,0,0,0-1.51.74L85,138.16a2,2,0,0,0,0,2.5c.29.36,7.29,8.91,23.34,8.91,10.37,0,16.71-4.2,20.21-7.73a24,24,0,0,0,6.95-16.74c0-8.51-4.58-14.27-9.85-16.9l12.82-12.82a2,2,0,0,0,.55-1l1.8-9.35a2,2,0,0,0-1.94-2.48Zm0,4h0Z"/><path class="cls-2" d="M163.57,148.57c-14.25,0-21.47-7.63-21.47-22.69,0-17.45,7.87-43.42,29.54-43.42,14.31,0,21.56,7.57,21.56,22.51C193.2,122.5,185.31,148.57,163.57,148.57Zm7.55-50.23c-7.43,0-11.32,17.48-11.32,26.84,0,7.5,3.23,7.5,4.29,7.5,7.32,0,11.32-17.73,11.32-26.84C175.41,98.34,172.18,98.34,171.12,98.34Z"/><path class="cls-3" d="M171.64,83.46c15.18,0,20.56,8.85,20.56,21.51,0,15.7-7.11,42.59-28.63,42.59-15.18,0-20.47-8.93-20.47-21.69,0-15.79,6.94-42.42,28.54-42.42m-7.55,50.23c8.33,0,12.32-18.39,12.32-27.84,0-5.12-1.47-8.5-5.29-8.5-8.41,0-12.32,18.56-12.32,27.84,0,5.12,1.47,8.5,5.29,8.5m7.55-52.23c-22.41,0-30.54,26.56-30.54,44.42,0,15.5,7.77,23.69,22.47,23.69,10.25,0,18.61-5.7,24.16-16.49A64.33,64.33,0,0,0,194.2,105c0-15.38-7.8-23.51-22.56-23.51Zm-7.55,50.23c-.9,0-3.29,0-3.29-6.5,0-10.41,4.33-25.84,10.32-25.84.9,0,3.29,0,3.29,6.5,0,10.41-4.33,25.84-10.32,25.84Z"/><path class="cls-2" d="M247.37,148.57c-8.87,0-15.31-6-15.31-14.36,0-9,9-17.57,18.52-17.57,8.92,0,15.4,6.18,15.4,14.71C266,140.2,256.93,148.57,247.37,148.57ZM249.54,129a4.74,4.74,0,0,0-4.38,4.38c0,1.68,1.28,2.73,3.34,2.73a4.51,4.51,0,0,0,4.38-4.29C252.87,130.15,251.56,129,249.54,129Zm-52.74,18.48a1,1,0,0,1-.73-1.69l58.47-62a1,1,0,0,1,.73-.31h13.79a1,1,0,0,1,.73,1.69l-58.47,62a1,1,0,0,1-.73.31Zm18.65-33.14c-8.87,0-15.31-6-15.31-14.36,0-9,9-17.57,18.52-17.57,8.92,0,15.4,6.18,15.4,14.71C234.06,106,225,114.39,215.45,114.39Zm2.17-19.52a4.74,4.74,0,0,0-4.38,4.38c0,1.68,1.28,2.73,3.34,2.73A4.51,4.51,0,0,0,221,97.69C221,96,219.64,94.87,217.61,94.87Z"/><path class="cls-3" d="M218.66,83.46c8.5,0,14.4,6,14.4,13.71,0,8.68-8.85,16.22-17.61,16.22-8.5,0-14.31-5.64-14.31-13.36,0-8.59,8.5-16.57,17.52-16.57M216.57,103A5.5,5.5,0,0,0,222,97.69c0-2.17-1.65-3.82-4.34-3.82a5.71,5.71,0,0,0-5.38,5.38c0,2.17,1.65,3.73,4.34,3.73M269.05,84.5l-58.47,62H196.8l58.47-62h13.79m-18.48,33.14c8.5,0,14.4,6,14.4,13.71,0,8.67-8.85,16.22-17.61,16.22-8.5,0-14.31-5.64-14.31-13.36,0-8.59,8.5-16.57,17.52-16.57m-2.08,19.52a5.5,5.5,0,0,0,5.38-5.29c0-2.17-1.65-3.82-4.34-3.82a5.71,5.71,0,0,0-5.38,5.38c0,2.17,1.65,3.73,4.34,3.73m-29.84-55.7c-10.22,0-19.52,8.85-19.52,18.57,0,8.9,6.86,15.36,16.31,15.36A20,20,0,0,0,227,111.56l-31.66,33.59a2,2,0,0,0,1.46,3.37h13.79a2,2,0,0,0,1.46-.63l22.59-24a17.34,17.34,0,0,0-3.58,10.27c0,8.9,6.86,15.36,16.31,15.36,10.26,0,19.61-8.69,19.61-18.22,0-9-7.05-15.71-16.4-15.71a19.83,19.83,0,0,0-12.63,4.78l32.57-34.55a2,2,0,0,0-1.46-3.37H255.26a2,2,0,0,0-1.46.63l-21.3,22.59a16.31,16.31,0,0,0,2.54-8.56c0-9-7.05-15.71-16.4-15.71Zm50.4,5h0ZM216.57,101c-.7,0-2.34-.17-2.34-1.73a3.71,3.71,0,0,1,3.38-3.38c1.46,0,2.34.68,2.34,1.82a3.52,3.52,0,0,1-3.38,3.29Zm31.92,34.18c-.7,0-2.34-.17-2.34-1.73a3.71,3.71,0,0,1,3.38-3.38c1.46,0,2.34.68,2.34,1.82a3.52,3.52,0,0,1-3.38,3.29Z"/><text class="cls-4" transform="translate(10.24 69.16)">ORGANIC SEARCH</text><text class="cls-5" transform="translate(427.8 100.03)">OF OVERAL<tspan class="cls-6" x="101.4" y="0">L</tspan><tspan class="cls-7" x="110.6" y="0"> </tspan><tspan x="115.2" y="0">TRAFFIC</tspan></text><text class="cls-8" transform="translate(2.74 20.96)"><tspan class="cls-9">A</tspan><tspan x="12.85" y="0" xml:space="preserve"> study published by</tspan><tspan x="7.08" y="23">Kissmetrics showed </tspan></text><text class="cls-10" transform="translate(428.44 123.17)">so this is a good <tspan x="0" y="23">benchma</tspan><tspan class="cls-11" x="82.82" y="23">r</tspan><tspan x="89.77" y="23">k </tspan><tspan class="cls-12" x="104.07" y="23">t</tspan><tspan x="110.9" y="23">o </tspan><tspan class="cls-12" x="126.88" y="23">c</tspan><tspan x="136.16" y="23">onside</tspan><tspan class="cls-13" x="194.94" y="23">r</tspan><tspan x="200.69" y="23">.</tspan></text></g></g></svg>