<svg xmlns="http://www.w3.org/2000/svg" viewBox="0 0 471.02 549.5"><defs><style>.cls-1{fill:#2c81b1;}.cls-1,.cls-6{stroke:#fff;stroke-miterlimit:10;}.cls-1,.cls-6,.cls-7,.cls-8,.cls-9{stroke-width:2px;}.cls-2,.cls-4,.cls-7{fill:#fff;}.cls-3{fill:#0080b1;}.cls-4{font-size:24px;font-family:ArialMT, Arial;}.cls-5{letter-spacing:-0.06em;}.cls-6{fill:#bf3019;}.cls-7,.cls-8,.cls-9{stroke:#0080b1;stroke-linejoin:round;}.cls-7,.cls-9{stroke-linecap:round;}.cls-8,.cls-9{fill:none;}</style></defs><title>bad-backlinks</title><g id="Layer_2" data-name="Layer 2"><g id="back"><rect class="cls-1" x="1" y="33.87" width="469.02" height="514.63"/><rect class="cls-1" x="60.02" y="1" width="355" height="65"/></g><g id="texts"><rect class="cls-2" x="131.52" y="208.67" width="212" height="167" rx="1" ry="1"/><path class="cls-3" d="M342.52,209.67v165h-210v-165h210m0-2h-210a2,2,0,0,0-2,2v165a2,2,0,0,0,2,2h210a2,2,0,0,0,2-2v-165a2,2,0,0,0-2-2Z"/><text class="cls-4" transform="translate(44.04 112.1)">come from low-quality sites with low <tspan x="-21.39" y="28.8">relevancy (no relationship to automotive </tspan><tspan x="-4.71" y="57.6">sales or the relationship is not clear).</tspan></text><text class="cls-4" transform="translate(21.3 427.56)"><tspan class="cls-5"> </tspan><tspan x="5.34" y="0">An example would be getting a backlink </tspan><tspan x="27.36" y="28.8">from an entertainment blogger who </tspan><tspan x="14.03" y="57.6">writes low-quality content and doesn’t </tspan><tspan x="64.04" y="86.4">publish anything about cars.</tspan></text><text class="cls-4" transform="translate(161.59 42.16)">BAD BACKLINKS </text><circle class="cls-6" cx="125.05" cy="34.49" r="21.51"/><polygon class="cls-6" points="136.98 27.82 131.72 22.56 125.05 29.23 118.38 22.56 113.12 27.82 119.79 34.49 113.12 41.16 118.38 46.42 125.05 39.75 131.72 46.42 136.98 41.16 130.31 34.49 136.98 27.82"/><line class="cls-7" x1="132.02" y1="229.67" x2="342.02" y2="229.67"/><rect class="cls-2" x="213.52" y="213.75" width="119.5" height="11.84" rx="1" ry="1"/><path class="cls-3" d="M332,214.75v9.84H214.52v-9.84H332m0-2H214.52a2,2,0,0,0-2,2v9.84a2,2,0,0,0,2,2H332a2,2,0,0,0,2-2v-9.84a2,2,0,0,0-2-2Z"/><rect class="cls-2" x="307.52" y="213.75" width="25.5" height="11.84" rx="1" ry="1"/><path class="cls-3" d="M332,214.75v9.84h-23.5v-9.84H332m0-2h-23.5a2,2,0,0,0-2,2v9.84a2,2,0,0,0,2,2H332a2,2,0,0,0,2-2v-9.84a2,2,0,0,0-2-2Z"/><circle class="cls-2" cx="154.52" cy="219.67" r="6"/><path class="cls-3" d="M154.52,214.67a5,5,0,1,1-5,5,5,5,0,0,1,5-5m0-2a7,7,0,1,0,7,7,7,7,0,0,0-7-7Z"/><circle class="cls-2" cx="169.52" cy="219.67" r="6"/><path class="cls-3" d="M169.52,214.67a5,5,0,1,1-5,5,5,5,0,0,1,5-5m0-2a7,7,0,1,0,7,7,7,7,0,0,0-7-7Z"/><circle class="cls-2" cx="184.52" cy="219.67" r="6"/><path class="cls-3" d="M184.52,214.67a5,5,0,1,1-5,5,5,5,0,0,1,5-5m0-2a7,7,0,1,0,7,7,7,7,0,0,0-7-7Z"/><line class="cls-8" x1="220.39" y1="219.67" x2="298.23" y2="219.67"/><path class="cls-2" d="M230,322.87c-15.42,0-21.86-4.59-24.54-8.64h-31a21,21,0,0,1-21-21V266.69a21,21,0,0,1,21-21H225a21,21,0,0,1,21,21v26.54a21,21,0,0,1-21,21h-.29a16.6,16.6,0,0,0,5.86,6.79,1,1,0,0,1-.53,1.85Z"/><path class="cls-3" d="M225,246.69a20,20,0,0,1,20,20v26.54a20,20,0,0,1-20,20h-1.69c1.46,5.37,6.73,8.64,6.73,8.64-15.63,0-21.66-4.73-24-8.64H174.49a20,20,0,0,1-20-20V266.69a20,20,0,0,1,20-20H225m0-2H174.49a22,22,0,0,0-22,22v26.54a22,22,0,0,0,22,22h30.44c3,4.15,9.76,8.64,25.06,8.64a2,2,0,0,0,1.05-3.7,16.48,16.48,0,0,1-4.79-5,22,22,0,0,0,20.7-22V266.69a22,22,0,0,0-22-22Z"/><polygon class="cls-7" points="224.29 303.85 200.16 303.85 193.97 274.81 230.47 274.81 224.29 303.85"/><line class="cls-9" x1="157.44" y1="303.85" x2="242.01" y2="303.85"/><path class="cls-9" d="M187.22,255.1a2.26,2.26,0,0,0-.39-.18l0,0a1.82,1.82,0,0,0-3.13-1.87l0,0a2.25,2.25,0,1,0-2.65,3.6h0a2,2,0,0,0,3.49,2,2.25,2.25,0,1,0,2.66-3.6Zm-2.83.43a2.25,2.25,0,0,0-.26.35v0h0v0a2.25,2.25,0,0,0,.18-.39l0,0Z"/><circle class="cls-7" cx="215.86" cy="251.38" r="1.34"/><circle class="cls-7" cx="224.29" cy="256.95" r="1.07"/><path class="cls-7" d="M231.22,270.26l-.23,0a2.43,2.43,0,0,0-1.45-3.61,3.22,3.22,0,0,0-.76-3.37,1.95,1.95,0,0,0-2.95-2.53,2.77,2.77,0,0,0-.58-.41c0-.06,0-.11,0-.17a2.12,2.12,0,0,0-3.67-1.45,3.61,3.61,0,0,0-1.85-.65c.05-.11.11-.23.15-.34a2.19,2.19,0,1,0-.46-3.38,3.81,3.81,0,0,0-6.65.67,2.64,2.64,0,0,0-5.22-.09,2.93,2.93,0,0,0-4.93,3.16,3,3,0,0,0-2.6,2.46,4.83,4.83,0,0,0-.61-.06l-.19,0a1.67,1.67,0,0,0,.19-.77,1.68,1.68,0,1,0-2.51,1.46,4.84,4.84,0,0,0-2.28,5.13h-.1a2.56,2.56,0,0,0-2.32,3.69,3.62,3.62,0,1,0,4.74,5.3c.08.1.15.2.24.29a2.45,2.45,0,1,0,4.1.91,3.92,3.92,0,0,0,1.45-.9,5.28,5.28,0,0,0,7.72,2.12,3.72,3.72,0,0,0,7.25-1.17v0a2.55,2.55,0,0,0,.72.11,2.56,2.56,0,0,0,2.53-3.06,3.54,3.54,0,0,0,1.34-.52,3,3,0,1,0,4.18,4.11,2.73,2.73,0,0,0,3.09-2,2.75,2.75,0,1,0,1.63-4.95Zm-34.49.38-.16-.16a2.56,2.56,0,0,0,.45-.88,4.82,4.82,0,0,0,.45.24A3.93,3.93,0,0,0,196.73,270.65Zm7.34-6.7v0a3,3,0,0,0,1.14-.76,2.66,2.66,0,0,0,.91.2A5.72,5.72,0,0,0,204.07,263.94Zm6.64-5.83a4.17,4.17,0,0,0-.44,0,4.22,4.22,0,0,0-2.25.66,2.66,2.66,0,0,0-.51-.36,2.92,2.92,0,0,0,.56-1.4,2.64,2.64,0,0,0,2.11,1.06,2.57,2.57,0,0,0,.58-.08C210.74,258,210.72,258.05,210.71,258.11ZM226.3,268.9h.16s0,.08,0,.12,0,.05,0,.08S226.35,269,226.3,268.9Zm-7.44-3.6a2.89,2.89,0,0,0-.16,1.64,3.57,3.57,0,0,0-.82.58,3,3,0,0,0-.33-.31,3.46,3.46,0,0,0,0-2.43A3.65,3.65,0,0,0,218.86,265.3Zm-3.35-5a3.84,3.84,0,0,0,.63.07,3.52,3.52,0,0,0-.05,2.6,3.68,3.68,0,0,0-1.56-.56s0,0,0,0a4.21,4.21,0,0,0-.19-1.2A2.7,2.7,0,0,0,215.5,260.27Zm-3,9.11.22.08s0,0,0,0,0,.17,0,.26l-.27,0C212.44,269.64,212.45,269.51,212.46,269.37Zm3.56,3.07a3,3,0,0,0,.54-.12,2.66,2.66,0,0,0-.47.73A3.35,3.35,0,0,0,216,272.44Zm6.41.55h0l0,0Z"/><path class="cls-9" d="M188.32,303.68s0-5.09-6-3.53c0,0-3.6-2.44-5.95.63,0,0-3.13-.91-3.29,3.07"/><line class="cls-7" x1="200.16" y1="303.85" x2="193.97" y2="274.81"/><line class="cls-7" x1="203.6" y1="303.85" x2="199.19" y2="274.81"/><line class="cls-7" x1="207.05" y1="303.85" x2="204.4" y2="274.81"/><line class="cls-7" x1="210.5" y1="303.85" x2="209.61" y2="274.81"/><line class="cls-7" x1="213.94" y1="303.85" x2="214.83" y2="274.81"/><line class="cls-7" x1="217.39" y1="303.85" x2="220.04" y2="274.81"/><line class="cls-7" x1="220.84" y1="303.85" x2="225.26" y2="274.81"/><line class="cls-7" x1="224.29" y1="303.85" x2="230.47" y2="274.81"/><rect class="cls-7" x="237.02" y="311.84" width="68.52" height="44.42" rx="10" ry="10"/><polygon class="cls-7" points="324.77 350.48 305.54 347 305.54 321.84 324.77 318.36 324.77 350.48"/><path class="cls-7" d="M280.74,336.82l-11.49,8.12a3,3,0,0,1-4.73-2.45V326.25a3,3,0,0,1,4.73-2.45l11.49,8.12A3,3,0,0,1,280.74,336.82Z"/><circle class="cls-7" cx="248.51" cy="306.6" r="16.24"/><circle class="cls-7" cx="248.51" cy="306.6" r="1.55"/><path class="cls-3" d="M253.4,318.21a3,3,0,0,1-1.49-5.61,3,3,0,0,1,4.13,1.08,3,3,0,0,1-1,4.07l-.1.06A3,3,0,0,1,253.4,318.21Zm-9.85,0a2.93,2.93,0,0,1-1.46-.39l-.1-.06a3,3,0,1,1,3-5.19,3,3,0,0,1,1.13,4.12A3,3,0,0,1,243.56,318.18Zm14.85-8.51h-.06a3,3,0,0,1-2.94-3.06,3,3,0,0,1,3-3h0a3,3,0,0,1,3,3v0s0,.11,0,.13A3,3,0,0,1,258.41,309.67Zm-19.79-.1h0a2.94,2.94,0,0,1-3-2.93v0s0-.12,0-.14a3,3,0,0,1,3-3,3,3,0,0,1,3,3A3.06,3.06,0,0,1,238.61,309.57Zm14.91-8.5a3,3,0,0,1-1.51-.41,3,3,0,0,1-1.13-4.12,3,3,0,0,1,4-1.13l.1.06a3,3,0,0,1-1.51,5.59Zm-9.92-.08a3,3,0,0,1-2.62-1.5,3,3,0,0,1,1.08-4.07l.08,0a3,3,0,0,1,3,5.21A3,3,0,0,1,243.61,301Z"/><circle class="cls-7" cx="287.28" cy="301.83" r="18.49"/><circle class="cls-7" cx="287.28" cy="301.83" r="1.77"/><path class="cls-3" d="M292.85,315.05a3.42,3.42,0,0,1-1.7-6.38,3.46,3.46,0,0,1,4.7,1.23,3.37,3.37,0,0,1-1.19,4.63l-.12.07A3.4,3.4,0,0,1,292.85,315.05Zm-11.21,0a3.33,3.33,0,0,1-1.66-.44l-.12-.07a3.42,3.42,0,1,1,3.44-5.9,3.46,3.46,0,0,1,1.29,4.69A3.41,3.41,0,0,1,281.64,315Zm16.91-9.69h-.07a3.42,3.42,0,0,1-3.35-3.48,3.46,3.46,0,0,1,3.42-3.4h0a3.37,3.37,0,0,1,3.38,3.36v0s0,.13,0,.15A3.42,3.42,0,0,1,298.55,305.33ZM276,305.22h0a3.35,3.35,0,0,1-3.39-3.34v0s0-.14,0-.16a3.46,3.46,0,0,1,3.47-3.36,3.42,3.42,0,0,1,3.36,3.47A3.48,3.48,0,0,1,276,305.22Zm17-9.68a3.4,3.4,0,0,1-1.71-.46,3.46,3.46,0,0,1-1.29-4.69,3.37,3.37,0,0,1,4.61-1.29l.12.07a3.42,3.42,0,0,1-1.72,6.37Zm-11.29-.09a3.42,3.42,0,0,1-3-1.7,3.37,3.37,0,0,1,1.22-4.63l.09-.05a3.42,3.42,0,0,1,3.39,5.93A3.47,3.47,0,0,1,281.7,295.45Z"/><line class="cls-9" x1="154.52" y1="332.46" x2="192.48" y2="332.46"/><line class="cls-9" x1="154.52" y1="341.98" x2="220.39" y2="341.98"/><line class="cls-9" x1="154.52" y1="350.48" x2="220.39" y2="350.48"/><line class="cls-9" x1="256.11" y1="261.8" x2="321.98" y2="261.8"/><line class="cls-9" x1="256.11" y1="252.72" x2="321.98" y2="252.72"/><line class="cls-9" x1="256.11" y1="270.3" x2="321.98" y2="270.3"/></g></g></svg>