<svg xmlns="http://www.w3.org/2000/svg" viewBox="0 0 959.03 237.34"><defs><style>.cls-1,.cls-12,.cls-2,.cls-5,.cls-8{fill:#fff;}.cls-1,.cls-11,.cls-19,.cls-20,.cls-4,.cls-5,.cls-6,.cls-8{stroke:#0080b1;}.cls-1,.cls-15,.cls-16,.cls-19,.cls-20,.cls-6{stroke-linecap:round;}.cls-1,.cls-15,.cls-16,.cls-20,.cls-4,.cls-6,.cls-8{stroke-linejoin:round;}.cls-1,.cls-11,.cls-12,.cls-13,.cls-15,.cls-18,.cls-19,.cls-20,.cls-4,.cls-5,.cls-6,.cls-8{stroke-width:2px;}.cls-3,.cls-7,.cls-9{fill:#0080b1;}.cls-11,.cls-13,.cls-14,.cls-15,.cls-16,.cls-17,.cls-18,.cls-19,.cls-20,.cls-4,.cls-6{fill:none;}.cls-11,.cls-12,.cls-13,.cls-14,.cls-17,.cls-18,.cls-19,.cls-5{stroke-miterlimit:10;}.cls-6{stroke-dasharray:3 6;}.cls-7{font-size:20.36px;}.cls-7,.cls-9{font-family:ArialMT, Arial;}.cls-9{font-size:23.5px;}.cls-10{letter-spacing:-0.02em;}.cls-12,.cls-18{stroke:#2c81b1;}.cls-13,.cls-14,.cls-15,.cls-16,.cls-17{stroke:#fff;}.cls-14{stroke-width:1.5px;}.cls-17{stroke-width:1.3px;}</style></defs><title>buy-sale</title><g id="Layer_2" data-name="Layer 2"><g id="graphics"><path class="cls-1" d="M896.15,114.94l-29.56,3.41-.46.05a3,3,0,0,1-3.28-2.4l-28.75-.91.22.43-2.83-4a.84.84,0,0,1,1.3-1.06l3.33,3.57a.79.79,0,0,1,.17.27l.06.16,31.72-3.22h0l26.13-6.75a5.32,5.32,0,0,1,2.66,10.3A5.83,5.83,0,0,1,896.15,114.94Z"/><path class="cls-1" d="M914.62,158.75l-14.84,32.06v-.44l.08,2.06.21,5.36.3,7.47.33,8.39.32,8.1.26,6.62c0,.92.08,1.83.12,2.75a15,15,0,0,1,.08,2.62,1.78,1.78,0,0,1-.69,1.23,2.7,2.7,0,0,1-2,.15,10.71,10.71,0,0,0-5.83,1.12,1.05,1.05,0,0,1-1.41-.49c-.52-1.07,1-1.91,1.72-2.39a15.6,15.6,0,0,1,3.63-1.77l-5.25-40.51v-.44l9.7-32.18a6.65,6.65,0,0,1,13.27-.76A7.19,7.19,0,0,1,914.62,158.75Z"/><path class="cls-1" d="M930.55,157.05c0,7.54-5.55,10.81-12.4,10.81s-12.4-3.26-12.4-10.81c0-6.25-13.52-42.29-8.32-54.46.07-.17.95.22,1.19-.24.66-1.28.25-4.64.25-4.64h3.63s1.08,3.55,1.32,4.05C909.22,113,930.55,150.65,930.55,157.05Z"/><path class="cls-1" d="M892.4,83a8.42,8.42,0,0,1,16.84,0c0,4.65-3.77,13-8.42,13S892.4,87.64,892.4,83Z"/><path class="cls-1" d="M931.38,158.82l8.95,31-.18-.4.88,2,2.29,5.08,3.17,7L950,211.3l3.36,7.47,2.67,5.93c.33.73.65,1.47,1,2.2A11.34,11.34,0,0,1,958,229c.35,1.48-.79,2-2,2.29a9.86,9.86,0,0,0-3.58,1.91c-.72.58-1.82,2.3-2.86,1.36a1.06,1.06,0,0,1-.24-1.25,17.62,17.62,0,0,1,3.86-4.89l-20.24-35.34-.18-.4L919,163.5a6.65,6.65,0,0,1,12-5.67A7.19,7.19,0,0,1,931.38,158.82Z"/></g><g id="texts"><path class="cls-2" d="M421.74,162a6,6,0,0,1-6-6V35.1a1,1,0,0,1,1-1h155.2a6,6,0,0,1,6,6V161a1,1,0,0,1-1,1Z"/><path class="cls-3" d="M571.94,35.1a5,5,0,0,1,5,5V161H421.74a5,5,0,0,1-5-5V35.1h155.2m0-2H416.74a2,2,0,0,0-2,2V156a7,7,0,0,0,7,7h155.2a2,2,0,0,0,2-2V40.1a7,7,0,0,0-7-7Z"/><line class="cls-1" x1="416.36" y1="50.36" x2="576.56" y2="50.36"/><rect class="cls-2" x="478.29" y="37.98" width="91.64" height="9.51" rx="1" ry="1"/><path class="cls-3" d="M568.93,39v7.51H479.29V39h89.64m0-2H479.29a2,2,0,0,0-2,2v7.51a2,2,0,0,0,2,2h89.64a2,2,0,0,0,2-2V39a2,2,0,0,0-2-2Z"/><rect class="cls-2" x="550" y="37.98" width="19.93" height="9.51" rx="1" ry="1"/><path class="cls-3" d="M568.93,39v7.51H551V39h17.93m0-2H551a2,2,0,0,0-2,2v7.51a2,2,0,0,0,2,2h17.93a2,2,0,0,0,2-2V39a2,2,0,0,0-2-2Z"/><circle class="cls-2" cx="433.52" cy="42.73" r="4.81"/><path class="cls-3" d="M433.52,38.92a3.81,3.81,0,1,1-3.81,3.81,3.81,3.81,0,0,1,3.81-3.81m0-2a5.81,5.81,0,1,0,5.81,5.81,5.82,5.82,0,0,0-5.81-5.81Z"/><circle class="cls-2" cx="444.96" cy="42.73" r="4.81"/><path class="cls-3" d="M445,38.92a3.81,3.81,0,1,1-3.81,3.81A3.81,3.81,0,0,1,445,38.92m0-2a5.81,5.81,0,1,0,5.81,5.81A5.82,5.82,0,0,0,445,36.92Z"/><circle class="cls-2" cx="456.41" cy="42.73" r="4.81"/><path class="cls-3" d="M456.41,38.92a3.81,3.81,0,1,1-3.81,3.81,3.81,3.81,0,0,1,3.81-3.81m0-2a5.81,5.81,0,1,0,5.81,5.81,5.82,5.82,0,0,0-5.81-5.81Z"/><line class="cls-4" x1="483.77" y1="42.73" x2="543.16" y2="42.73"/><path class="cls-2" d="M448.78,185.75a6,6,0,0,1-6-6V58.88a1,1,0,0,1,1-1H599a6,6,0,0,1,6,6V184.75a1,1,0,0,1-1,1Z"/><path class="cls-3" d="M599,58.88a5,5,0,0,1,5,5V184.75H448.78a5,5,0,0,1-5-5V58.88H599m0-2H443.78a2,2,0,0,0-2,2V179.75a7,7,0,0,0,7,7H604a2,2,0,0,0,2-2V63.88a7,7,0,0,0-7-7Z"/><line class="cls-1" x1="443.4" y1="74.14" x2="603.6" y2="74.14"/><rect class="cls-2" x="505.33" y="61.75" width="91.64" height="9.51" rx="1" ry="1"/><path class="cls-3" d="M596,62.75v7.51H506.33V62.75H596m0-2H506.33a2,2,0,0,0-2,2v7.51a2,2,0,0,0,2,2H596a2,2,0,0,0,2-2V62.75a2,2,0,0,0-2-2Z"/><rect class="cls-2" x="577.04" y="61.75" width="19.93" height="9.51" rx="1" ry="1"/><path class="cls-3" d="M596,62.75v7.51H578V62.75H596m0-2H578a2,2,0,0,0-2,2v7.51a2,2,0,0,0,2,2H596a2,2,0,0,0,2-2V62.75a2,2,0,0,0-2-2Z"/><circle class="cls-2" cx="460.56" cy="66.51" r="4.81"/><path class="cls-3" d="M460.56,62.69a3.81,3.81,0,1,1-3.81,3.81,3.81,3.81,0,0,1,3.81-3.81m0-2a5.81,5.81,0,1,0,5.81,5.81,5.82,5.82,0,0,0-5.81-5.81Z"/><circle class="cls-2" cx="472" cy="66.51" r="4.81"/><path class="cls-3" d="M472,62.69a3.81,3.81,0,1,1-3.81,3.81A3.81,3.81,0,0,1,472,62.69m0-2a5.81,5.81,0,1,0,5.81,5.81A5.82,5.82,0,0,0,472,60.69Z"/><circle class="cls-2" cx="483.45" cy="66.51" r="4.81"/><path class="cls-3" d="M483.45,62.69a3.81,3.81,0,1,1-3.81,3.81,3.81,3.81,0,0,1,3.81-3.81m0-2a5.81,5.81,0,1,0,5.81,5.81,5.82,5.82,0,0,0-5.81-5.81Z"/><line class="cls-4" x1="510.82" y1="66.51" x2="570.2" y2="66.51"/><path class="cls-2" d="M473.42,209.53a6,6,0,0,1-6-6V82.65a1,1,0,0,1,1-1h155.2a6,6,0,0,1,6,6V203.53a6,6,0,0,1-6,6Z"/><path class="cls-3" d="M623.63,82.65a5,5,0,0,1,5,5V203.53a5,5,0,0,1-5,5H473.42a5,5,0,0,1-5-5V82.65h155.2m0-2H468.42a2,2,0,0,0-2,2V203.53a7,7,0,0,0,7,7h150.2a7,7,0,0,0,7-7V87.65a7,7,0,0,0-7-7Z"/><line class="cls-1" x1="468.04" y1="97.91" x2="628.24" y2="97.91"/><rect class="cls-2" x="529.98" y="85.53" width="91.64" height="9.51" rx="1" ry="1"/><path class="cls-3" d="M620.62,86.53V94H531V86.53h89.64m0-2H531a2,2,0,0,0-2,2V94a2,2,0,0,0,2,2h89.64a2,2,0,0,0,2-2V86.53a2,2,0,0,0-2-2Z"/><rect class="cls-2" x="601.69" y="85.53" width="19.93" height="9.51" rx="1" ry="1"/><path class="cls-3" d="M620.62,86.53V94H602.69V86.53h17.93m0-2H602.69a2,2,0,0,0-2,2V94a2,2,0,0,0,2,2h17.93a2,2,0,0,0,2-2V86.53a2,2,0,0,0-2-2Z"/><circle class="cls-2" cx="485.2" cy="90.28" r="4.81"/><path class="cls-3" d="M485.21,86.47a3.81,3.81,0,1,1-3.81,3.81,3.81,3.81,0,0,1,3.81-3.81m0-2A5.81,5.81,0,1,0,491,90.28a5.82,5.82,0,0,0-5.81-5.81Z"/><circle class="cls-2" cx="496.65" cy="90.28" r="4.81"/><path class="cls-3" d="M496.65,86.47a3.81,3.81,0,1,1-3.81,3.81,3.81,3.81,0,0,1,3.81-3.81m0-2a5.81,5.81,0,1,0,5.81,5.81,5.82,5.82,0,0,0-5.81-5.81Z"/><circle class="cls-2" cx="508.09" cy="90.28" r="4.81"/><path class="cls-3" d="M508.09,86.47a3.81,3.81,0,1,1-3.81,3.81,3.81,3.81,0,0,1,3.81-3.81m0-2a5.81,5.81,0,1,0,5.81,5.81,5.82,5.82,0,0,0-5.81-5.81Z"/><line class="cls-4" x1="535.46" y1="90.28" x2="594.84" y2="90.28"/><path class="cls-2" d="M213.46,162a6,6,0,0,1-6-6V35.1a1,1,0,0,1,1-1h155.2a6,6,0,0,1,6,6V161a1,1,0,0,1-1,1Z"/><path class="cls-3" d="M363.66,35.1a5,5,0,0,1,5,5V161H213.46a5,5,0,0,1-5-5V35.1h155.2m0-2H208.46a2,2,0,0,0-2,2V156a7,7,0,0,0,7,7h155.2a2,2,0,0,0,2-2V40.1a7,7,0,0,0-7-7Z"/><line class="cls-1" x1="208.08" y1="50.36" x2="368.28" y2="50.36"/><rect class="cls-2" x="270.02" y="37.98" width="91.64" height="9.51" rx="1" ry="1"/><path class="cls-3" d="M360.65,39v7.51H271V39h89.64m0-2H271a2,2,0,0,0-2,2v7.51a2,2,0,0,0,2,2h89.64a2,2,0,0,0,2-2V39a2,2,0,0,0-2-2Z"/><rect class="cls-2" x="341.73" y="37.98" width="19.93" height="9.51" rx="1" ry="1"/><path class="cls-3" d="M360.65,39v7.51H342.73V39h17.93m0-2H342.73a2,2,0,0,0-2,2v7.51a2,2,0,0,0,2,2h17.93a2,2,0,0,0,2-2V39a2,2,0,0,0-2-2Z"/><circle class="cls-2" cx="225.24" cy="42.73" r="4.81"/><path class="cls-3" d="M225.24,38.92a3.81,3.81,0,1,1-3.81,3.81,3.81,3.81,0,0,1,3.81-3.81m0-2a5.81,5.81,0,1,0,5.81,5.81,5.82,5.82,0,0,0-5.81-5.81Z"/><circle class="cls-2" cx="236.69" cy="42.73" r="4.81"/><path class="cls-3" d="M236.69,38.92a3.81,3.81,0,1,1-3.81,3.81,3.81,3.81,0,0,1,3.81-3.81m0-2a5.81,5.81,0,1,0,5.81,5.81,5.82,5.82,0,0,0-5.81-5.81Z"/><circle class="cls-2" cx="248.13" cy="42.73" r="4.81"/><path class="cls-3" d="M248.13,38.92a3.81,3.81,0,1,1-3.81,3.81,3.81,3.81,0,0,1,3.81-3.81m0-2a5.81,5.81,0,1,0,5.81,5.81,5.82,5.82,0,0,0-5.81-5.81Z"/><line class="cls-4" x1="275.5" y1="42.73" x2="334.88" y2="42.73"/><path class="cls-2" d="M240.5,185.75a6,6,0,0,1-6-6V58.88a1,1,0,0,1,1-1H390.7a6,6,0,0,1,6,6V184.75a1,1,0,0,1-1,1Z"/><path class="cls-3" d="M390.7,58.88a5,5,0,0,1,5,5V184.75H240.5a5,5,0,0,1-5-5V58.88H390.7m0-2H235.5a2,2,0,0,0-2,2V179.75a7,7,0,0,0,7,7H395.7a2,2,0,0,0,2-2V63.88a7,7,0,0,0-7-7Z"/><line class="cls-1" x1="235.12" y1="74.14" x2="395.32" y2="74.14"/><rect class="cls-2" x="297.06" y="61.75" width="91.64" height="9.51" rx="1" ry="1"/><path class="cls-3" d="M387.69,62.75v7.51H298.06V62.75h89.64m0-2H298.06a2,2,0,0,0-2,2v7.51a2,2,0,0,0,2,2h89.64a2,2,0,0,0,2-2V62.75a2,2,0,0,0-2-2Z"/><rect class="cls-2" x="368.77" y="61.75" width="19.93" height="9.51" rx="1" ry="1"/><path class="cls-3" d="M387.69,62.75v7.51H369.77V62.75h17.93m0-2H369.77a2,2,0,0,0-2,2v7.51a2,2,0,0,0,2,2h17.93a2,2,0,0,0,2-2V62.75a2,2,0,0,0-2-2Z"/><circle class="cls-2" cx="252.28" cy="66.51" r="4.81"/><path class="cls-3" d="M252.28,62.69a3.81,3.81,0,1,1-3.81,3.81,3.81,3.81,0,0,1,3.81-3.81m0-2a5.81,5.81,0,1,0,5.81,5.81,5.82,5.82,0,0,0-5.81-5.81Z"/><circle class="cls-2" cx="263.73" cy="66.51" r="4.81"/><path class="cls-3" d="M263.73,62.69a3.81,3.81,0,1,1-3.81,3.81,3.81,3.81,0,0,1,3.81-3.81m0-2a5.81,5.81,0,1,0,5.81,5.81,5.82,5.82,0,0,0-5.81-5.81Z"/><circle class="cls-2" cx="275.17" cy="66.51" r="4.81"/><path class="cls-3" d="M275.17,62.69a3.81,3.81,0,1,1-3.81,3.81,3.81,3.81,0,0,1,3.81-3.81m0-2A5.81,5.81,0,1,0,281,66.51a5.82,5.82,0,0,0-5.81-5.81Z"/><line class="cls-4" x1="302.54" y1="66.51" x2="361.92" y2="66.51"/><path class="cls-2" d="M265.14,209.53a6,6,0,0,1-6-6V82.65a1,1,0,0,1,1-1h155.2a6,6,0,0,1,6,6V203.53a6,6,0,0,1-6,6Z"/><path class="cls-3" d="M415.35,82.65a5,5,0,0,1,5,5V203.53a5,5,0,0,1-5,5H265.14a5,5,0,0,1-5-5V82.65h155.2m0-2H260.14a2,2,0,0,0-2,2V203.53a7,7,0,0,0,7,7h150.2a7,7,0,0,0,7-7V87.65a7,7,0,0,0-7-7Z"/><line class="cls-1" x1="259.76" y1="97.91" x2="419.97" y2="97.91"/><rect class="cls-2" x="321.7" y="85.53" width="91.64" height="9.51" rx="1" ry="1"/><path class="cls-3" d="M412.34,86.53V94H322.7V86.53h89.64m0-2H322.7a2,2,0,0,0-2,2V94a2,2,0,0,0,2,2h89.64a2,2,0,0,0,2-2V86.53a2,2,0,0,0-2-2Z"/><rect class="cls-2" x="393.41" y="85.53" width="19.93" height="9.51" rx="1" ry="1"/><path class="cls-3" d="M412.34,86.53V94H394.41V86.53h17.93m0-2H394.41a2,2,0,0,0-2,2V94a2,2,0,0,0,2,2h17.93a2,2,0,0,0,2-2V86.53a2,2,0,0,0-2-2Z"/><circle class="cls-2" cx="276.93" cy="90.28" r="4.81"/><path class="cls-3" d="M276.93,86.47a3.81,3.81,0,1,1-3.81,3.81,3.81,3.81,0,0,1,3.81-3.81m0-2a5.81,5.81,0,1,0,5.81,5.81,5.82,5.82,0,0,0-5.81-5.81Z"/><circle class="cls-2" cx="288.37" cy="90.28" r="4.81"/><path class="cls-3" d="M288.37,86.47a3.81,3.81,0,1,1-3.81,3.81,3.81,3.81,0,0,1,3.81-3.81m0-2a5.81,5.81,0,1,0,5.81,5.81,5.82,5.82,0,0,0-5.81-5.81Z"/><circle class="cls-2" cx="299.81" cy="90.28" r="4.81"/><path class="cls-3" d="M299.81,86.47A3.81,3.81,0,1,1,296,90.28a3.81,3.81,0,0,1,3.81-3.81m0-2a5.81,5.81,0,1,0,5.81,5.81,5.82,5.82,0,0,0-5.81-5.81Z"/><line class="cls-4" x1="327.18" y1="90.28" x2="386.57" y2="90.28"/><path class="cls-2" d="M7,162a6,6,0,0,1-6-6V35.1a1,1,0,0,1,1-1H157.2a6,6,0,0,1,6,6V161a1,1,0,0,1-1,1Z"/><path class="cls-3" d="M157.2,35.1a5,5,0,0,1,5,5V161H7a5,5,0,0,1-5-5V35.1H157.2m0-2H2a2,2,0,0,0-2,2V156a7,7,0,0,0,7,7H162.2a2,2,0,0,0,2-2V40.1a7,7,0,0,0-7-7Z"/><line class="cls-1" x1="1.62" y1="50.36" x2="161.82" y2="50.36"/><rect class="cls-2" x="63.56" y="37.98" width="91.64" height="9.51" rx="1" ry="1"/><path class="cls-3" d="M154.19,39v7.51H64.56V39h89.64m0-2H64.56a2,2,0,0,0-2,2v7.51a2,2,0,0,0,2,2h89.64a2,2,0,0,0,2-2V39a2,2,0,0,0-2-2Z"/><rect class="cls-2" x="135.27" y="37.98" width="19.93" height="9.51" rx="1" ry="1"/><path class="cls-3" d="M154.19,39v7.51H136.27V39h17.93m0-2H136.27a2,2,0,0,0-2,2v7.51a2,2,0,0,0,2,2h17.93a2,2,0,0,0,2-2V39a2,2,0,0,0-2-2Z"/><circle class="cls-2" cx="18.78" cy="42.73" r="4.81"/><path class="cls-3" d="M18.78,38.92A3.81,3.81,0,1,1,15,42.73a3.81,3.81,0,0,1,3.81-3.81m0-2a5.81,5.81,0,1,0,5.81,5.81,5.82,5.82,0,0,0-5.81-5.81Z"/><circle class="cls-2" cx="30.23" cy="42.73" r="4.81"/><path class="cls-3" d="M30.23,38.92a3.81,3.81,0,1,1-3.81,3.81,3.81,3.81,0,0,1,3.81-3.81m0-2A5.81,5.81,0,1,0,36,42.73a5.82,5.82,0,0,0-5.81-5.81Z"/><circle class="cls-2" cx="41.67" cy="42.73" r="4.81"/><path class="cls-3" d="M41.67,38.92a3.81,3.81,0,1,1-3.81,3.81,3.81,3.81,0,0,1,3.81-3.81m0-2a5.81,5.81,0,1,0,5.81,5.81,5.82,5.82,0,0,0-5.81-5.81Z"/><line class="cls-4" x1="69.04" y1="42.73" x2="128.42" y2="42.73"/><path class="cls-2" d="M34,185.75a6,6,0,0,1-6-6V58.88a1,1,0,0,1,1-1h155.2a6,6,0,0,1,6,6V184.75a1,1,0,0,1-1,1Z"/><path class="cls-3" d="M184.24,58.88a5,5,0,0,1,5,5V184.75H34a5,5,0,0,1-5-5V58.88h155.2m0-2H29a2,2,0,0,0-2,2V179.75a7,7,0,0,0,7,7h155.2a2,2,0,0,0,2-2V63.88a7,7,0,0,0-7-7Z"/><line class="cls-1" x1="28.66" y1="74.14" x2="188.86" y2="74.14"/><rect class="cls-2" x="90.6" y="61.75" width="91.64" height="9.51" rx="1" ry="1"/><path class="cls-3" d="M181.23,62.75v7.51H91.6V62.75h89.64m0-2H91.6a2,2,0,0,0-2,2v7.51a2,2,0,0,0,2,2h89.64a2,2,0,0,0,2-2V62.75a2,2,0,0,0-2-2Z"/><rect class="cls-2" x="162.31" y="61.75" width="19.93" height="9.51" rx="1" ry="1"/><path class="cls-3" d="M181.23,62.75v7.51H163.31V62.75h17.93m0-2H163.31a2,2,0,0,0-2,2v7.51a2,2,0,0,0,2,2h17.93a2,2,0,0,0,2-2V62.75a2,2,0,0,0-2-2Z"/><circle class="cls-2" cx="45.82" cy="66.51" r="4.81"/><path class="cls-3" d="M45.82,62.69A3.81,3.81,0,1,1,42,66.51a3.81,3.81,0,0,1,3.81-3.81m0-2a5.81,5.81,0,1,0,5.81,5.81,5.82,5.82,0,0,0-5.81-5.81Z"/><circle class="cls-2" cx="57.27" cy="66.51" r="4.81"/><path class="cls-3" d="M57.27,62.69a3.81,3.81,0,1,1-3.81,3.81,3.81,3.81,0,0,1,3.81-3.81m0-2a5.81,5.81,0,1,0,5.81,5.81,5.82,5.82,0,0,0-5.81-5.81Z"/><circle class="cls-2" cx="68.71" cy="66.51" r="4.81"/><path class="cls-3" d="M68.71,62.69a3.81,3.81,0,1,1-3.81,3.81,3.81,3.81,0,0,1,3.81-3.81m0-2a5.81,5.81,0,1,0,5.81,5.81,5.82,5.82,0,0,0-5.81-5.81Z"/><line class="cls-4" x1="96.08" y1="66.51" x2="155.46" y2="66.51"/><path class="cls-2" d="M58.68,209.53a6,6,0,0,1-6-6V82.65a1,1,0,0,1,1-1h155.2a6,6,0,0,1,6,6V203.53a6,6,0,0,1-6,6Z"/><path class="cls-3" d="M208.89,82.65a5,5,0,0,1,5,5V203.53a5,5,0,0,1-5,5H58.68a5,5,0,0,1-5-5V82.65h155.2m0-2H53.68a2,2,0,0,0-2,2V203.53a7,7,0,0,0,7,7h150.2a7,7,0,0,0,7-7V87.65a7,7,0,0,0-7-7Z"/><line class="cls-1" x1="53.3" y1="97.91" x2="213.51" y2="97.91"/><rect class="cls-2" x="115.24" y="85.53" width="91.64" height="9.51" rx="1" ry="1"/><path class="cls-3" d="M205.88,86.53V94H116.24V86.53h89.64m0-2H116.24a2,2,0,0,0-2,2V94a2,2,0,0,0,2,2h89.64a2,2,0,0,0,2-2V86.53a2,2,0,0,0-2-2Z"/><rect class="cls-2" x="186.95" y="85.53" width="19.93" height="9.51" rx="1" ry="1"/><path class="cls-3" d="M205.88,86.53V94H188V86.53h17.93m0-2H188a2,2,0,0,0-2,2V94a2,2,0,0,0,2,2h17.93a2,2,0,0,0,2-2V86.53a2,2,0,0,0-2-2Z"/><circle class="cls-2" cx="70.47" cy="90.28" r="4.81"/><path class="cls-3" d="M70.47,86.47a3.81,3.81,0,1,1-3.81,3.81,3.81,3.81,0,0,1,3.81-3.81m0-2a5.81,5.81,0,1,0,5.81,5.81,5.82,5.82,0,0,0-5.81-5.81Z"/><circle class="cls-2" cx="81.91" cy="90.28" r="4.81"/><path class="cls-3" d="M81.91,86.47a3.81,3.81,0,1,1-3.81,3.81,3.81,3.81,0,0,1,3.81-3.81m0-2a5.81,5.81,0,1,0,5.81,5.81,5.82,5.82,0,0,0-5.81-5.81Z"/><circle class="cls-2" cx="93.35" cy="90.28" r="4.81"/><path class="cls-3" d="M93.35,86.47a3.81,3.81,0,1,1-3.81,3.81,3.81,3.81,0,0,1,3.81-3.81m0-2a5.81,5.81,0,1,0,5.81,5.81,5.82,5.82,0,0,0-5.81-5.81Z"/><line class="cls-4" x1="120.72" y1="90.28" x2="180.11" y2="90.28"/><path class="cls-5" d="M180.63,136s-1-7.33-6.28-7.33H128.29c-2,0-3.51,0-6.34,3.62-3.88,5-8.88,10.8-8.88,10.8s-19.6,2.62-25.31,5.19c-3.92,1.76-4.63,7.72-4.63,12.24,0,6.57,4.69,6.92,4.69,6.92H177c2,0,6.28-.54,6.28-4.66S180.63,136,180.63,136Z"/><path class="cls-5" d="M183.3,162.68c0,4.12-4.32,4.77-6.28,4.77H87.81s-4.64-1-4.69-7H183.19C183.26,161.45,183.3,162.2,183.3,162.68Z"/><path class="cls-5" d="M113.07,143l9-11.51h29.78c.42,0,.05.62.05,1v9.9c0,.42,0,.69-.41.69Z"/><path class="cls-5" d="M156.4,131.45h16.81a3.68,3.68,0,0,1,3.7,3.77l.7,7.06c0,.42-.23,1.17-.65,1.17H156.4c-.42,0-1.45-.64-1.45-1.06v-9.9C154.95,132.07,156,131.45,156.4,131.45Z"/><rect class="cls-5" x="145.95" y="146.45" width="7" height="2" rx="0.9" ry="0.9"/><path class="cls-5" d="M179.95,153c0,2.13,1.92,4.46,4.12,4.46h.64a4.69,4.69,0,0,0,4.24-4.46v-10.4c0-2.13-2-3.14-4.24-3.14h-.64c-2.2,0-4.12,1-4.12,3.14Z"/><path class="cls-5" d="M175.11,167.45a13.51,13.51,0,1,0-27,0Z"/><path class="cls-5" d="M119.54,167.45a13.51,13.51,0,0,0-27,0Z"/><circle class="cls-5" cx="161.6" cy="167.51" r="10.09"/><circle class="cls-5" cx="161.6" cy="167.51" r="7.7"/><circle class="cls-5" cx="161.6" cy="167.51" r="2.66"/><circle class="cls-5" cx="106.03" cy="167.51" r="10.09"/><circle class="cls-5" cx="106.03" cy="167.51" r="7.7"/><circle class="cls-5" cx="106.03" cy="167.51" r="2.66"/><path class="cls-5" d="M85.78,150.45c1.61,0,2.16,1.88,2.16,3.8v.29c0,1.92-.55,3.91-2.16,3.91h-2.6c.15-2,.65-6,1.91-8Z"/><rect class="cls-5" x="123.95" y="130.45" width="2" height="14"/><rect class="cls-5" x="125.95" y="140.45" width="7" height="4" rx="0.57" ry="0.57"/><line class="cls-6" x1="871.68" y1="22.05" x2="869.16" y2="1"/><line class="cls-6" x1="898.54" y1="38.54" x2="919.62" y2="36.02"/><line class="cls-6" x1="887.02" y1="26.89" x2="899.39" y2="11.18"/><line class="cls-6" x1="863.22" y1="27.68" x2="851.42" y2="18.41"/><line class="cls-6" x1="908.82" y1="58.51" x2="897.02" y2="49.24"/><rect class="cls-2" x="669.45" y="38.45" width="212" height="167" rx="6" ry="6"/><path class="cls-3" d="M875.45,39.45a5,5,0,0,1,5,5v155a5,5,0,0,1-5,5h-200a5,5,0,0,1-5-5v-155a5,5,0,0,1,5-5h200m0-2h-200a7,7,0,0,0-7,7v155a7,7,0,0,0,7,7h200a7,7,0,0,0,7-7v-155a7,7,0,0,0-7-7Z"/><path class="cls-1" d="M912.14,112.23,894,135.78l-.28.36a3,3,0,0,1-4,.67L865.48,121l.46.14-4.83-.76a.84.84,0,0,1,.15-1.67l4.88.11a.79.79,0,0,1,.31.07l.15.07,23.3,10.85h0l13.4-23.43a5.32,5.32,0,0,1,9.23,5.28A5.83,5.83,0,0,1,912.14,112.23Z"/><line class="cls-1" x1="669.95" y1="59.45" x2="879.95" y2="59.45"/><rect class="cls-2" x="751.45" y="43.53" width="119.5" height="11.84" rx="1" ry="1"/><path class="cls-3" d="M869.95,44.53v9.84H752.45V44.53h117.5m0-2H752.45a2,2,0,0,0-2,2v9.84a2,2,0,0,0,2,2h117.5a2,2,0,0,0,2-2V44.53a2,2,0,0,0-2-2Z"/><rect class="cls-2" x="845.45" y="43.53" width="25.5" height="11.84" rx="1" ry="1"/><path class="cls-3" d="M869.95,44.53v9.84h-23.5V44.53h23.5m0-2h-23.5a2,2,0,0,0-2,2v9.84a2,2,0,0,0,2,2h23.5a2,2,0,0,0,2-2V44.53a2,2,0,0,0-2-2Z"/><circle class="cls-2" cx="692.45" cy="49.45" r="6"/><path class="cls-3" d="M692.45,44.45a5,5,0,1,1-5,5,5,5,0,0,1,5-5m0-2a7,7,0,1,0,7,7,7,7,0,0,0-7-7Z"/><circle class="cls-2" cx="707.45" cy="49.45" r="6"/><path class="cls-3" d="M707.45,44.45a5,5,0,1,1-5,5,5,5,0,0,1,5-5m0-2a7,7,0,1,0,7,7,7,7,0,0,0-7-7Z"/><circle class="cls-2" cx="722.45" cy="49.45" r="6"/><path class="cls-3" d="M722.45,44.45a5,5,0,1,1-5,5,5,5,0,0,1,5-5m0-2a7,7,0,1,0,7,7,7,7,0,0,0-7-7Z"/><rect class="cls-2" x="686.95" y="65.95" width="38.5" height="22" rx="1" ry="1"/><path class="cls-3" d="M724.45,66.95v20h-36.5v-20h36.5m0-2h-36.5a2,2,0,0,0-2,2v20a2,2,0,0,0,2,2h36.5a2,2,0,0,0,2-2v-20a2,2,0,0,0-2-2Z"/><rect class="cls-2" x="806.95" y="70.95" width="12" height="12" rx="1" ry="1"/><path class="cls-3" d="M817.95,71.95v10h-10v-10h10m0-2h-10a2,2,0,0,0-2,2v10a2,2,0,0,0,2,2h10a2,2,0,0,0,2-2v-10a2,2,0,0,0-2-2Z"/><rect class="cls-2" x="686.95" y="135.95" width="39.4" height="14.5" rx="1" ry="1"/><path class="cls-3" d="M725.34,136.95v12.5h-37.4v-12.5h37.4m0-2h-37.4a2,2,0,0,0-2,2v12.5a2,2,0,0,0,2,2h37.4a2,2,0,0,0,2-2v-12.5a2,2,0,0,0-2-2Z"/><rect class="cls-2" x="724.45" y="135.95" width="42" height="14.5" rx="1" ry="1"/><path class="cls-3" d="M765.45,136.95v12.5h-40v-12.5h40m0-2h-40a2,2,0,0,0-2,2v12.5a2,2,0,0,0,2,2h40a2,2,0,0,0,2-2v-12.5a2,2,0,0,0-2-2Z"/><rect class="cls-2" x="764.45" y="135.95" width="34.5" height="14.5" rx="1" ry="1"/><path class="cls-3" d="M797.95,136.95v12.5h-32.5v-12.5h32.5m0-2h-32.5a2,2,0,0,0-2,2v12.5a2,2,0,0,0,2,2h32.5a2,2,0,0,0,2-2v-12.5a2,2,0,0,0-2-2Z"/><line class="cls-1" x1="687.95" y1="161.95" x2="727.77" y2="161.95"/><line class="cls-1" x1="825.45" y1="74.45" x2="847.95" y2="74.45"/><line class="cls-1" x1="825.45" y1="81.95" x2="865.27" y2="81.95"/><line class="cls-1" x1="687.95" y1="169.45" x2="797.95" y2="169.45"/><line class="cls-1" x1="687.95" y1="176.95" x2="797.95" y2="176.95"/><line class="cls-1" x1="687.95" y1="184.45" x2="797.95" y2="184.45"/><rect class="cls-2" x="809.45" y="135.95" width="59.5" height="62" rx="1" ry="1"/><path class="cls-3" d="M867.95,136.95v60h-57.5v-60h57.5m0-2h-57.5a2,2,0,0,0-2,2v60a2,2,0,0,0,2,2h57.5a2,2,0,0,0,2-2v-60a2,2,0,0,0-2-2Z"/><path class="cls-3" d="M867.95,94.45v32.5h-180V94.45h180m0-2h-180a2,2,0,0,0-2,2v32.5a2,2,0,0,0,2,2h180a2,2,0,0,0,2-2V94.45a2,2,0,0,0-2-2Z"/><line class="cls-1" x1="867.95" y1="118.95" x2="687.95" y2="118.95"/><path class="cls-2" d="M702,117.72a1,1,0,0,1-.26,0,2.47,2.47,0,0,1-1.83-2.28v-.17a2.5,2.5,0,0,1,1.58-2.42,1,1,0,0,1,1.38.92c0,1,.06,2,.14,2.89a1,1,0,0,1-1,1.1Z"/><path class="cls-3" d="M701.89,113.74c0,1,.05,2,.15,3a1.48,1.48,0,0,1-1.09-1.36v-.17a1.5,1.5,0,0,1,1-1.45m0-2a2,2,0,0,0-.75.15,3.5,3.5,0,0,0-2.2,3.39v.17a3.47,3.47,0,0,0,2.57,3.2,2,2,0,0,0,2.51-2.12c-.08-.85-.13-1.82-.14-2.8a2,2,0,0,0-2-2Z"/><path class="cls-2" d="M702.37,120.45a1,1,0,0,1-1-.76c-.47-2-1.39-6.78.38-8.09,13.53-10.06,23.37-12.17,29.24-12.17a21.54,21.54,0,0,1,4.31.42l.16,0c4.26.8,10.73,6.12,12.18,7.35,13.78.06,16.51,3.52,17.14,6.66a.92.92,0,0,1,.14.48v5.12a1,1,0,0,1-1,1Z"/><path class="cls-3" d="M731,100.43a20.78,20.78,0,0,1,4.29.43c4.5.84,12,7.41,12,7.41,14.79,0,16.22,4.18,16.58,6.18h.06v5H702.37s-1.42-6,0-7.05c13.75-10.23,23.39-12,28.64-12m0-2h0c-6,0-16.08,2.15-29.83,12.38-1.65,1.22-1.9,4.28-.75,9.12a2,2,0,0,0,1.95,1.53h61.57a2,2,0,0,0,2-2v-5.12a2,2,0,0,0-.2-.87c-1.14-4.91-6.66-7.16-17.71-7.26-2-1.66-8.07-6.53-12.36-7.33l-.16,0a22.52,22.52,0,0,0-4.5-.44Z"/><path class="cls-2" d="M701.73,120.45c-.73,0-1.78-.65-1.78-1.53v-.81a1.94,1.94,0,0,1,1.78-1.66h62.1c.84,0,1.12.88,1.12,1.66v.81c0,.86-.34,1.53-1.12,1.53Z"/><path class="cls-3" d="M763.83,117.45c.21,0,.11.36.11.66v.81c0,.3.09.53-.11.53h-62.1c-.21,0-.78-.23-.78-.53v-.81c0-.3.58-.66.78-.66h62.22m-.11-2h-62.1a2.93,2.93,0,0,0-2.78,2.66v.81a2.8,2.8,0,0,0,2.78,2.53h62.1c1.32,0,2.11-1.12,2.11-2.53v-.81c0-1.45-.79-2.66-2.11-2.66Z"/><path class="cls-2" d="M715,107.45a77.92,77.92,0,0,1,7.15-3.14,31.68,31.68,0,0,1,9.63-1.59h.64a13.63,13.63,0,0,1,7.62,2.82,8.65,8.65,0,0,1,2.34,1.91Z"/><path class="cls-3" d="M731.75,103.7h.62a12.51,12.51,0,0,1,7.06,2.64s.07.1.1.1H719.3c1,0,2.08-.85,3.13-1.19a30.7,30.7,0,0,1,9.32-1.56m0-2a32.69,32.69,0,0,0-9.93,1.62,40.17,40.17,0,0,0-7.49,3.28c-.71.4-1.41.85-2.09,1.31-.14.09-.56.53-.73.53h33.29c-1.28-1-2.68-2.65-4.21-3.73a14.58,14.58,0,0,0-8.17-3l-.67,0Z"/><rect class="cls-2" x="727.95" y="103.45" height="4"/><polygon class="cls-3" points="728.95 102.45 726.95 102.45 726.95 108.45 728.95 108.45 728.95 102.45 728.95 102.45"/><circle class="cls-2" cx="752.5" cy="119.81" r="5.44"/><path class="cls-3" d="M752.51,115.38a4.44,4.44,0,1,1-4.44,4.44,4.43,4.43,0,0,1,4.44-4.44m0-2a6.44,6.44,0,1,0,6.43,6.44,6.44,6.44,0,0,0-6.43-6.44Z"/><circle class="cls-2" cx="711.94" cy="119.81" r="5.44"/><path class="cls-3" d="M711.94,115.38a4.44,4.44,0,1,1-4.44,4.44,4.43,4.43,0,0,1,4.44-4.44m0-2a6.44,6.44,0,1,0,6.43,6.44,6.44,6.44,0,0,0-6.43-6.44Z"/><rect class="cls-2" x="728.95" y="109.45" width="5" height="2" rx="0.77" ry="0.77"/><path class="cls-3" d="M733.91,109.45H730a1.49,1.49,0,0,0-1.1,1.13V111c0,.42.67.41,1.1.41h3.87c.42,0,1,0,1-.41v-.46c0-.42-.61-1.13-1-1.13Z"/><path class="cls-2" d="M763.82,117.21a2.08,2.08,0,0,1-1.49-.69l-.08-.09c-1.52-1.19-2-3-1.09-4.18a2.3,2.3,0,0,1,1.62-.84h.1a1,1,0,0,1,.78.38,5.29,5.29,0,0,1,1.3,3v1.45a1,1,0,0,1-1,1Z"/><path class="cls-3" d="M762.87,112.41a4.29,4.29,0,0,1,1.08,2.36v1.45c-1-.11-.74-.3-1.09-.57-1.06-.83-1.47-2.07-.92-2.78a1.3,1.3,0,0,1,.93-.46m0-2h-.19a3.29,3.29,0,0,0-2.31,1.22c-1.24,1.59-.71,4,1.22,5.56a3.1,3.1,0,0,0,2.11,1l.26,0a2,2,0,0,0,2-2v-1.45a6.23,6.23,0,0,0-1.51-3.6,2,2,0,0,0-1.57-.76Z"/><text class="cls-7" transform="translate(815.45 161.95)">SALE</text><line class="cls-8" x1="686.31" y1="102.69" x2="701.63" y2="102.69"/><line class="cls-8" x1="686.31" y1="108.01" x2="695.01" y2="108.01"/><line class="cls-8" x1="686.31" y1="113.78" x2="692.57" y2="113.78"/><path class="cls-2" d="M831.26,190.45c-2.83,0-4.86-2.28-6.21-7-.1-.34-.18-.66-.26-1a17.38,17.38,0,0,1-.38-2.08,9.73,9.73,0,0,1,0-2.49,5.68,5.68,0,0,1,.56-1.81c1.39-2.66,4.52-2.86,7-3a13,13,0,0,0,2.53-.31,2.45,2.45,0,0,1,.69-.1c2.94,0,5.07,5.26,5.58,8.82.47,3.24-.26,5.38-2,5.89a12.81,12.81,0,0,0-2.31,1.13c-1.59.9-3.39,1.92-5.25,1.92Z"/><path class="cls-3" d="M835.23,173.69c3.37,0,6.68,11.76,3.31,12.75-2,.58-4.71,3-7.28,3-2,0-3.86-1.44-5.25-6.25-.09-.32-.18-.64-.25-.94a16.29,16.29,0,0,1-.36-2,8.68,8.68,0,0,1,0-2.23,4.67,4.67,0,0,1,.46-1.5c1.61-3.1,6.5-2.1,9-2.82a1.45,1.45,0,0,1,.41-.06m-5.68,12.17a.43.43,0,0,0,.23-.07l.75-.46a.72.72,0,0,0,.3-.76l-1.35-4.69a.72.72,0,0,0-.65-.49h-.88a.37.37,0,0,0-.37.5l1.63,5.68a.37.37,0,0,0,.35.29m5.68-14.17a3.45,3.45,0,0,0-1,.14,12.53,12.53,0,0,1-2.31.27c-2.62.16-6.21.39-7.86,3.55a6.69,6.69,0,0,0-.67,2.13,10.72,10.72,0,0,0,0,2.75,18.36,18.36,0,0,0,.4,2.2c.08.33.17.67.27,1,.55,1.91,2.21,7.7,7.17,7.7,2.13,0,4-1.09,5.75-2a12.39,12.39,0,0,1,2.1-1c1.07-.31,3.47-1.62,2.7-7-.54-3.74-2.8-9.68-6.57-9.68Z"/><path class="cls-2" d="M840.64,182.36a1,1,0,0,1-1-.72l-1.28-4.4a1,1,0,0,1,.66-1.23l7.06-2.18a1,1,0,0,1,.59,0l.75.23,1-.73a1,1,0,0,1,.61-.21,1,1,0,0,1,.26,0l1.1.3,1.84-1.15a1,1,0,0,1,.91-.08l2.3.94a1,1,0,0,1,.59.67l.38,1.42a1,1,0,0,1-.15.84l-1.39,2a1,1,0,0,1-.82.42l-2.21,0-.75.86a1,1,0,0,1-.75.34l-1.31-.08-.32.5a1,1,0,0,1-.6.43l-7.23,1.83A1,1,0,0,1,840.64,182.36Z"/><path class="cls-3" d="M852.76,173.14l2.3.94.38,1.43-1.39,2-2.66-.06-1.06,1.21-1.84-.12-.64,1-7.23,1.83-1.28-4.4,7.06-2.18,1.25.38,1.36-1.05,1.52.41,2.22-1.38m0-2a2,2,0,0,0-1.06.3l-1.47.92-.68-.18a2,2,0,0,0-1.75.35l-.54.42-.26-.08a2,2,0,0,0-1.18,0l-7.06,2.18a2,2,0,0,0-1.33,2.47l1.28,4.4a2,2,0,0,0,2.41,1.38l7.23-1.83a2,2,0,0,0,1.2-.87h0l.66,0h.13a2,2,0,0,0,1.51-.69l.44-.51,1.72,0h0a2,2,0,0,0,1.64-.85l1.39-2a2,2,0,0,0,.29-1.67l-.38-1.43a2,2,0,0,0-1.18-1.33l-2.3-.94a2,2,0,0,0-.75-.15Z"/><line class="cls-4" x1="758.32" y1="49.45" x2="836.17" y2="49.45"/><rect class="cls-2" x="793.95" y="97.95" width="67" height="27" rx="7" ry="7"/><path class="cls-3" d="M853.95,98.95a6,6,0,0,1,6,6v13a6,6,0,0,1-6,6h-53a6,6,0,0,1-6-6v-13a6,6,0,0,1,6-6h53m0-2h-53a8,8,0,0,0-8,8v13a8,8,0,0,0,8,8h53a8,8,0,0,0,8-8v-13a8,8,0,0,0-8-8Z"/><text class="cls-9" transform="translate(803.62 119.89)">BU<tspan class="cls-10" x="32.64" y="0">Y</tspan></text><line class="cls-11" x1="99.7" y1="186.99" x2="163.31" y2="186.99"/><line class="cls-11" x1="118.35" y1="112.02" x2="194.52" y2="112.02"/><path class="cls-12" d="M199.71,145.14V156a1,1,0,0,0,1.72.69l4.9-5.14a1,1,0,0,0,0-1.34l-4.9-5.68A1,1,0,0,0,199.71,145.14Z"/><path class="cls-12" d="M69.81,155.76V144.95a1,1,0,0,0-1.72-.69l-4.9,5.14a1,1,0,0,0,0,1.34l4.9,5.68A1,1,0,0,0,69.81,155.76Z"/><rect class="cls-11" x="64.9" y="106.03" width="44.48" height="10.71"/><line class="cls-11" x1="72.35" y1="196.48" x2="195.23" y2="196.48"/><path class="cls-2" d="M313.42,182.09a4.11,4.11,0,0,0-2.71-2.08,11.69,11.69,0,0,1-4.49-1.58c-2.67-1.73-4-5.32-10.91-5.32h-3.93c-5.58,0-8.14,5.15-8.84,8.38a16.71,16.71,0,0,0,0,3.86c.05.61.36,1.3,1,1.3H285a4.2,4.2,0,0,1,8.4,0h9.3a4.2,4.2,0,0,1,8.4,0h1.61a1.18,1.18,0,0,0,1.26-1.3A9.38,9.38,0,0,0,313.42,182.09Z"/><circle class="cls-2" cx="289.18" cy="186.83" r="2.37"/><circle class="cls-2" cx="307.02" cy="186.83" r="2.37"/><path class="cls-2" d="M282,182.37c-.31.11-1,.4-1,.74v.09c0,.35.46.64.77.74C281.74,183.43,282,182.88,282,182.37Z"/><path class="cls-2" d="M312.1,181.12a.81.81,0,0,0-.32,1.1l.32.58a.81.81,0,0,0,1.1.32l.08,0a.8.8,0,0,0,.35-.39,3.16,3.16,0,0,0-.22-.59,4,4,0,0,0-.87-1.12.8.8,0,0,0-.36.1Z"/><rect class="cls-2" x="292.27" y="175.36" width="3.76" height="3.01"/><path class="cls-2" d="M290,175.36v3h-2.72C285.95,178.37,287.76,175.46,290,175.36Z"/><path class="cls-2" d="M302.75,178.21c-1.73-2.59-5.21-2.85-5.21-2.85v3H303S302.75,178.21,302.75,178.21Z"/><line class="cls-2" x1="296.79" y1="180.63" x2="299.05" y2="180.63"/><line class="cls-2" x1="291.52" y1="180.63" x2="293.78" y2="180.63"/><path class="cls-2" d="M323.29,183a.85.85,0,0,0-.54.81v.1a.83.83,0,0,0,.62.77C323.32,184.11,323.29,183.52,323.29,183Z"/><path class="cls-2" d="M358.19,183.33c-.21-1.28-1-3.45-9.34-3.45,0,0-4.22-3.67-6.75-4.15-1.2-.22-7.52-1.85-18.54,6.34-.8.6,0,3.82,0,3.82h2.18a3.19,3.19,0,0,1,6.37,0h16.46a3.19,3.19,0,0,1,6.37,0h2.51c.42,0,.77-.19.76-.61Z"/><path class="cls-2" d="M323.2,185.14c-.12,0-.08.13-.08.3v.45c0,.17,0,0,.08,0h2.54s0-.75.14-.75Z"/><path class="cls-2" d="M358.16,185.14h-3.35c.09,0,.14.75.14.75h3.21c.12,0,.33.17.33,0v-.45C358.49,185.27,358.28,185.14,358.16,185.14Z"/><path class="cls-2" d="M332,185.14c.09,0,.14.75.14.75h16.46s0-.75.14-.75Z"/><path class="cls-2" d="M337,177.49a20.14,20.14,0,0,0-7.54,2.76H337Z"/><path class="cls-2" d="M338.55,180.25h8c-3.2-3-5.85-3.11-5.85-3.11a18.39,18.39,0,0,0-2.16.22Z"/><circle class="cls-2" cx="351.71" cy="186.57" r="1.92"/><circle class="cls-2" cx="328.95" cy="186.57" r="1.92"/><path class="cls-2" d="M357.09,182.49c.12-.15.06-.24.28-.26a1.91,1.91,0,0,1,.36,1.33h0v.82c-.75-.06-.17-.17-.37-.32A1.11,1.11,0,0,1,357.09,182.49Z"/><line class="cls-2" x1="338.92" y1="181.76" x2="341.93" y2="181.76"/><path class="cls-2" d="M368.24,183a.85.85,0,0,0-.54.81v.1a.83.83,0,0,0,.62.77C368.27,184.11,368.25,183.52,368.24,183Z"/><path class="cls-2" d="M403.14,183.33c-.21-1.28-1-3.45-9.34-3.45,0,0-4.22-3.67-6.75-4.15-1.2-.22-7.52-1.85-18.54,6.34-.8.6,0,3.82,0,3.82h2.18a3.19,3.19,0,0,1,6.37,0h16.46a3.19,3.19,0,0,1,6.37,0h2.51c.42,0,.77-.19.76-.61Z"/><path class="cls-2" d="M368.15,185.14c-.12,0-.08.13-.08.3v.45c0,.17,0,0,.08,0h2.54s0-.75.14-.75Z"/><path class="cls-2" d="M403.11,185.14h-3.35c.09,0,.14.75.14.75h3.21c.12,0,.33.17.33,0v-.45C403.44,185.27,403.23,185.14,403.11,185.14Z"/><path class="cls-2" d="M376.92,185.14c.09,0,.14.75.14.75h16.46s0-.75.14-.75Z"/><path class="cls-2" d="M382,177.49a20.14,20.14,0,0,0-7.54,2.76H382Z"/><path class="cls-2" d="M383.5,180.25h8c-3.2-3-5.85-3.11-5.85-3.11a18.39,18.39,0,0,0-2.16.22Z"/><circle class="cls-2" cx="396.67" cy="186.57" r="1.92"/><circle class="cls-2" cx="373.91" cy="186.57" r="1.92"/><path class="cls-2" d="M402,182.49c.12-.15.06-.24.28-.26a1.91,1.91,0,0,1,.36,1.33h0v.82c-.75-.06-.17-.17-.37-.32A1.11,1.11,0,0,1,402,182.49Z"/><line class="cls-2" x1="383.88" y1="181.76" x2="386.89" y2="181.76"/><path class="cls-13" d="M313.42,182.09a4.11,4.11,0,0,0-2.71-2.08,11.69,11.69,0,0,1-4.49-1.58c-2.67-1.73-4-5.32-10.91-5.32h-3.93c-5.58,0-8.14,5.15-8.84,8.38a16.71,16.71,0,0,0,0,3.86c.05.61.36,1.3,1,1.3H285a4.2,4.2,0,0,1,8.4,0h9.3a4.2,4.2,0,0,1,8.4,0h1.61a1.18,1.18,0,0,0,1.26-1.3A9.38,9.38,0,0,0,313.42,182.09Z"/><circle class="cls-14" cx="289.18" cy="186.83" r="2.37"/><circle class="cls-14" cx="307.02" cy="186.83" r="2.37"/><path class="cls-13" d="M282,182.37c-.31.11-1,.4-1,.74v.09c0,.35.46.64.77.74C281.74,183.43,282,182.88,282,182.37Z"/><path class="cls-14" d="M312.1,181.12a.81.81,0,0,0-.32,1.1l.32.58a.81.81,0,0,0,1.1.32l.08,0a.8.8,0,0,0,.35-.39,3.16,3.16,0,0,0-.22-.59,4,4,0,0,0-.87-1.12.8.8,0,0,0-.36.1Z"/><rect class="cls-15" x="292.27" y="175.36" width="3.76" height="3.01"/><path class="cls-15" d="M290,175.36v3h-2.72C285.95,178.37,287.76,175.46,290,175.36Z"/><path class="cls-15" d="M302.75,178.21c-1.73-2.59-5.21-2.85-5.21-2.85v3H303S302.75,178.21,302.75,178.21Z"/><line class="cls-15" x1="296.79" y1="180.63" x2="299.05" y2="180.63"/><line class="cls-15" x1="291.52" y1="180.63" x2="293.78" y2="180.63"/><path class="cls-14" d="M323.29,183a.85.85,0,0,0-.54.81v.1a.83.83,0,0,0,.62.77C323.32,184.11,323.29,183.52,323.29,183Z"/><path class="cls-13" d="M358.19,183.33c-.21-1.28-1-3.45-9.34-3.45,0,0-4.22-3.67-6.75-4.15-1.2-.22-7.52-1.85-18.54,6.34-.8.6,0,3.82,0,3.82h2.18a3.19,3.19,0,0,1,6.37,0h16.46a3.19,3.19,0,0,1,6.37,0h2.51c.42,0,.77-.19.76-.61Z"/><path class="cls-13" d="M323.2,185.14c-.12,0-.08.13-.08.3v.45c0,.17,0,0,.08,0h2.54s0-.75.14-.75Z"/><path class="cls-13" d="M358.16,185.14h-3.35c.09,0,.14.75.14.75h3.21c.12,0,.33.17.33,0v-.45C358.49,185.27,358.28,185.14,358.16,185.14Z"/><path class="cls-13" d="M332,185.14c.09,0,.14.75.14.75h16.46s0-.75.14-.75Z"/><path class="cls-16" d="M337,177.49a20.14,20.14,0,0,0-7.54,2.76H337Z"/><path class="cls-16" d="M338.55,180.25h8c-3.2-3-5.85-3.11-5.85-3.11a18.39,18.39,0,0,0-2.16.22Z"/><circle class="cls-17" cx="351.71" cy="186.57" r="1.92"/><circle class="cls-17" cx="328.95" cy="186.57" r="1.92"/><path class="cls-13" d="M357.09,182.49c.12-.15.06-.24.28-.26a1.91,1.91,0,0,1,.36,1.33h0v.82c-.75-.06-.17-.17-.37-.32A1.11,1.11,0,0,1,357.09,182.49Z"/><line class="cls-16" x1="338.92" y1="181.76" x2="341.93" y2="181.76"/><path class="cls-14" d="M368.24,183a.85.85,0,0,0-.54.81v.1a.83.83,0,0,0,.62.77C368.27,184.11,368.25,183.52,368.24,183Z"/><path class="cls-13" d="M403.14,183.33c-.21-1.28-1-3.45-9.34-3.45,0,0-4.22-3.67-6.75-4.15-1.2-.22-7.52-1.85-18.54,6.34-.8.6,0,3.82,0,3.82h2.18a3.19,3.19,0,0,1,6.37,0h16.46a3.19,3.19,0,0,1,6.37,0h2.51c.42,0,.77-.19.76-.61Z"/><path class="cls-13" d="M368.15,185.14c-.12,0-.08.13-.08.3v.45c0,.17,0,0,.08,0h2.54s0-.75.14-.75Z"/><path class="cls-13" d="M403.11,185.14h-3.35c.09,0,.14.75.14.75h3.21c.12,0,.33.17.33,0v-.45C403.44,185.27,403.23,185.14,403.11,185.14Z"/><path class="cls-13" d="M376.92,185.14c.09,0,.14.75.14.75h16.46s0-.75.14-.75Z"/><path class="cls-16" d="M382,177.49a20.14,20.14,0,0,0-7.54,2.76H382Z"/><path class="cls-16" d="M383.5,180.25h8c-3.2-3-5.85-3.11-5.85-3.11a18.39,18.39,0,0,0-2.16.22Z"/><circle class="cls-17" cx="396.67" cy="186.57" r="1.92"/><circle class="cls-17" cx="373.91" cy="186.57" r="1.92"/><path class="cls-13" d="M402,182.49c.12-.15.06-.24.28-.26a1.91,1.91,0,0,1,.36,1.33h0v.82c-.75-.06-.17-.17-.37-.32A1.11,1.11,0,0,1,402,182.49Z"/><line class="cls-16" x1="383.88" y1="181.76" x2="386.89" y2="181.76"/><path class="cls-18" d="M313.42,182.09a4.11,4.11,0,0,0-2.71-2.08,11.69,11.69,0,0,1-4.49-1.58c-2.67-1.73-4-5.32-10.91-5.32h-3.93c-5.58,0-8.14,5.15-8.84,8.38a16.71,16.71,0,0,0,0,3.86c.05.61.36,1.3,1,1.3H285a4.2,4.2,0,0,1,8.4,0h9.3a4.2,4.2,0,0,1,8.4,0h1.61a1.18,1.18,0,0,0,1.26-1.3A9.38,9.38,0,0,0,313.42,182.09Z"/><circle class="cls-18" cx="289.18" cy="186.83" r="2.37"/><circle class="cls-18" cx="307.02" cy="186.83" r="2.37"/><path class="cls-18" d="M282,182.37c-.31.11-1,.4-1,.74v.09c0,.35.46.64.77.74C281.74,183.43,282,182.88,282,182.37Z"/><path class="cls-18" d="M312.1,181.12a.81.81,0,0,0-.32,1.1l.32.58a.81.81,0,0,0,1.1.32l.08,0a.8.8,0,0,0,.35-.39,3.16,3.16,0,0,0-.22-.59,4,4,0,0,0-.87-1.12.8.8,0,0,0-.36.1Z"/><rect class="cls-18" x="292.27" y="175.36" width="3.76" height="3.01"/><path class="cls-18" d="M290,175.36v3h-2.72C285.95,178.37,287.76,175.46,290,175.36Z"/><path class="cls-18" d="M302.75,178.21c-1.73-2.59-5.21-2.85-5.21-2.85v3H303S302.75,178.21,302.75,178.21Z"/><line class="cls-18" x1="296.79" y1="180.63" x2="299.05" y2="180.63"/><line class="cls-18" x1="291.52" y1="180.63" x2="293.78" y2="180.63"/><path class="cls-18" d="M323.29,183a.85.85,0,0,0-.54.81v.1a.83.83,0,0,0,.62.77C323.32,184.11,323.29,183.52,323.29,183Z"/><path class="cls-18" d="M358.19,183.33c-.21-1.28-1-3.45-9.34-3.45,0,0-4.22-3.67-6.75-4.15-1.2-.22-7.52-1.85-18.54,6.34-.8.6,0,3.82,0,3.82h2.18a3.19,3.19,0,0,1,6.37,0h16.46a3.19,3.19,0,0,1,6.37,0h2.51c.42,0,.77-.19.76-.61Z"/><path class="cls-18" d="M323.2,185.14c-.12,0-.08.13-.08.3v.45c0,.17,0,0,.08,0h2.54s0-.75.14-.75Z"/><path class="cls-18" d="M358.16,185.14h-3.35c.09,0,.14.75.14.75h3.21c.12,0,.33.17.33,0v-.45C358.49,185.27,358.28,185.14,358.16,185.14Z"/><path class="cls-18" d="M332,185.14c.09,0,.14.75.14.75h16.46s0-.75.14-.75Z"/><path class="cls-18" d="M337,177.49a20.14,20.14,0,0,0-7.54,2.76H337Z"/><path class="cls-18" d="M338.55,180.25h8c-3.2-3-5.85-3.11-5.85-3.11a18.39,18.39,0,0,0-2.16.22Z"/><circle class="cls-18" cx="351.71" cy="186.57" r="1.92"/><circle class="cls-18" cx="328.95" cy="186.57" r="1.92"/><path class="cls-18" d="M357.09,182.49c.12-.15.06-.24.28-.26a1.91,1.91,0,0,1,.36,1.33h0v.82c-.75-.06-.17-.17-.37-.32A1.11,1.11,0,0,1,357.09,182.49Z"/><line class="cls-18" x1="338.92" y1="181.76" x2="341.93" y2="181.76"/><path class="cls-18" d="M368.24,183a.85.85,0,0,0-.54.81v.1a.83.83,0,0,0,.62.77C368.27,184.11,368.25,183.52,368.24,183Z"/><path class="cls-18" d="M403.14,183.33c-.21-1.28-1-3.45-9.34-3.45,0,0-4.22-3.67-6.75-4.15-1.2-.22-7.52-1.85-18.54,6.34-.8.6,0,3.82,0,3.82h2.18a3.19,3.19,0,0,1,6.37,0h16.46a3.19,3.19,0,0,1,6.37,0h2.51c.42,0,.77-.19.76-.61Z"/><path class="cls-18" d="M368.15,185.14c-.12,0-.08.13-.08.3v.45c0,.17,0,0,.08,0h2.54s0-.75.14-.75Z"/><path class="cls-18" d="M403.11,185.14h-3.35c.09,0,.14.75.14.75h3.21c.12,0,.33.17.33,0v-.45C403.44,185.27,403.23,185.14,403.11,185.14Z"/><path class="cls-18" d="M376.92,185.14c.09,0,.14.75.14.75h16.46s0-.75.14-.75Z"/><path class="cls-18" d="M382,177.49a20.14,20.14,0,0,0-7.54,2.76H382Z"/><path class="cls-18" d="M383.5,180.25h8c-3.2-3-5.85-3.11-5.85-3.11a18.39,18.39,0,0,0-2.16.22Z"/><circle class="cls-18" cx="396.67" cy="186.57" r="1.92"/><circle class="cls-18" cx="373.91" cy="186.57" r="1.92"/><path class="cls-18" d="M402,182.49c.12-.15.06-.24.28-.26a1.91,1.91,0,0,1,.36,1.33h0v.82c-.75-.06-.17-.17-.37-.32A1.11,1.11,0,0,1,402,182.49Z"/><line class="cls-18" x1="383.88" y1="181.76" x2="386.89" y2="181.76"/><line class="cls-19" x1="282.49" y1="194.5" x2="312.66" y2="194.5"/><line class="cls-19" x1="325.64" y1="194.5" x2="355.81" y2="194.5"/><line class="cls-19" x1="369.36" y1="194.5" x2="399.53" y2="194.5"/><path class="cls-2" d="M356.18,148.88a4.11,4.11,0,0,0-2.71-2.08,11.69,11.69,0,0,1-4.49-1.58c-2.67-1.73-4-5.32-10.91-5.32h-3.93c-5.58,0-8.14,5.15-8.84,8.38a16.71,16.71,0,0,0,0,3.86c.05.61.36,1.3,1,1.3h1.48a4.2,4.2,0,0,1,8.4,0h9.3a4.2,4.2,0,0,1,8.4,0h1.61a1.18,1.18,0,0,0,1.26-1.3A9.38,9.38,0,0,0,356.18,148.88Z"/><circle class="cls-2" cx="331.94" cy="153.62" r="2.37"/><circle class="cls-2" cx="349.79" cy="153.62" r="2.37"/><path class="cls-2" d="M324.75,149.17c-.31.11-1,.4-1,.74V150c0,.35.46.64.77.74C324.5,150.22,324.73,149.67,324.75,149.17Z"/><path class="cls-2" d="M354.86,147.91a.81.81,0,0,0-.32,1.1l.32.58a.81.81,0,0,0,1.1.32l.08,0a.8.8,0,0,0,.35-.39,3.16,3.16,0,0,0-.22-.59,4,4,0,0,0-.87-1.12.8.8,0,0,0-.36.1Z"/><rect class="cls-2" x="335.04" y="142.15" width="3.76" height="3.01"/><path class="cls-2" d="M332.78,142.15v3h-2.72C328.71,145.16,330.52,142.25,332.78,142.15Z"/><path class="cls-2" d="M345.52,145c-1.73-2.59-5.21-2.85-5.21-2.85v3h5.41S345.52,145,345.52,145Z"/><line class="cls-2" x1="339.55" y1="147.42" x2="341.81" y2="147.42"/><line class="cls-2" x1="334.29" y1="147.42" x2="336.54" y2="147.42"/><path class="cls-2" d="M280.21,149.77a.85.85,0,0,0-.54.81v.1a.83.83,0,0,0,.62.77C280.24,150.9,280.22,150.31,280.21,149.77Z"/><path class="cls-2" d="M315.11,150.12c-.21-1.28-1-3.45-9.34-3.45,0,0-4.22-3.67-6.75-4.15-1.2-.22-7.52-1.85-18.54,6.34-.8.6,0,3.82,0,3.82h2.18a3.19,3.19,0,0,1,6.37,0H305.5a3.19,3.19,0,0,1,6.37,0h2.51c.42,0,.77-.19.76-.61Z"/><path class="cls-2" d="M280.12,151.93c-.12,0-.08.13-.08.3v.45c0,.17,0,0,.08,0h2.54s0-.75.14-.75Z"/><path class="cls-2" d="M315.08,151.93h-3.35c.09,0,.14.75.14.75h3.21c.12,0,.33.17.33,0v-.45C315.41,152.06,315.2,151.93,315.08,151.93Z"/><path class="cls-2" d="M288.89,151.93c.09,0,.14.75.14.75H305.5s0-.75.14-.75Z"/><path class="cls-2" d="M294,144.28a20.14,20.14,0,0,0-7.54,2.76H294Z"/><path class="cls-2" d="M295.47,147h8c-3.2-3-5.85-3.11-5.85-3.11a18.39,18.39,0,0,0-2.16.22Z"/><circle class="cls-2" cx="308.63" cy="153.36" r="1.92"/><circle class="cls-2" cx="285.87" cy="153.36" r="1.92"/><path class="cls-2" d="M314,149.28c.12-.15.06-.24.28-.26a1.91,1.91,0,0,1,.36,1.33h0v.82c-.75-.06-.17-.17-.37-.32A1.11,1.11,0,0,1,314,149.28Z"/><line class="cls-2" x1="295.84" y1="148.55" x2="298.85" y2="148.55"/><path class="cls-2" d="M399.69,148.88a4.11,4.11,0,0,0-2.71-2.08,11.69,11.69,0,0,1-4.49-1.58c-2.67-1.73-4-5.32-10.91-5.32h-3.93c-5.58,0-8.14,5.15-8.84,8.38a16.71,16.71,0,0,0,0,3.86c.05.61.36,1.3,1,1.3h1.48a4.2,4.2,0,0,1,8.4,0H389a4.2,4.2,0,0,1,8.4,0H399a1.18,1.18,0,0,0,1.26-1.3A9.38,9.38,0,0,0,399.69,148.88Z"/><circle class="cls-2" cx="375.45" cy="153.62" r="2.37"/><circle class="cls-2" cx="393.3" cy="153.62" r="2.37"/><path class="cls-2" d="M368.39,149.17c-.31.11-.88.4-.88.74V150c0,.35.4.64.71.74C368.2,150.22,368.37,149.67,368.39,149.17Z"/><path class="cls-2" d="M398.38,147.91a.81.81,0,0,0-.32,1.1l.32.58a.81.81,0,0,0,1.1.32l.08,0a.8.8,0,0,0,.35-.39,3.16,3.16,0,0,0-.22-.59,4,4,0,0,0-.87-1.12.8.8,0,0,0-.36.1Z"/><rect class="cls-2" x="378.05" y="142.15" width="3.76" height="3.01"/><path class="cls-2" d="M376.54,142.15v3h-3C372.22,145.16,373.53,142.25,376.54,142.15Z"/><path class="cls-2" d="M389.15,145a7.33,7.33,0,0,0-5.09-2.85v3h5.16S389.15,145,389.15,145Z"/><line class="cls-2" x1="383.32" y1="147.42" x2="385.57" y2="147.42"/><line class="cls-2" x1="378.05" y1="147.42" x2="380.31" y2="147.42"/><path class="cls-13" d="M356.18,148.88a4.11,4.11,0,0,0-2.71-2.08,11.69,11.69,0,0,1-4.49-1.58c-2.67-1.73-4-5.32-10.91-5.32h-3.93c-5.58,0-8.14,5.15-8.84,8.38a16.71,16.71,0,0,0,0,3.86c.05.61.36,1.3,1,1.3h1.48a4.2,4.2,0,0,1,8.4,0h9.3a4.2,4.2,0,0,1,8.4,0h1.61a1.18,1.18,0,0,0,1.26-1.3A9.38,9.38,0,0,0,356.18,148.88Z"/><circle class="cls-14" cx="331.94" cy="153.62" r="2.37"/><circle class="cls-14" cx="349.79" cy="153.62" r="2.37"/><path class="cls-13" d="M324.75,149.17c-.31.11-1,.4-1,.74V150c0,.35.46.64.77.74C324.5,150.22,324.73,149.67,324.75,149.17Z"/><path class="cls-14" d="M354.86,147.91a.81.81,0,0,0-.32,1.1l.32.58a.81.81,0,0,0,1.1.32l.08,0a.8.8,0,0,0,.35-.39,3.16,3.16,0,0,0-.22-.59,4,4,0,0,0-.87-1.12.8.8,0,0,0-.36.1Z"/><rect class="cls-15" x="335.04" y="142.15" width="3.76" height="3.01"/><path class="cls-15" d="M332.78,142.15v3h-2.72C328.71,145.16,330.52,142.25,332.78,142.15Z"/><path class="cls-15" d="M345.52,145c-1.73-2.59-5.21-2.85-5.21-2.85v3h5.41S345.52,145,345.52,145Z"/><line class="cls-15" x1="339.55" y1="147.42" x2="341.81" y2="147.42"/><line class="cls-15" x1="334.29" y1="147.42" x2="336.54" y2="147.42"/><path class="cls-14" d="M280.21,149.77a.85.85,0,0,0-.54.81v.1a.83.83,0,0,0,.62.77C280.24,150.9,280.22,150.31,280.21,149.77Z"/><path class="cls-13" d="M315.11,150.12c-.21-1.28-1-3.45-9.34-3.45,0,0-4.22-3.67-6.75-4.15-1.2-.22-7.52-1.85-18.54,6.34-.8.6,0,3.82,0,3.82h2.18a3.19,3.19,0,0,1,6.37,0H305.5a3.19,3.19,0,0,1,6.37,0h2.51c.42,0,.77-.19.76-.61Z"/><path class="cls-13" d="M280.12,151.93c-.12,0-.08.13-.08.3v.45c0,.17,0,0,.08,0h2.54s0-.75.14-.75Z"/><path class="cls-13" d="M315.08,151.93h-3.35c.09,0,.14.75.14.75h3.21c.12,0,.33.17.33,0v-.45C315.41,152.06,315.2,151.93,315.08,151.93Z"/><path class="cls-13" d="M288.89,151.93c.09,0,.14.75.14.75H305.5s0-.75.14-.75Z"/><path class="cls-16" d="M294,144.28a20.14,20.14,0,0,0-7.54,2.76H294Z"/><path class="cls-16" d="M295.47,147h8c-3.2-3-5.85-3.11-5.85-3.11a18.39,18.39,0,0,0-2.16.22Z"/><circle class="cls-17" cx="308.63" cy="153.36" r="1.92"/><circle class="cls-17" cx="285.87" cy="153.36" r="1.92"/><path class="cls-13" d="M314,149.28c.12-.15.06-.24.28-.26a1.91,1.91,0,0,1,.36,1.33h0v.82c-.75-.06-.17-.17-.37-.32A1.11,1.11,0,0,1,314,149.28Z"/><line class="cls-16" x1="295.84" y1="148.55" x2="298.85" y2="148.55"/><path class="cls-13" d="M399.69,148.88a4.11,4.11,0,0,0-2.71-2.08,11.69,11.69,0,0,1-4.49-1.58c-2.67-1.73-4-5.32-10.91-5.32h-3.93c-5.58,0-8.14,5.15-8.84,8.38a16.71,16.71,0,0,0,0,3.86c.05.61.36,1.3,1,1.3h1.48a4.2,4.2,0,0,1,8.4,0H389a4.2,4.2,0,0,1,8.4,0H399a1.18,1.18,0,0,0,1.26-1.3A9.38,9.38,0,0,0,399.69,148.88Z"/><circle class="cls-14" cx="375.45" cy="153.62" r="2.37"/><circle class="cls-14" cx="393.3" cy="153.62" r="2.37"/><path class="cls-13" d="M368.39,149.17c-.31.11-.88.4-.88.74V150c0,.35.4.64.71.74C368.2,150.22,368.37,149.67,368.39,149.17Z"/><path class="cls-14" d="M398.38,147.91a.81.81,0,0,0-.32,1.1l.32.58a.81.81,0,0,0,1.1.32l.08,0a.8.8,0,0,0,.35-.39,3.16,3.16,0,0,0-.22-.59,4,4,0,0,0-.87-1.12.8.8,0,0,0-.36.1Z"/><rect class="cls-15" x="378.05" y="142.15" width="3.76" height="3.01"/><path class="cls-15" d="M376.54,142.15v3h-3C372.22,145.16,373.53,142.25,376.54,142.15Z"/><path class="cls-15" d="M389.15,145a7.33,7.33,0,0,0-5.09-2.85v3h5.16S389.15,145,389.15,145Z"/><line class="cls-15" x1="383.32" y1="147.42" x2="385.57" y2="147.42"/><line class="cls-15" x1="378.05" y1="147.42" x2="380.31" y2="147.42"/><path class="cls-18" d="M356.18,148.88a4.11,4.11,0,0,0-2.71-2.08,11.69,11.69,0,0,1-4.49-1.58c-2.67-1.73-4-5.32-10.91-5.32h-3.93c-5.58,0-8.14,5.15-8.84,8.38a16.71,16.71,0,0,0,0,3.86c.05.61.36,1.3,1,1.3h1.48a4.2,4.2,0,0,1,8.4,0h9.3a4.2,4.2,0,0,1,8.4,0h1.61a1.18,1.18,0,0,0,1.26-1.3A9.38,9.38,0,0,0,356.18,148.88Z"/><circle class="cls-18" cx="331.94" cy="153.62" r="2.37"/><circle class="cls-18" cx="349.79" cy="153.62" r="2.37"/><path class="cls-18" d="M324.75,149.17c-.31.11-1,.4-1,.74V150c0,.35.46.64.77.74C324.5,150.22,324.73,149.67,324.75,149.17Z"/><path class="cls-18" d="M354.86,147.91a.81.81,0,0,0-.32,1.1l.32.58a.81.81,0,0,0,1.1.32l.08,0a.8.8,0,0,0,.35-.39,3.16,3.16,0,0,0-.22-.59,4,4,0,0,0-.87-1.12.8.8,0,0,0-.36.1Z"/><rect class="cls-18" x="335.04" y="142.15" width="3.76" height="3.01"/><path class="cls-18" d="M332.78,142.15v3h-2.72C328.71,145.16,330.52,142.25,332.78,142.15Z"/><path class="cls-18" d="M345.52,145c-1.73-2.59-5.21-2.85-5.21-2.85v3h5.41S345.52,145,345.52,145Z"/><line class="cls-18" x1="339.55" y1="147.42" x2="341.81" y2="147.42"/><line class="cls-18" x1="334.29" y1="147.42" x2="336.54" y2="147.42"/><path class="cls-18" d="M280.21,149.77a.85.85,0,0,0-.54.81v.1a.83.83,0,0,0,.62.77C280.24,150.9,280.22,150.31,280.21,149.77Z"/><path class="cls-18" d="M315.11,150.12c-.21-1.28-1-3.45-9.34-3.45,0,0-4.22-3.67-6.75-4.15-1.2-.22-7.52-1.85-18.54,6.34-.8.6,0,3.82,0,3.82h2.18a3.19,3.19,0,0,1,6.37,0H305.5a3.19,3.19,0,0,1,6.37,0h2.51c.42,0,.77-.19.76-.61Z"/><path class="cls-18" d="M280.12,151.93c-.12,0-.08.13-.08.3v.45c0,.17,0,0,.08,0h2.54s0-.75.14-.75Z"/><path class="cls-18" d="M315.08,151.93h-3.35c.09,0,.14.75.14.75h3.21c.12,0,.33.17.33,0v-.45C315.41,152.06,315.2,151.93,315.08,151.93Z"/><path class="cls-18" d="M288.89,151.93c.09,0,.14.75.14.75H305.5s0-.75.14-.75Z"/><path class="cls-18" d="M294,144.28a20.14,20.14,0,0,0-7.54,2.76H294Z"/><path class="cls-18" d="M295.47,147h8c-3.2-3-5.85-3.11-5.85-3.11a18.39,18.39,0,0,0-2.16.22Z"/><circle class="cls-18" cx="308.63" cy="153.36" r="1.92"/><circle class="cls-18" cx="285.87" cy="153.36" r="1.92"/><path class="cls-18" d="M314,149.28c.12-.15.06-.24.28-.26a1.91,1.91,0,0,1,.36,1.33h0v.82c-.75-.06-.17-.17-.37-.32A1.11,1.11,0,0,1,314,149.28Z"/><line class="cls-18" x1="295.84" y1="148.55" x2="298.85" y2="148.55"/><path class="cls-18" d="M399.69,148.88a4.11,4.11,0,0,0-2.71-2.08,11.69,11.69,0,0,1-4.49-1.58c-2.67-1.73-4-5.32-10.91-5.32h-3.93c-5.58,0-8.14,5.15-8.84,8.38a16.71,16.71,0,0,0,0,3.86c.05.61.36,1.3,1,1.3h1.48a4.2,4.2,0,0,1,8.4,0H389a4.2,4.2,0,0,1,8.4,0H399a1.18,1.18,0,0,0,1.26-1.3A9.38,9.38,0,0,0,399.69,148.88Z"/><circle class="cls-18" cx="375.45" cy="153.62" r="2.37"/><circle class="cls-18" cx="393.3" cy="153.62" r="2.37"/><path class="cls-18" d="M368.39,149.17c-.31.11-.88.4-.88.74V150c0,.35.4.64.71.74C368.2,150.22,368.37,149.67,368.39,149.17Z"/><path class="cls-18" d="M398.38,147.91a.81.81,0,0,0-.32,1.1l.32.58a.81.81,0,0,0,1.1.32l.08,0a.8.8,0,0,0,.35-.39,3.16,3.16,0,0,0-.22-.59,4,4,0,0,0-.87-1.12.8.8,0,0,0-.36.1Z"/><rect class="cls-18" x="378.05" y="142.15" width="3.76" height="3.01"/><path class="cls-18" d="M376.54,142.15v3h-3C372.22,145.16,373.53,142.25,376.54,142.15Z"/><path class="cls-18" d="M389.15,145a7.33,7.33,0,0,0-5.09-2.85v3h5.16S389.15,145,389.15,145Z"/><line class="cls-18" x1="383.32" y1="147.42" x2="385.57" y2="147.42"/><line class="cls-18" x1="378.05" y1="147.42" x2="380.31" y2="147.42"/><line class="cls-19" x1="282.49" y1="161.29" x2="312.66" y2="161.29"/><line class="cls-19" x1="325.64" y1="161.29" x2="355.81" y2="161.29"/><line class="cls-19" x1="369.36" y1="161.29" x2="399.53" y2="161.29"/><path class="cls-2" d="M313.42,118.1a4.11,4.11,0,0,0-2.71-2.08,11.69,11.69,0,0,1-4.49-1.58c-2.67-1.73-4-5.32-10.91-5.32h-3.93c-5.58,0-8.14,5.15-8.84,8.38a16.71,16.71,0,0,0,0,3.86c.05.61.36,1.3,1,1.3H285a4.2,4.2,0,0,1,8.4,0h9.3a4.2,4.2,0,0,1,8.4,0h1.61a1.18,1.18,0,0,0,1.26-1.3A9.38,9.38,0,0,0,313.42,118.1Z"/><circle class="cls-2" cx="289.18" cy="122.85" r="2.37"/><circle class="cls-2" cx="307.02" cy="122.85" r="2.37"/><path class="cls-2" d="M282,118.39c-.31.11-1,.4-1,.74v.09c0,.35.46.64.77.74C281.74,119.44,282,118.89,282,118.39Z"/><path class="cls-2" d="M312.1,117.13a.81.81,0,0,0-.32,1.1l.32.58a.81.81,0,0,0,1.1.32l.08,0a.8.8,0,0,0,.35-.39,3.16,3.16,0,0,0-.22-.59,4,4,0,0,0-.87-1.12.8.8,0,0,0-.36.1Z"/><rect class="cls-2" x="292.27" y="111.38" width="3.76" height="3.01"/><path class="cls-2" d="M290,111.37v3h-2.72C285.95,114.39,287.76,111.48,290,111.37Z"/><path class="cls-2" d="M302.75,114.22c-1.73-2.59-5.21-2.85-5.21-2.85v3H303S302.75,114.22,302.75,114.22Z"/><line class="cls-2" x1="296.79" y1="116.64" x2="299.05" y2="116.64"/><line class="cls-2" x1="291.52" y1="116.64" x2="293.78" y2="116.64"/><path class="cls-2" d="M323.29,119a.85.85,0,0,0-.54.81v.1a.83.83,0,0,0,.62.77C323.32,120.12,323.29,119.53,323.29,119Z"/><path class="cls-2" d="M358.19,119.34c-.21-1.28-1-3.45-9.34-3.45,0,0-4.22-3.67-6.75-4.15-1.2-.22-7.52-1.85-18.54,6.34-.8.6,0,3.82,0,3.82h2.18a3.19,3.19,0,0,1,6.37,0h16.46a3.19,3.19,0,0,1,6.37,0h2.51c.42,0,.77-.19.76-.61Z"/><path class="cls-2" d="M323.2,121.16c-.12,0-.08.13-.08.3v.45c0,.17,0,0,.08,0h2.54s0-.75.14-.75Z"/><path class="cls-2" d="M358.16,121.16h-3.35c.09,0,.14.75.14.75h3.21c.12,0,.33.17.33,0v-.45C358.49,121.29,358.28,121.16,358.16,121.16Z"/><path class="cls-2" d="M332,121.16c.09,0,.14.75.14.75h16.46s0-.75.14-.75Z"/><path class="cls-2" d="M337,113.51a20.14,20.14,0,0,0-7.54,2.76H337Z"/><path class="cls-2" d="M338.55,116.27h8c-3.2-3-5.85-3.11-5.85-3.11a18.39,18.39,0,0,0-2.16.22Z"/><circle class="cls-2" cx="351.71" cy="122.58" r="1.92"/><circle class="cls-2" cx="328.95" cy="122.58" r="1.92"/><path class="cls-2" d="M357.09,118.5c.12-.15.06-.24.28-.26a1.91,1.91,0,0,1,.36,1.33h0v.82c-.75-.06-.17-.17-.37-.32A1.11,1.11,0,0,1,357.09,118.5Z"/><line class="cls-2" x1="338.92" y1="117.77" x2="341.93" y2="117.77"/><path class="cls-2" d="M399.69,118.1A4.11,4.11,0,0,0,397,116a11.69,11.69,0,0,1-4.49-1.58c-2.67-1.73-4-5.32-10.91-5.32h-3.93c-5.58,0-8.14,5.15-8.84,8.38a16.71,16.71,0,0,0,0,3.86c.05.61.36,1.3,1,1.3h1.48a4.2,4.2,0,0,1,8.4,0H389a4.2,4.2,0,0,1,8.4,0H399a1.18,1.18,0,0,0,1.26-1.3A9.38,9.38,0,0,0,399.69,118.1Z"/><circle class="cls-2" cx="375.45" cy="122.85" r="2.37"/><circle class="cls-2" cx="393.3" cy="122.85" r="2.37"/><path class="cls-2" d="M368.39,118.39c-.31.11-.88.4-.88.74v.09c0,.35.4.64.71.74C368.2,119.44,368.37,118.89,368.39,118.39Z"/><path class="cls-2" d="M398.38,117.13a.81.81,0,0,0-.32,1.1l.32.58a.81.81,0,0,0,1.1.32l.08,0a.8.8,0,0,0,.35-.39,3.16,3.16,0,0,0-.22-.59,4,4,0,0,0-.87-1.12.8.8,0,0,0-.36.1Z"/><rect class="cls-2" x="378.05" y="111.38" width="3.76" height="3.01"/><path class="cls-2" d="M376.54,111.37v3h-3C372.22,114.39,373.53,111.48,376.54,111.37Z"/><path class="cls-2" d="M389.15,114.22a7.33,7.33,0,0,0-5.09-2.85v3h5.16S389.15,114.22,389.15,114.22Z"/><line class="cls-2" x1="383.32" y1="116.64" x2="385.57" y2="116.64"/><line class="cls-2" x1="378.05" y1="116.64" x2="380.31" y2="116.64"/><path class="cls-13" d="M313.42,118.1a4.11,4.11,0,0,0-2.71-2.08,11.69,11.69,0,0,1-4.49-1.58c-2.67-1.73-4-5.32-10.91-5.32h-3.93c-5.58,0-8.14,5.15-8.84,8.38a16.71,16.71,0,0,0,0,3.86c.05.61.36,1.3,1,1.3H285a4.2,4.2,0,0,1,8.4,0h9.3a4.2,4.2,0,0,1,8.4,0h1.61a1.18,1.18,0,0,0,1.26-1.3A9.38,9.38,0,0,0,313.42,118.1Z"/><circle class="cls-14" cx="289.18" cy="122.85" r="2.37"/><circle class="cls-14" cx="307.02" cy="122.85" r="2.37"/><path class="cls-13" d="M282,118.39c-.31.11-1,.4-1,.74v.09c0,.35.46.64.77.74C281.74,119.44,282,118.89,282,118.39Z"/><path class="cls-14" d="M312.1,117.13a.81.81,0,0,0-.32,1.1l.32.58a.81.81,0,0,0,1.1.32l.08,0a.8.8,0,0,0,.35-.39,3.16,3.16,0,0,0-.22-.59,4,4,0,0,0-.87-1.12.8.8,0,0,0-.36.1Z"/><rect class="cls-15" x="292.27" y="111.38" width="3.76" height="3.01"/><path class="cls-15" d="M290,111.37v3h-2.72C285.95,114.39,287.76,111.48,290,111.37Z"/><path class="cls-15" d="M302.75,114.22c-1.73-2.59-5.21-2.85-5.21-2.85v3H303S302.75,114.22,302.75,114.22Z"/><line class="cls-15" x1="296.79" y1="116.64" x2="299.05" y2="116.64"/><line class="cls-15" x1="291.52" y1="116.64" x2="293.78" y2="116.64"/><path class="cls-14" d="M323.29,119a.85.85,0,0,0-.54.81v.1a.83.83,0,0,0,.62.77C323.32,120.12,323.29,119.53,323.29,119Z"/><path class="cls-13" d="M358.19,119.34c-.21-1.28-1-3.45-9.34-3.45,0,0-4.22-3.67-6.75-4.15-1.2-.22-7.52-1.85-18.54,6.34-.8.6,0,3.82,0,3.82h2.18a3.19,3.19,0,0,1,6.37,0h16.46a3.19,3.19,0,0,1,6.37,0h2.51c.42,0,.77-.19.76-.61Z"/><path class="cls-13" d="M323.2,121.16c-.12,0-.08.13-.08.3v.45c0,.17,0,0,.08,0h2.54s0-.75.14-.75Z"/><path class="cls-13" d="M358.16,121.16h-3.35c.09,0,.14.75.14.75h3.21c.12,0,.33.17.33,0v-.45C358.49,121.29,358.28,121.16,358.16,121.16Z"/><path class="cls-13" d="M332,121.16c.09,0,.14.75.14.75h16.46s0-.75.14-.75Z"/><path class="cls-16" d="M337,113.51a20.14,20.14,0,0,0-7.54,2.76H337Z"/><path class="cls-16" d="M338.55,116.27h8c-3.2-3-5.85-3.11-5.85-3.11a18.39,18.39,0,0,0-2.16.22Z"/><circle class="cls-17" cx="351.71" cy="122.58" r="1.92"/><circle class="cls-17" cx="328.95" cy="122.58" r="1.92"/><path class="cls-13" d="M357.09,118.5c.12-.15.06-.24.28-.26a1.91,1.91,0,0,1,.36,1.33h0v.82c-.75-.06-.17-.17-.37-.32A1.11,1.11,0,0,1,357.09,118.5Z"/><line class="cls-16" x1="338.92" y1="117.77" x2="341.93" y2="117.77"/><path class="cls-13" d="M399.69,118.1A4.11,4.11,0,0,0,397,116a11.69,11.69,0,0,1-4.49-1.58c-2.67-1.73-4-5.32-10.91-5.32h-3.93c-5.58,0-8.14,5.15-8.84,8.38a16.71,16.71,0,0,0,0,3.86c.05.61.36,1.3,1,1.3h1.48a4.2,4.2,0,0,1,8.4,0H389a4.2,4.2,0,0,1,8.4,0H399a1.18,1.18,0,0,0,1.26-1.3A9.38,9.38,0,0,0,399.69,118.1Z"/><circle class="cls-14" cx="375.45" cy="122.85" r="2.37"/><circle class="cls-14" cx="393.3" cy="122.85" r="2.37"/><path class="cls-13" d="M368.39,118.39c-.31.11-.88.4-.88.74v.09c0,.35.4.64.71.74C368.2,119.44,368.37,118.89,368.39,118.39Z"/><path class="cls-14" d="M398.38,117.13a.81.81,0,0,0-.32,1.1l.32.58a.81.81,0,0,0,1.1.32l.08,0a.8.8,0,0,0,.35-.39,3.16,3.16,0,0,0-.22-.59,4,4,0,0,0-.87-1.12.8.8,0,0,0-.36.1Z"/><rect class="cls-15" x="378.05" y="111.38" width="3.76" height="3.01"/><path class="cls-15" d="M376.54,111.37v3h-3C372.22,114.39,373.53,111.48,376.54,111.37Z"/><path class="cls-15" d="M389.15,114.22a7.33,7.33,0,0,0-5.09-2.85v3h5.16S389.15,114.22,389.15,114.22Z"/><line class="cls-15" x1="383.32" y1="116.64" x2="385.57" y2="116.64"/><line class="cls-15" x1="378.05" y1="116.64" x2="380.31" y2="116.64"/><path class="cls-18" d="M313.42,118.1a4.11,4.11,0,0,0-2.71-2.08,11.69,11.69,0,0,1-4.49-1.58c-2.67-1.73-4-5.32-10.91-5.32h-3.93c-5.58,0-8.14,5.15-8.84,8.38a16.71,16.71,0,0,0,0,3.86c.05.61.36,1.3,1,1.3H285a4.2,4.2,0,0,1,8.4,0h9.3a4.2,4.2,0,0,1,8.4,0h1.61a1.18,1.18,0,0,0,1.26-1.3A9.38,9.38,0,0,0,313.42,118.1Z"/><circle class="cls-18" cx="289.18" cy="122.85" r="2.37"/><circle class="cls-18" cx="307.02" cy="122.85" r="2.37"/><path class="cls-18" d="M282,118.39c-.31.11-1,.4-1,.74v.09c0,.35.46.64.77.74C281.74,119.44,282,118.89,282,118.39Z"/><path class="cls-18" d="M312.1,117.13a.81.81,0,0,0-.32,1.1l.32.58a.81.81,0,0,0,1.1.32l.08,0a.8.8,0,0,0,.35-.39,3.16,3.16,0,0,0-.22-.59,4,4,0,0,0-.87-1.12.8.8,0,0,0-.36.1Z"/><rect class="cls-18" x="292.27" y="111.38" width="3.76" height="3.01"/><path class="cls-18" d="M290,111.37v3h-2.72C285.95,114.39,287.76,111.48,290,111.37Z"/><path class="cls-18" d="M302.75,114.22c-1.73-2.59-5.21-2.85-5.21-2.85v3H303S302.75,114.22,302.75,114.22Z"/><line class="cls-18" x1="296.79" y1="116.64" x2="299.05" y2="116.64"/><line class="cls-18" x1="291.52" y1="116.64" x2="293.78" y2="116.64"/><path class="cls-18" d="M323.29,119a.85.85,0,0,0-.54.81v.1a.83.83,0,0,0,.62.77C323.32,120.12,323.29,119.53,323.29,119Z"/><path class="cls-18" d="M358.19,119.34c-.21-1.28-1-3.45-9.34-3.45,0,0-4.22-3.67-6.75-4.15-1.2-.22-7.52-1.85-18.54,6.34-.8.6,0,3.82,0,3.82h2.18a3.19,3.19,0,0,1,6.37,0h16.46a3.19,3.19,0,0,1,6.37,0h2.51c.42,0,.77-.19.76-.61Z"/><path class="cls-18" d="M323.2,121.16c-.12,0-.08.13-.08.3v.45c0,.17,0,0,.08,0h2.54s0-.75.14-.75Z"/><path class="cls-18" d="M358.16,121.16h-3.35c.09,0,.14.75.14.75h3.21c.12,0,.33.17.33,0v-.45C358.49,121.29,358.28,121.16,358.16,121.16Z"/><path class="cls-18" d="M332,121.16c.09,0,.14.75.14.75h16.46s0-.75.14-.75Z"/><path class="cls-18" d="M337,113.51a20.14,20.14,0,0,0-7.54,2.76H337Z"/><path class="cls-18" d="M338.55,116.27h8c-3.2-3-5.85-3.11-5.85-3.11a18.39,18.39,0,0,0-2.16.22Z"/><circle class="cls-18" cx="351.71" cy="122.58" r="1.92"/><circle class="cls-18" cx="328.95" cy="122.58" r="1.92"/><path class="cls-18" d="M357.09,118.5c.12-.15.06-.24.28-.26a1.91,1.91,0,0,1,.36,1.33h0v.82c-.75-.06-.17-.17-.37-.32A1.11,1.11,0,0,1,357.09,118.5Z"/><line class="cls-18" x1="338.92" y1="117.77" x2="341.93" y2="117.77"/><path class="cls-18" d="M399.69,118.1A4.11,4.11,0,0,0,397,116a11.69,11.69,0,0,1-4.49-1.58c-2.67-1.73-4-5.32-10.91-5.32h-3.93c-5.58,0-8.14,5.15-8.84,8.38a16.71,16.71,0,0,0,0,3.86c.05.61.36,1.3,1,1.3h1.48a4.2,4.2,0,0,1,8.4,0H389a4.2,4.2,0,0,1,8.4,0H399a1.18,1.18,0,0,0,1.26-1.3A9.38,9.38,0,0,0,399.69,118.1Z"/><circle class="cls-18" cx="375.45" cy="122.85" r="2.37"/><circle class="cls-18" cx="393.3" cy="122.85" r="2.37"/><path class="cls-18" d="M368.39,118.39c-.31.11-.88.4-.88.74v.09c0,.35.4.64.71.74C368.2,119.44,368.37,118.89,368.39,118.39Z"/><path class="cls-18" d="M398.38,117.13a.81.81,0,0,0-.32,1.1l.32.58a.81.81,0,0,0,1.1.32l.08,0a.8.8,0,0,0,.35-.39,3.16,3.16,0,0,0-.22-.59,4,4,0,0,0-.87-1.12.8.8,0,0,0-.36.1Z"/><rect class="cls-18" x="378.05" y="111.38" width="3.76" height="3.01"/><path class="cls-18" d="M376.54,111.37v3h-3C372.22,114.39,373.53,111.48,376.54,111.37Z"/><path class="cls-18" d="M389.15,114.22a7.33,7.33,0,0,0-5.09-2.85v3h5.16S389.15,114.22,389.15,114.22Z"/><line class="cls-18" x1="383.32" y1="116.64" x2="385.57" y2="116.64"/><line class="cls-18" x1="378.05" y1="116.64" x2="380.31" y2="116.64"/><path class="cls-2" d="M566,141.2a4.87,4.87,0,0,0-3.21-2.47,13.86,13.86,0,0,1-5.32-1.88c-3.17-2.05-4.7-6.3-12.94-6.3h-4.66c-6.61,0-9.65,6.11-10.48,9.93a19.81,19.81,0,0,0,0,4.57c.06.73.43,1.55,1.17,1.55h1.76a5,5,0,0,1,10,0h11a5,5,0,0,1,10,0h1.9a1.4,1.4,0,0,0,1.5-1.54A11.12,11.12,0,0,0,566,141.2Z"/><circle class="cls-2" cx="537.25" cy="146.83" r="2.81"/><circle class="cls-2" cx="558.41" cy="146.83" r="2.81"/><path class="cls-2" d="M528.74,141.55c-.36.13-1.19.47-1.19.87v.11c0,.41.54.76.92.88C528.44,142.8,528.71,142.14,528.74,141.55Z"/><path class="cls-2" d="M564.43,140.06a1,1,0,0,0-.38,1.3l.38.69a1,1,0,0,0,1.3.38l.1-.05a1,1,0,0,0,.42-.46,3.74,3.74,0,0,0-.26-.7,4.7,4.7,0,0,0-1-1.32,1,1,0,0,0-.43.11Z"/><rect class="cls-2" x="540.93" y="133.23" width="4.46" height="3.57"/><path class="cls-2" d="M538.25,133.23v3.57H535C533.43,136.8,535.58,133.35,538.25,133.23Z"/><path class="cls-2" d="M553.35,136.6c-2.05-3.07-6.18-3.38-6.18-3.38v3.57h6.42S553.35,136.6,553.35,136.6Z"/><line class="cls-2" x1="546.28" y1="139.48" x2="548.95" y2="139.48"/><line class="cls-2" x1="540.03" y1="139.48" x2="542.71" y2="139.48"/><path class="cls-2" d="M527.07,178.56a1,1,0,0,0-.64,1v.11a1,1,0,0,0,.73.91C527.11,179.9,527.08,179.2,527.07,178.56Z"/><path class="cls-2" d="M568.44,179c-.24-1.52-1.2-4.09-11.07-4.09,0,0-5-4.35-8-4.91-1.42-.27-8.92-2.19-22,7.52-1,.71,0,4.53,0,4.53H530a3.78,3.78,0,0,1,7.56,0H557a3.78,3.78,0,0,1,7.56,0h3c.5,0,.91-.22.9-.73Z"/><path class="cls-2" d="M527,181.12c-.14,0-.09.15-.09.35V182c0,.2,0,0,.09,0h3s.06-.89.17-.89Z"/><path class="cls-2" d="M568.41,181.12h-4c.11,0,.17.89.17.89h3.8c.14,0,.39.2.39,0v-.54C568.79,181.27,568.54,181.12,568.41,181.12Z"/><path class="cls-2" d="M537.36,181.12c.11,0,.17.89.17.89H557s.06-.89.17-.89Z"/><path class="cls-2" d="M543.38,172.06a23.88,23.88,0,0,0-8.94,3.27h8.94Z"/><path class="cls-2" d="M545.16,175.32h9.5c-3.79-3.57-6.94-3.69-6.94-3.69a21.79,21.79,0,0,0-2.56.26Z"/><circle class="cls-2" cx="560.77" cy="182.81" r="2.28"/><circle class="cls-2" cx="533.79" cy="182.81" r="2.28"/><path class="cls-2" d="M567.14,178c.14-.18.07-.28.33-.31a2.26,2.26,0,0,1,.43,1.58h0v1c-.89-.07-.2-.2-.44-.38A1.32,1.32,0,0,1,567.14,178Z"/><line class="cls-2" x1="545.6" y1="177.11" x2="549.17" y2="177.11"/><path class="cls-13" d="M566,141.2a4.87,4.87,0,0,0-3.21-2.47,13.86,13.86,0,0,1-5.32-1.88c-3.17-2.05-4.7-6.3-12.94-6.3h-4.66c-6.61,0-9.65,6.11-10.48,9.93a19.81,19.81,0,0,0,0,4.57c.06.73.43,1.55,1.17,1.55h1.76a5,5,0,0,1,10,0h11a5,5,0,0,1,10,0h1.9a1.4,1.4,0,0,0,1.5-1.54A11.12,11.12,0,0,0,566,141.2Z"/><circle class="cls-14" cx="537.25" cy="146.83" r="2.81"/><circle class="cls-14" cx="558.41" cy="146.83" r="2.81"/><path class="cls-13" d="M528.74,141.55c-.36.13-1.19.47-1.19.87v.11c0,.41.54.76.92.88C528.44,142.8,528.71,142.14,528.74,141.55Z"/><path class="cls-14" d="M564.43,140.06a1,1,0,0,0-.38,1.3l.38.69a1,1,0,0,0,1.3.38l.1-.05a1,1,0,0,0,.42-.46,3.74,3.74,0,0,0-.26-.7,4.7,4.7,0,0,0-1-1.32,1,1,0,0,0-.43.11Z"/><rect class="cls-15" x="540.93" y="133.23" width="4.46" height="3.57"/><path class="cls-15" d="M538.25,133.23v3.57H535C533.43,136.8,535.58,133.35,538.25,133.23Z"/><path class="cls-15" d="M553.35,136.6c-2.05-3.07-6.18-3.38-6.18-3.38v3.57h6.42S553.35,136.6,553.35,136.6Z"/><line class="cls-15" x1="546.28" y1="139.48" x2="548.95" y2="139.48"/><line class="cls-15" x1="540.03" y1="139.48" x2="542.71" y2="139.48"/><path class="cls-14" d="M527.07,178.56a1,1,0,0,0-.64,1v.11a1,1,0,0,0,.73.91C527.11,179.9,527.08,179.2,527.07,178.56Z"/><path class="cls-13" d="M568.44,179c-.24-1.52-1.2-4.09-11.07-4.09,0,0-5-4.35-8-4.91-1.42-.27-8.92-2.19-22,7.52-1,.71,0,4.53,0,4.53H530a3.78,3.78,0,0,1,7.56,0H557a3.78,3.78,0,0,1,7.56,0h3c.5,0,.91-.22.9-.73Z"/><path class="cls-13" d="M527,181.12c-.14,0-.09.15-.09.35V182c0,.2,0,0,.09,0h3s.06-.89.17-.89Z"/><path class="cls-13" d="M568.41,181.12h-4c.11,0,.17.89.17.89h3.8c.14,0,.39.2.39,0v-.54C568.79,181.27,568.54,181.12,568.41,181.12Z"/><path class="cls-13" d="M537.36,181.12c.11,0,.17.89.17.89H557s.06-.89.17-.89Z"/><path class="cls-16" d="M543.38,172.06a23.88,23.88,0,0,0-8.94,3.27h8.94Z"/><path class="cls-16" d="M545.16,175.32h9.5c-3.79-3.57-6.94-3.69-6.94-3.69a21.79,21.79,0,0,0-2.56.26Z"/><circle class="cls-17" cx="560.77" cy="182.81" r="2.28"/><circle class="cls-17" cx="533.79" cy="182.81" r="2.28"/><path class="cls-13" d="M567.14,178c.14-.18.07-.28.33-.31a2.26,2.26,0,0,1,.43,1.58h0v1c-.89-.07-.2-.2-.44-.38A1.32,1.32,0,0,1,567.14,178Z"/><line class="cls-16" x1="545.6" y1="177.11" x2="549.17" y2="177.11"/><path class="cls-18" d="M566,141.2a4.87,4.87,0,0,0-3.21-2.47,13.86,13.86,0,0,1-5.32-1.88c-3.17-2.05-4.7-6.3-12.94-6.3h-4.66c-6.61,0-9.65,6.11-10.48,9.93a19.81,19.81,0,0,0,0,4.57c.06.73.43,1.55,1.17,1.55h1.76a5,5,0,0,1,10,0h11a5,5,0,0,1,10,0h1.9a1.4,1.4,0,0,0,1.5-1.54A11.12,11.12,0,0,0,566,141.2Z"/><circle class="cls-18" cx="537.25" cy="146.83" r="2.81"/><circle class="cls-18" cx="558.41" cy="146.83" r="2.81"/><path class="cls-18" d="M528.74,141.55c-.36.13-1.19.47-1.19.87v.11c0,.41.54.76.92.88C528.44,142.8,528.71,142.14,528.74,141.55Z"/><path class="cls-18" d="M564.43,140.06a1,1,0,0,0-.38,1.3l.38.69a1,1,0,0,0,1.3.38l.1-.05a1,1,0,0,0,.42-.46,3.74,3.74,0,0,0-.26-.7,4.7,4.7,0,0,0-1-1.32,1,1,0,0,0-.43.11Z"/><rect class="cls-18" x="540.93" y="133.23" width="4.46" height="3.57"/><path class="cls-18" d="M538.25,133.23v3.57H535C533.43,136.8,535.58,133.35,538.25,133.23Z"/><path class="cls-18" d="M553.35,136.6c-2.05-3.07-6.18-3.38-6.18-3.38v3.57h6.42S553.35,136.6,553.35,136.6Z"/><line class="cls-18" x1="546.28" y1="139.48" x2="548.95" y2="139.48"/><line class="cls-18" x1="540.03" y1="139.48" x2="542.71" y2="139.48"/><path class="cls-18" d="M527.07,178.56a1,1,0,0,0-.64,1v.11a1,1,0,0,0,.73.91C527.11,179.9,527.08,179.2,527.07,178.56Z"/><path class="cls-18" d="M568.44,179c-.24-1.52-1.2-4.09-11.07-4.09,0,0-5-4.35-8-4.91-1.42-.27-8.92-2.19-22,7.52-1,.71,0,4.53,0,4.53H530a3.78,3.78,0,0,1,7.56,0H557a3.78,3.78,0,0,1,7.56,0h3c.5,0,.91-.22.9-.73Z"/><path class="cls-18" d="M527,181.12c-.14,0-.09.15-.09.35V182c0,.2,0,0,.09,0h3s.06-.89.17-.89Z"/><path class="cls-18" d="M568.41,181.12h-4c.11,0,.17.89.17.89h3.8c.14,0,.39.2.39,0v-.54C568.79,181.27,568.54,181.12,568.41,181.12Z"/><path class="cls-18" d="M537.36,181.12c.11,0,.17.89.17.89H557s.06-.89.17-.89Z"/><path class="cls-18" d="M543.38,172.06a23.88,23.88,0,0,0-8.94,3.27h8.94Z"/><path class="cls-18" d="M545.16,175.32h9.5c-3.79-3.57-6.94-3.69-6.94-3.69a21.79,21.79,0,0,0-2.56.26Z"/><circle class="cls-18" cx="560.77" cy="182.81" r="2.28"/><circle class="cls-18" cx="533.79" cy="182.81" r="2.28"/><path class="cls-18" d="M567.14,178c.14-.18.07-.28.33-.31a2.26,2.26,0,0,1,.43,1.58h0v1c-.89-.07-.2-.2-.44-.38A1.32,1.32,0,0,1,567.14,178Z"/><line class="cls-18" x1="545.6" y1="177.11" x2="549.17" y2="177.11"/><line class="cls-19" x1="282.49" y1="130.51" x2="312.66" y2="130.51"/><line class="cls-19" x1="325.64" y1="130.51" x2="355.81" y2="130.51"/><line class="cls-19" x1="369.36" y1="130.51" x2="399.53" y2="130.51"/><rect class="cls-2" x="480.45" y="112.51" width="35.02" height="11.07" rx="1" ry="1"/><path class="cls-3" d="M514.47,113.51v9.07h-33v-9.07h33m0-2h-33a2,2,0,0,0-2,2v9.07a2,2,0,0,0,2,2h33a2,2,0,0,0,2-2v-9.07a2,2,0,0,0-2-2Z"/><rect class="cls-2" x="480.45" y="128.14" width="35.02" height="59.43" rx="1" ry="1"/><path class="cls-3" d="M514.47,129.14v57.43h-33V129.14h33m0-2h-33a2,2,0,0,0-2,2v57.43a2,2,0,0,0,2,2h33a2,2,0,0,0,2-2V129.14a2,2,0,0,0-2-2Z"/><line class="cls-18" x1="576.56" y1="132.71" x2="617.81" y2="132.71"/><line class="cls-18" x1="576.56" y1="139.89" x2="617.81" y2="139.89"/><line class="cls-18" x1="576.56" y1="147.07" x2="617.81" y2="147.07"/><line class="cls-18" x1="576.56" y1="168.03" x2="617.81" y2="168.03"/><line class="cls-18" x1="576.56" y1="175.21" x2="617.81" y2="175.21"/><line class="cls-18" x1="576.56" y1="182.39" x2="617.81" y2="182.39"/><line class="cls-18" x1="526.44" y1="150.34" x2="566.24" y2="150.34"/><line class="cls-18" x1="526.44" y1="185.89" x2="566.24" y2="185.89"/><line class="cls-20" x1="527.56" y1="118.48" x2="547.8" y2="118.48"/><line class="cls-20" x1="552.92" y1="118.48" x2="573.16" y2="118.48"/><line class="cls-20" x1="578.28" y1="118.48" x2="598.52" y2="118.48"/><line class="cls-20" x1="603.64" y1="118.48" x2="617.81" y2="118.48"/><line class="cls-20" x1="491.7" y1="138.58" x2="510" y2="138.58"/><line class="cls-20" x1="486.16" y1="138.58" x2="488.08" y2="138.58"/><line class="cls-20" x1="491.7" y1="147.07" x2="510" y2="147.07"/><line class="cls-20" x1="486.16" y1="147.07" x2="488.08" y2="147.07"/><line class="cls-20" x1="491.7" y1="155.55" x2="510" y2="155.55"/><line class="cls-20" x1="486.16" y1="155.55" x2="488.08" y2="155.55"/><line class="cls-20" x1="491.7" y1="164.04" x2="510" y2="164.04"/><line class="cls-20" x1="486.16" y1="164.04" x2="488.08" y2="164.04"/><line class="cls-20" x1="491.7" y1="172.52" x2="510" y2="172.52"/><line class="cls-20" x1="486.16" y1="172.52" x2="488.08" y2="172.52"/><path class="cls-1" d="M900.86,149.45l25.58-6.66a103.58,103.58,0,0,1,9.5,24.16c3,12.75,4.21,22.44,4.21,22.44l15.9,35.32-7.61,1.75-20-32.57-10.31-26h-6.2l-8.88,23.59-1.79,36.92H894.2l-6-36.92Z"/></g></g></svg>