<svg xmlns="http://www.w3.org/2000/svg" viewBox="0 0 690.71 205.58"><defs><style>.cls-1,.cls-14{fill:none;}.cls-1,.cls-10,.cls-14,.cls-2,.cls-4,.cls-8{stroke:#fff;}.cls-1,.cls-14,.cls-4,.cls-8{stroke-linecap:round;}.cls-1,.cls-10,.cls-14,.cls-4,.cls-8{stroke-linejoin:round;stroke-width:2px;}.cls-11,.cls-13,.cls-2,.cls-5,.cls-7,.cls-9{fill:#fff;}.cls-2{stroke-miterlimit:10;}.cls-3,.cls-4{fill:#87c22e;}.cls-5{font-size:13px;}.cls-11,.cls-13,.cls-5,.cls-9{font-family:ArialMT, Arial;}.cls-10,.cls-6,.cls-8{fill:#0080b1;}.cls-9{font-size:20.36px;}.cls-11{font-size:23.5px;}.cls-12{letter-spacing:-0.02em;}.cls-13{font-size:16.27px;}.cls-14{stroke-dasharray:3 6;}</style></defs><title>buy-mouse</title><g id="Layer_2" data-name="Layer 2"><g id="texts"><rect class="cls-1" x="360.71" y="28.13" width="329" height="176.46" rx="5.37" ry="5.37"/><rect class="cls-1" x="431.71" y="52.58" width="128" height="17"/><rect class="cls-1" x="367.21" y="52.58" width="57.46" height="17"/><rect class="cls-1" x="559.71" y="52.58" width="20" height="17"/><path class="cls-2" d="M574.58,65.36l-2.45-2.45a4.19,4.19,0,1,0-1.26,1.14l2.51,2.51a.85.85,0,1,0,1.2-1.2Zm-4.43-2.08a3.16,3.16,0,1,1,1.24-1.1A3.13,3.13,0,0,1,570.15,63.28Z"/><line class="cls-1" x1="431.75" y1="100.13" x2="579.71" y2="100.13"/><line class="cls-1" x1="431.75" y1="107.6" x2="579.71" y2="107.6"/><line class="cls-1" x1="431.75" y1="114.28" x2="488.75" y2="114.28"/><rect class="cls-1" x="431.75" y="86.43" width="44.05" height="7"/><line class="cls-1" x1="431.75" y1="139.33" x2="579.71" y2="139.33"/><line class="cls-1" x1="431.75" y1="146.8" x2="579.71" y2="146.8"/><line class="cls-1" x1="431.75" y1="153.48" x2="488.75" y2="153.48"/><rect class="cls-1" x="431.75" y="125.63" width="73.98" height="7"/><line class="cls-1" x1="431.75" y1="177.36" x2="579.71" y2="177.36"/><line class="cls-1" x1="431.75" y1="184.83" x2="579.71" y2="184.83"/><line class="cls-1" x1="431.75" y1="191.51" x2="488.75" y2="191.51"/><rect class="cls-1" x="431.75" y="163.66" width="24.97" height="7"/><path class="cls-3" d="M464.61,90.9l25.64,23.74a2.26,2.26,0,0,1-1.36,3.93L482,119l4.3,9.17-12.44,5.42-3.87-8.74-5.24,5.28a2.4,2.4,0,0,1-4.09-1.57v-36A2.4,2.4,0,0,1,464.61,90.9Z"/><polygon class="cls-4" points="464.61 96.53 484.47 114.82 475.77 115.35 480.86 126.13 475.84 128.33 470.99 117.77 464.61 124.25 464.61 96.53"/><rect class="cls-1" x="595.08" y="93.58" width="78.98" height="84"/><rect class="cls-1" x="602.73" y="100.58" width="23.5" height="7"/><rect class="cls-1" x="602.73" y="114.28" width="64.48" height="28.3"/><rect class="cls-1" x="602.73" y="156.99" width="11.75" height="11.75"/><rect class="cls-1" x="620.35" y="156.99" width="11.75" height="11.75"/><rect class="cls-1" x="637.97" y="156.99" width="11.75" height="11.75"/><rect class="cls-1" x="655.59" y="156.99" width="11.75" height="11.75"/><line class="cls-1" x1="602.73" y1="149.99" x2="634.04" y2="149.99"/><rect class="cls-1" x="659.04" y="52.58" width="18.28" height="18.28" rx="9.05" ry="9.05"/><rect class="cls-1" x="634.7" y="52.58" width="18.28" height="18.28" rx="9.05" ry="9.05"/><line class="cls-1" x1="360.71" y1="45.57" x2="689.71" y2="45.57"/><rect class="cls-1" x="613.52" y="53.6" width="3.59" height="3.59"/><rect class="cls-1" x="620.21" y="53.6" width="3.59" height="3.59"/><rect class="cls-1" x="626.91" y="53.6" width="3.59" height="3.59"/><rect class="cls-1" x="613.52" y="59.93" width="3.59" height="3.59"/><rect class="cls-1" x="620.21" y="59.93" width="3.59" height="3.59"/><rect class="cls-1" x="626.91" y="59.93" width="3.59" height="3.59"/><rect class="cls-1" x="613.52" y="66.26" width="3.59" height="3.59"/><rect class="cls-1" x="620.21" y="66.26" width="3.59" height="3.59"/><rect class="cls-1" x="626.91" y="66.26" width="3.59" height="3.59"/><path class="cls-1" d="M661.3,66.78v0a3.23,3.23,0,0,1,3.23-3.23h7.15a3.23,3.23,0,0,1,3.23,3.23v.53"/><path class="cls-1" d="M668.3,61.73h-.05a2.37,2.37,0,0,1-2.36-2.21l-.11-1.59a2.37,2.37,0,0,1,2.36-2.53h.27a2.37,2.37,0,0,1,2.36,2.53l-.11,1.59A2.37,2.37,0,0,1,668.3,61.73Z"/><line class="cls-1" x1="360.71" y1="76.62" x2="689.71" y2="76.62"/><line class="cls-1" x1="376.21" y1="37.39" x2="482.21" y2="37.39"/><line class="cls-1" x1="676.81" y1="34.22" x2="682.29" y2="39.7"/><line class="cls-1" x1="676.81" y1="39.7" x2="682.29" y2="34.22"/><line class="cls-1" x1="669.21" y1="37.39" x2="661.21" y2="37.39"/><text class="cls-5" transform="translate(382.21 66.44)">SEO</text><text class="cls-5" transform="translate(412.63 105.33)">1</text><circle class="cls-1" cx="416.24" cy="100.58" r="8.42"/><rect class="cls-6" x="1" y="34.28" width="212" height="167" rx="6" ry="6"/><path class="cls-7" d="M207,35.28a5,5,0,0,1,5,5v155a5,5,0,0,1-5,5H7a5,5,0,0,1-5-5v-155a5,5,0,0,1,5-5H207m0-2H7a7,7,0,0,0-7,7v155a7,7,0,0,0,7,7H207a7,7,0,0,0,7-7v-155a7,7,0,0,0-7-7Z"/><line class="cls-8" x1="2" y1="55.28" x2="212" y2="55.28"/><rect class="cls-6" x="83.5" y="42.97" width="119.5" height="4.63" rx="1" ry="1"/><path class="cls-7" d="M202,44V46.6H84.5V44H202m0-2H84.5a2,2,0,0,0-2,2V46.6a2,2,0,0,0,2,2H202a2,2,0,0,0,2-2V44a2,2,0,0,0-2-2Z"/><rect class="cls-6" x="177.5" y="40.98" width="25.5" height="8.61" rx="1" ry="1"/><path class="cls-7" d="M202,42v6.61H178.5V42H202m0-2H178.5a2,2,0,0,0-2,2v6.61a2,2,0,0,0,2,2H202a2,2,0,0,0,2-2V42a2,2,0,0,0-2-2Z"/><circle class="cls-6" cx="24.5" cy="45.28" r="6"/><path class="cls-7" d="M24.5,40.28a5,5,0,1,1-5,5,5,5,0,0,1,5-5m0-2a7,7,0,1,0,7,7,7,7,0,0,0-7-7Z"/><circle class="cls-6" cx="39.5" cy="45.28" r="6"/><path class="cls-7" d="M39.5,40.28a5,5,0,1,1-5,5,5,5,0,0,1,5-5m0-2a7,7,0,1,0,7,7,7,7,0,0,0-7-7Z"/><circle class="cls-6" cx="54.5" cy="45.28" r="6"/><path class="cls-7" d="M54.5,40.28a5,5,0,1,1-5,5,5,5,0,0,1,5-5m0-2a7,7,0,1,0,7,7,7,7,0,0,0-7-7Z"/><rect class="cls-6" x="19" y="61.78" width="38.5" height="22" rx="1" ry="1"/><path class="cls-7" d="M56.5,62.78v20H20v-20H56.5m0-2H20a2,2,0,0,0-2,2v20a2,2,0,0,0,2,2H56.5a2,2,0,0,0,2-2v-20a2,2,0,0,0-2-2Z"/><rect class="cls-6" x="139" y="66.78" width="12" height="12" rx="1" ry="1"/><path class="cls-7" d="M150,67.78v10H140v-10h10m0-2H140a2,2,0,0,0-2,2v10a2,2,0,0,0,2,2h10a2,2,0,0,0,2-2v-10a2,2,0,0,0-2-2Z"/><rect class="cls-6" x="19" y="131.78" width="39.4" height="14.5" rx="1" ry="1"/><path class="cls-7" d="M57.4,132.78v12.5H20v-12.5H57.4m0-2H20a2,2,0,0,0-2,2v12.5a2,2,0,0,0,2,2H57.4a2,2,0,0,0,2-2v-12.5a2,2,0,0,0-2-2Z"/><rect class="cls-6" x="56.5" y="131.78" width="42" height="14.5" rx="1" ry="1"/><path class="cls-7" d="M97.5,132.78v12.5h-40v-12.5h40m0-2h-40a2,2,0,0,0-2,2v12.5a2,2,0,0,0,2,2h40a2,2,0,0,0,2-2v-12.5a2,2,0,0,0-2-2Z"/><rect class="cls-6" x="96.5" y="131.78" width="34.5" height="14.5" rx="1" ry="1"/><path class="cls-7" d="M130,132.78v12.5H97.5v-12.5H130m0-2H97.5a2,2,0,0,0-2,2v12.5a2,2,0,0,0,2,2H130a2,2,0,0,0,2-2v-12.5a2,2,0,0,0-2-2Z"/><line class="cls-8" x1="20" y1="157.78" x2="59.82" y2="157.78"/><line class="cls-8" x1="157.5" y1="70.28" x2="180" y2="70.28"/><line class="cls-8" x1="157.5" y1="77.78" x2="197.32" y2="77.78"/><line class="cls-8" x1="20" y1="165.28" x2="130" y2="165.28"/><line class="cls-8" x1="20" y1="172.78" x2="130" y2="172.78"/><line class="cls-8" x1="20" y1="180.28" x2="130" y2="180.28"/><line class="cls-8" x1="20" y1="177.78" x2="130" y2="177.78"/><rect class="cls-6" x="141.5" y="131.78" width="59.5" height="62" rx="1" ry="1"/><path class="cls-7" d="M200,132.78v60H142.5v-60H200m0-2H142.5a2,2,0,0,0-2,2v60a2,2,0,0,0,2,2H200a2,2,0,0,0,2-2v-60a2,2,0,0,0-2-2Z"/><path class="cls-7" d="M200,90.28v32.5H20V90.28H200m0-2H20a2,2,0,0,0-2,2v32.5a2,2,0,0,0,2,2H200a2,2,0,0,0,2-2V90.28a2,2,0,0,0-2-2Z"/><line class="cls-8" x1="200" y1="114.78" x2="20" y2="114.78"/><path class="cls-6" d="M34.09,113.55a1,1,0,0,1-.26,0A2.47,2.47,0,0,1,32,111.24v-.17a2.5,2.5,0,0,1,1.58-2.42,1,1,0,0,1,1.38.92c0,1,.06,2,.14,2.89a1,1,0,0,1-1,1.1Z"/><path class="cls-7" d="M33.94,109.58c0,1,.05,2,.15,3A1.48,1.48,0,0,1,33,111.19V111a1.5,1.5,0,0,1,1-1.45m0-2a2,2,0,0,0-.75.15,3.5,3.5,0,0,0-2.2,3.39v.17a3.47,3.47,0,0,0,2.57,3.2,2,2,0,0,0,2.51-2.12c-.08-.85-.13-1.82-.14-2.8a2,2,0,0,0-2-2Z"/><path class="cls-6" d="M34.43,116.28a1,1,0,0,1-1-.76c-.47-2-1.39-6.78.38-8.09C47.36,97.37,57.2,95.26,63.07,95.26a21.54,21.54,0,0,1,4.31.42l.16,0c4.26.8,10.73,6.12,12.18,7.35,13.78.06,16.51,3.52,17.14,6.66a.92.92,0,0,1,.14.48v5.12a1,1,0,0,1-1,1Z"/><path class="cls-7" d="M63.07,96.26a20.78,20.78,0,0,1,4.29.43c4.5.84,12,7.41,12,7.41,14.79,0,16.22,4.18,16.58,6.18H96v5H34.43s-1.42-6,0-7.05c13.75-10.23,23.39-12,28.64-12m0-2h0c-6,0-16.08,2.15-29.83,12.38-1.65,1.22-1.9,4.28-.75,9.12a2,2,0,0,0,1.95,1.53H96a2,2,0,0,0,2-2v-5.12a2,2,0,0,0-.2-.87c-1.14-4.91-6.66-7.16-17.71-7.26-2-1.66-8.07-6.53-12.36-7.33l-.16,0a22.51,22.51,0,0,0-4.5-.44Z"/><path class="cls-6" d="M33.78,116.28c-.73,0-1.78-.65-1.78-1.53v-.81a1.94,1.94,0,0,1,1.78-1.66h62.1c.84,0,1.12.88,1.12,1.66v.81c0,.86-.34,1.53-1.12,1.53Z"/><path class="cls-7" d="M95.89,113.28c.21,0,.11.36.11.66v.81c0,.3.09.53-.11.53H33.78c-.21,0-.78-.23-.78-.53v-.81c0-.3.58-.66.78-.66H96m-.11-2H33.78A2.93,2.93,0,0,0,31,113.94v.81a2.8,2.8,0,0,0,2.78,2.53h62.1c1.32,0,2.11-1.12,2.11-2.53v-.81c0-1.45-.79-2.66-2.11-2.66Z"/><path class="cls-6" d="M47,103.28a77.92,77.92,0,0,1,7.15-3.14,31.68,31.68,0,0,1,9.63-1.59h.64a13.63,13.63,0,0,1,7.62,2.82,8.65,8.65,0,0,1,2.34,1.91Z"/><path class="cls-7" d="M63.8,99.54h.62a12.51,12.51,0,0,1,7.06,2.64s.07.1.1.1H51.35c1,0,2.08-.85,3.13-1.19a30.7,30.7,0,0,1,9.32-1.56m0-2a32.69,32.69,0,0,0-9.93,1.62,40.18,40.18,0,0,0-7.49,3.28c-.71.4-1.41.85-2.09,1.31-.14.09-.56.53-.73.53H76.85c-1.28-1-2.68-2.65-4.21-3.73a14.58,14.58,0,0,0-8.17-3l-.67,0Z"/><rect class="cls-6" x="60" y="99.28" height="4"/><polygon class="cls-7" points="61 98.28 59 98.28 59 104.28 61 104.28 61 98.28 61 98.28"/><circle class="cls-6" cx="84.56" cy="115.65" r="5.44"/><path class="cls-7" d="M84.56,111.21a4.44,4.44,0,1,1-4.44,4.44,4.43,4.43,0,0,1,4.44-4.44m0-2A6.44,6.44,0,1,0,91,115.65a6.44,6.44,0,0,0-6.43-6.44Z"/><circle class="cls-6" cx="43.99" cy="115.65" r="5.44"/><path class="cls-7" d="M44,111.21a4.44,4.44,0,1,1-4.44,4.44A4.43,4.43,0,0,1,44,111.21m0-2a6.44,6.44,0,1,0,6.43,6.44A6.44,6.44,0,0,0,44,109.21Z"/><rect class="cls-6" x="61" y="105.28" width="5" height="2" rx="0.77" ry="0.77"/><path class="cls-7" d="M66,105.28H62.1a1.49,1.49,0,0,0-1.1,1.13v.46c0,.42.67.41,1.1.41H66c.42,0,1,0,1-.41v-.46c0-.42-.61-1.13-1-1.13Z"/><path class="cls-6" d="M95.87,113a2.08,2.08,0,0,1-1.49-.69l-.08-.09c-1.52-1.19-2-3-1.09-4.18a2.3,2.3,0,0,1,1.62-.84h.1a1,1,0,0,1,.78.38,5.29,5.29,0,0,1,1.3,3v1.45a1,1,0,0,1-1,1Z"/><path class="cls-7" d="M94.92,108.24A4.29,4.29,0,0,1,96,110.6v1.45c-1-.11-.74-.3-1.09-.57-1.06-.83-1.47-2.07-.92-2.78a1.3,1.3,0,0,1,.93-.46m0-2h-.19a3.29,3.29,0,0,0-2.31,1.22c-1.24,1.59-.71,4,1.22,5.56a3.1,3.1,0,0,0,2.11,1l.26,0a2,2,0,0,0,2-2V110.6a6.23,6.23,0,0,0-1.51-3.6,2,2,0,0,0-1.57-.76Z"/><text class="cls-9" transform="translate(147.5 157.78)">SALE</text><line class="cls-10" x1="18.36" y1="98.52" x2="33.69" y2="98.52"/><line class="cls-10" x1="18.36" y1="93.84" x2="27.06" y2="93.84"/><line class="cls-10" x1="18.36" y1="103.54" x2="24.62" y2="103.54"/><path class="cls-7" d="M163.31,186.28c-2.83,0-4.86-2.28-6.21-7-.1-.34-.18-.66-.26-1a17.38,17.38,0,0,1-.38-2.08,9.73,9.73,0,0,1,0-2.49,5.68,5.68,0,0,1,.56-1.81c1.39-2.66,4.52-2.86,7-3a13,13,0,0,0,2.53-.31,2.45,2.45,0,0,1,.69-.1c2.94,0,5.07,5.26,5.58,8.82.47,3.24-.26,5.38-2,5.89a12.81,12.81,0,0,0-2.31,1.13c-1.59.9-3.39,1.92-5.25,1.92Z"/><path class="cls-6" d="M167.28,169.52c3.37,0,6.68,11.76,3.31,12.75-2,.58-4.71,3-7.28,3-2,0-3.86-1.44-5.25-6.25-.09-.32-.18-.64-.25-.94a16.29,16.29,0,0,1-.36-2,8.68,8.68,0,0,1,0-2.23,4.67,4.67,0,0,1,.46-1.5c1.61-3.1,6.5-2.1,9-2.82a1.45,1.45,0,0,1,.41-.06m-5.68,12.17a.43.43,0,0,0,.23-.07l.75-.46a.72.72,0,0,0,.3-.76l-1.35-4.69a.72.72,0,0,0-.65-.49H160a.37.37,0,0,0-.37.5l1.63,5.68a.37.37,0,0,0,.35.29m5.68-14.17a3.45,3.45,0,0,0-1,.14,12.53,12.53,0,0,1-2.31.27c-2.62.16-6.21.39-7.86,3.55a6.69,6.69,0,0,0-.67,2.13,10.72,10.72,0,0,0,0,2.75,18.37,18.37,0,0,0,.4,2.2c.08.33.17.67.27,1,.55,1.91,2.21,7.7,7.17,7.7,2.13,0,4-1.09,5.75-2a12.39,12.39,0,0,1,2.1-1c1.07-.31,3.47-1.62,2.7-7-.54-3.74-2.8-9.68-6.57-9.68Z"/><path class="cls-7" d="M172.69,178.19a1,1,0,0,1-1-.72l-1.28-4.4a1,1,0,0,1,.66-1.23l7.06-2.18a1,1,0,0,1,.59,0l.75.23,1-.73a1,1,0,0,1,.61-.21,1,1,0,0,1,.26,0l1.1.3,1.84-1.15a1,1,0,0,1,.91-.08l2.3.94a1,1,0,0,1,.59.67l.38,1.42a1,1,0,0,1-.15.84l-1.39,2a1,1,0,0,1-.82.42l-2.21,0-.75.86a1,1,0,0,1-.75.34l-1.31-.08-.32.5a1,1,0,0,1-.6.43l-7.23,1.83A1,1,0,0,1,172.69,178.19Z"/><path class="cls-6" d="M184.82,169l2.3.94.38,1.43-1.39,2-2.66-.06-1.06,1.21-1.84-.12-.64,1-7.23,1.83-1.28-4.4,7.06-2.18,1.25.38,1.36-1.05,1.52.41,2.22-1.38m0-2a2,2,0,0,0-1.06.3l-1.47.92-.68-.18a2,2,0,0,0-1.75.35l-.54.42-.26-.08a2,2,0,0,0-1.18,0l-7.06,2.18a2,2,0,0,0-1.33,2.47l1.28,4.4a2,2,0,0,0,2.41,1.38l7.23-1.83a2,2,0,0,0,1.2-.87h0l.66,0h.13a2,2,0,0,0,1.51-.69l.44-.51,1.72,0h0a2,2,0,0,0,1.64-.85l1.39-2a2,2,0,0,0,.29-1.67l-.38-1.43a2,2,0,0,0-1.18-1.33l-2.3-.94a2,2,0,0,0-.75-.15Z"/><rect class="cls-6" x="126" y="93.78" width="67" height="27" rx="7" ry="7"/><path class="cls-7" d="M186,94.78a6,6,0,0,1,6,6v13a6,6,0,0,1-6,6H133a6,6,0,0,1-6-6v-13a6,6,0,0,1,6-6h53m0-2H133a8,8,0,0,0-8,8v13a8,8,0,0,0,8,8h53a8,8,0,0,0,8-8v-13a8,8,0,0,0-8-8Z"/><text class="cls-11" transform="translate(135.67 115.73)">BU<tspan class="cls-12" x="32.64" y="0">Y</tspan></text><path class="cls-8" d="M185.47,34.42,214.13,55.5l15.44-15.93-15.18-1.92,2.86-15.93-14.17,7.62L196.75,15Z"/><text class="cls-13" transform="matrix(0.81, 0.59, -0.59, 0.81, 198.03, 39.3)">1</text><line class="cls-14" x1="213.76" y1="14.19" x2="212.15" y2="1"/><line class="cls-14" x1="227.43" y1="22.3" x2="240.62" y2="20.69"/><line class="cls-14" x1="221.07" y1="14.98" x2="228.8" y2="5.11"/><line class="cls-14" x1="207.24" y1="17.2" x2="199.84" y2="11.41"/><line class="cls-14" x1="232.12" y1="33.6" x2="224.72" y2="27.81"/><polyline class="cls-14" points="212.95 121.63 302.5 121.63 302.5 103.61 391.65 103.61"/><polygon class="cls-7" points="390.84 97.54 390.84 109.69 396.91 103.61 390.84 97.54"/></g></g></svg>