<svg xmlns="http://www.w3.org/2000/svg" viewBox="0 0 434.62 257.85"><defs><style>.cls-1,.cls-2,.cls-6,.cls-7{fill:#fff;}.cls-1,.cls-5,.cls-6,.cls-7{stroke:#0080b1;}.cls-1,.cls-4,.cls-5,.cls-7{stroke-linecap:round;stroke-linejoin:round;}.cls-1,.cls-4,.cls-5,.cls-6,.cls-7{stroke-width:2px;}.cls-3{fill:#0080b1;}.cls-4,.cls-5{fill:none;}.cls-4{stroke:#fff;}.cls-6{stroke-miterlimit:10;}.cls-7{stroke-dasharray:3 6;}</style></defs><title>car-signs</title><g id="Layer_2" data-name="Layer 2"><g id="texts"><rect class="cls-1" x="9.6" y="26.12" width="108.28" height="69.69"/><path class="cls-2" d="M70.74,154a7,7,0,0,1-6-3.43A7,7,0,0,1,67.2,141L92.77,126,92,91.21a1.88,1.88,0,0,1-.17-.72L91.63,85a2,2,0,0,1,1.61-2l.33,0a1.94,1.94,0,0,1,1.91,1.62L96.4,90a1,1,0,0,1,0,.38l6.23,35.37a4.38,4.38,0,0,1-1,5.65l-26.53,21a7.56,7.56,0,0,1-.79.54,7,7,0,0,1-3.53,1Z"/><path class="cls-3" d="M93.57,84a.94.94,0,0,1,.93.78l.92,5.4-.17-.52,6.42,36.46a3.37,3.37,0,0,1-.7,4.5l-.4.32L74.44,151.68a6.64,6.64,0,0,1-.68.47,6,6,0,0,1-6.05-10.27l26.07-15.36L93,91l-.08-.17a.88.88,0,0,1-.08-.35L92.63,85a.94.94,0,0,1,.78-1h.16m0-2h0a2.94,2.94,0,0,0-2.94,3l.19,5.47a2.85,2.85,0,0,0,.17.89l.76,34L66.69,140.15a8,8,0,1,0,8.08,13.72,8.65,8.65,0,0,0,.89-.61l26.14-20.73.4-.32a5.39,5.39,0,0,0,1.36-6.78l-6.17-35a2,2,0,0,0,0-.53l-.92-5.4A2.93,2.93,0,0,0,93.57,82Z"/><path class="cls-2" d="M58.71,154a7,7,0,0,1-3.53-1,7.5,7.5,0,0,1-.79-.54l-26.54-21a4.38,4.38,0,0,1-1-5.65l6.23-35.36A1,1,0,0,1,33,90l.92-5.4A1.94,1.94,0,0,1,35.88,83l.33,0a2,2,0,0,1,1.62,2l-.19,5.47a1.87,1.87,0,0,1-.17.72L36.69,126,62.25,141a7,7,0,0,1,2.46,9.53A7,7,0,0,1,58.71,154Z"/><path class="cls-3" d="M35.88,84H36a.94.94,0,0,1,.78,1l-.19,5.47a.88.88,0,0,1-.08.35l-.08.17-.79,35.54,26.07,15.36a6,6,0,1,1-6.05,10.27,6.64,6.64,0,0,1-.68-.47L28.88,131l-.4-.32a3.37,3.37,0,0,1-.7-4.5L34.2,89.68l-.17.52L35,84.8a.94.94,0,0,1,.93-.78m0-2A2.93,2.93,0,0,0,33,84.46l-.92,5.4a2,2,0,0,0,0,.53l-6.17,35a5.39,5.39,0,0,0,1.36,6.78l.4.32,26.13,20.72a8.65,8.65,0,0,0,.9.62,8,8,0,1,0,8.08-13.72L37.7,125.39l.76-34a2.86,2.86,0,0,0,.18-.89l.19-5.47a2.94,2.94,0,0,0-2.94-3Z"/><path class="cls-2" d="M64.55,205.62c-9.33,0-14.9-4.9-14.9-13.11,0-7.23,12-51.89,12.55-53.79a1,1,0,0,1,1-.74h4.07a1,1,0,0,1,1,.77c.46,1.9,11.23,46.71,11.23,53.76C79.44,200.72,73.87,205.62,64.55,205.62Z"/><path class="cls-3" d="M67.24,139s11.2,46.52,11.2,53.52c0,8.46-6.22,12.11-13.9,12.11s-13.9-3.66-13.9-12.11c0-7.18,12.52-53.52,12.52-53.52h4.07m0-2H63.17a2,2,0,0,0-1.93,1.48c-.51,1.9-12.59,46.69-12.59,54,0,8.71,6.09,14.11,15.9,14.11s15.9-5.41,15.9-14.11c0-7.16-10.8-52.08-11.26-54A2,2,0,0,0,67.24,137Z"/><path class="cls-2" d="M64.35,138.07l-.5,0c-2.7-.25-5.18-2.57-7-6.53a21.62,21.62,0,0,1-2-10,10.39,10.39,0,0,1,10.38-9.47q.49,0,1,0a10.44,10.44,0,0,1,9.43,11.36c-.48,5.13-5.48,14.6-11.34,14.6Z"/><path class="cls-3" d="M65.29,113.06q.44,0,.89,0a9.44,9.44,0,0,1,8.52,10.27c-.47,5.06-5.3,13.69-10.35,13.69l-.41,0c-5.19-.48-8.53-10.23-8-15.42a9.44,9.44,0,0,1,9.39-8.57m0-2a11.38,11.38,0,0,0-11.38,10.38A22.69,22.69,0,0,0,56,131.92c1.94,4.3,4.71,6.83,7.79,7.11l.59,0c6.65,0,11.84-10.18,12.34-15.51a11.44,11.44,0,0,0-10.33-12.45c-.36,0-.72,0-1.07,0Z"/><path class="cls-2" d="M21.12,63.8a2.16,2.16,0,0,0-1.37,2.08v.24a2.12,2.12,0,0,0,1.57,2C21.2,66.68,21.13,65.17,21.12,63.8Z"/><path class="cls-2" d="M110.2,64.76c-.53-3.25-2.58-8.85-23.83-8.85,0,0-10.76-9.39-17.23-10.6-3.05-.57-19.2-4.31-47.32,16.6-2,1.52,0,10.16,0,10.16h5.55c0-5.69,3.64-8.13,8.13-8.13s8.13,2.44,8.13,8.13h42c0-5.69,3.64-8.13,8.14-8.13s8.13,2.44,8.13,8.13h8.47V64.76Z"/><path class="cls-2" d="M20.89,68.83c-.29,0-.74.82-.74,1.25v1.16a.92.92,0,0,0,.74.84h6.48a15.32,15.32,0,0,1,.36-3.25Z"/><path class="cls-2" d="M110.13,68.83h-8.55a15.32,15.32,0,0,1,.36,3.25h8.19c.29,0,.28-.41.28-.84V70.08C110.4,69.65,110.42,68.83,110.13,68.83Z"/><path class="cls-2" d="M43.28,68.83a15.32,15.32,0,0,1,.36,3.25h42A15.32,15.32,0,0,1,86,68.83Z"/><path class="cls-2" d="M57.55,48.32a57,57,0,0,0-22.62,9.13H57.55Z"/><path class="cls-2" d="M60.81,57.45h22c-9.26-9.76-16.33-9.58-16.33-9.58a38.75,38.75,0,0,0-5.64.06Z"/><circle class="cls-2" cx="35.56" cy="72.53" r="5.64"/><circle class="cls-2" cx="94.1" cy="72.53" r="5.64"/><path class="cls-2" d="M107.41,62.55a2,2,0,0,1,1.39-.66,6.31,6.31,0,0,1,1.61,3.39h0v2.08a3.23,3.23,0,0,1-1.63-.82C107.26,65.35,106.61,63.57,107.41,62.55Z"/><line class="cls-2" x1="60.81" y1="60.7" x2="68.12" y2="60.7"/><path class="cls-4" d="M21.12,63.8a2.16,2.16,0,0,0-1.37,2.08v.24a2.12,2.12,0,0,0,1.57,2C21.2,66.68,21.13,65.17,21.12,63.8Z"/><path class="cls-4" d="M110.2,64.76c-.53-3.25-2.58-8.85-23.83-8.85,0,0-10.76-9.39-17.23-10.6-3.05-.57-19.2-4.31-47.32,16.6-2,1.52,0,10.16,0,10.16h5.55c0-5.69,3.64-8.13,8.13-8.13s8.13,2.44,8.13,8.13h42c0-5.69,3.64-8.13,8.14-8.13s8.13,2.44,8.13,8.13h8.47V64.76Z"/><path class="cls-4" d="M20.89,68.83c-.29,0-.74.82-.74,1.25v1.16a.92.92,0,0,0,.74.84h6.48a15.32,15.32,0,0,1,.36-3.25Z"/><path class="cls-4" d="M110.13,68.83h-8.55a15.32,15.32,0,0,1,.36,3.25h8.19c.29,0,.28-.41.28-.84V70.08C110.4,69.65,110.42,68.83,110.13,68.83Z"/><path class="cls-4" d="M43.28,68.83a15.32,15.32,0,0,1,.36,3.25h42A15.32,15.32,0,0,1,86,68.83Z"/><path class="cls-4" d="M57.55,48.32a57,57,0,0,0-22.62,9.13H57.55Z"/><path class="cls-4" d="M60.81,57.45h22c-9.26-9.76-16.33-9.58-16.33-9.58a38.75,38.75,0,0,0-5.64.06Z"/><circle class="cls-4" cx="35.56" cy="72.53" r="5.64"/><circle class="cls-4" cx="94.1" cy="72.53" r="5.64"/><path class="cls-4" d="M107.41,62.55a2,2,0,0,1,1.39-.66,6.31,6.31,0,0,1,1.61,3.39h0v2.08a3.23,3.23,0,0,1-1.63-.82C107.26,65.35,106.61,63.57,107.41,62.55Z"/><line class="cls-4" x1="60.81" y1="60.7" x2="68.12" y2="60.7"/><path class="cls-3" d="M21.12,63.8c0,1.37.08,2.87.21,4.28a2.12,2.12,0,0,1-1.57-2v-.24a2.16,2.16,0,0,1,1.37-2.08m0-2a2,2,0,0,0-.75.15,4.16,4.16,0,0,0-2.62,4v.25a4.11,4.11,0,0,0,3,3.79,2,2,0,0,0,2.51-2.12c-.12-1.25-.19-2.67-.2-4.1a2,2,0,0,0-2-2Z"/><path class="cls-3" d="M63,44.69a29.84,29.84,0,0,1,6.15.62c6.47,1.21,17.23,10.6,17.23,10.6,21.25,0,23.3,5.6,23.83,8.85h.2v7.32h-8.47c0-5.69-3.64-8.13-8.13-8.13s-8.14,2.44-8.14,8.13h-42c0-5.69-3.64-8.13-8.13-8.13s-8.13,2.44-8.13,8.13H21.82s-2-8.64,0-10.16C41.59,47.21,55.44,44.69,63,44.69m0-2c-8.52,0-22.78,3.06-42.36,17.62-2.56,1.91-1.82,7.7-.75,12.23a2,2,0,0,0,1.95,1.54h5.55a2,2,0,0,0,2-2c0-5.07,3.34-6.13,6.13-6.13s6.13,1.06,6.13,6.13a2,2,0,0,0,2,2h42a2,2,0,0,0,2-2c0-5.07,3.34-6.13,6.14-6.13s6.13,1.06,6.13,6.13a2,2,0,0,0,2,2h8.47a2,2,0,0,0,2-2V64.76a2,2,0,0,0-.41-1.21c-1.11-4.61-5.44-9.52-24.89-9.64-2.39-2-11.5-9.43-17.6-10.57l-.23,0A31.51,31.51,0,0,0,63,42.69Z"/><path class="cls-3" d="M27.73,68.83h0m0,0a15.32,15.32,0,0,0-.36,3.25H20.89a.92.92,0,0,1-.74-.84V70.08c0-.44.45-1.25.74-1.25h6.84m0-2H20.89c-1.8,0-2.74,2.12-2.74,3.25v1.16a2.9,2.9,0,0,0,2.74,2.84h6.48a2,2,0,0,0,2-2,14.48,14.48,0,0,1,.26-2.63,2,2,0,0,0-1.9-2.63Zm0,4h0Z"/><path class="cls-3" d="M110.13,68.83c.29,0,.28.82.28,1.25v1.16c0,.44,0,.84-.28.84h-8.19a15.32,15.32,0,0,0-.36-3.25h8.55m0-2h-8.55a2,2,0,0,0-1.92,2.56,13.78,13.78,0,0,1,.28,2.7,2,2,0,0,0,2,2h8.19a2.21,2.21,0,0,0,1.57-.65,2.79,2.79,0,0,0,.7-2.13V70a3.37,3.37,0,0,0-.75-2.55,2.14,2.14,0,0,0-1.53-.64Z"/><path class="cls-3" d="M86,68.83h0m0,0a15.33,15.33,0,0,0-.36,3.25h-42a15.32,15.32,0,0,0-.36-3.25H86m0-2H43.28a2,2,0,0,0-1.92,2.56,13.78,13.78,0,0,1,.28,2.7,2,2,0,0,0,2,2h42a2,2,0,0,0,2-2,14.49,14.49,0,0,1,.26-2.63A2,2,0,0,0,86,66.83Zm0,4h0Z"/><path class="cls-3" d="M57.55,48.32v9.13H34.93a57,57,0,0,1,22.62-9.13m0-2-.31,0a58.56,58.56,0,0,0-23.5,9.49,2,2,0,0,0,1.19,3.61H57.55a2,2,0,0,0,2-2V48.32a2,2,0,0,0-2-2Z"/><path class="cls-3" d="M63.89,47.79c.84,0,1.7,0,2.56.07h0c.47,0,7.36.16,16.3,9.58h-22V47.93c.92-.09,2-.13,3.08-.13m0-2c-1.2,0-2.3,0-3.27.14a2,2,0,0,0-1.81,2v9.52a2,2,0,0,0,2,2h22a2,2,0,0,0,1.45-3.38c-9.31-9.81-16.77-10.2-17.72-10.2s-1.76-.07-2.61-.07Z"/><path class="cls-3" d="M35.56,66.89a5.64,5.64,0,1,1-5.64,5.64,5.63,5.63,0,0,1,5.64-5.64m0-2a7.64,7.64,0,1,0,7.63,7.64,7.65,7.65,0,0,0-7.63-7.64Z"/><path class="cls-3" d="M94.1,66.89a5.64,5.64,0,1,1-5.64,5.64,5.63,5.63,0,0,1,5.64-5.64m0-2a7.64,7.64,0,1,0,7.63,7.64,7.65,7.65,0,0,0-7.63-7.64Z"/><path class="cls-3" d="M108.79,61.89a6.31,6.31,0,0,1,1.61,3.39v2.08a3.23,3.23,0,0,1-1.63-.82c-1.52-1.19-2.17-3-1.37-4a2,2,0,0,1,1.39-.66m0-2h-.19a3.93,3.93,0,0,0-2.77,1.42c-1.49,1.9-.73,4.89,1.71,6.8l.06.05A5.06,5.06,0,0,0,110,69.32a2,2,0,0,0,2.39-2V65.28a7.9,7.9,0,0,0-2-4.63,2,2,0,0,0-1.57-.76Z"/><line class="cls-5" x1="60.81" y1="60.7" x2="68.12" y2="60.7"/><rect class="cls-1" x="127.17" y="33.04" width="108.17" height="69.18" transform="translate(-8.29 28.92) rotate(-8.92)"/><path class="cls-2" d="M194.79,167.25a7,7,0,0,1-6-3.43,7,7,0,0,1,2.35-9.46l22.47-22.47L212.82,97a1.87,1.87,0,0,1-.17-.72l-.19-5.47a2,2,0,0,1,1.62-2l.33,0a1.94,1.94,0,0,1,1.91,1.62l.92,5.4a1,1,0,0,1,0,.38l6.23,35.36a4.38,4.38,0,0,1-1,5.65l-.32.25-22.85,28.14a1,1,0,0,1-.16.16,7.55,7.55,0,0,1-.79.54,7,7,0,0,1-3.52,1Z"/><path class="cls-3" d="M214.4,89.79a.94.94,0,0,1,.93.78l.92,5.4-.17-.52,6.42,36.46a3.37,3.37,0,0,1-.7,4.5l-.4.32L198.49,165a6.46,6.46,0,0,1-.68.47,6,6,0,1,1-6.05-10.27l22.85-22.86-.79-35.54-.08-.17a.88.88,0,0,1-.08-.35l-.19-5.47a.94.94,0,0,1,.78-1h.16m0-2a2.94,2.94,0,0,0-2.94,3l.19,5.47a2.87,2.87,0,0,0,.18.9l.77,34.28-22.08,22.09a8,8,0,0,0,8.31,13.58,8.51,8.51,0,0,0,.9-.61,2,2,0,0,0,.32-.31l22.78-28.06L223,138a5.39,5.39,0,0,0,1.36-6.78l-6.17-35a2,2,0,0,0,0-.53l-.92-5.4a2.93,2.93,0,0,0-2.9-2.45h0Z"/><path class="cls-2" d="M182.76,167.25a7,7,0,0,1-3.53-1,7.26,7.26,0,0,1-.71-.48l-29.27-15.32-.16-.1-.4-.32a4.38,4.38,0,0,1-1-5.65L153.89,109a1,1,0,0,1,0-.38l.92-5.4a1.94,1.94,0,0,1,1.91-1.62l.33,0a2,2,0,0,1,1.62,2l-.19,5.47a1.88,1.88,0,0,1-.17.72l-.77,34.59,28.59,9.76.18.08a7,7,0,0,1,2.46,9.53A7,7,0,0,1,182.76,167.25Z"/><path class="cls-3" d="M156.71,102.66h.16a.94.94,0,0,1,.78,1l-.19,5.47a.87.87,0,0,1-.08.35l-.08.17-.79,35.54,29.29,10a6,6,0,1,1-6.05,10.27,6.49,6.49,0,0,1-.68-.47L149.72,149.6l-.4-.32a3.37,3.37,0,0,1-.7-4.5L155,108.32l-.17.52.92-5.4a.94.94,0,0,1,.93-.78m0-2a2.93,2.93,0,0,0-2.9,2.45l-.92,5.4a2,2,0,0,0,0,.53l-6.17,35a5.39,5.39,0,0,0,1.36,6.78l.4.32a2,2,0,0,0,.32.21L178,166.66a8.49,8.49,0,0,0,.74.5,8,8,0,0,0,8.08-13.72,2,2,0,0,0-.37-.17l-27.9-9.52.75-33.67a2.85,2.85,0,0,0,.17-.9l.19-5.47a2.95,2.95,0,0,0-2.94-3Z"/><path class="cls-2" d="M188.59,212.42c-9.33,0-14.9-4.9-14.9-13.11,0-7.23,12-51.89,12.55-53.79a1,1,0,0,1,1-.74h4.07a1,1,0,0,1,1,.77c.46,1.9,11.23,46.71,11.23,53.76C203.49,207.52,197.92,212.42,188.59,212.42Z"/><path class="cls-3" d="M191.29,145.78s11.2,46.52,11.2,53.52c0,8.46-6.22,12.11-13.9,12.11s-13.9-3.66-13.9-12.11c0-7.18,12.52-53.52,12.52-53.52h4.07m0-2h-4.07a2,2,0,0,0-1.93,1.48c-.51,1.9-12.59,46.69-12.59,54,0,8.71,6.09,14.11,15.9,14.11s15.9-5.41,15.9-14.11c0-7.16-10.8-52.08-11.26-54a2,2,0,0,0-1.94-1.53Z"/><path class="cls-2" d="M188.29,145.56c-5.28,0-11.5-7-13.11-11.68a10.44,10.44,0,1,1,19.75-6.78c1.73,5.05.9,16.2-4.81,18.15a5.62,5.62,0,0,1-1.83.3Z"/><path class="cls-3" d="M185.06,121.06a9.44,9.44,0,0,1,8.93,6.38c1.69,4.93.74,15.19-4.19,16.88a4.6,4.6,0,0,1-1.5.24c-4.76,0-10.64-6.55-12.17-11a9.45,9.45,0,0,1,8.93-12.51m0-2a11.45,11.45,0,0,0-10.82,15.16c1.69,4.92,8.15,12.35,14.06,12.35a6.61,6.61,0,0,0,2.15-.35c2.92-1,5-4.11,5.89-8.75a22.69,22.69,0,0,0-.46-10.68,11.44,11.44,0,0,0-10.82-7.73Z"/><path class="cls-2" d="M138.55,78a2.16,2.16,0,0,0-1,2.28l.05.24a2.12,2.12,0,0,0,1.87,1.67C139.11,80.86,138.79,79.39,138.55,78Z"/><path class="cls-2" d="M226.55,64.19c-1.06-3.12-4-8.3-25-4.77,0,0-12.17-7.47-18.75-7.59-3.1-.06-19.65-1.06-43.9,24.23-1.77,1.84,1.69,10,1.69,10l5.48-.92c-.95-5.61,2.24-8.63,6.67-9.37s8.43,1.06,9.37,6.67l41.44-7c-.95-5.61,2.24-8.63,6.67-9.37s8.43,1.06,9.37,6.67L228,71.37l-1.22-7.22Z"/><path class="cls-2" d="M139.16,83c-.29,0-.6.93-.52,1.36l.19,1.14a.92.92,0,0,0,.87.71l6.39-1.08a15.32,15.32,0,0,1-.18-3.27Z"/><path class="cls-2" d="M227.15,68.21l-8.43,1.42a15.32,15.32,0,0,1,.9,3.15l8.08-1.36c.29,0,.21-.45.13-.88l-.19-1.14C227.56,69,227.44,68.16,227.15,68.21Z"/><path class="cls-2" d="M161.24,79.31a15.32,15.32,0,0,1,.9,3.15l41.44-7a15.32,15.32,0,0,1-.18-3.27Z"/><path class="cls-2" d="M171.9,56.72a57,57,0,0,0-20.79,12.76l22.31-3.76Z"/><path class="cls-2" d="M176.63,65.18l21.66-3.65c-10.75-8.08-17.69-6.74-17.69-6.74a38.75,38.75,0,0,0-5.55,1Z"/><circle class="cls-2" cx="154.24" cy="84.25" r="5.64" transform="translate(-11.85 26.79) rotate(-9.56)"/><circle class="cls-2" cx="211.96" cy="74.52" r="5.64" transform="translate(-9.43 36.25) rotate(-9.56)"/><path class="cls-2" d="M223.43,62.47a2,2,0,0,1,1.26-.88,6.31,6.31,0,0,1,2.15,3.08h0l.35,2.05a3.23,3.23,0,0,1-1.74-.54C223.75,65.26,222.81,63.6,223.43,62.47Z"/><line class="cls-2" x1="177.17" y1="68.39" x2="184.38" y2="67.17"/><path class="cls-4" d="M138.55,78a2.16,2.16,0,0,0-1,2.28l.05.24a2.12,2.12,0,0,0,1.87,1.67C139.11,80.86,138.79,79.39,138.55,78Z"/><path class="cls-4" d="M226.55,64.19c-1.06-3.12-4-8.3-25-4.77,0,0-12.17-7.47-18.75-7.59-3.1-.06-19.65-1.06-43.9,24.23-1.77,1.84,1.69,10,1.69,10l5.48-.92c-.95-5.61,2.24-8.63,6.67-9.37s8.43,1.06,9.37,6.67l41.44-7c-.95-5.61,2.24-8.63,6.67-9.37s8.43,1.06,9.37,6.67L228,71.37l-1.22-7.22Z"/><path class="cls-4" d="M139.16,83c-.29,0-.6.93-.52,1.36l.19,1.14a.92.92,0,0,0,.87.71l6.39-1.08a15.32,15.32,0,0,1-.18-3.27Z"/><path class="cls-4" d="M227.15,68.21l-8.43,1.42a15.32,15.32,0,0,1,.9,3.15l8.08-1.36c.29,0,.21-.45.13-.88l-.19-1.14C227.56,69,227.44,68.16,227.15,68.21Z"/><path class="cls-4" d="M161.24,79.31a15.32,15.32,0,0,1,.9,3.15l41.44-7a15.32,15.32,0,0,1-.18-3.27Z"/><path class="cls-4" d="M171.9,56.72a57,57,0,0,0-20.79,12.76l22.31-3.76Z"/><path class="cls-4" d="M176.63,65.18l21.66-3.65c-10.75-8.08-17.69-6.74-17.69-6.74a38.75,38.75,0,0,0-5.55,1Z"/><circle class="cls-4" cx="154.24" cy="84.25" r="5.64" transform="translate(-11.85 26.79) rotate(-9.56)"/><circle class="cls-4" cx="211.96" cy="74.52" r="5.64" transform="translate(-9.43 36.25) rotate(-9.56)"/><path class="cls-4" d="M223.43,62.47a2,2,0,0,1,1.26-.88,6.31,6.31,0,0,1,2.15,3.08h0l.35,2.05a3.23,3.23,0,0,1-1.74-.54C223.75,65.26,222.81,63.6,223.43,62.47Z"/><line class="cls-4" x1="177.17" y1="68.39" x2="184.38" y2="67.17"/><path class="cls-3" d="M138.55,78c.24,1.35.55,2.82.92,4.18a2.12,2.12,0,0,1-1.87-1.67l-.05-.24a2.16,2.16,0,0,1,1-2.28m0-2a2,2,0,0,0-1,.3,4.16,4.16,0,0,0-1.91,4.4l.05.24a4.12,4.12,0,0,0,3.64,3.24h.19a2,2,0,0,0,1.93-2.52c-.33-1.21-.63-2.6-.88-4a2,2,0,0,0-2-1.65Z"/><path class="cls-3" d="M181.63,51.81l1.2,0c6.58.12,18.75,7.59,18.75,7.59a74.08,74.08,0,0,1,12.1-1.19c10.15,0,12.06,3.58,12.87,6l.2,0L228,71.37l-8.35,1.41c-.81-4.82-3.87-6.83-7.53-6.83a11.13,11.13,0,0,0-1.85.16c-4.43.75-7.62,3.76-6.67,9.37l-41.44,7c-.81-4.82-3.87-6.83-7.53-6.83a11.14,11.14,0,0,0-1.85.16c-4.43.75-7.62,3.76-6.67,9.37l-5.48.92s-3.45-8.18-1.69-10c22-23,37.69-24.25,42.71-24.25m0-2h0c-7.59,0-23.41,3.23-44.15,24.87-2.21,2.31-.52,7.9,1.29,12.18a2,2,0,0,0,1.84,1.22l.33,0,5.48-.92a2,2,0,0,0,1.64-2.3c-.84-5,2.27-6.6,5-7.07a9.15,9.15,0,0,1,1.51-.13c3.11,0,5,1.74,5.55,5.16a2,2,0,0,0,2,1.67l.33,0,41.44-7a2,2,0,0,0,1.64-2.3,6,6,0,0,1,.91-4.93,6.63,6.63,0,0,1,4.12-2.13,9.14,9.14,0,0,1,1.51-.13c3.11,0,5,1.74,5.56,5.16a2,2,0,0,0,2,1.67l.33,0,8.35-1.41a2,2,0,0,0,1.64-2.3l-1.22-7.22a2,2,0,0,0-.6-1.13c-1.28-3-4.4-6.46-14.44-6.46A74.94,74.94,0,0,0,202,57.33c-2.69-1.59-12.9-7.38-19.12-7.5h-1.23Z"/><path class="cls-3" d="M145.91,81.9h0m0,0a15.32,15.32,0,0,0,.18,3.27l-6.39,1.08h-.06a.94.94,0,0,1-.81-.71l-.19-1.14c-.07-.43.23-1.31.52-1.36l6.74-1.14m0-2h-.07l-.3,0-6.71,1.13c-1.78.3-2.35,2.54-2.16,3.66l.19,1.14a2.94,2.94,0,0,0,2.78,2.38,2.41,2.41,0,0,0,.39,0l6.39-1.08a2,2,0,0,0,1.64-2.3,14.45,14.45,0,0,1-.18-2.63,2,2,0,0,0-2-2.3Zm0,4h0Z"/><path class="cls-3" d="M227.18,68.21c.27,0,.39.77.46,1.19l.19,1.14c.07.43.16.83-.13.88l-8.08,1.36a15.33,15.33,0,0,0-.9-3.15l8.43-1.42h0m0-2-.36,0-8.43,1.42a2,2,0,0,0-1.47,2.84,13.81,13.81,0,0,1,.73,2.61,2,2,0,0,0,2,1.67l.33,0L228,73.39a2.21,2.21,0,0,0,1.45-.9,2.8,2.8,0,0,0,.34-2.22v-.06l-.19-1.14V69c-.11-.69-.47-2.8-2.42-2.8Z"/><path class="cls-3" d="M203.39,72.21h0m0,0a15.33,15.33,0,0,0,.18,3.27l-41.44,7a15.34,15.34,0,0,0-.9-3.15l42.15-7.1m0-2h-.06l-.31,0L160.9,77.34a2,2,0,0,0-1.47,2.84,13.81,13.81,0,0,1,.73,2.61,2,2,0,0,0,2,1.67l.33,0,41.44-7a2,2,0,0,0,1.64-2.3,14.5,14.5,0,0,1-.18-2.63,2,2,0,0,0-2-2.3Zm0,4h0Z"/><path class="cls-3" d="M171.91,56.72l1.52,9-22.31,3.76a57,57,0,0,1,20.79-12.76m0-2a2,2,0,0,0-.63.1,58.57,58.57,0,0,0-21.59,13.26,2,2,0,0,0,1.44,3.39l.33,0,22.31-3.76a2,2,0,0,0,1.64-2.3l-1.52-9a2,2,0,0,0-2-1.67Z"/><path class="cls-3" d="M181.85,54.71c2.46,0,8.38.76,16.44,6.82l-21.66,3.65L175,55.79a38.72,38.72,0,0,1,5.55-1,7.28,7.28,0,0,1,1.25-.08m0-2a9.89,9.89,0,0,0-1.53.1,40.55,40.55,0,0,0-5.79,1,2,2,0,0,0-1.45,2.26l1.58,9.39a2,2,0,0,0,2,1.67l.33,0,21.66-3.65a2,2,0,0,0,.87-3.57c-8.36-6.28-14.64-7.22-17.64-7.22Z"/><path class="cls-3" d="M154.24,78.61a5.64,5.64,0,0,1,.93,11.19,5.63,5.63,0,0,1-6.5-4.62,5.64,5.64,0,0,1,5.57-6.57m0-2a7.64,7.64,0,0,0-7.54,8.91,7.61,7.61,0,0,0,7.52,6.37,7.72,7.72,0,0,0,1.28-.11,7.64,7.64,0,0,0-1.26-15.17Z"/><path class="cls-3" d="M212,68.88a5.64,5.64,0,0,1,.93,11.19,5.63,5.63,0,0,1-6.5-4.62A5.64,5.64,0,0,1,211,69a5.69,5.69,0,0,1,.94-.08m0-2a7.64,7.64,0,1,0,7.52,6.37A7.67,7.67,0,0,0,212,66.88Z"/><path class="cls-3" d="M224.69,61.58a6.31,6.31,0,0,1,2.15,3.08l.35,2.05a3.23,3.23,0,0,1-1.74-.54c-1.7-.92-2.63-2.58-2-3.71a2,2,0,0,1,1.26-.88m0-2a2,2,0,0,0-.52.07,3.75,3.75,0,0,0-2.35,5.71,6.69,6.69,0,0,0,2.67,2.57l.07,0a5.06,5.06,0,0,0,2.56.74h.06a2,2,0,0,0,2-2.33l-.35-2.05A7.9,7.9,0,0,0,226,60.1a2,2,0,0,0-1.34-.52Z"/><line class="cls-5" x1="177.17" y1="68.39" x2="184.38" y2="67.17"/><path class="cls-2" d="M132.82,186a7,7,0,0,1-6-3.43,7,7,0,0,1,2.46-9.53L154.84,158l-.78-34.74a1.89,1.89,0,0,1-.17-.72l-.19-5.47a2,2,0,0,1,1.62-2l.33,0a1.94,1.94,0,0,1,1.91,1.62l.92,5.4a1,1,0,0,1,0,.38l6.23,35.37a4.38,4.38,0,0,1-1,5.65l-26.53,21a7.72,7.72,0,0,1-.79.54,7,7,0,0,1-3.53,1Z"/><path class="cls-3" d="M155.65,116.08a.94.94,0,0,1,.93.78l.92,5.4-.17-.52,6.42,36.46a3.37,3.37,0,0,1-.7,4.5l-.4.32-26.13,20.72a6.49,6.49,0,0,1-.68.47,6,6,0,0,1-6.05-10.27l26.07-15.36L155.06,123l-.08-.17a.88.88,0,0,1-.08-.35l-.19-5.47a.94.94,0,0,1,.78-1h.16m0-2h0a2.94,2.94,0,0,0-2.94,3l.19,5.47a2.86,2.86,0,0,0,.17.9l.76,34-25.06,14.76a8,8,0,1,0,8.08,13.72,8.45,8.45,0,0,0,.9-.61l26.14-20.73.4-.32a5.39,5.39,0,0,0,1.36-6.78l-6.17-35a2,2,0,0,0,0-.53l-.92-5.4a2.93,2.93,0,0,0-2.9-2.45Z"/><path class="cls-2" d="M120.79,186a7,7,0,0,1-3.53-1,7.76,7.76,0,0,1-.78-.54l-26.54-21a4.38,4.38,0,0,1-1-5.65l6.23-35.36a1,1,0,0,1,0-.38l.92-5.4A1.94,1.94,0,0,1,98,115.08a1.88,1.88,0,0,1,.33,0,2,2,0,0,1,1.61,2l-.19,5.47a1.88,1.88,0,0,1-.17.72L98.76,158l25.56,15.06a7,7,0,0,1,2.46,9.53A7,7,0,0,1,120.79,186Z"/><path class="cls-3" d="M98,116.08h.16a.94.94,0,0,1,.78,1l-.19,5.47a.88.88,0,0,1-.08.35l-.08.17-.79,35.54,26.07,15.36a6,6,0,1,1-6.05,10.27,6.44,6.44,0,0,1-.68-.47L91,163l-.4-.32a3.37,3.37,0,0,1-.7-4.5l6.42-36.46-.17.52.92-5.4a.94.94,0,0,1,.93-.78m0-2a2.93,2.93,0,0,0-2.9,2.45l-.92,5.4a2,2,0,0,0,0,.53l-6.17,35a5.39,5.39,0,0,0,1.36,6.78l.4.32,26.13,20.72a8.51,8.51,0,0,0,.91.62,8,8,0,0,0,8.08-13.72L99.78,157.45l.76-34a2.86,2.86,0,0,0,.18-.89l.19-5.47a2.94,2.94,0,0,0-2.94-3Z"/><path class="cls-2" d="M126.62,231.2c-9.33,0-14.9-4.9-14.9-13.11,0-7.23,12-51.89,12.55-53.79a1,1,0,0,1,1-.74h4.07a1,1,0,0,1,1,.77c.46,1.9,11.23,46.71,11.23,53.76C141.52,226.3,136,231.2,126.62,231.2Z"/><path class="cls-3" d="M129.32,164.56s11.2,46.52,11.2,53.52c0,8.46-6.22,12.11-13.9,12.11s-13.9-3.66-13.9-12.11c0-7.18,12.52-53.52,12.52-53.52h4.07m0-2h-4.07a2,2,0,0,0-1.93,1.48c-.51,1.9-12.59,46.69-12.59,54,0,8.71,6.09,14.11,15.9,14.11s15.9-5.41,15.9-14.11c0-7.16-10.8-52.08-11.26-54a2,2,0,0,0-1.94-1.53Z"/><path class="cls-2" d="M127.14,163.68c-6,0-10.44-10.27-10.44-15.61a10.44,10.44,0,1,1,20.88,0C137.58,153.41,133.17,163.68,127.14,163.68Z"/><path class="cls-3" d="M127.14,138.63a9.44,9.44,0,0,1,9.44,9.44c0,5.21-4.23,14.61-9.44,14.61s-9.44-9.4-9.44-14.61a9.44,9.44,0,0,1,9.44-9.44m0-2a11.45,11.45,0,0,0-11.44,11.44c0,5.83,4.72,16.61,11.44,16.61s11.44-10.78,11.44-16.61a11.45,11.45,0,0,0-11.44-11.44Z"/><rect class="cls-1" x="68.94" y="51.77" width="108.28" height="69.69"/><path class="cls-2" d="M79.12,89a2.16,2.16,0,0,0-1.37,2.08v.24a2.12,2.12,0,0,0,1.57,2C79.2,91.86,79.13,90.35,79.12,89Z"/><path class="cls-2" d="M168.2,89.94c-.53-3.25-2.58-8.85-23.83-8.85,0,0-10.76-9.39-17.23-10.6-3.05-.57-19.2-4.31-47.32,16.6-2,1.52,0,10.16,0,10.16h5.55c0-5.69,3.64-8.13,8.13-8.13s8.13,2.44,8.13,8.13h42c0-5.69,3.64-8.13,8.14-8.13s8.13,2.44,8.13,8.13h8.47V89.94Z"/><path class="cls-2" d="M78.89,94c-.29,0-.74.82-.74,1.25v1.16a.92.92,0,0,0,.74.84h6.48A15.32,15.32,0,0,1,85.73,94Z"/><path class="cls-2" d="M168.12,94h-8.55a15.32,15.32,0,0,1,.36,3.25h8.19c.29,0,.28-.41.28-.84V95.26C168.4,94.82,168.42,94,168.12,94Z"/><path class="cls-2" d="M101.28,94a15.32,15.32,0,0,1,.36,3.25h42A15.32,15.32,0,0,1,144,94Z"/><path class="cls-2" d="M115.55,73.5a57,57,0,0,0-22.62,9.13h22.62Z"/><path class="cls-2" d="M118.8,82.63h22C131.51,72.87,124.44,73,124.44,73a38.75,38.75,0,0,0-5.64.06Z"/><circle class="cls-2" cx="93.56" cy="97.71" r="5.64"/><circle class="cls-2" cx="152.1" cy="97.71" r="5.64"/><path class="cls-2" d="M165.4,87.73a2,2,0,0,1,1.39-.66,6.31,6.31,0,0,1,1.61,3.39h0v2.08a3.23,3.23,0,0,1-1.63-.82C165.26,90.53,164.61,88.74,165.4,87.73Z"/><line class="cls-2" x1="118.8" y1="85.88" x2="126.12" y2="85.88"/><path class="cls-4" d="M79.12,89a2.16,2.16,0,0,0-1.37,2.08v.24a2.12,2.12,0,0,0,1.57,2C79.2,91.86,79.13,90.35,79.12,89Z"/><path class="cls-4" d="M168.2,89.94c-.53-3.25-2.58-8.85-23.83-8.85,0,0-10.76-9.39-17.23-10.6-3.05-.57-19.2-4.31-47.32,16.6-2,1.52,0,10.16,0,10.16h5.55c0-5.69,3.64-8.13,8.13-8.13s8.13,2.44,8.13,8.13h42c0-5.69,3.64-8.13,8.14-8.13s8.13,2.44,8.13,8.13h8.47V89.94Z"/><path class="cls-4" d="M78.89,94c-.29,0-.74.82-.74,1.25v1.16a.92.92,0,0,0,.74.84h6.48A15.32,15.32,0,0,1,85.73,94Z"/><path class="cls-4" d="M168.12,94h-8.55a15.32,15.32,0,0,1,.36,3.25h8.19c.29,0,.28-.41.28-.84V95.26C168.4,94.82,168.42,94,168.12,94Z"/><path class="cls-4" d="M101.28,94a15.32,15.32,0,0,1,.36,3.25h42A15.32,15.32,0,0,1,144,94Z"/><path class="cls-4" d="M115.55,73.5a57,57,0,0,0-22.62,9.13h22.62Z"/><path class="cls-4" d="M118.8,82.63h22C131.51,72.87,124.44,73,124.44,73a38.75,38.75,0,0,0-5.64.06Z"/><circle class="cls-4" cx="93.56" cy="97.71" r="5.64"/><circle class="cls-4" cx="152.1" cy="97.71" r="5.64"/><path class="cls-4" d="M165.4,87.73a2,2,0,0,1,1.39-.66,6.31,6.31,0,0,1,1.61,3.39h0v2.08a3.23,3.23,0,0,1-1.63-.82C165.26,90.53,164.61,88.74,165.4,87.73Z"/><line class="cls-4" x1="118.8" y1="85.88" x2="126.12" y2="85.88"/><path class="cls-3" d="M79.12,89c0,1.37.08,2.87.21,4.28a2.12,2.12,0,0,1-1.57-2v-.24A2.16,2.16,0,0,1,79.12,89m0-2a2,2,0,0,0-.75.15,4.16,4.16,0,0,0-2.62,4v.25a4.12,4.12,0,0,0,3,3.79,2,2,0,0,0,2.51-2.12c-.12-1.25-.19-2.67-.2-4.1a2,2,0,0,0-2-2Z"/><path class="cls-3" d="M121,69.87a29.84,29.84,0,0,1,6.15.62c6.47,1.21,17.23,10.6,17.23,10.6,21.25,0,23.3,5.6,23.83,8.85h.2v7.32h-8.47c0-5.69-3.64-8.13-8.13-8.13s-8.14,2.44-8.14,8.13h-42c0-5.69-3.64-8.13-8.13-8.13s-8.13,2.44-8.13,8.13H79.82s-2-8.64,0-10.16C99.58,72.39,113.44,69.87,121,69.87m0-2c-8.52,0-22.78,3.06-42.36,17.62-2.56,1.91-1.82,7.7-.75,12.23a2,2,0,0,0,1.95,1.54h5.55a2,2,0,0,0,2-2c0-5.07,3.34-6.13,6.13-6.13s6.13,1.06,6.13,6.13a2,2,0,0,0,2,2h42a2,2,0,0,0,2-2c0-5.07,3.34-6.13,6.14-6.13s6.13,1.06,6.13,6.13a2,2,0,0,0,2,2h8.47a2,2,0,0,0,2-2V89.94a2,2,0,0,0-.41-1.21c-1.11-4.61-5.44-9.52-24.89-9.64-2.39-2-11.5-9.43-17.6-10.57l-.23,0a31.51,31.51,0,0,0-6.29-.61Z"/><path class="cls-3" d="M85.73,94h0m0,0a15.33,15.33,0,0,0-.36,3.25H78.89a.92.92,0,0,1-.74-.84V95.26c0-.44.45-1.25.74-1.25h6.84m0-2H78.89c-1.8,0-2.74,2.12-2.74,3.25v1.16a2.9,2.9,0,0,0,2.74,2.84h6.48a2,2,0,0,0,2-2,14.5,14.5,0,0,1,.26-2.63A2,2,0,0,0,85.74,92Zm0,4h0Z"/><path class="cls-3" d="M168.12,94c.29,0,.28.82.28,1.25v1.16c0,.44,0,.84-.28.84h-8.19a15.32,15.32,0,0,0-.36-3.25h8.55m0-2h-8.55a2,2,0,0,0-1.92,2.56,13.78,13.78,0,0,1,.28,2.7,2,2,0,0,0,2,2h8.19a2.21,2.21,0,0,0,1.57-.65,2.79,2.79,0,0,0,.7-2.13V95.2a3.37,3.37,0,0,0-.75-2.55,2.14,2.14,0,0,0-1.53-.64Z"/><path class="cls-3" d="M144,94h0m0,0a15.33,15.33,0,0,0-.36,3.25h-42a15.32,15.32,0,0,0-.36-3.25H144m0-2H101.28a2,2,0,0,0-1.92,2.56,13.78,13.78,0,0,1,.28,2.7,2,2,0,0,0,2,2h42a2,2,0,0,0,2-2,14.49,14.49,0,0,1,.26-2.63A2,2,0,0,0,144,92Zm0,4h0Z"/><path class="cls-3" d="M115.55,73.5v9.13H92.93a57,57,0,0,1,22.62-9.13m0-2-.31,0A58.56,58.56,0,0,0,91.74,81a2,2,0,0,0,1.19,3.61h22.62a2,2,0,0,0,2-2V73.5a2,2,0,0,0-2-2Z"/><path class="cls-3" d="M121.88,73c.84,0,1.7,0,2.56.07h0c.47,0,7.36.16,16.3,9.58h-22V73.1c.92-.09,2-.13,3.08-.13m0-2c-1.2,0-2.3,0-3.27.14a2,2,0,0,0-1.81,2v9.52a2,2,0,0,0,2,2h22a2,2,0,0,0,1.45-3.38c-9.31-9.81-16.77-10.2-17.72-10.2s-1.76-.07-2.61-.07Z"/><path class="cls-3" d="M93.56,92.07a5.64,5.64,0,1,1-5.64,5.64,5.63,5.63,0,0,1,5.64-5.64m0-2a7.64,7.64,0,1,0,7.63,7.64,7.65,7.65,0,0,0-7.63-7.64Z"/><path class="cls-3" d="M152.1,92.07a5.64,5.64,0,1,1-5.64,5.64,5.63,5.63,0,0,1,5.64-5.64m0-2a7.64,7.64,0,1,0,7.63,7.64,7.65,7.65,0,0,0-7.63-7.64Z"/><path class="cls-3" d="M166.79,87.07a6.31,6.31,0,0,1,1.61,3.39v2.08a3.23,3.23,0,0,1-1.63-.82c-1.52-1.19-2.17-3-1.37-4a2,2,0,0,1,1.39-.66m0-2h-.19a3.92,3.92,0,0,0-2.77,1.42c-1.49,1.9-.73,4.89,1.71,6.8l.06.05A5.06,5.06,0,0,0,168,94.5a2,2,0,0,0,2.39-2V90.46a7.9,7.9,0,0,0-2-4.63,2,2,0,0,0-1.57-.76Z"/><line class="cls-5" x1="118.8" y1="85.88" x2="126.12" y2="85.88"/><ellipse class="cls-1" cx="378.64" cy="156.74" rx="12.37" ry="13.87"/><path class="cls-1" d="M379,178.84H369l-15.18-20.21L357,124.18h-9.18L343.13,161l18,33.65v43.66a8,8,0,0,0,4.09,7L379,253"/><polyline class="cls-1" points="351.47 117.51 356.47 117.23 358.21 114.53 359.8 114.87 358.35 119.81 355.29 121.41 354.39 122.99 349.94 122.99 348.06 116.89 348.06 111.73 351.68 107.54 356.97 107.54 355.91 112.04 356.47 117.35"/><path class="cls-1" d="M379,178.84h9.3l15.18-20.21-3.19-34.46h9.18l5,36.84-17.68,33.65v43.66a8,8,0,0,1-4.09,7L378.95,253"/><polyline class="cls-1" points="405.81 117.51 400.81 117.23 399.07 114.53 397.47 114.87 398.93 119.81 401.99 121.41 402.89 122.99 407.33 122.99 408.67 116.89 408.67 111.73 405.6 107.54 400.3 107.54 401.36 112.04 400.81 117.35"/><line class="cls-1" x1="361.13" y1="231.14" x2="396.78" y2="231.14"/><polygon class="cls-1" points="374.05 178.84 376.21 184.79 381.47 184.79 383.38 178.84 374.05 178.84"/><polyline class="cls-1" points="376.21 185.1 371.9 214.18 378.64 226.25 385.3 214.18 381.47 185.1"/><rect class="cls-1" x="313.59" y="37.76" width="120.03" height="77.25" rx="5" ry="5"/><polygon class="cls-6" points="339.5 37.76 313.81 62.7 313.81 53.8 329.93 37.76 339.5 37.76"/><polygon class="cls-6" points="407.93 37.76 433.62 62.7 433.62 53.8 417.5 37.76 407.93 37.76"/><path class="cls-6" d="M356.57,56.44h11c19.51,0,23.14,10,30.64,14.89,5.32,3.45,9.73,3.76,12.6,4.46a11.51,11.51,0,0,1,7.6,5.82c1.07,2.08,1.58,6.83,1.58,9.18a3.34,3.34,0,0,1-3.55,3.66h-82c-1.74,0-2.61-2-2.76-3.72-.24-2.75-.6-7.88,0-10.64C333.71,71,340.91,56.44,356.57,56.44Z"/><path class="cls-6" d="M420,90.78c0-.32,0-.63,0-1l-88.43-1.16c.05.83.12,1.49.17,2.12.15,1.72,1,3.73,2.76,3.73h82A3.34,3.34,0,0,0,420,90.78Z"/><path class="cls-6" d="M338.66,94.44a11.8,11.8,0,0,1,23.6,0Z"/><circle class="cls-6" cx="350.39" cy="94.9" r="9.24"/><circle class="cls-6" cx="350.39" cy="94.9" r="6.21"/><path class="cls-6" d="M388.37,94.44a11.8,11.8,0,0,1,23.6,0Z"/><circle class="cls-6" cx="400.1" cy="94.9" r="9.24"/><circle class="cls-6" cx="400.1" cy="94.9" r="6.21"/><path class="cls-6" d="M331,82.39c-.86.3-2.07,1.11-2.07,2.07v.25a2.46,2.46,0,0,0,1.8,2.09C330.63,85.35,330.91,83.8,331,82.39Z"/><path class="cls-6" d="M414.76,78.86a2.28,2.28,0,0,0-.9,3.09l.9,1.63a2.27,2.27,0,0,0,3.09.9l.23-.12a2.25,2.25,0,0,0,1-1.1,8.86,8.86,0,0,0-.61-1.66A11.13,11.13,0,0,0,416,78.46a2.24,2.24,0,0,0-1,.27Z"/><path class="cls-6" d="M373.9,59s14.31,1.48,21,12.48h-21Z"/><rect class="cls-6" x="354.9" y="58.44" width="16" height="13"/><path class="cls-6" d="M350.9,59V71.44H339.33C333.87,71.44,343.9,59.39,350.9,59Z"/><rect class="cls-6" x="373.9" y="76.44" width="6" height="2" rx="0.69" ry="0.69"/><rect class="cls-6" x="354.9" y="76.44" width="6" height="2" rx="0.69" ry="0.69"/><path class="cls-6" d="M395.9,72.58c0-.5-.17-2.14-.67-2.14h-6c-.5,0-1.32,1.64-1.32,2.14v2.08c0,.5.82,1.78,1.32,1.78h6c.5,0,.67-1.27.67-1.78Z"/><rect class="cls-1" x="137.23" y="73.43" width="108.28" height="69.69"/><path class="cls-2" d="M198.37,201.28a7,7,0,0,1-3.54-13l25.56-15.06-.78-34.74a1.88,1.88,0,0,1-.17-.72l-.19-5.47a2,2,0,0,1,1.62-2l.33,0a1.94,1.94,0,0,1,1.91,1.62l.92,5.4a1,1,0,0,1,0,.38l6.23,35.36a4.38,4.38,0,0,1-1,5.65l-26.53,21a7.48,7.48,0,0,1-.79.54,7,7,0,0,1-3.53,1Z"/><path class="cls-3" d="M221.2,131.32a.94.94,0,0,1,.93.78l.92,5.4-.17-.52,6.42,36.46a3.37,3.37,0,0,1-.7,4.5l-.4.32L202.07,199a6.49,6.49,0,0,1-.68.47,6,6,0,0,1-6.05-10.27l26.07-15.36-.79-35.54-.08-.17a.88.88,0,0,1-.08-.35l-.19-5.47a.94.94,0,0,1,.78-1h.16m0-2h0a2.94,2.94,0,0,0-2.94,3l.19,5.47a2.86,2.86,0,0,0,.17.89l.76,34-25.06,14.76a8,8,0,1,0,8.08,13.72,8.53,8.53,0,0,0,.9-.61l26.14-20.73.4-.32a5.39,5.39,0,0,0,1.36-6.78l-6.17-35a2,2,0,0,0,0-.53l-.92-5.4a2.93,2.93,0,0,0-2.9-2.45Z"/><path class="cls-2" d="M186.34,201.28a7,7,0,0,1-3.53-1,7.32,7.32,0,0,1-.79-.54l-26.54-21a4.38,4.38,0,0,1-1-5.65l6.23-35.36a1,1,0,0,1,0-.38l.92-5.4a1.94,1.94,0,0,1,1.91-1.62l.33,0a2,2,0,0,1,1.62,2l-.19,5.47a1.86,1.86,0,0,1-.17.72l-.78,34.74,25.56,15.06a7,7,0,0,1-3.54,13Z"/><path class="cls-3" d="M163.51,131.32h.16a.94.94,0,0,1,.78,1l-.19,5.47a.88.88,0,0,1-.08.35l-.08.17-.79,35.54,26.07,15.36a6,6,0,1,1-6.05,10.27,6.46,6.46,0,0,1-.68-.47l-26.13-20.72-.4-.32a3.37,3.37,0,0,1-.7-4.5L161.83,137l-.17.52.92-5.4a.94.94,0,0,1,.93-.78m0-2a2.93,2.93,0,0,0-2.9,2.45l-.92,5.4a2,2,0,0,0,0,.53l-6.17,35a5.39,5.39,0,0,0,1.36,6.78l.4.32,26.13,20.72a8.56,8.56,0,0,0,.91.62,8,8,0,0,0,8.08-13.72L165.33,172.7l.76-34a2.86,2.86,0,0,0,.18-.89l.19-5.47a2.94,2.94,0,0,0-2.94-3Z"/><path class="cls-2" d="M192.18,252.93c-9.33,0-14.9-4.9-14.9-13.11,0-7.23,12-51.89,12.55-53.78a1,1,0,0,1,1-.74h4.07a1,1,0,0,1,1,.77c.46,1.9,11.23,46.71,11.23,53.76C207.07,248,201.51,252.93,192.18,252.93Z"/><path class="cls-3" d="M194.87,186.29s11.2,46.52,11.2,53.52c0,8.46-6.22,12.11-13.9,12.11s-13.9-3.66-13.9-12.11c0-7.18,12.52-53.52,12.52-53.52h4.07m0-2H190.8a2,2,0,0,0-1.93,1.48c-.51,1.9-12.59,46.69-12.59,54,0,8.71,6.09,14.11,15.9,14.11s15.9-5.41,15.9-14.11c0-7.16-10.8-52.08-11.26-54a2,2,0,0,0-1.94-1.53Z"/><path class="cls-2" d="M192,185.38l-.5,0c-6-.56-9.44-11.19-8.95-16.51a10.39,10.39,0,0,1,10.38-9.47q.49,0,1,0a10.45,10.45,0,0,1,9.43,11.36c-.48,5.13-5.48,14.6-11.35,14.6Z"/><path class="cls-3" d="M192.92,160.37q.44,0,.89,0a9.44,9.44,0,0,1,8.52,10.27c-.47,5.06-5.3,13.69-10.35,13.69l-.41,0c-5.19-.48-8.53-10.23-8-15.42a9.44,9.44,0,0,1,9.39-8.57m0-2a11.38,11.38,0,0,0-11.38,10.38,22.69,22.69,0,0,0,2.06,10.49c1.94,4.3,4.71,6.83,7.79,7.11l.59,0c6.65,0,11.84-10.18,12.34-15.51A11.44,11.44,0,0,0,194,158.42c-.36,0-.72-.05-1.07-.05Z"/><path class="cls-2" d="M148.76,111.11a2.16,2.16,0,0,0-1.37,2.08v.24a2.12,2.12,0,0,0,1.57,2C148.83,114,148.77,112.48,148.76,111.11Z"/><path class="cls-2" d="M237.83,112.07c-.53-3.25-2.58-8.85-23.83-8.85,0,0-10.76-9.39-17.23-10.6-3.05-.57-19.2-4.31-47.32,16.6-2,1.52,0,10.16,0,10.16H155c7.14,7.14,3.64-8.13,8.13-8.13s8.13,2.44,8.13,8.13h42c0-5.69,3.64-8.13,8.14-8.13s8.13,2.44,8.13,8.13H238v-7.32Z"/><path class="cls-2" d="M148.53,116.14c-.29,0-.74.82-.74,1.25v1.16a.92.92,0,0,0,.74.84H155a15.32,15.32,0,0,1,.36-3.25Z"/><path class="cls-2" d="M237.76,116.14H229.2a15.32,15.32,0,0,1,.36,3.25h8.19c.29,0,.28-.41.28-.84v-1.16C238,117,238.05,116.14,237.76,116.14Z"/><path class="cls-2" d="M170.91,116.14a15.32,15.32,0,0,1,.36,3.25h42a15.32,15.32,0,0,1,.36-3.25Z"/><path class="cls-2" d="M185.19,95.63a57,57,0,0,0-22.62,9.13h22.62Z"/><path class="cls-2" d="M188.44,104.76h22c-9.26-9.76-16.33-9.58-16.33-9.58a38.75,38.75,0,0,0-5.64.06Z"/><circle class="cls-2" cx="163.19" cy="119.84" r="5.64"/><circle class="cls-2" cx="221.73" cy="119.84" r="5.64"/><path class="cls-2" d="M235,109.86a2,2,0,0,1,1.39-.66,6.31,6.31,0,0,1,1.61,3.39h0v2.08a3.23,3.23,0,0,1-1.63-.82C234.89,112.66,234.24,110.87,235,109.86Z"/><line class="cls-2" x1="188.44" y1="108.01" x2="195.76" y2="108.01"/><path class="cls-4" d="M148.76,111.11a2.16,2.16,0,0,0-1.37,2.08v.24a2.12,2.12,0,0,0,1.57,2C148.83,114,148.77,112.48,148.76,111.11Z"/><path class="cls-4" d="M237.83,112.07c-.53-3.25-2.58-8.85-23.83-8.85,0,0-10.76-9.39-17.23-10.6-3.05-.57-19.2-4.31-47.32,16.6-2,1.52,0,10.16,0,10.16H155c7.14,7.14,3.64-8.13,8.13-8.13s8.13,2.44,8.13,8.13h42c0-5.69,3.64-8.13,8.14-8.13s8.13,2.44,8.13,8.13H238v-7.32Z"/><path class="cls-4" d="M148.53,116.14c-.29,0-.74.82-.74,1.25v1.16a.92.92,0,0,0,.74.84H155a15.32,15.32,0,0,1,.36-3.25Z"/><path class="cls-4" d="M237.76,116.14H229.2a15.32,15.32,0,0,1,.36,3.25h8.19c.29,0,.28-.41.28-.84v-1.16C238,117,238.05,116.14,237.76,116.14Z"/><path class="cls-4" d="M170.91,116.14a15.32,15.32,0,0,1,.36,3.25h42a15.32,15.32,0,0,1,.36-3.25Z"/><path class="cls-4" d="M185.19,95.63a57,57,0,0,0-22.62,9.13h22.62Z"/><path class="cls-4" d="M188.44,104.76h22c-9.26-9.76-16.33-9.58-16.33-9.58a38.75,38.75,0,0,0-5.64.06Z"/><circle class="cls-4" cx="163.19" cy="119.84" r="5.64"/><circle class="cls-4" cx="221.73" cy="119.84" r="5.64"/><path class="cls-4" d="M235,109.86a2,2,0,0,1,1.39-.66,6.31,6.31,0,0,1,1.61,3.39h0v2.08a3.23,3.23,0,0,1-1.63-.82C234.89,112.66,234.24,110.87,235,109.86Z"/><line class="cls-4" x1="188.44" y1="108.01" x2="195.76" y2="108.01"/><path class="cls-3" d="M148.76,111.11c0,1.37.08,2.87.21,4.28a2.12,2.12,0,0,1-1.57-2v-.24a2.16,2.16,0,0,1,1.37-2.08m0-2a2,2,0,0,0-.75.15,4.16,4.16,0,0,0-2.62,4v.24a4.12,4.12,0,0,0,3,3.79A2,2,0,0,0,151,115.2c-.12-1.25-.19-2.67-.2-4.1a2,2,0,0,0-2-2Z"/><path class="cls-3" d="M190.62,92a29.84,29.84,0,0,1,6.15.62c6.47,1.21,17.23,10.6,17.23,10.6,21.25,0,23.3,5.6,23.83,8.85h.2v7.32h-8.47c0-5.69-3.64-8.13-8.13-8.13s-8.14,2.44-8.14,8.13h-42c0-5.69-3.64-8.13-8.13-8.13-3.64,0-2,10-5.1,10-.72,0-1.69-.55-3-1.9h-5.55s-2-8.64,0-10.16C169.22,94.52,183.07,92,190.62,92m0-2c-8.52,0-22.78,3.06-42.36,17.62-2.56,1.91-1.82,7.7-.75,12.23a2,2,0,0,0,1.95,1.54h4.75a5.84,5.84,0,0,0,3.84,1.9c3.15,0,3.76-3.52,4.25-6.35a12.87,12.87,0,0,1,1-3.68c2.77,0,6,1.14,6,6.13a2,2,0,0,0,2,2h42a2,2,0,0,0,2-2c0-5.07,3.34-6.13,6.14-6.13s6.13,1.06,6.13,6.13a2,2,0,0,0,2,2H238a2,2,0,0,0,2-2v-7.32a2,2,0,0,0-.41-1.21c-1.1-4.61-5.44-9.52-24.89-9.64-2.39-2-11.5-9.43-17.6-10.57l-.23,0a31.51,31.51,0,0,0-6.29-.61Z"/><path class="cls-3" d="M155.37,116.14h0m0,0a15.32,15.32,0,0,0-.36,3.25h-6.48a.92.92,0,0,1-.74-.84v-1.16c0-.44.45-1.25.74-1.25h6.84m0-2h-6.84c-1.8,0-2.74,2.12-2.74,3.25v1.16a2.9,2.9,0,0,0,2.74,2.84H155a2,2,0,0,0,2-2,14.47,14.47,0,0,1,.26-2.63,2,2,0,0,0-1.9-2.63Zm0,4h0Z"/><path class="cls-3" d="M237.76,116.14c.29,0,.28.82.28,1.25v1.16c0,.44,0,.84-.28.84h-8.19a15.32,15.32,0,0,0-.36-3.25h8.55m0-2H229.2a2,2,0,0,0-1.92,2.56,13.78,13.78,0,0,1,.28,2.7,2,2,0,0,0,2,2h8.19a2.21,2.21,0,0,0,1.57-.65,2.79,2.79,0,0,0,.7-2.13v-1.29a3.37,3.37,0,0,0-.75-2.55,2.14,2.14,0,0,0-1.53-.64Z"/><path class="cls-3" d="M213.66,116.14h0m0,0a15.32,15.32,0,0,0-.36,3.25h-42a15.32,15.32,0,0,0-.36-3.25h42.75m0-2H170.91a2,2,0,0,0-1.92,2.56,13.78,13.78,0,0,1,.28,2.7,2,2,0,0,0,2,2h42a2,2,0,0,0,2-2,14.49,14.49,0,0,1,.26-2.63,2,2,0,0,0-1.9-2.63Zm0,4h0Z"/><path class="cls-3" d="M185.19,95.63v9.13H162.57a57,57,0,0,1,22.62-9.13m0-2-.31,0a58.57,58.57,0,0,0-23.5,9.49,2,2,0,0,0,1.19,3.61h22.62a2,2,0,0,0,2-2V95.63a2,2,0,0,0-2-2Z"/><path class="cls-3" d="M191.52,95.1c.84,0,1.7,0,2.56.07h0c.47,0,7.36.16,16.3,9.58h-22V95.23c.92-.09,2-.13,3.08-.13m0-2c-1.2,0-2.3,0-3.27.14a2,2,0,0,0-1.81,2v9.52a2,2,0,0,0,2,2h22a2,2,0,0,0,1.45-3.38c-9.31-9.81-16.77-10.2-17.72-10.2s-1.76-.07-2.61-.07Z"/><path class="cls-3" d="M163.19,114.2a5.64,5.64,0,1,1-5.64,5.64,5.63,5.63,0,0,1,5.64-5.64m0-2a7.64,7.64,0,1,0,7.63,7.64,7.65,7.65,0,0,0-7.63-7.64Z"/><path class="cls-3" d="M221.73,114.2a5.64,5.64,0,1,1-5.64,5.64,5.63,5.63,0,0,1,5.64-5.64m0-2a7.64,7.64,0,1,0,7.63,7.64,7.65,7.65,0,0,0-7.63-7.64Z"/><path class="cls-3" d="M236.43,109.2a6.31,6.31,0,0,1,1.61,3.39v2.08a3.23,3.23,0,0,1-1.63-.82c-1.52-1.19-2.17-3-1.37-4a2,2,0,0,1,1.39-.66m0-2h-.19a3.93,3.93,0,0,0-2.77,1.42c-1.49,1.9-.73,4.89,1.71,6.8l.06.05a5,5,0,0,0,2.41,1.16,2,2,0,0,0,2.39-2v-2.08a7.9,7.9,0,0,0-2-4.63,2,2,0,0,0-1.57-.76Z"/><line class="cls-5" x1="188.44" y1="108.01" x2="195.76" y2="108.01"/><rect class="cls-1" x="5.71" y="77.47" width="108.17" height="69.18" transform="translate(-16.65 10.63) rotate(-8.92)"/><path class="cls-2" d="M73.33,211.69a7,7,0,0,1-3.65-12.89l22.46-22.47-.78-34.9a1.87,1.87,0,0,1-.17-.73L91,135.23a2,2,0,0,1,1.62-2l.33,0a1.94,1.94,0,0,1,1.91,1.62l.92,5.4a1,1,0,0,1,0,.38L102,176a4.38,4.38,0,0,1-1,5.65l-.32.25L77.8,210a1,1,0,0,1-.16.16,7.3,7.3,0,0,1-.79.54,7,7,0,0,1-3.53,1Z"/><path class="cls-3" d="M92.94,134.22a.94.94,0,0,1,.93.78l.92,5.4-.17-.52L101,176.35a3.37,3.37,0,0,1-.7,4.5l-.4.32L77,209.4a6.57,6.57,0,0,1-.68.47,6,6,0,0,1-6.05-10.27l22.85-22.86-.79-35.54-.08-.17a.88.88,0,0,1-.08-.35L92,135.2a.94.94,0,0,1,.78-1h.16m0-2h0a2.94,2.94,0,0,0-2.94,3l.19,5.47a2.87,2.87,0,0,0,.18.9l.77,34.28L69,198a8,8,0,0,0,8.31,13.58,8.59,8.59,0,0,0,.89-.61,2,2,0,0,0,.32-.32l22.78-28.06.23-.18a5.39,5.39,0,0,0,1.36-6.78l-6.17-35a2,2,0,0,0,0-.53l-.92-5.4a2.93,2.93,0,0,0-2.9-2.45Z"/><path class="cls-2" d="M61.3,211.69a7,7,0,0,1-3.53-1,7.46,7.46,0,0,1-.71-.48L27.79,194.92l-.16-.1-.4-.32a4.38,4.38,0,0,1-1-5.65l6.23-35.36a1,1,0,0,1,0-.38l.92-5.4a1.94,1.94,0,0,1,1.91-1.62l.33,0a2,2,0,0,1,1.62,2L37,153.57a1.87,1.87,0,0,1-.17.72l-.77,34.59,28.59,9.76.18.08a7,7,0,0,1-3.54,13Z"/><path class="cls-3" d="M35.25,147.09h.16a.94.94,0,0,1,.78,1L36,153.54a.88.88,0,0,1-.08.35l-.08.17L35,189.59l29.29,10a6,6,0,1,1-6.05,10.27,6.57,6.57,0,0,1-.68-.47L28.25,194l-.4-.32a3.37,3.37,0,0,1-.7-4.5l6.42-36.46-.17.52.92-5.4a.94.94,0,0,1,.93-.78m0-2a2.93,2.93,0,0,0-2.9,2.45l-.92,5.4a2,2,0,0,0,0,.53l-6.17,35a5.39,5.39,0,0,0,1.36,6.78l.4.32a2,2,0,0,0,.32.21l29.2,15.28a8.37,8.37,0,0,0,.74.5,8,8,0,0,0,8.08-13.72,2,2,0,0,0-.37-.17l-27.9-9.52.75-33.68a2.86,2.86,0,0,0,.18-.9l.19-5.47a2.94,2.94,0,0,0-2.94-3Z"/><path class="cls-2" d="M67.13,256.85c-9.33,0-14.9-4.9-14.9-13.11,0-7.23,12-51.89,12.55-53.78a1,1,0,0,1,1-.74h4.07a1,1,0,0,1,1,.77c.46,1.9,11.23,46.71,11.23,53.76C82,252,76.46,256.85,67.13,256.85Z"/><path class="cls-3" d="M69.83,190.21S81,236.73,81,243.74c0,8.46-6.22,12.11-13.9,12.11s-13.9-3.66-13.9-12.11c0-7.18,12.52-53.52,12.52-53.52h4.07m0-2H65.75a2,2,0,0,0-1.93,1.48c-.51,1.9-12.59,46.69-12.59,54,0,8.71,6.09,14.11,15.9,14.11S83,252.44,83,243.74c0-7.16-10.8-52.08-11.26-54a2,2,0,0,0-1.94-1.53Z"/><path class="cls-2" d="M66.83,190c-5.28,0-11.5-7-13.11-11.68a10.44,10.44,0,1,1,19.75-6.77c1.73,5.05.9,16.2-4.81,18.15a5.62,5.62,0,0,1-1.83.3Z"/><path class="cls-3" d="M63.59,165.49a9.44,9.44,0,0,1,8.93,6.38c1.69,4.93.74,15.19-4.19,16.88a4.6,4.6,0,0,1-1.5.24c-4.76,0-10.64-6.55-12.17-11a9.45,9.45,0,0,1,8.93-12.51m0-2a11.44,11.44,0,0,0-10.82,15.15C54.46,183.56,60.93,191,66.83,191a6.61,6.61,0,0,0,2.15-.35c6.36-2.18,7.32-13.91,5.43-19.42a11.44,11.44,0,0,0-10.82-7.73Z"/><path class="cls-2" d="M17.09,122.47a2.16,2.16,0,0,0-1,2.28l.05.24A2.12,2.12,0,0,0,18,126.65C17.64,125.29,17.33,123.82,17.09,122.47Z"/><path class="cls-2" d="M105.09,108.62c-1.06-3.12-4-8.3-25-4.77,0,0-12.17-7.47-18.75-7.59-3.1-.06-19.65-1.06-43.9,24.23-1.77,1.84,1.69,10,1.69,10l5.48-.92c-.95-5.61,2.24-8.63,6.67-9.37s8.43,1.06,9.37,6.67l41.44-7c-.95-5.61,2.24-8.63,6.67-9.37s8.43,1.06,9.37,6.67l8.35-1.41-1.22-7.22Z"/><path class="cls-2" d="M17.7,127.47c-.29,0-.6.93-.52,1.36l.19,1.14a.92.92,0,0,0,.87.71l6.39-1.08a15.32,15.32,0,0,1-.18-3.27Z"/><path class="cls-2" d="M105.69,112.64l-8.43,1.42a15.32,15.32,0,0,1,.9,3.15l8.08-1.36c.29,0,.21-.45.13-.88l-.19-1.14C106.1,113.4,106,112.59,105.69,112.64Z"/><path class="cls-2" d="M39.77,123.75a15.32,15.32,0,0,1,.9,3.15l41.44-7a15.32,15.32,0,0,1-.18-3.27Z"/><path class="cls-2" d="M50.44,101.15a57,57,0,0,0-20.79,12.76L52,110.15Z"/><path class="cls-2" d="M55.16,109.61,76.82,106c-10.75-8.08-17.69-6.74-17.69-6.74a38.75,38.75,0,0,0-5.55,1Z"/><circle class="cls-2" cx="32.77" cy="128.68" r="5.64" transform="translate(-20.92 7.23) rotate(-9.56)"/><circle class="cls-2" cx="90.5" cy="118.95" r="5.64" transform="translate(-18.5 16.69) rotate(-9.56)"/><path class="cls-2" d="M102,106.9a2,2,0,0,1,1.26-.88,6.31,6.31,0,0,1,2.15,3.08h0l.35,2.05a3.23,3.23,0,0,1-1.74-.54C102.28,109.69,101.35,108,102,106.9Z"/><line class="cls-2" x1="55.71" y1="112.82" x2="62.92" y2="111.6"/><path class="cls-4" d="M17.09,122.47a2.16,2.16,0,0,0-1,2.28l.05.24A2.12,2.12,0,0,0,18,126.65C17.64,125.29,17.33,123.82,17.09,122.47Z"/><path class="cls-4" d="M105.09,108.62c-1.06-3.12-4-8.3-25-4.77,0,0-12.17-7.47-18.75-7.59-3.1-.06-19.65-1.06-43.9,24.23-1.77,1.84,1.69,10,1.69,10l5.48-.92c-.95-5.61,2.24-8.63,6.67-9.37s8.43,1.06,9.37,6.67l41.44-7c-.95-5.61,2.24-8.63,6.67-9.37s8.43,1.06,9.37,6.67l8.35-1.41-1.22-7.22Z"/><path class="cls-4" d="M17.7,127.47c-.29,0-.6.93-.52,1.36l.19,1.14a.92.92,0,0,0,.87.71l6.39-1.08a15.32,15.32,0,0,1-.18-3.27Z"/><path class="cls-4" d="M105.69,112.64l-8.43,1.42a15.32,15.32,0,0,1,.9,3.15l8.08-1.36c.29,0,.21-.45.13-.88l-.19-1.14C106.1,113.4,106,112.59,105.69,112.64Z"/><path class="cls-4" d="M39.77,123.75a15.32,15.32,0,0,1,.9,3.15l41.44-7a15.32,15.32,0,0,1-.18-3.27Z"/><path class="cls-4" d="M50.44,101.15a57,57,0,0,0-20.79,12.76L52,110.15Z"/><path class="cls-4" d="M55.16,109.61,76.82,106c-10.75-8.08-17.69-6.74-17.69-6.74a38.75,38.75,0,0,0-5.55,1Z"/><circle class="cls-4" cx="32.77" cy="128.68" r="5.64" transform="translate(-20.92 7.23) rotate(-9.56)"/><circle class="cls-4" cx="90.5" cy="118.95" r="5.64" transform="translate(-18.5 16.69) rotate(-9.56)"/><path class="cls-4" d="M102,106.9a2,2,0,0,1,1.26-.88,6.31,6.31,0,0,1,2.15,3.08h0l.35,2.05a3.23,3.23,0,0,1-1.74-.54C102.28,109.69,101.35,108,102,106.9Z"/><line class="cls-4" x1="55.71" y1="112.82" x2="62.92" y2="111.6"/><path class="cls-3" d="M17.09,122.47c.24,1.35.55,2.82.92,4.18A2.12,2.12,0,0,1,16.14,125l-.05-.24a2.16,2.16,0,0,1,1-2.28m0-2a2,2,0,0,0-1,.3,4.16,4.16,0,0,0-1.91,4.4l.05.24a4.12,4.12,0,0,0,3.64,3.24H18a2,2,0,0,0,1.93-2.52c-.33-1.21-.63-2.6-.88-4a2,2,0,0,0-2-1.65Z"/><path class="cls-3" d="M60.17,96.24l1.2,0c6.58.12,18.75,7.59,18.75,7.59a74.07,74.07,0,0,1,12.1-1.19c10.15,0,12.06,3.58,12.87,6l.2,0,1.22,7.22-8.35,1.41c-.81-4.82-3.87-6.83-7.53-6.83a11.14,11.14,0,0,0-1.85.16c-4.43.75-7.62,3.76-6.67,9.37l-41.44,7c-.81-4.82-3.87-6.83-7.53-6.83a11.14,11.14,0,0,0-1.85.16c-4.43.75-7.62,3.76-6.67,9.37l-5.48.92s-3.45-8.18-1.69-10c22-23,37.69-24.25,42.71-24.25m0-2h0c-7.59,0-23.41,3.23-44.15,24.87-2.21,2.31-.52,7.9,1.29,12.19a2,2,0,0,0,1.84,1.22l.33,0,5.48-.92a2,2,0,0,0,1.64-2.3,6,6,0,0,1,.91-4.93,6.63,6.63,0,0,1,4.12-2.13,9.15,9.15,0,0,1,1.51-.13c3.11,0,5,1.74,5.55,5.16a2,2,0,0,0,2,1.67l.33,0,41.44-7a2,2,0,0,0,1.64-2.3,6,6,0,0,1,.91-4.93,6.63,6.63,0,0,1,4.12-2.13,9.15,9.15,0,0,1,1.51-.13c3.11,0,5,1.74,5.55,5.16a2,2,0,0,0,2,1.67l.33,0,8.35-1.41a2,2,0,0,0,1.64-2.3l-1.22-7.22a2,2,0,0,0-.6-1.13c-1.28-3-4.4-6.46-14.44-6.46a74.94,74.94,0,0,0-11.71,1.09c-2.69-1.59-12.9-7.38-19.12-7.5H60.17Z"/><path class="cls-3" d="M24.44,126.33h0m0,0a15.3,15.3,0,0,0,.18,3.27l-6.39,1.08h-.06a.94.94,0,0,1-.81-.71l-.19-1.14c-.07-.43.23-1.31.52-1.36l6.74-1.14m0-2h-.06l-.31,0-6.71,1.13a2.54,2.54,0,0,0-1.94,1.81,3.76,3.76,0,0,0-.22,1.85l.19,1.14a2.94,2.94,0,0,0,2.78,2.38,2.36,2.36,0,0,0,.39,0L25,131.57a2,2,0,0,0,1.64-2.3,14.47,14.47,0,0,1-.18-2.63,2,2,0,0,0-2-2.3Zm0,4h0Z"/><path class="cls-3" d="M105.72,112.64c.27,0,.39.77.46,1.19l.19,1.14c.07.43.16.83-.13.88l-8.08,1.36a15.31,15.31,0,0,0-.9-3.15l8.43-1.42h0m0-2-.36,0-8.44,1.42a2,2,0,0,0-1.47,2.84,13.79,13.79,0,0,1,.73,2.61,2,2,0,0,0,2,1.67l.33,0,8.08-1.36a2.21,2.21,0,0,0,1.44-.9,2.79,2.79,0,0,0,.34-2.22v-.06l-.19-1.14v-.06c-.11-.69-.47-2.8-2.42-2.8Z"/><path class="cls-3" d="M81.93,116.65h0m0,0a15.33,15.33,0,0,0,.18,3.27l-41.44,7a15.34,15.34,0,0,0-.9-3.15l42.15-7.1m0-2h-.07l-.3,0-42.12,7.1A2,2,0,0,0,38,124.61a13.83,13.83,0,0,1,.73,2.61,2,2,0,0,0,2,1.67l.33,0,41.44-7a2,2,0,0,0,1.64-2.3,14.51,14.51,0,0,1-.18-2.63,2,2,0,0,0-2-2.3Zm0,4h0Z"/><path class="cls-3" d="M50.44,101.15l1.52,9-22.31,3.76a57,57,0,0,1,20.79-12.76m0-2a2,2,0,0,0-.63.1,58.57,58.57,0,0,0-21.59,13.26,2,2,0,0,0,1.44,3.39l.33,0,22.31-3.76a2,2,0,0,0,1.64-2.3l-1.52-9a2,2,0,0,0-2-1.67Z"/><path class="cls-3" d="M60.38,99.14c2.46,0,8.38.76,16.44,6.82l-21.66,3.65-1.58-9.39a38.79,38.79,0,0,1,5.55-1,7.31,7.31,0,0,1,1.25-.08m0-2a9.91,9.91,0,0,0-1.53.1,40.54,40.54,0,0,0-5.79,1,2,2,0,0,0-1.45,2.26l1.58,9.39a2,2,0,0,0,2,1.67l.33,0,21.66-3.65a2,2,0,0,0,.87-3.57c-8.36-6.28-14.64-7.22-17.64-7.22Z"/><path class="cls-3" d="M32.78,123a5.64,5.64,0,0,1,.93,11.19,5.63,5.63,0,0,1-6.5-4.62,5.64,5.64,0,0,1,4.62-6.49,5.69,5.69,0,0,1,.94-.08m0-2a7.64,7.64,0,1,0,7.52,6.37A7.67,7.67,0,0,0,32.78,121Z"/><path class="cls-3" d="M90.51,113.32a5.64,5.64,0,0,1,.93,11.19,5.7,5.7,0,0,1-.94.08,5.64,5.64,0,0,1,0-11.27m0-2a7.72,7.72,0,0,0-1.28.11,7.64,7.64,0,0,0,1.26,15.17,7.64,7.64,0,0,0,0-15.27Z"/><path class="cls-3" d="M103.22,106a6.31,6.31,0,0,1,2.15,3.08l.35,2.05a3.23,3.23,0,0,1-1.74-.54c-1.7-.92-2.63-2.58-2-3.71a2,2,0,0,1,1.26-.88m0-2a2,2,0,0,0-.52.07,3.93,3.93,0,0,0-2.5,1.86,4,4,0,0,0,.15,3.85,6.69,6.69,0,0,0,2.67,2.57l.07,0a5.06,5.06,0,0,0,2.56.74h.06a2,2,0,0,0,2-2.33l-.35-2.05a7.89,7.89,0,0,0-2.78-4.23,2,2,0,0,0-1.34-.52Z"/><line class="cls-5" x1="55.71" y1="112.82" x2="62.92" y2="111.6"/><line class="cls-7" x1="297.89" y1="41.61" x2="277.18" y2="37.03"/><line class="cls-7" x1="322.32" y1="21.72" x2="326.91" y2="1"/><line class="cls-7" x1="307.52" y1="28.74" x2="296.77" y2="11.88"/><line class="cls-7" x1="300.4" y1="51.46" x2="287.76" y2="59.53"/><line class="cls-7" x1="344.57" y1="18.62" x2="331.92" y2="26.69"/></g></g></svg>