<svg xmlns="http://www.w3.org/2000/svg" viewBox="0 0 956 100.5"><defs><style>.cls-1,.cls-11{fill:none;stroke-miterlimit:10;}.cls-1{stroke:#0080b1;}.cls-2{fill:#0080b1;}.cls-3{font-size:24px;fill:#fff;font-family:HelveticaNeueLTPro-Lt, HelveticaNeueLTPro Lt;}.cls-4{letter-spacing:-0.03em;}.cls-5,.cls-7{fill:#5d5d5d;}.cls-6{letter-spacing:0.03em;}.cls-7{font-family:HelveticaNeue-Bold, HelveticaNeue Bold;font-weight:700;}.cls-8{letter-spacing:-0.01em;}.cls-9{letter-spacing:-0.01em;}.cls-10{letter-spacing:0em;}.cls-11{stroke:#fff;}</style></defs><title>ctr</title><g id="Layer_2" data-name="Layer 2"><g id="texts"><rect class="cls-1" x="0.5" y="50" width="106.11" height="50"/><rect class="cls-1" x="106.61" y="50" width="95.69" height="50"/><rect class="cls-1" x="202.31" y="50" width="95.69" height="50"/><rect class="cls-1" x="298" y="50" width="95.69" height="50"/><rect class="cls-1" x="393.69" y="50" width="95.69" height="50"/><rect class="cls-1" x="489.39" y="50" width="95.69" height="50"/><rect class="cls-1" x="585.08" y="50" width="95.69" height="50"/><rect class="cls-1" x="680.78" y="50" width="137.36" height="50"/><rect class="cls-1" x="818.14" y="50" width="137.36" height="50"/><path class="cls-2" d="M106.61,50H.5V10a10,10,0,0,1,10-10h96.11Z"/><rect class="cls-2" x="106.61" width="95.69" height="50"/><rect class="cls-2" x="202.31" width="95.69" height="50"/><rect class="cls-2" x="298" width="95.69" height="50"/><rect class="cls-2" x="393.69" width="95.69" height="50"/><rect class="cls-2" x="489.39" width="95.69" height="50"/><rect class="cls-2" x="585.08" width="95.69" height="50"/><rect class="cls-2" x="680.78" width="137.36" height="50"/><path class="cls-2" d="M955.5,50H818.14V0H945.5a10,10,0,0,1,10,10Z"/><text class="cls-3" transform="translate(13.3 33.57)"><tspan class="cls-4">P</tspan><tspan x="12.17" y="0">osition</tspan><tspan class="cls-5"><tspan class="cls-6" x="20.54" y="50">C</tspan><tspan x="35.14" y="50">TR</tspan></tspan></text><text class="cls-3" transform="translate(148.3 33.57)">1<tspan class="cls-7"><tspan x="-20.95" y="50">31.24</tspan></tspan></text><text class="cls-3" transform="translate(244 33.57)">2<tspan class="cls-7"><tspan x="-20.95" y="50">14.04</tspan></tspan></text><text class="cls-3" transform="translate(339.69 33.57)">3<tspan class="cls-7"><tspan x="-14.8" y="50">9.85</tspan></tspan></text><text class="cls-3" transform="translate(435.39 33.57)">4<tspan class="cls-7"><tspan x="-14.8" y="50">6.97</tspan></tspan></text><text class="cls-3" transform="translate(531.08 33.57)">5<tspan class="cls-7"><tspan x="-14.8" y="50">5.50</tspan></tspan></text><text class="cls-3" transform="translate(598.89 33.57)">6 <tspan class="cls-8" x="17.4" y="0">t</tspan><tspan x="25.2" y="0">o 10</tspan><tspan class="cls-7"><tspan x="13.09" y="50">3.73</tspan></tspan></text><text class="cls-3" transform="translate(702 33.57)">2nd page<tspan class="cls-7"><tspan x="26.51" y="50">3.99</tspan></tspan></text><text class="cls-3" transform="translate(835.06 33.57)">3<tspan class="cls-9" x="12.31" y="0">r</tspan><tspan class="cls-10" x="19.92" y="0">d page+</tspan><tspan class="cls-7"><tspan x="30.8" y="50">1.60</tspan></tspan></text><line class="cls-11" x1="106.61" y1="36.13" x2="106.61" y2="13.75"/><line class="cls-11" x1="202.31" y1="36.13" x2="202.31" y2="13.75"/><line class="cls-11" x1="298" y1="36.13" x2="298" y2="13.75"/><line class="cls-11" x1="393.69" y1="36.13" x2="393.69" y2="13.75"/><line class="cls-11" x1="489.39" y1="36.13" x2="489.39" y2="13.75"/><line class="cls-11" x1="585.08" y1="36.13" x2="585.08" y2="13.75"/><line class="cls-11" x1="680.78" y1="36.13" x2="680.78" y2="13.75"/><line class="cls-11" x1="818.14" y1="36.13" x2="818.14" y2="13.75"/></g></g></svg>