<svg xmlns="http://www.w3.org/2000/svg" viewBox="0 0 58.9 256.66"><defs><style>.cls-1{fill:#b5d2e3;}</style></defs><title>curly-brace</title><g id="Layer_2" data-name="Layer 2"><g id="texts"><path class="cls-1" d="M58.9,256.66h-14c-15.71,0-24.68-7.57-24.68-33.1V179.24c0-22.72-3.65-44.6-20.2-45.44V123.14c16.55-.84,20.2-22.72,20.2-45.44V33.1C20.2,7.57,29.17,0,44.88,0h14V9.26H45.44c-11.5,0-14.59,7.57-14.59,28.89v44c0,37.59-16,43.2-19.63,45.44,3.65,3.65,19.63,9.26,19.63,46.84v44c0,21.32,3.09,28.89,14.59,28.89H58.9Z"/></g></g></svg>