<svg xmlns="http://www.w3.org/2000/svg" viewBox="0 0 452.03 253.16"><defs><style>.cls-1,.cls-4,.cls-5{fill:none;}.cls-1,.cls-2,.cls-4,.cls-5{stroke:#0080b1;}.cls-1,.cls-4{stroke-miterlimit:10;}.cls-1,.cls-2,.cls-5{stroke-width:2px;}.cls-2,.cls-3{fill:#fff;}.cls-2,.cls-5{stroke-linecap:round;stroke-linejoin:round;}</style></defs><title>escalator</title><g id="Layer_2" data-name="Layer 2"><g id="texts"><polygon class="cls-1" points="187.43 247.04 141.33 247.22 141.22 233.39 187.33 233.21 187.43 247.04"/><polygon class="cls-1" points="216.7 232.69 170.59 232.86 170.49 217.5 216.59 217.32 216.7 232.69"/><polygon class="cls-1" points="245.96 218.33 199.86 218.5 199.75 201.6 245.85 201.42 245.96 218.33"/><polygon class="cls-1" points="275.23 203.97 229.12 204.15 229.01 185.7 275.12 185.53 275.23 203.97"/><polygon class="cls-1" points="304.49 189.61 258.38 189.79 258.28 169.81 304.38 169.63 304.49 189.61"/><polygon class="cls-1" points="333.75 175.25 287.65 175.43 287.54 153.91 333.65 153.74 333.75 175.25"/><rect class="cls-1" x="316.86" y="137.93" width="46.1" height="23.05" transform="translate(-0.57 1.31) rotate(-0.22)"/><rect class="cls-1" x="346.12" y="122.03" width="46.1" height="24.59" transform="translate(-0.52 1.43) rotate(-0.22)"/><rect class="cls-1" x="375.39" y="106.14" width="46.1" height="26.13" transform="translate(-0.46 1.54) rotate(-0.22)"/><rect class="cls-1" x="404.65" y="90.24" width="46.1" height="27.66" transform="translate(-0.4 1.65) rotate(-0.22)"/><path class="cls-2" d="M43.27,186.93l-3.41,27.69.1-.37L39.48,216c-.42,1.55-15.78,19.76-16.27,21.57-.18.67-.35,1.34-.54,2a9.81,9.81,0,0,0-.5,1.89c-.1,1.32.95,1.57,2,1.69a8.54,8.54,0,0,1,3.32,1.14c.69.4,1.87,1.72,2.63.77a.91.91,0,0,0,0-1.1,15.25,15.25,0,0,0-4-3.65l20.46-24,.1-.37,7.76-26.8a5.75,5.75,0,0,0-11-3.2A6.22,6.22,0,0,0,43.27,186.93Z"/><path class="cls-2" d="M50.08,125.27,34,145.86l-.25.32a2.64,2.64,0,0,0,.3,3.56l-.22,27.88-.36-.22,3.31,2.74a.74.74,0,0,0,1-1.07l-2.92-3.16a.69.69,0,0,0-.23-.16l-.14-.06,4.88-27.6h0L57,131.53a4.68,4.68,0,0,0-6.5-6.74A5.12,5.12,0,0,0,50.08,125.27Z"/><path class="cls-2" d="M41.74,174.31c1.67,6.43,7.13,8,13,6.46s9.84-5.53,8.17-12c-1.39-5.33,2.14-39-5-48.25-.1-.13-.76.4-1.06.05-.85-.94-1.25-3.9-1.25-3.9l-3.1.81s-.13,3.26-.22,3.74C50.15,132,40.32,168.85,41.74,174.31Z"/><path class="cls-2" d="M48.76,105.91a7.42,7.42,0,0,1,14.67,2.18c-.6,4.05-5,10.87-9,10.27S48.16,110,48.76,105.91Z"/><path class="cls-2" d="M49.86,132.07l9.25,24.46.14.38a2.64,2.64,0,0,0,3.2,1.59l23.72,14.64-.38.2,4.06-1.41a.74.74,0,0,0-.39-1.42l-4.21.86a.69.69,0,0,0-.26.11l-.12.09L63.8,153.08h0l-5-23.71a4.68,4.68,0,0,0-9.13,2.08A5.12,5.12,0,0,0,49.86,132.07Z"/><path class="cls-2" d="M53.36,183.7l11.16,25.57-.1-.37.49,1.79,1.29,4.65L68,221.78,70,229l1.89,6.83,1.5,5.43c.19.67.38,1.34.56,2a9.81,9.81,0,0,0,.53,1.89c.59,1.18,1.61.87,2.59.43a8.54,8.54,0,0,1,3.44-.71c.8,0,2.48.53,2.65-.67a.91.91,0,0,0-.53-1,15.25,15.25,0,0,0-5.27-1.12l-6.06-34.72-.1-.37-7-27a5.75,5.75,0,1,0-11.14,2.87A6.22,6.22,0,0,0,53.36,183.7Z"/><path class="cls-2" d="M53.2,125.85c-7.41,1.5-7.63,5.57-2.92,15.83l13.23-4.49S59.8,124.52,53.2,125.85Z"/><path class="cls-2" d="M41.6,167.38s15.66,4,21,1.89c0,0,8.48,18.8,11.23,34.22,0,0-8.24,5.07-14.15,5.91l-4.92-16.68s-3.66,13.73-5.18,19c0,0-13.76-3-16.4-6.55,0,0,8-11.61,8.45-19.22S37.27,177.52,41.6,167.38Z"/><line class="cls-2" x1="1" y1="252.16" x2="441.46" y2="252.16"/><path class="cls-3" d="M153.62,252.16H73.8a39,39,0,0,1,0-78h59.91L451,1l0,88.18ZM451,12.57,136.27,184.16H73.8a29,29,0,0,0,0,58h77.26L451,78.87"/><path class="cls-4" d="M153.62,252.16H73.8a39,39,0,0,1,0-78h59.91L451,1l0,88.18ZM451,12.57,136.27,184.16H73.8a29,29,0,0,0,0,58h77.26L451,78.87"/><path class="cls-5" d="M153.62,252.16H73.8a39,39,0,0,1,0-78h59.91L451,1l0,88.18ZM451,12.57,136.27,184.16H73.8a29,29,0,0,0,0,58h77.26L451,78.87"/><path class="cls-2" d="M451,227.24V89.18L243.8,202.25a204.53,204.53,0,0,1-98,25H95.89a2,2,0,0,0-2,2v22.92H451V227.24Z"/><rect class="cls-2" x="94.75" y="196.78" width="46.25" height="20.58" rx="2" ry="2"/><rect class="cls-2" x="117.88" y="21.65" width="96.12" height="67.23" rx="2" ry="2"/><path class="cls-2" d="M202.2,34.58,175.84,36.8a1,1,0,0,0-.74,1.57l2.7,3.88a1,1,0,0,1-.25,1.39L162.23,54.31a1,1,0,0,1-.57.18H132.19a1,1,0,0,0-1,1v13a1,1,0,0,0,1,1h34.18a1,1,0,0,0,.57-.18L186.12,56a1,1,0,0,1,1.39.25l2.7,3.88a1,1,0,0,0,1.73-.15L203.19,36A1,1,0,0,0,202.2,34.58Z"/><line class="cls-5" x1="129.61" y1="79.28" x2="198.33" y2="79.28"/><line class="cls-5" x1="102.18" y1="203.65" x2="134.26" y2="203.65"/><line class="cls-5" x1="102.18" y1="210.2" x2="134.26" y2="210.2"/></g></g></svg>