<svg xmlns="http://www.w3.org/2000/svg" viewBox="0 0 765.44 256.66"><defs><style>.cls-1{font-size:24px;}.cls-1,.cls-26{fill:#0080b1;font-family:HelveticaNeue-Bold, HelveticaNeue Bold;}.cls-11,.cls-12,.cls-13,.cls-14,.cls-2,.cls-26,.cls-27,.cls-28,.cls-29,.cls-30{font-weight:700;}.cls-10,.cls-15,.cls-3,.cls-31,.cls-32,.cls-33,.cls-4,.cls-5,.cls-6,.cls-7,.cls-8,.cls-9{fill:#5d5d5d;font-family:HelveticaNeueLTPro-Lt, HelveticaNeueLTPro Lt;}.cls-3{letter-spacing:-0.01em;}.cls-14,.cls-4{letter-spacing:0em;}.cls-5{letter-spacing:0em;}.cls-12,.cls-21,.cls-6{letter-spacing:-0.01em;}.cls-8{letter-spacing:-0.01em;}.cls-9{letter-spacing:0em;}.cls-10,.cls-22{letter-spacing:0em;}.cls-11{letter-spacing:-0.09em;}.cls-13{letter-spacing:0em;}.cls-15,.cls-18{letter-spacing:-0.01em;}.cls-16{letter-spacing:-0.01em;}.cls-17{letter-spacing:0em;}.cls-19,.cls-31{letter-spacing:0em;}.cls-20,.cls-30{letter-spacing:0.01em;}.cls-23{letter-spacing:-0.01em;}.cls-24{letter-spacing:0.02em;}.cls-25{letter-spacing:-0.01em;}.cls-27{letter-spacing:0.01em;}.cls-28{letter-spacing:-0.01em;}.cls-29,.cls-32{letter-spacing:0em;}.cls-33{letter-spacing:-0.01em;}.cls-34{font-size:23.48px;fill:#5d9632;font-family:ArialMT, Arial;}.cls-35{fill:#b5d2e3;}.cls-36,.cls-37{fill:#fff;stroke-linecap:round;stroke-linejoin:round;stroke-width:3px;}.cls-36{stroke:#5d9632;}.cls-37{stroke:#0080b1;}</style></defs><title>example-code</title><g id="Layer_2" data-name="Layer 2"><g id="texts"><text class="cls-1" transform="translate(230.42 51.74)"><tspan class="cls-2">&lt;title&gt;</tspan><tspan class="cls-3" x="67.8" y="0">T</tspan><tspan class="cls-4" x="79.56" y="0">he Ultim</tspan><tspan class="cls-5" x="164.76" y="0">a</tspan><tspan class="cls-6" x="176.23" y="0">t</tspan><tspan class="cls-7" x="184.03" y="0">e </tspan><tspan class="cls-8" x="201.14" y="0">U</tspan><tspan class="cls-7" x="216.53" y="0">sed </tspan><tspan class="cls-3" x="256.68" y="0">C</tspan><tspan class="cls-7" x="270.43" y="0">ars Guide</tspan><tspan class="cls-2" x="364.34" y="0">&lt;/title&gt;</tspan><tspan class="cls-2" x="0" y="48.8">&lt;meta name=“</tspan><tspan class="cls-7" x="150.67" y="48.8">desc</tspan><tspan class="cls-9" x="196.49" y="48.8">r</tspan><tspan class="cls-10" x="204.43" y="48.8">iption</tspan><tspan class="cls-11" x="263.76" y="48.8">”</tspan><tspan class="cls-2" x="270.19" y="48.8"> </tspan><tspan class="cls-12" x="275.28" y="48.8">c</tspan><tspan class="cls-2" x="285.88" y="48.8">o</tspan><tspan class="cls-13" x="299.06" y="48.8">n</tspan><tspan class="cls-12" x="312.28" y="48.8">t</tspan><tspan class="cls-2" x="320.08" y="48.8">e</tspan><tspan class="cls-13" x="332.11" y="48.8">n</tspan><tspan class="cls-14" x="345.33" y="48.8">t=“</tspan><tspan class="cls-15" x="376.08" y="48.8">T</tspan><tspan class="cls-10" x="387.84" y="48.8">his guide </tspan><tspan class="cls-7"><tspan x="0" y="77.6">b</tspan><tspan class="cls-16" x="13.66" y="77.6">r</tspan><tspan class="cls-17" x="21.26" y="77.6">eaks d</tspan><tspan class="cls-18" x="84.24" y="77.6">o</tspan><tspan x="97.25" y="77.6">wn best p</tspan><tspan class="cls-19" x="195.19" y="77.6">r</tspan><tspan x="202.92" y="77.6">a</tspan><tspan class="cls-20" x="214.49" y="77.6">c</tspan><tspan x="225.55" y="77.6">ti</tspan><tspan class="cls-21" x="239.11" y="77.6">c</tspan><tspan class="cls-22" x="249.72" y="77.6">es </tspan><tspan class="cls-23" x="276.33" y="77.6">f</tspan><tspan x="283.03" y="77.6">or </tspan><tspan class="cls-21" x="309.14" y="77.6">c</tspan><tspan x="319.75" y="77.6">onsumers loo</tspan><tspan class="cls-24" x="455.47" y="77.6">k</tspan><tspan x="467.13" y="77.6">ing </tspan><tspan class="cls-21" x="504.57" y="77.6">t</tspan><tspan x="512.37" y="77.6">o </tspan><tspan x="0" y="106.4">buy used car</tspan><tspan class="cls-25" x="126.81" y="106.4">s</tspan><tspan x="136.05" y="106.4">.</tspan><tspan class="cls-26" x="141.02" y="106.4">”&gt;</tspan></tspan><tspan class="cls-2" x="0" y="155.2">[</tspan><tspan class="cls-27" x="6.82" y="155.2">I</tspan><tspan class="cls-13" x="12.79" y="155.2">n</tspan><tspan class="cls-2" x="26.02" y="155.2">t</tspan><tspan class="cls-28" x="33.96" y="155.2">r</tspan><tspan class="cls-2" x="41.57" y="155.2">o </tspan><tspan class="cls-12" x="59.83" y="155.2">t</tspan><tspan class="cls-2" x="67.63" y="155.2">o the body </tspan><tspan class="cls-12" x="181.03" y="155.2">t</tspan><tspan class="cls-29" x="188.83" y="155.2">e</tspan><tspan class="cls-30" x="200.78" y="155.2">x</tspan><tspan class="cls-2" x="212.2" y="155.2">t:] </tspan><tspan class="cls-31" x="237.02" y="155.2">W</tspan><tspan class="cls-7" x="257.2" y="155.2">hen </tspan><tspan class="cls-32" x="300.96" y="155.2">A</tspan><tspan class="cls-7" x="315.57" y="155.2">me</tspan><tspan class="cls-9" x="347.61" y="155.2">r</tspan><tspan class="cls-7" x="355.55" y="155.2">icans shop </tspan><tspan class="cls-33" x="466.15" y="155.2">f</tspan><tspan class="cls-7" x="472.84" y="155.2">or </tspan><tspan class="cls-7"><tspan x="0" y="184">used cars ...</tspan></tspan></text><text class="cls-34" transform="translate(0 135.28)">EXAMPLE</text><path class="cls-35" d="M179.8,256.66h-14c-15.71,0-24.68-7.57-24.68-33.1V179.24c0-22.72-3.65-44.6-20.2-45.44V123.14c16.55-.84,20.2-22.72,20.2-45.44V33.1c0-25.53,9-33.1,24.68-33.1h14V9.26H166.33c-11.5,0-14.59,7.57-14.59,28.89v44c0,37.59-16,43.2-19.63,45.44,3.65,3.65,19.63,9.26,19.63,46.84v44c0,21.32,3.09,28.89,14.59,28.89H179.8Z"/><circle class="cls-36" cx="197.94" cy="44.16" r="20"/><polyline class="cls-37" points="186.94 46.91 195.69 53.51 207.94 37.16"/><circle class="cls-36" cx="197.94" cy="101.66" r="20"/><polyline class="cls-37" points="186.94 104.41 195.69 111.01 207.94 94.66"/><circle class="cls-36" cx="197.94" cy="201.66" r="20"/><polyline class="cls-37" points="186.94 204.41 195.69 211.01 207.94 194.66"/></g></g></svg>