<svg xmlns="http://www.w3.org/2000/svg" viewBox="0 0 960.02 123.92"><defs><style>.cls-1,.cls-10,.cls-2,.cls-4,.cls-5,.cls-6,.cls-9{fill:#fff;}.cls-1,.cls-6,.cls-7{stroke:#5d9632;}.cls-1,.cls-13,.cls-2,.cls-3{stroke-linecap:round;stroke-linejoin:round;}.cls-1,.cls-13,.cls-2,.cls-5,.cls-6,.cls-7{stroke-width:2px;}.cls-2,.cls-5{stroke:#bf3019;}.cls-3,.cls-8{fill:#bf3019;}.cls-13,.cls-3{stroke:#fff;}.cls-3{stroke-width:3px;}.cls-4{font-size:36px;font-family:MuseoSans-900, MuseoSans 900;}.cls-5,.cls-6,.cls-7{stroke-miterlimit:10;}.cls-7{fill:none;}.cls-10{font-size:24px;font-family:ArialMT, Arial;}.cls-11{letter-spacing:-0.07em;}.cls-12{letter-spacing:-0.06em;}.cls-13{fill:#5d9632;}.cls-14{letter-spacing:-0.04em;}</style></defs><title>flash vs html</title><g id="Layer_2" data-name="Layer 2"><g id="texts"><rect class="cls-1" x="488.61" y="32.92" width="450" height="90"/><rect class="cls-2" x="25.61" y="32.92" width="453" height="90"/><circle class="cls-3" cx="484.02" cy="78.37" r="35"/><text class="cls-4" transform="translate(459.02 93.37)">VS.</text><circle class="cls-5" cx="22.51" cy="76.23" r="21.51"/><polygon class="cls-5" points="34.44 69.56 29.18 64.3 22.51 70.97 15.84 64.3 10.58 69.56 17.25 76.23 10.58 82.9 15.84 88.16 22.51 81.49 29.18 88.16 34.44 82.9 27.77 76.23 34.44 69.56"/><circle class="cls-6" cx="937.51" cy="76.86" r="21.51"/><polygon class="cls-7" points="935.03 88.54 923.37 79.8 927.09 74.83 934.11 80.09 946.95 65.19 951.65 69.25 935.03 88.54"/><path class="cls-2" d="M159.5,11.91V1H103.77a10,10,0,0,0-10,10V98.44a10,10,0,0,0,10,10h66.64a10,10,0,0,0,10-10V21.91H169.5A10,10,0,0,1,159.5,11.91Z"/><path class="cls-2" d="M159.5,11.91a10,10,0,0,0,10,10h10.91L159.5,1Z"/><rect class="cls-8" x="67.93" y="53.72" width="94.44" height="36.29" rx="11" ry="11"/><path class="cls-9" d="M151.36,54.72a10,10,0,0,1,10,10V79a10,10,0,0,1-10,10H78.93a10,10,0,0,1-10-10V64.72a10,10,0,0,1,10-10h72.44m0-2H78.93a12,12,0,0,0-12,12V79a12,12,0,0,0,12,12h72.44a12,12,0,0,0,12-12V64.72a12,12,0,0,0-12-12Z"/><text class="cls-10" transform="translate(77.71 81.51)">FLASH</text><path class="cls-2" d="M280.94,11.91V1H225.22a10,10,0,0,0-10,10V98.44a10,10,0,0,0,10,10h66.64a10,10,0,0,0,10-10V21.91H290.94A10,10,0,0,1,280.94,11.91Z"/><path class="cls-2" d="M280.94,11.91a10,10,0,0,0,10,10h10.91L280.94,1Z"/><rect class="cls-8" x="189.37" y="53.72" width="94.44" height="36.29" rx="11" ry="11"/><path class="cls-9" d="M272.81,54.72a10,10,0,0,1,10,10V79a10,10,0,0,1-10,10H200.37a10,10,0,0,1-10-10V64.72a10,10,0,0,1,10-10h72.44m0-2H200.37a12,12,0,0,0-12,12V79a12,12,0,0,0,12,12h72.44a12,12,0,0,0,12-12V64.72a12,12,0,0,0-12-12Z"/><text class="cls-10" transform="translate(207.79 81.51)">J<tspan class="cls-11" x="12" y="0">AV</tspan><tspan class="cls-12" x="40.45" y="0">A</tspan></text><path class="cls-2" d="M402.39,11.91V1H346.66a10,10,0,0,0-10,10V98.44a10,10,0,0,0,10,10H413.3a10,10,0,0,0,10-10V21.91H412.39A10,10,0,0,1,402.39,11.91Z"/><path class="cls-2" d="M402.39,11.91a10,10,0,0,0,10,10H423.3L402.39,1Z"/><rect class="cls-8" x="310.82" y="53.72" width="94.44" height="36.29" rx="11" ry="11"/><path class="cls-9" d="M394.25,54.72a10,10,0,0,1,10,10V79a10,10,0,0,1-10,10H321.82a10,10,0,0,1-10-10V64.72a10,10,0,0,1,10-10h72.44m0-2H321.82a12,12,0,0,0-12,12V79a12,12,0,0,0,12,12h72.44a12,12,0,0,0,12-12V64.72a12,12,0,0,0-12-12Z"/><text class="cls-10" transform="translate(332.96 81.51)">PNG</text><path class="cls-1" d="M742.69,11.91V1H687a10,10,0,0,0-10,10V98.44a10,10,0,0,0,10,10H753.6a10,10,0,0,0,10-10V21.91H752.69A10,10,0,0,1,742.69,11.91Z"/><path class="cls-1" d="M742.69,11.91a10,10,0,0,0,10,10H763.6L742.69,1Z"/><rect class="cls-13" x="652.12" y="54.72" width="92.44" height="34.29" rx="10" ry="10"/><text class="cls-10" transform="translate(664.26 81.51)">HTM<tspan class="cls-14" x="51.98" y="0">L</tspan></text></g></g></svg>