<svg xmlns="http://www.w3.org/2000/svg" viewBox="0 0 258.75 194.52"><defs><style>.cls-1{fill:#b5d2e3;}.cls-2{fill:#5d9632;}.cls-2,.cls-3{stroke:#fff;stroke-linecap:round;stroke-linejoin:round;stroke-width:6px;}.cls-3{fill:#bf3019;}.cls-4{fill:#fff;}.cls-5{fill:#0080b1;}</style></defs><title>gear-down</title><g id="Layer_2" data-name="Layer 2"><g id="texts"><path class="cls-1" d="M215.91,179.92h9.79c8.36,0,10.61-5.51,10.61-21v-32c0-27.34,11.63-31.42,14.28-34.07-2.65-1.63-14.28-5.71-14.28-33v-32c0-15.5-2.24-21-10.61-21h-9.79V0h10.2c11.42,0,18,5.51,18,24.07V56.51c0,16.52,2.65,32.44,14.69,33v7.75c-12,.61-14.69,16.52-14.69,33v32.23c0,18.56-6.53,24.07-18,24.07h-10.2Z"/><path class="cls-2" d="M28.86,95.07a63,63,0,0,1,63-63,62.38,62.38,0,0,1,25.47,5.54L106.46,48.41l44.53.15L151.13,4,136.65,18.4a88.77,88.77,0,0,0-115,131.06L40.14,131A62.82,62.82,0,0,1,28.86,95.07Z"/><path class="cls-3" d="M166.23,47.55l-20,16.81a62.77,62.77,0,0,1-73.77,91.32l10.63-13.19-44.28,4.75,4.76,44.29,11.92-14.78A87.36,87.36,0,0,0,84,184.32,88.81,88.81,0,0,0,166.23,47.55Z"/><path class="cls-4" d="M73.64,117.53a1,1,0,0,1-.94-.66L70.22,110a27,27,0,0,1-6.08-2.44l-6.76,3.24a1,1,0,0,1-1.14-.19L50.59,105a1,1,0,0,1-.2-1.14l3.19-6.71a27.85,27.85,0,0,1-2.81-6.11l-7.26-2.49a1,1,0,0,1-.68-.95v-8a1,1,0,0,1,.68-.95l7.26-2.49A27.73,27.73,0,0,1,53.5,70l-3.13-6.65a1,1,0,0,1,.2-1.13l5.66-5.64a1,1,0,0,1,1.14-.2l6.72,3.2a28.48,28.48,0,0,1,6.12-2.74l2.49-7.19a1,1,0,0,1,.94-.67h8a1,1,0,0,1,.94.67L85,56.87a27.47,27.47,0,0,1,6.17,2.67l6.67-3.15a1,1,0,0,1,1.14.2l5.64,5.65a1,1,0,0,1,.2,1.14l-3.2,6.73A26.92,26.92,0,0,1,104,76.23l6.75,2.48a1,1,0,0,1,.66.94v8a1,1,0,0,1-.66.94L104,91a27.32,27.32,0,0,1-2.39,6.07l3.25,6.78a1,1,0,0,1-.19,1.14L99,110.67a1,1,0,0,1-1.14.2l-6.71-3.2A26.55,26.55,0,0,1,85,110l-2.48,6.82a1,1,0,0,1-.94.66Zm4-46.18a12.3,12.3,0,1,0,12.3,12.3A12.31,12.31,0,0,0,77.63,71.34Z"/><path class="cls-5" d="M81.61,50l2.66,7.69a26.75,26.75,0,0,1,6.85,2.95v0l7.18-3.39L104,62.94l-3.42,7.18h0a26,26,0,0,1,2.6,6.85l7.24,2.66v8l-7.24,2.66a26.22,26.22,0,0,1-2.73,6.85h.07l3.45,7.18L98.29,110l-7.17-3.41h0a26,26,0,0,1-6.85,2.67l-2.66,7.31h-8L71,109.21a26.22,26.22,0,0,1-6.85-2.76v.06l-7.18,3.44-5.64-5.63,3.42-7.17h0a27.15,27.15,0,0,1-3.12-6.85l-7.76-2.66v-8L51.61,77a26.78,26.78,0,0,1,3-6.85h.06L51.27,63l5.66-5.64,7.18,3.41h0a27.06,27.06,0,0,1,6.85-3L73.64,50h8m-4,46.93a13.3,13.3,0,1,0-13.3-13.3,13.3,13.3,0,0,0,13.3,13.3m4-48.93h-8a2,2,0,0,0-1.89,1.35l-2.32,6.71A29.35,29.35,0,0,0,64,58.48l-6.25-3a2,2,0,0,0-2.27.39l-5.66,5.64a2,2,0,0,0-.4,2.27L52.37,70A28.77,28.77,0,0,0,50,75.44L43.2,77.76a2,2,0,0,0-1.35,1.89v8a2,2,0,0,0,1.35,1.89L50,91.84a28.78,28.78,0,0,0,2.49,5.38l-3,6.23a2,2,0,0,0,.39,2.28l5.64,5.63a2,2,0,0,0,2.28.39l6.3-3a28,28,0,0,0,5.35,2.14l2.31,6.34a2,2,0,0,0,1.88,1.32h8a2,2,0,0,0,1.88-1.32l2.3-6.34a28,28,0,0,0,5.39-2.08l6.25,3a2,2,0,0,0,2.28-.39l5.63-5.64a2,2,0,0,0,.39-2.28l-3-6.32a28.32,28.32,0,0,0,2.1-5.33l6.27-2.3a2,2,0,0,0,1.31-1.88v-8a2,2,0,0,0-1.31-1.88l-6.27-2.3a27.68,27.68,0,0,0-2-5.4l3-6.27a2,2,0,0,0-.39-2.27l-5.64-5.65a2,2,0,0,0-2.27-.4l-6.2,2.93a28.45,28.45,0,0,0-5.43-2.36l-2.32-6.7A2,2,0,0,0,81.61,48Zm-4,46.93a11.3,11.3,0,1,1,11.3-11.3,11.31,11.31,0,0,1-11.3,11.3Z"/><path class="cls-4" d="M112.32,142.13a1,1,0,0,1-.38-.08l-4.21-1.74a1,1,0,0,1-.62-1l.21-4a16,16,0,0,1-2.43-2.44l-4.08.21a1,1,0,0,1-.92-.62l-1.74-4.21a1,1,0,0,1,.25-1.12l3-2.7a17.87,17.87,0,0,1,0-3.45l-3-2.7a1,1,0,0,1-.26-1.13l1.74-4.21a1,1,0,0,1,.92-.62l4.09.22a16.1,16.1,0,0,1,2.46-2.43l-.2-4a1,1,0,0,1,.64-1l4.61-1.75a1,1,0,0,1,.35-.06,1,1,0,0,1,.7.29l3.1,3a13.71,13.71,0,0,1,1.52-.08c.52,0,1,0,1.55.08l2.49-3a1,1,0,0,1,1.16-.28l4.11,1.74a1,1,0,0,1,.61,1l-.25,4a16,16,0,0,1,2.41,2.44l4.06-.21a1,1,0,0,1,.92.62l1.74,4.21a1,1,0,0,1-.25,1.13l-3,2.7a16.09,16.09,0,0,1,0,3.44l3,2.68a1,1,0,0,1,.25,1.12L135,132.45a1,1,0,0,1-.92.62l-4-.2a16.07,16.07,0,0,1-2.43,2.43l.21,4a1,1,0,0,1-.62,1L123,142.05a1,1,0,0,1-1.13-.25l-2.7-3a16.3,16.3,0,0,1-1.75.09,16,16,0,0,1-1.69-.09l-2.69,3A1,1,0,0,1,112.32,142.13Zm5.17-26a6.6,6.6,0,1,0,2.52.5A6.58,6.58,0,0,0,117.49,116.11Z"/><path class="cls-5" d="M122.85,104.29,127,106l-.29,4.54a15,15,0,0,1,3,3h0l4.53-.23,1.74,4.21-3.38,3h0a15.1,15.1,0,0,1,0,4.23l3.35,3-1.74,4.21-4.52-.23a15.05,15.05,0,0,1-3,3h0l.24,4.54-4.21,1.75-3-3.37h0a15.33,15.33,0,0,1-2.15.15,14.8,14.8,0,0,1-2.09-.15l-3,3.38-4.21-1.74.24-4.54a15,15,0,0,1-3-3h0l-4.54.23-1.74-4.21,3.37-3h0a16.53,16.53,0,0,1,0-4.25l-3.39-3,1.74-4.21,4.56.24a15.11,15.11,0,0,1,3-3h0l-.23-4.53,4.61-1.74,3.45,3.37h0a11,11,0,0,1,1.87-.14,14.37,14.37,0,0,1,2,.13l2.84-3.37m-5.37,26a7.6,7.6,0,1,0-2.9-.58,7.6,7.6,0,0,0,2.9.58m5.37-28a2,2,0,0,0-1.53.71l-2.16,2.57c-.37,0-.75,0-1.12,0s-.78,0-1.15,0l-2.77-2.71a2,2,0,0,0-2.11-.44l-4.61,1.74a2,2,0,0,0-1.29,2l.18,3.51a17.07,17.07,0,0,0-1.88,1.86l-3.54-.19h-.11a2,2,0,0,0-1.85,1.23l-1.74,4.21a2,2,0,0,0,.51,2.25l2.64,2.37a19,19,0,0,0,0,2.63l-2.63,2.37a2,2,0,0,0-.51,2.25L99,132.85a2,2,0,0,0,1.85,1.24h.1l3.52-.18a17,17,0,0,0,1.86,1.87l-.18,3.52a2,2,0,0,0,1.23,2l4.21,1.74a2,2,0,0,0,2.25-.51l2.36-2.62c.43,0,.86,0,1.29,0s.9,0,1.35-.05l2.36,2.62a2,2,0,0,0,2.25.51l4.21-1.75a2,2,0,0,0,1.23-2l-.18-3.53a17.1,17.1,0,0,0,1.86-1.86l3.5.18h.1a2,2,0,0,0,1.85-1.23l1.74-4.21a2,2,0,0,0-.51-2.25l-2.6-2.35a17.14,17.14,0,0,0,0-2.63l2.62-2.36a2,2,0,0,0,.51-2.25L136,112.57a2,2,0,0,0-1.85-1.24h-.1l-3.5.18a17.05,17.05,0,0,0-1.83-1.85l.22-3.51a2,2,0,0,0-1.22-2l-4.11-1.74a2,2,0,0,0-.78-.16Zm-5.37,26a5.6,5.6,0,1,1,5.17-3.46,5.57,5.57,0,0,1-5.17,3.46Z"/></g></g></svg>