<svg xmlns="http://www.w3.org/2000/svg" viewBox="0 0 474.18 549.5"><defs><style>.cls-1,.cls-15,.cls-17{fill:#2c81b1;}.cls-1,.cls-10,.cls-11,.cls-12,.cls-6,.cls-8,.cls-9{stroke:#fff;}.cls-1,.cls-12,.cls-13,.cls-14,.cls-18,.cls-6,.cls-8,.cls-9{stroke-miterlimit:10;}.cls-1,.cls-10,.cls-13,.cls-14,.cls-18,.cls-4,.cls-6,.cls-7,.cls-8{stroke-width:2px;}.cls-14,.cls-2,.cls-4,.cls-5{fill:#fff;}.cls-3{fill:#0080b1;}.cls-18,.cls-4,.cls-7{stroke:#0080b1;}.cls-10,.cls-11,.cls-18,.cls-4{stroke-linecap:round;}.cls-10,.cls-11,.cls-4,.cls-7{stroke-linejoin:round;}.cls-5{font-size:24px;}.cls-15,.cls-17,.cls-5{font-family:ArialMT, Arial;}.cls-6{fill:#5d9632;}.cls-10,.cls-11,.cls-12,.cls-13,.cls-18,.cls-7,.cls-8,.cls-9{fill:none;}.cls-9{stroke-width:1.5px;}.cls-12{stroke-width:1.3px;}.cls-13,.cls-14{stroke:#2c81b1;}.cls-15{font-size:18.15px;}.cls-16{letter-spacing:-0.06em;}.cls-17{font-size:14.18px;}</style></defs><title>good-badlinks</title><g id="Layer_2" data-name="Layer 2"><g id="back"><rect class="cls-1" x="1" y="33.87" width="472.18" height="514.63"/><rect class="cls-1" x="61" y="1" width="355" height="65"/></g><g id="texts"><path class="cls-2" d="M125.09,406.89a1.9,1.9,0,0,1-.83-.19,8.86,8.86,0,0,0-3.74-.93,5.73,5.73,0,0,0-.75,0l-.19,0a5.8,5.8,0,0,1-.83.08,2.35,2.35,0,0,1-1.38-.4,2.5,2.5,0,0,1-1-1.74,7.88,7.88,0,0,1,0-1.79c0-.22,0-.44,0-.66l.1-2.38,1.29-32.46L115,338.83a7.21,7.21,0,0,1,0-1.08,6.76,6.76,0,0,1,6.74-6.37h.39a6.75,6.75,0,0,1,6.35,7.13l-1.6,27.85v.36l-4.45,34.37a13.66,13.66,0,0,1,2.61,1.36l.19.13c.72.47,2.42,1.58,1.63,3.21A1.92,1.92,0,0,1,125.09,406.89Z"/><path class="cls-3" d="M121.69,332.39H122a5.75,5.75,0,0,1,5.41,6.07l-1.6,27.85v.38l-4.54,35.06a13.49,13.49,0,0,1,3.15,1.53c.62.42,1.94,1.14,1.49,2.07a.91.91,0,0,1-1.22.43,9.86,9.86,0,0,0-4.17-1,6.75,6.75,0,0,0-.88.06,7,7,0,0,1-.89.1,1.38,1.38,0,0,1-.81-.23,1.54,1.54,0,0,1-.59-1.06,13,13,0,0,1,.07-2.27c0-.79.07-1.58.1-2.38l.23-5.73.28-7,.29-7.26.26-6.47.18-4.64.06-1.42v0L116,338.73a6.22,6.22,0,0,1,0-.92,5.75,5.75,0,0,1,5.74-5.42m0-2A7.76,7.76,0,0,0,114,337.7a8.22,8.22,0,0,0,0,1.22l2.83,27.6,0,.39,0,.89-.09,2.32-.09,2.32,0,.46-.24,6-.18,4.42-.11,2.84-.14,3.47-.14,3.54-.22,5.51v.22l0,1.12q0,.63-.05,1.26c0,.2,0,.4,0,.61a8.68,8.68,0,0,0,0,2,3.53,3.53,0,0,0,1.44,2.42,3.36,3.36,0,0,0,1.94.58,6.57,6.57,0,0,0,1-.09l.18,0a4.79,4.79,0,0,1,.62,0,7.84,7.84,0,0,1,3.3.83,2.91,2.91,0,0,0,3.89-1.36c.77-1.61.1-3.11-2-4.48l-.18-.12a14.08,14.08,0,0,0-2.08-1.16L127.8,367q0-.1,0-.19v-.36l1.6-27.83a7.75,7.75,0,0,0-7.29-8.18Z"/><path class="cls-2" d="M135.15,318.17a3.56,3.56,0,0,1-2.84-1.39l-16-20.7a6.15,6.15,0,0,1-.43-.64,5.6,5.6,0,1,1,9.73-5.56l11.14,19.48,19.46-9.06a1.71,1.71,0,0,1,.66-.16l4.24-.09a1.73,1.73,0,0,1,1.43,2.75,1.71,1.71,0,0,1-1.13.69l-3.68.58-20.63,13.52a3.59,3.59,0,0,1-2,.58Z"/><path class="cls-3" d="M120.76,288.06a4.6,4.6,0,0,1,4,2.32l11.6,20.28,20.16-9.39.13-.06a.71.71,0,0,1,.27-.09l4.23-.12h0a.75.75,0,0,1,.72.64.74.74,0,0,1-.61.85l-3.9.62.12-.08-.4.12.28,0-20.81,13.64a2.6,2.6,0,0,1-3.47-.58l-.24-.31-15.74-20.38a5.07,5.07,0,0,1-.35-.53,4.6,4.6,0,0,1,4-6.89m0-2a6.6,6.6,0,0,0-5.73,9.88,7.12,7.12,0,0,0,.5.75l15.75,20.39.24.31a4.6,4.6,0,0,0,6.14,1L158.12,305l3.47-.54a2.76,2.76,0,0,0-.42-5.48h-.06l-4.23.12a2.68,2.68,0,0,0-1.06.26l-.14.07-18.49,8.62L126.5,289.38a6.62,6.62,0,0,0-5.74-3.32Z"/><polyline class="cls-4" points="127.65 293.2 133.56 298.92 125.42 305.79"/><path class="cls-2" d="M116.92,345.62c-7.23,0-11.73-4-11.73-10.35,0-5.18,3.41-38.24,8.23-48.29.12-.26.66-1.95,1.08-3.36a1,1,0,0,1,1-.71h3.14a1,1,0,0,1,1,1.12,11.67,11.67,0,0,0,0,3.08h.14a1.08,1.08,0,0,1,1,.65c4.71,11,7.88,42.52,7.88,47.52C128.65,341.65,124.15,345.62,116.92,345.62Z"/><path class="cls-3" d="M118.6,283.9h0m0,0s-.35,2.91.22,4a.46.46,0,0,0,.45.21c.17,0,.35,0,.46,0s.1,0,.11,0c4.5,10.53,7.8,41.72,7.8,47.13,0,6.53-4.8,9.35-10.73,9.35s-10.73-2.82-10.73-9.35c0-5.54,3.46-38.12,8.13-47.86.21-.43,1.14-3.51,1.14-3.51h3.14m0-2h-3.15a2,2,0,0,0-1.91,1.42c-.4,1.33-.92,3-1,3.26-4.86,10.14-8.31,43.47-8.31,48.69,0,7,4.88,11.35,12.73,11.35s12.73-4.35,12.73-11.35c0-5-3.2-36.78-8-47.92a2,2,0,0,0-1.18-1.12,14.19,14.19,0,0,1,.08-2,2,2,0,0,0-2-2.33Zm0,4h0Z"/><path class="cls-2" d="M116.92,283.45c-4.87,0-8.29-8-8.29-12.28a8.29,8.29,0,1,1,16.58,0C125.21,275.48,121.79,283.45,116.92,283.45Z"/><path class="cls-3" d="M116.92,263.88a7.29,7.29,0,0,1,7.29,7.29c0,4-3.26,11.28-7.29,11.28s-7.29-7.26-7.29-11.28a7.29,7.29,0,0,1,7.29-7.29m0-2a9.3,9.3,0,0,0-9.29,9.29c0,4.56,3.62,13.28,9.29,13.28s9.29-8.72,9.29-13.28a9.3,9.3,0,0,0-9.29-9.29Z"/><path class="cls-2" d="M115.84,406.87a4.48,4.48,0,0,1-1.77-.51,4.69,4.69,0,0,0-.48-.2,8.06,8.06,0,0,0-2.35-.38,6.27,6.27,0,0,0-.73,0,7.36,7.36,0,0,1-.84.06,2.35,2.35,0,0,1-2.6-2.09,6.57,6.57,0,0,1,0-1.63c0-.18,0-.36,0-.53,0-.46,0-.92.06-1.37l1.34-33.76-2.83-27.66a7.21,7.21,0,0,1,0-1.08,6.76,6.76,0,0,1,6.74-6.37h.39a6.75,6.75,0,0,1,6.35,7.13l-1.6,27.85v.36a1,1,0,0,1,0,.1L112.82,401a14.92,14.92,0,0,1,4.25,2.56,1.92,1.92,0,0,1,.45,2.26A1.81,1.81,0,0,1,115.84,406.87Z"/><path class="cls-3" d="M112.39,332.39h.34a5.75,5.75,0,0,1,5.41,6.07l-1.6,27.85v.38l-4.8,34.92a15.25,15.25,0,0,1,4.68,2.67.91.91,0,0,1,.21,1.08.8.8,0,0,1-.78.5,7.5,7.5,0,0,1-2-.66,9.05,9.05,0,0,0-2.65-.42,7.22,7.22,0,0,0-.85,0,6.23,6.23,0,0,1-.73.05c-.79,0-1.46-.24-1.61-1.25a9.79,9.79,0,0,1,.07-2c0-.69.05-1.39.08-2.08l.22-5.63.28-7.08.29-7.43.26-6.68.19-4.82.06-1.49v0l-2.84-27.73a6.22,6.22,0,0,1,0-.92,5.75,5.75,0,0,1,5.74-5.42m0-2a7.76,7.76,0,0,0-7.73,7.31,8.22,8.22,0,0,0,0,1.22l2.83,27.6,0,.44,0,.91-.12,3-.07,1.84-.13,3.34-.13,3.34-.15,3.72-.15,3.72-.14,3.58-.14,3.51-.22,5.63,0,.73c0,.44,0,.89-.05,1.33,0,.16,0,.32,0,.49a7.47,7.47,0,0,0,0,1.88,3.35,3.35,0,0,0,3.59,2.94,8.06,8.06,0,0,0,1-.06,5.27,5.27,0,0,1,.61,0,7.06,7.06,0,0,1,2.06.33c.1,0,.23.09.36.15a5.36,5.36,0,0,0,2.18.6,2.81,2.81,0,0,0,2.58-1.63,2.93,2.93,0,0,0-.68-3.44,15.17,15.17,0,0,0-3.83-2.42l4.6-33.4a2.06,2.06,0,0,0,0-.21v-.36l1.6-27.83a7.75,7.75,0,0,0-7.29-8.18Z"/><polyline class="cls-4" points="121.09 344.19 119.91 365.44 114.61 397.63 104.52 399.35 106.2 366.42 102.77 336.01 105.86 327.34 128.64 328.63 133.56 364.52 124.45 397.97 114.61 397.63 122.41 365.06 120.22 351.4"/><path class="cls-2" d="M120.29,334.46a1.74,1.74,0,0,1-1.48-.83l-2-3.23L94.53,313.67a3.64,3.64,0,0,1-.72-5.09l15.17-20a6.18,6.18,0,0,1,.53-.6,5.6,5.6,0,1,1,7.88,8l-15,14.81,17.42,16.93a1.69,1.69,0,0,1,.37.53l1.69,3.88a1.73,1.73,0,0,1-1.58,2.42Z"/><path class="cls-3" d="M113.45,287.31a4.6,4.6,0,0,1,3.24,7.88L101,310.71,119,328.27l.1.09a.66.66,0,0,1,.14.21l1.69,3.88a.73.73,0,0,1-1.29.67l-2.05-3.39.1.08-.24-.3.14.22L95.13,312.87h0a2.63,2.63,0,0,1-.51-3.68l.23-.31,14.94-19.74a5,5,0,0,1,.44-.5,4.59,4.59,0,0,1,3.24-1.33m0-2a6.56,6.56,0,0,0-4.64,1.91,7,7,0,0,0-.62.7l-15,19.75L93,308a4.63,4.63,0,0,0,.9,6.48l22.2,16.63,1.85,3.06a2.73,2.73,0,0,0,4.83-2.5l-1.69-3.87a2.65,2.65,0,0,0-.58-.84l-.1-.1-16.6-16.13,14.27-14.09a6.6,6.6,0,0,0-4.64-11.3Z"/><polyline class="cls-4" points="109.93 304.15 101.12 295.53 107.55 290.2"/><text class="cls-5" transform="translate(53.17 112.1)">come from high-authority sites that <tspan x="-0.7" y="28.8">consistently publish quality content </tspan><tspan x="10.64" y="57.6">and have high relevancy (relates </tspan><tspan x="44.68" y="86.4">back to automotive sales).</tspan></text><text class="cls-5" transform="translate(73.14 459.1)">An example would be getting a <tspan x="-3.29" y="28.8">backlink from NADA. But not all </tspan><tspan x="60.71" y="57.6">backlinks are good. </tspan></text><text class="cls-5" transform="translate(152.08 42.16)">GOOD BACKLINKS </text><circle class="cls-6" cx="117.51" cy="34.49" r="21.51"/><polygon class="cls-6" points="115.03 46.16 103.37 37.42 107.09 32.45 114.11 37.71 126.95 22.82 131.66 26.87 115.03 46.16"/><rect class="cls-2" x="146.5" y="235" width="212" height="167" rx="1" ry="1"/><path class="cls-3" d="M357.5,236V401h-210V236h210m0-2h-210a2,2,0,0,0-2,2V401a2,2,0,0,0,2,2h210a2,2,0,0,0,2-2V236a2,2,0,0,0-2-2Z"/><line class="cls-4" x1="147" y1="256" x2="357" y2="256"/><rect class="cls-2" x="228.5" y="240.08" width="119.5" height="11.84" rx="1" ry="1"/><path class="cls-3" d="M347,241.08v9.84H229.5v-9.84H347m0-2H229.5a2,2,0,0,0-2,2v9.84a2,2,0,0,0,2,2H347a2,2,0,0,0,2-2v-9.84a2,2,0,0,0-2-2Z"/><rect class="cls-2" x="322.5" y="240.08" width="25.5" height="11.84" rx="1" ry="1"/><path class="cls-3" d="M347,241.08v9.84H323.5v-9.84H347m0-2H323.5a2,2,0,0,0-2,2v9.84a2,2,0,0,0,2,2H347a2,2,0,0,0,2-2v-9.84a2,2,0,0,0-2-2Z"/><circle class="cls-2" cx="169.5" cy="246" r="6"/><path class="cls-3" d="M169.5,241a5,5,0,1,1-5,5,5,5,0,0,1,5-5m0-2a7,7,0,1,0,7,7,7,7,0,0,0-7-7Z"/><circle class="cls-2" cx="184.5" cy="246" r="6"/><path class="cls-3" d="M184.5,241a5,5,0,1,1-5,5,5,5,0,0,1,5-5m0-2a7,7,0,1,0,7,7,7,7,0,0,0-7-7Z"/><circle class="cls-2" cx="199.5" cy="246" r="6"/><path class="cls-3" d="M199.5,241a5,5,0,1,1-5,5,5,5,0,0,1,5-5m0-2a7,7,0,1,0,7,7,7,7,0,0,0-7-7Z"/><line class="cls-7" x1="235.38" y1="246" x2="313.22" y2="246"/><path class="cls-2" d="M215.6,375.24a5.46,5.46,0,0,0-3.6-2.77,15.54,15.54,0,0,1-6-2.11c-3.55-2.3-5.27-7.07-14.51-7.07h-5.22c-7.42,0-10.82,6.85-11.75,11.14a22.21,22.21,0,0,0,0,5.13c.07.82.48,1.73,1.31,1.73h2a5.59,5.59,0,0,1,11.17,0h12.36a5.59,5.59,0,0,1,11.17,0h2.14a1.57,1.57,0,0,0,1.68-1.73A12.47,12.47,0,0,0,215.6,375.24Z"/><circle class="cls-2" cx="183.38" cy="381.54" r="3.15"/><circle class="cls-2" cx="207.1" cy="381.54" r="3.15"/><path class="cls-2" d="M173.83,375.62c-.41.14-1.33.53-1.33,1v.12c0,.46.61.85,1,1C173.5,377,173.81,376.29,173.83,375.62Z"/><path class="cls-2" d="M213.85,374a1.08,1.08,0,0,0-.43,1.46l.42.77a1.08,1.08,0,0,0,1.46.43l.11-.06a1.07,1.07,0,0,0,.47-.52,4.2,4.2,0,0,0-.29-.78,5.27,5.27,0,0,0-1.16-1.48,1.06,1.06,0,0,0-.48.13Z"/><rect class="cls-2" x="187.5" y="366.3" width="5" height="4"/><path class="cls-2" d="M184.5,366.29v4h-3.62C179.09,370.3,181.5,366.43,184.5,366.29Z"/><path class="cls-2" d="M201.43,370.08c-2.3-3.44-6.93-3.79-6.93-3.79v4h7.2C201.75,370.3,201.43,370.08,201.43,370.08Z"/><line class="cls-2" x1="193.5" y1="373.3" x2="196.5" y2="373.3"/><line class="cls-2" x1="186.5" y1="373.3" x2="189.5" y2="373.3"/><path class="cls-2" d="M228.72,376.43a1.12,1.12,0,0,0-.71,1.08v.13a1.1,1.1,0,0,0,.82,1C228.76,377.93,228.73,377.14,228.72,376.43Z"/><path class="cls-2" d="M275.11,376.89c-.27-1.7-1.34-4.59-12.41-4.59,0,0-5.6-4.88-9-5.51-1.59-.3-10-2.46-24.64,8.43-1.07.79,0,5.08,0,5.08H232c0-3,1.9-4.24,4.24-4.24s4.24,1.24,4.24,4.24h21.88c0-3,1.9-4.24,4.24-4.24s4.24,1.24,4.24,4.24h3.33c.56,0,1-.25,1-.81Z"/><path class="cls-2" d="M228.6,379.3c-.15,0-.1.17-.1.4v.6c0,.23-.05,0,.1,0H232s.07-1,.19-1Z"/><path class="cls-2" d="M275.07,379.3h-4.45c.12,0,.19,1,.19,1h4.27c.15,0,.43.23.43,0v-.6C275.5,379.47,275.22,379.3,275.07,379.3Z"/><path class="cls-2" d="M240.26,379.3c.12,0,.19,1,.19,1h21.88s.07-1,.19-1Z"/><path class="cls-2" d="M247,369.14a26.77,26.77,0,0,0-10,3.66h10Z"/><path class="cls-2" d="M249,372.8h10.65c-4.25-4-7.78-4.13-7.78-4.13A24.44,24.44,0,0,0,249,369Z"/><circle class="cls-2" cx="266.5" cy="381.2" r="2.55"/><circle class="cls-2" cx="236.25" cy="381.2" r="2.55"/><path class="cls-2" d="M273.65,375.78c.16-.2.08-.32.37-.34a2.54,2.54,0,0,1,.48,1.77h0v1.08c-1-.08-.23-.22-.49-.43A1.48,1.48,0,0,1,273.65,375.78Z"/><line class="cls-2" x1="249.5" y1="374.8" x2="253.5" y2="374.8"/><path class="cls-2" d="M330.27,375.24a5.46,5.46,0,0,0-3.6-2.77,15.54,15.54,0,0,1-6-2.11c-3.55-2.3-5.27-7.07-14.51-7.07H301c-7.42,0-10.82,6.85-11.75,11.14a22.21,22.21,0,0,0,0,5.13c.07.82.48,1.73,1.31,1.73h2a5.59,5.59,0,0,1,11.17,0H316a5.59,5.59,0,0,1,11.17,0h2.14a1.57,1.57,0,0,0,1.68-1.73A12.47,12.47,0,0,0,330.27,375.24Z"/><circle class="cls-2" cx="298.05" cy="381.54" r="3.15"/><circle class="cls-2" cx="321.77" cy="381.54" r="3.15"/><path class="cls-2" d="M288.67,375.62c-.41.14-1.17.53-1.17,1v.12c0,.46.53.85.95,1C288.41,377,288.64,376.29,288.67,375.62Z"/><path class="cls-2" d="M328.52,374a1.08,1.08,0,0,0-.43,1.46l.42.77a1.08,1.08,0,0,0,1.46.43l.11-.06a1.07,1.07,0,0,0,.47-.52,4.2,4.2,0,0,0-.29-.78,5.27,5.27,0,0,0-1.16-1.48,1.06,1.06,0,0,0-.48.13Z"/><rect class="cls-2" x="301.5" y="366.3" width="5" height="4"/><path class="cls-2" d="M299.5,366.29v4h-4C293.76,370.3,295.5,366.43,299.5,366.29Z"/><path class="cls-2" d="M316.26,370.08c-2.3-3.44-6.76-3.79-6.76-3.79v4h6.86C316.42,370.3,316.26,370.08,316.26,370.08Z"/><line class="cls-2" x1="308.5" y1="373.3" x2="311.5" y2="373.3"/><line class="cls-2" x1="301.5" y1="373.3" x2="304.5" y2="373.3"/><path class="cls-8" d="M215.6,375.24a5.46,5.46,0,0,0-3.6-2.77,15.54,15.54,0,0,1-6-2.11c-3.55-2.3-5.27-7.07-14.51-7.07h-5.22c-7.42,0-10.82,6.85-11.75,11.14a22.21,22.21,0,0,0,0,5.13c.07.82.48,1.73,1.31,1.73h2a5.59,5.59,0,0,1,11.17,0h12.36a5.59,5.59,0,0,1,11.17,0h2.14a1.57,1.57,0,0,0,1.68-1.73A12.47,12.47,0,0,0,215.6,375.24Z"/><circle class="cls-9" cx="183.38" cy="381.54" r="3.15"/><circle class="cls-9" cx="207.1" cy="381.54" r="3.15"/><path class="cls-8" d="M173.83,375.62c-.41.14-1.33.53-1.33,1v.12c0,.46.61.85,1,1C173.5,377,173.81,376.29,173.83,375.62Z"/><path class="cls-9" d="M213.85,374a1.08,1.08,0,0,0-.43,1.46l.42.77a1.08,1.08,0,0,0,1.46.43l.11-.06a1.07,1.07,0,0,0,.47-.52,4.2,4.2,0,0,0-.29-.78,5.27,5.27,0,0,0-1.16-1.48,1.06,1.06,0,0,0-.48.13Z"/><rect class="cls-10" x="187.5" y="366.3" width="5" height="4"/><path class="cls-10" d="M184.5,366.29v4h-3.62C179.09,370.3,181.5,366.43,184.5,366.29Z"/><path class="cls-10" d="M201.43,370.08c-2.3-3.44-6.93-3.79-6.93-3.79v4h7.2C201.75,370.3,201.43,370.08,201.43,370.08Z"/><line class="cls-10" x1="193.5" y1="373.3" x2="196.5" y2="373.3"/><line class="cls-10" x1="186.5" y1="373.3" x2="189.5" y2="373.3"/><path class="cls-9" d="M228.72,376.43a1.12,1.12,0,0,0-.71,1.08v.13a1.1,1.1,0,0,0,.82,1C228.76,377.93,228.73,377.14,228.72,376.43Z"/><path class="cls-8" d="M275.11,376.89c-.27-1.7-1.34-4.59-12.41-4.59,0,0-5.6-4.88-9-5.51-1.59-.3-10-2.46-24.64,8.43-1.07.79,0,5.08,0,5.08H232c0-3,1.9-4.24,4.24-4.24s4.24,1.24,4.24,4.24h21.88c0-3,1.9-4.24,4.24-4.24s4.24,1.24,4.24,4.24h3.33c.56,0,1-.25,1-.81Z"/><path class="cls-8" d="M228.6,379.3c-.15,0-.1.17-.1.4v.6c0,.23-.05,0,.1,0H232s.07-1,.19-1Z"/><path class="cls-8" d="M275.07,379.3h-4.45c.12,0,.19,1,.19,1h4.27c.15,0,.43.23.43,0v-.6C275.5,379.47,275.22,379.3,275.07,379.3Z"/><path class="cls-8" d="M240.26,379.3c.12,0,.19,1,.19,1h21.88s.07-1,.19-1Z"/><path class="cls-11" d="M247,369.14a26.77,26.77,0,0,0-10,3.66h10Z"/><path class="cls-11" d="M249,372.8h10.65c-4.25-4-7.78-4.13-7.78-4.13A24.44,24.44,0,0,0,249,369Z"/><circle class="cls-12" cx="266.5" cy="381.2" r="2.55"/><circle class="cls-12" cx="236.25" cy="381.2" r="2.55"/><path class="cls-8" d="M273.65,375.78c.16-.2.08-.32.37-.34a2.54,2.54,0,0,1,.48,1.77h0v1.08c-1-.08-.23-.22-.49-.43A1.48,1.48,0,0,1,273.65,375.78Z"/><line class="cls-11" x1="249.5" y1="374.8" x2="253.5" y2="374.8"/><path class="cls-8" d="M330.27,375.24a5.46,5.46,0,0,0-3.6-2.77,15.54,15.54,0,0,1-6-2.11c-3.55-2.3-5.27-7.07-14.51-7.07H301c-7.42,0-10.82,6.85-11.75,11.14a22.21,22.21,0,0,0,0,5.13c.07.82.48,1.73,1.31,1.73h2a5.59,5.59,0,0,1,11.17,0H316a5.59,5.59,0,0,1,11.17,0h2.14a1.57,1.57,0,0,0,1.68-1.73A12.47,12.47,0,0,0,330.27,375.24Z"/><circle class="cls-9" cx="298.05" cy="381.54" r="3.15"/><circle class="cls-9" cx="321.77" cy="381.54" r="3.15"/><path class="cls-8" d="M288.67,375.62c-.41.14-1.17.53-1.17,1v.12c0,.46.53.85.95,1C288.41,377,288.64,376.29,288.67,375.62Z"/><path class="cls-9" d="M328.52,374a1.08,1.08,0,0,0-.43,1.46l.42.77a1.08,1.08,0,0,0,1.46.43l.11-.06a1.07,1.07,0,0,0,.47-.52,4.2,4.2,0,0,0-.29-.78,5.27,5.27,0,0,0-1.16-1.48,1.06,1.06,0,0,0-.48.13Z"/><rect class="cls-10" x="301.5" y="366.3" width="5" height="4"/><path class="cls-10" d="M299.5,366.29v4h-4C293.76,370.3,295.5,366.43,299.5,366.29Z"/><path class="cls-10" d="M316.26,370.08c-2.3-3.44-6.76-3.79-6.76-3.79v4h6.86C316.42,370.3,316.26,370.08,316.26,370.08Z"/><line class="cls-10" x1="308.5" y1="373.3" x2="311.5" y2="373.3"/><line class="cls-10" x1="301.5" y1="373.3" x2="304.5" y2="373.3"/><path class="cls-13" d="M215.6,375.24a5.46,5.46,0,0,0-3.6-2.77,15.54,15.54,0,0,1-6-2.11c-3.55-2.3-5.27-7.07-14.51-7.07h-5.22c-7.42,0-10.82,6.85-11.75,11.14a22.21,22.21,0,0,0,0,5.13c.07.82.48,1.73,1.31,1.73h2a5.59,5.59,0,0,1,11.17,0h12.36a5.59,5.59,0,0,1,11.17,0h2.14a1.57,1.57,0,0,0,1.68-1.73A12.47,12.47,0,0,0,215.6,375.24Z"/><circle class="cls-13" cx="183.38" cy="381.54" r="3.15"/><circle class="cls-13" cx="207.1" cy="381.54" r="3.15"/><path class="cls-13" d="M173.83,375.62c-.41.14-1.33.53-1.33,1v.12c0,.46.61.85,1,1C173.5,377,173.81,376.29,173.83,375.62Z"/><path class="cls-13" d="M213.85,374a1.08,1.08,0,0,0-.43,1.46l.42.77a1.08,1.08,0,0,0,1.46.43l.11-.06a1.07,1.07,0,0,0,.47-.52,4.2,4.2,0,0,0-.29-.78,5.27,5.27,0,0,0-1.16-1.48,1.06,1.06,0,0,0-.48.13Z"/><rect class="cls-13" x="187.5" y="366.3" width="5" height="4"/><path class="cls-13" d="M184.5,366.29v4h-3.62C179.09,370.3,181.5,366.43,184.5,366.29Z"/><path class="cls-13" d="M201.43,370.08c-2.3-3.44-6.93-3.79-6.93-3.79v4h7.2C201.75,370.3,201.43,370.08,201.43,370.08Z"/><line class="cls-13" x1="193.5" y1="373.3" x2="196.5" y2="373.3"/><line class="cls-13" x1="186.5" y1="373.3" x2="189.5" y2="373.3"/><path class="cls-13" d="M228.72,376.43a1.12,1.12,0,0,0-.71,1.08v.13a1.1,1.1,0,0,0,.82,1C228.76,377.93,228.73,377.14,228.72,376.43Z"/><path class="cls-13" d="M275.11,376.89c-.27-1.7-1.34-4.59-12.41-4.59,0,0-5.6-4.88-9-5.51-1.59-.3-10-2.46-24.64,8.43-1.07.79,0,5.08,0,5.08H232c0-3,1.9-4.24,4.24-4.24s4.24,1.24,4.24,4.24h21.88c0-3,1.9-4.24,4.24-4.24s4.24,1.24,4.24,4.24h3.33c.56,0,1-.25,1-.81Z"/><path class="cls-13" d="M228.6,379.3c-.15,0-.1.17-.1.4v.6c0,.23-.05,0,.1,0H232s.07-1,.19-1Z"/><path class="cls-13" d="M275.07,379.3h-4.45c.12,0,.19,1,.19,1h4.27c.15,0,.43.23.43,0v-.6C275.5,379.47,275.22,379.3,275.07,379.3Z"/><path class="cls-13" d="M240.26,379.3c.12,0,.19,1,.19,1h21.88s.07-1,.19-1Z"/><path class="cls-13" d="M247,369.14a26.77,26.77,0,0,0-10,3.66h10Z"/><path class="cls-13" d="M249,372.8h10.65c-4.25-4-7.78-4.13-7.78-4.13A24.44,24.44,0,0,0,249,369Z"/><circle class="cls-13" cx="266.5" cy="381.2" r="2.55"/><circle class="cls-13" cx="236.25" cy="381.2" r="2.55"/><path class="cls-13" d="M273.65,375.78c.16-.2.08-.32.37-.34a2.54,2.54,0,0,1,.48,1.77h0v1.08c-1-.08-.23-.22-.49-.43A1.48,1.48,0,0,1,273.65,375.78Z"/><line class="cls-13" x1="249.5" y1="374.8" x2="253.5" y2="374.8"/><path class="cls-13" d="M330.27,375.24a5.46,5.46,0,0,0-3.6-2.77,15.54,15.54,0,0,1-6-2.11c-3.55-2.3-5.27-7.07-14.51-7.07H301c-7.42,0-10.82,6.85-11.75,11.14a22.21,22.21,0,0,0,0,5.13c.07.82.48,1.73,1.31,1.73h2a5.59,5.59,0,0,1,11.17,0H316a5.59,5.59,0,0,1,11.17,0h2.14a1.57,1.57,0,0,0,1.68-1.73A12.47,12.47,0,0,0,330.27,375.24Z"/><circle class="cls-13" cx="298.05" cy="381.54" r="3.15"/><circle class="cls-13" cx="321.77" cy="381.54" r="3.15"/><path class="cls-13" d="M288.67,375.62c-.41.14-1.17.53-1.17,1v.12c0,.46.53.85.95,1C288.41,377,288.64,376.29,288.67,375.62Z"/><path class="cls-13" d="M328.52,374a1.08,1.08,0,0,0-.43,1.46l.42.77a1.08,1.08,0,0,0,1.46.43l.11-.06a1.07,1.07,0,0,0,.47-.52,4.2,4.2,0,0,0-.29-.78,5.27,5.27,0,0,0-1.16-1.48,1.06,1.06,0,0,0-.48.13Z"/><rect class="cls-13" x="301.5" y="366.3" width="5" height="4"/><path class="cls-13" d="M299.5,366.29v4h-4C293.76,370.3,295.5,366.43,299.5,366.29Z"/><path class="cls-13" d="M316.26,370.08c-2.3-3.44-6.76-3.79-6.76-3.79v4h6.86C316.42,370.3,316.26,370.08,316.26,370.08Z"/><line class="cls-13" x1="308.5" y1="373.3" x2="311.5" y2="373.3"/><line class="cls-13" x1="301.5" y1="373.3" x2="304.5" y2="373.3"/><polygon class="cls-14" points="339.75 365.1 339.75 381.1 347 373.5 339.75 365.1"/><polygon class="cls-14" points="166.5 381.1 166.5 365.1 159.25 372.7 166.5 381.1"/><path class="cls-14" d="M287.42,319.49v8a41.16,41.16,0,0,0,12.27-8Z"/><path class="cls-14" d="M216.58,287.41a41.16,41.16,0,0,0-12.27,8h12.27Z"/><path class="cls-14" d="M204.3,319.49a41.16,41.16,0,0,0,12.27,8v-8Z"/><path class="cls-14" d="M299.7,295.38a41.16,41.16,0,0,0-12.27-8v8Z"/><path class="cls-14" d="M287.42,319.49H299.7c3.66-3.62,5.74-7.72,5.74-12.06s-2.08-8.43-5.74-12.06H287.42Z"/><path class="cls-14" d="M216.58,295.38H204.3c-3.66,3.62-5.74,7.72-5.74,12.06s2.08,8.43,5.74,12.06h12.27Z"/><path class="cls-14" d="M280.09,271H223.91a7.33,7.33,0,0,0-7.33,7.33v49.08c9.43,4.18,21.83,6.73,35.42,6.73s26-2.55,35.42-6.73V278.38A7.33,7.33,0,0,0,280.09,271Z"/><text class="cls-15" transform="translate(226.05 297.96)">NAD<tspan class="cls-16" x="38.33" y="0">A</tspan></text><text class="cls-17" transform="translate(223.58 312.99)">GUIDES</text><line class="cls-18" x1="173.83" y1="342.47" x2="327.96" y2="342.47"/><line class="cls-18" x1="208.23" y1="351.07" x2="293.56" y2="351.07"/><line class="cls-18" x1="174.5" y1="391.74" x2="214.59" y2="391.74"/><line class="cls-18" x1="231.85" y1="391.74" x2="271.94" y2="391.74"/><line class="cls-18" x1="289.96" y1="391.74" x2="330.04" y2="391.74"/></g></g></svg>