<svg xmlns="http://www.w3.org/2000/svg" viewBox="0 0 371.06 232.5"><defs><style>.cls-1,.cls-8{fill:#0080b1;}.cls-2,.cls-3{fill:#fff;}.cls-3{font-size:30px;font-family:ArialMT, Arial;}.cls-4{letter-spacing:-0.02em;}.cls-5{letter-spacing:-0.06em;}.cls-6{letter-spacing:-0.13em;}.cls-7{fill:#1b74a8;}.cls-8,.cls-9{stroke:#fff;stroke-linecap:round;stroke-linejoin:round;stroke-width:2px;}.cls-9{fill:none;}</style></defs><title>google-study</title><g id="Layer_2" data-name="Layer 2"><g id="texts"><path class="cls-1" d="M81.1,225.55a1,1,0,0,1-1-1V93.22a1,1,0,0,1,1-1H188.6a1,1,0,0,1,1,1v12.89h13.09a1,1,0,0,1,1,1V224.55a1,1,0,0,1-1,1Z"/><path class="cls-2" d="M188.6,93.22v13.89h14.09V224.55H81.1V93.22H188.6m0-2H81.1a2,2,0,0,0-2,2V224.55a2,2,0,0,0,2,2H202.68a2,2,0,0,0,2-2V107.11a2,2,0,0,0-2-2H190.6V93.22a2,2,0,0,0-2-2Z"/><rect class="cls-1" x="162.6" y="133.61" width="32" height="34.5" rx="1" ry="1"/><path class="cls-2" d="M193.6,134.61v32.5h-30v-32.5h30m0-2h-30a2,2,0,0,0-2,2v32.5a2,2,0,0,0,2,2h30a2,2,0,0,0,2-2v-32.5a2,2,0,0,0-2-2Z"/><text class="cls-3" transform="translate(11.31 30.74)">ACCORDING<tspan class="cls-4" x="183.34" y="0" xml:space="preserve"> T</tspan><tspan x="208.92" y="0">O</tspan><tspan class="cls-5" x="232.25" y="0" xml:space="preserve"> A</tspan><tspan x="257.29" y="0"> </tspan><tspan x="12.77" y="36">GOOGLE STUD</tspan><tspan class="cls-6" x="232.81" y="36">Y</tspan><tspan x="248.95" y="36">,</tspan></text><path class="cls-7" d="M317.7,224.11h12.2c10.42,0,13.21-6.86,13.21-26.17V158c0-34,14.48-39.13,17.79-42.43-3.3-2-17.79-7.11-17.79-41.16V34.56c0-19.31-2.8-26.17-13.21-26.17H317.7V0h12.7c14.23,0,22.36,6.86,22.36,30v40.4c0,20.58,3.3,40.4,18.29,41.16v9.66c-15,.76-18.29,20.58-18.29,41.16v40.15c0,23.12-8.13,30-22.36,30H317.7Z"/><rect class="cls-8" x="96.1" y="104.61" width="57.5" height="17.5"/><line class="cls-9" x1="98.6" y1="139.61" x2="126.1" y2="139.61"/><line class="cls-9" x1="98.6" y1="154.61" x2="153.6" y2="154.61"/><line class="cls-9" x1="98.6" y1="167.11" x2="153.6" y2="167.11"/><line class="cls-9" x1="98.6" y1="179.61" x2="153.6" y2="179.61"/><line class="cls-9" x1="98.6" y1="192.11" x2="153.6" y2="192.11"/><line class="cls-9" x1="98.6" y1="204.61" x2="153.6" y2="204.61"/><path class="cls-9" d="M159,208.54v-.09a8.66,8.66,0,0,1,8.66-8.66h19.18a8.66,8.66,0,0,1,8.66,8.66v1.43"/><path class="cls-9" d="M177.79,195h-.13a6.36,6.36,0,0,1-6.34-5.93l-.29-4.27a6.36,6.36,0,0,1,6.34-6.79h.71a6.36,6.36,0,0,1,6.34,6.79l-.29,4.27A6.36,6.36,0,0,1,177.79,195Z"/><path class="cls-1" d="M188.6,108.11a1,1,0,0,1-1-1V93.22a1,1,0,0,1,1-1h1.11a1,1,0,0,1,.71.29l13,13a1,1,0,0,1,.29.71v.91a1,1,0,0,1-1,1Z"/><path class="cls-2" d="M189.7,93.22l13,13v.91H188.6V93.22h1.11m0-2H188.6a2,2,0,0,0-2,2v13.89a2,2,0,0,0,2,2h14.09a2,2,0,0,0,2-2v-.91a2,2,0,0,0-.59-1.41l-13-13a2,2,0,0,0-1.41-.59Z"/></g></g></svg>