<svg xmlns="http://www.w3.org/2000/svg" viewBox="0 0 670 407.5"><defs><style>.cls-1{fill:#f2f2f2;}.cls-2,.cls-3,.cls-4{fill:none;stroke-linecap:round;stroke-linejoin:round;}.cls-2{stroke:#2c81b1;stroke-width:2px;}.cls-3{stroke:#d1d1d1;}.cls-4{stroke:#bf3019;stroke-width:3px;}.cls-5{fill:#bf3019;}.cls-6,.cls-7{font-size:20px;}.cls-6{fill:#5d5d5d;font-family:MuseoSans-900Italic, MuseoSans 900Italic;font-style:italic;}.cls-7{fill:#0080b1;font-family:MuseoSans-900, MuseoSans 900;}.cls-8{letter-spacing:-0.03em;}.cls-9{letter-spacing:0em;}.cls-10{letter-spacing:-0.01em;}.cls-11{letter-spacing:-0.01em;}.cls-12{letter-spacing:0em;}.cls-13{letter-spacing:0em;}.cls-14{letter-spacing:-0.04em;}.cls-15{letter-spacing:-0.04em;}.cls-16{letter-spacing:-0.01em;}.cls-17{letter-spacing:0.01em;}.cls-18{letter-spacing:-0.01em;}.cls-19{letter-spacing:0em;}</style></defs><title>graph</title><g id="Layer_2" data-name="Layer 2"><g id="back"><rect class="cls-1" width="670" height="407.5" rx="10" ry="10"/><polyline class="cls-2" points="644.41 335 86.98 335 86.98 35"/><line class="cls-3" x1="86.98" y1="45" x2="644.41" y2="45"/><line class="cls-3" x1="86.98" y1="86.43" x2="644.41" y2="86.43"/><line class="cls-3" x1="86.98" y1="127.86" x2="644.41" y2="127.86"/><line class="cls-3" x1="86.98" y1="169.29" x2="644.41" y2="169.29"/><line class="cls-3" x1="86.98" y1="210.71" x2="644.41" y2="210.71"/><line class="cls-3" x1="86.98" y1="252.14" x2="644.41" y2="252.14"/><line class="cls-3" x1="86.98" y1="293.57" x2="644.41" y2="293.57"/></g><g id="graphics"><polyline class="cls-4" points="106.98 67.5 144.48 192.5 181.98 242.5 218.54 268.43 255.68 285.52 293.61 299.25 330.86 306.88 367.98 310 404.86 313.63 442.11 315.75 478.98 327.5 516.98 328.63 553.48 330 590.61 330.63 628.48 332"/><circle class="cls-5" cx="144.48" cy="192.5" r="4.83"/><circle class="cls-5" cx="106.98" cy="67.5" r="4.83"/><circle class="cls-5" cx="181.98" cy="242.5" r="4.83"/><circle class="cls-5" cx="218.54" cy="268.43" r="4.83"/><circle class="cls-5" cx="255.68" cy="285.53" r="4.83"/><circle class="cls-5" cx="293.47" cy="299.2" r="4.83"/><circle class="cls-5" cx="330.86" cy="306.87" r="4.83"/><circle class="cls-5" cx="367.89" cy="310.02" r="4.83"/><circle class="cls-5" cx="442.11" cy="315.75" r="4.83"/><circle class="cls-5" cx="478.98" cy="327.5" r="4.83"/><circle class="cls-5" cx="516.98" cy="328.62" r="4.83"/><circle class="cls-5" cx="553.48" cy="330" r="4.83"/><circle class="cls-5" cx="590.73" cy="330.66" r="4.83"/><circle class="cls-5" cx="628.48" cy="332" r="4.83"/><circle class="cls-5" cx="404.86" cy="313.62" r="4.83"/></g><g id="texts"><text class="cls-6" transform="translate(102.72 364.66)">1</text><text class="cls-6" transform="translate(43.64 52.67)">35%<tspan x="0" y="41">30%</tspan><tspan x="0" y="82">25%</tspan><tspan x="0" y="123">20%</tspan><tspan x="0" y="164">15%</tspan><tspan x="0" y="205">10%</tspan><tspan x="10.26" y="246">5%</tspan><tspan x="10.26" y="287">0%</tspan></text><text class="cls-7" transform="translate(27.5 286.51) rotate(-90)"><tspan class="cls-8">P</tspan><tspan class="cls-9" x="10.14" y="0">e</tspan><tspan class="cls-10" x="20.16" y="0">r</tspan><tspan class="cls-11" x="26.5" y="0">c</tspan><tspan x="35.34" y="0">e</tspan><tspan class="cls-12" x="45.36" y="0">n</tspan><tspan class="cls-9" x="56.38" y="0">tage of </tspan><tspan class="cls-13" x="119.14" y="0">G</tspan><tspan x="132.16" y="0">oogle</tspan><tspan class="cls-14" x="180.04" y="0"> </tspan><tspan class="cls-15" x="183.46" y="0">T</tspan><tspan class="cls-16" x="192.5" y="0">r</tspan><tspan x="198.94" y="0">affic</tspan></text><text class="cls-7" transform="matrix(1, 0, 0, 1, 275.68, 390.68)"><tspan class="cls-17">S</tspan><tspan class="cls-9" x="9.98" y="0">ea</tspan><tspan class="cls-18" x="29.64" y="0">r</tspan><tspan x="35.98" y="0">ch </tspan><tspan class="cls-19" x="60.28" y="0">R</tspan><tspan class="cls-9" x="71.12" y="0">esult </tspan><tspan class="cls-8" x="115.66" y="0">P</tspan><tspan x="125.8" y="0">osition</tspan></text><text class="cls-6" transform="translate(140.02 364.66)">2</text><text class="cls-6" transform="translate(177.32 364.66)">3</text><text class="cls-6" transform="translate(214.62 364.66)">4</text><text class="cls-6" transform="translate(251.92 364.66)">5</text><text class="cls-6" transform="translate(289.22 364.66)">6</text><text class="cls-6" transform="translate(326.52 364.66)">7</text><text class="cls-6" transform="translate(363.82 364.66)">8</text><text class="cls-6" transform="translate(401.12 364.66)">9</text><text class="cls-6" transform="translate(428.16 364.66)">10</text><text class="cls-6" transform="translate(465.46 364.66)">11</text><text class="cls-6" transform="translate(502.77 364.66)">12</text><text class="cls-6" transform="translate(540.07 364.66)">13</text><text class="cls-6" transform="translate(577.37 364.66)">14</text><text class="cls-6" transform="translate(614.67 364.66)">15</text></g></g></svg>