<svg xmlns="http://www.w3.org/2000/svg" viewBox="0 0 340.26 202.69"><defs><style>.cls-1,.cls-10,.cls-6,.cls-9{fill:#fff;}.cls-2{fill:#0080b1;}.cls-11,.cls-3,.cls-4,.cls-7{fill:none;}.cls-3{stroke:#b5d2e3;}.cls-3,.cls-7{stroke-miterlimit:10;}.cls-10,.cls-11,.cls-12,.cls-3,.cls-4,.cls-6,.cls-9{stroke-width:2px;}.cls-4,.cls-6,.cls-7{stroke:#bf3019;}.cls-10,.cls-11,.cls-12,.cls-4,.cls-6,.cls-9{stroke-linecap:round;stroke-linejoin:round;}.cls-5{fill:#bf3019;}.cls-7{stroke-width:7px;stroke-dasharray:1.98 5.94;}.cls-8{fill:#2c81b1;}.cls-9{stroke:#2c81b1;}.cls-10,.cls-11{stroke:#0080b1;}.cls-12,.cls-13{fill:#87c22e;}.cls-12{stroke:#fff;}.cls-13{font-size:38.68px;font-family:MuseoSans-900, MuseoSans 900;}</style></defs><title>graph-down</title><g id="Layer_2" data-name="Layer 2"><g id="texts"><path class="cls-1" d="M74.38,172.8h65.25A13.38,13.38,0,0,1,153,186.18v.25a13.37,13.37,0,0,1-13.37,13.37H74.38A13.38,13.38,0,0,1,61,186.43v-.25A13.38,13.38,0,0,1,74.38,172.8Z"/><path class="cls-2" d="M139.63,173.8A12.38,12.38,0,0,1,152,186.18v.25a12.38,12.38,0,0,1-12.37,12.38H74.38A12.38,12.38,0,0,1,62,186.43v-.25A12.38,12.38,0,0,1,74.38,173.8h65.25m0-2H74.38A14.39,14.39,0,0,0,60,186.18v.25A14.39,14.39,0,0,0,74.38,200.8h65.25A14.39,14.39,0,0,0,154,186.43v-.25a14.39,14.39,0,0,0-14.37-14.37Z"/><rect class="cls-1" x="91" y="157.8" width="32" height="27" rx="1" ry="1"/><path class="cls-2" d="M122,158.8v25H92v-25h30m0-2H92a2,2,0,0,0-2,2v25a2,2,0,0,0,2,2h30a2,2,0,0,0,2-2v-25a2,2,0,0,0-2-2Z"/><rect class="cls-1" x="1" y="22.8" width="209.5" height="139.5" rx="6" ry="6"/><path class="cls-2" d="M204.5,23.8a5,5,0,0,1,5,5V156.3a5,5,0,0,1-5,5H7a5,5,0,0,1-5-5V28.8a5,5,0,0,1,5-5H204.5m0-2H7a7,7,0,0,0-7,7V156.3a7,7,0,0,0,7,7H204.5a7,7,0,0,0,7-7V28.8a7,7,0,0,0-7-7Z"/><rect class="cls-1" x="11" y="32.8" width="189.5" height="119.5" rx="3" ry="3"/><path class="cls-2" d="M197.5,33.8a2,2,0,0,1,2,2V149.3a2,2,0,0,1-2,2H14a2,2,0,0,1-2-2V35.8a2,2,0,0,1,2-2H197.5m0-2H14a4,4,0,0,0-4,4V149.3a4,4,0,0,0,4,4H197.5a4,4,0,0,0,4-4V35.8a4,4,0,0,0-4-4Z"/><line class="cls-3" x1="23.87" y1="133.91" x2="190.54" y2="133.91"/><line class="cls-3" x1="23.87" y1="116.91" x2="190.54" y2="116.91"/><line class="cls-3" x1="23.87" y1="99.91" x2="190.54" y2="99.91"/><line class="cls-3" x1="23.87" y1="82.91" x2="190.54" y2="82.91"/><line class="cls-3" x1="23.87" y1="65.91" x2="190.54" y2="65.91"/><line class="cls-3" x1="23.87" y1="48.91" x2="190.54" y2="48.91"/><polyline class="cls-4" points="37 56.3 62 81.3 84.5 63.8 114.5 98.8 137 68.8 173.37 122.42"/><path class="cls-5" d="M180.15,132.41c-4.93-3.52-11.86-7.33-17.47-8.81l9.8-2.49,5.94-8.19C177.72,118.67,178.7,126.52,180.15,132.41Z"/><circle class="cls-6" cx="62" cy="81.3" r="5"/><circle class="cls-6" cx="84.5" cy="63.8" r="5"/><circle class="cls-6" cx="114.5" cy="98.8" r="5"/><circle class="cls-6" cx="137" cy="68.8" r="5"/><circle class="cls-7" cx="174.5" cy="123.8" r="17.67"/><circle class="cls-6" cx="37" cy="56.3" r="5"/><path class="cls-1" d="M258.58,201.69a1.92,1.92,0,0,1-1.72-1.08c-.79-1.63.91-2.73,1.64-3.21l.19-.13a13.61,13.61,0,0,1,2.61-1.36l-4.44-34.28,0-.48-1.6-27.83a6.75,6.75,0,0,1,6.35-7.13H262a6.76,6.76,0,0,1,6.74,6.36,7.25,7.25,0,0,1,0,1.07l-2.83,27.67,1.29,32.46.1,2.38c0,.21,0,.43,0,.65a7.91,7.91,0,0,1,0,1.8,2.5,2.5,0,0,1-1,1.74,2.35,2.35,0,0,1-1.38.4,5.8,5.8,0,0,1-.83-.08l-.19,0a5.71,5.71,0,0,0-.75,0,8.87,8.87,0,0,0-3.74.93A1.9,1.9,0,0,1,258.58,201.69Z"/><path class="cls-8" d="M262,127.2a5.75,5.75,0,0,1,5.74,5.42,6.18,6.18,0,0,1,0,.92l-2.84,27.73v0l.06,1.42.18,4.64.26,6.47.29,7.26.28,7,.23,5.73c0,.79.07,1.58.1,2.38a12.93,12.93,0,0,1,.07,2.27,1.54,1.54,0,0,1-.59,1.06,1.38,1.38,0,0,1-.81.23,7,7,0,0,1-.89-.1,6.75,6.75,0,0,0-.88-.06,9.86,9.86,0,0,0-4.17,1,.91.91,0,0,1-1.22-.43c-.45-.93.87-1.65,1.49-2.07a13.49,13.49,0,0,1,3.15-1.53l-4.54-35.06v-.38l-1.6-27.85a5.75,5.75,0,0,1,5.41-6.07H262m0-2h-.45a7.76,7.76,0,0,0-7.29,8.18l1.6,27.83v.36q0,.1,0,.19l4.34,33.53a14.1,14.1,0,0,0-2.08,1.16l-.18.12c-2.1,1.36-2.77,2.87-2,4.48a2.91,2.91,0,0,0,3.89,1.36,7.84,7.84,0,0,1,3.3-.83,4.75,4.75,0,0,1,.62,0l.18,0a6.57,6.57,0,0,0,1,.09,3.36,3.36,0,0,0,1.94-.58,3.53,3.53,0,0,0,1.44-2.42,8.67,8.67,0,0,0,0-2c0-.21,0-.41,0-.61q0-.63-.05-1.26l0-1.12-.23-5.73-.14-3.61-.13-3.4-.29-7.26v-.34l-.24-6.13-.18-4.64-.05-1.28,2.83-27.59a8.18,8.18,0,0,0,0-1.24A7.76,7.76,0,0,0,262,125.2Z"/><path class="cls-1" d="M248.51,113a3.59,3.59,0,0,1-2-.58L225.92,98.87l-3.68-.58a1.73,1.73,0,0,1,.27-3.43l4.26.09a1.7,1.7,0,0,1,.67.16l19.46,9.06L258,84.69a5.6,5.6,0,1,1,9.73,5.56,6.07,6.07,0,0,1-.43.64l-16,20.7A3.56,3.56,0,0,1,248.51,113Z"/><path class="cls-8" d="M262.91,82.86a4.6,4.6,0,0,1,4,6.89,5,5,0,0,1-.35.53l-15.74,20.38-.24.31a2.6,2.6,0,0,1-3.47.58L226.29,97.91l.28,0-.4-.12.12.08-3.9-.61a.76.76,0,0,1,.11-1.5h0l4.23.12A.69.69,0,0,1,227,96l.13.07,20.16,9.39,11.6-20.28a4.6,4.6,0,0,1,4-2.32m0-2h0a6.62,6.62,0,0,0-5.74,3.33l-10.68,18.68L228,94.26l-.13-.06a2.72,2.72,0,0,0-1.08-.28l-4.22-.12h-.06a2.75,2.75,0,0,0-.42,5.47l3.47.55L246,113.23a4.6,4.6,0,0,0,6.15-1l.24-.31L268.13,91.5a7.12,7.12,0,0,0,.51-.76,6.6,6.6,0,0,0-5.73-9.88Z"/><polyline class="cls-9" points="256.02 88.01 250.11 93.72 258.25 100.59"/><path class="cls-1" d="M266.75,140.42c-7.23,0-11.73-4-11.73-10.35,0-5,3.17-36.5,7.88-47.53a1.08,1.08,0,0,1,1-.65h.14a11.67,11.67,0,0,0,0-3.08,1,1,0,0,1,1-1.12h3.14a1,1,0,0,1,1,.71c.43,1.42,1,3.11,1.09,3.37,4.82,10,8.23,43.11,8.23,48.29C278.48,136.45,274,140.42,266.75,140.42Z"/><path class="cls-8" d="M268.21,78.7s.93,3.07,1.14,3.51c4.67,9.74,8.13,42.32,8.13,47.86,0,6.53-4.8,9.35-10.73,9.35S256,136.6,256,130.07c0-5.41,3.3-36.6,7.8-47.13,0,0,.05,0,.11,0s.29,0,.46,0a.46.46,0,0,0,.45-.21c.57-1.11.22-4,.22-4h3.14m0-2h-3.14a2,2,0,0,0-2,2.24,13.84,13.84,0,0,1,.08,2.09A2,2,0,0,0,262,82.15c-4.76,11.14-8,42.88-8,47.92,0,7,4.88,11.35,12.73,11.35s12.73-4.35,12.73-11.35c0-5.21-3.45-38.55-8.32-48.72-.11-.27-.63-1.89-1-3.22a2,2,0,0,0-1.91-1.42Z"/><path class="cls-1" d="M266.75,78.25c-4.87,0-8.29-8-8.29-12.28A8.29,8.29,0,1,1,275,66C275,70.28,271.62,78.25,266.75,78.25Z"/><path class="cls-8" d="M266.75,58.68A7.29,7.29,0,0,1,274,66c0,4-3.26,11.28-7.29,11.28S259.46,70,259.46,66a7.29,7.29,0,0,1,7.29-7.29m0-2A9.3,9.3,0,0,0,257.46,66c0,4.56,3.62,13.28,9.29,13.28S276,70.53,276,66a9.3,9.3,0,0,0-9.29-9.29Z"/><path class="cls-1" d="M267.83,201.67a1.81,1.81,0,0,1-1.68-1.06,1.92,1.92,0,0,1,.45-2.26,14.92,14.92,0,0,1,4.25-2.56l-4.7-34.15a1,1,0,0,1,0-.1v-.38l-1.6-27.83a6.75,6.75,0,0,1,6.35-7.13h.39a6.76,6.76,0,0,1,6.74,6.36,7.25,7.25,0,0,1,0,1.07l-2.83,27.67,1.34,33.8c0,.45,0,.89.05,1.34,0,.17,0,.35,0,.53a6.56,6.56,0,0,1,0,1.63,2.35,2.35,0,0,1-2.6,2.09,7.36,7.36,0,0,1-.84-.06,6.27,6.27,0,0,0-.73,0,8,8,0,0,0-2.35.38,4.6,4.6,0,0,0-.48.2A4.48,4.48,0,0,1,267.83,201.67Z"/><path class="cls-8" d="M271.27,127.2a5.75,5.75,0,0,1,5.74,5.42,6.18,6.18,0,0,1,0,.92l-2.84,27.73v0l.06,1.49.19,4.82.27,6.68.29,7.43.28,7.08.22,5.63c0,.69,0,1.39.08,2.08a9.81,9.81,0,0,1,.07,2c-.15,1-.83,1.25-1.61,1.25a6.23,6.23,0,0,1-.73-.05,7.22,7.22,0,0,0-.85,0,9.05,9.05,0,0,0-2.65.42,7.5,7.5,0,0,1-2,.66.8.8,0,0,1-.78-.5.91.91,0,0,1,.21-1.08,15.25,15.25,0,0,1,4.68-2.67l-4.8-34.92v-.38l-1.6-27.85a5.75,5.75,0,0,1,5.41-6.07h.34m0-2h-.45a7.76,7.76,0,0,0-7.29,8.18l1.6,27.83v.36a2,2,0,0,0,0,.21l4.6,33.4a15.17,15.17,0,0,0-3.83,2.42,2.92,2.92,0,0,0-.68,3.44,2.81,2.81,0,0,0,2.58,1.63,5.36,5.36,0,0,0,2.18-.6c.13-.06.26-.12.36-.15a7,7,0,0,1,2.06-.33,5.26,5.26,0,0,1,.61,0,8.06,8.06,0,0,0,1,.06,3.35,3.35,0,0,0,3.59-2.94,7.47,7.47,0,0,0,0-1.87c0-.16,0-.33,0-.49,0-.45,0-.89-.05-1.34l0-.72-.22-5.63-.15-3.72-.13-3.36v-.28l-.28-7.15-.14-3.41-.13-3.27-.1-2.41-.1-2.41v-.16l0-1.19L279,133.74a8.18,8.18,0,0,0,0-1.24,7.76,7.76,0,0,0-7.73-7.31Z"/><polyline class="cls-9" points="262.58 138.99 263.76 160.25 269.05 192.44 279.14 194.15 277.47 161.22 280.9 130.81 277.81 122.14 255.02 123.43 250.11 159.32 259.21 192.77 269.05 192.44 261.26 159.86 263.45 146.2"/><path class="cls-1" d="M271.09,98.45a5.6,5.6,0,0,1-2.26-10.73l18.85-8.28-13.52-12.8a1,1,0,0,1-.22-.3l-.06-.12a1.66,1.66,0,0,1-.15-.62l-.19-4.23A1.73,1.73,0,0,1,275,59.59l.31,0A1.73,1.73,0,0,1,277,61l.63,3.46L296.3,79a1,1,0,0,1,.25.28,3.63,3.63,0,0,1-1.17,5L274.05,97.6a6.33,6.33,0,0,1-.71.37,5.56,5.56,0,0,1-2.25.48Z"/><path class="cls-8" d="M275.27,60.56a.73.73,0,0,1,.72.6l.7,3.83-.06,0,.12.37-.06-.32,19,14.83h0a2.63,2.63,0,0,1-.84,3.62l-.33.2-21,13.1a5,5,0,0,1-.58.31,4.6,4.6,0,1,1-3.71-8.42l20.23-8.89L274.85,65.91l-.06-.12a.66.66,0,0,1-.06-.25l-.19-4.22a.73.73,0,0,1,.6-.75h.13m0-2a2.73,2.73,0,0,0-2.73,2.85l.19,4.22a2.65,2.65,0,0,0,.24,1l.06.13a2,2,0,0,0,.44.61L285.9,79.13,268.43,86.8a6.6,6.6,0,1,0,5.32,12.09,7.05,7.05,0,0,0,.83-.44l21-13.11.33-.2a4.63,4.63,0,0,0,1.48-6.38,2.08,2.08,0,0,0-.47-.53L278.51,63.88,278,60.8a2.73,2.73,0,0,0-2.68-2.24h0Z"/><polyline class="cls-9" points="278.74 82.68 283.9 93.87 275.99 96.55"/><path class="cls-10" d="M231.57,70.13a12.88,12.88,0,0,0-12.3-8.76L224,75.26l-3,3.58-4.58-1L211.65,64a12.89,12.89,0,0,0,7.83,23.19l8,23.65a4,4,0,0,0,2.93,2.62h0a4,4,0,0,0,3.88-1.31l0,0a4,4,0,0,0,.74-3.86l-8-23.65A12.89,12.89,0,0,0,231.57,70.13Z"/><circle class="cls-10" cx="231.23" cy="109.35" r="1.61" transform="translate(-22.85 79.86) rotate(-18.69)"/><line class="cls-11" x1="223.96" y1="75.26" x2="232.34" y2="72.42"/><line class="cls-11" x1="217.88" y1="82.41" x2="218.66" y2="84.7"/><line class="cls-11" x1="219.41" y1="81.9" x2="220.18" y2="84.18"/><line class="cls-11" x1="220.93" y1="81.38" x2="221.71" y2="83.67"/><line class="cls-11" x1="222.46" y1="80.86" x2="223.23" y2="83.15"/><line class="cls-11" x1="223.98" y1="80.35" x2="224.75" y2="82.64"/><line class="cls-11" x1="225.51" y1="79.83" x2="226.28" y2="82.12"/><path class="cls-12" d="M291,47.17a27.67,27.67,0,1,1,7.09,5.67L284.9,60.56Z"/><text class="cls-13" transform="translate(302.72 41.52)">?</text><text class="cls-13" transform="translate(302.72 41.52)">?</text><path class="cls-1" d="M310.22,15c4.45,0,6.46,2.75,6.46,5.69,0,2.63-1.47,4.53-3.33,6.73a7.64,7.64,0,0,0-2.2,5.69l0,1h-3l-.08-1a8.88,8.88,0,0,1,2.4-6.69c1.74-2,2.71-3.56,2.71-5.3,0-2-1.24-3.29-3.67-3.33a6.88,6.88,0,0,0-3.91,1.2l-.93-2.44A10.14,10.14,0,0,1,310.22,15m-.58,22.09a2.42,2.42,0,1,1-2.32,2.44,2.29,2.29,0,0,1,2.32-2.44M310.22,13a12.15,12.15,0,0,0-6.71,1.93,2,2,0,0,0-.69,2.33l.93,2.44a2,2,0,0,0,3.08.88,5,5,0,0,1,2.7-.79c1.67,0,1.67.81,1.67,1.33,0,1-.58,2.06-2.23,4a10.94,10.94,0,0,0-2.87,8.17l.07,1a2,2,0,0,0,1,1.58,4.4,4.4,0,0,0-1.85,3.68,4.3,4.3,0,1,0,8.6,0,4.42,4.42,0,0,0-1.79-3.65,2,2,0,0,0,1.05-1.84l0-1c-.08-1.29.19-2.5,1.73-4.32,1.69-2,3.8-4.51,3.8-8,0-3.7-2.65-7.69-8.46-7.69Z"/></g></g></svg>