<svg xmlns="http://www.w3.org/2000/svg" viewBox="0 0 79.88 82.54"><defs><style>.cls-1{fill:#f9f9f9;stroke:#007cc0;stroke-miterlimit:10;stroke-width:2.36px;}.cls-2{fill:#5d9632;}.cls-3{fill:#fff;}.cls-4{fill:none;stroke:#fff;stroke-linecap:round;stroke-linejoin:round;stroke-width:6px;}.cls-5{fill:#767676;}</style></defs><title>icon-mag</title><g id="Layer_2" data-name="Layer 2"><g id="texts"><circle class="cls-1" cx="40.4" cy="41.27" r="38.3"/><circle class="cls-2" cx="40.4" cy="41.27" r="30.34"/><rect class="cls-3" width="0.66" height="5.94"/><rect class="cls-3" x="2.64" y="-2.64" width="0.66" height="5.94" transform="translate(2.64 3.3) rotate(-90)"/><rect class="cls-3" x="76.27" y="79.24" width="0.66" height="5.94" transform="translate(-5.61 158.81) rotate(-90)"/><rect class="cls-3" x="78.91" y="76.6" width="0.66" height="5.94"/><g id="_Group_" data-name="&lt;Group&gt;"><path class="cls-4" d="M56.85,54.18a3,3,0,0,1-4.19,4.2l-8.77-8.77a14.64,14.64,0,0,0,4.4-4Z"/><path class="cls-4" d="M51.09,37a14.52,14.52,0,0,1-2.8,8.6L46,43.37a2.49,2.49,0,0,0-.36-.3,10.92,10.92,0,0,0,1.81-6,11,11,0,1,0-11,11,10.91,10.91,0,0,0,4.88-1.14,2.88,2.88,0,0,0,.5.67l2,2A14.62,14.62,0,1,1,36.46,22.4,14.64,14.64,0,0,1,51.09,37Z"/><path class="cls-4" d="M46,43.37l2.25,2.25a14.64,14.64,0,0,1-4.4,4l-2-2a2.88,2.88,0,0,1-.5-.67,11,11,0,0,0,4.33-3.84A2.49,2.49,0,0,1,46,43.37Z"/><path class="cls-4" d="M47.49,37a10.92,10.92,0,0,1-1.81,6,3,3,0,0,0-4.33,3.84A10.91,10.91,0,0,1,36.46,48a11,11,0,1,1,11-11Zm-3.54.55a.87.87,0,0,0,.81-.93,7.22,7.22,0,0,0-7.29-7h0a.87.87,0,0,0,0,1.74A5.57,5.57,0,0,1,43,36.77a.87.87,0,0,0,.86.81Z"/><path class="cls-4" d="M44.75,36.65a.87.87,0,0,1-.81.93h-.06a.87.87,0,0,1-.86-.81,5.57,5.57,0,0,0-5.57-5.41.87.87,0,0,1,0-1.74h0A7.22,7.22,0,0,1,44.75,36.65Z"/><path class="cls-5" d="M56.85,54.18a3,3,0,0,1-4.19,4.2l-8.77-8.77a14.64,14.64,0,0,0,4.4-4Z"/><path class="cls-5" d="M51.09,37a14.52,14.52,0,0,1-2.8,8.6L46,43.37a2.49,2.49,0,0,0-.36-.3,10.92,10.92,0,0,0,1.81-6,11,11,0,1,0-11,11,10.91,10.91,0,0,0,4.88-1.14,2.88,2.88,0,0,0,.5.67l2,2A14.62,14.62,0,1,1,36.46,22.4,14.64,14.64,0,0,1,51.09,37Z"/><path class="cls-5" d="M46,43.37l2.25,2.25a14.64,14.64,0,0,1-4.4,4l-2-2a2.88,2.88,0,0,1-.5-.67,11,11,0,0,0,4.33-3.84A2.49,2.49,0,0,1,46,43.37Z"/><path class="cls-3" d="M47.49,37a10.92,10.92,0,0,1-1.81,6,3,3,0,0,0-4.33,3.84A10.91,10.91,0,0,1,36.46,48a11,11,0,1,1,11-11Zm-3.54.55a.87.87,0,0,0,.81-.93,7.22,7.22,0,0,0-7.29-7h0a.87.87,0,0,0,0,1.74A5.57,5.57,0,0,1,43,36.77a.87.87,0,0,0,.86.81Z"/><path class="cls-5" d="M44.75,36.65a.87.87,0,0,1-.81.93h-.06a.87.87,0,0,1-.86-.81,5.57,5.57,0,0,0-5.57-5.41.87.87,0,0,1,0-1.74h0A7.22,7.22,0,0,1,44.75,36.65Z"/></g></g></g></svg>