<svg xmlns="http://www.w3.org/2000/svg" viewBox="0 0 79.88 82.54"><defs><style>.cls-1{fill:#f9f9f9;stroke:#007cc0;stroke-miterlimit:10;stroke-width:2.36px;}.cls-2{fill:#5d9632;}.cls-3{fill:#fff;}.cls-4{font-size:46.23px;fill:#767676;font-family:MuseoSans-900, MuseoSans 900;}</style></defs><title>icon-ex</title><g id="Layer_2" data-name="Layer 2"><g id="texts"><circle class="cls-1" cx="40.4" cy="41.27" r="38.3"/><circle class="cls-2" cx="40.4" cy="41.27" r="30.34"/><rect class="cls-3" width="0.66" height="5.94"/><rect class="cls-3" x="2.64" y="-2.64" width="0.66" height="5.94" transform="translate(2.64 3.3) rotate(-90)"/><rect class="cls-3" x="76.27" y="79.24" width="0.66" height="5.94" transform="translate(-5.61 158.81) rotate(-90)"/><rect class="cls-3" x="78.91" y="76.6" width="0.66" height="5.94"/><text class="cls-4" transform="translate(32.52 56.81)">!</text><path class="cls-3" d="M40.06,25.64l-.65,22.19H36.27l-.65-22.19h4.44M37.84,51.58a2.87,2.87,0,0,1,0,5.73,2.87,2.87,0,0,1,0-5.73m2.22-27.94H35.62a2,2,0,0,0-2,2.06l.65,22.19a2,2,0,0,0,2,1.94,4.85,4.85,0,1,0,6.3,4.61,4.67,4.67,0,0,0-3.13-4.61,2,2,0,0,0,2-1.94l.65-22.19a2,2,0,0,0-2-2.06Zm0,4h0Z"/><path class="cls-3" d="M40.06,25.64l-.65,22.19H36.27l-.65-22.19h4.44M37.84,51.58a2.87,2.87,0,0,1,0,5.73,2.87,2.87,0,0,1,0-5.73m2.22-27.94H35.62a2,2,0,0,0-2,2.06l.65,22.19a2,2,0,0,0,2,1.94,4.85,4.85,0,1,0,6.3,4.61,4.67,4.67,0,0,0-3.13-4.61,2,2,0,0,0,2-1.94l.65-22.19a2,2,0,0,0-2-2.06Zm0,4h0Z"/></g></g></svg>