<svg xmlns="http://www.w3.org/2000/svg" xmlns:xlink="http://www.w3.org/1999/xlink" viewBox="0 0 79.88 82.54"><defs><style>.cls-1{fill:#f9f9f9;stroke:#007cc0;stroke-miterlimit:10;stroke-width:2.36px;}.cls-2{fill:#5d9632;}.cls-3{fill:#007cc0;}.cls-4,.cls-5{fill:none;stroke:#fff;}.cls-4{stroke-width:6px;}.cls-5{stroke-linecap:round;stroke-linejoin:round;}.cls-6{fill:#767676;}.cls-7{fill:#fff;}</style><symbol id="cicrulo" data-name="cicrulo" viewBox="0 0 79.88 82.54"><circle class="cls-1" cx="40.4" cy="41.27" r="38.3"/><circle class="cls-2" cx="40.4" cy="41.27" r="30.34"/><rect class="cls-3" width="0.66" height="5.94"/><polygon class="cls-3" points="5.93 0 5.93 0.66 0 0.66 0 0 5.93 0"/><polygon class="cls-3" points="73.64 81.88 73.64 82.54 79.57 82.54 79.57 81.88 73.64 81.88"/><rect class="cls-3" x="78.91" y="76.6" width="0.66" height="5.94"/></symbol></defs><title>icon-mag-w</title><g id="Layer_2" data-name="Layer 2"><g id="texts"><use width="79.88" height="82.54" xlink:href="#cicrulo"/><g id="_Group_" data-name="&lt;Group&gt;"><path class="cls-4" d="M56.09,54.23a3,3,0,0,1-4.19,4.2l-8.77-8.77a14.64,14.64,0,0,0,4.4-4Z"/><path class="cls-4" d="M50.33,37.07a14.55,14.55,0,0,1-2.8,8.6l-2.25-2.25a2.49,2.49,0,0,0-.36-.3,10.92,10.92,0,0,0,1.81-6A11,11,0,1,0,40.59,47a2.85,2.85,0,0,0,.5.67l2,2a14.47,14.47,0,0,1-7.43,2A14.62,14.62,0,1,1,50.33,37.07Z"/><path class="cls-4" d="M45.28,43.42l2.25,2.25a14.64,14.64,0,0,1-4.4,4l-2-2a2.85,2.85,0,0,1-.5-.67,11.09,11.09,0,0,0,4.33-3.84A2.49,2.49,0,0,1,45.28,43.42Z"/><path class="cls-4" d="M46.73,37.07a10.92,10.92,0,0,1-1.81,6A3,3,0,0,0,40.59,47a11,11,0,1,1,6.14-9.88Z"/><path class="cls-4" d="M56.09,54.23a3,3,0,0,1-4.19,4.2l-8.77-8.77a14.64,14.64,0,0,0,4.4-4Z"/><path class="cls-4" d="M50.33,37.07a14.55,14.55,0,0,1-2.8,8.6l-2.25-2.25a2.49,2.49,0,0,0-.36-.3,10.92,10.92,0,0,0,1.81-6A11,11,0,1,0,40.59,47a2.85,2.85,0,0,0,.5.67l2,2a14.47,14.47,0,0,1-7.43,2A14.62,14.62,0,1,1,50.33,37.07Z"/><path class="cls-4" d="M45.28,43.42l2.25,2.25a14.64,14.64,0,0,1-4.4,4l-2-2a2.85,2.85,0,0,1-.5-.67,11.09,11.09,0,0,0,4.33-3.84A2.49,2.49,0,0,1,45.28,43.42Z"/><path class="cls-4" d="M46.73,37.07a10.92,10.92,0,0,1-1.81,6A3,3,0,0,0,40.59,47a11,11,0,1,1,6.14-9.88Z"/><path class="cls-4" d="M56.09,54.23a3,3,0,0,1-4.19,4.2l-8.77-8.77a14.64,14.64,0,0,0,4.4-4Z"/><path class="cls-4" d="M50.33,37.07a14.55,14.55,0,0,1-2.8,8.6l-2.25-2.25a2.49,2.49,0,0,0-.36-.3,10.92,10.92,0,0,0,1.81-6A11,11,0,1,0,40.59,47a2.85,2.85,0,0,0,.5.67l2,2a14.47,14.47,0,0,1-7.43,2A14.62,14.62,0,1,1,50.33,37.07Z"/><path class="cls-4" d="M45.28,43.42l2.25,2.25a14.64,14.64,0,0,1-4.4,4l-2-2a2.85,2.85,0,0,1-.5-.67,11.09,11.09,0,0,0,4.33-3.84A2.49,2.49,0,0,1,45.28,43.42Z"/><path class="cls-4" d="M46.73,37.07a10.92,10.92,0,0,1-1.81,6A3,3,0,0,0,40.59,47a11,11,0,1,1,6.14-9.88Z"/></g><path class="cls-4" d="M28.52,31.73h1.64a.7.7,0,0,1,.69.56l1.41,7a7,7,0,0,1,.15,1.27h0a6.67,6.67,0,0,1,.2-1.27l1.73-7a.7.7,0,0,1,.68-.54h1.27a.7.7,0,0,1,.68.54l1.68,7a6.7,6.7,0,0,1,.2,1.27h0a7,7,0,0,1,.15-1.27l1.53-7a.7.7,0,0,1,.69-.55h1.59a.7.7,0,0,1,.68.88l-2.7,10.67a.7.7,0,0,1-.68.53H38a.7.7,0,0,1-.68-.53l-1.39-5.56a10.25,10.25,0,0,1-.24-1.42h0a10.29,10.29,0,0,1-.24,1.42L34,43.27a.7.7,0,0,1-.68.53H31.12a.7.7,0,0,1-.68-.54L27.84,32.6A.7.7,0,0,1,28.52,31.73Z"/><g id="_Group_2" data-name="&lt;Group&gt;"><path class="cls-5" d="M56.09,54.23a3,3,0,0,1-4.19,4.2l-8.77-8.77a14.64,14.64,0,0,0,4.4-4Z"/><path class="cls-5" d="M50.33,37.07a14.55,14.55,0,0,1-2.8,8.6l-2.25-2.25a2.49,2.49,0,0,0-.36-.3,10.92,10.92,0,0,0,1.81-6A11,11,0,1,0,40.59,47a2.85,2.85,0,0,0,.5.67l2,2a14.47,14.47,0,0,1-7.43,2A14.62,14.62,0,1,1,50.33,37.07Z"/><path class="cls-5" d="M45.28,43.42l2.25,2.25a14.64,14.64,0,0,1-4.4,4l-2-2a2.85,2.85,0,0,1-.5-.67,11.09,11.09,0,0,0,4.33-3.84A2.49,2.49,0,0,1,45.28,43.42Z"/><path class="cls-5" d="M46.73,37.07a10.92,10.92,0,0,1-1.81,6A3,3,0,0,0,40.59,47a11,11,0,1,1,6.14-9.88Z"/><path class="cls-6" d="M56.09,54.23a3,3,0,0,1-4.19,4.2l-8.77-8.77a14.64,14.64,0,0,0,4.4-4Z"/><path class="cls-6" d="M50.33,37.07a14.55,14.55,0,0,1-2.8,8.6l-2.25-2.25a2.49,2.49,0,0,0-.36-.3,10.92,10.92,0,0,0,1.81-6A11,11,0,1,0,40.59,47a2.85,2.85,0,0,0,.5.67l2,2a14.47,14.47,0,0,1-7.43,2A14.62,14.62,0,1,1,50.33,37.07Z"/><path class="cls-6" d="M45.28,43.42l2.25,2.25a14.64,14.64,0,0,1-4.4,4l-2-2a2.85,2.85,0,0,1-.5-.67,11.09,11.09,0,0,0,4.33-3.84A2.49,2.49,0,0,1,45.28,43.42Z"/><path class="cls-7" d="M46.73,37.07a10.92,10.92,0,0,1-1.81,6A3,3,0,0,0,40.59,47a11,11,0,1,1,6.14-9.88Z"/></g><path class="cls-6" d="M28.52,31.73h1.64a.7.7,0,0,1,.69.56l1.41,7a7,7,0,0,1,.15,1.27h0a6.67,6.67,0,0,1,.2-1.27l1.73-7a.7.7,0,0,1,.68-.54h1.27a.7.7,0,0,1,.68.54l1.68,7a6.7,6.7,0,0,1,.2,1.27h0a7,7,0,0,1,.15-1.27l1.53-7a.7.7,0,0,1,.69-.55h1.59a.7.7,0,0,1,.68.88l-2.7,10.67a.7.7,0,0,1-.68.53H38a.7.7,0,0,1-.68-.53l-1.39-5.56a10.25,10.25,0,0,1-.24-1.42h0a10.29,10.29,0,0,1-.24,1.42L34,43.27a.7.7,0,0,1-.68.53H31.12a.7.7,0,0,1-.68-.54L27.84,32.6A.7.7,0,0,1,28.52,31.73Z"/></g></g></svg>