<svg xmlns="http://www.w3.org/2000/svg" viewBox="0 0 79.88 82.54"><defs><style>.cls-1{fill:#f9f9f9;stroke:#007cc0;stroke-miterlimit:10;stroke-width:2.36px;}.cls-2{fill:#5d9632;}.cls-3{fill:#fff;}.cls-4{fill:none;stroke:#fff;stroke-width:5px;}.cls-5{fill:#767676;}.cls-6{fill:#bbe170;}</style></defs><title>icon-down</title><g id="Layer_2" data-name="Layer 2"><g id="texts"><circle class="cls-1" cx="40.4" cy="41.27" r="38.3"/><circle class="cls-2" cx="40.4" cy="41.27" r="30.34"/><rect class="cls-3" width="0.66" height="5.94"/><rect class="cls-3" x="2.64" y="-2.64" width="0.66" height="5.94" transform="translate(2.64 3.3) rotate(-90)"/><rect class="cls-3" x="76.27" y="79.24" width="0.66" height="5.94" transform="translate(-5.61 158.81) rotate(-90)"/><rect class="cls-3" x="78.91" y="76.6" width="0.66" height="5.94"/><circle class="cls-4" cx="32.68" cy="29.8" r="7.6"/><path class="cls-4" d="M28,40.51h9.33a5.18,5.18,0,0,1,5.18,5.18v14a0,0,0,0,1,0,0H22.83a0,0,0,0,1,0,0v-14A5.18,5.18,0,0,1,28,40.51Z"/><polygon class="cls-4" points="56.71 43.95 56.71 27.42 52.03 27.42 52.03 43.95 47.36 43.95 54.37 56.08 61.38 43.95 56.71 43.95"/><circle class="cls-5" cx="32.68" cy="29.8" r="7.6"/><path class="cls-5" d="M28,40.51h9.33a5.18,5.18,0,0,1,5.18,5.18v14a0,0,0,0,1,0,0H22.83a0,0,0,0,1,0,0v-14A5.18,5.18,0,0,1,28,40.51Z"/><polygon class="cls-6" points="56.71 43.95 56.71 27.42 52.03 27.42 52.03 43.95 47.36 43.95 54.37 56.08 61.38 43.95 56.71 43.95"/></g></g></svg>