<svg xmlns="http://www.w3.org/2000/svg" xmlns:xlink="http://www.w3.org/1999/xlink" viewBox="0 0 79.88 82.54"><defs><style>.cls-1{fill:#f9f9f9;stroke:#007cc0;stroke-miterlimit:10;stroke-width:2.36px;}.cls-2{fill:#5d9632;}.cls-3{fill:#007cc0;}.cls-4,.cls-6{fill:none;stroke-linecap:round;stroke-linejoin:round;}.cls-4{stroke:#fff;stroke-width:6px;}.cls-5{fill:#767676;}.cls-6{stroke:#767676;stroke-width:3px;}.cls-7{fill:#bbe170;}</style><symbol id="cicrulo" data-name="cicrulo" viewBox="0 0 79.88 82.54"><circle class="cls-1" cx="40.4" cy="41.27" r="38.3"/><circle class="cls-2" cx="40.4" cy="41.27" r="30.34"/><rect class="cls-3" width="0.66" height="5.94"/><polygon class="cls-3" points="5.93 0 5.93 0.66 0 0.66 0 0 5.93 0"/><polygon class="cls-3" points="73.64 81.88 73.64 82.54 79.57 82.54 79.57 81.88 73.64 81.88"/><rect class="cls-3" x="78.91" y="76.6" width="0.66" height="5.94"/></symbol></defs><title>icon-code</title><g id="Layer_2" data-name="Layer 2"><g id="texts"><use width="79.88" height="82.54" xlink:href="#cicrulo"/><path class="cls-4" d="M18,41.62l13.67-6.05v3.93l-9,3.55v.05l9,3.53v3.93L18,44.52Z"/><path class="cls-4" d="M42.49,30.53H46.4L39.45,52H35.55Z"/><path class="cls-4" d="M42.49,30.53H46.4L39.45,52H35.55Z"/><path class="cls-4" d="M49.65,46.64l9-3.53v-.05l-9-3.55V35.57l13.67,6.05v2.9l-13.67,6Z"/><path class="cls-5" d="M18,41.62l13.67-6.05v3.93l-9,3.55v.05l9,3.53v3.93L18,44.52Z"/><path class="cls-6" d="M42.49,30.53H46.4L39.45,52H35.55Z"/><path class="cls-7" d="M42.49,30.53H46.4L39.45,52H35.55Z"/><path class="cls-5" d="M49.65,46.64l9-3.53v-.05l-9-3.55V35.57l13.67,6.05v2.9l-13.67,6Z"/></g></g></svg>