<svg xmlns="http://www.w3.org/2000/svg" xmlns:xlink="http://www.w3.org/1999/xlink" viewBox="0 0 79.88 82.54"><defs><style>.cls-1{fill:#f9f9f9;stroke:#007cc0;stroke-miterlimit:10;stroke-width:2.36px;}.cls-2{fill:#5d9632;}.cls-3{fill:#007cc0;}.cls-4{fill:none;stroke:#fff;stroke-width:5px;}.cls-5{fill:#767676;}.cls-6{fill:#bbe170;stroke:#767676;stroke-width:2px;}</style><symbol id="cicrulo" data-name="cicrulo" viewBox="0 0 79.88 82.54"><circle class="cls-1" cx="40.4" cy="41.27" r="38.3"/><circle class="cls-2" cx="40.4" cy="41.27" r="30.34"/><rect class="cls-3" width="0.66" height="5.94"/><polygon class="cls-3" points="5.93 0 5.93 0.66 0 0.66 0 0 5.93 0"/><polygon class="cls-3" points="73.64 81.88 73.64 82.54 79.57 82.54 79.57 81.88 73.64 81.88"/><rect class="cls-3" x="78.91" y="76.6" width="0.66" height="5.94"/></symbol></defs><title>icon-link</title><g id="Layer_2" data-name="Layer 2"><g id="texts"><use width="79.88" height="82.54" xlink:href="#cicrulo"/><path class="cls-4" d="M52.7,37.2l-7.16,7.15a10,10,0,0,1-15.84-2L33,39a2.38,2.38,0,0,1,.54-.36,5,5,0,0,0,1.25,2.15,5.06,5.06,0,0,0,7.15,0l7.15-7.15A5.06,5.06,0,0,0,42,26.47L39.43,29a12.69,12.69,0,0,0-6.45-.7l5.42-5.42A10.12,10.12,0,0,1,52.7,37.2ZM33.79,49l-2.55,2.55a5.06,5.06,0,0,1-7.15-7.16l7.15-7.15a5.06,5.06,0,0,1,7.15,0,5,5,0,0,1,1.25,2.14,2.42,2.42,0,0,0,.54-.36l3.32-3.32a10,10,0,0,0-1.54-2,10.12,10.12,0,0,0-14.31,0l-7.15,7.15A10.12,10.12,0,0,0,34.82,55.08l5.42-5.42A12.68,12.68,0,0,1,33.79,49Z"/><path class="cls-4" d="M52.7,37.2l-7.16,7.15a10,10,0,0,1-15.84-2L33,39a2.38,2.38,0,0,1,.54-.36,5,5,0,0,0,1.25,2.15,5.06,5.06,0,0,0,7.15,0l7.15-7.15A5.06,5.06,0,0,0,42,26.47L39.43,29a12.69,12.69,0,0,0-6.45-.7l5.42-5.42A10.12,10.12,0,0,1,52.7,37.2ZM33.79,49l-2.55,2.55a5.06,5.06,0,0,1-7.15-7.16l7.15-7.15a5.06,5.06,0,0,1,7.15,0,5,5,0,0,1,1.25,2.14,2.42,2.42,0,0,0,.54-.36l3.32-3.32a10,10,0,0,0-1.54-2,10.12,10.12,0,0,0-14.31,0l-7.15,7.15A10.12,10.12,0,0,0,34.82,55.08l5.42-5.42A12.68,12.68,0,0,1,33.79,49Z"/><circle class="cls-4" cx="52.69" cy="54.27" r="8.3"/><polygon class="cls-4" points="51.73 58.78 47.23 55.41 48.66 53.49 51.38 55.52 56.33 49.77 58.15 51.33 51.73 58.78"/><polygon class="cls-4" points="51.73 58.78 47.23 55.41 48.66 53.49 51.38 55.52 56.33 49.77 58.15 51.33 51.73 58.78"/><path class="cls-5" d="M52.7,37.2l-7.16,7.15a10,10,0,0,1-15.84-2L33,39a2.38,2.38,0,0,1,.54-.36,5,5,0,0,0,1.25,2.15,5.06,5.06,0,0,0,7.15,0l7.15-7.15A5.06,5.06,0,0,0,42,26.47L39.43,29a12.69,12.69,0,0,0-6.45-.7l5.42-5.42A10.12,10.12,0,0,1,52.7,37.2ZM33.79,49l-2.55,2.55a5.06,5.06,0,0,1-7.15-7.16l7.15-7.15a5.06,5.06,0,0,1,7.15,0,5,5,0,0,1,1.25,2.14,2.42,2.42,0,0,0,.54-.36l3.32-3.32a10,10,0,0,0-1.54-2,10.12,10.12,0,0,0-14.31,0l-7.15,7.15A10.12,10.12,0,0,0,34.82,55.08l5.42-5.42A12.68,12.68,0,0,1,33.79,49Z"/><circle class="cls-6" cx="52.69" cy="54.27" r="8.3"/><polygon class="cls-5" points="51.73 58.78 47.23 55.41 48.66 53.49 51.38 55.52 56.33 49.77 58.15 51.33 51.73 58.78"/></g></g></svg>