<svg xmlns="http://www.w3.org/2000/svg" viewBox="0 0 79.88 82.54"><defs><style>.cls-1{fill:#f9f9f9;stroke:#007cc0;stroke-miterlimit:10;stroke-width:2.36px;}.cls-2{fill:#5d9632;}.cls-3{fill:#fff;}.cls-4,.cls-5{fill:none;}.cls-4{stroke:#fff;stroke-width:9px;}.cls-5{stroke:#767676;stroke-width:3px;}.cls-6{fill:#767676;}.cls-7{fill:#bbe170;}</style></defs><title>icon-web</title><g id="Layer_2" data-name="Layer 2"><g id="texts"><circle class="cls-1" cx="40.4" cy="41.27" r="38.3"/><circle class="cls-2" cx="40.4" cy="41.27" r="30.34"/><rect class="cls-3" width="0.66" height="5.94"/><rect class="cls-3" x="2.64" y="-2.64" width="0.66" height="5.94" transform="translate(2.64 3.3) rotate(-90)"/><rect class="cls-3" x="76.27" y="79.24" width="0.66" height="5.94" transform="translate(-5.61 158.81) rotate(-90)"/><rect class="cls-3" x="78.91" y="76.6" width="0.66" height="5.94"/><path class="cls-4" d="M40.29,20.1a21.25,21.25,0,1,0,.22,0Zm.11,0V62.6M61.65,41.35H19.15m4.79-13.08a28.33,28.33,0,0,0,32.91,0m0,26.15a28.33,28.33,0,0,0-32.91,0M38.77,20.64a27.24,27.24,0,0,0,0,41.63m3.27,0a27.24,27.24,0,0,0,0-41.63"/><path class="cls-4" d="M60.69,52.54A6.14,6.14,0,0,1,59,59.88,39.17,39.17,0,0,1,54.69,63a7.76,7.76,0,0,1-7.51.32,10.36,10.36,0,0,1-4.32-3.41C41.44,58,40,56,38.65,54.07a1.61,1.61,0,0,1-.14-.22,4.15,4.15,0,0,1,3.42-1.24c-.42-.63-.76-1.19-1.14-1.73s-.94-1.21-1.39-1.83q-1.8-2.48-3.58-5a2.26,2.26,0,0,1-.17-2.6,2.21,2.21,0,0,1,2.15-1.16,2.26,2.26,0,0,1,1.79,1l2.84,3.94c.92-.85,1.79-1.81,3.12-1.27a17.41,17.41,0,0,1,1.76-1.37,1.73,1.73,0,0,1,2,.14c.46-.38.87-.76,1.32-1.09a1.88,1.88,0,0,1,2.7.39q3,4.09,5.94,8.21A14.6,14.6,0,0,1,60.69,52.54Zm-2.31,5.85a4.78,4.78,0,0,0,.38-6.21q-3-4.15-6-8.28l-.6-.82a.54.54,0,0,0-.83-.14c-.14.1-.27.2-.4.31a.54.54,0,0,0-.08.84c.39.5.75,1,1.11,1.53a1,1,0,1,1-1.56,1.12c-.58-.81-1.14-1.64-1.74-2.43a.87.87,0,0,0-.57-.38.91.91,0,0,0-.74,1.47c.57.78,1.15,1.54,1.71,2.33l0,0a.9.9,0,0,1-.18,1.37.89.89,0,0,1-1.33-.21q-1.11-1.52-2.17-3.06c-.35-.52-.6-.58-1.12-.21l-.18.14c-.44.32-.48.58-.17,1,.75,1,1.5,2,2.24,3a1,1,0,1,1-1.54,1.1l-3.29-4.54-2.95-4.07a.83.83,0,1,0-1.34,1l4.76,6.56q2.24,3.09,4.47,6.2a1,1,0,1,1-1.54,1.13c-.54-.73-1.06-1.48-1.6-2.2a2.08,2.08,0,0,0-2.44-.71c1.32,1.83,2.56,3.7,4,5.44A7.93,7.93,0,0,0,49,62.33a6.11,6.11,0,0,0,5.5-1c1-.8,2.13-1.55,3.2-2.33A4.79,4.79,0,0,0,58.38,58.39Z"/><path class="cls-4" d="M58.76,52.18A4.75,4.75,0,0,1,57.68,59c-1.07.78-2.15,1.53-3.2,2.33a6.11,6.11,0,0,1-5.5,1,7.93,7.93,0,0,1-4.28-2.65c-1.4-1.74-2.64-3.61-4-5.44a2.08,2.08,0,0,1,2.44.71c.54.72,1.06,1.47,1.6,2.2A1,1,0,1,0,46.31,56q-2.23-3.1-4.47-6.2l-4.76-6.56a.83.83,0,1,1,1.34-1l2.95,4.07,3.29,4.54a1,1,0,1,0,1.54-1.1l1.41-.88a.89.89,0,0,0,1.33.21.9.9,0,0,0,.18-1.37l0,0,1.34-1A1,1,0,1,0,52,45.61c-.36-.51-.72-1-1.11-1.53a.54.54,0,0,1,.08-.84c.13-.11.26-.21.4-.31a.54.54,0,0,1,.83.14l.6.82Q55.76,48,58.76,52.18Z"/><path class="cls-4" d="M50.41,46.73l-1.34,1c-.56-.78-1.14-1.55-1.71-2.33a.91.91,0,0,1,.74-1.47.87.87,0,0,1,.57.38C49.27,45.09,49.83,45.92,50.41,46.73Z"/><path class="cls-4" d="M47.6,48.91l-1.41.88c-.74-1-1.49-2-2.24-3-.31-.42-.27-.68.17-1l.18-.14c.52-.38.77-.31,1.12.21Q46.49,47.39,47.6,48.91Z"/><path class="cls-5" d="M40.29,20.1a21.25,21.25,0,1,0,.22,0Zm.11,0V62.6M61.65,41.35H19.15m4.79-13.08a28.33,28.33,0,0,0,32.91,0m0,26.15a28.33,28.33,0,0,0-32.91,0M38.77,20.64a27.24,27.24,0,0,0,0,41.63m3.27,0a27.24,27.24,0,0,0,0-41.63"/><path class="cls-6" d="M60.69,52.54A6.14,6.14,0,0,1,59,59.88,39.17,39.17,0,0,1,54.69,63a7.76,7.76,0,0,1-7.51.32,10.36,10.36,0,0,1-4.32-3.41C41.44,58,40,56,38.65,54.07a1.61,1.61,0,0,1-.14-.22,4.15,4.15,0,0,1,3.42-1.24c-.42-.63-.76-1.19-1.14-1.73s-.94-1.21-1.39-1.83q-1.8-2.48-3.58-5a2.26,2.26,0,0,1-.17-2.6,2.21,2.21,0,0,1,2.15-1.16,2.26,2.26,0,0,1,1.79,1l2.84,3.94c.92-.85,1.79-1.81,3.12-1.27a17.41,17.41,0,0,1,1.76-1.37,1.73,1.73,0,0,1,2,.14c.46-.38.87-.76,1.32-1.09a1.88,1.88,0,0,1,2.7.39q3,4.09,5.94,8.21A14.6,14.6,0,0,1,60.69,52.54Zm-2.31,5.85a4.78,4.78,0,0,0,.38-6.21q-3-4.15-6-8.28l-.6-.82a.54.54,0,0,0-.83-.14c-.14.1-.27.2-.4.31a.54.54,0,0,0-.08.84c.39.5.75,1,1.11,1.53a1,1,0,1,1-1.56,1.12c-.58-.81-1.14-1.64-1.74-2.43a.87.87,0,0,0-.57-.38.91.91,0,0,0-.74,1.47c.57.78,1.15,1.54,1.71,2.33l0,0a.9.9,0,0,1-.18,1.37.89.89,0,0,1-1.33-.21q-1.11-1.52-2.17-3.06c-.35-.52-.6-.58-1.12-.21l-.18.14c-.44.32-.48.58-.17,1,.75,1,1.5,2,2.24,3a1,1,0,1,1-1.54,1.1l-3.29-4.54-2.95-4.07a.83.83,0,1,0-1.34,1l4.76,6.56q2.24,3.09,4.47,6.2a1,1,0,1,1-1.54,1.13c-.54-.73-1.06-1.48-1.6-2.2a2.08,2.08,0,0,0-2.44-.71c1.32,1.83,2.56,3.7,4,5.44A7.93,7.93,0,0,0,49,62.33a6.11,6.11,0,0,0,5.5-1c1-.8,2.13-1.55,3.2-2.33A4.79,4.79,0,0,0,58.38,58.39Z"/><path class="cls-7" d="M58.76,52.18A4.75,4.75,0,0,1,57.68,59c-1.07.78-2.15,1.53-3.2,2.33a6.11,6.11,0,0,1-5.5,1,7.93,7.93,0,0,1-4.28-2.65c-1.4-1.74-2.64-3.61-4-5.44a2.08,2.08,0,0,1,2.44.71c.54.72,1.06,1.47,1.6,2.2A1,1,0,1,0,46.31,56q-2.23-3.1-4.47-6.2l-4.76-6.56a.83.83,0,1,1,1.34-1l2.95,4.07,3.29,4.54a1,1,0,1,0,1.54-1.1l1.41-.88a.89.89,0,0,0,1.33.21.9.9,0,0,0,.18-1.37l0,0,1.34-1A1,1,0,1,0,52,45.61c-.36-.51-.72-1-1.11-1.53a.54.54,0,0,1,.08-.84c.13-.11.26-.21.4-.31a.54.54,0,0,1,.83.14l.6.82Q55.76,48,58.76,52.18Z"/><path class="cls-7" d="M50.41,46.73l-1.34,1c-.56-.78-1.14-1.55-1.71-2.33a.91.91,0,0,1,.74-1.47.87.87,0,0,1,.57.38C49.27,45.09,49.83,45.92,50.41,46.73Z"/><path class="cls-7" d="M47.6,48.91l-1.41.88c-.74-1-1.49-2-2.24-3-.31-.42-.27-.68.17-1l.18-.14c.52-.38.77-.31,1.12.21Q46.49,47.39,47.6,48.91Z"/></g></g></svg>