<svg xmlns="http://www.w3.org/2000/svg" viewBox="0 0 79.88 82.54"><defs><style>.cls-1{fill:#f9f9f9;stroke:#007cc0;stroke-miterlimit:10;stroke-width:2.36px;}.cls-2{fill:#5d9632;}.cls-3{fill:#fff;}.cls-4{fill:none;stroke:#fff;stroke-width:6px;}.cls-5{fill:#87c22e;}.cls-6{fill:#767676;}</style></defs><title>icon-up</title><g id="Layer_2" data-name="Layer 2"><g id="texts"><circle class="cls-1" cx="40.4" cy="41.27" r="38.3"/><circle class="cls-2" cx="40.4" cy="41.27" r="30.34"/><rect class="cls-3" width="0.66" height="5.94"/><rect class="cls-3" x="2.64" y="-2.64" width="0.66" height="5.94" transform="translate(2.64 3.3) rotate(-90)"/><rect class="cls-3" x="76.27" y="79.24" width="0.66" height="5.94" transform="translate(-5.61 158.81) rotate(-90)"/><rect class="cls-3" x="78.91" y="76.6" width="0.66" height="5.94"/><path class="cls-4" d="M59.65,58.5H22.15a1.5,1.5,0,0,1,0-3h37.5a1.5,1.5,0,0,1,0,3Z"/><path class="cls-4" d="M56.66,29.72l-1.31-1.26L49,42.81a2,2,0,0,1-2.72,1l-8.06-4L34,50.24a2,2,0,0,1-2.89,1l-12.4-7.44a2.08,2.08,0,0,1-.88-2.62,2,2,0,0,1,2.84-.87l10.49,6.29,4.13-10.32a2,2,0,0,1,2.75-1l8.13,4.06L51.7,26.83l-1.81-.13a.61.61,0,0,1-.28-1.14,39,39,0,0,0,6.31-4.87.68.68,0,0,1,1.15.51,39,39,0,0,0,.62,7.95A.61.61,0,0,1,56.66,29.72Z"/><path class="cls-5" d="M59.65,58.5H22.15a1.5,1.5,0,0,1,0-3h37.5a1.5,1.5,0,0,1,0,3Z"/><path class="cls-6" d="M56.66,29.72l-1.31-1.26L49,42.81a2,2,0,0,1-2.72,1l-8.06-4L34,50.24a2,2,0,0,1-2.89,1l-12.4-7.44a2.08,2.08,0,0,1-.88-2.62,2,2,0,0,1,2.84-.87l10.49,6.29,4.13-10.32a2,2,0,0,1,2.75-1l8.13,4.06L51.7,26.83l-1.81-.13a.61.61,0,0,1-.28-1.14,39,39,0,0,0,6.31-4.87.68.68,0,0,1,1.15.51,39,39,0,0,0,.62,7.95A.61.61,0,0,1,56.66,29.72Z"/></g></g></svg>