<svg xmlns="http://www.w3.org/2000/svg" viewBox="0 0 218.46 211.88"><defs><style>.cls-1{fill:#fff;}.cls-1,.cls-5{stroke:#2c81b1;stroke-linecap:round;stroke-linejoin:round;stroke-width:2px;}.cls-2{font-size:20.95px;}.cls-2,.cls-3{fill:#0080b1;font-family:ArialMT, Arial;}.cls-3{font-size:26.04px;}.cls-4{letter-spacing:-0.02em;}.cls-5{fill:none;}</style></defs><title>key-word</title><g id="Layer_2" data-name="Layer 2"><g id="texts"><rect class="cls-1" x="63.36" y="5.32" width="46.43" height="78.01" transform="translate(-4.22 79.19) rotate(-48.12)"/><path class="cls-1" d="M97.57,52l-9.26.5a9.16,9.16,0,0,1-9.56-11.09l4.3-.23a2.18,2.18,0,0,1,.59.09,4.56,4.56,0,0,0-.46,2.23,4.64,4.64,0,0,0,4.88,4.38l9.26-.5a4.64,4.64,0,1,0-.5-9.26l-3.29.18a11.63,11.63,0,0,0-4-4.43l7-.38a9.27,9.27,0,0,1,1,18.52ZM77.46,48.43l-3.3.18a4.64,4.64,0,1,1-.5-9.26l9.26-.5a4.64,4.64,0,0,1,4.88,4.38,4.59,4.59,0,0,1-.46,2.23,2.22,2.22,0,0,0,.59.09l4.3-.23a9.12,9.12,0,0,0,.2-2.33,9.27,9.27,0,0,0-9.76-8.76l-9.26.5a9.27,9.27,0,1,0,1,18.52l7-.38A11.63,11.63,0,0,1,77.46,48.43Z"/><rect class="cls-1" x="133.38" y="65.21" width="78.01" height="46.43" transform="translate(-21.04 77.38) rotate(-23.89)"/><text class="cls-2" transform="matrix(0.91, -0.4, 0.41, 0.91, 144.31, 108.68)">WORD</text><rect class="cls-1" x="106.87" y="32.04" width="78.03" height="46.42" transform="translate(3.14 118.18) rotate(-44.53)"/><text class="cls-3" transform="matrix(0.71, -0.7, 0.7, 0.71, 133.81, 81.35)">KE<tspan class="cls-4" x="34.73" y="0">Y</tspan></text><polygon class="cls-1" points="86.41 68.75 59.77 83.03 86.89 133.65 123.6 113.98 101.87 73.42 86.41 68.75"/><polygon class="cls-1" points="86.41 68.75 91.81 78.81 101.87 73.42 86.41 68.75"/><line class="cls-1" x1="77.7" y1="95.86" x2="97.24" y2="85.39"/><line class="cls-1" x1="83.3" y1="106.32" x2="102.84" y2="95.85"/><line class="cls-1" x1="88.91" y1="116.78" x2="108.45" y2="106.31"/><polygon class="cls-1" points="116.54 75.51 86.31 75.51 86.31 132.94 127.96 132.94 127.96 86.93 116.54 75.51"/><polygon class="cls-1" points="116.54 75.51 116.54 86.93 127.96 86.93 116.54 75.51"/><line class="cls-1" x1="96.05" y1="95.29" x2="118.22" y2="95.29"/><line class="cls-1" x1="96.05" y1="107.16" x2="118.22" y2="107.16"/><line class="cls-1" x1="96.05" y1="119.03" x2="118.22" y2="119.03"/><polygon class="cls-1" points="143.97 85.89 114.75 78.13 100.01 133.63 140.26 144.33 152.07 99.86 143.97 85.89"/><polygon class="cls-1" points="143.97 85.89 141.03 96.93 152.07 99.86 143.97 85.89"/><line class="cls-1" x1="119.09" y1="99.75" x2="140.51" y2="105.44"/><line class="cls-1" x1="116.04" y1="111.22" x2="137.46" y2="116.91"/><line class="cls-1" x1="112.99" y1="122.69" x2="134.42" y2="128.38"/><path class="cls-1" d="M24.61,62.6,32.3,95.17l.12.5a3.38,3.38,0,0,0,3.79,2.55l12,30.07-.54-.07,5.29,1.47a.95.95,0,0,0,.62-1.78l-5.05-2.16a.88.88,0,0,0-.35-.07h-.19L39.23,90.89h0L36.38,60.67a6,6,0,0,0-11.91,1.12A6.56,6.56,0,0,0,24.61,62.6Z"/><path class="cls-1" d="M21.34,112.28l20.39,40.21v2.06l0,6.85,0,9.54,0,10.71,0,10.35,0,8.46c0,1.17,0,2.34,0,3.51a19.07,19.07,0,0,0,0,3.35,2.27,2.27,0,0,0,.93,1.53,3.45,3.45,0,0,0,2.51.1,13.67,13.67,0,0,1,7.49,1.16,1.35,1.35,0,0,0,1.77-.69c.61-1.39-1.37-2.38-2.3-3a19.9,19.9,0,0,0-4.72-2.09l4.83-51.9v-.56L38.22,111.3a8.48,8.48,0,0,0-17-.37A9.17,9.17,0,0,0,21.34,112.28Z"/><path class="cls-1" d="M11.05,114.24c2.16,8.21,9.13,10.17,16.58,8.21s12.55-7.1,10.39-15.31c-1.79-6.8,2.59-49.87-6.55-61.61-.13-.16-1,.51-1.36.07-1.08-1.2-1.6-5-1.6-5l-4,1s-.15,4.17-.27,4.78C21.64,60.22,9.22,107.28,11.05,114.24Z"/><path class="cls-1" d="M36.45,27.93a9.47,9.47,0,1,0-18.93-.7c-.19,5.23,3.7,14.81,8.93,15S36.25,33.16,36.45,27.93Z"/><path class="cls-1" d="M10.79,111,9.9,152.09l.09-.55-.44,2.7-1.16,7L6.78,171,5,181.8,3.3,192.11,2,200.3c-.17,1-.32,2-.5,3A14.47,14.47,0,0,0,1,206.19c.05,1.94,1.62,2.16,3.21,2.17a12.58,12.58,0,0,1,5,1.18c1.07.48,3,2.25,4,.74a1.35,1.35,0,0,0-.12-1.62,22.48,22.48,0,0,0-6.37-4.76l13.38-50.22.09-.56,7.41-40.46a8.48,8.48,0,1,0-16.69-3.05A9.17,9.17,0,0,0,10.79,111Z"/><path class="cls-1" d="M23.77,61.53l23.35,24,.36.37a3.38,3.38,0,0,0,4.57.24L77,65.28l-.5.22L81.82,64a.95.95,0,0,0-.38-1.85L76,62.93a.88.88,0,0,0-.34.12l-.16.1L50.86,78.27h0l-18-24.46a6,6,0,0,0-9.64,7.09A6.56,6.56,0,0,0,23.77,61.53Z"/><path class="cls-1" d="M37.81,102.26S22.48,101.62,12,96.87h0l-1.06,12.75L10,151.53,2,200.3l7.78,2,14.72-49.44,3.3-27.33,14.17,28.3L41.53,204,51,202.3l3.13-50.69-16.3-49.36"/><path class="cls-1" d="M145.3,210.71H98.24a2.17,2.17,0,0,1-2.15-1.84l-13.2-86.58a2.17,2.17,0,0,1,2.15-2.5H158.5a2.17,2.17,0,0,1,2.15,2.5l-13.2,86.58A2.17,2.17,0,0,1,145.3,210.71Z"/><path class="cls-1" d="M189,196.75l-3.08-12.2,5.33-1.34a8.15,8.15,0,0,0,5.9-9.88l-3.76-14.91a8.15,8.15,0,0,0-9.88-5.9l-5.33,1.34-3.08-12.2A10.85,10.85,0,0,0,162,133.79l-3.08.78,19.2,76.14,3.08-.78A10.85,10.85,0,0,0,189,196.75Zm-4.15-39a2.72,2.72,0,0,1,3.29,2l3.76,14.91a2.72,2.72,0,0,1-2,3.29l-5.33,1.34-5.08-20.17Z"/><line class="cls-5" x1="102.9" y1="129.72" x2="108.43" y2="202.3"/><line class="cls-5" x1="121.77" y1="129.72" x2="121.77" y2="202.3"/><line class="cls-5" x1="140.64" y1="129.72" x2="135.11" y2="202.3"/><line class="cls-5" x1="83.08" y1="124.42" x2="160.32" y2="124.42"/><line class="cls-5" x1="95.71" y1="206.34" x2="147.83" y2="206.34"/></g></g></svg>