<svg xmlns="http://www.w3.org/2000/svg" viewBox="0 0 509.37 177.42"><defs><style>.cls-1,.cls-11,.cls-8{fill:none;}.cls-2,.cls-4,.cls-7{fill:#0080b1;}.cls-12,.cls-3,.cls-6,.cls-9{fill:#fff;}.cls-11,.cls-4,.cls-7,.cls-8{stroke:#fff;}.cls-11,.cls-4{stroke-linecap:round;}.cls-4,.cls-7,.cls-8{stroke-linejoin:round;stroke-width:2px;}.cls-5{fill:#5d9632;}.cls-6{font-size:20.36px;}.cls-12,.cls-6,.cls-9{font-family:ArialMT, Arial;}.cls-9{font-size:23.5px;}.cls-10{letter-spacing:-0.02em;}.cls-11{stroke-miterlimit:10;stroke-width:4px;}.cls-12{font-size:10.22px;}.cls-13{letter-spacing:-0.02em;}.cls-14{letter-spacing:-0.07em;}.cls-15{letter-spacing:0em;}</style></defs><title>link-to-page</title><g id="Layer_2" data-name="Layer 2"><g id="texts"><path class="cls-1" d="M284.74,96"/><rect class="cls-2" x="296.37" y="8.21" width="212" height="167" rx="6" ry="6"/><path class="cls-3" d="M502.37,9.21a5,5,0,0,1,5,5v155a5,5,0,0,1-5,5h-200a5,5,0,0,1-5-5v-155a5,5,0,0,1,5-5h200m0-2h-200a7,7,0,0,0-7,7v155a7,7,0,0,0,7,7h200a7,7,0,0,0,7-7v-155a7,7,0,0,0-7-7Z"/><line class="cls-4" x1="296.87" y1="29.21" x2="506.87" y2="29.21"/><rect class="cls-2" x="378.37" y="13.29" width="119.5" height="11.84" rx="1" ry="1"/><path class="cls-3" d="M496.87,14.29v9.84H379.37V14.29h117.5m0-2H379.37a2,2,0,0,0-2,2v9.84a2,2,0,0,0,2,2h117.5a2,2,0,0,0,2-2V14.29a2,2,0,0,0-2-2Z"/><rect class="cls-2" x="472.37" y="13.29" width="25.5" height="11.84" rx="1" ry="1"/><path class="cls-3" d="M496.87,14.29v9.84h-23.5V14.29h23.5m0-2h-23.5a2,2,0,0,0-2,2v9.84a2,2,0,0,0,2,2h23.5a2,2,0,0,0,2-2V14.29a2,2,0,0,0-2-2Z"/><circle class="cls-2" cx="319.37" cy="19.21" r="6"/><path class="cls-3" d="M319.37,14.21a5,5,0,1,1-5,5,5,5,0,0,1,5-5m0-2a7,7,0,1,0,7,7,7,7,0,0,0-7-7Z"/><circle class="cls-2" cx="334.37" cy="19.21" r="6"/><path class="cls-3" d="M334.37,14.21a5,5,0,1,1-5,5,5,5,0,0,1,5-5m0-2a7,7,0,1,0,7,7,7,7,0,0,0-7-7Z"/><circle class="cls-2" cx="349.37" cy="19.21" r="6"/><path class="cls-3" d="M349.37,14.21a5,5,0,1,1-5,5,5,5,0,0,1,5-5m0-2a7,7,0,1,0,7,7,7,7,0,0,0-7-7Z"/><rect class="cls-5" x="313.87" y="35.71" width="38.5" height="22" rx="1" ry="1"/><path class="cls-3" d="M351.37,36.71v20h-36.5v-20h36.5m0-2h-36.5a2,2,0,0,0-2,2v20a2,2,0,0,0,2,2h36.5a2,2,0,0,0,2-2v-20a2,2,0,0,0-2-2Z"/><rect class="cls-2" x="433.87" y="40.71" width="12" height="12" rx="1" ry="1"/><path class="cls-3" d="M444.87,41.71v10h-10v-10h10m0-2h-10a2,2,0,0,0-2,2v10a2,2,0,0,0,2,2h10a2,2,0,0,0,2-2v-10a2,2,0,0,0-2-2Z"/><rect class="cls-2" x="313.87" y="105.71" width="39.4" height="14.5" rx="1" ry="1"/><path class="cls-3" d="M352.27,106.71v12.5h-37.4v-12.5h37.4m0-2h-37.4a2,2,0,0,0-2,2v12.5a2,2,0,0,0,2,2h37.4a2,2,0,0,0,2-2v-12.5a2,2,0,0,0-2-2Z"/><rect class="cls-2" x="351.37" y="105.71" width="42" height="14.5" rx="1" ry="1"/><path class="cls-3" d="M392.37,106.71v12.5h-40v-12.5h40m0-2h-40a2,2,0,0,0-2,2v12.5a2,2,0,0,0,2,2h40a2,2,0,0,0,2-2v-12.5a2,2,0,0,0-2-2Z"/><rect class="cls-2" x="391.37" y="105.71" width="34.5" height="14.5" rx="1" ry="1"/><path class="cls-3" d="M424.87,106.71v12.5h-32.5v-12.5h32.5m0-2h-32.5a2,2,0,0,0-2,2v12.5a2,2,0,0,0,2,2h32.5a2,2,0,0,0,2-2v-12.5a2,2,0,0,0-2-2Z"/><line class="cls-4" x1="314.87" y1="131.71" x2="354.69" y2="131.71"/><line class="cls-4" x1="452.37" y1="44.21" x2="474.87" y2="44.21"/><line class="cls-4" x1="452.37" y1="51.71" x2="492.19" y2="51.71"/><line class="cls-4" x1="314.87" y1="139.21" x2="424.87" y2="139.21"/><line class="cls-4" x1="314.87" y1="146.71" x2="424.87" y2="146.71"/><line class="cls-4" x1="314.87" y1="154.21" x2="424.87" y2="154.21"/><line class="cls-4" x1="314.87" y1="161.71" x2="424.87" y2="161.71"/><rect class="cls-2" x="436.37" y="105.71" width="59.5" height="62" rx="1" ry="1"/><path class="cls-3" d="M494.87,106.71v60h-57.5v-60h57.5m0-2h-57.5a2,2,0,0,0-2,2v60a2,2,0,0,0,2,2h57.5a2,2,0,0,0,2-2v-60a2,2,0,0,0-2-2Z"/><path class="cls-3" d="M494.87,64.21v32.5h-180V64.21h180m0-2h-180a2,2,0,0,0-2,2v32.5a2,2,0,0,0,2,2h180a2,2,0,0,0,2-2V64.21a2,2,0,0,0-2-2Z"/><line class="cls-4" x1="494.87" y1="88.71" x2="314.87" y2="88.71"/><path class="cls-5" d="M329,87.48a1,1,0,0,1-.26,0,2.48,2.48,0,0,1-1.83-2.28V85a2.5,2.5,0,0,1,1.58-2.42,1,1,0,0,1,.37-.07,1,1,0,0,1,1,1c0,1,.06,2,.14,2.89a1,1,0,0,1-1,1.1Z"/><path class="cls-3" d="M328.81,83.5c0,1,.05,2,.15,3a1.48,1.48,0,0,1-1.09-1.36v-.17a1.5,1.5,0,0,1,1-1.45m0-2a2,2,0,0,0-.75.15,3.5,3.5,0,0,0-2.2,3.39v.17a3.47,3.47,0,0,0,2.57,3.2A2,2,0,0,0,331,86.29c-.08-.85-.13-1.82-.14-2.8a2,2,0,0,0-2-2Z"/><path class="cls-5" d="M329.3,90.21a1,1,0,0,1-1-.76c-.47-2-1.39-6.78.38-8.09,13.53-10.06,23.37-12.17,29.24-12.17a21.51,21.51,0,0,1,4.31.42l.16,0c4.26.8,10.73,6.12,12.18,7.35,13.78.06,16.51,3.52,17.14,6.66a.91.91,0,0,1,.14.48v5.12a1,1,0,0,1-1,1Z"/><path class="cls-3" d="M357.93,70.19a20.78,20.78,0,0,1,4.29.43c4.5.84,12,7.41,12,7.41,14.79,0,16.22,4.18,16.58,6.18h.06v5H329.3s-1.42-6,0-7.05c13.75-10.23,23.39-12,28.64-12m0-2h0c-6,0-16.08,2.15-29.83,12.38-1.65,1.22-1.9,4.28-.75,9.12a2,2,0,0,0,1.95,1.53h61.57a2,2,0,0,0,2-2V84.12a2,2,0,0,0-.2-.87C391.52,78.34,386,76.09,375,76c-2-1.66-8.07-6.53-12.36-7.33l-.16,0a22.52,22.52,0,0,0-4.5-.44Z"/><path class="cls-5" d="M328.65,90.21c-.73,0-1.78-.65-1.78-1.53v-.81a1.94,1.94,0,0,1,1.78-1.66h62.1c.84,0,1.12.88,1.12,1.66v.81c0,.86-.34,1.53-1.12,1.53Z"/><path class="cls-3" d="M390.75,87.21c.21,0,.11.36.11.66v.81c0,.3.09.53-.11.53h-62.1c-.21,0-.78-.23-.78-.53v-.81c0-.3.58-.66.78-.66h62.22m-.11-2h-62.1a2.93,2.93,0,0,0-2.78,2.66v.81a2.8,2.8,0,0,0,2.78,2.53h62.1c1.32,0,2.11-1.12,2.11-2.53v-.81c0-1.45-.79-2.66-2.11-2.66Z"/><path class="cls-5" d="M341.9,77.21c2.3-1,4.7-2.36,7.15-3.14a31.67,31.67,0,0,1,9.62-1.59h.64a13.63,13.63,0,0,1,7.62,2.82,8.65,8.65,0,0,1,2.34,1.91Z"/><path class="cls-3" d="M358.67,73.47h.62a12.51,12.51,0,0,1,7.06,2.64s.07.1.1.1H346.22c1,0,2.08-.85,3.13-1.19a30.7,30.7,0,0,1,9.32-1.56m0-2a32.69,32.69,0,0,0-9.93,1.62,40.17,40.17,0,0,0-7.49,3.28c-.71.4-1.41.85-2.09,1.31-.14.09-.56.53-.73.53h33.29c-1.28-1-2.68-2.65-4.21-3.73a14.58,14.58,0,0,0-8.17-3l-.67,0Z"/><rect class="cls-5" x="354.87" y="73.21" height="4"/><polygon class="cls-3" points="355.87 72.21 353.87 72.21 353.87 78.21 355.87 78.21 355.87 72.21 355.87 72.21"/><circle class="cls-5" cx="379.43" cy="89.58" r="5.44"/><path class="cls-3" d="M379.43,85.14A4.44,4.44,0,1,1,375,89.58a4.43,4.43,0,0,1,4.44-4.44m0-2a6.44,6.44,0,1,0,6.43,6.44,6.44,6.44,0,0,0-6.43-6.44Z"/><circle class="cls-5" cx="338.86" cy="89.58" r="5.44"/><path class="cls-3" d="M338.86,85.14a4.44,4.44,0,1,1-4.44,4.44,4.43,4.43,0,0,1,4.44-4.44m0-2a6.44,6.44,0,1,0,6.43,6.44,6.44,6.44,0,0,0-6.43-6.44Z"/><rect class="cls-5" x="355.87" y="79.21" width="5" height="2" rx="0.77" ry="0.77"/><path class="cls-3" d="M360.83,79.21H357a1.49,1.49,0,0,0-1.1,1.13v.46c0,.42.67.41,1.1.41h3.87c.42,0,1,0,1-.41v-.46c0-.42-.61-1.13-1-1.13Z"/><path class="cls-5" d="M390.74,87a2.09,2.09,0,0,1-1.49-.69l-.09-.09c-1.52-1.19-2-3-1.09-4.18a2.3,2.3,0,0,1,1.62-.84h.1a1,1,0,0,1,.79.38,5.29,5.29,0,0,1,1.29,3V86a1,1,0,0,1-1,1Z"/><path class="cls-3" d="M389.79,82.17a4.29,4.29,0,0,1,1.08,2.36V86c-1-.11-.74-.3-1.09-.57-1.06-.83-1.47-2.07-.92-2.78a1.3,1.3,0,0,1,.93-.46m0-2h-.19a3.29,3.29,0,0,0-2.31,1.22c-1.24,1.59-.71,4,1.22,5.56a3.1,3.1,0,0,0,2.11,1l.26,0a2,2,0,0,0,2-2V84.53a6.23,6.23,0,0,0-1.51-3.6,2,2,0,0,0-1.57-.76Z"/><text class="cls-6" transform="translate(439.87 131.71)">SALE</text><line class="cls-7" x1="313.23" y1="72.45" x2="328.56" y2="72.45"/><line class="cls-7" x1="313.23" y1="77.77" x2="321.93" y2="77.77"/><line class="cls-7" x1="313.23" y1="83.54" x2="319.49" y2="83.54"/><path class="cls-3" d="M458.18,160.21c-2.83,0-4.86-2.28-6.21-7-.1-.34-.18-.66-.26-1a17.44,17.44,0,0,1-.38-2.08,9.73,9.73,0,0,1,0-2.49,5.68,5.68,0,0,1,.56-1.81c1.39-2.66,4.52-2.86,7-3a12.92,12.92,0,0,0,2.53-.31,2.48,2.48,0,0,1,.69-.1c2.94,0,5.07,5.26,5.58,8.82.47,3.24-.26,5.38-2,5.89a12.8,12.8,0,0,0-2.31,1.13c-1.59.9-3.39,1.92-5.25,1.92Z"/><path class="cls-2" d="M462.15,143.45c3.37,0,6.68,11.76,3.31,12.75-2,.58-4.71,3-7.28,3-2,0-3.86-1.44-5.25-6.25-.09-.32-.18-.64-.25-.94a16.29,16.29,0,0,1-.36-2,8.68,8.68,0,0,1,0-2.23,4.67,4.67,0,0,1,.46-1.5c1.61-3.1,6.5-2.1,9-2.82a1.45,1.45,0,0,1,.41-.06m-5.68,12.17a.43.43,0,0,0,.23-.07l.75-.46a.72.72,0,0,0,.3-.76l-1.35-4.69a.72.72,0,0,0-.65-.49h-.88a.37.37,0,0,0-.37.5l1.63,5.68a.37.37,0,0,0,.35.29m5.68-14.17a3.45,3.45,0,0,0-1,.14,12.53,12.53,0,0,1-2.31.27c-2.62.16-6.21.39-7.86,3.55a6.69,6.69,0,0,0-.67,2.13,10.72,10.72,0,0,0,0,2.75,18.36,18.36,0,0,0,.4,2.2c.08.33.17.67.27,1,.55,1.91,2.21,7.7,7.17,7.7,2.13,0,4-1.09,5.75-2a12.39,12.39,0,0,1,2.1-1c1.07-.31,3.47-1.62,2.7-7-.54-3.74-2.8-9.68-6.57-9.68Z"/><path class="cls-3" d="M467.56,152.12a1,1,0,0,1-1-.72l-1.28-4.4a1,1,0,0,1,.66-1.23l7.06-2.18a1,1,0,0,1,.3,0,1,1,0,0,1,.29,0l.75.23,1-.74a1,1,0,0,1,.87-.17l1.1.3,1.85-1.15a1,1,0,0,1,.91-.08l2.3.94a1,1,0,0,1,.59.67l.38,1.42a1,1,0,0,1-.15.84l-1.39,2a1,1,0,0,1-.82.42l-2.21,0-.75.86a1,1,0,0,1-.75.34l-1.31-.08-.32.5a1,1,0,0,1-.6.43l-7.23,1.83A1,1,0,0,1,467.56,152.12Z"/><path class="cls-2" d="M479.68,142.9l2.3.94.38,1.43-1.39,2-2.66-.06-1.06,1.21-1.84-.12-.64,1-7.23,1.83-1.28-4.4,7.06-2.18,1.25.38,1.36-1.05,1.52.41,2.22-1.38m0-2a2,2,0,0,0-1.06.3l-1.47.92-.68-.18a2,2,0,0,0-1.75.35l-.54.42-.26-.08a2,2,0,0,0-1.18,0l-7.06,2.18a2,2,0,0,0-1.33,2.47l1.28,4.4a2,2,0,0,0,2.41,1.38l7.23-1.83a2,2,0,0,0,1.2-.87h0l.66,0h.13a2,2,0,0,0,1.51-.69l.44-.51,1.72,0h0a2,2,0,0,0,1.64-.85l1.39-2a2,2,0,0,0,.29-1.67l-.38-1.43a2,2,0,0,0-1.18-1.33l-2.3-.94a2,2,0,0,0-.75-.15Z"/><line class="cls-8" x1="385.24" y1="19.21" x2="463.09" y2="19.21"/><rect class="cls-2" x="420.87" y="67.71" width="67" height="27" rx="7" ry="7"/><path class="cls-3" d="M480.87,68.71a6,6,0,0,1,6,6v13a6,6,0,0,1-6,6h-53a6,6,0,0,1-6-6v-13a6,6,0,0,1,6-6h53m0-2h-53a8,8,0,0,0-8,8v13a8,8,0,0,0,8,8h53a8,8,0,0,0,8-8v-13a8,8,0,0,0-8-8Z"/><text class="cls-9" transform="translate(430.54 89.66)">BU<tspan class="cls-10" x="32.64" y="0">Y</tspan></text><path class="cls-2" d="M7,128.87a6,6,0,0,1-6-6V2A1,1,0,0,1,2,1H157.2a6,6,0,0,1,6,6V127.87a1,1,0,0,1-1,1Z"/><path class="cls-3" d="M157.2,2a5,5,0,0,1,5,5V127.87H7a5,5,0,0,1-5-5V2H157.2m0-2H2A2,2,0,0,0,0,2V122.87a7,7,0,0,0,7,7H162.2a2,2,0,0,0,2-2V7a7,7,0,0,0-7-7Z"/><line class="cls-4" x1="1.62" y1="17.26" x2="161.82" y2="17.26"/><rect class="cls-2" x="63.56" y="4.87" width="91.64" height="9.51" rx="1" ry="1"/><path class="cls-3" d="M154.19,5.87v7.51H64.56V5.87h89.64m0-2H64.56a2,2,0,0,0-2,2v7.51a2,2,0,0,0,2,2h89.64a2,2,0,0,0,2-2V5.87a2,2,0,0,0-2-2Z"/><rect class="cls-2" x="135.27" y="4.87" width="19.93" height="9.51" rx="1" ry="1"/><path class="cls-3" d="M154.19,5.87v7.51H136.27V5.87h17.93m0-2H136.27a2,2,0,0,0-2,2v7.51a2,2,0,0,0,2,2h17.93a2,2,0,0,0,2-2V5.87a2,2,0,0,0-2-2Z"/><circle class="cls-2" cx="18.78" cy="9.63" r="4.81"/><path class="cls-3" d="M18.78,5.81A3.81,3.81,0,1,1,15,9.63a3.81,3.81,0,0,1,3.81-3.81m0-2A5.81,5.81,0,1,0,24.6,9.63a5.82,5.82,0,0,0-5.81-5.81Z"/><circle class="cls-2" cx="30.23" cy="9.63" r="4.81"/><path class="cls-3" d="M30.23,5.81a3.81,3.81,0,1,1-3.81,3.81,3.81,3.81,0,0,1,3.81-3.81m0-2A5.81,5.81,0,1,0,36,9.63a5.82,5.82,0,0,0-5.81-5.81Z"/><circle class="cls-2" cx="41.67" cy="9.63" r="4.81"/><path class="cls-3" d="M41.67,5.81a3.81,3.81,0,1,1-3.81,3.81,3.81,3.81,0,0,1,3.81-3.81m0-2a5.81,5.81,0,1,0,5.81,5.81,5.82,5.82,0,0,0-5.81-5.81Z"/><line class="cls-8" x1="69.04" y1="9.63" x2="128.42" y2="9.63"/><path class="cls-2" d="M34,152.65a6,6,0,0,1-6-6V25.77a1,1,0,0,1,1-1h155.2a6,6,0,0,1,6,6V151.65a1,1,0,0,1-1,1Z"/><path class="cls-3" d="M184.24,25.77a5,5,0,0,1,5,5V151.65H34a5,5,0,0,1-5-5V25.77h155.2m0-2H29a2,2,0,0,0-2,2V146.65a7,7,0,0,0,7,7h155.2a2,2,0,0,0,2-2V30.77a7,7,0,0,0-7-7Z"/><line class="cls-4" x1="28.66" y1="41.03" x2="188.86" y2="41.03"/><rect class="cls-2" x="90.6" y="28.65" width="91.64" height="9.51" rx="1" ry="1"/><path class="cls-3" d="M181.23,29.65v7.51H91.6V29.65h89.64m0-2H91.6a2,2,0,0,0-2,2v7.51a2,2,0,0,0,2,2h89.64a2,2,0,0,0,2-2V29.65a2,2,0,0,0-2-2Z"/><rect class="cls-2" x="162.31" y="28.65" width="19.93" height="9.51" rx="1" ry="1"/><path class="cls-3" d="M181.23,29.65v7.51H163.31V29.65h17.93m0-2H163.31a2,2,0,0,0-2,2v7.51a2,2,0,0,0,2,2h17.93a2,2,0,0,0,2-2V29.65a2,2,0,0,0-2-2Z"/><circle class="cls-2" cx="45.82" cy="33.4" r="4.81"/><path class="cls-3" d="M45.82,29.59A3.81,3.81,0,1,1,42,33.4a3.81,3.81,0,0,1,3.81-3.81m0-2a5.81,5.81,0,1,0,5.81,5.81,5.82,5.82,0,0,0-5.81-5.81Z"/><circle class="cls-2" cx="57.27" cy="33.4" r="4.81"/><path class="cls-3" d="M57.27,29.59a3.81,3.81,0,1,1-3.81,3.81,3.81,3.81,0,0,1,3.81-3.81m0-2a5.81,5.81,0,1,0,5.81,5.81,5.82,5.82,0,0,0-5.81-5.81Z"/><circle class="cls-2" cx="68.71" cy="33.4" r="4.81"/><path class="cls-3" d="M68.71,29.59A3.81,3.81,0,1,1,64.9,33.4a3.81,3.81,0,0,1,3.81-3.81m0-2a5.81,5.81,0,1,0,5.81,5.81,5.82,5.82,0,0,0-5.81-5.81Z"/><line class="cls-8" x1="96.08" y1="33.4" x2="155.46" y2="33.4"/><path class="cls-2" d="M58.68,176.42a6,6,0,0,1-6-6V49.55a1,1,0,0,1,1-1h155.2a6,6,0,0,1,6,6V170.42a6,6,0,0,1-6,6Z"/><path class="cls-3" d="M208.89,49.55a5,5,0,0,1,5,5V170.42a5,5,0,0,1-5,5H58.68a5,5,0,0,1-5-5V49.55h155.2m0-2H53.68a2,2,0,0,0-2,2V170.42a7,7,0,0,0,7,7h150.2a7,7,0,0,0,7-7V54.55a7,7,0,0,0-7-7Z"/><line class="cls-4" x1="53.3" y1="64.81" x2="213.51" y2="64.81"/><rect class="cls-2" x="115.24" y="52.42" width="91.64" height="9.51" rx="1" ry="1"/><path class="cls-3" d="M205.88,53.42v7.51H116.24V53.42h89.64m0-2H116.24a2,2,0,0,0-2,2v7.51a2,2,0,0,0,2,2h89.64a2,2,0,0,0,2-2V53.42a2,2,0,0,0-2-2Z"/><rect class="cls-2" x="186.95" y="52.42" width="19.93" height="9.51" rx="1" ry="1"/><path class="cls-3" d="M205.88,53.42v7.51H188V53.42h17.93m0-2H188a2,2,0,0,0-2,2v7.51a2,2,0,0,0,2,2h17.93a2,2,0,0,0,2-2V53.42a2,2,0,0,0-2-2Z"/><circle class="cls-2" cx="70.47" cy="57.18" r="4.81"/><path class="cls-3" d="M70.47,53.36a3.81,3.81,0,1,1-3.81,3.81,3.81,3.81,0,0,1,3.81-3.81m0-2a5.81,5.81,0,1,0,5.81,5.81,5.82,5.82,0,0,0-5.81-5.81Z"/><circle class="cls-2" cx="81.91" cy="57.18" r="4.81"/><path class="cls-3" d="M81.91,53.36a3.81,3.81,0,1,1-3.81,3.81,3.81,3.81,0,0,1,3.81-3.81m0-2a5.81,5.81,0,1,0,5.81,5.81,5.82,5.82,0,0,0-5.81-5.81Z"/><circle class="cls-2" cx="93.35" cy="57.18" r="4.81"/><path class="cls-3" d="M93.35,53.36a3.81,3.81,0,1,1-3.81,3.81,3.81,3.81,0,0,1,3.81-3.81m0-2a5.81,5.81,0,1,0,5.81,5.81,5.82,5.82,0,0,0-5.81-5.81Z"/><line class="cls-8" x1="120.72" y1="57.18" x2="180.11" y2="57.18"/><line class="cls-5" x1="223.72" y1="96" x2="283.6" y2="96"/><line class="cls-11" x1="223.72" y1="96" x2="278.79" y2="96"/><path class="cls-3" d="M251.45,115.2a2,2,0,0,1,.62-2.76L277.88,96,252.07,79.57a2,2,0,1,1,2.15-3.37l28.46,18.13a2,2,0,0,1,0,3.38l-28.46,18.13a2,2,0,0,1-2.77-.61Z"/><rect class="cls-5" x="68.04" y="105.71" width="134.14" height="21.33" rx="4" ry="4"/><path class="cls-3" d="M198.17,106.71a3,3,0,0,1,3,3V123a3,3,0,0,1-3,3H72a3,3,0,0,1-3-3V109.71a3,3,0,0,1,3-3H198.17m0-2H72a5,5,0,0,0-5,5V123a5,5,0,0,0,5,5H198.17a5,5,0,0,0,5-5V109.71a5,5,0,0,0-5-5Z"/><path class="cls-3" d="M230,141.83a10.29,10.29,0,0,1-2.87,12.31,65.7,65.7,0,0,1-7.19,5.2c-4,2.53-8.32,2.33-12.59.53a17.37,17.37,0,0,1-7.25-5.72c-2.39-3.22-4.72-6.5-7.07-9.75a2.71,2.71,0,0,1-.23-.37,7,7,0,0,1,5.73-2.08c-.7-1.05-1.28-2-1.92-2.9s-1.57-2-2.33-3.07q-3-4.16-6-8.32a3.8,3.8,0,0,1-.28-4.36,3.7,3.7,0,0,1,3.6-2,3.79,3.79,0,0,1,3,1.66l4.77,6.6c1.55-1.43,3-3,5.23-2.13a29.19,29.19,0,0,1,3-2.29,2.91,2.91,0,0,1,3.3.24c.77-.64,1.46-1.28,2.21-1.83a3.15,3.15,0,0,1,4.52.65q5,6.86,10,13.77A24.49,24.49,0,0,1,230,141.83Zm-3.88,9.81a8,8,0,0,0,.64-10.41q-5-7-10-13.89l-1-1.38a.9.9,0,0,0-1.4-.24c-.23.17-.46.33-.67.52a.91.91,0,0,0-.13,1.41c.65.84,1.25,1.7,1.86,2.56a1.62,1.62,0,1,1-2.61,1.87c-1-1.36-1.92-2.75-2.92-4.08a1.46,1.46,0,0,0-1-.63,1.53,1.53,0,0,0-1.24,2.46c.95,1.3,1.93,2.59,2.87,3.9l.06.08a1.51,1.51,0,0,1-.31,2.29,1.49,1.49,0,0,1-2.23-.36q-1.86-2.55-3.64-5.14c-.59-.87-1-1-1.88-.35l-.31.23c-.73.53-.8,1-.28,1.67,1.25,1.69,2.51,3.37,3.75,5.07a1.6,1.6,0,1,1-2.59,1.85c-1.84-2.53-3.67-5.08-5.51-7.62l-4.94-6.82a1.4,1.4,0,1,0-2.24,1.63l8,11q3.76,5.19,7.5,10.4a1.62,1.62,0,1,1-2.59,1.9c-.9-1.23-1.77-2.48-2.68-3.69a3.49,3.49,0,0,0-4.09-1.19c2.22,3.07,4.3,6.2,6.65,9.12a13.31,13.31,0,0,0,7.18,4.44,10.25,10.25,0,0,0,9.22-1.7c1.76-1.34,3.58-2.6,5.37-3.91A8,8,0,0,0,226.14,151.64Z"/><path class="cls-5" d="M226.78,141.23a8,8,0,0,1-1.82,11.4c-1.79,1.31-3.61,2.57-5.37,3.91a10.25,10.25,0,0,1-9.22,1.7,13.31,13.31,0,0,1-7.18-4.44c-2.35-2.92-4.43-6.05-6.65-9.12a3.49,3.49,0,0,1,4.09,1.19c.91,1.21,1.78,2.46,2.68,3.69a1.62,1.62,0,1,0,2.59-1.9q-3.74-5.2-7.5-10.4l-8-11a1.4,1.4,0,1,1,2.24-1.63l4.94,6.82c1.84,2.54,3.67,5.09,5.51,7.62a1.6,1.6,0,1,0,2.59-1.85l2.36-1.48a1.49,1.49,0,0,0,2.23.36,1.51,1.51,0,0,0,.31-2.29l-.06-.08,2.24-1.65a1.62,1.62,0,1,0,2.61-1.87c-.61-.86-1.21-1.72-1.86-2.56a.91.91,0,0,1,.13-1.41c.21-.19.44-.35.67-.52a.9.9,0,0,1,1.4.24l1,1.38Q221.76,134.29,226.78,141.23Z"/><path class="cls-5" d="M212.78,132.08l-2.24,1.65c-.94-1.31-1.92-2.6-2.87-3.9a1.53,1.53,0,0,1,1.24-2.46,1.46,1.46,0,0,1,1,.63C210.86,129.33,211.8,130.72,212.78,132.08Z"/><path class="cls-5" d="M208.06,135.74l-2.36,1.48c-1.24-1.7-2.5-3.38-3.75-5.07-.52-.7-.45-1.14.28-1.67l.31-.23c.87-.63,1.29-.52,1.88.35Q206.21,133.2,208.06,135.74Z"/><path class="cls-3" d="M206.57,114.25a1.62,1.62,0,0,1-.32,2.33c-1.17.89-2.37,1.72-3.55,2.58s-2.16,1.58-3.25,2.35a1.69,1.69,0,1,1-2-2.71q3.38-2.49,6.8-4.92A1.66,1.66,0,0,1,206.57,114.25Z"/><path class="cls-3" d="M194.33,106.73a1.71,1.71,0,0,1,1.4,2.18c-.42,2.66-.83,5.33-1.29,8a4.62,4.62,0,0,1-.5,1.14,1.83,1.83,0,0,1-2.06.18,1.6,1.6,0,0,1-.79-1.71c.15-1.15.36-2.29.54-3.43.25-1.57.49-3.14.76-4.72A1.7,1.7,0,0,1,194.33,106.73Z"/><path class="cls-3" d="M187.64,117.16a1.75,1.75,0,0,1-.3,2.53,1.71,1.71,0,0,1-2.47-.58c-.81-1.09-1.6-2.2-2.4-3.31l-2.35-3.24a1.7,1.7,0,1,1,2.73-2Q185.25,113.84,187.64,117.16Z"/><path class="cls-3" d="M185.78,129.27a1.67,1.67,0,0,1-.49,2.48c-1.11.84-2.25,1.64-3.37,2.45s-2.17,1.58-3.26,2.35a1.69,1.69,0,1,1-2-2.73q3.3-2.43,6.63-4.8A1.68,1.68,0,0,1,185.78,129.27Z"/><path class="cls-3" d="M184.56,123.56a1.75,1.75,0,0,1-.83,1.86,4.36,4.36,0,0,1-1.19.12c-2.72-.4-5.43-.85-8.15-1.3a1.68,1.68,0,0,1-1.51-1.95,1.66,1.66,0,0,1,2-1.39c2.74.43,5.48.88,8.22,1.32A1.63,1.63,0,0,1,184.56,123.56Z"/><text class="cls-12" transform="translate(75.28 120.87)">LINK<tspan class="cls-13" x="22.73" y="0" xml:space="preserve"> T</tspan><tspan x="31.44" y="0">O</tspan><tspan class="cls-13" x="39.39" y="0"> </tspan><tspan x="42.05" y="0">YOUR </tspan><tspan class="cls-14" x="74.42" y="0">P</tspan><tspan class="cls-15" x="80.48" y="0">AGE</tspan></text><rect class="cls-4" x="67.87" y="64.94" width="77.36" height="31.07"/><rect class="cls-4" x="67.87" y="136.13" width="77.36" height="14.99"/><line class="cls-4" x1="152.56" y1="92" x2="201.17" y2="92"/><line class="cls-4" x1="152.56" y1="85.24" x2="201.17" y2="85.24"/><line class="cls-4" x1="152.56" y1="78.47" x2="201.17" y2="78.47"/><line class="cls-4" x1="152.56" y1="71.71" x2="201.17" y2="71.71"/><line class="cls-4" x1="69.05" y1="168" x2="200.46" y2="168"/><line class="cls-4" x1="69.05" y1="161.23" x2="200.46" y2="161.23"/></g></g></svg>