<svg xmlns="http://www.w3.org/2000/svg" viewBox="0 0 710 172.5"><defs><style>.cls-1{fill:#0080b1;}.cls-15,.cls-2,.cls-3{fill:#fff;}.cls-3{font-size:24px;font-family:HelveticaNeueLTPro-Lt, HelveticaNeueLTPro Lt;}.cls-4{letter-spacing:0em;}.cls-5{letter-spacing:-0.01em;}.cls-6{letter-spacing:-0.01em;}.cls-7{letter-spacing:0.01em;}.cls-8{letter-spacing:-0.01em;}.cls-9{letter-spacing:0em;}.cls-10{letter-spacing:0em;}.cls-11{letter-spacing:0.02em;}.cls-12{letter-spacing:-0.01em;}.cls-13{letter-spacing:-0.01em;}.cls-14{fill:none;stroke:#fff;stroke-miterlimit:10;stroke-width:5px;}.cls-15{font-size:30px;font-family:ArialMT, Arial;}</style></defs><title>mag</title><g id="Layer_2" data-name="Layer 2"><g id="texts"><path class="cls-1" d="M42.5,163.5a1,1,0,0,1-1-1v-45a1,1,0,0,1,1-1h39v-24a1,1,0,0,1,1-1H135a1,1,0,0,1,1,1V129h36.5a1,1,0,0,1,1,1v32.5a1,1,0,0,1-1,1Z"/><path class="cls-2" d="M135,92.5V130h37.5v32.5H42.5v-45h40v-25H135m0-2H82.5a2,2,0,0,0-2,2v23h-38a2,2,0,0,0-2,2v45a2,2,0,0,0,2,2h130a2,2,0,0,0,2-2V130a2,2,0,0,0-2-2H137V92.5a2,2,0,0,0-2-2Z"/><text class="cls-3" transform="translate(210 57.59)"><tspan class="cls-4">B</tspan><tspan x="13.1" y="0">ecause people tu</tspan><tspan class="cls-4" x="183.74" y="0">r</tspan><tspan x="191.68" y="0">n </tspan><tspan class="cls-5" x="210.09" y="0">t</tspan><tspan x="217.89" y="0">o sea</tspan><tspan class="cls-6" x="269.25" y="0">r</tspan><tspan x="276.86" y="0">ch en</tspan><tspan class="cls-5" x="331.36" y="0">g</tspan><tspan x="344.63" y="0">ines so </tspan><tspan x="0" y="28">o</tspan><tspan class="cls-7" x="13.18" y="28">f</tspan><tspan class="cls-5" x="20.45" y="28">t</tspan><tspan x="28.25" y="28">en </tspan><tspan class="cls-8" x="58.68" y="28">f</tspan><tspan x="65.37" y="28">or in</tspan><tspan class="cls-8" x="110.42" y="28">f</tspan><tspan x="117.12" y="28">o</tspan><tspan class="cls-4" x="130.29" y="28">r</tspan><tspan x="138.24" y="28">m</tspan><tspan class="cls-9" x="158.25" y="28">a</tspan><tspan x="169.73" y="28">tion, </tspan><tspan class="cls-6" x="219.84" y="28">y</tspan><tspan x="230.9" y="28">our </tspan><tspan class="cls-10" x="270.24" y="28">r</tspan><tspan x="277.96" y="28">an</tspan><tspan class="cls-11" x="302.85" y="28">k</tspan><tspan x="314.52" y="28">ing can make </tspan><tspan x="0" y="56">or b</tspan><tspan class="cls-6" x="39.77" y="56">r</tspan><tspan x="47.38" y="56">eak h</tspan><tspan class="cls-12" x="100.63" y="56">o</tspan><tspan x="113.64" y="56">w o</tspan><tspan class="cls-7" x="149.57" y="56">f</tspan><tspan class="cls-5" x="156.84" y="56">t</tspan><tspan x="164.64" y="56">en </tspan><tspan class="cls-6" x="195.07" y="56">y</tspan><tspan x="206.13" y="56">our dealership is seen </tspan><tspan class="cls-12" x="427.48" y="56">b</tspan><tspan x="440.97" y="56">y </tspan><tspan x="0" y="84">po</tspan><tspan class="cls-5" x="26.83" y="84">t</tspan><tspan x="34.63" y="84">e</tspan><tspan class="cls-9" x="46.66" y="84">n</tspan><tspan x="59.88" y="84">tial cus</tspan><tspan class="cls-5" x="129.24" y="84">t</tspan><tspan x="137.04" y="84">omer</tspan><tspan class="cls-13" x="190.1" y="84">s</tspan><tspan x="199.34" y="84">.</tspan></text><polyline class="cls-14" points="2.5 67.5 2.5 2.5 67.5 2.5"/><polyline class="cls-14" points="707.5 105 707.5 170 642.5 170"/><text class="cls-15" transform="translate(100.82 120)">1</text><text class="cls-15" transform="translate(55.82 145)">2</text><text class="cls-15" transform="translate(145.82 155)">3</text><path class="cls-1" d="M148.52,103.5a7.42,7.42,0,0,1-5.28-2.19L124.65,82.72a32.9,32.9,0,1,1,11.07-10.07l18.09,18.09a7.47,7.47,0,0,1-5.28,12.76ZM108.61,31a23.05,23.05,0,0,0,0,46.1,22.83,22.83,0,0,0,10.22-2.39,23.13,23.13,0,0,0,9-8A22.82,22.82,0,0,0,131.67,54,23.08,23.08,0,0,0,108.61,31Z"/><path class="cls-2" d="M108.61,22.11a31.89,31.89,0,0,1,25.8,50.65L153.1,91.45a6.47,6.47,0,0,1-9.15,9.16L124.81,81.47a31.57,31.57,0,0,1-16.2,4.44,31.9,31.9,0,0,1,0-63.8m0,56A24.05,24.05,0,1,0,84.56,54a23.94,23.94,0,0,0,24.05,24.05m0-58A33.9,33.9,0,1,0,124.47,84L142.53,102a8.47,8.47,0,1,0,12-12L137,72.53a33.89,33.89,0,0,0-28.4-52.42Zm0,56A22.05,22.05,0,1,1,130.67,54a21.82,21.82,0,0,1-3.62,12.07,22.14,22.14,0,0,1-8.66,7.69,21.83,21.83,0,0,1-9.77,2.28Z"/><path class="cls-1" d="M100.3,68.29a1,1,0,0,1-1-1.31l3-9.38-8-5.8A1,1,0,0,1,95,50h9.86l3-9.38a1,1,0,0,1,1.9,0l3,9.38h9.86a1,1,0,0,1,.59,1.81l-8,5.8,3,9.38a1,1,0,0,1-1.54,1.12l-8-5.8-8,5.8A1,1,0,0,1,100.3,68.29Z"/><path class="cls-2" d="M108.86,40.92,112.14,51h10.59l-8.57,6.23,3.27,10.07-8.57-6.23-8.57,6.23,3.27-10.07L95,51h10.59l3.27-10.07M122.73,51h0M108.86,38.92A2,2,0,0,0,107,40.3L104.14,49H95a2,2,0,0,0-1.18,3.62L101.22,58l-2.82,8.69a2,2,0,0,0,3.08,2.24l7.39-5.37,7.39,5.37a2,2,0,0,0,3.08-2.24L116.51,58l7.35-5.34A2,2,0,0,0,122.73,49h-9.14l-2.82-8.69a2,2,0,0,0-1.9-1.38Z"/></g></g></svg>