<svg xmlns="http://www.w3.org/2000/svg" viewBox="0 0 1109.68 242.13"><defs><style>.cls-1{fill:#0080b1;}.cls-1,.cls-2,.cls-8{stroke:#fff;}.cls-1,.cls-8,.cls-9{stroke-linecap:round;stroke-linejoin:round;}.cls-1,.cls-2{stroke-width:2px;}.cls-2{fill:#2c81b1;stroke-miterlimit:10;}.cls-3{fill:#1b74a8;}.cls-4{font-size:24px;fill:#fff;font-family:ArialMT, Arial;}.cls-5{letter-spacing:-0.09em;}.cls-6{letter-spacing:-0.02em;}.cls-7{letter-spacing:-0.11em;}.cls-8,.cls-9{fill:none;}.cls-8{stroke-width:10px;}.cls-9{stroke:#5d9632;stroke-width:4px;}</style></defs><title>majestic</title><g id="Layer_2" data-name="Layer 2"><g id="graphics"><path class="cls-1" d="M1046.8,119.73l-29.56,3.41-.46.05a3,3,0,0,1-3.28-2.4l-28.75-.91.22.43-2.83-4a.84.84,0,0,1,1.3-1.06l3.33,3.57a.79.79,0,0,1,.17.27l.06.16,31.72-3.22h0l26.13-6.75a5.32,5.32,0,0,1,2.66,10.3A5.83,5.83,0,0,1,1046.8,119.73Z"/><path class="cls-1" d="M62.87,119.73l29.56,3.41.46.05a3,3,0,0,0,3.28-2.4l28.75-.91-.22.43,2.83-4a.84.84,0,0,0-1.3-1.06l-3.33,3.57a.79.79,0,0,0-.17.27l-.06.16-31.72-3.22h0L64.81,109.3a5.32,5.32,0,0,0-2.66,10.3A5.83,5.83,0,0,0,62.87,119.73Z"/><rect class="cls-2" x="75.6" y="1" width="955" height="228.24"/><path class="cls-1" d="M44.4,163.53,59.24,195.6v-.44l-.08,2.06L59,202.58l-.3,7.47-.33,8.39-.32,8.1-.26,6.62c0,.92-.08,1.83-.12,2.75a15,15,0,0,0-.08,2.62,1.78,1.78,0,0,0,.69,1.23,2.7,2.7,0,0,0,2,.15A10.71,10.71,0,0,1,66,241a1.05,1.05,0,0,0,1.41-.49c.52-1.07-1-1.91-1.72-2.39a15.6,15.6,0,0,0-3.63-1.77l5.25-40.51v-.44l-9.7-32.18a6.65,6.65,0,0,0-13.27-.76A7.19,7.19,0,0,0,44.4,163.53Z"/><path class="cls-1" d="M28.48,161.84c0,7.54,5.55,10.81,12.4,10.81s12.4-3.26,12.4-10.81c0-6.25,13.52-42.29,8.32-54.46-.07-.17-.95.22-1.19-.24-.66-1.28-.25-4.64-.25-4.64H56.52s-1.08,3.55-1.32,4.05C49.81,117.8,28.48,155.44,28.48,161.84Z"/><path class="cls-1" d="M66.63,87.78a8.42,8.42,0,0,0-16.84,0c0,4.65,3.77,13,8.42,13S66.63,92.43,66.63,87.78Z"/><path class="cls-1" d="M27.64,163.61l-8.95,31,.18-.4-.88,2-2.29,5.08-3.17,7L9,216.09l-3.36,7.47L3,229.49c-.33.73-.65,1.47-1,2.2a11.34,11.34,0,0,0-.92,2.07c-.35,1.48.79,2,2,2.29A9.86,9.86,0,0,1,6.64,238c.72.58,1.82,2.3,2.86,1.36a1.06,1.06,0,0,0,.24-1.25,17.62,17.62,0,0,0-3.86-4.89L26.1,197.84l.18-.4L40,168.29a6.65,6.65,0,0,0-12-5.67A7.19,7.19,0,0,0,27.64,163.61Z"/><path class="cls-1" d="M46.89,117l18.18,23.55.28.36a3,3,0,0,0,4,.67l24.18-15.85-.46.14,4.83-.76a.84.84,0,0,0-.15-1.67l-4.88.11a.79.79,0,0,0-.31.07l-.15.07-23.3,10.85h0l-13.4-23.43a5.32,5.32,0,0,0-9.23,5.28A5.83,5.83,0,0,0,46.89,117Z"/><path class="cls-1" d="M1065.27,163.53l-14.84,32.06v-.44l.08,2.06.21,5.36.3,7.47.33,8.39.32,8.1.26,6.62c0,.92.08,1.83.12,2.75a15,15,0,0,1,.08,2.62,1.78,1.78,0,0,1-.69,1.23,2.7,2.7,0,0,1-2,.15,10.71,10.71,0,0,0-5.83,1.12,1.05,1.05,0,0,1-1.41-.49c-.52-1.07,1-1.91,1.72-2.39a15.6,15.6,0,0,1,3.63-1.77l-5.25-40.51v-.44l9.7-32.18a6.65,6.65,0,0,1,13.27-.76A7.19,7.19,0,0,1,1065.27,163.53Z"/><path class="cls-1" d="M1081.2,161.84c0,7.54-5.55,10.81-12.4,10.81s-12.4-3.26-12.4-10.81c0-6.25-13.52-42.29-8.32-54.46.07-.17.95.22,1.19-.24.66-1.28.25-4.64.25-4.64h3.63s1.08,3.55,1.32,4.05C1059.87,117.8,1081.2,155.44,1081.2,161.84Z"/><path class="cls-1" d="M1043,87.78a8.42,8.42,0,0,1,16.84,0c0,4.65-3.77,13-8.42,13S1043,92.43,1043,87.78Z"/><path class="cls-1" d="M1082,163.61l8.95,31-.18-.4.88,2,2.29,5.08,3.17,7,3.53,7.84,3.36,7.47,2.67,5.93c.33.73.65,1.47,1,2.2a11.34,11.34,0,0,1,.92,2.07c.35,1.48-.79,2-2,2.29A9.86,9.86,0,0,0,1103,238c-.72.58-1.82,2.3-2.86,1.36a1.06,1.06,0,0,1-.24-1.25,17.62,17.62,0,0,1,3.86-4.89l-20.24-35.34-.18-.4-13.76-29.15a6.65,6.65,0,0,1,12-5.67A7.19,7.19,0,0,1,1082,163.61Z"/><polyline class="cls-1" points="1076.68 149.7 1054.58 153.18 1042.33 195.42 1046.89 232.24 1051.93 233.16 1053.63 196.42 1064.25 173.47 1072.86 175.11 1083.57 197.84 1102 230.01 1108.68 226.99 1094.1 193.74 1084.6 161.74 1076.68 149.7"/><path class="cls-1" d="M1062.79,117l-18.18,23.55-.28.36a3,3,0,0,1-4,.67l-24.18-15.85.46.14-4.83-.76a.84.84,0,0,1,.15-1.67l4.88.11a.79.79,0,0,1,.31.07l.15.07,23.3,10.85h0l13.4-23.43a5.32,5.32,0,0,1,9.23,5.28A5.83,5.83,0,0,1,1062.79,117Z"/><path class="cls-1" d="M54.92,153.87s-9.13,3.07-20.85-6.41l-7.72,11.35L18,196.13,3,229.49l5.63,3.25L34.1,195l6.58-19,6.92-.5L56,196.74l1.79,36.42h7.6L70.1,194Z"/></g><g id="texts"><path class="cls-3" d="M342.76,200h9.79c8.36,0,10.61-5.51,10.61-21V147c0-27.34,11.63-31.42,14.28-34.07-2.65-1.63-14.28-5.71-14.28-33v-32c0-15.5-2.24-21-10.61-21h-9.79V20.08H353c11.42,0,18,5.51,18,24.07V76.59c0,16.52,2.65,32.44,14.69,33v7.75c-12,.61-14.69,16.52-14.69,33v32.23c0,18.56-6.53,24.07-18,24.07h-10.2Z"/><path class="cls-3" d="M730.26,200H740c8.36,0,10.61-5.51,10.61-21V147c0-27.34,11.63-31.42,14.28-34.07-2.65-1.63-14.28-5.71-14.28-33v-32c0-15.5-2.24-21-10.61-21h-9.79V20.08h10.2c11.42,0,18,5.51,18,24.07V76.59c0,16.52,2.65,32.44,14.69,33v7.75c-12,.61-14.69,16.52-14.69,33v32.23c0,18.56-6.53,24.07-18,24.07h-10.2Z"/><text class="cls-4" transform="translate(133.1 87.33)"><tspan class="cls-5">Y</tspan><tspan x="13.8" y="0">ou can actually </tspan><tspan x="0" y="28.8">check your site</tspan><tspan class="cls-6" x="160.07" y="28.8">’</tspan><tspan x="164.96" y="28.8">s </tspan><tspan x="0" y="57.6">backlinks using</tspan></text><text class="cls-4" transform="translate(467.93 69.83)">Ahrefs SEO<tspan class="cls-6" x="126.71" y="0"> </tspan><tspan class="cls-7" x="132.95" y="0">T</tspan><tspan x="144.95" y="0">ools</tspan><tspan x="0" y="38.8">Majestic</tspan><tspan x="0" y="77.6">Moz</tspan><tspan class="cls-6" x="45.34" y="77.6">’</tspan><tspan x="50.24" y="77.6">s Open Site </tspan><tspan x="0" y="106.4">Explorer </tspan></text><text class="cls-4" transform="translate(808.1 87.33)">to see how <tspan x="0" y="28.8">many backlinks </tspan><tspan x="0" y="57.6">your site has.</tspan></text><polyline class="cls-8" points="435.6 51.74 446.79 62.93 435.6 74.11"/><polyline class="cls-9" points="435.6 51.74 446.79 62.93 435.6 74.11"/><polyline class="cls-8" points="435.6 89.36 446.79 100.55 435.6 111.74"/><polyline class="cls-9" points="435.6 89.36 446.79 100.55 435.6 111.74"/><polyline class="cls-8" points="435.6 129.36 446.79 140.55 435.6 151.74"/><polyline class="cls-9" points="435.6 129.36 446.79 140.55 435.6 151.74"/></g></g></svg>