<svg xmlns="http://www.w3.org/2000/svg" viewBox="0 0 253.29 196.32"><defs><style>.cls-1,.cls-5{fill:none;}.cls-1{stroke:#0080b1;stroke-miterlimit:10;}.cls-1,.cls-2,.cls-5,.cls-6{stroke-width:2px;}.cls-2,.cls-7,.cls-8{fill:#fff;}.cls-2{stroke:#2c81b1;}.cls-2,.cls-5,.cls-6{stroke-linecap:round;stroke-linejoin:round;}.cls-3,.cls-6{fill:#bf3019;}.cls-4{fill:#b5d2e3;}.cls-5,.cls-6{stroke:#fff;}.cls-7{font-size:15.92px;font-family:MuseoSans-900, MuseoSans 900;}.cls-8{font-size:16px;font-family:ArialMT, Arial;}.cls-9{letter-spacing:-0.07em;}.cls-10{letter-spacing:-0.02em;}</style></defs><title>penalty</title><g id="Layer_2" data-name="Layer 2"><g id="graphics"><circle class="cls-1" cx="98.75" cy="13.86" r="5.08"/><circle class="cls-1" cx="116.59" cy="13.86" r="5.08"/><circle class="cls-1" cx="134.43" cy="13.86" r="5.08"/></g><g id="texts"><path class="cls-1" d="M247.29,1H88.5a5,5,0,0,0-5,5V26.72H252.29V6A5,5,0,0,0,247.29,1Z"/><path class="cls-2" d="M247.29,187.47H88.5a5,5,0,0,1-5-5V26.72H252.29V182.47A5,5,0,0,1,247.29,187.47Z"/><rect class="cls-3" x="102.5" y="41.07" width="133.02" height="128.37"/><path class="cls-4" d="M42.84,196.32H32.64c-11.42,0-18-5.51-18-24.07V140c0-16.52-2.65-32.44-14.69-33V99.22c12-.61,14.69-16.52,14.69-33V33.73c0-18.56,6.53-24.07,18-24.07h10.2v6.73H33c-8.36,0-10.61,5.51-10.61,21v32c0,27.34-11.63,31.42-14.28,33,2.65,2.65,14.28,6.73,14.28,34.07v32c0,15.5,2.24,21,10.61,21h9.79Z"/><rect class="cls-5" x="115.51" y="51.24" width="28.21" height="8.64"/><rect class="cls-5" x="149.41" y="51.24" width="28.21" height="8.64"/><polygon class="cls-6" points="119.93 93.45 133.22 69.63 146.52 93.45 119.93 93.45"/><text class="cls-7" transform="translate(130.46 90.08)">!</text><text class="cls-8" transform="translate(149.41 88.49)">PENA<tspan class="cls-9" x="43.57" y="0">L</tspan><tspan x="51.28" y="0">T</tspan><tspan class="cls-10" x="61.05" y="0">Y</tspan></text><line class="cls-5" x1="119.93" y1="106.98" x2="219.31" y2="106.98"/><line class="cls-5" x1="119.93" y1="118.72" x2="219.31" y2="118.72"/><line class="cls-5" x1="119.93" y1="130.45" x2="219.31" y2="130.45"/><line class="cls-5" x1="119.93" y1="142.19" x2="219.31" y2="142.19"/><line class="cls-5" x1="119.93" y1="153.93" x2="159.51" y2="153.93"/></g></g></svg>