<svg xmlns="http://www.w3.org/2000/svg" viewBox="0 0 260 157.5"><defs><style>.cls-1{fill:#f2f2f2;}.cls-2{fill:#0080b1;}.cls-3,.cls-5{font-size:24px;}.cls-3{fill:#fff;font-family:HelveticaNeueLTPro-Lt, HelveticaNeueLTPro Lt;letter-spacing:-0.03em;}.cls-4{letter-spacing:0em;}.cls-5{fill:#5d5d5d;font-family:HelveticaNeue-Bold, HelveticaNeue Bold;font-weight:700;}</style></defs><title>positions</title><g id="Layer_2" data-name="Layer 2"><g id="texts"><path class="cls-1" d="M241.44,37.5H152.5V0h88.94A18.56,18.56,0,0,1,260,18.56v.37A18.56,18.56,0,0,1,241.44,37.5Z"/><path class="cls-1" d="M241.44,77.5H152.5V40h88.94A18.56,18.56,0,0,1,260,58.56v.37A18.56,18.56,0,0,1,241.44,77.5Z"/><path class="cls-1" d="M241.44,117.5H152.5V80h88.94A18.56,18.56,0,0,1,260,98.56v.37A18.56,18.56,0,0,1,241.44,117.5Z"/><path class="cls-1" d="M241.44,157.5H152.5V120h88.94A18.56,18.56,0,0,1,260,138.56v.38A18.56,18.56,0,0,1,241.44,157.5Z"/><path class="cls-2" d="M155,37.5H10a10,10,0,0,1-10-10V10A10,10,0,0,1,10,0H155Z"/><path class="cls-2" d="M155,77.5H10a10,10,0,0,1-10-10V50A10,10,0,0,1,10,40H155Z"/><path class="cls-2" d="M155,117.5H10a10,10,0,0,1-10-10V90A10,10,0,0,1,10,80H155Z"/><path class="cls-2" d="M155,157.5H10a10,10,0,0,1-10-10V130a10,10,0,0,1,10-10H155Z"/><text class="cls-3" transform="translate(28.54 30.67)">P<tspan class="cls-4" x="12.17" y="0">osition 1</tspan><tspan x="0" y="38.8">P</tspan><tspan class="cls-4" x="12.17" y="38.8">osition 2</tspan><tspan x="0" y="77.6">P</tspan><tspan class="cls-4" x="12.17" y="77.6">osition 3</tspan><tspan x="0" y="116.4">P</tspan><tspan class="cls-4" x="12.17" y="116.4">osition 4</tspan></text><text class="cls-5" transform="translate(180 30.67)">33%<tspan x="0" y="38.8">18%</tspan><tspan x="0" y="77.6">11%</tspan><tspan x="0" y="116.4">8%</tspan></text></g></g></svg>