<svg xmlns="http://www.w3.org/2000/svg" viewBox="0 0 79.88 82.54"><defs><style>.cls-1{fill:#f9f9f9;stroke:#007cc0;stroke-miterlimit:10;stroke-width:2.36px;}.cls-2{fill:#5d9632;}.cls-3{fill:#fff;}.cls-4{fill:none;stroke:#fff;stroke-linecap:round;stroke-linejoin:round;stroke-width:6px;}.cls-5{fill:#767676;}.cls-6{fill:#bbe170;}</style></defs><title>ribbon</title><g id="Layer_2" data-name="Layer 2"><g id="texts"><circle class="cls-1" cx="40.4" cy="41.27" r="38.3"/><circle class="cls-2" cx="40.4" cy="41.27" r="30.34"/><rect class="cls-3" width="0.66" height="5.94"/><rect class="cls-3" x="2.64" y="-2.64" width="0.66" height="5.94" transform="translate(2.64 3.3) rotate(-90)"/><rect class="cls-3" x="76.27" y="79.24" width="0.66" height="5.94" transform="translate(-5.61 158.81) rotate(-90)"/><rect class="cls-3" x="78.91" y="76.6" width="0.66" height="5.94"/><path class="cls-4" d="M56.86,30.54l2.54,3.17-2.54,3.16L58,40.77l-3.56,1.95-.44,4-4,.43L48.88,44A13,13,0,1,0,33,44l-1.17,3.19-4-.43-.44-4L23.9,40.77,25,36.87,22.5,33.71,25,30.54l-1.14-3.9,3.56-1.95.44-4,4-.44,1.95-3.56,3.9,1.14L41,15.26l3.17,2.54L48,16.66,50,20.22l4,.44.44,4L58,26.64Z"/><polygon class="cls-4" points="50.05 47.19 55.46 61.92 49.9 60.2 46.78 65.1 41.79 51.49 44.12 49.62 48.02 50.76 49.96 47.2 50.05 47.19"/><path class="cls-4" d="M48.88,44l1.17,3.18H50L48,50.76l-3.9-1.14-2.33,1.87L41,49.22l.94-2.55A12.89,12.89,0,0,0,48.88,44Z"/><path class="cls-4" d="M47.78,41l1.1,3a12.89,12.89,0,0,1-7,2.66l1.17-3.18A10,10,0,0,0,47.78,41Z"/><path class="cls-4" d="M47.12,39.22,47.78,41a10,10,0,0,1-4.72,2.48l.4-1.09L41,41.48Z"/><path class="cls-4" d="M43.46,42.4l-.4,1.09a10.18,10.18,0,0,1-4.21,0l-.4-1.09,2.5-.92Z"/><polygon class="cls-4" points="41.79 51.49 40.95 52.16 40.12 51.49 40.95 49.22 41.79 51.49"/><path class="cls-4" d="M43.91,35.45l.89,2.72a.72.72,0,0,1-1.11.8l-2.31-1.68a.74.74,0,0,0-.85,0L38.22,39a.72.72,0,0,1-1.11-.8L38,35.45a.73.73,0,0,0-.26-.81L35.42,33a.72.72,0,0,1,.42-1.3H38.7a.71.71,0,0,0,.68-.5l.89-2.72a.72.72,0,0,1,1.37,0l.88,2.72a.72.72,0,0,0,.69.5h2.85a.72.72,0,0,1,.43,1.3l-2.31,1.68A.73.73,0,0,0,43.91,35.45Z"/><path class="cls-4" d="M40,46.67,41,49.22l-.83,2.27-2.33-1.87-3.9,1.14L31.94,47.2h-.08L33,44A12.85,12.85,0,0,0,40,46.67Z"/><path class="cls-4" d="M41,41.48l-2.5.92.4,1.09A10,10,0,0,1,34.12,41l.66-1.79Z"/><path class="cls-4" d="M41,46.71c.32,0,.63,0,.94,0L41,49.22,40,46.67C40.33,46.7,40.64,46.71,41,46.71Z"/><path class="cls-4" d="M41,46.71c-.31,0-.62,0-.93,0l-1.17-3.18a10.18,10.18,0,0,0,4.21,0l-1.17,3.18C41.58,46.7,41.27,46.71,41,46.71Z"/><polygon class="cls-4" points="40.12 51.49 35.12 65.1 32 60.2 26.45 61.92 31.86 47.19 31.94 47.2 33.89 50.76 37.79 49.62 40.12 51.49"/><path class="cls-4" d="M38.85,43.49,40,46.67A12.85,12.85,0,0,1,33,44l1.09-3A10,10,0,0,0,38.85,43.49Z"/><path class="cls-4" d="M38.22,39l2.31-1.68a.74.74,0,0,1,.85,0L43.69,39a.72.72,0,0,0,1.11-.8l-.89-2.72a.73.73,0,0,1,.27-.81L46.49,33a.72.72,0,0,0-.43-1.3H43.21a.72.72,0,0,1-.69-.5l-.88-2.72a.72.72,0,0,0-1.37,0l-.89,2.72a.71.71,0,0,1-.68.5H35.84a.72.72,0,0,0-.42,1.3l2.31,1.68a.73.73,0,0,1,.26.81l-.88,2.72A.72.72,0,0,0,38.22,39ZM41,41.48l-6.17-2.26L34.12,41a10,10,0,1,1,13.66,0l-.66-1.79Z"/><path class="cls-4" d="M51,33.71A10,10,0,1,0,34.12,41L33,44a13,13,0,1,1,15.85,0l-1.1-3A10,10,0,0,0,51,33.71Z"/><path class="cls-5" d="M56.86,30.54l2.54,3.17-2.54,3.16L58,40.77l-3.56,1.95-.44,4-4,.43L48.88,44A13,13,0,1,0,33,44l-1.17,3.19-4-.43-.44-4L23.9,40.77,25,36.87,22.5,33.71,25,30.54l-1.14-3.9,3.56-1.95.44-4,4-.44,1.95-3.56,3.9,1.14L41,15.26l3.17,2.54L48,16.66,50,20.22l4,.44.44,4L58,26.64Z"/><polygon class="cls-5" points="50.05 47.19 55.46 61.92 49.9 60.2 46.78 65.1 41.79 51.49 44.12 49.62 48.02 50.76 49.96 47.2 50.05 47.19"/><path class="cls-5" d="M48.88,44l1.17,3.18H50L48,50.76l-3.9-1.14-2.33,1.87L41,49.22l.94-2.55A12.89,12.89,0,0,0,48.88,44Z"/><path class="cls-6" d="M47.78,41l1.1,3a12.89,12.89,0,0,1-7,2.66l1.17-3.18A10,10,0,0,0,47.78,41Z"/><path class="cls-5" d="M47.12,39.22,47.78,41a10,10,0,0,1-4.72,2.48l.4-1.09L41,41.48Z"/><path class="cls-5" d="M43.46,42.4l-.4,1.09a10.18,10.18,0,0,1-4.21,0l-.4-1.09,2.5-.92Z"/><polygon class="cls-5" points="41.79 51.49 40.95 52.16 40.12 51.49 40.95 49.22 41.79 51.49"/><path class="cls-6" d="M43.91,35.45l.89,2.72a.72.72,0,0,1-1.11.8l-2.31-1.68a.74.74,0,0,0-.85,0L38.22,39a.72.72,0,0,1-1.11-.8L38,35.45a.73.73,0,0,0-.26-.81L35.42,33a.72.72,0,0,1,.42-1.3H38.7a.71.71,0,0,0,.68-.5l.89-2.72a.72.72,0,0,1,1.37,0l.88,2.72a.72.72,0,0,0,.69.5h2.85a.72.72,0,0,1,.43,1.3l-2.31,1.68A.73.73,0,0,0,43.91,35.45Z"/><path class="cls-5" d="M40,46.67,41,49.22l-.83,2.27-2.33-1.87-3.9,1.14L31.94,47.2h-.08L33,44A12.85,12.85,0,0,0,40,46.67Z"/><path class="cls-5" d="M41,41.48l-2.5.92.4,1.09A10,10,0,0,1,34.12,41l.66-1.79Z"/><path class="cls-5" d="M41,46.71c.32,0,.63,0,.94,0L41,49.22,40,46.67C40.33,46.7,40.64,46.71,41,46.71Z"/><path class="cls-6" d="M41,46.71c-.31,0-.62,0-.93,0l-1.17-3.18a10.18,10.18,0,0,0,4.21,0l-1.17,3.18C41.58,46.7,41.27,46.71,41,46.71Z"/><polygon class="cls-5" points="40.12 51.49 35.12 65.1 32 60.2 26.45 61.92 31.86 47.19 31.94 47.2 33.89 50.76 37.79 49.62 40.12 51.49"/><path class="cls-6" d="M38.85,43.49,40,46.67A12.85,12.85,0,0,1,33,44l1.09-3A10,10,0,0,0,38.85,43.49Z"/><path class="cls-5" d="M38.22,39l2.31-1.68a.74.74,0,0,1,.85,0L43.69,39a.72.72,0,0,0,1.11-.8l-.89-2.72a.73.73,0,0,1,.27-.81L46.49,33a.72.72,0,0,0-.43-1.3H43.21a.72.72,0,0,1-.69-.5l-.88-2.72a.72.72,0,0,0-1.37,0l-.89,2.72a.71.71,0,0,1-.68.5H35.84a.72.72,0,0,0-.42,1.3l2.31,1.68a.73.73,0,0,1,.26.81l-.88,2.72A.72.72,0,0,0,38.22,39ZM41,41.48l-6.17-2.26L34.12,41a10,10,0,1,1,13.66,0l-.66-1.79Z"/><path class="cls-6" d="M51,33.71A10,10,0,1,0,34.12,41L33,44a13,13,0,1,1,15.85,0l-1.1-3A10,10,0,0,0,51,33.71Z"/></g></g></svg>