<svg xmlns="http://www.w3.org/2000/svg" viewBox="0 0 594.03 236.17"><defs><style>.cls-1{font-size:24px;fill:#0080b1;font-family:HelveticaNeue-Bold, HelveticaNeue Bold;}.cls-15,.cls-16,.cls-2,.cls-3,.cls-4,.cls-5,.cls-6,.cls-7,.cls-8{font-weight:700;}.cls-2{letter-spacing:0.01em;}.cls-10,.cls-14,.cls-4{letter-spacing:-0.01em;}.cls-12,.cls-22,.cls-5{letter-spacing:-0.01em;}.cls-11,.cls-21,.cls-6{letter-spacing:-0.01em;}.cls-7{letter-spacing:-0.01em;}.cls-27,.cls-8{letter-spacing:-0.01em;}.cls-10,.cls-11,.cls-12,.cls-9{fill:#5d5d5d;font-family:HelveticaNeueLTPro-Lt, HelveticaNeueLTPro Lt;}.cls-13{letter-spacing:0em;}.cls-15{letter-spacing:0.01em;}.cls-16,.cls-17{letter-spacing:0em;}.cls-18{letter-spacing:0em;}.cls-19{letter-spacing:-0.01em;}.cls-20{letter-spacing:0.01em;}.cls-23{letter-spacing:0em;}.cls-24{letter-spacing:0em;}.cls-25{letter-spacing:0.01em;}.cls-26{letter-spacing:-0.01em;}.cls-28{letter-spacing:-0.01em;}.cls-29{letter-spacing:0em;}.cls-30{letter-spacing:-0.04em;}.cls-31,.cls-32{fill:#fff;stroke-linecap:round;stroke-linejoin:round;stroke-width:3px;}.cls-31{stroke:#5d9632;}.cls-32{stroke:#0080b1;}</style></defs><title>seo-list</title><g id="Layer_2" data-name="Layer 2"><g id="texts"><text class="cls-1" transform="translate(54 21.26)"><tspan class="cls-2">I</tspan><tspan class="cls-3" x="5.98" y="0">f </tspan><tspan class="cls-4" x="18.07" y="0">y</tspan><tspan class="cls-3" x="29.14" y="0">ou h</tspan><tspan class="cls-5" x="73.94" y="0">a</tspan><tspan class="cls-4" x="85.32" y="0">v</tspan><tspan class="cls-3" x="96.62" y="0">e </tspan><tspan class="cls-6" x="113.73" y="0">t</tspan><tspan class="cls-3" x="121.53" y="0">oo ma</tspan><tspan class="cls-7" x="184.56" y="0">n</tspan><tspan class="cls-3" x="197.57" y="0">y link</tspan><tspan class="cls-8" x="249.81" y="0">s</tspan><tspan class="cls-3" x="259.05" y="0">,</tspan><tspan class="cls-9" x="264.02" y="0" xml:space="preserve"> sea</tspan><tspan class="cls-10" x="302.2" y="0">r</tspan><tspan class="cls-9" x="309.81" y="0">ch en</tspan><tspan class="cls-11" x="364.32" y="0">g</tspan><tspan class="cls-9" x="377.59" y="0">ines m</tspan><tspan class="cls-12" x="443.16" y="0">a</tspan><tspan class="cls-9" x="454.53" y="0">y not </tspan><tspan class="cls-9"><tspan x="0" y="28.8">ind</tspan><tspan class="cls-13" x="32.47" y="28.8">e</tspan><tspan x="44.42" y="28.8">x them al</tspan><tspan class="cls-14" x="136.25" y="28.8">l</tspan><tspan x="141.67" y="28.8">. </tspan></tspan><tspan class="cls-2" x="0" y="77.6">I</tspan><tspan class="cls-3" x="5.98" y="77.6">f </tspan><tspan class="cls-4" x="18.07" y="77.6">y</tspan><tspan class="cls-3" x="29.14" y="77.6">ou also h</tspan><tspan class="cls-5" x="118.94" y="77.6">a</tspan><tspan class="cls-4" x="130.32" y="77.6">v</tspan><tspan class="cls-3" x="141.62" y="77.6">e </tspan><tspan class="cls-6" x="158.73" y="77.6">t</tspan><tspan class="cls-3" x="166.53" y="77.6">oo ma</tspan><tspan class="cls-7" x="229.56" y="77.6">n</tspan><tspan class="cls-3" x="242.57" y="77.6">y ke</tspan><tspan class="cls-15" x="282.24" y="77.6">y</tspan><tspan class="cls-4" x="293.83" y="77.6">w</tspan><tspan class="cls-3" x="311.25" y="77.6">o</tspan><tspan class="cls-4" x="324.43" y="77.6">r</tspan><tspan class="cls-3" x="332.04" y="77.6">d me</tspan><tspan class="cls-16" x="382.7" y="77.6">n</tspan><tspan class="cls-3" x="395.92" y="77.6">tions</tspan><tspan class="cls-9" x="445.48" y="77.6" xml:space="preserve"> (</tspan><tspan class="cls-11" x="457.39" y="77.6">t</tspan><tspan class="cls-9" x="465.19" y="77.6">o an </tspan><tspan class="cls-9"><tspan x="0" y="106.4">unn</tspan><tspan class="cls-17" x="39.86" y="106.4">a</tspan><tspan class="cls-18" x="51.33" y="106.4">tu</tspan><tspan class="cls-19" x="72.5" y="106.4">r</tspan><tspan x="80.23" y="106.4">al </tspan><tspan class="cls-13" x="102.55" y="106.4">e</tspan><tspan class="cls-20" x="114.5" y="106.4">x</tspan><tspan class="cls-21" x="125.93" y="106.4">t</tspan><tspan x="133.73" y="106.4">e</tspan><tspan class="cls-17" x="145.75" y="106.4">n</tspan><tspan x="158.97" y="106.4">t), sea</tspan><tspan class="cls-14" x="216.88" y="106.4">r</tspan><tspan x="224.49" y="106.4">ch en</tspan><tspan class="cls-21" x="279" y="106.4">g</tspan><tspan x="292.27" y="106.4">ines m</tspan><tspan class="cls-22" x="357.83" y="106.4">a</tspan><tspan x="369.21" y="106.4">y c</tspan><tspan class="cls-23" x="396.35" y="106.4">a</tspan><tspan class="cls-21" x="407.83" y="106.4">t</tspan><tspan x="415.63" y="106.4">ch on and </tspan><tspan class="cls-14" x="0" y="135.2">r</tspan><tspan x="7.61" y="135.2">edu</tspan><tspan class="cls-21" x="46.39" y="135.2">c</tspan><tspan x="57" y="135.2">e the </tspan><tspan class="cls-23" x="112.49" y="135.2">v</tspan><tspan class="cls-24" x="123.93" y="135.2">alue of the ke</tspan><tspan class="cls-25" x="258.43" y="135.2">y</tspan><tspan class="cls-14" x="270.02" y="135.2">w</tspan><tspan x="287.44" y="135.2">o</tspan><tspan class="cls-26" x="300.62" y="135.2">r</tspan><tspan x="308.23" y="135.2">d</tspan><tspan class="cls-27" x="321.76" y="135.2">s</tspan><tspan x="331" y="135.2">.</tspan></tspan><tspan class="cls-3"><tspan class="cls-28" x="0" y="184">T</tspan><tspan class="cls-18" x="11.76" y="184">he best app</tspan><tspan class="cls-14" x="129.29" y="184">r</tspan><tspan x="136.89" y="184">oach is </tspan><tspan class="cls-21" x="211" y="184">t</tspan><tspan x="218.8" y="184">o simply w</tspan><tspan class="cls-29" x="325.58" y="184">r</tspan><tspan x="333.52" y="184">i</tspan><tspan class="cls-21" x="339.14" y="184">t</tspan><tspan x="346.94" y="184">e n</tspan><tspan class="cls-23" x="377.37" y="184">a</tspan><tspan x="388.84" y="184">tu</tspan><tspan class="cls-19" x="410.01" y="184">r</tspan><tspan class="cls-18" x="417.74" y="184">all</tspan><tspan class="cls-30" x="440.63" y="184">y</tspan><tspan x="451" y="184">.</tspan></tspan></text><circle class="cls-31" cx="21.5" cy="21.5" r="20"/><polyline class="cls-32" points="10.5 24.25 19.25 30.86 31.5 14.5"/><circle class="cls-31" cx="21.5" cy="99" r="20"/><polyline class="cls-32" points="10.5 101.75 19.25 108.36 31.5 92"/><circle class="cls-31" cx="21.5" cy="196.5" r="20"/><polyline class="cls-32" points="10.5 199.25 19.25 205.86 31.5 189.5"/></g></g></svg>