<svg xmlns="http://www.w3.org/2000/svg" viewBox="0 0 701.73 141.68"><defs><style>.cls-1{isolation:isolate;}.cls-11,.cls-14,.cls-17,.cls-18,.cls-19,.cls-2,.cls-5,.cls-6{fill:none;}.cls-11,.cls-13,.cls-16,.cls-2,.cls-5,.cls-6{stroke:#fff;}.cls-13,.cls-2,.cls-5,.cls-6{stroke-miterlimit:10;}.cls-2{stroke-width:3px;}.cls-3{font-size:53px;font-family:ArialMT, Arial;}.cls-3,.cls-9{fill:#e6e6e6;}.cls-4{letter-spacing:-0.07em;}.cls-5{stroke-width:4px;}.cls-11,.cls-14,.cls-16,.cls-17,.cls-18,.cls-19,.cls-6{stroke-width:2px;}.cls-7{fill:#bf3019;opacity:0.49;mix-blend-mode:multiply;}.cls-13,.cls-8{fill:#fff;}.cls-10{fill:#ccc;}.cls-11,.cls-14,.cls-16,.cls-17,.cls-18,.cls-19{stroke-linecap:round;stroke-linejoin:round;}.cls-12{fill:#0080b1;}.cls-14{stroke:#666;}.cls-15,.cls-16{fill:#87c22e;}.cls-17{stroke:#999;}.cls-18{stroke:#bf3019;}.cls-19{stroke:#5d9632;}</style></defs><title>seo-title</title><g class="cls-1"><g id="Layer_2" data-name="Layer 2"><g id="texts"><path class="cls-2" d="M106.84,115.7"/><text class="cls-3" transform="translate(166.84 63.2)">SEARCH ENGINE<tspan x="0" y="54">OPTIMIZ</tspan><tspan class="cls-4" x="214.92" y="54">A</tspan><tspan x="246.34" y="54">TION (SEO)</tspan></text><circle class="cls-5" cx="70.84" cy="70.84" r="62.88"/><polyline class="cls-6" points="14.05 1 1 1 1 14.05"/><polyline class="cls-6" points="127.63 140.68 140.68 140.68 140.68 127.63"/><circle class="cls-7" cx="70.84" cy="70.84" r="47.98"/><path class="cls-8" d="M118.82,49.37V115.6a2.9,2.9,0,0,1-2.9,2.9H25.47a2.91,2.91,0,0,1-2.91-2.9V49.37Z"/><rect class="cls-9" x="22.57" y="32.6" width="96.25" height="16.77"/><path class="cls-10" d="M118.82,26.08V32.6H22.57V26.08a2.91,2.91,0,0,1,2.91-2.91h90.44A2.91,2.91,0,0,1,118.82,26.08Z"/><path class="cls-11" d="M118.82,49.37V115.6a2.9,2.9,0,0,1-2.9,2.9H25.47a2.91,2.91,0,0,1-2.91-2.9V26.08a2.91,2.91,0,0,1,2.91-2.91h90.44a2.91,2.91,0,0,1,2.9,2.91V49.37Z"/><line class="cls-11" x1="22.57" y1="32.6" x2="118.82" y2="32.6"/><line class="cls-11" x1="22.57" y1="49.37" x2="118.82" y2="49.37"/><path class="cls-8" d="M32.25,44.57a.08.08,0,0,1-.08-.08v-7a.08.08,0,0,1,.08-.08H99.32v7.18Z"/><path class="cls-10" d="M98.32,38.39v5.18H33.17V38.39H98.32m2-2H32.25a1.08,1.08,0,0,0-1.08,1.08v7a1.08,1.08,0,0,0,1.08,1.08h68.06V36.39Z"/><path class="cls-12" d="M100.32,36.39h9.18A1.62,1.62,0,0,1,111.12,38V44a1.62,1.62,0,0,1-1.62,1.62h-9.18a0,0,0,0,1,0,0V36.39A0,0,0,0,1,100.32,36.39Z"/><path class="cls-13" d="M108.35,43.29,107,42a2.26,2.26,0,1,0-.68.62l1.35,1.35a.46.46,0,1,0,.65-.65ZM106,42.17a1.71,1.71,0,1,1,.67-.59A1.69,1.69,0,0,1,106,42.17Z"/><line class="cls-14" x1="31.2" y1="62.08" x2="111.12" y2="62.08"/><line class="cls-14" x1="31.2" y1="66.11" x2="111.12" y2="66.11"/><line class="cls-14" x1="31.2" y1="69.72" x2="61.99" y2="69.72"/><rect class="cls-12" x="31.2" y="54.68" width="23.79" height="3.78"/><line class="cls-14" x1="31.2" y1="83.25" x2="111.12" y2="83.25"/><line class="cls-14" x1="31.2" y1="87.29" x2="111.12" y2="87.29"/><line class="cls-14" x1="31.2" y1="90.9" x2="61.99" y2="90.9"/><rect class="cls-12" x="31.2" y="75.85" width="39.96" height="3.78"/><line class="cls-14" x1="31.2" y1="103.79" x2="111.12" y2="103.79"/><line class="cls-14" x1="31.2" y1="107.83" x2="111.12" y2="107.83"/><line class="cls-14" x1="31.2" y1="111.44" x2="61.99" y2="111.44"/><rect class="cls-12" x="31.2" y="96.39" width="13.49" height="3.78"/><path class="cls-15" d="M48.94,57.09,62.8,69.91A1.22,1.22,0,0,1,62.06,72l-3.74.23,2.32,5-6.72,2.93-2.09-4.72L49,78.28a1.3,1.3,0,0,1-2.21-.85V58A1.3,1.3,0,0,1,48.94,57.09Z"/><polygon class="cls-16" points="48.94 60.13 59.68 70.01 54.98 70.3 57.72 76.12 55.01 77.31 52.39 71.6 48.94 75.11 48.94 60.13"/><line class="cls-17" x1="31.2" y1="28.18" x2="88.46" y2="28.18"/><line class="cls-18" x1="111.85" y1="26.47" x2="114.81" y2="29.43"/><line class="cls-18" x1="111.85" y1="29.43" x2="114.81" y2="26.47"/><line class="cls-19" x1="107.74" y1="28.18" x2="103.42" y2="28.18"/></g></g></g></svg>