<svg xmlns="http://www.w3.org/2000/svg" viewBox="0 0 794.22 231.99"><defs><style>.cls-1,.cls-15,.cls-16,.cls-3,.cls-6,.cls-8,.cls-9{fill:#2c81b1;}.cls-1,.cls-12,.cls-16,.cls-17,.cls-3,.cls-6,.cls-8,.cls-9{stroke:#fff;}.cls-1,.cls-3,.cls-6,.cls-8,.cls-9{stroke-miterlimit:10;}.cls-2{font-size:30px;}.cls-14,.cls-2,.cls-4,.cls-7{fill:#fff;}.cls-2,.cls-4,.cls-7{font-family:ArialMT, Arial;}.cls-3{stroke-width:1.39px;}.cls-4{font-size:18px;}.cls-5{letter-spacing:-0.02em;}.cls-6{stroke-width:1.64px;}.cls-7{font-size:22px;}.cls-8{stroke-width:1.21px;}.cls-9{stroke-width:1.19px;}.cls-10{fill:#5d9632;}.cls-11,.cls-13{fill:#87c22e;}.cls-12,.cls-17{fill:none;}.cls-12,.cls-16,.cls-17{stroke-linecap:round;stroke-linejoin:round;stroke-width:2px;}.cls-13{font-size:38.68px;font-family:MuseoSans-900, MuseoSans 900;}.cls-17{stroke-dasharray:3 6;}</style></defs><title>used-car</title><g id="Layer_2" data-name="Layer 2"><g id="texts"><rect class="cls-1" x="306.91" y="30.78" width="177.5" height="80"/><text class="cls-2" transform="translate(318.06 82.84)">USED CAR</text><rect class="cls-3" x="225.41" y="135.72" width="154.82" height="69.69"/><text class="cls-4" transform="translate(232.51 167.14)">CREDBU<tspan class="cls-5" x="76.01" y="0">Y</tspan><tspan x="87.69" y="0" xml:space="preserve"> USED </tspan><tspan x="41.01" y="21.6">CARSI</tspan><tspan class="cls-5" x="96.02" y="21.6">T</tspan></text><rect class="cls-6" x="462.87" y="120.3" width="154.85" height="80.11"/><text class="cls-7" transform="translate(480.88 153.72)">BU<tspan class="cls-5" x="30.56" y="0">Y</tspan><tspan x="44.84" y="0" xml:space="preserve"> USED </tspan><tspan x="28.53" y="26.4">CARS</tspan></text><rect class="cls-8" x="0.6" y="101.26" width="119.64" height="75.32"/><text class="cls-4" transform="translate(3 132.92)">USED CARS <tspan x="18.01" y="21.6">IN [CITY]</tspan></text><rect class="cls-9" x="138.39" y="53.99" width="140.12" height="62.61"/><text class="cls-7" transform="translate(144.14 92.98)">USED CARS</text><path class="cls-10" d="M737.22,141.52,715,119.26a38.13,38.13,0,1,0-11.44,10.38l22.8,22.8a7.72,7.72,0,0,0,10.91-10.92Zm-40.3-18.92a28.78,28.78,0,1,1,11.25-10A28.53,28.53,0,0,1,696.91,122.6Z"/><path class="cls-11" d="M737.22,141.52,715,119.26a38.13,38.13,0,1,0-11.44,10.38l22.8,22.8a7.72,7.72,0,0,0,10.91-10.92Zm-40.3-18.92a28.78,28.78,0,1,1,11.25-10A28.53,28.53,0,0,1,696.91,122.6Z"/><path class="cls-12" d="M737.22,141.52,715,119.26a38.13,38.13,0,1,0-11.44,10.38l22.8,22.8a7.72,7.72,0,0,0,10.91-10.92Zm-40.3-18.92a28.78,28.78,0,1,1,11.25-10A28.53,28.53,0,0,1,696.91,122.6Z"/><text class="cls-13" transform="translate(676.12 110.78)">?</text><text class="cls-13" transform="translate(676.12 110.78)">?</text><path class="cls-14" d="M683.63,84.29c4.45,0,6.46,2.75,6.46,5.69,0,2.63-1.47,4.53-3.33,6.73a7.64,7.64,0,0,0-2.2,5.69l0,1h-3l-.08-1a8.88,8.88,0,0,1,2.4-6.69c1.74-2,2.71-3.56,2.71-5.3,0-2-1.24-3.29-3.67-3.33a6.88,6.88,0,0,0-3.91,1.2l-.93-2.44a10.14,10.14,0,0,1,5.53-1.55M683,106.37a2.42,2.42,0,1,1-2.32,2.44,2.29,2.29,0,0,1,2.32-2.44m.58-24.09a12.15,12.15,0,0,0-6.71,1.93,2,2,0,0,0-.69,2.33l.93,2.44a2,2,0,0,0,3.08.88,5,5,0,0,1,2.7-.79c1.67,0,1.67.81,1.67,1.33,0,1-.58,2.06-2.23,4a10.94,10.94,0,0,0-2.87,8.17l.07,1a2,2,0,0,0,1,1.58,4.4,4.4,0,0,0-1.85,3.68,4.3,4.3,0,1,0,8.6,0,4.42,4.42,0,0,0-1.79-3.65,2,2,0,0,0,1.05-1.84l0-1c-.08-1.29.19-2.5,1.73-4.32,1.69-2,3.8-4.51,3.8-8,0-3.7-2.65-7.69-8.46-7.69Z"/><path class="cls-15" d="M754.7,231a1.92,1.92,0,0,1-1.72-1.08c-.79-1.63.91-2.73,1.64-3.21l.19-.13a13.61,13.61,0,0,1,2.61-1.36L753,190.94l0-.48-1.6-27.83a6.75,6.75,0,0,1,6.35-7.13h.39a6.76,6.76,0,0,1,6.74,6.36,7.25,7.25,0,0,1,0,1.07L762,190.59l1.29,32.46.1,2.38c0,.21,0,.43,0,.65a7.91,7.91,0,0,1,0,1.8,2.5,2.5,0,0,1-1,1.74,2.35,2.35,0,0,1-1.38.4,5.8,5.8,0,0,1-.83-.08l-.19,0a5.71,5.71,0,0,0-.75,0,8.87,8.87,0,0,0-3.74.93A1.9,1.9,0,0,1,754.7,231Z"/><path class="cls-14" d="M758.1,156.49a5.75,5.75,0,0,1,5.74,5.42,6.18,6.18,0,0,1,0,.92L761,190.56v0L761,192l.18,4.64.26,6.47.29,7.26.28,7,.23,5.73c0,.79.07,1.58.1,2.38a12.94,12.94,0,0,1,.07,2.27,1.54,1.54,0,0,1-.59,1.06,1.38,1.38,0,0,1-.81.22,7,7,0,0,1-.89-.1,6.77,6.77,0,0,0-.88-.06,9.86,9.86,0,0,0-4.17,1,.91.91,0,0,1-1.22-.43c-.45-.93.87-1.65,1.49-2.07a13.5,13.5,0,0,1,3.15-1.53L754,190.81v-.38l-1.6-27.85a5.75,5.75,0,0,1,5.41-6.07h.34m0-2h-.45a7.76,7.76,0,0,0-7.29,8.18l1.6,27.83v.36q0,.1,0,.19l4.34,33.53a14.1,14.1,0,0,0-2.08,1.16l-.18.12c-2.1,1.36-2.77,2.87-2,4.48A2.91,2.91,0,0,0,756,231.7a7.84,7.84,0,0,1,3.3-.83,4.79,4.79,0,0,1,.62,0l.18,0a6.57,6.57,0,0,0,1,.09,3.36,3.36,0,0,0,1.94-.58,3.53,3.53,0,0,0,1.44-2.42,8.67,8.67,0,0,0,0-2c0-.21,0-.41,0-.61q0-.63-.05-1.26l0-1.12-.23-5.73-.12-3.12-.15-3.9-.25-6.2,0-1.06v-.33l-.24-6.14L763,191.9l-.05-1.28L765.81,163a8.18,8.18,0,0,0,0-1.24,7.76,7.76,0,0,0-7.73-7.31Z"/><path class="cls-15" d="M744.64,142.27a3.59,3.59,0,0,1-2-.58L722,128.17l-3.68-.58a1.73,1.73,0,0,1,.27-3.43l4.26.09a1.7,1.7,0,0,1,.67.16L743,133.47,754.16,114a5.6,5.6,0,1,1,9.73,5.56,6.07,6.07,0,0,1-.43.64l-16,20.7A3.56,3.56,0,0,1,744.64,142.27Z"/><path class="cls-14" d="M759,112.16a4.6,4.6,0,0,1,4,6.89,5,5,0,0,1-.35.53L746.93,140l-.24.31a2.6,2.6,0,0,1-3.47.58l-20.81-13.64.28,0-.4-.12.12.08-3.9-.61a.76.76,0,0,1,.11-1.5h0l4.23.12a.69.69,0,0,1,.27.08l.13.07,20.16,9.39L755,114.48a4.6,4.6,0,0,1,4-2.32m0-2h0a6.62,6.62,0,0,0-5.74,3.33l-10.68,18.68-18.5-8.61-.13-.06a2.72,2.72,0,0,0-1.07-.28l-4.22-.12h-.06a2.75,2.75,0,0,0-.42,5.47l3.47.55,20.45,13.41a4.6,4.6,0,0,0,6.15-1l.24-.31,15.74-20.38a7.09,7.09,0,0,0,.51-.76,6.6,6.6,0,0,0-5.73-9.88Z"/><polyline class="cls-16" points="752.14 117.31 746.23 123.02 754.37 129.89"/><path class="cls-15" d="M762.87,169.72c-7.23,0-11.73-4-11.73-10.35,0-5,3.17-36.5,7.88-47.53a1.08,1.08,0,0,1,1-.65h.14a11.67,11.67,0,0,0,0-3.08,1,1,0,0,1,1-1.12h3.14a1,1,0,0,1,1,.71c.43,1.42,1,3.11,1.09,3.37,4.82,10,8.23,43.11,8.23,48.29C774.6,165.75,770.11,169.72,762.87,169.72Z"/><path class="cls-14" d="M764.33,108s.93,3.07,1.14,3.51c4.67,9.74,8.13,42.32,8.13,47.86,0,6.53-4.8,9.35-10.73,9.35s-10.73-2.82-10.73-9.35c0-5.41,3.3-36.6,7.8-47.13,0,0,.05,0,.11,0s.29,0,.46,0A.46.46,0,0,0,761,112c.57-1.11.22-4,.22-4h3.14m0-2h-3.14a2,2,0,0,0-2,2.24,13.84,13.84,0,0,1,.08,2.09,2,2,0,0,0-1.18,1.12c-4.76,11.14-8,42.87-8,47.92,0,7,4.88,11.35,12.73,11.35s12.73-4.35,12.73-11.35c0-5.21-3.45-38.55-8.32-48.72-.11-.27-.63-1.89-1-3.22a2,2,0,0,0-1.91-1.42Z"/><path class="cls-15" d="M762.87,107.55c-4.87,0-8.29-8-8.29-12.28a8.29,8.29,0,1,1,16.58,0C771.16,99.58,767.74,107.55,762.87,107.55Z"/><path class="cls-14" d="M762.87,88a7.29,7.29,0,0,1,7.29,7.29c0,4-3.26,11.28-7.29,11.28s-7.29-7.26-7.29-11.28A7.29,7.29,0,0,1,762.87,88m0-2a9.3,9.3,0,0,0-9.29,9.29c0,4.56,3.62,13.28,9.29,13.28s9.29-8.72,9.29-13.28A9.3,9.3,0,0,0,762.87,86Z"/><path class="cls-15" d="M764,231a1.81,1.81,0,0,1-1.68-1.06,1.92,1.92,0,0,1,.45-2.26A14.92,14.92,0,0,1,767,225.1l-4.7-34.15a1,1,0,0,1,0-.1v-.38l-1.6-27.83a6.75,6.75,0,0,1,6.35-7.13h.39a6.76,6.76,0,0,1,6.74,6.36,7.25,7.25,0,0,1,0,1.07l-2.83,27.67,1.34,33.8c0,.45,0,.89.05,1.34,0,.17,0,.35,0,.53a6.56,6.56,0,0,1,0,1.63,2.35,2.35,0,0,1-2.6,2.09,7.36,7.36,0,0,1-.84-.06,6.27,6.27,0,0,0-.73,0,8,8,0,0,0-2.35.38,4.6,4.6,0,0,0-.48.2A4.48,4.48,0,0,1,764,231Z"/><path class="cls-14" d="M767.4,156.49a5.75,5.75,0,0,1,5.74,5.42,6.18,6.18,0,0,1,0,.92l-2.84,27.73v0l.06,1.49.19,4.82.27,6.68.29,7.43.28,7.08.22,5.63c0,.69,0,1.39.08,2.08a9.81,9.81,0,0,1,.07,2c-.15,1-.83,1.25-1.61,1.25a6.26,6.26,0,0,1-.73-.05,7.21,7.21,0,0,0-.85,0,9.06,9.06,0,0,0-2.65.42,7.5,7.5,0,0,1-2,.66.8.8,0,0,1-.78-.5.91.91,0,0,1,.21-1.08,15.25,15.25,0,0,1,4.68-2.67l-4.8-34.92v-.38l-1.6-27.85a5.75,5.75,0,0,1,5.41-6.07h.34m0-2h-.45a7.76,7.76,0,0,0-7.29,8.18l1.6,27.83v.36a2,2,0,0,0,0,.21l4.6,33.4a15.17,15.17,0,0,0-3.83,2.42,2.93,2.93,0,0,0-.68,3.44A2.81,2.81,0,0,0,764,232a5.36,5.36,0,0,0,2.18-.6c.13-.06.26-.12.36-.15a7.05,7.05,0,0,1,2.06-.33,5.24,5.24,0,0,1,.61,0,8.11,8.11,0,0,0,1,.06,3.35,3.35,0,0,0,3.59-2.94,7.47,7.47,0,0,0,0-1.88c0-.16,0-.33,0-.49,0-.45,0-.89-.05-1.34l0-.72-.22-5.63-.14-3.63-.14-3.45-.29-7.43-.13-3.34-.13-3.34-.1-2.62-.09-2.2v-.14l0-1.21L775.1,163a8.18,8.18,0,0,0,0-1.24,7.76,7.76,0,0,0-7.73-7.31Z"/><polyline class="cls-16" points="758.7 168.29 759.88 189.54 765.18 221.73 775.26 223.45 773.59 190.52 777.02 160.11 773.93 151.44 751.14 152.73 746.23 188.62 755.34 222.07 765.18 221.73 757.38 189.16 759.57 175.5"/><path class="cls-15" d="M767.21,127.75A5.6,5.6,0,0,1,765,117l18.85-8.28-13.52-12.8a1,1,0,0,1-.22-.3l-.06-.12a1.66,1.66,0,0,1-.15-.62l-.19-4.23a1.73,1.73,0,0,1,1.42-1.78l.31,0a1.73,1.73,0,0,1,1.7,1.42l.63,3.46,18.71,14.59a1,1,0,0,1,.25.28,3.63,3.63,0,0,1-1.17,5l-21.33,13.3a6.33,6.33,0,0,1-.71.37,5.56,5.56,0,0,1-2.25.48Z"/><path class="cls-14" d="M771.39,89.86a.73.73,0,0,1,.72.6l.7,3.83-.06,0,.12.37-.06-.32,19,14.83h0a2.63,2.63,0,0,1-.84,3.62l-.33.2-21,13.1a5,5,0,0,1-.58.31,4.6,4.6,0,1,1-3.71-8.42L785.58,109,771,95.21l-.06-.12a.66.66,0,0,1-.06-.25l-.19-4.22a.73.73,0,0,1,.6-.75h.13m0-2a2.73,2.73,0,0,0-2.73,2.85l.19,4.22a2.64,2.64,0,0,0,.24,1l.06.13a2,2,0,0,0,.44.61L782,108.43l-17.47,7.67a6.6,6.6,0,1,0,5.32,12.09,7,7,0,0,0,.83-.43l21-13.11.33-.2a4.63,4.63,0,0,0,1.48-6.38,2.07,2.07,0,0,0-.47-.53L774.63,93.18l-.56-3.08a2.73,2.73,0,0,0-2.68-2.24Z"/><polyline class="cls-16" points="774.87 111.98 780.02 123.17 772.12 125.84"/><line class="cls-17" x1="478.82" y1="20.78" x2="479.41" y2="1"/><line class="cls-17" x1="497.12" y1="35.78" x2="516.91" y2="36.37"/><line class="cls-17" x1="489.41" y1="23.58" x2="502.99" y2="10.78"/><line class="cls-17" x1="468.56" y1="23.75" x2="458.96" y2="13.56"/><line class="cls-17" x1="501.51" y1="53.47" x2="491.91" y2="43.28"/></g></g></svg>