<svg xmlns="http://www.w3.org/2000/svg" xmlns:xlink="http://www.w3.org/1999/xlink" viewBox="0 0 485 70"><defs><style>.cls-1{fill:#009ad5;}.cls-2{fill:url(#linear-gradient);}.cls-3,.cls-4{fill:none;stroke:#fff;stroke-miterlimit:10;}.cls-3{stroke-width:2px;}.cls-5{font-size:30.83px;fill:#fff;font-family:MuseoSans-900, MuseoSans 900;}.cls-6{letter-spacing:-0.04em;}.cls-7{letter-spacing:-0.03em;}</style><linearGradient id="linear-gradient" x1="6.07" y1="35" x2="420" y2="35" gradientUnits="userSpaceOnUse"><stop offset="0" stop-color="#00658d"/><stop offset="0.22" stop-color="#00658d"/><stop offset="1" stop-color="#00658d" stop-opacity="0"/></linearGradient><symbol id="titulofondoazul" data-name="titulofondoazul" viewBox="0 0 485 70"><g id="_Group_" data-name="&lt;Group&gt;"><path class="cls-1" d="M0,0H450a35,35,0,0,1,35,35v0a35,35,0,0,1-35,35H0a0,0,0,0,1,0,0V0A0,0,0,0,1,0,0Z"/><polygon class="cls-2" points="70.49 70 6.07 0 420 0 420 69.94 70.49 70"/></g></symbol></defs><title>when-to-use-it</title><g id="Layer_2" data-name="Layer 2"><g id="texts"><use width="485" height="70" xlink:href="#titulofondoazul"/><circle class="cls-3" cx="119.81" cy="35" r="26.36"/><path class="cls-4" d="M107.47,29.43c.14-7.61,5.11-12,12.62-12,6,0,12,3.18,12,9.83,0,4.68-2.31,6.36-5.93,8.68-2.51,1.64-3.18,2.36-3.18,5.25h-7.61V38.78c0-3.71,2.12-5.4,3.9-6.7,2-1.3,3.85-2.36,3.85-4.77A2.88,2.88,0,0,0,120,24.37c-2.7,0-4,1.59-4.14,4.14v.91Zm7.28,14.17h9v9h-9Z"/><path class="cls-3" d="M107.47,29.43c.14-7.61,5.11-12,12.62-12,6,0,12,3.18,12,9.83,0,4.68-2.31,6.36-5.93,8.68-2.51,1.64-3.18,2.36-3.18,5.25h-7.61V38.78c0-3.71,2.12-5.4,3.9-6.7,2-1.3,3.85-2.36,3.85-4.77A2.88,2.88,0,0,0,120,24.37c-2.7,0-4,1.59-4.14,4.14v.91Zm7.28,14.17h9v9h-9Z"/><text class="cls-5" transform="translate(180 45)">WHEN<tspan class="cls-6" x="81.63" y="0"> </tspan><tspan class="cls-7" x="86.9" y="0">T</tspan><tspan x="101.39" y="0">O USE IT</tspan></text></g></g></svg>