<svg xmlns="http://www.w3.org/2000/svg" viewBox="0 0 887.28 251.48"><defs><style>.cls-1,.cls-2{fill:#767676;stroke:#fff;stroke-width:2px;}.cls-1{stroke-linecap:round;stroke-linejoin:round;}.cls-2{stroke-miterlimit:10;}.cls-3{font-size:24px;}.cls-3,.cls-6{fill:#fff;}.cls-3,.cls-6,.cls-7{font-family:ArialMT, Arial;}.cls-4{letter-spacing:-0.06em;}.cls-5{letter-spacing:-0.02em;}.cls-6,.cls-7{font-size:40px;}.cls-7,.cls-8{fill:#ffb600;}</style></defs><title>20-to-70</title><g id="Layer_2" data-name="Layer 2"><g id="texts"><path class="cls-1" d="M61.87,129.08l29.56,3.41.46.05a3,3,0,0,0,3.28-2.4l28.75-.91-.22.43,2.83-4a.84.84,0,0,0-1.3-1.06l-3.33,3.57a.79.79,0,0,0-.17.27l-.06.16-31.72-3.22h0l-26.13-6.75A5.32,5.32,0,0,0,61.15,129,5.83,5.83,0,0,0,61.87,129.08Z"/><path class="cls-1" d="M825.4,129.08l-29.56,3.41-.46.05a3,3,0,0,1-3.28-2.4l-28.75-.91.22.43-2.83-4a.84.84,0,0,1,1.3-1.06l3.33,3.57a.79.79,0,0,1,.17.27l.06.16,31.72-3.22h0l26.13-6.75a5.32,5.32,0,0,1,2.66,10.3A5.83,5.83,0,0,1,825.4,129.08Z"/><rect class="cls-2" x="96.6" y="1" width="702.5" height="247.95"/><path class="cls-1" d="M44.4,172.89,59.24,205v-.44l-.08,2.06L59,211.93l-.3,7.47-.33,8.39-.32,8.1-.26,6.62c0,.92-.08,1.83-.12,2.75a15,15,0,0,0-.08,2.62,1.78,1.78,0,0,0,.69,1.23,2.7,2.7,0,0,0,2,.15A10.71,10.71,0,0,1,66,250.38a1.05,1.05,0,0,0,1.41-.49c.52-1.07-1-1.91-1.72-2.39a15.6,15.6,0,0,0-3.63-1.77l5.25-40.51v-.44l-9.7-32.18a6.65,6.65,0,0,0-13.27-.76A7.19,7.19,0,0,0,44.4,172.89Z"/><path class="cls-1" d="M28.48,171.2c0,7.54,5.55,10.81,12.4,10.81s12.4-3.26,12.4-10.81c0-6.25,13.52-42.29,8.32-54.46-.07-.17-.95.22-1.19-.24-.66-1.28-.25-4.64-.25-4.64H56.52s-1.08,3.55-1.32,4.05C49.81,127.15,28.48,164.79,28.48,171.2Z"/><path class="cls-1" d="M66.63,97.14a8.42,8.42,0,0,0-16.84,0c0,4.65,3.77,13,8.42,13S66.63,101.79,66.63,97.14Z"/><path class="cls-1" d="M27.64,173l-8.95,31,.18-.4-.88,2-2.29,5.08-3.17,7L9,225.44l-3.36,7.47L3,238.84c-.33.73-.65,1.47-1,2.2a11.34,11.34,0,0,0-.92,2.07c-.35,1.48.79,2,2,2.29a9.86,9.86,0,0,1,3.58,1.91c.72.58,1.82,2.3,2.86,1.36a1.06,1.06,0,0,0,.24-1.25,17.62,17.62,0,0,0-3.86-4.89L26.1,207.2l.18-.4L40,177.65A6.65,6.65,0,0,0,28,172,7.19,7.19,0,0,0,27.64,173Z"/><path class="cls-1" d="M46.89,126.38l18.18,23.55.28.36a3,3,0,0,0,4,.67l24.18-15.85-.46.14,4.83-.76a.84.84,0,0,0-.15-1.67l-4.88.11a.79.79,0,0,0-.31.07l-.15.07-23.3,10.85h0l-13.4-23.43a5.32,5.32,0,0,0-9.23,5.28A5.83,5.83,0,0,0,46.89,126.38Z"/><path class="cls-1" d="M842.87,172.89,828,205v-.44l.08,2.06.21,5.36.3,7.47.33,8.39.32,8.1.26,6.62c0,.92.08,1.83.12,2.75a15,15,0,0,1,.08,2.62,1.78,1.78,0,0,1-.69,1.23,2.7,2.7,0,0,1-2,.15,10.71,10.71,0,0,0-5.83,1.12,1.05,1.05,0,0,1-1.41-.49c-.52-1.07,1-1.91,1.72-2.39a15.6,15.6,0,0,1,3.63-1.77l-5.25-40.51v-.44l9.7-32.18a6.65,6.65,0,0,1,13.27-.76A7.19,7.19,0,0,1,842.87,172.89Z"/><path class="cls-1" d="M858.79,171.2c0,7.54-5.55,10.81-12.4,10.81S834,178.74,834,171.2c0-6.25-13.52-42.29-8.32-54.46.07-.17.95.22,1.19-.24.66-1.28.25-4.64.25-4.64h3.63s1.08,3.55,1.32,4.05C837.47,127.15,858.79,164.79,858.79,171.2Z"/><path class="cls-1" d="M820.65,97.14a8.42,8.42,0,1,1,16.84,0c0,4.65-3.77,13-8.42,13S820.65,101.79,820.65,97.14Z"/><path class="cls-1" d="M859.63,173l8.95,31-.18-.4.88,2,2.29,5.08,3.17,7,3.53,7.84,3.36,7.47,2.67,5.93c.33.73.65,1.47,1,2.2a11.34,11.34,0,0,1,.92,2.07c.35,1.48-.79,2-2,2.29a9.86,9.86,0,0,0-3.58,1.91c-.72.58-1.82,2.3-2.86,1.36a1.06,1.06,0,0,1-.24-1.25,17.62,17.62,0,0,1,3.86-4.89L861.17,207.2l-.18-.4-13.76-29.15a6.65,6.65,0,0,1,12-5.67A7.19,7.19,0,0,1,859.63,173Z"/><path class="cls-1" d="M840.39,126.38,822.2,149.93l-.28.36a3,3,0,0,1-4,.67l-24.18-15.85.46.14-4.83-.76a.84.84,0,0,1,.15-1.67l4.88.11a.79.79,0,0,1,.31.07l.15.07,23.3,10.85h0l13.4-23.43a5.32,5.32,0,0,1,9.23,5.28A5.83,5.83,0,0,1,840.39,126.38Z"/><text class="cls-3" transform="translate(169.29 49.83)"><tspan class="cls-4">A</tspan><tspan x="14.68" y="0" xml:space="preserve"> page receiving very targeted </tspan><tspan x="-8.87" y="28.8">and segmented web tra</tspan><tspan class="cls-5" x="241.96" y="28.8">f</tspan><tspan x="248.19" y="28.8">fic may </tspan><tspan x="34.65" y="57.6">see a bounce rate between</tspan></text><text class="cls-3" transform="translate(177.02 154.69)">While a landing page with one <tspan x="-50.68" y="28.8">call-to-action could see the bounce </tspan><tspan x="100.11" y="57.6">rate climb as high as</tspan></text><text class="cls-6" transform="translate(532.92 87.4)">20<tspan class="cls-4" x="44.49" y="0"> </tspan><tspan x="53.4" y="0">AND 40%</tspan></text><text class="cls-7" transform="translate(532.92 87.4)">20<tspan class="cls-4" x="44.49" y="0"> </tspan><tspan x="53.4" y="0">AND 40%</tspan></text><text class="cls-6" transform="translate(549.28 187.32)">70<tspan class="cls-5" x="44.49" y="0" xml:space="preserve"> T</tspan><tspan x="78.59" y="0">O 90%</tspan></text><text class="cls-7" transform="translate(549.28 187.32)">70<tspan class="cls-5" x="44.49" y="0" xml:space="preserve"> T</tspan><tspan x="78.59" y="0">O 90%</tspan></text><path class="cls-8" d="M495.45,115.47h5.15c4.4,0,5.58-2.9,5.58-11.06V87.57c0-14.38,6.12-16.53,7.51-17.93-1.4-.86-7.51-3-7.51-17.39V35.4c0-8.16-1.18-11.06-5.58-11.06h-5.15V20.8h5.37c6,0,9.45,2.9,9.45,12.67V50.53c0,8.69,1.4,17.07,7.73,17.39V72c-6.33.32-7.73,8.69-7.73,17.39v17c0,9.77-3.44,12.67-9.45,12.67h-5.37Z"/><path class="cls-8" d="M495.45,222.89h5.15c4.4,0,5.58-2.9,5.58-11.06V195c0-14.38,6.12-16.53,7.51-17.93-1.4-.86-7.51-3-7.51-17.39V142.81c0-8.16-1.18-11.06-5.58-11.06h-5.15v-3.54h5.37c6,0,9.45,2.9,9.45,12.67v17.07c0,8.69,1.4,17.07,7.73,17.39v4.08c-6.33.32-7.73,8.69-7.73,17.39v17c0,9.77-3.44,12.67-9.45,12.67h-5.37Z"/><polygon class="cls-1" points="55.96 162.09 32.75 159.58 25.35 177.09 17.99 205.48 2.97 238.84 9.35 240.84 28.48 208.56 40.67 185.59 45.78 185.59 57.16 204.84 57.75 242.51 64.1 242.51 69.6 204.09 55.96 162.09"/><polygon class="cls-1" points="831.7 162.09 854.9 159.58 862.31 177.09 869.66 205.48 884.69 238.84 878.31 240.84 859.17 208.56 846.98 185.59 841.88 185.59 830.49 204.84 829.91 242.51 823.56 242.51 818.06 204.09 831.7 162.09"/></g></g></svg>