<svg xmlns="http://www.w3.org/2000/svg" viewBox="0 0 450.87 193.5"><defs><style>.cls-1,.cls-2,.cls-3,.cls-5,.cls-8{fill:#fff;}.cls-1,.cls-3,.cls-7,.cls-8{stroke:#0080b1;}.cls-1,.cls-2,.cls-7,.cls-8,.cls-9{stroke-miterlimit:10;}.cls-1,.cls-2,.cls-3,.cls-9{stroke-width:2px;}.cls-2{stroke:#bf3019;}.cls-3{stroke-linecap:round;stroke-linejoin:round;}.cls-4{font-size:13.04px;fill:#767676;font-family:MuseoSans-900, MuseoSans 900;}.cls-6{fill:#0080b1;}.cls-7{fill:none;stroke-width:4px;}.cls-9{fill:#ffb600;stroke:#fff;}</style></defs><title>action2</title><g id="Layer_2" data-name="Layer 2"><g id="texts"><rect class="cls-1" x="1" y="3.5" width="133.75" height="140" rx="3" ry="3"/><circle class="cls-1" cx="14.75" cy="14.75" r="3.75"/><circle class="cls-1" cx="27.25" cy="14.75" r="3.75"/><circle class="cls-1" cx="39.75" cy="14.75" r="3.75"/><line class="cls-1" x1="1" y1="23.5" x2="134.75" y2="23.5"/><line class="cls-2" x1="228.53" y1="133.5" x2="228.53" y2="193.5"/><circle class="cls-2" cx="228.53" cy="161.99" r="21.51"/><polygon class="cls-2" points="240.47 155.32 235.2 150.06 228.53 156.73 221.86 150.06 216.6 155.32 223.27 161.99 216.6 168.66 221.86 173.92 228.53 167.25 235.2 173.92 240.47 168.66 233.79 161.99 240.47 155.32"/><rect class="cls-1" x="304.87" y="1" width="95" height="115" rx="3" ry="3"/><rect class="cls-3" x="314.87" y="8.5" width="75" height="90" rx="2" ry="2"/><rect class="cls-1" x="404.87" y="36" width="45" height="80" rx="3" ry="3"/><rect class="cls-3" x="409.87" y="41" width="35" height="62.5" rx="2" ry="2"/><rect class="cls-1" x="214.88" y="56" width="85" height="60" rx="3" ry="3"/><rect class="cls-3" x="219.87" y="61" width="67.5" height="50" rx="2" ry="2"/><rect class="cls-3" x="1" y="23.5" width="133.88" height="120" rx="3" ry="3"/><rect class="cls-1" x="9.88" y="98.59" width="45" height="35"/><rect class="cls-1" x="61.63" y="98.59" width="30.75" height="35"/><rect class="cls-1" x="9.88" y="43.59" width="40" height="10"/><rect class="cls-1" x="99.88" y="61.09" width="25" height="62.5"/><rect class="cls-1" x="99.88" y="128.59" width="25" height="5"/><rect class="cls-1" x="99.88" y="43.59" width="25" height="10"/><text class="cls-4" transform="translate(412.95 61.14)">BUY</text><path class="cls-5" d="M420.06,91.61c-2.28,0-3.9-1.8-5-5.49-.07-.26-.14-.51-.2-.75a13.5,13.5,0,0,1-.3-1.61,7.66,7.66,0,0,1,0-2,4.57,4.57,0,0,1,.45-1.46c1.12-2.15,3.68-2.31,5.55-2.42a9.67,9.67,0,0,0,1.87-.22,2.11,2.11,0,0,1,.59-.08c2.41,0,4.07,4,4.49,6.92.37,2.6-.24,4.33-1.68,4.75a9.61,9.61,0,0,0-1.71.84,8.77,8.77,0,0,1-4.12,1.49Z"/><path class="cls-6" d="M423.08,78.6c2.57,0,5.09,9,2.52,9.71-1.51.44-3.59,2.29-5.55,2.29-1.51,0-2.94-1.09-4-4.76-.07-.25-.13-.48-.19-.71a12.28,12.28,0,0,1-.27-1.49,6.62,6.62,0,0,1,0-1.7,3.56,3.56,0,0,1,.35-1.14c1.23-2.36,4.95-1.6,6.82-2.15a1.11,1.11,0,0,1,.31,0m-4.33,9.26a.33.33,0,0,0,.17-.05l.57-.35a.55.55,0,0,0,.23-.58l-1-3.57a.55.55,0,0,0-.5-.37h-.67a.28.28,0,0,0-.28.38l1.24,4.32a.28.28,0,0,0,.27.22m4.33-11.26a3.09,3.09,0,0,0-.87.13,9.59,9.59,0,0,1-1.65.18c-2,.12-5,.31-6.38,3a5.58,5.58,0,0,0-.56,1.78,8.66,8.66,0,0,0,0,2.22,14.47,14.47,0,0,0,.32,1.73c.06.25.13.52.21.79,1.18,4.12,3.18,6.21,5.92,6.21A9.67,9.67,0,0,0,424.67,91a9.53,9.53,0,0,1,1.5-.75c.93-.27,3-1.39,2.39-5.85-.45-3.13-2.28-7.78-5.48-7.78Z"/><path class="cls-5" d="M427.2,85.45a1,1,0,0,1-1-.72l-1-3.35a1,1,0,0,1,.66-1.23l5.38-1.66a1,1,0,0,1,.3,0,1,1,0,0,1,.29,0l.46.14.63-.48a1,1,0,0,1,.87-.17l.74.2,1.32-.82a1,1,0,0,1,.91-.08l1.75.71a1,1,0,0,1,.59.67l.29,1.09a1,1,0,0,1-.15.84l-1.06,1.5a1,1,0,0,1-.82.42l-1.58,0-.5.57a1,1,0,0,1-.75.34l-.87-.05-.17.26a1,1,0,0,1-.6.43l-5.51,1.4A1,1,0,0,1,427.2,85.45Z"/><path class="cls-6" d="M436.44,78.19l1.75.71.29,1.09-1.06,1.51-2,0-.81.93-1.4-.09-.48.76-5.51,1.4-1-3.35,5.38-1.66,1,.29,1-.8,1.16.32,1.69-1.05m0-2a2,2,0,0,0-1.06.3l-.95.59-.31-.09a2,2,0,0,0-1.75.35l-.22.17a2,2,0,0,0-1.14,0l-5.38,1.66a2,2,0,0,0-1.33,2.47l1,3.35a2,2,0,0,0,2.41,1.38L433.2,85a2,2,0,0,0,1-.63l.24,0h.13a2,2,0,0,0,1.51-.69l.19-.22,1.09,0h0a2,2,0,0,0,1.64-.85l1.06-1.51a2,2,0,0,0,.29-1.67l-.29-1.09A2,2,0,0,0,438.94,77l-1.75-.71a2,2,0,0,0-.75-.15Z"/><line class="cls-7" x1="151.05" y1="81" x2="195.07" y2="81"/><path class="cls-6" d="M167.73,100.2a2,2,0,0,1,.62-2.76L194.15,81,168.34,64.56a2,2,0,1,1,2.15-3.37l28.46,18.13a2,2,0,0,1,0,3.38l-28.46,18.13a2,2,0,0,1-2.77-.61Z"/><circle class="cls-1" cx="352.38" cy="106" r="5"/><rect class="cls-1" x="409.88" y="106" width="10" height="5"/><rect class="cls-1" x="422.38" y="106" width="10" height="5"/><rect class="cls-1" x="434.88" y="106" width="10" height="5"/><circle class="cls-1" cx="292.38" cy="86" r="2.5"/><path class="cls-5" d="M230.71,90a1,1,0,0,1-.26,0,2.13,2.13,0,0,1-1.57-2V87.9a2.14,2.14,0,0,1,1.35-2.07,1,1,0,0,1,1.38.92c0,.76,0,1.52.11,2.18a1,1,0,0,1-1,1.1Z"/><path class="cls-6" d="M230.59,86.76c0,.73,0,1.53.11,2.27a1.13,1.13,0,0,1-.83-1v-.13a1.15,1.15,0,0,1,.73-1.1m0-2a2,2,0,0,0-.75.15,3.15,3.15,0,0,0-2,3v.13A3.12,3.12,0,0,0,230.19,91a2,2,0,0,0,2.51-2.12c-.06-.64-.1-1.36-.1-2.09a2,2,0,0,0-2-2Z"/><path class="cls-5" d="M231,92.5c-.46,0-.87-.5-1-1-.46-2-1-5.47.38-6.52,10.38-7.72,17.93-9.38,22.45-9.38a17.33,17.33,0,0,1,3.33.3h.12c3.24.61,8.1,4.56,9.34,5.6,10.56.06,12.67,2.76,13.18,5.23a.9.9,0,0,1,.08.44v3.9c0,.55-.38,1.37-.93,1.37Z"/><path class="cls-6" d="M252.81,76.6a15.85,15.85,0,0,1,3.28.33c3.44.64,9.15,5.76,9.15,5.76,11.28,0,12.37,2.82,12.65,4.82h0v4H231s-1.09-4.77,0-5.58c10.49-7.8,17.84-9.33,21.85-9.33m0-2h0c-4.67,0-12.45,1.65-23,9.54-.53.39-2.14,1.78-.75,7.64A2.18,2.18,0,0,0,231,93.5h47c1.1,0,1.93-1.26,1.93-2.37v-3.9a2,2,0,0,0-.14-.82c-.94-3.93-5.22-5.76-13.77-5.85-1.66-1.38-6.22-5-9.51-5.59l-.11,0a17.57,17.57,0,0,0-3.52-.34Z"/><path class="cls-5" d="M230.47,92.5a2,2,0,0,1-1.6-1.8v-.61a1.79,1.79,0,0,1,1.6-1.59h47.38c.81,0,1,.88,1,1.59v.61c0,.79-.3,1.8-1,1.8Z"/><path class="cls-6" d="M277.85,89.5c.16,0,0,.36,0,.59v.62c0,.23.14.8,0,.8H230.47c-.16,0-.6-.56-.6-.8v-.62c0-.23.44-.59.6-.59h47.4m0-2H230.47a2.8,2.8,0,0,0-2.6,2.59v.62a3,3,0,0,0,2.6,2.8h47.38c1.27,0,2-1.46,2-2.8v-.62c0-1.37-.75-2.59-2-2.59Z"/><path class="cls-5" d="M241.52,81.5a16.55,16.55,0,0,1,4.59-1.83,23.82,23.82,0,0,1,7.27-1.15l.48,0a10,10,0,0,1,5.68,2c.44.31.87.93,1.3.93Z"/><path class="cls-6" d="M253.38,79.48v0c.15,0,.31-.06.46-.06a5.8,5.8,0,0,1,3.84,1H246.54a16.56,16.56,0,0,1,6.84-1m0-1.91a24.94,24.94,0,0,0-7.57,1.24,30.66,30.66,0,0,0-5.72,2.5c-.54.31-1.08.54-1.6.89a1.84,1.84,0,0,1-.56.3h25.4a23.46,23.46,0,0,0-3.21-2.74,11.06,11.06,0,0,0-6.23-2.23c-.17,0-.34,0-.51,0Z"/><rect class="cls-5" x="249.88" y="78.5" width="2" height="4"/><polygon class="cls-6" points="251.88 78.5 249.88 78.5 249.88 82.5 251.88 82.5 251.88 78.5 251.88 78.5"/><circle class="cls-5" cx="269.21" cy="91.39" r="4.38"/><path class="cls-6" d="M269.21,88a3.38,3.38,0,1,1-3.39,3.38A3.38,3.38,0,0,1,269.21,88m0-2a5.38,5.38,0,1,0,5.38,5.38A5.39,5.39,0,0,0,269.21,86Z"/><circle class="cls-5" cx="238.26" cy="91.39" r="4.38"/><path class="cls-6" d="M238.26,88a3.38,3.38,0,1,1-3.39,3.38A3.38,3.38,0,0,1,238.26,88m0-2a5.38,5.38,0,1,0,5.38,5.38A5.39,5.39,0,0,0,238.26,86Z"/><rect class="cls-5" x="251.88" y="83.5" width="4" height="2" rx="0.58" ry="0.58"/><path class="cls-6" d="M255,83.5h-3c-.32,0-.2.52-.2.84v.35c0,.32-.12.81.2.81h3a1.09,1.09,0,0,0,.85-.81v-.35a1.13,1.13,0,0,0-.85-.84Z"/><path class="cls-5" d="M277.81,89.64a1.81,1.81,0,0,1-1.29-.6,3.26,3.26,0,0,1-1.29-2.09,1.91,1.91,0,0,1,1.78-2.2h.1a.93.93,0,0,1,.75.38,4.22,4.22,0,0,1,1,2.42v1.11a1,1,0,0,1-.31.75,1,1,0,0,1-.64.25Z"/><path class="cls-6" d="M277.08,85.74a3.18,3.18,0,0,1,.79,1.8v1.11c-1-.08-.53-.23-.8-.43-.81-.63-1.12-1.58-.7-2.12a1,1,0,0,1,.71-.35m0-2h-.19a3,3,0,0,0-2.09,1.11c-1.1,1.41-.67,3.54,1,4.88a2.82,2.82,0,0,0,1.87.89l.26,0a1.91,1.91,0,0,0,1.28-.5,2,2,0,0,0,.65-1.5V87.54a5.19,5.19,0,0,0-1.22-3,1.93,1.93,0,0,0-1.54-.76Z"/><path class="cls-1" d="M340.56,43.5h7.61c13.46,0,16,5.77,21.14,9.12,3.67,2.38,6.71,2,8.69,2.5a7.69,7.69,0,0,1,5.24,3.73c.74,1.43,1.09,5.11,1.09,6.73a2.66,2.66,0,0,1-2.45,2.92H325.33c-1.2,0-1.8-1.92-1.9-3.11a24.22,24.22,0,0,1,0-6.46C324.79,52.68,329.75,43.5,340.56,43.5Z"/><circle class="cls-1" cx="336.29" cy="67.74" r="6.38"/><circle class="cls-5" cx="336.29" cy="67.74" r="1.59"/><path class="cls-6" d="M336.29,67.15a.59.59,0,1,1-.59.59.59.59,0,0,1,.59-.59m0-2a2.59,2.59,0,1,0,2.59,2.59,2.59,2.59,0,0,0-2.59-2.59Z"/><circle class="cls-1" cx="370.57" cy="67.74" r="6.38"/><circle class="cls-5" cx="370.57" cy="67.76" r="1.59"/><path class="cls-6" d="M370.57,67.17a.59.59,0,1,1-.59.59.59.59,0,0,1,.59-.59m0-2a2.59,2.59,0,1,0,2.59,2.59,2.59,2.59,0,0,0-2.59-2.59Z"/><path class="cls-5" d="M322.6,59.11c-.59.21-1.72.77-1.72,1.43v.17c0,.68.78,1.24,1.39,1.44C322.21,61.15,322.56,60.08,322.6,59.11Z"/><path class="cls-6" d="M380.69,56.67a1.57,1.57,0,0,0-.62,2.13l.62,1.13a1.57,1.57,0,0,0,2.13.62l.16-.09a1.55,1.55,0,0,0,.68-.76,6.11,6.11,0,0,0-.42-1.14,7.68,7.68,0,0,0-1.69-2.16,1.55,1.55,0,0,0-.71.19Z"/><path class="cls-5" d="M353.22,53.1v-6.4a1,1,0,0,1,1.29-1,19,19,0,0,1,10.74,7.4Z"/><path class="cls-6" d="M354.24,46.67a18.69,18.69,0,0,1,9,5.43h-9l0-5.43m0-2a2,2,0,0,0-2,2v7.4H367c-3.16-6-8.91-8.44-12.23-9.36a2,2,0,0,0-.54-.07Z"/><rect class="cls-5" x="340.88" y="45.5" width="8" height="8"/><path class="cls-6" d="M347.88,46.5v6h-6v-6h6m2-2h-10v10h10v-10Z"/><path class="cls-5" d="M328.61,53.1a4.33,4.33,0,0,1,.69-1.69c1.38-2.33,4.31-5.19,6.81-6V53.1Z"/><path class="cls-6" d="M335.11,47V52.1H330A15.89,15.89,0,0,1,335.11,47m1.3-2.64-.16,0c-4.94,1.21-11.14,9.77-7.58,9.77h8.45V45a.72.72,0,0,0-.7-.72Z"/><rect class="cls-5" x="351.88" y="56.5" width="4" height="1" rx="0.4" ry="0.4"/><rect class="cls-5" x="339.88" y="56.5" width="4" height="1" rx="0.4" ry="0.4"/><path class="cls-6" d="M368.88,53.6c0-.35-1.31-1.1-1.66-1.1h-4.15c-.34,0-1.2.75-1.2,1.1V55c0,.35.85,1.46,1.2,1.46h4.15c.34,0,1.66-1.12,1.66-1.46Z"/><path class="cls-1" d="M37.56,61.5h7.61c13.46,0,16,5.77,21.14,9.12C70,73,73,72.64,75,73.13a7.69,7.69,0,0,1,5.24,3.73c.74,1.43,1.09,5.11,1.09,6.73a2.66,2.66,0,0,1-2.45,2.92H22.33c-1.2,0-1.8-1.92-1.9-3.11a24.22,24.22,0,0,1,0-6.46C21.79,70.68,26.75,61.5,37.56,61.5Z"/><circle class="cls-1" cx="33.29" cy="85.74" r="6.38"/><circle class="cls-5" cx="33.29" cy="85.74" r="1.59"/><path class="cls-6" d="M33.29,85.15a.59.59,0,1,1-.59.59.59.59,0,0,1,.59-.59m0-2a2.59,2.59,0,1,0,2.59,2.59,2.59,2.59,0,0,0-2.59-2.59Z"/><circle class="cls-1" cx="67.57" cy="85.74" r="6.38"/><circle class="cls-5" cx="67.57" cy="85.76" r="1.59"/><path class="cls-6" d="M67.57,85.17a.59.59,0,1,1-.59.59.59.59,0,0,1,.59-.59m0-2a2.59,2.59,0,1,0,2.59,2.59,2.59,2.59,0,0,0-2.59-2.59Z"/><path class="cls-5" d="M19.6,77.11c-.59.21-1.72.77-1.72,1.43v.17c0,.68.78,1.24,1.39,1.44C19.21,79.15,19.56,78.08,19.6,77.11Z"/><path class="cls-8" d="M77.69,74.67a1.57,1.57,0,0,0-.62,2.13l.62,1.13a1.57,1.57,0,0,0,2.13.62l.16-.09a1.55,1.55,0,0,0,.68-.76,6.11,6.11,0,0,0-.42-1.14,7.68,7.68,0,0,0-1.69-2.16,1.55,1.55,0,0,0-.71.19Z"/><path class="cls-5" d="M50.22,71.1v-6.4a1,1,0,0,1,1.29-1,19,19,0,0,1,10.74,7.4Z"/><path class="cls-6" d="M51.24,64.67a18.69,18.69,0,0,1,9,5.43h-9l0-5.43m0-2a2,2,0,0,0-2,2v7.4H64c-3.16-6-8.91-8.44-12.23-9.36a2,2,0,0,0-.54-.07Z"/><rect class="cls-5" x="37.88" y="63.5" width="8" height="8"/><path class="cls-6" d="M44.88,64.5v6h-6v-6h6m2-2h-10v10h10v-10Z"/><path class="cls-5" d="M25.61,71.1a4.33,4.33,0,0,1,.69-1.69c1.38-2.33,4.31-5.19,6.81-6V71.1Z"/><path class="cls-6" d="M32.11,65V70.1H27A15.89,15.89,0,0,1,32.11,65m1.3-2.64-.16,0C28.3,63.55,22.1,72.1,25.66,72.1h8.45V63a.72.72,0,0,0-.7-.72Z"/><rect class="cls-5" x="48.88" y="74.5" width="4" height="1" rx="0.4" ry="0.4"/><rect class="cls-5" x="36.88" y="74.5" width="4" height="1" rx="0.4" ry="0.4"/><path class="cls-5" d="M60.2,74.5c-.17-1-.33-1.27-.33-1.46V71.6c0-.08.11-.1.2-.1h4.14c.18,0,.66.06.66.2V73c0,.2-.47.46-.72,1.46Z"/><path class="cls-6" d="M64.19,71.5a2.25,2.25,0,0,1,.69.49v.9c0,.21-.71.62-.9.62H60.49c-.1,0-.62-.36-.62-.46V71.5h4m.34-1H60.07c-.34,0-1.2.75-1.2,1.1V73c0,.35.85,1.46,1.2,1.46h4.15c.34,0,1.66-1.12,1.66-1.46V71.6c0-.35-1.31-1.1-1.66-1.1Z"/><rect class="cls-9" x="322.38" y="16" width="35" height="10"/></g></g></svg>