<svg xmlns="http://www.w3.org/2000/svg" viewBox="0 0 384.75 190.5"><defs><style>.cls-1,.cls-2,.cls-3,.cls-4,.cls-7{fill:#fff;}.cls-1,.cls-10,.cls-2{stroke:#0080b1;}.cls-1,.cls-10,.cls-7{stroke-miterlimit:10;}.cls-1,.cls-2,.cls-3,.cls-7{stroke-width:2px;}.cls-2,.cls-3{stroke-linecap:round;stroke-linejoin:round;}.cls-3{stroke:#fff;}.cls-5{fill:#0080b1;}.cls-6,.cls-8,.cls-9{fill:#767676;}.cls-7{stroke:#bf3019;}.cls-8,.cls-9{font-size:12px;}.cls-8{font-family:HelveticaNeue-Bold, HelveticaNeue Bold;font-weight:700;}.cls-9{font-family:ArialMT, Arial;}.cls-10{fill:none;stroke-width:4px;}</style></defs><title>action1</title><g id="Layer_2" data-name="Layer 2"><g id="texts"><rect class="cls-1" x="1" y="1" width="133.75" height="140" rx="3" ry="3"/><circle class="cls-1" cx="14.75" cy="12.25" r="3.75"/><circle class="cls-1" cx="27.25" cy="12.25" r="3.75"/><circle class="cls-1" cx="39.75" cy="12.25" r="3.75"/><line class="cls-1" x1="1" y1="21" x2="134.75" y2="21"/><rect class="cls-2" x="14.75" y="31" width="105" height="97.5"/><line class="cls-3" x1="44.75" y1="116" x2="107.25" y2="116"/><rect class="cls-3" x="22.25" y="38.5" width="52.5" height="15"/><path class="cls-4" d="M24.78,91.79a1,1,0,0,1-.26,0,3.06,3.06,0,0,1-2.26-2.82V88.7a3.09,3.09,0,0,1,2-3,1,1,0,0,1,.37-.07,1,1,0,0,1,1,1c0,1.42.08,2.83.2,4.06a1,1,0,0,1-1,1.1Z"/><path class="cls-5" d="M24.57,86.64c0,1.33.07,2.79.21,4.15a2.06,2.06,0,0,1-1.52-1.9v-.24a2.1,2.1,0,0,1,1.33-2m0-2a2,2,0,0,0-.75.15,4.09,4.09,0,0,0-2.58,4V89a4.06,4.06,0,0,0,3,3.74,2,2,0,0,0,2.51-2.12c-.12-1.21-.19-2.59-.2-4a2,2,0,0,0-2-2Z"/><path class="cls-4" d="M25.24,95.5a.94.94,0,0,1-1-.7c-.5-2.12-2-9.12.38-10.86C43.44,70,57.07,67.05,65.2,67.05a29.57,29.57,0,0,1,5.94.58l.23,0c6,1.12,15.15,8.75,16.92,10.26,19.17.06,22.91,4.78,23.74,9a1,1,0,0,1,.22.52v7.14c0,.55-.56.86-1.11.86Z"/><path class="cls-5" d="M65.2,68.07a29,29,0,0,1,6,.6c6.28,1.18,16.73,10.27,16.73,10.27,20.63,0,22.62,5.55,23.14,8.55h.2v7h-86s-2-8.31,0-9.79c19.18-14.27,32.62-16.64,40-16.64m0-2c-8.28,0-22.14,3-41.14,17.11C21.54,85,22.25,90.63,23.3,95a1.94,1.94,0,0,0,1.95,1.47h85.89a2,2,0,0,0,2.11-1.86V87.5a2,2,0,0,0-.29-.94c-1-4.55-5-9.49-24.28-9.62-2.34-2-11.19-9.13-17.11-10.24l-.23,0a30.77,30.77,0,0,0-6.14-.59Z"/><path class="cls-4" d="M24.35,95.5c-.82,0-2.1-.65-2.1-1.64V92.74a2.67,2.67,0,0,1,2.1-2.24H111c.93,0,1.27,1.33,1.27,2.24v1.12c0,1-.41,1.64-1.27,1.64Z"/><path class="cls-5" d="M111,91.5c.29,0,.27.81.27,1.24v1.12c0,.42,0,.64-.27.64H24.35c-.29,0-1.1-.22-1.1-.64V92.74a1.93,1.93,0,0,1,1.1-1.24h86.9m-.27-2H24.35a3.62,3.62,0,0,0-3.1,3.24v1.12c0,1.59,1.77,2.64,3.1,2.64H111c1.41,0,2.27-1.11,2.27-2.64V92.74c0-1.38-.69-3.24-2.27-3.24Z"/><path class="cls-4" d="M41.35,78.5c.34-1,.7-.57,1.06-.78a55.36,55.36,0,0,1,10.27-4.58,44.58,44.58,0,0,1,13.54-2.26c.3,0,.61,0,.91,0C70.77,71,74.32,72.41,78,75c1.38,1,2.71,1.5,4,3.5Z"/><path class="cls-5" d="M66.25,69.5v2.35h.87c3.44.08,6.8,1.48,10.28,3.95a5.61,5.61,0,0,1,2,1.69H45.26c2.51-2,5.1-2.48,7.73-3.32a43.77,43.77,0,0,1,13.25-2.25V69.85m0,0a45.6,45.6,0,0,0-13.85,2.26,56.07,56.07,0,0,0-10.45,4.58c-1,.56-2,1.31-2.92,1.94-.19.13-.78.87-1,.87H84.42a35.49,35.49,0,0,0-5.87-5.33,20.41,20.41,0,0,0-11.4-4.23c-.31,0-.62-.09-.93-.09Z"/><rect class="cls-4" x="60.25" y="71.5" width="2" height="7"/><polygon class="cls-5" points="63.25 70.5 59.25 70.5 59.25 79.5 63.25 79.5 63.25 70.5 63.25 70.5"/><circle class="cls-4" cx="95.18" cy="95.11" r="7.19"/><path class="cls-5" d="M95.18,88.93A6.19,6.19,0,1,1,89,95.11a6.19,6.19,0,0,1,6.19-6.19m0-2a8.19,8.19,0,1,0,8.19,8.19,8.2,8.2,0,0,0-8.19-8.19Z"/><circle class="cls-4" cx="38.58" cy="95.11" r="7.19"/><path class="cls-5" d="M38.58,88.93a6.19,6.19,0,1,1-6.19,6.19,6.19,6.19,0,0,1,6.19-6.19m0-2a8.19,8.19,0,1,0,8.19,8.19,8.2,8.2,0,0,0-8.19-8.19Z"/><polygon class="cls-4" points="63.84 82.5 63.77 82.01 69.24 82.05 69.31 82.59 69.24 82.5 63.84 82.5"/><path class="cls-5" d="M69.24,81.5h-5.4c-.59,0-.59.14-.59.73v.64c0,.59,0,.63.59.63h5.4c.59,0,1,0,1-.63v-.64c0-.59-.42-.73-1-.73Z"/><path class="cls-4" d="M111,91.09a2.54,2.54,0,0,1-1.84-.83,1.29,1.29,0,0,0-.17-.17,5.37,5.37,0,0,1-1.82-2.48,3,3,0,0,1,.37-2.81,2.81,2.81,0,0,1,2-1h.1a1.11,1.11,0,0,1,.84.38,7,7,0,0,1,1.78,3.91v2a1.06,1.06,0,0,1-.4.75,1.07,1.07,0,0,1-.69.25Z"/><path class="cls-5" d="M109.69,84.78a6.13,6.13,0,0,1,1.56,3.29v2a2.45,2.45,0,0,1-1.58-.79c-1.48-1.16-2.05-2.89-1.28-3.88a1.81,1.81,0,0,1,1.29-.64m-.05-2h-.19a3.81,3.81,0,0,0-2.68,1.4,4,4,0,0,0-.53,3.74,6.38,6.38,0,0,0,2.15,3l0,0a3.55,3.55,0,0,0,2.45,1.15l.26,0a2.15,2.15,0,0,0,1.37-.5,2.06,2.06,0,0,0,.74-1.5v-2a8,8,0,0,0-2-4.53,2.11,2.11,0,0,0-1.63-.76Z"/><path class="cls-6" d="M145,133.36a10.29,10.29,0,0,1-2.87,12.31,65.7,65.7,0,0,1-7.19,5.2c-4,2.53-8.32,2.33-12.59.53a17.37,17.37,0,0,1-7.25-5.72c-2.39-3.22-4.72-6.5-7.07-9.75a2.71,2.71,0,0,1-.23-.37,7,7,0,0,1,5.73-2.08c-.7-1.05-1.28-2-1.92-2.9s-1.57-2-2.33-3.07q-3-4.15-6-8.32a3.8,3.8,0,0,1-.28-4.36,3.7,3.7,0,0,1,3.6-2,3.79,3.79,0,0,1,3,1.66l4.77,6.6c1.55-1.43,3-3,5.23-2.13a29.19,29.19,0,0,1,3-2.29,2.91,2.91,0,0,1,3.3.24c.77-.64,1.46-1.28,2.21-1.83a3.15,3.15,0,0,1,4.52.65q5,6.86,10,13.77A24.49,24.49,0,0,1,145,133.36Zm-3.88,9.81a8,8,0,0,0,.64-10.41q-5-7-10.05-13.89l-1-1.38a.9.9,0,0,0-1.4-.24c-.23.17-.46.33-.67.52a.91.91,0,0,0-.13,1.41c.65.84,1.25,1.7,1.86,2.56a1.62,1.62,0,1,1-2.61,1.87c-1-1.36-1.92-2.75-2.92-4.08a1.46,1.46,0,0,0-1-.63,1.53,1.53,0,0,0-1.24,2.46c1,1.3,1.93,2.59,2.87,3.9l.06.08a1.51,1.51,0,0,1-.31,2.29,1.49,1.49,0,0,1-2.23-.36q-1.86-2.55-3.64-5.14c-.59-.87-1-1-1.88-.35l-.31.23c-.73.53-.8,1-.28,1.67,1.25,1.69,2.51,3.37,3.75,5.07a1.6,1.6,0,1,1-2.59,1.85c-1.84-2.53-3.67-5.08-5.51-7.62l-4.94-6.82a1.4,1.4,0,1,0-2.24,1.63l8,11q3.76,5.19,7.5,10.4a1.62,1.62,0,1,1-2.59,1.9c-.9-1.23-1.77-2.48-2.68-3.69a3.49,3.49,0,0,0-4.09-1.19c2.22,3.07,4.3,6.2,6.65,9.12a13.31,13.31,0,0,0,7.18,4.44,10.25,10.25,0,0,0,9.22-1.7c1.76-1.34,3.58-2.6,5.37-3.91A8,8,0,0,0,141.15,143.17Z"/><path class="cls-4" d="M141.79,132.76a8,8,0,0,1-1.82,11.4c-1.79,1.31-3.61,2.57-5.37,3.91a10.25,10.25,0,0,1-9.22,1.7,13.31,13.31,0,0,1-7.18-4.44c-2.35-2.92-4.43-6.05-6.65-9.12a3.49,3.49,0,0,1,4.09,1.19c.91,1.21,1.78,2.46,2.68,3.69a1.62,1.62,0,1,0,2.59-1.9q-3.74-5.2-7.5-10.4l-8-11a1.4,1.4,0,1,1,2.24-1.63l4.94,6.82c1.84,2.54,3.67,5.09,5.51,7.62a1.6,1.6,0,1,0,2.59-1.85l2.36-1.48a1.49,1.49,0,0,0,2.23.36,1.51,1.51,0,0,0,.31-2.29l-.06-.08,2.24-1.65a1.62,1.62,0,1,0,2.61-1.87c-.61-.86-1.21-1.72-1.86-2.56a.91.91,0,0,1,.13-1.41c.21-.19.44-.35.67-.52a.9.9,0,0,1,1.4.24l1,1.38Q136.77,125.82,141.79,132.76Z"/><path class="cls-4" d="M127.79,123.61l-2.24,1.65c-.94-1.31-1.92-2.6-2.87-3.9a1.53,1.53,0,0,1,1.24-2.46,1.46,1.46,0,0,1,1,.63C125.87,120.86,126.81,122.25,127.79,123.61Z"/><path class="cls-4" d="M123.07,127.27l-2.36,1.48c-1.24-1.7-2.5-3.38-3.75-5.07-.52-.7-.45-1.14.28-1.67l.31-.23c.87-.63,1.29-.52,1.88.35Q121.22,124.73,123.07,127.27Z"/><path class="cls-6" d="M121.58,105.78a1.62,1.62,0,0,1-.32,2.33c-1.17.89-2.37,1.72-3.55,2.58s-2.16,1.58-3.25,2.35a1.69,1.69,0,1,1-2-2.71q3.38-2.49,6.8-4.92A1.66,1.66,0,0,1,121.58,105.78Z"/><path class="cls-6" d="M109.34,98.26a1.71,1.71,0,0,1,1.4,2.18c-.42,2.66-.83,5.33-1.29,8a4.62,4.62,0,0,1-.5,1.14,1.83,1.83,0,0,1-2.06.18,1.6,1.6,0,0,1-.79-1.71c.15-1.15.36-2.29.54-3.43.25-1.57.49-3.14.76-4.72A1.7,1.7,0,0,1,109.34,98.26Z"/><path class="cls-6" d="M102.65,108.69a1.75,1.75,0,0,1-.3,2.53,1.71,1.71,0,0,1-2.47-.58c-.81-1.09-1.6-2.2-2.4-3.31l-2.35-3.24a1.7,1.7,0,1,1,2.73-2Q100.26,105.37,102.65,108.69Z"/><path class="cls-6" d="M100.79,120.8a1.67,1.67,0,0,1-.49,2.48c-1.11.84-2.25,1.64-3.37,2.45s-2.17,1.58-3.26,2.35a1.69,1.69,0,1,1-2-2.73q3.3-2.43,6.63-4.8A1.68,1.68,0,0,1,100.79,120.8Z"/><path class="cls-6" d="M99.57,115.09a1.75,1.75,0,0,1-.83,1.86,4.36,4.36,0,0,1-1.19.12c-2.72-.4-5.43-.85-8.15-1.3a1.68,1.68,0,0,1-1.51-2,1.66,1.66,0,0,1,2-1.39c2.74.43,5.48.88,8.22,1.32A1.63,1.63,0,0,1,99.57,115.09Z"/><path class="cls-6" d="M381.7,71a10.29,10.29,0,0,1-2.87,12.31,65.7,65.7,0,0,1-7.19,5.2c-4,2.53-8.32,2.33-12.59.53a17.37,17.37,0,0,1-7.25-5.72c-2.39-3.22-4.72-6.5-7.07-9.75a2.71,2.71,0,0,1-.23-.37,7,7,0,0,1,5.73-2.08c-.7-1.05-1.28-2-1.92-2.9s-1.57-2-2.33-3.07q-3-4.16-6-8.32a3.8,3.8,0,0,1-.28-4.36,3.7,3.7,0,0,1,3.6-1.95,3.79,3.79,0,0,1,3,1.66l4.77,6.6c1.55-1.43,3-3,5.23-2.13a29.19,29.19,0,0,1,3-2.29,2.91,2.91,0,0,1,3.3.24c.77-.64,1.46-1.28,2.21-1.83a3.15,3.15,0,0,1,4.52.65q5,6.86,10,13.77A24.49,24.49,0,0,1,381.7,71Zm-3.88,9.81a8,8,0,0,0,.64-10.41q-5-7-10.05-13.89l-1-1.38a.9.9,0,0,0-1.4-.24c-.23.17-.46.33-.67.52a.91.91,0,0,0-.13,1.41c.65.84,1.25,1.7,1.86,2.56a1.62,1.62,0,1,1-2.61,1.87c-1-1.36-1.92-2.75-2.92-4.08a1.46,1.46,0,0,0-.95-.63A1.53,1.53,0,0,0,359.35,59c.95,1.3,1.93,2.59,2.87,3.9l.06.08a1.51,1.51,0,0,1-.31,2.29,1.49,1.49,0,0,1-2.23-.36q-1.86-2.55-3.64-5.14c-.59-.87-1-1-1.88-.35l-.31.23c-.73.53-.8,1-.28,1.67,1.25,1.69,2.51,3.37,3.75,5.07a1.6,1.6,0,1,1-2.59,1.85c-1.84-2.53-3.67-5.08-5.51-7.62l-4.94-6.82a1.4,1.4,0,1,0-2.24,1.63l8,11q3.76,5.19,7.5,10.4a1.62,1.62,0,1,1-2.59,1.9c-.9-1.23-1.77-2.48-2.68-3.69a3.49,3.49,0,0,0-4.09-1.19c2.22,3.07,4.3,6.2,6.65,9.12a13.31,13.31,0,0,0,7.18,4.44,10.25,10.25,0,0,0,9.22-1.7c1.76-1.34,3.58-2.6,5.37-3.91A8,8,0,0,0,377.82,80.81Z"/><path class="cls-6" d="M378.46,70.4a8,8,0,0,1-1.82,11.4c-1.79,1.31-3.61,2.57-5.37,3.91a10.25,10.25,0,0,1-9.22,1.7A13.31,13.31,0,0,1,354.87,83c-2.35-2.92-4.43-6-6.65-9.12A3.49,3.49,0,0,1,352.31,75c.91,1.21,1.78,2.46,2.68,3.69a1.62,1.62,0,1,0,2.59-1.9q-3.74-5.2-7.5-10.4l-8-11a1.4,1.4,0,1,1,2.24-1.63l4.94,6.82c1.84,2.54,3.67,5.09,5.51,7.62a1.6,1.6,0,1,0,2.59-1.85l2.36-1.48a1.49,1.49,0,0,0,2.23.36,1.51,1.51,0,0,0,.31-2.29l-.06-.08,2.24-1.65a1.62,1.62,0,1,0,2.61-1.87c-.61-.86-1.21-1.72-1.86-2.56a.91.91,0,0,1,.13-1.41c.21-.19.44-.35.67-.52a.9.9,0,0,1,1.4.24l1,1.38Q373.44,63.46,378.46,70.4Z"/><path class="cls-6" d="M364.46,61.25l-2.24,1.65c-.94-1.31-1.92-2.6-2.87-3.9a1.53,1.53,0,0,1,1.24-2.46,1.46,1.46,0,0,1,.95.63C362.54,58.5,363.48,59.89,364.46,61.25Z"/><path class="cls-6" d="M359.74,64.91l-2.36,1.48c-1.24-1.7-2.5-3.38-3.75-5.07-.52-.7-.45-1.14.28-1.67l.31-.23c.87-.63,1.29-.52,1.88.35Q357.89,62.37,359.74,64.91Z"/><path class="cls-6" d="M358.25,43.42a1.62,1.62,0,0,1-.32,2.33c-1.17.89-2.37,1.72-3.55,2.58s-2.16,1.58-3.25,2.35a1.69,1.69,0,1,1-2-2.71q3.38-2.49,6.8-4.92A1.66,1.66,0,0,1,358.25,43.42Z"/><path class="cls-6" d="M346,35.9a1.71,1.71,0,0,1,1.4,2.18c-.42,2.66-.83,5.33-1.29,8a4.62,4.62,0,0,1-.5,1.14,1.83,1.83,0,0,1-2.06.18,1.6,1.6,0,0,1-.79-1.71c.15-1.15.36-2.29.54-3.43.25-1.57.49-3.14.76-4.72A1.7,1.7,0,0,1,346,35.9Z"/><path class="cls-6" d="M339.32,46.33a1.75,1.75,0,0,1-.3,2.53,1.71,1.71,0,0,1-2.47-.58c-.81-1.09-1.6-2.2-2.4-3.31l-2.35-3.24a1.7,1.7,0,1,1,2.73-2Q336.93,43,339.32,46.33Z"/><path class="cls-6" d="M337.46,58.44a1.67,1.67,0,0,1-.49,2.48c-1.11.84-2.25,1.64-3.37,2.45s-2.17,1.58-3.26,2.35a1.69,1.69,0,1,1-2-2.73q3.3-2.43,6.63-4.8A1.68,1.68,0,0,1,337.46,58.44Z"/><path class="cls-6" d="M336.24,52.73a1.75,1.75,0,0,1-.83,1.86,4.36,4.36,0,0,1-1.19.12c-2.72-.4-5.43-.85-8.15-1.3a1.68,1.68,0,0,1-1.51-1.95,1.66,1.66,0,0,1,2-1.39l8.22,1.32A1.63,1.63,0,0,1,336.24,52.73Z"/><rect class="cls-1" x="250" y="1" width="133.75" height="140" rx="3" ry="3"/><circle class="cls-1" cx="263.75" cy="12.25" r="3.75"/><circle class="cls-1" cx="276.25" cy="12.25" r="3.75"/><circle class="cls-1" cx="288.75" cy="12.25" r="3.75"/><line class="cls-1" x1="250" y1="21" x2="383.75" y2="21"/><rect class="cls-2" x="263.75" y="31" width="105" height="97.5"/><line class="cls-7" x1="180.76" y1="130.5" x2="180.76" y2="190.5"/><circle class="cls-7" cx="180.76" cy="158.99" r="21.51"/><polygon class="cls-7" points="192.69 152.32 187.43 147.06 180.76 153.73 174.09 147.06 168.83 152.32 175.5 158.99 168.83 165.66 174.09 170.92 180.76 164.25 187.43 170.92 192.69 165.66 186.02 158.99 192.69 152.32"/><rect class="cls-2" x="281.62" y="47.8" width="15" height="15"/><rect class="cls-2" x="304.12" y="47.8" width="50" height="15"/><rect class="cls-2" x="281.62" y="100.3" width="15" height="15"/><rect class="cls-2" x="304.12" y="100.3" width="50" height="15"/><text class="cls-8" transform="translate(285.59 59.31)">2</text><rect class="cls-2" x="97.96" y="38.5" width="15" height="15"/><text class="cls-9" transform="translate(101.92 50.01)">1</text><rect class="cls-2" x="281.62" y="73.73" width="15" height="15"/><rect class="cls-2" x="304.12" y="73.73" width="50" height="15"/><text class="cls-8" transform="translate(285.59 85.33)">3</text><text class="cls-8" transform="translate(285.59 112)">4</text><line class="cls-10" x1="147.92" y1="78" x2="224.44" y2="78"/><path class="cls-5" d="M197.1,97.2a2,2,0,0,1,.62-2.76L223.53,78,197.72,61.56a2,2,0,1,1,2.15-3.37l28.46,18.13a2,2,0,0,1,0,3.38L199.87,97.81a2,2,0,0,1-2.77-.61Z"/></g></g></svg>