<svg xmlns="http://www.w3.org/2000/svg" viewBox="0 0 79.88 82.54"><defs><style>.cls-1{fill:#fff;stroke:#007cc0;stroke-miterlimit:10;stroke-width:2.36px;}.cls-2{fill:#ccc;}.cls-3{fill:#767676;}.cls-4,.cls-5{fill:none;stroke:#fff;}.cls-4{stroke-width:6px;}.cls-5{stroke-linecap:round;stroke-linejoin:round;stroke-width:2px;}</style></defs><title>ball</title><g id="Layer_2" data-name="Layer 2"><g id="texts"><circle class="cls-1" cx="40.4" cy="41.27" r="38.3"/><circle class="cls-2" cx="40.4" cy="41.27" r="30.34"/><rect class="cls-3" width="0.66" height="5.94"/><rect class="cls-3" x="2.64" y="-2.64" width="0.66" height="5.94" transform="translate(2.64 3.3) rotate(-90)"/><rect class="cls-3" x="76.27" y="79.24" width="0.66" height="5.94" transform="translate(-5.61 158.81) rotate(-90)"/><rect class="cls-3" x="78.91" y="76.6" width="0.66" height="5.94"/><path class="cls-4" d="M60,59.49H22.5a1.5,1.5,0,0,1,0-3H60a1.5,1.5,0,0,1,0,3Z"/><path class="cls-4" d="M60,59.49H22.5a1.5,1.5,0,0,1,0-3H60a1.5,1.5,0,0,1,0,3Z"/><circle class="cls-4" cx="49.4" cy="27.96" r="8.75"/><path class="cls-4" d="M17.56,45.32l-.11-.56a.71.71,0,0,1,.62-.85h.13a.72.72,0,0,1,.77.69l0,.57a.72.72,0,0,1-.65.74h0A.71.71,0,0,1,17.56,45.32Z"/><path class="cls-4" d="M17.56,45.32l-.11-.56a.71.71,0,0,1,.62-.85h.13a.72.72,0,0,1,.77.69l0,.57a.72.72,0,0,1-.65.74h0A.71.71,0,0,1,17.56,45.32Z"/><path class="cls-4" d="M30.82,54.71q-.18-.57-.38-1.1a.72.72,0,0,1,.38-.92l.52-.22a.72.72,0,0,1,1,.39c.16.42.31.86.45,1.3a.72.72,0,0,1-.5.9l-.54.15A.72.72,0,0,1,30.82,54.71ZM29.5,51.58q-.28-.5-.59-1a.72.72,0,0,1,.14-1l.45-.35a.72.72,0,0,1,1,.14q.4.57.75,1.2a.72.72,0,0,1-.31,1l-.5.25A.72.72,0,0,1,29.5,51.58Zm-2-2.65a10.54,10.54,0,0,0-.82-.72.72.72,0,0,1-.16-1l.32-.47a.72.72,0,0,1,1-.14,12.54,12.54,0,0,1,1.06.94.71.71,0,0,1,0,1l-.43.38A.72.72,0,0,1,27.49,48.93ZM24.82,47a11,11,0,0,0-1-.44.72.72,0,0,1-.45-.88l.17-.55a.71.71,0,0,1,.91-.47,12.91,12.91,0,0,1,1.3.56.72.72,0,0,1,.32,1l-.29.49A.72.72,0,0,1,24.82,47Zm-3.15-1q-.55-.09-1.12-.14a.72.72,0,0,1-.68-.73l0-.56a.72.72,0,0,1,.76-.7c.48,0,.95.1,1.41.18a.72.72,0,0,1,.56.87l-.13.55A.72.72,0,0,1,21.67,46Z"/><path class="cls-4" d="M30.82,54.71q-.18-.57-.38-1.1a.72.72,0,0,1,.38-.92l.52-.22a.72.72,0,0,1,1,.39c.16.42.31.86.45,1.3a.72.72,0,0,1-.5.9l-.54.15A.72.72,0,0,1,30.82,54.71ZM29.5,51.58q-.28-.5-.59-1a.72.72,0,0,1,.14-1l.45-.35a.72.72,0,0,1,1,.14q.4.57.75,1.2a.72.72,0,0,1-.31,1l-.5.25A.72.72,0,0,1,29.5,51.58Zm-2-2.65a10.54,10.54,0,0,0-.82-.72.72.72,0,0,1-.16-1l.32-.47a.72.72,0,0,1,1-.14,12.54,12.54,0,0,1,1.06.94.71.71,0,0,1,0,1l-.43.38A.72.72,0,0,1,27.49,48.93ZM24.82,47a11,11,0,0,0-1-.44.72.72,0,0,1-.45-.88l.17-.55a.71.71,0,0,1,.91-.47,12.91,12.91,0,0,1,1.3.56.72.72,0,0,1,.32,1l-.29.49A.72.72,0,0,1,24.82,47Zm-3.15-1q-.55-.09-1.12-.14a.72.72,0,0,1-.68-.73l0-.56a.72.72,0,0,1,.76-.7c.48,0,.95.1,1.41.18a.72.72,0,0,1,.56.87l-.13.55A.72.72,0,0,1,21.67,46Z"/><path class="cls-4" d="M32.72,55l-.56,0a.72.72,0,0,1-.69-.76c0-.55.11-1.11.19-1.67a.72.72,0,0,1,.84-.6l.56.1a.72.72,0,0,1,.58.82c-.07.5-.13,1-.17,1.47A.71.71,0,0,1,32.72,55Zm.52-3.93L32.69,51a.72.72,0,0,1-.55-.87c.13-.53.28-1.07.44-1.6A.72.72,0,0,1,33.5,48l.54.18a.72.72,0,0,1,.45.9c-.15.48-.28,1-.4,1.45A.72.72,0,0,1,33.24,51.09Zm1.12-3.82-.53-.2a.72.72,0,0,1-.42-.93c.2-.51.42-1,.65-1.52a.72.72,0,0,1,1-.34l.51.25a.72.72,0,0,1,.34.95c-.21.46-.41.93-.59,1.39A.72.72,0,0,1,34.36,47.27ZM36,43.64l-.51-.26a.72.72,0,0,1-.3-1q.39-.71.82-1.43a.72.72,0,0,1,1-.23l.48.3a.71.71,0,0,1,.23,1q-.4.66-.76,1.33A.71.71,0,0,1,36,43.64Zm2-3.43-.47-.31a.72.72,0,0,1-.2-1q.46-.66,1-1.32a.73.73,0,0,1,1-.13l.45.35a.71.71,0,0,1,.13,1q-.46.62-.9,1.25A.71.71,0,0,1,38,40.2ZM40.38,37l-.44-.36a.72.72,0,0,1-.1-1q.52-.62,1.06-1.23a.72.72,0,0,1,1,0l.41.38a.71.71,0,0,1,0,1q-.52.58-1,1.16A.71.71,0,0,1,40.38,37ZM43,34l-.41-.39a.72.72,0,0,1,0-1q.56-.57,1.16-1.13a.72.72,0,0,1,1,0l.38.41a.72.72,0,0,1,0,1q-.57.54-1.1,1.08A.71.71,0,0,1,43,34Zm2.88-2.77-.38-.42a.72.72,0,0,1,.06-1l1.23-1a.72.72,0,0,1,1,.1l.36.44a.71.71,0,0,1-.1,1l-1.18,1A.71.71,0,0,1,45.91,31.23Z"/><path class="cls-4" d="M32.72,55l-.56,0a.72.72,0,0,1-.69-.76c0-.55.11-1.11.19-1.67a.72.72,0,0,1,.84-.6l.56.1a.72.72,0,0,1,.58.82c-.07.5-.13,1-.17,1.47A.71.71,0,0,1,32.72,55Zm.52-3.93L32.69,51a.72.72,0,0,1-.55-.87c.13-.53.28-1.07.44-1.6A.72.72,0,0,1,33.5,48l.54.18a.72.72,0,0,1,.45.9c-.15.48-.28,1-.4,1.45A.72.72,0,0,1,33.24,51.09Zm1.12-3.82-.53-.2a.72.72,0,0,1-.42-.93c.2-.51.42-1,.65-1.52a.72.72,0,0,1,1-.34l.51.25a.72.72,0,0,1,.34.95c-.21.46-.41.93-.59,1.39A.72.72,0,0,1,34.36,47.27ZM36,43.64l-.51-.26a.72.72,0,0,1-.3-1q.39-.71.82-1.43a.72.72,0,0,1,1-.23l.48.3a.71.71,0,0,1,.23,1q-.4.66-.76,1.33A.71.71,0,0,1,36,43.64Zm2-3.43-.47-.31a.72.72,0,0,1-.2-1q.46-.66,1-1.32a.73.73,0,0,1,1-.13l.45.35a.71.71,0,0,1,.13,1q-.46.62-.9,1.25A.71.71,0,0,1,38,40.2ZM40.38,37l-.44-.36a.72.72,0,0,1-.1-1q.52-.62,1.06-1.23a.72.72,0,0,1,1,0l.41.38a.71.71,0,0,1,0,1q-.52.58-1,1.16A.71.71,0,0,1,40.38,37ZM43,34l-.41-.39a.72.72,0,0,1,0-1q.56-.57,1.16-1.13a.72.72,0,0,1,1,0l.38.41a.72.72,0,0,1,0,1q-.57.54-1.1,1.08A.71.71,0,0,1,43,34Zm2.88-2.77-.38-.42a.72.72,0,0,1,.06-1l1.23-1a.72.72,0,0,1,1,.1l.36.44a.71.71,0,0,1-.1,1l-1.18,1A.71.71,0,0,1,45.91,31.23Z"/><path class="cls-4" d="M49,28.64l-.35-.44a.72.72,0,0,1,.12-1l.06,0a.73.73,0,0,1,1,.14l.34.45a.72.72,0,0,1-.14,1l0,0A.71.71,0,0,1,49,28.64Z"/><path class="cls-4" d="M49,28.64l-.35-.44a.72.72,0,0,1,.12-1l.06,0a.73.73,0,0,1,1,.14l.34.45a.72.72,0,0,1-.14,1l0,0A.71.71,0,0,1,49,28.64Z"/><circle class="cls-4" cx="32.45" cy="57.03" r="1.27"/><circle class="cls-4" cx="32.45" cy="57.03" r="1.27"/><path class="cls-4" d="M48.15,22.79s4.8-2.25,6.75,3.56"/><path class="cls-4" d="M48.15,22.79s4.8-2.25,6.75,3.56"/><path class="cls-3" d="M60,59.49H22.5a1.5,1.5,0,0,1,0-3H60a1.5,1.5,0,0,1,0,3Z"/><circle class="cls-3" cx="49.4" cy="27.96" r="8.75"/><path class="cls-3" d="M17.56,45.32l-.11-.56a.71.71,0,0,1,.62-.85h.13a.72.72,0,0,1,.77.69l0,.57a.72.72,0,0,1-.65.74h0A.71.71,0,0,1,17.56,45.32Z"/><path class="cls-3" d="M30.82,54.71q-.18-.57-.38-1.1a.72.72,0,0,1,.38-.92l.52-.22a.72.72,0,0,1,1,.39c.16.42.31.86.45,1.3a.72.72,0,0,1-.5.9l-.54.15A.72.72,0,0,1,30.82,54.71ZM29.5,51.58q-.28-.5-.59-1a.72.72,0,0,1,.14-1l.45-.35a.72.72,0,0,1,1,.14q.4.57.75,1.2a.72.72,0,0,1-.31,1l-.5.25A.72.72,0,0,1,29.5,51.58Zm-2-2.65a10.54,10.54,0,0,0-.82-.72.72.72,0,0,1-.16-1l.32-.47a.72.72,0,0,1,1-.14,12.54,12.54,0,0,1,1.06.94.71.71,0,0,1,0,1l-.43.38A.72.72,0,0,1,27.49,48.93ZM24.82,47a11,11,0,0,0-1-.44.72.72,0,0,1-.45-.88l.17-.55a.71.71,0,0,1,.91-.47,12.91,12.91,0,0,1,1.3.56.72.72,0,0,1,.32,1l-.29.49A.72.72,0,0,1,24.82,47Zm-3.15-1q-.55-.09-1.12-.14a.72.72,0,0,1-.68-.73l0-.56a.72.72,0,0,1,.76-.7c.48,0,.95.1,1.41.18a.72.72,0,0,1,.56.87l-.13.55A.72.72,0,0,1,21.67,46Z"/><path class="cls-3" d="M32.72,55l-.56,0a.72.72,0,0,1-.69-.76c0-.55.11-1.11.19-1.67a.72.72,0,0,1,.84-.6l.56.1a.72.72,0,0,1,.58.82c-.07.5-.13,1-.17,1.47A.71.71,0,0,1,32.72,55Zm.52-3.93L32.69,51a.72.72,0,0,1-.55-.87c.13-.53.28-1.07.44-1.6A.72.72,0,0,1,33.5,48l.54.18a.72.72,0,0,1,.45.9c-.15.48-.28,1-.4,1.45A.72.72,0,0,1,33.24,51.09Zm1.12-3.82-.53-.2a.72.72,0,0,1-.42-.93c.2-.51.42-1,.65-1.52a.72.72,0,0,1,1-.34l.51.25a.72.72,0,0,1,.34.95c-.21.46-.41.93-.59,1.39A.72.72,0,0,1,34.36,47.27ZM36,43.64l-.51-.26a.72.72,0,0,1-.3-1q.39-.71.82-1.43a.72.72,0,0,1,1-.23l.48.3a.71.71,0,0,1,.23,1q-.4.66-.76,1.33A.71.71,0,0,1,36,43.64Zm2-3.43-.47-.31a.72.72,0,0,1-.2-1q.46-.66,1-1.32a.73.73,0,0,1,1-.13l.45.35a.71.71,0,0,1,.13,1q-.46.62-.9,1.25A.71.71,0,0,1,38,40.2ZM40.38,37l-.44-.36a.72.72,0,0,1-.1-1q.52-.62,1.06-1.23a.72.72,0,0,1,1,0l.41.38a.71.71,0,0,1,0,1q-.52.58-1,1.16A.71.71,0,0,1,40.38,37ZM43,34l-.41-.39a.72.72,0,0,1,0-1q.56-.57,1.16-1.13a.72.72,0,0,1,1,0l.38.41a.72.72,0,0,1,0,1q-.57.54-1.1,1.08A.71.71,0,0,1,43,34Zm2.88-2.77-.38-.42a.72.72,0,0,1,.06-1l1.23-1a.72.72,0,0,1,1,.1l.36.44a.71.71,0,0,1-.1,1l-1.18,1A.71.71,0,0,1,45.91,31.23Z"/><path class="cls-3" d="M49,28.64l-.35-.44a.72.72,0,0,1,.12-1l.06,0a.73.73,0,0,1,1,.14l.34.45a.72.72,0,0,1-.14,1l0,0A.71.71,0,0,1,49,28.64Z"/><circle class="cls-3" cx="32.45" cy="57.03" r="1.27"/><path class="cls-5" d="M48.15,22.79s4.8-2.25,6.75,3.56"/></g></g></svg>