<svg xmlns="http://www.w3.org/2000/svg" xmlns:xlink="http://www.w3.org/1999/xlink" viewBox="0 0 1544.16 247.5"><defs><style>.Anon-3943{fill:#f0f0f0;}</style><symbol id="ciudadgris" data-name="ciudadgris" viewBox="0 0 1544.16 247.5"><polygon class="Anon-3943" points="1544.16 170.4 1544.16 247.47 1536.75 247.47 1536.75 209.17 1509.49 209.17 1509.49 163.14 1513.48 163.14 1513.48 167.84 1517.36 167.84 1517.36 170.4 1544.16 170.4"/><polygon class="Anon-3943" points="1544.16 163.14 1544.16 170.4 1517.36 170.4 1517.36 167.84 1518.49 167.84 1518.49 163.14 1544.16 163.14"/><polygon class="Anon-3943" points="1544.16 158.13 1544.16 163.14 1518.49 163.14 1518.49 158.13 1520.13 158.13 1520.13 161.3 1540.79 161.3 1540.79 158.13 1544.16 158.13"/><rect class="Anon-3943" x="1520.13" y="158.13" width="20.66" height="3.17"/><rect class="Anon-3943" x="1520.13" y="153.73" width="20.66" height="4.4"/><rect class="Anon-3943" x="1509.49" y="209.17" width="27.26" height="38.3"/><rect class="Anon-3943" x="1517.36" y="163.14" width="1.13" height="4.7"/><rect class="Anon-3943" x="1517.36" y="158.13" width="1.13" height="5.01"/><polygon class="Anon-3943" points="1518.49 153.73 1518.49 158.13 1517.36 158.13 1517.36 163.14 1513.48 163.14 1513.48 153.73 1518.49 153.73"/><rect class="Anon-3943" x="1513.48" y="163.14" width="3.88" height="4.7"/><rect class="Anon-3943" x="1495.79" y="209.17" width="13.7" height="38.3"/><rect class="Anon-3943" x="1466.33" y="209.17" width="29.46" height="38.3"/><path class="Anon-3943" d="M1495.79,115.41v93.76h-29.46V184.41h-8.49v-4.19h-3.24V115.41h7.64v7h31.37v-7Zm-8.63,46.09v-5.32h-10.33v5.32Zm0-10.23V146h-10.33v5.31Zm0-10.22v-5.32h-10.33v5.32Zm0-10.23V125.5h-10.33v5.32Zm-13.6,30.68v-5.32h-10.33v5.32Zm0-10.23V146h-10.33v5.31Zm0-10.22v-5.32h-10.33v5.32Zm0-10.23V125.5h-10.33v5.32Z"/><polygon class="Anon-3943" points="1493.61 115.41 1493.61 122.43 1462.24 122.43 1462.24 115.41 1473.42 115.41 1473.42 117.62 1489.24 117.62 1489.24 115.41 1493.61 115.41"/><rect class="Anon-3943" x="1489.24" y="112.82" width="4.37" height="2.59"/><rect class="Anon-3943" x="1473.42" y="115.41" width="15.82" height="2.21"/><rect class="Anon-3943" x="1473.42" y="112.82" width="15.82" height="2.59"/><rect class="Anon-3943" x="1473.42" y="110.16" width="15.82" height="2.66"/><rect class="Anon-3943" x="1462.24" y="112.82" width="11.18" height="2.59"/><rect class="Anon-3943" x="1454.6" y="209.17" width="11.73" height="38.3"/><polygon class="Anon-3943" points="1466.33 184.41 1466.33 209.17 1454.6 209.17 1454.6 190.65 1457.84 190.65 1457.84 184.41 1466.33 184.41"/><rect class="Anon-3943" x="1454.6" y="184.41" width="3.24" height="6.24"/><rect class="Anon-3943" x="1454.6" y="180.22" width="3.24" height="4.19"/><rect class="Anon-3943" x="1437.9" y="209.17" width="16.7" height="38.3"/><polygon class="Anon-3943" points="1454.6 190.65 1454.6 209.17 1437.9 209.17 1429.51 209.17 1429.51 184.41 1431.04 184.41 1431.04 190.65 1454.6 190.65"/><rect class="Anon-3943" x="1431.04" y="184.41" width="23.56" height="6.24"/><polygon class="Anon-3943" points="1454.6 180.22 1454.6 184.41 1431.04 184.41 1431.04 180.22 1435.85 180.22 1435.85 183.29 1452.42 183.29 1452.42 180.22 1454.6 180.22"/><rect class="Anon-3943" x="1435.85" y="180.22" width="16.57" height="3.07"/><polygon class="Anon-3943" points="1452.42 176.13 1452.42 180.22 1435.85 180.22 1435.85 176.13 1442.81 176.13 1442.81 177.46 1447.92 177.46 1447.92 176.13 1452.42 176.13"/><rect class="Anon-3943" x="1442.81" y="176.13" width="5.11" height="1.33"/><rect class="Anon-3943" x="1442.81" y="173.57" width="5.11" height="2.56"/><rect class="Anon-3943" x="1429.51" y="209.17" width="8.39" height="38.3"/><rect class="Anon-3943" x="1426.13" y="209.17" width="3.38" height="38.3"/><rect class="Anon-3943" x="1418.05" y="209.17" width="8.08" height="38.3"/><polygon class="Anon-3943" points="1426.13 170.4 1426.13 209.17 1418.05 209.17 1418.05 179.09 1391.46 179.09 1391.46 163.14 1395.45 163.14 1395.45 167.84 1399.34 167.84 1399.34 170.4 1426.13 170.4"/><polygon class="Anon-3943" points="1426.13 163.14 1426.13 170.4 1399.34 170.4 1399.34 167.84 1400.46 167.84 1400.46 163.14 1426.13 163.14"/><polygon class="Anon-3943" points="1426.13 158.13 1426.13 163.14 1400.46 163.14 1400.46 158.13 1402.1 158.13 1402.1 161.3 1422.76 161.3 1422.76 158.13 1426.13 158.13"/><rect class="Anon-3943" x="1402.1" y="158.13" width="20.66" height="3.17"/><rect class="Anon-3943" x="1402.1" y="153.73" width="20.66" height="4.4"/><polygon class="Anon-3943" points="1418.05 209.17 1418.05 247.47 1391.46 247.47 1391.46 240.52 1397.96 240.52 1397.96 209.17 1418.05 209.17"/><polygon class="Anon-3943" points="1418.05 179.09 1418.05 209.17 1397.96 209.17 1397.96 191.98 1393.1 191.98 1393.1 186.25 1395.45 186.25 1395.45 183.29 1391.46 183.29 1391.46 179.09 1418.05 179.09"/><rect class="Anon-3943" x="1399.34" y="163.14" width="1.12" height="4.7"/><rect class="Anon-3943" x="1399.34" y="158.13" width="1.12" height="5.01"/><polygon class="Anon-3943" points="1400.46 153.73 1400.46 158.13 1399.34 158.13 1399.34 163.14 1395.45 163.14 1395.45 153.73 1400.46 153.73"/><rect class="Anon-3943" x="1395.45" y="163.14" width="3.89" height="4.7"/><polygon class="Anon-3943" points="1397.96 209.17 1397.96 240.52 1391.46 240.52 1391.46 233.56 1393.1 233.56 1393.1 209.17 1397.96 209.17"/><rect class="Anon-3943" x="1393.1" y="191.98" width="4.86" height="17.19"/><polygon class="Anon-3943" points="1395.45 183.29 1395.45 186.25 1393.1 186.25 1393.1 184.77 1391.46 184.77 1391.46 183.29 1395.45 183.29"/><rect class="Anon-3943" x="1391.46" y="209.17" width="1.64" height="24.39"/><rect class="Anon-3943" x="1391.46" y="191.98" width="1.64" height="17.19"/><rect class="Anon-3943" x="1391.46" y="186.25" width="1.64" height="5.73"/><rect class="Anon-3943" x="1391.46" y="184.77" width="1.64" height="1.48"/><polygon class="Anon-3943" points="1391.46 240.52 1391.46 247.47 1382.19 247.47 1382.19 209.17 1383.28 209.17 1383.28 240.52 1391.46 240.52"/><polygon class="Anon-3943" points="1391.46 233.56 1391.46 240.52 1383.28 240.52 1383.28 209.17 1385.53 209.17 1385.53 233.56 1391.46 233.56"/><rect class="Anon-3943" x="1385.53" y="209.17" width="5.93" height="24.39"/><rect class="Anon-3943" x="1385.53" y="191.98" width="5.93" height="17.19"/><rect class="Anon-3943" x="1385.53" y="186.25" width="5.93" height="5.73"/><rect class="Anon-3943" x="1385.53" y="184.77" width="5.93" height="1.48"/><polygon class="Anon-3943" points="1391.46 183.29 1391.46 184.77 1385.53 184.77 1385.53 186.25 1383.28 186.25 1383.28 183.29 1391.46 183.29"/><polygon class="Anon-3943" points="1391.46 179.09 1391.46 183.29 1383.28 183.29 1383.28 186.25 1385.53 186.25 1385.53 191.98 1383.28 191.98 1383.28 209.17 1382.19 209.17 1382.19 179.09 1391.46 179.09"/><rect class="Anon-3943" x="1383.28" y="191.98" width="2.25" height="17.19"/><rect class="Anon-3943" x="1345.37" y="209.17" width="36.82" height="38.3"/><path class="Anon-3943" d="M1382.19,179.09v30.08h-36.82V179.09h6.44v5.32h10.33v-5.32h3.27v5.32h10.33v-5.32Zm-6.45,15.55v-5.32h-10.33v5.32Zm-13.6,0v-5.32h-10.33v5.32Z"/><path class="Anon-3943" d="M1382.19,111v68.05h-36.82V111h2.45v11.39h4V123h10.33v-.61h3.27V123h10.33v-.61h4V111Zm-6.45,63.15v-5.32h-10.33v5.32Zm0-10.23v-5.32h-10.33V164Zm0-10.23v-5.32h-10.33v5.32Zm0-10.23v-5.32h-10.33v5.32Zm0-10.23V128h-10.33v5.32Zm-13.6,40.92v-5.32h-10.33v5.32Zm0-10.23v-5.32h-10.33V164Zm0-10.23v-5.32h-10.33v5.32Zm0-10.23v-5.32h-10.33v5.32Zm0-10.23V128h-10.33v5.32Z"/><polygon class="Anon-3943" points="1379.73 111.04 1379.73 122.43 1375.74 122.43 1375.74 117.73 1365.41 117.73 1365.41 122.43 1362.14 122.43 1362.14 117.73 1351.81 117.73 1351.81 122.43 1347.82 122.43 1347.82 111.04 1351.81 111.04 1351.81 112.82 1362.14 112.82 1362.14 111.04 1365.41 111.04 1365.41 112.82 1375.74 112.82 1375.74 111.04 1379.73 111.04"/><polygon class="Anon-3943" points="1379.73 92.56 1379.73 111.04 1375.74 111.04 1375.74 107.5 1365.41 107.5 1365.41 111.04 1362.14 111.04 1362.14 107.5 1351.81 107.5 1351.81 111.04 1347.82 111.04 1347.82 92.56 1349.97 92.56 1349.97 102.59 1351.81 102.59 1362.14 102.59 1365.41 102.59 1375.74 102.59 1377.58 102.59 1377.58 92.56 1379.73 92.56"/><polygon class="Anon-3943" points="1377.58 92.56 1377.58 102.59 1375.74 102.59 1375.74 97.27 1375.39 97.27 1375.39 92.56 1377.58 92.56"/><rect class="Anon-3943" x="1375.39" y="87.66" width="2.19" height="4.9"/><polygon class="Anon-3943" points="1375.39 92.56 1375.39 97.27 1365.41 97.27 1365.41 99.83 1362.14 99.83 1362.14 97.27 1352.17 97.27 1352.17 92.56 1375.39 92.56"/><rect class="Anon-3943" x="1352.17" y="87.66" width="23.22" height="4.9"/><polygon class="Anon-3943" points="1375.39 76.61 1375.39 87.66 1352.17 87.66 1352.17 76.61 1356.11 76.61 1356.11 81.93 1371.45 81.93 1371.45 76.61 1375.39 76.61"/><polygon class="Anon-3943" points="1371.45 76.61 1371.45 81.93 1356.11 81.93 1356.11 76.61 1359.28 76.61 1359.28 79.06 1368.28 79.06 1368.28 76.61 1371.45 76.61"/><rect class="Anon-3943" x="1368.28" y="70.88" width="3.17" height="5.73"/><rect class="Anon-3943" x="1359.28" y="76.61" width="9" height="2.45"/><rect class="Anon-3943" x="1359.28" y="70.88" width="9" height="5.73"/><polygon class="Anon-3943" points="1368.28 43.26 1368.28 70.88 1359.28 70.88 1359.28 43.26 1362.04 43.26 1362.04 46.84 1365.52 46.84 1365.52 43.26 1368.28 43.26"/><rect class="Anon-3943" x="1365.52" y="38.05" width="2.76" height="1.94"/><rect class="Anon-3943" x="1362.04" y="43.26" width="3.48" height="3.58"/><rect class="Anon-3943" x="1362.04" y="39.99" width="3.48" height="3.27"/><rect class="Anon-3943" x="1362.04" y="38.05" width="3.48" height="1.94"/><rect class="Anon-3943" x="1362.04" width="3.48" height="38.05"/><rect class="Anon-3943" x="1362.14" y="99.83" width="3.27" height="2.76"/><rect class="Anon-3943" x="1359.28" y="38.05" width="2.76" height="1.94"/><rect class="Anon-3943" x="1356.11" y="70.88" width="3.17" height="5.73"/><polygon class="Anon-3943" points="1352.17 92.56 1352.17 97.27 1351.81 97.27 1351.81 102.59 1349.97 102.59 1349.97 92.56 1352.17 92.56"/><rect class="Anon-3943" x="1349.97" y="87.66" width="2.2" height="4.9"/><rect class="Anon-3943" x="1337.32" y="209.17" width="8.05" height="38.3"/><polygon class="Anon-3943" points="1345.37 179.09 1345.37 209.17 1337.32 209.17 1337.32 184.41 1332.68 184.41 1332.68 179.09 1345.37 179.09"/><rect class="Anon-3943" x="1332.68" y="209.17" width="4.64" height="38.3"/><rect class="Anon-3943" x="1332.68" y="184.41" width="4.64" height="24.76"/><rect class="Anon-3943" x="1319.54" y="209.17" width="13.14" height="38.3"/><polygon class="Anon-3943" points="1332.68 184.41 1332.68 209.17 1319.54 209.17 1319.54 190.65 1328.83 190.65 1328.83 184.41 1332.68 184.41"/><rect class="Anon-3943" x="1319.54" y="184.41" width="9.29" height="6.24"/><polygon class="Anon-3943" points="1328.83 180.22 1328.83 184.41 1319.54 184.41 1319.54 183.29 1323.41 183.29 1323.41 180.22 1328.83 180.22"/><rect class="Anon-3943" x="1319.54" y="180.22" width="3.87" height="3.07"/><rect class="Anon-3943" x="1319.54" y="176.13" width="3.87" height="4.09"/><rect class="Anon-3943" x="1300.5" y="209.17" width="19.04" height="38.3"/><polygon class="Anon-3943" points="1319.54 190.65 1319.54 209.17 1300.5 209.17 1300.5 184.41 1302.03 184.41 1302.03 190.65 1319.54 190.65"/><rect class="Anon-3943" x="1302.03" y="184.41" width="17.51" height="6.24"/><polygon class="Anon-3943" points="1319.54 183.29 1319.54 184.41 1302.03 184.41 1302.03 180.22 1306.84 180.22 1306.84 183.29 1319.54 183.29"/><rect class="Anon-3943" x="1306.84" y="180.22" width="12.7" height="3.07"/><polygon class="Anon-3943" points="1319.54 176.13 1319.54 180.22 1306.84 180.22 1306.84 176.13 1313.8 176.13 1313.8 177.46 1318.91 177.46 1318.91 176.13 1319.54 176.13"/><polygon class="Anon-3943" points="1319.54 111.9 1319.54 176.13 1318.91 176.13 1318.91 173.57 1313.8 173.57 1313.8 176.13 1306.84 176.13 1306.84 180.22 1302.03 180.22 1302.03 184.41 1300.5 184.41 1300.5 209.17 1288.72 209.17 1270.99 209.17 1270.99 127.95 1269.63 127.95 1269.63 111.9 1273.45 111.9 1273.45 119.08 1297.04 119.08 1297.04 111.9 1303.31 111.9 1303.31 116.12 1311.6 116.12 1311.6 111.9 1312.64 111.9 1312.64 116.12 1317.22 116.12 1317.22 111.9 1319.54 111.9"/><rect class="Anon-3943" x="1313.8" y="176.13" width="5.11" height="1.33"/><rect class="Anon-3943" x="1313.8" y="173.57" width="5.11" height="2.56"/><rect class="Anon-3943" x="1312.64" y="111.9" width="4.58" height="4.22"/><rect class="Anon-3943" x="1312.64" y="109.12" width="4.58" height="2.78"/><rect class="Anon-3943" x="1303.31" y="111.9" width="8.29" height="4.22"/><rect class="Anon-3943" x="1303.31" y="103.47" width="8.29" height="8.43"/><rect class="Anon-3943" x="1288.72" y="209.17" width="11.78" height="38.3"/><rect class="Anon-3943" x="1273.45" y="111.9" width="23.59" height="7.18"/><rect class="Anon-3943" x="1273.45" y="105.24" width="23.59" height="6.66"/><rect class="Anon-3943" x="1270.99" y="209.17" width="17.73" height="38.3"/><rect class="Anon-3943" x="1269.63" y="209.17" width="1.36" height="38.3"/><rect class="Anon-3943" x="1269.63" y="127.95" width="1.36" height="81.22"/><rect class="Anon-3943" x="1268.13" y="209.17" width="1.5" height="38.3"/><rect class="Anon-3943" x="1268.13" y="127.95" width="1.5" height="81.22"/><rect class="Anon-3943" x="1265.81" y="209.17" width="2.32" height="38.3"/><rect class="Anon-3943" x="1265.81" y="127.95" width="2.32" height="81.22"/><path class="Anon-3943" d="M1268.13,79.06V128h-2.32v81.22H1230.9V79.06h2.93v4.5h30.89v-4.5Zm-6.65,107.4v-5.32h-10.33v5.32Zm0-10.23v-5.32h-10.33v5.32Zm0-10.23v-5.32h-10.33V166Zm0-10.23v-5.31h-10.33v5.31Zm0-10.22v-5.32h-10.33v5.32Zm0-10.23V130h-10.33v5.32Zm0-10.23v-5.32h-10.33v5.32Zm0-10.23v-5.32h-10.33v5.32Zm0-10.23V99.32h-10.33v5.31Zm0-10.22V89.09h-10.33v5.32Zm-13.61,92.05v-5.32h-10.33v5.32Zm0-10.23v-5.32h-10.33v5.32Zm0-10.23v-5.32h-10.33V166Zm0-10.23v-5.31h-10.33v5.31Zm0-10.22v-5.32h-10.33v5.32Zm0-10.23V130h-10.33v5.32Zm0-10.23v-5.32h-10.33v5.32Zm0-10.23v-5.32h-10.33v5.32Zm0-10.23V99.32h-10.33v5.31Zm0-10.22V89.09h-10.33v5.32Z"/><rect class="Anon-3943" x="1230.9" y="209.17" width="34.91" height="38.3"/><polygon class="Anon-3943" points="1264.72 79.06 1264.72 83.56 1233.83 83.56 1233.83 79.06 1239.28 79.06 1239.28 81.52 1264.44 81.52 1264.44 79.06 1264.72 79.06"/><rect class="Anon-3943" x="1264.44" y="76.27" width="0.28" height="2.79"/><rect class="Anon-3943" x="1239.28" y="79.06" width="25.16" height="2.46"/><rect class="Anon-3943" x="1239.28" y="76.27" width="25.16" height="2.79"/><polygon class="Anon-3943" points="1264.44 68.43 1264.44 76.27 1239.28 76.27 1239.28 66.18 1243.24 66.18 1243.24 68.43 1264.44 68.43"/><rect class="Anon-3943" x="1243.24" y="66.18" width="21.2" height="2.25"/><rect class="Anon-3943" x="1243.24" y="64.47" width="21.2" height="1.71"/><rect class="Anon-3943" x="1233.83" y="76.27" width="5.45" height="2.79"/><rect class="Anon-3943" x="1224.54" y="209.17" width="6.36" height="38.3"/><rect class="Anon-3943" x="1189.86" y="209.17" width="34.68" height="38.3"/><polygon class="Anon-3943" points="1224.54 170.4 1224.54 209.17 1189.86 209.17 1189.86 163.14 1193.85 163.14 1193.85 167.84 1197.74 167.84 1197.74 170.4 1224.54 170.4"/><polygon class="Anon-3943" points="1224.54 163.14 1224.54 170.4 1197.74 170.4 1197.74 167.84 1198.86 167.84 1198.86 163.14 1224.54 163.14"/><polygon class="Anon-3943" points="1224.54 158.13 1224.54 163.14 1198.86 163.14 1198.86 158.13 1200.5 158.13 1200.5 161.3 1221.16 161.3 1221.16 158.13 1224.54 158.13"/><rect class="Anon-3943" x="1200.5" y="158.13" width="20.66" height="3.17"/><rect class="Anon-3943" x="1200.5" y="153.73" width="20.66" height="4.4"/><rect class="Anon-3943" x="1197.74" y="163.14" width="1.12" height="4.7"/><rect class="Anon-3943" x="1197.74" y="158.13" width="1.12" height="5.01"/><polygon class="Anon-3943" points="1198.86 153.73 1198.86 158.13 1197.74 158.13 1197.74 163.14 1193.85 163.14 1193.85 153.73 1198.86 153.73"/><rect class="Anon-3943" x="1193.85" y="163.14" width="3.89" height="4.7"/><path class="Anon-3943" d="M1189.86,209.17v38.3h-29.45V184.41h-8.49v-4.19h-3.24V115.41h7.64v7h31.36v-7h2.18v93.76Zm-8.62-47.67v-5.32h-10.33v5.32Zm0-10.23V146h-10.33v5.31Zm0-10.22v-5.32h-10.33v5.32Zm0-10.23V125.5h-10.33v5.32Zm-13.61,30.68v-5.32H1157.3v5.32Zm0-10.23V146H1157.3v5.31Zm0-10.22v-5.32H1157.3v5.32Zm0-10.23V125.5H1157.3v5.32Z"/><polygon class="Anon-3943" points="1187.68 115.41 1187.68 122.43 1156.32 122.43 1156.32 115.41 1167.5 115.41 1167.5 117.62 1183.32 117.62 1183.32 115.41 1187.68 115.41"/><rect class="Anon-3943" x="1183.32" y="112.82" width="4.36" height="2.59"/><rect class="Anon-3943" x="1167.5" y="115.41" width="15.82" height="2.21"/><rect class="Anon-3943" x="1167.5" y="112.82" width="15.82" height="2.59"/><rect class="Anon-3943" x="1167.5" y="110.16" width="15.82" height="2.66"/><rect class="Anon-3943" x="1156.32" y="112.82" width="11.18" height="2.59"/><polygon class="Anon-3943" points="1160.41 184.41 1160.41 247.47 1148.68 247.47 1148.68 190.65 1151.92 190.65 1151.92 184.41 1160.41 184.41"/><rect class="Anon-3943" x="1148.68" y="184.41" width="3.24" height="6.24"/><rect class="Anon-3943" x="1148.68" y="180.22" width="3.24" height="4.19"/><polygon class="Anon-3943" points="1148.68 190.65 1148.68 247.47 1123.62 247.47 1123.62 184.41 1125.12 184.41 1125.12 190.65 1148.68 190.65"/><rect class="Anon-3943" x="1125.12" y="184.41" width="23.56" height="6.24"/><polygon class="Anon-3943" points="1148.68 180.22 1148.68 184.41 1125.12 184.41 1125.12 180.22 1129.93 180.22 1129.93 183.29 1146.5 183.29 1146.5 180.22 1148.68 180.22"/><rect class="Anon-3943" x="1129.93" y="180.22" width="16.57" height="3.07"/><polygon class="Anon-3943" points="1146.5 176.13 1146.5 180.22 1129.93 180.22 1129.93 176.13 1136.88 176.13 1136.88 177.46 1142 177.46 1142 176.13 1146.5 176.13"/><rect class="Anon-3943" x="1136.88" y="176.13" width="5.12" height="1.33"/><rect class="Anon-3943" x="1136.88" y="173.57" width="5.12" height="2.56"/><rect class="Anon-3943" x="1123.59" y="184.41" width="0.03" height="63.06"/><path class="Anon-3943" d="M1123.62,111v73.37h0v63.06H1086.8V111h2.45v11.39h4V123h10.33v-.61h3.28V123h10.33v-.61h4V111Zm-6.44,83.6v-5.32h-10.33v5.32Zm0-10.23v-5.32h-10.33v5.32Zm0-10.22v-5.32h-10.33v5.32Zm0-10.23v-5.32h-10.33V164Zm0-10.23v-5.32h-10.33v5.32Zm0-10.23v-5.32h-10.33v5.32Zm0-10.23V128h-10.33v5.32Zm-13.61,61.37v-5.32h-10.33v5.32Zm0-10.23v-5.32h-10.33v5.32Zm0-10.22v-5.32h-10.33v5.32Zm0-10.23v-5.32h-10.33V164Zm0-10.23v-5.32h-10.33v5.32Zm0-10.23v-5.32h-10.33v5.32Zm0-10.23V128h-10.33v5.32Z"/><polygon class="Anon-3943" points="1121.17 111.04 1121.17 122.43 1117.18 122.43 1117.18 117.73 1106.85 117.73 1106.85 122.43 1103.57 122.43 1103.57 117.73 1093.24 117.73 1093.24 122.43 1089.25 122.43 1089.25 111.04 1093.24 111.04 1093.24 112.82 1103.57 112.82 1103.57 111.04 1106.85 111.04 1106.85 112.82 1117.18 112.82 1117.18 111.04 1121.17 111.04"/><polygon class="Anon-3943" points="1121.17 92.56 1121.17 111.04 1117.18 111.04 1117.18 107.5 1106.85 107.5 1106.85 111.04 1103.57 111.04 1103.57 107.5 1093.24 107.5 1093.24 111.04 1089.25 111.04 1089.25 92.56 1091.4 92.56 1091.4 102.59 1093.24 102.59 1103.57 102.59 1106.85 102.59 1117.18 102.59 1119.02 102.59 1119.02 92.56 1121.17 92.56"/><polygon class="Anon-3943" points="1119.02 92.56 1119.02 102.59 1117.18 102.59 1117.18 97.27 1116.82 97.27 1116.82 92.56 1119.02 92.56"/><rect class="Anon-3943" x="1116.82" y="87.66" width="2.2" height="4.9"/><polygon class="Anon-3943" points="1116.82 92.56 1116.82 97.27 1106.85 97.27 1106.85 99.83 1103.57 99.83 1103.57 97.27 1093.6 97.27 1093.6 92.56 1116.82 92.56"/><rect class="Anon-3943" x="1093.6" y="87.66" width="23.22" height="4.9"/><polygon class="Anon-3943" points="1116.82 76.61 1116.82 87.66 1093.6 87.66 1093.6 76.61 1097.54 76.61 1097.54 81.93 1112.88 81.93 1112.88 76.61 1116.82 76.61"/><rect class="Anon-3943" x="1097.54" y="76.61" width="15.34" height="5.32"/><rect class="Anon-3943" x="1097.54" y="70.88" width="15.34" height="5.73"/><rect class="Anon-3943" x="1103.57" y="99.83" width="3.28" height="2.76"/><polygon class="Anon-3943" points="1093.6 92.56 1093.6 97.27 1093.24 97.27 1093.24 102.59 1091.4 102.59 1091.4 92.56 1093.6 92.56"/><rect class="Anon-3943" x="1091.4" y="87.66" width="2.2" height="4.9"/><path class="Anon-3943" d="M457.36,111.07V247.5H420.58V184.44h0V111.07H423v11.39h4v.61h10.33v-.61h3.28v.61h10.33v-.61h4V111.07Zm-6.44,83.6v-5.32H440.59v5.32Zm0-10.23v-5.32H440.59v5.32Zm0-10.23v-5.32H440.59v5.32Zm0-10.23v-5.32H440.59V164Zm0-10.23v-5.31H440.59v5.31Zm0-10.22v-5.32H440.59v5.32Zm0-10.23V128H440.59v5.32Zm-13.61,61.37v-5.32H427v5.32Zm0-10.23v-5.32H427v5.32Zm0-10.23v-5.32H427v5.32Zm0-10.23v-5.32H427V164Zm0-10.23v-5.31H427v5.31Zm0-10.22v-5.32H427v5.32Zm0-10.23V128H427v5.32Z"/><polygon class="Anon-3943" points="454.91 111.07 454.91 122.46 450.92 122.46 450.92 117.75 440.59 117.75 440.59 122.46 437.31 122.46 437.31 117.75 426.98 117.75 426.98 122.46 423 122.46 423 111.07 426.98 111.07 426.98 112.84 437.31 112.84 437.31 111.07 440.59 111.07 440.59 112.84 450.92 112.84 450.92 111.07 454.91 111.07"/><polygon class="Anon-3943" points="454.91 92.59 454.91 111.07 450.92 111.07 450.92 107.52 440.59 107.52 440.59 111.07 437.31 111.07 437.31 107.52 426.98 107.52 426.98 111.07 423 111.07 423 92.59 425.14 92.59 425.14 102.61 426.98 102.61 437.31 102.61 440.59 102.61 450.92 102.61 452.76 102.61 452.76 92.59 454.91 92.59"/><polygon class="Anon-3943" points="452.76 92.59 452.76 102.61 450.92 102.61 450.92 97.3 450.56 97.3 450.56 92.59 452.76 92.59"/><rect class="Anon-3943" x="450.56" y="87.68" width="2.2" height="4.91"/><polygon class="Anon-3943" points="450.56 92.59 450.56 97.3 440.59 97.3 440.59 99.85 437.31 99.85 437.31 97.3 427.34 97.3 427.34 92.59 450.56 92.59"/><rect class="Anon-3943" x="427.34" y="87.68" width="23.22" height="4.91"/><polygon class="Anon-3943" points="450.56 76.63 450.56 87.68 427.34 87.68 427.34 76.63 431.28 76.63 431.28 81.95 446.62 81.95 446.62 76.63 450.56 76.63"/><rect class="Anon-3943" x="431.28" y="76.63" width="15.34" height="5.32"/><rect class="Anon-3943" x="431.28" y="70.91" width="15.34" height="5.72"/><rect class="Anon-3943" x="437.31" y="99.85" width="3.28" height="2.76"/><polygon class="Anon-3943" points="427.34 92.59 427.34 97.3 426.98 97.3 426.98 102.61 425.14 102.61 425.14 92.59 427.34 92.59"/><rect class="Anon-3943" x="425.14" y="87.68" width="2.2" height="4.91"/><rect class="Anon-3943" x="420.54" y="184.44" width="0.04" height="63.06"/><polygon class="Anon-3943" points="420.54 184.44 420.54 247.5 395.48 247.5 395.48 190.68 419.04 190.68 419.04 184.44 420.54 184.44"/><rect class="Anon-3943" x="395.48" y="184.44" width="23.56" height="6.24"/><polygon class="Anon-3943" points="419.04 180.25 419.04 184.44 395.48 184.44 395.48 180.25 397.67 180.25 397.67 183.31 414.23 183.31 414.23 180.25 419.04 180.25"/><rect class="Anon-3943" x="397.67" y="180.25" width="16.56" height="3.06"/><rect class="Anon-3943" x="397.67" y="176.15" width="16.56" height="4.1"/><polygon class="Anon-3943" points="395.48 190.68 395.48 247.5 383.75 247.5 383.75 184.44 392.24 184.44 392.24 190.68 395.48 190.68"/><rect class="Anon-3943" x="392.24" y="184.44" width="3.24" height="6.24"/><rect class="Anon-3943" x="392.24" y="180.25" width="3.24" height="4.19"/><path class="Anon-3943" d="M395.48,115.43v64.82h-3.24v4.19h-8.49V247.5H354.3V115.43h2.18v7h31.37v-7Zm-7.11,46.1v-5.32H378v5.32Zm0-10.23V146H378v5.32Zm0-10.23v-5.32H378v5.32Zm0-10.23v-5.32H378v5.32Zm-13.6,30.69v-5.32H364.44v5.32Zm0-10.23V146H364.44v5.32Zm0-10.23v-5.32H364.44v5.32Zm0-10.23v-5.32H364.44v5.32Z"/><polygon class="Anon-3943" points="387.85 115.43 387.85 122.46 356.48 122.46 356.48 115.43 360.84 115.43 360.84 117.65 376.66 117.65 376.66 115.43 387.85 115.43"/><rect class="Anon-3943" x="376.66" y="112.84" width="11.19" height="2.59"/><rect class="Anon-3943" x="360.84" y="115.43" width="15.82" height="2.22"/><rect class="Anon-3943" x="360.84" y="112.84" width="15.82" height="2.59"/><rect class="Anon-3943" x="360.84" y="110.18" width="15.82" height="2.66"/><rect class="Anon-3943" x="356.48" y="112.84" width="4.36" height="2.59"/><rect class="Anon-3943" x="319.62" y="209.19" width="34.68" height="38.31"/><polygon class="Anon-3943" points="354.3 163.16 354.3 209.19 319.62 209.19 319.62 170.43 346.42 170.43 346.42 167.87 350.31 167.87 350.31 163.16 354.3 163.16"/><rect class="Anon-3943" x="346.42" y="163.16" width="3.89" height="4.71"/><polygon class="Anon-3943" points="350.31 153.75 350.31 163.16 346.42 163.16 346.42 158.15 345.3 158.15 345.3 153.75 350.31 153.75"/><polygon class="Anon-3943" points="346.42 167.87 346.42 170.43 319.62 170.43 319.62 163.16 345.3 163.16 345.3 167.87 346.42 167.87"/><rect class="Anon-3943" x="345.3" y="163.16" width="1.12" height="4.71"/><rect class="Anon-3943" x="345.3" y="158.15" width="1.12" height="5.01"/><polygon class="Anon-3943" points="345.3 158.15 345.3 163.16 319.62 163.16 319.62 158.15 323 158.15 323 161.32 343.66 161.32 343.66 158.15 345.3 158.15"/><rect class="Anon-3943" x="323" y="158.15" width="20.66" height="3.17"/><rect class="Anon-3943" x="323" y="153.75" width="20.66" height="4.4"/><rect class="Anon-3943" x="313.27" y="209.19" width="6.35" height="38.31"/><rect class="Anon-3943" x="278.35" y="209.19" width="34.92" height="38.31"/><path class="Anon-3943" d="M313.27,79.09v130.1H278.35V128H276V79.09h3.4v4.5h30.89v-4.5Zm-6.65,107.39v-5.31H296.29v5.31Zm0-10.22v-5.32H296.29v5.32Zm0-10.23v-5.32H296.29V166Zm0-10.23v-5.32H296.29v5.32Zm0-10.23v-5.32H296.29v5.32Zm0-10.23V130H296.29v5.31Zm0-10.22V119.8H296.29v5.32Zm0-10.23v-5.32H296.29v5.32Zm0-10.23V99.34H296.29v5.32Zm0-10.23V89.11H296.29v5.32Zm-13.61,92v-5.31H282.68v5.31Zm0-10.22v-5.32H282.68v5.32ZM293,166v-5.32H282.68V166Zm0-10.23v-5.32H282.68v5.32Zm0-10.23v-5.32H282.68v5.32Zm0-10.23V130H282.68v5.31Zm0-10.22V119.8H282.68v5.32Zm0-10.23v-5.32H282.68v5.32Zm0-10.23V99.34H282.68v5.32Zm0-10.23V89.11H282.68v5.32Z"/><polygon class="Anon-3943" points="310.33 79.09 310.33 83.59 279.44 83.59 279.44 79.09 279.72 79.09 279.72 81.54 304.88 81.54 304.88 79.09 310.33 79.09"/><rect class="Anon-3943" x="304.88" y="76.29" width="5.45" height="2.8"/><rect class="Anon-3943" x="279.72" y="79.09" width="25.16" height="2.45"/><rect class="Anon-3943" x="279.72" y="76.29" width="25.16" height="2.8"/><polygon class="Anon-3943" points="304.88 66.2 304.88 76.29 279.72 76.29 279.72 68.45 300.92 68.45 300.92 66.2 304.88 66.2"/><rect class="Anon-3943" x="279.72" y="66.2" width="21.2" height="2.25"/><rect class="Anon-3943" x="279.72" y="64.5" width="21.2" height="1.7"/><rect class="Anon-3943" x="279.44" y="76.29" width="0.28" height="2.8"/><rect class="Anon-3943" x="276.04" y="209.19" width="2.31" height="38.31"/><rect class="Anon-3943" x="276.04" y="127.98" width="2.31" height="81.21"/><rect class="Anon-3943" x="274.54" y="209.19" width="1.5" height="38.31"/><rect class="Anon-3943" x="274.54" y="127.98" width="1.5" height="81.21"/><rect class="Anon-3943" x="273.17" y="209.19" width="1.37" height="38.31"/><rect class="Anon-3943" x="273.17" y="127.98" width="1.37" height="81.21"/><polygon class="Anon-3943" points="274.54 111.93 274.54 127.98 273.17 127.98 273.17 209.19 255.44 209.19 243.66 209.19 243.66 184.44 242.13 184.44 242.13 180.25 237.32 180.25 237.32 176.15 230.37 176.15 230.37 173.6 225.25 173.6 225.25 176.15 224.62 176.15 224.62 111.93 226.94 111.93 226.94 116.14 231.53 116.14 231.53 111.93 232.57 111.93 232.57 116.14 240.85 116.14 240.85 111.93 247.12 111.93 247.12 119.11 270.72 119.11 270.72 111.93 274.54 111.93"/><rect class="Anon-3943" x="255.44" y="209.19" width="17.73" height="38.31"/><rect class="Anon-3943" x="247.12" y="111.93" width="23.6" height="7.18"/><rect class="Anon-3943" x="247.12" y="105.27" width="23.6" height="6.66"/><rect class="Anon-3943" x="243.66" y="209.19" width="11.78" height="38.31"/><rect class="Anon-3943" x="224.62" y="209.19" width="19.04" height="38.31"/><polygon class="Anon-3943" points="243.66 184.44 243.66 209.19 224.62 209.19 224.62 190.68 242.13 190.68 242.13 184.44 243.66 184.44"/><rect class="Anon-3943" x="224.62" y="184.44" width="17.51" height="6.24"/><polygon class="Anon-3943" points="242.13 180.25 242.13 184.44 224.62 184.44 224.62 183.31 237.32 183.31 237.32 180.25 242.13 180.25"/><rect class="Anon-3943" x="232.57" y="111.93" width="8.28" height="4.21"/><rect class="Anon-3943" x="232.57" y="103.5" width="8.28" height="8.43"/><rect class="Anon-3943" x="224.62" y="180.25" width="12.7" height="3.06"/><polygon class="Anon-3943" points="237.32 176.15 237.32 180.25 224.62 180.25 224.62 176.15 225.25 176.15 225.25 177.48 230.37 177.48 230.37 176.15 237.32 176.15"/><rect class="Anon-3943" x="226.94" y="111.93" width="4.59" height="4.21"/><rect class="Anon-3943" x="226.94" y="109.15" width="4.59" height="2.78"/><rect class="Anon-3943" x="225.25" y="176.15" width="5.12" height="1.33"/><rect class="Anon-3943" x="225.25" y="173.6" width="5.12" height="2.55"/><rect class="Anon-3943" x="211.48" y="209.19" width="13.14" height="38.31"/><polygon class="Anon-3943" points="224.62 190.68 224.62 209.19 211.48 209.19 211.48 184.44 215.33 184.44 215.33 190.68 224.62 190.68"/><rect class="Anon-3943" x="215.33" y="184.44" width="9.29" height="6.24"/><polygon class="Anon-3943" points="224.62 183.31 224.62 184.44 215.33 184.44 215.33 180.25 220.75 180.25 220.75 183.31 224.62 183.31"/><rect class="Anon-3943" x="220.75" y="180.25" width="3.87" height="3.06"/><rect class="Anon-3943" x="220.75" y="176.15" width="3.87" height="4.1"/><rect class="Anon-3943" x="206.84" y="209.19" width="4.64" height="38.31"/><rect class="Anon-3943" x="206.84" y="184.44" width="4.64" height="24.75"/><polygon class="Anon-3943" points="211.48 179.12 211.48 184.44 206.84 184.44 206.84 209.19 198.8 209.19 198.8 179.12 211.48 179.12"/><rect class="Anon-3943" x="198.8" y="209.19" width="8.04" height="38.31"/><rect class="Anon-3943" x="161.97" y="209.19" width="36.83" height="38.31"/><path class="Anon-3943" d="M198.8,179.12v30.07H162V179.12h6.45v5.32h10.33v-5.32H182v5.32h10.33v-5.32Zm-6.45,15.55v-5.32H182v5.32Zm-13.6,0v-5.32H168.42v5.32Z"/><path class="Anon-3943" d="M198.8,111.07v68.05H162V111.07h2.46v11.39h4v.61h10.33v-.61H182v.61h10.33v-.61h4V111.07Zm-6.45,63.14v-5.32H182v5.32Zm0-10.23v-5.32H182V164Zm0-10.23v-5.31H182v5.31Zm0-10.22v-5.32H182v5.32Zm0-10.23V128H182v5.32Zm-13.6,40.91v-5.32H168.42v5.32Zm0-10.23v-5.32H168.42V164Zm0-10.23v-5.31H168.42v5.31Zm0-10.22v-5.32H168.42v5.32Zm0-10.23V128H168.42v5.32Z"/><polygon class="Anon-3943" points="196.34 111.07 196.34 122.46 192.35 122.46 192.35 117.75 182.02 117.75 182.02 122.46 178.75 122.46 178.75 117.75 168.42 117.75 168.42 122.46 164.43 122.46 164.43 111.07 168.42 111.07 168.42 112.84 178.75 112.84 178.75 111.07 182.02 111.07 182.02 112.84 192.35 112.84 192.35 111.07 196.34 111.07"/><polygon class="Anon-3943" points="196.34 92.59 196.34 111.07 192.35 111.07 192.35 107.52 182.02 107.52 182.02 111.07 178.75 111.07 178.75 107.52 168.42 107.52 168.42 111.07 164.43 111.07 164.43 92.59 166.58 92.59 166.58 102.61 168.42 102.61 178.75 102.61 182.02 102.61 192.35 102.61 194.19 102.61 194.19 92.59 196.34 92.59"/><polygon class="Anon-3943" points="194.19 92.59 194.19 102.61 192.35 102.61 192.35 97.3 191.99 97.3 191.99 92.59 194.19 92.59"/><rect class="Anon-3943" x="191.99" y="87.68" width="2.2" height="4.91"/><polygon class="Anon-3943" points="191.99 92.59 191.99 97.3 182.02 97.3 182.02 99.85 178.75 99.85 178.75 97.3 168.78 97.3 168.78 92.59 191.99 92.59"/><rect class="Anon-3943" x="168.78" y="87.68" width="23.21" height="4.91"/><polygon class="Anon-3943" points="191.99 76.63 191.99 87.68 168.78 87.68 168.78 76.63 172.71 76.63 172.71 81.95 188.06 81.95 188.06 76.63 191.99 76.63"/><polygon class="Anon-3943" points="188.06 76.63 188.06 81.95 172.71 81.95 172.71 76.63 175.88 76.63 175.88 79.09 184.89 79.09 184.89 76.63 188.06 76.63"/><rect class="Anon-3943" x="184.89" y="70.91" width="3.17" height="5.72"/><rect class="Anon-3943" x="175.88" y="76.63" width="9.01" height="2.46"/><rect class="Anon-3943" x="175.88" y="70.91" width="9.01" height="5.72"/><polygon class="Anon-3943" points="184.89 43.29 184.89 70.91 175.88 70.91 175.88 43.29 178.65 43.29 178.65 46.87 182.12 46.87 182.12 43.29 184.89 43.29"/><rect class="Anon-3943" x="182.12" y="38.07" width="2.77" height="1.95"/><rect class="Anon-3943" x="178.65" y="43.29" width="3.47" height="3.58"/><rect class="Anon-3943" x="178.65" y="40.02" width="3.47" height="3.27"/><rect class="Anon-3943" x="178.65" y="38.07" width="3.47" height="1.95"/><rect class="Anon-3943" x="178.65" y="0.03" width="3.47" height="38.04"/><rect class="Anon-3943" x="178.75" y="99.85" width="3.27" height="2.76"/><rect class="Anon-3943" x="175.88" y="38.07" width="2.77" height="1.95"/><rect class="Anon-3943" x="172.71" y="70.91" width="3.17" height="5.72"/><polygon class="Anon-3943" points="168.78 92.59 168.78 97.3 168.42 97.3 168.42 102.61 166.58 102.61 166.58 92.59 168.78 92.59"/><rect class="Anon-3943" x="166.58" y="87.68" width="2.2" height="4.91"/><polygon class="Anon-3943" points="161.97 209.19 161.97 247.5 152.7 247.5 152.7 240.54 160.88 240.54 160.88 209.19 161.97 209.19"/><polygon class="Anon-3943" points="161.97 179.12 161.97 209.19 160.88 209.19 160.88 192.01 158.63 192.01 158.63 186.28 160.88 186.28 160.88 183.31 152.7 183.31 152.7 179.12 161.97 179.12"/><polygon class="Anon-3943" points="160.88 209.19 160.88 240.54 152.7 240.54 152.7 233.59 158.63 233.59 158.63 209.19 160.88 209.19"/><rect class="Anon-3943" x="158.63" y="192.01" width="2.25" height="17.18"/><polygon class="Anon-3943" points="160.88 183.31 160.88 186.28 158.63 186.28 158.63 184.8 152.7 184.8 152.7 183.31 160.88 183.31"/><rect class="Anon-3943" x="152.7" y="209.19" width="5.93" height="24.4"/><rect class="Anon-3943" x="152.7" y="192.01" width="5.93" height="17.18"/><rect class="Anon-3943" x="152.7" y="186.28" width="5.93" height="5.73"/><rect class="Anon-3943" x="152.7" y="184.8" width="5.93" height="1.48"/><polygon class="Anon-3943" points="152.7 240.54 152.7 247.5 126.11 247.5 126.11 209.19 146.21 209.19 146.21 240.54 152.7 240.54"/><polygon class="Anon-3943" points="152.7 233.59 152.7 240.54 146.21 240.54 146.21 209.19 151.06 209.19 151.06 233.59 152.7 233.59"/><rect class="Anon-3943" x="151.06" y="209.19" width="1.64" height="24.4"/><rect class="Anon-3943" x="151.06" y="192.01" width="1.64" height="17.18"/><rect class="Anon-3943" x="151.06" y="186.28" width="1.64" height="5.73"/><rect class="Anon-3943" x="151.06" y="184.8" width="1.64" height="1.48"/><polygon class="Anon-3943" points="152.7 183.31 152.7 184.8 151.06 184.8 151.06 186.28 148.71 186.28 148.71 183.31 152.7 183.31"/><polygon class="Anon-3943" points="152.7 179.12 152.7 183.31 148.71 183.31 148.71 186.28 151.06 186.28 151.06 192.01 146.21 192.01 146.21 209.19 126.11 209.19 126.11 179.12 152.7 179.12"/><polygon class="Anon-3943" points="152.7 163.16 152.7 179.12 126.11 179.12 126.11 209.19 118.03 209.19 118.03 170.43 144.83 170.43 144.83 167.87 148.71 167.87 148.71 163.16 152.7 163.16"/><rect class="Anon-3943" x="146.21" y="192.01" width="4.85" height="17.18"/><rect class="Anon-3943" x="144.83" y="163.16" width="3.88" height="4.71"/><polygon class="Anon-3943" points="148.71 153.75 148.71 163.16 144.83 163.16 144.83 158.15 143.7 158.15 143.7 153.75 148.71 153.75"/><polygon class="Anon-3943" points="144.83 167.87 144.83 170.43 118.03 170.43 118.03 163.16 143.7 163.16 143.7 167.87 144.83 167.87"/><rect class="Anon-3943" x="143.7" y="163.16" width="1.13" height="4.71"/><rect class="Anon-3943" x="143.7" y="158.15" width="1.13" height="5.01"/><polygon class="Anon-3943" points="143.7 158.15 143.7 163.16 118.03 163.16 118.03 158.15 121.4 158.15 121.4 161.32 142.06 161.32 142.06 158.15 143.7 158.15"/><rect class="Anon-3943" x="121.4" y="158.15" width="20.66" height="3.17"/><rect class="Anon-3943" x="121.4" y="153.75" width="20.66" height="4.4"/><rect class="Anon-3943" x="118.03" y="209.19" width="8.08" height="38.31"/><rect class="Anon-3943" x="114.65" y="209.19" width="3.38" height="38.31"/><rect class="Anon-3943" x="106.27" y="209.19" width="8.38" height="38.31"/><polygon class="Anon-3943" points="114.65 184.44 114.65 209.19 106.27 209.19 89.56 209.19 89.56 190.68 113.12 190.68 113.12 184.44 114.65 184.44"/><rect class="Anon-3943" x="89.56" y="184.44" width="23.56" height="6.24"/><polygon class="Anon-3943" points="113.12 180.25 113.12 184.44 89.56 184.44 89.56 180.25 91.74 180.25 91.74 183.31 108.31 183.31 108.31 180.25 113.12 180.25"/><rect class="Anon-3943" x="91.74" y="180.25" width="16.57" height="3.06"/><polygon class="Anon-3943" points="108.31 176.15 108.31 180.25 91.74 180.25 91.74 176.15 96.24 176.15 96.24 177.48 101.36 177.48 101.36 176.15 108.31 176.15"/><rect class="Anon-3943" x="89.56" y="209.19" width="16.71" height="38.31"/><rect class="Anon-3943" x="96.24" y="176.15" width="5.12" height="1.33"/><rect class="Anon-3943" x="96.24" y="173.6" width="5.12" height="2.55"/><rect class="Anon-3943" x="77.83" y="209.19" width="11.73" height="38.31"/><polygon class="Anon-3943" points="89.56 190.68 89.56 209.19 77.83 209.19 77.83 184.44 86.32 184.44 86.32 190.68 89.56 190.68"/><rect class="Anon-3943" x="86.32" y="184.44" width="3.24" height="6.24"/><rect class="Anon-3943" x="86.32" y="180.25" width="3.24" height="4.19"/><path class="Anon-3943" d="M89.56,115.43v64.82H86.32v4.19H77.83v24.75H48.37V115.43h2.19v7H81.92v-7Zm-8.63,46.1v-5.32H70.6v5.32Zm0-10.23V146H70.6v5.32Zm0-10.23v-5.32H70.6v5.32Zm0-10.23v-5.32H70.6v5.32Zm-13.6,30.69v-5.32H57v5.32Zm0-10.23V146H57v5.32Zm0-10.23v-5.32H57v5.32Zm0-10.23v-5.32H57v5.32Z"/><polygon class="Anon-3943" points="81.92 115.43 81.92 122.46 50.56 122.46 50.56 115.43 54.92 115.43 54.92 117.65 70.74 117.65 70.74 115.43 81.92 115.43"/><rect class="Anon-3943" x="70.74" y="112.84" width="11.18" height="2.59"/><rect class="Anon-3943" x="48.37" y="209.19" width="29.46" height="38.31"/><rect class="Anon-3943" x="54.92" y="115.43" width="15.82" height="2.22"/><rect class="Anon-3943" x="54.92" y="112.84" width="15.82" height="2.59"/><rect class="Anon-3943" x="54.92" y="110.18" width="15.82" height="2.66"/><rect class="Anon-3943" x="50.56" y="112.84" width="4.36" height="2.59"/><rect class="Anon-3943" x="34.67" y="209.19" width="13.7" height="38.31"/><rect class="Anon-3943" x="7.41" y="209.19" width="27.26" height="38.31"/><polygon class="Anon-3943" points="34.67 163.16 34.67 209.19 7.41 209.19 7.41 247.5 0 247.5 0 170.43 26.8 170.43 26.8 167.87 30.68 167.87 30.68 163.16 34.67 163.16"/><rect class="Anon-3943" x="26.8" y="163.16" width="3.88" height="4.71"/><polygon class="Anon-3943" points="30.68 153.75 30.68 163.16 26.8 163.16 26.8 158.15 25.67 158.15 25.67 153.75 30.68 153.75"/><polygon class="Anon-3943" points="26.8 167.87 26.8 170.43 0 170.43 0 163.16 25.67 163.16 25.67 167.87 26.8 167.87"/><rect class="Anon-3943" x="25.67" y="163.16" width="1.13" height="4.71"/><rect class="Anon-3943" x="25.67" y="158.15" width="1.13" height="5.01"/><polygon class="Anon-3943" points="25.67 158.15 25.67 163.16 0 163.16 0 158.15 3.38 158.15 3.38 161.32 24.04 161.32 24.04 158.15 25.67 158.15"/><rect class="Anon-3943" x="3.38" y="158.15" width="20.66" height="3.17"/><rect class="Anon-3943" x="3.38" y="153.75" width="20.66" height="4.4"/></symbol></defs><title>buildings2</title><g id="Layer_2" data-name="Layer 2"><g id="texts"><use width="1544.16" height="247.5" xlink:href="#ciudadgris"/></g></g></svg>