<svg xmlns="http://www.w3.org/2000/svg" viewBox="0 0 1563.88 294.97"><defs><style>.cls-1{fill:#595959;}.cls-2{fill:none;stroke:#fff;stroke-miterlimit:10;stroke-width:5px;}</style></defs><title>buildings</title><g id="Layer_2" data-name="Layer 2"><g id="texts"><polygon class="cls-1" points="1563.88 170.4 1563.88 247.47 1556.47 247.47 1556.47 209.16 1529.21 209.16 1529.21 163.13 1533.2 163.13 1533.2 167.84 1537.08 167.84 1537.08 170.4 1563.88 170.4"/><polygon class="cls-1" points="1563.88 163.13 1563.88 170.4 1537.08 170.4 1537.08 167.84 1538.21 167.84 1538.21 163.13 1563.88 163.13"/><polygon class="cls-1" points="1563.88 158.12 1563.88 163.13 1538.21 163.13 1538.21 158.12 1539.84 158.12 1539.84 161.29 1560.5 161.29 1560.5 158.12 1563.88 158.12"/><rect class="cls-1" x="1539.84" y="158.12" width="20.66" height="3.17"/><rect class="cls-1" x="1539.84" y="153.72" width="20.66" height="4.4"/><rect class="cls-1" x="1529.21" y="209.16" width="27.26" height="38.31"/><rect class="cls-1" x="1537.08" y="163.13" width="1.13" height="4.71"/><rect class="cls-1" x="1537.08" y="158.12" width="1.13" height="5.01"/><polygon class="cls-1" points="1538.21 153.72 1538.21 158.12 1537.08 158.12 1537.08 163.13 1533.2 163.13 1533.2 153.72 1538.21 153.72"/><rect class="cls-1" x="1533.2" y="163.13" width="3.88" height="4.71"/><rect class="cls-1" x="1515.51" y="209.16" width="13.7" height="38.31"/><rect class="cls-1" x="1486.05" y="209.16" width="29.46" height="38.31"/><path class="cls-1" d="M1515.76,115.65v93.76H1486.3V184.66h-8.49v-4.19h-3.24V115.65h7.64v7h31.36v-7Zm-8.63,46.1v-5.32H1496.8v5.32Zm0-10.23V146.2H1496.8v5.32Zm0-10.23V136H1496.8v5.32Zm0-10.23v-5.32H1496.8v5.32Zm-13.6,30.69v-5.32H1483.2v5.32Zm0-10.23V146.2H1483.2v5.32Zm0-10.23V136H1483.2v5.32Zm0-10.23v-5.32H1483.2v5.32Z" transform="translate(-0.25 -0.25)"/><polygon class="cls-1" points="1513.32 115.4 1513.32 122.43 1481.96 122.43 1481.96 115.4 1493.14 115.4 1493.14 117.62 1508.96 117.62 1508.96 115.4 1513.32 115.4"/><rect class="cls-1" x="1508.96" y="112.81" width="4.36" height="2.59"/><rect class="cls-1" x="1493.14" y="115.4" width="15.82" height="2.22"/><rect class="cls-1" x="1493.14" y="112.81" width="15.82" height="2.59"/><rect class="cls-1" x="1493.14" y="110.15" width="15.82" height="2.66"/><rect class="cls-1" x="1481.96" y="112.81" width="11.18" height="2.59"/><rect class="cls-1" x="1474.32" y="209.16" width="11.73" height="38.31"/><polygon class="cls-1" points="1486.05 184.41 1486.05 209.16 1474.32 209.16 1474.32 190.65 1477.56 190.65 1477.56 184.41 1486.05 184.41"/><rect class="cls-1" x="1474.32" y="184.41" width="3.24" height="6.24"/><rect class="cls-1" x="1474.32" y="180.22" width="3.24" height="4.19"/><rect class="cls-1" x="1457.61" y="209.16" width="16.71" height="38.31"/><polygon class="cls-1" points="1474.32 190.65 1474.32 209.16 1457.61 209.16 1449.23 209.16 1449.23 184.41 1450.76 184.41 1450.76 190.65 1474.32 190.65"/><rect class="cls-1" x="1450.76" y="184.41" width="23.56" height="6.24"/><polygon class="cls-1" points="1474.32 180.22 1474.32 184.41 1450.76 184.41 1450.76 180.22 1455.57 180.22 1455.57 183.28 1472.14 183.28 1472.14 180.22 1474.32 180.22"/><rect class="cls-1" x="1455.57" y="180.22" width="16.57" height="3.06"/><polygon class="cls-1" points="1472.14 176.12 1472.14 180.22 1455.57 180.22 1455.57 176.12 1462.52 176.12 1462.52 177.45 1467.64 177.45 1467.64 176.12 1472.14 176.12"/><rect class="cls-1" x="1462.52" y="176.12" width="5.12" height="1.33"/><rect class="cls-1" x="1462.52" y="173.57" width="5.12" height="2.55"/><rect class="cls-1" x="1449.23" y="209.16" width="8.38" height="38.31"/><rect class="cls-1" x="1445.85" y="209.16" width="3.38" height="38.31"/><rect class="cls-1" x="1437.77" y="209.16" width="8.08" height="38.31"/><polygon class="cls-1" points="1445.85 170.4 1445.85 209.16 1437.77 209.16 1437.77 179.09 1411.18 179.09 1411.18 163.13 1415.17 163.13 1415.17 167.84 1419.05 167.84 1419.05 170.4 1445.85 170.4"/><polygon class="cls-1" points="1445.85 163.13 1445.85 170.4 1419.05 170.4 1419.05 167.84 1420.18 167.84 1420.18 163.13 1445.85 163.13"/><polygon class="cls-1" points="1445.85 158.12 1445.85 163.13 1420.18 163.13 1420.18 158.12 1421.82 158.12 1421.82 161.29 1442.48 161.29 1442.48 158.12 1445.85 158.12"/><rect class="cls-1" x="1421.82" y="158.12" width="20.66" height="3.17"/><rect class="cls-1" x="1421.82" y="153.72" width="20.66" height="4.4"/><polygon class="cls-1" points="1437.77 209.16 1437.77 247.47 1411.18 247.47 1411.18 240.51 1417.67 240.51 1417.67 209.16 1437.77 209.16"/><polygon class="cls-1" points="1437.77 179.09 1437.77 209.16 1417.67 209.16 1417.67 191.98 1412.81 191.98 1412.81 186.25 1415.17 186.25 1415.17 183.28 1411.18 183.28 1411.18 179.09 1437.77 179.09"/><rect class="cls-1" x="1419.05" y="163.13" width="1.13" height="4.71"/><rect class="cls-1" x="1419.05" y="158.12" width="1.13" height="5.01"/><polygon class="cls-1" points="1420.18 153.72 1420.18 158.12 1419.05 158.12 1419.05 163.13 1415.17 163.13 1415.17 153.72 1420.18 153.72"/><rect class="cls-1" x="1415.17" y="163.13" width="3.88" height="4.71"/><polygon class="cls-1" points="1417.67 209.16 1417.67 240.51 1411.18 240.51 1411.18 233.56 1412.81 233.56 1412.81 209.16 1417.67 209.16"/><rect class="cls-1" x="1412.81" y="191.98" width="4.86" height="17.18"/><polygon class="cls-1" points="1415.17 183.28 1415.17 186.25 1412.81 186.25 1412.81 184.77 1411.18 184.77 1411.18 183.28 1415.17 183.28"/><rect class="cls-1" x="1411.18" y="209.16" width="1.63" height="24.4"/><rect class="cls-1" x="1411.18" y="191.98" width="1.63" height="17.18"/><rect class="cls-1" x="1411.18" y="186.25" width="1.63" height="5.73"/><rect class="cls-1" x="1411.18" y="184.77" width="1.63" height="1.48"/><polygon class="cls-1" points="1411.18 240.51 1411.18 247.47 1401.91 247.47 1401.91 209.16 1403 209.16 1403 240.51 1411.18 240.51"/><polygon class="cls-1" points="1411.18 233.56 1411.18 240.51 1403 240.51 1403 209.16 1405.25 209.16 1405.25 233.56 1411.18 233.56"/><rect class="cls-1" x="1405.25" y="209.16" width="5.93" height="24.4"/><rect class="cls-1" x="1405.25" y="191.98" width="5.93" height="17.18"/><rect class="cls-1" x="1405.25" y="186.25" width="5.93" height="5.73"/><rect class="cls-1" x="1405.25" y="184.77" width="5.93" height="1.48"/><polygon class="cls-1" points="1411.18 183.28 1411.18 184.77 1405.25 184.77 1405.25 186.25 1403 186.25 1403 183.28 1411.18 183.28"/><polygon class="cls-1" points="1411.18 179.09 1411.18 183.28 1403 183.28 1403 186.25 1405.25 186.25 1405.25 191.98 1403 191.98 1403 209.16 1401.91 209.16 1401.91 179.09 1411.18 179.09"/><rect class="cls-1" x="1403" y="191.98" width="2.25" height="17.18"/><rect class="cls-1" x="1365.08" y="209.16" width="36.83" height="38.31"/><path class="cls-1" d="M1402.16,179.34v30.07h-36.83V179.34h6.45v5.32h10.33v-5.32h3.27v5.32h10.33v-5.32Zm-6.45,15.55v-5.32h-10.33v5.32Zm-13.6,0v-5.32h-10.33v5.32Z" transform="translate(-0.25 -0.25)"/><path class="cls-1" d="M1402.16,111.29v68.05h-36.83V111.29h2.46v11.39h4v.61h10.33v-.61h3.27v.61h10.33v-.61h4V111.29Zm-6.45,63.14v-5.32h-10.33v5.32Zm0-10.23v-5.32h-10.33v5.32Zm0-10.23v-5.31h-10.33V154Zm0-10.22v-5.32h-10.33v5.32Zm0-10.23V128.2h-10.33v5.32Zm-13.6,40.91v-5.32h-10.33v5.32Zm0-10.23v-5.32h-10.33v5.32Zm0-10.23v-5.31h-10.33V154Zm0-10.22v-5.32h-10.33v5.32Zm0-10.23V128.2h-10.33v5.32Z" transform="translate(-0.25 -0.25)"/><polygon class="cls-1" points="1399.45 111.04 1399.45 122.43 1395.46 122.43 1395.46 117.72 1385.13 117.72 1385.13 122.43 1381.86 122.43 1381.86 117.72 1371.53 117.72 1371.53 122.43 1367.54 122.43 1367.54 111.04 1371.53 111.04 1371.53 112.81 1381.86 112.81 1381.86 111.04 1385.13 111.04 1385.13 112.81 1395.46 112.81 1395.46 111.04 1399.45 111.04"/><polygon class="cls-1" points="1399.45 92.56 1399.45 111.04 1395.46 111.04 1395.46 107.49 1385.13 107.49 1385.13 111.04 1381.86 111.04 1381.86 107.49 1371.53 107.49 1371.53 111.04 1367.54 111.04 1367.54 92.56 1369.69 92.56 1369.69 102.58 1371.53 102.58 1381.86 102.58 1385.13 102.58 1395.46 102.58 1397.3 102.58 1397.3 92.56 1399.45 92.56"/><polygon class="cls-1" points="1397.3 92.56 1397.3 102.58 1395.46 102.58 1395.46 97.27 1395.1 97.27 1395.1 92.56 1397.3 92.56"/><rect class="cls-1" x="1395.1" y="87.65" width="2.2" height="4.91"/><polygon class="cls-1" points="1395.1 92.56 1395.1 97.27 1385.13 97.27 1385.13 99.82 1381.86 99.82 1381.86 97.27 1371.89 97.27 1371.89 92.56 1395.1 92.56"/><rect class="cls-1" x="1371.89" y="87.65" width="23.21" height="4.91"/><polygon class="cls-1" points="1395.1 76.6 1395.1 87.65 1371.89 87.65 1371.89 76.6 1375.82 76.6 1375.82 81.92 1391.17 81.92 1391.17 76.6 1395.1 76.6"/><polygon class="cls-1" points="1391.17 76.6 1391.17 81.92 1375.82 81.92 1375.82 76.6 1378.99 76.6 1378.99 79.06 1387.99 79.06 1387.99 76.6 1391.17 76.6"/><rect class="cls-1" x="1387.99" y="70.88" width="3.18" height="5.72"/><rect class="cls-1" x="1378.99" y="76.6" width="9" height="2.46"/><rect class="cls-1" x="1378.99" y="70.88" width="9" height="5.72"/><polygon class="cls-1" points="1387.99 43.26 1387.99 70.88 1378.99 70.88 1378.99 43.26 1381.76 43.26 1381.76 46.84 1385.23 46.84 1385.23 43.26 1387.99 43.26"/><rect class="cls-1" x="1385.23" y="38.04" width="2.76" height="1.95"/><rect class="cls-1" x="1381.76" y="43.26" width="3.47" height="3.58"/><rect class="cls-1" x="1381.76" y="39.99" width="3.47" height="3.27"/><rect class="cls-1" x="1381.76" y="38.04" width="3.47" height="1.95"/><rect class="cls-1" x="1381.76" width="3.47" height="38.04"/><rect class="cls-1" x="1381.86" y="99.82" width="3.27" height="2.76"/><rect class="cls-1" x="1378.99" y="38.04" width="2.77" height="1.95"/><rect class="cls-1" x="1375.82" y="70.88" width="3.17" height="5.72"/><polygon class="cls-1" points="1371.89 92.56 1371.89 97.27 1371.53 97.27 1371.53 102.58 1369.69 102.58 1369.69 92.56 1371.89 92.56"/><rect class="cls-1" x="1369.69" y="87.65" width="2.2" height="4.91"/><rect class="cls-1" x="1357.04" y="209.16" width="8.04" height="38.31"/><polygon class="cls-1" points="1365.08 179.09 1365.08 209.16 1357.04 209.16 1357.04 184.41 1352.4 184.41 1352.4 179.09 1365.08 179.09"/><rect class="cls-1" x="1352.4" y="209.16" width="4.64" height="38.31"/><rect class="cls-1" x="1352.4" y="184.41" width="4.64" height="24.75"/><rect class="cls-1" x="1339.26" y="209.16" width="13.14" height="38.31"/><polygon class="cls-1" points="1352.4 184.41 1352.4 209.16 1339.26 209.16 1339.26 190.65 1348.55 190.65 1348.55 184.41 1352.4 184.41"/><rect class="cls-1" x="1339.26" y="184.41" width="9.29" height="6.24"/><polygon class="cls-1" points="1348.55 180.22 1348.55 184.41 1339.26 184.41 1339.26 183.28 1343.13 183.28 1343.13 180.22 1348.55 180.22"/><rect class="cls-1" x="1339.26" y="180.22" width="3.87" height="3.06"/><rect class="cls-1" x="1339.26" y="176.12" width="3.87" height="4.1"/><rect class="cls-1" x="1320.22" y="209.16" width="19.04" height="38.31"/><polygon class="cls-1" points="1339.26 190.65 1339.26 209.16 1320.22 209.16 1320.22 184.41 1321.75 184.41 1321.75 190.65 1339.26 190.65"/><rect class="cls-1" x="1321.75" y="184.41" width="17.51" height="6.24"/><polygon class="cls-1" points="1339.26 183.28 1339.26 184.41 1321.75 184.41 1321.75 180.22 1326.56 180.22 1326.56 183.28 1339.26 183.28"/><rect class="cls-1" x="1326.56" y="180.22" width="12.7" height="3.06"/><polygon class="cls-1" points="1339.26 176.12 1339.26 180.22 1326.56 180.22 1326.56 176.12 1333.51 176.12 1333.51 177.45 1338.63 177.45 1338.63 176.12 1339.26 176.12"/><polygon class="cls-1" points="1339.26 111.9 1339.26 176.12 1338.63 176.12 1338.63 173.57 1333.51 173.57 1333.51 176.12 1326.56 176.12 1326.56 180.22 1321.75 180.22 1321.75 184.41 1320.22 184.41 1320.22 209.16 1308.44 209.16 1290.71 209.16 1290.71 127.95 1289.34 127.95 1289.34 111.9 1293.16 111.9 1293.16 119.08 1316.76 119.08 1316.76 111.9 1323.03 111.9 1323.03 116.11 1331.31 116.11 1331.31 111.9 1332.35 111.9 1332.35 116.11 1336.94 116.11 1336.94 111.9 1339.26 111.9"/><rect class="cls-1" x="1333.51" y="176.12" width="5.12" height="1.33"/><rect class="cls-1" x="1333.51" y="173.57" width="5.12" height="2.55"/><rect class="cls-1" x="1332.35" y="111.9" width="4.59" height="4.21"/><rect class="cls-1" x="1332.35" y="109.12" width="4.59" height="2.78"/><rect class="cls-1" x="1323.03" y="111.9" width="8.28" height="4.21"/><rect class="cls-1" x="1323.03" y="103.47" width="8.28" height="8.43"/><rect class="cls-1" x="1308.44" y="209.16" width="11.78" height="38.31"/><rect class="cls-1" x="1293.16" y="111.9" width="23.6" height="7.18"/><rect class="cls-1" x="1293.16" y="105.24" width="23.6" height="6.66"/><rect class="cls-1" x="1290.71" y="209.16" width="17.73" height="38.31"/><rect class="cls-1" x="1289.34" y="209.16" width="1.37" height="38.31"/><rect class="cls-1" x="1289.34" y="127.95" width="1.37" height="81.21"/><rect class="cls-1" x="1287.84" y="209.16" width="1.5" height="38.31"/><rect class="cls-1" x="1287.84" y="127.95" width="1.5" height="81.21"/><rect class="cls-1" x="1285.53" y="209.16" width="2.31" height="38.31"/><rect class="cls-1" x="1285.53" y="127.95" width="2.31" height="81.21"/><path class="cls-1" d="M1288.09,79.31V128.2h-2.31v81.21h-34.92V79.31h2.94v4.5h30.88v-4.5Zm-6.64,107.39v-5.31h-10.33v5.31Zm0-10.22v-5.32h-10.33v5.32Zm0-10.23v-5.32h-10.33v5.32Zm0-10.23V150.7h-10.33V156Zm0-10.23v-5.32h-10.33v5.32Zm0-10.23v-5.31h-10.33v5.31Zm0-10.22V120h-10.33v5.32Zm0-10.23v-5.32h-10.33v5.32Zm0-10.23V99.56h-10.33v5.32Zm0-10.23V89.33h-10.33v5.32Zm-13.61,92v-5.31h-10.33v5.31Zm0-10.22v-5.32h-10.33v5.32Zm0-10.23v-5.32h-10.33v5.32Zm0-10.23V150.7h-10.33V156Zm0-10.23v-5.32h-10.33v5.32Zm0-10.23v-5.31h-10.33v5.31Zm0-10.22V120h-10.33v5.32Zm0-10.23v-5.32h-10.33v5.32Zm0-10.23V99.56h-10.33v5.32Zm0-10.23V89.33h-10.33v5.32Z" transform="translate(-0.25 -0.25)"/><rect class="cls-1" x="1250.61" y="209.16" width="34.92" height="38.31"/><polygon class="cls-1" points="1284.43 79.06 1284.43 83.56 1253.55 83.56 1253.55 79.06 1259 79.06 1259 81.51 1284.16 81.51 1284.16 79.06 1284.43 79.06"/><rect class="cls-1" x="1284.16" y="76.26" width="0.27" height="2.8"/><rect class="cls-1" x="1259" y="79.06" width="25.16" height="2.45"/><rect class="cls-1" x="1259" y="76.26" width="25.16" height="2.8"/><polygon class="cls-1" points="1284.16 68.42 1284.16 76.26 1259 76.26 1259 66.17 1262.96 66.17 1262.96 68.42 1284.16 68.42"/><rect class="cls-1" x="1262.96" y="66.17" width="21.2" height="2.25"/><rect class="cls-1" x="1262.96" y="64.47" width="21.2" height="1.7"/><rect class="cls-1" x="1253.55" y="76.26" width="5.45" height="2.8"/><rect class="cls-1" x="1244.26" y="209.16" width="6.35" height="38.31"/><rect class="cls-1" x="1209.58" y="209.16" width="34.68" height="38.31"/><polygon class="cls-1" points="1244.26 170.4 1244.26 209.16 1209.58 209.16 1209.58 163.13 1213.57 163.13 1213.57 167.84 1217.46 167.84 1217.46 170.4 1244.26 170.4"/><polygon class="cls-1" points="1244.26 163.13 1244.26 170.4 1217.46 170.4 1217.46 167.84 1218.58 167.84 1218.58 163.13 1244.26 163.13"/><polygon class="cls-1" points="1244.26 158.12 1244.26 163.13 1218.58 163.13 1218.58 158.12 1220.22 158.12 1220.22 161.29 1240.88 161.29 1240.88 158.12 1244.26 158.12"/><rect class="cls-1" x="1220.22" y="158.12" width="20.66" height="3.17"/><rect class="cls-1" x="1220.22" y="153.72" width="20.66" height="4.4"/><rect class="cls-1" x="1217.46" y="163.13" width="1.12" height="4.71"/><rect class="cls-1" x="1217.46" y="158.12" width="1.12" height="5.01"/><polygon class="cls-1" points="1218.58 153.72 1218.58 158.12 1217.46 158.12 1217.46 163.13 1213.57 163.13 1213.57 153.72 1218.58 153.72"/><rect class="cls-1" x="1213.57" y="163.13" width="3.89" height="4.71"/><path class="cls-1" d="M1208.32,115.65V247.72h-29.46V184.66h-8.49v-4.19h-3.24V115.65h7.64v7h31.37v-7Zm-8.63,46.1v-5.32h-10.33v5.32Zm0-10.23V146.2h-10.33v5.32Zm0-10.23V136h-10.33v5.32Zm0-10.23v-5.32h-10.33v5.32Zm-13.6,30.69v-5.32h-10.33v5.32Zm0-10.23V146.2h-10.33v5.32Zm0-10.23V136h-10.33v5.32Zm0-10.23v-5.32h-10.33v5.32Z" transform="translate(-0.25 -0.25)"/><polygon class="cls-1" points="1205.89 115.4 1205.89 122.43 1174.52 122.43 1174.52 115.4 1185.7 115.4 1185.7 117.62 1201.52 117.62 1201.52 115.4 1205.89 115.4"/><rect class="cls-1" x="1201.52" y="112.81" width="4.37" height="2.59"/><rect class="cls-1" x="1185.7" y="115.4" width="15.82" height="2.22"/><rect class="cls-1" x="1185.7" y="112.81" width="15.82" height="2.59"/><rect class="cls-1" x="1185.7" y="110.15" width="15.82" height="2.66"/><rect class="cls-1" x="1174.52" y="112.81" width="11.18" height="2.59"/><polygon class="cls-1" points="1178.61 184.41 1178.61 247.47 1166.88 247.47 1166.88 190.65 1170.12 190.65 1170.12 184.41 1178.61 184.41"/><rect class="cls-1" x="1166.88" y="184.41" width="3.24" height="6.24"/><rect class="cls-1" x="1166.88" y="180.22" width="3.24" height="4.19"/><polygon class="cls-1" points="1166.88 190.65 1166.88 247.47 1141.83 247.47 1141.83 184.41 1143.32 184.41 1143.32 190.65 1166.88 190.65"/><rect class="cls-1" x="1143.32" y="184.41" width="23.56" height="6.24"/><polygon class="cls-1" points="1166.88 180.22 1166.88 184.41 1143.32 184.41 1143.32 180.22 1148.13 180.22 1148.13 183.28 1164.7 183.28 1164.7 180.22 1166.88 180.22"/><rect class="cls-1" x="1148.13" y="180.22" width="16.57" height="3.06"/><polygon class="cls-1" points="1164.7 176.12 1164.7 180.22 1148.13 180.22 1148.13 176.12 1155.09 176.12 1155.09 177.45 1160.2 177.45 1160.2 176.12 1164.7 176.12"/><rect class="cls-1" x="1155.09" y="176.12" width="5.11" height="1.33"/><rect class="cls-1" x="1155.09" y="173.57" width="5.11" height="2.55"/><rect class="cls-1" x="1141.79" y="184.41" width="0.04" height="63.06"/><path class="cls-1" d="M1142.08,111.29v73.37h0v63.06h-36.79V111.29h2.46v11.39h4v.61H1122v-.61h3.27v.61h10.33v-.61h4V111.29Zm-6.45,83.6v-5.32H1125.3v5.32Zm0-10.23v-5.32H1125.3v5.32Zm0-10.23v-5.32H1125.3v5.32Zm0-10.23v-5.32H1125.3v5.32Zm0-10.23v-5.31H1125.3V154Zm0-10.22v-5.32H1125.3v5.32Zm0-10.23V128.2H1125.3v5.32ZM1122,194.89v-5.32H1111.7v5.32Zm0-10.23v-5.32H1111.7v5.32Zm0-10.23v-5.32H1111.7v5.32Zm0-10.23v-5.32H1111.7v5.32Zm0-10.23v-5.31H1111.7V154Zm0-10.22v-5.32H1111.7v5.32Zm0-10.23V128.2H1111.7v5.32Z" transform="translate(-0.25 -0.25)"/><polygon class="cls-1" points="1139.37 111.04 1139.37 122.43 1135.38 122.43 1135.38 117.72 1125.05 117.72 1125.05 122.43 1121.78 122.43 1121.78 117.72 1111.45 117.72 1111.45 122.43 1107.46 122.43 1107.46 111.04 1111.45 111.04 1111.45 112.81 1121.78 112.81 1121.78 111.04 1125.05 111.04 1125.05 112.81 1135.38 112.81 1135.38 111.04 1139.37 111.04"/><polygon class="cls-1" points="1139.37 92.56 1139.37 111.04 1135.38 111.04 1135.38 107.49 1125.05 107.49 1125.05 111.04 1121.78 111.04 1121.78 107.49 1111.45 107.49 1111.45 111.04 1107.46 111.04 1107.46 92.56 1109.61 92.56 1109.61 102.58 1111.45 102.58 1121.78 102.58 1125.05 102.58 1135.38 102.58 1137.22 102.58 1137.22 92.56 1139.37 92.56"/><polygon class="cls-1" points="1137.22 92.56 1137.22 102.58 1135.38 102.58 1135.38 97.27 1135.02 97.27 1135.02 92.56 1137.22 92.56"/><rect class="cls-1" x="1135.02" y="87.65" width="2.2" height="4.91"/><polygon class="cls-1" points="1135.02 92.56 1135.02 97.27 1125.05 97.27 1125.05 99.82 1121.78 99.82 1121.78 97.27 1111.81 97.27 1111.81 92.56 1135.02 92.56"/><rect class="cls-1" x="1111.81" y="87.65" width="23.21" height="4.91"/><polygon class="cls-1" points="1135.02 76.6 1135.02 87.65 1111.81 87.65 1111.81 76.6 1115.74 76.6 1115.74 81.92 1131.09 81.92 1131.09 76.6 1135.02 76.6"/><rect class="cls-1" x="1115.74" y="76.6" width="15.35" height="5.32"/><rect class="cls-1" x="1115.74" y="70.88" width="15.35" height="5.72"/><rect class="cls-1" x="1121.78" y="99.82" width="3.27" height="2.76"/><polygon class="cls-1" points="1111.81 92.56 1111.81 97.27 1111.45 97.27 1111.45 102.58 1109.61 102.58 1109.61 92.56 1111.81 92.56"/><rect class="cls-1" x="1109.61" y="87.65" width="2.2" height="4.91"/><path class="cls-1" d="M459.13,116.46V252.89H422.34V189.83h0V116.46h2.46v11.39h4v.61h10.33v-.61h3.27v.61h10.33v-.61h4V116.46Zm-6.45,83.6v-5.32H442.35v5.32Zm0-10.23v-5.32H442.35v5.32Zm0-10.23v-5.32H442.35v5.32Zm0-10.23v-5.31H442.35v5.31Zm0-10.22v-5.32H442.35v5.32Zm0-10.23V143.6H442.35v5.32Zm0-10.23v-5.32H442.35v5.32Zm-13.6,61.37v-5.32H428.75v5.32Zm0-10.23v-5.32H428.75v5.32Zm0-10.23v-5.32H428.75v5.32Zm0-10.23v-5.31H428.75v5.31Zm0-10.22v-5.32H428.75v5.32Zm0-10.23V143.6H428.75v5.32Zm0-10.23v-5.32H428.75v5.32Z" transform="translate(-0.25 -0.25)"/><polygon class="cls-1" points="456.42 116.21 456.42 127.6 452.43 127.6 452.43 122.89 442.1 122.89 442.1 127.6 438.83 127.6 438.83 122.89 428.5 122.89 428.5 127.6 424.51 127.6 424.51 116.21 428.5 116.21 428.5 117.98 438.83 117.98 438.83 116.21 442.1 116.21 442.1 117.98 452.43 117.98 452.43 116.21 456.42 116.21"/><polygon class="cls-1" points="456.42 97.73 456.42 116.21 452.43 116.21 452.43 112.66 442.1 112.66 442.1 116.21 438.83 116.21 438.83 112.66 428.5 112.66 428.5 116.21 424.51 116.21 424.51 97.73 426.66 97.73 426.66 107.75 428.5 107.75 438.83 107.75 442.1 107.75 452.43 107.75 454.27 107.75 454.27 97.73 456.42 97.73"/><polygon class="cls-1" points="454.27 97.73 454.27 107.75 452.43 107.75 452.43 102.44 452.07 102.44 452.07 97.73 454.27 97.73"/><rect class="cls-1" x="452.07" y="92.82" width="2.2" height="4.91"/><polygon class="cls-1" points="452.07 97.73 452.07 102.44 442.1 102.44 442.1 104.99 438.83 104.99 438.83 102.44 428.86 102.44 428.86 97.73 452.07 97.73"/><rect class="cls-1" x="428.86" y="92.82" width="23.21" height="4.91"/><polygon class="cls-1" points="452.07 81.78 452.07 92.82 428.86 92.82 428.86 81.78 432.79 81.78 432.79 87.09 448.14 87.09 448.14 81.78 452.07 81.78"/><rect class="cls-1" x="432.79" y="81.78" width="15.35" height="5.31"/><rect class="cls-1" x="432.79" y="76.05" width="15.35" height="5.73"/><rect class="cls-1" x="438.83" y="104.99" width="3.27" height="2.76"/><polygon class="cls-1" points="428.86 97.73 428.86 102.44 428.5 102.44 428.5 107.75 426.66 107.75 426.66 97.73 428.86 97.73"/><rect class="cls-1" x="426.66" y="92.82" width="2.2" height="4.91"/><rect class="cls-1" x="422.05" y="189.58" width="0.04" height="63.06"/><polygon class="cls-1" points="422.05 189.58 422.05 252.64 397 252.64 397 195.82 420.56 195.82 420.56 189.58 422.05 189.58"/><rect class="cls-1" x="397" y="189.58" width="23.56" height="6.24"/><polygon class="cls-1" points="420.56 185.39 420.56 189.58 397 189.58 397 185.39 399.18 185.39 399.18 188.45 415.75 188.45 415.75 185.39 420.56 185.39"/><rect class="cls-1" x="399.18" y="185.39" width="16.57" height="3.06"/><rect class="cls-1" x="399.18" y="181.3" width="16.57" height="4.09"/><polygon class="cls-1" points="397 195.82 397 252.64 385.27 252.64 385.27 189.58 393.76 189.58 393.76 195.82 397 195.82"/><rect class="cls-1" x="393.76" y="189.58" width="3.24" height="6.24"/><rect class="cls-1" x="393.76" y="185.39" width="3.24" height="4.19"/><path class="cls-1" d="M397.25,120.82v64.82H394v4.19h-8.49v63.06H356.06V120.82h2.18v7h31.37v-7Zm-8.63,46.1V161.6H378.29v5.32Zm0-10.23v-5.32H378.29v5.32Zm0-10.23v-5.32H378.29v5.32Zm0-10.23v-5.31H378.29v5.31ZM375,166.92V161.6H364.69v5.32Zm0-10.23v-5.32H364.69v5.32Zm0-10.23v-5.32H364.69v5.32Zm0-10.23v-5.31H364.69v5.31Z" transform="translate(-0.25 -0.25)"/><polygon class="cls-1" points="389.36 120.57 389.36 127.6 357.99 127.6 357.99 120.57 362.36 120.57 362.36 122.79 378.18 122.79 378.18 120.57 389.36 120.57"/><rect class="cls-1" x="378.18" y="117.98" width="11.18" height="2.59"/><rect class="cls-1" x="362.36" y="120.57" width="15.82" height="2.22"/><rect class="cls-1" x="362.36" y="117.98" width="15.82" height="2.59"/><rect class="cls-1" x="362.36" y="115.32" width="15.82" height="2.66"/><rect class="cls-1" x="357.99" y="117.98" width="4.37" height="2.59"/><rect class="cls-1" x="319.62" y="214.33" width="34.68" height="38.31"/><polygon class="cls-1" points="354.3 168.31 354.3 214.33 319.62 214.33 319.62 175.57 346.42 175.57 346.42 173.01 350.31 173.01 350.31 168.31 354.3 168.31"/><rect class="cls-1" x="346.42" y="168.31" width="3.89" height="4.7"/><polygon class="cls-1" points="350.31 158.9 350.31 168.31 346.42 168.31 346.42 163.29 345.3 163.29 345.3 158.9 350.31 158.9"/><polygon class="cls-1" points="346.42 173.01 346.42 175.57 319.62 175.57 319.62 168.31 345.3 168.31 345.3 173.01 346.42 173.01"/><rect class="cls-1" x="345.3" y="168.31" width="1.12" height="4.7"/><rect class="cls-1" x="345.3" y="163.29" width="1.12" height="5.02"/><polygon class="cls-1" points="345.3 163.29 345.3 168.31 319.62 168.31 319.62 163.29 323 163.29 323 166.46 343.66 166.46 343.66 163.29 345.3 163.29"/><rect class="cls-1" x="323" y="163.29" width="20.66" height="3.17"/><rect class="cls-1" x="323" y="158.9" width="20.66" height="4.39"/><rect class="cls-1" x="313.27" y="214.33" width="6.35" height="38.31"/><rect class="cls-1" x="278.35" y="214.33" width="34.92" height="38.31"/><path class="cls-1" d="M313.52,84.48v130.1H278.6V133.37h-2.31V84.48h3.4V89h30.89v-4.5Zm-6.65,107.4v-5.32H296.54v5.32Zm0-10.23v-5.32H296.54v5.32Zm0-10.23V166.1H296.54v5.32Zm0-10.23v-5.32H296.54v5.32Zm0-10.23v-5.32H296.54V151Zm0-10.23v-5.31H296.54v5.31Zm0-10.22v-5.32H296.54v5.32Zm0-10.23V115H296.54v5.32Zm0-10.23v-5.32H296.54v5.32Zm0-10.23V94.5H296.54v5.32Zm-13.61,92.06v-5.32H282.93v5.32Zm0-10.23v-5.32H282.93v5.32Zm0-10.23V166.1H282.93v5.32Zm0-10.23v-5.32H282.93v5.32Zm0-10.23v-5.32H282.93V151Zm0-10.23v-5.31H282.93v5.31Zm0-10.22v-5.32H282.93v5.32Zm0-10.23V115H282.93v5.32Zm0-10.23v-5.32H282.93v5.32Zm0-10.23V94.5H282.93v5.32Z" transform="translate(-0.25 -0.25)"/><polygon class="cls-1" points="310.33 84.23 310.33 88.73 279.44 88.73 279.44 84.23 279.72 84.23 279.72 86.68 304.88 86.68 304.88 84.23 310.33 84.23"/><rect class="cls-1" x="304.88" y="81.43" width="5.45" height="2.8"/><rect class="cls-1" x="279.72" y="84.23" width="25.16" height="2.45"/><rect class="cls-1" x="279.72" y="81.43" width="25.16" height="2.8"/><polygon class="cls-1" points="304.88 71.34 304.88 81.43 279.72 81.43 279.72 73.59 300.92 73.59 300.92 71.34 304.88 71.34"/><rect class="cls-1" x="279.72" y="71.34" width="21.2" height="2.25"/><rect class="cls-1" x="279.72" y="69.64" width="21.2" height="1.7"/><rect class="cls-1" x="279.44" y="81.43" width="0.28" height="2.8"/><rect class="cls-1" x="276.04" y="214.33" width="2.31" height="38.31"/><rect class="cls-1" x="276.04" y="133.12" width="2.31" height="81.21"/><rect class="cls-1" x="274.54" y="214.33" width="1.5" height="38.31"/><rect class="cls-1" x="274.54" y="133.12" width="1.5" height="81.21"/><rect class="cls-1" x="273.17" y="214.33" width="1.37" height="38.31"/><rect class="cls-1" x="273.17" y="133.12" width="1.37" height="81.21"/><polygon class="cls-1" points="274.54 117.07 274.54 133.12 273.17 133.12 273.17 214.33 255.44 214.33 243.66 214.33 243.66 189.58 242.13 189.58 242.13 185.39 237.32 185.39 237.32 181.3 230.37 181.3 230.37 178.74 225.25 178.74 225.25 181.3 224.62 181.3 224.62 117.07 226.94 117.07 226.94 121.28 231.53 121.28 231.53 117.07 232.57 117.07 232.57 121.28 240.85 121.28 240.85 117.07 247.12 117.07 247.12 124.25 270.72 124.25 270.72 117.07 274.54 117.07"/><rect class="cls-1" x="255.44" y="214.33" width="17.73" height="38.31"/><rect class="cls-1" x="247.12" y="117.07" width="23.6" height="7.18"/><rect class="cls-1" x="247.12" y="110.41" width="23.6" height="6.66"/><rect class="cls-1" x="243.66" y="214.33" width="11.78" height="38.31"/><rect class="cls-1" x="224.62" y="214.33" width="19.04" height="38.31"/><polygon class="cls-1" points="243.66 189.58 243.66 214.33 224.62 214.33 224.62 195.82 242.13 195.82 242.13 189.58 243.66 189.58"/><rect class="cls-1" x="224.62" y="189.58" width="17.51" height="6.24"/><polygon class="cls-1" points="242.13 185.39 242.13 189.58 224.62 189.58 224.62 188.45 237.32 188.45 237.32 185.39 242.13 185.39"/><rect class="cls-1" x="232.57" y="117.07" width="8.28" height="4.21"/><rect class="cls-1" x="232.57" y="108.64" width="8.28" height="8.43"/><rect class="cls-1" x="224.62" y="185.39" width="12.7" height="3.06"/><polygon class="cls-1" points="237.32 181.3 237.32 185.39 224.62 185.39 224.62 181.3 225.25 181.3 225.25 182.62 230.37 182.62 230.37 181.3 237.32 181.3"/><rect class="cls-1" x="226.94" y="117.07" width="4.59" height="4.21"/><rect class="cls-1" x="226.94" y="114.29" width="4.59" height="2.78"/><rect class="cls-1" x="225.25" y="181.3" width="5.12" height="1.32"/><rect class="cls-1" x="225.25" y="178.74" width="5.12" height="2.56"/><rect class="cls-1" x="211.48" y="214.33" width="13.14" height="38.31"/><polygon class="cls-1" points="224.62 195.82 224.62 214.33 211.48 214.33 211.48 189.58 215.33 189.58 215.33 195.82 224.62 195.82"/><rect class="cls-1" x="215.33" y="189.58" width="9.29" height="6.24"/><polygon class="cls-1" points="224.62 188.45 224.62 189.58 215.33 189.58 215.33 185.39 220.75 185.39 220.75 188.45 224.62 188.45"/><rect class="cls-1" x="220.75" y="185.39" width="3.87" height="3.06"/><rect class="cls-1" x="220.75" y="181.3" width="3.87" height="4.09"/><rect class="cls-1" x="206.84" y="214.33" width="4.64" height="38.31"/><rect class="cls-1" x="206.84" y="189.58" width="4.64" height="24.75"/><polygon class="cls-1" points="211.48 184.26 211.48 189.58 206.84 189.58 206.84 214.33 198.8 214.33 198.8 184.26 211.48 184.26"/><rect class="cls-1" x="198.8" y="214.33" width="8.04" height="38.31"/><rect class="cls-1" x="161.97" y="214.33" width="36.83" height="38.31"/><path class="cls-1" d="M199,184.51v30.07H162.22V184.51h6.45v5.32H179v-5.32h3.27v5.32H192.6v-5.32Zm-6.45,15.55v-5.32H182.27v5.32Zm-13.6,0v-5.32H168.67v5.32Z" transform="translate(-0.25 -0.25)"/><path class="cls-1" d="M199,116.46v68.05H162.22v-68h2.46v11.39h4v.61H179v-.61h3.27v.61H192.6v-.61h4V116.46ZM192.6,179.6v-5.32H182.27v5.32Zm0-10.23v-5.31H182.27v5.31Zm0-10.22v-5.32H182.27v5.32Zm0-10.23V143.6H182.27v5.32Zm0-10.23v-5.32H182.27v5.32ZM179,179.6v-5.32H168.67v5.32Zm0-10.23v-5.31H168.67v5.31Zm0-10.22v-5.32H168.67v5.32Zm0-10.23V143.6H168.67v5.32Zm0-10.23v-5.32H168.67v5.32Z" transform="translate(-0.25 -0.25)"/><polygon class="cls-1" points="196.34 116.21 196.34 127.6 192.35 127.6 192.35 122.89 182.02 122.89 182.02 127.6 178.75 127.6 178.75 122.89 168.42 122.89 168.42 127.6 164.43 127.6 164.43 116.21 168.42 116.21 168.42 117.98 178.75 117.98 178.75 116.21 182.02 116.21 182.02 117.98 192.35 117.98 192.35 116.21 196.34 116.21"/><polygon class="cls-1" points="196.34 97.73 196.34 116.21 192.35 116.21 192.35 112.66 182.02 112.66 182.02 116.21 178.75 116.21 178.75 112.66 168.42 112.66 168.42 116.21 164.43 116.21 164.43 97.73 166.58 97.73 166.58 107.75 168.42 107.75 178.75 107.75 182.02 107.75 192.35 107.75 194.19 107.75 194.19 97.73 196.34 97.73"/><polygon class="cls-1" points="194.19 97.73 194.19 107.75 192.35 107.75 192.35 102.44 191.99 102.44 191.99 97.73 194.19 97.73"/><rect class="cls-1" x="191.99" y="92.82" width="2.2" height="4.91"/><polygon class="cls-1" points="191.99 97.73 191.99 102.44 182.02 102.44 182.02 104.99 178.75 104.99 178.75 102.44 168.78 102.44 168.78 97.73 191.99 97.73"/><rect class="cls-1" x="168.78" y="92.82" width="23.21" height="4.91"/><polygon class="cls-1" points="191.99 81.78 191.99 92.82 168.78 92.82 168.78 81.78 172.71 81.78 172.71 87.09 188.06 87.09 188.06 81.78 191.99 81.78"/><polygon class="cls-1" points="188.06 81.78 188.06 87.09 172.71 87.09 172.71 81.78 175.88 81.78 175.88 84.23 184.89 84.23 184.89 81.78 188.06 81.78"/><rect class="cls-1" x="184.89" y="76.05" width="3.17" height="5.73"/><rect class="cls-1" x="175.88" y="81.78" width="9.01" height="2.45"/><rect class="cls-1" x="175.88" y="76.05" width="9.01" height="5.73"/><polygon class="cls-1" points="184.89 48.43 184.89 76.05 175.88 76.05 175.88 48.43 178.65 48.43 178.65 52.01 182.12 52.01 182.12 48.43 184.89 48.43"/><rect class="cls-1" x="182.12" y="43.22" width="2.77" height="1.94"/><rect class="cls-1" x="178.65" y="48.43" width="3.47" height="3.58"/><rect class="cls-1" x="178.65" y="45.16" width="3.47" height="3.27"/><rect class="cls-1" x="178.65" y="43.22" width="3.47" height="1.94"/><rect class="cls-1" x="178.65" y="5.17" width="3.47" height="38.05"/><rect class="cls-1" x="178.75" y="104.99" width="3.27" height="2.76"/><rect class="cls-1" x="175.88" y="43.22" width="2.77" height="1.94"/><rect class="cls-1" x="172.71" y="76.05" width="3.17" height="5.73"/><polygon class="cls-1" points="168.78 97.73 168.78 102.44 168.42 102.44 168.42 107.75 166.58 107.75 166.58 97.73 168.78 97.73"/><rect class="cls-1" x="166.58" y="92.82" width="2.2" height="4.91"/><polygon class="cls-1" points="161.97 214.33 161.97 252.64 152.7 252.64 152.7 245.69 160.88 245.69 160.88 214.33 161.97 214.33"/><polygon class="cls-1" points="161.97 184.26 161.97 214.33 160.88 214.33 160.88 197.15 158.63 197.15 158.63 191.42 160.88 191.42 160.88 188.45 152.7 188.45 152.7 184.26 161.97 184.26"/><polygon class="cls-1" points="160.88 214.33 160.88 245.69 152.7 245.69 152.7 238.73 158.63 238.73 158.63 214.33 160.88 214.33"/><rect class="cls-1" x="158.63" y="197.15" width="2.25" height="17.18"/><polygon class="cls-1" points="160.88 188.45 160.88 191.42 158.63 191.42 158.63 189.94 152.7 189.94 152.7 188.45 160.88 188.45"/><rect class="cls-1" x="152.7" y="214.33" width="5.93" height="24.4"/><rect class="cls-1" x="152.7" y="197.15" width="5.93" height="17.18"/><rect class="cls-1" x="152.7" y="191.42" width="5.93" height="5.73"/><rect class="cls-1" x="152.7" y="189.94" width="5.93" height="1.48"/><polygon class="cls-1" points="152.7 245.69 152.7 252.64 126.11 252.64 126.11 214.33 146.21 214.33 146.21 245.69 152.7 245.69"/><polygon class="cls-1" points="152.7 238.73 152.7 245.69 146.21 245.69 146.21 214.33 151.06 214.33 151.06 238.73 152.7 238.73"/><rect class="cls-1" x="151.06" y="214.33" width="1.64" height="24.4"/><rect class="cls-1" x="151.06" y="197.15" width="1.64" height="17.18"/><rect class="cls-1" x="151.06" y="191.42" width="1.64" height="5.73"/><rect class="cls-1" x="151.06" y="189.94" width="1.64" height="1.48"/><polygon class="cls-1" points="152.7 188.45 152.7 189.94 151.06 189.94 151.06 191.42 148.71 191.42 148.71 188.45 152.7 188.45"/><polygon class="cls-1" points="152.7 184.26 152.7 188.45 148.71 188.45 148.71 191.42 151.06 191.42 151.06 197.15 146.21 197.15 146.21 214.33 126.11 214.33 126.11 184.26 152.7 184.26"/><polygon class="cls-1" points="152.7 168.31 152.7 184.26 126.11 184.26 126.11 214.33 118.03 214.33 118.03 175.57 144.83 175.57 144.83 173.01 148.71 173.01 148.71 168.31 152.7 168.31"/><rect class="cls-1" x="146.21" y="197.15" width="4.85" height="17.18"/><rect class="cls-1" x="144.83" y="168.31" width="3.88" height="4.7"/><polygon class="cls-1" points="148.71 158.9 148.71 168.31 144.83 168.31 144.83 163.29 143.7 163.29 143.7 158.9 148.71 158.9"/><polygon class="cls-1" points="144.83 173.01 144.83 175.57 118.03 175.57 118.03 168.31 143.7 168.31 143.7 173.01 144.83 173.01"/><rect class="cls-1" x="143.7" y="168.31" width="1.13" height="4.7"/><rect class="cls-1" x="143.7" y="163.29" width="1.13" height="5.02"/><polygon class="cls-1" points="143.7 163.29 143.7 168.31 118.03 168.31 118.03 163.29 121.4 163.29 121.4 166.46 142.06 166.46 142.06 163.29 143.7 163.29"/><rect class="cls-1" x="121.4" y="163.29" width="20.66" height="3.17"/><rect class="cls-1" x="121.4" y="158.9" width="20.66" height="4.39"/><rect class="cls-1" x="118.03" y="214.33" width="8.08" height="38.31"/><rect class="cls-1" x="114.65" y="214.33" width="3.38" height="38.31"/><rect class="cls-1" x="106.27" y="214.33" width="8.38" height="38.31"/><polygon class="cls-1" points="114.65 189.58 114.65 214.33 106.27 214.33 89.56 214.33 89.56 195.82 113.12 195.82 113.12 189.58 114.65 189.58"/><rect class="cls-1" x="89.56" y="189.58" width="23.56" height="6.24"/><polygon class="cls-1" points="113.12 185.39 113.12 189.58 89.56 189.58 89.56 185.39 91.74 185.39 91.74 188.45 108.31 188.45 108.31 185.39 113.12 185.39"/><rect class="cls-1" x="91.74" y="185.39" width="16.57" height="3.06"/><polygon class="cls-1" points="108.31 181.3 108.31 185.39 91.74 185.39 91.74 181.3 96.24 181.3 96.24 182.62 101.36 182.62 101.36 181.3 108.31 181.3"/><rect class="cls-1" x="89.56" y="214.33" width="16.71" height="38.31"/><rect class="cls-1" x="96.24" y="181.3" width="5.12" height="1.32"/><rect class="cls-1" x="96.24" y="178.74" width="5.12" height="2.56"/><rect class="cls-1" x="77.83" y="214.33" width="11.73" height="38.31"/><polygon class="cls-1" points="89.56 195.82 89.56 214.33 77.83 214.33 77.83 189.58 86.32 189.58 86.32 195.82 89.56 195.82"/><rect class="cls-1" x="86.32" y="189.58" width="3.24" height="6.24"/><rect class="cls-1" x="86.32" y="185.39" width="3.24" height="4.19"/><path class="cls-1" d="M89.81,120.82v64.82H86.57v4.19H78.08v24.75H48.62V120.82h2.19v7H82.17v-7Zm-8.63,46.1V161.6H70.85v5.32Zm0-10.23v-5.32H70.85v5.32Zm0-10.23v-5.32H70.85v5.32Zm0-10.23v-5.31H70.85v5.31Zm-13.6,30.69V161.6H57.25v5.32Zm0-10.23v-5.32H57.25v5.32Zm0-10.23v-5.32H57.25v5.32Zm0-10.23v-5.31H57.25v5.31Z" transform="translate(-0.25 -0.25)"/><polygon class="cls-1" points="81.92 120.57 81.92 127.6 50.56 127.6 50.56 120.57 54.92 120.57 54.92 122.79 70.74 122.79 70.74 120.57 81.92 120.57"/><rect class="cls-1" x="70.74" y="117.98" width="11.18" height="2.59"/><rect class="cls-1" x="48.37" y="214.33" width="29.46" height="38.31"/><rect class="cls-1" x="54.92" y="120.57" width="15.82" height="2.22"/><rect class="cls-1" x="54.92" y="117.98" width="15.82" height="2.59"/><rect class="cls-1" x="54.92" y="115.32" width="15.82" height="2.66"/><rect class="cls-1" x="50.56" y="117.98" width="4.36" height="2.59"/><rect class="cls-1" x="34.67" y="214.33" width="13.7" height="38.31"/><rect class="cls-1" x="7.41" y="214.33" width="27.26" height="38.31"/><polygon class="cls-1" points="34.67 168.31 34.67 214.33 7.41 214.33 7.41 252.64 0 252.64 0 175.57 26.8 175.57 26.8 173.01 30.68 173.01 30.68 168.31 34.67 168.31"/><rect class="cls-1" x="26.8" y="168.31" width="3.88" height="4.7"/><polygon class="cls-1" points="30.68 158.9 30.68 168.31 26.8 168.31 26.8 163.29 25.67 163.29 25.67 158.9 30.68 158.9"/><polygon class="cls-1" points="26.8 173.01 26.8 175.57 0 175.57 0 168.31 25.67 168.31 25.67 173.01 26.8 173.01"/><rect class="cls-1" x="25.67" y="168.31" width="1.13" height="4.7"/><rect class="cls-1" x="25.67" y="163.29" width="1.13" height="5.02"/><polygon class="cls-1" points="25.67 163.29 25.67 168.31 0 168.31 0 163.29 3.38 163.29 3.38 166.46 24.04 166.46 24.04 163.29 25.67 163.29"/><rect class="cls-1" x="3.38" y="163.29" width="20.66" height="3.17"/><rect class="cls-1" x="3.38" y="158.9" width="20.66" height="4.39"/><polyline class="cls-2" points="1316.8 227.47 1316.8 292.47 1251.8 292.47"/></g></g></svg>