<svg xmlns="http://www.w3.org/2000/svg" viewBox="0 0 364.15 196.33"><defs><style>.cls-1,.cls-3,.cls-7{fill:#767676;}.cls-2{fill:#fff;}.cls-3,.cls-7,.cls-8{stroke:#fff;stroke-linejoin:round;stroke-width:2px;}.cls-3{stroke-linecap:round;}.cls-4{font-size:23.5px;}.cls-4,.cls-6{fill:#f2f2f2;font-family:ArialMT, Arial;}.cls-5{letter-spacing:-0.02em;}.cls-6{font-size:20.36px;}.cls-8{fill:none;}</style></defs><title>buy-sale</title><g id="Layer_2" data-name="Layer 2"><g id="texts"><path class="cls-1" d="M69.89,195.33a2.08,2.08,0,0,1-.91-.21A10.81,10.81,0,0,0,64.42,194a7.13,7.13,0,0,0-.92.06l-.24,0a6.64,6.64,0,0,1-1,.09,2.62,2.62,0,0,1-1.54-.45,2.83,2.83,0,0,1-1.13-2,9.15,9.15,0,0,1,0-2.1c0-.27,0-.54.06-.79l.12-2.85,1.53-38.7-15.27-33A1,1,0,0,1,46,114a8.44,8.44,0,0,1,0-1.25,7.89,7.89,0,0,1,7.87-7.44h.46a7.9,7.9,0,0,1,7.43,8.15l10,33.19a1,1,0,0,1,0,.32v.46l-5.34,41.3a16.36,16.36,0,0,1,3.23,1.67l.23.15c.82.54,2.75,1.79,1.89,3.59A2.11,2.11,0,0,1,69.89,195.33Z"/><path class="cls-2" d="M53.84,106.32h.4a6.89,6.89,0,0,1,6.48,7.27L70.77,147v.46l-5.44,42a16.17,16.17,0,0,1,3.77,1.84c.74.5,2.32,1.36,1.78,2.48a1.09,1.09,0,0,1-1.46.51,11.8,11.8,0,0,0-5-1.23,8.11,8.11,0,0,0-1.05.07,8.35,8.35,0,0,1-1.07.11,1.66,1.66,0,0,1-1-.27,1.84,1.84,0,0,1-.71-1.27,15.44,15.44,0,0,1,.08-2.72c0-.95.08-1.9.12-2.85l.27-6.86.33-8.4.34-8.69.31-7.74.22-5.56.07-1.68h0v-.46l0,.45L47,113.91a7.52,7.52,0,0,1,0-1.1,6.89,6.89,0,0,1,6.87-6.49m0-2A8.89,8.89,0,0,0,45,112.7a9.46,9.46,0,0,0,0,1.4,2,2,0,0,0,.18.65l15.17,32.79,0,1.2-.11,2.78-.11,2.78-.15,3.84L59.77,162l-.17,4.35-.17,4.35-.17,4.2-.17,4.2-.26,6.61V186q0,.67-.06,1.34t-.06,1.51c0,.24,0,.49-.05.74a10.08,10.08,0,0,0,0,2.34,3.83,3.83,0,0,0,1.56,2.63,3.64,3.64,0,0,0,2.1.62,7.57,7.57,0,0,0,1.1-.1l.22,0a6.09,6.09,0,0,1,.79-.05,9.79,9.79,0,0,1,4.12,1,3.09,3.09,0,0,0,4.13-1.44c1.25-2.59-1.38-4.3-2.24-4.86l-.22-.14a16.68,16.68,0,0,0-2.7-1.47l5.24-40.44c0-.06,0-.13,0-.19V147a2,2,0,0,0-.08-.64l-10-33a8.89,8.89,0,0,0-8.38-9l-.52,0Z"/><path class="cls-1" d="M96.56,73.11l-.47,0L65,69.5a7.16,7.16,0,0,1-.88-.17,6.51,6.51,0,1,1,3.26-12.61l27,7L126.51,67,130,63.2a1.88,1.88,0,0,1,1.37-.6,1.87,1.87,0,0,1,1.53,3L130,69.69a1,1,0,0,1-1.63,0l-28,.89A4.11,4.11,0,0,1,96.56,73.11Z"/><path class="cls-2" d="M65.72,57.52a5.53,5.53,0,0,1,1.38.18l27.09,7L127.07,68l.06-.16a.82.82,0,0,1,.17-.28l3.45-3.7A.87.87,0,0,1,132.1,65l-2.93,4.13.23-.45-29.8.94a3.11,3.11,0,0,1-3,2.51l-.36,0L95.73,72,65.1,68.51a6.07,6.07,0,0,1-.75-.14,5.51,5.51,0,0,1,1.37-10.85m0-2A7.51,7.51,0,0,0,63.85,70.3a8.18,8.18,0,0,0,1,.19L95.5,74l.47.05a5.09,5.09,0,0,0,5-2.52l27-.85.16.11a2,2,0,0,0,2.67-.55l2.93-4.13a2.87,2.87,0,0,0-4.44-3.62l-3.18,3.41-31.57-3.2-26.94-7a7.54,7.54,0,0,0-1.88-.24Z"/><path class="cls-1" d="M43.33,124.35c-8.67,0-13.85-4.56-13.85-12.2,0-4.59,8.93-21.82,19.73-42.2,3.46-6.54,6.45-12.18,8.07-15.54.14-.3.78-2.3,1.31-4.06a1,1,0,0,1,1-.71h3.76a1,1,0,0,1,1,1.12,13.31,13.31,0,0,0,0,3.92l.32,0a1.1,1.1,0,0,1,1.06.65c3.86,9-1.58,29.2-5.56,43.92-1.6,5.93-3,11-3,12.92C57.18,119.79,52,124.35,43.33,124.35Z"/><path class="cls-2" d="M63.31,50.65h0m0,0s-.42,3.49.26,4.81a.55.55,0,0,0,.54.25c.21,0,.42,0,.55,0s.12,0,.14,0c5.39,12.61-8.62,50-8.62,56.44,0,7.82-5.75,11.2-12.85,11.2S30.49,120,30.49,112.15c0-6.64,22.11-45.65,27.7-57.31.25-.52,1.37-4.2,1.37-4.2h3.76m0-2H59.55a2,2,0,0,0-1.91,1.42c-.49,1.62-1.12,3.59-1.27,3.94-1.59,3.32-4.58,9-8,15.49-11.24,21.22-19.84,37.84-19.84,42.66,0,8.14,5.69,13.2,14.85,13.2s14.85-5.06,14.85-13.2c0-1.73,1.43-7,2.95-12.65,4-14.86,9.51-35.22,5.51-44.57a2.08,2.08,0,0,0-1.43-1.2A16.2,16.2,0,0,1,65.29,51a2,2,0,0,0-2-2.33Zm0,4h0Z"/><path class="cls-1" d="M61.3,49.9c-5.72,0-9.73-9.41-9.73-14.51a9.73,9.73,0,1,1,19.46,0C71,40.49,67,49.9,61.3,49.9Z"/><path class="cls-2" d="M61.3,26.67A8.73,8.73,0,0,1,70,35.39c0,4.82-3.91,13.51-8.73,13.51s-8.73-8.69-8.73-13.51a8.73,8.73,0,0,1,8.73-8.73m0-2A10.74,10.74,0,0,0,50.57,35.39c0,5.33,4.18,15.51,10.73,15.51S72,40.72,72,35.39A10.74,10.74,0,0,0,61.3,24.67Z"/><path class="cls-1" d="M10.13,193.74a3.67,3.67,0,0,1-2.46-1.47,5.76,5.76,0,0,0-.46-.45A9.19,9.19,0,0,0,3.87,190c-.84-.23-3.4-.93-2.77-3.57a7.69,7.69,0,0,1,.73-1.76c.1-.19.2-.39.29-.58.23-.49.45-1,.66-1.47l16.63-36.94,9.25-32a8.53,8.53,0,0,1,.44-1.18A7.93,7.93,0,0,1,36.24,108a7.89,7.89,0,0,1,7.13,11.26L29.11,149.48l-.17.39,0,.09-20.59,36a17.93,17.93,0,0,1,3.65,4.8,2.1,2.1,0,0,1-.47,2.48A2,2,0,0,1,10.13,193.74Z"/><path class="cls-2" d="M36.24,109a6.89,6.89,0,0,1,6.22,9.83L28.21,149.05l-.18.42L7,186.1a18.26,18.26,0,0,1,4,5.06,1.09,1.09,0,0,1-.24,1.29,1,1,0,0,1-.68.29c-.86,0-1.7-1.22-2.28-1.7a10.22,10.22,0,0,0-3.71-2c-1.24-.34-2.43-.84-2.06-2.38a11.72,11.72,0,0,1,1-2.14c.35-.75.68-1.52,1-2.28l2.77-6.15,3.48-7.74L14,160.26l3.29-7.3,2.37-5.27.73-1.63v0l.18-.42-.18.39L29.62,114a7.47,7.47,0,0,1,.39-1,6.89,6.89,0,0,1,6.23-4m0-2a8.93,8.93,0,0,0-8,5.1,9.46,9.46,0,0,0-.5,1.31l-9.23,31.95-.16.36-.51,1.14-2.37,5.27-3.29,7.3L10.3,163.5l-1.83,4.06-2.66,5.91L5,175.3l-1.38,3.07-1.38,3.07-.35.79c-.22.49-.43,1-.66,1.46-.08.18-.18.36-.27.54a8.51,8.51,0,0,0-.81,2C-.19,187.57-.16,190,3.61,191a8.21,8.21,0,0,1,3,1.6c.07.06.24.23.36.36a4.58,4.58,0,0,0,3.18,1.78,3,3,0,0,0,2-.81,3.11,3.11,0,0,0,.69-3.66,18.14,18.14,0,0,0-3.3-4.52l20.21-35.29.09-.19.17-.39L44.27,119.7a8.89,8.89,0,0,0-8-12.68Z"/><rect class="cls-1" x="96.15" y="1" width="267" height="167" rx="4" ry="4"/><path class="cls-2" d="M359.15,2a3,3,0,0,1,3,3V164a3,3,0,0,1-3,3h-259a3,3,0,0,1-3-3V5a3,3,0,0,1,3-3h259m0-2h-259a5,5,0,0,0-5,5V164a5,5,0,0,0,5,5h259a5,5,0,0,0,5-5V5a5,5,0,0,0-5-5Z"/><line class="cls-3" x1="97.15" y1="22" x2="362.15" y2="22"/><rect class="cls-1" x="153.65" y="6.08" width="202" height="11.84" rx="1" ry="1"/><path class="cls-2" d="M354.65,7.08v9.84h-200V7.08h200m0-2h-200a2,2,0,0,0-2,2v9.84a2,2,0,0,0,2,2h200a2,2,0,0,0,2-2V7.08a2,2,0,0,0-2-2Z"/><rect class="cls-1" x="313.65" y="6.08" width="42" height="11.84" rx="1" ry="1"/><path class="cls-2" d="M354.65,7.08v9.84h-40V7.08h40m0-2h-40a2,2,0,0,0-2,2v9.84a2,2,0,0,0,2,2h40a2,2,0,0,0,2-2V7.08a2,2,0,0,0-2-2Z"/><circle class="cls-1" cx="109.65" cy="12" r="6"/><path class="cls-2" d="M109.65,7a5,5,0,1,1-5,5,5,5,0,0,1,5-5m0-2a7,7,0,1,0,7,7,7,7,0,0,0-7-7Z"/><circle class="cls-1" cx="124.65" cy="12" r="6"/><path class="cls-2" d="M124.65,7a5,5,0,1,1-5,5,5,5,0,0,1,5-5m0-2a7,7,0,1,0,7,7,7,7,0,0,0-7-7Z"/><circle class="cls-1" cx="139.65" cy="12" r="6"/><path class="cls-2" d="M139.65,7a5,5,0,1,1-5,5,5,5,0,0,1,5-5m0-2a7,7,0,1,0,7,7,7,7,0,0,0-7-7Z"/><rect class="cls-1" x="141.15" y="28.5" width="38.5" height="22" rx="1" ry="1"/><path class="cls-2" d="M178.65,29.5v20h-36.5v-20h36.5m0-2h-36.5a2,2,0,0,0-2,2v20a2,2,0,0,0,2,2h36.5a2,2,0,0,0,2-2v-20a2,2,0,0,0-2-2Z"/><rect class="cls-1" x="261.15" y="33.5" width="12" height="12" rx="1" ry="1"/><path class="cls-2" d="M272.15,34.5v10h-10v-10h10m0-2h-10a2,2,0,0,0-2,2v10a2,2,0,0,0,2,2h10a2,2,0,0,0,2-2v-10a2,2,0,0,0-2-2Z"/><rect class="cls-1" x="141.15" y="98.5" width="39.4" height="14.5" rx="1" ry="1"/><path class="cls-2" d="M179.55,99.5V112h-37.4V99.5h37.4m0-2h-37.4a2,2,0,0,0-2,2V112a2,2,0,0,0,2,2h37.4a2,2,0,0,0,2-2V99.5a2,2,0,0,0-2-2Z"/><rect class="cls-1" x="178.65" y="98.5" width="42" height="14.5" rx="1" ry="1"/><path class="cls-2" d="M219.65,99.5V112h-40V99.5h40m0-2h-40a2,2,0,0,0-2,2V112a2,2,0,0,0,2,2h40a2,2,0,0,0,2-2V99.5a2,2,0,0,0-2-2Z"/><rect class="cls-1" x="218.65" y="98.5" width="34.5" height="14.5" rx="1" ry="1"/><path class="cls-2" d="M252.15,99.5V112h-32.5V99.5h32.5m0-2h-32.5a2,2,0,0,0-2,2V112a2,2,0,0,0,2,2h32.5a2,2,0,0,0,2-2V99.5a2,2,0,0,0-2-2Z"/><line class="cls-3" x1="142.15" y1="124.5" x2="181.97" y2="124.5"/><line class="cls-3" x1="279.65" y1="37" x2="302.15" y2="37"/><line class="cls-3" x1="279.65" y1="44.5" x2="319.47" y2="44.5"/><line class="cls-3" x1="142.15" y1="132" x2="252.15" y2="132"/><line class="cls-3" x1="142.15" y1="139.5" x2="252.15" y2="139.5"/><line class="cls-3" x1="142.15" y1="147" x2="252.15" y2="147"/><line class="cls-3" x1="142.15" y1="154.5" x2="252.15" y2="154.5"/><rect class="cls-1" x="263.65" y="98.5" width="59.5" height="62" rx="1" ry="1"/><path class="cls-2" d="M322.15,99.5v60h-57.5v-60h57.5m0-2h-57.5a2,2,0,0,0-2,2v60a2,2,0,0,0,2,2h57.5a2,2,0,0,0,2-2v-60a2,2,0,0,0-2-2Z"/><rect class="cls-1" x="141.15" y="56" width="182" height="34.5" rx="1" ry="1"/><path class="cls-2" d="M322.15,57V89.5h-180V57h180m0-2h-180a2,2,0,0,0-2,2V89.5a2,2,0,0,0,2,2h180a2,2,0,0,0,2-2V57a2,2,0,0,0-2-2Z"/><path class="cls-1" d="M156.24,80.27a1,1,0,0,1-.26,0A2.47,2.47,0,0,1,154.15,78v-.17a2.5,2.5,0,0,1,1.58-2.42,1,1,0,0,1,1.38.92c0,1,.06,2,.14,2.89a1,1,0,0,1-1,1.1Z"/><path class="cls-2" d="M156.09,76.29c0,1,.05,2,.15,3a1.48,1.48,0,0,1-1.09-1.36v-.17a1.5,1.5,0,0,1,1-1.45m0-2a2,2,0,0,0-.75.15,3.5,3.5,0,0,0-2.2,3.39V78a3.47,3.47,0,0,0,2.57,3.2,2,2,0,0,0,2.51-2.12c-.08-.85-.13-1.82-.14-2.8a2,2,0,0,0-2-2Z"/><path class="cls-1" d="M156.58,83a1,1,0,0,1-1-.76c-.47-2-1.39-6.78.38-8.09C169.51,64.09,179.35,62,185.22,62a21.54,21.54,0,0,1,4.31.42l.16,0c4.26.8,10.73,6.12,12.18,7.35,13.78.06,16.51,3.52,17.14,6.66a.92.92,0,0,1,.14.48V82a1,1,0,0,1-1,1Z"/><path class="cls-2" d="M185.22,63a20.78,20.78,0,0,1,4.29.43c4.5.84,12,7.41,12,7.41,14.79,0,16.22,4.18,16.58,6.18h.06v5H156.58s-1.42-6,0-7.05C170.32,64.72,180,63,185.22,63m0-2h0c-6,0-16.08,2.15-29.83,12.38-1.65,1.22-1.9,4.28-.75,9.12A2,2,0,0,0,156.58,84h61.57a2,2,0,0,0,2-2V76.91a2,2,0,0,0-.2-.87c-1.14-4.91-6.66-7.16-17.71-7.26-2-1.66-8.07-6.53-12.36-7.33l-.16,0a22.51,22.51,0,0,0-4.5-.44Z"/><path class="cls-1" d="M155.93,83c-.73,0-1.78-.65-1.78-1.53v-.81A1.94,1.94,0,0,1,155.93,79H218c.84,0,1.11.88,1.11,1.66v.81c0,.86-.34,1.53-1.11,1.53Z"/><path class="cls-2" d="M218,80c.21,0,.12.36.12.66v.81c0,.3.09.53-.12.53h-62.1c-.21,0-.78-.23-.78-.53v-.81c0-.3.58-.66.78-.66h62.22M218,78h-62.1a2.93,2.93,0,0,0-2.78,2.66v.81A2.8,2.8,0,0,0,155.93,84H218c1.32,0,2.12-1.12,2.12-2.53v-.81c0-1.45-.79-2.66-2.12-2.66Z"/><path class="cls-1" d="M169.18,70c2.3-1,4.7-2.36,7.15-3.14A31.68,31.68,0,0,1,186,65.27h.64a13.63,13.63,0,0,1,7.61,2.82A8.65,8.65,0,0,1,196.55,70Z"/><path class="cls-2" d="M186,66.25h.62a12.51,12.51,0,0,1,7.06,2.64s.07.1.1.1H173.5c1,0,2.08-.85,3.13-1.19A30.7,30.7,0,0,1,186,66.25m0-2A32.69,32.69,0,0,0,176,65.88a40.18,40.18,0,0,0-7.5,3.28c-.71.4-1.41.85-2.09,1.31-.14.09-.56.53-.73.53H199c-1.28-1-2.68-2.65-4.21-3.73a14.58,14.58,0,0,0-8.17-3l-.67,0Z"/><rect class="cls-1" x="182.15" y="66" height="4"/><polygon class="cls-2" points="183.15 65 181.15 65 181.15 71 183.15 71 183.15 65 183.15 65"/><circle class="cls-1" cx="206.71" cy="82.37" r="5.44"/><path class="cls-2" d="M206.71,77.93a4.44,4.44,0,1,1-4.44,4.44,4.43,4.43,0,0,1,4.44-4.44m0-2a6.44,6.44,0,1,0,6.43,6.44,6.44,6.44,0,0,0-6.43-6.44Z"/><circle class="cls-1" cx="166.14" cy="82.37" r="5.44"/><path class="cls-2" d="M166.14,77.93a4.44,4.44,0,1,1-4.44,4.44,4.43,4.43,0,0,1,4.44-4.44m0-2a6.44,6.44,0,1,0,6.44,6.44,6.44,6.44,0,0,0-6.44-6.44Z"/><rect class="cls-1" x="183.15" y="72" width="5" height="2" rx="0.77" ry="0.77"/><path class="cls-2" d="M188.11,72h-3.87a1.49,1.49,0,0,0-1.1,1.13v.46c0,.42.67.41,1.1.41h3.87c.42,0,1,0,1-.41v-.46c0-.42-.61-1.13-1-1.13Z"/><path class="cls-1" d="M218,79.76a2.08,2.08,0,0,1-1.5-.69l-.08-.08a4.14,4.14,0,0,1-1.4-1.91,2.41,2.41,0,0,1,.31-2.27A2.3,2.3,0,0,1,217,74h.1a1,1,0,0,1,.78.38,5.28,5.28,0,0,1,1.3,3v1.45a1,1,0,0,1-1,1Z"/><path class="cls-2" d="M217.07,75a4.29,4.29,0,0,1,1.08,2.36v1.45c-1-.11-.74-.3-1.09-.57-1.06-.83-1.47-2.07-.92-2.78a1.3,1.3,0,0,1,.93-.46m0-2h-.19a3.29,3.29,0,0,0-2.31,1.22c-1.24,1.59-.71,4,1.22,5.56a3.1,3.1,0,0,0,2.11,1l.26,0a2,2,0,0,0,2-2V77.32a6.23,6.23,0,0,0-1.51-3.6,2,2,0,0,0-1.57-.76Z"/><text class="cls-4" transform="translate(257.82 82.45)">BU<tspan class="cls-5" x="32.64" y="0">Y</tspan></text><text class="cls-6" transform="translate(269.65 124.5)">SALE</text><line class="cls-7" x1="140.51" y1="65.24" x2="155.84" y2="65.24"/><line class="cls-7" x1="140.51" y1="70.56" x2="149.21" y2="70.56"/><line class="cls-7" x1="140.51" y1="76.33" x2="146.77" y2="76.33"/><path class="cls-1" d="M285.46,153c-2.83,0-4.86-2.28-6.21-7-.1-.34-.18-.66-.26-1a17.37,17.37,0,0,1-.38-2.08,9.72,9.72,0,0,1,0-2.49,5.7,5.7,0,0,1,.56-1.81c1.39-2.66,4.52-2.86,7-3a13,13,0,0,0,2.53-.31,2.44,2.44,0,0,1,.69-.1c2.94,0,5.07,5.26,5.58,8.82.47,3.24-.26,5.38-2,5.89a12.83,12.83,0,0,0-2.31,1.13c-1.59.9-3.39,1.92-5.25,1.92Z"/><path class="cls-2" d="M289.43,136.24c3.37,0,6.68,11.76,3.31,12.75-2,.58-4.71,3-7.28,3-2,0-3.86-1.44-5.25-6.25-.09-.32-.18-.64-.25-.94a16.19,16.19,0,0,1-.36-2,8.67,8.67,0,0,1,0-2.23,4.66,4.66,0,0,1,.46-1.5c1.61-3.1,6.5-2.1,9-2.82a1.44,1.44,0,0,1,.41-.06m-5.68,12.17a.43.43,0,0,0,.23-.07l.75-.46a.72.72,0,0,0,.3-.76l-1.35-4.69a.72.72,0,0,0-.65-.49h-.88a.37.37,0,0,0-.37.5l1.63,5.68a.37.37,0,0,0,.35.29m5.68-14.17a3.46,3.46,0,0,0-1,.14,12.52,12.52,0,0,1-2.31.27c-2.62.16-6.21.39-7.86,3.55a6.68,6.68,0,0,0-.67,2.13,10.72,10.72,0,0,0,0,2.75,18.36,18.36,0,0,0,.4,2.2c.08.33.17.67.27,1,.55,1.9,2.21,7.7,7.17,7.7,2.13,0,4-1.09,5.75-2a12.36,12.36,0,0,1,2.1-1c1.07-.31,3.47-1.62,2.7-7-.54-3.74-2.8-9.68-6.57-9.68Z"/><path class="cls-1" d="M294.84,144.91a1,1,0,0,1-1-.72l-1.28-4.4a1,1,0,0,1,.66-1.23l7.06-2.18a1,1,0,0,1,.59,0l.75.23,1-.73a1,1,0,0,1,.61-.21,1,1,0,0,1,.26,0l1.1.3,1.84-1.15a1,1,0,0,1,.91-.08l2.3.94a1,1,0,0,1,.59.67l.38,1.42a1,1,0,0,1-.15.84l-1.39,2a1,1,0,0,1-.82.42L306,141l-.75.86a1,1,0,0,1-.75.34l-1.31-.08-.32.5a1,1,0,0,1-.6.43l-7.23,1.83A1,1,0,0,1,294.84,144.91Z"/><path class="cls-2" d="M307,135.69l2.3.94.38,1.43-1.39,2L305.6,140l-1.06,1.21-1.84-.12-.64,1-7.23,1.83-1.28-4.4,7.06-2.18,1.25.38,1.36-1.05,1.52.41,2.22-1.38m0-2a2,2,0,0,0-1.06.3l-1.47.92-.68-.18a2,2,0,0,0-1.75.35l-.54.42-.26-.08a2,2,0,0,0-1.18,0L293,137.6a2,2,0,0,0-1.33,2.47l1.28,4.4a2,2,0,0,0,2.41,1.38l7.23-1.83a2,2,0,0,0,1.2-.87h0l.66,0h.13a2,2,0,0,0,1.51-.69l.44-.51,1.72,0h0a2,2,0,0,0,1.64-.85l1.39-2a2,2,0,0,0,.3-1.67l-.38-1.43a2,2,0,0,0-1.18-1.33l-2.3-.94a2,2,0,0,0-.75-.15Z"/><line class="cls-8" x1="164.65" y1="12" x2="297.15" y2="12"/><path class="cls-1" d="M71.16,92.69a4.08,4.08,0,0,1-3.25-1.59L48.77,66.31a7.09,7.09,0,0,1-.5-.75,6.51,6.51,0,1,1,11.3-6.46L73,82.59,96.48,71.66a1.81,1.81,0,0,1,.73-.17l5.06-.11a1.87,1.87,0,0,1,.33,3.72l-4.45.7L73.4,92a4.1,4.1,0,0,1-2.25.67Z"/><path class="cls-2" d="M53.92,56.82a5.51,5.51,0,0,1,4.79,2.78L72.6,83.89,96.74,72.64l.16-.07c.1,0,.21-.26.32-.27l5.06-.3h0c.42,0,.79.5.86.93a1,1,0,0,1-.73,1.09l-4.67.78.15-.07-.48.16.33,0L72.85,91.18a3.11,3.11,0,0,1-4.15-.7l-.29-.38L49.56,65.7a6.11,6.11,0,0,1-.42-.63,5.51,5.51,0,0,1,4.78-8.25m0-2a7.51,7.51,0,0,0-6.52,11.24,8.11,8.11,0,0,0,.57.85L66.83,91.33l.29.38a5.11,5.11,0,0,0,6.83,1.15l24.56-16.1,4.24-.66a3.07,3.07,0,0,0,2.39-3.47A3,3,0,0,0,102.31,70h-.07l-5.06.3a2.93,2.93,0,0,0-1.12.35l-.17.13L73.42,81.27l-13-22.68a7.52,7.52,0,0,0-6.53-3.77Z"/><polygon class="cls-3" points="58.29 102.88 35.15 99.61 28.1 106.15 18.18 144.64 2 180.75 9.69 184.75 33.13 147 41.4 126.5 49.65 126 58.97 147 57.15 184.75 67.9 184.75 73.9 144.95 61.65 104.21 58.29 102.88"/></g></g></svg>