<svg xmlns="http://www.w3.org/2000/svg" viewBox="0 0 358.25 217"><defs><style>.cls-1,.cls-2,.cls-3,.cls-4{fill:#767676;}.cls-1,.cls-2,.cls-3{stroke:#fff;stroke-width:2px;}.cls-1,.cls-3{stroke-miterlimit:10;}.cls-2,.cls-3{stroke-linecap:round;}.cls-2{stroke-linejoin:round;}.cls-5{fill:#ffb600;}.cls-6{font-size:20.36px;fill:#f2f2f2;font-family:ArialMT, Arial;}.cls-7{letter-spacing:-0.02em;}.cls-8{fill:#fff;}</style></defs><title>buy</title><g id="Layer_2" data-name="Layer 2"><g id="texts"><path class="cls-1" d="M298.5,141H61V4a3,3,0,0,1,3-3H295.5a3,3,0,0,1,3,3Z"/><circle class="cls-1" cx="74.75" cy="12.25" r="3.75"/><circle class="cls-1" cx="87.25" cy="12.25" r="3.75"/><circle class="cls-1" cx="99.75" cy="12.25" r="3.75"/><line class="cls-1" x1="61" y1="21" x2="298.5" y2="21"/><rect class="cls-1" x="108.5" y="33.5" width="147.5" height="15"/><rect class="cls-2" x="81" y="56" width="200" height="47.5"/><rect class="cls-1" x="81" y="111" width="35" height="12.5"/><rect class="cls-1" x="123.5" y="111" width="35" height="12.5"/><rect class="cls-1" x="166" y="111" width="35" height="12.5"/><rect class="cls-1" x="208.5" y="111" width="35" height="12.5"/><rect class="cls-1" x="251" y="111" width="30" height="12.5"/><rect class="cls-1" x="223.5" y="61" width="133.75" height="140" rx="3" ry="3"/><circle class="cls-1" cx="237.25" cy="72.25" r="3.75"/><circle class="cls-1" cx="249.75" cy="72.25" r="3.75"/><circle class="cls-1" cx="262.25" cy="72.25" r="3.75"/><line class="cls-1" x1="223.5" y1="81" x2="357.25" y2="81"/><rect class="cls-2" x="237.25" y="91" width="105" height="20"/><rect class="cls-1" x="237.25" y="118.5" width="50" height="12.5"/><rect class="cls-1" x="294.75" y="118.5" width="47.5" height="12.5"/><rect class="cls-1" x="237.25" y="173.5" width="50" height="12.5"/><rect class="cls-1" x="294.75" y="173.5" width="47.5" height="12.5"/><line class="cls-2" x1="287.25" y1="143.5" x2="237.25" y2="143.5"/><line class="cls-2" x1="342.25" y1="143.5" x2="294.75" y2="143.5"/><line class="cls-2" x1="287.25" y1="151" x2="237.25" y2="151"/><line class="cls-2" x1="342.25" y1="151" x2="294.75" y2="151"/><line class="cls-2" x1="287.25" y1="158.5" x2="237.25" y2="158.5"/><line class="cls-2" x1="342.25" y1="158.5" x2="294.75" y2="158.5"/><line class="cls-2" x1="287.25" y1="166" x2="237.25" y2="166"/><line class="cls-2" x1="342.25" y1="166" x2="294.75" y2="166"/><rect class="cls-1" x="1" y="41" width="147.5" height="175" rx="3" ry="3"/><circle class="cls-1" cx="14.75" cy="52.25" r="3.75"/><circle class="cls-1" cx="27.25" cy="52.25" r="3.75"/><circle class="cls-1" cx="39.75" cy="52.25" r="3.75"/><line class="cls-1" x1="1" y1="61" x2="148.5" y2="61"/><rect class="cls-1" x="16" y="73.5" width="82.5" height="15"/><rect class="cls-2" x="18.5" y="103.5" width="47.5" height="97.5"/><rect class="cls-1" x="76" y="103.5" width="60" height="22.5"/><line class="cls-3" x1="76" y1="136" x2="108.5" y2="136"/><line class="cls-3" x1="76" y1="146" x2="136" y2="146"/><line class="cls-3" x1="76" y1="156" x2="136" y2="156"/><line class="cls-3" x1="76" y1="166" x2="136" y2="166"/><line class="cls-3" x1="76" y1="176" x2="136" y2="176"/><line class="cls-3" x1="76" y1="186" x2="136" y2="186"/><line class="cls-3" x1="76" y1="196" x2="136" y2="196"/><path class="cls-4" d="M155.09,86.27a1,1,0,0,1-.26,0A2.47,2.47,0,0,1,153,84v-.17a2.5,2.5,0,0,1,1.58-2.42,1,1,0,0,1,.93.1,1,1,0,0,1,.44.82c0,1,.06,2,.14,2.89a1,1,0,0,1-1,1.1Z"/><path class="cls-5" d="M154.94,82.29c0,1,.05,2,.15,3A1.48,1.48,0,0,1,154,83.91v-.17a1.5,1.5,0,0,1,1-1.45m0-2a2,2,0,0,0-.75.15,3.5,3.5,0,0,0-2.2,3.39V84a3.47,3.47,0,0,0,2.57,3.2,2,2,0,0,0,2.51-2.12c-.08-.85-.13-1.82-.14-2.8a2,2,0,0,0-2-2Z"/><path class="cls-4" d="M155.43,89a1,1,0,0,1-1-.76c-.47-2-1.39-6.78.38-8.09C168.36,70.09,178.2,68,184.07,68a21.52,21.52,0,0,1,4.31.42l.16,0c4.26.8,10.73,6.12,12.18,7.35,13.78.06,16.51,3.52,17.14,6.66a.91.91,0,0,1,.14.48V88a1,1,0,0,1-1,1Z"/><path class="cls-5" d="M184.07,69a20.78,20.78,0,0,1,4.29.43c4.5.84,12,7.41,12,7.41,14.79,0,16.22,4.18,16.58,6.18H217v5H155.43s-1.42-6,0-7.05c13.75-10.23,23.39-12,28.64-12m0-2h0c-6,0-16.08,2.15-29.83,12.38-1.65,1.22-1.9,4.28-.75,9.12A2,2,0,0,0,155.43,90H217a2,2,0,0,0,2-2V82.91a2,2,0,0,0-.2-.87c-1.14-4.91-6.66-7.16-17.71-7.26-2-1.66-8.07-6.53-12.36-7.33l-.16,0a22.51,22.51,0,0,0-4.5-.44Z"/><path class="cls-4" d="M154.78,89c-.73,0-1.78-.65-1.78-1.53v-.81A1.94,1.94,0,0,1,154.78,85h62.1c.84,0,1.11.88,1.11,1.66v.81c0,.86-.34,1.53-1.11,1.53Z"/><path class="cls-5" d="M216.88,86c.21,0,.12.36.12.66v.81c0,.3.09.53-.12.53h-62.1c-.21,0-.78-.23-.78-.53v-.81c0-.3.58-.66.78-.66H217m-.12-2h-62.1A2.93,2.93,0,0,0,152,86.66v.81A2.8,2.8,0,0,0,154.78,90h62.1c1.32,0,2.12-1.12,2.12-2.53v-.81c0-1.45-.79-2.66-2.12-2.66Z"/><path class="cls-4" d="M168,76c2.3-1,4.7-2.36,7.15-3.14a31.67,31.67,0,0,1,9.62-1.59h.64a13.63,13.63,0,0,1,7.62,2.82A8.65,8.65,0,0,1,195.4,76Z"/><path class="cls-5" d="M184.8,72.25h.62a12.51,12.51,0,0,1,7.06,2.64s.07.1.1.1H172.35c1,0,2.08-.85,3.13-1.19a30.7,30.7,0,0,1,9.32-1.56m0-2a32.69,32.69,0,0,0-9.93,1.62,40.18,40.18,0,0,0-7.5,3.28c-.71.4-1.41.85-2.09,1.31-.14.09-.56.53-.73.53h33.29c-1.28-1-2.68-2.65-4.21-3.73a14.58,14.58,0,0,0-8.17-3l-.67,0Z"/><rect class="cls-4" x="181" y="72" height="4"/><polygon class="cls-5" points="182 71 180 71 180 77 182 77 182 71 182 71"/><circle class="cls-4" cx="205.56" cy="88.37" r="5.44"/><path class="cls-5" d="M205.56,83.93a4.44,4.44,0,1,1-4.44,4.44,4.43,4.43,0,0,1,4.44-4.44m0-2A6.44,6.44,0,1,0,212,88.37a6.44,6.44,0,0,0-6.43-6.44Z"/><circle class="cls-4" cx="164.99" cy="88.37" r="5.44"/><path class="cls-5" d="M165,83.93a4.44,4.44,0,1,1-4.44,4.44A4.43,4.43,0,0,1,165,83.93m0-2a6.44,6.44,0,1,0,6.44,6.44A6.44,6.44,0,0,0,165,81.93Z"/><rect class="cls-4" x="182" y="78" width="5" height="2" rx="0.77" ry="0.77"/><path class="cls-5" d="M187,78H183.1a1.49,1.49,0,0,0-1.1,1.13v.46c0,.42.67.41,1.1.41H187c.42,0,1,0,1-.41v-.46c0-.42-.61-1.13-1-1.13Z"/><path class="cls-4" d="M216.87,85.76a2.09,2.09,0,0,1-1.49-.69l-.09-.09c-1.52-1.19-2-3-1.09-4.18a2.3,2.3,0,0,1,1.62-.84h.1a1,1,0,0,1,.78.38,5.28,5.28,0,0,1,1.3,3v1.45a1,1,0,0,1-1,1Z"/><path class="cls-5" d="M215.92,81A4.29,4.29,0,0,1,217,83.32v1.45c-1-.11-.74-.3-1.09-.57-1.06-.83-1.47-2.07-.92-2.78a1.3,1.3,0,0,1,.93-.46m0-2h-.19a3.29,3.29,0,0,0-2.31,1.22c-1.24,1.59-.71,4,1.22,5.56a3.1,3.1,0,0,0,2.11,1l.26,0a2,2,0,0,0,2-2V83.32a6.23,6.23,0,0,0-1.51-3.6,2,2,0,0,0-1.57-.76Z"/><text class="cls-6" transform="translate(21.57 143.5)">BU<tspan class="cls-7" x="28.29" y="0">Y</tspan></text><path class="cls-8" d="M34.32,174.5c-2.83,0-4.86-2.28-6.21-7q-.15-.51-.26-1a17.47,17.47,0,0,1-.38-2.08,9.72,9.72,0,0,1,0-2.49,5.69,5.69,0,0,1,.56-1.81c1.39-2.66,4.52-2.86,7-3a12.93,12.93,0,0,0,2.53-.31,2.48,2.48,0,0,1,.69-.1c2.94,0,5.07,5.26,5.58,8.82.47,3.24-.26,5.38-2,5.89a12.79,12.79,0,0,0-2.31,1.13c-1.59.9-3.39,1.92-5.25,1.92Z"/><path class="cls-5" d="M38.28,157.74c3.37,0,6.68,11.76,3.31,12.75-2,.58-4.71,3-7.28,3-2,0-3.86-1.44-5.25-6.25-.09-.32-.18-.64-.25-.94a16.19,16.19,0,0,1-.36-2,8.67,8.67,0,0,1,0-2.23,4.66,4.66,0,0,1,.46-1.5c1.61-3.1,6.5-2.1,9-2.82a1.44,1.44,0,0,1,.41-.06M32.6,169.9a.43.43,0,0,0,.23-.07l.75-.46a.72.72,0,0,0,.3-.76l-1.35-4.69a.72.72,0,0,0-.65-.49H31a.37.37,0,0,0-.37.5l1.63,5.68a.37.37,0,0,0,.35.29m5.68-14.17a3.46,3.46,0,0,0-1,.14,12.52,12.52,0,0,1-2.31.27c-2.62.16-6.21.39-7.86,3.55a6.68,6.68,0,0,0-.67,2.13,10.72,10.72,0,0,0,0,2.75,18.36,18.36,0,0,0,.4,2.2c.08.33.17.67.27,1,.55,1.9,2.21,7.7,7.17,7.7,2.13,0,4-1.09,5.75-2a12.36,12.36,0,0,1,2.1-1c1.07-.31,3.47-1.62,2.7-7-.54-3.74-2.8-9.68-6.57-9.68Z"/><path class="cls-8" d="M43.69,166.41a1,1,0,0,1-1-.72l-1.28-4.4a1,1,0,0,1,.66-1.23l7.06-2.18a1,1,0,0,1,.3,0,1,1,0,0,1,.29,0l.75.23,1-.74a1,1,0,0,1,.87-.17l1.1.3,1.84-1.15a1,1,0,0,1,.91-.08l2.3.94a1,1,0,0,1,.59.67l.38,1.42a1,1,0,0,1-.15.84l-1.39,2a1,1,0,0,1-.82.42l-2.21,0-.75.86a1,1,0,0,1-.75.34l-1.31-.08-.32.5a1,1,0,0,1-.6.43l-7.23,1.83A1,1,0,0,1,43.69,166.41Z"/><path class="cls-5" d="M55.82,157.19l2.3.94.38,1.43-1.39,2-2.66-.06-1.06,1.21-1.84-.12-.64,1-7.23,1.83L42.41,161l7.06-2.18,1.25.38,1.36-1.05,1.52.41,2.22-1.38m0-2a2,2,0,0,0-1.06.3l-1.47.92-.68-.18a2,2,0,0,0-1.75.35l-.54.42-.26-.08a2,2,0,0,0-1.18,0l-7.06,2.18a2,2,0,0,0-1.33,2.47l1.28,4.4a2,2,0,0,0,2.41,1.38l7.23-1.83a2,2,0,0,0,1.2-.87h0l.66,0h.13A2,2,0,0,0,54.9,164l.44-.51,1.72,0h0a2,2,0,0,0,1.64-.85l1.39-2a2,2,0,0,0,.3-1.67L60,157.61a2,2,0,0,0-1.18-1.33l-2.3-.94a2,2,0,0,0-.75-.15Z"/></g></g></svg>