<svg xmlns="http://www.w3.org/2000/svg" viewBox="0 0 346.69 211.03"><defs><style>.cls-1,.cls-2,.cls-3,.cls-5,.cls-6{fill:#fff;}.cls-1,.cls-2,.cls-5{stroke:#0080b1;stroke-width:2px;}.cls-1{stroke-miterlimit:10;}.cls-2,.cls-5{stroke-linecap:round;stroke-linejoin:round;}.cls-3{font-size:38.68px;}.cls-3,.cls-6{font-family:MuseoSans-900, MuseoSans 900;}.cls-4{fill:#0080b1;}.cls-5{stroke-dasharray:3 6;}.cls-6{font-size:57.75px;}</style></defs><title>car-percent</title><g id="Layer_2" data-name="Layer 2"><g id="texts"><polygon class="cls-1" points="300.97 95.37 260.53 95.37 245.85 168.11 286.29 168.11 300.97 95.37"/><polygon class="cls-1" points="272.81 168.11 345.55 168.11 335.71 95.37 262.97 95.37 272.81 168.11"/><polygon class="cls-2" points="302.56 100.61 306.59 105.62 311.98 102.11 314.28 108.12 320.49 106.44 320.81 112.87 327.24 113.19 325.56 119.4 331.57 121.69 328.06 127.08 333.07 131.12 328.06 135.16 331.57 140.55 325.56 142.84 327.24 149.06 320.81 149.38 320.49 155.81 314.28 154.13 311.98 160.14 306.59 156.63 302.56 161.64 298.52 156.63 293.13 160.14 290.83 154.13 284.62 155.81 284.3 149.38 277.87 149.06 279.55 142.84 273.54 140.55 277.06 135.16 272.04 131.12 277.06 127.08 273.54 121.69 279.55 119.4 277.87 113.19 284.3 112.87 284.62 106.44 290.83 108.12 293.13 102.11 298.52 105.62 302.56 100.61"/><text class="cls-3" transform="translate(293.63 143.7)">?</text><text class="cls-3" transform="translate(293.63 143.7)">?</text><path class="cls-4" d="M301.13,117.2c4.45,0,6.46,2.75,6.46,5.69,0,2.63-1.47,4.53-3.33,6.73a7.64,7.64,0,0,0-2.21,5.69l0,1h-3l-.08-1a8.88,8.88,0,0,1,2.4-6.69c1.74-2,2.71-3.56,2.71-5.3,0-2-1.24-3.29-3.67-3.33a6.88,6.88,0,0,0-3.91,1.2l-.93-2.44a10.14,10.14,0,0,1,5.53-1.55m-.58,22.09a2.42,2.42,0,1,1-2.32,2.44,2.29,2.29,0,0,1,2.32-2.44m.58-24.09a12.15,12.15,0,0,0-6.71,1.93,2,2,0,0,0-.69,2.33l.93,2.44a2,2,0,0,0,3.08.88,5,5,0,0,1,2.7-.79c1.67,0,1.67.81,1.67,1.33,0,1-.58,2.06-2.23,4a10.94,10.94,0,0,0-2.87,8.17l.07,1a2,2,0,0,0,1,1.58,4.4,4.4,0,0,0-1.85,3.68,4.3,4.3,0,1,0,8.6,0,4.42,4.42,0,0,0-1.79-3.65,2,2,0,0,0,1.05-1.84l0-1c-.08-1.29.19-2.5,1.73-4.32,1.69-2,3.8-4.51,3.8-8,0-3.7-2.65-7.69-8.46-7.69Z"/><line class="cls-5" x1="102.12" y1="32.52" x2="83.35" y2="22.65"/><line class="cls-5" x1="130.93" y1="19.78" x2="140.8" y2="1"/><line class="cls-5" x1="114.8" y1="22.65" x2="108.86" y2="3.55"/><line class="cls-5" x1="101.96" y1="42.68" x2="87.64" y2="47.13"/><line class="cls-5" x1="153.21" y1="22.65" x2="138.89" y2="27.1"/><polygon class="cls-1" points="158.31 34.79 117.88 34.79 103.19 107.53 143.63 107.53 158.31 34.79"/><polygon class="cls-1" points="130.15 107.53 202.89 107.53 193.05 34.79 120.31 34.79 130.15 107.53"/><polygon class="cls-2" points="159.9 40.03 163.94 45.05 169.32 41.53 171.62 47.54 177.83 45.86 178.15 52.29 184.58 52.61 182.9 58.83 188.91 61.12 185.4 66.51 190.41 70.55 185.4 74.58 188.91 79.97 182.9 82.27 184.58 88.48 178.15 88.8 177.83 95.23 171.62 93.55 169.32 99.57 163.94 96.05 159.9 101.06 155.86 96.05 150.47 99.57 148.18 93.55 141.96 95.23 141.64 88.8 135.21 88.48 136.89 82.27 130.88 79.97 134.4 74.58 129.38 70.55 134.4 66.51 130.88 61.12 136.89 58.83 135.21 52.61 141.64 52.29 141.96 45.86 148.18 47.54 150.47 41.53 155.86 45.05 159.9 40.03"/><text class="cls-3" transform="translate(147.97 83.12)">$</text><text class="cls-3" transform="translate(147.97 83.12)">$</text><path class="cls-4" d="M159.07,54.69v3.75a10.31,10.31,0,0,1,5,1.35l-1,2.55A9.34,9.34,0,0,0,158.26,61c-3,0-4.1,1.78-4.1,3.33,0,2,1.43,3,4.8,4.41,4,1.63,6,3.64,6,7.08,0,3.06-2.13,5.92-6.11,6.58v4H156.4V82.54a11.27,11.27,0,0,1-5.92-1.7l.93-2.59A10.31,10.31,0,0,0,157,79.91c2.75,0,4.6-1.59,4.6-3.79s-1.51-3.44-4.37-4.6c-3.95-1.55-6.38-3.33-6.38-6.69,0-3.21,2.28-5.65,5.84-6.23V54.69h2.4m0-2h-2.4a2,2,0,0,0-2,2V57a8.14,8.14,0,0,0-5.84,7.79c0,4.89,3.87,7.07,7.65,8.55,3.1,1.26,3.1,2.19,3.1,2.74,0,1.32-1.4,1.79-2.6,1.79a8.34,8.34,0,0,1-4.46-1.33,2,2,0,0,0-3,1l-.93,2.59a2,2,0,0,0,.72,2.3,12.2,12.2,0,0,0,5.08,1.9v2.08a2,2,0,0,0,2,2h2.44a2,2,0,0,0,2-2V84a8.49,8.49,0,0,0,6.11-8.14c0-5.3-3.87-7.56-7.24-8.93-3.55-1.47-3.55-2-3.55-2.56,0-.84.77-1.33,2.1-1.33a7.3,7.3,0,0,1,3.88,1.05,2,2,0,0,0,2.86-1l1-2.55a2,2,0,0,0-.86-2.43,11.63,11.63,0,0,0-4-1.44V54.69a2,2,0,0,0-2-2Z"/><path class="cls-1" d="M135.77,95h25.48c45.05,0,53.43,23.46,70.76,34.7,12.29,8,22.46,8.84,29.08,10.47a26.65,26.65,0,0,1,17.56,13.51c2.48,4.8,3.64,15.13,3.64,20.53,0,6.22-4.17,7.8-8.19,7.8H84.8c-4,0-6-3.91-6.37-7.89-.55-6.35-1.38-18.17,0-24.54C83,128.67,99.59,95,135.77,95Z"/><path class="cls-1" d="M282.29,174.27c0-.74,0-1.11-.07-2L78,169.72c.13,1.92.27,2.84.39,4.3.35,4,2.35,8,6.37,8H274.09C278.11,182,282.29,180.49,282.29,174.27Z"/><path class="cls-1" d="M94.41,182c0-13,12.2-27.25,27.24-27.25S148.9,169,148.9,182Z"/><circle class="cls-1" cx="121.49" cy="184.49" r="21.35"/><circle class="cls-1" cx="121.49" cy="184.49" r="14.35"/><path class="cls-1" d="M209.18,182c0-13,12.2-27.25,27.24-27.25S263.68,169,263.68,182Z"/><circle class="cls-1" cx="236.26" cy="184.49" r="21.35"/><circle class="cls-1" cx="236.26" cy="184.49" r="14.35"/><path class="cls-1" d="M76.63,155.6c-2,.7-4.78,2.56-4.78,4.78V161c0,2.27,2.11,4.17,4.16,4.82C75.84,162.44,76.5,158.85,76.63,155.6Z"/><path class="cls-1" d="M270.11,147.44a5.25,5.25,0,0,0-2.08,7.13l2.07,3.77a5.25,5.25,0,0,0,7.13,2.08l.53-.29a5.2,5.2,0,0,0,2.28-2.54,20.47,20.47,0,0,0-1.4-3.82,25.7,25.7,0,0,0-5.64-7.23,5.18,5.18,0,0,0-2.36.62Z"/><path class="cls-1" d="M174.85,101.5s34,4.54,49.46,31.54H174.85Z"/><rect class="cls-1" x="131.85" y="100.03" width="35" height="33"/><path class="cls-1" d="M123.85,101.5V133H95.94C83.34,133,104.85,102.49,123.85,101.5Z"/><rect class="cls-1" x="174.85" y="142.03" width="12" height="4" rx="1.59" ry="1.59"/><rect class="cls-1" x="131.85" y="142.03" width="12" height="4" rx="1.59" ry="1.59"/><path class="cls-1" d="M227.85,133A3.66,3.66,0,0,0,225,130H211.14c-1.15,0-3.3,1.75-3.3,2.92v4.81c0,1.16,2.15,3.28,3.3,3.28H225c1.15,0,2.82-2.11,2.82-3.28Z"/><polygon class="cls-1" points="45.72 137.29 86.16 137.29 100.85 210.03 60.41 210.03 45.72 137.29"/><polygon class="cls-1" points="73.89 210.03 1.14 210.03 10.98 137.29 83.72 137.29 73.89 210.03"/><text class="cls-6" transform="translate(19.45 192.22)">%</text><text class="cls-6" transform="translate(19.45 192.22)">%</text><path class="cls-4" d="M54.91,154,32.85,192.85H29.62L51.68,154h3.23m-24.66,0c5.26,0,8.72,4,8.72,11.2,0,7.91-4.16,11.84-9,11.84-4.68,0-8.72-3.75-8.78-11.32S25.28,154,30.25,154m-.17,20c3.35,0,4.85-3.58,4.85-8.55,0-4.56-1.33-8.37-4.85-8.37-3.18,0-4.85,3.75-4.85,8.49S26.9,174,30.08,174m24.66-4.45c5.26,0,8.66,4,8.66,11.2,0,7.91-4.16,11.84-9,11.84s-8.72-3.75-8.78-11.26,4.1-11.78,9.07-11.78m-.17,20c3.35,0,4.85-3.58,4.85-8.55,0-4.56-1.33-8.37-4.85-8.37-3.18,0-4.91,3.75-4.91,8.49s1.79,8.43,4.91,8.43M54.91,152H51.68a2,2,0,0,0-1.74,1l-9.4,16.54a20.62,20.62,0,0,0,.44-4.35c0-8-4.21-13.2-10.72-13.2s-11.07,5.64-11.07,13.72c.07,9.21,5.46,13.32,10.78,13.32a10.14,10.14,0,0,0,6.5-2.32l-8.59,15.1a2,2,0,0,0,1.74,3h3.23a2,2,0,0,0,1.74-1l9.52-16.76a19.73,19.73,0,0,0-.44,4.27c.07,9.17,5.46,13.26,10.78,13.26s11-4.28,11-13.84c0-8.14-4.09-13.2-10.66-13.2A10.21,10.21,0,0,0,48.12,170l8.54-15a2,2,0,0,0-1.74-3Zm0,4h0ZM30.08,172a1.78,1.78,0,0,1-1.34-.59c-1-1-1.58-3.2-1.52-5.79,0-3.17.89-6.54,2.85-6.54,2.57,0,2.85,4.46,2.85,6.37,0,1.54-.21,6.55-2.85,6.55Zm24.49,15.54a1.76,1.76,0,0,1-1.31-.59c-1-1-1.63-3.22-1.6-5.82,0-3.25,1-6.51,2.91-6.51,2.57,0,2.85,4.46,2.85,6.38,0,1.54-.21,6.55-2.85,6.55Z"/></g></g></svg>