<svg xmlns="http://www.w3.org/2000/svg" viewBox="0 0 338.18 161.36"><defs><style>.cls-1,.cls-10,.cls-3{fill:#fff;}.cls-2,.cls-9{fill:#767676;}.cls-3{font-size:23.28px;}.cls-10,.cls-3{font-family:MuseoSans-900Italic, MuseoSans 900Italic;font-style:italic;}.cls-4{letter-spacing:-0.01em;}.cls-5{letter-spacing:-0.01em;}.cls-6{letter-spacing:-0.01em;}.cls-7{letter-spacing:-0.01em;}.cls-8{fill:none;stroke:#ffb600;stroke-miterlimit:10;stroke-width:4px;}.cls-9{stroke:#fff;stroke-linecap:round;stroke-linejoin:round;stroke-width:2px;}.cls-10{font-size:34.49px;}.cls-11{fill:#ffb600;}</style></defs><title>conversion</title><g id="Layer_2" data-name="Layer 2"><g id="texts"><path class="cls-1" d="M253.61,142a10.29,10.29,0,0,1-2.87,12.31,65.7,65.7,0,0,1-7.19,5.2c-4,2.53-8.32,2.33-12.59.53a17.37,17.37,0,0,1-7.25-5.72c-2.39-3.22-4.72-6.5-7.07-9.75a2.71,2.71,0,0,1-.23-.37,7,7,0,0,1,5.73-2.08c-.7-1.05-1.28-2-1.92-2.9s-1.57-2-2.33-3.07q-3-4.16-6-8.32a3.8,3.8,0,0,1-.28-4.36,3.7,3.7,0,0,1,3.6-2,3.79,3.79,0,0,1,3,1.66l4.77,6.6c1.55-1.43,3-3,5.23-2.13a29.19,29.19,0,0,1,3-2.29,2.91,2.91,0,0,1,3.3.24c.77-.64,1.46-1.28,2.21-1.83a3.15,3.15,0,0,1,4.52.65q5,6.85,10,13.77A24.49,24.49,0,0,1,253.61,142Zm-3.88,9.81a8,8,0,0,0,.64-10.41q-5-7-10.05-13.89l-1-1.38a.9.9,0,0,0-1.4-.24c-.23.17-.46.33-.67.52a.91.91,0,0,0-.13,1.41c.65.84,1.25,1.7,1.86,2.56a1.62,1.62,0,1,1-2.61,1.87c-1-1.36-1.92-2.75-2.92-4.08a1.46,1.46,0,0,0-.95-.63,1.53,1.53,0,0,0-1.24,2.46c1,1.3,1.93,2.59,2.87,3.9l.06.08a1.51,1.51,0,0,1-.31,2.29,1.49,1.49,0,0,1-2.23-.36q-1.86-2.55-3.64-5.14c-.59-.87-1-1-1.88-.35l-.31.23c-.73.53-.8,1-.28,1.67,1.25,1.69,2.51,3.37,3.75,5.07a1.6,1.6,0,1,1-2.59,1.85c-1.84-2.53-3.67-5.08-5.51-7.62l-4.94-6.82a1.4,1.4,0,1,0-2.24,1.63l8,11q3.76,5.19,7.5,10.4a1.62,1.62,0,1,1-2.59,1.9c-.9-1.23-1.77-2.48-2.68-3.69a3.49,3.49,0,0,0-4.09-1.19c2.22,3.07,4.3,6.2,6.65,9.12a13.31,13.31,0,0,0,7.18,4.44,10.25,10.25,0,0,0,9.22-1.7c1.76-1.34,3.58-2.6,5.37-3.91A8,8,0,0,0,249.73,151.77Z"/><path class="cls-2" d="M250.37,141.36a8,8,0,0,1-1.82,11.4c-1.79,1.31-3.61,2.57-5.37,3.91a10.25,10.25,0,0,1-9.22,1.7,13.31,13.31,0,0,1-7.18-4.44c-2.35-2.92-4.43-6.05-6.65-9.12a3.49,3.49,0,0,1,4.09,1.19c.91,1.21,1.78,2.46,2.68,3.69a1.62,1.62,0,1,0,2.59-1.9q-3.74-5.21-7.5-10.4l-8-11a1.4,1.4,0,1,1,2.24-1.63l4.94,6.82c1.84,2.54,3.67,5.09,5.51,7.62a1.6,1.6,0,1,0,2.59-1.85l2.36-1.48a1.49,1.49,0,0,0,2.23.36,1.51,1.51,0,0,0,.31-2.29l-.06-.08,2.24-1.65a1.62,1.62,0,1,0,2.61-1.87c-.61-.86-1.21-1.72-1.86-2.56a.91.91,0,0,1,.13-1.41c.21-.19.44-.35.67-.52a.9.9,0,0,1,1.4.24l1,1.38Q245.34,134.42,250.37,141.36Z"/><path class="cls-2" d="M236.37,132.21l-2.24,1.65c-.94-1.31-1.92-2.6-2.87-3.9a1.53,1.53,0,0,1,1.24-2.46,1.46,1.46,0,0,1,.95.63C234.45,129.46,235.39,130.85,236.37,132.21Z"/><path class="cls-2" d="M231.65,135.87l-2.36,1.48c-1.24-1.7-2.5-3.38-3.75-5.07-.52-.7-.45-1.14.28-1.67l.31-.23c.87-.63,1.29-.52,1.88.35Q229.79,133.33,231.65,135.87Z"/><path class="cls-1" d="M230.16,114.38a1.62,1.62,0,0,1-.32,2.33c-1.17.89-2.37,1.72-3.55,2.58s-2.16,1.58-3.25,2.35a1.69,1.69,0,1,1-2-2.71q3.38-2.49,6.8-4.92A1.66,1.66,0,0,1,230.16,114.38Z"/><path class="cls-1" d="M217.92,106.86a1.71,1.71,0,0,1,1.4,2.18c-.42,2.66-.83,5.33-1.29,8a4.62,4.62,0,0,1-.5,1.14,1.83,1.83,0,0,1-2.06.18,1.6,1.6,0,0,1-.79-1.71c.15-1.15.36-2.29.54-3.43.25-1.57.49-3.14.76-4.72A1.7,1.7,0,0,1,217.92,106.86Z"/><path class="cls-1" d="M211.23,117.29a1.75,1.75,0,0,1-.3,2.53,1.71,1.71,0,0,1-2.47-.58c-.81-1.09-1.6-2.2-2.4-3.31l-2.35-3.24a1.7,1.7,0,1,1,2.73-2Q208.84,114,211.23,117.29Z"/><path class="cls-1" d="M209.37,129.4a1.67,1.67,0,0,1-.49,2.48c-1.11.84-2.25,1.64-3.37,2.45s-2.17,1.58-3.26,2.35a1.69,1.69,0,1,1-2-2.73q3.3-2.43,6.63-4.8A1.68,1.68,0,0,1,209.37,129.4Z"/><path class="cls-1" d="M208.15,123.69a1.75,1.75,0,0,1-.83,1.86,4.36,4.36,0,0,1-1.19.12c-2.72-.4-5.43-.85-8.15-1.3a1.68,1.68,0,0,1-1.51-2,1.66,1.66,0,0,1,2-1.39l8.22,1.32A1.63,1.63,0,0,1,208.15,123.69Z"/><text class="cls-3" transform="translate(58.26 82.5)"><tspan class="cls-4">C</tspan><tspan x="13.25" y="0">o</tspan><tspan class="cls-5" x="26.03" y="0">n</tspan><tspan class="cls-6" x="38.65" y="0">v</tspan><tspan x="49.62" y="0">ersions</tspan></text><text class="cls-3" transform="translate(73.97 127.5)"><tspan class="cls-7">A</tspan><tspan x="13.97" y="0">d Clicks</tspan></text><line class="cls-8" y1="97.5" x2="240" y2="97.5"/><path class="cls-9" d="M131.49,31.32a31.68,31.68,0,0,1-7.34,5.5,31.68,31.68,0,0,1-7.34-5.5c-3.67-3.67-3.67-9.17,0-11,5.19-2.59,7.34,5.5,7.34,5.5s2.15-8.1,7.34-5.5c3.67,1.83,3.67,7.34,0,11"/><text class="cls-10" transform="translate(261.82 106.09)">x 100</text><path class="cls-11" d="M105.71,26.59A18.41,18.41,0,0,1,124.12,8.18a18.22,18.22,0,0,1,7.44,1.62L128.37,13l13,0,0-13-4.23,4.2a25.92,25.92,0,0,0-33.57,38.27L109,37.08A18.34,18.34,0,0,1,105.71,26.59Z"/><path class="cls-11" d="M145.82,12.71,140,17.62a18.33,18.33,0,0,1-21.54,26.67l3.1-3.85-12.93,1.39L110,54.75l3.48-4.32a25.51,25.51,0,0,0,8.33,2.21,25.93,25.93,0,0,0,24-39.94Z"/></g></g></svg>