<svg xmlns="http://www.w3.org/2000/svg" viewBox="0 0 451.5 148.56"><defs><style>.cls-1,.cls-16,.cls-4,.cls-5{fill:#fff;}.cls-1{stroke:#e6e6e6;}.cls-1,.cls-12{stroke-miterlimit:10;}.cls-1,.cls-3{stroke-width:3px;}.cls-2{font-size:34.61px;font-family:ArialMT, Arial;}.cls-13,.cls-14,.cls-2{fill:#767676;}.cls-3{fill:#ffb600;}.cls-12,.cls-13,.cls-15,.cls-3{stroke:#fff;}.cls-13,.cls-15,.cls-3{stroke-linecap:round;stroke-linejoin:round;}.cls-4{font-size:22px;font-family:HelveticaNeueLTPro-Hv, HelveticaNeueLTPro Hv;}.cls-16,.cls-5{font-size:23.28px;}.cls-5{font-family:MuseoSans-900Italic, MuseoSans 900Italic;font-style:italic;}.cls-6{letter-spacing:-0.01em;}.cls-7{letter-spacing:-0.05em;}.cls-8{letter-spacing:-0.08em;}.cls-9{letter-spacing:0em;}.cls-10{letter-spacing:-0.01em;}.cls-11{letter-spacing:0em;}.cls-12,.cls-15{fill:none;}.cls-12{stroke-width:4px;}.cls-13,.cls-15{stroke-width:2px;}.cls-16{font-family:MuseoSans-900, MuseoSans 900;}</style></defs><title>cost-of</title><g id="Layer_2" data-name="Layer 2"><g id="texts"><rect class="cls-1" x="290" y="54.39" width="160" height="80"/><text class="cls-2" transform="translate(334.04 105.99)">CPM</text><circle class="cls-3" cx="285" cy="94.39" r="20"/><text class="cls-4" transform="translate(278.44 99.39)">=</text><text class="cls-5" transform="translate(43.79 84.39)"><tspan class="cls-6">C</tspan><tspan x="13.25" y="0">ost of</tspan><tspan class="cls-7" x="67.47" y="0"> </tspan><tspan class="cls-8" x="71.34" y="0">Y</tspan><tspan class="cls-9" x="82.16" y="0">our </tspan><tspan class="cls-10" x="120.32" y="0">A</tspan><tspan class="cls-11" x="134.29" y="0">d</tspan></text><line class="cls-12" y1="99.39" x2="240" y2="99.39"/><rect class="cls-13" x="70" y="34.39" width="70" height="20"/><line class="cls-13" x1="70" y1="39.39" x2="140" y2="39.39"/><line class="cls-13" x1="70" y1="44.39" x2="140" y2="44.39"/><line class="cls-13" x1="70" y1="49.39" x2="140" y2="49.39"/><path class="cls-14" d="M175,44c-25-10.57-50,11.45-75,.88v-40C125,15.41,150-6.62,175,4Z"/><path class="cls-15" d="M175,44c-25-10.57-50,11.45-75,.88v-40C125,15.41,150-6.62,175,4Z"/><path class="cls-14" d="M167.5,29.2V16.7a6,6,0,0,1-5-5.61,4.69,4.69,0,0,1,.69-2.45c-17.13-1.32-34.26,7.85-51.39,6.53a5.2,5.2,0,0,1,.69,2.55,4.25,4.25,0,0,1-5,4.39v12.5a6,6,0,0,1,5,5.61c16.67,1,33.33-7.64,50-6.62A4.25,4.25,0,0,1,167.5,29.2Z"/><path class="cls-15" d="M167.5,29.2V16.7a6,6,0,0,1-5-5.61,4.69,4.69,0,0,1,.69-2.45c-17.13-1.32-34.26,7.85-51.39,6.53a5.2,5.2,0,0,1,.69,2.55,4.25,4.25,0,0,1-5,4.39v12.5a6,6,0,0,1,5,5.61c16.67,1,33.33-7.64,50-6.62A4.25,4.25,0,0,1,167.5,29.2Z"/><path class="cls-13" d="M130,26a9.93,9.93,0,0,1,7.5-9.15c4.14-1,7.5,1.7,7.5,5.85a9.93,9.93,0,0,1-7.5,9.15C133.36,32.86,130,30.2,130,26Z"/><circle class="cls-3" cx="122.33" cy="127.06" r="20"/><text class="cls-16" transform="translate(115.69 135.56)">X</text></g></g></svg>