<svg xmlns="http://www.w3.org/2000/svg" viewBox="0 0 256.66 58.9"><defs><style>.cls-1{fill:#ffb600;}</style></defs><title>curly-brace-bot</title><g id="Layer_2" data-name="Layer 2"><g id="texts"><path class="cls-1" d="M9.26,0V13.46C9.26,25,16.83,28,38.15,28h44c37.59,0,43.2,16,46.84,19.63C131.27,44,136.88,28,174.47,28h44C239.83,28,247.4,25,247.4,13.46V0h9.26V14c0,15.71-7.57,24.68-33.1,24.68H179c-22.72,0-44.6,3.65-45.44,20.2H122.86c-.84-16.55-22.72-20.2-45.44-20.2H33.1C7.57,38.71,0,29.73,0,14V0Z"/></g></g></svg>