<svg xmlns="http://www.w3.org/2000/svg" viewBox="0 0 42.84 186.66"><defs><style>.cls-1{fill:#ffb600;}</style></defs><title>curly-brace-left</title><g id="Layer_2" data-name="Layer 2"><g id="texts"><path class="cls-1" d="M0,179.92H9.79c8.36,0,10.61-5.51,10.61-21v-32C20.4,99.55,32,95.47,34.68,92.82,32,91.19,20.4,87.11,20.4,59.77v-32c0-15.5-2.24-21-10.61-21H0V0H10.2c11.42,0,18,5.51,18,24.07V56.51c0,16.52,2.65,32.44,14.69,33v7.75c-12,.61-14.69,16.52-14.69,33v32.23c0,18.56-6.53,24.07-18,24.07H0Z"/></g></g></svg>