<svg xmlns="http://www.w3.org/2000/svg" viewBox="0 0 499.75 141.68"><defs><style>.cls-1{isolation:isolate;}.cls-10,.cls-2{fill:none;}.cls-10,.cls-15,.cls-2,.cls-7,.cls-8{stroke:#fff;}.cls-2,.cls-7,.cls-8{stroke-miterlimit:10;}.cls-2{stroke-width:3px;}.cls-3{font-size:53px;fill:#fff;font-family:ArialMT, Arial;}.cls-4{letter-spacing:-0.07em;}.cls-5{letter-spacing:-0.02em;}.cls-6{letter-spacing:-0.06em;}.cls-14,.cls-15,.cls-7,.cls-8,.cls-9{fill:#767676;}.cls-7{stroke-width:4px;}.cls-15,.cls-8{stroke-width:2px;}.cls-9{opacity:0.49;mix-blend-mode:multiply;}.cls-10,.cls-15{stroke-linecap:round;stroke-linejoin:round;}.cls-10{stroke-width:6px;}.cls-11{fill:#bbe170;}.cls-12{fill:#87c22e;}.cls-13{fill:#518bc7;}</style></defs><title>display-ads-title</title><g class="cls-1"><g id="Layer_2" data-name="Layer 2"><g id="texts"><path class="cls-2" d="M106.84,115.7"/><text class="cls-3" transform="translate(159.99 90.7)">DISPL<tspan class="cls-4" x="153.18" y="0">A</tspan><tspan class="cls-5" x="184.59" y="0">Y</tspan><tspan class="cls-6" x="218.99" y="0"> </tspan><tspan x="230.79" y="0">ADS</tspan></text><circle class="cls-7" cx="70.84" cy="70.84" r="62.88"/><polyline class="cls-8" points="14.05 1 1 1 1 14.05"/><polyline class="cls-8" points="127.63 140.68 140.68 140.68 140.68 127.63"/><circle class="cls-9" cx="70.84" cy="70.84" r="47.98"/><path class="cls-10" d="M99.84,32.49v79.62H41.66V32.49ZM92.56,77.06l3-2.69L92,71.17,94.37,67l-2.65-1.18L90,65.1l1-4.66-4.72-.51-.51-4.73-4.66,1-1.95-4.33L75,54.19l-3.2-3.53-3.2,3.53L64.5,51.82l-2,4.33-4.65-1-.51,4.73-4.73.51,1,4.66L49.27,67l2.36,4.13-3.52,3.2,3.52,3.19-2.36,4.13,4.33,2-1,4.65,4.73.51.51,4.73,4.65-1,2,4.33,4.12-2.36,3.2,3.52L75,94.56l4.13,2.36,1.95-4.33,4.66,1,.51-4.73L91,88.31l-1-4.65,4.34-2L92.27,78A3,3,0,0,0,92.56,77.06Z"/><path class="cls-10" d="M95.52,74.37l-3,2.69a3,3,0,0,0,0-.42,3.45,3.45,0,0,0-3.51-3.35,3.57,3.57,0,0,0-2.92,1.49l-.82-.64,6.38-8.26v0L94.37,67,92,71.17Z"/><path class="cls-10" d="M92.27,78l2.09,3.66-4.34,2,1,4.65-4.72.51-.51,4.73-4.66-1-1.95,4.33L75,94.56l-3.2,3.52-3.2-3.52L64.5,96.92l-2-4.33-4.65,1-.51-4.73-4.73-.51,1-4.65-4.33-2,2.36-4.13,2.09.59A6.68,6.68,0,0,0,58.46,80,4.85,4.85,0,0,0,63.59,75c0-.16,0-.31,0-.47l1.79-.22C65.7,77.56,67.11,80,70.52,80c3.94,0,5.22-3.22,5.22-7.19A13.33,13.33,0,0,0,75.47,70l1.88-.31a3.42,3.42,0,0,0,3.32,2.65h.13a3.61,3.61,0,0,0,2.71-1.2l.75.58-6.2,8H81l4.32-5.6.82.64a3.2,3.2,0,0,0-.59,1.86A3.4,3.4,0,0,0,89.08,80,3.52,3.52,0,0,0,92.27,78Z"/><path class="cls-10" d="M92.58,76.64a3,3,0,0,1,0,.42l-.55.5.27.47A3.52,3.52,0,0,1,89.08,80a3.4,3.4,0,0,1-3.51-3.34,3.2,3.2,0,0,1,.59-1.86,3.57,3.57,0,0,1,2.92-1.49A3.45,3.45,0,0,1,92.58,76.64Zm-2.44,0a1.07,1.07,0,1,0-1.07,1A1.05,1.05,0,0,0,90.14,76.62Z"/><path class="cls-10" d="M92,77.56l.55-.5a3,3,0,0,1-.28,1Z"/><path class="cls-10" d="M90,65.1l1.7.77v0H88.76l-4.51,5.84-.75-.58A3.27,3.27,0,0,0,84.3,69a3.44,3.44,0,0,0-3.38-3.34H80.8A3.44,3.44,0,0,0,77.29,69a3.16,3.16,0,0,0,.07.68L75.47,70c-.54-2.57-2-4.34-5-4.34-3.94,0-5.22,3.16-5.22,7.14,0,.53,0,1.06.07,1.56l-1.79.22c-.19-2.29-1.85-4.09-4.94-4.09a4.23,4.23,0,0,0-1,.14h0a2.27,2.27,0,0,0,.08-.54l.08-1.28h4.81V65.88H54.79l-1.18-.79-1-4.66,4.73-.51.51-4.73,4.65,1,2-4.33,4.12,2.37,3.2-3.53L75,54.19l4.13-2.37,1.95,4.33,4.66-1,.51,4.73,4.72.51Z"/><polygon class="cls-10" points="91.71 65.88 85.33 74.14 81.01 79.75 78.06 79.75 84.26 71.72 88.77 65.88 91.71 65.88"/><path class="cls-10" d="M89.08,75.62a1,1,0,1,1-1.07,1A1.05,1.05,0,0,1,89.08,75.62Z"/><path class="cls-10" d="M84.3,69a3.27,3.27,0,0,1-.8,2.13,3.61,3.61,0,0,1-2.71,1.2h-.13L80.8,70a1,1,0,1,0,0-2l.13-2.32A3.44,3.44,0,0,1,84.3,69Z"/><path class="cls-10" d="M80.8,68a1,1,0,1,1-1.07,1A1.05,1.05,0,0,1,80.8,68Z"/><path class="cls-10" d="M80.92,65.66,80.8,68a1,1,0,1,0,0,2l-.13,2.32a3.42,3.42,0,0,1-3.32-2.65,3.16,3.16,0,0,1-.07-.68,3.44,3.44,0,0,1,3.51-3.35Z"/><path class="cls-10" d="M75.47,70a13.33,13.33,0,0,1,.26,2.79c0,4-1.28,7.19-5.22,7.19-3.4,0-4.82-2.41-5.15-5.63,0-.5-.07-1-.07-1.56,0-4,1.28-7.14,5.22-7.14C73.47,65.65,74.93,67.42,75.47,70Zm-3.23,2.79c0-2.25-.39-4-1.73-4s-1.73,1.78-1.73,4,.39,4.09,1.73,4.09S72.24,75.05,72.24,72.78Z"/><path class="cls-10" d="M70.52,68.75c1.34,0,1.73,1.78,1.73,4s-.39,4.09-1.73,4.09-1.73-1.82-1.73-4.09S69.18,68.75,70.52,68.75Z"/><path class="cls-10" d="M63.58,74.57c0,.16,0,.31,0,.47A4.85,4.85,0,0,1,58.46,80a6.68,6.68,0,0,1-4.73-1.82l1.63-2.62a4.57,4.57,0,0,0,2.81,1.24,1.8,1.8,0,0,0,1.94-1.71c0-1.09-1-1.73-2.21-1.73a4,4,0,0,0-1.86.47h0l-1.77-.67.14-1.75.43-5.51h7.76v2.91H57.74l-.08,1.28a2.27,2.27,0,0,1-.08.54h0a4.23,4.23,0,0,1,1-.14C61.72,70.48,63.38,72.28,63.58,74.57Z"/><path class="cls-10" d="M57.89,73.35c1.26,0,2.21.64,2.21,1.73a1.8,1.8,0,0,1-1.94,1.71,4.57,4.57,0,0,1-2.81-1.24L56,73.8h0A4,4,0,0,1,57.89,73.35Z"/><polygon class="cls-10" points="56 73.8 55.35 75.54 53.73 78.16 51.63 77.56 48.11 74.37 51.63 71.17 54.37 71.39 54.23 73.13 56 73.8"/><polygon class="cls-10" points="54.79 65.88 54.37 71.39 51.63 71.17 49.27 67.04 53.61 65.09 54.79 65.88"/><path class="cls-10" d="M50,44.94a5.75,5.75,0,0,0,3.32,1.44c.7,0,1.45-.27,1.45-1.11,0-1.65-6.25-1.59-6.25-5.86,0-2.56,2.15-4.25,4.91-4.25a6.29,6.29,0,0,1,4.46,1.57L56.5,39.51a5.29,5.29,0,0,0-3.06-1.22c-.7,0-1.47.31-1.47,1.09,0,1.75,6.25,1.44,6.25,5.82,0,2.31-1.76,4.31-4.89,4.31a7.16,7.16,0,0,1-5.06-2Z"/><path class="cls-10" d="M67.47,46.35H63.15l-.83,2.91H58.82l4.71-13.87H67.1l4.71,13.87H68.33Zm-2.17-7.8s-.31,1.51-.56,2.39l-.8,2.7h2.73l-.78-2.7c-.25-.87-.56-2.39-.56-2.39Z"/><path class="cls-10" d="M73.37,35.39h3.39v11h5.66v2.91H73.37Z"/><path class="cls-10" d="M84.28,35.39H93V38.3H87.68v2.52h4.23v2.91H87.68v2.62h5.57v2.91h-9Z"/><path class="cls-11" d="M99.84,32.49v79.62H41.66V32.49ZM92.56,77.06l3-2.69L92,71.17,94.37,67l-2.65-1.18L90,65.1l1-4.66-4.72-.51-.51-4.73-4.66,1-1.95-4.33L75,54.19l-3.2-3.53-3.2,3.53L64.5,51.82l-2,4.33-4.65-1-.51,4.73-4.73.51,1,4.66L49.27,67l2.36,4.13-3.52,3.2,3.52,3.19-2.36,4.13,4.33,2-1,4.65,4.73.51.51,4.73,4.65-1,2,4.33,4.12-2.36,3.2,3.52L75,94.56l4.13,2.36,1.95-4.33,4.66,1,.51-4.73L91,88.31l-1-4.65,4.34-2L92.27,78A3,3,0,0,0,92.56,77.06Z"/><path class="cls-12" d="M95.52,74.37l-3,2.69a3,3,0,0,0,0-.42,3.45,3.45,0,0,0-3.51-3.35,3.57,3.57,0,0,0-2.92,1.49l-.82-.64,6.38-8.26v0L94.37,67,92,71.17Z"/><path class="cls-12" d="M92.27,78l2.09,3.66-4.34,2,1,4.65-4.72.51-.51,4.73-4.66-1-1.95,4.33L75,94.56l-3.2,3.52-3.2-3.52L64.5,96.92l-2-4.33-4.65,1-.51-4.73-4.73-.51,1-4.65-4.33-2,2.36-4.13,2.09.59A6.68,6.68,0,0,0,58.46,80,4.85,4.85,0,0,0,63.59,75c0-.16,0-.31,0-.47l1.79-.22C65.7,77.56,67.11,80,70.52,80c3.94,0,5.22-3.22,5.22-7.19A13.33,13.33,0,0,0,75.47,70l1.88-.31a3.42,3.42,0,0,0,3.32,2.65h.13a3.61,3.61,0,0,0,2.71-1.2l.75.58-6.2,8H81l4.32-5.6.82.64a3.2,3.2,0,0,0-.59,1.86A3.4,3.4,0,0,0,89.08,80,3.52,3.52,0,0,0,92.27,78Z"/><path class="cls-11" d="M92.58,76.64a3,3,0,0,1,0,.42l-.55.5.27.47A3.52,3.52,0,0,1,89.08,80a3.4,3.4,0,0,1-3.51-3.34,3.2,3.2,0,0,1,.59-1.86,3.57,3.57,0,0,1,2.92-1.49A3.45,3.45,0,0,1,92.58,76.64Zm-2.44,0a1.07,1.07,0,1,0-1.07,1A1.05,1.05,0,0,0,90.14,76.62Z"/><path class="cls-13" d="M92,77.56l.55-.5a3,3,0,0,1-.28,1Z"/><path class="cls-12" d="M90,65.1l1.7.77v0H88.76l-4.51,5.84-.75-.58A3.27,3.27,0,0,0,84.3,69a3.44,3.44,0,0,0-3.38-3.34H80.8A3.44,3.44,0,0,0,77.29,69a3.16,3.16,0,0,0,.07.68L75.47,70c-.54-2.57-2-4.34-5-4.34-3.94,0-5.22,3.16-5.22,7.14,0,.53,0,1.06.07,1.56l-1.79.22c-.19-2.29-1.85-4.09-4.94-4.09a4.23,4.23,0,0,0-1,.14h0a2.27,2.27,0,0,0,.08-.54l.08-1.28h4.81V65.88H54.79l-1.18-.79-1-4.66,4.73-.51.51-4.73,4.65,1,2-4.33,4.12,2.37,3.2-3.53L75,54.19l4.13-2.37,1.95,4.33,4.66-1,.51,4.73,4.72.51Z"/><polygon class="cls-11" points="91.71 65.88 85.33 74.14 81.01 79.75 78.06 79.75 84.26 71.72 88.77 65.88 91.71 65.88"/><path class="cls-12" d="M89.08,75.62a1,1,0,1,1-1.07,1A1.05,1.05,0,0,1,89.08,75.62Z"/><path class="cls-11" d="M84.3,69a3.27,3.27,0,0,1-.8,2.13,3.61,3.61,0,0,1-2.71,1.2h-.13L80.8,70a1,1,0,1,0,0-2l.13-2.32A3.44,3.44,0,0,1,84.3,69Z"/><path class="cls-12" d="M80.8,68a1,1,0,1,1-1.07,1A1.05,1.05,0,0,1,80.8,68Z"/><path class="cls-11" d="M80.92,65.66,80.8,68a1,1,0,1,0,0,2l-.13,2.32a3.42,3.42,0,0,1-3.32-2.65,3.16,3.16,0,0,1-.07-.68,3.44,3.44,0,0,1,3.51-3.35Z"/><path class="cls-11" d="M75.47,70a13.33,13.33,0,0,1,.26,2.79c0,4-1.28,7.19-5.22,7.19-3.4,0-4.82-2.41-5.15-5.63,0-.5-.07-1-.07-1.56,0-4,1.28-7.14,5.22-7.14C73.47,65.65,74.93,67.42,75.47,70Zm-3.23,2.79c0-2.25-.39-4-1.73-4s-1.73,1.78-1.73,4,.39,4.09,1.73,4.09S72.24,75.05,72.24,72.78Z"/><path class="cls-12" d="M70.52,68.75c1.34,0,1.73,1.78,1.73,4s-.39,4.09-1.73,4.09-1.73-1.82-1.73-4.09S69.18,68.75,70.52,68.75Z"/><path class="cls-11" d="M63.58,74.57c0,.16,0,.31,0,.47A4.85,4.85,0,0,1,58.46,80a6.68,6.68,0,0,1-4.73-1.82l1.63-2.62a4.57,4.57,0,0,0,2.81,1.24,1.8,1.8,0,0,0,1.94-1.71c0-1.09-1-1.73-2.21-1.73a4,4,0,0,0-1.86.47h0l-1.77-.67.14-1.75.43-5.51h7.76v2.91H57.74l-.08,1.28a2.27,2.27,0,0,1-.08.54h0a4.23,4.23,0,0,1,1-.14C61.72,70.48,63.38,72.28,63.58,74.57Z"/><path class="cls-12" d="M57.89,73.35c1.26,0,2.21.64,2.21,1.73a1.8,1.8,0,0,1-1.94,1.71,4.57,4.57,0,0,1-2.81-1.24L56,73.8h0A4,4,0,0,1,57.89,73.35Z"/><polygon class="cls-12" points="56 73.8 55.35 75.54 53.73 78.16 51.63 77.56 48.11 74.37 51.63 71.17 54.37 71.39 54.23 73.13 56 73.8"/><polygon class="cls-12" points="54.79 65.88 54.37 71.39 51.63 71.17 49.27 67.04 53.61 65.09 54.79 65.88"/><path class="cls-12" d="M50,44.94a5.75,5.75,0,0,0,3.32,1.44c.7,0,1.45-.27,1.45-1.11,0-1.65-6.25-1.59-6.25-5.86,0-2.56,2.15-4.25,4.91-4.25a6.29,6.29,0,0,1,4.46,1.57L56.5,39.51a5.29,5.29,0,0,0-3.06-1.22c-.7,0-1.47.31-1.47,1.09,0,1.75,6.25,1.44,6.25,5.82,0,2.31-1.76,4.31-4.89,4.31a7.16,7.16,0,0,1-5.06-2Z"/><path class="cls-12" d="M67.47,46.35H63.15l-.83,2.91H58.82l4.71-13.87H67.1l4.71,13.87H68.33Zm-2.17-7.8s-.31,1.51-.56,2.39l-.8,2.7h2.73l-.78-2.7c-.25-.87-.56-2.39-.56-2.39Z"/><path class="cls-12" d="M73.37,35.39h3.39v11h5.66v2.91H73.37Z"/><path class="cls-12" d="M84.28,35.39H93V38.3H87.68v2.52h4.23v2.91H87.68v2.62h5.57v2.91h-9Z"/><path class="cls-14" d="M99.84,32.49v79.62H41.66V32.49ZM92.56,77.06l3-2.69L92,71.17,94.37,67l-2.65-1.18L90,65.1l1-4.66-4.72-.51-.51-4.73-4.66,1-1.95-4.33L75,54.19l-3.2-3.53-3.2,3.53L64.5,51.82l-2,4.33-4.65-1-.51,4.73-4.73.51,1,4.66L49.27,67l2.36,4.13-3.52,3.2,3.52,3.19-2.36,4.13,4.33,2-1,4.65,4.73.51.51,4.73,4.65-1,2,4.33,4.12-2.36,3.2,3.52L75,94.56l4.13,2.36,1.95-4.33,4.66,1,.51-4.73L91,88.31l-1-4.65,4.34-2L92.27,78A3,3,0,0,0,92.56,77.06Z"/><path class="cls-14" d="M95.52,74.37l-3,2.69a3,3,0,0,0,0-.42,3.45,3.45,0,0,0-3.51-3.35,3.57,3.57,0,0,0-2.92,1.49l-.82-.64,6.38-8.26v0L94.37,67,92,71.17Z"/><path class="cls-14" d="M92.27,78l2.09,3.66-4.34,2,1,4.65-4.72.51-.51,4.73-4.66-1-1.95,4.33L75,94.56l-3.2,3.52-3.2-3.52L64.5,96.92l-2-4.33-4.65,1-.51-4.73-4.73-.51,1-4.65-4.33-2,2.36-4.13,2.09.59A6.68,6.68,0,0,0,58.46,80,4.85,4.85,0,0,0,63.59,75c0-.16,0-.31,0-.47l1.79-.22C65.7,77.56,67.11,80,70.52,80c3.94,0,5.22-3.22,5.22-7.19A13.33,13.33,0,0,0,75.47,70l1.88-.31a3.42,3.42,0,0,0,3.32,2.65h.13a3.61,3.61,0,0,0,2.71-1.2l.75.58-6.2,8H81l4.32-5.6.82.64a3.2,3.2,0,0,0-.59,1.86A3.4,3.4,0,0,0,89.08,80,3.52,3.52,0,0,0,92.27,78Z"/><path class="cls-14" d="M92.58,76.64a3,3,0,0,1,0,.42l-.55.5.27.47A3.52,3.52,0,0,1,89.08,80a3.4,3.4,0,0,1-3.51-3.34,3.2,3.2,0,0,1,.59-1.86,3.57,3.57,0,0,1,2.92-1.49A3.45,3.45,0,0,1,92.58,76.64Zm-2.44,0a1.07,1.07,0,1,0-1.07,1A1.05,1.05,0,0,0,90.14,76.62Z"/><path class="cls-14" d="M92,77.56l.55-.5a3,3,0,0,1-.28,1Z"/><path class="cls-14" d="M90,65.1l1.7.77v0H88.76l-4.51,5.84-.75-.58A3.27,3.27,0,0,0,84.3,69a3.44,3.44,0,0,0-3.38-3.34H80.8A3.44,3.44,0,0,0,77.29,69a3.16,3.16,0,0,0,.07.68L75.47,70c-.54-2.57-2-4.34-5-4.34-3.94,0-5.22,3.16-5.22,7.14,0,.53,0,1.06.07,1.56l-1.79.22c-.19-2.29-1.85-4.09-4.94-4.09a4.23,4.23,0,0,0-1,.14h0a2.27,2.27,0,0,0,.08-.54l.08-1.28h4.81V65.88H54.79l-1.18-.79-1-4.66,4.73-.51.51-4.73,4.65,1,2-4.33,4.12,2.37,3.2-3.53L75,54.19l4.13-2.37,1.95,4.33,4.66-1,.51,4.73,4.72.51Z"/><polygon class="cls-14" points="91.71 65.88 85.33 74.14 81.01 79.75 78.06 79.75 84.26 71.72 88.77 65.88 91.71 65.88"/><path class="cls-14" d="M89.08,75.62a1,1,0,1,1-1.07,1A1.05,1.05,0,0,1,89.08,75.62Z"/><path class="cls-14" d="M84.3,69a3.27,3.27,0,0,1-.8,2.13,3.61,3.61,0,0,1-2.71,1.2h-.13L80.8,70a1,1,0,1,0,0-2l.13-2.32A3.44,3.44,0,0,1,84.3,69Z"/><path class="cls-14" d="M80.8,68a1,1,0,1,1-1.07,1A1.05,1.05,0,0,1,80.8,68Z"/><path class="cls-14" d="M80.92,65.66,80.8,68a1,1,0,1,0,0,2l-.13,2.32a3.42,3.42,0,0,1-3.32-2.65,3.16,3.16,0,0,1-.07-.68,3.44,3.44,0,0,1,3.51-3.35Z"/><path class="cls-14" d="M75.47,70a13.33,13.33,0,0,1,.26,2.79c0,4-1.28,7.19-5.22,7.19-3.4,0-4.82-2.41-5.15-5.63,0-.5-.07-1-.07-1.56,0-4,1.28-7.14,5.22-7.14C73.47,65.65,74.93,67.42,75.47,70Zm-3.23,2.79c0-2.25-.39-4-1.73-4s-1.73,1.78-1.73,4,.39,4.09,1.73,4.09S72.24,75.05,72.24,72.78Z"/><path class="cls-14" d="M70.52,68.75c1.34,0,1.73,1.78,1.73,4s-.39,4.09-1.73,4.09-1.73-1.82-1.73-4.09S69.18,68.75,70.52,68.75Z"/><path class="cls-14" d="M63.58,74.57c0,.16,0,.31,0,.47A4.85,4.85,0,0,1,58.46,80a6.68,6.68,0,0,1-4.73-1.82l1.63-2.62a4.57,4.57,0,0,0,2.81,1.24,1.8,1.8,0,0,0,1.94-1.71c0-1.09-1-1.73-2.21-1.73a4,4,0,0,0-1.86.47h0l-1.77-.67.14-1.75.43-5.51h7.76v2.91H57.74l-.08,1.28a2.27,2.27,0,0,1-.08.54h0a4.23,4.23,0,0,1,1-.14C61.72,70.48,63.38,72.28,63.58,74.57Z"/><path class="cls-14" d="M57.89,73.35c1.26,0,2.21.64,2.21,1.73a1.8,1.8,0,0,1-1.94,1.71,4.57,4.57,0,0,1-2.81-1.24L56,73.8h0A4,4,0,0,1,57.89,73.35Z"/><polygon class="cls-14" points="56 73.8 55.35 75.54 53.73 78.16 51.63 77.56 48.11 74.37 51.63 71.17 54.37 71.39 54.23 73.13 56 73.8"/><polygon class="cls-14" points="54.79 65.88 54.37 71.39 51.63 71.17 49.27 67.04 53.61 65.09 54.79 65.88"/><path class="cls-14" d="M50,44.94a5.75,5.75,0,0,0,3.32,1.44c.7,0,1.45-.27,1.45-1.11,0-1.65-6.25-1.59-6.25-5.86,0-2.56,2.15-4.25,4.91-4.25a6.29,6.29,0,0,1,4.46,1.57L56.5,39.51a5.29,5.29,0,0,0-3.06-1.22c-.7,0-1.47.31-1.47,1.09,0,1.75,6.25,1.44,6.25,5.82,0,2.31-1.76,4.31-4.89,4.31a7.16,7.16,0,0,1-5.06-2Z"/><path class="cls-14" d="M67.47,46.35H63.15l-.83,2.91H58.82l4.71-13.87H67.1l4.71,13.87H68.33Zm-2.17-7.8s-.31,1.51-.56,2.39l-.8,2.7h2.73l-.78-2.7c-.25-.87-.56-2.39-.56-2.39Z"/><path class="cls-14" d="M73.37,35.39h3.39v11h5.66v2.91H73.37Z"/><path class="cls-14" d="M84.28,35.39H93V38.3H87.68v2.52h4.23v2.91H87.68v2.62h5.57v2.91h-9Z"/><line class="cls-15" x1="99.84" y1="107.38" x2="42" y2="107.38"/><path class="cls-14" d="M96.12,95.23a16,16,0,0,1,.56,4c0,1.55-1,1.79-2,1.79H90.45a5.32,5.32,0,0,0-10.51,0H61.82a5.32,5.32,0,0,0-10.51,0h-3.9c-1,0-1.5-.85-1.59-1.84a23.65,23.65,0,0,1,0-5.85C47,88.15,51.1,80,60.12,80h6.35c11.24,0,13.33,5.65,17.66,8.44,3.07,2,5.61,2.1,7.26,2.51a7,7,0,0,1,2.91,1.47,1.38,1.38,0,0,0-.53.16l-.14.07a1.31,1.31,0,0,0-.52,1.78l.52.94a1.31,1.31,0,0,0,1.78.53l.14-.07A1.37,1.37,0,0,0,96.12,95.23Zm-12.59-3.9v-1.2c0-.29-.85-.63-1.14-.63H79.08C75.62,84.07,68.76,83,68.76,83v7.39h9.52v1c0,.29.37,1.33.65,1.33H82.4C82.68,92.65,83.53,91.62,83.53,91.32ZM73,93.36V93a.33.33,0,0,0-.34-.34H70.2a.33.33,0,0,0-.34.34v.38a.33.33,0,0,0,.34.34h2.48A.33.33,0,0,0,73,93.36Zm-6-3V83.3H59.93v7.07Zm-4.49,3V93a.33.33,0,0,0-.34-.34H59.68a.33.33,0,0,0-.34.34v.38a.33.33,0,0,0,.34.34h2.48A.33.33,0,0,0,62.5,93.36Zm-4.34-3V83c-3.53.21-8.13,7.39-5.49,7.39Z"/><path class="cls-14" d="M95.89,94.54a6.46,6.46,0,0,1,.23.68,1.37,1.37,0,0,1-.57.63l-.14.07a1.31,1.31,0,0,1-1.78-.53l-.52-.94a1.31,1.31,0,0,1,.52-1.78l.14-.07a1.38,1.38,0,0,1,.53-.16,6.28,6.28,0,0,1,1.47,1.84C95.82,94.37,95.85,94.46,95.89,94.54Z"/><path class="cls-14" d="M95.89,94.54c0-.08-.07-.17-.12-.24a6.28,6.28,0,0,0-1.47-1.84h.06a6.62,6.62,0,0,1,1.41,1.81A2.13,2.13,0,0,1,95.89,94.54Z"/><path class="cls-14" d="M90.45,101.06a4.81,4.81,0,0,1,.07.87,5.31,5.31,0,0,1-4.94,5.3l-.18-3.13A2.17,2.17,0,0,0,87.35,102a2.31,2.31,0,0,0-.19-.89Z"/><path class="cls-14" d="M90.45,101.06H87.16a2.16,2.16,0,0,0-2-1.27,2.13,2.13,0,0,0-2,1.27H79.95a5.32,5.32,0,0,1,10.51,0Z"/><path class="cls-14" d="M87.16,101.06a2.31,2.31,0,0,1,.19.89,2.17,2.17,0,0,1-1.95,2.15h-.22a2.15,2.15,0,0,1-2-3Z"/><path class="cls-14" d="M87.16,101.06H83.23a2.13,2.13,0,0,1,2-1.27A2.16,2.16,0,0,1,87.16,101.06Z"/><path class="cls-14" d="M85.41,104.1l.18,3.13a2.41,2.41,0,0,1-.39,0,5.32,5.32,0,0,1-5.32-5.32,4.81,4.81,0,0,1,.07-.87h3.28a2.15,2.15,0,0,0,2,3Z"/><path class="cls-14" d="M83.53,90.13v1.2c0,.29-.85,1.33-1.14,1.33H78.93c-.28,0-.65-1-.65-1.33v-1h1.3a10,10,0,0,0-.5-.87H82.4C82.68,89.49,83.53,89.83,83.53,90.13Z"/><path class="cls-14" d="M79.58,90.37h-1.3v-.24a.75.75,0,0,1,.65-.63h.15A10,10,0,0,1,79.58,90.37Z"/><path class="cls-14" d="M79.08,89.49h-.15a.75.75,0,0,0-.65.63v.24H68.76V83S75.62,84.07,79.08,89.49Z"/><rect class="cls-14" x="69.86" y="92.65" width="3.15" height="1.05" rx="0.34" ry="0.34"/><rect class="cls-14" x="59.93" y="83.3" width="7.07" height="7.07"/><rect class="cls-14" x="59.35" y="92.65" width="3.15" height="1.05" rx="0.34" ry="0.34"/><path class="cls-14" d="M61.82,101.06a4.81,4.81,0,0,1,.07.87,5.33,5.33,0,0,1-10.65,0,4.81,4.81,0,0,1,.07-.87h3.28a2,2,0,0,0-.19.87,2.16,2.16,0,1,0,4.14-.87Z"/><path class="cls-14" d="M61.82,101.06H58.55a2.17,2.17,0,0,0-2-1.29,2.13,2.13,0,0,0-2,1.29H51.31a5.32,5.32,0,0,1,10.51,0Z"/><path class="cls-14" d="M58.55,101.06a2.16,2.16,0,1,1-4.14.87,2,2,0,0,1,.19-.87Z"/><path class="cls-14" d="M58.55,101.06h-4a2.13,2.13,0,0,1,2-1.29A2.17,2.17,0,0,1,58.55,101.06Z"/><path class="cls-14" d="M58.16,83v7.39H52.67C50,90.37,54.62,83.18,58.16,83Z"/><path class="cls-14" d="M45.59,94.72c0,.81-.08,1.71,0,2.54a1.29,1.29,0,0,1-.93-1.2v-.15A1.39,1.39,0,0,1,45.59,94.72Z"/><circle class="cls-8" cx="100.88" cy="31.55" r="7.31"/><polygon class="cls-14" points="104.93 29.28 103.14 27.5 100.88 29.76 98.61 27.5 96.82 29.28 99.09 31.55 96.82 33.81 98.61 35.6 100.88 33.34 103.14 35.6 104.93 33.81 102.66 31.55 104.93 29.28"/></g></g></g></svg>