<svg xmlns="http://www.w3.org/2000/svg" xmlns:xlink="http://www.w3.org/1999/xlink" viewBox="0 0 292.6 262"><defs><style>.cls-1,.cls-3{fill:#767676;}.cls-2{fill:none;}.cls-2,.cls-3{stroke:#fff;stroke-linecap:round;stroke-linejoin:round;stroke-width:2px;}.cls-4{font-size:23.5px;fill:#f2f2f2;font-family:ArialMT, Arial;}.cls-5{clip-path:url(#clip-path);}</style><clipPath id="clip-path"><rect class="cls-1" x="209.1" y="46" width="56.55" height="147.5"/></clipPath></defs><title>enter</title><g id="Layer_2" data-name="Layer 2"><g id="texts"><polyline class="cls-2" points="291.6 221 291.6 196 81.6 196 81.6 218.5 41.6 218.5 41.6 238.5 1.6 238.5 1.6 261"/><rect class="cls-3" x="176.6" y="33.5" width="90" height="162.5"/><rect class="cls-3" x="176.6" y="1" width="90" height="27.5"/><path class="cls-3" d="M131,127.15c1.75,6.23,3.81,12.38,5.72,18.56,1.12,3.61,2.47,7.33.73,11.07C135,162.09,128,178.34,126.6,181c-1,2-3.57,5.27-.42,6.29a8.54,8.54,0,0,1,3,1.79c.6.53,1.48,2.06,2.42,1.29a.91.91,0,0,0,.25-1.07,15.26,15.26,0,0,0-3.15-4.37l17.37-32.28-.06-.38-3.86-27.6a5.75,5.75,0,0,0-11.39,1.59A6.21,6.21,0,0,0,131,127.15Z"/><path class="cls-3" d="M127.46,76.65,111.33,97.23l-.25.32a2.64,2.64,0,0,0,.29,3.56L111.13,129l-.36-.22,3.31,2.75a.74.74,0,0,0,1-1.07l-2.92-3.16a.69.69,0,0,0-.23-.16l-.14-.06,4.9-27.59h0l17.69-16.55a4.68,4.68,0,0,0-6.5-6.74A5.12,5.12,0,0,0,127.46,76.65Z"/><path class="cls-3" d="M119.09,125.68c1.67,6.43,7.12,8,13,6.47s9.84-5.52,8.18-12c-1.38-5.33,2.17-39-5-48.26-.1-.13-.76.4-1.06.05-.84-.94-1.24-3.9-1.24-3.9l-3.1.8s-.13,3.26-.23,3.74C127.53,83.42,117.67,120.22,119.09,125.68Z"/><path class="cls-3" d="M123.68,56.43a7.42,7.42,0,0,1,14.8-1c.28,4.09-2.52,11.68-6.61,12S124,60.51,123.68,56.43Z"/><path class="cls-3" d="M127.24,83.45l9.23,24.47.14.38a2.64,2.64,0,0,0,3.2,1.6l23.71,14.65-.38.2,4.06-1.41a.74.74,0,0,0-.39-1.42l-4.21.86a.69.69,0,0,0-.26.11l-.12.09-21.05-18.49h0l-5-23.71a4.68,4.68,0,0,0-9.13,2.07A5.12,5.12,0,0,0,127.24,83.45Z"/><path class="cls-3" d="M118.41,127.87l-1.8,27.84.08-.37-.38,1.82-1,4.72-1.37,6.54-1.52,7.28L111,182.64l-1.15,5.51c-.14.68-.28,1.36-.43,2a9.81,9.81,0,0,0-.39,1.92c0,1.32,1,1.51,2.11,1.57a8.54,8.54,0,0,1,3.38.95c.71.36,2,1.61,2.67.62a.91.91,0,0,0,0-1.1,15.25,15.25,0,0,0-4.18-3.41l10.53-33.64.08-.37,6.2-27.2A5.75,5.75,0,1,0,118.54,127,6.22,6.22,0,0,0,118.41,127.87Z"/><path class="cls-3" d="M18.45,172.12l5.34,27.38,0-.38.09,1.85.25,4.82.34,6.68.38,7.43.36,7.08.29,5.62c0,.69.08,1.39.11,2.08a9.81,9.81,0,0,0,.11,2c.32,1.28,1.39,1.2,2.44,1a8.54,8.54,0,0,1,3.51.06c.78.16,2.31,1.06,2.74-.08a.91.91,0,0,0-.31-1.05,15.25,15.25,0,0,0-4.91-2.24l1.62-35.21,0-.38-.92-27.88a5.75,5.75,0,1,0-11.5.38A6.22,6.22,0,0,0,18.45,172.12Z"/><path class="cls-3" d="M18.44,124.86l7.49,24.77L26,150a2.61,2.61,0,0,0,3,1.79l10.66,22.64-.42,0,4.16.88a.73.73,0,0,0,.4-1.4l-4-1.43a.68.68,0,0,0-.28,0h-.15L31.07,146h0l-3.63-23.2a4.63,4.63,0,0,0-9.14,1.43A5.08,5.08,0,0,0,18.44,124.86Z"/><path class="cls-3" d="M10.44,165.36c2.06,6.23,7.53,7.41,13.19,5.55s6.6-7.2,6.12-11.86c-.55-5.41.8-39.07-6.82-47.7-.11-.12-.72.44-1,.12-.89-.88-1.48-3.77-1.48-3.77l-3,1s.08,3.23,0,3.71C16,123.16,8.69,160.07,10.44,165.36Z"/><path class="cls-3" d="M10.41,169.87l-1.8,27.84.08-.37-.38,1.82-1,4.72-1.37,6.54L4.42,217.7,3,224.64l-1.15,5.51c-.14.68-.28,1.36-.43,2A9.81,9.81,0,0,0,1,234.11c0,1.32,1,1.51,2.11,1.57a8.54,8.54,0,0,1,3.38.95c.71.36,2,1.61,2.67.62a.91.91,0,0,0,0-1.1A15.25,15.25,0,0,0,5,232.73l10.53-33.64.08-.37,6.2-27.2A5.75,5.75,0,1,0,10.54,169,6.22,6.22,0,0,0,10.41,169.87Z"/><path class="cls-3" d="M10.21,99.64a7.23,7.23,0,0,1,5.1-9,7.44,7.44,0,0,1,9,5.21c1.09,3.91-.11,11.81-4,12.85S11.3,103.56,10.21,99.64Z"/><path class="cls-3" d="M13.42,123.32l21.44,14.49.33.22a2.61,2.61,0,0,0,3.49-.54l15.65-19.69-.34.24,3.78-1.94a.73.73,0,0,0-.58-1.34l-4,1.42a.68.68,0,0,0-.24.14l-.11.1L36.56,131.75h0L19.1,116a4.63,4.63,0,0,0-6.19,6.88A5.08,5.08,0,0,0,13.42,123.32Z"/><text class="cls-4" transform="translate(184.1 23.5)">ENTER</text><rect class="cls-1" x="209.1" y="46" width="56.55" height="147.5"/><g class="cls-5"><path class="cls-3" d="M243.24,129.84l11.22,25.52-.11-.37.5,1.78,1.3,4.64,1.8,6.43,2,7.16,1.91,6.82,1.51,5.42c.19.67.38,1.34.56,2a9.8,9.8,0,0,0,.54,1.88c.59,1.18,1.62.87,2.59.42a8.54,8.54,0,0,1,3.44-.72c.8,0,2.49.52,2.65-.68a.91.91,0,0,0-.54-1,15.26,15.26,0,0,0-5.28-1.1l-6.14-34.68-.11-.37-7-27a5.75,5.75,0,0,0-11.13,2.9A6.21,6.21,0,0,0,243.24,129.84Z"/><path class="cls-3" d="M247.87,85.56l16.18,9.22.31.08a2.1,2.1,0,0,0,2.51-1.34l15.79-16.88-.2.28,2.35-2.48a.59.59,0,0,0-.8-.86l-2.66,2.15a.55.55,0,0,0-.14.17l-.05.1L263.72,89.73h0L250.24,78.53a3.72,3.72,0,0,0-2.86,6.87A4.08,4.08,0,0,0,247.87,85.56Z"/><path class="cls-3" d="M236.25,123.38c.72,6.06,5.49,8.15,11,7.49s9.64-3.81,8.92-9.87c-.6-5-.83-36.23-6.18-45.5-.07-.13-.74.27-1-.08-.65-1-.65-3.7-.65-3.7l-2.92.35s-.53,3-.67,3.38C241.52,85,235.64,118.23,236.25,123.38Z"/><path class="cls-3" d="M254.07,60.49a6.81,6.81,0,1,0-13.62,0c0,3.76,3,10.54,6.81,10.54S254.07,64.25,254.07,60.49Z"/><path class="cls-3" d="M242,79.93,225.62,94.45l-.25.22a2.21,2.21,0,0,0-.29,3l5.52,23.67-.13-.33.8,3.51a.62.62,0,0,0,1.22-.19l-.32-3.58a.58.58,0,0,0-.07-.23l-.06-.11-1.8-23.27h0l16.54-11a3.91,3.91,0,0,0-4.34-6.52A4.29,4.29,0,0,0,242,79.93Z"/><path class="cls-3" d="M237.6,126.2v27.66l.22-.3L236.58,155l-3.19,3.77L229,164l-4.92,5.82-4.68,5.54-3.72,4.4c-.46.54-.91,1.09-1.38,1.63a10,10,0,0,0-1.29,1.54c-.66,1.18.2,1.87,1.14,2.44a8.74,8.74,0,0,1,2.59,2.5c.47.67,1,2.41,2.1,1.85a.94.94,0,0,0,.5-1,15.61,15.61,0,0,0-2.1-5.1l25.85-25.18.25-.3,5.85-30.26a5.87,5.87,0,1,0-11.45-2.62A4.33,4.33,0,0,0,237.6,126.2Z"/><path class="cls-3" d="M255.72,113.51l-18.34-2.13-1,8.33s-1.56,12.9,1.47,33.84l-22.18,26.21,4.46,3.48,24.75-22.72,3.5-18,6.11,12.86L261.85,185l7.5-3.25Z"/></g><path class="cls-3" d="M130.19,91.27s1.75-4,7.54-3.13"/><path class="cls-3" d="M121.7,84s3.26,3.48,3.64,7.27"/><path class="cls-3" d="M116.69,155.34s4.5,2.94,6.87,1.38"/><path class="cls-3" d="M138.49,152.83a9.46,9.46,0,0,0,7.54-.57"/><path class="cls-3" d="M121.7,107.21S110.77,127,109,143.46c0,0,18.75,11.19,42.25-2.24,0,0-9.71-17.53-11.39-28.35"/><polygon class="cls-3" points="29.09 151.8 11.09 152.27 8.35 168.5 8.61 197.71 1.82 230.15 5.76 230.15 16.95 199.06 20.74 184.59 23.79 199.5 25.48 232.6 29.17 234.3 33.35 199 29.09 151.8"/></g></g></svg>