<svg xmlns="http://www.w3.org/2000/svg" xmlns:xlink="http://www.w3.org/1999/xlink" viewBox="0 0 292 262"><defs><style>.cls-1,.cls-2{fill:#767676;}.cls-2,.cls-3{stroke:#fff;stroke-linecap:round;stroke-linejoin:round;stroke-width:2px;}.cls-3{fill:none;}.cls-4{font-size:23.5px;fill:#f2f2f2;font-family:ArialMT, Arial;}.cls-5{letter-spacing:-0.02em;}.cls-6{clip-path:url(#clip-path);}</style><clipPath id="clip-path"><rect class="cls-1" x="26.97" y="33.5" width="63.82" height="163.75"/></clipPath></defs><title>exit</title><g id="Layer_2" data-name="Layer 2"><g id="texts"><path class="cls-2" d="M214.27,136.88l-3.41,27.69.1-.37-.48,1.79c-.42,1.55-15.78,19.76-16.27,21.57-.18.67-.35,1.34-.54,2a9.81,9.81,0,0,0-.5,1.89c-.1,1.32.95,1.57,2,1.69a8.54,8.54,0,0,1,3.32,1.14c.69.4,1.87,1.72,2.63.77a.91.91,0,0,0,0-1.1,15.25,15.25,0,0,0-4-3.65l20.46-24,.1-.37,7.76-26.8a5.75,5.75,0,0,0-11-3.2A6.22,6.22,0,0,0,214.27,136.88Z"/><path class="cls-2" d="M221.08,85.22,205,105.81l-.25.32a2.64,2.64,0,0,0,.3,3.56l-.22,27.88-.36-.22,3.31,2.74a.74.74,0,0,0,1-1.07l-2.92-3.16a.69.69,0,0,0-.23-.16l-.14-.06,4.88-27.6h0L228,91.48a4.68,4.68,0,0,0-6.5-6.74A5.12,5.12,0,0,0,221.08,85.22Z"/><path class="cls-2" d="M212.74,134.26c1.67,6.43,7.13,8,13,6.46s9.84-5.53,8.17-12c-1.39-5.33,2.14-39-5-48.25-.1-.13-.76.4-1.06.05-.85-.94-1.25-3.9-1.25-3.9l-3.1.81s-.13,3.26-.22,3.74C221.15,92,211.32,128.8,212.74,134.26Z"/><path class="cls-2" d="M219.76,65.86A7.42,7.42,0,0,1,234.43,68c-.6,4.05-5,10.87-9,10.27S219.16,69.91,219.76,65.86Z"/><path class="cls-2" d="M220.86,92l9.25,24.46.14.38a2.64,2.64,0,0,0,3.2,1.59l23.72,14.64-.38.2,4.06-1.41a.74.74,0,0,0-.39-1.42l-4.21.86a.69.69,0,0,0-.26.11l-.12.09L234.8,113h0l-5-23.71a4.68,4.68,0,0,0-9.13,2.08A5.12,5.12,0,0,0,220.86,92Z"/><path class="cls-2" d="M224.36,140.65l11.16,25.57-.1-.37.49,1.79,1.29,4.65,1.78,6.44,2,7.17,1.89,6.83,1.5,5.43c.19.67.38,1.34.56,2a9.81,9.81,0,0,0,.53,1.89c.59,1.18,1.61.87,2.59.43a8.54,8.54,0,0,1,3.44-.71c.8,0,2.48.53,2.65-.67a.91.91,0,0,0-.53-1,15.25,15.25,0,0,0-5.27-1.12l-6.06-34.72-.1-.37-7-27a5.75,5.75,0,1,0-11.14,2.87A6.22,6.22,0,0,0,224.36,140.65Z"/><polyline class="cls-3" points="1 221 1 196 211 196 211 218.5 251 218.5 251 238.5 291 238.5 291 261"/><rect class="cls-2" x="26" y="33.5" width="90" height="162.5"/><rect class="cls-2" x="26" y="1" width="90" height="27.5"/><text class="cls-4" transform="translate(43.5 23.5)">EXI<tspan class="cls-5" x="37.87" y="0">T</tspan></text><rect class="cls-1" x="26.97" y="33.5" width="63.82" height="163.75"/><g class="cls-6"><path class="cls-2" d="M35.53,128.12l-6,27.24.13-.36L29,156.74l-1.69,4.52L25,167.51l-2.61,7-2.49,6.64-2,5.27c-.24.65-.48,1.31-.73,2a9.81,9.81,0,0,0-.68,1.84c-.22,1.3.79,1.65,1.85,1.87a8.54,8.54,0,0,1,3.2,1.45c.65.46,1.7,1.89,2.54,1a.91.91,0,0,0,.13-1.09,15.25,15.25,0,0,0-3.61-4L36.1,157.78l.13-.36L46.5,131.48a5.75,5.75,0,1,0-10.7-4.23A6.22,6.22,0,0,0,35.53,128.12Z"/><path class="cls-2" d="M39.75,82.46l10.87,23.78.17.37a2.64,2.64,0,0,0,3.3,1.38l24.65,13-.37.22,4-1.68a.74.74,0,0,0-.48-1.39l-4.15,1.14a.69.69,0,0,0-.25.13l-.11.09-22.26-17h0L48.5,79.18a4.68,4.68,0,0,0-9,2.68A5.12,5.12,0,0,0,39.75,82.46Z"/><path class="cls-2" d="M31.49,125.68c1.67,6.43,7.12,8,13,6.47s9.84-5.52,8.18-12c-1.38-5.33,2.17-39-5-48.26-.1-.13-.76.4-1.06.05-.84-.94-1.24-3.9-1.24-3.9l-3.1.8s-.13,3.26-.23,3.74C39.92,83.42,30.07,120.22,31.49,125.68Z"/><path class="cls-2" d="M37.42,56.27a7.42,7.42,0,1,1,14.76,1.47c-.4,4.09-4.42,11.13-8.5,10.73S37,60.36,37.42,56.27Z"/><path class="cls-2" d="M38.38,76.09,25.08,98.6l-.21.35a2.52,2.52,0,0,0,.61,3.42L28.68,130l-.42-.19,3.62,2.3a.73.73,0,0,0,1-.23.74.74,0,0,0-.15-1l-3.3-2.77a.7.7,0,0,0-.25-.13l-.14,0,1.39-28h0L45.92,81.36a4.68,4.68,0,0,0-.72-6.58,4.61,4.61,0,0,0-6.52.74A5,5,0,0,0,38.38,76.09Z"/><path class="cls-2" d="M43.64,132.82c3.84,5.21,7.94,10.24,11.91,15.35,2.32,3,4.9,6,4.59,10.09-.44,5.85-1.24,23.51-1.58,26.49-.25,2.2-1.48,6.2,1.83,6a8.54,8.54,0,0,1,3.46.61c.75.28,2.12,1.41,2.72.35a.91.91,0,0,0-.14-1.09,15.26,15.26,0,0,0-4.49-3l4.85-36.33-.19-.33L53.24,126.54a5.75,5.75,0,0,0-10.1,5.51A6.21,6.21,0,0,0,43.64,132.82Z"/><path class="cls-2" d="M31.62,112.08s15.66,4,21,1.89c0,0,8.48,18.8,11.23,34.22,0,0-8.24,5.07-14.15,5.91l-4.92-16.68s-3.66,13.73-5.18,19c0,0-13.76-3-16.4-6.55,0,0,8-11.61,8.45-19.22S27.29,122.21,31.62,112.08Z"/></g><path class="cls-2" d="M224.2,85.8c-7.41,1.5-7.63,5.57-2.92,15.83l13.23-4.49S230.8,84.47,224.2,85.8Z"/><path class="cls-2" d="M212.6,124.33s15.66,4,21,1.89c0,0,8.48,18.8,11.23,34.22,0,0-8.24,5.07-14.15,5.91l-4.92-16.68s-3.66,13.73-5.18,19c0,0-13.76-3-16.4-6.55,0,0,8-11.61,8.45-19.22S208.27,134.47,212.6,124.33Z"/></g></g></svg>