<svg xmlns="http://www.w3.org/2000/svg" viewBox="0 0 72.77 59.32"><defs><style>.cls-1,.cls-2,.cls-3{fill:#767676;}.cls-1,.cls-5{stroke:#fff;}.cls-1,.cls-2,.cls-5{stroke-linecap:round;stroke-linejoin:round;stroke-width:2px;}.cls-2{stroke:#767676;}.cls-4,.cls-5{fill:none;}.cls-4{stroke:#0080b1;stroke-miterlimit:10;}</style></defs><title>eye</title><g id="Layer_2" data-name="Layer 2"><g id="texts"><path class="cls-1" d="M15.42,49.64,1,35.22,15.42,20.8a29.65,29.65,0,0,1,41.94,0L71.77,35.22,57.35,49.64A29.65,29.65,0,0,1,15.42,49.64Z"/><circle class="cls-1" cx="36.38" cy="35.22" r="17.61"/><circle class="cls-1" cx="36.38" cy="35.22" r="10.19"/><circle class="cls-2" cx="45.65" cy="25.95" r="6.49"/><path class="cls-3" d="M8.38,22.6,3.14,17.36,6.47,14l5.24,5.24Zm56,0L61,19.24,66.28,14l3.33,3.33Zm-44.24-10L16.51,6.15a40.38,40.38,0,0,1,4.68-2.24l2.76,6.88A33,33,0,0,0,20.13,12.62Zm32.49,0a33.1,33.1,0,0,0-3.82-1.82L51.55,3.9a40.5,40.5,0,0,1,4.68,2.23ZM34.25,8.48l-.46-7.4a42,42,0,0,1,5.17,0l-.46,7.4A34.36,34.36,0,0,0,34.25,8.48Z"/><path class="cls-4" d="M8.38,22.6,3.14,17.36,6.47,14l5.24,5.24Zm56,0L61,19.24,66.28,14l3.33,3.33Zm-44.24-10L16.51,6.15a40.38,40.38,0,0,1,4.68-2.24l2.76,6.88A33,33,0,0,0,20.13,12.62Zm32.49,0a33.1,33.1,0,0,0-3.82-1.82L51.55,3.9a40.5,40.5,0,0,1,4.68,2.23ZM34.25,8.48l-.46-7.4a42,42,0,0,1,5.17,0l-.46,7.4A34.36,34.36,0,0,0,34.25,8.48Z"/><path class="cls-5" d="M8.38,22.6,3.14,17.36,6.47,14l5.24,5.24Zm56,0L61,19.24,66.28,14l3.33,3.33Zm-44.24-10L16.51,6.15a40.38,40.38,0,0,1,4.68-2.24l2.76,6.88A33,33,0,0,0,20.13,12.62Zm32.49,0a33.1,33.1,0,0,0-3.82-1.82L51.55,3.9a40.5,40.5,0,0,1,4.68,2.23ZM34.25,8.48l-.46-7.4a42,42,0,0,1,5.17,0l-.46,7.4A34.36,34.36,0,0,0,34.25,8.48Z"/></g></g></svg>