<svg xmlns="http://www.w3.org/2000/svg" viewBox="0 0 588.93 203.39"><defs><style>.cls-1,.cls-6{fill:#fff;}.cls-1{stroke:#767676;}.cls-1,.cls-10{stroke-linecap:round;stroke-linejoin:round;}.cls-1,.cls-10,.cls-7,.cls-8{stroke-width:2px;}.cls-2{font-size:20px;fill:#0080b1;font-family:ArialMT, Arial;}.cls-3{letter-spacing:-0.02em;}.cls-4{letter-spacing:-0.07em;}.cls-5,.cls-7{fill:none;}.cls-10,.cls-5,.cls-7,.cls-8{stroke:#fff;}.cls-5,.cls-7,.cls-8{stroke-miterlimit:10;}.cls-10,.cls-8,.cls-9{fill:#767676;}</style></defs><title>goal</title><g id="Layer_2" data-name="Layer 2"><g id="texts"><rect class="cls-1" x="80.93" y="59.63" width="451" height="35.73"/><text class="cls-2" transform="translate(99.4 84.71)">DEPENDING ON<tspan class="cls-3" x="154.46" y="0"> </tspan><tspan x="159.66" y="0">YOUR </tspan><tspan class="cls-4" x="223" y="0">P</tspan><tspan x="234.85" y="0">A</tspan><tspan class="cls-3" x="248.19" y="0">R</tspan><tspan x="262.28" y="0">TICULAR GOAL.</tspan></text><line class="cls-5" x1="297.43" y1="3.57" x2="297.43" y2="48.92"/><circle class="cls-6" cx="297.43" cy="3.76" r="3.76"/><polygon class="cls-6" points="293.33 45.6 294.07 44.92 297.42 48.53 300.78 44.92 301.51 45.6 297.42 50 293.33 45.6"/><path class="cls-7" d="M587.93,180H18.43v-.5A49.5,49.5,0,0,1,67.93,130h470.5a49.5,49.5,0,0,1,49.5,49.5Z"/><path class="cls-8" d="M540.43,142.5s10,0,10,10h-12.5v-10Z"/><polygon class="cls-8" points="509.87 180 103.98 180 130.93 130 482.93 130 509.87 180"/><line class="cls-8" x1="472.93" y1="130" x2="499.87" y2="180"/><line class="cls-8" x1="460.98" y1="130" x2="487.93" y2="180"/><line class="cls-8" x1="113.98" y1="180" x2="140.93" y2="130"/><line class="cls-8" x1="123.43" y1="180" x2="150.37" y2="130"/><rect class="cls-8" x="292.93" y="130" width="10" height="2.5"/><rect class="cls-8" x="292.93" y="137.5" width="10" height="15"/><rect class="cls-8" x="292.93" y="160" width="10" height="20"/><path class="cls-8" d="M80.93,150h-7.5V45.5a3,3,0,0,1,3-3h1.5a3,3,0,0,1,3,3Z"/><path class="cls-8" d="M540.43,150h-7.5V45.5a3,3,0,0,1,3-3h1.5a3,3,0,0,1,3,3Z"/><path class="cls-8" d="M520.43,155s0-7.5,7.5-7.5h10s7.5,0,7.5,7.5Z"/><path class="cls-7" d="M525.43,147.5s-2.5-5-7.5-5c0,0,5-2.5,7.5,0,0,0-2.5-5,0-7.5,0,0,2.5,7.5,5,7.5,0,0,2.5-2.5,0-5a2.45,2.45,0,0,1,2.5,2.5"/><path class="cls-8" d="M70.93,142.5s-10,0-10,10h12.5v-10Z"/><path class="cls-8" d="M90.93,155s0-7.5-7.5-7.5h-10s-7.5,0-7.5,7.5Z"/><path class="cls-7" d="M537.93,172.5s7.5-7.5,15,0c0,0,7.5-7.5,15,0"/><path class="cls-7" d="M33.43,162.5s7.5-7.5,15,0c0,0,7.5-7.5,15,0"/><path class="cls-7" d="M80.93,140s5,0,5,5v2.5"/><path class="cls-9" d="M33,202.39a1.9,1.9,0,0,1-.83-.19,8.87,8.87,0,0,0-3.74-.93,5.74,5.74,0,0,0-.75,0l-.19,0a5.8,5.8,0,0,1-.83.08,2.35,2.35,0,0,1-1.38-.4,2.53,2.53,0,0,1-1-1.74,7.88,7.88,0,0,1,0-1.79c0-.22,0-.44,0-.66l.1-2.38L25.73,162,22.9,134.33a7.27,7.27,0,0,1,0-1.08,6.75,6.75,0,0,1,6.74-6.36H30A6.75,6.75,0,0,1,36.36,134l-1.6,27.85v.36L30.3,196.61A13.63,13.63,0,0,1,32.91,198l.19.13c.72.47,2.42,1.58,1.64,3.21A1.92,1.92,0,0,1,33,202.39Z"/><path class="cls-6" d="M29.61,127.89h.34A5.75,5.75,0,0,1,35.36,134l-1.6,27.85v.38L29.2,197.27a13.49,13.49,0,0,1,3.15,1.53c.62.42,1.94,1.14,1.49,2.07a.91.91,0,0,1-1.22.43,9.86,9.86,0,0,0-4.17-1,6.74,6.74,0,0,0-.88.06,7,7,0,0,1-.89.1,1.38,1.38,0,0,1-.81-.23,1.54,1.54,0,0,1-.59-1.06,12.93,12.93,0,0,1,.07-2.27c0-.79.07-1.58.1-2.38l.23-5.73.28-7,.29-7.26L26.5,168l.18-4.64.06-1.42v0L23.9,134.23a6.22,6.22,0,0,1,0-.92,5.75,5.75,0,0,1,5.74-5.42m0-2a7.76,7.76,0,0,0-7.73,7.31,8.12,8.12,0,0,0,0,1.22L24.73,162l0,.67,0,.6v.21l-.18,4.43-.25,6.29v.18l-.14,3.65L24,181.67l-.13,3.4-.14,3.61-.23,5.73q0,.57,0,1.14t-.05,1.24c0,.2,0,.4,0,.61a8.66,8.66,0,0,0,0,2,3.53,3.53,0,0,0,1.44,2.42,3.36,3.36,0,0,0,1.94.58,6.57,6.57,0,0,0,1-.09l.18,0a4.78,4.78,0,0,1,.62,0,7.84,7.84,0,0,1,3.3.83,2.91,2.91,0,0,0,3.89-1.36c.77-1.6.1-3.11-2-4.48l-.18-.12A14.1,14.1,0,0,0,31.39,196l4.34-33.53c0-.06,0-.13,0-.19v-.36l1.6-27.83a7.76,7.76,0,0,0-7.29-8.18Z"/><path class="cls-9" d="M43.08,113.67a3.56,3.56,0,0,1-2.84-1.39l-16-20.7a6.13,6.13,0,0,1-.43-.64,5.6,5.6,0,1,1,9.73-5.56l11.14,19.48L64.15,95.8a1.72,1.72,0,0,1,.66-.16l4.24-.09a1.73,1.73,0,0,1,.3,3.43l-3.68.58L45,113.09a3.59,3.59,0,0,1-2,.58Z"/><path class="cls-6" d="M28.69,83.56a4.6,4.6,0,0,1,4,2.32l11.6,20.28,20.16-9.39.13-.06a.71.71,0,0,1,.27-.09l4.23-.12h0a.75.75,0,0,1,.72.64.74.74,0,0,1-.61.85l-3.9.62.12-.08-.4.13.28,0L44.5,112.25a2.6,2.6,0,0,1-3.47-.58l-.24-.31L25,91a5.07,5.07,0,0,1-.35-.53,4.6,4.6,0,0,1,4-6.89m0-2A6.6,6.6,0,0,0,23,91.44a7.14,7.14,0,0,0,.5.75L39.2,112.58l.24.31a4.6,4.6,0,0,0,6.14,1L66,100.52l3.47-.54a2.76,2.76,0,0,0-.42-5.48H69l-4.22.12a2.68,2.68,0,0,0-1.06.26L63.6,95l-18.49,8.62L34.42,84.88a6.62,6.62,0,0,0-5.74-3.32Z"/><polyline class="cls-10" points="35.57 88.7 41.48 94.42 33.35 101.29"/><path class="cls-9" d="M24.84,141.12c-7.23,0-11.73-4-11.73-10.35,0-5.18,3.41-38.24,8.23-48.29.12-.26.66-1.95,1.08-3.36a1,1,0,0,1,1-.71h3.14a1,1,0,0,1,1,1.12,11.66,11.66,0,0,0,0,3.08h.14a1.08,1.08,0,0,1,1,.65c4.72,11,7.88,42.52,7.88,47.53C36.57,137.15,32.08,141.12,24.84,141.12Z"/><path class="cls-6" d="M26.53,79.4h0m0,0s-.35,2.91.22,4a.46.46,0,0,0,.45.21c.17,0,.35,0,.46,0s.1,0,.11,0c4.5,10.53,7.8,41.72,7.8,47.13,0,6.53-4.8,9.35-10.73,9.35s-10.73-2.82-10.73-9.35c0-5.54,3.46-38.12,8.13-47.86.21-.43,1.14-3.51,1.14-3.51h3.14m0-2H23.38a2,2,0,0,0-1.91,1.42c-.4,1.33-.92,3-1,3.26-4.86,10.14-8.31,43.47-8.31,48.69,0,7,4.88,11.35,12.73,11.35s12.73-4.35,12.73-11.35c0-5-3.2-36.78-8-47.92a2,2,0,0,0-1.19-1.12,14.28,14.28,0,0,1,.08-2,2,2,0,0,0-2-2.33Zm0,4h0Z"/><path class="cls-9" d="M24.84,78.95c-4.87,0-8.29-8-8.29-12.28a8.29,8.29,0,1,1,16.58,0C33.13,71,29.71,78.95,24.84,78.95Z"/><path class="cls-6" d="M24.84,59.38a7.29,7.29,0,0,1,7.29,7.29c0,4-3.26,11.28-7.29,11.28s-7.29-7.26-7.29-11.28a7.29,7.29,0,0,1,7.29-7.29m0-2a9.3,9.3,0,0,0-9.29,9.29c0,4.56,3.62,13.28,9.29,13.28s9.29-8.72,9.29-13.28a9.3,9.3,0,0,0-9.29-9.29Z"/><path class="cls-9" d="M23.76,202.37a4.48,4.48,0,0,1-1.77-.51,4.62,4.62,0,0,0-.48-.2,8.06,8.06,0,0,0-2.35-.38,6.27,6.27,0,0,0-.73,0,7.35,7.35,0,0,1-.84.06,2.35,2.35,0,0,1-2.6-2.09,6.57,6.57,0,0,1,0-1.63c0-.18,0-.36,0-.53,0-.45,0-.9.05-1.35L16.44,162l-2.83-27.66a7.27,7.27,0,0,1,0-1.08,6.75,6.75,0,0,1,6.74-6.36h.39A6.75,6.75,0,0,1,27.06,134l-1.6,27.85v.36s0,.07,0,.1l-4.7,34.15A14.92,14.92,0,0,1,25,199.05a1.92,1.92,0,0,1,.45,2.26A1.81,1.81,0,0,1,23.76,202.37Z"/><path class="cls-6" d="M20.32,127.89h.34A5.75,5.75,0,0,1,26.07,134l-1.6,27.85v.38l-4.81,34.92a15.25,15.25,0,0,1,4.68,2.67.91.91,0,0,1,.21,1.08.8.8,0,0,1-.78.5,7.5,7.5,0,0,1-2-.66,9.05,9.05,0,0,0-2.65-.42,7.22,7.22,0,0,0-.85,0,6.23,6.23,0,0,1-.73.05c-.79,0-1.46-.24-1.61-1.25a9.85,9.85,0,0,1,.07-2c0-.69.05-1.39.08-2.08l.22-5.63.28-7.08.29-7.43.27-6.68.19-4.82.06-1.49v0L14.6,134.23a6.22,6.22,0,0,1,0-.92,5.75,5.75,0,0,1,5.74-5.42m0-2a7.76,7.76,0,0,0-7.73,7.31,8.12,8.12,0,0,0,0,1.22L15.44,162l-.05,1.35-.1,2.41-.1,2.41-.13,3.27-.14,3.41-.29,7.43-.18,4.43-.11,2.65-.11,2.83-.11,2.8,0,.7c0,.45,0,.9-.06,1.35,0,.16,0,.33,0,.49a7.47,7.47,0,0,0,0,1.87,3.35,3.35,0,0,0,3.59,2.94,8.06,8.06,0,0,0,1-.06,5.27,5.27,0,0,1,.61,0,7.06,7.06,0,0,1,2.06.33c.1,0,.23.09.36.15a5.36,5.36,0,0,0,2.18.6,2.81,2.81,0,0,0,2.58-1.63,2.93,2.93,0,0,0-.68-3.44,15.19,15.19,0,0,0-3.83-2.42l4.6-33.4c0-.07,0-.14,0-.21v-.36l1.6-27.83a7.76,7.76,0,0,0-7.29-8.18Z"/><polyline class="cls-10" points="29.02 139.69 27.83 160.94 22.54 193.13 12.45 194.85 14.12 161.92 10.69 131.51 13.78 122.84 36.57 124.13 41.48 160.02 32.38 193.47 22.54 193.13 30.33 160.56 28.14 146.9"/><path class="cls-9" d="M28.22,130a1.74,1.74,0,0,1-1.48-.83l-2-3.23L2.45,109.17a3.64,3.64,0,0,1-.72-5.09L16.91,84a6.12,6.12,0,0,1,.53-.61,5.6,5.6,0,0,1,7.87,8l-15,14.81,17.42,16.93a1.68,1.68,0,0,1,.37.53l1.69,3.87A1.73,1.73,0,0,1,28.22,130Z"/><path class="cls-6" d="M21.37,82.81a4.6,4.6,0,0,1,3.24,7.88L8.89,106.21,27,123.77l.1.09a.67.67,0,0,1,.14.21l1.69,3.88a.73.73,0,0,1-1.29.67l-2.05-3.39.1.08-.24-.3.14.23L3.05,108.37H3a2.63,2.63,0,0,1-.51-3.68l.23-.31L17.7,84.63a5.06,5.06,0,0,1,.44-.5,4.59,4.59,0,0,1,3.23-1.33m0-2a6.56,6.56,0,0,0-4.64,1.91,7.09,7.09,0,0,0-.62.7L1.17,103.17l-.23.31a4.63,4.63,0,0,0,.9,6.48L24,126.59l1.85,3.06a2.73,2.73,0,0,0,4.83-2.5L29,123.27a2.66,2.66,0,0,0-.58-.84l-.11-.1L11.75,106.2,26,92.11a6.6,6.6,0,0,0-4.64-11.3Z"/><polyline class="cls-10" points="17.85 99.65 9.04 91.03 15.47 85.7"/></g></g></svg>