<svg xmlns="http://www.w3.org/2000/svg" viewBox="0 0 458.21 195.84"><defs><style>.cls-1,.cls-10,.cls-2,.cls-4,.cls-5,.cls-8,.cls-9{fill:#fff;}.cls-1,.cls-5{stroke:#0080b1;}.cls-1,.cls-5,.cls-7{stroke-linecap:round;stroke-linejoin:round;}.cls-1,.cls-10,.cls-5,.cls-9{stroke-width:2px;}.cls-3{fill:#0080b1;}.cls-4{font-size:38.68px;}.cls-4,.cls-8{font-family:MuseoSans-900, MuseoSans 900;}.cls-5{stroke-dasharray:3 6;}.cls-6{font-size:12px;fill:#767676;font-family:HelveticaNeue-Bold, HelveticaNeue Bold;font-weight:700;}.cls-7{fill:#ffb600;stroke:#fff;stroke-width:3px;}.cls-8{font-size:27px;}.cls-9{stroke:#5d9632;}.cls-10,.cls-9{stroke-miterlimit:10;}.cls-10{stroke:#bf3019;}</style></defs><title>graphics2</title><g id="Layer_2" data-name="Layer 2"><g id="texts"><rect class="cls-1" x="99.85" y="22.69" width="92.5" height="92.5"/><rect class="cls-1" x="112.35" y="35.19" width="25" height="27.5"/><rect class="cls-1" x="142.35" y="35.19" width="20" height="10"/><rect class="cls-1" x="142.35" y="50.19" width="20" height="12.5"/><rect class="cls-1" x="167.35" y="35.19" width="12.5" height="45"/><rect class="cls-1" x="112.35" y="67.69" width="50" height="12.5"/><rect class="cls-1" x="112.35" y="85.19" width="15" height="17.5"/><rect class="cls-1" x="132.35" y="85.19" width="12.5" height="17.5"/><rect class="cls-1" x="149.85" y="85.19" width="12.5" height="17.5"/><rect class="cls-1" x="167.35" y="85.19" width="12.5" height="17.5"/><path class="cls-2" d="M28.81,70.87A27.82,27.82,0,1,1,53.37,56.12l7.2,12.27a1,1,0,0,1-1.28,1.42L46.9,64.18A27.76,27.76,0,0,1,28.81,70.87Z"/><path class="cls-3" d="M28.81,16.24a26.81,26.81,0,0,1,23.4,39.9L59.7,68.9l-13-5.9A26.81,26.81,0,1,1,28.81,16.24m0-2A28.81,28.81,0,1,0,47.06,65.35l11.81,5.37a2,2,0,0,0,2.55-2.83l-6.92-11.8a28.81,28.81,0,0,0-25.7-41.85Z"/><text class="cls-4" transform="translate(19.53 56.19)">?</text><text class="cls-4" transform="translate(19.53 56.19)">?</text><path class="cls-3" d="M27,29.69c4.45,0,6.46,2.75,6.46,5.69,0,2.63-1.47,4.53-3.33,6.73A7.64,7.64,0,0,0,28,47.79l0,1H25l-.08-1a8.88,8.88,0,0,1,2.4-6.69C29,39.05,30,37.54,30,35.8c0-2-1.24-3.29-3.67-3.33a6.88,6.88,0,0,0-3.91,1.2l-.93-2.44A10.15,10.15,0,0,1,27,29.69m-.58,22.09a2.42,2.42,0,1,1-2.32,2.44,2.29,2.29,0,0,1,2.32-2.44M27,27.69a12.15,12.15,0,0,0-6.71,1.93,2,2,0,0,0-.69,2.33l.93,2.44a2,2,0,0,0,3.08.88,5,5,0,0,1,2.7-.79C28,34.5,28,35.28,28,35.8c0,1-.58,2.06-2.23,4A11,11,0,0,0,22.91,48L23,49a2,2,0,0,0,1,1.58,4.4,4.4,0,0,0-1.85,3.68,4.3,4.3,0,1,0,8.6,0,4.42,4.42,0,0,0-1.79-3.65A2,2,0,0,0,30,48.72l0-1c-.08-1.29.19-2.5,1.73-4.32,1.69-2,3.8-4.51,3.8-8,0-3.7-2.65-7.69-8.46-7.69Z"/><path class="cls-1" d="M74.2,128.8l5.34,27.38,0-.38.09,1.85.25,4.82.34,6.68.38,7.43.36,7.08.29,5.62c0,.69.08,1.39.11,2.08a9.81,9.81,0,0,0,.11,2c.32,1.28,1.39,1.2,2.44,1a8.54,8.54,0,0,1,3.51.06c.78.16,2.31,1.06,2.74-.08a.91.91,0,0,0-.31-1.05A15.25,15.25,0,0,0,84.92,191l1.62-35.21,0-.38-.92-27.88a5.75,5.75,0,1,0-11.5.38A6.22,6.22,0,0,0,74.2,128.8Z"/><path class="cls-1" d="M74.19,81.54l7.49,24.77.12.38a2.61,2.61,0,0,0,3,1.79L95.5,131.13l-.42,0,4.16.88a.73.73,0,0,0,.4-1.4l-4-1.43a.68.68,0,0,0-.28,0h-.15l-8.38-26.44h0l-3.63-23.2a4.63,4.63,0,0,0-9.14,1.43A5.08,5.08,0,0,0,74.19,81.54Z"/><path class="cls-1" d="M66.19,122c2.06,6.23,7.53,7.41,13.19,5.55s9.35-6.08,7.29-12.31c-1.71-5.16-.37-38.62-8-47.25-.11-.12-.72.44-1,.12-.89-.88-1.48-3.77-1.48-3.77l-3,1s.08,3.23,0,3.71C71.79,79.85,64.44,116.76,66.19,122Z"/><path class="cls-1" d="M66.16,126.56l-1.8,27.84.08-.37-.38,1.82-1,4.72L61.7,167.1l-1.52,7.28-1.45,6.94-1.15,5.51c-.14.68-.28,1.36-.43,2a9.81,9.81,0,0,0-.39,1.92c0,1.32,1,1.51,2.11,1.57a8.54,8.54,0,0,1,3.38.95c.71.36,2,1.61,2.67.62a.91.91,0,0,0,0-1.1,15.25,15.25,0,0,0-4.18-3.41l10.53-33.64.08-.37,6.2-27.2a5.75,5.75,0,1,0-11.22-2.56A6.22,6.22,0,0,0,66.16,126.56Z"/><path class="cls-1" d="M66,56.33a7.23,7.23,0,0,1,5.1-9,7.44,7.44,0,0,1,9,5.21c1.09,3.91-.11,11.81-4,12.85S67,60.24,66,56.33Z"/><path class="cls-1" d="M69.17,80,90.61,94.5l.33.22a2.61,2.61,0,0,0,3.49-.54l15.65-19.69-.34.24,3.78-1.94a.73.73,0,0,0-.58-1.34l-4,1.42a.68.68,0,0,0-.24.14l-.11.1L92.31,88.44h0L74.85,72.73a4.63,4.63,0,0,0-6.19,6.88A5.08,5.08,0,0,0,69.17,80Z"/><rect class="cls-1" x="325.85" y="22.69" width="92.5" height="92.5"/><path class="cls-1" d="M288.2,128.8l5.34,27.38,0-.38.09,1.85.25,4.82.34,6.68.38,7.43.36,7.08.29,5.62c0,.69.08,1.39.11,2.08a9.81,9.81,0,0,0,.11,2c.32,1.28,1.39,1.2,2.44,1a8.54,8.54,0,0,1,3.51.06c.78.16,2.31,1.06,2.74-.08a.91.91,0,0,0-.31-1.05,15.25,15.25,0,0,0-4.91-2.24l1.62-35.21,0-.38-.92-27.88a5.75,5.75,0,1,0-11.5.38A6.22,6.22,0,0,0,288.2,128.8Z"/><path class="cls-1" d="M288.19,81.54l7.49,24.77.12.38a2.61,2.61,0,0,0,3,1.79l10.66,22.64-.42,0,4.16.88a.73.73,0,0,0,.4-1.4l-4-1.43a.68.68,0,0,0-.28,0h-.15l-8.38-26.44h0l-3.63-23.2a4.63,4.63,0,0,0-9.14,1.43A5.08,5.08,0,0,0,288.19,81.54Z"/><path class="cls-1" d="M280.19,122c2.06,6.23,7.53,7.41,13.19,5.55s9.35-6.08,7.29-12.31c-1.71-5.16-.37-38.62-8-47.25-.11-.12-.72.44-1,.12-.89-.88-1.48-3.77-1.48-3.77l-3,1s.08,3.23,0,3.71C285.79,79.85,278.44,116.76,280.19,122Z"/><path class="cls-1" d="M280.16,126.56l-1.8,27.84.08-.37-.38,1.82-1,4.72-1.37,6.54-1.52,7.28-1.45,6.94-1.15,5.51c-.14.68-.28,1.36-.43,2a9.81,9.81,0,0,0-.39,1.92c0,1.32,1,1.51,2.11,1.57a8.54,8.54,0,0,1,3.38.95c.71.36,2,1.61,2.67.62a.91.91,0,0,0,0-1.1,15.25,15.25,0,0,0-4.18-3.41l10.53-33.64.08-.37,6.2-27.2a5.75,5.75,0,1,0-11.22-2.56A6.22,6.22,0,0,0,280.16,126.56Z"/><path class="cls-1" d="M280,56.33a7.23,7.23,0,0,1,5.1-9,7.44,7.44,0,0,1,9,5.21c1.09,3.91-.11,11.81-4,12.85S281,60.24,280,56.33Z"/><path class="cls-1" d="M283.17,80s23.2-.25,24.5-.6l24.26-6.64h-.42l4.2.67A.73.73,0,0,0,336,72L332,70.78a.68.68,0,0,0-.28,0l-.14,0-22.19,2.74h0l-20.5-.78a4.63,4.63,0,0,0-6.19,6.88A5.08,5.08,0,0,0,283.17,80Z"/><rect class="cls-1" x="335.85" y="35.19" width="15" height="15"/><rect class="cls-1" x="358.35" y="35.19" width="50" height="15"/><rect class="cls-1" x="335.85" y="87.69" width="15" height="15"/><rect class="cls-1" x="358.35" y="87.69" width="50" height="15"/><line class="cls-5" x1="436" y1="28.15" x2="457.21" y2="27.79"/><line class="cls-5" x1="425.74" y1="15.38" x2="439.64" y2="1"/><line class="cls-5" x1="443.35" y1="49.47" x2="432.81" y2="38.79"/><rect class="cls-5" x="335.85" y="57.69" width="72.5" height="20"/><text class="cls-6" transform="translate(339.81 47.14)">1</text><text class="cls-6" transform="translate(367.81 71.64)">2</text><text class="cls-6" transform="translate(339.81 99.39)">3</text><circle class="cls-7" cx="235.93" cy="92.69" r="35"/><text class="cls-8" transform="translate(220.95 102.68)">VS.</text><circle class="cls-9" cx="373.1" cy="148.72" r="21.51"/><polygon class="cls-9" points="370.62 160.4 358.96 151.66 362.68 146.69 369.7 151.95 382.54 137.05 387.25 141.1 370.62 160.4"/><circle class="cls-10" cx="148.1" cy="148.72" r="21.51"/><polygon class="cls-10" points="160.03 142.05 154.77 136.79 148.1 143.46 141.43 136.79 136.17 142.05 142.84 148.72 136.17 155.39 141.43 160.66 148.1 153.99 154.77 160.66 160.03 155.39 153.36 148.72 160.03 142.05"/><path class="cls-1" d="M84.84,108.49s-10.86,3.8-18.92,0L64.1,121.17l-2.75,32.51-4.6,30.5,6.35,1.5,8.27-30.52,3.74-16.43,4.5,18.93.87,29h6.57l1.54-31.25v-29.5Z"/><path class="cls-1" d="M298.84,108.49s-10.86,3.8-18.92,0l-1.82,12.68-2.75,32.51-4.6,30.5,6.35,1.5,8.27-30.52,3.74-16.43,4.5,18.93.87,29h6.57l1.54-31.25v-29.5Z"/></g></g></svg>