<svg xmlns="http://www.w3.org/2000/svg" viewBox="0 0 408.52 159.76"><defs><style>.cls-1,.cls-12,.cls-2,.cls-7,.cls-8,.cls-9{fill:#fff;}.cls-1,.cls-2,.cls-3,.cls-4{stroke:#0080b1;}.cls-1,.cls-3,.cls-7,.cls-8{stroke-miterlimit:10;}.cls-1,.cls-2,.cls-3,.cls-4,.cls-5,.cls-6,.cls-7,.cls-8{stroke-width:2px;}.cls-11,.cls-2,.cls-4,.cls-5,.cls-6{stroke-linecap:round;stroke-linejoin:round;}.cls-3,.cls-4,.cls-5{fill:none;}.cls-5{stroke:#ffb600;}.cls-11,.cls-6{fill:#ffb600;stroke:#fff;}.cls-7{stroke:#bf3019;}.cls-8{stroke:#5d9632;}.cls-10{fill:#0080b1;}.cls-11{stroke-width:3px;}.cls-12{font-size:27px;font-family:MuseoSans-900, MuseoSans 900;}</style></defs><title>graphics1</title><g id="Layer_2" data-name="Layer 2"><g id="texts"><rect class="cls-1" x="21.52" y="1" width="133.75" height="140" rx="3" ry="3"/><circle class="cls-1" cx="35.27" cy="12.25" r="3.75"/><circle class="cls-1" cx="47.77" cy="12.25" r="3.75"/><circle class="cls-1" cx="60.27" cy="12.25" r="3.75"/><line class="cls-1" x1="21.52" y1="21" x2="155.27" y2="21"/><rect class="cls-2" x="35.27" y="31" width="105" height="95"/><rect class="cls-3" x="44.02" y="113.5" width="41.25" height="5"/><line class="cls-4" x1="85.27" y1="83.5" x2="44.02" y2="83.5"/><line class="cls-4" x1="85.27" y1="91" x2="44.02" y2="91"/><line class="cls-4" x1="85.27" y1="98.5" x2="44.02" y2="98.5"/><line class="cls-4" x1="85.27" y1="106" x2="44.02" y2="106"/><rect class="cls-3" x="91.52" y="113.5" width="41.25" height="5"/><line class="cls-4" x1="132.77" y1="83.5" x2="91.52" y2="83.5"/><line class="cls-4" x1="132.77" y1="91" x2="91.52" y2="91"/><line class="cls-4" x1="132.77" y1="98.5" x2="91.52" y2="98.5"/><line class="cls-4" x1="132.77" y1="106" x2="91.52" y2="106"/><line class="cls-4" x1="64.02" y1="38.5" x2="111.52" y2="38.5"/><rect class="cls-1" x="253.77" y="1" width="133.75" height="140" rx="3" ry="3"/><circle class="cls-1" cx="267.52" cy="12.25" r="3.75"/><circle class="cls-1" cx="280.02" cy="12.25" r="3.75"/><circle class="cls-1" cx="292.52" cy="12.25" r="3.75"/><line class="cls-1" x1="253.77" y1="21" x2="387.52" y2="21"/><rect class="cls-2" x="267.52" y="31" width="105" height="97.5"/><line class="cls-5" x1="297.52" y1="116" x2="360.02" y2="116"/><rect class="cls-6" x="275.02" y="38.5" width="52.5" height="15"/><circle class="cls-7" cx="22.51" cy="137.25" r="21.51"/><polygon class="cls-7" points="34.44 130.58 29.18 125.32 22.51 131.99 15.84 125.32 10.58 130.58 17.25 137.25 10.58 143.92 15.84 149.18 22.51 142.51 29.18 149.18 34.44 143.92 27.77 137.25 34.44 130.58"/><circle class="cls-8" cx="386.01" cy="137.25" r="21.51"/><polygon class="cls-8" points="383.53 148.92 371.87 140.19 375.59 135.21 382.61 140.47 395.45 125.58 400.15 129.63 383.53 148.92"/><path class="cls-9" d="M277.55,91.79a1,1,0,0,1-.26,0A3.06,3.06,0,0,1,275,88.94V88.7a3.09,3.09,0,0,1,2-3,1,1,0,0,1,.37-.07,1,1,0,0,1,1,1c0,1.42.08,2.83.2,4.06a1,1,0,0,1-1,1.1Z"/><path class="cls-10" d="M277.34,86.64c0,1.33.07,2.79.21,4.15A2.06,2.06,0,0,1,276,88.9v-.24a2.1,2.1,0,0,1,1.33-2m0-2a2,2,0,0,0-.75.15,4.09,4.09,0,0,0-2.58,4V89a4.06,4.06,0,0,0,3,3.74,2,2,0,0,0,2.51-2.12c-.12-1.21-.19-2.59-.2-4a2,2,0,0,0-2-2Z"/><path class="cls-9" d="M278,95.5a.94.94,0,0,1-1-.7c-.5-2.12-2-9.12.38-10.86C296.21,70,309.84,67.05,318,67.05a29.57,29.57,0,0,1,5.94.58l.23,0c6,1.12,15.15,8.75,16.92,10.26,19.17.06,22.91,4.78,23.74,9a1,1,0,0,1,.22.52v7.14c0,.55-.56.86-1.11.86Z"/><path class="cls-10" d="M318,68.07a29,29,0,0,1,6,.6c6.28,1.18,16.73,10.27,16.73,10.27,20.63,0,22.62,5.55,23.14,8.55h.2v7H278s-2-8.31,0-9.79c19.18-14.27,32.62-16.64,40-16.64m0-2h0c-8.28,0-22.14,3-41.15,17.11C274.31,85,275,90.62,276.07,95A1.94,1.94,0,0,0,278,96.5h85.89A2,2,0,0,0,366,94.64V87.5a2,2,0,0,0-.29-.94c-1-4.55-5-9.49-24.28-9.62-2.34-2-11.19-9.13-17.11-10.24l-.23,0a30.78,30.78,0,0,0-6.14-.59Z"/><path class="cls-9" d="M277.12,95.5c-.82,0-2.1-.65-2.1-1.64V92.74a2.67,2.67,0,0,1,2.1-2.24h86.63c.93,0,1.27,1.33,1.27,2.24v1.12c0,1-.41,1.64-1.27,1.64Z"/><path class="cls-10" d="M363.75,91.5c.29,0,.27.81.27,1.24v1.12c0,.42,0,.64-.27.64H277.12c-.29,0-1.1-.22-1.1-.64V92.74a1.93,1.93,0,0,1,1.1-1.24H364m-.27-2H277.12a3.62,3.62,0,0,0-3.1,3.24v1.12c0,1.59,1.77,2.64,3.1,2.64h86.63c1.41,0,2.27-1.11,2.27-2.64V92.74c0-1.38-.69-3.24-2.27-3.24Z"/><path class="cls-9" d="M294.12,78.5c.34-1,.7-.57,1.06-.78a55.36,55.36,0,0,1,10.27-4.58A44.58,44.58,0,0,1,319,70.89c.3,0,.61,0,.91,0,3.64.08,7.19,1.53,10.84,4.12,1.38,1,2.71,1.5,4,3.5Z"/><path class="cls-10" d="M319,69.5v2.35h.87c3.44.08,6.8,1.48,10.28,3.95a5.61,5.61,0,0,1,2,1.69H298c2.51-2,5.11-2.48,7.74-3.32A45.51,45.51,0,0,1,319,71.85V69.5m0,.35a45.61,45.61,0,0,0-13.85,2.26,56.05,56.05,0,0,0-10.45,4.58c-1,.56-2,1.31-2.92,1.94-.19.13-.78.87-1,.87h46.44a35.5,35.5,0,0,0-5.87-5.33,20.41,20.41,0,0,0-11.4-4.23c-.31,0-.62-.09-.93-.09Z"/><rect class="cls-9" x="313.02" y="71.5" width="2" height="7"/><polygon class="cls-10" points="316.02 70.5 312.02 70.5 312.02 79.5 316.02 79.5 316.02 70.5 316.02 70.5"/><circle class="cls-9" cx="347.95" cy="95.11" r="7.19"/><path class="cls-10" d="M347.95,88.93a6.19,6.19,0,1,1-6.19,6.19,6.19,6.19,0,0,1,6.19-6.19m0-2a8.19,8.19,0,1,0,8.19,8.19,8.2,8.2,0,0,0-8.19-8.19Z"/><circle class="cls-9" cx="291.36" cy="95.11" r="7.19"/><path class="cls-10" d="M291.36,88.93a6.19,6.19,0,1,1-6.19,6.19,6.19,6.19,0,0,1,6.19-6.19m0-2a8.19,8.19,0,1,0,8.19,8.19,8.2,8.2,0,0,0-8.19-8.19Z"/><polygon class="cls-9" points="316.62 82.5 316.55 82.01 322.01 82.05 322.08 82.59 322.01 82.5 316.62 82.5"/><path class="cls-10" d="M322,81.5h-5.4c-.59,0-.59.14-.59.73v.64c0,.59,0,.63.59.63H322c.59,0,1,0,1-.63v-.64c0-.59-.42-.73-1-.73Z"/><path class="cls-9" d="M363.78,91.09a2.54,2.54,0,0,1-1.84-.83,1.29,1.29,0,0,0-.17-.17A5.37,5.37,0,0,1,360,87.61a3,3,0,0,1,.37-2.81,2.81,2.81,0,0,1,2-1h.1a1.11,1.11,0,0,1,.84.38A7,7,0,0,1,365,88.08v2a1.06,1.06,0,0,1-.4.75,1.07,1.07,0,0,1-.69.25Z"/><path class="cls-10" d="M362.46,84.78a6.13,6.13,0,0,1,1.56,3.3v2a2.45,2.45,0,0,1-1.58-.79c-1.48-1.16-2.05-2.89-1.28-3.88a1.81,1.81,0,0,1,1.29-.64m-.05-2h-.19a3.8,3.8,0,0,0-2.68,1.4c-1.48,1.88-.76,4.82,1.62,6.69l0,0a3.54,3.54,0,0,0,2.45,1.15l.26,0a2.15,2.15,0,0,0,1.37-.5,2.06,2.06,0,0,0,.74-1.5v-2a8,8,0,0,0-2-4.53,2.11,2.11,0,0,0-1.63-.76Z"/><path class="cls-9" d="M61.09,66a1,1,0,0,1-.26,0A2.44,2.44,0,0,1,59,63.68v-.17a2.46,2.46,0,0,1,1.55-2.38,1,1,0,0,1,1.38.92c0,1,.06,2,.14,2.81a1,1,0,0,1-1,1.1Z"/><path class="cls-10" d="M60.94,62.05c0,.93.05,2,.14,2.9A1.44,1.44,0,0,1,60,63.63v-.17a1.47,1.47,0,0,1,.93-1.41m0-2a2,2,0,0,0-.75.15A3.46,3.46,0,0,0,58,63.56v.16a3.44,3.44,0,0,0,2.54,3.17,2,2,0,0,0,2.51-2.12C63,63.93,63,63,62.94,62a2,2,0,0,0-2-2Z"/><path class="cls-9" d="M61.41,68.5a.94.94,0,0,1-1-.7c-.46-2-1.35-6.6.38-7.89C74,50.1,83.62,48.05,89.34,48.05a20.91,20.91,0,0,1,4.21.42l.16,0c4.15.78,10.45,6,11.88,7.17,13.45.06,15.89,3.44,16.51,6.51.08.14-.08.3-.08.47v5c0,.55,0,.86-.56.86Z"/><path class="cls-10" d="M89.34,49.07a20.27,20.27,0,0,1,4.19.42c4.39.82,11.69,7.1,11.69,7.1,14.42,0,15.82,3.9,16.17,5.9H121v5H61.41s-1.39-5.79,0-6.82c13.41-10,22.81-11.61,27.93-11.61m0-2h0c-5.88,0-15.7,2.1-29.12,12.08-1.62,1.21-1.87,4.15-.75,8.88a1.94,1.94,0,0,0,1.95,1.47h60c1.1,0,1.56-.75,1.56-1.86v-5c0-.31.15-.61,0-.87-1.12-4.81-6.4-7-17.19-7.11-1.95-1.63-7.82-6.37-12-7.15l-.13,0a21.65,21.65,0,0,0-4.37-.43Z"/><path class="cls-9" d="M60.79,68.5C60.06,68.5,59,68,59,67.1v-.79a2.09,2.09,0,0,1,1.76-1.81h60.56A2,2,0,0,1,123,66.31v.79a1.6,1.6,0,0,1-1.68,1.4Z"/><path class="cls-10" d="M121.35,65.5a1.15,1.15,0,0,1,.68.81v.79c0,.3-.48.4-.68.4H60.79c-.2,0-.77-.1-.77-.4v-.79c0-.3.56-.81.77-.81H121m.32-2H60.79A3.06,3.06,0,0,0,58,66.31v.79a2.68,2.68,0,0,0,2.77,2.4h60.56A2.6,2.6,0,0,0,124,67.1v-.79a3,3,0,0,0-2.68-2.81Z"/><path class="cls-9" d="M73.8,55.5a65.48,65.48,0,0,1,6.89-2.82,30.66,30.66,0,0,1,9.37-1.45c.21,0,.42,0,.63,0a13,13,0,0,1,7.41,2.57c.76.54,1.5,1.65,2.23,1.65Z"/><path class="cls-10" d="M90.06,52.31h0c.2,0,.4-.17.6-.16,2.3.05,4.47,1.35,6.83,2.35H78.17A10.25,10.25,0,0,0,81,53.63a29.5,29.5,0,0,1,9.07-1.32m0-2a31.89,31.89,0,0,0-9.68,1.58,39.19,39.19,0,0,0-7.31,3.2c-.69.39-1.38.64-2,1.08a2.19,2.19,0,0,1-.71.33h32.46c-1.25-1-2.61-2.39-4.1-3.44a14.11,14.11,0,0,0-8-2.82c-.22,0-.43.08-.65.08Z"/><rect class="cls-9" x="86.02" y="52.5" width="1" height="4"/><polygon class="cls-10" points="88.02 51.5 85.02 51.5 85.02 57.5 88.02 57.5 88.02 51.5 88.02 51.5"/><circle class="cls-9" cx="110.3" cy="67.98" r="5.33"/><path class="cls-10" d="M110.3,63.65A4.33,4.33,0,1,1,106,68a4.32,4.32,0,0,1,4.33-4.33m0-2A6.33,6.33,0,1,0,116.63,68a6.33,6.33,0,0,0-6.32-6.33Z"/><circle class="cls-9" cx="70.74" cy="67.98" r="5.33"/><path class="cls-10" d="M70.74,63.65A4.33,4.33,0,1,1,66.41,68a4.32,4.32,0,0,1,4.33-4.33m0-2A6.33,6.33,0,1,0,77.06,68a6.33,6.33,0,0,0-6.32-6.33Z"/><rect class="cls-9" x="88.02" y="58.5" width="5" height="2" rx="0.75" ry="0.75"/><path class="cls-10" d="M92.17,58.5H88.4c-.41,0-.37.06-.37.47v.45c0,.41,0,1.08.37,1.08h3.77c.41,0,.85-.67.85-1.08V59c0-.41-.44-.47-.85-.47Z"/><path class="cls-9" d="M121.33,65.46a2.06,2.06,0,0,1-1.47-.68l-.08-.08c-1.49-1.17-2-3-1.07-4.12a2.27,2.27,0,0,1,1.6-.83h.1c.3,0,.38.14.57.38A5,5,0,0,1,122,63.06v1.41c0,.29.09.56-.12.75a.74.74,0,0,1-.55.25S121.37,65.47,121.33,65.46Z"/><path class="cls-10" d="M120.19,60.75a3.67,3.67,0,0,1,.84,2.3v1.41c0-.11-.51-.29-.85-.56-1-.81-1.43-2-.89-2.71a1.27,1.27,0,0,1,.9-.45m.22-2h-.19A3.25,3.25,0,0,0,117.93,60c-1.23,1.57-.7,4,1.19,5.48a3.07,3.07,0,0,0,2.08,1l.26,0a1.49,1.49,0,0,0,1.1-.5,1.84,1.84,0,0,0,.46-1.5V63.06a6,6,0,0,0-1.27-3.54,1.61,1.61,0,0,0-1.35-.76Z"/><circle class="cls-11" cx="202.58" cy="71" r="35"/><text class="cls-12" transform="translate(187.6 81)">VS.</text></g></g></svg>