<svg xmlns="http://www.w3.org/2000/svg" viewBox="0 0 79.88 82.54"><defs><style>.cls-1,.cls-3{fill:#767676;}.cls-1{stroke:#ffb600;stroke-miterlimit:10;stroke-width:2.36px;}.cls-2{fill:#696969;}.cls-4{fill:none;stroke:#fff;stroke-linecap:round;stroke-linejoin:round;stroke-width:6px;}.cls-5{fill:#bbe170;}</style></defs><title>icon-env</title><g id="Layer_2" data-name="Layer 2"><g id="texts"><circle class="cls-1" cx="40.4" cy="41.27" r="38.3"/><circle class="cls-2" cx="40.4" cy="41.27" r="30.34"/><rect class="cls-3" width="0.66" height="5.94"/><rect class="cls-3" x="2.64" y="-2.64" width="0.66" height="5.94" transform="translate(2.64 3.3) rotate(-90)"/><rect class="cls-3" x="76.27" y="79.24" width="0.66" height="5.94" transform="translate(-5.61 158.81) rotate(-90)"/><rect class="cls-3" x="78.91" y="76.6" width="0.66" height="5.94"/><g id="_Group_" data-name="&lt;Group&gt;"><path class="cls-4" d="M53,41.8l1.82-1.46,2.28-1.84V59.81l-9-7.22a.84.84,0,0,0-1.27.24A1.12,1.12,0,0,0,47,54.26l8.46,6.82H26.75l8.46-6.82a1.12,1.12,0,0,0,.21-1.43.84.84,0,0,0-1.27-.24l-9,7.22V38.5l2.28,1.84,1.82,1.46,11.19,9a1,1,0,0,0,1.32,0Z"/><path class="cls-4" d="M31,23.26V40l10.15,8.32L51.27,40V23.26Z"/><path class="cls-4" d="M48.63,31.85a.91.91,0,0,1,0,1.8H34.1a.91.91,0,0,1,0-1.8H48.63Z"/><path class="cls-4" d="M48.63,36.12a.9.9,0,0,1,0,1.79H34.1a.9.9,0,0,1,0-1.79Z"/><path class="cls-4" d="M40.34,27.59a.91.91,0,0,1,0,1.8H34.1a.91.91,0,0,1,0-1.8Z"/><path class="cls-4" d="M52.83,37.15v-14a1.61,1.61,0,0,0-1.49-1.72H30.91a1.61,1.61,0,0,0-1.49,1.72v14H27.5l1.91,1.57L31,40V23.26h20.3V40l1.56-1.28,1.91-1.57Z"/><path class="cls-3" d="M53,41.8l1.82-1.46,2.28-1.84V59.81l-9-7.22a.84.84,0,0,0-1.27.24A1.12,1.12,0,0,0,47,54.26l8.46,6.82H26.75l8.46-6.82a1.12,1.12,0,0,0,.21-1.43.84.84,0,0,0-1.27-.24l-9,7.22V38.5l2.28,1.84,1.82,1.46,11.19,9a1,1,0,0,0,1.32,0Z"/><path class="cls-5" d="M31,23.26V40l10.15,8.32L51.27,40V23.26Z"/><path class="cls-3" d="M48.63,31.85a.91.91,0,0,1,0,1.8H34.1a.91.91,0,0,1,0-1.8H48.63Z"/><path class="cls-3" d="M48.63,36.12a.9.9,0,0,1,0,1.79H34.1a.9.9,0,0,1,0-1.79Z"/><path class="cls-3" d="M40.34,27.59a.91.91,0,0,1,0,1.8H34.1a.91.91,0,0,1,0-1.8Z"/><path class="cls-3" d="M52.83,37.15v-14a1.61,1.61,0,0,0-1.49-1.72H30.91a1.61,1.61,0,0,0-1.49,1.72v14H27.5l1.91,1.57L31,40V23.26h20.3V40l1.56-1.28,1.91-1.57Z"/><path class="cls-3" d="M53,41.8l1.82-1.46,2.28-1.84V59.81l-9-7.22a.84.84,0,0,0-1.27.24A1.12,1.12,0,0,0,47,54.26l8.46,6.82H26.75l8.46-6.82a1.12,1.12,0,0,0,.21-1.43.84.84,0,0,0-1.27-.24l-9,7.22V38.5l2.28,1.84,1.82,1.46,11.19,9a1,1,0,0,0,1.32,0Z"/><path class="cls-3" d="M31,23.26V40l10.15,8.32L51.27,40V23.26Z"/><path class="cls-3" d="M48.63,31.85a.91.91,0,0,1,0,1.8H34.1a.91.91,0,0,1,0-1.8H48.63Z"/><path class="cls-3" d="M48.63,36.12a.9.9,0,0,1,0,1.79H34.1a.9.9,0,0,1,0-1.79Z"/><path class="cls-3" d="M40.34,27.59a.91.91,0,0,1,0,1.8H34.1a.91.91,0,0,1,0-1.8Z"/><path class="cls-3" d="M52.83,37.15v-14a1.61,1.61,0,0,0-1.49-1.72H30.91a1.61,1.61,0,0,0-1.49,1.72v14H27.5l1.91,1.57L31,40V23.26h20.3V40l1.56-1.28,1.91-1.57Z"/></g></g></g></svg>