<svg xmlns="http://www.w3.org/2000/svg" viewBox="0 0 79.88 82.54"><defs><style>.cls-1,.cls-4{fill:none;}.cls-1{stroke:#ffb600;stroke-miterlimit:10;stroke-width:2.36px;}.cls-2{fill:#ccc;}.cls-3{fill:#767676;}.cls-4{stroke:#fff;stroke-width:6px;}</style></defs><title>icon-down</title><g id="Layer_2" data-name="Layer 2"><g id="texts"><circle class="cls-1" cx="40.4" cy="41.27" r="38.3"/><circle class="cls-2" cx="40.4" cy="41.27" r="30.34"/><rect class="cls-3" width="0.66" height="5.94"/><rect class="cls-3" x="2.64" y="-2.64" width="0.66" height="5.94" transform="translate(2.64 3.3) rotate(-90)"/><rect class="cls-3" x="76.27" y="79.24" width="0.66" height="5.94" transform="translate(-5.61 158.81) rotate(-90)"/><rect class="cls-3" x="78.91" y="76.6" width="0.66" height="5.94"/><path class="cls-4" d="M60,58.59H22.5a1.5,1.5,0,1,1,0-3H60a1.5,1.5,0,0,1,0,3Z"/><path class="cls-4" d="M60,58.59H22.5a1.5,1.5,0,1,1,0-3H60a1.5,1.5,0,0,1,0,3Z"/><path class="cls-4" d="M57,43.38l-1.31,1.26L49.33,30.28a2,2,0,0,0-2.72-1l-8.06,4L34.36,22.85a2,2,0,0,0-2.89-1l-12.4,7.44a2.08,2.08,0,0,0-.88,2.62,2,2,0,0,0,2.84.87l10.49-6.29,4.13,10.32a2,2,0,0,0,2.75,1l8.13-4.06,5.53,12.44-1.81.13A.61.61,0,0,0,50,47.53a39,39,0,0,1,6.31,4.87.68.68,0,0,0,1.15-.51A39,39,0,0,1,58,43.94.61.61,0,0,0,57,43.38Z"/><path class="cls-3" d="M60,58.59H22.5a1.5,1.5,0,1,1,0-3H60a1.5,1.5,0,0,1,0,3Z"/><path class="cls-3" d="M57,43.38l-1.31,1.26L49.33,30.28a2,2,0,0,0-2.72-1l-8.06,4L34.36,22.85a2,2,0,0,0-2.89-1l-12.4,7.44a2.08,2.08,0,0,0-.88,2.62,2,2,0,0,0,2.84.87l10.49-6.29,4.13,10.32a2,2,0,0,0,2.75,1l8.13-4.06,5.53,12.44-1.81.13A.61.61,0,0,0,50,47.53a39,39,0,0,1,6.31,4.87.68.68,0,0,0,1.15-.51A39,39,0,0,1,58,43.94.61.61,0,0,0,57,43.38Z"/></g></g></svg>