<svg xmlns="http://www.w3.org/2000/svg" viewBox="0 0 79.88 82.54"><defs><style>.cls-1,.cls-3{fill:#767676;}.cls-1{stroke:#ffb600;stroke-miterlimit:10;stroke-width:2.36px;}.cls-2{fill:#696969;}.cls-4,.cls-5{fill:none;stroke:#fff;stroke-width:6px;}.cls-4{stroke-linecap:round;stroke-linejoin:round;}</style></defs><title>icon-phone</title><g id="Layer_2" data-name="Layer 2"><g id="texts"><circle class="cls-1" cx="40.4" cy="41.27" r="38.3"/><circle class="cls-2" cx="40.4" cy="41.27" r="30.34"/><rect class="cls-3" width="0.66" height="5.94"/><rect class="cls-3" x="2.64" y="-2.64" width="0.66" height="5.94" transform="translate(2.64 3.3) rotate(-90)"/><rect class="cls-3" x="76.27" y="79.24" width="0.66" height="5.94" transform="translate(-5.61 158.81) rotate(-90)"/><rect class="cls-3" x="78.91" y="76.6" width="0.66" height="5.94"/><path class="cls-4" d="M43.29,22.82A13.74,13.74,0,0,1,59.63,39.41H56.28a10.51,10.51,0,0,0-13-13.26Z"/><path class="cls-4" d="M43.29,22.82A13.74,13.74,0,0,1,59.63,39.41H56.28a10.51,10.51,0,0,0-13-13.26Z"/><path class="cls-4" d="M43.29,29.15a7.69,7.69,0,0,1,10,10.26H49.38l0,0a4.44,4.44,0,0,0-6.11-6.45Z"/><path class="cls-4" d="M43.29,29.15a7.69,7.69,0,0,1,10,10.26H49.38l0,0a4.44,4.44,0,0,0-6.11-6.45Z"/><path class="cls-3" d="M43.29,22.82A13.74,13.74,0,0,1,59.63,39.41H56.28a10.51,10.51,0,0,0-13-13.26Z"/><path class="cls-3" d="M43.29,29.15a7.69,7.69,0,0,1,10,10.26H49.38l0,0a4.44,4.44,0,0,0-6.11-6.45Z"/><path class="cls-5" d="M29.22,38.94C24.31,43.1,35.5,57.28,40.88,52.74l7.3,8.64c-2.27,1.92-4.25,3.23-7.49,2.08C31.7,60.26,19.93,46.34,18.52,37c-.49-3.24,1.18-4.84,3.4-6.72l7.3,8.64Z"/><path class="cls-5" d="M31.48,38.27a1.27,1.27,0,0,1-1.78-.15L22.81,30A1.27,1.27,0,0,1,23,28.2l2.47-2.09a1.27,1.27,0,0,1,1.78.15L34.1,34.4a1.27,1.27,0,0,1-.15,1.78l-2.47,2.09Z"/><path class="cls-5" d="M50.28,60.52a1.27,1.27,0,0,1-1.78-.15l-6.88-8.14a1.27,1.27,0,0,1,.15-1.78l2.47-2.09A1.27,1.27,0,0,1,46,48.5l6.88,8.14a1.27,1.27,0,0,1-.15,1.78l-2.47,2.09Z"/><path class="cls-3" d="M29.22,38.94C24.31,43.1,35.5,57.28,40.88,52.74l7.3,8.64c-2.27,1.92-4.25,3.23-7.49,2.08C31.7,60.26,19.93,46.34,18.52,37c-.49-3.24,1.18-4.84,3.4-6.72l7.3,8.64Z"/><path class="cls-3" d="M31.48,38.27a1.27,1.27,0,0,1-1.78-.15L22.81,30A1.27,1.27,0,0,1,23,28.2l2.47-2.09a1.27,1.27,0,0,1,1.78.15L34.1,34.4a1.27,1.27,0,0,1-.15,1.78l-2.47,2.09Z"/><path class="cls-3" d="M50.28,60.52a1.27,1.27,0,0,1-1.78-.15l-6.88-8.14a1.27,1.27,0,0,1,.15-1.78l2.47-2.09A1.27,1.27,0,0,1,46,48.5l6.88,8.14a1.27,1.27,0,0,1-.15,1.78l-2.47,2.09Z"/></g></g></svg>