<svg xmlns="http://www.w3.org/2000/svg" viewBox="0 0 79.88 82.54"><defs><style>.cls-1,.cls-3,.cls-6{fill:#767676;}.cls-1{stroke:#ffb600;stroke-miterlimit:10;stroke-width:2.36px;}.cls-2{fill:#696969;}.cls-4,.cls-7{fill:none;}.cls-4{stroke:#fff;stroke-width:6px;}.cls-4,.cls-5,.cls-6,.cls-7{stroke-linecap:round;stroke-linejoin:round;}.cls-5{fill:#ffb600;}.cls-5,.cls-6,.cls-7{stroke:#767676;stroke-width:2px;}</style></defs><title>icon-pen</title><g id="Layer_2" data-name="Layer 2"><g id="texts"><circle class="cls-1" cx="40.4" cy="41.27" r="38.3"/><circle class="cls-2" cx="40.4" cy="41.27" r="30.34"/><rect class="cls-3" width="0.66" height="5.94"/><rect class="cls-3" x="2.64" y="-2.64" width="0.66" height="5.94" transform="translate(2.64 3.3) rotate(-90)"/><rect class="cls-3" x="76.27" y="79.24" width="0.66" height="5.94" transform="translate(-5.61 158.81) rotate(-90)"/><rect class="cls-3" x="78.91" y="76.6" width="0.66" height="5.94"/><polygon class="cls-4" points="38.49 25 20.99 25 20.99 57.5 45.99 57.5 45.99 32.5 38.49 32.5 38.49 25"/><polygon class="cls-4" points="38.49 25 45.99 32.5 38.49 32.5 38.49 25"/><line class="cls-4" x1="25.99" y1="32.5" x2="35.99" y2="32.5"/><line class="cls-4" x1="25.99" y1="37.5" x2="40.99" y2="37.5"/><line class="cls-4" x1="25.99" y1="42.5" x2="40.99" y2="42.5"/><line class="cls-4" x1="33.49" y1="52.5" x2="40.99" y2="52.5"/><rect class="cls-4" x="38" y="36.5" width="27.5" height="5" transform="translate(-12.42 48.02) rotate(-45)"/><polygon class="cls-4" points="38.49 52.26 40.26 46.96 43.8 50.49 38.49 52.26"/><path class="cls-4" d="M63.24,31l-3.54-3.54,1.79-1.79a2.47,2.47,0,0,1,3.5,0l0,0a2.47,2.47,0,0,1,0,3.5Z"/><path class="cls-4" d="M49.12,45.21l0,0L63.24,31,65,32.81,52.62,45.21A2.47,2.47,0,0,1,49.12,45.21Z"/><rect class="cls-4" x="41.66" y="45.34" width="2.5" height="5" transform="translate(-21.26 44.36) rotate(-45)"/><polygon class="cls-5" points="38.49 25 20.99 25 20.99 57.5 45.99 57.5 45.99 32.5 38.49 32.5 38.49 25"/><polygon class="cls-6" points="38.49 25 45.99 32.5 38.49 32.5 38.49 25"/><line class="cls-7" x1="25.99" y1="32.5" x2="35.99" y2="32.5"/><line class="cls-7" x1="25.99" y1="37.5" x2="40.99" y2="37.5"/><line class="cls-7" x1="25.99" y1="42.5" x2="40.99" y2="42.5"/><line class="cls-7" x1="33.49" y1="52.5" x2="40.99" y2="52.5"/><rect class="cls-6" x="38" y="36.5" width="27.5" height="5" transform="translate(-12.42 48.02) rotate(-45)"/><polygon class="cls-5" points="38.49 52.26 40.26 46.96 43.8 50.49 38.49 52.26"/><path class="cls-5" d="M63.24,31l-3.54-3.54,1.79-1.79a2.47,2.47,0,0,1,3.5,0l0,0a2.47,2.47,0,0,1,0,3.5Z"/><path class="cls-5" d="M49.12,45.21l0,0L63.24,31,65,32.81,52.62,45.21A2.47,2.47,0,0,1,49.12,45.21Z"/><rect class="cls-5" x="41.66" y="45.34" width="2.5" height="5" transform="translate(-21.26 44.36) rotate(-45)"/></g></g></svg>