<svg xmlns="http://www.w3.org/2000/svg" viewBox="0 0 331.5 135.14"><defs><style>.cls-1{fill:#ffb600;stroke-width:3px;}.cls-1,.cls-12,.cls-7,.cls-8{stroke:#fff;}.cls-1,.cls-12,.cls-8,.cls-9{stroke-linecap:round;stroke-linejoin:round;}.cls-2,.cls-5{font-size:23.28px;fill:#fff;}.cls-2{font-family:MuseoSans-900Italic, MuseoSans 900Italic;font-style:italic;}.cls-3{letter-spacing:0.01em;}.cls-4{letter-spacing:-0.01em;}.cls-5{font-family:MuseoSans-900, MuseoSans 900;}.cls-6{font-size:22px;fill:#f2f2f2;font-family:ArialMT, Arial;}.cls-11,.cls-12,.cls-7{fill:none;}.cls-11,.cls-7{stroke-miterlimit:10;}.cls-7{stroke-width:4px;}.cls-10,.cls-8,.cls-9{fill:#767676;}.cls-12,.cls-8,.cls-9{stroke-width:2px;}.cls-9{stroke:#767676;}.cls-11{stroke:#0080b1;}</style></defs><title>impression</title><g id="Layer_2" data-name="Layer 2"><g id="texts"><circle class="cls-1" cx="310" cy="93.32" r="20"/><text class="cls-2" transform="translate(63.95 83.32)"><tspan class="cls-3">I</tspan><tspan x="5.8" y="0">mp</tspan><tspan class="cls-4" x="38.46" y="0">r</tspan><tspan x="45.84" y="0">esions</tspan></text><text class="cls-5" transform="translate(303.35 101.82)">X</text><text class="cls-2" transform="translate(93.61 129.32)">1000</text><text class="cls-6" transform="translate(263.58 98.32)">=</text><line class="cls-7" y1="98.32" x2="240" y2="98.32"/><path class="cls-8" d="M98.06,49.64,83.65,35.22,98.06,20.8a29.65,29.65,0,0,1,41.94,0l14.42,14.42L140,49.64A29.65,29.65,0,0,1,98.06,49.64Z"/><circle class="cls-8" cx="119.03" cy="35.22" r="17.61"/><circle class="cls-8" cx="119.03" cy="35.22" r="10.19"/><circle class="cls-9" cx="128.3" cy="25.95" r="6.49"/><path class="cls-10" d="M91,22.6l-5.24-5.24L89.12,14l5.24,5.24Zm56,0-3.33-3.33L148.92,14l3.33,3.33Zm-44.24-10L99.16,6.15a40.38,40.38,0,0,1,4.68-2.24l2.76,6.88A33,33,0,0,0,102.78,12.62Zm32.49,0a33.1,33.1,0,0,0-3.82-1.82L134.2,3.9a40.5,40.5,0,0,1,4.68,2.23ZM116.89,8.48l-.46-7.4a42,42,0,0,1,5.17,0l-.46,7.4A34.36,34.36,0,0,0,116.89,8.48Z"/><path class="cls-11" d="M91,22.6l-5.24-5.24L89.12,14l5.24,5.24Zm56,0-3.33-3.33L148.92,14l3.33,3.33Zm-44.24-10L99.16,6.15a40.38,40.38,0,0,1,4.68-2.24l2.76,6.88A33,33,0,0,0,102.78,12.62Zm32.49,0a33.1,33.1,0,0,0-3.82-1.82L134.2,3.9a40.5,40.5,0,0,1,4.68,2.23ZM116.89,8.48l-.46-7.4a42,42,0,0,1,5.17,0l-.46,7.4A34.36,34.36,0,0,0,116.89,8.48Z"/><path class="cls-12" d="M91,22.6l-5.24-5.24L89.12,14l5.24,5.24Zm56,0-3.33-3.33L148.92,14l3.33,3.33Zm-44.24-10L99.16,6.15a40.38,40.38,0,0,1,4.68-2.24l2.76,6.88A33,33,0,0,0,102.78,12.62Zm32.49,0a33.1,33.1,0,0,0-3.82-1.82L134.2,3.9a40.5,40.5,0,0,1,4.68,2.23ZM116.89,8.48l-.46-7.4a42,42,0,0,1,5.17,0l-.46,7.4A34.36,34.36,0,0,0,116.89,8.48Z"/></g></g></svg>