<svg xmlns="http://www.w3.org/2000/svg" viewBox="0 0 913.19 239.03"><defs><style>.cls-1,.cls-12,.cls-13,.cls-2,.cls-5{fill:#767676;}.cls-1,.cls-11,.cls-12,.cls-4,.cls-5,.cls-6{stroke:#fff;}.cls-1,.cls-11,.cls-12,.cls-6{stroke-linecap:round;}.cls-1,.cls-11,.cls-12,.cls-5,.cls-6{stroke-linejoin:round;}.cls-1,.cls-5,.cls-6{stroke-width:2px;}.cls-3,.cls-8{fill:#fff;}.cls-4,.cls-6{fill:none;}.cls-4{stroke-miterlimit:10;stroke-width:4px;}.cls-7{fill:#ffb600;}.cls-8{font-size:14px;}.cls-10,.cls-8,.cls-9{font-family:ArialMT, Arial;}.cls-9{font-size:16px;}.cls-10,.cls-9{fill:#f2f2f2;}.cls-10{font-size:24.38px;}.cls-11{fill:#bf3019;}.cls-11,.cls-12{stroke-width:3px;}.cls-13{font-size:23.28px;font-family:MuseoSans-900, MuseoSans 900;}</style></defs><title>learn-more</title><g id="Layer_2" data-name="Layer 2"><g id="texts"><text></text><ellipse class="cls-1" cx="497.25" cy="140.78" rx="10.41" ry="11.67"/><polyline class="cls-1" points="497.25 158.97 489.16 158.97 476.38 142.26 479.06 113.56 471.34 113.56 467.24 144.46 482.24 172.69 482.24 209 497.25 211.5"/><polyline class="cls-1" points="474.39 107.77 478.6 107.53 480.06 105.25 481.4 105.55 480.18 109.7 477.6 111.28 476.84 112.83 473.1 112.83 471.99 107.24 471.99 102.9 474.56 99 479.02 99 478.13 102.97 478.6 107.53"/><polyline class="cls-1" points="497.25 158.97 505.35 158.97 518.12 142.26 515.44 113.56 523.16 113.56 527.26 144.46 512.26 172.69 512.26 209 497.25 211.5"/><polyline class="cls-1" points="520.11 107.77 515.9 107.53 514.44 105.25 513.1 105.55 514.33 109.7 516.9 111.28 517.66 112.83 521.4 112.83 522.51 107.24 522.51 102.9 519.94 99 515.48 99 516.37 102.97 515.9 107.53"/><line class="cls-1" x1="482.24" y1="203.6" x2="512.26" y2="203.6"/><polygon class="cls-1" points="493.39 158.97 495.2 164.64 499.63 164.64 501.25 158.97 493.39 158.97"/><polyline class="cls-1" points="495.2 164.64 491.58 189.11 497.25 199.27 502.86 189.11 499.63 164.64"/><rect class="cls-2" x="745.44" y="69.14" width="120.22" height="60.33" rx="8.53" ry="8.53"/><path class="cls-3" d="M857.13,70.36a7.31,7.31,0,0,1,7.31,7.31v43.27a7.31,7.31,0,0,1-7.31,7.31H754a7.31,7.31,0,0,1-7.31-7.31V77.68A7.31,7.31,0,0,1,754,70.36H857.13m0-2.44H754a9.76,9.76,0,0,0-9.75,9.75v43.27a9.76,9.76,0,0,0,9.75,9.75H857.13a9.76,9.76,0,0,0,9.75-9.75V77.68a9.76,9.76,0,0,0-9.75-9.75Z"/><line class="cls-4" x1="279.93" y1="101.5" x2="335.12" y2="101.5"/><path class="cls-3" d="M307.78,120.7a2,2,0,0,1,.62-2.76L334.2,101.5,308.39,85.06a2,2,0,1,1,2.15-3.37L339,99.81a2,2,0,0,1,0,3.37l-28.46,18.13a2,2,0,0,1-2.77-.61Z"/><line class="cls-4" x1="654.93" y1="101.5" x2="710.12" y2="101.5"/><path class="cls-3" d="M682.78,120.7a2,2,0,0,1,.62-2.76L709.2,101.5,683.39,85.06a2,2,0,1,1,2.15-3.37L714,99.81a2,2,0,0,1,0,3.37l-28.46,18.13a2,2,0,0,1-2.77-.61Z"/><rect class="cls-2" x="54.43" y="21" width="212" height="167" rx="1" ry="1"/><path class="cls-3" d="M265.43,22V187h-210V22h210m0-2h-210a2,2,0,0,0-2,2V187a2,2,0,0,0,2,2h210a2,2,0,0,0,2-2V22a2,2,0,0,0-2-2Z"/><line class="cls-1" x1="54.93" y1="42" x2="264.93" y2="42"/><rect class="cls-2" x="136.43" y="26.08" width="119.5" height="11.84" rx="1" ry="1"/><path class="cls-3" d="M254.93,27.08v9.84H137.43V27.08h117.5m0-2H137.43a2,2,0,0,0-2,2v9.84a2,2,0,0,0,2,2h117.5a2,2,0,0,0,2-2V27.08a2,2,0,0,0-2-2Z"/><rect class="cls-2" x="230.43" y="26.08" width="25.5" height="11.84" rx="1" ry="1"/><path class="cls-3" d="M254.93,27.08v9.84h-23.5V27.08h23.5m0-2h-23.5a2,2,0,0,0-2,2v9.84a2,2,0,0,0,2,2h23.5a2,2,0,0,0,2-2V27.08a2,2,0,0,0-2-2Z"/><circle class="cls-2" cx="77.43" cy="32" r="6"/><path class="cls-3" d="M77.43,27a5,5,0,1,1-5,5,5,5,0,0,1,5-5m0-2a7,7,0,1,0,7,7,7,7,0,0,0-7-7Z"/><circle class="cls-2" cx="92.43" cy="32" r="6"/><path class="cls-3" d="M92.43,27a5,5,0,1,1-5,5,5,5,0,0,1,5-5m0-2a7,7,0,1,0,7,7,7,7,0,0,0-7-7Z"/><circle class="cls-2" cx="107.43" cy="32" r="6"/><path class="cls-3" d="M107.43,27a5,5,0,1,1-5,5,5,5,0,0,1,5-5m0-2a7,7,0,1,0,7,7,7,7,0,0,0-7-7Z"/><rect class="cls-2" x="71.93" y="46.5" width="38.5" height="22" rx="1" ry="1"/><path class="cls-3" d="M109.43,47.5v20H72.93v-20h36.5m0-2H72.93a2,2,0,0,0-2,2v20a2,2,0,0,0,2,2h36.5a2,2,0,0,0,2-2v-20a2,2,0,0,0-2-2Z"/><rect class="cls-2" x="191.93" y="53.5" width="12" height="12" rx="1" ry="1"/><path class="cls-3" d="M202.93,54.5v10h-10v-10h10m0-2h-10a2,2,0,0,0-2,2v10a2,2,0,0,0,2,2h10a2,2,0,0,0,2-2v-10a2,2,0,0,0-2-2Z"/><rect class="cls-2" x="71.93" y="118.5" width="39.4" height="14.5" rx="1" ry="1"/><path class="cls-3" d="M110.32,119.5V132H72.93V119.5h37.4m0-2H72.93a2,2,0,0,0-2,2V132a2,2,0,0,0,2,2h37.4a2,2,0,0,0,2-2V119.5a2,2,0,0,0-2-2Z"/><rect class="cls-2" x="109.43" y="118.5" width="42" height="14.5" rx="1" ry="1"/><path class="cls-3" d="M150.43,119.5V132h-40V119.5h40m0-2h-40a2,2,0,0,0-2,2V132a2,2,0,0,0,2,2h40a2,2,0,0,0,2-2V119.5a2,2,0,0,0-2-2Z"/><rect class="cls-2" x="149.43" y="118.5" width="34.5" height="14.5" rx="1" ry="1"/><path class="cls-3" d="M182.93,119.5V132h-32.5V119.5h32.5m0-2h-32.5a2,2,0,0,0-2,2V132a2,2,0,0,0,2,2h32.5a2,2,0,0,0,2-2V119.5a2,2,0,0,0-2-2Z"/><line class="cls-1" x1="72.93" y1="144.5" x2="112.75" y2="144.5"/><line class="cls-1" x1="210.43" y1="57" x2="232.93" y2="57"/><line class="cls-1" x1="210.43" y1="64.5" x2="250.25" y2="64.5"/><line class="cls-1" x1="72.93" y1="152" x2="182.93" y2="152"/><line class="cls-1" x1="72.93" y1="159.5" x2="182.93" y2="159.5"/><line class="cls-1" x1="72.93" y1="167" x2="182.93" y2="167"/><line class="cls-1" x1="72.93" y1="174.5" x2="182.93" y2="174.5"/><rect class="cls-2" x="194.43" y="118.5" width="59.5" height="62" rx="1" ry="1"/><path class="cls-3" d="M252.93,119.5v60h-57.5v-60h57.5m0-2h-57.5a2,2,0,0,0-2,2v60a2,2,0,0,0,2,2h57.5a2,2,0,0,0,2-2v-60a2,2,0,0,0-2-2Z"/><rect class="cls-2" x="71.89" y="73.73" width="182.07" height="36.8" rx="1.03" ry="1.03"/><path class="cls-3" d="M252.93,74.77V109.5h-180V74.77h180m0-2.07h-180a2.07,2.07,0,0,0-2.07,2.07V109.5a2.07,2.07,0,0,0,2.07,2.07h180A2.07,2.07,0,0,0,255,109.5V74.77a2.07,2.07,0,0,0-2.07-2.07Z"/><line class="cls-1" x1="252.93" y1="101.5" x2="72.93" y2="101.5"/><path class="cls-2" d="M87,100.27a1,1,0,0,1-.26,0A2.47,2.47,0,0,1,84.93,98v-.17a2.5,2.5,0,0,1,1.58-2.42,1,1,0,0,1,1.38.92c0,1,.06,2,.14,2.89a1,1,0,0,1-1,1.1Z"/><path class="cls-3" d="M86.87,96.29c0,1,.05,2,.15,3a1.48,1.48,0,0,1-1.09-1.36v-.17a1.5,1.5,0,0,1,1-1.45m0-2a2,2,0,0,0-.75.15,3.5,3.5,0,0,0-2.2,3.39V98a3.47,3.47,0,0,0,2.57,3.2A2,2,0,0,0,89,99.08c-.08-.85-.13-1.82-.14-2.8a2,2,0,0,0-2-2Z"/><path class="cls-2" d="M87.35,103a1,1,0,0,1-1-.76c-.47-2-1.39-6.78.38-8.09C100.29,84.09,110.12,82,116,82a21.54,21.54,0,0,1,4.31.42l.16,0c4.26.8,10.73,6.12,12.18,7.35,13.78.06,16.51,3.52,17.14,6.66a.92.92,0,0,1,.14.48V102a1,1,0,0,1-1,1Z"/><path class="cls-3" d="M116,83a20.78,20.78,0,0,1,4.29.43c4.5.84,12,7.41,12,7.41,14.79,0,16.22,4.18,16.58,6.18h.06v5H87.35s-1.42-6,0-7.05C101.1,84.72,110.74,83,116,83m0-2h0c-6,0-16.08,2.15-29.83,12.38-1.65,1.22-1.9,4.28-.75,9.12A2,2,0,0,0,87.35,104h61.57a2,2,0,0,0,2-2V96.91a2,2,0,0,0-.2-.87c-1.14-4.91-6.66-7.16-17.71-7.26-2-1.66-8.07-6.53-12.36-7.33l-.16,0A22.51,22.51,0,0,0,116,81Z"/><path class="cls-2" d="M86.71,103c-.73,0-1.78-.65-1.78-1.53v-.81A1.94,1.94,0,0,1,86.71,99h62.1c.84,0,1.11.88,1.11,1.66v.81c0,.86-.34,1.53-1.11,1.53Z"/><path class="cls-3" d="M148.81,100c.21,0,.12.36.12.66v.81c0,.3.09.53-.12.53H86.71c-.21,0-.78-.23-.78-.53v-.81c0-.3.58-.66.78-.66h62.22m-.12-2H86.71a2.93,2.93,0,0,0-2.78,2.66v.81A2.8,2.8,0,0,0,86.71,104h62.1c1.32,0,2.12-1.12,2.12-2.53v-.81c0-1.45-.79-2.66-2.12-2.66Z"/><path class="cls-2" d="M100,90c2.3-1,4.7-2.36,7.15-3.14a31.68,31.68,0,0,1,9.63-1.59h.64A13.63,13.63,0,0,1,125,88.09,8.65,8.65,0,0,1,127.33,90Z"/><path class="cls-3" d="M116.73,86.25h.62a12.51,12.51,0,0,1,7.06,2.64s.07.1.1.1H104.28c1,0,2.08-.85,3.13-1.19a30.7,30.7,0,0,1,9.32-1.56m0-2a32.69,32.69,0,0,0-9.93,1.62,40.18,40.18,0,0,0-7.5,3.28c-.71.4-1.41.85-2.09,1.31-.14.09-.56.53-.73.53h33.29c-1.28-1-2.68-2.65-4.21-3.73a14.58,14.58,0,0,0-8.17-3l-.67,0Z"/><rect class="cls-2" x="112.93" y="86" height="4"/><polygon class="cls-3" points="113.92 85 111.92 85 111.92 91 113.92 91 113.92 85 113.92 85"/><circle class="cls-2" cx="137.48" cy="102.37" r="5.44"/><path class="cls-3" d="M137.48,97.93a4.44,4.44,0,1,1-4.44,4.44,4.43,4.43,0,0,1,4.44-4.44m0-2a6.44,6.44,0,1,0,6.43,6.44,6.44,6.44,0,0,0-6.43-6.44Z"/><circle class="cls-2" cx="96.91" cy="102.37" r="5.44"/><path class="cls-3" d="M96.91,97.93a4.44,4.44,0,1,1-4.44,4.44,4.43,4.43,0,0,1,4.44-4.44m0-2a6.44,6.44,0,1,0,6.44,6.44,6.44,6.44,0,0,0-6.44-6.44Z"/><rect class="cls-2" x="113.93" y="92" width="5" height="2" rx="0.77" ry="0.77"/><path class="cls-3" d="M118.89,92H115a1.49,1.49,0,0,0-1.1,1.13v.46c0,.42.67.41,1.1.41h3.87c.42,0,1,0,1-.41v-.46c0-.42-.61-1.13-1-1.13Z"/><path class="cls-2" d="M148.8,99.76a2.08,2.08,0,0,1-1.5-.69l-.08-.08a4.14,4.14,0,0,1-1.4-1.91,2.41,2.41,0,0,1,.31-2.27,2.3,2.3,0,0,1,1.62-.84h.1a1,1,0,0,1,.78.38,5.28,5.28,0,0,1,1.3,3v1.45a1,1,0,0,1-1,1Z"/><path class="cls-3" d="M147.84,95a4.29,4.29,0,0,1,1.08,2.36v1.45c-1-.11-.74-.3-1.09-.57-1.06-.83-1.47-2.07-.92-2.78a1.3,1.3,0,0,1,.93-.46m0-2h-.19a3.29,3.29,0,0,0-2.31,1.22c-1.24,1.59-.71,4,1.22,5.56a3.1,3.1,0,0,0,2.11,1l.26,0a2,2,0,0,0,2-2V97.32a6.24,6.24,0,0,0-1.51-3.6,2,2,0,0,0-1.57-.76Z"/><line class="cls-5" x1="71.29" y1="85.24" x2="86.61" y2="85.24"/><line class="cls-5" x1="71.29" y1="90.56" x2="79.99" y2="90.56"/><line class="cls-5" x1="71.29" y1="96.33" x2="77.54" y2="96.33"/><rect class="cls-2" x="361.25" y="57.86" width="272.18" height="50.78" rx="1" ry="1"/><path class="cls-3" d="M632.43,58.86v48.78H362.25V58.86H632.43m0-2H362.25a2,2,0,0,0-2,2v48.78a2,2,0,0,0,2,2H632.43a2,2,0,0,0,2-2V58.86a2,2,0,0,0-2-2Z"/><path class="cls-2" d="M217.36,165.55c-2.16,0-4.7-1.11-7.74-3.38-.35-.26-.68-.52-1-.77a21.43,21.43,0,0,1-1.93-1.76,11.89,11.89,0,0,1-1.84-2.42,6.85,6.85,0,0,1-.78-2.15c-.61-3.55,2.29-6.06,4.63-8.08a16.3,16.3,0,0,0,2.32-2.25,3.15,3.15,0,0,1,2.7-1.21c3.72,0,10.2,4.43,12.16,8.31,1,1.92.55,3.17,0,3.88a16.1,16.1,0,0,0-1.47,2.92c-1.32,3.08-3,6.9-7.08,6.9Zm-2.14-5.44.11-.28-4.69-3.5-.24.18Z"/><path class="cls-3" d="M213.72,144.53c4.5,0,13.67,7.5,11.38,10.6-2,2.69-2.87,9.42-7.75,9.42-1.77,0-4.07-.89-7.14-3.18-.34-.25-.65-.5-1-.74a20.26,20.26,0,0,1-1.83-1.67,10.83,10.83,0,0,1-1.69-2.21,5.81,5.81,0,0,1-.67-1.83c-.74-4.3,4.86-7,6.76-9.56a2.21,2.21,0,0,1,1.89-.81m1.75,16.89a.47.47,0,0,0,.43-.33l.4-1a.9.9,0,0,0-.28-1l-4.88-3.64a.89.89,0,0,0-1,0l-.87.67a.46.46,0,0,0,0,.77l5.9,4.41a.52.52,0,0,0,.31.11m-1.75-18.89a4.11,4.11,0,0,0-3.5,1.62,15.84,15.84,0,0,1-2.16,2.09c-2.39,2.06-5.67,4.89-5,9a7.83,7.83,0,0,0,.89,2.46,12.89,12.89,0,0,0,2,2.63,22.32,22.32,0,0,0,2,1.84c.32.26.66.53,1,.8,3.22,2.41,6,3.58,8.34,3.58,4.77,0,6.64-4.34,8-7.51a15.61,15.61,0,0,1,1.35-2.72c.57-.77,1.33-2.43.06-4.92-2-3.87-8.64-8.86-13.06-8.86Z"/><path class="cls-2" d="M223.35,149.51a1,1,0,0,1-.59-.2l-4.59-3.4a1,1,0,0,1-.22-1.39l5.36-7.5a1,1,0,0,1,.47-.36l1-.38.42-1.57a1,1,0,0,1,.59-.67l1.42-.57,1-2.64a1,1,0,0,1,.68-.61l3-.8a1,1,0,0,1,.87.17l1.46,1.13a1,1,0,0,1,.39.75l.11,3a1,1,0,0,1-.41.85L232,137l-.1,1.54a1,1,0,0,1-.44.77l-1.42.94.07.89a1,1,0,0,1-.21.71l-5.79,7.28A1,1,0,0,1,223.35,149.51Z"/><path class="cls-3" d="M232.18,130.39l1.46,1.13.11,3-2.68,1.95-.13,2L229,139.76l.12,1.48-5.79,7.28-4.59-3.4,5.36-7.5,1.53-.56.56-2.07,1.82-.74,1.16-3,3-.8m0-2a2,2,0,0,0-.52.07l-3,.8a2,2,0,0,0-1.35,1.22l-.85,2.23-1,.41a2,2,0,0,0-1.18,1.33l-.29,1.07-.56.2a2,2,0,0,0-.94.71l-5.36,7.5a2,2,0,0,0,.44,2.77l4.59,3.4a2,2,0,0,0,2.76-.36l5.79-7.28a2,2,0,0,0,.43-1.41l0-.3.93-.62a2,2,0,0,0,.89-1.53l.07-1.07,1.93-1.4a2,2,0,0,0,.82-1.69l-.11-3a2,2,0,0,0-.78-1.51l-1.46-1.13a2,2,0,0,0-1.22-.42Z"/><line class="cls-6" x1="143.3" y1="32" x2="221.14" y2="32"/><path class="cls-2" d="M33,217.89a1.9,1.9,0,0,1-.83-.19,8.85,8.85,0,0,0-3.74-.93,5.76,5.76,0,0,0-.75,0l-.19,0a5.84,5.84,0,0,1-.83.08,2.36,2.36,0,0,1-1.38-.4,2.53,2.53,0,0,1-1-1.74,7.89,7.89,0,0,1,0-1.8c0-.22,0-.44,0-.66l.1-2.38,1.29-32.46L22.9,149.83a7.27,7.27,0,0,1,0-1.08,6.75,6.75,0,0,1,6.74-6.36H30a6.75,6.75,0,0,1,6.35,7.13l-1.6,27.85v.36L30.3,212.11a13.66,13.66,0,0,1,2.61,1.36l.19.13c.72.47,2.42,1.58,1.64,3.2A1.92,1.92,0,0,1,33,217.89Z"/><path class="cls-3" d="M29.61,143.39h.34a5.75,5.75,0,0,1,5.41,6.07l-1.6,27.85v.38L29.2,212.77a13.5,13.5,0,0,1,3.15,1.53c.62.42,1.94,1.14,1.49,2.07a.91.91,0,0,1-1.22.43,9.86,9.86,0,0,0-4.17-1,6.76,6.76,0,0,0-.88.06,7,7,0,0,1-.89.1,1.38,1.38,0,0,1-.81-.22,1.54,1.54,0,0,1-.59-1.06,12.93,12.93,0,0,1,.07-2.27c0-.79.07-1.58.1-2.38l.23-5.73.28-7,.29-7.26.26-6.47.18-4.64.06-1.42v0L23.9,149.73a6.22,6.22,0,0,1,0-.92,5.75,5.75,0,0,1,5.74-5.42m0-2a7.76,7.76,0,0,0-7.73,7.31,8.12,8.12,0,0,0,0,1.22l2.83,27.6-.05,1.28v.13l-.18,4.51-.25,6.29v.17l-.15,3.68L24,197.17l-.14,3.51-.14,3.51-.23,5.73q0,.57,0,1.14t-.05,1.24c0,.2,0,.4,0,.61a8.66,8.66,0,0,0,0,2,3.53,3.53,0,0,0,1.44,2.42,3.36,3.36,0,0,0,1.94.58,6.58,6.58,0,0,0,1-.09l.18,0a4.78,4.78,0,0,1,.62,0,7.84,7.84,0,0,1,3.3.83,2.91,2.91,0,0,0,3.89-1.36c.77-1.6.1-3.11-2-4.48l-.18-.12a14.11,14.11,0,0,0-2.08-1.16L35.73,178c0-.06,0-.13,0-.19v-.36l1.6-27.83a7.75,7.75,0,0,0-7.29-8.18Z"/><path class="cls-2" d="M43.08,129.18a3.57,3.57,0,0,1-2.84-1.39l-16-20.7a6.2,6.2,0,0,1-.43-.64,5.6,5.6,0,1,1,9.73-5.56l11.14,19.48,19.46-9.06a1.67,1.67,0,0,1,.67-.16l4.23-.09a1.73,1.73,0,0,1,.3,3.43l-3.69.58L45,128.59a3.59,3.59,0,0,1-2,.58Z"/><path class="cls-3" d="M28.69,99.06a4.6,4.6,0,0,1,4,2.32l11.6,20.28,20.16-9.39.13-.06a.71.71,0,0,1,.27-.09l4.23-.12h0a.75.75,0,0,1,.72.64.74.74,0,0,1-.61.85l-3.9.62.12-.08-.4.12.28,0L44.5,127.75a2.6,2.6,0,0,1-3.47-.58l-.24-.31L25,106.48a5.07,5.07,0,0,1-.35-.53,4.6,4.6,0,0,1,4-6.89m0-2A6.6,6.6,0,0,0,23,106.94a7.1,7.1,0,0,0,.5.75L39.2,128.08l.24.31a4.6,4.6,0,0,0,6.14,1L66,116l3.47-.54a2.76,2.76,0,0,0-.42-5.48H69l-4.23.12a2.68,2.68,0,0,0-1.06.26l-.14.07-18.49,8.62L34.42,100.38a6.62,6.62,0,0,0-5.74-3.32Z"/><polyline class="cls-1" points="35.57 104.2 41.48 109.92 33.35 116.79"/><path class="cls-2" d="M24.84,156.62c-7.23,0-11.73-4-11.73-10.35,0-5.18,3.41-38.24,8.23-48.29.12-.26.66-1.95,1.08-3.36a1,1,0,0,1,1-.71h3.14a1,1,0,0,1,1,1.12,11.66,11.66,0,0,0,0,3.08h.14a1.08,1.08,0,0,1,1,.65c4.72,11,7.88,42.52,7.88,47.53C36.57,152.65,32.08,156.62,24.84,156.62Z"/><path class="cls-3" d="M26.53,94.9h0m0,0s-.35,2.91.22,4a.46.46,0,0,0,.45.21c.17,0,.35,0,.46,0s.1,0,.11,0c4.5,10.53,7.8,41.72,7.8,47.13,0,6.53-4.8,9.35-10.73,9.35s-10.73-2.82-10.73-9.35c0-5.54,3.46-38.12,8.13-47.86.21-.43,1.14-3.51,1.14-3.51h3.14m0-2H23.38a2,2,0,0,0-1.91,1.42c-.4,1.33-.92,3-1,3.26-4.86,10.13-8.31,43.47-8.31,48.69,0,7,4.88,11.35,12.73,11.35s12.73-4.35,12.73-11.35c0-5-3.2-36.78-8-47.92a2,2,0,0,0-1.19-1.12,14.28,14.28,0,0,1,.08-2,2,2,0,0,0-2-2.33Zm0,4h0Z"/><path class="cls-2" d="M24.84,94.45c-4.87,0-8.29-8-8.29-12.28a8.29,8.29,0,1,1,16.58,0C33.13,86.48,29.71,94.45,24.84,94.45Z"/><path class="cls-3" d="M24.84,74.88a7.29,7.29,0,0,1,7.29,7.29c0,4-3.26,11.28-7.29,11.28s-7.29-7.26-7.29-11.28a7.29,7.29,0,0,1,7.29-7.29m0-2a9.3,9.3,0,0,0-9.29,9.29c0,4.56,3.62,13.28,9.29,13.28s9.29-8.72,9.29-13.28a9.3,9.3,0,0,0-9.29-9.29Z"/><path class="cls-2" d="M23.76,217.87a4.49,4.49,0,0,1-1.77-.51,4.5,4.5,0,0,0-.47-.2,8.06,8.06,0,0,0-2.35-.38,6.16,6.16,0,0,0-.73,0,7.24,7.24,0,0,1-.84.06,2.35,2.35,0,0,1-2.6-2.1,6.55,6.55,0,0,1,0-1.63c0-.18,0-.36,0-.53,0-.45,0-.9.05-1.35l1.34-33.79-2.83-27.66a7.27,7.27,0,0,1,0-1.08,6.75,6.75,0,0,1,6.74-6.36h.39a6.75,6.75,0,0,1,6.35,7.13l-1.6,27.85v.36s0,.07,0,.1L20.74,212A15,15,0,0,1,25,214.55a1.92,1.92,0,0,1,.45,2.26A1.81,1.81,0,0,1,23.76,217.87Z"/><path class="cls-3" d="M20.32,143.39h.34a5.75,5.75,0,0,1,5.41,6.07l-1.6,27.85v.38l-4.81,34.92a15.25,15.25,0,0,1,4.68,2.67.91.91,0,0,1,.21,1.08.8.8,0,0,1-.78.5,7.5,7.5,0,0,1-2-.66,9.06,9.06,0,0,0-2.65-.42,7.2,7.2,0,0,0-.85,0,6.25,6.25,0,0,1-.73.05c-.79,0-1.46-.24-1.61-1.25a9.85,9.85,0,0,1,.07-2c0-.69.05-1.39.08-2.08l.22-5.63.28-7.08.29-7.43.27-6.68.19-4.82.06-1.49v0L14.6,149.73a6.22,6.22,0,0,1,0-.92,5.75,5.75,0,0,1,5.74-5.42m0-2a7.76,7.76,0,0,0-7.73,7.31,8.12,8.12,0,0,0,0,1.22l2.83,27.6,0,.59,0,.76-.1,2.41-.1,2.41-.14,3.47-.13,3.21-.29,7.43-.14,3.54-.14,3.54-.11,2.85-.11,2.77,0,.7c0,.45,0,.9-.06,1.35,0,.16,0,.33,0,.49a7.48,7.48,0,0,0,0,1.87,3.35,3.35,0,0,0,3.59,2.94,8.11,8.11,0,0,0,1-.06,5.22,5.22,0,0,1,.61,0,7.06,7.06,0,0,1,2.06.33c.1,0,.23.09.36.15a5.36,5.36,0,0,0,2.18.6,2.81,2.81,0,0,0,2.58-1.63,2.93,2.93,0,0,0-.68-3.44,15.18,15.18,0,0,0-3.83-2.42l4.6-33.4q0-.1,0-.21v-.36l1.6-27.83a7.75,7.75,0,0,0-7.29-8.18Z"/><polyline class="cls-1" points="29.02 155.19 27.83 176.44 22.54 208.63 12.45 210.35 14.12 177.42 10.69 147.01 13.78 138.34 36.57 139.63 41.48 175.52 32.38 208.97 22.54 208.63 30.33 176.06 28.14 162.4"/><path class="cls-2" d="M28.22,145.46a1.74,1.74,0,0,1-1.48-.83l-2-3.23L2.45,124.67a3.63,3.63,0,0,1-.72-5.09l15.17-20a6,6,0,0,1,.53-.6,5.6,5.6,0,0,1,7.88,8l-15,14.81,17.43,16.94a1.65,1.65,0,0,1,.36.53L29.8,143a1.73,1.73,0,0,1-1.58,2.42Z"/><path class="cls-3" d="M21.37,98.31a4.6,4.6,0,0,1,3.24,7.88L8.89,121.71,27,139.27l.1.09a.67.67,0,0,1,.14.21l1.69,3.88a.73.73,0,0,1-1.29.67l-2.05-3.39.1.08-.24-.3.14.22L3.05,123.87H3a2.63,2.63,0,0,1-.51-3.68l.23-.31L17.7,100.13a5,5,0,0,1,.44-.5,4.59,4.59,0,0,1,3.23-1.33m0-2a6.56,6.56,0,0,0-4.64,1.91,7.13,7.13,0,0,0-.62.7L1.17,118.67.94,119a4.63,4.63,0,0,0,.9,6.48L24,142.09l1.85,3.06a2.73,2.73,0,0,0,4.83-2.5L29,138.77a2.66,2.66,0,0,0-.58-.84l-.11-.1L11.75,121.7,26,107.61a6.6,6.6,0,0,0-4.64-11.3Zm4.17,46.41h0Z"/><polyline class="cls-1" points="17.85 115.15 9.04 106.53 15.47 101.2"/><line class="cls-6" x1="362.43" y1="89" x2="632.43" y2="89"/><path class="cls-2" d="M383.4,93.28a1,1,0,0,1-.26,0,3.21,3.21,0,0,1-2.38-3V90a3.25,3.25,0,0,1,2.05-3.14,1,1,0,0,1,1.38.92c0,1.53.09,3,.22,4.38a1,1,0,0,1-1,1.1Z"/><path class="cls-3" d="M383.18,87.82c0,1.43.08,3,.22,4.47a2.22,2.22,0,0,1-1.64-2V90a2.26,2.26,0,0,1,1.43-2.17m0-2a2,2,0,0,0-.75.15,4.25,4.25,0,0,0-2.68,4.12v.25a4.21,4.21,0,0,0,3.12,3.88,2,2,0,0,0,2.51-2.12c-.13-1.3-.2-2.79-.21-4.29a2,2,0,0,0-2-2Z"/><path class="cls-2" d="M383.9,97c-.46,0-.87-.11-1-.56-.54-2.27-2.1-9.69.38-11.53,20.2-15,34.85-18.13,43.58-18.13a31.3,31.3,0,0,1,6.38.65l.25.06c6.42,1.2,16.34,9.47,18.19,11,20.62.06,24.36,5.13,25.25,9.69.11.15,0,.34,0,.53v7.68c0,.55,0,.58-.6.58Z"/><path class="cls-3" d="M426.89,67.83a31.19,31.19,0,0,1,6.44.65c6.76,1.26,18,11.18,18,11.18,22.2,0,24.34,5.33,24.89,9.33h-.3v7h-92s-2.14-8.8,0-10.39c20.64-15.35,35.1-17.77,43-17.77m0-2h0c-8.89,0-23.76,3.19-44.18,18.38-2.78,2.07-1.66,8.62-.75,12.46A1.83,1.83,0,0,0,383.9,98h92.42c1.1,0,1.6-.47,1.6-1.58V88.74c0-.35.11-.67,0-1-1-4.85-5.22-10.13-25.91-10.25-2.45-2.06-11.94-9.83-18.32-11l-.22,0a32.54,32.54,0,0,0-6.54-.64Z"/><path class="cls-2" d="M382.94,97c-.85,0-2-.4-2-1.42V94.37a2.73,2.73,0,0,1,2-2.37h93.21c1,0,1.78,1.44,1.78,2.37v1.21c0,1-.89,1.42-1.78,1.42Z"/><path class="cls-3" d="M476.15,93c.31,0,.78.92.78,1.37v1.21c0,.46-.47.42-.78.42H382.94c-.31,0-1,0-1-.42V94.37c0-.46.7-1.37,1-1.37h93m.22-2H382.94c-1.48,0-3,1.86-3,3.37v1.21c0,1.62,1.65,2.42,3,2.42h93.21a2.53,2.53,0,0,0,2.78-2.42V94.37c0-1.41-1.17-3.37-2.78-3.37Z"/><path class="cls-2" d="M401,79c.44,0,.9-.64,1.38-.91a59.6,59.6,0,0,1,11.06-4.9A48,48,0,0,1,428,70.78h1c3.94.09,7.77,1.59,11.71,4.38A16,16,0,0,1,445.17,79Z"/><path class="cls-3" d="M428,71.75h1c3.73.09,7.38,1.54,11.15,4.21a10.48,10.48,0,0,1,2.48,2H404.8c2.88-2,5.87-2.83,8.9-3.8A47.21,47.21,0,0,1,428,71.75m0-2a49.07,49.07,0,0,0-14.9,2.44,60.31,60.31,0,0,0-11.25,4.93c-1.07.6-2.12,1.34-3.14,2-.21.14-.84.87-1.1.87h50a45.88,45.88,0,0,0-6.31-5.66A21.92,21.92,0,0,0,429,69.81c-.33,0-.67-.07-1-.07Z"/><rect class="cls-2" x="421.93" y="72" width="1" height="7"/><polygon class="cls-3" points="423.93 71 420.93 71 420.93 80 423.93 80 423.93 71 423.93 71"/><circle class="cls-2" cx="459.15" cy="96.93" r="7.66"/><path class="cls-3" d="M459.15,90.27a6.66,6.66,0,1,1-6.66,6.66,6.66,6.66,0,0,1,6.66-6.66m0-2a8.66,8.66,0,1,0,8.66,8.66,8.67,8.67,0,0,0-8.66-8.66Z"/><circle class="cls-2" cx="398.25" cy="96.93" r="7.66"/><path class="cls-3" d="M398.25,90.27a6.66,6.66,0,1,1-6.66,6.66,6.66,6.66,0,0,1,6.66-6.66m0-2a8.66,8.66,0,1,0,8.66,8.66,8.67,8.67,0,0,0-8.66-8.66Z"/><rect class="cls-2" x="424.93" y="83" width="6" height="1" rx="0.15" ry="0.15"/><path class="cls-3" d="M431.24,82h-5.81c-.63,0-1.51.43-1.51,1.07v.69c0,.64.87,1.24,1.51,1.24h5.81c.63,0,.69-.61.69-1.24v-.69c0-.64-.05-1.07-.69-1.07Z"/><path class="cls-2" d="M476.19,92.53a2.67,2.67,0,0,1-1.94-.87,1.43,1.43,0,0,0-.19-.19c-2.06-1.61-2.74-4.06-1.55-5.58a3,3,0,0,1,2.08-1.07h.1c.3,0,.4.14.59.38a6.87,6.87,0,0,1,1.64,4.16v2.17c0,.29.08.56-.14.75a.77.77,0,0,1-.56.25S476.24,92.53,476.19,92.53Z"/><path class="cls-3" d="M474.5,85.81a5.94,5.94,0,0,1,1.42,3.55v2.17c-1-.17-.92-.45-1.44-.86-1.59-1.24-2.21-3.11-1.38-4.17a2,2,0,0,1,1.39-.69m.2-2h-.19a3.94,3.94,0,0,0-2.77,1.45,4.1,4.1,0,0,0-.54,3.88,6.71,6.71,0,0,0,2.26,3.1l.07.07a3.64,3.64,0,0,0,2.55,1.19l.26,0a1.53,1.53,0,0,0,1.12-.5,1.85,1.85,0,0,0,.48-1.5V89.36a8.22,8.22,0,0,0-1.85-4.78,1.64,1.64,0,0,0-1.37-.76Z"/><line class="cls-5" x1="359.79" y1="71.23" x2="382.79" y2="71.23"/><line class="cls-5" x1="359.79" y1="79.21" x2="372.84" y2="79.21"/><rect class="cls-2" x="523.93" y="63" width="94.5" height="39.5" rx="7" ry="7"/><path class="cls-3" d="M611.43,64a6,6,0,0,1,6,6V95.5a6,6,0,0,1-6,6h-80.5a6,6,0,0,1-6-6V70a6,6,0,0,1,6-6h80.5m0-2h-80.5a8,8,0,0,0-8,8V95.5a8,8,0,0,0,8,8h80.5a8,8,0,0,0,8-8V70a8,8,0,0,0-8-8Z"/><path class="cls-7" d="M185.93,107.57c-3.9,0-7.07-3.58-7.07-8v-15c0-4.4,3.17-8,7.07-8h53c3.9,0,7.07,3.58,7.07,8v15c0,4.4-3.17,8-7.07,8Z"/><path class="cls-3" d="M238.93,77.75c3.31,0,6,3.09,6,6.9V99.6c0,3.81-2.69,6.9-6,6.9h-53c-3.31,0-6-3.09-6-6.9V84.65c0-3.81,2.69-6.9,6-6.9h53m0-2.14h-53c-4.49,0-8.14,4.06-8.14,9V99.6c0,5,3.65,9,8.14,9h53c4.49,0,8.14-4.06,8.14-9V84.65c0-5-3.65-9-8.14-9Z"/><rect class="cls-7" x="753.53" y="63.05" width="120.22" height="60.33" rx="8.53" ry="8.53"/><path class="cls-3" d="M865.21,64.27a7.31,7.31,0,0,1,7.31,7.31v43.27a7.31,7.31,0,0,1-7.31,7.31H762.06a7.31,7.31,0,0,1-7.31-7.31V71.58a7.31,7.31,0,0,1,7.31-7.31H865.21m0-2.44H762.06a9.76,9.76,0,0,0-9.75,9.75v43.27a9.76,9.76,0,0,0,9.75,9.75H865.21a9.76,9.76,0,0,0,9.75-9.75V71.58a9.76,9.76,0,0,0-9.75-9.75Z"/><path class="cls-3" d="M912,135.08a12.54,12.54,0,0,1-3.5,15,80.07,80.07,0,0,1-8.76,6.34c-4.92,3.08-10.14,2.84-15.34.65a21.17,21.17,0,0,1-8.84-7c-2.91-3.92-5.75-7.92-8.62-11.88a3.3,3.3,0,0,1-.28-.45c2-1.76,4.12-2.89,7-2.54-.85-1.28-1.56-2.44-2.34-3.53-.91-1.27-1.91-2.47-2.84-3.74q-3.67-5.06-7.33-10.14a4.63,4.63,0,0,1-.34-5.31,4.51,4.51,0,0,1,4.39-2.38,4.62,4.62,0,0,1,3.66,2l5.81,8c1.89-1.74,3.67-3.71,6.37-2.6a35.58,35.58,0,0,1,3.61-2.79,3.54,3.54,0,0,1,4,.29c.94-.78,1.78-1.56,2.69-2.23a3.84,3.84,0,0,1,5.51.79Q903,122,909,130.44A29.85,29.85,0,0,1,912,135.08Zm-4.73,12a9.76,9.76,0,0,0,.78-12.69q-6.11-8.48-12.25-16.93c-.4-.56-.8-1.12-1.22-1.68a1.1,1.1,0,0,0-1.71-.29c-.28.21-.56.4-.82.63a1.11,1.11,0,0,0-.16,1.72c.79,1,1.52,2.07,2.27,3.12A2,2,0,1,1,891,123.2c-1.19-1.66-2.34-3.35-3.56-5a1.78,1.78,0,0,0-1.16-.77,1.86,1.86,0,0,0-1.51,3c1.16,1.58,2.35,3.16,3.5,4.75l.07.1a1.84,1.84,0,0,1-.38,2.79,1.82,1.82,0,0,1-2.72-.44q-2.27-3.11-4.44-6.26c-.72-1.06-1.23-1.19-2.29-.43l-.38.28c-.89.65-1,1.18-.34,2,1.52,2.06,3.06,4.11,4.57,6.18.84,1.16.71,2.22-.34,2.94s-2,.45-2.82-.68c-2.24-3.08-4.47-6.19-6.72-9.29l-6-8.31a1.71,1.71,0,1,0-2.73,2l9.73,13.41q4.59,6.33,9.14,12.68c.84,1.16.74,2.23-.26,3s-2.07.49-2.9-.65c-1.1-1.5-2.16-3-3.27-4.5a4.26,4.26,0,0,0-5-1.45c2.71,3.74,5.24,7.56,8.11,11.12a16.22,16.22,0,0,0,8.75,5.41A12.49,12.49,0,0,0,899.32,153c2.15-1.63,4.36-3.17,6.54-4.77A9.8,9.8,0,0,0,907.31,147Z"/><path class="cls-2" d="M908.09,134.35a9.7,9.7,0,0,1-2.22,13.89c-2.18,1.6-4.4,3.13-6.54,4.77a12.49,12.49,0,0,1-11.24,2.07,16.22,16.22,0,0,1-8.75-5.41c-2.86-3.56-5.4-7.37-8.11-11.12a4.26,4.26,0,0,1,5,1.45c1.11,1.47,2.17,3,3.27,4.5.83,1.13,1.9,1.38,2.9.65s1.1-1.8.26-3q-4.55-6.34-9.14-12.68l-9.73-13.41a1.71,1.71,0,1,1,2.73-2l6,8.31c2.24,3.1,4.47,6.2,6.72,9.29.83,1.13,1.82,1.37,2.82.68s1.18-1.78.34-2.94l2.88-1.8a1.82,1.82,0,0,0,2.72.44,1.84,1.84,0,0,0,.38-2.79l-.07-.1,2.73-2a2,2,0,1,0,3.18-2.28c-.74-1-1.47-2.1-2.27-3.12a1.11,1.11,0,0,1,.16-1.72c.26-.23.54-.43.82-.63a1.1,1.1,0,0,1,1.71.29c.41.56.82,1.12,1.22,1.68Q902,125.89,908.09,134.35Z"/><path class="cls-2" d="M891,123.2l-2.73,2c-1.15-1.6-2.34-3.17-3.5-4.75a1.86,1.86,0,0,1,1.51-3,1.78,1.78,0,0,1,1.16.77C888.68,119.85,889.83,121.54,891,123.2Z"/><path class="cls-2" d="M885.27,127.66l-2.88,1.8c-1.51-2.07-3-4.12-4.57-6.18-.63-.85-.55-1.39.34-2l.38-.28c1.06-.77,1.57-.63,2.29.43Q883,124.56,885.27,127.66Z"/><path class="cls-3" d="M883.45,101.47a2,2,0,0,1-.39,2.84c-1.43,1.08-2.89,2.1-4.33,3.14s-2.63,1.93-4,2.86a2.06,2.06,0,1,1-2.45-3.3q4.11-3,8.29-6A2,2,0,0,1,883.45,101.47Z"/><path class="cls-3" d="M868.54,92.3A2.08,2.08,0,0,1,870.24,95c-.51,3.24-1,6.5-1.57,9.74a5.63,5.63,0,0,1-.61,1.39,2.22,2.22,0,0,1-2.51.22,2,2,0,0,1-1-2.08c.18-1.4.44-2.79.66-4.18.3-1.91.6-3.83.93-5.75A2.07,2.07,0,0,1,868.54,92.3Z"/><path class="cls-3" d="M860.38,105a2.13,2.13,0,0,1-.37,3.08,2.09,2.09,0,0,1-3-.71c-1-1.33-2-2.68-2.93-4l-2.86-3.95a2.08,2.08,0,1,1,3.33-2.46Q857.47,101,860.38,105Z"/><path class="cls-3" d="M858.12,119.77a2,2,0,0,1-.6,3c-1.35,1-2.74,2-4.11,3s-2.64,1.93-4,2.86a2.06,2.06,0,1,1-2.41-3.33q4-3,8.08-5.85A2.05,2.05,0,0,1,858.12,119.77Z"/><path class="cls-3" d="M856.63,112.82a2.13,2.13,0,0,1-1,2.27,5.31,5.31,0,0,1-1.45.15c-3.32-.49-6.62-1-9.93-1.58a2,2,0,0,1-1.84-2.38,2,2,0,0,1,2.49-1.69c3.34.52,6.68,1.07,10,1.61A2,2,0,0,1,856.63,112.82Z"/><text class="cls-8" transform="translate(189.97 92.03)">LEARN<tspan x="2.34" y="11.72">MORE</tspan></text><text class="cls-9" transform="translate(543.25 80.21)">LEARN<tspan x="2.68" y="16">MORE</tspan></text><text class="cls-10" transform="translate(771.83 90.78)">LEARN<tspan x="4.08" y="21.94">MORE</tspan></text><path class="cls-3" d="M569.91,154a30.37,30.37,0,1,1-26.51,15.55l-8.47-14.45,14.69,6.68A30.25,30.25,0,0,1,569.91,154m0-2a32.31,32.31,0,0,0-20.63,7.43l-13.52-6.15a2,2,0,0,0-2.55,2.83l7.91,13.49a32.37,32.37,0,1,0,28.8-17.6Z"/><path class="cls-11" d="M582.65,192a54.94,54.94,0,0,1-12.73,9.55A54.94,54.94,0,0,1,557.2,192c-6.36-6.36-6.36-15.91,0-19.09,9-4.5,12.73,9.55,12.73,9.55s3.73-14,12.73-9.55c6.36,3.18,6.36,12.73,0,19.09"/><circle class="cls-12" cx="359.93" cy="59" r="20"/><text class="cls-13" transform="translate(353.95 67.5)">2</text><circle class="cls-12" cx="52.43" cy="21.5" r="20"/><text class="cls-13" transform="translate(46.45 30)">1</text><circle class="cls-12" cx="751.66" cy="64.27" r="20"/><text class="cls-13" transform="translate(745.69 72.77)">3</text><path class="cls-2" d="M215.58,171c-3.4,0-5.86-2.79-7.51-8.52q-.18-.63-.32-1.21a21.35,21.35,0,0,1-.47-2.57,11.9,11.9,0,0,1,0-3,6.86,6.86,0,0,1,.68-2.18c1.66-3.2,5.49-3.44,8.57-3.63a16.31,16.31,0,0,0,3.21-.39,2.8,2.8,0,0,1,.79-.11c3.53,0,6.09,6.44,6.72,10.79.56,3.9-.28,6.48-2.3,7.07A16.1,16.1,0,0,0,222,168.6c-2,1.11-4.17,2.36-6.43,2.36Zm-1.8-6.78L214,164l-1.61-5.62h-.3Z"/><path class="cls-3" d="M220.53,150.3c4.21,0,8.33,14.67,4.13,15.9-2.47.72-5.87,3.75-9.08,3.75-2.47,0-4.82-1.79-6.54-7.8-.12-.4-.22-.79-.31-1.17a20.23,20.23,0,0,1-.45-2.44,10.83,10.83,0,0,1,0-2.78,5.82,5.82,0,0,1,.58-1.87c2-3.87,8.1-2.62,11.17-3.52a1.8,1.8,0,0,1,.51-.07m-7.08,15.17a.54.54,0,0,0,.28-.09l.93-.58a.9.9,0,0,0,.37-1L213.35,158a.9.9,0,0,0-.81-.61h-1.1a.46.46,0,0,0-.46.62l2,7.08a.46.46,0,0,0,.44.36m7.08-17.17a3.81,3.81,0,0,0-1.07.15,15.82,15.82,0,0,1-3,.35c-3.15.2-7.47.47-9.4,4.17a7.85,7.85,0,0,0-.78,2.5,12.87,12.87,0,0,0,0,3.3,22.31,22.31,0,0,0,.49,2.69c.1.4.21.82.33,1.25.66,2.29,2.65,9.25,8.47,9.25,2.52,0,4.86-1.32,6.92-2.49a15.64,15.64,0,0,1,2.72-1.35c1.21-.35,3.92-1.86,3-8.18-.69-4.84-3.55-11.65-7.71-11.65Z"/><path class="cls-2" d="M227.27,160.87a1,1,0,0,1-1-.72l-1.6-5.48a1,1,0,0,1,.66-1.23l8.81-2.72a1,1,0,0,1,.59,0l1.06.33,1.29-1a1,1,0,0,1,.87-.17l1.47.4,2.39-1.49a1,1,0,0,1,.91-.08l2.87,1.17a1,1,0,0,1,.59.67l.48,1.78a1,1,0,0,1-.15.84l-1.73,2.47a1,1,0,0,1-.82.42l-2.87-.06-1,1.16a1,1,0,0,1-.75.34l-1.76-.11-.48.75a1,1,0,0,1-.6.43l-9,2.29A1,1,0,0,1,227.27,160.87Z"/><path class="cls-3" d="M242.4,149.62l2.87,1.17.48,1.78L244,155,240.7,155l-1.32,1.52-2.29-.14-.79,1.25-9,2.29-1.6-5.48,8.81-2.72,1.56.48,1.7-1.31,1.9.52,2.76-1.72m0-2a2,2,0,0,0-1.06.3l-2,1.26-1.05-.29a2,2,0,0,0-1.75.35l-.88.68-.57-.17a2,2,0,0,0-1.18,0l-8.81,2.72a2,2,0,0,0-1.33,2.47l1.6,5.48a2,2,0,0,0,2.41,1.38l9-2.29a2,2,0,0,0,1.2-.87l.16-.25,1.11.07h.13a2,2,0,0,0,1.51-.69l.71-.81L244,157h0a2,2,0,0,0,1.64-.85l1.73-2.47a2,2,0,0,0,.3-1.67l-.48-1.78a2,2,0,0,0-1.18-1.33l-2.87-1.17a2,2,0,0,0-.75-.15Z"/></g></g></svg>