<svg xmlns="http://www.w3.org/2000/svg" viewBox="0 0 375.17 284.69"><defs><style>.cls-1{font-size:24px;font-family:ArialMT, Arial;}.cls-1,.cls-11,.cls-8{fill:#fff;}.cls-2{letter-spacing:-0.09em;}.cls-3{letter-spacing:-0.02em;}.cls-4,.cls-5{fill:#767676;}.cls-4{stroke:#ffb600;stroke-width:2.36px;}.cls-12,.cls-4,.cls-7,.cls-8{stroke-miterlimit:10;}.cls-12,.cls-14,.cls-19,.cls-6,.cls-9{fill:none;}.cls-14,.cls-18,.cls-6,.cls-9{stroke:#fff;}.cls-14,.cls-15,.cls-16,.cls-17,.cls-18,.cls-19,.cls-6,.cls-9{stroke-linecap:round;stroke-linejoin:round;}.cls-6{stroke-width:6px;}.cls-10,.cls-16,.cls-7{fill:#ffb600;}.cls-12,.cls-15,.cls-16,.cls-17,.cls-19,.cls-7,.cls-8{stroke:#767676;}.cls-15,.cls-16,.cls-17,.cls-18,.cls-19,.cls-7,.cls-8{stroke-width:2px;}.cls-12,.cls-9{stroke-width:3px;}.cls-13{fill:#bbe170;}.cls-14{stroke-width:7px;}.cls-15{fill:#f9f9f9;}.cls-17,.cls-18{fill:#87c22e;}</style></defs><title>list-3</title><g id="Layer_2" data-name="Layer 2"><g id="texts"><text class="cls-1" transform="translate(97.19 39.08)"><tspan class="cls-2">Y</tspan><tspan x="13.8" y="0">ou’re targeting the </tspan><tspan x="0" y="28.8">wrong audience</tspan></text><text class="cls-1" transform="translate(97.19 150.06)"><tspan class="cls-2">Y</tspan><tspan x="13.8" y="0">ou have poor ad creative</tspan></text><text class="cls-1" transform="translate(97.19 236.23)"><tspan class="cls-2">Y</tspan><tspan x="13.8" y="0">ou’re using a bad </tspan><tspan x="0" y="28.8">o</tspan><tspan class="cls-3" x="13.35" y="28.8">f</tspan><tspan x="19.58" y="28.8">fer [call-to-action]</tspan></text><circle class="cls-4" cx="40.4" cy="41.27" r="38.3"/><circle class="cls-5" cx="40.4" cy="41.27" r="30.34"/><rect class="cls-5" width="0.66" height="5.94"/><rect class="cls-5" x="2.64" y="-2.64" width="0.66" height="5.94" transform="translate(2.64 3.3) rotate(-90)"/><rect class="cls-5" x="76.27" y="79.24" width="0.66" height="5.94" transform="translate(-5.61 158.81) rotate(-90)"/><rect class="cls-5" x="78.91" y="76.6" width="0.66" height="5.94"/><circle class="cls-4" cx="40.4" cy="142.35" r="38.3"/><circle class="cls-5" cx="40.4" cy="142.35" r="30.34"/><rect class="cls-5" y="101.08" width="0.66" height="5.94"/><rect class="cls-5" x="2.64" y="98.44" width="0.66" height="5.94" transform="translate(-98.44 104.37) rotate(-90)"/><rect class="cls-5" x="76.27" y="180.32" width="0.66" height="5.94" transform="translate(-106.68 259.89) rotate(-90)"/><rect class="cls-5" x="78.91" y="177.68" width="0.66" height="5.94"/><circle class="cls-4" cx="40.4" cy="243.42" r="38.3"/><circle class="cls-5" cx="40.4" cy="243.42" r="30.34"/><rect class="cls-5" y="202.15" width="0.66" height="5.94"/><rect class="cls-5" x="2.64" y="199.51" width="0.66" height="5.94" transform="translate(-199.51 205.45) rotate(-90)"/><rect class="cls-5" x="76.27" y="281.4" width="0.66" height="5.94" transform="translate(-207.76 360.97) rotate(-90)"/><rect class="cls-5" x="78.91" y="278.76" width="0.66" height="5.94"/><path class="cls-6" d="M52.5,48.08V58.4h-25V48.08a6.34,6.34,0,0,1,4.92-6.17L40,52.17,47.58,41.9A6.34,6.34,0,0,1,52.5,48.08Z"/><path class="cls-6" d="M47.58,41.9,40,52.17,32.42,41.9a6.18,6.18,0,0,1,1.43-.17H35.4L40,48l4.6-6.23h1.56A6.18,6.18,0,0,1,47.58,41.9Z"/><polygon class="cls-6" points="44.6 41.74 40 47.97 35.4 41.74 44.6 41.74"/><path class="cls-7" d="M52.5,48.08V58.4h-25V48.08a6.34,6.34,0,0,1,4.92-6.17L40,52.17,47.58,41.9A6.34,6.34,0,0,1,52.5,48.08Z"/><path class="cls-8" d="M47.58,41.9,40,52.17,32.42,41.9a6.18,6.18,0,0,1,1.43-.17H35.4L40,48l4.6-6.23h1.56A6.18,6.18,0,0,1,47.58,41.9Z"/><polygon class="cls-7" points="44.6 41.74 40 47.97 35.4 41.74 44.6 41.74"/><line class="cls-9" x1="20" y1="64.65" x2="63.75" y2="20.9"/><circle class="cls-10" cx="40" cy="29.24" r="7.83"/><path class="cls-11" d="M40,23.4a5.83,5.83,0,1,1-5.83,5.83A5.84,5.84,0,0,1,40,23.4m0-4a9.83,9.83,0,1,0,9.83,9.83A9.84,9.84,0,0,0,40,19.4Z"/><circle class="cls-12" cx="40" cy="29.24" r="5.83"/><g id="_Group_" data-name="&lt;Group&gt;"><path class="cls-6" d="M53.5,227.25a3,3,0,0,1,3.07,3.07L56.29,241a3,3,0,0,1-.87,2L36.5,262a3,3,0,0,1-4.23,0L21.86,251.55a3,3,0,0,1,0-4.23l18.91-18.91a3,3,0,0,1,2-.87Zm-1.11,4.18a2.53,2.53,0,1,0,0,3.58A2.53,2.53,0,0,0,52.39,231.42Zm-6.8,11.42c-1.47-1.47-3.19-2.12-4.86-.45s-1.14,3.44.31,4.89,3.23,2.09,4.88.43S47,244.3,45.58,242.85Zm-5.16,10.58-4.47-15.57L34.81,239l4.45,15.6Zm-6.27-8.11c-1.48-1.48-3.26-2.18-4.93-.51s-1.09,3.49.37,5,3.15,2,4.81.36S35.61,246.78,34.15,245.32Z"/><circle class="cls-6" cx="50.59" cy="233.22" r="2.53" transform="translate(-150.09 104.08) rotate(-45)"/><path class="cls-6" d="M40.72,242.4c1.67-1.67,3.39-1,4.86.45s1.9,3.31.33,4.88-3.41,1-4.88-.43S39.14,244,40.72,242.4Zm3.46,1.8c-.53-.53-1.65-1.58-2.45-.78s.06,1.9.69,2.52,1.63,1.63,2.49.77S44.74,244.76,44.18,244.2Z"/><path class="cls-6" d="M41.73,243.42c.79-.79,1.92.26,2.45.78s1.56,1.67.73,2.5-1.91-.19-2.49-.77S40.87,244.28,41.73,243.42Z"/><polygon class="cls-6" points="35.95 237.85 40.42 253.43 39.25 254.59 34.81 239 35.95 237.85"/><path class="cls-6" d="M29.22,244.8c1.67-1.67,3.44-1,4.93.51s1.83,3.23.26,4.81-3.33,1.12-4.81-.36S27.64,246.38,29.22,244.8Zm3.54,1.87c-.54-.54-1.73-1.66-2.53-.86s.15,2,.77,2.6,1.55,1.55,2.41.69S33.32,247.24,32.75,246.67Z"/><path class="cls-6" d="M30.23,245.81c.79-.79,2,.32,2.53.86s1.49,1.59.65,2.43-1.83-.11-2.41-.69S29.36,246.67,30.23,245.81Z"/><path class="cls-5" d="M53.5,227.25a3,3,0,0,1,3.07,3.07L56.29,241a3,3,0,0,1-.87,2L36.5,262a3,3,0,0,1-4.23,0L21.86,251.55a3,3,0,0,1,0-4.23l18.91-18.91a3,3,0,0,1,2-.87Zm-1.11,4.18a2.53,2.53,0,1,0,0,3.58A2.53,2.53,0,0,0,52.39,231.42Zm-6.8,11.42c-1.47-1.47-3.19-2.12-4.86-.45s-1.14,3.44.31,4.89,3.23,2.09,4.88.43S47,244.3,45.58,242.85Zm-5.16,10.58-4.47-15.57L34.81,239l4.45,15.6Zm-6.27-8.11c-1.48-1.48-3.26-2.18-4.93-.51s-1.09,3.49.37,5,3.15,2,4.81.36S35.61,246.78,34.15,245.32Z"/><circle class="cls-13" cx="50.59" cy="233.22" r="2.53" transform="translate(-150.09 104.08) rotate(-45)"/><path class="cls-13" d="M40.72,242.4c1.67-1.67,3.39-1,4.86.45s1.9,3.31.33,4.88-3.41,1-4.88-.43S39.14,244,40.72,242.4Zm3.46,1.8c-.53-.53-1.65-1.58-2.45-.78s.06,1.9.69,2.52,1.63,1.63,2.49.77S44.74,244.76,44.18,244.2Z"/><path class="cls-5" d="M41.73,243.42c.79-.79,1.92.26,2.45.78s1.56,1.67.73,2.5-1.91-.19-2.49-.77S40.87,244.28,41.73,243.42Z"/><polygon class="cls-13" points="35.95 237.85 40.42 253.43 39.25 254.59 34.81 239 35.95 237.85"/><path class="cls-13" d="M29.22,244.8c1.67-1.67,3.44-1,4.93.51s1.83,3.23.26,4.81-3.33,1.12-4.81-.36S27.64,246.38,29.22,244.8Zm3.54,1.87c-.54-.54-1.73-1.66-2.53-.86s.15,2,.77,2.6,1.55,1.55,2.41.69S33.32,247.24,32.75,246.67Z"/><path class="cls-5" d="M30.23,245.81c.79-.79,2,.32,2.53.86s1.49,1.59.65,2.43-1.83-.11-2.41-.69S29.36,246.67,30.23,245.81Z"/><path class="cls-5" d="M53.5,227.25a3,3,0,0,1,3.07,3.07L56.29,241a3,3,0,0,1-.87,2L36.5,262a3,3,0,0,1-4.23,0L21.86,251.55a3,3,0,0,1,0-4.23l18.91-18.91a3,3,0,0,1,2-.87Zm-1.11,4.18a2.53,2.53,0,1,0,0,3.58A2.53,2.53,0,0,0,52.39,231.42Zm-6.8,11.42c-1.47-1.47-3.19-2.12-4.86-.45s-1.14,3.44.31,4.89,3.23,2.09,4.88.43S47,244.3,45.58,242.85Zm-5.16,10.58-4.47-15.57L34.81,239l4.45,15.6Zm-6.27-8.11c-1.48-1.48-3.26-2.18-4.93-.51s-1.09,3.49.37,5,3.15,2,4.81.36S35.61,246.78,34.15,245.32Z"/><circle class="cls-5" cx="50.59" cy="233.22" r="2.53" transform="translate(-150.09 104.08) rotate(-45)"/><path class="cls-5" d="M40.72,242.4c1.67-1.67,3.39-1,4.86.45s1.9,3.31.33,4.88-3.41,1-4.88-.43S39.14,244,40.72,242.4Zm3.46,1.8c-.53-.53-1.65-1.58-2.45-.78s.06,1.9.69,2.52,1.63,1.63,2.49.77S44.74,244.76,44.18,244.2Z"/><path class="cls-5" d="M41.73,243.42c.79-.79,1.92.26,2.45.78s1.56,1.67.73,2.5-1.91-.19-2.49-.77S40.87,244.28,41.73,243.42Z"/><polygon class="cls-5" points="35.95 237.85 40.42 253.43 39.25 254.59 34.81 239 35.95 237.85"/><path class="cls-5" d="M29.22,244.8c1.67-1.67,3.44-1,4.93.51s1.83,3.23.26,4.81-3.33,1.12-4.81-.36S27.64,246.38,29.22,244.8Zm3.54,1.87c-.54-.54-1.73-1.66-2.53-.86s.15,2,.77,2.6,1.55,1.55,2.41.69S33.32,247.24,32.75,246.67Z"/><path class="cls-5" d="M30.23,245.81c.79-.79,2,.32,2.53.86s1.49,1.59.65,2.43-1.83-.11-2.41-.69S29.36,246.67,30.23,245.81Z"/></g><rect class="cls-14" x="33.95" y="144.7" width="12.28" height="15.11"/><path class="cls-14" d="M36.4,159.81h7.39V161a3.66,3.66,0,0,1-3.66,3.66h-.07A3.66,3.66,0,0,1,36.4,161Z"/><circle class="cls-14" cx="40.09" cy="137.15" r="14.05"/><line class="cls-14" x1="33.95" y1="153.51" x2="46.23" y2="153.51"/><line class="cls-14" x1="33.95" y1="156.47" x2="46.23" y2="156.47"/><polyline class="cls-14" points="36.56 141.15 38.53 138.82 40.09 141.15 41.75 138.82 43.78 140.93"/><polyline class="cls-14" points="40.09 151.2 40.09 146.05 34.88 138.82"/><line class="cls-14" x1="40.09" y1="146.05" x2="45.3" y2="138.82"/><rect class="cls-15" x="33.95" y="144.7" width="12.28" height="15.11"/><path class="cls-16" d="M36.4,159.81h7.39V161a3.66,3.66,0,0,1-3.66,3.66h-.07A3.66,3.66,0,0,1,36.4,161Z"/><circle class="cls-16" cx="40.09" cy="137.15" r="14.05"/><line class="cls-17" x1="33.95" y1="153.51" x2="46.23" y2="153.51"/><line class="cls-17" x1="33.95" y1="156.47" x2="46.23" y2="156.47"/><polyline class="cls-18" points="36.56 141.15 38.53 138.82 40.09 141.15 41.75 138.82 43.78 140.93"/><polyline class="cls-19" points="40.09 151.2 40.09 146.05 34.88 138.82"/><line class="cls-17" x1="40.09" y1="146.05" x2="45.3" y2="138.82"/></g></g></svg>