<svg xmlns="http://www.w3.org/2000/svg" xmlns:xlink="http://www.w3.org/1999/xlink" viewBox="0 0 1378.06 240.2"><defs><style>.cls-1,.cls-3,.cls-4,.cls-8{fill:#fff;}.cls-2{font-size:26px;font-family:ArialMT, Arial;}.cls-2,.cls-7{fill:#0080b1;}.cls-3{stroke:#007cc0;}.cls-3,.cls-4,.cls-5{stroke-miterlimit:10;}.cls-3,.cls-4,.cls-5,.cls-8{stroke-width:2px;}.cls-4,.cls-5,.cls-8{stroke:#0080b1;}.cls-5{fill:none;}.cls-6{clip-path:url(#clip-path);}.cls-8{stroke-linecap:round;stroke-linejoin:round;}.cls-9{fill:#767676;}</style><clipPath id="clip-path"><path class="cls-1" d="M601.4,133.94h-55.9c-5.16,0-7.92-2.87-7.92-8.08V99.12c0-5,2.41-10,7.92-10h31.6c14.22,0,33.71,22.71,33.71,35.8C610.81,130.24,606.76,133.94,601.4,133.94Z"/></clipPath></defs><title>loading_1</title><g id="Layer_2" data-name="Layer 2"><g id="texts"><text class="cls-2" transform="translate(439.12 73)">LOADING...</text><circle class="cls-3" cx="1057.78" cy="23.73" r="22.73"/><line class="cls-3" x1="1057.78" y1="12.76" x2="1057.78" y2="67.61"/><line class="cls-3" x1="1045.77" y1="27.12" x2="1057.78" y2="37.05"/><line class="cls-3" x1="1066.14" y1="17.72" x2="1057.26" y2="26.6"/><circle class="cls-3" cx="1111.21" cy="23.73" r="22.73"/><line class="cls-3" x1="1111.21" y1="12.76" x2="1111.21" y2="67.61"/><line class="cls-3" x1="1099.19" y1="27.12" x2="1111.21" y2="37.05"/><line class="cls-3" x1="1119.57" y1="17.72" x2="1110.69" y2="26.6"/><line class="cls-3" x1="1038.92" y1="67.61" x2="1127.74" y2="67.61"/><circle class="cls-3" cx="319.46" cy="23.73" r="22.73"/><line class="cls-3" x1="319.46" y1="12.76" x2="319.46" y2="67.61"/><line class="cls-3" x1="331.48" y1="27.12" x2="319.46" y2="37.05"/><line class="cls-3" x1="311.1" y1="17.72" x2="319.98" y2="26.6"/><circle class="cls-3" cx="266.03" cy="23.73" r="22.73"/><line class="cls-3" x1="266.03" y1="12.76" x2="266.03" y2="67.61"/><line class="cls-3" x1="278.05" y1="27.12" x2="266.03" y2="37.05"/><line class="cls-3" x1="257.67" y1="17.72" x2="266.56" y2="26.6"/><line class="cls-3" x1="338.33" y1="67.61" x2="249.51" y2="67.61"/><path class="cls-4" d="M238.29,135.12s47.52,1.35,63.3,2.65c18.75,1.54,54.54,10.34,54.54,25,0,21.28-15.94,36.5-28.51,36.5-77.31,0-292.91-.66-292.91-.66s-9,1.92-16.72-10.06-25.5-36.7-12.17-45.78c0,0,48.86-33.8,99.67-33.8,0,0,30.28-1,43.66-1.19C170.11,107.58,185.65,107.84,238.29,135.12Z"/><path class="cls-4" d="M13.73,137.83s4.93,2.51,4.93,15.72S5.14,167.12,5.14,167.12"/><path class="cls-4" d="M35.52,174.83c0-1.46.43-1.71-1-1.71H5.37c-1.46,0-2.65.72-2.65,2.18l2.65,15.5c0,1.46,1.18,2.27,2.65,2.27H34.49c1.46,0,1-.9,1-2.36Z"/><rect class="cls-4" x="104.75" y="190.72" width="153.73" height="8.21"/><ellipse class="cls-4" cx="331.08" cy="152.58" rx="3.32" ry="19.47" transform="translate(82.29 419.03) rotate(-71.71)"/><path class="cls-4" d="M11.36,149.59a9.84,9.84,0,0,0-3.9-7.88c-1.06.69-1.65,1.1-1.65,1.1C.5,146.42.14,152.53,2.1,159.33A9.59,9.59,0,0,0,11.36,149.59Z"/><circle class="cls-4" cx="79.53" cy="184.23" r="32.97"/><circle class="cls-4" cx="79.53" cy="184.23" r="22.16"/><circle class="cls-4" cx="285.97" cy="184.23" r="32.97"/><circle class="cls-4" cx="285.97" cy="184.23" r="22.16"/><circle class="cls-4" cx="285.97" cy="184.23" r="22.19"/><circle class="cls-4" cx="285.97" cy="184.23" r="13.07"/><path class="cls-1" d="M286,205.79c.45,0,1.28-.36,1.28-.81V163.57c0-.45-.83-.81-1.28-.81s-1.28.36-1.28.81V205C284.72,205.43,285.55,205.79,286,205.79Z"/><path class="cls-1" d="M266.24,191.38a.8.8,0,0,0,.25,0l39.46-12.59a.81.81,0,1,0-.49-1.54L266,189.8a.81.81,0,0,0,.25,1.58Z"/><path class="cls-1" d="M305.7,191.38a.81.81,0,0,0,.25-1.58l-39.46-12.59a.81.81,0,1,0-.49,1.54l39.46,12.59A.8.8,0,0,0,305.7,191.38Z"/><path class="cls-1" d="M298.29,201.74a.81.81,0,0,0,.65-1.29l-24.62-33.3a.81.81,0,0,0-1.3,1l24.62,33.3A.81.81,0,0,0,298.29,201.74Z"/><path class="cls-1" d="M273.66,201.74a.81.81,0,0,0,.65-.33l24.62-33.3a.81.81,0,0,0-1.3-1L273,200.45a.81.81,0,0,0,.65,1.29Z"/><circle class="cls-4" cx="285.97" cy="184.23" r="5.3"/><rect class="cls-4" x="100.06" y="116.79" width="4.69" height="24.64"/><polygon class="cls-4" points="219.47 136.85 217.06 141.56 174.62 120.07 177.03 115.36 219.47 136.85"/><path class="cls-4" d="M141.13,119.13h.8c14.92,0,32.13.58,51.17,1.39,8.69,3.18,19.16,8.29,32.4,15-10.58,2.34-20.52,2.37-21.78,3.54H119c-22.19,0-33-4.68-41.6-8.14-1.08-.43-2.16-1.23-3.19-1.63-2.62-1-3.5-2-3.6-2.32,0,0-.13,0-.13,0,4.22-2.23,15.27-7.87,71-7.87m.5-4.7c-59.95,0-69.8,6.71-74.14,9-1.41.73-5,7,4.74,10.73s20.62,9.7,46.43,9.7h84.92s19.38-2.35,34.41-8.21h-.93v0h0v0h0v.86h0v-.84h1.17v0h-.24c-18.87-9.39-33-16.3-44.26-20.35-20.62-.89-37.79-.83-52.1-.83Z"/><path class="cls-4" d="M135.06,154.34a2.41,2.41,0,0,1-2.65,2.35H119.18a2.41,2.41,0,0,1-2.65-2.35h0a2.41,2.41,0,0,1,2.65-2.35h13.23a2.41,2.41,0,0,1,2.65,2.35Z"/><circle class="cls-4" cx="986.13" cy="192.41" r="24.79"/><circle class="cls-4" cx="986.13" cy="192.41" r="19.93"/><circle class="cls-4" cx="986.13" cy="192.41" r="11.73"/><path class="cls-1" d="M986.66,211.78a.66.66,0,0,0,.64-.73v-37.2a.64.64,0,1,0-1.28,0v37.2A.66.66,0,0,0,986.66,211.78Z"/><path class="cls-1" d="M968.41,198.83a.72.72,0,0,0,.22,0l35.44-11.3a.73.73,0,1,0-.44-1.38l-35.44,11.3a.73.73,0,0,0,.22,1.42Z"/><path class="cls-1" d="M1003.84,198.83a.73.73,0,0,0,.22-1.42l-35.44-11.3a.73.73,0,1,0-.44,1.38l35.44,11.3A.72.72,0,0,0,1003.84,198.83Z"/><path class="cls-1" d="M997.18,208.13a.73.73,0,0,0,.58-1.16l-22.11-29.91a.73.73,0,0,0-1.17.86l22.11,29.91A.72.72,0,0,0,997.18,208.13Z"/><path class="cls-1" d="M975.07,208.13a.72.72,0,0,0,.58-.29l22.11-29.91a.73.73,0,0,0-1.17-.86L974.49,207a.73.73,0,0,0,.58,1.16Z"/><circle class="cls-4" cx="986.13" cy="192.41" r="4.76"/><circle class="cls-4" cx="780.3" cy="189.6" r="27.6"/><circle class="cls-4" cx="780.3" cy="189.6" r="22.19"/><circle class="cls-4" cx="780.3" cy="189.6" r="13.07"/><path class="cls-1" d="M780.33,211.16c.45,0,1.28-.36,1.28-.81V168.94c0-.45-.83-.81-1.28-.81s-1.28.36-1.28.81v41.42C779,210.8,779.88,211.16,780.33,211.16Z"/><path class="cls-1" d="M760.57,196.75a.8.8,0,0,0,.25,0l39.46-12.59a.81.81,0,1,0-.49-1.54l-39.46,12.59a.81.81,0,0,0,.25,1.58Z"/><path class="cls-1" d="M800,196.75a.81.81,0,0,0,.25-1.58l-39.46-12.59a.81.81,0,1,0-.49,1.54l39.46,12.59A.8.8,0,0,0,800,196.75Z"/><path class="cls-1" d="M792.61,207.11a.81.81,0,0,0,.65-1.29l-24.62-33.3a.81.81,0,0,0-1.3,1L792,206.78A.81.81,0,0,0,792.61,207.11Z"/><path class="cls-1" d="M768,207.11a.81.81,0,0,0,.65-.33l24.62-33.3a.81.81,0,0,0-1.3-1l-24.62,33.3a.81.81,0,0,0,.65,1.29Z"/><circle class="cls-4" cx="780.3" cy="189.6" r="5.3"/><path class="cls-4" d="M1022.47,156.19a11.19,11.19,0,0,1,4.72,11.44s-9.91-.79-22.62-7.08l-9.09-4.36,5.93-5.69,16.46,4.36Z"/><path class="cls-4" d="M1034.56,202.48H1013.4s4.84-34-26-36.56-29.89,34-29.89,34H814.07s3.63-40.45-33.77-40.45a32.65,32.65,0,0,0-29.41,18.15s-3.27,5.28-3.27,19.06c0,0-9.92-.11-12.22-8L737.58,159l1.57-2.9.24-3.63s-1.33-4.48,6.41-14.76l8.35-11.25s14-11,21.78-24.81c0,0-1-1.45,3.87-1.69a87.73,87.73,0,0,0,13.31-1.33C799.67,97.49,826.9,96.16,846,96s33.28,1.45,56.16,6.54,51.68,18.64,51.68,18.64,16.58,8,26.38,13.92,21.91,10.65,30,13.31,12.59,6.54,12.22,7.75-5.69,1.57-11.56-.61-11.56-3.63-10.59-1.09,4.24,6.05,4.24,6.05a69.68,69.68,0,0,0,22.74,7.08s7.26,7.2,7.26,14.71Z"/><path class="cls-4" d="M952.42,142.51s4.7,28,0,51H820.72s2.53-39.77-35.12-39.77c0,0-9.25-20.82,3.17-27.92"/><line class="cls-4" x1="881.26" y1="193.53" x2="881.26" y2="137.32"/><path class="cls-4" d="M775.94,101.6l.73,4.48s-4.24,9.8-20.94,21.78l-1.57-1.45S768.44,115,775.94,101.6Z"/><path class="cls-4" d="M739.39,152.43s22.63-7.87,25.42-13.07-10.65-12.95-10.65-12.95l-10.31,14S738.91,146.87,739.39,152.43Z"/><path class="cls-4" d="M752,129.35s4.5,5.69,2.16,9.65-14.27,9.2-14.27,9.2a36.85,36.85,0,0,1,5.18-9.42Z"/><path class="cls-4" d="M748.1,134.64a18.8,18.8,0,0,1,.24,9.17s5.84-3,6.35-6.19-.91-5.66-2.7-8.27Z"/><line class="cls-4" x1="905.56" y1="147.23" x2="888.38" y2="146.38"/><line class="cls-4" x1="809.43" y1="138.64" x2="792.25" y2="137.8"/><rect class="cls-4" x="872.58" y="102.36" width="4.36" height="33.28" transform="translate(-5.32 49.55) rotate(-3.23)"/><rect class="cls-4" x="804.86" y="108.11" width="4.36" height="17.99" transform="translate(-5.32 45.72) rotate(-3.23)"/><rect class="cls-4" x="944.44" y="123.27" width="4.36" height="17.99" transform="translate(-5.96 53.62) rotate(-3.23)"/><path class="cls-4" d="M848,104.1h-.49c5.3,0,10.74.22,16.19.7,37.88,3.36,54.17,10,69.92,16.37l5,2a175.92,175.92,0,0,1,30.71,16.17c-15.59-.84-61.06-3.46-93.15-7.11-33.78-3.85-73.52-8.8-84.18-10.13l-2-6a83.68,83.68,0,0,1,17.64-6.89,147.28,147.28,0,0,1,39.8-5.11m0-4.42c-33.27,0-55.13,9.31-62.65,14.46l3.87,11.94s47.28,6,87,10.49S974.67,144,974.67,144s3.07-.32,3.07-2.9-20-15-37.44-21.95-33.56-14.93-76.17-18.72c-5.8-.52-11.33-.75-16.58-.75Z"/><path class="cls-4" d="M1113.75,83.81H1262c22.89,0,39.09,46.17,51.75,46.17h32.11c16.78,0,31.18,14.34,31.18,31.12v19.75c0,5.87-5.56,9.81-11.44,9.81H1073.34c-5.87,0-10.26-3.94-10.26-9.81V135.28C1063.09,110.06,1095.76,83.81,1113.75,83.81Z"/><path class="cls-4" d="M1063,152.41s9.33-.17,9.33,7.07v4.06c0,4.64-5.86,6-9.33,6h.1V152.41Z"/><path class="cls-4" d="M1365.19,151.38V139.23a10.93,10.93,0,0,1,.09-2.22,30.18,30.18,0,0,1,11.79,24.09v1.09a3.9,3.9,0,0,1-1.07.12A10.82,10.82,0,0,1,1365.19,151.38Z"/><path class="cls-4" d="M1365.63,190.67H1073.34c-5.87,0-10.26-3.94-10.26-9.81v-4.7h314v4.7C1377.06,186.73,1371.5,190.67,1365.63,190.67Z"/><path class="cls-4" d="M1356,190.67c0-19.79-13.81-30.86-30.86-30.86s-30.86,11.07-30.86,30.86Z"/><circle class="cls-4" cx="1325.32" cy="193.03" r="24.17"/><circle class="cls-4" cx="1325.32" cy="193.03" r="16.25"/><path class="cls-4" d="M1154.24,190.67c0-19.79-13.82-30.86-30.86-30.86s-30.86,11.07-30.86,30.86Z"/><circle class="cls-4" cx="1123.57" cy="193.03" r="24.17"/><circle class="cls-4" cx="1123.57" cy="193.03" r="16.25"/><path class="cls-4" d="M1221,146.47c0,1.44,1.09,3.3,2.43,3.3h17.09c1.34,0,2.43-1.85,2.43-3.3h0c0-1.44-1.09-3.3-2.43-3.3h-17.09c-1.34,0-2.43,1.85-2.43,3.3Z"/><rect class="cls-4" x="1147.52" y="143.17" width="22.43" height="5.28" rx="2.43" ry="2.43"/><path class="cls-4" d="M1294,126c0-2.79-2.78-5-5.58-5l-19.4-.12c-2.8,0-4,2.19-4,5v6.94c0,2.79,1.06,4.47,3.85,4.47l19.92.12c2.8,0,5.25-1.68,5.25-4.47Z"/><line class="cls-4" x1="1144.58" y1="130.52" x2="1127.68" y2="159.57"/><line class="cls-4" x1="1214.8" y1="132.62" x2="1214.8" y2="176.15"/><line class="cls-4" x1="1202.93" y1="132.62" x2="1229.31" y2="132.62"/><circle class="cls-4" cx="1123.57" cy="193.03" r="11.14"/><circle class="cls-4" cx="1123.57" cy="193.03" r="7.47"/><circle class="cls-4" cx="1325.12" cy="193.03" r="11.14"/><circle class="cls-4" cx="1325.12" cy="193.03" r="7.47"/><circle class="cls-4" cx="1123.57" cy="193.03" r="3.03"/><circle class="cls-4" cx="1325.12" cy="193.03" r="3.03"/><rect class="cls-4" x="1143.56" y="90.4" width="65.96" height="40.9" rx="7.29" ry="7.29"/><path class="cls-4" d="M1212.16,125.85a9.41,9.41,0,0,1-9.41,9.41h-51.1a9.41,9.41,0,0,1-9.41-9.41V98.49a9.41,9.41,0,0,1,9.41-9.41h51.1a9.41,9.41,0,0,1,9.41,9.41Zm-4-27.63A5.17,5.17,0,0,0,1203,93h-51.65a5.17,5.17,0,0,0-5.17,5.17v26.59a5.17,5.17,0,0,0,5.17,5.17H1203a5.17,5.17,0,0,0,5.17-5.17Z"/><path class="cls-4" d="M1072.43,124.88c-.9,3.93,3.26,7.74,7.29,7.74h48.61c4,0,7.31-2.73,7.31-6.76V99.12c0-4-3.28-8.72-7.31-8.72h-19.44C1093.7,90.4,1075,113.56,1072.43,124.88Z"/><path class="cls-4" d="M1128.34,133.94h-48.61a10,10,0,0,1-7.85-3.47,6.91,6.91,0,0,1-1.5-6h0c1.42-6.2,6.93-14.79,14-22.11,4.87-5,14.52-13.25,24.48-13.25h19.44c5.37,0,9.95,5,9.95,10v26.74C1138.28,131.07,1133.55,133.94,1128.34,133.94ZM1108.89,93c-6.13,0-13.95,4.47-21.44,12.17-6.51,6.7-11.72,14.86-13,20.27h0a2.75,2.75,0,0,0,.69,2.46,6,6,0,0,0,4.54,2h48.61c2.84,0,4.67-1.28,4.67-4.12V99.12c0-2.94-1.95-6.08-4.67-6.08Z"/><path class="cls-4" d="M1222.71,125.86c0,4,1.25,6.76,5.28,6.76h55.9a7.44,7.44,0,0,0,7.29-7.74c0-12.31-18.63-34.48-31.6-34.48H1228c-4,0-5.28,4.69-5.28,8.72Z"/><path class="cls-4" d="M1283.9,133.94H1228c-5.16,0-7.92-2.87-7.92-8.08V99.12c0-5,2.41-10,7.92-10h31.6c14.22,0,33.71,22.71,33.71,35.8C1293.31,130.24,1289.26,133.94,1283.9,133.94ZM1228,93c-2.66,0-4,3.14-4,6.08v26.74c0,2.88,1.14,4.12,4,4.12h55.9a4.9,4.9,0,0,0,5.17-5.1c0-11-17.62-31.84-29.48-31.84Z"/><path class="cls-4" d="M431.25,83.81H579.52c22.89,0,39.09,46.17,51.75,46.17h32.11c16.78,0,31.18,14.34,31.18,31.12v19.75c0,5.87-5.56,9.81-11.44,9.81H390.84c-5.87,0-10.26-3.94-10.26-9.81V135.28C380.59,110.06,413.26,83.81,431.25,83.81Z"/><path class="cls-4" d="M380.49,152.41s9.33-.17,9.33,7.07v4.06c0,4.64-5.86,6-9.33,6h.1V152.41Z"/><path class="cls-4" d="M682.69,151.38V139.23a10.93,10.93,0,0,1,.09-2.22,30.18,30.18,0,0,1,11.79,24.09v1.09a3.9,3.9,0,0,1-1.07.12A10.82,10.82,0,0,1,682.69,151.38Z"/><path class="cls-4" d="M683.13,190.67H390.84c-5.87,0-10.26-3.94-10.26-9.81v-4.7h314v4.7C694.56,186.73,689,190.67,683.13,190.67Z"/><path class="cls-4" d="M673.48,190.67c0-19.79-13.81-30.86-30.86-30.86s-30.86,11.07-30.86,30.86Z"/><circle class="cls-4" cx="642.82" cy="193.03" r="24.17"/><circle class="cls-4" cx="642.82" cy="193.03" r="16.25"/><path class="cls-4" d="M471.74,190.67c0-19.79-13.82-30.86-30.86-30.86S410,170.88,410,190.67Z"/><circle class="cls-4" cx="441.07" cy="193.03" r="24.17"/><circle class="cls-4" cx="441.07" cy="193.03" r="16.25"/><path class="cls-4" d="M538.53,146.47c0,1.44,1.09,3.3,2.43,3.3h17.09c1.34,0,2.43-1.85,2.43-3.3h0c0-1.44-1.09-3.3-2.43-3.3H541c-1.34,0-2.43,1.85-2.43,3.3Z"/><rect class="cls-4" x="465.02" y="143.17" width="22.43" height="5.28" rx="2.43" ry="2.43"/><path class="cls-4" d="M611.45,126c0-2.79-2.78-5-5.58-5l-19.4-.12c-2.8,0-4,2.19-4,5v6.94c0,2.79,1.06,4.47,3.85,4.47l19.92.12c2.8,0,5.25-1.68,5.25-4.47Z"/><line class="cls-4" x1="462.08" y1="130.52" x2="445.18" y2="159.57"/><line class="cls-4" x1="532.3" y1="132.62" x2="532.3" y2="176.15"/><line class="cls-4" x1="520.43" y1="132.62" x2="546.81" y2="132.62"/><circle class="cls-4" cx="441.07" cy="193.03" r="11.14"/><circle class="cls-4" cx="441.07" cy="193.03" r="7.47"/><circle class="cls-4" cx="642.62" cy="193.03" r="11.14"/><circle class="cls-4" cx="642.62" cy="193.03" r="7.47"/><circle class="cls-4" cx="441.07" cy="193.03" r="3.03"/><circle class="cls-4" cx="642.62" cy="193.03" r="3.03"/><rect class="cls-4" x="461.06" y="90.4" width="65.96" height="40.9" rx="7.29" ry="7.29"/><path class="cls-4" d="M529.66,125.85a9.41,9.41,0,0,1-9.41,9.41h-51.1a9.41,9.41,0,0,1-9.41-9.41V98.49a9.41,9.41,0,0,1,9.41-9.41h51.1a9.41,9.41,0,0,1,9.41,9.41Zm-4-27.63A5.17,5.17,0,0,0,520.53,93H468.87a5.17,5.17,0,0,0-5.17,5.17v26.59a5.17,5.17,0,0,0,5.17,5.17h51.65a5.17,5.17,0,0,0,5.17-5.17Z"/><path class="cls-4" d="M389.93,124.88c-.9,3.93,3.26,7.74,7.29,7.74h48.61c4,0,7.31-2.73,7.31-6.76V99.12c0-4-3.28-8.72-7.31-8.72H426.39C411.2,90.4,392.52,113.56,389.93,124.88Z"/><path class="cls-4" d="M445.84,133.94H397.23a10,10,0,0,1-7.85-3.47,6.91,6.91,0,0,1-1.5-6h0c1.42-6.2,6.93-14.79,14-22.11,4.87-5,14.52-13.25,24.48-13.25h19.44c5.37,0,9.95,5,9.95,10v26.74C455.78,131.07,451.05,133.94,445.84,133.94ZM426.39,93c-6.13,0-13.95,4.47-21.44,12.17-6.51,6.7-11.72,14.86-13,20.27h0a2.75,2.75,0,0,0,.69,2.46,6,6,0,0,0,4.54,2h48.61c2.84,0,4.67-1.28,4.67-4.12V99.12c0-2.94-1.95-6.08-4.67-6.08Z"/><path class="cls-5" d="M540.21,125.86c0,4,1.25,6.76,5.28,6.76h55.9a7.44,7.44,0,0,0,7.29-7.74c0-12.31-18.63-34.48-31.6-34.48h-31.6c-4,0-5.28,4.69-5.28,8.72Z"/><path class="cls-1" d="M601.4,133.94h-55.9c-5.16,0-7.92-2.87-7.92-8.08V99.12c0-5,2.41-10,7.92-10h31.6c14.22,0,33.71,22.71,33.71,35.8C610.81,130.24,606.76,133.94,601.4,133.94Z"/><g class="cls-6"><path class="cls-1" d="M568.16,239.2a1.9,1.9,0,0,1-.83-.19,8.87,8.87,0,0,0-3.74-.93,5.74,5.74,0,0,0-.75,0l-.19,0a5.8,5.8,0,0,1-.83.08,2.35,2.35,0,0,1-1.38-.4,2.53,2.53,0,0,1-1-1.74,7.88,7.88,0,0,1,0-1.79c0-.22,0-.44,0-.66l.1-2.38,1.29-32.46L558,171.14a7.27,7.27,0,0,1,0-1.08,6.75,6.75,0,0,1,6.74-6.36h.39a6.75,6.75,0,0,1,6.35,7.13l-1.6,27.85V199l-4.45,34.37a13.63,13.63,0,0,1,2.61,1.36l.19.13c.72.47,2.42,1.58,1.64,3.21A1.92,1.92,0,0,1,568.16,239.2Z"/><path class="cls-7" d="M564.75,164.7h.34a5.75,5.75,0,0,1,5.41,6.07l-1.6,27.85V199l-4.54,35.06a13.5,13.5,0,0,1,3.15,1.53c.62.42,1.94,1.14,1.49,2.07a.91.91,0,0,1-1.22.43,9.86,9.86,0,0,0-4.17-1,6.8,6.8,0,0,0-.88.06,7,7,0,0,1-.89.1A1.38,1.38,0,0,1,561,237a1.54,1.54,0,0,1-.59-1.06,12.93,12.93,0,0,1,.07-2.27c0-.79.07-1.58.1-2.38l.23-5.73.28-7,.29-7.26.26-6.47.18-4.64.06-1.42v0L559,171a6.22,6.22,0,0,1,0-.92,5.75,5.75,0,0,1,5.74-5.42m0-2A7.76,7.76,0,0,0,557,170a8.11,8.11,0,0,0,0,1.22l2.83,27.6-.05,1.28v.13l-.18,4.51-.25,6.29v.18l-.15,3.76-.14,3.5-.28,7-.23,5.73q0,.57,0,1.14t-.05,1.24c0,.2,0,.4,0,.61a8.66,8.66,0,0,0,0,2,3.53,3.53,0,0,0,1.44,2.42,3.36,3.36,0,0,0,1.94.58,6.53,6.53,0,0,0,1-.09l.18,0a4.75,4.75,0,0,1,.62,0,7.85,7.85,0,0,1,3.3.83,2.91,2.91,0,0,0,3.89-1.36c.77-1.6.1-3.11-2-4.48l-.18-.12a14.09,14.09,0,0,0-2.08-1.16l4.34-33.53c0-.06,0-.13,0-.19v-.35l1.6-27.83a7.75,7.75,0,0,0-7.29-8.18Z"/><path class="cls-1" d="M578.22,150.48a3.56,3.56,0,0,1-2.84-1.39l-16-20.7a6.13,6.13,0,0,1-.43-.64,5.6,5.6,0,0,1,9.69-5.63l5.26,6.73,1.68-11.42a1,1,0,0,1,.57-.76l.13-.06a1.72,1.72,0,0,1,.66-.16l4.24-.09a1.73,1.73,0,0,1,.3,3.43l-2.86.45,2,28.75a1,1,0,0,1-.45.91,3.59,3.59,0,0,1-2,.58Z"/><path class="cls-7" d="M581.23,117.31a.75.75,0,0,1,.72.64.74.74,0,0,1-.61.85l-3.77.6v-.06l-.4.13.41-.06,2.06,29.66a2.6,2.6,0,0,1-3.47-.58l-.24-.31-15.74-20.38a5.1,5.1,0,0,1-.35-.53,4.6,4.6,0,1,1,8-4.57l6.74,8.62,2-13.73.13-.06a.71.71,0,0,1,.27-.09l4.23-.12h-.15m.16-2v0h-.06l-4.22.12a2.68,2.68,0,0,0-1.06.26l-.14.07a2,2,0,0,0-1.13,1.52l-1.34,9.11-3.78-4.84a6.6,6.6,0,0,0-11.38,6.69,7.11,7.11,0,0,0,.5.75l15.75,20.39.24.31a4.6,4.6,0,0,0,6.14,1,2,2,0,0,0,.9-1.81l-1.94-27.83,2-.31a2.74,2.74,0,0,0-.42-5.45Z"/><polyline class="cls-8" points="570.71 125.51 576.62 131.22 568.49 138.1"/><path class="cls-1" d="M560,177.93c-7.23,0-11.73-4-11.73-10.35,0-5.18,3.41-38.24,8.23-48.29.12-.26.66-1.95,1.08-3.36a1,1,0,0,1,1-.71h3.14a1,1,0,0,1,1,1.12,11.66,11.66,0,0,0,0,3.08h.14a1.08,1.08,0,0,1,1,.65c4.72,11,7.88,42.52,7.88,47.53C571.71,174,567.22,177.93,560,177.93Z"/><path class="cls-7" d="M561.67,116.21h0m0,0s-.35,2.91.22,4a.46.46,0,0,0,.45.21c.17,0,.35,0,.46,0s.1,0,.11,0c4.5,10.53,7.8,41.72,7.8,47.13,0,6.53-4.8,9.35-10.73,9.35s-10.73-2.82-10.73-9.35c0-5.54,3.46-38.12,8.13-47.86.21-.43,1.14-3.51,1.14-3.51h3.14m0-2h-3.15a2,2,0,0,0-1.91,1.42c-.4,1.33-.92,3-1,3.26-4.86,10.13-8.31,43.47-8.31,48.69,0,7,4.88,11.35,12.73,11.35s12.73-4.35,12.73-11.35c0-5-3.2-36.78-8-47.92a2,2,0,0,0-1.18-1.12,14.22,14.22,0,0,1,.08-2,2,2,0,0,0,0-.33,2,2,0,0,0-2-2Zm0,4h0Z"/><path class="cls-1" d="M561.07,115.51a4.55,4.55,0,0,1-1.3-.19c-4.66-1.4-5.65-10-4.41-14.15a8.28,8.28,0,0,1,10.32-5.55,8.29,8.29,0,0,1,5.55,10.32c-1.16,3.85-5.94,9.56-10.17,9.56Z"/><path class="cls-7" d="M563.3,96.27a7.29,7.29,0,0,1,7,9.39c-1.06,3.53-5.51,8.85-9.21,8.85a3.51,3.51,0,0,1-1-.15c-3.86-1.16-4.89-9-3.73-12.9a7.29,7.29,0,0,1,7-5.19m0-2a9.35,9.35,0,0,0-8.89,6.62c-1.31,4.37-.36,13.76,5.07,15.39a5.53,5.53,0,0,0,1.59.23c4.83,0,9.9-6.19,11.13-10.28a9.29,9.29,0,0,0-8.9-12Z"/><path class="cls-1" d="M558.9,239.18a4.48,4.48,0,0,1-1.77-.51,4.62,4.62,0,0,0-.48-.2,8.06,8.06,0,0,0-2.35-.38,6.27,6.27,0,0,0-.73,0,7.35,7.35,0,0,1-.84.06,2.35,2.35,0,0,1-2.6-2.09,6.57,6.57,0,0,1,0-1.63c0-.18,0-.36,0-.53,0-.45,0-.9.05-1.35l1.34-33.79-2.83-27.66a7.27,7.27,0,0,1,0-1.08,6.75,6.75,0,0,1,6.74-6.36h.39a6.75,6.75,0,0,1,6.35,7.13l-1.6,27.85V199s0,.07,0,.1l-4.7,34.15a14.92,14.92,0,0,1,4.25,2.56,1.92,1.92,0,0,1,.45,2.26A1.81,1.81,0,0,1,558.9,239.18Z"/><path class="cls-7" d="M555.46,164.7h.34a5.75,5.75,0,0,1,5.41,6.07l-1.6,27.85V199l-4.81,34.92a15.26,15.26,0,0,1,4.68,2.67.91.91,0,0,1,.21,1.08.8.8,0,0,1-.78.5,7.5,7.5,0,0,1-2-.66,9.06,9.06,0,0,0-2.65-.42,7.21,7.21,0,0,0-.85,0,6.27,6.27,0,0,1-.72.05c-.79,0-1.46-.24-1.62-1.25a9.85,9.85,0,0,1,.07-2c0-.69.05-1.39.08-2.08l.22-5.63.28-7.08.29-7.43.27-6.68.19-4.82.06-1.49v0L549.74,171a6.22,6.22,0,0,1,0-.92,5.75,5.75,0,0,1,5.74-5.42m0-2a7.76,7.76,0,0,0-7.73,7.31,8.11,8.11,0,0,0,0,1.22l2.83,27.6,0,.6,0,.75-.1,2.41-.1,2.41-.13,3.27-.14,3.41-.29,7.43-.28,7.08-.12,2.91-.11,2.71,0,.7c0,.45,0,.9-.06,1.35,0,.16,0,.33,0,.49a7.48,7.48,0,0,0,0,1.87,3.35,3.35,0,0,0,3.59,2.94,8.15,8.15,0,0,0,1-.06,5.21,5.21,0,0,1,.61,0,7.07,7.07,0,0,1,2.06.33l.36.15a5.36,5.36,0,0,0,2.18.6,2.81,2.81,0,0,0,2.58-1.63,2.93,2.93,0,0,0-.68-3.44,15.2,15.2,0,0,0-3.83-2.42l4.6-33.4c0-.07,0-.14,0-.21v-.35l1.6-27.83a7.75,7.75,0,0,0-7.29-8.18Z"/><polyline class="cls-8" points="564.15 176.5 562.97 197.75 557.68 229.94 547.59 231.66 549.26 198.72 545.83 168.31 548.92 159.65 571.71 160.94 576.62 196.82 567.52 230.28 557.68 229.94 565.47 197.37 563.28 183.71"/><path class="cls-1" d="M563.36,166.77a1.74,1.74,0,0,1-1.48-.83l-2-3.23L537.59,146a3.64,3.64,0,0,1-.72-5.09l15.17-20a6.12,6.12,0,0,1,.53-.61,5.6,5.6,0,0,1,7.87,8l-15,14.81,17.42,16.93a1.68,1.68,0,0,1,.37.53l1.69,3.87a1.73,1.73,0,0,1-1.58,2.42Z"/><path class="cls-7" d="M556.51,119.61a4.6,4.6,0,0,1,3.24,7.88L544,143l18.06,17.55.1.09a.67.67,0,0,1,.14.21l1.69,3.88a.73.73,0,0,1-1.29.67L560.68,162l.1.08-.24-.3.14.22-22.49-16.85h0a2.63,2.63,0,0,1-.51-3.68l.23-.31,14.94-19.74a5,5,0,0,1,.44-.5,4.59,4.59,0,0,1,3.23-1.33m0-2a6.56,6.56,0,0,0-4.64,1.91,7.1,7.1,0,0,0-.62.71L536.31,140l-.23.31a4.63,4.63,0,0,0,.9,6.48l22.2,16.63,1.85,3.06a2.73,2.73,0,0,0,4.83-2.5l-1.69-3.87a2.66,2.66,0,0,0-.58-.84l-.1-.1L546.89,143l14.27-14.09a6.6,6.6,0,0,0-4.64-11.3ZM560.69,164h0Z"/><polyline class="cls-8" points="552.99 136.45 544.18 127.84 550.61 122.51"/><path class="cls-8" d="M574.56,116.14c-1.6,1.6-3,3.92-1.74,4.16,1.67.32,5-4.26,4.75-5.11C577.29,114,575.86,114.85,574.56,116.14Z"/><path class="cls-8" d="M573.54,114.73c-1.6,1.6-3,3.92-1.74,4.16,1.67.32,5-4.26,4.75-5.11C576.27,112.63,574.83,113.44,573.54,114.73Z"/><polygon class="cls-8" points="577.26 116.21 579.75 120.32 577.79 122.51 574.97 120.32 577.26 116.21"/></g><path class="cls-4" d="M601.4,133.94h-55.9c-5.16,0-7.92-2.87-7.92-8.08V99.12c0-5,2.41-10,7.92-10h31.6c14.22,0,33.71,22.71,33.71,35.8C610.81,130.24,606.76,133.94,601.4,133.94ZM545.49,93c-2.66,0-4,3.14-4,6.08v26.74c0,2.88,1.14,4.12,4,4.12h55.9a4.9,4.9,0,0,0,5.17-5.1c0-11-17.62-31.84-29.48-31.84Z"/><circle class="cls-4" cx="79.53" cy="184.23" r="22.19"/><circle class="cls-4" cx="79.53" cy="184.23" r="13.07"/><path class="cls-9" d="M79.55,205.79c.45,0,1.28-.36,1.28-.81V163.57c0-.45-.83-.81-1.28-.81s-1.28.36-1.28.81V205C78.27,205.43,79.1,205.79,79.55,205.79Z"/><path class="cls-9" d="M59.8,191.38a.8.8,0,0,0,.25,0L99.5,178.75a.81.81,0,1,0-.49-1.54L59.55,189.8a.81.81,0,0,0,.25,1.58Z"/><path class="cls-9" d="M99.26,191.38a.81.81,0,0,0,.25-1.58L60,177.21a.81.81,0,1,0-.49,1.54L99,191.34A.8.8,0,0,0,99.26,191.38Z"/><path class="cls-9" d="M91.84,201.74a.81.81,0,0,0,.65-1.29l-24.62-33.3a.81.81,0,0,0-1.3,1l24.62,33.3A.81.81,0,0,0,91.84,201.74Z"/><path class="cls-9" d="M67.21,201.74a.81.81,0,0,0,.65-.33l24.62-33.3a.81.81,0,0,0-1.3-1l-24.62,33.3a.81.81,0,0,0,.65,1.29Z"/><circle class="cls-4" cx="79.53" cy="184.23" r="5.3"/></g></g></svg>