<svg xmlns="http://www.w3.org/2000/svg" viewBox="0 0 62.79 64.42"><defs><style>.cls-1,.cls-2{fill:#767676;}.cls-1{stroke:#fff;stroke-miterlimit:10;stroke-width:2px;}</style></defs><title>mag-left</title><g id="Layer_2" data-name="Layer 2"><g id="texts"><path class="cls-1" d="M2.48,62a5,5,0,0,0,7.11,0L24.44,47.09A24.51,24.51,0,0,0,37,50.54,24.79,24.79,0,1,0,17,40.33L2.48,54.84A5,5,0,0,0,2.48,62ZM21.41,36a18.5,18.5,0,0,1-3.07-10.23A18.75,18.75,0,1,1,21.41,36Z"/><polyline class="cls-1" points="28.5 32.09 33.5 24.59 38.5 32.09 46 17.09"/><circle class="cls-2" cx="28.5" cy="32.09" r="2.5"/><circle class="cls-2" cx="46" cy="17.09" r="2.5"/></g></g></svg>