<svg xmlns="http://www.w3.org/2000/svg" xmlns:xlink="http://www.w3.org/1999/xlink" viewBox="0 0 405.4 253.38"><defs><style>.cls-1,.cls-4,.cls-5,.cls-6,.cls-7{fill:#fff;}.cls-2{fill:none;stroke:#fff;}.cls-2,.cls-7{stroke-miterlimit:10;}.cls-3{fill:#0080b1;}.cls-4,.cls-5,.cls-7{stroke:#0080b1;stroke-width:2px;}.cls-4,.cls-5{stroke-linejoin:round;}.cls-5{stroke-linecap:round;}.cls-6{font-size:40px;font-family:MuseoSans-900, MuseoSans 900;}</style><symbol id="megafono_2" data-name="megafono 2" viewBox="0 0 167.01 109.64"><path class="cls-1" d="M154.69,74.34a1,1,0,0,1-.56-.17L135.49,61.41a1,1,0,0,1-.26-1.39,35.78,35.78,0,0,0,2.68-4.62,1,1,0,0,1,1.34-.47l20.33,9.82a1,1,0,0,1,.47,1.34,60.38,60.38,0,0,1-4.53,7.82,1,1,0,0,1-.64.42Zm-12.42-30.7a1,1,0,0,1-.92-1.07c.06-.88.1-1.78.1-2.67s0-1.81-.1-2.71a1,1,0,0,1,.92-1.07l22.59-1.68a1,1,0,0,1,1,.93c.11,1.5.17,3,.17,4.53s-.06,3-.16,4.47a1,1,0,0,1-1,.93Zm-3.47-18.71a1,1,0,0,1-.9-.56,35.79,35.79,0,0,0-2.69-4.62,1,1,0,0,1,.26-1.39L154.09,5.58a1,1,0,0,1,.57-.18l.18,0a1,1,0,0,1,.64.42A60.49,60.49,0,0,1,160,13.65a1,1,0,0,1-.46,1.34l-20.32,9.85A1,1,0,0,1,138.79,24.93Z"/><path class="cls-2" d="M154.69,73.34,136.05,60.59a36.79,36.79,0,0,0,2.76-4.75l20.33,9.82A59.37,59.37,0,0,1,154.69,73.34Zm10.17-29-22.52-1.65c.07-.91.1-1.83.1-2.74s0-1.86-.1-2.78l22.52-1.68c.11,1.48.17,3,.17,4.46S165,42.84,164.85,44.3ZM138.79,23.93A36.79,36.79,0,0,0,136,19.18L154.65,6.41a59.48,59.48,0,0,1,4.46,7.68Z"/><path class="cls-3" d="M154.65,6.41a59.47,59.47,0,0,1,4.46,7.68l-20.32,9.85A36.8,36.8,0,0,0,136,19.18L154.65,6.41m10.2,29c.11,1.48.17,3,.17,4.46s-.05,2.94-.16,4.4l-22.52-1.65c.07-.91.1-1.83.1-2.74s0-1.86-.1-2.78l22.52-1.68m-26,20.39,20.33,9.82a59.34,59.34,0,0,1-4.45,7.69L136.05,60.59a36.86,36.86,0,0,0,2.76-4.75M154.65,4.41a2,2,0,0,0-1.13.35L134.9,17.53a2,2,0,0,0-.52,2.78A34.81,34.81,0,0,1,137,24.8a2,2,0,0,0,2.67.93L160,15.89a2,2,0,0,0,.93-2.67,61.43,61.43,0,0,0-4.61-7.94A2,2,0,0,0,155,4.44a2,2,0,0,0-.37,0Zm10.2,29h-.15l-22.52,1.68a2,2,0,0,0-1.85,2.14c.06.87.1,1.76.1,2.63s0,1.74-.09,2.6a2,2,0,0,0,1.85,2.14l22.52,1.65h.15a2,2,0,0,0,2-1.85c.11-1.5.17-3,.17-4.54s-.06-3.08-.17-4.61a2,2,0,0,0-2-1.85Zm-26,20.39A2,2,0,0,0,137,55a34.81,34.81,0,0,1-2.61,4.5,2,2,0,0,0,.52,2.78L153.56,75a2,2,0,0,0,2.78-.52,61.35,61.35,0,0,0,4.6-7.95,2,2,0,0,0-.93-2.67L139.68,54a2,2,0,0,0-.87-.2Z"/><path class="cls-1" d="M30,108.64a4,4,0,0,1-4-4V80.12a1.48,1.48,0,0,0-1.47-1.48A3.49,3.49,0,0,1,21,75.17V62.62a3.48,3.48,0,0,1,3.47-3.47H44a4,4,0,0,1,4,4v41.5a4,4,0,0,1-4,4Z"/><path class="cls-3" d="M44,60.14a3,3,0,0,1,3,3v41.5a3,3,0,0,1-3,3H30a3,3,0,0,1-3-3V80.12a2.47,2.47,0,0,0-2.47-2.48h-.05A2.48,2.48,0,0,1,22,75.17V62.62a2.48,2.48,0,0,1,2.48-2.48H44m0-2H24.48A4.48,4.48,0,0,0,20,62.62V75.17a4.48,4.48,0,0,0,4.48,4.48h.05a.48.48,0,0,1,.47.48v24.52a5,5,0,0,0,5,5H44a5,5,0,0,0,5-5V63.14a5,5,0,0,0-5-5Z"/><path class="cls-1" d="M117,81.79a6,6,0,0,1-1.84-.29L51.69,61.1a1,1,0,0,1-.69-1V22.64a1,1,0,0,1,.69-1l63.47-20.4A6,6,0,0,1,123,7V75.79A6,6,0,0,1,117,81.79Z"/><path class="cls-3" d="M117,2a5,5,0,0,1,5,5V75.79a5,5,0,0,1-6.53,4.76L52,60.14V22.64l63.47-20.4A5,5,0,0,1,117,2m0-2h0a7,7,0,0,0-2.15.34L51.39,20.74A2,2,0,0,0,50,22.64v37.5A2,2,0,0,0,51.39,62l63.47,20.4A7,7,0,0,0,124,75.79V7a7,7,0,0,0-7-7Z"/><path class="cls-1" d="M22,61.14a6,6,0,0,1-6-6V27.64a6,6,0,0,1,6-6H52a1,1,0,0,1,1,1v37.5a1,1,0,0,1-1,1Z"/><path class="cls-3" d="M52,22.64v37.5H22a5,5,0,0,1-5-5V27.64a5,5,0,0,1,5-5H52m0-2H22a7,7,0,0,0-7,7v27.5a7,7,0,0,0,7,7H52a2,2,0,0,0,2-2V22.64a2,2,0,0,0-2-2Z"/><path class="cls-1" d="M12,53.64a11,11,0,0,1-11-11v-2.5a11,11,0,0,1,11-11h5a1,1,0,0,1,1,1v22.5a1,1,0,0,1-1,1Z"/><path class="cls-3" d="M17,30.14v22.5H12a10,10,0,0,1-10-10v-2.5a10,10,0,0,1,10-10h5m0-2H12a12,12,0,0,0-12,12v2.5a12,12,0,0,0,12,12h5a2,2,0,0,0,2-2V30.14a2,2,0,0,0-2-2Z"/><line class="cls-4" x1="102" y1="77.64" x2="102" y2="5.14"/><line class="cls-4" x1="109.5" y1="2.64" x2="109.5" y2="80.14"/></symbol></defs><title>or-noise</title><g id="Layer_2" data-name="Layer 2"><g id="texts"><path class="cls-1" d="M366.83,248.48a1.92,1.92,0,0,1-1.87-1.25,2,2,0,0,1,.64-2.36,16.86,16.86,0,0,1,5-2.55L368,203.46s0-.07,0-.1l0-.43.37-31.41a7.48,7.48,0,1,1,15,.18,8.06,8.06,0,0,1-.11,1.18l-5.35,30.89-1.14,38.08c0,.51,0,1,0,1.54,0,.2,0,.4,0,.61a7.3,7.3,0,0,1-.11,1.8,2.48,2.48,0,0,1-2.63,2.06,6.87,6.87,0,0,1-1.26-.14,7.44,7.44,0,0,0-1.37-.12,9.61,9.61,0,0,0-2.17.26,5.26,5.26,0,0,0-.56.19A5.46,5.46,0,0,1,366.83,248.48Z"/><path class="cls-3" d="M375.68,165.27H376a6.4,6.4,0,0,1,6.4,6.49,6.59,6.59,0,0,1-.09,1l-5.36,30.94c0-.14,0-.28,0-.42l0,.42v0l0,1.68q-.08,2.72-.16,5.43-.11,3.77-.22,7.53-.12,4.19-.25,8.38l-.24,8L375.8,241c0,.78-.06,1.57-.07,2.35a11.05,11.05,0,0,1-.08,2.21,1.5,1.5,0,0,1-1.65,1.28,5.89,5.89,0,0,1-1.07-.12,8.39,8.39,0,0,0-1.56-.14,10.61,10.61,0,0,0-2.4.29,10.08,10.08,0,0,1-2.15.59.92.92,0,0,1-.94-.62,1,1,0,0,1,.33-1.19,17.19,17.19,0,0,1,5.47-2.64L369,203.4l0-.43.37-31.37a6.42,6.42,0,0,1,6.48-6.33m0-2h0a8.45,8.45,0,0,0-8.48,8.31L367,203l0,.39a1.84,1.84,0,0,0,0,.2l2.57,38.1a17.07,17.07,0,0,0-4.6,2.45,3,3,0,0,0-1,3.52,2.92,2.92,0,0,0,2.8,1.88A6.23,6.23,0,0,0,369,249l.45-.15a8.62,8.62,0,0,1,1.94-.24,6.41,6.41,0,0,1,1.19.11,7.82,7.82,0,0,0,1.44.16,3.49,3.49,0,0,0,3.6-2.85,8.11,8.11,0,0,0,.13-2c0-.19,0-.38,0-.56,0-.49,0-1,0-1.48l0-.84.19-6.34.12-4,.12-4,.24-8.14v-.24l.22-7.53.16-5.43,0-1,0-.51,5.34-30.82a8.08,8.08,0,0,0,.12-1.27,8.4,8.4,0,0,0-8.38-8.51Z"/><path class="cls-1" d="M352.33,177.91a1.83,1.83,0,0,1-.26-3.65l4.86-.7,14.82-26.76-3.69-26.71a6.28,6.28,0,0,1,5.46-7,6.37,6.37,0,0,1,.77,0,6.27,6.27,0,0,1,6.22,5.5,6.86,6.86,0,0,1,0,.86l-.49,29.92a4,4,0,0,1-3.26,3.83L358.15,176.6a1,1,0,0,1-1,1.27Z"/><path class="cls-3" d="M374.3,114.05a5.27,5.27,0,0,1,5.23,4.62,5.87,5.87,0,0,1,0,.73l-.48,29.46v.45a3,3,0,0,1-2.79,2.91L356.71,176.8l.48.24-4.85.23h0c-.46,0-.83-.54-.83-1a.93.93,0,0,1,.71-.92l4.8-.74a.87.87,0,0,1,.11,0,.78.78,0,0,1,.2,0l.16,0L372.79,147l-3.73-27a5.27,5.27,0,0,1,4.6-5.87,5.34,5.34,0,0,1,.65,0m0-2a7.37,7.37,0,0,0-.89.05,7.28,7.28,0,0,0-6.34,8.1l3.65,26.41-14.42,26-4.37.63a2.83,2.83,0,0,0,.41,5.64l4.88-.05a2,2,0,0,0,2-1.88s0-.06,0-.08l18.19-22.84a5,5,0,0,0,3.69-4.71v-.45l.48-29.46a7.89,7.89,0,0,0-.05-1,7.27,7.27,0,0,0-7.21-6.38Z"/><path class="cls-1" d="M381.87,178.65a18.77,18.77,0,0,1-4.69-.64c-8.06-2.09-11.77-7.58-9.93-14.69.45-1.72.4-6.8.34-12.68-.14-14.6-.34-34.61,5.42-42.07a1.14,1.14,0,0,1,.85-.41,1.63,1.63,0,0,1,.59.13,12.91,12.91,0,0,0,1-3.58,1,1,0,0,1,1.24-.83l3.49.91a1,1,0,0,1,.75.93c.07,1.75.18,3.75.24,4.07.69,3.5,2.1,9.45,3.74,16.35C390,147.62,394.1,165.75,393,170,391.55,175.58,387.6,178.65,381.87,178.65Z"/><path class="cls-3" d="M376.4,104.86l3.49.91s.15,3.68.26,4.22c2.38,12.15,13.48,53.62,11.88,59.77-1.45,5.57-5.41,7.89-10.16,7.89a17.78,17.78,0,0,1-4.44-.6c-6.58-1.71-11.09-6.22-9.21-13.47,1.56-6-2.44-44,5.59-54.38a.07.07,0,0,1,.06,0,5.91,5.91,0,0,0,.82.22.41.41,0,0,0,.33-.13c1-1.06,1.4-4.4,1.4-4.4m0-2a2,2,0,0,0-2,1.73,15.64,15.64,0,0,1-.58,2.58,2.06,2.06,0,0,0-1.62.8c-6,7.73-5.78,27.94-5.63,42.69.06,5.56.11,10.82-.31,12.41-2,7.6,2.11,13.69,10.65,15.91a19.77,19.77,0,0,0,4.95.67c6.14,0,10.55-3.42,12.1-9.39,1.17-4.49-2.81-22-8.13-44.35-1.63-6.88-3-12.82-3.73-16.31,0-.33-.15-2.3-.22-3.92a2,2,0,0,0-1.5-1.85l-3.49-.91a2,2,0,0,0-.5-.06Z"/><path class="cls-1" d="M377.9,105.05h-.34c-2.44-.17-4.71-2.19-6.4-5.7a19.27,19.27,0,0,1-2-8.85,9.38,9.38,0,0,1,9.33-8.71l.65,0a9.37,9.37,0,0,1,8.69,10c-.32,4.66-4.65,13.27-10,13.27Z"/><path class="cls-3" d="M378.51,82.78l.58,0a8.36,8.36,0,0,1,7.76,8.91c-.31,4.52-4.46,12.34-9,12.34h-.27c-4.6-.32-7.76-8.88-7.44-13.48a8.36,8.36,0,0,1,8.33-7.78m0-2a10.39,10.39,0,0,0-10.32,9.64c-.35,5.12,3,15.18,9.3,15.61h.4c6.09,0,10.62-9.32,11-14.2a10.36,10.36,0,0,0-9.62-11l-.72,0Z"/><path class="cls-1" d="M395,252.38a1.9,1.9,0,0,1-1.58-.84,2,2,0,0,1,.07-2.44,16.86,16.86,0,0,1,4.3-3.66l-11.64-37.17,0-.1-.08-.42-7-30.63a7.48,7.48,0,1,1,14.59-3.33,8,8,0,0,1,.17,1.17l2,31.29,7.81,37.31c.1.5.2,1,.31,1.48,0,.19.1.39.15.59a7.3,7.3,0,0,1,.32,1.78c0,2.62-2.49,2.74-3.33,2.78a8.59,8.59,0,0,0-3.41,1,5.27,5.27,0,0,0-.5.32A4.16,4.16,0,0,1,395,252.38Z"/><path class="cls-3" d="M386.33,169a6.48,6.48,0,0,1,6.31,5,7.07,7.07,0,0,1,.15,1l2,31.35-.08-.4.08.42v0l.35,1.65,1.11,5.32,1.54,7.37,1.72,8.21,1.64,7.82,1.3,6.21c.16.77.31,1.54.48,2.3a11.08,11.08,0,0,1,.44,2.16c0,1.49-1.17,1.71-2.38,1.77a9.62,9.62,0,0,0-3.81,1.07c-.58.29-1.49,1.12-2.24,1.12a.9.9,0,0,1-.76-.42,1,1,0,0,1,0-1.24,17.19,17.19,0,0,1,4.71-3.84L387.08,208l-.08-.42-7-30.65a6.49,6.49,0,0,1,6.33-7.93m0-2h0a8.49,8.49,0,0,0-8.28,10.37L385,208l.08.4a2.06,2.06,0,0,0,.05.2L396.58,245a17.09,17.09,0,0,0-3.9,3.46,3,3,0,0,0-.11,3.64,2.88,2.88,0,0,0,2.4,1.27,5,5,0,0,0,2.74-1.08l.4-.25a7.6,7.6,0,0,1,3-.86c3.77-.19,4.3-2.46,4.28-3.79a8.12,8.12,0,0,0-.35-2c0-.18-.1-.37-.14-.55-.11-.49-.21-1-.31-1.48l-.17-.8-.65-3.1-.65-3.11-1.6-7.66,0-.16v-.05l-1.71-8.15-.77-3.69-.77-3.69-1.11-5.32-.32-1.51-2-31.21a9.19,9.19,0,0,0-.19-1.34,8.44,8.44,0,0,0-8.26-6.6Z"/><polygon class="cls-5" points="367.94 155.75 390.19 154.28 394.43 166.95 397.18 192.52 397.18 203.52 383.93 205.27 380.1 189.52 376.86 205.35 365.81 205.35 367.94 155.75"/><path class="cls-1" d="M369.27,179.52a1.83,1.83,0,0,1-.53-3.59l4.7-1.42,10.67-28.68-7.62-25.88a6.28,6.28,0,1,1,12.09-3.38,6.88,6.88,0,0,1,.17.84l4,29.68a4,4,0,0,1-2.65,4.28l-15,26a1,1,0,0,1-.75,1.4l-4.79.77Z"/><path class="cls-3" d="M382.54,113a5.27,5.27,0,0,1,5.08,3.86,5.85,5.85,0,0,1,.15.71l3.91,29.23.06.45a3,3,0,0,1-2.32,3.29l-15.7,27.22h.48l-4.79.77h-.13a.83.83,0,0,1-.24-1.63l4.64-1.4a.78.78,0,0,1,.23,0H374l.17,0,11-29.61-7.72-26.2a5.28,5.28,0,0,1,5.09-6.69m-7.87,64.29h0M382.54,111h0a7.28,7.28,0,0,0-7,9.22l7.54,25.59-10.38,27.9L368.45,175a2.83,2.83,0,0,0,1.27,5.51l4.75-.77a2,2,0,0,0,1.72-2,2.06,2.06,0,0,0,0-.26l14.59-25.29a5,5,0,0,0,2.95-5.21l-.06-.45-3.91-29.23a7.92,7.92,0,0,0-.2-1,7.29,7.29,0,0,0-7-5.32Z"/><path class="cls-1" d="M231.62,249.61a1.93,1.93,0,0,1-1.9-1.29,2,2,0,0,1,.69-2.34,16.85,16.85,0,0,1,5.09-2.45l-1.8-38.9s0-.07,0-.1l0-.43,1-31.4a7.45,7.45,0,0,1,7.47-7.23h.25a7.48,7.48,0,0,1,7.23,7.73,8.05,8.05,0,0,1-.13,1.18l-6,30.77-1.94,38.06c0,.51-.06,1-.08,1.52,0,.2,0,.4,0,.61a7.29,7.29,0,0,1-.15,1.8,2.47,2.47,0,0,1-2.58,2,6.63,6.63,0,0,1-1.34-.17,7.49,7.49,0,0,0-1.55-.16,9.78,9.78,0,0,0-2,.22,5.37,5.37,0,0,0-.57.18A5.6,5.6,0,0,1,231.62,249.61Z"/><path class="cls-3" d="M242.25,166.46h.22a6.48,6.48,0,0,1,6.26,6.69,7,7,0,0,1-.12,1l-6,30.83,0-.4,0,.43v0l-.09,1.68-.28,5.43-.38,7.52-.43,8.37-.41,8-.32,6.34c0,.78-.09,1.56-.12,2.35a11,11,0,0,1-.12,2.2,1.48,1.48,0,0,1-1.61,1.25,5.63,5.63,0,0,1-1.14-.15,8.48,8.48,0,0,0-1.75-.18,10.75,10.75,0,0,0-2.2.24,10.74,10.74,0,0,1-2.12.55.93.93,0,0,1-1-.64,1,1,0,0,1,.35-1.19,17.18,17.18,0,0,1,5.53-2.52l-1.83-39.68,0-.43,1-31.42a6.48,6.48,0,0,1,6.47-6.27m0-2h0a8.45,8.45,0,0,0-8.47,8.2l-1,31.42,0,.38q0,.1,0,.21l1.76,38.15a17.07,17.07,0,0,0-4.65,2.35,3,3,0,0,0-1,3.5,2.92,2.92,0,0,0,2.83,1.94,6.41,6.41,0,0,0,2.09-.45l.45-.14a8.76,8.76,0,0,1,1.79-.2,6.49,6.49,0,0,1,1.34.13,7.57,7.57,0,0,0,1.55.19,3.48,3.48,0,0,0,3.55-2.77,8.11,8.11,0,0,0,.18-2c0-.19,0-.38,0-.56,0-.5,0-1,.08-1.52l0-.8v-.12l.32-6.22.41-8v-.25l.41-8.12.22-4.4.16-3.12.28-5.43.08-1.54,6-30.69a9,9,0,0,0,.15-1.35,8.48,8.48,0,0,0-8.2-8.76Z"/><path class="cls-1" d="M282.2,249.61a1.93,1.93,0,0,1-1.9-1.29A2,2,0,0,1,281,246a16.85,16.85,0,0,1,5.09-2.45l-1.8-38.9s0-.07,0-.1l0-.43,1-31.4a7.45,7.45,0,0,1,7.47-7.23h.25a7.48,7.48,0,0,1,7.23,7.73,8.05,8.05,0,0,1-.13,1.18l-6,30.77-1.94,38.07c0,.51-.06,1-.08,1.52,0,.2,0,.4,0,.6a7.31,7.31,0,0,1-.15,1.8,2.47,2.47,0,0,1-2.58,2,6.63,6.63,0,0,1-1.34-.17,7.49,7.49,0,0,0-1.55-.16,9.78,9.78,0,0,0-2,.22,5.37,5.37,0,0,0-.57.18A5.6,5.6,0,0,1,282.2,249.61Z"/><path class="cls-3" d="M292.83,166.46H293a6.48,6.48,0,0,1,6.26,6.69,7,7,0,0,1-.12,1l-6,30.84,0-.41,0,.43v0l-.09,1.68-.28,5.43-.38,7.52L292,228l-.41,8-.32,6.34c0,.78-.09,1.56-.12,2.35a11.07,11.07,0,0,1-.12,2.2,1.48,1.48,0,0,1-1.61,1.25,5.63,5.63,0,0,1-1.14-.15,8.48,8.48,0,0,0-1.75-.18,10.75,10.75,0,0,0-2.2.24,10.74,10.74,0,0,1-2.12.55.93.93,0,0,1-1-.64,1,1,0,0,1,.35-1.19,17.18,17.18,0,0,1,5.53-2.52l-1.83-39.68,0-.43,1-31.42a6.48,6.48,0,0,1,6.47-6.27m0-2h0a8.45,8.45,0,0,0-8.47,8.2l-1,31.4,0,.4c0,.07,0,.14,0,.21l1.76,38.15a17.08,17.08,0,0,0-4.65,2.35,3,3,0,0,0-1,3.5,2.92,2.92,0,0,0,2.83,1.94,6.41,6.41,0,0,0,2.09-.45l.45-.14a8.76,8.76,0,0,1,1.79-.2,6.49,6.49,0,0,1,1.34.13,7.57,7.57,0,0,0,1.55.19,3.48,3.48,0,0,0,3.55-2.77,8.07,8.07,0,0,0,.18-2c0-.19,0-.38,0-.56,0-.51,0-1,.08-1.52l0-.8.32-6.21v-.12l.41-8,.22-4.3.21-4.08.14-2.8.24-4.73.11-2.25.16-3.17.05-1.05,0-.49,6-30.7a9,9,0,0,0,.15-1.34,8.48,8.48,0,0,0-8.2-8.76Z"/><path class="cls-1" d="M226.7,132.16a3.37,3.37,0,0,1-3.09-2l-17.18-18.37a1,1,0,0,1-.25-.19l-2.65-2.8a1.66,1.66,0,0,1,2.25-2.44l3,2.42a1.61,1.61,0,0,1,.38.43L228,124l14.57-12.11a1,1,0,0,1,.26-.15,5.19,5.19,0,0,1,4,9.59,5.55,5.55,0,0,1-.54.19l-18.13,10.33a1,1,0,0,1-.24.1l-.35.09A3.35,3.35,0,0,1,226.7,132.16Z"/><path class="cls-3" d="M204.74,107a.66.66,0,0,1,.42.15l3,2.42a.62.62,0,0,1,.16.2l.06.12L228,125.3l15.19-12.63a4.19,4.19,0,0,1,3.22,7.74,4.62,4.62,0,0,1-.55.18L227.65,131l-.35.09a2.34,2.34,0,0,1-.59.08,2.37,2.37,0,0,1-2.23-1.59l-17.79-19,.22.31-2.65-2.8a.66.66,0,0,1,.48-1.12m0-2a2.66,2.66,0,0,0-1.93,4.49l2.65,2.8a2,2,0,0,0,.34.29l17,18.15a4.36,4.36,0,0,0,5,2.34l.35-.09a2,2,0,0,0,.48-.2l18-10.28c.16,0,.34-.11.53-.19a6.19,6.19,0,1,0-4.75-11.44,2,2,0,0,0-.51.31l-14,11.59L209.9,108.49a2.6,2.6,0,0,0-.49-.53l-3-2.42a2.67,2.67,0,0,0-1.67-.59Z"/><path class="cls-1" d="M248.72,172.79a19,19,0,0,1-2.24-.14c-7.53-.9-11.72-5.58-10.93-12.23.14-1.16.26-3.72.42-7,.63-12.67,1.79-36.25,6.66-44.7a1.16,1.16,0,0,1,.94-.53,1.68,1.68,0,0,1,.35,0,12.44,12.44,0,0,0,.4-3.28,1,1,0,0,1,1-1h.12l3.29.39a1,1,0,0,1,.87.82c.28,1.58.63,3.38.72,3.66,3.69,10.82,10.36,48.48,9.65,54.46S255.15,172.79,248.72,172.79Z"/><path class="cls-3" d="M245.33,105l3.29.39s.59,3.33.76,3.81c3.67,10.76,10.3,48.23,9.61,54-.72,6-5,8.57-10.26,8.57a18,18,0,0,1-2.12-.13c-6.2-.74-10.87-4.29-10.05-11.12.67-5.66.94-40.83,7-51.28,0,0,0,0,.08,0s.41.1.65.1a.42.42,0,0,0,.37-.17c.73-1.09.73-4.18.73-4.18m0-2a2,2,0,0,0-2,2,14.5,14.5,0,0,1-.19,2.28,2,2,0,0,0-1.38,1c-5,8.66-6.16,32.4-6.79,45.15-.16,3.22-.28,5.76-.42,6.88-.86,7.26,3.66,12.37,11.8,13.34a20,20,0,0,0,2.36.14c6.9,0,11.48-3.86,12.25-10.34.72-6-6-44-9.7-54.9-.08-.3-.42-2.07-.68-3.51a2,2,0,0,0-1.73-1.64l-3.29-.39Z"/><path class="cls-1" d="M246.57,105.22c-5.1,0-8.68-8.36-8.68-12.88a8.68,8.68,0,1,1,17.35,0C255.25,96.86,251.67,105.22,246.57,105.22Z"/><path class="cls-3" d="M246.57,84.66a7.68,7.68,0,0,1,7.68,7.68c0,4.24-3.44,11.88-7.68,11.88s-7.68-7.64-7.68-11.88a7.68,7.68,0,0,1,7.68-7.68m0-2a9.69,9.69,0,0,0-9.68,9.68c0,4.77,3.77,13.88,9.68,13.88s9.68-9.11,9.68-13.88a9.69,9.69,0,0,0-9.68-9.68Z"/><path class="cls-1" d="M252.15,121.68a5.41,5.41,0,0,1-2.75-10.07l18.78-11.07L267.61,75a1.65,1.65,0,0,1-.13-.58l-.14-4a1.7,1.7,0,0,1,1.41-1.73l.28,0a1.69,1.69,0,0,1,1.67,1.41l.68,4a1,1,0,0,1,0,.33L276,100.46a3.5,3.5,0,0,1-.85,4.48l-19.63,15.57a6,6,0,0,1-.62.42,5.4,5.4,0,0,1-2.74.75Z"/><path class="cls-3" d="M269,69.65a.7.7,0,0,1,.69.58l.68,4-.12-.38,4.75,27a2.49,2.49,0,0,1-.52,3.33l-.3.24-19.33,15.33a4.86,4.86,0,0,1-.5.34,4.41,4.41,0,1,1-4.48-7.6L269.2,101.1l-.59-26.3-.06-.13a.65.65,0,0,1-.06-.26l-.14-4a.7.7,0,0,1,.58-.71H269m0-2h0a2.7,2.7,0,0,0-2.7,2.79l.14,4a2.64,2.64,0,0,0,.13.74l.55,24.74-18.28,10.77a6.41,6.41,0,1,0,6.51,11,6.87,6.87,0,0,0,.72-.49L275.46,106l.3-.24a4.51,4.51,0,0,0,1.18-5.6L272.4,74.35a2,2,0,0,0,0-.46l-.68-4A2.69,2.69,0,0,0,269,67.65Z"/><path class="cls-1" d="M270.81,178.8a1.82,1.82,0,0,1-.61-3.54l4.57-1.63L284,144.53l4.08-26.07a6.18,6.18,0,0,1,6.13-5.25,6.22,6.22,0,0,1,6.14,7.17,6.75,6.75,0,0,1-.19.83l-8.57,28.31a3.92,3.92,0,0,1-3.77,2.74h0l-11.26,24a1.13,1.13,0,0,1,.12.37,1,1,0,0,1-.78,1.13l-4.68,1A1.84,1.84,0,0,1,270.81,178.8Z"/><path class="cls-3" d="M294.21,114.21a5.22,5.22,0,0,1,5.16,6,5.76,5.76,0,0,1-.16.7l-8.44,27.92-.13.43a2.94,2.94,0,0,1-3.44,2l-12,25.52.47,0-4.68,1-.17,0a.82.82,0,0,1-.28-1.6l4.51-1.61a.77.77,0,0,1,.26,0h.22L285,144.76l4.09-26.14a5.21,5.21,0,0,1,5.14-4.41m-18.53,63.06h0m18.53-65.06a7.17,7.17,0,0,0-7.12,6.1l-4.07,26L274,172.85l-4.1,1.46a2.82,2.82,0,0,0,1.53,5.42l4.65-1a2,2,0,0,0,1.58-2.4l10.84-23a5,5,0,0,0,4.09-3.46l.13-.43,8.44-27.92a7.91,7.91,0,0,0,.22-1,7.21,7.21,0,0,0-6-8.24,7.29,7.29,0,0,0-1.12-.09Z"/><path class="cls-1" d="M298.6,174.74a17.77,17.77,0,0,1-5.55-1c-7.82-2.58-11.13-8.24-8.85-15.13.55-1.67.83-6.67,1.15-12.47.8-14.41,1.89-34.14,8-41.13a1.13,1.13,0,0,1,.8-.36,1.52,1.52,0,0,1,.64.16A13,13,0,0,0,296,101.4a1,1,0,0,1,1.29-.75l3.38,1.12a1,1,0,0,1,.69,1c0,1.73-.06,3.71,0,4,.45,3.49,1.46,9.45,2.63,16.35,3.65,21.51,6.57,39.64,5.2,43.78C307.51,172,303.75,174.74,298.6,174.74Z"/><path class="cls-3" d="M297,101.6l3.38,1.12s-.09,3.64,0,4.18c1.56,12.13,9.85,53.73,7.88,59.69-1.67,5.05-5.33,7.16-9.63,7.16a16.82,16.82,0,0,1-5.23-.91c-6.37-2.1-10.54-6.85-8.22-13.87,1.92-5.82.42-43.52,9-53.25l.05,0c.15,0,.52.27.84.27a.4.4,0,0,0,.29-.11c1-1,1.66-4.24,1.66-4.24m0-2a2,2,0,0,0-2,1.6,15.48,15.48,0,0,1-.73,2.49h-.1a2.07,2.07,0,0,0-1.55.69c-6.39,7.25-7.5,27.18-8.3,41.73-.3,5.49-.59,10.67-1.1,12.21a11.74,11.74,0,0,0,1.08,10.51,15.75,15.75,0,0,0,8.41,5.88,18.76,18.76,0,0,0,5.86,1c5.62,0,9.71-3,11.53-8.53,1.44-4.36-1.36-21.84-5.16-44.25-1.17-6.89-2.18-12.84-2.63-16.31,0-.33,0-2.28,0-3.87a2,2,0,0,0-1.37-1.95l-3.38-1.12a2,2,0,0,0-.63-.1Z"/><path class="cls-1" d="M310.43,252.38a1.9,1.9,0,0,1-1.58-.84,2,2,0,0,1,.07-2.44,16.86,16.86,0,0,1,4.3-3.66l-11.64-37.17,0-.1-.08-.42-7-30.63a7.48,7.48,0,0,1,5.63-9,7.54,7.54,0,0,1,1.67-.19,7.44,7.44,0,0,1,7.29,5.82,8,8,0,0,1,.17,1.17l2,31.29,7.8,37.3c.1.5.2,1,.32,1.5,0,.19.1.39.15.59a7.29,7.29,0,0,1,.31,1.78c0,2.61-2.49,2.74-3.33,2.78a8.58,8.58,0,0,0-3.41,1,5.24,5.24,0,0,0-.5.32A4.16,4.16,0,0,1,310.43,252.38Z"/><path class="cls-3" d="M301.79,169a6.48,6.48,0,0,1,6.31,5,7,7,0,0,1,.15,1l2,31.35-.08-.4.08.42v0l.35,1.65,1.11,5.32,1.54,7.37,1.72,8.21,1.64,7.82,1.3,6.21c.16.77.31,1.54.48,2.3a11.08,11.08,0,0,1,.44,2.16c0,1.49-1.17,1.71-2.38,1.77a9.62,9.62,0,0,0-3.81,1.07c-.58.29-1.49,1.12-2.24,1.12a.9.9,0,0,1-.76-.42,1,1,0,0,1,0-1.24,17.19,17.19,0,0,1,4.71-3.84L302.54,208l-.08-.42-7-30.65a6.49,6.49,0,0,1,6.33-7.93m0-2h0a8.49,8.49,0,0,0-8.28,10.37l7,30.63.08.4a2.06,2.06,0,0,0,.05.2L312,245a17.09,17.09,0,0,0-3.9,3.46,3,3,0,0,0-.11,3.64,2.88,2.88,0,0,0,2.4,1.27,5,5,0,0,0,2.74-1.08l.4-.25a7.6,7.6,0,0,1,3-.86c3.77-.19,4.3-2.46,4.28-3.79a8.12,8.12,0,0,0-.35-2c0-.18-.1-.37-.14-.55-.11-.49-.21-1-.31-1.48l-.17-.8-.65-3.1-.65-3.11-.82-3.91-.82-3.91v-.05l-1.71-8.15-.08-.39-1.46-7-1.11-5.32-.21-1-.11-.51-2-31.21a9,9,0,0,0-.19-1.34,8.44,8.44,0,0,0-8.26-6.6Z"/><path class="cls-1" d="M260.75,252.31a1.93,1.93,0,0,1-1.6-.85,2.06,2.06,0,0,1,.07-2.47,17.27,17.27,0,0,1,4.41-3.75l-11.92-38.07,0-.1-.09-.43-7.15-31.36a7.64,7.64,0,1,1,14.89-3.4,8.2,8.2,0,0,1,.17,1.2l2.07,32,8,38.18c.1.51.21,1,.32,1.54,0,.2.1.4.15.6a7.45,7.45,0,0,1,.32,1.81c0,2.65-2.54,2.78-3.38,2.82a8.82,8.82,0,0,0-3.5,1,5.53,5.53,0,0,0-.52.32A4.24,4.24,0,0,1,260.75,252.31Z"/><path class="cls-3" d="M251.9,166.95a6.64,6.64,0,0,1,6.46,5.16,7.28,7.28,0,0,1,.15,1l2.08,32.09-.08-.41.09.43v0l.35,1.69,1.14,5.45,1.58,7.55,1.76,8.4,1.68,8,1.33,6.36c.16.79.32,1.57.49,2.36a11.31,11.31,0,0,1,.45,2.21c0,1.52-1.19,1.75-2.43,1.81a9.85,9.85,0,0,0-3.9,1.09c-.6.3-1.52,1.14-2.3,1.14a.92.92,0,0,1-.78-.43,1.05,1.05,0,0,1,0-1.27,17.6,17.6,0,0,1,4.82-3.93l-12.15-38.81-.09-.43-7.16-31.38a6.64,6.64,0,0,1,6.48-8.11m0-2h0a8.69,8.69,0,0,0-1.93.22,8.64,8.64,0,0,0-6.5,10.34l7.15,31.36.08.41a1.92,1.92,0,0,0,.05.2l11.69,37.34a17.48,17.48,0,0,0-4,3.55,3.07,3.07,0,0,0-.11,3.67,2.9,2.9,0,0,0,2.41,1.28,5.1,5.1,0,0,0,2.78-1.09l.41-.26a7.83,7.83,0,0,1,3.1-.88c3.82-.19,4.36-2.48,4.33-3.84a8.26,8.26,0,0,0-.36-2.06c-.05-.19-.1-.38-.14-.56-.11-.51-.22-1-.32-1.53l-.16-.79-.67-3.18-.67-3.18-1.68-8-.88-4.2-.88-4.2-.06-.31L264,212l-1.14-5.45-.32-1.55-2.07-32a9.28,9.28,0,0,0-.2-1.36,8.59,8.59,0,0,0-8.41-6.72Z"/><path class="cls-1" d="M298.09,103.89a4.94,4.94,0,0,1-1.27-.16,6.2,6.2,0,0,1-3.7-3.17A18.85,18.85,0,0,1,291.58,88a9.41,9.41,0,0,1,9-6.88,9.25,9.25,0,0,1,2.38.31,9.15,9.15,0,0,1,6.45,11.34c-1.24,4.47-6.56,11.11-11.36,11.11Z"/><path class="cls-3" d="M300.61,82.14a8.25,8.25,0,0,1,2.12.28,8.15,8.15,0,0,1,5.75,10.1c-1.14,4.08-6.16,10.38-10.39,10.38a3.94,3.94,0,0,1-1-.13c-4.4-1.17-5.76-10.07-4.53-14.48a8.41,8.41,0,0,1,8.07-6.15m0-2a10.42,10.42,0,0,0-10,7.61,19.69,19.69,0,0,0,1.63,13.3,7.25,7.25,0,0,0,4.31,3.64,6,6,0,0,0,1.53.2c5.43,0,11-7.13,12.32-11.84a10.15,10.15,0,0,0-7.16-12.57,10.27,10.27,0,0,0-2.63-.34Z"/><path class="cls-1" d="M278.7,137.28a3.93,3.93,0,0,1-3.09-1.48l-17.4-21.9L254.43,112a1.82,1.82,0,0,1,1.44-3.34l4.51,1.6a1.77,1.77,0,0,1,.61.37l17.81,16.75,19-17.08a6.21,6.21,0,1,1,8.31,9.24,6.66,6.66,0,0,1-.67.52l-24.54,16.59A3.9,3.9,0,0,1,278.7,137.28Z"/><path class="cls-3" d="M255.26,109.52a.82.82,0,0,1,.27,0l4.51,1.6a.77.77,0,0,1,.27.16l.12.11,18.35,17.26L298.47,111a5.21,5.21,0,1,1,7,7.75,5.72,5.72,0,0,1-.57.44l-24.16,16.33-.37.25a2.91,2.91,0,0,1-1.63.5,3,3,0,0,1-2.3-1.11l-17.54-22.06.29.15-.39-.27.1.13-4-2a.82.82,0,0,1,.38-1.56m0-2a2.82,2.82,0,0,0-1.29,5.34l3.59,1.84,17.27,21.73a4.94,4.94,0,0,0,6.62,1l.37-.25L306,120.86a7.8,7.8,0,0,0,.78-.61,7.21,7.21,0,0,0-9.65-10.73L278.82,126l-17-16-.12-.11a2.77,2.77,0,0,0-1-.59l-4.51-1.6a2.81,2.81,0,0,0-.94-.16Z"/><text class="cls-6" transform="translate(370.68 63.27)">?</text><path class="cls-3" d="M378.43,35.87c4.6,0,6.68,2.84,6.68,5.88,0,2.72-1.52,4.68-3.44,7-1.76,2.08-2.4,3.84-2.28,5.88l0,1h-3.12l-.08-1a9.18,9.18,0,0,1,2.48-6.92c1.8-2.12,2.8-3.68,2.8-5.48,0-2-1.28-3.4-3.8-3.44a7.11,7.11,0,0,0-4,1.24l-1-2.52a10.48,10.48,0,0,1,5.72-1.6m-.6,22.84a2.5,2.5,0,1,1-2.4,2.52,2.36,2.36,0,0,1,2.4-2.52m.6-24.84a12.49,12.49,0,0,0-6.9,2,2,2,0,0,0-.69,2.33l1,2.52a2,2,0,0,0,3.08.88,5.2,5.2,0,0,1,2.83-.83c1.8,0,1.8.91,1.8,1.44,0,1.07-.61,2.16-2.32,4.18a11.25,11.25,0,0,0-2.95,8.4l.08,1a2,2,0,0,0,1.09,1.63,4.47,4.47,0,0,0-2,3.82,4.38,4.38,0,1,0,8.76,0,4.49,4.49,0,0,0-1.91-3.79,2,2,0,0,0,1.15-1.89l0-1c-.08-1.35.2-2.61,1.81-4.51,1.74-2.07,3.91-4.64,3.91-8.25,0-3.79-2.72-7.88-8.68-7.88Z"/><text class="cls-6" transform="translate(238.18 60.77)">!</text><path class="cls-3" d="M244.69,33.81,244.13,53h-2.72l-.56-19.2h3.84m-1.92,22.44a2.48,2.48,0,0,1,0,5,2.48,2.48,0,0,1,0-5m1.92-24.44h-3.84a2,2,0,0,0-2,2.06l.56,19.2a2,2,0,0,0,1.16,1.76,4.41,4.41,0,0,0-2.16,3.9,4.36,4.36,0,1,0,8.72,0A4.37,4.37,0,0,0,245,54.81a2,2,0,0,0,1.14-1.75l.56-19.2a2,2,0,0,0-2-2.06Zm0,4h0Z"/><path class="cls-1" d="M57.59,116.77a1,1,0,0,1-.91-1.41L68,90.37a53.86,53.86,0,1,1,14.73,11.8L58.09,116.63A1,1,0,0,1,57.59,116.77Z"/><path class="cls-3" d="M108.55,2a52.87,52.87,0,1,1-25.8,99L57.59,115.77,69.22,90.19A52.86,52.86,0,0,1,108.55,2m0-2A54.86,54.86,0,0,0,66.86,90.54l-11.09,24.4a2,2,0,0,0,2.83,2.55l24.19-14.18A54.87,54.87,0,1,0,108.55,0Z"/><path class="cls-7" d="M90.45,34.27h10.65c18.82,0,22.32,8.6,29.56,13.29,5.13,3.33,9.38,3.09,12.15,3.77a10.87,10.87,0,0,1,7.33,5.34c1,2,1.52,6.7,1.52,9a3.31,3.31,0,0,1-3.42,3.63H69.16c-1.68,0-2.52-2.16-2.66-3.83-.23-2.65-.58-6.65,0-9.31C68.4,47.38,75.33,34.27,90.45,34.27Z"/><circle class="cls-7" cx="84.48" cy="69.24" r="8.92"/><circle class="cls-1" cx="84.48" cy="69.24" r="2.62"/><path class="cls-3" d="M84.48,67.62a1.62,1.62,0,1,1-1.62,1.62,1.62,1.62,0,0,1,1.62-1.62m0-2a3.62,3.62,0,1,0,3.62,3.62,3.62,3.62,0,0,0-3.62-3.62Z"/><circle class="cls-7" cx="132.43" cy="69.24" r="8.92"/><circle class="cls-1" cx="132.42" cy="69.27" r="2.62"/><path class="cls-3" d="M132.42,67.65a1.62,1.62,0,1,1-1.62,1.62,1.62,1.62,0,0,1,1.62-1.62m0-2A3.62,3.62,0,1,0,136,69.27a3.62,3.62,0,0,0-3.62-3.62Z"/><path class="cls-1" d="M65.71,57.17c-.83.29-2,1.07-2,2v.24a2.39,2.39,0,0,0,1.76,2C65.36,60,65.65,58.53,65.71,57.17Z"/><path class="cls-7" d="M146.57,53.76a2.19,2.19,0,0,0-.87,3l.87,1.58a2.19,2.19,0,0,0,3,.87l.22-.12a2.17,2.17,0,0,0,1-1.06,8.55,8.55,0,0,0-.58-1.6,10.74,10.74,0,0,0-2.36-3,2.16,2.16,0,0,0-1,.26Z"/><path class="cls-1" d="M107.76,49.17V39.82A1.84,1.84,0,0,1,109.58,38a1.81,1.81,0,0,1,.49.07c4.05,1.13,11.24,4,15.65,11.13Z"/><path class="cls-3" d="M109.58,39a.81.81,0,0,1,.22,0c3.6,1,9.77,3.47,14,9.17H108.76V39.82a.85.85,0,0,1,.82-.85m0-2a2.85,2.85,0,0,0-2.82,2.85V50.17h20.68C123,41.75,115,38.37,110.33,37.08a2.8,2.8,0,0,0-.75-.1Z"/><rect class="cls-1" x="89.68" y="37.27" width="13" height="12"/><path class="cls-3" d="M101.68,38.27v10h-11v-10h11m2-2h-15v14h15v-14Z"/><path class="cls-1" d="M73.81,49.17c-.44,0-.45-.09-.46-.21-.27-2.26,6-10.17,11.31-11.47l0,11.69Z"/><path class="cls-3" d="M83.62,38.89v9.28H74.47c.8-2.26,5.08-7.51,9.15-9.28m1-2.4-.23,0c-6.91,1.69-15.58,13.66-10.6,13.66H85.62V37.5a1,1,0,0,0-1-1Z"/><rect class="cls-1" x="106.68" y="53.27" width="5" height="2" rx="0.57" ry="0.57"/><rect class="cls-1" x="88.68" y="53.27" width="5" height="2" rx="0.57" ry="0.57"/><path class="cls-1" d="M122.29,52.27c-.19,0-.61-.56-.61-.81V49.54c0-.05.2-.13.25-.14h5.78c.18,0,1,.2,1,.36v1.59c0,.34-.81.91-1.13.91Z"/><path class="cls-3" d="M127.62,50.27a1.09,1.09,0,0,1,.05.15v.67c0,.19-.35.18-.52.18h-4.21s-.26.19-.26.11V50.27h5m.06-2h-5.8a1.61,1.61,0,0,0-1.26,1.2v2c0,.49.78,1.79,1.26,1.79h5.8c.48,0,1.94-1.31,1.94-1.79v-2c0-.49-1.46-1.2-1.94-1.2Z"/><use width="167.01" height="109.64" transform="translate(-11.17 146.83) rotate(-16.94)" xlink:href="#megafono_2"/><polygon class="cls-5" points="284.5 155.75 309.45 154.28 310.93 165.13 312.68 204.27 319.93 240.52 310.68 242.02 299.32 204.27 296.51 193.02 295.3 205.52 293.93 242.02 284.71 240.77 282.43 206.3 284.5 155.75"/><line class="cls-5" x1="293.43" y1="171" x2="297.01" y2="196"/><polygon class="cls-5" points="259.03 154.28 235.68 154.28 233.01 205.27 235.51 240.77 240.69 242.35 244.01 205.6 247.74 190.27 251.18 207.54 262.01 242.02 269.99 241.1 262.68 203.93 261.51 161.41 259.03 154.28"/><line class="cls-5" x1="244.56" y1="168.96" x2="248.15" y2="193.96"/></g></g></svg>