<svg xmlns="http://www.w3.org/2000/svg" xmlns:xlink="http://www.w3.org/1999/xlink" viewBox="0 0 425.3 262.91"><defs><style>.cls-1,.cls-10,.cls-4,.cls-5,.cls-6,.cls-8{fill:#fff;}.cls-2,.cls-7,.cls-9{fill:none;}.cls-2{stroke:#fff;stroke-miterlimit:10;}.cls-3{fill:#0080b1;}.cls-4,.cls-5,.cls-7,.cls-9{stroke:#0080b1;stroke-linejoin:round;}.cls-4,.cls-5,.cls-9{stroke-width:2px;}.cls-5,.cls-9{stroke-linecap:round;}.cls-6{font-size:48.12px;}.cls-10,.cls-6,.cls-8{font-family:MuseoSans-900, MuseoSans 900;}.cls-7{stroke-width:9px;stroke-dasharray:5.1 6.12;}.cls-8{font-size:57.75px;}.cls-10{font-size:38.68px;}</style><symbol id="megafono_2" data-name="megafono 2" viewBox="0 0 167.01 109.64"><path class="cls-1" d="M154.69,74.34a1,1,0,0,1-.56-.17L135.49,61.41a1,1,0,0,1-.26-1.39,35.78,35.78,0,0,0,2.68-4.62,1,1,0,0,1,1.34-.47l20.33,9.82a1,1,0,0,1,.47,1.34,60.38,60.38,0,0,1-4.53,7.82,1,1,0,0,1-.64.42Zm-12.42-30.7a1,1,0,0,1-.92-1.07c.06-.88.1-1.78.1-2.67s0-1.81-.1-2.71a1,1,0,0,1,.92-1.07l22.59-1.68a1,1,0,0,1,1,.93c.11,1.5.17,3,.17,4.53s-.06,3-.16,4.47a1,1,0,0,1-1,.93Zm-3.47-18.71a1,1,0,0,1-.9-.56,35.79,35.79,0,0,0-2.69-4.62,1,1,0,0,1,.26-1.39L154.09,5.58a1,1,0,0,1,.57-.18l.18,0a1,1,0,0,1,.64.42A60.49,60.49,0,0,1,160,13.65a1,1,0,0,1-.46,1.34l-20.32,9.85A1,1,0,0,1,138.79,24.93Z"/><path class="cls-2" d="M154.69,73.34,136.05,60.59a36.79,36.79,0,0,0,2.76-4.75l20.33,9.82A59.37,59.37,0,0,1,154.69,73.34Zm10.17-29-22.52-1.65c.07-.91.1-1.83.1-2.74s0-1.86-.1-2.78l22.52-1.68c.11,1.48.17,3,.17,4.46S165,42.84,164.85,44.3ZM138.79,23.93A36.79,36.79,0,0,0,136,19.18L154.65,6.41a59.48,59.48,0,0,1,4.46,7.68Z"/><path class="cls-3" d="M154.65,6.41a59.47,59.47,0,0,1,4.46,7.68l-20.32,9.85A36.8,36.8,0,0,0,136,19.18L154.65,6.41m10.2,29c.11,1.48.17,3,.17,4.46s-.05,2.94-.16,4.4l-22.52-1.65c.07-.91.1-1.83.1-2.74s0-1.86-.1-2.78l22.52-1.68m-26,20.39,20.33,9.82a59.34,59.34,0,0,1-4.45,7.69L136.05,60.59a36.86,36.86,0,0,0,2.76-4.75M154.65,4.41a2,2,0,0,0-1.13.35L134.9,17.53a2,2,0,0,0-.52,2.78A34.81,34.81,0,0,1,137,24.8a2,2,0,0,0,2.67.93L160,15.89a2,2,0,0,0,.93-2.67,61.43,61.43,0,0,0-4.61-7.94A2,2,0,0,0,155,4.44a2,2,0,0,0-.37,0Zm10.2,29h-.15l-22.52,1.68a2,2,0,0,0-1.85,2.14c.06.87.1,1.76.1,2.63s0,1.74-.09,2.6a2,2,0,0,0,1.85,2.14l22.52,1.65h.15a2,2,0,0,0,2-1.85c.11-1.5.17-3,.17-4.54s-.06-3.08-.17-4.61a2,2,0,0,0-2-1.85Zm-26,20.39A2,2,0,0,0,137,55a34.81,34.81,0,0,1-2.61,4.5,2,2,0,0,0,.52,2.78L153.56,75a2,2,0,0,0,2.78-.52,61.35,61.35,0,0,0,4.6-7.95,2,2,0,0,0-.93-2.67L139.68,54a2,2,0,0,0-.87-.2Z"/><path class="cls-1" d="M30,108.64a4,4,0,0,1-4-4V80.12a1.48,1.48,0,0,0-1.47-1.48A3.49,3.49,0,0,1,21,75.17V62.62a3.48,3.48,0,0,1,3.47-3.47H44a4,4,0,0,1,4,4v41.5a4,4,0,0,1-4,4Z"/><path class="cls-3" d="M44,60.14a3,3,0,0,1,3,3v41.5a3,3,0,0,1-3,3H30a3,3,0,0,1-3-3V80.12a2.47,2.47,0,0,0-2.47-2.48h-.05A2.48,2.48,0,0,1,22,75.17V62.62a2.48,2.48,0,0,1,2.48-2.48H44m0-2H24.48A4.48,4.48,0,0,0,20,62.62V75.17a4.48,4.48,0,0,0,4.48,4.48h.05a.48.48,0,0,1,.47.48v24.52a5,5,0,0,0,5,5H44a5,5,0,0,0,5-5V63.14a5,5,0,0,0-5-5Z"/><path class="cls-1" d="M117,81.79a6,6,0,0,1-1.84-.29L51.69,61.1a1,1,0,0,1-.69-1V22.64a1,1,0,0,1,.69-1l63.47-20.4A6,6,0,0,1,123,7V75.79A6,6,0,0,1,117,81.79Z"/><path class="cls-3" d="M117,2a5,5,0,0,1,5,5V75.79a5,5,0,0,1-6.53,4.76L52,60.14V22.64l63.47-20.4A5,5,0,0,1,117,2m0-2h0a7,7,0,0,0-2.15.34L51.39,20.74A2,2,0,0,0,50,22.64v37.5A2,2,0,0,0,51.39,62l63.47,20.4A7,7,0,0,0,124,75.79V7a7,7,0,0,0-7-7Z"/><path class="cls-1" d="M22,61.14a6,6,0,0,1-6-6V27.64a6,6,0,0,1,6-6H52a1,1,0,0,1,1,1v37.5a1,1,0,0,1-1,1Z"/><path class="cls-3" d="M52,22.64v37.5H22a5,5,0,0,1-5-5V27.64a5,5,0,0,1,5-5H52m0-2H22a7,7,0,0,0-7,7v27.5a7,7,0,0,0,7,7H52a2,2,0,0,0,2-2V22.64a2,2,0,0,0-2-2Z"/><path class="cls-1" d="M12,53.64a11,11,0,0,1-11-11v-2.5a11,11,0,0,1,11-11h5a1,1,0,0,1,1,1v22.5a1,1,0,0,1-1,1Z"/><path class="cls-3" d="M17,30.14v22.5H12a10,10,0,0,1-10-10v-2.5a10,10,0,0,1,10-10h5m0-2H12a12,12,0,0,0-12,12v2.5a12,12,0,0,0,12,12h5a2,2,0,0,0,2-2V30.14a2,2,0,0,0-2-2Z"/><line class="cls-4" x1="102" y1="77.64" x2="102" y2="5.14"/><line class="cls-4" x1="109.5" y1="2.64" x2="109.5" y2="80.14"/></symbol></defs><title>or-success</title><g id="Layer_2" data-name="Layer 2"><g id="texts"><path class="cls-5" d="M409.89,63.5A54.94,54.94,0,0,1,397.16,73a54.94,54.94,0,0,1-12.73-9.55c-6.36-6.36-6.36-15.91,0-19.09,9-4.5,12.73,9.55,12.73,9.55s3.73-14,12.73-9.55c6.36,3.18,6.36,12.73,0,19.09"/><rect class="cls-5" x="307.69" y="98.02" width="28.5" height="47.5" rx="2.71" ry="2.71" transform="translate(95.6 381.08) rotate(-69.6)"/><rect class="cls-5" x="321.56" y="92.29" width="5.02" height="47.5" transform="translate(102.35 379.35) rotate(-69.6)"/><rect class="cls-5" x="300.92" y="119.06" width="6.79" height="6.79" rx="1.09" ry="1.09" transform="matrix(0.35, -0.94, 0.94, 0.35, 83.48, 365)"/><rect class="cls-5" x="322.43" y="126.35" width="2.71" height="8.14" transform="translate(88.7 388.45) rotate(-69.6)"/><rect class="cls-5" x="314.8" y="126.22" width="2.71" height="2.71" transform="translate(86.39 379.45) rotate(-69.6)"/><rect class="cls-5" x="333.88" y="130.6" width="2.71" height="8.14" transform="translate(92.17 401.96) rotate(-69.6)"/><line class="cls-5" x1="304.86" y1="119.03" x2="302.49" y2="125.39"/><line class="cls-5" x1="304.38" y1="120.31" x2="308.2" y2="121.73"/><line class="cls-5" x1="303.44" y1="122.85" x2="307.25" y2="124.27"/><path class="cls-1" d="M98.18,116.77a1,1,0,0,1-.91-1.41l11.36-25a53.86,53.86,0,1,1,14.73,11.8L98.69,116.63A1,1,0,0,1,98.18,116.77Z"/><path class="cls-3" d="M149.14,2a52.87,52.87,0,1,1-25.8,99L98.18,115.77l11.63-25.57A52.86,52.86,0,0,1,149.14,2m0-2a54.86,54.86,0,0,0-41.69,90.54l-11.1,24.4a2,2,0,0,0,2.83,2.55l24.19-14.18A54.87,54.87,0,1,0,149.14,0Z"/><use width="167.01" height="109.64" transform="translate(6.66 159.58) rotate(-16.94)" xlink:href="#megafono_2"/><text class="cls-6" transform="translate(134.48 73.79)">$</text><path class="cls-3" d="M148.29,38.42v4.67a12.83,12.83,0,0,1,6.25,1.68l-1.2,3.17a11.63,11.63,0,0,0-6.06-1.64c-3.71,0-5.1,2.21-5.1,4.14,0,2.5,1.78,3.75,6,5.48,5,2,7.46,4.52,7.46,8.8,0,3.8-2.65,7.36-7.6,8.18v5h-3V73.06a14,14,0,0,1-7.36-2.12l1.16-3.22a12.83,12.83,0,0,0,6.93,2.07c3.42,0,5.73-2,5.73-4.71s-1.88-4.28-5.44-5.73C141.07,57.43,138,55.21,138,51c0-4,2.84-7,7.26-7.75V38.42h3m0-2h-3a2,2,0,0,0-2,2v3.27C138.84,43,136,46.55,136,51c0,5.79,4.65,8.4,9.21,10.19,3.84,1.56,4.17,2.81,4.17,3.86,0,1.65-1.46,2.71-3.73,2.71a10.89,10.89,0,0,1-5.82-1.73,2,2,0,0,0-3,1l-1.16,3.22a2,2,0,0,0,.72,2.3A14.9,14.9,0,0,0,143,74.92v3a2,2,0,0,0,2,2h3a2,2,0,0,0,2-2V74.51a10.13,10.13,0,0,0,7.6-9.76c0-6.3-4.65-9-8.7-10.66-4.39-1.82-4.72-2.62-4.72-3.63,0-1.34,1.16-2.14,3.1-2.14a9.56,9.56,0,0,1,5.07,1.37,2,2,0,0,0,2.86-1l1.2-3.17a2,2,0,0,0-.86-2.43,14.11,14.11,0,0,0-5.27-1.79V38.42a2,2,0,0,0-2-2Z"/><circle class="cls-7" cx="149.77" cy="55.77" r="37.5"/><path class="cls-1" d="M69.72,139a1,1,0,0,1-.74-.33l-14-15.4a41.36,41.36,0,1,1,13-6.94l2.68,21.54a1,1,0,0,1-1,1.12Z"/><path class="cls-3" d="M42.41,43.49A40.37,40.37,0,0,1,67,115.89L69.72,138,55.3,122.12A40.37,40.37,0,1,1,42.41,43.49m0-2a42.38,42.38,0,1,0,12.27,82.93l13.56,14.92a2,2,0,0,0,3.46-1.59l-2.61-21A42.38,42.38,0,0,0,42.41,41.49Z"/><path class="cls-1" d="M234.47,162a41.4,41.4,0,0,1-37.78-24.6l-20.8-.21a1,1,0,0,1-.56-1.82l17.87-12.32a41.37,41.37,0,1,1,41.27,39Z"/><path class="cls-3" d="M234.52,80.26a40.38,40.38,0,1,1-37.18,56.17l-21.45-.22,18.34-12.64a40.38,40.38,0,0,1,40.29-43.31m0-2a42.38,42.38,0,0,0-42.35,44.3l-17.41,12a2,2,0,0,0,1.11,3.65l20.16.21a42.36,42.36,0,1,0,38.48-60.16Z"/><text class="cls-8" transform="translate(19.51 103.52)">%</text><path class="cls-3" d="M55,65.34,32.91,104.15H29.68L51.74,65.34H55m-24.66,0c5.26,0,8.72,4,8.72,11.2,0,7.91-4.16,11.84-9,11.84-4.68,0-8.72-3.75-8.78-11.32s4.1-11.72,9.07-11.72m-.17,20c3.35,0,4.85-3.58,4.85-8.55,0-4.56-1.33-8.37-4.85-8.37-3.18,0-4.85,3.75-4.85,8.49s1.67,8.43,4.85,8.43M54.8,80.88c5.26,0,8.66,4,8.66,11.2,0,7.91-4.16,11.84-9,11.84s-8.72-3.75-8.78-11.26,4.1-11.78,9.07-11.78m-.17,20c3.35,0,4.85-3.58,4.85-8.55,0-4.56-1.33-8.37-4.85-8.37-3.18,0-4.91,3.75-4.91,8.49s1.79,8.43,4.91,8.43M55,63.34H51.74a2,2,0,0,0-1.74,1L40.6,80.9A20.62,20.62,0,0,0,41,76.55c0-8-4.21-13.2-10.72-13.2S19.25,69,19.25,77.07c.07,9.21,5.46,13.32,10.78,13.32a10.14,10.14,0,0,0,6.5-2.32l-8.59,15.1a2,2,0,0,0,1.74,3h3.23a2,2,0,0,0,1.74-1l9.52-16.76a19.73,19.73,0,0,0-.44,4.27c.07,9.17,5.46,13.26,10.78,13.26s11-4.28,11-13.84c0-8.14-4.09-13.2-10.66-13.2a10.21,10.21,0,0,0-6.62,2.47l8.54-15a2,2,0,0,0-1.74-3Zm0,4h0Zm-24.83,16a1.78,1.78,0,0,1-1.34-.59c-1-1-1.58-3.2-1.52-5.79,0-3.17.89-6.54,2.85-6.54,2.57,0,2.85,4.46,2.85,6.37,0,1.54-.21,6.55-2.85,6.55ZM54.63,98.86a1.76,1.76,0,0,1-1.31-.59c-1-1-1.63-3.22-1.6-5.82,0-3.25,1-6.51,2.91-6.51,2.57,0,2.85,4.46,2.85,6.38,0,1.54-.21,6.55-2.85,6.55Z"/><path class="cls-1" d="M385.19,261.91a2.13,2.13,0,0,1-1.91-1.2c-.88-1.82,1.09-3.1,1.93-3.65l.24-.16a16.77,16.77,0,0,1,3.33-1.72l-5.48-42.3,0-.56-2-34.2a8.07,8.07,0,0,1,7.59-8.52h.47a8.07,8.07,0,0,1,8,7.6,8.72,8.72,0,0,1,0,1.28l-3.48,34,1.58,39.9.12,2.92c0,.26,0,.54.06.82a9.38,9.38,0,0,1,0,2.16,2.88,2.88,0,0,1-1.15,2,2.67,2.67,0,0,1-1.56.45,6.8,6.8,0,0,1-1-.09l-.24,0a7.29,7.29,0,0,0-.95-.06,11.12,11.12,0,0,0-4.69,1.16A2.1,2.1,0,0,1,385.19,261.91Z"/><path class="cls-3" d="M389.37,170.59a7.07,7.07,0,0,1,7.05,6.66,7.64,7.64,0,0,1,0,1.13l-3.49,34.08,0-.44v.44l.07,1.75.23,5.7.32,7.95.35,8.92.34,8.62.28,7c0,1,.09,1.95.12,2.92a15.87,15.87,0,0,1,.08,2.79,1.89,1.89,0,0,1-.73,1.3,1.7,1.7,0,0,1-1,.28,8.56,8.56,0,0,1-1.1-.12,8.33,8.33,0,0,0-1.08-.07,12.11,12.11,0,0,0-5.12,1.26,1.12,1.12,0,0,1-1.5-.52c-.55-1.14,1.07-2,1.83-2.54a16.58,16.58,0,0,1,3.87-1.88l-5.58-43.09,0-.47-2-34.22A7.07,7.07,0,0,1,389,170.6h.41m0-2-.53,0a9.08,9.08,0,0,0-8.53,9.57l2,34.2v.44c0,.06,0,.13,0,.19l5.38,41.54a17.12,17.12,0,0,0-2.8,1.52l-.22.15c-.88.57-3.55,2.31-2.29,4.92a3.12,3.12,0,0,0,4.17,1.46,10.1,10.1,0,0,1,4.26-1.06,6.32,6.32,0,0,1,.82.05l.23,0a7.69,7.69,0,0,0,1.13.1,3.68,3.68,0,0,0,2.13-.63,3.88,3.88,0,0,0,1.58-2.66,10.3,10.3,0,0,0,0-2.39c0-.26,0-.52-.05-.77q0-.77-.07-1.55t-.06-1.37v-.24l-.27-6.8-.34-8.62-.18-4.44-.18-4.48-.32-7.95-.23-5.7,0-.83,0-.78,3.48-33.93a9.69,9.69,0,0,0,0-1.44,9.07,9.07,0,0,0-9-8.55Z"/><path class="cls-1" d="M372.82,152.89a4.18,4.18,0,0,1-2.29-.68l-25.39-16.65-4.58-.72a1.89,1.89,0,0,1,.29-3.77l5.24.11a1.83,1.83,0,0,1,.73.17l24.11,11.23,13.79-24.12a6.66,6.66,0,0,1,11.56,6.61,7.21,7.21,0,0,1-.51.76l-19.64,25.44A4.15,4.15,0,0,1,372.82,152.89Z"/><path class="cls-3" d="M390.51,116.11a5.66,5.66,0,0,1,4.9,8.46,6.13,6.13,0,0,1-.43.65l-19.34,25-.3.39a3.19,3.19,0,0,1-4.26.72l-25.57-16.77.34.05-.49-.15.15.1-4.79-.75a.93.93,0,0,1,.14-1.84h0l5.19.14a.85.85,0,0,1,.33.09l.16.08,24.78,11.54L385.59,119a5.65,5.65,0,0,1,4.92-2.85m0-2h0a7.68,7.68,0,0,0-6.65,3.86l-13.34,23.33-23.11-10.76-.16-.08a2.88,2.88,0,0,0-1.13-.29l-5.19-.14h-.06a2.92,2.92,0,0,0-.45,5.8l4.36.69L370,153a5.19,5.19,0,0,0,6.94-1.16l.3-.39,19.34-25a8.16,8.16,0,0,0,.59-.88,7.66,7.66,0,0,0-6.64-11.46Z"/><polyline class="cls-5" points="382.05 122.43 374.79 129.45 384.78 137.9"/><path class="cls-1" d="M395.23,186.61c-8.88,0-14.18-4.67-14.18-12.49,0-6.15,3.88-44.79,9.67-58.31a1.1,1.1,0,0,1,1.06-.66l.33,0h0a13.55,13.55,0,0,0,.05-4.06,1,1,0,0,1,1-1.12H397a1,1,0,0,1,1,.71c.55,1.81,1.2,3.86,1.35,4.17,5.91,12.32,10.09,52.89,10.09,59.24C409.41,181.94,404.11,186.61,395.23,186.61Z"/><path class="cls-3" d="M397,111s1.15,3.78,1.4,4.31c5.74,12,10,52,10,58.81,0,8-5.9,11.49-13.19,11.49S382,182.14,382,174.12c0-6.65,4.05-45,9.59-57.92,0,0,.07,0,.14,0s.36,0,.57,0a.57.57,0,0,0,.55-.25c.7-1.36.27-4.94.27-4.94H397m0-2h-3.86a2,2,0,0,0-2,2.24,16.52,16.52,0,0,1,.09,3,2.08,2.08,0,0,0-1.47,1.21C384,129.05,380,167.94,380,174.12c0,8.32,5.82,13.49,15.18,13.49s15.19-5.17,15.19-13.49c0-6.39-4.22-47.23-10.19-59.67-.14-.33-.78-2.36-1.29-4A2,2,0,0,0,397,109Z"/><path class="cls-1" d="M395.23,110.21c-5.75,0-10-9.77-10-14.86a10,10,0,0,1,19.91,0C405.19,100.44,401,110.21,395.23,110.21Z"/><path class="cls-3" d="M395.23,86.39a9,9,0,0,1,9,9c0,4.95-4,13.86-9,13.86s-9-8.92-9-13.86a9,9,0,0,1,9-9m0-2a11,11,0,0,0-11,11c0,5.45,4.27,15.86,11,15.86s11-10.42,11-15.86a11,11,0,0,0-11-11Z"/><path class="cls-1" d="M396.56,261.88a2,2,0,0,1-1.86-1.18,2.13,2.13,0,0,1,.5-2.5,18.38,18.38,0,0,1,5.32-3.17l-5.8-42.14s0-.07,0-.1l0-.47-2-34.2a8.08,8.08,0,0,1,7.59-8.52h.47a8.07,8.07,0,0,1,8,7.6,8.67,8.67,0,0,1,0,1.28l-3.48,34L407,254c0,.56,0,1.12.07,1.68,0,.22,0,.44.05.66a7.88,7.88,0,0,1,0,1.95,2.68,2.68,0,0,1-3,2.38,8.75,8.75,0,0,1-1-.07,7.86,7.86,0,0,0-.92-.05,10.12,10.12,0,0,0-3,.47,5.87,5.87,0,0,0-.61.25A5.35,5.35,0,0,1,396.56,261.88Z"/><path class="cls-3" d="M400.79,170.59a7.07,7.07,0,0,1,7.05,6.66,7.58,7.58,0,0,1,0,1.13l-3.49,34.08,0-.44,0,.47v0l.07,1.83.23,5.92.33,8.21.36,9.14.35,8.7.27,6.91c0,.85.06,1.71.1,2.56a12.07,12.07,0,0,1,.08,2.41c-.19,1.23-1,1.53-2,1.53a7.68,7.68,0,0,1-.89-.06,8.87,8.87,0,0,0-1-.06,11.13,11.13,0,0,0-3.25.52,9.21,9.21,0,0,1-2.4.81,1,1,0,0,1-1-.61,1.12,1.12,0,0,1,.26-1.32,18.74,18.74,0,0,1,5.76-3.28l-5.9-42.91,0-.47-2-34.22a7.07,7.07,0,0,1,6.65-7.46h.41m0-2-.53,0a9.07,9.07,0,0,0-8.53,9.57l2,34.2v.44q0,.1,0,.21l5.7,41.39a18.62,18.62,0,0,0-4.9,3,3.14,3.14,0,0,0-.73,3.69,3,3,0,0,0,2.76,1.74,6.12,6.12,0,0,0,2.49-.69c.17-.08.4-.18.49-.21a9.13,9.13,0,0,1,2.67-.43,6.88,6.88,0,0,1,.8,0,9.52,9.52,0,0,0,1.13.08,3.69,3.69,0,0,0,4-3.23,8.67,8.67,0,0,0,0-2.19c0-.21,0-.42-.05-.62,0-.55,0-1.11-.07-1.66l0-.88-.14-3.52-.13-3.4-.34-8.62v-.08l-.18-4.57-.18-4.57-.33-8.21-.23-5.92-.07-1.69,3.48-33.94a9.67,9.67,0,0,0,0-1.45,9.07,9.07,0,0,0-9-8.55Z"/><polyline class="cls-5" points="390.1 185.09 391.56 211.21 398.06 250.76 410.46 252.87 408.4 212.4 412.62 175.03 408.82 164.38 380.82 165.96 374.79 210.07 385.97 251.18 398.06 250.76 388.49 210.73 391.18 193.95"/><path class="cls-1" d="M391.08,172.91a1.89,1.89,0,0,1-1.74-2.65l2.07-4.76a1.81,1.81,0,0,1,.4-.57l21.58-21-18.59-18.36a6.66,6.66,0,1,1,9.36-9.47,7.15,7.15,0,0,1,.63.71l18.65,24.64a4.23,4.23,0,0,1-.82,5.93L395.13,168l-2.42,4A1.91,1.91,0,0,1,391.08,172.91Z"/><path class="cls-3" d="M399.49,115.19a5.64,5.64,0,0,1,4,1.63,6.15,6.15,0,0,1,.54.61l18.36,24.26.28.38a3.23,3.23,0,0,1-.63,4.53h0l-27.64,20.71.17-.28-.3.37.13-.1-2.52,4.17a.89.89,0,0,1-1.58-.82l2.07-4.76a.82.82,0,0,1,.18-.26l.12-.11,22.2-21.57-19.31-19.08a5.66,5.66,0,0,1,4-9.68m0-2h0a7.66,7.66,0,0,0-5.38,13.1L412,143.94l-20.73,20.15-.12.12a2.81,2.81,0,0,0-.62.89l-2.07,4.76a2.89,2.89,0,0,0,5.13,2.65l2.32-3.84,27.33-20.47a5.24,5.24,0,0,0,1-7.34l-.29-.38L405.6,116.22a8.2,8.2,0,0,0-.73-.83,7.61,7.61,0,0,0-5.38-2.21Z"/><polyline class="cls-5" points="403.82 135.88 414.65 125.29 406.75 118.74"/><polygon class="cls-9" points="233.9 91.02 237.94 96.03 243.33 92.51 245.63 98.53 251.84 96.84 252.16 103.27 258.59 103.59 256.91 109.81 262.92 112.1 259.4 117.49 264.42 121.53 259.4 125.57 262.92 130.96 256.91 133.25 258.59 139.46 252.16 139.79 251.84 146.21 245.63 144.53 243.33 150.55 237.94 147.03 233.9 152.04 229.87 147.03 224.48 150.55 222.18 144.53 215.97 146.21 215.65 139.79 209.22 139.46 210.9 133.25 204.88 130.96 208.4 125.57 203.39 121.53 208.4 117.49 204.88 112.1 210.9 109.81 209.22 103.59 215.65 103.27 215.97 96.84 222.18 98.53 224.48 92.51 229.87 96.03 233.9 91.02"/><text class="cls-10" transform="translate(224.97 134.11)">?</text><path class="cls-3" d="M232.48,107.61c4.45,0,6.46,2.75,6.46,5.69,0,2.63-1.47,4.53-3.33,6.73a7.64,7.64,0,0,0-2.2,5.69l0,1h-3l-.08-1a8.88,8.88,0,0,1,2.4-6.69c1.74-2,2.71-3.56,2.71-5.3,0-2-1.24-3.29-3.67-3.33a6.88,6.88,0,0,0-3.91,1.2l-.93-2.44a10.14,10.14,0,0,1,5.53-1.55m-.58,22.09a2.42,2.42,0,1,1-2.32,2.44,2.29,2.29,0,0,1,2.32-2.44m.58-24.09a12.14,12.14,0,0,0-6.71,1.93,2,2,0,0,0-.69,2.33l.93,2.44a2,2,0,0,0,3.08.88,5,5,0,0,1,2.7-.79c1.67,0,1.67.81,1.67,1.33,0,1-.58,2.06-2.23,4a11,11,0,0,0-2.87,8.17l.08,1a2,2,0,0,0,1,1.58,4.4,4.4,0,0,0-1.85,3.68,4.3,4.3,0,1,0,8.6,0,4.42,4.42,0,0,0-1.79-3.65,2,2,0,0,0,1.05-1.84l0-1c-.08-1.29.19-2.5,1.73-4.32,1.69-2,3.8-4.51,3.8-8,0-3.7-2.65-7.69-8.46-7.69Z"/></g></g></svg>