<svg xmlns="http://www.w3.org/2000/svg" xmlns:xlink="http://www.w3.org/1999/xlink" viewBox="0 0 392.52 253.19"><defs><style>.cls-1,.cls-2,.cls-3{fill:#767676;}.cls-2,.cls-3{stroke:#fff;stroke-width:2px;}.cls-2{stroke-miterlimit:10;}.cls-3{stroke-linecap:round;stroke-linejoin:round;}.cls-4{fill:#fff;}.cls-5{fill:#ffb600;}.cls-6{clip-path:url(#clip-path);}.cls-7{fill:#525252;}</style><clipPath id="clip-path"><rect class="cls-1" x="103.46" y="38.23" width="289.06" height="153.42"/></clipPath></defs><title>people</title><g id="Layer_2" data-name="Layer 2"><g id="texts"><rect class="cls-2" x="1" y="1" width="207.07" height="111.06" rx="5.37" ry="5.37"/><rect class="cls-3" x="45.69" y="16.39" width="80.56" height="10.7"/><rect class="cls-3" x="5.09" y="16.39" width="36.16" height="10.7"/><rect class="cls-3" x="126.25" y="16.39" width="12.59" height="10.7"/><path class="cls-2" d="M135.61,24.43l-1.54-1.54a2.64,2.64,0,1,0-.79.72l1.58,1.58a.53.53,0,0,0,.75-.75Zm-2.79-1.31a2,2,0,1,1,.78-.69A2,2,0,0,1,132.82,23.12Z"/><line class="cls-3" x1="11.86" y1="81.97" x2="140.98" y2="81.97"/><line class="cls-3" x1="11.86" y1="86.67" x2="140.98" y2="86.67"/><line class="cls-3" x1="11.86" y1="90.87" x2="47.73" y2="90.87"/><rect class="cls-3" x="11.86" y="73.34" width="46.56" height="4.41"/><line class="cls-3" x1="11.86" y1="94.93" x2="140.98" y2="94.93"/><line class="cls-3" x1="11.86" y1="99.63" x2="140.98" y2="99.63"/><line class="cls-3" x1="11.86" y1="103.83" x2="47.73" y2="103.83"/><rect class="cls-3" x="148.52" y="42.2" width="49.71" height="52.87"/><rect class="cls-3" x="153.33" y="46.6" width="14.79" height="4.41"/><rect class="cls-3" x="153.33" y="55.23" width="40.59" height="17.81"/><rect class="cls-3" x="153.33" y="82.11" width="7.39" height="7.39"/><rect class="cls-3" x="164.42" y="82.11" width="7.39" height="7.39"/><rect class="cls-3" x="175.51" y="82.11" width="7.39" height="7.39"/><rect class="cls-3" x="186.6" y="82.11" width="7.39" height="7.39"/><line class="cls-3" x1="153.33" y1="77.7" x2="173.04" y2="77.7"/><rect class="cls-3" x="188.77" y="16.39" width="11.51" height="11.51" rx="5.7" ry="5.7"/><rect class="cls-3" x="173.45" y="16.39" width="11.51" height="11.51" rx="5.7" ry="5.7"/><line class="cls-3" x1="1" y1="11.98" x2="208.07" y2="11.98"/><rect class="cls-3" x="160.12" y="17.03" width="2.26" height="2.26"/><rect class="cls-3" x="164.33" y="17.03" width="2.26" height="2.26"/><rect class="cls-3" x="168.55" y="17.03" width="2.26" height="2.26"/><rect class="cls-3" x="160.12" y="21.02" width="2.26" height="2.26"/><rect class="cls-3" x="164.33" y="21.02" width="2.26" height="2.26"/><rect class="cls-3" x="168.55" y="21.02" width="2.26" height="2.26"/><rect class="cls-3" x="160.12" y="25" width="2.26" height="2.26"/><rect class="cls-3" x="164.33" y="25" width="2.26" height="2.26"/><rect class="cls-3" x="168.55" y="25" width="2.26" height="2.26"/><path class="cls-3" d="M190.19,25.33v0a2,2,0,0,1,2-2h4.5a2,2,0,0,1,2,2v.33"/><path class="cls-3" d="M194.6,22.15h0a1.49,1.49,0,0,1-1.49-1.39l-.07-1a1.49,1.49,0,0,1,1.49-1.59h.17a1.49,1.49,0,0,1,1.49,1.59l-.07,1A1.49,1.49,0,0,1,194.6,22.15Z"/><line class="cls-3" x1="1" y1="31.52" x2="208.07" y2="31.52"/><line class="cls-3" x1="10.76" y1="6.83" x2="77.47" y2="6.83"/><line class="cls-3" x1="199.96" y1="4.84" x2="203.41" y2="8.29"/><line class="cls-3" x1="199.96" y1="8.29" x2="203.41" y2="4.84"/><line class="cls-3" x1="195.17" y1="6.83" x2="190.13" y2="6.83"/><path class="cls-2" d="M65,39h7.3c12.9,0,15.3,5.36,20.26,8.57,3.52,2.28,6.43,1.85,8.33,2.32a7.34,7.34,0,0,1,5,3.53c.71,1.38,1,5.07,1,6.61a2.72,2.72,0,0,1-2.35,3H50.4c-1.15,0-1.73-2-1.82-3.16a22.64,22.64,0,0,1,0-6.12C49.87,47.72,54.63,39,65,39Z"/><circle class="cls-2" cx="60.9" cy="61.89" r="6.11"/><circle class="cls-1" cx="60.9" cy="61.89" r="1.48"/><path class="cls-4" d="M60.9,61.41a.48.48,0,1,1-.48.48.48.48,0,0,1,.48-.48m0-2a2.48,2.48,0,1,0,2.48,2.48,2.48,2.48,0,0,0-2.48-2.48Z"/><circle class="cls-2" cx="93.77" cy="61.89" r="6.11"/><circle class="cls-1" cx="93.76" cy="61.92" r="1.48"/><path class="cls-4" d="M93.76,61.44a.48.48,0,1,1-.48.48.48.48,0,0,1,.48-.48m0-2a2.48,2.48,0,1,0,2.48,2.48,2.48,2.48,0,0,0-2.48-2.48Z"/><path class="cls-1" d="M48,53.62c-.57.2-1.45.73-1.45,1.37v.17a1.67,1.67,0,0,0,1.23,1.38C47.71,55.58,47.94,54.55,48,53.62Z"/><path class="cls-1" d="M103.46,51.29a1.5,1.5,0,0,0-.59,2l.59,1.08a1.5,1.5,0,0,0,2,.59l.15-.08a1.49,1.49,0,0,0,.65-.73,5.86,5.86,0,0,0-.4-1.1A7.36,7.36,0,0,0,104.29,51a1.48,1.48,0,0,0-.68.18Z"/><path class="cls-1" d="M77.17,47.83V41.73a1,1,0,0,1,.94-1,.93.93,0,0,1,.25,0,18.21,18.21,0,0,1,10.23,7Z"/><path class="cls-4" d="M78.17,41.8a17.86,17.86,0,0,1,8.37,5H78.17v-5m-.06-2a2,2,0,0,0-1.94,2v7.09H90.35c-3-5.77-8.54-8.09-11.72-9a1.93,1.93,0,0,0-.52-.07Z"/><rect class="cls-1" x="65.52" y="40" width="7" height="8"/><path class="cls-4" d="M71.52,41v6h-5V41h5m2-2h-9V49h9V39Z"/><path class="cls-1" d="M53.57,47.83c0-1.33,3.62-6.12,7.11-7.27v7.27Z"/><path class="cls-4" d="M59.68,42.12v4.7H55a15.46,15.46,0,0,1,4.64-4.7M61,39.45l-.15,0c-4.74,1.16-10.68,9.36-7.27,9.36h8.1V40.14a.69.69,0,0,0-.67-.69Z"/><rect class="cls-1" x="76.52" y="51" width="4" height="1" rx="0.39" ry="0.39"/><rect class="cls-1" x="64.52" y="51" width="4" height="1" rx="0.39" ry="0.39"/><path class="cls-1" d="M91.52,48.34c0-.33-.64-.34-1-.34h-4c-.33,0-1.06,0-1.06.34v1.38c0,.33.73,1.28,1.06,1.28h4c.33,0,1-.95,1-1.28Z"/><path class="cls-5" d="M30.52,184.52c13.37,0,13.37,11.5,26.74,11.5s13.37-11.5,26.74-11.5S97.37,196,110.74,196s13.37-11.5,26.74-11.5S150.85,196,164.22,196s13.37-11.5,26.74-11.5S204.33,196,217.71,196s13.37-11.5,26.74-11.5S257.82,196,271.2,196s13.37-11.5,26.75-11.5v25.88H30.52Z"/><rect class="cls-1" x="103.46" y="38.23" width="289.06" height="153.42"/><g class="cls-6"><path class="cls-1" d="M187,241.45a4.36,4.36,0,0,1-4.18-2.87,4.48,4.48,0,0,1,1.52-5.15,18.64,18.64,0,0,1,4.49-2.4L187,190.77a3.37,3.37,0,0,1,0-.35l0-.46,1.12-33.8a10.3,10.3,0,0,1,10.34-10h.35a10.36,10.36,0,0,1,10,10.68,10.86,10.86,0,0,1-.18,1.62l-6.45,33-2.09,40.88c0,.54-.06,1.08-.08,1.62,0,.18,0,.37,0,.56a9.85,9.85,0,0,1-.22,2.5,5,5,0,0,1-5,3.9,9.27,9.27,0,0,1-1.92-.23,5.8,5.8,0,0,0-1.2-.12,8.27,8.27,0,0,0-1.69.19l-.34.12A8,8,0,0,1,187,241.45Z"/><path class="cls-7" d="M198.46,149.51h.24a7,7,0,0,1,6.75,7.22,7.63,7.63,0,0,1-.13,1.11l-6.49,33.25,0-.44,0,.46v0l-.09,1.81-.3,5.85-.41,8.11-.46,9-.44,8.6-.35,6.83c0,.84-.1,1.69-.13,2.53a11.92,11.92,0,0,1-.13,2.38,1.6,1.6,0,0,1-1.74,1.35,6.08,6.08,0,0,1-1.22-.16,9.13,9.13,0,0,0-1.89-.19,11.58,11.58,0,0,0-2.38.26,11.59,11.59,0,0,1-2.29.59,1,1,0,0,1-1-.69,1.11,1.11,0,0,1,.38-1.28,18.53,18.53,0,0,1,6-2.72l-2-42.79,0-.46,1.12-33.88a7,7,0,0,1,7-6.76m0-6.71h0A13.64,13.64,0,0,0,184.78,156l-1.12,33.8,0,.38a6.8,6.8,0,0,0,0,.7l1.75,38a20.29,20.29,0,0,0-3,1.85,7.85,7.85,0,0,0-2.66,9,7.74,7.74,0,0,0,7.32,5,11.19,11.19,0,0,0,3.73-.73l.12,0a4.65,4.65,0,0,1,.82-.08,2.46,2.46,0,0,1,.5,0,12.64,12.64,0,0,0,2.61.3,8.27,8.27,0,0,0,8.25-6.45,13.06,13.06,0,0,0,.32-3.32c0-.14,0-.28,0-.41,0-.52,0-1,.08-1.55l0-.9,0-.63.32-6.2.22-4.31.22-4.3.23-4.52.23-4.51.41-8.11.3-5.8.07-1.39,6.4-32.78v-.05a14.39,14.39,0,0,0,.24-2.12,13.7,13.7,0,0,0-13.24-14.15Z"/><path class="cls-1" d="M174.72,165.09a4.24,4.24,0,0,1-1.42-8.24l3.86-1.37,9.56-30.13,4.38-27.94A8.93,8.93,0,0,1,200,89.81a9.06,9.06,0,0,1,1.4.11,9,9,0,0,1,7.48,10.26,9.44,9.44,0,0,1-.27,1.19L199.31,132a6.57,6.57,0,0,1-4.74,4.45l-11.27,24a3.36,3.36,0,0,1-2.65,3.56L175.6,165A4.24,4.24,0,0,1,174.72,165.09Z"/><path class="cls-7" d="M200,93.17a5.63,5.63,0,0,1,5.56,6.49,6.16,6.16,0,0,1-.17.76l-9.1,30.11-.14.46a3.17,3.17,0,0,1-3.71,2.17l-13,27.52.51,0-5.05,1.07-.19,0a.89.89,0,0,1-.3-1.73l4.86-1.73a.83.83,0,0,1,.28,0h.23L190,126.11l4.42-28.19A5.62,5.62,0,0,1,200,93.17M179.52,161h0M200,86.46h0a12.27,12.27,0,0,0-12.18,10.42l-4.34,27.69-9,28.3-2.29.82a7.6,7.6,0,0,0,4.13,14.59l4.92-1a6.72,6.72,0,0,0,5.43-6.11l10.35-22a9.81,9.81,0,0,0,5.53-6.21l.14-.46,9.1-30.11a13,13,0,0,0,.38-1.66A12.34,12.34,0,0,0,200,86.46Z"/><path class="cls-1" d="M204.69,160.71a21.42,21.42,0,0,1-6.7-1.15,18.16,18.16,0,0,1-9.69-6.82c-2.36-3.55-2.81-7.83-1.31-12.38.5-1.51.82-7.28,1.13-12.86.88-15.87,2.08-37.6,9.25-45.73a3.49,3.49,0,0,1,1.81-1.07,17.16,17.16,0,0,0,.48-1.81A3.36,3.36,0,0,1,204,76.38l3.65,1.2a3.36,3.36,0,0,1,2.3,3.27c0,1.64-.06,3.68,0,4.09.47,3.63,1.56,10,2.82,17.45,4.94,29.1,7,43.74,5.53,48.3C216.15,157.06,211.21,160.71,204.69,160.71Z"/><path class="cls-7" d="M202.95,79.57l3.65,1.2s-.1,3.92,0,4.5c1.69,13.08,10.62,57.93,8.49,64.36-1.8,5.45-5.75,7.72-10.38,7.72a18.14,18.14,0,0,1-5.64-1c-6.87-2.27-11.36-7.38-8.86-15,2.07-6.28.45-46.93,9.7-57.42l.06,0c.16,0,.56.29.9.29a.43.43,0,0,0,.31-.12c1.09-1.07,1.79-4.58,1.79-4.58m0-6.71a6.71,6.71,0,0,0-6.58,5.37v.06a6.74,6.74,0,0,0-1.5,1.27c-7.35,8.33-8.91,26.56-10.08,47.77-.26,4.72-.58,10.58-1,12-2.3,7-.34,12.16,1.71,15.25a21.45,21.45,0,0,0,11.43,8.15,24.77,24.77,0,0,0,7.75,1.32c7.94,0,14.21-4.61,16.75-12.33,1.75-5.29-.16-19-5.4-49.91-1.23-7.23-2.29-13.49-2.78-17.19,0-.61,0-2.34,0-3.71a6.71,6.71,0,0,0-4.6-6.53l-3.65-1.2a6.71,6.71,0,0,0-2.1-.34Z"/><path class="cls-1" d="M217.44,244.44a4.33,4.33,0,0,1-3.56-1.87,4.48,4.48,0,0,1,.16-5.37,18.62,18.62,0,0,1,3.73-3.46l-12-38.46a3.36,3.36,0,0,1-.09-.34l-.09-.45-7.52-33a10.35,10.35,0,1,1,20.17-4.6,10.89,10.89,0,0,1,.24,1.61l2.17,33.59L229,232.19c.11.52.21,1,.33,1.57,0,.18.09.36.14.54a9.85,9.85,0,0,1,.42,2.47c0,1.18-.34,5-5.75,5.31a7,7,0,0,0-2.77.8l-.3.2A6.5,6.5,0,0,1,217.44,244.44Z"/><path class="cls-7" d="M208.13,152.22a7,7,0,0,1,6.81,5.44,7.58,7.58,0,0,1,.16,1.1l2.19,33.81-.09-.43.09.45v0l.37,1.78,1.2,5.74,1.66,8,1.85,8.85,1.77,8.43,1.4,6.7c.17.83.33,1.66.52,2.48a12,12,0,0,1,.48,2.33c0,1.6-1.26,1.84-2.56,1.9a10.37,10.37,0,0,0-4.11,1.15c-.63.32-1.6,1.21-2.42,1.21a1,1,0,0,1-.82-.46,1.11,1.11,0,0,1,0-1.33,18.53,18.53,0,0,1,5.07-4.14l-12.8-40.88-.09-.45-7.54-33.05a7,7,0,0,1,6.82-8.55m0-6.71h0a13.71,13.71,0,0,0-13.36,16.75l7.52,33,.07.37a6.71,6.71,0,0,0,.17.68l11.35,36.26a20.3,20.3,0,0,0-2.46,2.56,7.85,7.85,0,0,0-.28,9.41,7.64,7.64,0,0,0,6.3,3.28,9.66,9.66,0,0,0,5.49-1.93l.1-.07a3.63,3.63,0,0,1,1.27-.37c7.16-.35,9-5.64,8.94-8.71a13.07,13.07,0,0,0-.53-3.29c0-.13-.07-.27-.1-.4-.11-.51-.22-1-.32-1.54l-.18-.86-1.4-6.7-1.16-5.55-.6-2.88-1.72-8.24-.13-.61-1.66-8-.48-2.3-.72-3.44-.27-1.28v0l-2.16-33.33a14.46,14.46,0,0,0-.31-2.16,13.63,13.63,0,0,0-13.35-10.66Z"/><path class="cls-1" d="M204.13,84.32a7.62,7.62,0,0,1-2-.25,8.86,8.86,0,0,1-5.39-4.49c-2.58-4.5-3-11.29-1.87-15.26a12.44,12.44,0,0,1,11.94-9.09,12.27,12.27,0,0,1,3.15.41,12.14,12.14,0,0,1,8.57,15c-1.55,5.56-7.94,13.64-14.44,13.64Z"/><path class="cls-7" d="M206.86,58.58a8.9,8.9,0,0,1,2.29.3,8.79,8.79,0,0,1,6.2,10.89C214.12,74.17,208.7,81,204.13,81a4.25,4.25,0,0,1-1.09-.14c-4.75-1.26-6.21-10.85-4.88-15.61a9.07,9.07,0,0,1,8.7-6.63m0-6.71a15.8,15.8,0,0,0-15.17,11.54c-1.27,4.57-.93,12.37,2.19,17.83a12.14,12.14,0,0,0,7.44,6.07,11,11,0,0,0,2.81.36c8.5,0,15.84-9.52,17.67-16.1a15.5,15.5,0,0,0-10.94-19.18,15.62,15.62,0,0,0-4-.52Z"/><path class="cls-1" d="M174.92,104.2a6.54,6.54,0,0,1-6.46-5.69l-3.72-29.44-2.14-3.49a4.24,4.24,0,0,1,6.91-4.9l3.26,4a4.17,4.17,0,0,1,.78,1.51L180,89.58l25-4.72A9,9,0,0,1,215.52,92a9,9,0,0,1-7.16,10.48,9.46,9.46,0,0,1-1.2.14l-31.92,1.55Z"/><path class="cls-7" d="M166.22,62.47a.89.89,0,0,1,.69.33l3.26,4a.82.82,0,0,1,.16.3l0,.17,7.25,26.18,28-5.29a5.62,5.62,0,1,1,2.08,11,6.18,6.18,0,0,1-.77.09l-31.41,1.52-.48,0h-.15a3.18,3.18,0,0,1-3.14-2.77L168,67.93l.18.29-.2-.47,0,.18-2.52-4.11a.89.89,0,0,1,.76-1.35m0-6.71a7.6,7.6,0,0,0-6.47,11.58l1.76,2.87,3.62,28.72a9.91,9.91,0,0,0,9.79,8.64h.48l.48,0L207.3,106a13.07,13.07,0,0,0,1.69-.2,12.33,12.33,0,1,0-4.57-24.24l-22,4.15-5.6-20.23,0-.17a7.51,7.51,0,0,0-1.43-2.76l-3.25-4a7.57,7.57,0,0,0-5.89-2.8Z"/><path class="cls-1" d="M354.13,244.54a7.82,7.82,0,0,1-2.74-.61l-.37-.13a8,8,0,0,0-1.79-.21,5.7,5.7,0,0,0-1.06.09,9.54,9.54,0,0,1-1.78.19,5,5,0,0,1-5.06-4,9.85,9.85,0,0,1-.17-2.5c0-.19,0-.37,0-.56,0-.54,0-1.07,0-1.6l-1.22-40.93-5.74-33.15a11,11,0,0,1-.15-1.64,10.31,10.31,0,0,1,2.94-7.37,10.16,10.16,0,0,1,7.28-3.13h.12a10.39,10.39,0,0,1,10.34,10.24l.4,33.91,0,.38a3.4,3.4,0,0,1,0,.35l-2.71,40.21a18.64,18.64,0,0,1,4.44,2.5,4.48,4.48,0,0,1,1.41,5.19A4.36,4.36,0,0,1,354.13,244.54Z"/><path class="cls-7" d="M344.36,152a7.16,7.16,0,0,1,7,7.1l.4,34,0,.51-2.88,42.76a18.56,18.56,0,0,1,5.9,2.85,1.12,1.12,0,0,1,.35,1.29,1,1,0,0,1-1,.67,10.86,10.86,0,0,1-2.31-.64,11.44,11.44,0,0,0-2.58-.31,9,9,0,0,0-1.68.15,6.35,6.35,0,0,1-1.16.13,1.61,1.61,0,0,1-1.78-1.38,11.9,11.9,0,0,1-.08-2.38c0-.84-.05-1.69-.08-2.53l-.2-6.84-.26-8.61q-.13-4.52-.27-9l-.24-8.12-.17-5.86-.05-1.82v0l0-.46v.44l-5.78-33.38a10.38,10.38,0,0,1-.1-1.3,7.13,7.13,0,0,1,6.91-7.26h.25m-.16-6h-.16a13.28,13.28,0,0,0-9.64,4,13.42,13.42,0,0,0-3.9,9.65,13.74,13.74,0,0,0,.19,2.09l5.71,32.93,0,1.33.13,4.39,0,1.46v.45l.23,7.66v.48l.25,8.56.13,4.3.13,4.31.2,6.84,0,.91c0,.51,0,1,0,1.54,0,.13,0,.27,0,.41a13.08,13.08,0,0,0,.25,3.32,8.27,8.27,0,0,0,8.33,6.62,12.93,12.93,0,0,0,2.4-.25,2.37,2.37,0,0,1,.43,0,4.51,4.51,0,0,1,.89.1l.11,0a11,11,0,0,0,3.9.81,7.66,7.66,0,0,0,7.24-4.89,7.85,7.85,0,0,0-2.47-9.08,20.3,20.3,0,0,0-3-1.92l2.56-37.91a6.67,6.67,0,0,0,0-.7V193l-.4-33.65A13.61,13.61,0,0,0,344.36,146Z"/><path class="cls-1" d="M364.48,168.39a3.36,3.36,0,0,1-3.28-2.85L342,141.49a6.6,6.6,0,0,1-4.47-6.1L337,103.13a9.59,9.59,0,0,1,.07-1.25,9,9,0,0,1,18,2.2l-3.88,28.1,15.06,27.2,4.13.6a4.25,4.25,0,0,1-.61,8.46Z"/><path class="cls-7" d="M346.07,97.31a5.75,5.75,0,0,1,.7,0,5.69,5.69,0,0,1,5,6.33l-4,29.16,16.5,29.79.17,0a.84.84,0,0,1,.22,0h.12l5.17.75a.85.85,0,0,1-.13,1.69h-5.24l.51,0-21.11-26.48a3.21,3.21,0,0,1-3-3.13v-.49l-.52-31.77a6.21,6.21,0,0,1,0-.78,5.68,5.68,0,0,1,5.64-5m0-6.71a12.4,12.4,0,0,0-12.3,10.88,13,13,0,0,0-.09,1.66L334.2,135v.49a10,10,0,0,0,5.75,8.81l18.16,22.8a6.8,6.8,0,0,0,6.33,4.79l5.23.15h.08a7.69,7.69,0,0,0,1.09-15.28l-2.47-.38-13.72-24.78,3.72-26.95v-.11a12.42,12.42,0,0,0-12.32-13.9Z"/><path class="cls-1" d="M337.91,169.24c-7.21,0-12.38-4-14.2-11-1.22-4.69,1.85-19.35,8.76-48.41,1.76-7.41,3.28-13.81,4-17.54,0-.32.15-2.38.22-4a3.36,3.36,0,0,1,2.51-3.11l3.76-1a3.36,3.36,0,0,1,4.17,2.8,17.08,17.08,0,0,0,.38,1.89A3.49,3.49,0,0,1,349.26,90c6.7,8.67,6.48,30.69,6.32,46.77-.06,5.66-.11,11.51.29,13.08,2.28,8.77-2.57,16.08-12.34,18.62a22.5,22.5,0,0,1-5.63.76Z"/><path class="cls-7" d="M343.8,87.39s.48,3.59,1.51,4.74a.45.45,0,0,0,.35.14,6.37,6.37,0,0,0,.88-.23.08.08,0,0,1,.06,0c8.66,11.2,4.34,52.17,6,58.64,2,7.81-2.84,12.69-9.93,14.53a19.17,19.17,0,0,1-4.79.65c-5.12,0-9.4-2.5-11-8.51-1.72-6.63,10.25-51.36,12.81-64.46.11-.58.28-4.55.28-4.55l3.76-1m0-6.71a6.71,6.71,0,0,0-1.69.22l-3.76,1a6.71,6.71,0,0,0-5,6.22c-.06,1.39-.15,3.14-.2,3.76-.73,3.7-2.22,10-3.94,17.19-7.32,30.82-10.15,44.58-8.74,50,2.2,8.48,8.72,13.54,17.45,13.54a25.87,25.87,0,0,0,6.48-.87,21.63,21.63,0,0,0,12-7.45c2.27-3,4.58-8,2.72-15.22-.3-1.48-.24-7.44-.2-12.23.21-21.49-.17-40-7-48.86a6.81,6.81,0,0,0-1.45-1.39V86.5a6.71,6.71,0,0,0-6.65-5.81Z"/><path class="cls-1" d="M342.19,89.88c-7.37,0-12.61-10.64-13-16.43a12.38,12.38,0,0,1,11.48-13.19q.43,0,.86,0a12.4,12.4,0,0,1,12.33,11.51,22.86,22.86,0,0,1-2.35,10.69c-2.19,4.55-5.31,7.19-8.8,7.43Z"/><path class="cls-7" d="M341.52,63.59a9,9,0,0,1,9,8.39c.34,5-3.06,14.19-8,14.54h-.29c-4.86,0-9.33-8.43-9.67-13.3a9,9,0,0,1,8.37-9.61l.63,0m0-6.71c-.36,0-.73,0-1.09,0a15.74,15.74,0,0,0-14.6,16.77c.47,6.82,6.51,19.55,16.36,19.55l.75,0c4.74-.33,8.85-3.64,11.59-9.32a26.39,26.39,0,0,0,2.67-12.37,15.77,15.77,0,0,0-15.68-14.64Z"/><path class="cls-1" d="M351.49,170.18a4.29,4.29,0,0,1-.67-.05l-5.16-.83a3.36,3.36,0,0,1-2.82-3.31l-15.37-26.65a6.6,6.6,0,0,1-3.52-6.7l4.28-32a9.59,9.59,0,0,1,.25-1.22,9,9,0,0,1,17.43,4.85l-8,27.23,10.85,29.16,4,1.2a4.25,4.25,0,0,1-1.23,8.33Z"/><path class="cls-7" d="M337.18,96.15a5.7,5.7,0,0,1,5.49,7.21l-8.32,28.25,11.88,31.93.18,0h.1a.84.84,0,0,1,.24,0l5,1.51a.9.9,0,0,1-.26,1.76h-.14l-5.16-.83h.52l-16.93-29.35a3.21,3.21,0,0,1-2.5-3.55l.06-.49,4.21-31.52a6.3,6.3,0,0,1,.16-.77,5.69,5.69,0,0,1,5.47-4.16m0-6.71a12.43,12.43,0,0,0-11.94,9.07,13.05,13.05,0,0,0-.34,1.63v.05l-4.21,31.52-.06.49a10,10,0,0,0,4.37,9.57L339.55,167a6.71,6.71,0,0,0,5.56,5.58l5.16.83a7.61,7.61,0,0,0,3.4-14.8l-2.39-.72-9.88-26.55,7.69-26.11,0-.1a12.41,12.41,0,0,0-12-15.72Z"/><path class="cls-1" d="M323.78,248.75a6.5,6.5,0,0,1-3.62-1.36l-.33-.22a7,7,0,0,0-2.74-.78c-5.41-.27-5.77-4.13-5.75-5.31a9.86,9.86,0,0,1,.42-2.47c0-.18.1-.36.14-.54.12-.52.22-1,.33-1.57l8.39-40.08,2.17-33.57a11,11,0,0,1,.24-1.63,10.35,10.35,0,0,1,20.17,4.6l-7.54,33.05-.07.37a3.4,3.4,0,0,1-.09.34l-12,38.46a18.63,18.63,0,0,1,3.73,3.47,4.48,4.48,0,0,1,.16,5.37A4.33,4.33,0,0,1,323.78,248.75Z"/><path class="cls-7" d="M333.1,156.53a7,7,0,0,1,6.82,8.55l-7.54,33.05-.09.45-12.8,40.88a18.53,18.53,0,0,1,5.07,4.14,1.11,1.11,0,0,1,0,1.33,1,1,0,0,1-.82.46c-.81,0-1.79-.89-2.42-1.21a10.38,10.38,0,0,0-4.11-1.15c-1.31-.06-2.59-.3-2.56-1.9a12,12,0,0,1,.48-2.33c.18-.82.35-1.65.52-2.48l1.4-6.7,1.77-8.43,1.85-8.85,1.66-8,1.2-5.74.37-1.78v0l.09-.45-.09.43,2.19-33.81a7.58,7.58,0,0,1,.16-1.1,7,7,0,0,1,6.81-5.44m0-6.71a13.63,13.63,0,0,0-13.35,10.66,14.33,14.33,0,0,0-.31,2.11L317.28,196l-.27,1.31L315.8,203l-1.66,8-.93,4.43-.93,4.43-1.5,7.19-.26,1.24-1.4,6.7-.18.89c-.1.5-.2,1-.32,1.5,0,.13-.07.27-.1.4A13.07,13.07,0,0,0,308,241c0,3.07,1.78,8.36,8.94,8.71a3.63,3.63,0,0,1,1.27.37l.1.07a9.66,9.66,0,0,0,5.49,1.93,7.64,7.64,0,0,0,6.3-3.29,7.85,7.85,0,0,0-.28-9.41,20.33,20.33,0,0,0-2.46-2.57l11.35-36.26a6.85,6.85,0,0,0,.17-.68l.08-.37,7.52-33a13.71,13.71,0,0,0-13.36-16.75Z"/><path class="cls-1" d="M223.38,245.62a4.36,4.36,0,0,1-4.13-2.78,4.48,4.48,0,0,1,1.41-5.19,18.63,18.63,0,0,1,4.44-2.49L222.39,195a3.34,3.34,0,0,1,0-.35l0-.46.4-33.87A10.43,10.43,0,0,1,233.15,150h.13a10.36,10.36,0,0,1,10.22,10.52,11.37,11.37,0,0,1-.15,1.65l-5.74,33.18-1.22,40.92c0,.54,0,1.08,0,1.62,0,.18,0,.37,0,.56a9.85,9.85,0,0,1-.17,2.5,5,5,0,0,1-5.06,4,9.52,9.52,0,0,1-1.78-.19,5.75,5.75,0,0,0-1.06-.09,8.09,8.09,0,0,0-1.82.22l-.34.12A7.82,7.82,0,0,1,223.38,245.62Z"/><path class="cls-7" d="M233.52,153h-.29c3.86,1,7,3.44,6.91,7.3a9.28,9.28,0,0,1-.1,1.23L234.26,195v-.41l0,.48v0l-.05,1.82q-.09,2.93-.17,5.86l-.24,8.12-.27,9-.26,8.61-.2,6.84c0,.84-.06,1.69-.08,2.53a11.9,11.9,0,0,1-.08,2.38,1.61,1.61,0,0,1-1.78,1.38,6.36,6.36,0,0,1-1.16-.13,9,9,0,0,0-1.68-.15,11.44,11.44,0,0,0-2.58.31,10.88,10.88,0,0,1-2.31.64,1,1,0,0,1-1-.67,1.11,1.11,0,0,1,.35-1.29,18.53,18.53,0,0,1,5.9-2.84l-2.88-42.74,0-.46.4-34.13a7.19,7.19,0,0,1,7-7.14m0-6v-.12a13.7,13.7,0,0,0-13.7,13.48l-.4,33.78v.36a6.66,6.66,0,0,0,0,.7l2.56,37.9a20.31,20.31,0,0,0-3,1.92,7.86,7.86,0,0,0-2.47,9.08,7.66,7.66,0,0,0,7.25,4.89,11,11,0,0,0,3.9-.81l.11,0a4.51,4.51,0,0,1,.89-.1,2.35,2.35,0,0,1,.43,0,13,13,0,0,0,2.4.25,8.27,8.27,0,0,0,8.33-6.62,13,13,0,0,0,.25-3.32c0-.14,0-.28,0-.41,0-.52,0-1,0-1.56l0-.89.1-3.53.1-3.31v-.24l.25-8.37.13-4.52.13-4.52.24-8.12.17-5.56V197l0-1.11v-.23l5.7-32.91v-.05a12.49,12.49,0,0,0,.19-2A13.55,13.55,0,0,0,233.32,147Z"/><path class="cls-1" d="M207.76,169.53a4.25,4.25,0,0,1-.61-8.46l4.12-.6,15.06-27.2-3.87-28A9,9,0,1,1,240.41,103a9.58,9.58,0,0,1,.07,1.22l-.53,32.28a6.6,6.6,0,0,1-4.47,6.1l-19.16,24.06a3.36,3.36,0,0,1-3.28,2.85Z"/><path class="cls-7" d="M231.44,98.39a5.68,5.68,0,0,1,5.64,5,6.32,6.32,0,0,1,0,.78l-.52,31.77v.49a3.21,3.21,0,0,1-3,3.14L212.48,166l.51,0-5.23,0h0a.83.83,0,0,1-.9-.8.86.86,0,0,1,.77-.85l5.17-.73h.12a.85.85,0,0,1,.22,0l.17.05,16.5-29.79-4-29.16a5.69,5.69,0,0,1,5-6.33,5.75,5.75,0,0,1,.7,0m0-6.71a12.41,12.41,0,0,0-12.32,13.9v.1l3.72,26.94-13.72,24.77-2.48.36A7.67,7.67,0,0,0,207.76,173h.06l5.25-.11a6.74,6.74,0,0,0,6.33-4.72l18.16-22.81a10,10,0,0,0,5.75-8.82l-.15-.49.37-31.78v-.06a9.87,9.87,0,0,0,.06-1.65,12.25,12.25,0,0,0-12.14-10.88Z"/><path class="cls-1" d="M239.6,170.32a22.5,22.5,0,0,1-5.63-.76c-9.77-2.54-14.62-9.84-12.34-18.62.41-1.57.35-7.42.29-13.07-.16-16.08-.37-38.11,6.32-46.78A3.48,3.48,0,0,1,230,89.91a17.33,17.33,0,0,0,.38-1.89,3.36,3.36,0,0,1,4.17-2.8l3.76,1a3.35,3.35,0,0,1,2.51,3.11c.07,1.66.18,3.72.23,4.14.71,3.64,2.23,10,4,17.44,6.9,29.06,10,43.71,8.76,48.4C252,166.3,246.81,170.32,239.6,170.32Z"/><path class="cls-7" d="M233.71,88.47l3.76,1s.16,4,.28,4.55c2.56,13.1,14.53,57.83,12.81,64.46-1.56,6-5.84,8.51-11,8.51a19.17,19.17,0,0,1-4.79-.65c-7.09-1.84-12-6.71-9.93-14.53,1.68-6.48-2.63-47.44,6-58.64a.08.08,0,0,1,.06,0,6.35,6.35,0,0,0,.88.23.45.45,0,0,0,.35-.14c1-1.15,1.51-4.74,1.51-4.74m0-6.71a6.71,6.71,0,0,0-6.65,5.81v.08a6.8,6.8,0,0,0-1.46,1.4c-6.85,8.86-7.23,27.37-7,48.85,0,4.79.11,10.75-.2,12.23-1.86,7.2.45,12.26,2.72,15.23a21.63,21.63,0,0,0,12,7.45,25.86,25.86,0,0,0,6.48.87c8.73,0,15.25-5.06,17.45-13.54,1.41-5.44-1.42-19.21-8.74-50-1.72-7.23-3.2-13.49-3.94-17.18-.05-.62-.14-2.36-.2-3.76a6.71,6.71,0,0,0-5-6.22l-3.76-1a6.71,6.71,0,0,0-1.69-.22Z"/><path class="cls-1" d="M235.32,91l-.52,0c-7.65-.53-11.56-12-11.14-18.12A12.4,12.4,0,0,1,236,61.31c.29,0,.57,0,.86,0a12.37,12.37,0,0,1,11.48,13.19c-.4,5.79-5.65,16.43-13,16.43Z"/><path class="cls-7" d="M236,64.67l.63,0A9,9,0,0,1,245,74.3c-.34,4.87-4.81,13.3-9.67,13.3H235c-5-.34-8.37-9.57-8-14.54a9,9,0,0,1,9-8.39M236,58a15.77,15.77,0,0,0-15.68,14.64A26.39,26.39,0,0,0,223,85c2.73,5.68,6.85,9,11.59,9.32l.75,0c9.85,0,15.89-12.73,16.36-19.55A15.74,15.74,0,0,0,237.08,58c-.36,0-.73,0-1.09,0Z"/><path class="cls-1" d="M226,171.26a4.25,4.25,0,0,1-1.23-8.33l4-1.2,10.85-29.15-8-27.18a9,9,0,1,1,17.41-4.9,9.62,9.62,0,0,1,.25,1.2l4.28,32a6.6,6.6,0,0,1-3.52,6.7l-15.37,26.65a3.36,3.36,0,0,1-2.82,3.31l-5.16.83A4.27,4.27,0,0,1,226,171.26Z"/><path class="cls-7" d="M240.33,97.23a5.68,5.68,0,0,1,5.47,4.16,6.12,6.12,0,0,1,.16.77l4.21,31.52.06.49a3.21,3.21,0,0,1-2.5,3.55l-16.93,29.35h.52l-5.16.83H226a.9.9,0,0,1-.26-1.76l5-1.51a.84.84,0,0,1,.24,0h.1l.18,0,11.88-31.93-8.32-28.25a5.7,5.7,0,0,1,5.49-7.21M231.52,167h0m8.81-76.48a12.41,12.41,0,0,0-12,15.72l0,.1,7.69,26.11L226.22,159l-2.4.72a7.61,7.61,0,0,0,3.41,14.8l5.05-.81a6.67,6.67,0,0,0,2.58-.94h0l.47-.32A6.71,6.71,0,0,0,238,168.1l14.56-25.25a10,10,0,0,0,4.37-9.58l-.06-.49-4.21-31.52a12.91,12.91,0,0,0-.34-1.68,12.43,12.43,0,0,0-11.94-9.07Z"/><path class="cls-1" d="M253.73,249.83a4.33,4.33,0,0,1-3.56-1.87,4.48,4.48,0,0,1,.16-5.37,18.63,18.63,0,0,1,3.73-3.46l-12-38.46a3.36,3.36,0,0,1-.09-.34l-.09-.45-7.52-33a10.35,10.35,0,1,1,20.17-4.6,10.94,10.94,0,0,1,.24,1.61l2.17,33.59,8.39,40.08c.11.52.21,1,.33,1.57,0,.18.09.36.14.54a9.84,9.84,0,0,1,.42,2.47c0,1.18-.34,5-5.75,5.31a7,7,0,0,0-2.77.8l-.3.2A6.5,6.5,0,0,1,253.73,249.83Z"/><path class="cls-7" d="M244.41,157.61a7,7,0,0,1,6.81,5.44,7.51,7.51,0,0,1,.16,1.1L253.57,198l-.09-.43.09.45v0l.37,1.78,1.2,5.74,1.66,8,1.85,8.85,1.76,8.43,1.4,6.7c.17.83.33,1.66.52,2.48a11.89,11.89,0,0,1,.48,2.33c0,1.6-1.26,1.84-2.56,1.9a10.37,10.37,0,0,0-4.11,1.15c-.63.32-1.6,1.21-2.42,1.21a1,1,0,0,1-.82-.46,1.11,1.11,0,0,1,0-1.33,18.53,18.53,0,0,1,5.07-4.14l-12.8-40.88-.09-.45-7.54-33.05a7,7,0,0,1,6.82-8.55m0-6.71h0A13.71,13.71,0,0,0,231,167.65l7.52,33,.08.37a6.85,6.85,0,0,0,.17.68l11.35,36.26a20.28,20.28,0,0,0-2.46,2.56,7.85,7.85,0,0,0-.28,9.41,7.64,7.64,0,0,0,6.3,3.29,9.66,9.66,0,0,0,5.49-1.93l.1-.07a3.63,3.63,0,0,1,1.27-.37c7.16-.35,9-5.64,8.94-8.71a13,13,0,0,0-.53-3.29c0-.13-.07-.27-.1-.4-.11-.5-.21-1-.32-1.5l-.19-.9-.92-4.41-.48-2.29L265.25,221l0-.09-.93-4.42-.93-4.43-1.66-8-1.19-5.67v-.07l-.05-.24-.22-1.07-2.16-33.33a14.37,14.37,0,0,0-.31-2.16,13.63,13.63,0,0,0-13.35-10.66Z"/><path class="cls-1" d="M148.75,241.45a4.36,4.36,0,0,1-4.18-2.87,4.49,4.49,0,0,1,1.52-5.15,18.63,18.63,0,0,1,4.49-2.4l-1.86-40.26a3.37,3.37,0,0,1,0-.35l0-.46,1.12-33.8a10.3,10.3,0,0,1,10.34-10h.35a10.36,10.36,0,0,1,10,10.68,10.92,10.92,0,0,1-.18,1.61l-6.45,33-2.09,40.89c0,.54-.06,1.07-.08,1.6,0,.18,0,.37,0,.56a9.84,9.84,0,0,1-.23,2.5,5,5,0,0,1-5,3.9,9.27,9.27,0,0,1-1.92-.23,5.8,5.8,0,0,0-1.2-.12,8.27,8.27,0,0,0-1.69.19l-.34.12A8,8,0,0,1,148.75,241.45Z"/><path class="cls-7" d="M160.21,149.51h.24a7,7,0,0,1,6.75,7.22,7.5,7.5,0,0,1-.13,1.11l-6.49,33.25,0-.44,0,.46v0l-.09,1.81-.3,5.85-.41,8.11-.46,9-.44,8.6-.35,6.83c0,.84-.1,1.69-.13,2.53a12,12,0,0,1-.13,2.38,1.6,1.6,0,0,1-1.74,1.35,6.08,6.08,0,0,1-1.22-.16,9.13,9.13,0,0,0-1.89-.19,11.59,11.59,0,0,0-2.38.26,11.59,11.59,0,0,1-2.29.59,1,1,0,0,1-1-.69,1.11,1.11,0,0,1,.38-1.28,18.53,18.53,0,0,1,6-2.72l-2-42.79,0-.46,1.12-33.88a7,7,0,0,1,7-6.76m0-6.71h0A13.64,13.64,0,0,0,146.52,156l-1.12,33.8,0,.38a6.8,6.8,0,0,0,0,.7l1.75,38a20.32,20.32,0,0,0-3,1.85,7.85,7.85,0,0,0-2.66,9,7.74,7.74,0,0,0,7.32,5,11.19,11.19,0,0,0,3.73-.73l.11,0a4.65,4.65,0,0,1,.82-.08,2.46,2.46,0,0,1,.5,0,12.64,12.64,0,0,0,2.61.3,8.27,8.27,0,0,0,8.25-6.45,13.09,13.09,0,0,0,.32-3.32c0-.14,0-.28,0-.41,0-.51,0-1,.08-1.53l0-.91,0-.63.32-6.2.44-8.6.23-4.52.23-4.52.41-8.11.12-2.34.18-3.51.06-1.14v-.19l6.4-32.78a14.39,14.39,0,0,0,.25-2.18,13.7,13.7,0,0,0-13.24-14.14Z"/><path class="cls-1" d="M150.29,120.87a5.92,5.92,0,0,1-3.12-.89l-25.45-7.4a3.4,3.4,0,0,1-.59-.11l-4-1.14a4.07,4.07,0,0,1-2.8-5,4.07,4.07,0,0,1,4.5-2.91L123,104a4,4,0,0,1,.9.24l23.48,3.1,6.23-17.52a3.35,3.35,0,0,1,.47-.88,7.92,7.92,0,0,1,6.32-3.17,7.88,7.88,0,0,1,6.31,12.59c-.12.17-.25.32-.36.45l-11,19.35a3.36,3.36,0,0,1-.53.7l-.27.28A5.85,5.85,0,0,1,150.29,120.87Z"/><path class="cls-7" d="M160.35,89.11A4.52,4.52,0,0,1,164,96.33a5,5,0,0,1-.41.47l-11.19,19.68-.27.28a2.55,2.55,0,0,1-3.45.15l-27-7.85.38.17-4-1.14a.71.71,0,0,1,.2-1.4h.1l4.11.59a.67.67,0,0,1,.26.09l.12.08L149.58,111l7.14-20.07a4.52,4.52,0,0,1,3.63-1.82m0-6.71h0a11.29,11.29,0,0,0-9,4.51,6.71,6.71,0,0,0-.95,1.77l-5.32,15-20.45-2.7a7.34,7.34,0,0,0-1.2-.28l-4.11-.59a7.43,7.43,0,0,0-3.1,14.49l4,1.14a6.78,6.78,0,0,0,.81.18l24.81,7.22a9.29,9.29,0,0,0,4.44,1.13,9.18,9.18,0,0,0,6.58-2.75l.27-.28a6.71,6.71,0,0,0,1.06-1.4l10.85-19.08.29-.37a11.23,11.23,0,0,0-9-18Z"/><path class="cls-1" d="M167.19,158.61a22.76,22.76,0,0,1-2.69-.16c-9.37-1.12-14.78-7.29-13.78-15.72.14-1.17.27-3.9.45-7.34.95-19.18,2.39-40.38,7.49-49.23a3.44,3.44,0,0,1,1.43-1.33,15.6,15.6,0,0,0,.09-1.59,3.36,3.36,0,0,1,3.35-3.36l.4,0,3.55.42a3.36,3.36,0,0,1,2.91,2.74c.26,1.45.6,3.24.71,3.68,3.8,11.24,11.37,52.32,10.49,59.66C180.68,154,175.3,158.61,167.19,158.61Z"/><path class="cls-7" d="M163.54,83.22l3.55.42s.64,3.59.81,4.11c4,11.61,11.1,52,10.36,58.25-.78,6.51-5.39,9.25-11.07,9.25a19.37,19.37,0,0,1-2.29-.14c-6.68-.8-11.72-4.63-10.84-12,.73-6.1,1-44,7.51-55.29,0,0,0,0,.08,0s.44.11.7.11a.45.45,0,0,0,.4-.18c.79-1.17.79-4.5.79-4.5m0-6.71a6.71,6.71,0,0,0-6.71,6.56,6.69,6.69,0,0,0-1.08,1.41c-5.47,9.49-7,31.16-7.92,50.73-.16,3.25-.3,6.05-.43,7.11a16.52,16.52,0,0,0,4.51,14,20.41,20.41,0,0,0,12.2,5.44,26.16,26.16,0,0,0,3.08.19c9.82,0,16.61-5.81,17.73-15.16.93-7.8-6.59-49-10.59-61-.12-.56-.42-2.14-.64-3.35A6.71,6.71,0,0,0,167.88,77l-3.55-.42a6.73,6.73,0,0,0-.79,0Z"/><path class="cls-1" d="M164.88,85.75c-7.22,0-11.63-10.47-11.63-16.17a11.63,11.63,0,0,1,23.26,0C176.51,75.28,172.09,85.75,164.88,85.75Z"/><path class="cls-7" d="M164.88,61.3a8.28,8.28,0,0,1,8.28,8.28c0,4.57-3.71,12.81-8.28,12.81s-8.28-8.24-8.28-12.81a8.28,8.28,0,0,1,8.28-8.28m0-6.71a15,15,0,0,0-15,15c0,6.81,5.15,19.52,15,19.52s15-12.71,15-19.52a15,15,0,0,0-15-15Z"/><path class="cls-1" d="M161.56,148.81a4.11,4.11,0,0,1-3.46-6.32l2.35-3.68a4.06,4.06,0,0,1,.61-.74l13.64-21.93L164,96.73a8.11,8.11,0,1,1,14.2-7.84,8.62,8.62,0,0,1,.46,1l9.68,25.25a6.07,6.07,0,0,1-2.3,7.18l-18.16,21.2a3.38,3.38,0,0,1-.35.5l-2.82,3.33A4.1,4.1,0,0,1,161.56,148.81Z"/><path class="cls-7" d="M171.08,88.06a4.75,4.75,0,0,1,4.17,2.46,5.21,5.21,0,0,1,.28.59L185.06,116l.15.38a2.69,2.69,0,0,1-1.35,3.37l-19.22,22.43.32-.29-2.82,3.33a.75.75,0,0,1-1.21-.89l2.35-3.68a.7.7,0,0,1,.2-.21l.13-.08,15-24.08L166.92,95.11a4.76,4.76,0,0,1,4.16-7.05M164.52,142h0m6.56-60.65h0a11.47,11.47,0,0,0-10,17L170.81,116,158.4,136a7.36,7.36,0,0,0-.77,1l-2.35,3.68a7.46,7.46,0,0,0,12,8.84l2.74-3.24a6.75,6.75,0,0,0,.6-.79l17.72-20.68a9.45,9.45,0,0,0,3.15-10.88l-.15-.39-9.53-24.84a12.08,12.08,0,0,0-.66-1.43,11.47,11.47,0,0,0-10-5.93Z"/><path class="cls-1" d="M180.17,244.36a4.35,4.35,0,0,1-3.58-1.88,4.51,4.51,0,0,1,.16-5.4,19,19,0,0,1,3.85-3.57l-12.34-39.43a3.36,3.36,0,0,1-.09-.34l-.09-.46-7.7-33.75a10.51,10.51,0,1,1,20.5-4.67,11,11,0,0,1,.24,1.64l2.23,34.39,8.59,41c.11.54.22,1.08.34,1.61,0,.18.09.37.14.55a10,10,0,0,1,.42,2.51c0,1.19-.35,5.08-5.81,5.35a7.26,7.26,0,0,0-2.87.83l-.31.21A6.58,6.58,0,0,1,180.17,244.36Z"/><path class="cls-7" d="M170.63,150a7.16,7.16,0,0,1,7,5.57,7.74,7.74,0,0,1,.16,1.13L180,191.34l-.09-.44.09.46v0l.38,1.82,1.23,5.87,1.7,8.14,1.9,9.06,1.81,8.63,1.44,6.86c.18.85.34,1.7.53,2.54a12.27,12.27,0,0,1,.49,2.39c0,1.64-1.29,1.88-2.62,1.95a10.62,10.62,0,0,0-4.21,1.18c-.65.32-1.64,1.23-2.48,1.23a1,1,0,0,1-.84-.47,1.14,1.14,0,0,1,0-1.37,19,19,0,0,1,5.19-4.24l-13.1-41.85-.09-.47-7.72-33.84a7.16,7.16,0,0,1,7-8.75m0-6.71h0a13.87,13.87,0,0,0-13.53,17L164.8,194l.08.38a6.77,6.77,0,0,0,.17.68l11.65,37.22a20.68,20.68,0,0,0-2.58,2.67,7.88,7.88,0,0,0-.28,9.44,7.67,7.67,0,0,0,6.32,3.3,9.75,9.75,0,0,0,5.53-1.95l.11-.08a3.89,3.89,0,0,1,1.37-.4c7.21-.35,9.05-5.67,9-8.75a13.25,13.25,0,0,0-.54-3.33c0-.14-.08-.28-.11-.42-.12-.52-.22-1-.33-1.56l-.19-.9-.09-.44-1.34-6.42-.9-4.32-.9-4.32-.95-4.53-.95-4.53-1-4.92-.67-3.22L187,191.85v-.07l0-.11-.26-1.24-2.21-34.13a14.62,14.62,0,0,0-.32-2.19,13.79,13.79,0,0,0-13.51-10.78Z"/><path class="cls-1" d="M290,241.45a4.36,4.36,0,0,1-4.18-2.87,4.49,4.49,0,0,1,1.52-5.15,18.63,18.63,0,0,1,4.49-2.4L290,190.77a3.4,3.4,0,0,1,0-.35l0-.46,1.12-33.8a10.3,10.3,0,0,1,10.33-10h.35a10.36,10.36,0,0,1,10,10.68,10.91,10.91,0,0,1-.18,1.62l-6.45,33-2.09,40.89c0,.54-.06,1.07-.08,1.6,0,.18,0,.37,0,.56a9.84,9.84,0,0,1-.23,2.5,5,5,0,0,1-5,3.9,9.27,9.27,0,0,1-1.92-.23,5.8,5.8,0,0,0-1.2-.12,8.27,8.27,0,0,0-1.69.19l-.34.12A8,8,0,0,1,290,241.45Z"/><path class="cls-7" d="M301.48,149.51h.24a7,7,0,0,1,6.75,7.22,7.5,7.5,0,0,1-.13,1.11l-6.49,33.25,0-.44,0,.46v0l-.09,1.81-.3,5.85-.41,8.11-.46,9-.44,8.6-.35,6.83c0,.84-.1,1.69-.13,2.53a12,12,0,0,1-.13,2.38,1.6,1.6,0,0,1-1.74,1.35,6.08,6.08,0,0,1-1.22-.16,9.13,9.13,0,0,0-1.89-.19,11.59,11.59,0,0,0-2.38.26,11.59,11.59,0,0,1-2.29.59,1,1,0,0,1-1-.69,1.11,1.11,0,0,1,.38-1.28,18.53,18.53,0,0,1,6-2.72l-2-42.79,0-.46,1.12-33.88a7,7,0,0,1,7-6.76m0-6.71h0A13.64,13.64,0,0,0,287.79,156l-1.12,33.8,0,.38a6.8,6.8,0,0,0,0,.7l1.75,38a20.32,20.32,0,0,0-3,1.85,7.85,7.85,0,0,0-2.66,9,7.74,7.74,0,0,0,7.32,5,11.19,11.19,0,0,0,3.73-.73l.12,0a4.65,4.65,0,0,1,.82-.08,2.46,2.46,0,0,1,.5,0,12.64,12.64,0,0,0,2.61.3,8.27,8.27,0,0,0,8.25-6.45,13.09,13.09,0,0,0,.32-3.32c0-.14,0-.28,0-.41,0-.52,0-1,.08-1.57l0-.87,0-.64.32-6.2.44-8.6.23-4.52.23-4.52.41-8.11.12-2.34.18-3.51.06-1.14v-.19l6.4-32.78a14.39,14.39,0,0,0,.25-2.18,13.7,13.7,0,0,0-13.24-14.14Z"/><path class="cls-1" d="M291.55,120.87a5.92,5.92,0,0,1-3.12-.89L263,112.57a3.4,3.4,0,0,1-.59-.11l-4-1.14a4.07,4.07,0,0,1-2.8-5,4.07,4.07,0,0,1,4.5-2.91l4.11.59a4,4,0,0,1,.9.24l23.48,3.1,6.23-17.52a3.35,3.35,0,0,1,.47-.88,7.92,7.92,0,0,1,6.32-3.17,7.88,7.88,0,0,1,6.31,12.59c-.12.17-.25.32-.36.45l-11,19.35a3.36,3.36,0,0,1-.53.7l-.27.28A5.85,5.85,0,0,1,291.55,120.87Z"/><path class="cls-7" d="M301.61,89.11a4.52,4.52,0,0,1,3.62,7.23,4.86,4.86,0,0,1-.41.47l-11.19,19.68-.27.28a2.55,2.55,0,0,1-3.45.15l-27-7.85.38.17-4-1.14a.71.71,0,0,1,.2-1.4h.1l4.11.59a.67.67,0,0,1,.26.09l.12.08L290.84,111,298,90.92a4.52,4.52,0,0,1,3.63-1.82m0-6.71h0a11.29,11.29,0,0,0-9,4.51,6.71,6.71,0,0,0-.95,1.77l-5.32,15-20.45-2.7a7.34,7.34,0,0,0-1.2-.28l-4.11-.59a7.43,7.43,0,0,0-3.1,14.49l4,1.14a6.78,6.78,0,0,0,.81.18l24.81,7.22a9.29,9.29,0,0,0,4.44,1.13,9.18,9.18,0,0,0,6.58-2.75l.27-.28a6.71,6.71,0,0,0,1.06-1.4l10.85-19.08.29-.38a11.23,11.23,0,0,0-9-17.94Z"/><path class="cls-1" d="M308.45,158.61a22.76,22.76,0,0,1-2.69-.16c-9.37-1.12-14.78-7.29-13.78-15.72.14-1.17.27-3.9.45-7.34.95-19.18,2.39-40.38,7.49-49.23a3.44,3.44,0,0,1,1.43-1.33,15.53,15.53,0,0,0,.09-1.59,3.35,3.35,0,0,1,3.36-3.36l.4,0,3.55.42a3.36,3.36,0,0,1,2.91,2.74c.26,1.45.6,3.24.71,3.68,3.8,11.24,11.37,52.32,10.49,59.66C321.94,154,316.56,158.61,308.45,158.61Z"/><path class="cls-7" d="M304.8,83.22l3.55.42s.64,3.59.81,4.11c4,11.61,11.1,52,10.36,58.25-.78,6.51-5.39,9.25-11.07,9.25a19.37,19.37,0,0,1-2.29-.14c-6.68-.8-11.72-4.63-10.84-12,.73-6.1,1-44,7.51-55.29,0,0,0,0,.08,0s.44.11.7.11a.45.45,0,0,0,.4-.18c.79-1.17.79-4.5.79-4.5m0-6.71a6.71,6.71,0,0,0-6.71,6.56A6.69,6.69,0,0,0,297,84.49c-5.47,9.49-7,31.16-7.92,50.73-.16,3.25-.3,6.05-.43,7.11a16.52,16.52,0,0,0,4.51,14,20.41,20.41,0,0,0,12.2,5.44,26.16,26.16,0,0,0,3.08.19c9.82,0,16.61-5.81,17.73-15.16.93-7.8-6.59-49-10.59-61-.12-.56-.42-2.14-.64-3.35A6.71,6.71,0,0,0,309.14,77l-3.55-.42a6.73,6.73,0,0,0-.79,0Z"/><path class="cls-1" d="M306.14,85.75c-7.22,0-11.63-10.47-11.63-16.17a11.63,11.63,0,0,1,23.26,0C317.77,75.28,313.36,85.75,306.14,85.75Z"/><path class="cls-7" d="M306.14,61.3a8.28,8.28,0,0,1,8.28,8.28c0,4.57-3.71,12.81-8.28,12.81s-8.28-8.24-8.28-12.81a8.28,8.28,0,0,1,8.28-8.28m0-6.71a15,15,0,0,0-15,15c0,6.81,5.15,19.52,15,19.52s15-12.71,15-19.52a15,15,0,0,0-15-15Z"/><path class="cls-1" d="M302.83,148.81a4.11,4.11,0,0,1-3.46-6.32l2.35-3.68a4.06,4.06,0,0,1,.61-.74L316,116.15,305.25,96.73a8.11,8.11,0,1,1,14.2-7.84,8.63,8.63,0,0,1,.46,1l9.68,25.25a6.07,6.07,0,0,1-2.3,7.18l-18.16,21.2a3.38,3.38,0,0,1-.35.5L306,147.36A4.1,4.1,0,0,1,302.83,148.81Z"/><path class="cls-7" d="M312.34,88.06a4.75,4.75,0,0,1,4.17,2.46,5.21,5.21,0,0,1,.28.59L326.32,116l.15.38a2.69,2.69,0,0,1-1.35,3.37L305.9,142.14l.32-.29-2.82,3.33a.75.75,0,0,1-1.21-.89l2.35-3.68a.7.7,0,0,1,.2-.21l.13-.08,15-24.08L308.19,95.11a4.76,4.76,0,0,1,4.16-7.05M306.52,142h0m5.82-60.65h0a11.47,11.47,0,0,0-10,17L312.07,116l-12.41,20a7.36,7.36,0,0,0-.77,1l-2.35,3.68a7.46,7.46,0,0,0,12,8.84l2.74-3.24a6.75,6.75,0,0,0,.6-.79l17.72-20.68a9.45,9.45,0,0,0,3.15-10.88l-.15-.39-9.53-24.84a12.08,12.08,0,0,0-.66-1.43,11.47,11.47,0,0,0-10-5.93Z"/><path class="cls-1" d="M321.43,244.36a4.35,4.35,0,0,1-3.58-1.88,4.51,4.51,0,0,1,.16-5.4,19,19,0,0,1,3.85-3.57l-12.34-39.43a3.36,3.36,0,0,1-.09-.34l-.09-.46-7.7-33.75a10.51,10.51,0,1,1,20.5-4.67,11.11,11.11,0,0,1,.24,1.63l2.23,34.4,8.59,41c.11.54.22,1.08.34,1.61,0,.18.09.37.14.55a10,10,0,0,1,.42,2.51c0,1.19-.35,5.08-5.81,5.35a7.26,7.26,0,0,0-2.87.83l-.31.21A6.58,6.58,0,0,1,321.43,244.36Z"/><path class="cls-7" d="M311.89,150a7.16,7.16,0,0,1,7,5.57,7.74,7.74,0,0,1,.16,1.13l2.24,34.61-.09-.44.09.46v0l.38,1.82,1.23,5.87,1.7,8.14,1.9,9.06,1.81,8.63,1.44,6.86c.18.85.34,1.7.53,2.54a12.27,12.27,0,0,1,.49,2.39c0,1.64-1.29,1.88-2.62,1.95a10.62,10.62,0,0,0-4.21,1.18c-.64.32-1.64,1.23-2.48,1.23a1,1,0,0,1-.84-.47,1.14,1.14,0,0,1,0-1.37,19,19,0,0,1,5.19-4.24l-13.1-41.85-.09-.47-7.72-33.84a7.16,7.16,0,0,1,7-8.75m0-6.71h0a13.87,13.87,0,0,0-13.53,17l7.7,33.76.08.38a6.77,6.77,0,0,0,.17.68L318,232.31a20.68,20.68,0,0,0-2.58,2.67,7.88,7.88,0,0,0-.28,9.44,7.67,7.67,0,0,0,6.32,3.3,9.75,9.75,0,0,0,5.53-1.95l.11-.08a3.89,3.89,0,0,1,1.37-.4c7.21-.35,9.05-5.67,9-8.75a13.25,13.25,0,0,0-.54-3.33c0-.14-.08-.28-.11-.42-.12-.52-.22-1-.33-1.56l-.19-.9-.87-4.15-.57-2.71-.06-.3L333,214.85l-.95-4.53-.95-4.53-1.7-8.14-.61-2.94-.61-2.94,0-.11-.26-1.24-2.21-34.13a14.62,14.62,0,0,0-.32-2.19,13.79,13.79,0,0,0-13.51-10.78Z"/><path class="cls-1" d="M286.81,239.3a8,8,0,0,1-2.64-.55l-.38-.12a8.19,8.19,0,0,0-1.65-.18,5.83,5.83,0,0,0-1.2.12,9.27,9.27,0,0,1-1.92.23,5,5,0,0,1-5-3.9,9.85,9.85,0,0,1-.23-2.5c0-.19,0-.37,0-.56,0-.53-.05-1.06-.08-1.6l-2.09-40.9-6.44-33a10.91,10.91,0,0,1-.19-1.64A10.36,10.36,0,0,1,275,144h.35a10.3,10.3,0,0,1,10.34,10l1.12,33.88,0,.38a3.37,3.37,0,0,1,0,.35L285,228.87a18.63,18.63,0,0,1,4.49,2.4,4.48,4.48,0,0,1,1.52,5.15A4.36,4.36,0,0,1,286.81,239.3Z"/><path class="cls-7" d="M275.35,147.36a7,7,0,0,1,7,6.76L283.46,188l0,.46-2,42.79a18.53,18.53,0,0,1,6,2.72,1.11,1.11,0,0,1,.38,1.28,1,1,0,0,1-1,.69,11.59,11.59,0,0,1-2.29-.59,11.58,11.58,0,0,0-2.38-.26,9.13,9.13,0,0,0-1.89.19,6.08,6.08,0,0,1-1.22.16,1.6,1.6,0,0,1-1.74-1.35,11.92,11.92,0,0,1-.13-2.38c0-.84-.09-1.69-.13-2.53l-.35-6.83-.44-8.6-.46-9-.41-8.11-.3-5.85-.09-1.81v0l0-.46,0,.44-6.49-33.25a7.63,7.63,0,0,1-.13-1.11,7,7,0,0,1,6.75-7.22h.24m0-6.71h-.46a13.7,13.7,0,0,0-13.24,14.15,14.4,14.4,0,0,0,.24,2.12V157l6.4,32.78.07,1.34v0l.3,5.8,0,.39.39,7.73.23,4.51.23,4.52.22,4.31.22,4.29.35,6.83,0,.9c0,.52.06,1,.08,1.55,0,.14,0,.27,0,.41a13.06,13.06,0,0,0,.32,3.32,8.27,8.27,0,0,0,8.25,6.45,12.64,12.64,0,0,0,2.61-.3,2.46,2.46,0,0,1,.5,0,4.65,4.65,0,0,1,.82.08l.12,0a11.19,11.19,0,0,0,3.73.73,7.74,7.74,0,0,0,7.32-5,7.85,7.85,0,0,0-2.67-9,20.25,20.25,0,0,0-3-1.85l1.75-38a6.79,6.79,0,0,0,0-.71l0-.37L289,153.89a13.64,13.64,0,0,0-13.69-13.25Z"/><path class="cls-1" d="M299.1,162.93a4.26,4.26,0,0,1-.88-.09l-5.05-1.07a3.35,3.35,0,0,1-2.65-3.56l-11.27-24a6.57,6.57,0,0,1-4.74-4.45l-9.24-30.57A9.52,9.52,0,0,1,265,98a9,9,0,0,1,7.48-10.26,9.06,9.06,0,0,1,1.4-.11,8.93,8.93,0,0,1,8.86,7.59l4.38,27.94,9.56,30.13,3.86,1.38a4.24,4.24,0,0,1-1.42,8.24Z"/><path class="cls-7" d="M273.87,91a5.62,5.62,0,0,1,5.55,4.75L283.83,124,294,156.08h.23a.83.83,0,0,1,.28,0l4.86,1.73a.89.89,0,0,1-.3,1.73l-.19,0-5.05-1.07.51,0-13-27.52a3.17,3.17,0,0,1-3.71-2.17l-.14-.46-9.1-30.11a6.16,6.16,0,0,1-.17-.76A5.63,5.63,0,0,1,273.87,91m0-6.71a12.34,12.34,0,0,0-12.19,14.24,12.87,12.87,0,0,0,.37,1.62l9.11,30.15.14.46a9.81,9.81,0,0,0,5.53,6.21l10.35,22a6.71,6.71,0,0,0,5.3,6.08l5.05,1.07a7.6,7.6,0,0,0,4.12-14.59l-2.28-.81-9-28.3L286,94.72A12.27,12.27,0,0,0,273.87,84.3Z"/><path class="cls-1" d="M269.13,158.56c-6.52,0-11.47-3.65-13.57-10-1.5-4.55.58-19.2,5.53-48.3,1.26-7.41,2.35-13.82,2.83-17.54,0-.32,0-2.35,0-4a3.36,3.36,0,0,1,2.3-3.27l3.65-1.2a3.36,3.36,0,0,1,4.34,2.52,16.85,16.85,0,0,0,.48,1.81,3.49,3.49,0,0,1,1.8,1.06c7.17,8.13,8.37,29.86,9.25,45.73.31,5.58.63,11.35,1.13,12.86,2.82,8.53-1.5,16.06-11,19.2a21.43,21.43,0,0,1-6.69,1.15Z"/><path class="cls-7" d="M270.87,77.41s.71,3.51,1.79,4.58a.43.43,0,0,0,.31.12c.34,0,.74-.29.9-.29l.06,0c9.25,10.49,7.63,51.15,9.7,57.42,2.5,7.57-2,12.69-8.86,15a18.14,18.14,0,0,1-5.64,1c-4.63,0-8.58-2.27-10.38-7.72-2.12-6.43,6.81-51.28,8.5-64.36.08-.58,0-4.5,0-4.5l3.65-1.2m0-6.71a6.66,6.66,0,0,0-2.09.34l-3.65,1.2a6.71,6.71,0,0,0-4.6,6.53c0,1.37.06,3.1,0,3.71-.49,3.69-1.55,10-2.78,17.19-5.24,30.86-7.15,44.62-5.4,49.91,2.55,7.72,8.81,12.33,16.75,12.33a24.77,24.77,0,0,0,7.75-1.32,21.45,21.45,0,0,0,11.43-8.15c2.05-3.09,4-8.24,1.71-15.25-.39-1.45-.71-7.31-1-12C287.87,104,286.31,85.72,279,77.4a6.79,6.79,0,0,0-1.51-1.27v-.06a6.73,6.73,0,0,0-6.59-5.37Z"/><path class="cls-1" d="M256.37,242.28a6.49,6.49,0,0,1-3.62-1.36l-.33-.22a7,7,0,0,0-2.74-.78c-5.41-.27-5.77-4.13-5.75-5.31a9.84,9.84,0,0,1,.42-2.47c0-.18.1-.36.14-.54.12-.52.22-1,.33-1.57L253.2,190l2.17-33.57a11,11,0,0,1,.24-1.63,10.35,10.35,0,1,1,20.17,4.6l-7.54,33.05-.07.37a3.36,3.36,0,0,1-.09.34l-12,38.46a18.65,18.65,0,0,1,3.73,3.46,4.49,4.49,0,0,1,.16,5.37A4.33,4.33,0,0,1,256.37,242.28Z"/><path class="cls-7" d="M265.69,150.06a7,7,0,0,1,6.82,8.55L265,191.66l-.09.45L252.08,233a18.53,18.53,0,0,1,5.07,4.14,1.11,1.11,0,0,1,0,1.33,1,1,0,0,1-.82.46c-.81,0-1.79-.89-2.42-1.21a10.37,10.37,0,0,0-4.11-1.15c-1.31-.06-2.59-.3-2.56-1.9a12,12,0,0,1,.48-2.33c.18-.82.35-1.65.52-2.48l1.4-6.7,1.77-8.43,1.85-8.85,1.66-8,1.2-5.74.37-1.78v0l.09-.45-.09.43,2.19-33.81a7.58,7.58,0,0,1,.16-1.1,7,7,0,0,1,6.81-5.44m0-6.71A13.63,13.63,0,0,0,252.34,154a14.27,14.27,0,0,0-.31,2.11l-2.16,33.38-.09.42-.19.89-.72,3.44-.48,2.29-.46,2.21-1.2,5.74-1.85,8.85-1.56,7.47-.2,1-1.4,6.7-.18.86c-.11.51-.21,1-.32,1.54,0,.13-.07.27-.1.4a13,13,0,0,0-.53,3.28c0,3.07,1.78,8.36,8.94,8.71a3.63,3.63,0,0,1,1.27.37l.1.07a9.66,9.66,0,0,0,5.49,1.93,7.64,7.64,0,0,0,6.3-3.29,7.85,7.85,0,0,0-.28-9.41,20.33,20.33,0,0,0-2.46-2.57l11.35-36.26a6.71,6.71,0,0,0,.17-.68l.07-.37,7.52-33a13.71,13.71,0,0,0-13.36-16.75Z"/><path class="cls-1" d="M269.68,82.16c-6.5,0-12.89-8.08-14.44-13.64a12.14,12.14,0,0,1,8.57-15,12.27,12.27,0,0,1,3.15-.41,12.44,12.44,0,0,1,11.94,9.09c1.1,4,.71,10.76-1.87,15.26a8.87,8.87,0,0,1-5.38,4.49A7.6,7.6,0,0,1,269.68,82.16Z"/><path class="cls-7" d="M267,56.42a9.07,9.07,0,0,1,8.7,6.63c1.32,4.76-.14,14.35-4.88,15.61a4.25,4.25,0,0,1-1.09.14c-4.56,0-10-6.79-11.21-11.19a8.79,8.79,0,0,1,6.2-10.89,8.9,8.9,0,0,1,2.29-.3m0-6.71h0a15.63,15.63,0,0,0-4,.52A15.5,15.5,0,0,0,252,69.42c1.83,6.58,9.18,16.1,17.67,16.1a11,11,0,0,0,2.81-.36,12.14,12.14,0,0,0,7.44-6.07c3.13-5.46,3.46-13.26,2.19-17.83A15.8,15.8,0,0,0,267,49.71Z"/><path class="cls-1" d="M298.58,102l-31.9-1.54a9.4,9.4,0,0,1-1.23-.15,9,9,0,0,1,1.66-17.8,9,9,0,0,1,1.67.16l25,4.72,6.47-23.37a4.18,4.18,0,0,1,.79-1.53l3.26-4a4.24,4.24,0,0,1,6.91,4.9l-2.14,3.49-3.72,29.43a6.54,6.54,0,0,1-6.46,5.7Z"/><path class="cls-7" d="M307.6,60.31a.89.89,0,0,1,.76,1.35l-2.52,4.11,0-.18-.2.47.18-.29L302,95.92a3.18,3.18,0,0,1-3.14,2.77h-.15l-.48,0-31.41-1.52a6.17,6.17,0,0,1-.77-.09,5.62,5.62,0,1,1,2.08-11l28,5.29,7.25-26.18,0-.17a.82.82,0,0,1,.16-.3l3.26-4a.89.89,0,0,1,.69-.33m0-6.71a7.57,7.57,0,0,0-5.89,2.8l-3.26,4A7.47,7.47,0,0,0,297,63.13l-.05.19-5.6,20.23-22-4.15a12.33,12.33,0,1,0-4.57,24.24,12.89,12.89,0,0,0,1.64.2l31.46,1.52.48,0h.48a9.9,9.9,0,0,0,9.79-8.62L312.31,68l1.76-2.87A7.6,7.6,0,0,0,307.6,53.6Z"/><path class="cls-1" d="M187,239.17a2.08,2.08,0,0,1-2-1.39,2.2,2.2,0,0,1,.74-2.53,18.18,18.18,0,0,1,5.49-2.64l-1.94-42a1.09,1.09,0,0,1,0-.11l0-.46,1.12-33.86a8,8,0,0,1,8.06-7.8h.27a8.08,8.08,0,0,1,7.8,8.33,8.6,8.6,0,0,1-.14,1.27l-6.47,33.18-2.1,41c0,.55-.06,1.1-.08,1.66,0,.21,0,.43,0,.65a7.87,7.87,0,0,1-.16,1.94,2.66,2.66,0,0,1-2.79,2.17,7.17,7.17,0,0,1-1.45-.18,8.09,8.09,0,0,0-1.67-.17,10.52,10.52,0,0,0-2.16.24,5.66,5.66,0,0,0-.61.19A6.05,6.05,0,0,1,187,239.17Z"/><path class="cls-4" d="M198.46,149.51h.24a7,7,0,0,1,6.75,7.22,7.63,7.63,0,0,1-.13,1.11l-6.49,33.25,0-.44,0,.46v0l-.09,1.81-.3,5.85-.41,8.11-.46,9-.44,8.6-.35,6.83c0,.84-.1,1.69-.13,2.53a11.92,11.92,0,0,1-.13,2.38,1.6,1.6,0,0,1-1.74,1.35,6.08,6.08,0,0,1-1.22-.16,9.13,9.13,0,0,0-1.89-.19,11.58,11.58,0,0,0-2.38.26,11.59,11.59,0,0,1-2.29.59,1,1,0,0,1-1-.69,1.11,1.11,0,0,1,.38-1.28,18.53,18.53,0,0,1,6-2.72l-2-42.79,0-.46,1.12-33.88a7,7,0,0,1,7-6.76m0-2.16h0a9.11,9.11,0,0,0-9.14,8.84l-1.12,33.86,0,.44a2.15,2.15,0,0,0,0,.22l1.9,41.14a18.41,18.41,0,0,0-5,2.54,3.28,3.28,0,0,0-1.11,3.77,3.15,3.15,0,0,0,3.06,2.09,6.91,6.91,0,0,0,2.25-.48l.48-.16a9.44,9.44,0,0,1,1.93-.21,7,7,0,0,1,1.44.14,8.15,8.15,0,0,0,1.67.2,3.75,3.75,0,0,0,3.83-3,8.73,8.73,0,0,0,.19-2.2c0-.2,0-.41,0-.61,0-.54.05-1.08.08-1.63l0-.88.06-1.21.29-5.62.22-4.3.22-4.31.23-4.59.23-4.44.41-8.06v-.06l.3-5.82.09-1.69,6.46-33.1a9.79,9.79,0,0,0,.16-1.45,9.15,9.15,0,0,0-8.84-9.45Z"/><path class="cls-1" d="M174.72,162.81a2,2,0,0,1-.66-3.82l4.92-1.75,9.95-31.37,4.4-28.11A6.66,6.66,0,0,1,200,92.09a6.76,6.76,0,0,1,1,.08,6.7,6.7,0,0,1,5.58,7.66,7.29,7.29,0,0,1-.2.89l-9.24,30.42a4.14,4.14,0,0,1-4.07,2.86h0L180.9,160a1.53,1.53,0,0,1,.13.45,1.12,1.12,0,0,1-.84,1.24l-5.05,1.09A2,2,0,0,1,174.72,162.81Z"/><path class="cls-4" d="M200,93.17a5.63,5.63,0,0,1,5.56,6.49,6.16,6.16,0,0,1-.17.76l-9.1,30.11-.14.46a3.17,3.17,0,0,1-3.71,2.17l-13,27.52.51,0-5.05,1.07-.19,0a.89.89,0,0,1-.3-1.73l4.86-1.73a.83.83,0,0,1,.28,0h.23L190,126.11l4.42-28.19A5.62,5.62,0,0,1,200,93.17M179.52,161h0M200,91h0a7.74,7.74,0,0,0-7.68,6.58l-4.39,28-9.76,30.78L173.7,158a3,3,0,0,0,1.65,5.85l5-1.06a2.16,2.16,0,0,0,1.7-2.59l11.69-24.83a5.36,5.36,0,0,0,4.41-3.73l.14-.46L207.4,101a8.28,8.28,0,0,0,.24-1A7.78,7.78,0,0,0,200,91Z"/><path class="cls-1" d="M204.69,158.44a19.16,19.16,0,0,1-6-1,15.92,15.92,0,0,1-8.51-5.92,11.61,11.61,0,0,1-1-10.4c.59-1.8.89-7.2,1.24-13.45.86-15.54,2-36.82,8.68-44.35a1.22,1.22,0,0,1,.86-.39,1.63,1.63,0,0,1,.69.18,14.09,14.09,0,0,0,1.26-3.72,1.08,1.08,0,0,1,1.4-.81l3.65,1.2a1.08,1.08,0,0,1,.74,1.05c0,1.87-.07,4,0,4.34.49,3.77,1.58,10.19,2.84,17.63,3.94,23.19,7.08,42.75,5.61,47.2C214.29,155.43,210.24,158.44,204.69,158.44Z"/><path class="cls-4" d="M202.95,79.57l3.65,1.2s-.1,3.92,0,4.5c1.69,13.08,10.62,57.93,8.49,64.36-1.8,5.45-5.75,7.72-10.38,7.72a18.14,18.14,0,0,1-5.64-1c-6.87-2.27-11.36-7.38-8.86-15,2.07-6.28.45-46.93,9.7-57.42l.06,0c.16,0,.56.29.9.29a.43.43,0,0,0,.31-.12c1.09-1.07,1.79-4.58,1.79-4.58m0-2.16a2.16,2.16,0,0,0-2.11,1.73h0a16.67,16.67,0,0,1-.79,2.68h-.11a2.23,2.23,0,0,0-1.67.75c-6.9,7.81-8.08,29.31-8.95,45-.33,5.92-.64,11.5-1.18,13.17-1.38,4.19-1,8.11,1.17,11.34a17,17,0,0,0,9.06,6.34,20.23,20.23,0,0,0,6.32,1.09c6.06,0,10.47-3.27,12.43-9.2,1.55-4.7-1.46-23.56-5.57-47.72-1.26-7.43-2.35-13.84-2.83-17.59,0-.36,0-2.46,0-4.18a2.16,2.16,0,0,0-1.48-2.1l-3.65-1.2a2.16,2.16,0,0,0-.68-.11Z"/><path class="cls-1" d="M217.44,242.16a2.05,2.05,0,0,1-1.7-.91,2.2,2.2,0,0,1,.08-2.63,18.17,18.17,0,0,1,4.64-3.95l-12.55-40.08,0-.11-.09-.45-7.53-33A8.07,8.07,0,1,1,216,157.42a8.63,8.63,0,0,1,.18,1.27l2.18,33.74,8.42,40.23c.11.54.22,1.07.34,1.61,0,.21.1.42.16.63a7.88,7.88,0,0,1,.34,1.92c0,2.82-2.69,3-3.59,3a9.26,9.26,0,0,0-3.68,1,5.73,5.73,0,0,0-.54.34A4.49,4.49,0,0,1,217.44,242.16Z"/><path class="cls-4" d="M208.13,152.22a7,7,0,0,1,6.81,5.44,7.58,7.58,0,0,1,.16,1.1l2.19,33.81-.09-.43.09.45v0l.37,1.78,1.2,5.74,1.66,8,1.85,8.85,1.77,8.43,1.4,6.7c.17.83.33,1.66.52,2.48a12,12,0,0,1,.48,2.33c0,1.6-1.26,1.84-2.56,1.9a10.37,10.37,0,0,0-4.11,1.15c-.63.32-1.6,1.21-2.42,1.21a1,1,0,0,1-.82-.46,1.11,1.11,0,0,1,0-1.33,18.53,18.53,0,0,1,5.07-4.14l-12.8-40.88-.09-.45-7.54-33.05a7,7,0,0,1,6.82-8.55m0-2.16h0a9.15,9.15,0,0,0-8.92,11.18l7.53,33,.09.43a2.13,2.13,0,0,0,.06.22l12.31,39.3a18.41,18.41,0,0,0-4.21,3.73,3.28,3.28,0,0,0-.12,3.93,3.1,3.1,0,0,0,2.58,1.36,5.41,5.41,0,0,0,3-1.16l.43-.27a8.2,8.2,0,0,1,3.25-.92c4.07-.2,4.64-2.65,4.61-4.09a8.74,8.74,0,0,0-.38-2.18c-.05-.2-.11-.39-.15-.59-.12-.54-.23-1.08-.34-1.62l-.17-.84-.7-3.35-.7-3.35-1.77-8.43-1.85-8.85-1.66-8-.84-4-.37-1.74-.23-1.08-.11-.54-2.18-33.65a9.79,9.79,0,0,0-.21-1.44,9.1,9.1,0,0,0-8.91-7.11Z"/><path class="cls-1" d="M204.13,82a5.35,5.35,0,0,1-1.37-.18,6.68,6.68,0,0,1-4-3.42,20.33,20.33,0,0,1-1.65-13.52,10.15,10.15,0,0,1,9.74-7.42,10,10,0,0,1,2.56.33,9.87,9.87,0,0,1,7,12.22c-1.34,4.82-7.08,12-12.25,12Z"/><path class="cls-4" d="M206.86,58.58a8.9,8.9,0,0,1,2.29.3,8.79,8.79,0,0,1,6.2,10.89C214.12,74.17,208.7,81,204.13,81a4.25,4.25,0,0,1-1.09-.14c-4.75-1.26-6.21-10.85-4.88-15.61a9.07,9.07,0,0,1,8.7-6.63m0-2.16a11.23,11.23,0,0,0-10.78,8.21A21.23,21.23,0,0,0,197.83,79a7.81,7.81,0,0,0,4.65,3.93,6.42,6.42,0,0,0,1.65.21c5.85,0,11.87-7.68,13.29-12.77A10.94,10.94,0,0,0,209.7,56.8a11.07,11.07,0,0,0-2.84-.37Z"/><path class="cls-1" d="M174.92,101.93a4.26,4.26,0,0,1-4.21-3.71l-3.78-29.92-2.4-3.91a2,2,0,0,1,3.2-2.27l3.26,4a1.91,1.91,0,0,1,.36.69l7,25.4,27.07-5.11a6.69,6.69,0,0,1,7.83,5.34,6.7,6.7,0,0,1-5.34,7.82,7.26,7.26,0,0,1-.91.11l-31.91,1.54Z"/><path class="cls-4" d="M166.22,62.47a.89.89,0,0,1,.69.33l3.26,4a.82.82,0,0,1,.16.3l0,.17,7.25,26.18,28-5.29a5.62,5.62,0,1,1,2.08,11,6.18,6.18,0,0,1-.77.09l-31.41,1.52-.48,0h-.15a3.18,3.18,0,0,1-3.14-2.77L168,67.93l.18.29-.2-.47,0,.18-2.52-4.11a.89.89,0,0,1,.76-1.35m0-2.16A3,3,0,0,0,163.62,65l2.28,3.71,3.75,29.69a5.34,5.34,0,0,0,5.28,4.65h.26l.48,0,31.41-1.52a8.4,8.4,0,0,0,1.06-.13A7.78,7.78,0,1,0,205.26,86L179.17,91l-6.72-24.27,0-.17a3,3,0,0,0-.57-1.09l-3.26-4a3,3,0,0,0-2.36-1.12Z"/><path class="cls-1" d="M354.13,242.27a5.86,5.86,0,0,1-2-.47,5.81,5.81,0,0,0-.61-.2,10.39,10.39,0,0,0-2.34-.28,8,8,0,0,0-1.48.13,7.44,7.44,0,0,1-1.36.15,2.68,2.68,0,0,1-2.83-2.23,7.89,7.89,0,0,1-.12-1.94c0-.22,0-.44,0-.65,0-.55,0-1.1,0-1.65l-1.23-41.08-5.77-33.3a8.7,8.7,0,0,1-.12-1.28,8.38,8.38,0,0,1,2.3-5.89,8.06,8.06,0,0,1,5.68-2.58h0a8.25,8.25,0,0,1,8.16,8.12l.4,34,0,.47s0,.09,0,.13L350,235.61a18.17,18.17,0,0,1,5.43,2.76,2.2,2.2,0,0,1,.69,2.54A2.08,2.08,0,0,1,354.13,242.27Z"/><path class="cls-4" d="M344.36,152a7.16,7.16,0,0,1,7,7.1l.4,34,0,.51-2.88,42.76a18.56,18.56,0,0,1,5.9,2.85,1.12,1.12,0,0,1,.35,1.29,1,1,0,0,1-1,.67,10.86,10.86,0,0,1-2.31-.64,11.44,11.44,0,0,0-2.58-.31,9,9,0,0,0-1.68.15,6.35,6.35,0,0,1-1.16.13,1.61,1.61,0,0,1-1.78-1.38,11.9,11.9,0,0,1-.08-2.38c0-.84-.05-1.69-.08-2.53l-.2-6.84-.26-8.61q-.13-4.52-.27-9l-.24-8.12-.17-5.86-.05-1.82v0l0-.46v.44l-5.78-33.38a10.38,10.38,0,0,1-.1-1.3,7.13,7.13,0,0,1,6.91-7.26h.25m-.16-2h-.11a9.08,9.08,0,0,0-6.44,2.87,9.22,9.22,0,0,0-2.6,6.56,10.13,10.13,0,0,0,.13,1.47l5.76,33.25,0,1.67,0,.64.16,5.22.24,8.12v.32l.26,8.71.13,4.3.13,4.31.1,3.42.1,3.42,0,.89c0,.54,0,1.08,0,1.62,0,.2,0,.4,0,.61a8.72,8.72,0,0,0,.14,2.21,3.76,3.76,0,0,0,3.89,3.07,8.43,8.43,0,0,0,1.56-.17,6.91,6.91,0,0,1,1.28-.12,9.3,9.3,0,0,1,2.09.26l.48.17a6.71,6.71,0,0,0,2.32.53,3.15,3.15,0,0,0,3-2,3.28,3.28,0,0,0-1-3.79,18.42,18.42,0,0,0-5-2.64l2.77-41.09a2.16,2.16,0,0,0,0-.22l0-.44-.4-34a9.28,9.28,0,0,0-9.14-9.15Z"/><path class="cls-1" d="M364.5,166.12a1.08,1.08,0,0,1-1-1.37l-20.12-25.26a4.31,4.31,0,0,1-3.51-4.14l-.53-32.26a7.3,7.3,0,0,1,0-.93,6.77,6.77,0,0,1,13.43,1.65l-4,28.82,16,28.85,5.24.76a2,2,0,0,1-.28,3.93Z"/><path class="cls-4" d="M346.07,97.31a5.75,5.75,0,0,1,.7,0,5.69,5.69,0,0,1,5,6.33l-4,29.16,16.5,29.79.17,0a.84.84,0,0,1,.22,0h.12l5.17.75a.85.85,0,0,1-.13,1.69h-5.24l.51,0-21.11-26.48a3.21,3.21,0,0,1-3-3.13v-.49l-.52-31.77a6.21,6.21,0,0,1,0-.78,5.68,5.68,0,0,1,5.64-5m0-2.16a7.84,7.84,0,0,0-7.78,6.88,8.38,8.38,0,0,0-.06,1.07l.52,31.78v.49a5.39,5.39,0,0,0,4,5.08l19.62,24.63s0,.06,0,.09a2.16,2.16,0,0,0,2.13,2l5.23.06a3.05,3.05,0,0,0,.47-6.08l-4.71-.68-15.54-28.07L353.86,104A7.86,7.86,0,0,0,347,95.21a7.94,7.94,0,0,0-1-.06Z"/><path class="cls-1" d="M337.91,167c-6.18,0-10.44-3.31-12-9.32-1.19-4.59,3.27-24.14,8.77-47.31,1.77-7.43,3.29-13.85,4-17.63.06-.34.18-2.5.26-4.39a1.08,1.08,0,0,1,.81-1l3.76-1a1.08,1.08,0,0,1,1.34.9,13.92,13.92,0,0,0,1,3.86,1.76,1.76,0,0,1,.64-.14,1.23,1.23,0,0,1,.92.44c6.22,8,6,29.61,5.85,45.36-.06,6.34-.12,11.81.37,13.67,2,7.66-2,13.58-10.71,15.84a20.25,20.25,0,0,1-5.06.69Z"/><path class="cls-4" d="M343.8,87.39s.48,3.59,1.51,4.74a.45.45,0,0,0,.35.14,6.37,6.37,0,0,0,.88-.23.08.08,0,0,1,.06,0c8.66,11.2,4.34,52.17,6,58.64,2,7.81-2.84,12.69-9.93,14.53a19.16,19.16,0,0,1-4.79.65c-5.12,0-9.4-2.5-11-8.51-1.72-6.63,10.25-51.36,12.81-64.46.11-.58.28-4.55.28-4.55l3.76-1m0-2.16a2.15,2.15,0,0,0-.54.07l-3.76,1a2.16,2.16,0,0,0-1.61,2c-.07,1.74-.18,3.86-.24,4.26-.73,3.72-2.25,10.13-4,17.55-5.73,24.14-10,43-8.76,47.83,1.67,6.44,6.42,10.13,13,10.13a21.32,21.32,0,0,0,5.33-.72,17.16,17.16,0,0,0,9.56-5.8c2.38-3.11,3-7,1.92-11.35-.45-1.72-.39-7.39-.33-13.39.16-15.91.37-37.69-6.07-46a2.22,2.22,0,0,0-1.75-.86,17,17,0,0,1-.62-2.78,2.16,2.16,0,0,0-2.14-1.87Z"/><path class="cls-1" d="M342.19,87.6c-5.73,0-10.39-9.28-10.74-14.31a10.1,10.1,0,0,1,9.37-10.76l.71,0a10.12,10.12,0,0,1,10.06,9.39,20.78,20.78,0,0,1-2.13,9.54c-1.82,3.78-4.27,6-6.9,6.14Z"/><path class="cls-4" d="M341.52,63.59a9,9,0,0,1,9,8.39c.34,5-3.06,14.19-8,14.54h-.29c-4.86,0-9.33-8.43-9.67-13.3a9,9,0,0,1,8.37-9.61l.63,0m0-2.16h0l-.78,0a11.18,11.18,0,0,0-10.37,11.91c.36,5.26,5.25,15.31,11.82,15.31l.44,0c3-.21,5.81-2.61,7.8-6.75a21.92,21.92,0,0,0,2.23-10.09,11.2,11.2,0,0,0-11.13-10.4Z"/><path class="cls-1" d="M351.49,167.9l-.31,0L346,167a1.08,1.08,0,0,1-.81-1.5l-16.14-28a4.31,4.31,0,0,1-2.86-4.61l4.28-32a7.39,7.39,0,0,1,.19-.91,6.77,6.77,0,0,1,13,3.63l-8.23,27.93L347,162.5l5.07,1.53a2,2,0,0,1-.57,3.87Z"/><path class="cls-4" d="M337.18,96.15a5.69,5.69,0,0,1,5.49,7.21l-8.32,28.25,11.88,31.93.18,0h.1a.84.84,0,0,1,.24,0l5,1.51a.9.9,0,0,1-.26,1.76h-.14l-5.16-.83h.52l-16.93-29.35a3.21,3.21,0,0,1-2.5-3.55l.06-.49,4.21-31.52a6.3,6.3,0,0,1,.16-.77,5.69,5.69,0,0,1,5.47-4.16m0-2.16a7.86,7.86,0,0,0-7.55,5.74,8.42,8.42,0,0,0-.21,1l-4.22,31.53-.06.49a5.39,5.39,0,0,0,3.18,5.62L344,165.7v.09a2.16,2.16,0,0,0,1.81,2.32l5.16.83a3.08,3.08,0,0,0,.49,0,3.05,3.05,0,0,0,.88-6l-4.56-1.38-11.19-30.09L344.74,104a7.85,7.85,0,0,0-7.56-10Z"/><path class="cls-1" d="M323.78,246.48a4.49,4.49,0,0,1-2.36-1,5.69,5.69,0,0,0-.54-.34,9.26,9.26,0,0,0-3.68-1c-.9,0-3.63-.18-3.59-3a7.88,7.88,0,0,1,.34-1.92c.06-.21.11-.42.16-.63.12-.53.23-1.07.34-1.61l8.42-40.23L325.05,163a8.67,8.67,0,0,1,.19-1.27A8.07,8.07,0,1,1,341,165.32l-7.54,33.05-.09.43,0,.11L320.77,239a18.17,18.17,0,0,1,4.64,3.95,2.2,2.2,0,0,1,.08,2.63A2.05,2.05,0,0,1,323.78,246.48Z"/><path class="cls-4" d="M333.1,156.53a7,7,0,0,1,6.82,8.55l-7.54,33.05-.09.45-12.8,40.88a18.53,18.53,0,0,1,5.07,4.14,1.11,1.11,0,0,1,0,1.33,1,1,0,0,1-.82.46c-.81,0-1.79-.89-2.42-1.21a10.38,10.38,0,0,0-4.11-1.15c-1.31-.06-2.59-.3-2.56-1.9a12,12,0,0,1,.48-2.33c.18-.82.35-1.65.52-2.48l1.4-6.7,1.77-8.43,1.85-8.85,1.66-8,1.2-5.74.37-1.78v0l.09-.45-.09.43,2.19-33.81a7.58,7.58,0,0,1,.16-1.1,7,7,0,0,1,6.81-5.44m0-2.16a9.1,9.1,0,0,0-8.91,7.11,9.67,9.67,0,0,0-.21,1.43l-2.18,33.67-.34,1.63-1.19,5.67V204l-1.66,8-.91,4.35-.94,4.5L315,229.18l-.7,3.35-.7,3.35-.18.87c-.11.53-.22,1.06-.33,1.58,0,.2-.1.39-.15.59a8.74,8.74,0,0,0-.38,2.18c0,1.44.55,3.89,4.61,4.09a8.2,8.2,0,0,1,3.25.93c.08,0,.28.17.43.27a5.41,5.41,0,0,0,3,1.16,3.1,3.1,0,0,0,2.58-1.37,3.28,3.28,0,0,0-.12-3.93,18.42,18.42,0,0,0-4.21-3.73l12.3-39.3a2.09,2.09,0,0,0,.06-.22l.09-.43,7.53-33a9.15,9.15,0,0,0-6.88-11,9.19,9.19,0,0,0-2-.23Z"/><path class="cls-1" d="M223.38,243.35a2.07,2.07,0,0,1-2-1.35,2.2,2.2,0,0,1,.69-2.54,18.17,18.17,0,0,1,5.43-2.75l-2.83-41.9a1.08,1.08,0,0,1,0-.11l0-.46.4-33.87a8.07,8.07,0,1,1,16.14.19,8.71,8.71,0,0,1-.12,1.27l-5.77,33.31-1.23,41.07c0,.55,0,1.1,0,1.65,0,.21,0,.43,0,.65a7.89,7.89,0,0,1-.12,1.94,2.68,2.68,0,0,1-2.83,2.23,7.43,7.43,0,0,1-1.36-.15,8,8,0,0,0-1.48-.13,10.35,10.35,0,0,0-2.34.28,5.81,5.81,0,0,0-.61.2A5.86,5.86,0,0,1,223.38,243.35Z"/><path class="cls-4" d="M233.52,153h-.29c3.86,1,7,3.44,6.91,7.3a9.28,9.28,0,0,1-.1,1.23L234.26,195v-.41l0,.48v0l-.05,1.82q-.09,2.93-.17,5.86l-.24,8.12-.27,9-.26,8.61-.2,6.84c0,.84-.06,1.69-.08,2.53a11.9,11.9,0,0,1-.08,2.38,1.61,1.61,0,0,1-1.78,1.38,6.36,6.36,0,0,1-1.16-.13,9,9,0,0,0-1.68-.15,11.44,11.44,0,0,0-2.58.31,10.87,10.87,0,0,1-2.31.64,1,1,0,0,1-1-.67,1.11,1.11,0,0,1,.35-1.29,18.53,18.53,0,0,1,5.9-2.84l-2.88-42.74,0-.46.4-34.13a7.19,7.19,0,0,1,7-7.14m0-2h0a9.31,9.31,0,0,0-9.14,9.19l-.4,33.95,0,.47c0,.08,0,.17,0,.25L226.36,236a18.44,18.44,0,0,0-5,2.65,3.29,3.29,0,0,0-1,3.79,3.15,3.15,0,0,0,3,2,6.72,6.72,0,0,0,2.32-.53l.48-.17a9.29,9.29,0,0,1,2.09-.25,6.91,6.91,0,0,1,1.28.12,8.43,8.43,0,0,0,1.56.17,3.76,3.76,0,0,0,3.89-3.07,8.73,8.73,0,0,0,.14-2.21c0-.2,0-.41,0-.61,0-.55,0-1.09,0-1.64l0-.87.11-3.64.1-3.2.26-8.61.13-4.52.13-4.52.24-8.12.17-5.86,0-1.11,0-.55L242.16,162a12.35,12.35,0,0,0,.13-1.6,9.25,9.25,0,0,0-9-9.41Z"/><path class="cls-1" d="M207.76,167.25a2,2,0,0,1-.28-3.93l5.24-.76,16-28.85-4-28.8a6.78,6.78,0,0,1,5.89-7.55,6.89,6.89,0,0,1,.83-.05,6.76,6.76,0,0,1,6.71,5.93,7.35,7.35,0,0,1,0,.92l-.53,32.27a4.31,4.31,0,0,1-3.51,4.13L214,165.83a1.08,1.08,0,0,1-1,1.37Z"/><path class="cls-4" d="M231.44,98.39a5.68,5.68,0,0,1,5.64,5,6.32,6.32,0,0,1,0,.78l-.52,31.77v.49a3.21,3.21,0,0,1-3,3.14L212.48,166l.51,0-5.23,0h0a.83.83,0,0,1-.9-.8.86.86,0,0,1,.77-.85l5.17-.73h.12a.85.85,0,0,1,.22,0l.17.05,16.5-29.79-4-29.16a5.69,5.69,0,0,1,5-6.33,5.75,5.75,0,0,1,.7,0m0-2.16h0a7.94,7.94,0,0,0-1,.06,7.85,7.85,0,0,0-6.83,8.73l3.93,28.48L212,161.57l-4.72.68a3.05,3.05,0,0,0,.44,6.08l5.26-.06a2.16,2.16,0,0,0,2.13-2s0-.06,0-.09l19.62-24.63a5.39,5.39,0,0,0,4-5.08V136l.52-31.77a8.45,8.45,0,0,0-.06-1.08,7.84,7.84,0,0,0-7.78-6.88Z"/><path class="cls-1" d="M239.6,168a20.24,20.24,0,0,1-5.06-.69c-8.69-2.26-12.7-8.18-10.71-15.84.48-1.86.43-7.33.37-13.67-.16-15.75-.37-37.32,5.85-45.36A1.23,1.23,0,0,1,231,92a1.76,1.76,0,0,1,.63.14,14.15,14.15,0,0,0,1-3.86,1.08,1.08,0,0,1,1.07-.93,1.09,1.09,0,0,1,.27,0l3.76,1a1.08,1.08,0,0,1,.81,1c.08,1.89.19,4,.26,4.39.74,3.78,2.26,10.19,4,17.63,5.5,23.16,10,42.71,8.77,47.31C250,164.74,245.78,168,239.6,168Z"/><path class="cls-4" d="M233.71,88.47l3.76,1s.16,4,.28,4.55c2.56,13.1,14.53,57.83,12.81,64.46-1.56,6-5.84,8.51-11,8.51a19.17,19.17,0,0,1-4.79-.65c-7.09-1.84-12-6.71-9.93-14.53,1.68-6.48-2.63-47.44,6-58.64a.08.08,0,0,1,.06,0,6.35,6.35,0,0,0,.88.23.45.45,0,0,0,.35-.14c1-1.15,1.51-4.74,1.51-4.74m0-2.16a2.16,2.16,0,0,0-2.14,1.87,16.8,16.8,0,0,1-.63,2.78,2.22,2.22,0,0,0-1.75.87c-6.44,8.34-6.23,30.12-6.07,46,.06,6,.11,11.67-.33,13.39-1.12,4.31-.46,8.24,1.92,11.35a17.16,17.16,0,0,0,9.56,5.8,21.32,21.32,0,0,0,5.33.72c6.62,0,11.37-3.69,13-10.13,1.26-4.84-3-23.69-8.76-47.83-1.76-7.42-3.28-13.83-4-17.58-.05-.36-.17-2.48-.24-4.22a2.16,2.16,0,0,0-1.61-2l-3.76-1a2.16,2.16,0,0,0-.54-.07Z"/><path class="cls-1" d="M235.32,88.68H235c-5.92-.41-9.39-10.42-9-15.69A10.12,10.12,0,0,1,236,63.59l.71,0a10.09,10.09,0,0,1,9.37,10.76c-.35,5-5,14.31-10.74,14.31Z"/><path class="cls-4" d="M236,64.67l.63,0A9,9,0,0,1,245,74.3c-.34,4.87-4.81,13.3-9.67,13.3H235c-5-.34-8.37-9.57-8-14.54a9,9,0,0,1,9-8.39m0-2.16a11.2,11.2,0,0,0-11.13,10.4A21.92,21.92,0,0,0,227.08,83c2,4.14,4.76,6.54,7.8,6.75l.44,0c6.57,0,11.45-10.05,11.82-15.31a11.18,11.18,0,0,0-10.37-11.91l-.78,0Z"/><path class="cls-1" d="M226,169a2,2,0,0,1-.57-3.87l5.07-1.53L242,132.66l-8.22-27.91a6.77,6.77,0,1,1,13-3.64,7.43,7.43,0,0,1,.19.91l4.28,32a4.31,4.31,0,0,1-2.86,4.61l-16.14,28a1.08,1.08,0,0,1-.81,1.5l-5.16.83Z"/><path class="cls-4" d="M240.33,97.23a5.68,5.68,0,0,1,5.47,4.16,6.12,6.12,0,0,1,.16.77l4.21,31.52.06.49a3.21,3.21,0,0,1-2.5,3.55l-16.93,29.35h.52l-5.16.83H226a.9.9,0,0,1-.26-1.76l5-1.51a.84.84,0,0,1,.24,0h.1l.18,0,11.88-31.93-8.32-28.25a5.7,5.7,0,0,1,5.49-7.21M231.52,167h0m8.81-71.93a7.85,7.85,0,0,0-7.57,9.94l8.13,27.6L229.7,162.7l-4.56,1.38a3.05,3.05,0,0,0,1.37,5.94l5.13-.83a2.16,2.16,0,0,0,1.85-2.13,2.19,2.19,0,0,0,0-.29L249.2,139.5a5.39,5.39,0,0,0,3.18-5.62l-.06-.49-4.21-31.52a8.3,8.3,0,0,0-.22-1.06,7.86,7.86,0,0,0-7.55-5.74Z"/><path class="cls-1" d="M253.73,247.55a2.05,2.05,0,0,1-1.7-.91,2.2,2.2,0,0,1,.08-2.63,18.18,18.18,0,0,1,4.64-3.95L244.19,200l0-.11-.09-.45-7.53-33a8.07,8.07,0,1,1,15.73-3.59,8.67,8.67,0,0,1,.18,1.26l2.18,33.74L263.06,238c.11.54.22,1.07.34,1.61,0,.21.1.42.16.63a7.87,7.87,0,0,1,.34,1.92c0,2.82-2.69,3-3.59,3a9.27,9.27,0,0,0-3.68,1,5.76,5.76,0,0,0-.54.34A4.49,4.49,0,0,1,253.73,247.55Z"/><path class="cls-4" d="M244.41,157.61a7,7,0,0,1,6.81,5.44,7.51,7.51,0,0,1,.16,1.1L253.57,198l-.09-.43.09.45v0l.37,1.78,1.2,5.74,1.66,8,1.85,8.85,1.76,8.43,1.4,6.7c.17.83.33,1.66.52,2.48a11.89,11.89,0,0,1,.48,2.33c0,1.6-1.26,1.84-2.56,1.9a10.37,10.37,0,0,0-4.11,1.15c-.63.32-1.6,1.21-2.42,1.21a1,1,0,0,1-.82-.46,1.11,1.11,0,0,1,0-1.33,18.53,18.53,0,0,1,5.07-4.14l-12.8-40.88-.09-.45-7.54-33.05a7,7,0,0,1,6.82-8.55m0-2.16h0a9.15,9.15,0,0,0-8.92,11.18l7.53,33,.09.43a2.08,2.08,0,0,0,.06.22l12.3,39.3a18.41,18.41,0,0,0-4.21,3.73,3.28,3.28,0,0,0-.12,3.93,3.1,3.1,0,0,0,2.58,1.37,5.41,5.41,0,0,0,3-1.16l.43-.27a8.2,8.2,0,0,1,3.25-.92c4.07-.2,4.64-2.65,4.61-4.09a8.72,8.72,0,0,0-.38-2.18c-.05-.2-.11-.39-.15-.59-.12-.53-.22-1.05-.33-1.58l-.18-.87-.23-1.12-1.17-5.58-1.71-8.16-.06-.27-.93-4.42-.93-4.43-1.66-8-1.2-5.74,0-.09-.32-1.54L253.53,164a9.63,9.63,0,0,0-.21-1.44,9.1,9.1,0,0,0-8.91-7.11Z"/><path class="cls-1" d="M148.75,239.17a2.08,2.08,0,0,1-2-1.39,2.2,2.2,0,0,1,.75-2.53,18.17,18.17,0,0,1,5.49-2.64l-1.94-42a1.09,1.09,0,0,1,0-.11l0-.46,1.12-33.86a8,8,0,0,1,8.06-7.8h.27a8.08,8.08,0,0,1,7.8,8.33,8.68,8.68,0,0,1-.14,1.27l-6.47,33.18-2.1,41c0,.55-.06,1.1-.08,1.64,0,.21,0,.43,0,.65a7.88,7.88,0,0,1-.16,1.94,2.66,2.66,0,0,1-2.79,2.17,7.17,7.17,0,0,1-1.45-.18,8.09,8.09,0,0,0-1.67-.17,10.52,10.52,0,0,0-2.16.24,5.66,5.66,0,0,0-.61.19A6.05,6.05,0,0,1,148.75,239.17Z"/><path class="cls-4" d="M160.21,149.51h.24a7,7,0,0,1,6.75,7.22,7.5,7.5,0,0,1-.13,1.11l-6.49,33.25,0-.44,0,.46v0l-.09,1.81-.3,5.85-.41,8.11-.46,9-.44,8.6-.35,6.83c0,.84-.1,1.69-.13,2.53a12,12,0,0,1-.13,2.38,1.6,1.6,0,0,1-1.74,1.35,6.08,6.08,0,0,1-1.22-.16,9.13,9.13,0,0,0-1.89-.19,11.59,11.59,0,0,0-2.38.26,11.59,11.59,0,0,1-2.29.59,1,1,0,0,1-1-.69,1.11,1.11,0,0,1,.38-1.28,18.53,18.53,0,0,1,6-2.72l-2-42.79,0-.46,1.12-33.88a7,7,0,0,1,7-6.76m0-2.16h0a9.11,9.11,0,0,0-9.14,8.84L150,190.06l0,.44a2.15,2.15,0,0,0,0,.22l1.9,41.14a18.41,18.41,0,0,0-5,2.54,3.28,3.28,0,0,0-1.11,3.77,3.15,3.15,0,0,0,3.06,2.09,6.9,6.9,0,0,0,2.25-.48l.48-.16a9.45,9.45,0,0,1,1.93-.21,7,7,0,0,1,1.44.14,8.15,8.15,0,0,0,1.67.2,3.75,3.75,0,0,0,3.83-3,8.75,8.75,0,0,0,.19-2.2c0-.2,0-.41,0-.61,0-.54.05-1.08.08-1.61l0-.89.06-1.21.29-5.62.44-8.57.23-4.55.23-4.52v-.06l.41-8.06.26-5.17,0-.69.06-1.15,0-.51,6.46-33.1a9.62,9.62,0,0,0,.16-1.45,9.15,9.15,0,0,0-8.84-9.44Z"/><path class="cls-1" d="M150.29,118.59a3.82,3.82,0,0,1-2.15-.86l-26-7.73h0c-.1,0-.2.14-.3.12l-4-1.06a1.72,1.72,0,0,1-1.23-2.16,1.79,1.79,0,0,1,1.72-1.29l.26,0,4.11.6a1.76,1.76,0,0,1,.59.2l25.64,3.39,6.85-19.25a1.08,1.08,0,0,1,.15-.28A5.63,5.63,0,0,1,160.35,88,5.6,5.6,0,0,1,164.83,97a5.83,5.83,0,0,1-.4.48L153.31,117a1.08,1.08,0,0,1-.17.23l-.27.28A3.59,3.59,0,0,1,150.29,118.59Z"/><path class="cls-4" d="M160.35,89.11A4.52,4.52,0,0,1,164,96.33a5,5,0,0,1-.41.47l-11.19,19.68-.27.28a2.55,2.55,0,0,1-3.45.15l-27-7.85.38.17-4-1.14a.71.71,0,0,1,.2-1.4h.1l4.11.59a.67.67,0,0,1,.26.09l.12.08L149.58,111l7.14-20.07a4.52,4.52,0,0,1,3.63-1.82m0-2.16h0A6.71,6.71,0,0,0,155,89.63a2.15,2.15,0,0,0-.3.57l-6.56,18.43-24.6-3.25a2.8,2.8,0,0,0-.75-.22l-4.11-.59a2.85,2.85,0,0,0-.41,0,2.87,2.87,0,0,0-.79,5.63l4,1.14a2.16,2.16,0,0,0,.47.08l25.73,7.49a4.72,4.72,0,0,0,2.62.79,4.66,4.66,0,0,0,3.34-1.39l.27-.28a2.15,2.15,0,0,0,.34-.45l11.07-19.46c.12-.13.25-.29.38-.47a6.68,6.68,0,0,0-5.35-10.67Z"/><path class="cls-1" d="M167.19,156.33a20.51,20.51,0,0,1-2.42-.15c-8.12-1-12.64-6-11.78-13.19.15-1.25.29-4,.46-7.5.68-13.66,1.93-39.09,7.18-48.21a1.25,1.25,0,0,1,1-.57,1.77,1.77,0,0,1,.38,0,13.35,13.35,0,0,0,.43-3.54,1.08,1.08,0,0,1,1.08-1.08h.13l3.55.42a1.08,1.08,0,0,1,.93.88c.3,1.7.67,3.64.77,4,4,11.67,11.18,52.28,10.41,58.73S174.13,156.33,167.19,156.33Z"/><path class="cls-4" d="M163.54,83.22l3.55.42s.64,3.59.81,4.11c4,11.61,11.1,52,10.36,58.25-.78,6.51-5.39,9.25-11.07,9.25a19.37,19.37,0,0,1-2.29-.14c-6.68-.8-11.72-4.63-10.84-12,.73-6.1,1-44,7.51-55.29,0,0,0,0,.08,0s.44.11.7.11a.45.45,0,0,0,.4-.18c.79-1.17.79-4.5.79-4.5m0-2.16a2.16,2.16,0,0,0-2.16,2.16,15.6,15.6,0,0,1-.2,2.46,2.2,2.2,0,0,0-1.49,1.07c-5.38,9.34-6.65,34.94-7.33,48.69-.17,3.47-.31,6.21-.45,7.42a11.91,11.91,0,0,0,3.21,10.24,15.94,15.94,0,0,0,9.52,4.15,21.6,21.6,0,0,0,2.55.16c7.44,0,12.38-4.17,13.21-11.15.78-6.52-6.46-47.46-10.46-59.2-.09-.32-.46-2.23-.73-3.79a2.16,2.16,0,0,0-1.87-1.76l-3.55-.42-.26,0Z"/><path class="cls-1" d="M164.88,83.47c-5.5,0-9.36-9-9.36-13.89a9.36,9.36,0,0,1,18.71,0C174.23,74.46,170.37,83.47,164.88,83.47Z"/><path class="cls-4" d="M164.88,61.3a8.28,8.28,0,0,1,8.28,8.28c0,4.57-3.71,12.81-8.28,12.81s-8.28-8.24-8.28-12.81a8.28,8.28,0,0,1,8.28-8.28m0-2.16a10.45,10.45,0,0,0-10.43,10.43c0,5.14,4.06,15,10.43,15s10.43-9.83,10.43-15a10.45,10.45,0,0,0-10.43-10.43Z"/><path class="cls-1" d="M161.56,146.54a1.83,1.83,0,0,1-1.54-2.82l2.35-3.68a1.76,1.76,0,0,1,.44-.47l14.53-23.35L166,95.63A5.83,5.83,0,1,1,176.19,90a6.32,6.32,0,0,1,.34.72L186.21,116a3.78,3.78,0,0,1-1.67,4.62L166,142.25a1.07,1.07,0,0,1-.18.3L163,145.89A1.83,1.83,0,0,1,161.56,146.54Z"/><path class="cls-4" d="M171.08,88.06a4.75,4.75,0,0,1,4.17,2.46,5.21,5.21,0,0,1,.28.59L185.06,116l.15.38a2.69,2.69,0,0,1-1.35,3.37l-19.22,22.43.32-.29-2.82,3.33a.75.75,0,0,1-1.21-.89l2.35-3.68a.7.7,0,0,1,.2-.21l.13-.08,15-24.08L166.92,95.11a4.76,4.76,0,0,1,4.16-7.05M164.52,142h0m6.56-56.1h0a6.91,6.91,0,0,0-6,10.25l11.05,20L162,138.85a2.85,2.85,0,0,0-.53.61l-2.35,3.68a2.91,2.91,0,0,0,4.67,3.45l2.78-3.28a2.15,2.15,0,0,0,.32-.47l18.35-21.42a4.86,4.86,0,0,0,2-5.84l-.15-.38-9.53-24.84a7.52,7.52,0,0,0-.4-.86,6.92,6.92,0,0,0-6.06-3.58Z"/><path class="cls-1" d="M180.17,242.09a2.08,2.08,0,0,1-1.72-.92,2.22,2.22,0,0,1,.08-2.66,18.6,18.6,0,0,1,4.76-4l-12.85-41,0-.11-.09-.46L162.59,159a8.23,8.23,0,1,1,16.06-3.66,8.78,8.78,0,0,1,.19,1.29l2.24,34.54,8.62,41.18c.11.55.23,1.1.35,1.65,0,.21.11.43.16.65a8,8,0,0,1,.35,2c0,2.86-2.74,3-3.65,3a9.5,9.5,0,0,0-3.78,1.07,6,6,0,0,0-.56.35A4.58,4.58,0,0,1,180.17,242.09Z"/><path class="cls-4" d="M170.63,150a7.16,7.16,0,0,1,7,5.57,7.74,7.74,0,0,1,.16,1.13L180,191.34l-.09-.44.09.46v0l.38,1.82,1.23,5.87,1.7,8.14,1.9,9.06,1.81,8.63,1.44,6.86c.18.85.34,1.7.53,2.54a12.27,12.27,0,0,1,.49,2.39c0,1.64-1.29,1.88-2.62,1.95a10.62,10.62,0,0,0-4.21,1.18c-.65.32-1.64,1.23-2.48,1.23a1,1,0,0,1-.84-.47,1.14,1.14,0,0,1,0-1.37,19,19,0,0,1,5.19-4.24l-13.1-41.85-.09-.47-7.72-33.84a7.16,7.16,0,0,1,7-8.75m0-2.16h0a9.32,9.32,0,0,0-9.09,11.39l7.71,33.81.09.44a2.23,2.23,0,0,0,.06.22L182,234a18.85,18.85,0,0,0-4.32,3.83,3.31,3.31,0,0,0-.12,4,3.13,3.13,0,0,0,2.6,1.38,5.5,5.5,0,0,0,3-1.18c.15-.1.37-.24.44-.28a8.44,8.44,0,0,1,3.35-1c4.12-.2,4.7-2.68,4.67-4.14a8.92,8.92,0,0,0-.38-2.22c-.05-.2-.11-.41-.15-.61-.12-.54-.23-1.09-.34-1.63l-.18-.88,0-.19-1.4-6.66-.9-4.32-.9-4.32-1-4.61-.93-4.45-1-5-.66-3.14-1.23-5.87-.35-1.67-2.23-34.46a9.88,9.88,0,0,0-.21-1.47,9.26,9.26,0,0,0-9.07-7.24Z"/><path class="cls-1" d="M290,239.17a2.08,2.08,0,0,1-2-1.39,2.2,2.2,0,0,1,.75-2.53,18.17,18.17,0,0,1,5.49-2.64l-1.94-42a1.08,1.08,0,0,1,0-.11l0-.46,1.12-33.86a8,8,0,0,1,8.06-7.8h.27a8.08,8.08,0,0,1,7.8,8.33,8.6,8.6,0,0,1-.14,1.27l-6.47,33.18-2.1,41c0,.55-.06,1.1-.08,1.64,0,.21,0,.43,0,.65a7.88,7.88,0,0,1-.16,1.94,2.66,2.66,0,0,1-2.79,2.17,7.17,7.17,0,0,1-1.45-.18,8.09,8.09,0,0,0-1.67-.17,10.51,10.51,0,0,0-2.16.24,5.66,5.66,0,0,0-.61.19A6.05,6.05,0,0,1,290,239.17Z"/><path class="cls-4" d="M301.48,149.51h.24a7,7,0,0,1,6.75,7.22,7.5,7.5,0,0,1-.13,1.11l-6.49,33.25,0-.44,0,.46v0l-.09,1.81-.3,5.85-.41,8.11-.46,9-.44,8.6-.35,6.83c0,.84-.1,1.69-.13,2.53a12,12,0,0,1-.13,2.38,1.6,1.6,0,0,1-1.74,1.35,6.08,6.08,0,0,1-1.22-.16,9.13,9.13,0,0,0-1.89-.19,11.59,11.59,0,0,0-2.38.26,11.59,11.59,0,0,1-2.29.59,1,1,0,0,1-1-.69,1.11,1.11,0,0,1,.38-1.28,18.53,18.53,0,0,1,6-2.72l-2-42.79,0-.46,1.12-33.88a7,7,0,0,1,7-6.76m0-2.16h0a9.11,9.11,0,0,0-9.14,8.84l-1.12,33.86,0,.44a2.15,2.15,0,0,0,0,.22l1.9,41.14a18.41,18.41,0,0,0-5,2.54,3.28,3.28,0,0,0-1.11,3.77,3.15,3.15,0,0,0,3.06,2.09,6.91,6.91,0,0,0,2.25-.48l.48-.16a9.45,9.45,0,0,1,1.93-.21,7,7,0,0,1,1.44.14,8.15,8.15,0,0,0,1.67.2,3.75,3.75,0,0,0,3.83-3,8.75,8.75,0,0,0,.19-2.2c0-.2,0-.41,0-.61,0-.55.05-1.1.08-1.65l0-.85.06-1.21.29-5.62.44-8.57.23-4.55.23-4.52v-.06l.41-8.06.26-5.17,0-.69.06-1.15,0-.51,6.46-33.1a9.62,9.62,0,0,0,.16-1.45,9.15,9.15,0,0,0-8.84-9.44Z"/><path class="cls-1" d="M291.55,118.59a3.82,3.82,0,0,1-2.14-.86l-26-7.73h0c-.1,0-.2.14-.3.12l-4-1.06a1.72,1.72,0,0,1-1.23-2.16,1.79,1.79,0,0,1,1.72-1.29l.26,0,4.11.6a1.76,1.76,0,0,1,.59.2l25.64,3.39L297,90.56a1.08,1.08,0,0,1,.15-.28A5.63,5.63,0,0,1,301.61,88,5.6,5.6,0,0,1,306.09,97a5.83,5.83,0,0,1-.4.48L294.57,117a1.08,1.08,0,0,1-.17.23l-.27.28A3.59,3.59,0,0,1,291.55,118.59Z"/><path class="cls-4" d="M301.61,89.11a4.52,4.52,0,0,1,3.62,7.23,4.86,4.86,0,0,1-.41.47l-11.19,19.68-.27.28a2.55,2.55,0,0,1-3.45.15l-27-7.85.38.17-4-1.14a.71.71,0,0,1,.2-1.4h.1l4.11.59a.67.67,0,0,1,.26.09l.12.08L290.84,111,298,90.92a4.52,4.52,0,0,1,3.63-1.82m0-2.16h0a6.71,6.71,0,0,0-5.35,2.68,2.15,2.15,0,0,0-.3.57l-6.56,18.43-24.6-3.25a2.8,2.8,0,0,0-.75-.22l-4.11-.59a2.85,2.85,0,0,0-.41,0,2.87,2.87,0,0,0-.79,5.63l4,1.14a2.16,2.16,0,0,0,.47.08l25.73,7.49a4.72,4.72,0,0,0,2.62.79,4.66,4.66,0,0,0,3.34-1.39l.27-.28a2.15,2.15,0,0,0,.34-.45l11.06-19.46c.12-.13.26-.29.39-.47a6.68,6.68,0,0,0-5.35-10.67Z"/><path class="cls-1" d="M308.45,156.33a20.51,20.51,0,0,1-2.42-.15c-8.12-1-12.64-6-11.78-13.19.15-1.25.29-4,.46-7.5.68-13.66,1.93-39.09,7.18-48.21a1.25,1.25,0,0,1,1-.57,1.8,1.8,0,0,1,.38,0,13.42,13.42,0,0,0,.43-3.54,1.08,1.08,0,0,1,1.08-1.08h.13l3.54.42a1.08,1.08,0,0,1,.93.88c.3,1.7.67,3.64.77,4,4,11.67,11.18,52.28,10.41,58.73S315.39,156.33,308.45,156.33Z"/><path class="cls-4" d="M304.8,83.22l3.55.42s.64,3.59.81,4.11c4,11.61,11.1,52,10.36,58.25-.78,6.51-5.39,9.25-11.07,9.25a19.37,19.37,0,0,1-2.29-.14c-6.68-.8-11.72-4.63-10.84-12,.73-6.1,1-44,7.51-55.29,0,0,0,0,.08,0s.44.11.7.11a.45.45,0,0,0,.4-.18c.79-1.17.79-4.5.79-4.5m0-2.16a2.16,2.16,0,0,0-2.16,2.16,15.6,15.6,0,0,1-.2,2.46A2.2,2.2,0,0,0,301,86.75c-5.38,9.34-6.65,34.94-7.33,48.69-.17,3.47-.31,6.21-.45,7.42a11.91,11.91,0,0,0,3.21,10.24,15.94,15.94,0,0,0,9.52,4.15,21.6,21.6,0,0,0,2.55.16c7.44,0,12.38-4.17,13.21-11.15.78-6.52-6.46-47.46-10.46-59.2-.09-.32-.46-2.23-.73-3.79a2.16,2.16,0,0,0-1.87-1.76l-3.55-.42-.26,0Z"/><path class="cls-1" d="M306.14,83.47c-5.5,0-9.36-9-9.36-13.89a9.36,9.36,0,0,1,18.71,0C315.5,74.46,311.64,83.47,306.14,83.47Z"/><path class="cls-4" d="M306.14,61.3a8.28,8.28,0,0,1,8.28,8.28c0,4.57-3.71,12.81-8.28,12.81s-8.28-8.24-8.28-12.81a8.28,8.28,0,0,1,8.28-8.28m0-2.16a10.45,10.45,0,0,0-10.43,10.43c0,5.14,4.06,15,10.43,15s10.43-9.83,10.43-15a10.45,10.45,0,0,0-10.43-10.43Z"/><path class="cls-1" d="M302.83,146.54a1.83,1.83,0,0,1-1.54-2.82l2.35-3.68a1.76,1.76,0,0,1,.44-.47l14.53-23.35L307.24,95.63A5.83,5.83,0,1,1,317.46,90a6.32,6.32,0,0,1,.34.72L327.47,116a3.78,3.78,0,0,1-1.67,4.62l-18.57,21.68a1.07,1.07,0,0,1-.18.3l-2.82,3.33A1.83,1.83,0,0,1,302.83,146.54Z"/><path class="cls-4" d="M312.34,88.06a4.75,4.75,0,0,1,4.17,2.46,5.21,5.21,0,0,1,.28.59L326.32,116l.15.38a2.69,2.69,0,0,1-1.35,3.37L305.9,142.14l.32-.29-2.82,3.33a.75.75,0,0,1-1.21-.89l2.35-3.68a.7.7,0,0,1,.2-.21l.13-.08,15-24.08L308.19,95.11a4.76,4.76,0,0,1,4.16-7.05M306.52,142h0m5.82-56.1h0a6.91,6.91,0,0,0-6,10.25l11.05,20-14.1,22.66a2.85,2.85,0,0,0-.53.61l-2.35,3.68a2.91,2.91,0,0,0,4.67,3.45l2.78-3.28a2.15,2.15,0,0,0,.32-.47l18.35-21.42a4.86,4.86,0,0,0,2-5.84l-.15-.38L318.8,90.34a7.52,7.52,0,0,0-.4-.86,6.92,6.92,0,0,0-6.06-3.58Z"/><path class="cls-1" d="M321.43,242.09a2.08,2.08,0,0,1-1.72-.92,2.22,2.22,0,0,1,.08-2.66,18.6,18.6,0,0,1,4.76-4l-12.85-41,0-.11-.09-.46L303.86,159a8.23,8.23,0,1,1,16.06-3.66,8.84,8.84,0,0,1,.19,1.29l2.24,34.54L331,232.37c.11.55.23,1.1.35,1.65,0,.21.11.43.16.65a8,8,0,0,1,.35,2c0,2.86-2.74,3-3.65,3a9.5,9.5,0,0,0-3.78,1.07,6,6,0,0,0-.56.35A4.58,4.58,0,0,1,321.43,242.09Z"/><path class="cls-4" d="M311.89,150a7.16,7.16,0,0,1,7,5.57,7.74,7.74,0,0,1,.16,1.13l2.24,34.61-.09-.44.09.46v0l.38,1.82,1.23,5.87,1.7,8.14,1.9,9.06,1.81,8.63,1.44,6.86c.18.85.34,1.7.53,2.54a12.27,12.27,0,0,1,.49,2.39c0,1.64-1.29,1.88-2.62,1.95a10.62,10.62,0,0,0-4.21,1.18c-.64.32-1.64,1.23-2.48,1.23a1,1,0,0,1-.84-.47,1.14,1.14,0,0,1,0-1.37,19,19,0,0,1,5.19-4.24l-13.1-41.85-.09-.47-7.72-33.84a7.16,7.16,0,0,1,7-8.75m0-2.16h0a9.32,9.32,0,0,0-9.09,11.39l7.71,33.81.09.44a2.23,2.23,0,0,0,.06.22L323.27,234a18.85,18.85,0,0,0-4.32,3.83,3.31,3.31,0,0,0-.12,4,3.13,3.13,0,0,0,2.6,1.38,5.5,5.5,0,0,0,3-1.18c.15-.1.37-.24.44-.28a8.45,8.45,0,0,1,3.35-1c4.12-.2,4.7-2.68,4.67-4.14a8.92,8.92,0,0,0-.38-2.22c-.05-.2-.11-.41-.15-.61-.12-.54-.23-1.09-.34-1.63l-.18-.88-1.44-6.86-.06-.29-1.75-8.34-1-4.61-.93-4.45-.05-.26L325,198.59l-1.23-5.87-.35-1.67-2.23-34.46a9.88,9.88,0,0,0-.21-1.47,9.26,9.26,0,0,0-9.07-7.24Z"/><path class="cls-1" d="M286.81,237a6.06,6.06,0,0,1-1.9-.42,5.67,5.67,0,0,0-.61-.19,10.51,10.51,0,0,0-2.16-.24,8.09,8.09,0,0,0-1.67.17,7.16,7.16,0,0,1-1.45.18,2.66,2.66,0,0,1-2.79-2.17,7.87,7.87,0,0,1-.16-1.94c0-.22,0-.44,0-.65,0-.55-.05-1.09-.08-1.64l-2.1-41.05-6.47-33.18a8.63,8.63,0,0,1-.14-1.28,8.08,8.08,0,0,1,7.8-8.33h.27a8,8,0,0,1,8.06,7.8L284.54,188l0,.44a1.09,1.09,0,0,1,0,.11l-1.94,42a18.17,18.17,0,0,1,5.49,2.64,2.2,2.2,0,0,1,.75,2.53A2.08,2.08,0,0,1,286.81,237Z"/><path class="cls-4" d="M275.35,147.36a7,7,0,0,1,7,6.76L283.46,188l0,.46-2,42.79a18.53,18.53,0,0,1,6,2.72,1.11,1.11,0,0,1,.38,1.28,1,1,0,0,1-1,.69,11.59,11.59,0,0,1-2.29-.59,11.58,11.58,0,0,0-2.38-.26,9.13,9.13,0,0,0-1.89.19,6.08,6.08,0,0,1-1.22.16,1.6,1.6,0,0,1-1.74-1.35,11.92,11.92,0,0,1-.13-2.38c0-.84-.09-1.69-.13-2.53l-.35-6.83-.44-8.6-.46-9-.41-8.11-.3-5.85-.09-1.81v0l0-.46,0,.44-6.49-33.25a7.63,7.63,0,0,1-.13-1.11,7,7,0,0,1,6.75-7.22h.24m0-2.16H275a9.15,9.15,0,0,0-8.84,9.44,9.79,9.79,0,0,0,.16,1.43l6.46,33.12.08,1.66v.22l.29,5.63.41,8.11.23,4.52.23,4.52.22,4.32.22,4.29.17,3.42.17,3.42,0,.88c0,.54.06,1.08.08,1.63,0,.2,0,.4,0,.61a8.73,8.73,0,0,0,.19,2.2,3.75,3.75,0,0,0,3.83,3,8.16,8.16,0,0,0,1.67-.2,7,7,0,0,1,1.44-.14,9.44,9.44,0,0,1,1.93.21l.48.16a6.91,6.91,0,0,0,2.25.48,3.15,3.15,0,0,0,3.06-2.09,3.28,3.28,0,0,0-1.11-3.77,18.41,18.41,0,0,0-5-2.54l1.9-41.14a2.19,2.19,0,0,0,0-.23l0-.43L284.49,154a9.11,9.11,0,0,0-9.14-8.84Z"/><path class="cls-1" d="M299.1,160.65a2,2,0,0,1-.41,0l-5.05-1.07a1.08,1.08,0,0,1-.84-1.2,1.51,1.51,0,0,1,.13-.45L280.77,132h0a4.21,4.21,0,0,1-4.07-2.94l-9.24-30.53a7,7,0,0,1-.21-.88A6.69,6.69,0,0,1,272.82,90a6.75,6.75,0,0,1,1-.08,6.66,6.66,0,0,1,6.61,5.66l4.4,28.11,9.95,31.37,4.92,1.75a2,2,0,0,1-.66,3.82Z"/><path class="cls-4" d="M273.87,91a5.62,5.62,0,0,1,5.55,4.75L283.83,124,294,156.08h.23a.83.83,0,0,1,.28,0l4.86,1.73a.89.89,0,0,1-.3,1.73l-.19,0-5.05-1.07.51,0-13-27.52a3.17,3.17,0,0,1-3.71-2.17l-.14-.46-9.1-30.11a6.16,6.16,0,0,1-.17-.76A5.63,5.63,0,0,1,273.87,91m0-2.16a7.78,7.78,0,0,0-7.69,9,8.29,8.29,0,0,0,.24,1l9.1,30.12.14.46a5.36,5.36,0,0,0,4.41,3.73L291.75,158c0,.06,0,.11,0,.17a2.16,2.16,0,0,0,1.69,2.4l5.05,1.07a3,3,0,0,0,1.65-5.85l-4.42-1.57-9.76-30.78-4.39-28a7.74,7.74,0,0,0-7.68-6.58Z"/><path class="cls-1" d="M269.13,156.28c-5.55,0-9.61-3-11.41-8.46-1.47-4.46,1.67-24,5.61-47.2,1.26-7.44,2.35-13.86,2.84-17.63,0-.34,0-2.47,0-4.34a1.08,1.08,0,0,1,.74-1.05l3.65-1.2a1.08,1.08,0,0,1,1.4.81,14.09,14.09,0,0,0,1.26,3.72,1.62,1.62,0,0,1,.69-.18,1.22,1.22,0,0,1,.86.38c6.65,7.53,7.82,28.81,8.68,44.35.34,6.25.64,11.65,1.24,13.45,2.45,7.43-1.11,13.54-9.55,16.32a19.17,19.17,0,0,1-6,1Z"/><path class="cls-4" d="M270.87,77.41s.71,3.51,1.79,4.58a.43.43,0,0,0,.31.12c.34,0,.74-.29.9-.29l.06,0c9.25,10.49,7.63,51.15,9.7,57.42,2.5,7.57-2,12.69-8.86,15a18.14,18.14,0,0,1-5.64,1c-4.63,0-8.58-2.27-10.38-7.72-2.12-6.43,6.81-51.28,8.5-64.36.08-.58,0-4.5,0-4.5l3.65-1.2m0-2.16a2.15,2.15,0,0,0-.67.11l-3.65,1.2a2.16,2.16,0,0,0-1.48,2.1c0,1.72.07,3.82,0,4.21-.48,3.72-1.57,10.13-2.83,17.56-4.1,24.16-7.12,43-5.57,47.72,2,5.93,6.37,9.2,12.43,9.2a20.23,20.23,0,0,0,6.32-1.09,17,17,0,0,0,9.06-6.34c2.15-3.23,2.55-7.15,1.17-11.34-.55-1.66-.86-7.25-1.18-13.17-.87-15.69-2.05-37.19-8.95-45a2.23,2.23,0,0,0-1.67-.75h-.11A16.84,16.84,0,0,1,273,77a2.16,2.16,0,0,0-2.12-1.73Z"/><path class="cls-1" d="M256.37,240a4.49,4.49,0,0,1-2.36-1,5.67,5.67,0,0,0-.54-.34,9.26,9.26,0,0,0-3.68-1c-.9,0-3.63-.18-3.59-3a7.87,7.87,0,0,1,.34-1.92c.06-.21.11-.42.16-.63.12-.53.23-1.07.34-1.61l8.42-40.23,2.18-33.73a8.72,8.72,0,0,1,.19-1.27,8.07,8.07,0,1,1,15.73,3.59L266,191.9l-.09.43,0,.11-12.55,40.08a18.17,18.17,0,0,1,4.64,3.95,2.2,2.2,0,0,1,.08,2.63A2.05,2.05,0,0,1,256.37,240Z"/><path class="cls-4" d="M265.69,150.06a7,7,0,0,1,6.82,8.55L265,191.66l-.09.45L252.08,233a18.53,18.53,0,0,1,5.07,4.14,1.11,1.11,0,0,1,0,1.33,1,1,0,0,1-.82.46c-.81,0-1.79-.89-2.42-1.21a10.37,10.37,0,0,0-4.11-1.15c-1.31-.06-2.59-.3-2.56-1.9a12,12,0,0,1,.48-2.33c.18-.82.35-1.65.52-2.48l1.4-6.7,1.77-8.43,1.85-8.85,1.66-8,1.2-5.74.37-1.78v0l.09-.45-.09.43,2.19-33.81a7.58,7.58,0,0,1,.16-1.1,7,7,0,0,1,6.81-5.44m0-2.16a9.1,9.1,0,0,0-8.91,7.11,9.68,9.68,0,0,0-.21,1.43l-2.18,33.67-.14.67-.2,1-.64,3-.56,2.7-.83,4-.83,4-1.85,8.85-1.77,8.43-.7,3.35-.7,3.35-.17.84c-.11.54-.22,1.08-.34,1.62,0,.2-.1.39-.15.59a8.74,8.74,0,0,0-.38,2.18c0,1.44.55,3.89,4.61,4.09a8.2,8.2,0,0,1,3.25.93l.43.27a5.41,5.41,0,0,0,3,1.16,3.1,3.1,0,0,0,2.58-1.37,3.28,3.28,0,0,0-.12-3.93,18.42,18.42,0,0,0-4.21-3.73l12.31-39.3a2.12,2.12,0,0,0,.06-.22l.09-.43,7.53-33a9.15,9.15,0,0,0-8.92-11.18Z"/><path class="cls-1" d="M269.68,79.88c-5.17,0-10.91-7.15-12.25-12a9.87,9.87,0,0,1,7-12.22,10,10,0,0,1,2.56-.33,10.15,10.15,0,0,1,9.74,7.42A20.33,20.33,0,0,1,275,76.29a6.68,6.68,0,0,1-4,3.42A5.36,5.36,0,0,1,269.68,79.88Z"/><path class="cls-4" d="M267,56.42a9.07,9.07,0,0,1,8.7,6.63c1.32,4.76-.14,14.35-4.88,15.61a4.25,4.25,0,0,1-1.09.14c-4.56,0-10-6.79-11.21-11.19a8.79,8.79,0,0,1,6.2-10.89,8.9,8.9,0,0,1,2.29-.3m0-2.16h0a11.07,11.07,0,0,0-2.84.37,10.94,10.94,0,0,0-7.72,13.56C257.81,73.28,263.83,81,269.68,81a6.42,6.42,0,0,0,1.65-.21A7.81,7.81,0,0,0,276,76.82a21.23,21.23,0,0,0,1.76-14.34A11.23,11.23,0,0,0,267,54.27Z"/><path class="cls-1" d="M298.69,99.76l-31.9-1.54a7.21,7.21,0,0,1-.92-.11,6.7,6.7,0,0,1,1.24-13.28,6.75,6.75,0,0,1,1.25.12l27.07,5.11,7-25.4a1.91,1.91,0,0,1,.36-.7l3.26-4a2,2,0,0,1,3.2,2.27l-2.4,3.91L303.1,96.06a4.26,4.26,0,0,1-4.21,3.71Z"/><path class="cls-4" d="M307.6,60.31a.89.89,0,0,1,.76,1.35l-2.52,4.11,0-.18-.2.47.18-.29L302,95.92a3.18,3.18,0,0,1-3.14,2.77h-.15l-.48,0-31.41-1.52a6.17,6.17,0,0,1-.77-.09,5.62,5.62,0,1,1,2.08-11l28,5.29,7.25-26.18,0-.17a.82.82,0,0,1,.16-.3l3.26-4a.89.89,0,0,1,.69-.33m0-2.16h0a3,3,0,0,0-2.36,1.12l-3.26,4a3,3,0,0,0-.56,1.08l0,.18-6.72,24.27-26.09-4.92a7.78,7.78,0,1,0-2.88,15.29,8.36,8.36,0,0,0,1.05.12l31.43,1.52.48,0h.26a5.34,5.34,0,0,0,5.28-4.65l3.75-29.7,2.28-3.71a3,3,0,0,0-2.59-4.64Z"/></g></g></g></svg>