<svg xmlns="http://www.w3.org/2000/svg" viewBox="0 0 331.78 85"><defs><style>.cls-1,.cls-11,.cls-3,.cls-8{fill:none;}.cls-1,.cls-11,.cls-2,.cls-3,.cls-7,.cls-8{stroke:#fff;}.cls-1,.cls-11,.cls-2,.cls-3,.cls-7{stroke-linecap:round;stroke-linejoin:round;}.cls-1{stroke-width:4px;}.cls-2,.cls-4,.cls-6{fill:#767676;}.cls-10,.cls-2,.cls-3,.cls-7{stroke-width:2px;}.cls-4{stroke:#ffb600;stroke-width:2.36px;}.cls-10,.cls-4{stroke-miterlimit:10;}.cls-5{fill:#999;}.cls-7{fill:#fff;}.cls-11,.cls-8{stroke-width:6px;}.cls-9{fill:#ffb600;}.cls-10{fill:#bbe170;stroke:#767676;}</style></defs><title>plug</title><g id="Layer_2" data-name="Layer 2"><g id="texts"><line class="cls-1" x1="252.19" y1="42.66" x2="221.19" y2="42.66"/><rect class="cls-2" x="216.19" y="33.91" width="10" height="17.5"/><path class="cls-2" d="M198.19,61.41h18a5,5,0,0,0,5-5V28.91a5,5,0,0,0-5-5h-18a2,2,0,0,0-2,2v33.5A2,2,0,0,0,198.19,61.41Z"/><line class="cls-1" x1="77.5" y1="42.66" x2="102.5" y2="42.66"/><rect class="cls-2" x="97.5" y="33.91" width="10" height="17.5"/><path class="cls-3" d="M137.53,38.91H125v-5h12.53A2.47,2.47,0,0,1,140,36.38v.06A2.47,2.47,0,0,1,137.53,38.91Z"/><path class="cls-3" d="M137.53,51.41H125v-5h12.53A2.47,2.47,0,0,1,140,48.88v.06A2.47,2.47,0,0,1,137.53,51.41Z"/><circle class="cls-4" cx="292.3" cy="43.73" r="38.3"/><circle class="cls-5" cx="292.3" cy="43.73" r="30.34"/><rect class="cls-6" x="251.9" y="2.46" width="0.66" height="5.94"/><rect class="cls-6" x="254.53" y="-0.18" width="0.66" height="5.94" transform="translate(252.07 257.65) rotate(-90)"/><rect class="cls-6" x="328.17" y="81.7" width="0.66" height="5.94" transform="translate(243.83 413.17) rotate(-90)"/><rect class="cls-6" x="330.81" y="79.06" width="0.66" height="5.94"/><circle class="cls-4" cx="40.4" cy="41.27" r="38.3"/><circle class="cls-5" cx="40.4" cy="41.27" r="30.34"/><rect class="cls-6" width="0.66" height="5.94"/><rect class="cls-6" x="2.64" y="-2.64" width="0.66" height="5.94" transform="translate(2.64 3.3) rotate(-90)"/><rect class="cls-6" x="76.27" y="79.24" width="0.66" height="5.94" transform="translate(-5.61 158.81) rotate(-90)"/><rect class="cls-6" x="78.91" y="76.6" width="0.66" height="5.94"/><path class="cls-2" d="M125.5,61.41h-18a5,5,0,0,1-5-5V28.91a5,5,0,0,1,5-5h18a2,2,0,0,1,2,2v33.5A2,2,0,0,1,125.5,61.41Z"/><rect class="cls-2" x="190" y="23.26" width="12.19" height="38.15" rx="5" ry="5"/><circle class="cls-7" cx="196.47" cy="36.44" r="2.53"/><circle class="cls-7" cx="196.47" cy="48.91" r="2.53"/><rect class="cls-8" x="276.56" y="22.91" width="31.38" height="39.78"/><path class="cls-8" d="M306.94,23.91V61.69H277.56V23.91h29.38m2-2H275.56V63.69h33.38V21.91Z"/><rect class="cls-8" x="283.16" y="29.51" width="18.19" height="8.4"/><line class="cls-8" x1="283.16" y1="40.7" x2="295.75" y2="40.7"/><line class="cls-8" x1="283.16" y1="44.9" x2="301.35" y2="44.9"/><line class="cls-8" x1="283.16" y1="49.09" x2="301.35" y2="49.09"/><rect class="cls-8" x="283.16" y="53.29" width="8.4" height="4.2"/><rect class="cls-8" x="292.95" y="53.29" width="8.4" height="4.2"/><rect class="cls-9" x="276.56" y="22.91" width="31.38" height="39.78"/><path class="cls-6" d="M306.94,23.91V61.69H277.56V23.91h29.38m2-2H275.56V63.69h33.38V21.91Z"/><rect class="cls-6" x="283.16" y="29.51" width="18.19" height="8.4"/><line class="cls-10" x1="283.16" y1="40.7" x2="295.75" y2="40.7"/><line class="cls-10" x1="283.16" y1="44.9" x2="301.35" y2="44.9"/><line class="cls-10" x1="283.16" y1="49.09" x2="301.35" y2="49.09"/><rect class="cls-6" x="283.16" y="53.29" width="8.4" height="4.2"/><rect class="cls-6" x="292.95" y="53.29" width="8.4" height="4.2"/><path class="cls-11" d="M54.53,40.3l.25-1A9.12,9.12,0,0,0,55,38l.1-1,8.14.82-.1,1a17.26,17.26,0,0,1-.45,2.54l-.25,1Zm.19-5.65c-.06-.22-.13-.43-.21-.64s-.17-.43-.26-.64l-.41-.91L61.3,29.1l.41.91c.18.39.34.8.49,1.2s.28.81.39,1.22l.27,1L55,35.61Zm-2.4-4a9,9,0,0,0-1-.87l-.81-.58,4.76-6.65.81.58a17.29,17.29,0,0,1,2,1.65l.72.7L53,31.31Z"/><path class="cls-11" d="M55.46,23.91a16.29,16.29,0,0,1,1.87,1.56L53,29.9a10,10,0,0,0-1.15-1l3.59-5m5.34,6.51c.17.37.32.75.46,1.13s.26.76.37,1.15l-5.95,1.68c-.07-.24-.15-.48-.23-.71s-.18-.48-.29-.71l5.63-2.54M56,38.1l6.15.62a16.21,16.21,0,0,1-.43,2.39l-6-1.53A10.06,10.06,0,0,0,56,38.1m-1-17-1.16,1.63-3.59,5L49.07,29.4l1.63,1.16a8,8,0,0,1,.92.77l1.09,1.06.62,1.39c.08.19.16.38.23.57s.13.38.19.58l.42,1.46L54,37.9a8,8,0,0,1-.21,1.18L53.31,41l1.94.5,6,1.53,1.94.5.5-1.94a18.21,18.21,0,0,0,.48-2.69l.2-2-2-.2-5.64-.57,5.45-1.54,1.93-.54-.55-1.93c-.12-.43-.26-.86-.42-1.28s-.33-.86-.52-1.27l-.82-1.82L60,28.6l-5.16,2.33,3.95-4.06,1.39-1.44L58.71,24a18.3,18.3,0,0,0-2.1-1.75L55,21.12Z"/><path class="cls-11" d="M32.6,62.65a1.83,1.83,0,0,1-1.71-1.2l-2.19-6-.27,0a1.68,1.68,0,0,1-1.58-1.1l-1.17-3.23a1.68,1.68,0,0,1,1-2.15l5-1.83A1.82,1.82,0,0,1,34,48.23L37.91,58.9a1.82,1.82,0,0,1-1.09,2.33l-3.6,1.31A1.82,1.82,0,0,1,32.6,62.65Z"/><path class="cls-11" d="M32.31,48a.82.82,0,0,1,.77.54l1.36,3.73L37,59.24a.82.82,0,0,1-.49,1.05l-3.6,1.31a.82.82,0,0,1-1.05-.49l-2.3-6.31a.68.68,0,0,0-.87-.4h0a.68.68,0,0,1-.87-.4l-1.17-3.23a.68.68,0,0,1,.4-.87l.65-.24L32,48.08a.82.82,0,0,1,.28,0m0-2a2.81,2.81,0,0,0-1,.17L27,47.79l-.65.24a2.68,2.68,0,0,0-1.6,3.43l1.17,3.23A2.69,2.69,0,0,0,28,56.41l2,5.38a2.82,2.82,0,0,0,3.62,1.69l3.6-1.31a2.82,2.82,0,0,0,1.69-3.61l-2.53-6.94L35,47.89A2.83,2.83,0,0,0,32.31,46Z"/><path class="cls-11" d="M34.09,47.33l-3.51-9.64L45,26.5a1.37,1.37,0,0,1,2.12.61L53.55,44.8a1.37,1.37,0,0,1-1.23,1.84Z"/><path class="cls-11" d="M34.09,47.33l-7.71,2.81a1.37,1.37,0,0,1-1.75-.82l-2.57-7.07a1.37,1.37,0,0,1,.82-1.75l7.71-2.81Z"/><path class="cls-11" d="M22.17,50.31a3.75,3.75,0,0,1-3.51-2.46l-.23-.64a3.74,3.74,0,0,1,2.23-4.79l2.23-.81,2.79,7.66-2.23.81A3.72,3.72,0,0,1,22.17,50.31Z"/><path class="cls-11" d="M22.28,42.89l2.11,5.79-1.29.47a2.73,2.73,0,0,1-3.51-1.64l-.23-.64A2.74,2.74,0,0,1,21,43.36l1.29-.47m1.2-2.56L21.6,41l-1.29.47a4.74,4.74,0,0,0-2.83,6.07l.23.64A4.73,4.73,0,0,0,23.79,51l1.29-.47L27,49.87,26.27,48l-2.11-5.79-.68-1.88Z"/><polyline class="cls-11" points="43.26 27.29 41.8 28.51 48.59 47.15 50.75 47.09 43.49 27.17"/><path class="cls-9" d="M54.53,40.3l.25-1A9.12,9.12,0,0,0,55,38l.1-1,8.14.82-.1,1a17.26,17.26,0,0,1-.45,2.54l-.25,1Zm.19-5.65c-.06-.22-.13-.43-.21-.64s-.17-.43-.26-.64l-.41-.91L61.3,29.1l.41.91c.18.39.34.8.49,1.2s.28.81.39,1.22l.27,1L55,35.61Zm-2.4-4a9,9,0,0,0-1-.87l-.81-.58,4.76-6.65.81.58a17.29,17.29,0,0,1,2,1.65l.72.7L53,31.31Z"/><path class="cls-6" d="M55.46,23.91a16.29,16.29,0,0,1,1.87,1.56L53,29.9a10,10,0,0,0-1.15-1l3.59-5m5.34,6.51c.17.37.32.75.46,1.13s.26.76.37,1.15l-5.95,1.68c-.07-.24-.15-.48-.23-.71s-.18-.48-.29-.71l5.63-2.54M56,38.1l6.15.62a16.21,16.21,0,0,1-.43,2.39l-6-1.53A10.06,10.06,0,0,0,56,38.1m-1-17-1.16,1.63-3.59,5L49.07,29.4l1.63,1.16a8,8,0,0,1,.92.77l1.09,1.06.62,1.39c.08.19.16.38.23.57s.13.38.19.58l.42,1.46L54,37.9a8,8,0,0,1-.21,1.18L53.31,41l1.94.5,6,1.53,1.94.5.5-1.94a18.21,18.21,0,0,0,.48-2.69l.2-2-2-.2-5.64-.57,5.45-1.54,1.93-.54-.55-1.93c-.12-.43-.26-.86-.42-1.28s-.33-.86-.52-1.27l-.82-1.82L60,28.6l-5.16,2.33,3.95-4.06,1.39-1.44L58.71,24a18.3,18.3,0,0,0-2.1-1.75L55,21.12Z"/><path class="cls-9" d="M32.6,62.65a1.83,1.83,0,0,1-1.71-1.2l-2.19-6-.27,0a1.68,1.68,0,0,1-1.58-1.1l-1.17-3.23a1.68,1.68,0,0,1,1-2.15l5-1.83A1.82,1.82,0,0,1,34,48.23L37.91,58.9a1.82,1.82,0,0,1-1.09,2.33l-3.6,1.31A1.82,1.82,0,0,1,32.6,62.65Z"/><path class="cls-6" d="M32.31,48a.82.82,0,0,1,.77.54l1.36,3.73L37,59.24a.82.82,0,0,1-.49,1.05l-3.6,1.31a.82.82,0,0,1-1.05-.49l-2.3-6.31a.68.68,0,0,0-.87-.4h0a.68.68,0,0,1-.87-.4l-1.17-3.23a.68.68,0,0,1,.4-.87l.65-.24L32,48.08a.82.82,0,0,1,.28,0m0-2a2.81,2.81,0,0,0-1,.17L27,47.79l-.65.24a2.68,2.68,0,0,0-1.6,3.43l1.17,3.23A2.69,2.69,0,0,0,28,56.41l2,5.38a2.82,2.82,0,0,0,3.62,1.69l3.6-1.31a2.82,2.82,0,0,0,1.69-3.61l-2.53-6.94L35,47.89A2.83,2.83,0,0,0,32.31,46Z"/><path class="cls-6" d="M34.09,47.33l-3.51-9.64L45,26.5a1.37,1.37,0,0,1,2.12.61L53.55,44.8a1.37,1.37,0,0,1-1.23,1.84Z"/><path class="cls-6" d="M34.09,47.33l-7.71,2.81a1.37,1.37,0,0,1-1.75-.82l-2.57-7.07a1.37,1.37,0,0,1,.82-1.75l7.71-2.81Z"/><path class="cls-9" d="M22.17,50.31a3.75,3.75,0,0,1-3.51-2.46l-.23-.64a3.74,3.74,0,0,1,2.23-4.79l2.23-.81,2.79,7.66-2.23.81A3.72,3.72,0,0,1,22.17,50.31Z"/><path class="cls-6" d="M22.28,42.89l2.11,5.79-1.29.47a2.73,2.73,0,0,1-3.51-1.64l-.23-.64A2.74,2.74,0,0,1,21,43.36l1.29-.47m1.2-2.56L21.6,41l-1.29.47a4.74,4.74,0,0,0-2.83,6.07l.23.64A4.73,4.73,0,0,0,23.79,51l1.29-.47L27,49.87,26.27,48l-2.11-5.79-.68-1.88Z"/><polyline class="cls-9" points="43.26 27.29 41.8 28.51 48.59 47.15 50.75 47.09 43.49 27.17"/></g></g></svg>