<svg xmlns="http://www.w3.org/2000/svg" xmlns:xlink="http://www.w3.org/1999/xlink" viewBox="0 0 485 70"><defs><style>.cls-1{fill:none;}.cls-1,.cls-2{stroke:#fff;stroke-linecap:round;stroke-linejoin:round;stroke-width:2px;}.cls-2{fill:#87c22e;stroke-dasharray:3 6;}.cls-3{isolation:isolate;}.cls-4{fill:#ffb600;}.cls-5{mix-blend-mode:multiply;fill:url(#Degradado_sin_nombre_199);}.cls-6{font-size:30.83px;fill:#fff;font-family:ArialMT, Arial;}.cls-7{letter-spacing:-0.02em;}.cls-8{letter-spacing:0em;}</style><linearGradient id="Degradado_sin_nombre_199" x1="6.07" y1="35" x2="420" y2="35" gradientUnits="userSpaceOnUse"><stop offset="0" stop-color="#ffb600"/><stop offset="0.07" stop-color="#ffb600" stop-opacity="0.82"/><stop offset="0.16" stop-color="#ffb600" stop-opacity="0.63"/><stop offset="0.26" stop-color="#ffb600" stop-opacity="0.46"/><stop offset="0.36" stop-color="#ffb600" stop-opacity="0.32"/><stop offset="0.46" stop-color="#ffb600" stop-opacity="0.2"/><stop offset="0.57" stop-color="#ffb600" stop-opacity="0.11"/><stop offset="0.69" stop-color="#ffb600" stop-opacity="0.05"/><stop offset="0.82" stop-color="#ffb600" stop-opacity="0.01"/><stop offset="1" stop-color="#ffb600" stop-opacity="0"/></linearGradient><symbol id="protips" data-name="protips" viewBox="0 0 46.98 56.87"><polyline class="cls-1" points="29.73 41.87 29.73 51.02 17.45 51.02 17.45 41.87"/><path class="cls-1" d="M19.9,51h7.39v1.19a3.66,3.66,0,0,1-3.66,3.66h-.07a3.66,3.66,0,0,1-3.66-3.66Z"/><circle class="cls-1" cx="23.59" cy="28.36" r="14.05"/><line class="cls-1" x1="17.45" y1="44.72" x2="29.73" y2="44.72"/><line class="cls-1" x1="17.45" y1="47.68" x2="29.73" y2="47.68"/><polyline class="cls-1" points="23.59 42.41 23.59 37.26 18.38 30.03"/><line class="cls-1" x1="23.59" y1="37.26" x2="28.8" y2="30.03"/><polyline class="cls-1" points="20.06 32.37 22.03 30.03 23.59 32.37 25.25 30.03 27.28 32.14"/><line class="cls-2" x1="9.46" y1="14.32" x2="1" y2="7.32"/><line class="cls-2" x1="37.52" y1="14.32" x2="45.98" y2="7.32"/><line class="cls-2" x1="23.59" y1="9.93" x2="23.59" y2="1"/></symbol></defs><title>pro-tips</title><g class="cls-3"><g id="Layer_2" data-name="Layer 2"><g id="texts"><g id="_Group_" data-name="&lt;Group&gt;"><path class="cls-4" d="M0,0H450a35,35,0,0,1,35,35v0a35,35,0,0,1-35,35H0a0,0,0,0,1,0,0V0A0,0,0,0,1,0,0Z"/><polygon class="cls-5" points="70.49 70 6.07 0 420 0 420 69.94 70.49 70"/></g><use id="protips-3" data-name="protips" width="46.98" height="56.87" transform="translate(113.02 3.13)" xlink:href="#protips"/><text class="cls-6" transform="translate(180 45)">PRO<tspan class="cls-7" x="66.8" y="0"> </tspan><tspan class="cls-8" x="74.81" y="0">TIPS</tspan></text></g></g></g></svg>