<svg xmlns="http://www.w3.org/2000/svg" viewBox="0 0 712.2 375"><defs><style>.cls-1{fill:#ffb600;}.cls-11,.cls-17,.cls-18,.cls-19,.cls-2{fill:#767676;}.cls-13,.cls-15,.cls-16,.cls-17,.cls-18,.cls-19,.cls-2{stroke:#fff;}.cls-16,.cls-2{stroke-linecap:round;}.cls-16,.cls-17,.cls-18,.cls-2{stroke-linejoin:round;}.cls-16,.cls-17,.cls-18,.cls-19,.cls-2{stroke-width:2px;}.cls-3,.cls-8{font-size:24px;}.cls-12,.cls-3,.cls-8,.cls-9{fill:#fff;}.cls-3{font-family:HelveticaNeueLTPro-Lt, HelveticaNeueLTPro Lt;}.cls-4{letter-spacing:-0.01em;}.cls-5{letter-spacing:-0.01em;}.cls-6{letter-spacing:-0.01em;}.cls-7{letter-spacing:0em;}.cls-8,.cls-9{font-family:ArialMT, Arial;}.cls-9{font-size:20px;}.cls-10{letter-spacing:-0.07em;}.cls-13,.cls-15,.cls-16{fill:none;}.cls-13,.cls-15,.cls-19{stroke-miterlimit:10;}.cls-13{stroke-width:5px;}.cls-14{fill:#bf3019;}.cls-18{stroke-dasharray:2 4;}</style></defs><title>static-images</title><g id="Layer_2" data-name="Layer 2"><g id="texts"><rect class="cls-1" x="462.05" y="205" width="180" height="40"/><rect class="cls-1" x="267.05" y="237.5" width="180" height="40"/><polygon class="cls-2" points="407.05 92.5 292.05 92.5 292.05 225 424.55 225 424.55 110 407.05 92.5"/><polygon class="cls-2" points="407.05 110 424.55 110 407.05 92.5 407.05 110"/><rect class="cls-1" x="69.55" y="205" width="180" height="40"/><text class="cls-3" transform="translate(225.24 50.09)"><tspan class="cls-4">T</tspan><tspan x="11.76" y="0">hey </tspan><tspan class="cls-5" x="53.5" y="0">c</tspan><tspan x="64.1" y="0">ome in ma</tspan><tspan class="cls-6" x="170.01" y="0">n</tspan><tspan x="183.02" y="0">y </tspan><tspan class="cls-6" x="199.41" y="0">f</tspan><tspan x="206.11" y="0">o</tspan><tspan class="cls-7" x="219.29" y="0">r</tspan><tspan x="227.23" y="0" xml:space="preserve">ms:  </tspan></text><text class="cls-8" transform="translate(121.38 325.02)">They often feature a call-to-action or general <tspan x="25.99" y="28">message about the brand and its goals.</tspan></text><text class="cls-9" transform="translate(84.55 232.5)">S<tspan class="cls-10" x="13.34" y="0">TA</tspan><tspan x="35.93" y="0">TIC IMAGES</tspan></text><text class="cls-9" transform="translate(294.55 264.69)">AUDIO CLIPS</text><text class="cls-9" transform="translate(514.55 232.5)">VIDEOS</text><rect class="cls-2" x="472.05" y="82" width="160" height="107.5"/><rect class="cls-2" x="484.55" y="94.5" width="135" height="82.5"/><rect class="cls-2" x="504.55" y="167.29" width="100" height="4.43"/><line class="cls-2" x1="484.55" y1="162" x2="619.55" y2="162"/><path class="cls-11" d="M499,141.23a1,1,0,0,1-.26,0,3.64,3.64,0,0,1-2.69-3.35v-.31a3.68,3.68,0,0,1,2.33-3.56,1,1,0,0,1,1.37.92c0,1.83.1,3.64.26,5.24a1,1,0,0,1-1,1.1Z"/><path class="cls-12" d="M498.75,134.9c0,1.7.1,3.58.27,5.33a2.64,2.64,0,0,1-2-2.44v-.3a2.69,2.69,0,0,1,1.71-2.59m0-2a2,2,0,0,0-.75.15,4.69,4.69,0,0,0-3,4.53v.3a4.64,4.64,0,0,0,3.43,4.27A2,2,0,0,0,501,140c-.15-1.57-.24-3.35-.26-5.15a2,2,0,0,0-2-2Z"/><path class="cls-11" d="M499.61,146.5a1.17,1.17,0,0,1-1-.94c-.63-2.67-2.48-11.64.38-13.76,24-17.89,41.47-21.68,51.86-21.68a38.4,38.4,0,0,1,7.57.71l.3,0c7.67,1.44,19.61,11.41,21.65,13.16,24.47.06,29.28,6,30.33,11.36a1.12,1.12,0,0,1,.32.61v9.16a1.55,1.55,0,0,1-1.22,1.34Z"/><path class="cls-12" d="M550.88,111.07a37.21,37.21,0,0,1,7.68.77c8.06,1.51,21.46,13.43,21.46,13.43,26.47,0,29,6.23,29.69,11.23h.34v9H499.61s-2.55-10.92,0-12.82c24.61-18.31,41.86-21.61,51.26-21.61m0-2h0c-10.54,0-28.19,3.79-52.46,21.84-3.14,2.33-1.82,10.39-.75,14.88a2.16,2.16,0,0,0,1.95,1.71H609.83a2.51,2.51,0,0,0,2.22-2.34V136a2.1,2.1,0,0,0-.38-1c-1.19-5.66-6.25-11.85-30.85-12-2.72-2.3-14.25-11.73-21.87-13.15l-.31-.06a39,39,0,0,0-7.77-.75Z"/><path class="cls-11" d="M498.46,146.5a2.88,2.88,0,0,1-2.41-2.34v-1.44c0-1.12,1.51-2.22,2.41-2.22H609.62c1,0,1.43,1.2,1.43,2.22v1.44c0,1.1-.48,2.34-1.43,2.34Z"/><path class="cls-12" d="M609.62,141.5c.37,0,.43.68.43,1.22v1.44c0,.54-.06,1.34-.43,1.34H498.46c-.37,0-1.41-.79-1.41-1.34v-1.44c0-.54,1-1.22,1.41-1.22H610.05m-.43-2H498.46a3.74,3.74,0,0,0-3.41,3.22v1.44a3.87,3.87,0,0,0,3.41,3.34H609.62c1.5,0,2.43-1.68,2.43-3.34v-1.44c0-1.5-.75-3.22-2.43-3.22Z"/><path class="cls-11" d="M519.27,124.5c.71-1,1.45-1,2.24-1.41a71.17,71.17,0,0,1,13.23-5.84,57.45,57.45,0,0,1,17.46-2.88h1.17c4.74.11,9.34,1.88,14.07,5.23a37,37,0,0,1,5.72,4.89Z"/><path class="cls-12" d="M552.05,113.5v1.85h1.25c4.53.11,9,1.82,13.53,5,1.28.9,2.54,2.08,3.78,3.08H523a79.09,79.09,0,0,1,12-5.25,59.09,59.09,0,0,1,17.09-2.9V113.5m.14-.15a58.52,58.52,0,0,0-17.77,2.91A71.94,71.94,0,0,0,521,122.13c-1.27.72-2.53,1.56-3.75,2.37-.25.16-1,1-1.31,1h59.59a31.49,31.49,0,0,0-7.53-6.72c-4.4-3.12-9.17-5.24-14.62-5.37-.4,0-.79-.06-1.19-.06Z"/><rect class="cls-11" x="545.05" y="115.5" width="2" height="9"/><path class="cls-12" d="M546.05,116.5v7h0v-7h0m2-2h-4v11h4v-11Z"/><circle class="cls-11" cx="589.35" cy="145.77" r="8.94"/><path class="cls-12" d="M589.35,137.83a7.94,7.94,0,1,1-7.94,7.94,7.94,7.94,0,0,1,7.94-7.94m0-2a9.94,9.94,0,1,0,9.94,9.94,10,10,0,0,0-9.94-9.94Z"/><circle class="cls-11" cx="589.35" cy="145.77" r="3.94"/><path class="cls-12" d="M589.35,142.83a2.94,2.94,0,1,1-2.94,2.94,2.94,2.94,0,0,1,2.94-2.94m0-2a4.94,4.94,0,1,0,4.94,4.94,4.95,4.95,0,0,0-4.94-4.94Z"/><circle class="cls-11" cx="516.73" cy="145.77" r="8.94"/><path class="cls-12" d="M516.73,137.83a7.94,7.94,0,1,1-7.94,7.94,7.94,7.94,0,0,1,7.94-7.94m0-2a9.94,9.94,0,1,0,9.94,9.94,10,10,0,0,0-9.94-9.94Z"/><circle class="cls-11" cx="516.73" cy="145.77" r="3.94"/><path class="cls-12" d="M516.73,142.83a2.94,2.94,0,1,1-2.94,2.94,2.94,2.94,0,0,1,2.94-2.94m0-2a4.94,4.94,0,1,0,4.94,4.94,4.94,4.94,0,0,0-4.94-4.94Z"/><rect class="cls-11" x="549.05" y="128.5" width="8" height="2" rx="0.37" ry="0.37"/><path class="cls-12" d="M556.06,127.5h-6.92c-.76,0-1.09,1-1.09,1.74v.82c0,.76.33,1.44,1.09,1.44h6.92c.76,0,1-.69,1-1.44v-.82c0-.76-.23-1.74-1-1.74Z"/><path class="cls-11" d="M609.7,140.32a3,3,0,0,1-2.19-1,1.88,1.88,0,0,0-.25-.24c-2.37-1.85-3.16-4.66-1.81-6.38a3.29,3.29,0,0,1,2.35-1.2h.1a1.23,1.23,0,0,1,.9.38c1.39,1.76,2.26,3.48,2.26,4.85v2.59a1.13,1.13,0,0,1-.45.75,1.15,1.15,0,0,1-.72.25Z"/><path class="cls-12" d="M608,132.51c1.23,1.56,2,3.09,2,4.23v2.59c-2-.2-1.44-.53-2.07-1-1.89-1.48-2.63-3.71-1.64-5a2.33,2.33,0,0,1,1.66-.82m-.11-2h-.19a4.32,4.32,0,0,0-3,1.58c-1.7,2.17-.83,5.59,2,7.78l.13.13a3.91,3.91,0,0,0,2.8,1.3l.26,0a2.3,2.3,0,0,0,1.43-.5,2.12,2.12,0,0,0,.79-1.5v-2.59c0-2-1.4-4.1-2.48-5.47a2.23,2.23,0,0,0-1.68-.76Z"/><circle class="cls-2" cx="550.8" cy="128.25" r="26.25"/><polygon class="cls-2" points="565.29 128.76 544.08 143.76 544.08 113.76 565.29 128.76"/><rect class="cls-2" x="489.55" y="167" width="10" height="5"/><rect class="cls-2" x="609.55" y="167" width="5" height="5"/><polyline class="cls-13" points="4.55 67.5 4.55 2.5 69.55 2.5"/><polyline class="cls-13" points="709.55 307.5 709.55 372.5 644.55 372.5"/><path class="cls-2" d="M338.7,161.06H328.09a3.54,3.54,0,0,1-3.54-3.54V136.31a3.54,3.54,0,0,1,3.54-3.54H338.7Z"/><path class="cls-2" d="M367.18,172.65,344,161.06V132.77l23.17-11.59a3.54,3.54,0,0,1,5.12,3.16v45.14A3.54,3.54,0,0,1,367.18,172.65Z"/><path class="cls-14" d="M390.58,169.64l-11.67-8a23,23,0,0,0,1.73-3l12.74,6.15A37.19,37.19,0,0,1,390.58,169.64Zm6.37-18.2-14.11-1c0-.57.06-1.15.06-1.72s0-1.17-.06-1.74l14.11-1.05c.07.92.1,1.86.1,2.79S397,150.53,397,151.44Zm-16.33-12.76a23,23,0,0,0-1.73-3l11.67-8a37.27,37.27,0,0,1,2.79,4.81Z"/><path class="cls-14" d="M390.58,169.64l-11.67-8a23,23,0,0,0,1.73-3l12.74,6.15A37.19,37.19,0,0,1,390.58,169.64Zm6.37-18.2-14.11-1c0-.57.06-1.15.06-1.72s0-1.17-.06-1.74l14.11-1.05c.07.92.1,1.86.1,2.79S397,150.53,397,151.44Zm-16.33-12.76a23,23,0,0,0-1.73-3l11.67-8a37.27,37.27,0,0,1,2.79,4.81Z"/><path class="cls-11" d="M390.58,169.64l-11.67-8a23,23,0,0,0,1.73-3l12.74,6.15A37.19,37.19,0,0,1,390.58,169.64Zm6.37-18.2-14.11-1c0-.57.06-1.15.06-1.72s0-1.17-.06-1.74l14.11-1.05c.07.92.1,1.86.1,2.79S397,150.53,397,151.44Zm-16.33-12.76a23,23,0,0,0-1.73-3l11.67-8a37.27,37.27,0,0,1,2.79,4.81Z"/><path class="cls-15" d="M390.58,169.64l-11.67-8a23,23,0,0,0,1.73-3l12.74,6.15A37.19,37.19,0,0,1,390.58,169.64Zm6.37-18.2-14.11-1c0-.57.06-1.15.06-1.72s0-1.17-.06-1.74l14.11-1.05c.07.92.1,1.86.1,2.79S397,150.53,397,151.44Zm-16.33-12.76a23,23,0,0,0-1.73-3l11.67-8a37.27,37.27,0,0,1,2.79,4.81Z"/><path class="cls-16" d="M390.58,169.64l-11.67-8a23,23,0,0,0,1.73-3l12.74,6.15A37.19,37.19,0,0,1,390.58,169.64Zm6.37-18.2-14.11-1c0-.57.06-1.15.06-1.72s0-1.17-.06-1.74l14.11-1.05c.07.92.1,1.86.1,2.79S397,150.53,397,151.44Zm-16.33-12.76a23,23,0,0,0-1.73-3l11.67-8a37.27,37.27,0,0,1,2.79,4.81Z"/><path class="cls-16" d="M390.58,169.64l-11.67-8a23,23,0,0,0,1.73-3l12.74,6.15A37.19,37.19,0,0,1,390.58,169.64Zm6.37-18.2-14.11-1c0-.57.06-1.15.06-1.72s0-1.17-.06-1.74l14.11-1.05c.07.92.1,1.86.1,2.79S397,150.53,397,151.44Zm-16.33-12.76a23,23,0,0,0-1.73-3l11.67-8a37.27,37.27,0,0,1,2.79,4.81Z"/><path class="cls-2" d="M409.05,210h-84.5V195h84.5a3,3,0,0,1,3,3v9A3,3,0,0,1,409.05,210Z"/><rect class="cls-2" x="324.55" y="195" width="57.5" height="15"/><circle class="cls-2" cx="318.3" cy="201.25" r="13.75"/><polygon class="cls-2" points="325.89 201.52 314.78 209.38 314.78 193.66 325.89 201.52"/><rect class="cls-2" x="81.05" y="82" width="160" height="107.5"/><rect class="cls-2" x="93.55" y="94.5" width="135" height="82.5"/><polyline class="cls-17" points="93.55 142 128.55 107 166.05 139.5 198.55 114.5 228.55 139.5"/><polyline class="cls-17" points="116.05 119.5 123.55 119.5 126.05 124.5 131.05 119.5 136.05 124.5 138.55 119.5 143.55 119.5"/><line class="cls-2" x1="228.55" y1="164.5" x2="93.55" y2="164.5"/><polygon class="cls-2" points="111.05 177 101.05 177 108.55 164.5 118.55 164.5 111.05 177"/><polygon class="cls-2" points="121.05 177 111.05 177 118.55 164.5 128.55 164.5 121.05 177"/><polygon class="cls-2" points="131.05 177 121.05 177 128.55 164.5 138.55 164.5 131.05 177"/><polygon class="cls-2" points="141.05 177 131.05 177 138.55 164.5 148.55 164.5 141.05 177"/><path class="cls-2" d="M141.08,162h0V144.52h-5V162h0a2.48,2.48,0,0,0-2.47,2.47v0h10v0A2.48,2.48,0,0,0,141.08,162Z"/><path class="cls-2" d="M115.31,162h0V137h-5v25h0a2.48,2.48,0,0,0-2.47,2.47v0h10v0A2.48,2.48,0,0,0,115.31,162Z"/><circle class="cls-2" cx="161.05" cy="112" r="7.5"/><circle class="cls-18" cx="161.05" cy="112" r="12.5"/><path class="cls-19" d="M181.79,138.5h6c10.69,0,12.68,5.37,16.79,8,2.92,1.89,5.33,2,6.9,2.38a6.28,6.28,0,0,1,4.16,3.16,12.83,12.83,0,0,1,.86,4.72c0,1.48-1,1.7-1.94,1.7H169.7c-1,0-1.43-.81-1.51-1.75a22.58,22.58,0,0,1,0-5.56C169.27,146.22,173.21,138.5,181.79,138.5Z"/><circle class="cls-19" cx="178.4" cy="159.33" r="5.06"/><circle class="cls-11" cx="178.4" cy="159.33" r="1.06"/><path class="cls-12" d="M178.4,159.27a.06.06,0,1,1-.06.06.06.06,0,0,1,.06-.06m0-2a2.06,2.06,0,1,0,2.06,2.06,2.06,2.06,0,0,0-2.06-2.06Z"/><circle class="cls-19" cx="205.63" cy="159.33" r="5.06"/><circle class="cls-11" cx="205.63" cy="159.35" r="1.06"/><path class="cls-12" d="M205.63,159.29a.06.06,0,1,1-.06.06.05.05,0,0,1,.06-.06m0-2a2.06,2.06,0,1,0,2.06,2.06,2.05,2.05,0,0,0-2.06-2.06Z"/><path class="cls-11" d="M168,152.47a1.31,1.31,0,0,0-.92,1.14v.14a1.24,1.24,0,0,0,.88,1.14C167.89,154.1,167.94,153.24,168,152.47Z"/><path class="cls-11" d="M213.66,150.54a1.25,1.25,0,0,0-.49,1.69l.49.89a1.25,1.25,0,0,0,1.69.49l.12-.07a1.23,1.23,0,0,0,.54-.6,4.86,4.86,0,0,0-.33-.91,6.1,6.1,0,0,0-1.34-1.72,1.23,1.23,0,0,0-.56.15Z"/><path class="cls-11" d="M192.05,147.5v-5.66a15.36,15.36,0,0,1,9,5.66Z"/><path class="cls-12" d="M193.05,143.32a13.82,13.82,0,0,1,5.79,3.18h-5.79v-3m-2-2.86v7.86H202.8c-3.67-7-11.74-7.86-11.74-7.86Z"/><rect class="cls-11" x="182.05" y="141.5" width="6" height="6"/><path class="cls-12" d="M187.05,142.5v4h-4v-4h4m2-2h-8v8h8v-8Z"/><path class="cls-11" d="M172.55,147.5a7.42,7.42,0,0,1,1.48-2.42,11.09,11.09,0,0,1,4-3.19v5.61Z"/><path class="cls-12" d="M177.05,143.5v3h-2.88a13.58,13.58,0,0,1,2.88-3m2-2.9c-4,.24-9.7,7.86-6.71,7.86h6.71v-7.86Z"/><rect class="cls-11" x="191.05" y="150.5" width="3" height="1" rx="0.32" ry="0.32"/><path class="cls-12" d="M193.73,150.5h-2.36a.32.32,0,0,0-.32.32v.36a.32.32,0,0,0,.32.32h2.36a.32.32,0,0,0,.32-.32v-.36a.32.32,0,0,0-.32-.32Z"/><rect class="cls-11" x="181.05" y="150.5" width="3" height="1" rx="0.32" ry="0.32"/><path class="cls-12" d="M183.73,150.5h-2.36a.32.32,0,0,0-.32.32v.36a.32.32,0,0,0,.32.32h2.36a.32.32,0,0,0,.32-.32v-.36a.32.32,0,0,0-.32-.32Z"/><path class="cls-11" d="M200.15,149.5a1.82,1.82,0,0,1-.1-.32v-.68H203l.08,0v.52a3.18,3.18,0,0,1-.36.44Z"/><path class="cls-12" d="M203,147.5h-3.29a.71.71,0,0,0-.62.6v1.14c0,.28.35,1.26.62,1.26H203c.27,0,1.08-1,1.08-1.26V148.1c0-.28-.81-.6-1.08-.6Z"/><path class="cls-12" d="M138.55,128.43c1.64,0,3.27,1,2.67,2.86l0,.05,0-.05a1.9,1.9,0,0,1,1.88-1.45c2.12,0,4.77,2.87,2.43,4.6l0,0,0,0a2.2,2.2,0,0,1,1.28-.46c2.52,0,3.81,5.46.41,5.53h0c3.4.06,2.11,5.53-.41,5.53a2.2,2.2,0,0,1-1.28-.46l0,0,0,0c2.35,1.73-.31,4.6-2.43,4.6a1.9,1.9,0,0,1-1.88-1.46l0,0,0,0c.6,1.91-1,2.86-2.66,2.86s-3.27-1-2.67-2.86l0-.05,0,.05a1.9,1.9,0,0,1-1.88,1.45c-2.12,0-4.77-2.87-2.43-4.6l0,0,0,0a2.2,2.2,0,0,1-1.28.46c-2.53,0-3.82-5.51-.37-5.53h0c-3.45,0-2.15-5.53.37-5.53a2.19,2.19,0,0,1,1.28.46l0,0,0,0c-2.34-1.73.32-4.59,2.44-4.59a1.9,1.9,0,0,1,1.88,1.46l0,0,0,0c-.6-1.91,1-2.86,2.66-2.86m8.94,11.07c.24,0,.24,0,0,0h0m-.33,0h0m-8.61-13.07h0a5.14,5.14,0,0,0-3.77,1.48,4.22,4.22,0,0,0-.78-.07,5.78,5.78,0,0,0-5.14,3.72,4.22,4.22,0,0,0-.18.78,5.55,5.55,0,0,0-2.86,4.93,4.56,4.56,0,0,0,.54,2.24,4.55,4.55,0,0,0-.54,2.24,5.55,5.55,0,0,0,2.87,4.93,4.19,4.19,0,0,0,.18.77,5.77,5.77,0,0,0,5.14,3.72,4.2,4.2,0,0,0,.78-.07,5.54,5.54,0,0,0,7.54,0,4.22,4.22,0,0,0,.78.07,5.78,5.78,0,0,0,5.14-3.72,4.21,4.21,0,0,0,.18-.78,5.56,5.56,0,0,0,2.86-4.9,4.57,4.57,0,0,0-.54-2.27,4.56,4.56,0,0,0,.54-2.27,5.56,5.56,0,0,0-2.86-4.9,4.21,4.21,0,0,0-.18-.78,5.77,5.77,0,0,0-5.14-3.72h0a4.2,4.2,0,0,0-.78.07,5.16,5.16,0,0,0-3.77-1.48Z"/><path class="cls-11" d="M147.14,139.5c4.07,0,1.66-7.48-1.65-5,3.33-2.38-3.05-7-4.29-3.12,1.3-3.87-6.6-3.89-5.3,0-1.23-3.89-7.62.73-4.29,3.12-3.3-2.44-5.73,5.07-1.65,5-4.07,0-1.66,7.48,1.65,5-3.33,2.39,3.05,7,4.29,3.12-1.3,3.87,6.6,3.89,5.3,0,1.23,3.9,7.62-.73,4.29-3.12,3.31,2.44,5.72-5.07,1.65-5Z"/><path class="cls-12" d="M112.78,119.58c1.64,0,3.27,1,2.67,2.86l0,.05,0-.05a1.9,1.9,0,0,1,1.88-1.45c2.12,0,4.77,2.87,2.43,4.6l0,0,0,0a2.2,2.2,0,0,1,1.28-.46c2.52,0,3.81,5.46.41,5.53h0c3.4.07,2.1,5.53-.41,5.53a2.2,2.2,0,0,1-1.28-.46l0,0,0,0c2.35,1.73-.31,4.6-2.43,4.6a1.9,1.9,0,0,1-1.88-1.46l0,0,0,0c.6,1.91-1,2.86-2.66,2.86s-3.27-1-2.67-2.86l0-.05,0,.05a1.9,1.9,0,0,1-1.88,1.45c-2.12,0-4.77-2.87-2.43-4.6l0,0,0,0a2.2,2.2,0,0,1-1.28.46c-2.53,0-3.82-5.51-.37-5.53h0c-3.45,0-2.15-5.53.37-5.53a2.19,2.19,0,0,1,1.28.46l0,0,0,0c-2.34-1.73.32-4.59,2.44-4.59a1.9,1.9,0,0,1,1.88,1.46l0,0,0,0c-.6-1.91,1-2.86,2.66-2.86m8.94,11.07c.24,0,.24,0,0,0h0m-.33,0h0m-8.61-13.07a5.15,5.15,0,0,0-3.77,1.48,4.21,4.21,0,0,0-.77-.07,5.78,5.78,0,0,0-5.14,3.72,4.22,4.22,0,0,0-.18.78,5.55,5.55,0,0,0-2.86,4.93,4.55,4.55,0,0,0,.54,2.24,4.54,4.54,0,0,0-.54,2.24,5.55,5.55,0,0,0,2.87,4.93,4.19,4.19,0,0,0,.18.77,5.77,5.77,0,0,0,5.14,3.72,4.2,4.2,0,0,0,.78-.07,5.54,5.54,0,0,0,7.54,0,4.22,4.22,0,0,0,.78.07,5.78,5.78,0,0,0,5.14-3.72,4.18,4.18,0,0,0,.18-.78,5.56,5.56,0,0,0,2.86-4.89,4.57,4.57,0,0,0-.54-2.28,4.56,4.56,0,0,0,.54-2.27,5.56,5.56,0,0,0-2.87-4.9,4.16,4.16,0,0,0-.18-.78,5.77,5.77,0,0,0-5.14-3.72h0a4.22,4.22,0,0,0-.78.07,5.16,5.16,0,0,0-3.77-1.48h0Z"/><path class="cls-11" d="M121.37,130.66c4.07,0,1.66-7.48-1.65-5,3.33-2.38-3.05-7-4.29-3.12,1.3-3.87-6.6-3.89-5.3,0-1.23-3.89-7.62.73-4.29,3.12-3.3-2.44-5.73,5.07-1.65,5-4.07,0-1.66,7.48,1.65,5-3.33,2.39,3.05,7,4.29,3.12-1.3,3.87,6.6,3.89,5.3,0,1.23,3.9,7.62-.73,4.29-3.12,3.31,2.44,5.72-5.07,1.65-5Z"/></g></g></svg>