<svg xmlns="http://www.w3.org/2000/svg" viewBox="0 0 62.71 75.18"><defs><style>.cls-1{fill:#fff;stroke:#0080b1;stroke-linecap:round;stroke-linejoin:round;stroke-width:2px;}.cls-2{fill:#ffb600;}</style></defs><title>therm</title><g id="Layer_2" data-name="Layer 2"><g id="texts"><path class="cls-1" d="M10.36,21.52,21.52,10.37,51.8,40.68a1,1,0,0,1,0,1.41l0,0a4.21,4.21,0,0,0,0,6l3.86,3.87a2.6,2.6,0,0,1,0,3.68l0,0a2.6,2.6,0,0,1-3.68,0L48,51.79a4.21,4.21,0,0,0-5.95,0l0,0a1,1,0,0,1-1.41,0Z"/><path class="cls-2" d="M25.48,33.68,41.41,49.62a6.33,6.33,0,0,1,8.12.69l3.86,3.87a.5.5,0,0,0,.7,0l0,0a.5.5,0,0,0,0-.7l-3.86-3.87a6.33,6.33,0,0,1-.68-8.12L36.14,28Z"/><path class="cls-1" d="M9.08,20.32,11.6,17.8,2.27,8.47a4.34,4.34,0,0,1,0-6.13l.06-.06a4.34,4.34,0,0,1,6.13,0l9.33,9.34,2.52-2.52a5.2,5.2,0,0,1,7.36,0l0,0a1.74,1.74,0,0,1,0,2.46L11.59,27.73a1.74,1.74,0,0,1-2.46,0l0,0A5.21,5.21,0,0,1,9.08,20.32Z"/><path class="cls-2" d="M54,73.7,54,73.64a5,5,0,0,1-.79-6.11l4.42-7.6L62,67.53a5,5,0,0,1-.79,6.11l-.06.06A5,5,0,0,1,54,73.7Z"/></g></g></svg>