<svg xmlns="http://www.w3.org/2000/svg" viewBox="0 0 915.25 193.5"><defs><style>.cls-1,.cls-12,.cls-2,.cls-3,.cls-4,.cls-7{fill:#fff;}.cls-1,.cls-11,.cls-12,.cls-2{stroke:#0080b1;}.cls-1,.cls-11,.cls-12,.cls-13,.cls-7{stroke-miterlimit:10;}.cls-1,.cls-13,.cls-2,.cls-3,.cls-7{stroke-width:2px;}.cls-2,.cls-3{stroke-linecap:round;stroke-linejoin:round;}.cls-13,.cls-3{stroke:#fff;}.cls-5{fill:#0080b1;}.cls-10,.cls-6,.cls-8,.cls-9{fill:#767676;}.cls-7{stroke:#bf3019;}.cls-8{font-size:13.04px;font-family:MuseoSans-900, MuseoSans 900;}.cls-10,.cls-9{font-size:12px;}.cls-9{font-family:HelveticaNeue-Bold, HelveticaNeue Bold;font-weight:700;}.cls-10{font-family:ArialMT, Arial;}.cls-11{fill:none;stroke-width:4px;}.cls-13{fill:#ffb600;}</style></defs><title>time</title><g id="Layer_2" data-name="Layer 2"><g id="texts"><rect class="cls-1" x="1" y="4" width="133.75" height="140" rx="3" ry="3"/><circle class="cls-1" cx="14.75" cy="15.25" r="3.75"/><circle class="cls-1" cx="27.25" cy="15.25" r="3.75"/><circle class="cls-1" cx="39.75" cy="15.25" r="3.75"/><line class="cls-1" x1="1" y1="24" x2="134.75" y2="24"/><rect class="cls-2" x="14.75" y="34" width="105" height="97.5"/><line class="cls-3" x1="44.75" y1="119" x2="107.25" y2="119"/><rect class="cls-3" x="22.25" y="41.5" width="52.5" height="15"/><path class="cls-4" d="M24.78,94.79a1,1,0,0,1-.26,0,3.06,3.06,0,0,1-2.26-2.82V91.7a3.09,3.09,0,0,1,2-3,1,1,0,0,1,.37-.07,1,1,0,0,1,1,1c0,1.42.08,2.83.2,4.06a1,1,0,0,1-1,1.1Z"/><path class="cls-5" d="M24.57,89.64c0,1.33.07,2.79.21,4.15a2.06,2.06,0,0,1-1.52-1.9v-.24a2.1,2.1,0,0,1,1.33-2m0-2a2,2,0,0,0-.75.15,4.09,4.09,0,0,0-2.58,4V92a4.06,4.06,0,0,0,3,3.74,2,2,0,0,0,2.51-2.12c-.12-1.21-.19-2.59-.2-4a2,2,0,0,0-2-2Z"/><path class="cls-4" d="M25.24,98.5a.94.94,0,0,1-1-.7c-.5-2.12-2-9.12.38-10.86C43.44,73,57.07,70.05,65.2,70.05a29.57,29.57,0,0,1,5.94.58l.23,0c6,1.12,15.15,8.75,16.92,10.26,19.17.06,22.91,4.78,23.74,9a1,1,0,0,1,.22.52v7.14c0,.55-.56.86-1.11.86Z"/><path class="cls-5" d="M65.2,71.07a29,29,0,0,1,6,.6c6.28,1.18,16.73,10.27,16.73,10.27,20.63,0,22.62,5.55,23.14,8.55h.2v7h-86s-2-8.31,0-9.79c19.18-14.27,32.62-16.64,40-16.64m0-2c-8.28,0-22.14,3-41.14,17.11C21.54,88,22.25,93.63,23.3,98a1.94,1.94,0,0,0,1.95,1.47h85.89a2,2,0,0,0,2.11-1.86V90.5a2,2,0,0,0-.29-.94c-1-4.55-5-9.49-24.28-9.62-2.34-2-11.19-9.13-17.11-10.24l-.23,0a30.77,30.77,0,0,0-6.14-.59Z"/><path class="cls-4" d="M24.35,98.5c-.82,0-2.1-.65-2.1-1.64V95.74a2.67,2.67,0,0,1,2.1-2.24H111c.93,0,1.27,1.33,1.27,2.24v1.12c0,1-.41,1.64-1.27,1.64Z"/><path class="cls-5" d="M111,94.5c.29,0,.27.81.27,1.24v1.12c0,.42,0,.64-.27.64H24.35c-.29,0-1.1-.22-1.1-.64V95.74a1.93,1.93,0,0,1,1.1-1.24h86.9m-.27-2H24.35a3.62,3.62,0,0,0-3.1,3.24v1.12c0,1.59,1.77,2.64,3.1,2.64H111c1.41,0,2.27-1.11,2.27-2.64V95.74c0-1.38-.69-3.24-2.27-3.24Z"/><path class="cls-4" d="M41.35,81.5c.34-1,.7-.57,1.06-.78a55.36,55.36,0,0,1,10.27-4.58,44.58,44.58,0,0,1,13.54-2.26c.3,0,.61,0,.91,0C70.77,74,74.32,75.41,78,78c1.38,1,2.71,1.5,4,3.5Z"/><path class="cls-5" d="M66.25,72.5v2.35h.87c3.44.08,6.8,1.48,10.28,3.95a5.61,5.61,0,0,1,2,1.69H45.26c2.51-2,5.1-2.48,7.73-3.32a43.77,43.77,0,0,1,13.25-2.25V72.85m0,0a45.6,45.6,0,0,0-13.85,2.26,56.07,56.07,0,0,0-10.45,4.58c-1,.56-2,1.31-2.92,1.94-.19.13-.78.87-1,.87H84.42a35.49,35.49,0,0,0-5.87-5.33,20.41,20.41,0,0,0-11.4-4.23c-.31,0-.62-.09-.93-.09Z"/><rect class="cls-4" x="60.25" y="74.5" width="2" height="7"/><polygon class="cls-5" points="63.25 73.5 59.25 73.5 59.25 82.5 63.25 82.5 63.25 73.5 63.25 73.5"/><circle class="cls-4" cx="95.18" cy="98.11" r="7.19"/><path class="cls-5" d="M95.18,91.93A6.19,6.19,0,1,1,89,98.11a6.19,6.19,0,0,1,6.19-6.19m0-2a8.19,8.19,0,1,0,8.19,8.19,8.2,8.2,0,0,0-8.19-8.19Z"/><circle class="cls-4" cx="38.58" cy="98.11" r="7.19"/><path class="cls-5" d="M38.58,91.93a6.19,6.19,0,1,1-6.19,6.19,6.19,6.19,0,0,1,6.19-6.19m0-2a8.19,8.19,0,1,0,8.19,8.19,8.2,8.2,0,0,0-8.19-8.19Z"/><polygon class="cls-4" points="63.84 85.5 63.77 85.01 69.24 85.05 69.31 85.59 69.24 85.5 63.84 85.5"/><path class="cls-5" d="M69.24,84.5h-5.4c-.59,0-.59.14-.59.73v.64c0,.59,0,.63.59.63h5.4c.59,0,1,0,1-.63v-.64c0-.59-.42-.73-1-.73Z"/><path class="cls-4" d="M111,94.09a2.54,2.54,0,0,1-1.84-.83,1.29,1.29,0,0,0-.17-.17,5.37,5.37,0,0,1-1.82-2.48,3,3,0,0,1,.37-2.81,2.81,2.81,0,0,1,2-1h.1a1.11,1.11,0,0,1,.84.38,7,7,0,0,1,1.78,3.91v2a1.06,1.06,0,0,1-.4.75,1.07,1.07,0,0,1-.69.25Z"/><path class="cls-5" d="M109.69,87.78a6.13,6.13,0,0,1,1.56,3.29v2a2.45,2.45,0,0,1-1.58-.79c-1.48-1.16-2.05-2.89-1.28-3.88a1.81,1.81,0,0,1,1.29-.64m-.05-2h-.19a3.81,3.81,0,0,0-2.68,1.4,4,4,0,0,0-.53,3.74,6.38,6.38,0,0,0,2.15,3l0,0a3.55,3.55,0,0,0,2.45,1.15l.26,0a2.15,2.15,0,0,0,1.37-.5,2.06,2.06,0,0,0,.74-1.5v-2a8,8,0,0,0-2-4.53,2.11,2.11,0,0,0-1.63-.76Z"/><path class="cls-6" d="M145,136.36a10.29,10.29,0,0,1-2.87,12.31,65.7,65.7,0,0,1-7.19,5.2c-4,2.53-8.32,2.33-12.59.53a17.37,17.37,0,0,1-7.25-5.72c-2.39-3.22-4.72-6.5-7.07-9.75a2.71,2.71,0,0,1-.23-.37,7,7,0,0,1,5.73-2.08c-.7-1.05-1.28-2-1.92-2.9s-1.57-2-2.33-3.07q-3-4.16-6-8.32a3.8,3.8,0,0,1-.28-4.36,3.7,3.7,0,0,1,3.6-2,3.79,3.79,0,0,1,3,1.66l4.77,6.6c1.55-1.43,3-3,5.23-2.13a29.19,29.19,0,0,1,3-2.29,2.91,2.91,0,0,1,3.3.24c.77-.64,1.46-1.28,2.21-1.83a3.15,3.15,0,0,1,4.52.65q5,6.86,10,13.77A24.49,24.49,0,0,1,145,136.36Zm-3.88,9.81a8,8,0,0,0,.64-10.41q-5-7-10.05-13.89l-1-1.38a.9.9,0,0,0-1.4-.24c-.23.17-.46.33-.67.52a.91.91,0,0,0-.13,1.41c.65.84,1.25,1.7,1.86,2.56a1.62,1.62,0,1,1-2.61,1.87c-1-1.36-1.92-2.75-2.92-4.08a1.46,1.46,0,0,0-1-.63,1.53,1.53,0,0,0-1.24,2.46c1,1.3,1.93,2.59,2.87,3.9l.06.08a1.51,1.51,0,0,1-.31,2.29,1.49,1.49,0,0,1-2.23-.36q-1.86-2.55-3.64-5.14c-.59-.87-1-1-1.88-.35l-.31.23c-.73.53-.8,1-.28,1.67,1.25,1.69,2.51,3.37,3.75,5.07a1.6,1.6,0,1,1-2.59,1.85c-1.84-2.53-3.67-5.08-5.51-7.62l-4.94-6.82a1.4,1.4,0,1,0-2.24,1.63l8,11q3.76,5.19,7.5,10.4a1.62,1.62,0,1,1-2.59,1.9c-.9-1.23-1.77-2.48-2.68-3.69a3.49,3.49,0,0,0-4.09-1.19c2.22,3.07,4.3,6.2,6.65,9.12a13.31,13.31,0,0,0,7.18,4.44,10.25,10.25,0,0,0,9.22-1.7c1.76-1.34,3.58-2.6,5.37-3.91A8,8,0,0,0,141.15,146.17Z"/><path class="cls-4" d="M141.79,135.76a8,8,0,0,1-1.82,11.4c-1.79,1.31-3.61,2.57-5.37,3.91a10.25,10.25,0,0,1-9.22,1.7,13.31,13.31,0,0,1-7.18-4.44c-2.35-2.92-4.43-6.05-6.65-9.12a3.49,3.49,0,0,1,4.09,1.19c.91,1.21,1.78,2.46,2.68,3.69a1.62,1.62,0,1,0,2.59-1.9q-3.74-5.2-7.5-10.4l-8-11a1.4,1.4,0,1,1,2.24-1.63l4.94,6.82c1.84,2.54,3.67,5.09,5.51,7.62a1.6,1.6,0,1,0,2.59-1.85l2.36-1.48a1.49,1.49,0,0,0,2.23.36,1.51,1.51,0,0,0,.31-2.29l-.06-.08,2.24-1.65a1.62,1.62,0,1,0,2.61-1.87c-.61-.86-1.21-1.72-1.86-2.56a.91.91,0,0,1,.13-1.41c.21-.19.44-.35.67-.52a.9.9,0,0,1,1.4.24l1,1.38Q136.77,128.82,141.79,135.76Z"/><path class="cls-4" d="M127.79,126.61l-2.24,1.65c-.94-1.31-1.92-2.6-2.87-3.9a1.53,1.53,0,0,1,1.24-2.46,1.46,1.46,0,0,1,1,.63C125.87,123.86,126.81,125.25,127.79,126.61Z"/><path class="cls-4" d="M123.07,130.27l-2.36,1.48c-1.24-1.7-2.5-3.38-3.75-5.07-.52-.7-.45-1.14.28-1.67l.31-.23c.87-.63,1.29-.52,1.88.35Q121.22,127.73,123.07,130.27Z"/><path class="cls-6" d="M121.58,108.78a1.62,1.62,0,0,1-.32,2.33c-1.17.89-2.37,1.72-3.55,2.58s-2.16,1.58-3.25,2.35a1.69,1.69,0,1,1-2-2.71q3.38-2.49,6.8-4.92A1.66,1.66,0,0,1,121.58,108.78Z"/><path class="cls-6" d="M109.34,101.26a1.71,1.71,0,0,1,1.4,2.18c-.42,2.66-.83,5.33-1.29,8a4.62,4.62,0,0,1-.5,1.14,1.83,1.83,0,0,1-2.06.18,1.6,1.6,0,0,1-.79-1.71c.15-1.15.36-2.29.54-3.43.25-1.57.49-3.14.76-4.72A1.7,1.7,0,0,1,109.34,101.26Z"/><path class="cls-6" d="M102.65,111.69a1.75,1.75,0,0,1-.3,2.53,1.71,1.71,0,0,1-2.47-.58c-.81-1.09-1.6-2.2-2.4-3.31l-2.35-3.24a1.7,1.7,0,1,1,2.73-2Q100.26,108.37,102.65,111.69Z"/><path class="cls-6" d="M100.79,123.8a1.67,1.67,0,0,1-.49,2.48c-1.11.84-2.25,1.64-3.37,2.45s-2.17,1.58-3.26,2.35a1.69,1.69,0,1,1-2-2.73q3.3-2.43,6.63-4.8A1.68,1.68,0,0,1,100.79,123.8Z"/><path class="cls-6" d="M99.57,118.09a1.75,1.75,0,0,1-.83,1.86,4.36,4.36,0,0,1-1.19.12c-2.72-.4-5.43-.85-8.15-1.3a1.68,1.68,0,0,1-1.51-2,1.66,1.66,0,0,1,2-1.39c2.74.43,5.48.88,8.22,1.32A1.63,1.63,0,0,1,99.57,118.09Z"/><path class="cls-6" d="M381.7,74a10.29,10.29,0,0,1-2.87,12.31,65.7,65.7,0,0,1-7.19,5.2c-4,2.53-8.32,2.33-12.59.53a17.37,17.37,0,0,1-7.25-5.72c-2.39-3.22-4.72-6.5-7.07-9.75a2.71,2.71,0,0,1-.23-.37,7,7,0,0,1,5.73-2.08c-.7-1.05-1.28-2-1.92-2.9s-1.57-2-2.33-3.07q-3-4.16-6-8.32a3.8,3.8,0,0,1-.28-4.36,3.7,3.7,0,0,1,3.6-1.95,3.79,3.79,0,0,1,3,1.66l4.77,6.6c1.55-1.43,3-3,5.23-2.13a29.19,29.19,0,0,1,3-2.29,2.91,2.91,0,0,1,3.3.24c.77-.64,1.46-1.28,2.21-1.83a3.15,3.15,0,0,1,4.52.65q5,6.86,10,13.77A24.49,24.49,0,0,1,381.7,74Zm-3.88,9.81a8,8,0,0,0,.64-10.41q-5-7-10.05-13.89l-1-1.38a.9.9,0,0,0-1.4-.24c-.23.17-.46.33-.67.52a.91.91,0,0,0-.13,1.41c.65.84,1.25,1.7,1.86,2.56a1.62,1.62,0,1,1-2.61,1.87c-1-1.36-1.92-2.75-2.92-4.08a1.46,1.46,0,0,0-.95-.63A1.53,1.53,0,0,0,359.35,62c.95,1.3,1.93,2.59,2.87,3.9l.06.08a1.51,1.51,0,0,1-.31,2.29,1.49,1.49,0,0,1-2.23-.36q-1.86-2.55-3.64-5.14c-.59-.87-1-1-1.88-.35l-.31.23c-.73.53-.8,1-.28,1.67,1.25,1.69,2.51,3.37,3.75,5.07a1.6,1.6,0,1,1-2.59,1.85c-1.84-2.53-3.67-5.08-5.51-7.62l-4.94-6.82a1.4,1.4,0,1,0-2.24,1.63l8,11q3.76,5.19,7.5,10.4a1.62,1.62,0,1,1-2.59,1.9c-.9-1.23-1.77-2.48-2.68-3.69a3.49,3.49,0,0,0-4.09-1.19c2.22,3.07,4.3,6.2,6.65,9.12a13.31,13.31,0,0,0,7.18,4.44,10.25,10.25,0,0,0,9.22-1.7c1.76-1.34,3.58-2.6,5.37-3.91A8,8,0,0,0,377.82,83.81Z"/><path class="cls-6" d="M378.46,73.4a8,8,0,0,1-1.82,11.4c-1.79,1.31-3.61,2.57-5.37,3.91a10.25,10.25,0,0,1-9.22,1.7A13.31,13.31,0,0,1,354.87,86c-2.35-2.92-4.43-6-6.65-9.12A3.49,3.49,0,0,1,352.31,78c.91,1.21,1.78,2.46,2.68,3.69a1.62,1.62,0,1,0,2.59-1.9q-3.74-5.2-7.5-10.4l-8-11a1.4,1.4,0,1,1,2.24-1.63l4.94,6.82c1.84,2.54,3.67,5.09,5.51,7.62a1.6,1.6,0,1,0,2.59-1.85l2.36-1.48a1.49,1.49,0,0,0,2.23.36,1.51,1.51,0,0,0,.31-2.29l-.06-.08,2.24-1.65a1.62,1.62,0,1,0,2.61-1.87c-.61-.86-1.21-1.72-1.86-2.56a.91.91,0,0,1,.13-1.41c.21-.19.44-.35.67-.52a.9.9,0,0,1,1.4.24l1,1.38Q373.44,66.46,378.46,73.4Z"/><path class="cls-6" d="M364.46,64.25l-2.24,1.65c-.94-1.31-1.92-2.6-2.87-3.9a1.53,1.53,0,0,1,1.24-2.46,1.46,1.46,0,0,1,.95.63C362.54,61.5,363.48,62.89,364.46,64.25Z"/><path class="cls-6" d="M359.74,67.91l-2.36,1.48c-1.24-1.7-2.5-3.38-3.75-5.07-.52-.7-.45-1.14.28-1.67l.31-.23c.87-.63,1.29-.52,1.88.35Q357.89,65.37,359.74,67.91Z"/><path class="cls-6" d="M358.25,46.42a1.62,1.62,0,0,1-.32,2.33c-1.17.89-2.37,1.72-3.55,2.58s-2.16,1.58-3.25,2.35a1.69,1.69,0,1,1-2-2.71q3.38-2.49,6.8-4.92A1.66,1.66,0,0,1,358.25,46.42Z"/><path class="cls-6" d="M346,38.9a1.71,1.71,0,0,1,1.4,2.18c-.42,2.66-.83,5.33-1.29,8a4.62,4.62,0,0,1-.5,1.14,1.83,1.83,0,0,1-2.06.18,1.6,1.6,0,0,1-.79-1.71c.15-1.15.36-2.29.54-3.43.25-1.57.49-3.14.76-4.72A1.7,1.7,0,0,1,346,38.9Z"/><path class="cls-6" d="M339.32,49.33a1.75,1.75,0,0,1-.3,2.53,1.71,1.71,0,0,1-2.47-.58c-.81-1.09-1.6-2.2-2.4-3.31l-2.35-3.24a1.7,1.7,0,1,1,2.73-2Q336.93,46,339.32,49.33Z"/><path class="cls-6" d="M337.46,61.44a1.67,1.67,0,0,1-.49,2.48c-1.11.84-2.25,1.64-3.37,2.45s-2.17,1.58-3.26,2.35a1.69,1.69,0,1,1-2-2.73q3.3-2.43,6.63-4.8A1.68,1.68,0,0,1,337.46,61.44Z"/><path class="cls-6" d="M336.24,55.73a1.75,1.75,0,0,1-.83,1.86,4.36,4.36,0,0,1-1.19.12c-2.72-.4-5.43-.85-8.15-1.3a1.68,1.68,0,0,1-1.51-1.95,1.66,1.66,0,0,1,2-1.39l8.22,1.32A1.63,1.63,0,0,1,336.24,55.73Z"/><rect class="cls-1" x="250" y="4" width="133.75" height="140" rx="3" ry="3"/><circle class="cls-1" cx="263.75" cy="15.25" r="3.75"/><circle class="cls-1" cx="276.25" cy="15.25" r="3.75"/><circle class="cls-1" cx="288.75" cy="15.25" r="3.75"/><line class="cls-1" x1="250" y1="24" x2="383.75" y2="24"/><rect class="cls-2" x="263.75" y="34" width="105" height="97.5"/><rect class="cls-1" x="465.38" y="3.5" width="133.75" height="140" rx="3" ry="3"/><circle class="cls-1" cx="479.13" cy="14.75" r="3.75"/><circle class="cls-1" cx="491.63" cy="14.75" r="3.75"/><circle class="cls-1" cx="504.13" cy="14.75" r="3.75"/><line class="cls-1" x1="465.38" y1="23.5" x2="599.13" y2="23.5"/><line class="cls-7" x1="180.76" y1="133.5" x2="180.76" y2="193.5"/><circle class="cls-7" cx="180.76" cy="161.99" r="21.51"/><polygon class="cls-7" points="192.69 155.32 187.43 150.06 180.76 156.73 174.09 150.06 168.83 155.32 175.5 161.99 168.83 168.66 174.09 173.92 180.76 167.25 187.43 173.92 192.69 168.66 186.02 161.99 192.69 155.32"/><line class="cls-7" x1="692.91" y1="133.5" x2="692.91" y2="193.5"/><circle class="cls-7" cx="692.91" cy="161.99" r="21.51"/><polygon class="cls-7" points="704.84 155.32 699.58 150.06 692.91 156.73 686.24 150.06 680.98 155.32 687.65 161.99 680.98 168.66 686.24 173.92 692.91 167.25 699.58 173.92 704.84 168.66 698.17 161.99 704.84 155.32"/><rect class="cls-1" x="769.25" y="1" width="95" height="115" rx="3" ry="3"/><rect class="cls-2" x="779.25" y="8.5" width="75" height="90" rx="2" ry="2"/><rect class="cls-1" x="869.25" y="36" width="45" height="80" rx="3" ry="3"/><rect class="cls-2" x="874.25" y="41" width="35" height="62.5" rx="2" ry="2"/><rect class="cls-1" x="679.25" y="56" width="85" height="60" rx="3" ry="3"/><rect class="cls-2" x="684.25" y="61" width="67.5" height="50" rx="2" ry="2"/><rect class="cls-2" x="465.38" y="23.5" width="133.88" height="120" rx="3" ry="3"/><rect class="cls-1" x="474.25" y="98.59" width="45" height="35"/><rect class="cls-1" x="526" y="98.59" width="30.75" height="35"/><rect class="cls-1" x="474.25" y="43.59" width="40" height="10"/><rect class="cls-1" x="564.25" y="61.09" width="25" height="62.5"/><rect class="cls-1" x="564.25" y="128.59" width="25" height="5"/><rect class="cls-1" x="564.25" y="43.59" width="25" height="10"/><text class="cls-8" transform="translate(877.32 61.14)">BUY</text><path class="cls-4" d="M884.44,91.61c-2.28,0-3.9-1.8-5-5.49-.07-.26-.14-.51-.2-.75a13.5,13.5,0,0,1-.3-1.61,7.66,7.66,0,0,1,0-2,4.57,4.57,0,0,1,.45-1.46c1.12-2.15,3.68-2.31,5.55-2.42a9.67,9.67,0,0,0,1.87-.22,2.11,2.11,0,0,1,.59-.08c2.41,0,4.07,4,4.49,6.92.37,2.6-.24,4.33-1.68,4.75a9.61,9.61,0,0,0-1.71.84,8.77,8.77,0,0,1-4.12,1.49Z"/><path class="cls-5" d="M887.46,78.6c2.57,0,5.09,9,2.52,9.71-1.51.44-3.59,2.29-5.55,2.29-1.51,0-2.94-1.09-4-4.76-.07-.25-.13-.48-.19-.71a12.28,12.28,0,0,1-.27-1.49,6.62,6.62,0,0,1,0-1.7,3.56,3.56,0,0,1,.35-1.14c1.23-2.36,4.95-1.6,6.82-2.15a1.11,1.11,0,0,1,.31,0m-4.33,9.26a.33.33,0,0,0,.17-.05l.57-.35a.55.55,0,0,0,.23-.58l-1-3.57a.55.55,0,0,0-.5-.37h-.67a.28.28,0,0,0-.28.38l1.24,4.32a.28.28,0,0,0,.27.22m4.33-11.26a3.09,3.09,0,0,0-.87.13,9.59,9.59,0,0,1-1.65.18c-2,.12-5,.31-6.38,3a5.58,5.58,0,0,0-.56,1.78,8.66,8.66,0,0,0,0,2.22,14.47,14.47,0,0,0,.32,1.73c.06.25.13.52.21.79,1.18,4.12,3.18,6.21,5.92,6.21A9.67,9.67,0,0,0,889,91a9.53,9.53,0,0,1,1.5-.75c.93-.27,3-1.39,2.39-5.85-.45-3.13-2.28-7.78-5.48-7.78Z"/><path class="cls-4" d="M891.57,85.45a1,1,0,0,1-1-.72l-1-3.35a1,1,0,0,1,.66-1.23l5.38-1.66a1,1,0,0,1,.3,0,1,1,0,0,1,.29,0l.46.14.63-.48a1,1,0,0,1,.87-.17l.74.2,1.32-.82a1,1,0,0,1,.91-.08l1.75.71a1,1,0,0,1,.59.67l.29,1.09a1,1,0,0,1-.15.84l-1.06,1.5a1,1,0,0,1-.82.42l-1.58,0-.5.57a1,1,0,0,1-.75.34l-.87-.05-.17.26a1,1,0,0,1-.6.43l-5.51,1.4A1,1,0,0,1,891.57,85.45Z"/><path class="cls-5" d="M900.81,78.19l1.75.71.29,1.09-1.06,1.51-2,0-.81.93-1.4-.09-.48.76-5.51,1.4-1-3.35L896,79.43l1,.29,1-.8,1.16.32,1.69-1.05m0-2a2,2,0,0,0-1.06.3l-.95.59-.31-.09a2,2,0,0,0-1.75.35l-.22.17a2,2,0,0,0-1.14,0L890,79.19a2,2,0,0,0-1.33,2.47l1,3.35a2,2,0,0,0,2.41,1.38l5.51-1.4a2,2,0,0,0,1-.63l.24,0H899a2,2,0,0,0,1.51-.69l.19-.22,1.09,0h0a2,2,0,0,0,1.64-.85l1.06-1.51a2,2,0,0,0,.29-1.67l-.29-1.09A2,2,0,0,0,903.32,77l-1.75-.71a2,2,0,0,0-.75-.15Z"/><rect class="cls-2" x="281.62" y="50.8" width="15" height="15"/><rect class="cls-2" x="304.12" y="50.8" width="50" height="15"/><rect class="cls-2" x="281.62" y="103.3" width="15" height="15"/><rect class="cls-2" x="304.12" y="103.3" width="50" height="15"/><text class="cls-9" transform="translate(285.59 62.31)">2</text><rect class="cls-2" x="97.96" y="41.5" width="15" height="15"/><text class="cls-10" transform="translate(101.92 53.01)">1</text><rect class="cls-2" x="281.62" y="76.73" width="15" height="15"/><rect class="cls-2" x="304.12" y="76.73" width="50" height="15"/><text class="cls-9" transform="translate(285.59 88.33)">3</text><text class="cls-9" transform="translate(285.59 115)">4</text><line class="cls-11" x1="147.92" y1="81" x2="224.44" y2="81"/><path class="cls-5" d="M197.1,100.2a2,2,0,0,1,.62-2.76L223.53,81,197.72,64.56a2,2,0,1,1,2.15-3.37l28.46,18.13a2,2,0,0,1,0,3.38l-28.46,18.13a2,2,0,0,1-2.77-.61Z"/><line class="cls-11" x1="615.42" y1="81" x2="659.44" y2="81"/><path class="cls-5" d="M632.1,100.2a2,2,0,0,1,.62-2.76L658.53,81,632.72,64.56a2,2,0,1,1,2.15-3.37l28.46,18.13a2,2,0,0,1,0,3.38l-28.46,18.13a2,2,0,0,1-2.77-.61Z"/><circle class="cls-1" cx="816.75" cy="106" r="5"/><rect class="cls-1" x="874.25" y="106" width="10" height="5"/><rect class="cls-1" x="886.75" y="106" width="10" height="5"/><rect class="cls-1" x="899.25" y="106" width="10" height="5"/><circle class="cls-1" cx="756.75" cy="86" r="2.5"/><path class="cls-4" d="M695.08,90a1,1,0,0,1-.26,0,2.13,2.13,0,0,1-1.57-2V87.9a2.14,2.14,0,0,1,1.35-2.07,1,1,0,0,1,1.38.92c0,.76,0,1.52.11,2.18a1,1,0,0,1-1,1.1Z"/><path class="cls-5" d="M695,86.76c0,.73,0,1.53.11,2.27a1.13,1.13,0,0,1-.83-1v-.13a1.15,1.15,0,0,1,.73-1.1m0-2a2,2,0,0,0-.75.15,3.15,3.15,0,0,0-2,3v.13A3.12,3.12,0,0,0,694.56,91a2,2,0,0,0,2.51-2.12c-.06-.64-.1-1.36-.1-2.09a2,2,0,0,0-2-2Z"/><path class="cls-4" d="M695.34,92.5c-.46,0-.87-.5-1-1-.46-2-1-5.47.38-6.52,10.38-7.72,17.93-9.38,22.45-9.38a17.33,17.33,0,0,1,3.33.3h.12c3.24.61,8.1,4.56,9.34,5.6,10.56.06,12.67,2.76,13.18,5.23a.9.9,0,0,1,.08.44v3.9c0,.55-.38,1.37-.93,1.37Z"/><path class="cls-5" d="M717.19,76.6a15.85,15.85,0,0,1,3.28.33c3.44.64,9.15,5.76,9.15,5.76,11.28,0,12.37,2.82,12.65,4.82h0v4H695.34s-1.09-4.77,0-5.58c10.49-7.8,17.84-9.33,21.85-9.33m0-2h0c-4.67,0-12.45,1.65-23,9.54-.53.39-2.14,1.78-.75,7.64a2.18,2.18,0,0,0,1.95,1.72h47c1.1,0,1.93-1.26,1.93-2.37v-3.9a2,2,0,0,0-.14-.82c-.94-3.93-5.22-5.76-13.77-5.85-1.66-1.38-6.22-5-9.51-5.59l-.11,0a17.57,17.57,0,0,0-3.52-.34Z"/><path class="cls-4" d="M694.85,92.5a2,2,0,0,1-1.6-1.8v-.61a1.79,1.79,0,0,1,1.6-1.59h47.38c.81,0,1,.88,1,1.59v.61c0,.79-.3,1.8-1,1.8Z"/><path class="cls-5" d="M742.23,89.5c.16,0,0,.36,0,.59v.62c0,.23.14.8,0,.8H694.85c-.16,0-.6-.56-.6-.8v-.62c0-.23.44-.59.6-.59h47.4m0-2H694.85a2.8,2.8,0,0,0-2.6,2.59v.62a3,3,0,0,0,2.6,2.8h47.38c1.27,0,2-1.46,2-2.8v-.62c0-1.37-.75-2.59-2-2.59Z"/><path class="cls-4" d="M705.89,81.5a16.55,16.55,0,0,1,4.59-1.83,23.82,23.82,0,0,1,7.27-1.15l.48,0a10,10,0,0,1,5.68,2c.44.31.87.93,1.3.93Z"/><path class="cls-5" d="M717.75,79.48v0c.15,0,.31-.06.46-.06a5.8,5.8,0,0,1,3.84,1H710.91a16.56,16.56,0,0,1,6.84-1m0-1.91a24.94,24.94,0,0,0-7.57,1.24,30.66,30.66,0,0,0-5.72,2.5c-.54.31-1.08.54-1.6.89a1.84,1.84,0,0,1-.56.3h25.4a23.46,23.46,0,0,0-3.21-2.74,11.06,11.06,0,0,0-6.23-2.23c-.17,0-.34,0-.51,0Z"/><rect class="cls-4" x="714.25" y="78.5" width="2" height="4"/><polygon class="cls-5" points="716.25 78.5 714.25 78.5 714.25 82.5 716.25 82.5 716.25 78.5 716.25 78.5"/><circle class="cls-4" cx="733.59" cy="91.39" r="4.38"/><path class="cls-5" d="M733.59,88a3.38,3.38,0,1,1-3.39,3.38A3.38,3.38,0,0,1,733.59,88m0-2A5.38,5.38,0,1,0,739,91.39,5.39,5.39,0,0,0,733.59,86Z"/><circle class="cls-4" cx="702.63" cy="91.39" r="4.38"/><path class="cls-5" d="M702.63,88a3.38,3.38,0,1,1-3.39,3.38A3.38,3.38,0,0,1,702.63,88m0-2A5.38,5.38,0,1,0,708,91.39,5.39,5.39,0,0,0,702.63,86Z"/><rect class="cls-4" x="716.25" y="83.5" width="4" height="2" rx="0.58" ry="0.58"/><path class="cls-5" d="M719.4,83.5h-3c-.32,0-.2.52-.2.84v.35c0,.32-.12.81.2.81h3a1.09,1.09,0,0,0,.85-.81v-.35a1.13,1.13,0,0,0-.85-.84Z"/><path class="cls-4" d="M742.19,89.64a1.81,1.81,0,0,1-1.29-.6,3.26,3.26,0,0,1-1.29-2.09,1.91,1.91,0,0,1,1.78-2.2h.1a.93.93,0,0,1,.75.38,4.22,4.22,0,0,1,1,2.42v1.11a1,1,0,0,1-.31.75,1,1,0,0,1-.64.25Z"/><path class="cls-5" d="M741.46,85.74a3.18,3.18,0,0,1,.79,1.8v1.11c-1-.08-.53-.23-.8-.43-.81-.63-1.12-1.58-.7-2.12a1,1,0,0,1,.71-.35m0-2h-.19a3,3,0,0,0-2.09,1.11c-1.1,1.41-.67,3.54,1,4.88a2.82,2.82,0,0,0,1.87.89l.26,0a1.91,1.91,0,0,0,1.28-.5,2,2,0,0,0,.65-1.5V87.54a5.19,5.19,0,0,0-1.22-3,1.93,1.93,0,0,0-1.54-.76Z"/><path class="cls-1" d="M804.93,43.5h7.61c13.46,0,16,5.77,21.14,9.12,3.67,2.38,6.71,2,8.69,2.5a7.69,7.69,0,0,1,5.24,3.73c.74,1.43,1.09,5.11,1.09,6.73a2.66,2.66,0,0,1-2.45,2.92H789.71c-1.2,0-1.8-1.92-1.9-3.11a24.22,24.22,0,0,1,0-6.46C789.16,52.68,794.12,43.5,804.93,43.5Z"/><circle class="cls-1" cx="800.67" cy="67.74" r="6.38"/><circle class="cls-4" cx="800.67" cy="67.74" r="1.59"/><path class="cls-5" d="M800.67,67.15a.59.59,0,1,1-.59.59.59.59,0,0,1,.59-.59m0-2a2.59,2.59,0,1,0,2.59,2.59,2.59,2.59,0,0,0-2.59-2.59Z"/><circle class="cls-1" cx="834.95" cy="67.74" r="6.38"/><circle class="cls-4" cx="834.94" cy="67.76" r="1.59"/><path class="cls-5" d="M834.94,67.17a.59.59,0,1,1-.59.59.59.59,0,0,1,.59-.59m0-2a2.59,2.59,0,1,0,2.59,2.59,2.59,2.59,0,0,0-2.59-2.59Z"/><path class="cls-4" d="M787,59.11c-.59.21-1.72.77-1.72,1.43v.17c0,.68.78,1.24,1.39,1.44C786.59,61.15,786.93,60.08,787,59.11Z"/><path class="cls-5" d="M845.06,56.67a1.57,1.57,0,0,0-.62,2.13l.62,1.13a1.57,1.57,0,0,0,2.13.62l.16-.09a1.55,1.55,0,0,0,.68-.76,6.11,6.11,0,0,0-.42-1.14,7.68,7.68,0,0,0-1.69-2.16,1.55,1.55,0,0,0-.71.19Z"/><path class="cls-4" d="M817.59,53.1v-6.4a1,1,0,0,1,1.29-1,19,19,0,0,1,10.74,7.4Z"/><path class="cls-5" d="M818.62,46.67a18.69,18.69,0,0,1,9,5.43h-9l0-5.43m0-2a2,2,0,0,0-2,2v7.4h14.79c-3.16-6-8.91-8.44-12.23-9.36a2,2,0,0,0-.54-.07Z"/><rect class="cls-4" x="805.25" y="45.5" width="8" height="8"/><path class="cls-5" d="M812.25,46.5v6h-6v-6h6m2-2h-10v10h10v-10Z"/><path class="cls-4" d="M793,53.1a4.33,4.33,0,0,1,.69-1.69c1.38-2.33,4.31-5.19,6.81-6V53.1Z"/><path class="cls-5" d="M799.48,47V52.1h-5.08A15.89,15.89,0,0,1,799.48,47m1.3-2.64-.16,0c-4.94,1.21-11.14,9.77-7.58,9.77h8.45V45a.72.72,0,0,0-.7-.72Z"/><rect class="cls-4" x="816.25" y="56.5" width="4" height="1" rx="0.4" ry="0.4"/><rect class="cls-4" x="804.25" y="56.5" width="4" height="1" rx="0.4" ry="0.4"/><path class="cls-5" d="M833.25,53.6c0-.35-1.31-1.1-1.66-1.1h-4.15c-.34,0-1.2.75-1.2,1.1V55c0,.35.85,1.46,1.2,1.46h4.15c.34,0,1.66-1.12,1.66-1.46Z"/><path class="cls-1" d="M501.93,61.5h7.61c13.46,0,16,5.77,21.14,9.12,3.67,2.38,6.71,2,8.69,2.5a7.69,7.69,0,0,1,5.24,3.73c.74,1.43,1.09,5.11,1.09,6.73a2.66,2.66,0,0,1-2.45,2.92H486.71c-1.2,0-1.8-1.92-1.9-3.11a24.22,24.22,0,0,1,0-6.46C486.16,70.68,491.12,61.5,501.93,61.5Z"/><circle class="cls-1" cx="497.67" cy="85.74" r="6.38"/><circle class="cls-4" cx="497.67" cy="85.74" r="1.59"/><path class="cls-5" d="M497.67,85.15a.59.59,0,1,1-.59.59.59.59,0,0,1,.59-.59m0-2a2.59,2.59,0,1,0,2.59,2.59,2.59,2.59,0,0,0-2.59-2.59Z"/><circle class="cls-1" cx="531.95" cy="85.74" r="6.38"/><circle class="cls-4" cx="531.94" cy="85.76" r="1.59"/><path class="cls-5" d="M531.94,85.17a.59.59,0,1,1-.59.59.59.59,0,0,1,.59-.59m0-2a2.59,2.59,0,1,0,2.59,2.59,2.59,2.59,0,0,0-2.59-2.59Z"/><path class="cls-4" d="M484,77.11c-.59.21-1.72.77-1.72,1.43v.17c0,.68.78,1.24,1.39,1.44C483.59,79.15,483.93,78.08,484,77.11Z"/><path class="cls-12" d="M542.06,74.67a1.57,1.57,0,0,0-.62,2.13l.62,1.13a1.57,1.57,0,0,0,2.13.62l.16-.09a1.55,1.55,0,0,0,.68-.76,6.11,6.11,0,0,0-.42-1.14,7.68,7.68,0,0,0-1.69-2.16,1.55,1.55,0,0,0-.71.19Z"/><path class="cls-4" d="M514.59,71.1v-6.4a1,1,0,0,1,1.29-1,19,19,0,0,1,10.74,7.4Z"/><path class="cls-5" d="M515.62,64.67a18.69,18.69,0,0,1,9,5.43h-9l0-5.43m0-2a2,2,0,0,0-2,2v7.4h14.79c-3.16-6-8.91-8.44-12.23-9.36a2,2,0,0,0-.54-.07Z"/><rect class="cls-4" x="502.25" y="63.5" width="8" height="8"/><path class="cls-5" d="M509.25,64.5v6h-6v-6h6m2-2h-10v10h10v-10Z"/><path class="cls-4" d="M490,71.1a4.33,4.33,0,0,1,.69-1.69c1.38-2.33,4.31-5.19,6.81-6V71.1Z"/><path class="cls-5" d="M496.48,65V70.1h-5.08A15.89,15.89,0,0,1,496.48,65m1.3-2.64-.16,0c-4.94,1.21-11.14,9.77-7.58,9.77h8.45V63a.72.72,0,0,0-.7-.72Z"/><rect class="cls-4" x="513.25" y="74.5" width="4" height="1" rx="0.4" ry="0.4"/><rect class="cls-4" x="501.25" y="74.5" width="4" height="1" rx="0.4" ry="0.4"/><path class="cls-4" d="M524.58,74.5c-.17-1-.33-1.27-.33-1.46V71.6c0-.08.11-.1.2-.1h4.14c.18,0,.66.06.66.2V73c0,.2-.47.46-.72,1.46Z"/><path class="cls-5" d="M528.56,71.5a2.25,2.25,0,0,1,.69.49v.9c0,.21-.71.62-.9.62h-3.48c-.1,0-.62-.36-.62-.46V71.5h4m.34-1h-4.15c-.34,0-1.2.75-1.2,1.1V73c0,.35.85,1.46,1.2,1.46h4.15c.34,0,1.66-1.12,1.66-1.46V71.6c0-.35-1.31-1.1-1.66-1.1Z"/><rect class="cls-13" x="786.75" y="16" width="35" height="10"/></g></g></svg>