<svg xmlns="http://www.w3.org/2000/svg" xmlns:xlink="http://www.w3.org/1999/xlink" viewBox="0 0 485 70"><defs><style>.cls-1{isolation:isolate;}.cls-2{fill:#ffb600;}.cls-3{mix-blend-mode:multiply;fill:url(#Degradado_sin_nombre_199);}.cls-4,.cls-5{fill:none;stroke:#fff;stroke-miterlimit:10;}.cls-4{stroke-width:2px;}.cls-6{font-size:30.83px;fill:#fff;font-family:ArialMT, Arial;}.cls-7{letter-spacing:-0.02em;}.cls-8{letter-spacing:0em;}.cls-9{letter-spacing:-0.02em;}</style><linearGradient id="Degradado_sin_nombre_199" x1="6.07" y1="35" x2="420" y2="35" gradientUnits="userSpaceOnUse"><stop offset="0" stop-color="#ffb600"/><stop offset="0.07" stop-color="#ffb600" stop-opacity="0.82"/><stop offset="0.16" stop-color="#ffb600" stop-opacity="0.63"/><stop offset="0.26" stop-color="#ffb600" stop-opacity="0.46"/><stop offset="0.36" stop-color="#ffb600" stop-opacity="0.32"/><stop offset="0.46" stop-color="#ffb600" stop-opacity="0.2"/><stop offset="0.57" stop-color="#ffb600" stop-opacity="0.11"/><stop offset="0.69" stop-color="#ffb600" stop-opacity="0.05"/><stop offset="0.82" stop-color="#ffb600" stop-opacity="0.01"/><stop offset="1" stop-color="#ffb600" stop-opacity="0"/></linearGradient></defs><title>when-to-use-it</title><g class="cls-1"><g id="Layer_2" data-name="Layer 2"><g id="texts"><g id="_Group_" data-name="&lt;Group&gt;"><path class="cls-2" d="M0,0H450a35,35,0,0,1,35,35v0a35,35,0,0,1-35,35H0a0,0,0,0,1,0,0V0A0,0,0,0,1,0,0Z"/><polygon class="cls-3" points="70.49 70 6.07 0 420 0 420 69.94 70.49 70"/></g><circle class="cls-4" cx="119.81" cy="35" r="26.36"/><path class="cls-5" d="M107.47,29.43c.14-7.61,5.11-12,12.62-12,6,0,12,3.18,12,9.83,0,4.68-2.31,6.36-5.93,8.68-2.51,1.64-3.18,2.36-3.18,5.25h-7.61V38.78c0-3.71,2.12-5.4,3.9-6.7,2-1.3,3.85-2.36,3.85-4.77A2.88,2.88,0,0,0,120,24.37c-2.7,0-4,1.59-4.14,4.14v.91Zm7.28,14.17h9v9h-9Z"/><path class="cls-4" d="M107.47,29.43c.14-7.61,5.11-12,12.62-12,6,0,12,3.18,12,9.83,0,4.68-2.31,6.36-5.93,8.68-2.51,1.64-3.18,2.36-3.18,5.25h-7.61V38.78c0-3.71,2.12-5.4,3.9-6.7,2-1.3,3.85-2.36,3.85-4.77A2.88,2.88,0,0,0,120,24.37c-2.7,0-4,1.59-4.14,4.14v.91Zm7.28,14.17h9v9h-9Z"/><text class="cls-6" transform="translate(180 45)">WHEN<tspan class="cls-7" x="94.19" y="0" xml:space="preserve"> T</tspan><tspan class="cls-8" x="120.47" y="0">O USE I</tspan><tspan class="cls-9" x="233.53" y="0">T</tspan></text></g></g></g></svg>