<svg xmlns="http://www.w3.org/2000/svg" viewBox="0 0 251.83 179"><defs><style>.cls-1,.cls-3{fill:#767676;}.cls-2{fill:#fff;}.cls-3{stroke:#fff;stroke-linecap:round;stroke-linejoin:round;stroke-width:2px;}</style></defs><title>wrench</title><g id="Layer_2" data-name="Layer 2"><g id="texts"><rect class="cls-1" x="61" y="151" width="92" height="27" rx="13.38" ry="13.38"/><path class="cls-2" d="M139.63,152A12.38,12.38,0,0,1,152,164.38v.25A12.38,12.38,0,0,1,139.63,177H74.38A12.38,12.38,0,0,1,62,164.63v-.25A12.38,12.38,0,0,1,74.38,152h65.25m0-2H74.38A14.39,14.39,0,0,0,60,164.38v.25A14.39,14.39,0,0,0,74.38,179h65.25A14.39,14.39,0,0,0,154,164.63v-.25A14.39,14.39,0,0,0,139.63,150Z"/><rect class="cls-1" x="91" y="136" width="32" height="27" rx="1" ry="1"/><path class="cls-2" d="M122,137v25H92V137h30m0-2H92a2,2,0,0,0-2,2v25a2,2,0,0,0,2,2h30a2,2,0,0,0,2-2V137a2,2,0,0,0-2-2Z"/><rect class="cls-1" x="1" y="1" width="209.5" height="139.5" rx="6" ry="6"/><path class="cls-2" d="M204.5,2a5,5,0,0,1,5,5V134.5a5,5,0,0,1-5,5H7a5,5,0,0,1-5-5V7A5,5,0,0,1,7,2H204.5m0-2H7A7,7,0,0,0,0,7V134.5a7,7,0,0,0,7,7H204.5a7,7,0,0,0,7-7V7a7,7,0,0,0-7-7Z"/><rect class="cls-1" x="11" y="11" width="189.5" height="119.5" rx="3" ry="3"/><path class="cls-2" d="M197.5,12a2,2,0,0,1,2,2V127.5a2,2,0,0,1-2,2H14a2,2,0,0,1-2-2V14a2,2,0,0,1,2-2H197.5m0-2H14a4,4,0,0,0-4,4V127.5a4,4,0,0,0,4,4H197.5a4,4,0,0,0,4-4V14a4,4,0,0,0-4-4Z"/><polyline class="cls-3" points="37 107 62 82 84.5 99.5 114.5 64.5 137 94.5 174.5 39.5"/><circle class="cls-3" cx="37" cy="107" r="5"/><circle class="cls-3" cx="62" cy="82" r="5"/><circle class="cls-3" cx="84.5" cy="99.5" r="5"/><circle class="cls-3" cx="114.5" cy="64.5" r="5"/><circle class="cls-3" cx="137" cy="94.5" r="5"/><circle class="cls-3" cx="174.5" cy="39.5" r="10"/><path class="cls-3" d="M243.51,119.67a25,25,0,0,0,4.64-28.95L228,110.83l-8.84-2.21L217,99.79,237.1,79.68a25,25,0,0,0-33.58,33.58l-34.25,34.25a7.73,7.73,0,0,0-2,7.34l0,.09a7.73,7.73,0,0,0,5.63,5.63l.09,0a7.73,7.73,0,0,0,7.34-2l34.25-34.25A25,25,0,0,0,243.51,119.67Z"/><circle class="cls-3" cx="175.01" cy="152.82" r="3.12" transform="translate(-56.8 168.51) rotate(-45)"/><line class="cls-3" x1="228.04" y1="110.83" x2="240.19" y2="122.99"/><line class="cls-3" x1="210.36" y1="106.42" x2="207.05" y2="109.73"/><line class="cls-3" x1="212.57" y1="108.62" x2="209.26" y2="111.94"/><line class="cls-3" x1="214.78" y1="110.83" x2="211.47" y2="114.15"/><line class="cls-3" x1="216.99" y1="113.04" x2="213.68" y2="116.36"/><line class="cls-3" x1="219.2" y1="115.25" x2="215.89" y2="118.57"/><line class="cls-3" x1="221.41" y1="117.46" x2="218.1" y2="120.78"/></g></g></svg>