<svg xmlns="http://www.w3.org/2000/svg" viewBox="0 0 202.63 204.76"><defs><style>.cls-1{isolation:isolate;}.cls-2{opacity:0.27;mix-blend-mode:multiply;}.cls-3{fill:#5d9632;}.cls-4,.cls-7{fill:none;}.cls-4,.cls-5,.cls-7{stroke:#fff;stroke-width:2px;}.cls-4{stroke-miterlimit:10;}.cls-5{fill:#2f9622;}.cls-5,.cls-7{stroke-linecap:round;stroke-linejoin:round;}.cls-6,.cls-8{fill:#fff;}.cls-6{opacity:0.25;}.cls-8{opacity:0.5;}</style></defs><title>abc</title><g class="cls-1"><g id="Layer_2" data-name="Layer 2"><g id="Layer_1-2" data-name="Layer 1"><g class="cls-2"><path class="cls-3" d="M10.36,161.92v9.79c0,8.36,5.51,10.61,21,10.61h32c27.34,0,31.42,11.63,34.07,14.28,1.63-2.65,5.71-14.28,33-14.28h32c15.5,0,21-2.24,21-10.61v-9.79h6.73v10.2c0,11.42-5.51,18-24.07,18H133.78c-16.52,0-32.44,2.65-33,14.69H93c-.61-12-16.52-14.69-33-14.69H27.7c-18.56,0-24.07-6.53-24.07-18v-10.2Z"/></g><path class="cls-4" d="M183,36.76v7.42s.51,14.59-20.21,14.59-64,1.82-64,1.82"/><path class="cls-4" d="M178,40.76v62s.32,14.59-20.4,14.59-65.93-.55-65.93-.55"/><polygon class="cls-5" points="201.63 31.02 166.03 45.63 166.03 15.61 201.63 1 201.63 31.02"/><path class="cls-6" d="M196.27,28.9l-22.08,9.16A2.24,2.24,0,0,1,171.1,36V19.81a2.24,2.24,0,0,1,1.39-2.07l22.08-9.16a2.24,2.24,0,0,1,3.09,2.07V26.83A2.24,2.24,0,0,1,196.27,28.9Z"/><path class="cls-5" d="M157,24.68c0-4.94-3.35-7.92-8.39-7.92H104c-5,0-10,3-10,7.92v45c0,4.94,4.94,9.1,10,9.1h44.64c5,0,8.39-4.16,8.39-9.1Z"/><rect class="cls-7" x="89.45" y="32.8" width="5.59" height="3.67"/><rect class="cls-7" x="89.45" y="49.13" width="5.59" height="3.67"/><rect class="cls-7" x="89.45" y="65.46" width="5.59" height="3.67"/><line class="cls-7" x1="90" y1="35.76" x2="79" y2="35.76"/><line class="cls-7" x1="90" y1="48.76" x2="79" y2="48.76"/><line class="cls-7" x1="90" y1="66.76" x2="79" y2="66.76"/><path class="cls-5" d="M79,61.68c0-4.94-3.35-7.92-8.39-7.92H26c-5,0-10,3-10,7.92v45c0,4.94,4.94,9.1,10,9.1H70.61c5,0,8.39-4.16,8.39-9.1Z"/><rect class="cls-7" x="11.45" y="69.8" width="5.59" height="3.67"/><rect class="cls-7" x="11.45" y="86.13" width="5.59" height="3.67"/><rect class="cls-7" x="11.45" y="102.46" width="5.59" height="3.67"/><line class="cls-7" x1="12" y1="72.76" x2="1" y2="72.76"/><line class="cls-7" x1="12" y1="85.76" x2="1" y2="85.76"/><line class="cls-7" x1="12" y1="103.76" x2="1" y2="103.76"/><path class="cls-5" d="M157,92.34c0-4.94-3.35-7.59-8.39-7.59H104c-5,0-10,2.64-10,7.59v45c0,4.94,4.94,9.44,10,9.44h44.64c5,0,8.39-4.5,8.39-9.44Z"/><rect class="cls-7" x="89.45" y="100.47" width="5.59" height="3.67"/><rect class="cls-7" x="89.45" y="116.8" width="5.59" height="3.67"/><rect class="cls-7" x="89.45" y="133.12" width="5.59" height="3.67"/><line class="cls-7" x1="90" y1="103.76" x2="79" y2="103.76"/><line class="cls-7" x1="90" y1="116.76" x2="79" y2="116.76"/><line class="cls-7" x1="90" y1="134.76" x2="79" y2="134.76"/><path class="cls-8" d="M127.24,31a20.9,20.9,0,0,1,4.38.42A9.45,9.45,0,0,1,135,32.77a6.47,6.47,0,0,1,2.19,2.56,9,9,0,0,1,.78,4,7.36,7.36,0,0,1-1.15,4.24,8.38,8.38,0,0,1-3.41,2.78A8.08,8.08,0,0,1,138,49.43a10.27,10.27,0,0,1,.54,9.79,8.57,8.57,0,0,1-2.66,3A11.76,11.76,0,0,1,132.11,64a17.17,17.17,0,0,1-4.4.56H111.43V31Zm-.94,13.6a5.31,5.31,0,0,0,3.25-.94,3.55,3.55,0,0,0,1.27-3.06,3.91,3.91,0,0,0-.42-1.93,3.14,3.14,0,0,0-1.13-1.18,4.78,4.78,0,0,0-1.62-.59,10.81,10.81,0,0,0-1.91-.16h-6.92v7.86Zm.42,14.26a9.89,9.89,0,0,0,2.07-.21,5.09,5.09,0,0,0,1.74-.71,3.56,3.56,0,0,0,1.2-1.34,4.62,4.62,0,0,0,.45-2.17,4.35,4.35,0,0,0-1.46-3.69,6.23,6.23,0,0,0-3.86-1.11h-8v9.22Z"/><path class="cls-8" d="M132.18,109.49a7.46,7.46,0,0,0-1.65-1.86,7.72,7.72,0,0,0-4.85-1.69,8.62,8.62,0,0,0-4.24,1,8,8,0,0,0-2.82,2.59,11.34,11.34,0,0,0-1.58,3.69,18.39,18.39,0,0,0-.49,4.28,17.11,17.11,0,0,0,.49,4.12,11.11,11.11,0,0,0,1.58,3.6,8.08,8.08,0,0,0,2.82,2.56,8.62,8.62,0,0,0,4.24,1,6.84,6.84,0,0,0,5.29-2.07,9.58,9.58,0,0,0,2.33-5.46h7.15a17.09,17.09,0,0,1-1.46,5.7,13.65,13.65,0,0,1-3.11,4.33,13.21,13.21,0,0,1-4.52,2.73,16.56,16.56,0,0,1-5.69.94,17.22,17.22,0,0,1-6.94-1.34,14.86,14.86,0,0,1-5.2-3.69,16.35,16.35,0,0,1-3.25-5.53,20.29,20.29,0,0,1-1.13-6.85,21,21,0,0,1,1.13-7,16.79,16.79,0,0,1,3.25-5.62,14.85,14.85,0,0,1,5.2-3.77,18,18,0,0,1,12.19-.56,14.22,14.22,0,0,1,4.42,2.33,12.6,12.6,0,0,1,3.22,3.79,13.55,13.55,0,0,1,1.6,5.18H133A6,6,0,0,0,132.18,109.49Z"/><path class="cls-8" d="M49.71,68l12.57,33.6H54.6l-2.54-7.48H39.49l-2.64,7.48H29.42L42.13,68Zm.42,20.61L45.89,76.24H45.8L41.42,88.57Z"/></g></g></g></svg>