<svg xmlns="http://www.w3.org/2000/svg" viewBox="0 0 186.66 166.42"><defs><style>.cls-1{isolation:isolate;}.cls-2{opacity:0.27;mix-blend-mode:multiply;}.cls-3{fill:#5d9632;}.cls-4,.cls-7{fill:none;}.cls-4,.cls-5,.cls-7{stroke:#fff;stroke-width:2px;}.cls-4{stroke-miterlimit:10;}.cls-5{fill:#2f9622;}.cls-5,.cls-7{stroke-linecap:round;stroke-linejoin:round;}.cls-6,.cls-8{fill:#fff;}.cls-6{opacity:0.25;}.cls-8{opacity:0.5;}</style></defs><title>abc2</title><g class="cls-1"><g id="Layer_2" data-name="Layer 2"><g id="Layer_1-2" data-name="Layer 1"><g class="cls-2"><path class="cls-3" d="M6.73,123.58v9.79c0,8.36,5.51,10.61,21,10.61h32c27.34,0,31.42,11.63,34.07,14.28,1.63-2.65,5.71-14.28,33-14.28h32c15.5,0,21-2.24,21-10.61v-9.79h6.73v10.2c0,11.42-5.51,18-24.07,18H130.15c-16.52,0-32.44,2.65-33,14.69H89.35c-.61-12-16.52-14.69-33-14.69H24.07C5.51,151.73,0,145.2,0,133.78v-10.2Z"/></g><path class="cls-4" d="M160.37,30.42v5.66s.34,11.85-16.49,11.85-52,1.66-52,1.66"/><path class="cls-4" d="M156.37,32.42V83.64s.16,11.85-16.67,11.85-53.52-.88-53.52-.88"/><polygon class="cls-5" points="175.37 25.39 146.44 37.26 146.44 12.87 175.37 1 175.37 25.39"/><path class="cls-6" d="M171,23.66l-17.94,7.44a1.82,1.82,0,0,1-2.51-1.68V16.28a1.82,1.82,0,0,1,1.13-1.68l17.94-7.44a1.82,1.82,0,0,1,2.51,1.68V22A1.82,1.82,0,0,1,171,23.66Z"/><path class="cls-5" d="M138.37,20.24c0-4-2-5.82-6.07-5.82H96c-4.09,0-7.66,1.8-7.66,5.82V56.78A7.88,7.88,0,0,0,96,64.42h36.27c4.09,0,6.07-3.63,6.07-7.64Z"/><rect class="cls-7" x="84.23" y="26.84" width="4.54" height="2.98"/><rect class="cls-7" x="84.23" y="40.1" width="4.54" height="2.98"/><rect class="cls-7" x="84.23" y="53.37" width="4.54" height="2.98"/><line class="cls-7" x1="85.37" y1="29.42" x2="75.37" y2="29.42"/><line class="cls-7" x1="85.37" y1="39.42" x2="75.37" y2="39.42"/><line class="cls-7" x1="85.37" y1="53.42" x2="75.37" y2="53.42"/><path class="cls-5" d="M75.37,50.3c0-4-2.35-6.88-6.44-6.88H32.66c-4.09,0-8.29,2.86-8.29,6.88V86.84c0,4,4.2,6.58,8.29,6.58H68.92c4.09,0,6.44-2.57,6.44-6.58Z"/><rect class="cls-7" x="20.86" y="56.9" width="4.54" height="2.98"/><rect class="cls-7" x="20.86" y="70.16" width="4.54" height="2.98"/><rect class="cls-7" x="20.86" y="83.43" width="4.54" height="2.98"/><line class="cls-7" x1="21.37" y1="59.42" x2="12.37" y2="59.42"/><line class="cls-7" x1="21.37" y1="70.42" x2="12.37" y2="70.42"/><line class="cls-7" x1="21.37" y1="84.42" x2="12.37" y2="84.42"/><path class="cls-5" d="M138.37,75.21c0-4-2-5.79-6.07-5.79H96c-4.09,0-7.66,1.78-7.66,5.79v36.54A7.91,7.91,0,0,0,96,119.42h36.27c4.09,0,6.07-3.65,6.07-7.67Z"/><rect class="cls-7" x="84.23" y="81.81" width="4.54" height="2.98"/><rect class="cls-7" x="84.23" y="95.08" width="4.54" height="2.98"/><rect class="cls-7" x="84.23" y="108.34" width="4.54" height="2.98"/><line class="cls-7" x1="85.37" y1="84.42" x2="75.37" y2="84.42"/><line class="cls-7" x1="85.37" y1="94.42" x2="75.37" y2="94.42"/><line class="cls-7" x1="85.37" y1="110.42" x2="75.37" y2="110.42"/><path class="cls-8" d="M114.93,25.34a17,17,0,0,1,3.56.34,7.68,7.68,0,0,1,2.75,1.13A5.25,5.25,0,0,1,123,28.89a7.33,7.33,0,0,1,.63,3.21,6,6,0,0,1-.94,3.44,6.81,6.81,0,0,1-2.77,2.26,6.56,6.56,0,0,1,3.77,2.54,8.34,8.34,0,0,1,.44,8A7,7,0,0,1,122,50.76a9.56,9.56,0,0,1-3.1,1.41,14,14,0,0,1-3.57.46H102.08V25.34Zm-.76,11a4.31,4.31,0,0,0,2.64-.76,2.89,2.89,0,0,0,1-2.49,3.18,3.18,0,0,0-.34-1.57,2.55,2.55,0,0,0-.92-1,3.89,3.89,0,0,0-1.32-.48,8.78,8.78,0,0,0-1.55-.13h-5.62v6.39ZM114.51,48a8,8,0,0,0,1.68-.17,4.13,4.13,0,0,0,1.41-.57,2.89,2.89,0,0,0,1-1.09,3.76,3.76,0,0,0,.36-1.76,3.53,3.53,0,0,0-1.19-3,5.06,5.06,0,0,0-3.14-.9h-6.54V48Z"/><path class="cls-8" d="M118.95,89.14a6.06,6.06,0,0,0-1.34-1.51,6.27,6.27,0,0,0-3.94-1.38,7,7,0,0,0-3.44.78,6.5,6.5,0,0,0-2.29,2.1,9.21,9.21,0,0,0-1.28,3,14.94,14.94,0,0,0-.4,3.48,13.9,13.9,0,0,0,.4,3.35,9,9,0,0,0,1.28,2.93,6.56,6.56,0,0,0,2.29,2.08,7,7,0,0,0,3.44.78,5.55,5.55,0,0,0,4.3-1.68,7.78,7.78,0,0,0,1.89-4.44h5.81a13.89,13.89,0,0,1-1.19,4.63,11.09,11.09,0,0,1-2.52,3.52A10.73,10.73,0,0,1,118.3,109a13.46,13.46,0,0,1-4.63.76,14,14,0,0,1-5.64-1.09,12.07,12.07,0,0,1-4.22-3,13.28,13.28,0,0,1-2.64-4.49,16.49,16.49,0,0,1-.92-5.56,17.06,17.06,0,0,1,.92-5.68,13.64,13.64,0,0,1,2.64-4.57A12.07,12.07,0,0,1,108,82.32a14.64,14.64,0,0,1,9.9-.46,11.55,11.55,0,0,1,3.59,1.89,10.24,10.24,0,0,1,2.62,3.08,11,11,0,0,1,1.3,4.21h-5.81A4.91,4.91,0,0,0,118.95,89.14Z"/><path class="cls-8" d="M51.94,55.4,62.15,82.7H55.91l-2.06-6.08H43.64L41.5,82.7h-6L45.78,55.4Zm.34,16.75-3.44-10h-.08l-3.56,10Z"/></g></g></g></svg>