<svg xmlns="http://www.w3.org/2000/svg" viewBox="0 0 441.98 140.68"><defs><style>.cls-1{isolation:isolate;}.cls-2{fill:#fff;}.cls-3,.cls-4,.cls-7{fill:none;}.cls-3,.cls-4,.cls-6{stroke:#fff;}.cls-3,.cls-4,.cls-6,.cls-7{stroke-miterlimit:10;}.cls-3{stroke-width:4px;}.cls-5{fill:#bf3019;opacity:0.49;mix-blend-mode:multiply;}.cls-6,.cls-8{fill:#e6e7e8;}.cls-6{stroke-width:4.41px;}.cls-7{stroke:#767676;stroke-width:1.15px;}.cls-9{fill:#6ad1f7;}.cls-10{fill:#0080b1;}</style></defs><title>Asset 1</title><g class="cls-1"><g id="Layer_2" data-name="Layer 2"><g id="Layer_1-2" data-name="Layer 1"><rect class="cls-2" x="152.96" y="29.3" width="201.74" height="38.4"/><text></text><circle class="cls-3" cx="70.34" cy="70.34" r="62.88"/><polyline class="cls-4" points="13.55 0.5 0.5 0.5 0.5 13.55"/><polyline class="cls-4" points="127.13 140.18 140.18 140.18 140.18 127.13"/><circle class="cls-5" cx="70.34" cy="70.34" r="47.98"/><rect class="cls-6" x="21.77" y="83.91" width="97.14" height="15.27"/><line class="cls-7" x1="31.08" y1="81.61" x2="31.08" y2="90.91"/><line class="cls-7" x1="42.3" y1="81.61" x2="42.3" y2="90.91"/><line class="cls-7" x1="53.51" y1="81.61" x2="53.51" y2="90.91"/><line class="cls-7" x1="64.73" y1="81.61" x2="64.73" y2="90.91"/><line class="cls-7" x1="75.95" y1="81.61" x2="75.95" y2="90.91"/><line class="cls-7" x1="87.16" y1="81.61" x2="87.16" y2="90.91"/><line class="cls-7" x1="98.38" y1="81.61" x2="98.38" y2="90.91"/><line class="cls-7" x1="109.6" y1="81.61" x2="109.6" y2="90.91"/><path class="cls-8" d="M102.5,38l1.17,1.43c-.34.28-.7.53-1,.81l1,1.28c-.34.28-.7.53-1,.81l1,1.28A73.53,73.53,0,0,1,63.29,60h40.5v17H40.45V60H50.91a73.79,73.79,0,0,1-10.3-1.58c.14-.6-.14-1.2,0-1.8A72,72,0,0,0,56.73,58.4,72.67,72.67,0,0,0,89,50.82a73.3,73.3,0,0,1-32,7.34,73.56,73.56,0,0,1-16.46-1.87c.14-.6-.14-1.2,0-1.8a72,72,0,0,0,16.11,1.82A72.67,72.67,0,0,0,89,48.73a73.31,73.31,0,0,1-32,7.34A73.56,73.56,0,0,1,40.61,54.2c.14-.6-.14-1.2,0-1.8a72.12,72.12,0,0,0,16.14,1.83A72.36,72.36,0,0,0,102.5,38m0-3a3,3,0,0,0-1.9.68A69.43,69.43,0,0,1,56.75,51.23a69.23,69.23,0,0,1-15.46-1.75,3,3,0,0,0-3.6,2.25,5.45,5.45,0,0,0-.06,1.91v.11a3,3,0,0,0,0,.48,5.9,5.9,0,0,0,0,1.49v.11a3,3,0,0,0,0,.48,5.9,5.9,0,0,0,0,1.49v.11a3,3,0,0,0,0,.93A3,3,0,0,0,37.45,60v17a3,3,0,0,0,3,3h63.35a3,3,0,0,0,3-3V60a3,3,0,0,0-3-3H87.41a76.82,76.82,0,0,0,18.15-11.07,3,3,0,0,0,.91-3.36,3,3,0,0,0,0-2.08A3,3,0,0,0,106,37.5l-.4-.49-.77-.94A3,3,0,0,0,102.5,35Z"/><rect class="cls-9" x="40.45" y="59.95" width="63.35" height="16.97"/><rect class="cls-10" x="40.45" y="75.07" width="63.35" height="1.84"/><rect class="cls-10" x="40.45" y="71.29" width="63.35" height="1.84"/><rect class="cls-10" x="40.45" y="67.51" width="63.35" height="1.84"/><rect class="cls-10" x="40.45" y="63.73" width="63.35" height="1.84"/><rect class="cls-10" x="40.45" y="59.95" width="63.35" height="1.84"/><path class="cls-10" d="M103.67,43.56A73.41,73.41,0,0,1,40.61,58.37c.14-.6-.14-1.2,0-1.8A72.43,72.43,0,0,0,102.5,42.14Z"/><path class="cls-9" d="M103.67,41.48A73.41,73.41,0,0,1,40.61,56.29c.14-.6-.14-1.2,0-1.8A72.43,72.43,0,0,0,102.5,40.05Z"/><path class="cls-10" d="M103.67,39.4A73.41,73.41,0,0,1,40.61,54.2c.14-.6-.14-1.2,0-1.8A72.43,72.43,0,0,0,102.5,38Z"/><path class="cls-10" d="M68.66,49a2,2,0,0,1-1.41-.59L55.87,37.07a2,2,0,0,1,1.41-3.41h3.48V21.07a2,2,0,0,1,2-2H74.55a2,2,0,0,1,2,2V33.65H80a2,2,0,0,1,1.41,3.41L70.07,48.44A2,2,0,0,1,68.66,49Z"/><path class="cls-2" d="M74.55,21.07V35.65H80L68.66,47,57.29,35.65h5.48V21.07H74.55M80,35.65h0M74.55,17.07H62.77a4,4,0,0,0-4,4V31.65H57.29a4,4,0,0,0-2.83,6.83L65.83,49.85a4,4,0,0,0,5.66,0L82.79,38.54A4,4,0,0,0,80,31.65H78.55V21.07a4,4,0,0,0-4-4Z"/></g></g></g></svg>