<svg xmlns="http://www.w3.org/2000/svg" viewBox="0 0 1706.95 247.47"><defs><style>.cls-1{isolation:isolate;}.cls-2{opacity:0.2;mix-blend-mode:multiply;}.cls-3{fill:#007cc0;}.cls-4{fill:#fff;}</style></defs><title>building-bg</title><g class="cls-1"><g id="Layer_2" data-name="Layer 2"><g id="Layer_1-2" data-name="Layer 1"><g class="cls-2"><rect class="cls-3" x="1188.03" y="179.09" width="85.37" height="68.38"/><rect class="cls-3" x="1155.85" y="184.41" width="36.82" height="63.06"/><rect class="cls-3" x="1157.38" y="180.22" width="26.8" height="10.43"/><rect class="cls-3" x="1162.19" y="176.13" width="16.57" height="7.16"/><rect class="cls-3" x="1169.15" y="173.57" width="5.11" height="3.89"/><rect class="cls-3" x="1200.72" y="111.04" width="36.82" height="136.43"/><rect class="cls-3" x="1203.17" y="92.56" width="31.91" height="29.87"/><rect class="cls-3" x="1205.32" y="87.66" width="27.62" height="14.93"/><rect class="cls-3" x="1207.52" y="76.61" width="23.22" height="23.22"/><rect class="cls-3" x="1211.46" y="70.88" width="15.34" height="11.05"/><rect class="cls-4" x="1207.16" y="97.27" width="10.33" height="5.32"/><rect class="cls-4" x="1220.76" y="97.27" width="10.33" height="5.32"/><rect class="cls-4" x="1207.16" y="107.5" width="10.33" height="5.32"/><rect class="cls-4" x="1220.76" y="107.5" width="10.33" height="5.32"/><rect class="cls-4" x="1207.16" y="117.73" width="10.33" height="5.32"/><rect class="cls-4" x="1220.76" y="117.73" width="10.33" height="5.32"/><rect class="cls-4" x="1207.16" y="127.95" width="10.33" height="5.32"/><rect class="cls-4" x="1220.76" y="127.95" width="10.33" height="5.32"/><rect class="cls-4" x="1207.16" y="138.18" width="10.33" height="5.32"/><rect class="cls-4" x="1220.76" y="138.18" width="10.33" height="5.32"/><rect class="cls-4" x="1207.16" y="148.41" width="10.33" height="5.32"/><rect class="cls-4" x="1220.76" y="148.41" width="10.33" height="5.32"/><rect class="cls-4" x="1207.16" y="158.64" width="10.33" height="5.32"/><rect class="cls-4" x="1220.76" y="158.64" width="10.33" height="5.32"/><rect class="cls-4" x="1207.16" y="168.87" width="10.33" height="5.32"/><rect class="cls-4" x="1220.76" y="168.87" width="10.33" height="5.32"/><rect class="cls-4" x="1207.16" y="179.09" width="10.33" height="5.32"/><rect class="cls-4" x="1220.76" y="179.09" width="10.33" height="5.32"/><rect class="cls-4" x="1207.16" y="189.32" width="10.33" height="5.32"/><rect class="cls-4" x="1220.76" y="189.32" width="10.33" height="5.32"/><rect class="cls-3" x="1495.47" y="179.09" width="85.37" height="68.38"/><rect class="cls-3" x="1463.29" y="184.41" width="36.82" height="63.06"/><rect class="cls-3" x="1464.82" y="180.22" width="26.8" height="10.43"/><rect class="cls-3" x="1469.63" y="176.13" width="16.57" height="7.16"/><rect class="cls-3" x="1476.58" y="173.57" width="5.11" height="3.89"/><rect class="cls-3" x="1508.15" y="111.04" width="36.82" height="136.43"/><rect class="cls-3" x="1510.61" y="92.56" width="31.91" height="29.87"/><rect class="cls-3" x="1512.76" y="87.66" width="27.62" height="14.93"/><rect class="cls-3" x="1514.96" y="76.61" width="23.22" height="23.22"/><rect class="cls-3" x="1518.89" y="70.88" width="15.34" height="11.05"/><rect class="cls-3" x="1522.07" y="43.26" width="9" height="35.8"/><rect class="cls-3" x="1524.83" width="3.48" height="46.84"/><rect class="cls-3" x="1522.07" y="38.05" width="9" height="1.94"/><rect class="cls-4" x="1514.6" y="97.27" width="10.33" height="5.32"/><rect class="cls-4" x="1528.2" y="97.27" width="10.33" height="5.32"/><rect class="cls-4" x="1514.6" y="107.5" width="10.33" height="5.32"/><rect class="cls-4" x="1528.2" y="107.5" width="10.33" height="5.32"/><rect class="cls-4" x="1514.6" y="117.73" width="10.33" height="5.32"/><rect class="cls-4" x="1528.2" y="117.73" width="10.33" height="5.32"/><rect class="cls-4" x="1514.6" y="127.95" width="10.33" height="5.32"/><rect class="cls-4" x="1528.2" y="127.95" width="10.33" height="5.32"/><rect class="cls-4" x="1514.6" y="138.18" width="10.33" height="5.32"/><rect class="cls-4" x="1528.2" y="138.18" width="10.33" height="5.32"/><rect class="cls-4" x="1514.6" y="148.41" width="10.33" height="5.32"/><rect class="cls-4" x="1528.2" y="148.41" width="10.33" height="5.32"/><rect class="cls-4" x="1514.6" y="158.64" width="10.33" height="5.32"/><rect class="cls-4" x="1528.2" y="158.64" width="10.33" height="5.32"/><rect class="cls-4" x="1514.6" y="168.87" width="10.33" height="5.32"/><rect class="cls-4" x="1528.2" y="168.87" width="10.33" height="5.32"/><rect class="cls-4" x="1514.6" y="179.09" width="10.33" height="5.32"/><rect class="cls-4" x="1528.2" y="179.09" width="10.33" height="5.32"/><rect class="cls-4" x="1514.6" y="189.32" width="10.33" height="5.32"/><rect class="cls-4" x="1528.2" y="189.32" width="10.33" height="5.32"/><rect class="cls-3" x="1617.39" y="115.41" width="41.19" height="132.07"/><rect class="cls-3" x="1625.03" y="112.82" width="31.37" height="9.61"/><rect class="cls-3" x="1636.21" y="110.16" width="15.82" height="7.47"/><rect class="cls-4" x="1626.02" y="125.5" width="10.33" height="5.32"/><rect class="cls-4" x="1639.62" y="125.5" width="10.33" height="5.32"/><rect class="cls-4" x="1626.02" y="135.73" width="10.33" height="5.32"/><rect class="cls-4" x="1639.62" y="135.73" width="10.33" height="5.32"/><rect class="cls-4" x="1626.02" y="145.96" width="10.33" height="5.32"/><rect class="cls-4" x="1639.62" y="145.96" width="10.33" height="5.32"/><rect class="cls-4" x="1626.02" y="156.18" width="10.33" height="5.32"/><rect class="cls-4" x="1639.62" y="156.18" width="10.33" height="5.32"/><rect class="cls-3" x="1592.3" y="184.41" width="36.82" height="63.06"/><rect class="cls-3" x="1593.83" y="180.22" width="26.8" height="10.43"/><rect class="cls-3" x="1598.64" y="176.13" width="16.57" height="7.16"/><rect class="cls-3" x="1605.59" y="173.57" width="5.11" height="3.89"/><rect class="cls-3" x="1554.25" y="163.14" width="34.67" height="84.34"/><rect class="cls-3" x="1562.13" y="158.13" width="26.8" height="12.27"/><rect class="cls-3" x="1558.24" y="153.73" width="5.01" height="14.11"/><rect class="cls-3" x="1564.89" y="153.73" width="20.66" height="7.57"/><rect class="cls-3" x="1352.65" y="209.17" width="248.03" height="38.31"/><rect class="cls-3" x="1546.07" y="183.29" width="12.17" height="2.97"/><rect class="cls-3" x="1548.32" y="184.77" width="7.57" height="48.79"/><rect class="cls-3" x="1546.07" y="191.98" width="14.68" height="48.54"/><rect class="cls-3" x="1352.65" y="163.14" width="34.67" height="84.34"/><rect class="cls-3" x="1360.53" y="158.13" width="26.8" height="12.27"/><rect class="cls-3" x="1356.64" y="153.73" width="5.01" height="14.11"/><rect class="cls-3" x="1363.29" y="153.73" width="20.66" height="7.57"/><rect class="cls-3" x="1451.51" y="209.17" width="248.03" height="38.31"/><rect class="cls-3" x="1672.28" y="163.14" width="34.67" height="84.34"/><rect class="cls-3" x="1680.15" y="158.13" width="26.8" height="12.27"/><rect class="cls-3" x="1676.27" y="153.73" width="5.01" height="14.11"/><rect class="cls-3" x="1682.92" y="153.73" width="20.66" height="7.57"/><rect class="cls-3" x="1393.68" y="79.06" width="37.23" height="168.41"/><rect class="cls-4" x="1400.33" y="89.09" width="10.33" height="5.32"/><rect class="cls-4" x="1413.94" y="89.09" width="10.33" height="5.32"/><rect class="cls-4" x="1400.33" y="99.32" width="10.33" height="5.32"/><rect class="cls-4" x="1413.94" y="99.32" width="10.33" height="5.32"/><rect class="cls-4" x="1400.33" y="109.54" width="10.33" height="5.32"/><rect class="cls-4" x="1413.94" y="109.54" width="10.33" height="5.32"/><rect class="cls-4" x="1400.33" y="119.77" width="10.33" height="5.32"/><rect class="cls-4" x="1413.94" y="119.77" width="10.33" height="5.32"/><rect class="cls-4" x="1400.33" y="130" width="10.33" height="5.32"/><rect class="cls-4" x="1413.94" y="130" width="10.33" height="5.32"/><rect class="cls-4" x="1400.33" y="140.23" width="10.33" height="5.32"/><rect class="cls-4" x="1413.94" y="140.23" width="10.33" height="5.32"/><rect class="cls-4" x="1400.33" y="150.46" width="10.33" height="5.32"/><rect class="cls-4" x="1413.94" y="150.46" width="10.33" height="5.32"/><rect class="cls-4" x="1400.33" y="160.68" width="10.33" height="5.32"/><rect class="cls-4" x="1413.94" y="160.68" width="10.33" height="5.32"/><rect class="cls-4" x="1400.33" y="170.91" width="10.33" height="5.32"/><rect class="cls-4" x="1413.94" y="170.91" width="10.33" height="5.32"/><rect class="cls-4" x="1400.33" y="181.14" width="10.33" height="5.32"/><rect class="cls-4" x="1413.94" y="181.14" width="10.33" height="5.32"/><rect class="cls-3" x="1396.62" y="76.27" width="30.89" height="7.3"/><rect class="cls-3" x="1402.07" y="66.18" width="25.16" height="15.34"/><rect class="cls-3" x="1406.03" y="64.47" width="21.21" height="3.95"/><rect class="cls-3" x="1428.6" y="127.95" width="5.18" height="119.52"/><rect class="cls-3" x="1432.42" y="111.9" width="49.91" height="135.57"/><rect class="cls-3" x="1436.23" y="105.24" width="23.59" height="13.84"/><rect class="cls-3" x="1466.1" y="103.47" width="8.28" height="12.64"/><rect class="cls-3" x="1475.42" y="109.12" width="4.59" height="7"/><rect class="cls-3" x="1309.95" y="115.41" width="41.19" height="132.07"/><rect class="cls-3" x="1317.59" y="112.82" width="31.37" height="9.61"/><rect class="cls-3" x="1328.77" y="110.16" width="15.82" height="7.47"/><rect class="cls-4" x="1318.58" y="125.5" width="10.33" height="5.32"/><rect class="cls-4" x="1332.18" y="125.5" width="10.33" height="5.32"/><rect class="cls-4" x="1318.58" y="135.73" width="10.33" height="5.32"/><rect class="cls-4" x="1332.18" y="135.73" width="10.33" height="5.32"/><rect class="cls-4" x="1318.58" y="145.96" width="10.33" height="5.32"/><rect class="cls-4" x="1332.18" y="145.96" width="10.33" height="5.32"/><rect class="cls-4" x="1318.58" y="156.18" width="10.33" height="5.32"/><rect class="cls-4" x="1332.18" y="156.18" width="10.33" height="5.32"/><rect class="cls-3" x="1284.86" y="184.41" width="36.82" height="63.06"/><rect class="cls-3" x="1286.4" y="180.22" width="26.8" height="10.43"/><rect class="cls-3" x="1291.2" y="176.13" width="16.57" height="7.16"/><rect class="cls-3" x="1298.16" y="173.57" width="5.11" height="3.89"/><rect class="cls-3" x="1246.81" y="163.14" width="34.67" height="84.34"/><rect class="cls-3" x="1254.69" y="158.13" width="26.8" height="12.27"/><rect class="cls-3" x="1250.8" y="153.73" width="5.01" height="14.11"/><rect class="cls-3" x="1257.45" y="153.73" width="20.66" height="7.57"/><rect class="cls-3" x="1162.19" y="209.17" width="131.06" height="38.31"/><rect class="cls-3" x="1238.63" y="183.29" width="12.17" height="2.97"/><rect class="cls-3" x="1240.88" y="184.77" width="7.57" height="48.79"/><rect class="cls-3" x="1238.63" y="191.98" width="14.68" height="48.54"/></g><g class="cls-2"><rect class="cls-3" x="433.55" y="179.09" width="85.37" height="68.38" transform="translate(952.46 426.57) rotate(-180)"/><rect class="cls-3" x="514.28" y="184.41" width="36.82" height="63.06" transform="translate(1065.38 431.89) rotate(-180)"/><rect class="cls-3" x="522.77" y="180.22" width="26.8" height="10.43" transform="translate(1072.34 370.87) rotate(-180)"/><rect class="cls-3" x="528.19" y="176.13" width="16.57" height="7.16" transform="translate(1072.95 359.42) rotate(-180)"/><rect class="cls-3" x="532.69" y="173.57" width="5.11" height="3.89" transform="translate(1070.49 351.03) rotate(-180)"/><rect class="cls-3" x="469.41" y="111.04" width="36.82" height="136.43" transform="translate(975.65 358.52) rotate(-180)"/><rect class="cls-3" x="471.87" y="92.56" width="31.91" height="29.87" transform="translate(975.65 215) rotate(-180)"/><rect class="cls-3" x="474.01" y="87.66" width="27.62" height="14.93" transform="translate(975.65 190.24) rotate(-180)"/><rect class="cls-3" x="476.21" y="76.61" width="23.22" height="23.22" transform="translate(975.65 176.44) rotate(-180)"/><rect class="cls-3" x="480.15" y="70.88" width="15.34" height="11.05" transform="translate(975.65 152.81) rotate(-180)"/><rect class="cls-4" x="489.46" y="97.27" width="10.33" height="5.32" transform="translate(989.25 199.86) rotate(-180)"/><rect class="cls-4" x="475.86" y="97.27" width="10.33" height="5.32" transform="translate(962.04 199.86) rotate(-180)"/><rect class="cls-4" x="489.46" y="107.5" width="10.33" height="5.32" transform="translate(989.25 220.31) rotate(-180)"/><rect class="cls-4" x="475.86" y="107.5" width="10.33" height="5.32" transform="translate(962.04 220.31) rotate(-180)"/><rect class="cls-4" x="489.46" y="117.73" width="10.33" height="5.32" transform="translate(989.25 240.77) rotate(-180)"/><rect class="cls-4" x="475.86" y="117.73" width="10.33" height="5.32" transform="translate(962.04 240.77) rotate(-180)"/><rect class="cls-4" x="489.46" y="127.95" width="10.33" height="5.32" transform="translate(989.25 261.23) rotate(-180)"/><rect class="cls-4" x="475.86" y="127.95" width="10.33" height="5.32" transform="translate(962.04 261.23) rotate(-180)"/><rect class="cls-4" x="489.46" y="138.18" width="10.33" height="5.32" transform="translate(989.25 281.68) rotate(-180)"/><rect class="cls-4" x="475.86" y="138.18" width="10.33" height="5.32" transform="translate(962.04 281.68) rotate(-180)"/><rect class="cls-4" x="489.46" y="148.41" width="10.33" height="5.32" transform="translate(989.25 302.14) rotate(-180)"/><rect class="cls-4" x="475.86" y="148.41" width="10.33" height="5.32" transform="translate(962.04 302.14) rotate(-180)"/><rect class="cls-4" x="489.46" y="158.64" width="10.33" height="5.32" transform="translate(989.25 322.6) rotate(-180)"/><rect class="cls-4" x="475.86" y="158.64" width="10.33" height="5.32" transform="translate(962.04 322.6) rotate(-180)"/><rect class="cls-4" x="489.46" y="168.87" width="10.33" height="5.32" transform="translate(989.25 343.05) rotate(-180)"/><rect class="cls-4" x="475.86" y="168.87" width="10.33" height="5.32" transform="translate(962.04 343.05) rotate(-180)"/><rect class="cls-4" x="489.46" y="179.09" width="10.33" height="5.32" transform="translate(989.25 363.51) rotate(-180)"/><rect class="cls-4" x="475.86" y="179.09" width="10.33" height="5.32" transform="translate(962.04 363.51) rotate(-180)"/><rect class="cls-4" x="489.46" y="189.32" width="10.33" height="5.32" transform="translate(989.25 383.96) rotate(-180)"/><rect class="cls-4" x="475.86" y="189.32" width="10.33" height="5.32" transform="translate(962.04 383.96) rotate(-180)"/><rect class="cls-3" x="126.11" y="179.09" width="85.37" height="68.38" transform="translate(337.59 426.57) rotate(-180)"/><rect class="cls-3" x="206.84" y="184.41" width="36.82" height="63.06" transform="translate(450.51 431.89) rotate(-180)"/><rect class="cls-3" x="215.33" y="180.22" width="26.8" height="10.43" transform="translate(457.46 370.87) rotate(-180)"/><rect class="cls-3" x="220.75" y="176.13" width="16.57" height="7.16" transform="translate(458.07 359.42) rotate(-180)"/><rect class="cls-3" x="225.25" y="173.57" width="5.11" height="3.89" transform="translate(455.62 351.03) rotate(-180)"/><rect class="cls-3" x="161.97" y="111.04" width="36.82" height="136.43" transform="translate(360.77 358.52) rotate(-180)"/><rect class="cls-3" x="164.43" y="92.56" width="31.91" height="29.87" transform="translate(360.77 215) rotate(-180)"/><rect class="cls-3" x="166.58" y="87.66" width="27.62" height="14.93" transform="translate(360.77 190.24) rotate(-180)"/><rect class="cls-3" x="168.78" y="76.61" width="23.22" height="23.22" transform="translate(360.77 176.44) rotate(-180)"/><rect class="cls-3" x="172.71" y="70.88" width="15.34" height="11.05" transform="translate(360.77 152.81) rotate(-180)"/><rect class="cls-3" x="175.89" y="43.26" width="9" height="35.8" transform="translate(360.77 122.33) rotate(-180)"/><rect class="cls-3" x="178.65" width="3.48" height="46.84" transform="translate(360.77 46.84) rotate(-180)"/><rect class="cls-3" x="175.89" y="38.05" width="9" height="1.94" transform="translate(360.77 78.04) rotate(-180)"/><rect class="cls-4" x="182.02" y="97.27" width="10.33" height="5.32" transform="translate(374.37 199.86) rotate(-180)"/><rect class="cls-4" x="168.42" y="97.27" width="10.33" height="5.32" transform="translate(347.17 199.86) rotate(-180)"/><rect class="cls-4" x="182.02" y="107.5" width="10.33" height="5.32" transform="translate(374.37 220.31) rotate(-180)"/><rect class="cls-4" x="168.42" y="107.5" width="10.33" height="5.32" transform="translate(347.17 220.31) rotate(-180)"/><rect class="cls-4" x="182.02" y="117.73" width="10.33" height="5.32" transform="translate(374.37 240.77) rotate(-180)"/><rect class="cls-4" x="168.42" y="117.73" width="10.33" height="5.32" transform="translate(347.17 240.77) rotate(-180)"/><rect class="cls-4" x="182.02" y="127.95" width="10.33" height="5.32" transform="translate(374.37 261.23) rotate(-180)"/><rect class="cls-4" x="168.42" y="127.95" width="10.33" height="5.32" transform="translate(347.17 261.23) rotate(-180)"/><rect class="cls-4" x="182.02" y="138.18" width="10.33" height="5.32" transform="translate(374.37 281.68) rotate(-180)"/><rect class="cls-4" x="168.42" y="138.18" width="10.33" height="5.32" transform="translate(347.17 281.68) rotate(-180)"/><rect class="cls-4" x="182.02" y="148.41" width="10.33" height="5.32" transform="translate(374.37 302.14) rotate(-180)"/><rect class="cls-4" x="168.42" y="148.41" width="10.33" height="5.32" transform="translate(347.17 302.14) rotate(-180)"/><rect class="cls-4" x="182.02" y="158.64" width="10.33" height="5.32" transform="translate(374.37 322.6) rotate(-180)"/><rect class="cls-4" x="168.42" y="158.64" width="10.33" height="5.32" transform="translate(347.17 322.6) rotate(-180)"/><rect class="cls-4" x="182.02" y="168.87" width="10.33" height="5.32" transform="translate(374.37 343.05) rotate(-180)"/><rect class="cls-4" x="168.42" y="168.87" width="10.33" height="5.32" transform="translate(347.17 343.05) rotate(-180)"/><rect class="cls-4" x="182.02" y="179.09" width="10.33" height="5.32" transform="translate(374.37 363.51) rotate(-180)"/><rect class="cls-4" x="168.42" y="179.09" width="10.33" height="5.32" transform="translate(347.17 363.51) rotate(-180)"/><rect class="cls-4" x="182.02" y="189.32" width="10.33" height="5.32" transform="translate(374.37 383.96) rotate(-180)"/><rect class="cls-4" x="168.42" y="189.32" width="10.33" height="5.32" transform="translate(347.17 383.96) rotate(-180)"/><rect class="cls-3" x="48.37" y="115.41" width="41.19" height="132.07" transform="translate(137.93 362.88) rotate(-180)"/><rect class="cls-3" x="50.56" y="112.82" width="31.37" height="9.61" transform="translate(132.48 235.25) rotate(-180)"/><rect class="cls-3" x="54.92" y="110.16" width="15.82" height="7.47" transform="translate(125.66 227.78) rotate(-180)"/><rect class="cls-4" x="70.6" y="125.5" width="10.33" height="5.32" transform="translate(151.54 256.32) rotate(-180)"/><rect class="cls-4" x="57" y="125.5" width="10.33" height="5.32" transform="translate(124.33 256.32) rotate(-180)"/><rect class="cls-4" x="70.6" y="135.73" width="10.33" height="5.32" transform="translate(151.54 276.77) rotate(-180)"/><rect class="cls-4" x="57" y="135.73" width="10.33" height="5.32" transform="translate(124.33 276.77) rotate(-180)"/><rect class="cls-4" x="70.6" y="145.96" width="10.33" height="5.32" transform="translate(151.54 297.23) rotate(-180)"/><rect class="cls-4" x="57" y="145.96" width="10.33" height="5.32" transform="translate(124.33 297.23) rotate(-180)"/><rect class="cls-4" x="70.6" y="156.18" width="10.33" height="5.32" transform="translate(151.54 317.69) rotate(-180)"/><rect class="cls-4" x="57" y="156.18" width="10.33" height="5.32" transform="translate(124.33 317.69) rotate(-180)"/><rect class="cls-3" x="77.83" y="184.41" width="36.82" height="63.06" transform="translate(192.48 431.89) rotate(-180)"/><rect class="cls-3" x="86.32" y="180.22" width="26.8" height="10.43" transform="translate(199.44 370.87) rotate(-180)"/><rect class="cls-3" x="91.74" y="176.13" width="16.57" height="7.16" transform="translate(200.05 359.42) rotate(-180)"/><rect class="cls-3" x="96.24" y="173.57" width="5.11" height="3.89" transform="translate(197.6 351.03) rotate(-180)"/><rect class="cls-3" x="118.03" y="163.14" width="34.67" height="84.34" transform="translate(270.73 410.61) rotate(-180)"/><rect class="cls-3" x="118.03" y="158.13" width="26.8" height="12.27" transform="translate(262.85 328.53) rotate(-180)"/><rect class="cls-3" x="143.7" y="153.73" width="5.01" height="14.11" transform="translate(292.41 321.57) rotate(-180)"/><rect class="cls-3" x="121.4" y="153.73" width="20.66" height="7.57" transform="translate(263.47 315.03) rotate(-180)"/><rect class="cls-3" x="106.27" y="209.17" width="248.03" height="38.31" transform="translate(460.56 456.64) rotate(-180)"/><rect class="cls-3" x="148.71" y="183.29" width="12.17" height="2.97" transform="translate(309.6 369.54) rotate(-180)"/><rect class="cls-3" x="151.07" y="184.77" width="7.57" height="48.79" transform="translate(309.7 418.34) rotate(-180)"/><rect class="cls-3" x="146.21" y="191.98" width="14.68" height="48.54" transform="translate(307.09 432.5) rotate(-180)"/><rect class="cls-3" x="319.62" y="163.14" width="34.67" height="84.34" transform="translate(673.92 410.61) rotate(-180)"/><rect class="cls-3" x="319.62" y="158.13" width="26.8" height="12.27" transform="translate(666.05 328.53) rotate(-180)"/><rect class="cls-3" x="345.3" y="153.73" width="5.01" height="14.11" transform="translate(695.61 321.57) rotate(-180)"/><rect class="cls-3" x="323" y="153.73" width="20.66" height="7.57" transform="translate(666.66 315.03) rotate(-180)"/><rect class="cls-3" x="7.41" y="209.17" width="248.03" height="38.31" transform="translate(262.85 456.64) rotate(-180)"/><rect class="cls-3" y="163.14" width="34.67" height="84.34" transform="translate(34.67 410.61) rotate(-180)"/><rect class="cls-3" y="158.13" width="26.8" height="12.27" transform="translate(26.8 328.53) rotate(-180)"/><rect class="cls-3" x="25.67" y="153.73" width="5.01" height="14.11" transform="translate(56.36 321.57) rotate(-180)"/><rect class="cls-3" x="3.38" y="153.73" width="20.66" height="7.57" transform="translate(27.41 315.03) rotate(-180)"/><rect class="cls-3" x="276.04" y="79.06" width="37.23" height="168.41" transform="translate(589.3 326.54) rotate(-180)"/><rect class="cls-4" x="296.29" y="89.09" width="10.33" height="5.32" transform="translate(602.91 183.49) rotate(-180)"/><rect class="cls-4" x="282.68" y="89.09" width="10.33" height="5.32" transform="translate(575.7 183.49) rotate(-180)"/><rect class="cls-4" x="296.29" y="99.32" width="10.33" height="5.32" transform="translate(602.91 203.95) rotate(-180)"/><rect class="cls-4" x="282.68" y="99.32" width="10.33" height="5.32" transform="translate(575.7 203.95) rotate(-180)"/><rect class="cls-4" x="296.29" y="109.54" width="10.33" height="5.32" transform="translate(602.91 224.41) rotate(-180)"/><rect class="cls-4" x="282.68" y="109.54" width="10.33" height="5.32" transform="translate(575.7 224.41) rotate(-180)"/><rect class="cls-4" x="296.29" y="119.77" width="10.33" height="5.32" transform="translate(602.91 244.86) rotate(-180)"/><rect class="cls-4" x="282.68" y="119.77" width="10.33" height="5.32" transform="translate(575.7 244.86) rotate(-180)"/><rect class="cls-4" x="296.29" y="130" width="10.33" height="5.32" transform="translate(602.91 265.32) rotate(-180)"/><rect class="cls-4" x="282.68" y="130" width="10.33" height="5.32" transform="translate(575.7 265.32) rotate(-180)"/><rect class="cls-4" x="296.29" y="140.23" width="10.33" height="5.32" transform="translate(602.91 285.77) rotate(-180)"/><rect class="cls-4" x="282.68" y="140.23" width="10.33" height="5.32" transform="translate(575.7 285.77) rotate(-180)"/><rect class="cls-4" x="296.29" y="150.46" width="10.33" height="5.32" transform="translate(602.91 306.23) rotate(-180)"/><rect class="cls-4" x="282.68" y="150.46" width="10.33" height="5.32" transform="translate(575.7 306.23) rotate(-180)"/><rect class="cls-4" x="296.29" y="160.68" width="10.33" height="5.32" transform="translate(602.91 326.69) rotate(-180)"/><rect class="cls-4" x="282.68" y="160.68" width="10.33" height="5.32" transform="translate(575.7 326.69) rotate(-180)"/><rect class="cls-4" x="296.29" y="170.91" width="10.33" height="5.32" transform="translate(602.91 347.14) rotate(-180)"/><rect class="cls-4" x="282.68" y="170.91" width="10.33" height="5.32" transform="translate(575.7 347.14) rotate(-180)"/><rect class="cls-4" x="296.29" y="181.14" width="10.33" height="5.32" transform="translate(602.91 367.6) rotate(-180)"/><rect class="cls-4" x="282.68" y="181.14" width="10.33" height="5.32" transform="translate(575.7 367.6) rotate(-180)"/><rect class="cls-3" x="279.45" y="76.27" width="30.89" height="7.3" transform="translate(589.78 159.83) rotate(-180)"/><rect class="cls-3" x="279.72" y="66.18" width="25.16" height="15.34" transform="translate(584.6 147.69) rotate(-180)"/><rect class="cls-3" x="279.72" y="64.47" width="21.21" height="3.95" transform="translate(580.64 132.9) rotate(-180)"/><rect class="cls-3" x="273.17" y="127.95" width="5.18" height="119.52" transform="translate(551.53 375.43) rotate(-180)"/><rect class="cls-3" x="224.62" y="111.9" width="49.91" height="135.57" transform="translate(499.16 359.38) rotate(-180)"/><rect class="cls-3" x="247.12" y="105.24" width="23.59" height="13.84" transform="translate(517.84 224.33) rotate(-180)"/><rect class="cls-3" x="232.57" y="103.47" width="8.28" height="12.64" transform="translate(473.42 219.59) rotate(-180)"/><rect class="cls-3" x="226.94" y="109.12" width="4.59" height="7" transform="translate(458.47 225.24) rotate(-180)"/><rect class="cls-3" x="355.81" y="115.41" width="41.19" height="132.07" transform="translate(752.81 362.88) rotate(-180)"/><rect class="cls-3" x="357.99" y="112.82" width="31.37" height="9.61" transform="translate(747.35 235.25) rotate(-180)"/><rect class="cls-3" x="362.36" y="110.16" width="15.82" height="7.47" transform="translate(740.54 227.78) rotate(-180)"/><rect class="cls-4" x="378.04" y="125.5" width="10.33" height="5.32" transform="translate(766.41 256.32) rotate(-180)"/><rect class="cls-4" x="364.44" y="125.5" width="10.33" height="5.32" transform="translate(739.21 256.32) rotate(-180)"/><rect class="cls-4" x="378.04" y="135.73" width="10.33" height="5.32" transform="translate(766.41 276.77) rotate(-180)"/><rect class="cls-4" x="364.44" y="135.73" width="10.33" height="5.32" transform="translate(739.21 276.77) rotate(-180)"/><rect class="cls-4" x="378.04" y="145.96" width="10.33" height="5.32" transform="translate(766.41 297.23) rotate(-180)"/><rect class="cls-4" x="364.44" y="145.96" width="10.33" height="5.32" transform="translate(739.21 297.23) rotate(-180)"/><rect class="cls-4" x="378.04" y="156.18" width="10.33" height="5.32" transform="translate(766.41 317.69) rotate(-180)"/><rect class="cls-4" x="364.44" y="156.18" width="10.33" height="5.32" transform="translate(739.21 317.69) rotate(-180)"/><rect class="cls-3" x="385.27" y="184.41" width="36.82" height="63.06" transform="translate(807.36 431.89) rotate(-180)"/><rect class="cls-3" x="393.76" y="180.22" width="26.8" height="10.43" transform="translate(814.31 370.87) rotate(-180)"/><rect class="cls-3" x="399.18" y="176.13" width="16.57" height="7.16" transform="translate(814.93 359.42) rotate(-180)"/><rect class="cls-3" x="403.68" y="173.57" width="5.11" height="3.89" transform="translate(812.47 351.03) rotate(-180)"/><rect class="cls-3" x="425.47" y="163.14" width="34.67" height="84.34" transform="translate(885.6 410.61) rotate(-180)"/><rect class="cls-3" x="425.47" y="158.13" width="26.8" height="12.27" transform="translate(877.73 328.53) rotate(-180)"/><rect class="cls-3" x="451.14" y="153.73" width="5.01" height="14.11" transform="translate(907.29 321.57) rotate(-180)"/><rect class="cls-3" x="428.84" y="153.73" width="20.66" height="7.57" transform="translate(878.34 315.03) rotate(-180)"/><rect class="cls-3" x="413.7" y="209.17" width="131.06" height="38.31" transform="translate(958.46 456.64) rotate(-180)"/><rect class="cls-3" x="456.15" y="183.29" width="12.17" height="2.97" transform="translate(924.47 369.54) rotate(-180)"/><rect class="cls-3" x="458.5" y="184.77" width="7.57" height="48.79" transform="translate(924.57 418.34) rotate(-180)"/><rect class="cls-3" x="453.64" y="191.98" width="14.68" height="48.54" transform="translate(921.97 432.5) rotate(-180)"/></g></g></g></g></svg>