<svg xmlns="http://www.w3.org/2000/svg" viewBox="0 0 248.83 245.83"><defs><style>.cls-1,.cls-3{fill:#2f9622;}.cls-2,.cls-4{fill:#fff;}.cls-3{stroke:#fff;stroke-linecap:round;stroke-linejoin:round;stroke-width:2px;}.cls-4{opacity:0.38;font-size:15.1px;font-family:MuseoSans-900Italic, MuseoSans 900Italic;font-style:italic;}.cls-5{letter-spacing:0em;}</style></defs><title>car-sale</title><g id="Layer_2" data-name="Layer 2"><g id="Layer_1-2" data-name="Layer 1"><path class="cls-1" d="M71.75,65.56a5.39,5.39,0,0,1-5.37-5.31,5.37,5.37,0,0,1,5.31-5.43h0a5.37,5.37,0,0,1,.13,10.74Z"/><path class="cls-2" d="M71.75,55.82a4.37,4.37,0,0,1,.05,8.74h-.05a4.37,4.37,0,0,1-.05-8.74h.05m0-2h-.08a6.37,6.37,0,0,0-6.29,6.45,6.39,6.39,0,0,0,6.37,6.29h.08a6.37,6.37,0,0,0,6.29-6.45,6.39,6.39,0,0,0-6.37-6.29Z"/><path class="cls-1" d="M33.63,66a5.39,5.39,0,0,1-5.37-5.31,5.37,5.37,0,0,1,5.31-5.43h0A5.37,5.37,0,0,1,33.7,66Z"/><path class="cls-2" d="M33.63,56.28A4.37,4.37,0,0,1,33.69,65h-.05a4.37,4.37,0,0,1-.05-8.74h.05m0-2h-.08a6.37,6.37,0,0,0-6.29,6.45A6.39,6.39,0,0,0,33.63,67h.08A6.37,6.37,0,0,0,40,60.57a6.39,6.39,0,0,0-6.37-6.29Z"/><path class="cls-1" d="M26.29,61.74A4.47,4.47,0,0,1,22.52,60c-1.8-2.35-1.79-6.94,0-13.63.89-3.27,3.43-5.68,5.88-8,.47-.45.94-.89,1.39-1.34a12.69,12.69,0,0,1,6.52-3.44h.13l20.15-.24c5.72,0,10.73,5.24,13.2,8.37a4.72,4.72,0,0,0,3.34,1.46h.14a31.29,31.29,0,0,1,7.24,1.23c4.63,1.2,5.36,4.7,5.1,6.47l.07,5.91a4.43,4.43,0,0,1-1.11,3.29,3.58,3.58,0,0,1-2.51,1h-.2L79,61.1a1,1,0,0,1-1-1c0-.25-.25-6.22-6.24-6.22h-.12a5.81,5.81,0,0,0-4.29,1.62,7.34,7.34,0,0,0-1.75,4.73,1,1,0,0,1-1,1l-23.31.28a1,1,0,0,1-1-.93c0-.24-.55-6-6.66-6h-.12a5.93,5.93,0,0,0-6.21,6.1,1,1,0,0,1-1,1Z"/><path class="cls-2" d="M56.63,34.33c5.78,0,10.95,6.13,12.42,8a5.65,5.65,0,0,0,4.13,1.83h.14a30.34,30.34,0,0,1,7,1.2c5.07,1.31,4.35,5.43,4.35,5.43l.07,6c0,3.07-2,3.3-2.62,3.3h-.16L79,60.1s-.17-7.19-7.24-7.19h-.13c-7.19.09-7,7.37-7,7.37l-23.3.28s-.51-6.93-7.66-6.93h-.13c-7.28.09-7.2,7.11-7.2,7.11h-.07c-6.25,0-3.74-10.5-2.76-14.1s4.29-6.22,7-8.91a11.71,11.71,0,0,1,6-3.16l20-.24h.1m0-2h-.12l-20,.24-.26,0a13.77,13.77,0,0,0-7.08,3.72c-.45.44-.91.88-1.37,1.33-2.43,2.31-5.18,4.93-6.15,8.47-1.91,7-1.87,11.88.13,14.5a5.47,5.47,0,0,0,4.56,2.13h.09a2,2,0,0,0,2-2,4.88,4.88,0,0,1,5.22-5.09h.11a5.36,5.36,0,0,1,5.66,5.09,2,2,0,0,0,2,1.84h0l23.3-.28a2,2,0,0,0,2-2c0-.87.19-5.26,5-5.32h.1c5,0,5.23,4.7,5.24,5.24a2,2,0,0,0,2,2h0l2.83,0h.22a4.54,4.54,0,0,0,3.22-1.31,5.39,5.39,0,0,0,1.4-4l-.07-5.84c.27-2.12-.6-6.15-5.85-7.5a32,32,0,0,0-7.49-1.26h-.17a3.72,3.72,0,0,1-2.53-1.08c-2.59-3.27-7.84-8.75-14-8.75Z"/><path class="cls-1" d="M36.93,37.62a8.39,8.39,0,0,1,1.43-.13h.2l11.21-.13.07,6L37,43.55Z"/><path class="cls-2" d="M48.78,38.38l0,4L38,42.54l0-4h.7l10.14-.12m2-2-12.14.15h-.25a9,9,0,0,0-2.44.34L36,44.56l14.84-.18-.1-8Z"/><polygon class="cls-1" points="33.85 39.35 33.91 43.58 29.68 43.63 33.85 39.35"/><path class="cls-2" d="M32.88,41.78v.82h-.82l.81-.83m1.95-4.52a4.41,4.41,0,0,0-1.46,1.16l-6.09,6.24,7.64-.09-.09-7.31Z"/><path class="cls-1" d="M52.86,37.33l4.08,0c1.26,0,2,.06,4.39,1.53a21.15,21.15,0,0,1,4.53,4.39l-12.93.16Z"/><path class="cls-2" d="M56.93,38.28c1.06,0,1.59,0,3.87,1.38a15,15,0,0,1,2.89,2.56l-9.78.12,0-4,2.5,0h.57m0-2h-.59l-4.5.05.1,8,15.93-.19s-3.23-4.52-6-6.22c-2.5-1.52-3.38-1.67-4.91-1.67Z"/><path class="cls-1" d="M71.75,62.3a2.11,2.11,0,1,1,1.51-.64,2.1,2.1,0,0,1-1.49.64Z"/><path class="cls-2" d="M71.75,59.08a1.11,1.11,0,0,1,0,2.23h0a1.11,1.11,0,0,1,0-2.23h0m0-2h0a3.11,3.11,0,0,0-3.07,3.15A3.11,3.11,0,0,0,74,62.37a3.11,3.11,0,0,0-2.23-5.29Z"/><path class="cls-1" d="M33.63,62.76a2.11,2.11,0,1,1,2.11-2.14,2.11,2.11,0,0,1-2.09,2.14Z"/><path class="cls-2" d="M33.63,59.54a1.11,1.11,0,0,1,0,2.23h0a1.11,1.11,0,0,1,0-2.23h0m0-2h0a3.11,3.11,0,1,0,3.15,3.07,3.1,3.1,0,0,0-3.15-3.07Z"/><ellipse class="cls-3" cx="51.6" cy="119.43" rx="8.62" ry="9.66"/><polyline class="cls-3" points="51.6 134.49 44.9 134.49 34.33 120.65 36.55 96.89 30.15 96.89 26.76 122.48 39.18 145.84 39.18 179.52 29.98 233.83 38.46 233.83 51.6 186.31"/><polyline class="cls-3" points="32.68 92.1 36.16 91.91 37.37 90.02 38.49 90.26 37.47 93.7 35.34 95 34.71 96.29 31.61 96.29 30.7 91.67 30.7 88.07 32.82 84.84 36.51 84.84 35.78 88.13 36.16 91.91"/><polygon class="cls-3" points="29.98 233.83 21.49 239.75 21.49 242.7 32.46 241.14 37.33 240.44 38.46 233.83 29.98 233.83"/><polyline class="cls-3" points="51.6 134.49 58.3 134.49 68.88 120.65 66.66 96.89 73.06 96.89 76.45 122.48 64.03 145.84 64.03 179.52 73.23 233.83 64.75 233.83 51.6 186.31"/><polyline class="cls-3" points="70.53 92.1 67.05 91.91 65.83 90.02 64.72 90.26 65.74 93.7 67.87 95 68.5 96.29 71.59 96.29 72.51 91.67 72.51 88.07 70.38 84.84 66.69 84.84 67.43 88.13 67.05 91.91"/><polyline class="cls-3" points="64.75 233.83 73.23 233.83 81.72 239.75 81.72 242.7 70.75 241.14 65.88 240.44 64.75 233.83"/><line class="cls-3" x1="39.18" y1="171.43" x2="64.03" y2="171.43"/><polygon class="cls-3" points="48.41 134.49 49.91 139.18 53.58 139.18 54.91 134.49 48.41 134.49"/><polyline class="cls-3" points="49.91 139.18 46.91 159.44 51.6 167.84 56.24 159.44 53.58 139.18"/><rect class="cls-3" x="1" y="65.97" width="105" height="22.2"/><text class="cls-4" transform="translate(26.93 82.02)"><tspan class="cls-5">C</tspan><tspan x="8.82" y="0">AR SALE</tspan></text><path class="cls-1" d="M66.22,26.24a1,1,0,0,1-.84-.46c-.26-.41-.47-.78-.63-1.1a1,1,0,0,1,.73-1.44.59.59,0,0,0,.24-.09,1.1,1.1,0,0,1,.7-.25,1,1,0,0,1,.61.21c.28.22.58.49.91.81a1,1,0,0,1,0,1.44,3.74,3.74,0,0,1-.44.36,3.67,3.67,0,0,1-1,.48A1,1,0,0,1,66.22,26.24Z"/><path class="cls-2" d="M66.4,23.88c.26.21.54.46.85.75a2.6,2.6,0,0,1-1,.61c-.24-.38-.43-.72-.58-1a1.56,1.56,0,0,0,.64-.26l.12-.09m0-2a2,2,0,0,0-1.2.4,2,2,0,0,0-1.35,2.86c.19.37.42.77.68,1.19a2,2,0,0,0,2.31.83,4.61,4.61,0,0,0,1.78-1.07,2,2,0,0,0,0-2.89c-.33-.32-.66-.61-1-.87a2,2,0,0,0-1.26-.44Z"/><path class="cls-1" d="M65,26.34H64.8a3.7,3.7,0,0,1,0-7.32l-.32-3.76a4.37,4.37,0,0,1,1-2.95l1.93-2.8a7.59,7.59,0,0,1,3-2.13l1.43-.46A24.79,24.79,0,0,1,77.4,1.19a1,1,0,0,1,1.19,0l3.32,2.55A1,1,0,0,1,82.21,5L81.71,6a3.38,3.38,0,0,1,0,2.88,3,3,0,0,1-2.84,2l-4,7.13a3.45,3.45,0,0,1-.22,3.16,3.23,3.23,0,0,1-2.74,1.74l-.78,1.16a1,1,0,0,1-1.27.34l-1-.48,0,.11a1,1,0,0,1-.72.6l-.21,0a1,1,0,0,1-.69-.28c-.28-.26-.57-.52-.87-.75a1,1,0,0,1-.38-.91.57.57,0,0,0-.33-.59.61.61,0,0,0-.25-.05.56.56,0,0,0-.32.1.58.58,0,0,0-.15.8,1.35,1.35,0,0,1,.26.44,6.66,6.66,0,0,0,.65,1.39A1,1,0,0,1,65,26.34Z"/><path class="cls-2" d="M78,2,81.3,4.54l-.75,1.62s.91.65.24,2.39a2,2,0,0,1-2,1.35,2.31,2.31,0,0,1-.5-.05L73.7,18a2.33,2.33,0,0,1,.06,2.66,2.2,2.2,0,0,1-2,1.23,1.8,1.8,0,0,1-.4,0l-1.11,1.64-2.2-1.07a2.72,2.72,0,0,1-.19,1.23c-.3-.29-.62-.57-.94-.82a1.57,1.57,0,0,0-.27-1.09h0a1.57,1.57,0,0,0-.64-.53,1.6,1.6,0,0,0-.66-.14,1.58,1.58,0,0,0-1.29,2.48l.12.15A7.66,7.66,0,0,0,65,25.34,2.7,2.7,0,0,1,65.38,20a2.75,2.75,0,0,1,.56.06l-.41-4.86a3.41,3.41,0,0,1,.79-2.29l1.94-2.81a6.64,6.64,0,0,1,2.53-1.76l1.72-.55A23.89,23.89,0,0,1,78,2m0-2a2,2,0,0,0-1.17.38,25.78,25.78,0,0,0-5.56,5.69l-1.07.34-.07,0a8.61,8.61,0,0,0-3.38,2.35l-.11.15-1.94,2.81a5.46,5.46,0,0,0-1.14,3.61l.25,2.9a4.7,4.7,0,0,0,.86,9.07l.32,0a2,2,0,0,0,2-1.89,2,2,0,0,0,2.22-.24l.23.11a2,2,0,0,0,2.53-.68l.52-.77a4.23,4.23,0,0,0,3.05-2.2A4.47,4.47,0,0,0,76,18.13l3.54-6.27a4,4,0,0,0,3.16-2.59,4.54,4.54,0,0,0,.15-3.22l.31-.67A2,2,0,0,0,82.52,3L79.2.41A2,2,0,0,0,78,0Z"/><path class="cls-1" d="M69.66,31.7a1,1,0,0,1-.58-.19L69,31.42a18.37,18.37,0,0,1-3-2.93,21.86,21.86,0,0,1-1.88-2.64A8.58,8.58,0,0,1,63.25,24a2.27,2.27,0,0,1,.54-2.62A1.93,1.93,0,0,1,65,21a4.33,4.33,0,0,1,2.53,1.12c.32.25.66.55,1,.88a23.21,23.21,0,0,1,1.77,1.91l.17.21a1,1,0,0,1,.11,1.09,3.14,3.14,0,0,0-.3,1,1,1,0,0,1-.62.79l.31.29a1,1,0,0,1,.32.62,13.42,13.42,0,0,0,.29,1.6,1,1,0,0,1-1,1.24Z"/><path class="cls-2" d="M65,22a3.58,3.58,0,0,1,1.92.91c.32.25.64.53.94.82a22.08,22.08,0,0,1,1.69,1.82l.16.2A4.11,4.11,0,0,0,69.34,27c-.19-.26-.4-.52-.63-.8a19.51,19.51,0,0,0-1.47-1.59c-.31-.3-.59-.54-.85-.75a4.72,4.72,0,0,0-1.19-.76,4.22,4.22,0,0,0,.43,1.11c.15.3.34.64.58,1a19.12,19.12,0,0,0,1.39,1.89A18.72,18.72,0,0,0,69.34,29a14.18,14.18,0,0,0,.32,1.72l-.14-.11a17.32,17.32,0,0,1-2.77-2.74A20.89,20.89,0,0,1,65,25.34a7.69,7.69,0,0,1-.75-1.61c-.2-.66-.19-1.23.22-1.56A.92.92,0,0,1,65,22m0-2a2.91,2.91,0,0,0-1.88.67,3.23,3.23,0,0,0-.86,3.68,9.42,9.42,0,0,0,.94,2.06,22.79,22.79,0,0,0,2,2.77,19.34,19.34,0,0,0,3.11,3.07l.17.12a2,2,0,0,0,3.12-2.09,12.26,12.26,0,0,1-.27-1.48,2,2,0,0,0-.24-.75,2,2,0,0,0,.23-.69,2.15,2.15,0,0,1,.2-.68,2,2,0,0,0-.22-2.18l-.18-.22a24.07,24.07,0,0,0-1.86-2c-.37-.35-.74-.67-1.09-.95A5.24,5.24,0,0,0,65,20Z"/><path class="cls-1" d="M74.48,38c-2.55,0-4.37-2-5.57-6.21-.09-.3-.16-.59-.23-.86a15.32,15.32,0,0,1-.34-1.84,8.68,8.68,0,0,1,0-2.22,5.13,5.13,0,0,1,.51-1.63c1.25-2.4,4-2.57,6.28-2.71a11.33,11.33,0,0,0,2.19-.26,2.31,2.31,0,0,1,.64-.09c2.69,0,4.55,4.59,5,7.85.42,2.91-.25,4.84-1.83,5.31a11.18,11.18,0,0,0-2,1A10,10,0,0,1,74.48,38Z"/><path class="cls-2" d="M78,23.18c3,0,5.87,10.33,2.91,11.19-1.74.51-4.13,2.64-6.39,2.64-1.74,0-3.39-1.26-4.61-5.49q-.12-.43-.22-.82A14.18,14.18,0,0,1,69.34,29a7.64,7.64,0,0,1,0-2,4.11,4.11,0,0,1,.41-1.31c1.42-2.72,5.7-1.85,7.86-2.48a1.27,1.27,0,0,1,.36-.05M73,33.86a.38.38,0,0,0,.2-.06l.66-.41a.63.63,0,0,0,.26-.67L72.91,28.6a.63.63,0,0,0-.57-.43h-.78a.32.32,0,0,0-.33.44l1.43,5a.32.32,0,0,0,.31.26m5-12.68a3.28,3.28,0,0,0-.92.13,11.1,11.1,0,0,1-2,.23c-2.36.15-5.59.35-7.1,3.25a6.13,6.13,0,0,0-.61,1.95,9.66,9.66,0,0,0,0,2.48,16.26,16.26,0,0,0,.36,2q.1.43.24.9c1.32,4.6,3.52,6.94,6.53,6.94a10.91,10.91,0,0,0,5.16-1.83,11,11,0,0,1,1.79-.89c1-.29,3.24-1.5,2.54-6.41-.48-3.37-2.54-8.71-6-8.71Z"/><path class="cls-1" d="M82.71,30.91a1,1,0,0,1-1-.72l-1.12-3.86a1,1,0,0,1,.66-1.23l6.2-1.92a1,1,0,0,1,.3,0,1,1,0,0,1,.29,0l.6.18.79-.61a1,1,0,0,1,.87-.17l.91.25,1.57-1a1,1,0,0,1,.91-.08l2,.82a1,1,0,0,1,.59.67l.34,1.25a1,1,0,0,1-.15.84l-1.22,1.74a1,1,0,0,1-.82.42l-1.89,0-.62.71a1,1,0,0,1-.75.34l-1.09-.07-.24.38a1,1,0,0,1-.6.43L83,30.88A1,1,0,0,1,82.71,30.91Z"/><path class="cls-2" d="M93.36,22.7l2,.82.34,1.25L94.5,26.51l-2.33-.05-.93,1.07-1.61-.1-.56.88-6.35,1.61-1.12-3.86,6.2-1.92,1.1.34,1.2-.92,1.33.36,1.94-1.21m0-2a2,2,0,0,0-1.06.3l-1.2.75-.49-.13a2,2,0,0,0-1.75.35l-.38.29-.11,0a2,2,0,0,0-1.18,0L81,24.14a2,2,0,0,0-1.33,2.47l1.12,3.86a2,2,0,0,0,2.41,1.38l6.35-1.61a2,2,0,0,0,1.12-.75l.44,0h.13a2,2,0,0,0,1.51-.69l.31-.36,1.4,0h0a2,2,0,0,0,1.64-.85l1.22-1.74a2,2,0,0,0,.3-1.67L97.31,23a2,2,0,0,0-1.18-1.33l-2-.82a2,2,0,0,0-.75-.15Z"/><path class="cls-1" d="M65.36,26.08a3.12,3.12,0,0,1-1.69-.51,1,1,0,0,1-.4-.5L63,24.22A1,1,0,0,1,63.44,23a1,1,0,0,1,.45-.11,1,1,0,0,1,.84.45h0a.77.77,0,0,0,.55.29,1.19,1.19,0,0,0,.58-.19,1,1,0,0,1,1.15.1l.38.32a1,1,0,0,1,0,1.54A3.39,3.39,0,0,1,65.36,26.08Z"/><path class="cls-2" d="M63.89,23.88a1.77,1.77,0,0,0,1.39.74,2.14,2.14,0,0,0,1.08-.33l.38.32a2.39,2.39,0,0,1-1.38.47,2.13,2.13,0,0,1-1.16-.35l-.31-.85m0-2A2,2,0,0,0,62,24.57l.31.85a2,2,0,0,0,.8,1,4.1,4.1,0,0,0,2.23.66A4.38,4.38,0,0,0,68,26.16a2,2,0,0,0,0-3.09l-.38-.32a2,2,0,0,0-2.26-.21,2,2,0,0,0-1.49-.67Z"/><path class="cls-1" d="M217,142.73l-.41,0-26-3a6.08,6.08,0,0,1-.76-.14,5.6,5.6,0,1,1,2.8-10.85l22.55,5.83L242,137.26l2.88-3.09a1.73,1.73,0,0,1,3,.89,1.71,1.71,0,0,1-.29,1.29l-2.45,3.45a1,1,0,0,1-1.33.28,1,1,0,0,1-.24-.2l-23.21.74a3.6,3.6,0,0,1-3.27,2.12Z"/><path class="cls-2" d="M191.26,129.55a4.62,4.62,0,0,1,1.15.15L215,135.54l27.46,2.79,0-.14a.68.68,0,0,1,.14-.24l2.88-3.09a.73.73,0,0,1,1.13.92l-2.45,3.45.19-.37-24.89.79a2.6,2.6,0,0,1-2.54,2.1l-.3,0-.39,0-25.58-2.95a5.11,5.11,0,0,1-.62-.12,4.6,4.6,0,0,1,1.15-9.06m0-2a6.6,6.6,0,0,0-1.65,13,7.12,7.12,0,0,0,.88.16l25.6,3,.39,0a4.58,4.58,0,0,0,4.4-2.11l22.26-.7.06,0a2,2,0,0,0,2.67-.55l2.45-3.45a2.73,2.73,0,0,0-4.22-3.44l-2.54,2.72-26.17-2.66-22.47-5.81a6.63,6.63,0,0,0-1.65-.21Z"/><path class="cls-1" d="M172.57,185.52c-7.23,0-11.73-4-11.73-10.35,0-3.87,7.15-17.67,16.49-35.31,2.89-5.46,5.39-10.17,6.73-13,.12-.26.66-1.95,1.08-3.36a1,1,0,0,1,1-.71h3.14a1,1,0,0,1,1,1.12,11.67,11.67,0,0,0,0,3.08h.14a1.08,1.08,0,0,1,1,.65c3.25,7.6-1.31,24.47-4.63,36.78-1.33,4.94-2.49,9.21-2.49,10.74C184.3,181.56,179.8,185.52,172.57,185.52Z"/><path class="cls-2" d="M189.25,123.81h0m0,0s-.35,2.91.22,4a.46.46,0,0,0,.45.21c.17,0,.35,0,.46,0s.1,0,.11,0c4.5,10.53-7.2,41.72-7.2,47.13,0,6.53-4.8,9.35-10.73,9.35s-10.73-2.82-10.73-9.35c0-5.54,18.46-38.12,23.13-47.86.21-.43,1.14-3.51,1.14-3.51h3.14m0-2h-3.15a2,2,0,0,0-1.91,1.42c-.4,1.33-.92,3-1,3.26-1.32,2.75-3.81,7.46-6.7,12.9-9.73,18.36-16.61,31.67-16.61,35.78,0,7,4.88,11.35,12.73,11.35s12.73-4.35,12.73-11.35c0-1.4,1.19-5.81,2.45-10.48,3.36-12.46,8-29.52,4.59-37.44a2,2,0,0,0-1.19-1.12,14.28,14.28,0,0,1,.08-2,2,2,0,0,0-2-2.33Zm0,4h0Z"/><path class="cls-1" d="M187.57,123.35c-4.87,0-8.29-8-8.29-12.28a8.29,8.29,0,1,1,16.58,0C195.86,115.38,192.44,123.35,187.57,123.35Z"/><path class="cls-2" d="M187.57,103.78a7.29,7.29,0,0,1,7.29,7.29c0,4-3.26,11.28-7.29,11.28s-7.29-7.26-7.29-11.28a7.29,7.29,0,0,1,7.29-7.29m0-2a9.3,9.3,0,0,0-9.29,9.29c0,4.56,3.62,13.28,9.29,13.28s9.29-8.72,9.29-13.28a9.3,9.3,0,0,0-9.29-9.29Z"/><path class="cls-1" d="M144.84,243.47a3.24,3.24,0,0,1-2.17-1.28,4.64,4.64,0,0,0-.37-.36,7.53,7.53,0,0,0-2.73-1.46c-2-.54-2.8-1.61-2.43-3.18a6.57,6.57,0,0,1,.62-1.51c.08-.16.17-.32.24-.48.19-.41.37-.82.56-1.24l13.88-30.83,7.72-26.71a7.34,7.34,0,0,1,.38-1,6.79,6.79,0,0,1,6.11-3.87,6.75,6.75,0,0,1,6.1,9.63l-11.91,25.23-.14.33,0,.09-17.13,29.91a14.93,14.93,0,0,1,3,4,1.92,1.92,0,0,1-.43,2.26A1.82,1.82,0,0,1,144.84,243.47Z"/><path class="cls-2" d="M166.64,172.55a5.75,5.75,0,0,1,5.2,8.21L159.93,206l-.15.35-17.52,30.59a15.25,15.25,0,0,1,3.34,4.23.91.91,0,0,1-.2,1.08.82.82,0,0,1-.56.24c-.72,0-1.42-1-1.91-1.42a8.54,8.54,0,0,0-3.1-1.65c-1-.28-2-.7-1.72-2a9.82,9.82,0,0,1,.79-1.79c.29-.63.57-1.27.86-1.9l2.31-5.13,2.91-6.46,3.05-6.78,2.74-6.1,2-4.4.61-1.36v0l.15-.35-.15.33,7.74-26.78a6.21,6.21,0,0,1,.32-.86,5.75,5.75,0,0,1,5.21-3.3m0-2a7.79,7.79,0,0,0-7,4.45,8.18,8.18,0,0,0-.43,1.14l-7.7,26.66-.56,1.23-1,2.2-1,2.2-1.37,3-1.37,3-2.52,5.6-.53,1.19-1.46,3.25-1.45,3.21-1.12,2.48-1.2,2.66-.3.68c-.18.4-.36.8-.54,1.2-.07.15-.14.29-.22.44a7.48,7.48,0,0,0-.71,1.74c-.23,1-.4,3.41,3.14,4.37a6.53,6.53,0,0,1,2.37,1.28c.08.07.17.17.27.28a4.09,4.09,0,0,0,2.89,1.59,2.81,2.81,0,0,0,1.91-.76,2.93,2.93,0,0,0,.65-3.44,15.19,15.19,0,0,0-2.64-3.68l16.76-29.26.09-.19.14-.33,11.89-25.21a7.75,7.75,0,0,0-7-11.06Z"/><path class="cls-1" d="M195.8,159.08a3.56,3.56,0,0,1-2.84-1.39L177,137a6.14,6.14,0,0,1-.43-.64,5.6,5.6,0,1,1,9.73-5.56l11.14,19.48,19.46-9.06a1.71,1.71,0,0,1,.67-.16l4.23-.09a1.73,1.73,0,0,1,.3,3.43l-3.68.58L197.77,158.5a3.59,3.59,0,0,1-2,.58Z"/><path class="cls-2" d="M181.41,129a4.6,4.6,0,0,1,4,2.32L197,151.57l20.16-9.39.13-.06c.08,0,.17-.29.27-.29l4.23-.32h0c.35,0,.66.48.72.84a.85.85,0,0,1-.61.94L218,144l.12-.05-.4.14.28,0-20.81,13.65a2.6,2.6,0,0,1-3.47-.58l-.24-.31-15.74-20.38a5.07,5.07,0,0,1-.35-.53,4.6,4.6,0,0,1,4-6.89m0-2a6.6,6.6,0,0,0-5.73,9.88,7.14,7.14,0,0,0,.5.75L191.92,158l.24.31a4.6,4.6,0,0,0,6.14,1l20.45-13.41,3.47-.54a3,3,0,0,0,2.27-3.34,2.92,2.92,0,0,0-2.69-2.53h-.06l-4.22.32a2.83,2.83,0,0,0-1.06.36l-.14.12-18.49,8.64-10.68-18.67a6.61,6.61,0,0,0-5.74-3.31Z"/><path class="cls-1" d="M124.74,243.8a1.9,1.9,0,0,1-.83-.19,8.85,8.85,0,0,0-3.74-.93,5.76,5.76,0,0,0-.75,0l-.2,0a5.89,5.89,0,0,1-.82.08,2.35,2.35,0,0,1-1.37-.4,2.53,2.53,0,0,1-1-1.74,7.9,7.9,0,0,1,0-1.8c0-.22,0-.44,0-.66l.1-2.38,1.28-32.27-12.74-27.53a1,1,0,0,1-.09-.33,7.21,7.21,0,0,1,0-1.07,6.75,6.75,0,0,1,6.74-6.36h.39a6.76,6.76,0,0,1,6.36,6.95l8.35,27.69a1,1,0,0,1,0,.32v.38L122,238a13.74,13.74,0,0,1,2.61,1.36l.19.13c.72.47,2.42,1.58,1.64,3.21A1.92,1.92,0,0,1,124.74,243.8Z"/><path class="cls-2" d="M111.34,169.3h.34a5.75,5.75,0,0,1,5.41,6.07l8.4,27.85v.38l-4.54,35.06a13.49,13.49,0,0,1,3.15,1.53c.62.42,1.94,1.14,1.49,2.07a.91.91,0,0,1-1.22.43,9.86,9.86,0,0,0-4.17-1,6.74,6.74,0,0,0-.88.06,7,7,0,0,1-.89.1,1.38,1.38,0,0,1-.81-.23,1.54,1.54,0,0,1-.59-1.06,12.93,12.93,0,0,1,.07-2.27c0-.79.07-1.58.1-2.38l.23-5.73.28-7,.29-7.26.26-6.47.18-4.64.06-1.4h0v0l-12.84-27.75a6.22,6.22,0,0,1,0-.92,5.75,5.75,0,0,1,5.74-5.42m0-2a7.76,7.76,0,0,0-7.73,7.31,8.12,8.12,0,0,0,0,1.22,2,2,0,0,0,.18.65l12.64,27.31v.05l0,.87v.09l-.18,4.56-.25,6.29v.18l-.14,3.65-.14,3.61-.13,3.4-.14,3.61-.23,5.73q0,.57,0,1.14t-.05,1.24c0,.2,0,.4,0,.61a8.66,8.66,0,0,0,0,2,3.53,3.53,0,0,0,1.44,2.42,3.36,3.36,0,0,0,1.94.58,6.57,6.57,0,0,0,1-.09l.18,0a4.78,4.78,0,0,1,.62,0,7.84,7.84,0,0,1,3.3.83,2.91,2.91,0,0,0,3.89-1.36c.77-1.6.1-3.11-2-4.48l-.18-.12a14.1,14.1,0,0,0-2.08-1.16l4.34-33.53c0-.06,0-.13,0-.19v-.38a2,2,0,0,0-.08-.64l-8.3-27.54a7.76,7.76,0,0,0-7.31-7.81Z"/><path class="cls-1" d="M117,138.62a5.63,5.63,0,0,1-4.83-2.76,5.6,5.6,0,0,1,2-7.67l19.62-11.56L133.13,90a1.68,1.68,0,0,1-.13-.6l-.15-4.22a1.73,1.73,0,0,1,1.44-1.76l.29,0a1.72,1.72,0,0,1,1.7,1.44L137,89a1,1,0,0,1,0,.33l4.79,27.22a3.61,3.61,0,0,1-.87,4.62L120.43,137.4a6.24,6.24,0,0,1-.64.44,5.6,5.6,0,0,1-2.84.78Z"/><path class="cls-2" d="M134.58,84.37a.73.73,0,0,1,.72.61l.71,4.17-.13-.4,5,28.15a2.6,2.6,0,0,1-.54,3.48l-.31.25-20.18,16a5,5,0,0,1-.52.36,4.6,4.6,0,0,1-4.67-7.93l20.13-11.86-.61-27.44-.06-.13a.69.69,0,0,1-.07-.27l-.15-4.23a.73.73,0,0,1,.6-.74h.12m0-2h0a2.73,2.73,0,0,0-2.73,2.83l.15,4.22a2.67,2.67,0,0,0,.14.76l.58,25.89L113.6,127.32a6.6,6.6,0,0,0-2.34,9,6.6,6.6,0,0,0,9,2.34,7.07,7.07,0,0,0,.74-.51l20.19-16,.31-.25a4.62,4.62,0,0,0,1.2-5.74L138,89.28a2,2,0,0,0,0-.47l-.71-4.17a2.72,2.72,0,0,0-2.69-2.27Z"/><path class="cls-1" d="M107.67,138.62a5.6,5.6,0,0,1-2.84-.78,6,6,0,0,1-.63-.43L83.7,121.16a3.61,3.61,0,0,1-.87-4.62l4.79-27.22a1,1,0,0,1,0-.33l.71-4.17A1.72,1.72,0,0,1,90,83.37l.29,0a1.73,1.73,0,0,1,1.44,1.76l-.15,4.22a1.67,1.67,0,0,1-.13.6l-.6,26.64,19.62,11.56a5.6,5.6,0,0,1,2,7.67A5.63,5.63,0,0,1,107.67,138.62Z"/><path class="cls-2" d="M90,84.37h.12a.73.73,0,0,1,.61.74l-.15,4.23a.69.69,0,0,1-.07.27l-.06.13-.61,27.44L110,129a4.6,4.6,0,1,1-4.67,7.93,5,5,0,0,1-.52-.36l-20.18-16-.31-.25a2.6,2.6,0,0,1-.54-3.48l5-28.15-.13.4L89.32,85a.73.73,0,0,1,.72-.61m0-2a2.72,2.72,0,0,0-2.69,2.27l-.71,4.17a2,2,0,0,0,0,.47L81.88,116.2a4.62,4.62,0,0,0,1.2,5.74l.31.25,20.18,16a7.11,7.11,0,0,0,.75.52,6.6,6.6,0,1,0,6.7-11.38L91.9,116.06l.58-25.89a2.65,2.65,0,0,0,.14-.75l.15-4.23A2.73,2.73,0,0,0,90,82.37Z"/><path class="cls-1" d="M105.57,185.52c-7.23,0-11.73-4-11.73-10.35,0-5.05,5.34-37.5,10.51-50.65a1,1,0,0,1,.93-.63,1,1,0,0,1,.35.06,12.52,12.52,0,0,0,3.3.77h.21c.19-.53.64-2,1-3.19a1,1,0,0,1,1-.71h3.14a1,1,0,0,1,1,1.12,12.39,12.39,0,0,0,0,2.93c.61-.09,1.52-.3,2.12-.44a8.53,8.53,0,0,1,1.55-.3,1.08,1.08,0,0,1,1,.62c3.42,8,.51,28-1.41,41.18-.64,4.41-1.15,7.89-1.15,9.25C117.3,181.56,112.8,185.52,105.57,185.52Z"/><path class="cls-2" d="M114.25,121.81s-.35,2.91.22,4c0,.06.14.08.3.08.94,0,3.72-.79,4.12-.79h0c4.5,10.53-2.64,44.63-2.64,50,0,6.53-4.8,9.35-10.73,9.35s-10.73-2.82-10.73-9.35c0-4.91,5.32-37.26,10.44-50.29a13.87,13.87,0,0,0,3.65.83c.51,0,.9-.11,1-.4s1.14-3.51,1.14-3.51h3.14m0-2h-3.14a2,2,0,0,0-1.91,1.42c-.25.83-.55,1.78-.77,2.45A14.65,14.65,0,0,1,106,123a2,2,0,0,0-2.56,1.14c-5.2,13.24-10.58,45.93-10.58,51,0,7,4.88,11.35,12.73,11.35s12.73-4.35,12.73-11.35c0-1.29.53-4.91,1.14-9.1,1.94-13.33,4.87-33.47,1.34-41.72a2.08,2.08,0,0,0-1.89-1.23,8.54,8.54,0,0,0-1.78.32l-1,.22a14.59,14.59,0,0,1,.1-1.62,2,2,0,0,0-2-2.24Zm0,4h0Z"/><path class="cls-1" d="M112.57,121.35c-4.87,0-8.29-8-8.29-12.28a8.29,8.29,0,1,1,16.58,0C120.86,113.38,117.44,121.35,112.57,121.35Z"/><path class="cls-2" d="M112.57,101.78a7.29,7.29,0,0,1,7.29,7.29c0,4-3.26,11.28-7.29,11.28s-7.29-7.26-7.29-11.28a7.29,7.29,0,0,1,7.29-7.29m0-2a9.3,9.3,0,0,0-9.29,9.29c0,4.56,3.62,13.28,9.29,13.28s9.29-8.72,9.29-13.28a9.3,9.3,0,0,0-9.29-9.29Z"/><path class="cls-1" d="M103.83,244.83a4.39,4.39,0,0,1-1.8-.54,4.78,4.78,0,0,0-.47-.21,8,8,0,0,0-2.47-.42,6,6,0,0,0-.61,0c-.25,0-.51,0-.75,0a2.37,2.37,0,0,1-2.66-2.14,6.57,6.57,0,0,1,0-1.63c0-.18,0-.36.05-.53,0-.45.06-.91.08-1.36l2-33.74-2.32-27.71a7.26,7.26,0,0,1,0-1.08,6.78,6.78,0,0,1,6.73-6.24l.52,0a6.76,6.76,0,0,1,6.22,7.25l-2.12,27.82,0,.36a1,1,0,0,1,0,.1l-5.33,34.06a14.9,14.9,0,0,1,4.21,2.63,1.92,1.92,0,0,1,.41,2.27A1.81,1.81,0,0,1,103.83,244.83Z"/><path class="cls-2" d="M101.61,170.3l.44,0a5.75,5.75,0,0,1,5.3,6.17l-2.12,27.82,0,.38-5.45,34.82a15.25,15.25,0,0,1,4.63,2.76.91.91,0,0,1,.19,1.08.8.8,0,0,1-.77.48,7.21,7.21,0,0,1-2-.7,9,9,0,0,0-2.78-.47q-.35,0-.71,0c-.22,0-.44,0-.65,0-.82,0-1.53-.24-1.67-1.28a9.81,9.81,0,0,1,.1-2c0-.69.08-1.39.12-2.08l.33-5.62.41-7.08.43-7.43.39-6.67.28-4.81.09-1.49v0l0-.38,0,.36-2.33-27.78a6.24,6.24,0,0,1,0-.92,5.75,5.75,0,0,1,5.73-5.32m0-2a7.78,7.78,0,0,0-7.72,7.16,8.23,8.23,0,0,0,0,1.22l2.32,27.65,0,.43-.05.93-.28,4.81-.18,3-.21,3.63L95,224.61l-.21,3.54-.21,3.54-.16,2.81-.16,2.81,0,.73c0,.44,0,.89-.08,1.33,0,.16,0,.32,0,.49a7.49,7.49,0,0,0,0,1.88,3.37,3.37,0,0,0,3.65,3,8.45,8.45,0,0,0,.85,0l.51,0a7,7,0,0,1,2.16.37c.1,0,.22.1.36.16a5.26,5.26,0,0,0,2.23.64,2.81,2.81,0,0,0,2.55-1.58,2.92,2.92,0,0,0-.62-3.45,15.18,15.18,0,0,0-3.78-2.49L107.19,205a2,2,0,0,0,0-.21l0-.35,2.11-27.79a7.75,7.75,0,0,0-7.14-8.32l-.59,0Z"/><path class="cls-3" d="M117.73,167.84l-21.86-2.48S91.73,171,94.06,182a136.07,136.07,0,0,1,2.5,22.83l-1.72,30.67,6.78,1,6.44-32.67.5-17.17L115.62,204l-.73,32.5,8.49-1,4.68-32.83-10.33-30.13Z"/><path class="cls-3" d="M191.07,241.21a13.51,13.51,0,0,0-3.15-1.53l4.54-35.06v-.38l-8.4-27.85a5.79,5.79,0,0,0,0-1.05l.42-6.07L166.3,163.5l-1.57-1c-1.75,3.17-4.92,10-4.92,10l-7.92,30.54-13.25,29.33,6.17,2.33L161.23,207l11.34-22.52a6.36,6.36,0,0,0,2.4.61l7.51,19.29c-.43,10.68-.67,33-.67,33s2.3.9,2.26,1.85a13,13,0,0,0-.07,2.27,1.54,1.54,0,0,0,.59,1.06,2.34,2.34,0,0,0,1.7.13,9.27,9.27,0,0,1,5,1,.91.91,0,0,0,1.22-.43C193,242.35,191.69,241.63,191.07,241.21Z"/></g></g></svg>