<svg xmlns="http://www.w3.org/2000/svg" xmlns:xlink="http://www.w3.org/1999/xlink" viewBox="0 0 1315.56 1045.12"><defs><style>.cls-1{fill:url(#linear-gradient);}.cls-2{opacity:0.2;}.cls-3{fill:#007cc0;}.cls-4,.cls-5{fill:#fff;}.cls-5{stroke:#0080b1;stroke-miterlimit:10;stroke-width:2px;}.cls-6{opacity:0.39;}.cls-7{fill:#0080b1;}</style><linearGradient id="linear-gradient" x1="657.78" y1="51.87" x2="657.78" y2="665.98" gradientUnits="userSpaceOnUse"><stop offset="0" stop-color="#b3b3b3"/><stop offset="0.2" stop-color="#d8d8d8"/><stop offset="0.39" stop-color="#f4f4f4"/><stop offset="0.5" stop-color="#fff"/></linearGradient></defs><title>car-white-bg</title><g id="Layer_2" data-name="Layer 2"><g id="Layer_1-2" data-name="Layer 1"><rect class="cls-1" width="1315.56" height="1045.12"/><g class="cls-2"><rect class="cls-3" x="851.78" y="603.52" width="76.3" height="61.11"/><rect class="cls-3" x="823.02" y="608.27" width="32.91" height="56.36"/><rect class="cls-3" x="824.39" y="604.53" width="23.95" height="9.32"/><rect class="cls-3" x="828.69" y="600.87" width="14.81" height="6.4"/><rect class="cls-3" x="834.9" y="598.58" width="4.57" height="3.47"/><rect class="cls-3" x="863.12" y="542.7" width="32.91" height="121.93"/><rect class="cls-3" x="865.31" y="526.19" width="28.52" height="26.69"/><rect class="cls-3" x="867.23" y="521.8" width="24.68" height="13.35"/><rect class="cls-3" x="869.2" y="511.92" width="20.75" height="20.75"/><rect class="cls-3" x="872.72" y="506.81" width="13.71" height="9.87"/><rect class="cls-4" x="868.88" y="530.39" width="9.23" height="4.75"/><rect class="cls-4" x="881.04" y="530.39" width="9.23" height="4.75"/><rect class="cls-4" x="868.88" y="539.53" width="9.23" height="4.75"/><rect class="cls-4" x="881.04" y="539.53" width="9.23" height="4.75"/><rect class="cls-4" x="868.88" y="548.67" width="9.23" height="4.75"/><rect class="cls-4" x="881.04" y="548.67" width="9.23" height="4.75"/><rect class="cls-4" x="868.88" y="557.81" width="9.23" height="4.75"/><rect class="cls-4" x="881.04" y="557.81" width="9.23" height="4.75"/><rect class="cls-4" x="868.88" y="566.96" width="9.23" height="4.75"/><rect class="cls-4" x="881.04" y="566.96" width="9.23" height="4.75"/><rect class="cls-4" x="868.88" y="576.1" width="9.23" height="4.75"/><rect class="cls-4" x="881.04" y="576.1" width="9.23" height="4.75"/><rect class="cls-4" x="868.88" y="585.24" width="9.23" height="4.75"/><rect class="cls-4" x="881.04" y="585.24" width="9.23" height="4.75"/><rect class="cls-4" x="868.88" y="594.38" width="9.23" height="4.75"/><rect class="cls-4" x="881.04" y="594.38" width="9.23" height="4.75"/><rect class="cls-4" x="868.88" y="603.52" width="9.23" height="4.75"/><rect class="cls-4" x="881.04" y="603.52" width="9.23" height="4.75"/><rect class="cls-4" x="868.88" y="612.66" width="9.23" height="4.75"/><rect class="cls-4" x="881.04" y="612.66" width="9.23" height="4.75"/><rect class="cls-3" x="1126.55" y="603.52" width="76.3" height="61.11"/><rect class="cls-3" x="1097.79" y="608.27" width="32.91" height="56.36"/><rect class="cls-3" x="1099.16" y="604.53" width="23.95" height="9.32"/><rect class="cls-3" x="1103.46" y="600.87" width="14.81" height="6.4"/><rect class="cls-3" x="1109.67" y="598.58" width="4.57" height="3.47"/><rect class="cls-3" x="1137.89" y="542.7" width="32.91" height="121.93"/><rect class="cls-3" x="1140.08" y="526.19" width="28.52" height="26.69"/><rect class="cls-3" x="1142" y="521.8" width="24.68" height="13.35"/><rect class="cls-3" x="1143.97" y="511.92" width="20.75" height="20.75"/><rect class="cls-3" x="1147.49" y="506.81" width="13.71" height="9.87"/><rect class="cls-3" x="1150.32" y="482.12" width="8.04" height="31.99"/><rect class="cls-3" x="1152.79" y="443.46" width="3.11" height="41.87"/><rect class="cls-3" x="1150.32" y="477.46" width="8.04" height="1.74"/><rect class="cls-4" x="1143.65" y="530.39" width="9.23" height="4.75"/><rect class="cls-4" x="1155.81" y="530.39" width="9.23" height="4.75"/><rect class="cls-4" x="1143.65" y="539.53" width="9.23" height="4.75"/><rect class="cls-4" x="1155.81" y="539.53" width="9.23" height="4.75"/><rect class="cls-4" x="1143.65" y="548.67" width="9.23" height="4.75"/><rect class="cls-4" x="1155.81" y="548.67" width="9.23" height="4.75"/><rect class="cls-4" x="1143.65" y="557.81" width="9.23" height="4.75"/><rect class="cls-4" x="1155.81" y="557.81" width="9.23" height="4.75"/><rect class="cls-4" x="1143.65" y="566.96" width="9.23" height="4.75"/><rect class="cls-4" x="1155.81" y="566.96" width="9.23" height="4.75"/><rect class="cls-4" x="1143.65" y="576.1" width="9.23" height="4.75"/><rect class="cls-4" x="1155.81" y="576.1" width="9.23" height="4.75"/><rect class="cls-4" x="1143.65" y="585.24" width="9.23" height="4.75"/><rect class="cls-4" x="1155.81" y="585.24" width="9.23" height="4.75"/><rect class="cls-4" x="1143.65" y="594.38" width="9.23" height="4.75"/><rect class="cls-4" x="1155.81" y="594.38" width="9.23" height="4.75"/><rect class="cls-4" x="1143.65" y="603.52" width="9.23" height="4.75"/><rect class="cls-4" x="1155.81" y="603.52" width="9.23" height="4.75"/><rect class="cls-4" x="1143.65" y="612.66" width="9.23" height="4.75"/><rect class="cls-4" x="1155.81" y="612.66" width="9.23" height="4.75"/><rect class="cls-3" x="1235.52" y="546.6" width="36.81" height="118.03"/><rect class="cls-3" x="1242.34" y="544.29" width="28.03" height="8.59"/><rect class="cls-3" x="1252.34" y="541.91" width="14.14" height="6.67"/><rect class="cls-4" x="1243.23" y="555.62" width="9.23" height="4.75"/><rect class="cls-4" x="1255.38" y="555.62" width="9.23" height="4.75"/><rect class="cls-4" x="1243.23" y="564.76" width="9.23" height="4.75"/><rect class="cls-4" x="1255.38" y="564.76" width="9.23" height="4.75"/><rect class="cls-4" x="1243.23" y="573.9" width="9.23" height="4.75"/><rect class="cls-4" x="1255.38" y="573.9" width="9.23" height="4.75"/><rect class="cls-4" x="1243.23" y="583.04" width="9.23" height="4.75"/><rect class="cls-4" x="1255.38" y="583.04" width="9.23" height="4.75"/><rect class="cls-3" x="1213.09" y="608.27" width="32.91" height="56.36"/><rect class="cls-3" x="1214.46" y="604.53" width="23.95" height="9.32"/><rect class="cls-3" x="1218.76" y="600.87" width="14.81" height="6.4"/><rect class="cls-3" x="1224.97" y="598.58" width="4.57" height="3.47"/><rect class="cls-3" x="1179.09" y="589.26" width="30.99" height="75.37"/><rect class="cls-3" x="1186.12" y="584.78" width="23.95" height="10.97"/><rect class="cls-3" x="1182.65" y="580.85" width="4.48" height="12.62"/><rect class="cls-3" x="1188.59" y="580.85" width="18.47" height="6.76"/><rect class="cls-3" x="998.91" y="630.4" width="221.68" height="34.24"/><rect class="cls-3" x="1171.77" y="607.27" width="10.88" height="2.65"/><rect class="cls-3" x="1173.78" y="608.59" width="6.76" height="43.61"/><rect class="cls-3" x="1171.77" y="615.04" width="13.12" height="43.38"/><rect class="cls-3" x="998.91" y="589.26" width="30.99" height="75.37"/><rect class="cls-3" x="1005.95" y="584.78" width="23.95" height="10.97"/><rect class="cls-3" x="1002.47" y="580.85" width="4.48" height="12.62"/><rect class="cls-3" x="1008.42" y="580.85" width="18.47" height="6.76"/><rect class="cls-3" x="1087.26" y="630.4" width="221.68" height="34.24"/><rect class="cls-3" x="1284.57" y="589.26" width="30.99" height="75.37"/><rect class="cls-3" x="1291.61" y="584.78" width="23.95" height="10.97"/><rect class="cls-3" x="1288.14" y="580.85" width="4.48" height="12.62"/><rect class="cls-3" x="1294.08" y="580.85" width="18.47" height="6.76"/><rect class="cls-3" x="1035.58" y="514.12" width="33.27" height="150.52"/><rect class="cls-4" x="1041.52" y="523.08" width="9.23" height="4.75"/><rect class="cls-4" x="1053.68" y="523.08" width="9.23" height="4.75"/><rect class="cls-4" x="1041.52" y="532.22" width="9.23" height="4.75"/><rect class="cls-4" x="1053.68" y="532.22" width="9.23" height="4.75"/><rect class="cls-4" x="1041.52" y="541.36" width="9.23" height="4.75"/><rect class="cls-4" x="1053.68" y="541.36" width="9.23" height="4.75"/><rect class="cls-4" x="1041.52" y="550.5" width="9.23" height="4.75"/><rect class="cls-4" x="1053.68" y="550.5" width="9.23" height="4.75"/><rect class="cls-4" x="1041.52" y="559.64" width="9.23" height="4.75"/><rect class="cls-4" x="1053.68" y="559.64" width="9.23" height="4.75"/><rect class="cls-4" x="1041.52" y="568.78" width="9.23" height="4.75"/><rect class="cls-4" x="1053.68" y="568.78" width="9.23" height="4.75"/><rect class="cls-4" x="1041.52" y="577.93" width="9.23" height="4.75"/><rect class="cls-4" x="1053.68" y="577.93" width="9.23" height="4.75"/><rect class="cls-4" x="1041.52" y="587.07" width="9.23" height="4.75"/><rect class="cls-4" x="1053.68" y="587.07" width="9.23" height="4.75"/><rect class="cls-4" x="1041.52" y="596.21" width="9.23" height="4.75"/><rect class="cls-4" x="1053.68" y="596.21" width="9.23" height="4.75"/><rect class="cls-4" x="1041.52" y="605.35" width="9.23" height="4.75"/><rect class="cls-4" x="1053.68" y="605.35" width="9.23" height="4.75"/><rect class="cls-3" x="1038.2" y="511.62" width="27.61" height="6.52"/><rect class="cls-3" x="1043.08" y="502.6" width="22.49" height="13.71"/><rect class="cls-3" x="1046.61" y="501.08" width="18.95" height="3.53"/><rect class="cls-3" x="1066.78" y="557.81" width="4.63" height="106.82"/><rect class="cls-3" x="1070.2" y="543.47" width="44.61" height="121.17"/><rect class="cls-3" x="1073.61" y="537.52" width="21.09" height="12.37"/><rect class="cls-3" x="1100.3" y="535.94" width="7.4" height="11.3"/><rect class="cls-3" x="1108.64" y="540.98" width="4.1" height="6.25"/><rect class="cls-3" x="960.75" y="546.6" width="36.81" height="118.03"/><rect class="cls-3" x="967.57" y="544.29" width="28.03" height="8.59"/><rect class="cls-3" x="977.57" y="541.91" width="14.14" height="6.67"/><rect class="cls-4" x="968.46" y="555.62" width="9.23" height="4.75"/><rect class="cls-4" x="980.62" y="555.62" width="9.23" height="4.75"/><rect class="cls-4" x="968.46" y="564.76" width="9.23" height="4.75"/><rect class="cls-4" x="980.62" y="564.76" width="9.23" height="4.75"/><rect class="cls-4" x="968.46" y="573.9" width="9.23" height="4.75"/><rect class="cls-4" x="980.62" y="573.9" width="9.23" height="4.75"/><rect class="cls-4" x="968.46" y="583.04" width="9.23" height="4.75"/><rect class="cls-4" x="980.62" y="583.04" width="9.23" height="4.75"/><rect class="cls-3" x="938.32" y="608.27" width="32.91" height="56.36"/><rect class="cls-3" x="939.69" y="604.53" width="23.95" height="9.32"/><rect class="cls-3" x="943.99" y="600.87" width="14.81" height="6.4"/><rect class="cls-3" x="950.2" y="598.58" width="4.57" height="3.47"/><rect class="cls-3" x="904.32" y="589.26" width="30.99" height="75.37"/><rect class="cls-3" x="911.35" y="584.78" width="23.95" height="10.97"/><rect class="cls-3" x="907.88" y="580.85" width="4.48" height="12.62"/><rect class="cls-3" x="913.82" y="580.85" width="18.47" height="6.76"/><rect class="cls-3" x="828.69" y="630.4" width="117.13" height="34.24"/><rect class="cls-3" x="897" y="607.27" width="10.88" height="2.65"/><rect class="cls-3" x="899.01" y="608.59" width="6.76" height="43.61"/><rect class="cls-3" x="897" y="615.04" width="13.12" height="43.38"/><rect class="cls-3" x="203.58" y="603.52" width="76.3" height="61.11"/><rect class="cls-3" x="174.81" y="608.27" width="32.91" height="56.36"/><rect class="cls-3" x="176.18" y="604.53" width="23.95" height="9.32"/><rect class="cls-3" x="180.48" y="600.87" width="14.81" height="6.4"/><rect class="cls-3" x="186.7" y="598.58" width="4.57" height="3.47"/><rect class="cls-3" x="214.91" y="542.7" width="32.91" height="121.93"/><rect class="cls-3" x="217.11" y="526.19" width="28.52" height="26.69"/><rect class="cls-3" x="219.03" y="521.8" width="24.68" height="13.35"/><rect class="cls-3" x="220.99" y="511.92" width="20.75" height="20.75"/><rect class="cls-3" x="224.51" y="506.81" width="13.71" height="9.87"/><rect class="cls-4" x="220.67" y="530.39" width="9.23" height="4.75"/><rect class="cls-4" x="232.83" y="530.39" width="9.23" height="4.75"/><rect class="cls-4" x="220.67" y="539.53" width="9.23" height="4.75"/><rect class="cls-4" x="232.83" y="539.53" width="9.23" height="4.75"/><rect class="cls-4" x="220.67" y="548.67" width="9.23" height="4.75"/><rect class="cls-4" x="232.83" y="548.67" width="9.23" height="4.75"/><rect class="cls-4" x="220.67" y="557.81" width="9.23" height="4.75"/><rect class="cls-4" x="232.83" y="557.81" width="9.23" height="4.75"/><rect class="cls-4" x="220.67" y="566.96" width="9.23" height="4.75"/><rect class="cls-4" x="232.83" y="566.96" width="9.23" height="4.75"/><rect class="cls-4" x="220.67" y="576.1" width="9.23" height="4.75"/><rect class="cls-4" x="232.83" y="576.1" width="9.23" height="4.75"/><rect class="cls-4" x="220.67" y="585.24" width="9.23" height="4.75"/><rect class="cls-4" x="232.83" y="585.24" width="9.23" height="4.75"/><rect class="cls-4" x="220.67" y="594.38" width="9.23" height="4.75"/><rect class="cls-4" x="232.83" y="594.38" width="9.23" height="4.75"/><rect class="cls-4" x="220.67" y="603.52" width="9.23" height="4.75"/><rect class="cls-4" x="232.83" y="603.52" width="9.23" height="4.75"/><rect class="cls-4" x="220.67" y="612.66" width="9.23" height="4.75"/><rect class="cls-4" x="232.83" y="612.66" width="9.23" height="4.75"/><rect class="cls-3" x="312.54" y="546.6" width="36.81" height="118.03"/><rect class="cls-3" x="319.37" y="544.29" width="28.03" height="8.59"/><rect class="cls-3" x="329.36" y="541.91" width="14.14" height="6.67"/><rect class="cls-4" x="320.25" y="555.62" width="9.23" height="4.75"/><rect class="cls-4" x="332.41" y="555.62" width="9.23" height="4.75"/><rect class="cls-4" x="320.25" y="564.76" width="9.23" height="4.75"/><rect class="cls-4" x="332.41" y="564.76" width="9.23" height="4.75"/><rect class="cls-4" x="320.25" y="573.9" width="9.23" height="4.75"/><rect class="cls-4" x="332.41" y="573.9" width="9.23" height="4.75"/><rect class="cls-4" x="320.25" y="583.04" width="9.23" height="4.75"/><rect class="cls-4" x="332.41" y="583.04" width="9.23" height="4.75"/><rect class="cls-3" x="290.11" y="608.27" width="32.91" height="56.36"/><rect class="cls-3" x="291.49" y="604.53" width="23.95" height="9.32"/><rect class="cls-3" x="295.78" y="600.87" width="14.81" height="6.4"/><rect class="cls-3" x="302" y="598.58" width="4.57" height="3.47"/><rect class="cls-3" x="256.11" y="589.26" width="30.99" height="75.37"/><rect class="cls-3" x="263.15" y="584.78" width="23.95" height="10.97"/><rect class="cls-3" x="259.67" y="580.85" width="4.48" height="12.62"/><rect class="cls-3" x="265.62" y="580.85" width="18.47" height="6.76"/><rect class="cls-3" x="180.48" y="630.4" width="117.13" height="34.24"/><rect class="cls-3" x="248.8" y="607.27" width="10.88" height="2.65"/><rect class="cls-3" x="250.81" y="608.59" width="6.76" height="43.61"/><rect class="cls-3" x="248.8" y="615.04" width="13.12" height="43.38"/><rect class="cls-3" x="29.04" y="603.52" width="76.3" height="61.11"/><rect class="cls-3" x="0.27" y="608.27" width="32.91" height="56.36"/><rect class="cls-3" x="1.65" y="604.53" width="23.95" height="9.32"/><rect class="cls-3" x="5.94" y="600.87" width="14.81" height="6.4"/><rect class="cls-3" x="12.16" y="598.58" width="4.57" height="3.47"/><rect class="cls-3" x="40.37" y="542.7" width="32.91" height="121.93"/><rect class="cls-3" x="42.57" y="526.19" width="28.52" height="26.69"/><rect class="cls-3" x="44.49" y="521.8" width="24.68" height="13.35"/><rect class="cls-3" x="46.45" y="511.92" width="20.75" height="20.75"/><rect class="cls-3" x="49.97" y="506.81" width="13.71" height="9.87"/><rect class="cls-4" x="46.13" y="530.39" width="9.23" height="4.75"/><rect class="cls-4" x="58.29" y="530.39" width="9.23" height="4.75"/><rect class="cls-4" x="46.13" y="539.53" width="9.23" height="4.75"/><rect class="cls-4" x="58.29" y="539.53" width="9.23" height="4.75"/><rect class="cls-4" x="46.13" y="548.67" width="9.23" height="4.75"/><rect class="cls-4" x="58.29" y="548.67" width="9.23" height="4.75"/><rect class="cls-4" x="46.13" y="557.81" width="9.23" height="4.75"/><rect class="cls-4" x="58.29" y="557.81" width="9.23" height="4.75"/><rect class="cls-4" x="46.13" y="566.96" width="9.23" height="4.75"/><rect class="cls-4" x="58.29" y="566.96" width="9.23" height="4.75"/><rect class="cls-4" x="46.13" y="576.1" width="9.23" height="4.75"/><rect class="cls-4" x="58.29" y="576.1" width="9.23" height="4.75"/><rect class="cls-4" x="46.13" y="585.24" width="9.23" height="4.75"/><rect class="cls-4" x="58.29" y="585.24" width="9.23" height="4.75"/><rect class="cls-4" x="46.13" y="594.38" width="9.23" height="4.75"/><rect class="cls-4" x="58.29" y="594.38" width="9.23" height="4.75"/><rect class="cls-4" x="46.13" y="603.52" width="9.23" height="4.75"/><rect class="cls-4" x="58.29" y="603.52" width="9.23" height="4.75"/><rect class="cls-4" x="46.13" y="612.66" width="9.23" height="4.75"/><rect class="cls-4" x="58.29" y="612.66" width="9.23" height="4.75"/><rect class="cls-3" x="138" y="546.6" width="36.81" height="118.03"/><rect class="cls-3" x="144.83" y="544.29" width="28.03" height="8.59"/><rect class="cls-3" x="154.82" y="541.91" width="14.14" height="6.67"/><rect class="cls-4" x="145.71" y="555.62" width="9.23" height="4.75"/><rect class="cls-4" x="157.87" y="555.62" width="9.23" height="4.75"/><rect class="cls-4" x="145.71" y="564.76" width="9.23" height="4.75"/><rect class="cls-4" x="157.87" y="564.76" width="9.23" height="4.75"/><rect class="cls-4" x="145.71" y="573.9" width="9.23" height="4.75"/><rect class="cls-4" x="157.87" y="573.9" width="9.23" height="4.75"/><rect class="cls-4" x="145.71" y="583.04" width="9.23" height="4.75"/><rect class="cls-4" x="157.87" y="583.04" width="9.23" height="4.75"/><rect class="cls-3" x="115.58" y="608.27" width="32.91" height="56.36"/><rect class="cls-3" x="116.95" y="604.53" width="23.95" height="9.32"/><rect class="cls-3" x="121.24" y="600.87" width="14.81" height="6.4"/><rect class="cls-3" x="127.46" y="598.58" width="4.57" height="3.47"/><rect class="cls-3" x="81.57" y="589.26" width="30.99" height="75.37"/><rect class="cls-3" x="88.61" y="584.78" width="23.95" height="10.97"/><rect class="cls-3" x="85.14" y="580.85" width="4.48" height="12.62"/><rect class="cls-3" x="91.08" y="580.85" width="18.47" height="6.76"/><rect class="cls-3" x="5.94" y="630.4" width="117.13" height="34.24"/><rect class="cls-3" x="74.26" y="607.27" width="10.88" height="2.65"/><rect class="cls-3" x="76.27" y="608.59" width="6.76" height="43.61"/><rect class="cls-3" x="74.26" y="615.04" width="13.12" height="43.38"/></g><circle class="cls-5" cx="814.14" cy="665.28" r="21.61"/><circle class="cls-5" cx="814.14" cy="665.28" r="17.37"/><circle class="cls-5" cx="814.14" cy="665.28" r="15.24"/><circle class="cls-5" cx="814.14" cy="665.28" r="10.23"/><path class="cls-5" d="M814.14,682.16a.63.63,0,0,1-.63-.63V649.1a.63.63,0,0,1,1.27,0v32.42A.63.63,0,0,1,814.14,682.16Z"/><path class="cls-5" d="M829.58,670.87a.63.63,0,0,1-.19,0L798.5,661a.63.63,0,1,1,.38-1.21l30.89,9.85a.63.63,0,0,1-.19,1.24Z"/><path class="cls-5" d="M798.69,670.87a.63.63,0,0,1-.19-1.24l30.89-9.85a.63.63,0,1,1,.38,1.21l-30.89,9.85A.63.63,0,0,1,798.69,670.87Z"/><path class="cls-5" d="M804.5,679a.63.63,0,0,1-.51-1l19.27-26.07a.63.63,0,0,1,1,.75L805,678.72A.63.63,0,0,1,804.5,679Z"/><path class="cls-5" d="M823.77,679a.63.63,0,0,1-.51-.26L804,652.66a.63.63,0,0,1,1-.75L824.28,678a.63.63,0,0,1-.51,1Z"/><circle class="cls-5" cx="814.14" cy="665.28" r="4.15"/><circle class="cls-5" cx="993.54" cy="662.83" r="24.06"/><circle class="cls-5" cx="993.54" cy="662.83" r="19.34"/><circle class="cls-5" cx="993.54" cy="662.83" r="16.97"/><circle class="cls-5" cx="993.54" cy="662.83" r="11.39"/><path class="cls-5" d="M993.54,681.62a.7.7,0,0,1-.7-.7v-36.1a.7.7,0,1,1,1.41,0v36.1A.7.7,0,0,1,993.54,681.62Z"/><path class="cls-5" d="M1010.73,669.05a.7.7,0,0,1-.21,0l-34.39-11a.7.7,0,1,1,.43-1.34l34.39,11a.7.7,0,0,1-.21,1.38Z"/><path class="cls-5" d="M976.34,669.05a.7.7,0,0,1-.21-1.38l34.39-11a.7.7,0,1,1,.43,1.34l-34.39,11A.7.7,0,0,1,976.34,669.05Z"/><path class="cls-5" d="M982.81,678.08a.7.7,0,0,1-.57-1.12l21.46-29a.7.7,0,0,1,1.13.84l-21.46,29A.7.7,0,0,1,982.81,678.08Z"/><path class="cls-5" d="M1004.27,678.08a.7.7,0,0,1-.57-.29l-21.46-29a.7.7,0,0,1,1.13-.84l21.46,29a.7.7,0,0,1-.57,1.12Z"/><circle class="cls-5" cx="993.54" cy="662.83" r="4.62"/><path class="cls-5" d="M782.46,633.7a9.76,9.76,0,0,0-4.11,10s8.64-.68,19.72-6.17l7.92-3.8-5.17-5-14.35,3.8Z"/><path class="cls-5" d="M772.12,673.58h18.25s-4.22-29.22,22.68-31.44,26.06,30.06,26.06,30.06h125s-3.16-35.44,29.43-35.44a28.27,28.27,0,0,1,25.63,15.73S1022,657,1022,669.05c0,0,8.65-.12,10.65-7l-1.9-26-1.37-2.53-.21-3.16s1.16-3.9-5.59-12.87l-7.28-9.81s-12.24-9.6-19-21.63c0,0,.84-1.27-3.38-1.48a76.47,76.47,0,0,1-11.6-1.16c-5.7-.95-29.43-2.11-46.1-2.22s-29,1.27-48.95,5.7-45,16.25-45,16.25-14.45,7-23,12.13-19.09,9.28-26.16,11.6-11,5.7-10.65,6.75,5,1.37,10.07-.53,10.07-3.16,9.23-.95-3.7,5.27-3.7,5.27a59.6,59.6,0,0,1-19.72,6.17s-6.22,6.28-6.22,12.82Z"/><path class="cls-5" d="M843.52,622s-4.09,24,0,44.69H958.3s-2.21-34.88,30.61-34.88c0,0,8.07-18.14-2.76-24.33"/><line class="cls-5" x1="905.49" y1="666.68" x2="905.49" y2="617.14"/><path class="cls-5" d="M997.34,586.13l-.63,3.9s3.69,8.54,18.25,19l1.37-1.27S1003.88,597.84,997.34,586.13Z"/><path class="cls-5" d="M1029.19,630.43S1009.47,623.58,1007,619s9.28-11.29,9.28-11.29l9,12.22S1029.61,625.58,1029.19,630.43Z"/><path class="cls-5" d="M1018.21,610.31s-3.92,5-1.88,8.41,12.44,8,12.44,8a32.12,32.12,0,0,0-4.51-8.21Z"/><path class="cls-5" d="M1021.6,614.93a16.38,16.38,0,0,0-.21,8s-5.09-2.59-5.53-5.39.79-4.93,2.35-7.21Z"/><line class="cls-5" x1="884.36" y1="625.9" x2="899.34" y2="625.16"/><line class="cls-5" x1="968.15" y1="618.41" x2="983.13" y2="617.67"/><rect class="cls-5" x="896.71" y="599.39" width="29.01" height="3.8" transform="translate(259.47 1477.12) rotate(-86.77)"/><rect class="cls-5" x="962.39" y="597.74" width="15.68" height="3.8" transform="translate(316.8 1534.5) rotate(-86.77)"/><rect class="cls-5" x="840.73" y="610.96" width="15.68" height="3.8" transform="translate(188.81 1425.49) rotate(-86.77)"/><path class="cls-5" d="M934.92,588.25a128.35,128.35,0,0,1,34.69,4.48,72.78,72.78,0,0,1,15.38,6L983.29,604c-9.29,1.17-43.93,5.48-73.37,8.84-28,3.18-67.6,5.47-81.19,6.2A153.34,153.34,0,0,1,855.49,605l4.37-1.77c13.73-5.59,27.93-11.36,60.95-14.29,4.75-.42,9.5-.64,14.12-.64h0m0-3.8c-4.57,0-9.39.2-14.45.65-37.13,3.3-51.2,10.27-66.39,16.32s-32.63,16.88-32.63,19.13,2.67,2.53,2.67,2.53,51.62-2.53,86.22-6.47,75.81-9.14,75.81-9.14l3.38-10.41c-6.56-4.5-25.61-12.61-54.61-12.61Z"/><path class="cls-5" d="M1089.73,574.2h125.15c19.32,0,33,39,43.68,39h27.1c14.16,0,25.38,11.71,25.38,25.87v16.67c0,5-3.75,8.46-8.71,8.46H1055.62a8.21,8.21,0,0,1-8.58-8.46V617.28C1047,596,1074.55,574.2,1089.73,574.2Z"/><path class="cls-5" d="M1046.89,632.2s8.16-.62,8.16,5.5v3.43c0,3.91-5.24,6.07-8.16,6.07h.16v-15Z"/><path class="cls-5" d="M1302,630.87V620.61c0-.64-.56-1.27-.44-1.87,6.11,4.69,9.44,12,9.44,20.34V640s0,.1-.4.1C1305.55,640.1,1302,636,1302,630.87Z"/><path class="cls-5" d="M1302.34,664.2H1055.62a8.21,8.21,0,0,1-8.58-8.46V652.2h264v3.54C1311,660.7,1307.3,664.2,1302.34,664.2Z"/><path class="cls-5" d="M1294.2,664.2c0-16-11.66-26-26-26s-26,10-26,26Z"/><circle class="cls-5" cx="1268.31" cy="666.02" r="20.41"/><circle class="cls-5" cx="1268.31" cy="666.02" r="13.71"/><path class="cls-5" d="M1123.91,664.2c0-16-11.66-26-26-26s-26,10-26,26Z"/><circle class="cls-5" cx="1098.02" cy="666.02" r="20.41"/><circle class="cls-5" cx="1098.02" cy="666.02" r="13.71"/><path class="cls-5" d="M1180.28,628.2c0,1.22.92,3,2.05,3h14.43c1.13,0,2.05-1.78,2.05-3h0c0-1.22-.92-3-2.05-3h-14.43c-1.13,0-2.05,1.78-2.05,3Z"/><path class="cls-5" d="M1137,627.2a2,2,0,0,0-2-2h-15a2,2,0,0,0-2,2h0a2,2,0,0,0,2,2h15a2,2,0,0,0,2-2Z"/><path class="cls-5" d="M1240,609.44c0-2.36-1.45-4.21-3.81-4.21l-16.08-.1c-2.36,0-3.11,1.85-3.11,4.21v5.86c0,2.36,1,3.78,3.4,3.78l16,.1c2.36,0,3.61-1.42,3.61-3.77Z"/><line class="cls-5" x1="1115.76" y1="613.26" x2="1101.49" y2="637.78"/><line class="cls-5" x1="1174.53" y1="615.05" x2="1174.53" y2="652.12"/><line class="cls-5" x1="1164.61" y1="615.05" x2="1186.87" y2="615.05"/><circle class="cls-5" cx="1098.02" cy="666.02" r="9.4"/><circle class="cls-5" cx="1098.02" cy="666.02" r="6.31"/><circle class="cls-5" cx="1268.15" cy="666.02" r="9.4"/><circle class="cls-5" cx="1268.15" cy="666.02" r="6.31"/><circle class="cls-5" cx="1098.02" cy="666.02" r="2.56"/><circle class="cls-5" cx="1268.15" cy="666.02" r="2.56"/><rect class="cls-5" x="1115.05" y="580.2" width="54" height="36" rx="6.16" ry="6.16"/><path class="cls-5" d="M1171,608.26a7.94,7.94,0,0,1-7.94,7.94H1121a7.94,7.94,0,0,1-7.94-7.94V586.15a7.94,7.94,0,0,1,7.94-7.94h42.11a7.94,7.94,0,0,1,7.94,7.94Zm-3-21.69a4.37,4.37,0,0,0-4.37-4.37h-42.26a4.37,4.37,0,0,0-4.37,4.37v22.27a4.37,4.37,0,0,0,4.37,4.37h42.26a4.37,4.37,0,0,0,4.37-4.37Z"/><path class="cls-5" d="M1054.86,609.49c-.76,3.31,2.75,6.72,6.15,6.72h41c3.4,0,5-3.48,5-6.88V586.76c0-3.4-1.6-6.55-5-6.55h-16.41C1072.81,580.2,1057,599.94,1054.86,609.49Z"/><path class="cls-5" d="M1102,617.2h-41a9,9,0,0,1-6.63-3.46,6.38,6.38,0,0,1-1.27-5.35h0c1.2-5.23,5.85-12.65,11.86-18.83,4.11-4.23,12.26-11.36,20.66-11.36H1102c4.53,0,7,4.31,7,8.55v22.57C1109,613.72,1106.44,617.2,1102,617.2Zm-16.41-35c-5.18,0-11.77,3.48-18.1,10-5.5,5.65-9.89,12.4-10.94,17h0a2.57,2.57,0,0,0,.58,2.21,5.17,5.17,0,0,0,3.83,1.84h41c2.4,0,3-1.48,3-3.88V586.76c0-2.48-.71-4.55-3-4.55Z"/><path class="cls-5" d="M1181,609.33c0,3.4,1.72,6.88,5.12,6.88h47.19a6.45,6.45,0,0,0,6.16-6.72c0-10.39-15.73-29.28-26.67-29.28h-26.67c-3.4,0-5.12,3.15-5.12,6.55Z"/><path class="cls-5" d="M1233.35,617.2h-47.19a8.05,8.05,0,0,1-8.12-7.88V586.76c0-4.18,3.46-8.55,8.12-8.55h26.67c12,0,28.46,19.74,28.46,30.78A8,8,0,0,1,1233.35,617.2Zm-47.19-35c-2.25,0-3.12,2.07-3.12,4.55v22.57c0,2.43.73,3.88,3.12,3.88h47.19a4.06,4.06,0,0,0,4.37-4.22c0-9.27-14.88-26.78-24.88-26.78Z"/><path class="cls-5" d="M133.23,611.29s-45.09,1.28-60.07,2.51c-17.79,1.47-51.75,9.81-51.75,23.76,0,20.2,15.12,34.64,27.05,34.64,73.36,0,277.95-.63,277.95-.63s8.54,1.82,15.87-9.55,24.2-34.83,11.55-43.44c0,0-46.37-32.08-94.58-32.08,0,0-28.73-1-41.43-1.13C197.93,585.15,183.18,585.4,133.23,611.29Z"/><path class="cls-5" d="M346.32,613.85s-4.68,2.38-4.68,14.91,12.83,12.89,12.83,12.89"/><path class="cls-5" d="M324,649c0-1.39,1.19-.76,2.58-.76h27.63c1.39,0,2.51.25,2.51,1.63l-2.51,14.46c0,1.39-1.12,1.9-2.51,1.9H326.62A2.3,2.3,0,0,1,324,664Z"/><rect class="cls-5" x="112.05" y="664.2" width="148" height="8"/><ellipse class="cls-5" cx="45.18" cy="627.85" rx="18.48" ry="3.15" transform="translate(-194.79 45.91) rotate(-18.29)"/><path class="cls-5" d="M348.57,625a9.34,9.34,0,0,1,3.7-7.47c1,.65,1.57,1,1.57,1,5,3.43,5.39,9.23,3.52,15.68A9.1,9.1,0,0,1,348.57,625Z"/><circle class="cls-5" cx="283.88" cy="657.88" r="31.29"/><circle class="cls-5" cx="283.88" cy="657.88" r="21.03"/><circle class="cls-5" cx="87.98" cy="657.88" r="31.29"/><circle class="cls-5" cx="87.98" cy="657.88" r="21.03"/><circle class="cls-5" cx="87.98" cy="657.89" r="5.1"/><rect class="cls-5" x="260.05" y="595.2" width="3" height="23"/><polygon class="cls-5" points="151.08 612.93 153.38 617.39 193.65 597 191.36 592.53 151.08 612.93"/><path class="cls-5" d="M225,596.11c52.87,0,63.45,5.33,67.46,7.44,0,0-.07,0-.08,0-.09.29-.9,1.24-3.39,2.2-1,.38-2,1.71-3,2.12-8.19,3.28-18.41,8.3-39.46,8.3H166c-1.2-2-10.64-1.72-20.67-3.94,12.57-6.38,22.5-11.47,30.75-14.49,18.07-.77,34.4-1.57,48.56-1.57H225m-.38-4.6c-13.58,0-29.87.19-49.44,1-10.72,3.85-24.09,10.57-42,19.57H134v.29h0v-.32h0v0h-.82c14.26,6,32.65,8,32.65,8h80.58c24.49,0,34.85-6,44.06-9.56s5.84-9.67,4.5-10.36c-4.12-2.13-13.47-8.68-70.35-8.68Z"/><path class="cls-5" d="M231.18,630.7c0,1.39,1.12,1.5,2.51,1.5h12.56c1.39,0,2.51-.11,2.51-1.5h0c0-1.39-1.12-1.5-2.51-1.5H233.7c-1.39,0-2.51.11-2.51,1.5Z"/><circle class="cls-5" cx="283.88" cy="657.88" r="12.18"/><path class="cls-5" d="M283.88,678a.75.75,0,0,1-.75-.75V638.62a.75.75,0,0,1,1.51,0v38.59A.75.75,0,0,1,283.88,678Z"/><path class="cls-5" d="M272.41,674.19a.75.75,0,0,1-.61-1.2l22.94-31a.75.75,0,0,1,1.21.9l-22.94,31A.75.75,0,0,1,272.41,674.19Z"/><path class="cls-5" d="M295.35,674.19a.75.75,0,0,1-.61-.31l-22.94-31A.75.75,0,0,1,273,642L296,673a.75.75,0,0,1-.61,1.2Z"/><line class="cls-5" x1="271.71" y1="616.67" x2="272.45" y2="628.76"/><polyline class="cls-5" points="184.71 619.25 184.71 656.78 252.59 656.78"/><path class="cls-5" d="M184.71,656.78,138,651.3s-.66-19.21-24.35-25.41"/><rect class="cls-5" x="182.57" y="608.28" width="60.39" height="24.97" transform="translate(-247.31 152.85) rotate(-25.6)"/><g class="cls-6"><path class="cls-7" d="M192.29,633.93a5.46,5.46,0,0,0,3.82-.3c.65-.31,1.5-1.07,1.06-2-.69-1.43-5.95.65-7.76-3.13-1.29-2.69.5-5.47,3-6.68a7.12,7.12,0,0,1,5.41-.65l-.61,3.32a5.58,5.58,0,0,0-3.38.43c-.67.32-1.51,1.15-1.11,2,.72,1.51,6-.72,7.8,3.11,1.12,2.34-.09,5.29-3,6.7a7.66,7.66,0,0,1-6.08.52Z"/><path class="cls-7" d="M202.95,617.08l3.83-1.84L215.2,628l-3.34,1.6-1.66-2.72-4.25,2v3.52l-3.57,1.71Zm5.71,7.23-1.54-2.52c-.49-.82-1.24-2.29-1.24-2.29l0,0s.16,1.75.15,2.81l0,3.27Z"/><path class="cls-7" d="M212.85,612.34l3.34-1.6,3.06,11.78,5.57-2.67.8,3.13-8.88,4.26Z"/><path class="cls-7" d="M223.52,607.23l8.52-4.08.82,3.12-5.2,2.49.71,2.71,4.14-2,.8,3.13-4.14,2,.74,2.81,5.47-2.62.82,3.12-8.81,4.22Z"/></g><rect class="cls-5" x="847.69" y="611.65" width="60.39" height="24.97" transform="translate(-183.49 440.54) rotate(-25.6)"/><g class="cls-6"><path class="cls-7" d="M857.4,637.31a5.46,5.46,0,0,0,3.82-.3c.65-.31,1.5-1.07,1.06-2-.69-1.43-5.95.65-7.76-3.13-1.29-2.69.5-5.47,3-6.68a7.12,7.12,0,0,1,5.41-.65l-.61,3.32a5.58,5.58,0,0,0-3.38.43c-.67.32-1.51,1.15-1.11,2,.72,1.51,6-.72,7.8,3.11,1.12,2.34-.09,5.29-3,6.7a7.66,7.66,0,0,1-6.08.52Z"/><path class="cls-7" d="M868.06,620.46l3.83-1.84,8.42,12.73-3.34,1.6-1.66-2.72-4.25,2v3.52l-3.57,1.71Zm5.71,7.23-1.54-2.52c-.49-.82-1.24-2.29-1.24-2.29l0,0s.16,1.75.15,2.81l0,3.27Z"/><path class="cls-7" d="M878,615.72l3.34-1.6,3.06,11.78,5.57-2.67.8,3.13-8.88,4.26Z"/><path class="cls-7" d="M888.64,610.6l8.52-4.08.82,3.12-5.2,2.49.71,2.71,4.14-2,.8,3.13-4.14,2,.74,2.81,5.47-2.62.82,3.12-8.81,4.22Z"/></g><rect class="cls-5" x="893.43" y="595.27" width="60.39" height="24.97" transform="translate(209.69 -236.49) rotate(16.44)"/><g class="cls-6"><path class="cls-7" d="M899.6,603.83a5.46,5.46,0,0,0,3,2.33c.69.2,1.83.21,2.12-.76.45-1.52-4.85-3.5-3.67-7.52.84-2.86,4-3.73,6.73-2.93a7.12,7.12,0,0,1,4.45,3.14l-2.68,2.05a5.58,5.58,0,0,0-2.8-1.95c-.71-.21-1.89-.16-2.16.73-.47,1.6,4.91,3.45,3.71,7.53-.74,2.49-3.61,3.87-6.73,3a7.66,7.66,0,0,1-4.86-3.68Z"/><path class="cls-7" d="M918.8,598.45l4.08,1.2-2.27,15.09-3.55-1,.59-3.13-4.52-1.33-2.36,2.61L907,610.72Zm-.6,9.19.55-2.9c.19-.94.61-2.53.61-2.53h0s-1.05,1.41-1.77,2.19l-2.21,2.41Z"/><path class="cls-7" d="M929.32,601.55l3.55,1-5.61,10.8,5.92,1.75L931.67,618l-9.45-2.79Z"/><path class="cls-7" d="M940.68,604.9l9.06,2.67-1.49,2.87-5.54-1.63-1.28,2.49,4.4,1.3-1.51,2.86-4.4-1.3-1.33,2.58,5.82,1.72-1.49,2.87-9.37-2.76Z"/></g><rect class="cls-5" x="252.59" y="601.22" width="45.34" height="30.91"/><g class="cls-2"><path class="cls-7" d="M259.22,619.82a6.6,6.6,0,0,0,3.81,1.65c.8,0,1.67-.31,1.67-1.27,0-1.78-7.23-1.94-7.23-6.72a4.83,4.83,0,0,1,4.25-4.74v-2.09h2.43v2a7,7,0,0,1,4.07,1.74l-1.65,3.18a6.07,6.07,0,0,0-3.52-1.4c-.8,0-1.69.36-1.69,1.25,0,1.89,7.23,1.76,7.23,6.68a4.88,4.88,0,0,1-4.45,4.85v2h-2.43v-2a8,8,0,0,1-4.54-2.18Z"/></g><g class="cls-2"><path class="cls-7" d="M271.5,619.82a6.6,6.6,0,0,0,3.81,1.65c.8,0,1.67-.31,1.67-1.27,0-1.78-7.23-1.94-7.23-6.72a4.83,4.83,0,0,1,4.25-4.74v-2.09h2.43v2a7,7,0,0,1,4.07,1.74l-1.65,3.18a6.07,6.07,0,0,0-3.52-1.4c-.8,0-1.69.36-1.69,1.25,0,1.89,7.23,1.76,7.23,6.68a4.88,4.88,0,0,1-4.45,4.85v2H274v-2a8,8,0,0,1-4.54-2.18Z"/></g><g class="cls-2"><path class="cls-7" d="M284.46,619.82a6.6,6.6,0,0,0,3.81,1.65c.8,0,1.67-.31,1.67-1.27,0-1.78-7.23-1.94-7.23-6.72a4.83,4.83,0,0,1,4.25-4.74v-2.09h2.43v2a7,7,0,0,1,4.07,1.74l-1.65,3.18a6.07,6.07,0,0,0-3.52-1.4c-.8,0-1.69.36-1.69,1.25,0,1.89,7.23,1.76,7.23,6.68a4.88,4.88,0,0,1-4.45,4.85v2H287v-2a8,8,0,0,1-4.54-2.18Z"/></g><rect class="cls-5" x="1105.41" y="588.01" width="45.34" height="30.91" transform="translate(-105.74 265.21) rotate(-12.81)"/><g class="cls-2"><path class="cls-7" d="M1113.13,610.1a6.6,6.6,0,0,0,4.08.76c.78-.18,1.56-.67,1.35-1.61-.39-1.74-7.48-.28-8.54-4.95a4.83,4.83,0,0,1,3.09-5.57l-.46-2,2.37-.54.45,2a7,7,0,0,1,4.36.79l-.9,3.47a6.07,6.07,0,0,0-3.74-.59c-.78.18-1.57.72-1.37,1.59.42,1.84,7.44.11,8.53,4.91a4.88,4.88,0,0,1-3.26,5.72l.45,2-2.37.54-.45-2a8,8,0,0,1-4.91-1.12Z"/></g><g class="cls-2"><path class="cls-7" d="M1125.11,607.37a6.6,6.6,0,0,0,4.08.76c.78-.18,1.56-.67,1.35-1.61-.39-1.74-7.48-.28-8.54-4.95a4.83,4.83,0,0,1,3.09-5.57l-.46-2,2.37-.54.45,2a7,7,0,0,1,4.36.79l-.9,3.47a6.07,6.07,0,0,0-3.74-.59c-.78.18-1.57.72-1.37,1.59.42,1.84,7.44.11,8.53,4.91a4.88,4.88,0,0,1-3.26,5.72l.45,2-2.37.54-.45-2a8,8,0,0,1-4.91-1.12Z"/></g><g class="cls-2"><path class="cls-7" d="M1137.75,604.5a6.6,6.6,0,0,0,4.08.76c.78-.18,1.56-.67,1.35-1.61-.39-1.74-7.48-.28-8.54-4.95a4.83,4.83,0,0,1,3.09-5.57l-.46-2,2.37-.54.45,2a7,7,0,0,1,4.36.79l-.9,3.47a6.07,6.07,0,0,0-3.74-.59c-.78.18-1.57.72-1.37,1.59.42,1.84,7.44.11,8.53,4.91a4.88,4.88,0,0,1-3.26,5.72l.45,2-2.37.54-.45-2a8,8,0,0,1-4.91-1.12Z"/></g><rect class="cls-5" x="1149.18" y="599.32" width="45.34" height="30.91" transform="translate(266.47 -350.35) rotate(19.15)"/><g class="cls-2"><path class="cls-7" d="M1155.66,612.49a6.6,6.6,0,0,0,3.06,2.8c.76.26,1.68.25,2-.65.58-1.68-6.2-4.2-4.63-8.72a4.83,4.83,0,0,1,5.57-3.08l.69-2,2.29.8-.66,1.91a7,7,0,0,1,3.28,3l-2.6,2.47a6.07,6.07,0,0,0-2.86-2.48c-.76-.26-1.71-.22-2,.62-.62,1.79,6.26,4,4.64,8.68a4.88,4.88,0,0,1-5.8,3.12l-.66,1.91-2.29-.8.66-1.91a8,8,0,0,1-3.57-3.55Z"/></g><g class="cls-2"><path class="cls-7" d="M1167.27,616.52a6.6,6.6,0,0,0,3.06,2.8c.76.26,1.68.25,2-.65.58-1.68-6.2-4.2-4.63-8.72a4.83,4.83,0,0,1,5.57-3.08l.69-2,2.29.8-.66,1.91a7,7,0,0,1,3.28,3l-2.6,2.47a6.07,6.07,0,0,0-2.86-2.48c-.76-.26-1.71-.22-2,.62-.62,1.79,6.26,4,4.64,8.68a4.88,4.88,0,0,1-5.8,3.12l-.66,1.91-2.29-.8.66-1.91a8,8,0,0,1-3.57-3.55Z"/></g><g class="cls-2"><path class="cls-7" d="M1179.51,620.77a6.6,6.6,0,0,0,3.06,2.8c.76.26,1.68.25,2-.65.58-1.68-6.2-4.2-4.63-8.72a4.83,4.83,0,0,1,5.57-3.08l.69-2,2.29.8-.66,1.91a7,7,0,0,1,3.28,3l-2.6,2.47a6.07,6.07,0,0,0-2.86-2.48c-.76-.26-1.71-.22-2,.62-.62,1.79,6.26,4,4.64,8.68a4.88,4.88,0,0,1-5.8,3.12l-.66,1.91-2.29-.8.66-1.91a8,8,0,0,1-3.57-3.55Z"/></g><polygon class="cls-5" points="964.3 581.27 918.96 581.27 925.43 550.36 970.77 550.36 964.3 581.27"/><g class="cls-2"><path class="cls-7" d="M928.26,569a6.6,6.6,0,0,0,3.81,1.65c.8,0,1.67-.31,1.67-1.27,0-1.78-7.23-1.94-7.23-6.72a4.83,4.83,0,0,1,4.25-4.74v-2.09h2.43v2a7,7,0,0,1,4.07,1.74l-1.65,3.18a6.07,6.07,0,0,0-3.52-1.4c-.8,0-1.69.36-1.69,1.25,0,1.89,7.23,1.76,7.23,6.68a4.88,4.88,0,0,1-4.45,4.85v2h-2.43v-2a8,8,0,0,1-4.54-2.18Z"/></g><g class="cls-2"><path class="cls-7" d="M940.55,569a6.6,6.6,0,0,0,3.81,1.65c.8,0,1.67-.31,1.67-1.27,0-1.78-7.23-1.94-7.23-6.72a4.83,4.83,0,0,1,4.25-4.74v-2.09h2.43v2a7,7,0,0,1,4.07,1.74l-1.65,3.18a6.07,6.07,0,0,0-3.52-1.4c-.8,0-1.69.36-1.69,1.25,0,1.89,7.23,1.76,7.23,6.68a4.88,4.88,0,0,1-4.45,4.85v2H943v-2a8,8,0,0,1-4.54-2.18Z"/></g><g class="cls-2"><path class="cls-7" d="M953.51,569a6.6,6.6,0,0,0,3.81,1.65c.8,0,1.67-.31,1.67-1.27,0-1.78-7.23-1.94-7.23-6.72a4.83,4.83,0,0,1,4.25-4.74v-2.09h2.43v2a7,7,0,0,1,4.07,1.74l-1.65,3.18a6.07,6.07,0,0,0-3.52-1.4c-.8,0-1.69.36-1.69,1.25,0,1.89,7.23,1.76,7.23,6.68a4.88,4.88,0,0,1-4.45,4.85v2H956v-2a8,8,0,0,1-4.54-2.18Z"/></g><line class="cls-5" x1="970.77" y1="550.36" x2="977.69" y2="583.04"/></g></g></svg>