<svg xmlns="http://www.w3.org/2000/svg" viewBox="0 0 1471.66 275.93"><defs><style>.cls-1{opacity:0.2;}.cls-2{fill:#007cc0;}.cls-3,.cls-4{fill:#fff;}.cls-4{stroke:#0080b1;stroke-miterlimit:10;stroke-width:2px;}.cls-5{opacity:0.39;}.cls-6{fill:#0080b1;}</style></defs><title>cars-bg</title><g id="Layer_2" data-name="Layer 2"><g id="Layer_1-2" data-name="Layer 1"><g class="cls-1"><rect class="cls-2" x="952.75" y="179.09" width="85.37" height="68.38"/><rect class="cls-2" x="920.56" y="184.41" width="36.82" height="63.06"/><rect class="cls-2" x="922.1" y="180.22" width="26.8" height="10.43"/><rect class="cls-2" x="926.9" y="176.13" width="16.57" height="7.16"/><rect class="cls-2" x="933.86" y="173.57" width="5.11" height="3.89"/><rect class="cls-2" x="965.43" y="111.04" width="36.82" height="136.43"/><rect class="cls-2" x="967.88" y="92.56" width="31.91" height="29.87"/><rect class="cls-2" x="970.03" y="87.66" width="27.62" height="14.93"/><rect class="cls-2" x="972.23" y="76.61" width="23.22" height="23.22"/><rect class="cls-2" x="976.17" y="70.88" width="15.34" height="11.05"/><rect class="cls-3" x="971.87" y="97.27" width="10.33" height="5.32"/><rect class="cls-3" x="985.48" y="97.27" width="10.33" height="5.32"/><rect class="cls-3" x="971.87" y="107.5" width="10.33" height="5.32"/><rect class="cls-3" x="985.48" y="107.5" width="10.33" height="5.32"/><rect class="cls-3" x="971.87" y="117.73" width="10.33" height="5.32"/><rect class="cls-3" x="985.48" y="117.73" width="10.33" height="5.32"/><rect class="cls-3" x="971.87" y="127.95" width="10.33" height="5.32"/><rect class="cls-3" x="985.48" y="127.95" width="10.33" height="5.32"/><rect class="cls-3" x="971.87" y="138.18" width="10.33" height="5.32"/><rect class="cls-3" x="985.48" y="138.18" width="10.33" height="5.32"/><rect class="cls-3" x="971.87" y="148.41" width="10.33" height="5.32"/><rect class="cls-3" x="985.48" y="148.41" width="10.33" height="5.32"/><rect class="cls-3" x="971.87" y="158.64" width="10.33" height="5.32"/><rect class="cls-3" x="985.48" y="158.64" width="10.33" height="5.32"/><rect class="cls-3" x="971.87" y="168.87" width="10.33" height="5.32"/><rect class="cls-3" x="985.48" y="168.87" width="10.33" height="5.32"/><rect class="cls-3" x="971.87" y="179.09" width="10.33" height="5.32"/><rect class="cls-3" x="985.48" y="179.09" width="10.33" height="5.32"/><rect class="cls-3" x="971.87" y="189.32" width="10.33" height="5.32"/><rect class="cls-3" x="985.48" y="189.32" width="10.33" height="5.32"/><rect class="cls-2" x="1260.18" y="179.09" width="85.37" height="68.38"/><rect class="cls-2" x="1228" y="184.41" width="36.82" height="63.06"/><rect class="cls-2" x="1229.53" y="180.22" width="26.8" height="10.43"/><rect class="cls-2" x="1234.34" y="176.13" width="16.57" height="7.16"/><rect class="cls-2" x="1241.29" y="173.57" width="5.11" height="3.89"/><rect class="cls-2" x="1272.87" y="111.04" width="36.82" height="136.43"/><rect class="cls-2" x="1275.32" y="92.56" width="31.91" height="29.87"/><rect class="cls-2" x="1277.47" y="87.66" width="27.62" height="14.93"/><rect class="cls-2" x="1279.67" y="76.61" width="23.22" height="23.22"/><rect class="cls-2" x="1283.6" y="70.88" width="15.34" height="11.05"/><rect class="cls-2" x="1286.78" y="43.26" width="9" height="35.8"/><rect class="cls-2" x="1289.54" width="3.48" height="46.84"/><rect class="cls-2" x="1286.78" y="38.05" width="9" height="1.94"/><rect class="cls-3" x="1279.31" y="97.27" width="10.33" height="5.32"/><rect class="cls-3" x="1292.91" y="97.27" width="10.33" height="5.32"/><rect class="cls-3" x="1279.31" y="107.5" width="10.33" height="5.32"/><rect class="cls-3" x="1292.91" y="107.5" width="10.33" height="5.32"/><rect class="cls-3" x="1279.31" y="117.73" width="10.33" height="5.32"/><rect class="cls-3" x="1292.91" y="117.73" width="10.33" height="5.32"/><rect class="cls-3" x="1279.31" y="127.95" width="10.33" height="5.32"/><rect class="cls-3" x="1292.91" y="127.95" width="10.33" height="5.32"/><rect class="cls-3" x="1279.31" y="138.18" width="10.33" height="5.32"/><rect class="cls-3" x="1292.91" y="138.18" width="10.33" height="5.32"/><rect class="cls-3" x="1279.31" y="148.41" width="10.33" height="5.32"/><rect class="cls-3" x="1292.91" y="148.41" width="10.33" height="5.32"/><rect class="cls-3" x="1279.31" y="158.64" width="10.33" height="5.32"/><rect class="cls-3" x="1292.91" y="158.64" width="10.33" height="5.32"/><rect class="cls-3" x="1279.31" y="168.87" width="10.33" height="5.32"/><rect class="cls-3" x="1292.91" y="168.87" width="10.33" height="5.32"/><rect class="cls-3" x="1279.31" y="179.09" width="10.33" height="5.32"/><rect class="cls-3" x="1292.91" y="179.09" width="10.33" height="5.32"/><rect class="cls-3" x="1279.31" y="189.32" width="10.33" height="5.32"/><rect class="cls-3" x="1292.91" y="189.32" width="10.33" height="5.32"/><rect class="cls-2" x="1382.1" y="115.41" width="41.19" height="132.07"/><rect class="cls-2" x="1389.74" y="112.82" width="31.37" height="9.61"/><rect class="cls-2" x="1400.92" y="110.16" width="15.82" height="7.47"/><rect class="cls-3" x="1390.73" y="125.5" width="10.33" height="5.32"/><rect class="cls-3" x="1404.33" y="125.5" width="10.33" height="5.32"/><rect class="cls-3" x="1390.73" y="135.73" width="10.33" height="5.32"/><rect class="cls-3" x="1404.33" y="135.73" width="10.33" height="5.32"/><rect class="cls-3" x="1390.73" y="145.96" width="10.33" height="5.32"/><rect class="cls-3" x="1404.33" y="145.96" width="10.33" height="5.32"/><rect class="cls-3" x="1390.73" y="156.18" width="10.33" height="5.32"/><rect class="cls-3" x="1404.33" y="156.18" width="10.33" height="5.32"/><rect class="cls-2" x="1357.01" y="184.41" width="36.82" height="63.06"/><rect class="cls-2" x="1358.54" y="180.22" width="26.8" height="10.43"/><rect class="cls-2" x="1363.35" y="176.13" width="16.57" height="7.16"/><rect class="cls-2" x="1370.31" y="173.57" width="5.11" height="3.89"/><rect class="cls-2" x="1318.96" y="163.14" width="34.67" height="84.34"/><rect class="cls-2" x="1326.84" y="158.13" width="26.8" height="12.27"/><rect class="cls-2" x="1322.95" y="153.73" width="5.01" height="14.11"/><rect class="cls-2" x="1329.6" y="153.73" width="20.66" height="7.57"/><rect class="cls-2" x="1117.36" y="209.17" width="248.03" height="38.31"/><rect class="cls-2" x="1310.78" y="183.29" width="12.17" height="2.97"/><rect class="cls-2" x="1313.03" y="184.77" width="7.57" height="48.79"/><rect class="cls-2" x="1310.78" y="191.98" width="14.68" height="48.54"/><rect class="cls-2" x="1117.36" y="163.14" width="34.67" height="84.34"/><rect class="cls-2" x="1125.24" y="158.13" width="26.8" height="12.27"/><rect class="cls-2" x="1121.35" y="153.73" width="5.01" height="14.11"/><rect class="cls-2" x="1128" y="153.73" width="20.66" height="7.57"/><rect class="cls-2" x="1216.22" y="209.17" width="248.03" height="38.31"/><rect class="cls-2" x="1436.99" y="163.14" width="34.67" height="84.34"/><rect class="cls-2" x="1444.86" y="158.13" width="26.8" height="12.27"/><rect class="cls-2" x="1440.98" y="153.73" width="5.01" height="14.11"/><rect class="cls-2" x="1447.63" y="153.73" width="20.66" height="7.57"/><rect class="cls-2" x="1158.4" y="79.06" width="37.23" height="168.41"/><rect class="cls-3" x="1165.04" y="89.09" width="10.33" height="5.32"/><rect class="cls-3" x="1178.65" y="89.09" width="10.33" height="5.32"/><rect class="cls-3" x="1165.04" y="99.32" width="10.33" height="5.32"/><rect class="cls-3" x="1178.65" y="99.32" width="10.33" height="5.32"/><rect class="cls-3" x="1165.04" y="109.54" width="10.33" height="5.32"/><rect class="cls-3" x="1178.65" y="109.54" width="10.33" height="5.32"/><rect class="cls-3" x="1165.04" y="119.77" width="10.33" height="5.32"/><rect class="cls-3" x="1178.65" y="119.77" width="10.33" height="5.32"/><rect class="cls-3" x="1165.04" y="130" width="10.33" height="5.32"/><rect class="cls-3" x="1178.65" y="130" width="10.33" height="5.32"/><rect class="cls-3" x="1165.04" y="140.23" width="10.33" height="5.32"/><rect class="cls-3" x="1178.65" y="140.23" width="10.33" height="5.32"/><rect class="cls-3" x="1165.04" y="150.46" width="10.33" height="5.32"/><rect class="cls-3" x="1178.65" y="150.46" width="10.33" height="5.32"/><rect class="cls-3" x="1165.04" y="160.68" width="10.33" height="5.32"/><rect class="cls-3" x="1178.65" y="160.68" width="10.33" height="5.32"/><rect class="cls-3" x="1165.04" y="170.91" width="10.33" height="5.32"/><rect class="cls-3" x="1178.65" y="170.91" width="10.33" height="5.32"/><rect class="cls-3" x="1165.04" y="181.14" width="10.33" height="5.32"/><rect class="cls-3" x="1178.65" y="181.14" width="10.33" height="5.32"/><rect class="cls-2" x="1161.33" y="76.27" width="30.89" height="7.3"/><rect class="cls-2" x="1166.78" y="66.18" width="25.16" height="15.34"/><rect class="cls-2" x="1170.74" y="64.47" width="21.21" height="3.95"/><rect class="cls-2" x="1193.31" y="127.95" width="5.18" height="119.52"/><rect class="cls-2" x="1197.13" y="111.9" width="49.91" height="135.57"/><rect class="cls-2" x="1200.94" y="105.24" width="23.59" height="13.84"/><rect class="cls-2" x="1230.81" y="103.47" width="8.28" height="12.64"/><rect class="cls-2" x="1240.14" y="109.12" width="4.59" height="7"/><rect class="cls-2" x="1074.66" y="115.41" width="41.19" height="132.07"/><rect class="cls-2" x="1082.3" y="112.82" width="31.37" height="9.61"/><rect class="cls-2" x="1093.48" y="110.16" width="15.82" height="7.47"/><rect class="cls-3" x="1083.29" y="125.5" width="10.33" height="5.32"/><rect class="cls-3" x="1096.89" y="125.5" width="10.33" height="5.32"/><rect class="cls-3" x="1083.29" y="135.73" width="10.33" height="5.32"/><rect class="cls-3" x="1096.89" y="135.73" width="10.33" height="5.32"/><rect class="cls-3" x="1083.29" y="145.96" width="10.33" height="5.32"/><rect class="cls-3" x="1096.89" y="145.96" width="10.33" height="5.32"/><rect class="cls-3" x="1083.29" y="156.18" width="10.33" height="5.32"/><rect class="cls-3" x="1096.89" y="156.18" width="10.33" height="5.32"/><rect class="cls-2" x="1049.57" y="184.41" width="36.82" height="63.06"/><rect class="cls-2" x="1051.11" y="180.22" width="26.8" height="10.43"/><rect class="cls-2" x="1055.91" y="176.13" width="16.57" height="7.16"/><rect class="cls-2" x="1062.87" y="173.57" width="5.11" height="3.89"/><rect class="cls-2" x="1011.52" y="163.14" width="34.67" height="84.34"/><rect class="cls-2" x="1019.4" y="158.13" width="26.8" height="12.27"/><rect class="cls-2" x="1015.51" y="153.73" width="5.01" height="14.11"/><rect class="cls-2" x="1022.16" y="153.73" width="20.66" height="7.57"/><rect class="cls-2" x="926.9" y="209.17" width="131.06" height="38.31"/><rect class="cls-2" x="1003.34" y="183.29" width="12.17" height="2.97"/><rect class="cls-2" x="1005.59" y="184.77" width="7.57" height="48.79"/><rect class="cls-2" x="1003.34" y="191.98" width="14.68" height="48.54"/><rect class="cls-2" x="227.47" y="179.09" width="85.37" height="68.38"/><rect class="cls-2" x="195.29" y="184.41" width="36.82" height="63.06"/><rect class="cls-2" x="196.82" y="180.22" width="26.8" height="10.43"/><rect class="cls-2" x="201.63" y="176.13" width="16.57" height="7.16"/><rect class="cls-2" x="208.59" y="173.57" width="5.11" height="3.89"/><rect class="cls-2" x="240.16" y="111.04" width="36.82" height="136.43"/><rect class="cls-2" x="242.61" y="92.56" width="31.91" height="29.87"/><rect class="cls-2" x="244.76" y="87.66" width="27.62" height="14.93"/><rect class="cls-2" x="246.96" y="76.61" width="23.22" height="23.22"/><rect class="cls-2" x="250.9" y="70.88" width="15.34" height="11.05"/><rect class="cls-3" x="246.6" y="97.27" width="10.33" height="5.32"/><rect class="cls-3" x="260.2" y="97.27" width="10.33" height="5.32"/><rect class="cls-3" x="246.6" y="107.5" width="10.33" height="5.32"/><rect class="cls-3" x="260.2" y="107.5" width="10.33" height="5.32"/><rect class="cls-3" x="246.6" y="117.73" width="10.33" height="5.32"/><rect class="cls-3" x="260.2" y="117.73" width="10.33" height="5.32"/><rect class="cls-3" x="246.6" y="127.95" width="10.33" height="5.32"/><rect class="cls-3" x="260.2" y="127.95" width="10.33" height="5.32"/><rect class="cls-3" x="246.6" y="138.18" width="10.33" height="5.32"/><rect class="cls-3" x="260.2" y="138.18" width="10.33" height="5.32"/><rect class="cls-3" x="246.6" y="148.41" width="10.33" height="5.32"/><rect class="cls-3" x="260.2" y="148.41" width="10.33" height="5.32"/><rect class="cls-3" x="246.6" y="158.64" width="10.33" height="5.32"/><rect class="cls-3" x="260.2" y="158.64" width="10.33" height="5.32"/><rect class="cls-3" x="246.6" y="168.87" width="10.33" height="5.32"/><rect class="cls-3" x="260.2" y="168.87" width="10.33" height="5.32"/><rect class="cls-3" x="246.6" y="179.09" width="10.33" height="5.32"/><rect class="cls-3" x="260.2" y="179.09" width="10.33" height="5.32"/><rect class="cls-3" x="246.6" y="189.32" width="10.33" height="5.32"/><rect class="cls-3" x="260.2" y="189.32" width="10.33" height="5.32"/><rect class="cls-2" x="349.39" y="115.41" width="41.19" height="132.07"/><rect class="cls-2" x="357.03" y="112.82" width="31.37" height="9.61"/><rect class="cls-2" x="368.21" y="110.16" width="15.82" height="7.47"/><rect class="cls-3" x="358.02" y="125.5" width="10.33" height="5.32"/><rect class="cls-3" x="371.62" y="125.5" width="10.33" height="5.32"/><rect class="cls-3" x="358.02" y="135.73" width="10.33" height="5.32"/><rect class="cls-3" x="371.62" y="135.73" width="10.33" height="5.32"/><rect class="cls-3" x="358.02" y="145.96" width="10.33" height="5.32"/><rect class="cls-3" x="371.62" y="145.96" width="10.33" height="5.32"/><rect class="cls-3" x="358.02" y="156.18" width="10.33" height="5.32"/><rect class="cls-3" x="371.62" y="156.18" width="10.33" height="5.32"/><rect class="cls-2" x="324.3" y="184.41" width="36.82" height="63.06"/><rect class="cls-2" x="325.83" y="180.22" width="26.8" height="10.43"/><rect class="cls-2" x="330.64" y="176.13" width="16.57" height="7.16"/><rect class="cls-2" x="337.6" y="173.57" width="5.11" height="3.89"/><rect class="cls-2" x="286.25" y="163.14" width="34.67" height="84.34"/><rect class="cls-2" x="294.13" y="158.13" width="26.8" height="12.27"/><rect class="cls-2" x="290.24" y="153.73" width="5.01" height="14.11"/><rect class="cls-2" x="296.89" y="153.73" width="20.66" height="7.57"/><rect class="cls-2" x="201.63" y="209.17" width="131.06" height="38.31"/><rect class="cls-2" x="278.07" y="183.29" width="12.17" height="2.97"/><rect class="cls-2" x="280.32" y="184.77" width="7.57" height="48.79"/><rect class="cls-2" x="278.07" y="191.98" width="14.68" height="48.54"/><rect class="cls-2" x="32.18" y="179.09" width="85.37" height="68.38"/><rect class="cls-2" y="184.41" width="36.82" height="63.06"/><rect class="cls-2" x="1.53" y="180.22" width="26.8" height="10.43"/><rect class="cls-2" x="6.34" y="176.13" width="16.57" height="7.16"/><rect class="cls-2" x="13.3" y="173.57" width="5.11" height="3.89"/><rect class="cls-2" x="44.87" y="111.04" width="36.82" height="136.43"/><rect class="cls-2" x="47.32" y="92.56" width="31.91" height="29.87"/><rect class="cls-2" x="49.47" y="87.66" width="27.62" height="14.93"/><rect class="cls-2" x="51.67" y="76.61" width="23.22" height="23.22"/><rect class="cls-2" x="55.61" y="70.88" width="15.34" height="11.05"/><rect class="cls-3" x="51.31" y="97.27" width="10.33" height="5.32"/><rect class="cls-3" x="64.91" y="97.27" width="10.33" height="5.32"/><rect class="cls-3" x="51.31" y="107.5" width="10.33" height="5.32"/><rect class="cls-3" x="64.91" y="107.5" width="10.33" height="5.32"/><rect class="cls-3" x="51.31" y="117.73" width="10.33" height="5.32"/><rect class="cls-3" x="64.91" y="117.73" width="10.33" height="5.32"/><rect class="cls-3" x="51.31" y="127.95" width="10.33" height="5.32"/><rect class="cls-3" x="64.91" y="127.95" width="10.33" height="5.32"/><rect class="cls-3" x="51.31" y="138.18" width="10.33" height="5.32"/><rect class="cls-3" x="64.91" y="138.18" width="10.33" height="5.32"/><rect class="cls-3" x="51.31" y="148.41" width="10.33" height="5.32"/><rect class="cls-3" x="64.91" y="148.41" width="10.33" height="5.32"/><rect class="cls-3" x="51.31" y="158.64" width="10.33" height="5.32"/><rect class="cls-3" x="64.91" y="158.64" width="10.33" height="5.32"/><rect class="cls-3" x="51.31" y="168.87" width="10.33" height="5.32"/><rect class="cls-3" x="64.91" y="168.87" width="10.33" height="5.32"/><rect class="cls-3" x="51.31" y="179.09" width="10.33" height="5.32"/><rect class="cls-3" x="64.91" y="179.09" width="10.33" height="5.32"/><rect class="cls-3" x="51.31" y="189.32" width="10.33" height="5.32"/><rect class="cls-3" x="64.91" y="189.32" width="10.33" height="5.32"/><rect class="cls-2" x="154.1" y="115.41" width="41.19" height="132.07"/><rect class="cls-2" x="161.74" y="112.82" width="31.37" height="9.61"/><rect class="cls-2" x="172.92" y="110.16" width="15.82" height="7.47"/><rect class="cls-3" x="162.73" y="125.5" width="10.33" height="5.32"/><rect class="cls-3" x="176.33" y="125.5" width="10.33" height="5.32"/><rect class="cls-3" x="162.73" y="135.73" width="10.33" height="5.32"/><rect class="cls-3" x="176.33" y="135.73" width="10.33" height="5.32"/><rect class="cls-3" x="162.73" y="145.96" width="10.33" height="5.32"/><rect class="cls-3" x="176.33" y="145.96" width="10.33" height="5.32"/><rect class="cls-3" x="162.73" y="156.18" width="10.33" height="5.32"/><rect class="cls-3" x="176.33" y="156.18" width="10.33" height="5.32"/><rect class="cls-2" x="129.01" y="184.41" width="36.82" height="63.06"/><rect class="cls-2" x="130.54" y="180.22" width="26.8" height="10.43"/><rect class="cls-2" x="135.35" y="176.13" width="16.57" height="7.16"/><rect class="cls-2" x="142.31" y="173.57" width="5.11" height="3.89"/><rect class="cls-2" x="90.96" y="163.14" width="34.67" height="84.34"/><rect class="cls-2" x="98.84" y="158.13" width="26.8" height="12.27"/><rect class="cls-2" x="94.95" y="153.73" width="5.01" height="14.11"/><rect class="cls-2" x="101.6" y="153.73" width="20.66" height="7.57"/><rect class="cls-2" x="6.34" y="209.17" width="131.06" height="38.31"/><rect class="cls-2" x="82.78" y="183.29" width="12.17" height="2.97"/><rect class="cls-2" x="85.03" y="184.77" width="7.57" height="48.79"/><rect class="cls-2" x="82.78" y="191.98" width="14.68" height="48.54"/></g><circle class="cls-4" cx="910.62" cy="248.19" r="24.18"/><circle class="cls-4" cx="910.62" cy="248.19" r="19.44"/><circle class="cls-4" cx="910.62" cy="248.19" r="17.05"/><circle class="cls-4" cx="910.62" cy="248.19" r="11.44"/><path class="cls-4" d="M910.62,267.08a.71.71,0,0,1-.71-.71V230.1a.71.71,0,0,1,1.42,0v36.27A.71.71,0,0,1,910.62,267.08Z"/><path class="cls-4" d="M927.9,254.45a.7.7,0,0,1-.22,0l-34.56-11a.71.71,0,1,1,.43-1.35l34.56,11a.71.71,0,0,1-.22,1.38Z"/><path class="cls-4" d="M893.34,254.45a.71.71,0,0,1-.22-1.38l34.56-11a.71.71,0,1,1,.43,1.35l-34.56,11A.7.7,0,0,1,893.34,254.45Z"/><path class="cls-4" d="M899.84,263.53a.71.71,0,0,1-.57-1.13l21.57-29.17a.71.71,0,0,1,1.14.84l-21.57,29.17A.71.71,0,0,1,899.84,263.53Z"/><path class="cls-4" d="M921.41,263.53a.71.71,0,0,1-.57-.29l-21.57-29.17a.71.71,0,0,1,1.14-.84L922,262.4a.71.71,0,0,1-.57,1.13Z"/><circle class="cls-4" cx="910.62" cy="248.19" r="4.64"/><circle class="cls-4" cx="1111.35" cy="245.45" r="26.92"/><circle class="cls-4" cx="1111.35" cy="245.45" r="21.64"/><circle class="cls-4" cx="1111.35" cy="245.45" r="18.99"/><circle class="cls-4" cx="1111.35" cy="245.45" r="12.74"/><path class="cls-4" d="M1111.35,266.48a.79.79,0,0,1-.79-.79V225.3a.79.79,0,0,1,1.58,0v40.39A.79.79,0,0,1,1111.35,266.48Z"/><path class="cls-4" d="M1130.59,252.42a.78.78,0,0,1-.24,0l-38.48-12.27a.79.79,0,1,1,.48-1.5l38.48,12.27a.79.79,0,0,1-.24,1.54Z"/><path class="cls-4" d="M1092.11,252.42a.79.79,0,0,1-.24-1.54l38.48-12.27a.79.79,0,1,1,.48,1.5l-38.48,12.27A.78.78,0,0,1,1092.11,252.42Z"/><path class="cls-4" d="M1099.35,262.52a.79.79,0,0,1-.63-1.26l24-32.48a.79.79,0,0,1,1.27.94l-24,32.48A.79.79,0,0,1,1099.35,262.52Z"/><path class="cls-4" d="M1123.36,262.52a.79.79,0,0,1-.63-.32l-24-32.48a.79.79,0,0,1,1.27-.94l24,32.48a.79.79,0,0,1-.63,1.26Z"/><circle class="cls-4" cx="1111.35" cy="245.45" r="5.17"/><path class="cls-4" d="M875.18,212.86a10.92,10.92,0,0,0-4.6,11.15s9.66-.77,22.06-6.9l8.86-4.25-5.78-5.55-16.05,4.25Z"/><path class="cls-4" d="M863.61,257.48H884s-4.72-32.69,25.38-35.17,29.15,33.64,29.15,33.64h139.87s-3.54-39.66,32.93-39.66a31.63,31.63,0,0,1,28.68,17.6s3.19,5.1,3.19,18.54c0,0,9.68-.13,11.92-7.81l-2.12-29-1.53-2.83-.24-3.54s1.3-4.37-6.26-14.4l-8.14-11s-13.69-10.74-21.25-24.2c0,0,.94-1.42-3.78-1.65a85.56,85.56,0,0,1-13-1.3c-6.37-1.06-32.93-2.36-51.58-2.48s-32.46,1.42-54.77,6.37-50.4,18.18-50.4,18.18-16.17,7.79-25.73,13.57-21.36,10.39-29.27,13-12.28,6.37-11.92,7.55,5.55,1.53,11.27-.59,11.27-3.54,10.33-1.06-4.14,5.9-4.14,5.9a66.69,66.69,0,0,1-22.06,6.9s-7,7-7,14.34Z"/><path class="cls-4" d="M943.5,199.77s-4.58,26.86,0,50h128.43s-2.47-39,34.25-39c0,0,9-20.3-3.09-27.23"/><line class="cls-4" x1="1012.84" y1="249.77" x2="1012.84" y2="194.34"/><path class="cls-4" d="M1115.6,159.63l-.71,4.37s4.13,9.56,20.42,21.25l1.53-1.42S1122.92,172.73,1115.6,159.63Z"/><path class="cls-4" d="M1151.25,209.21s-22.07-7.67-24.79-12.75,10.39-12.63,10.39-12.63l10.06,13.67S1151.72,203.78,1151.25,209.21Z"/><path class="cls-4" d="M1139,186.69s-4.39,5.55-2.11,9.41,13.92,9,13.92,9a35.93,35.93,0,0,0-5-9.19Z"/><path class="cls-4" d="M1142.75,191.85a18.33,18.33,0,0,0-.24,8.94s-5.7-2.89-6.19-6,.89-5.52,2.63-8.07Z"/><line class="cls-4" x1="989.19" y1="204.13" x2="1005.95" y2="203.3"/><line class="cls-4" x1="1082.94" y1="195.76" x2="1099.7" y2="194.93"/><rect class="cls-4" x="1003.01" y="174.47" width="32.46" height="4.25" transform="translate(785.41 1184.24) rotate(-86.77)"/><rect class="cls-4" x="1076.5" y="172.63" width="17.55" height="4.25" transform="translate(849.57 1248.44) rotate(-86.77)"/><rect class="cls-4" x="940.38" y="187.41" width="17.55" height="4.25" transform="translate(706.36 1126.48) rotate(-86.77)"/><path class="cls-4" d="M1045.77,162a143.61,143.61,0,0,1,38.81,5,81.43,81.43,0,0,1,17.21,6.73l-1.91,5.89c-10.4,1.3-49.15,6.14-82.1,9.89-31.3,3.56-75.64,6.12-90.84,6.94a171.57,171.57,0,0,1,29.95-15.76l4.89-2c15.36-6.25,31.25-12.71,68.19-16,5.32-.47,10.63-.71,15.79-.71h0m0-4.25c-5.12,0-10.51.23-16.17.73C988,162.18,972.31,170,955.32,176.75s-36.51,18.88-36.51,21.4,3,2.83,3,2.83,57.76-2.83,96.47-7.24,84.82-10.23,84.82-10.23l3.78-11.65c-7.34-5-28.65-14.11-61.1-14.1Z"/><path class="cls-4" d="M1219,145.69h140c21.62,0,36.92,44,48.87,44h30.33c15.85,0,28.65,13.34,28.65,29.19v18.65c0,5.55-4.45,9.16-10,9.16h-276c-5.55,0-10-3.61-10-9.16v-43C1170.86,170.67,1202,145.69,1219,145.69Z"/><path class="cls-4" d="M1171,210.69s7.82-.19,7.82,6.65v3.84c0,4.38-4.55,5.51-7.82,5.51h-.18v-16Z"/><path class="cls-4" d="M1455.86,209.69V198.22a10.46,10.46,0,0,1,0-2.1,28.41,28.41,0,0,1,11,22.76v1a2.75,2.75,0,0,1-.91.12A10.13,10.13,0,0,1,1455.86,209.69Z"/><path class="cls-4" d="M1456.87,246.69h-276c-5.55,0-10-3.61-10-9.16v-3.84h296v3.84C1466.86,243.08,1462.41,246.69,1456.87,246.69Z"/><path class="cls-4" d="M1447.76,246.69c0-18-13-29.14-29.14-29.14s-29.14,11.14-29.14,29.14Z"/><circle class="cls-4" cx="1418.79" cy="249.03" r="22.83"/><circle class="cls-4" cx="1418.8" cy="249.03" r="15.34"/><path class="cls-4" d="M1257.22,246.69c0-18-13-29.14-29.14-29.14s-29.14,11.14-29.14,29.14Z"/><circle class="cls-4" cx="1228.26" cy="249.03" r="22.83"/><circle class="cls-4" cx="1228.26" cy="249.03" r="15.35"/><path class="cls-4" d="M1320.3,205.69c0,1.36,1,3,2.3,3h16.14c1.27,0,2.3-1.64,2.3-3h0c0-1.36-1-3-2.3-3H1322.6c-1.27,0-2.3,1.64-2.3,3Z"/><path class="cls-4" d="M1252.16,202.69h16.41a2.29,2.29,0,0,1,2.29,2.29v.41a2.3,2.3,0,0,1-2.3,2.3h-16.41a2.3,2.3,0,0,1-2.3-2.3V205A2.3,2.3,0,0,1,1252.16,202.69Z"/><path class="cls-4" d="M1388.86,185.72a5,5,0,0,0-5.11-4.71l-18.7-.11c-2.64,0-4.19,2.07-4.19,4.71v6.55c0,2.64,1.45,4.22,4.09,4.22l18.88.11c2.64,0,5-1.58,5-4.22Z"/><line class="cls-4" x1="1248.1" y1="189.99" x2="1232.14" y2="217.43"/><line class="cls-4" x1="1313.86" y1="191.99" x2="1313.86" y2="233.47"/><line class="cls-4" x1="1302.76" y1="191.99" x2="1327.67" y2="191.99"/><circle class="cls-4" cx="1228.26" cy="249.03" r="10.52"/><circle class="cls-4" cx="1228.26" cy="249.03" r="7.06"/><circle class="cls-4" cx="1418.61" cy="249.03" r="10.52"/><circle class="cls-4" cx="1418.61" cy="249.03" r="7.06"/><circle class="cls-4" cx="1228.26" cy="249.03" r="2.86"/><circle class="cls-4" cx="1418.61" cy="249.03" r="2.86"/><rect class="cls-4" x="1246.86" y="152.69" width="62" height="39" rx="6.89" ry="6.89"/><path class="cls-4" d="M1302,193.69h-48.23a8.9,8.9,0,0,1-8.89-8.89V159.58a8.9,8.9,0,0,1,8.89-8.89H1302a8.9,8.9,0,0,1,8.89,8.89V184.8A8.9,8.9,0,0,1,1302,193.69Zm-48.23-39a4.89,4.89,0,0,0-4.89,4.89V184.8a4.89,4.89,0,0,0,4.89,4.89H1302a4.89,4.89,0,0,0,4.89-4.89V159.58a4.89,4.89,0,0,0-4.89-4.89Z"/><path class="cls-4" d="M1180,184.82c-.85,3.71,3.08,6.87,6.89,6.87h45.91c3.8,0,6.11-2.3,6.11-6.1V160.34c0-3.8-2.3-7.65-6.11-7.65h-18.36C1200,152.69,1182.4,174.13,1180,184.82Z"/><path class="cls-4" d="M1232.76,193.69h-45.91a9.67,9.67,0,0,1-7.42-3.52,6.77,6.77,0,0,1-1.42-5.8h0c1.34-5.86,6.54-14.11,13.27-21,4.6-4.73,13.71-12.66,23.12-12.66h18.36c5.07,0,8.11,4.91,8.11,9.65v25.25C1240.86,190.51,1237.68,193.69,1232.76,193.69Zm-18.36-39c-5.79,0-13.17,4.17-20.25,11.45-6.15,6.33-11.07,14-12.24,19.12h0a2.78,2.78,0,0,0,.65,2.42,5.74,5.74,0,0,0,4.29,2h45.91c2.69,0,4.11-1.42,4.11-4.1V160.34c0-2.78-1.54-5.65-4.11-5.65Z"/><path class="cls-4" d="M1320.86,185.59c0,3.8,2.21,6.1,6,6.1h52.8a6.66,6.66,0,0,0,6.89-6.87c0-11.62-17.6-32.13-29.84-32.13h-29.84c-3.8,0-6,3.85-6,7.65Z"/><path class="cls-4" d="M1379.68,193.69h-52.8c-4.87,0-8-3.18-8-8.1V160.34c0-4.68,2.81-9.65,8-9.65h29.84c13.43,0,31.84,21.77,31.84,34.13A8.69,8.69,0,0,1,1379.68,193.69Zm-52.8-39c-2.51,0-4,2.87-4,5.65v25.25c0,2.72,1.35,4.1,4,4.1h52.8a4.67,4.67,0,0,0,4.89-4.87c0-10.37-16.64-30.13-27.84-30.13Z"/><path class="cls-4" d="M148.77,187.78s-50.45,1.43-67.21,2.81c-19.9,1.64-57.9,11-57.9,26.58,0,22.6,16.92,38.76,30.27,38.76,82.08,0,311-.7,311-.7s9.56,2,17.76-10.68,27.07-39,12.92-48.61c0,0-51.88-35.89-105.82-35.89,0,0-32.15-1.11-46.36-1.26C221.15,158.54,204.65,158.82,148.77,187.78Z"/><path class="cls-4" d="M387.19,190.65S382,193.32,382,207.34s14.36,14.42,14.36,14.42"/><path class="cls-4" d="M362.86,229.94c0-1.55.73-2.25,2.29-2.25h30.91a2.58,2.58,0,0,1,2.81,2.53L396.06,247a2.73,2.73,0,0,1-2.81,2.71h-28.1c-1.55,0-2.29-1.34-2.29-2.89Z"/><rect class="cls-4" x="126.86" y="246.69" width="163" height="9"/><ellipse class="cls-4" cx="50.24" cy="206.31" rx="20.67" ry="3.53" transform="translate(-62.22 26.2) rotate(-18.29)"/><path class="cls-4" d="M389.7,203.14a10.45,10.45,0,0,1,4.14-8.36c1.13.73,1.75,1.16,1.75,1.16,5.64,3.84,6,10.33,3.94,17.55A10.18,10.18,0,0,1,389.7,203.14Z"/><circle class="cls-4" cx="317.33" cy="239.92" r="35.01"/><circle class="cls-4" cx="317.33" cy="239.92" r="23.53"/><circle class="cls-4" cx="98.13" cy="239.92" r="35.01"/><circle class="cls-4" cx="98.13" cy="239.92" r="23.53"/><circle class="cls-4" cx="98.13" cy="239.92" r="5.71"/><rect class="cls-4" x="289.86" y="168.69" width="5" height="26"/><polygon class="cls-4" points="168.74 189.62 171.31 194.62 216.37 171.79 213.8 166.79 168.74 189.62"/><path class="cls-4" d="M251.07,170.69c59.16,0,71.16,6,75.64,8.38a.28.28,0,0,1,0,.06c-.1.32-1,1.4-3.75,2.47-1.1.42-2.21,1.13-3.36,1.58-9.17,3.67-20.57,8.5-44.14,8.5h-90c-1.34-1-11.9-1.13-23.13-3.61,14.06-7.14,25.18-12.55,34.4-15.92,20.22-.87,38.49-1.46,54.33-1.46h-.21m.21-4.93c-15.19,0-33.42.15-55.31,1.1-12,4.31-27,11.83-47,21.83h.1v.45h0v-.48h0v0h-.1c16,6,36.53,8,36.53,8h90.16c27.4,0,39-6.18,49.3-10.16s6.53-10.55,5-11.32c-4.61-2.39-15.07-9.44-78.72-9.44Z"/><path class="cls-4" d="M258.36,208.19a2.56,2.56,0,0,0,2.81,2.5h14.05a2.56,2.56,0,0,0,2.81-2.5h0a2.56,2.56,0,0,0-2.81-2.5H261.17a2.56,2.56,0,0,0-2.81,2.5Z"/><circle class="cls-4" cx="317.33" cy="239.92" r="13.62"/><path class="cls-4" d="M317.33,262.4a.84.84,0,0,1-.84-.84V218.37a.84.84,0,1,1,1.69,0v43.18A.84.84,0,0,1,317.33,262.4Z"/><path class="cls-4" d="M337.9,247.37a.83.83,0,0,1-.26,0L296.5,234.2a.84.84,0,1,1,.51-1.61l41.14,13.12a.84.84,0,0,1-.26,1.65Z"/><path class="cls-4" d="M296.76,247.37a.84.84,0,0,1-.26-1.65l41.14-13.12a.84.84,0,1,1,.51,1.61L297,247.33A.83.83,0,0,1,296.76,247.37Z"/><path class="cls-4" d="M304.49,258.17a.84.84,0,0,1-.68-1.34l25.67-34.72a.84.84,0,0,1,1.36,1l-25.67,34.72A.84.84,0,0,1,304.49,258.17Z"/><path class="cls-4" d="M330.16,258.17a.84.84,0,0,1-.68-.34L303.81,223.1a.84.84,0,0,1,1.36-1l25.67,34.72a.84.84,0,0,1-.68,1.34Z"/><circle class="cls-4" cx="317.33" cy="239.92" r="5.53"/><line class="cls-4" x1="303.7" y1="193.81" x2="304.53" y2="207.34"/><polyline class="cls-4" points="206.36 196.69 206.36 238.69 282.32 238.69"/><path class="cls-4" d="M206.36,238.69l-52.26-6.13s-.74-21.49-27.24-28.43"/><rect class="cls-4" x="203.97" y="184.41" width="67.57" height="27.94" transform="translate(-62.38 122.19) rotate(-25.6)"/><g class="cls-5"><path class="cls-6" d="M214.85,213.12a6.11,6.11,0,0,0,4.27-.34c.73-.35,1.68-1.2,1.19-2.22-.77-1.6-6.66.72-8.68-3.5-1.44-3,.56-6.12,3.4-7.48,3.58-1.72,6.05-.72,6.05-.72l-.69,3.71a6.24,6.24,0,0,0-3.78.48c-.75.36-1.69,1.28-1.24,2.22.81,1.68,6.67-.81,8.72,3.48,1.26,2.62-.1,5.92-3.39,7.5a8.57,8.57,0,0,1-6.8.58Z"/><path class="cls-6" d="M226.77,194.27l4.29-2.05,9.42,14.24-3.73,1.79-1.85-3-4.76,2.28v3.94l-4,1.91Zm6.39,8.08-1.72-2.82c-.55-.92-1.38-2.56-1.38-2.56l0,0s.18,2,.17,3.15l0,3.66Z"/><path class="cls-6" d="M237.84,189l3.73-1.79L245,200.35l6.23-3,.89,3.51-9.94,4.76Z"/><path class="cls-6" d="M249.79,183.24l9.54-4.57.91,3.5L254.42,185l.8,3,4.63-2.22.89,3.51-4.63,2.22.83,3.15,6.12-2.93.91,3.5-9.86,4.72Z"/></g><rect class="cls-4" x="948.16" y="188.19" width="67.57" height="27.94" transform="translate(9.03 444.08) rotate(-25.6)"/><g class="cls-5"><path class="cls-6" d="M959,216.9a6.11,6.11,0,0,0,4.27-.34c.73-.35,1.68-1.2,1.19-2.22-.77-1.6-6.66.72-8.68-3.5-1.44-3,.56-6.12,3.4-7.48,3.58-1.72,6.05-.72,6.05-.72l-.69,3.71a6.24,6.24,0,0,0-3.78.48c-.75.36-1.69,1.28-1.24,2.22.81,1.68,6.67-.81,8.72,3.48,1.26,2.62-.1,5.92-3.39,7.5a8.57,8.57,0,0,1-6.8.58Z"/><path class="cls-6" d="M971,198l4.29-2.05,9.42,14.24L980.93,212l-1.85-3-4.76,2.28v3.94l-4,1.91Zm6.39,8.08-1.72-2.82c-.55-.92-1.38-2.56-1.38-2.56l0,0s.18,2,.17,3.15l0,3.66Z"/><path class="cls-6" d="M982,192.74l3.73-1.79,3.43,13.18,6.23-3,.89,3.51-9.94,4.76Z"/><path class="cls-6" d="M994,187l9.54-4.57.91,3.5-5.82,2.79.8,3,4.63-2.22.89,3.51-4.63,2.22.83,3.15,6.12-2.93.91,3.5-9.86,4.72Z"/></g><rect class="cls-4" x="999.35" y="169.86" width="67.57" height="27.94" transform="translate(94.22 -284.79) rotate(16.44)"/><g class="cls-5"><path class="cls-6" d="M1006.24,179.44a6.11,6.11,0,0,0,3.4,2.61c.77.23,2.05.24,2.37-.85.5-1.7-5.43-3.92-4.1-8.41.94-3.2,4.51-4.17,7.53-3.28,3.81,1.12,5,3.52,5,3.52l-3,2.3a6.24,6.24,0,0,0-3.13-2.18c-.79-.23-2.12-.18-2.41.82-.53,1.79,5.49,3.86,4.15,8.42-.82,2.79-4,4.33-7.53,3.3a8.57,8.57,0,0,1-5.44-4.12Z"/><path class="cls-6" d="M1027.72,173.42l4.56,1.35-2.54,16.88-4-1.17.66-3.5-5.06-1.49-2.64,2.92-4.24-1.25Zm-.67,10.28.61-3.25c.21-1,.69-2.83.69-2.83h0s-1.18,1.58-2,2.45l-2.47,2.7Z"/><path class="cls-6" d="M1039.5,176.89l4,1.17-6.28,12.08,6.62,2-1.68,3.2-10.57-3.12Z"/><path class="cls-6" d="M1052.21,180.64l10.14,3-1.66,3.21-6.19-1.83-1.44,2.78,4.92,1.45-1.68,3.2-4.92-1.45-1.49,2.89,6.51,1.92-1.66,3.21-10.48-3.09Z"/></g><rect class="cls-4" x="282.32" y="176.52" width="50.73" height="34.58"/><g class="cls-1"><path class="cls-6" d="M289.73,197.33a7.38,7.38,0,0,0,4.26,1.84c.9,0,1.87-.35,1.87-1.42,0-2-8.09-2.17-8.09-7.52a5.41,5.41,0,0,1,4.76-5.3v-2.34h2.71v2.27a7.79,7.79,0,0,1,4.56,1.94l-1.84,3.56a6.79,6.79,0,0,0-3.93-1.57c-.9,0-1.89.4-1.89,1.39,0,2.12,8.09,2,8.09,7.47a5.47,5.47,0,0,1-5,5.43v2.27h-2.71v-2.27a9,9,0,0,1-5.08-2.44Z"/></g><g class="cls-1"><path class="cls-6" d="M303.48,197.33a7.38,7.38,0,0,0,4.26,1.84c.9,0,1.87-.35,1.87-1.42,0-2-8.09-2.17-8.09-7.52a5.41,5.41,0,0,1,4.76-5.3v-2.34H309v2.27a7.79,7.79,0,0,1,4.56,1.94l-1.84,3.56a6.79,6.79,0,0,0-3.93-1.57c-.9,0-1.89.4-1.89,1.39,0,2.12,8.09,2,8.09,7.47a5.47,5.47,0,0,1-5,5.43v2.27h-2.71v-2.27a9,9,0,0,1-5.08-2.44Z"/></g><g class="cls-1"><path class="cls-6" d="M318,197.33a7.38,7.38,0,0,0,4.26,1.84c.9,0,1.87-.35,1.87-1.42,0-2-8.09-2.17-8.09-7.52a5.41,5.41,0,0,1,4.76-5.3v-2.34h2.71v2.27a7.79,7.79,0,0,1,4.56,1.94l-1.84,3.56a6.79,6.79,0,0,0-3.93-1.57c-.9,0-1.89.4-1.89,1.39,0,2.12,8.09,2,8.09,7.47a5.47,5.47,0,0,1-5,5.43v2.27h-2.71v-2.27a9,9,0,0,1-5.08-2.44Z"/></g><rect class="cls-4" x="1236.52" y="161.74" width="50.73" height="34.58" transform="translate(-8.28 284.32) rotate(-12.81)"/><g class="cls-1"><path class="cls-6" d="M1245.16,186.45a7.38,7.38,0,0,0,4.56.85c.87-.2,1.74-.75,1.51-1.8-.44-1.94-8.37-.32-9.56-5.54a5.41,5.41,0,0,1,3.46-6.23l-.52-2.28,2.65-.6.5,2.21a7.79,7.79,0,0,1,4.87.88l-1,3.88a6.79,6.79,0,0,0-4.18-.66c-.87.2-1.76.81-1.54,1.78.47,2.06,8.33.12,9.55,5.49a5.47,5.47,0,0,1-3.65,6.4l.5,2.21-2.65.6-.5-2.21a9,9,0,0,1-5.49-1.25Z"/></g><g class="cls-1"><path class="cls-6" d="M1258.57,183.4a7.38,7.38,0,0,0,4.56.85c.87-.2,1.74-.75,1.51-1.8-.44-1.94-8.37-.32-9.56-5.54a5.41,5.41,0,0,1,3.46-6.23l-.52-2.28,2.65-.6.5,2.21a7.79,7.79,0,0,1,4.87.88l-1,3.88a6.79,6.79,0,0,0-4.18-.66c-.87.2-1.76.81-1.54,1.78.47,2.06,8.33.12,9.55,5.49a5.47,5.47,0,0,1-3.65,6.4l.5,2.21-2.65.6-.5-2.21a9,9,0,0,1-5.49-1.25Z"/></g><g class="cls-1"><path class="cls-6" d="M1272.71,180.19a7.38,7.38,0,0,0,4.56.85c.87-.2,1.74-.75,1.51-1.8-.44-1.94-8.37-.32-9.56-5.54a5.41,5.41,0,0,1,3.46-6.23l-.52-2.28,2.65-.6.5,2.21a7.79,7.79,0,0,1,4.87.88l-1,3.88a6.79,6.79,0,0,0-4.18-.66c-.87.2-1.76.81-1.54,1.78.47,2.06,8.33.12,9.55,5.49a5.47,5.47,0,0,1-3.65,6.4l.5,2.21-2.65.6-.5-2.21a9,9,0,0,1-5.49-1.25Z"/></g><rect class="cls-4" x="1285.5" y="174.4" width="50.73" height="34.58" transform="translate(135.39 -419.35) rotate(19.15)"/><g class="cls-1"><path class="cls-6" d="M1292.75,189.13a7.38,7.38,0,0,0,3.42,3.14c.85.29,1.88.28,2.23-.73.65-1.88-6.93-4.7-5.18-9.76a5.41,5.41,0,0,1,6.23-3.45l.77-2.21,2.56.89-.74,2.14a7.79,7.79,0,0,1,3.67,3.33l-2.91,2.76a6.79,6.79,0,0,0-3.2-2.77c-.85-.29-1.92-.24-2.25.7-.69,2,7,4.51,5.2,9.71a5.47,5.47,0,0,1-6.49,3.49l-.74,2.14-2.56-.89.74-2.14a9,9,0,0,1-4-4Z"/></g><g class="cls-1"><path class="cls-6" d="M1305.74,193.64a7.38,7.38,0,0,0,3.42,3.14c.85.29,1.88.28,2.23-.73.65-1.88-6.93-4.7-5.18-9.76a5.41,5.41,0,0,1,6.23-3.45l.77-2.21,2.56.89-.74,2.14a7.79,7.79,0,0,1,3.67,3.33l-2.91,2.76a6.79,6.79,0,0,0-3.2-2.77c-.85-.29-1.92-.24-2.25.7-.69,2,7,4.51,5.2,9.71a5.47,5.47,0,0,1-6.49,3.49l-.74,2.14-2.56-.89.74-2.14a9,9,0,0,1-4-4Z"/></g><g class="cls-1"><path class="cls-6" d="M1319.43,198.39a7.38,7.38,0,0,0,3.42,3.14c.85.29,1.88.28,2.23-.73.65-1.88-6.93-4.7-5.18-9.76a5.41,5.41,0,0,1,6.23-3.45l.77-2.21,2.56.89-.74,2.14a7.79,7.79,0,0,1,3.67,3.33l-2.91,2.76a6.79,6.79,0,0,0-3.2-2.77c-.85-.29-1.92-.24-2.25.7-.69,2,7,4.51,5.2,9.71a5.47,5.47,0,0,1-6.49,3.49l-.74,2.14-2.56-.89.74-2.14a9,9,0,0,1-4-4Z"/></g><polygon class="cls-4" points="1078.63 154.2 1027.9 154.2 1035.15 119.61 1085.88 119.61 1078.63 154.2"/><g class="cls-1"><path class="cls-6" d="M1038.31,140.43a7.38,7.38,0,0,0,4.26,1.84c.9,0,1.87-.35,1.87-1.42,0-2-8.09-2.17-8.09-7.52a5.41,5.41,0,0,1,4.76-5.3v-2.34h2.71V128a7.79,7.79,0,0,1,4.56,1.94l-1.84,3.56a6.79,6.79,0,0,0-3.93-1.57c-.9,0-1.89.4-1.89,1.39,0,2.12,8.09,2,8.09,7.47a5.47,5.47,0,0,1-5,5.43v2.27h-2.71v-2.27a9,9,0,0,1-5.08-2.44Z"/></g><g class="cls-1"><path class="cls-6" d="M1052.06,140.43a7.38,7.38,0,0,0,4.26,1.84c.9,0,1.87-.35,1.87-1.42,0-2-8.09-2.17-8.09-7.52a5.41,5.41,0,0,1,4.76-5.3v-2.34h2.71V128a7.79,7.79,0,0,1,4.56,1.94l-1.84,3.56a6.79,6.79,0,0,0-3.93-1.57c-.9,0-1.89.4-1.89,1.39,0,2.12,8.09,2,8.09,7.47a5.47,5.47,0,0,1-5,5.43v2.27h-2.71v-2.27a9,9,0,0,1-5.08-2.44Z"/></g><g class="cls-1"><path class="cls-6" d="M1066.56,140.43a7.38,7.38,0,0,0,4.26,1.84c.9,0,1.87-.35,1.87-1.42,0-2-8.09-2.17-8.09-7.52a5.41,5.41,0,0,1,4.76-5.3v-2.34h2.71V128a7.79,7.79,0,0,1,4.56,1.94l-1.84,3.56a6.79,6.79,0,0,0-3.93-1.57c-.9,0-1.89.4-1.89,1.39,0,2.12,8.09,2,8.09,7.47a5.47,5.47,0,0,1-5,5.43v2.27h-2.71v-2.27a9,9,0,0,1-5.08-2.44Z"/></g><line class="cls-4" x1="1085.88" y1="119.61" x2="1093.62" y2="156.18"/></g></g></svg>