<svg xmlns="http://www.w3.org/2000/svg" viewBox="0 0 701.3 140.68"><defs><style>.cls-1{isolation:isolate;}.cls-2{fill:#fff;}.cls-3{font-size:53px;fill:#e6e6e6;font-family:MuseoSans-500, MuseoSans 500;}.cls-4{letter-spacing:-0.07em;}.cls-5{letter-spacing:0em;}.cls-6{letter-spacing:-0.01em;}.cls-7{letter-spacing:0.02em;}.cls-8{letter-spacing:0em;}.cls-9{letter-spacing:0em;}.cls-10{font-size:30px;font-family:MuseoSans-900Italic, MuseoSans 900Italic;font-style:italic;}.cls-10,.cls-18{fill:#0080b1;}.cls-11,.cls-12,.cls-15{fill:none;}.cls-11,.cls-12,.cls-14{stroke:#fff;}.cls-11,.cls-12,.cls-14,.cls-15{stroke-miterlimit:10;}.cls-11{stroke-width:4px;}.cls-13{fill:#bf3019;opacity:0.49;mix-blend-mode:multiply;}.cls-14,.cls-16{fill:#e6e7e8;}.cls-14{stroke-width:4.41px;}.cls-15{stroke:#767676;stroke-width:1.15px;}.cls-17{fill:#6ad1f7;}</style></defs><title>digital-marketing-roi-title</title><g class="cls-1"><g id="Layer_2" data-name="Layer 2"><g id="Layer_1-2" data-name="Layer 1"><rect class="cls-2" x="152.96" y="29.3" width="201.74" height="38.4"/><text class="cls-3" transform="translate(159.49 116.61)">DIGI<tspan class="cls-4" x="94.87" y="0">T</tspan><tspan class="cls-5" x="117.23" y="0">AL </tspan><tspan class="cls-6" x="185.92" y="0">M</tspan><tspan x="228" y="0">ARK</tspan><tspan class="cls-7" x="317.68" y="0">E</tspan><tspan x="344.6" y="0">TING </tspan><tspan class="cls-8" x="463.96" y="0">R</tspan><tspan class="cls-9" x="492.63" y="0">OI</tspan></text><text class="cls-10" transform="translate(188.95 60.05)">MEASURING</text><text></text><circle class="cls-11" cx="70.34" cy="70.34" r="62.88"/><polyline class="cls-12" points="13.55 0.5 0.5 0.5 0.5 13.55"/><polyline class="cls-12" points="127.13 140.18 140.18 140.18 140.18 127.13"/><circle class="cls-13" cx="70.34" cy="70.34" r="47.98"/><rect class="cls-14" x="21.77" y="83.91" width="97.14" height="15.27"/><line class="cls-15" x1="31.08" y1="81.61" x2="31.08" y2="90.91"/><line class="cls-15" x1="42.3" y1="81.61" x2="42.3" y2="90.91"/><line class="cls-15" x1="53.51" y1="81.61" x2="53.51" y2="90.91"/><line class="cls-15" x1="64.73" y1="81.61" x2="64.73" y2="90.91"/><line class="cls-15" x1="75.95" y1="81.61" x2="75.95" y2="90.91"/><line class="cls-15" x1="87.16" y1="81.61" x2="87.16" y2="90.91"/><line class="cls-15" x1="98.38" y1="81.61" x2="98.38" y2="90.91"/><line class="cls-15" x1="109.6" y1="81.61" x2="109.6" y2="90.91"/><path class="cls-16" d="M102.5,38l1.17,1.43c-.34.28-.7.53-1,.81l1,1.28c-.34.28-.7.53-1,.81l1,1.28A73.53,73.53,0,0,1,63.29,60h40.5v17H40.45V60H50.91a73.79,73.79,0,0,1-10.3-1.58c.14-.6-.14-1.2,0-1.8A72,72,0,0,0,56.73,58.4,72.67,72.67,0,0,0,89,50.82a73.3,73.3,0,0,1-32,7.34,73.56,73.56,0,0,1-16.46-1.87c.14-.6-.14-1.2,0-1.8a72,72,0,0,0,16.11,1.82A72.67,72.67,0,0,0,89,48.73a73.31,73.31,0,0,1-32,7.34A73.56,73.56,0,0,1,40.61,54.2c.14-.6-.14-1.2,0-1.8a72.12,72.12,0,0,0,16.14,1.83A72.36,72.36,0,0,0,102.5,38m0-3a3,3,0,0,0-1.9.68A69.43,69.43,0,0,1,56.75,51.23a69.23,69.23,0,0,1-15.46-1.75,3,3,0,0,0-3.6,2.25,5.45,5.45,0,0,0-.06,1.91v.11a3,3,0,0,0,0,.48,5.9,5.9,0,0,0,0,1.49v.11a3,3,0,0,0,0,.48,5.9,5.9,0,0,0,0,1.49v.11a3,3,0,0,0,0,.93A3,3,0,0,0,37.45,60v17a3,3,0,0,0,3,3h63.35a3,3,0,0,0,3-3V60a3,3,0,0,0-3-3H87.41a76.82,76.82,0,0,0,18.15-11.07,3,3,0,0,0,.91-3.36,3,3,0,0,0,0-2.08A3,3,0,0,0,106,37.5l-.4-.49-.77-.94A3,3,0,0,0,102.5,35Z"/><rect class="cls-17" x="40.45" y="59.95" width="63.35" height="16.97"/><rect class="cls-18" x="40.45" y="75.07" width="63.35" height="1.84"/><rect class="cls-18" x="40.45" y="71.29" width="63.35" height="1.84"/><rect class="cls-18" x="40.45" y="67.51" width="63.35" height="1.84"/><rect class="cls-18" x="40.45" y="63.73" width="63.35" height="1.84"/><rect class="cls-18" x="40.45" y="59.95" width="63.35" height="1.84"/><path class="cls-18" d="M103.67,43.56A73.41,73.41,0,0,1,40.61,58.37c.14-.6-.14-1.2,0-1.8A72.43,72.43,0,0,0,102.5,42.14Z"/><path class="cls-17" d="M103.67,41.48A73.41,73.41,0,0,1,40.61,56.29c.14-.6-.14-1.2,0-1.8A72.43,72.43,0,0,0,102.5,40.05Z"/><path class="cls-18" d="M103.67,39.4A73.41,73.41,0,0,1,40.61,54.2c.14-.6-.14-1.2,0-1.8A72.43,72.43,0,0,0,102.5,38Z"/><path class="cls-18" d="M68.66,49a2,2,0,0,1-1.41-.59L55.87,37.07a2,2,0,0,1,1.41-3.41h3.48V21.07a2,2,0,0,1,2-2H74.55a2,2,0,0,1,2,2V33.65H80a2,2,0,0,1,1.41,3.41L70.07,48.44A2,2,0,0,1,68.66,49Z"/><path class="cls-2" d="M74.55,21.07V35.65H80L68.66,47,57.29,35.65h5.48V21.07H74.55M80,35.65h0M74.55,17.07H62.77a4,4,0,0,0-4,4V31.65H57.29a4,4,0,0,0-2.83,6.83L65.83,49.85a4,4,0,0,0,5.66,0L82.79,38.54A4,4,0,0,0,80,31.65H78.55V21.07a4,4,0,0,0-4-4Z"/></g></g></g></svg>