<svg xmlns="http://www.w3.org/2000/svg" xmlns:xlink="http://www.w3.org/1999/xlink" viewBox="0 0 1283.09 944.35"><defs><style>.cls-1{isolation:isolate;}.cls-2{fill:url(#Degradado_sin_nombre_2);}.cls-3{opacity:0.2;mix-blend-mode:multiply;}.cls-4{fill:#007cc0;}.cls-5{fill:#fff;}</style><linearGradient id="Degradado_sin_nombre_2" x1="643.09" y1="942.35" x2="643.09" y2="-21.05" gradientUnits="userSpaceOnUse"><stop offset="0" stop-color="#2f9622"/><stop offset="0.39" stop-color="#2e9421"/><stop offset="0.61" stop-color="#2b8c1f"/><stop offset="0.78" stop-color="#267e1a"/><stop offset="0.93" stop-color="#1e6b14"/><stop offset="1" stop-color="#195e10"/></linearGradient></defs><title>green-building-bg_1</title><g class="cls-1"><g id="Layer_2" data-name="Layer 2"><g id="Capa_2" data-name="Capa 2"><rect class="cls-2" x="3.09" width="1280" height="944.35"/></g><g id="Layer_1-2" data-name="Layer 1"><g class="cls-3"><rect class="cls-4" x="767.07" y="612.48" width="84.85" height="68.38"/><rect class="cls-4" x="735.08" y="617.8" width="36.6" height="63.06"/><rect class="cls-4" x="736.61" y="613.6" width="26.63" height="10.43"/><rect class="cls-4" x="741.38" y="609.51" width="16.47" height="7.16"/><rect class="cls-4" x="748.3" y="606.95" width="5.08" height="3.89"/><rect class="cls-4" x="779.67" y="544.43" width="36.6" height="136.43"/><rect class="cls-4" x="782.11" y="525.95" width="31.72" height="29.87"/><rect class="cls-4" x="784.25" y="521.04" width="27.45" height="14.93"/><rect class="cls-4" x="786.43" y="509.99" width="23.08" height="23.22"/><rect class="cls-4" x="790.35" y="504.26" width="15.25" height="11.05"/><rect class="cls-5" x="786.08" y="530.65" width="10.27" height="5.32"/><rect class="cls-5" x="799.6" y="530.65" width="10.27" height="5.32"/><rect class="cls-5" x="786.08" y="540.88" width="10.27" height="5.32"/><rect class="cls-5" x="799.6" y="540.88" width="10.27" height="5.32"/><rect class="cls-5" x="786.08" y="551.11" width="10.27" height="5.32"/><rect class="cls-5" x="799.6" y="551.11" width="10.27" height="5.32"/><rect class="cls-5" x="786.08" y="561.34" width="10.27" height="5.32"/><rect class="cls-5" x="799.6" y="561.34" width="10.27" height="5.32"/><rect class="cls-5" x="786.08" y="571.56" width="10.27" height="5.32"/><rect class="cls-5" x="799.6" y="571.56" width="10.27" height="5.32"/><rect class="cls-5" x="786.08" y="581.79" width="10.27" height="5.32"/><rect class="cls-5" x="799.6" y="581.79" width="10.27" height="5.32"/><rect class="cls-5" x="786.08" y="592.02" width="10.27" height="5.32"/><rect class="cls-5" x="799.6" y="592.02" width="10.27" height="5.32"/><rect class="cls-5" x="786.08" y="602.25" width="10.27" height="5.32"/><rect class="cls-5" x="799.6" y="602.25" width="10.27" height="5.32"/><rect class="cls-5" x="786.08" y="612.48" width="10.27" height="5.32"/><rect class="cls-5" x="799.6" y="612.48" width="10.27" height="5.32"/><rect class="cls-5" x="786.08" y="622.71" width="10.27" height="5.32"/><rect class="cls-5" x="799.6" y="622.71" width="10.27" height="5.32"/><rect class="cls-4" x="1072.62" y="612.48" width="84.85" height="68.38"/><rect class="cls-4" x="1040.64" y="617.8" width="36.6" height="63.06"/><rect class="cls-4" x="1042.16" y="613.6" width="26.63" height="10.43"/><rect class="cls-4" x="1046.94" y="609.51" width="16.47" height="7.16"/><rect class="cls-4" x="1053.85" y="606.95" width="5.08" height="3.89"/><rect class="cls-4" x="1085.23" y="544.43" width="36.6" height="136.43"/><rect class="cls-4" x="1087.67" y="525.95" width="31.72" height="29.87"/><rect class="cls-4" x="1089.8" y="521.04" width="27.45" height="14.93"/><rect class="cls-4" x="1091.99" y="509.99" width="23.08" height="23.22"/><rect class="cls-4" x="1095.9" y="504.26" width="15.25" height="11.05"/><rect class="cls-4" x="1099.05" y="476.65" width="8.95" height="35.8"/><rect class="cls-4" x="1101.8" y="433.38" width="3.46" height="46.84"/><rect class="cls-4" x="1099.05" y="471.43" width="8.95" height="1.94"/><rect class="cls-5" x="1091.63" y="530.65" width="10.27" height="5.32"/><rect class="cls-5" x="1105.15" y="530.65" width="10.27" height="5.32"/><rect class="cls-5" x="1091.63" y="540.88" width="10.27" height="5.32"/><rect class="cls-5" x="1105.15" y="540.88" width="10.27" height="5.32"/><rect class="cls-5" x="1091.63" y="551.11" width="10.27" height="5.32"/><rect class="cls-5" x="1105.15" y="551.11" width="10.27" height="5.32"/><rect class="cls-5" x="1091.63" y="561.34" width="10.27" height="5.32"/><rect class="cls-5" x="1105.15" y="561.34" width="10.27" height="5.32"/><rect class="cls-5" x="1091.63" y="571.56" width="10.27" height="5.32"/><rect class="cls-5" x="1105.15" y="571.56" width="10.27" height="5.32"/><rect class="cls-5" x="1091.63" y="581.79" width="10.27" height="5.32"/><rect class="cls-5" x="1105.15" y="581.79" width="10.27" height="5.32"/><rect class="cls-5" x="1091.63" y="592.02" width="10.27" height="5.32"/><rect class="cls-5" x="1105.15" y="592.02" width="10.27" height="5.32"/><rect class="cls-5" x="1091.63" y="602.25" width="10.27" height="5.32"/><rect class="cls-5" x="1105.15" y="602.25" width="10.27" height="5.32"/><rect class="cls-5" x="1091.63" y="612.48" width="10.27" height="5.32"/><rect class="cls-5" x="1105.15" y="612.48" width="10.27" height="5.32"/><rect class="cls-5" x="1091.63" y="622.71" width="10.27" height="5.32"/><rect class="cls-5" x="1105.15" y="622.71" width="10.27" height="5.32"/><rect class="cls-4" x="1193.8" y="548.79" width="40.93" height="132.07"/><rect class="cls-4" x="1201.39" y="546.2" width="31.17" height="9.61"/><rect class="cls-4" x="1212.5" y="543.54" width="15.72" height="7.47"/><rect class="cls-5" x="1202.37" y="558.88" width="10.27" height="5.32"/><rect class="cls-5" x="1215.89" y="558.88" width="10.27" height="5.32"/><rect class="cls-5" x="1202.37" y="569.11" width="10.27" height="5.32"/><rect class="cls-5" x="1215.89" y="569.11" width="10.27" height="5.32"/><rect class="cls-5" x="1202.37" y="579.34" width="10.27" height="5.32"/><rect class="cls-5" x="1215.89" y="579.34" width="10.27" height="5.32"/><rect class="cls-5" x="1202.37" y="589.57" width="10.27" height="5.32"/><rect class="cls-5" x="1215.89" y="589.57" width="10.27" height="5.32"/><rect class="cls-4" x="1168.86" y="617.8" width="36.6" height="63.06"/><rect class="cls-4" x="1170.38" y="613.6" width="26.63" height="10.43"/><rect class="cls-4" x="1175.16" y="609.51" width="16.47" height="7.16"/><rect class="cls-4" x="1182.07" y="606.95" width="5.08" height="3.89"/><rect class="cls-4" x="1131.04" y="596.52" width="34.46" height="84.34"/><rect class="cls-4" x="1138.87" y="591.51" width="26.63" height="12.27"/><rect class="cls-4" x="1135.01" y="587.11" width="4.98" height="14.11"/><rect class="cls-4" x="1141.61" y="587.11" width="20.53" height="7.57"/><rect class="cls-4" x="930.68" y="642.55" width="246.51" height="38.31"/><rect class="cls-4" x="1122.91" y="616.67" width="12.1" height="2.97"/><rect class="cls-4" x="1125.14" y="618.15" width="7.52" height="48.79"/><rect class="cls-4" x="1122.91" y="625.36" width="14.59" height="48.54"/><rect class="cls-4" x="930.68" y="596.52" width="34.46" height="84.34"/><rect class="cls-4" x="938.51" y="591.51" width="26.63" height="12.27"/><rect class="cls-4" x="934.64" y="587.11" width="4.98" height="14.11"/><rect class="cls-4" x="941.25" y="587.11" width="20.53" height="7.57"/><rect class="cls-4" x="1028.93" y="642.55" width="246.51" height="38.31"/><rect class="cls-4" x="1248.35" y="596.52" width="34.46" height="84.34"/><rect class="cls-4" x="1256.17" y="591.51" width="26.63" height="12.27"/><rect class="cls-4" x="1252.31" y="587.11" width="4.98" height="14.11"/><rect class="cls-4" x="1258.92" y="587.11" width="20.53" height="7.57"/><rect class="cls-4" x="971.46" y="512.45" width="37" height="168.41"/><rect class="cls-5" x="978.07" y="522.47" width="10.27" height="5.32"/><rect class="cls-5" x="991.59" y="522.47" width="10.27" height="5.32"/><rect class="cls-5" x="978.07" y="532.7" width="10.27" height="5.32"/><rect class="cls-5" x="991.59" y="532.7" width="10.27" height="5.32"/><rect class="cls-5" x="978.07" y="542.93" width="10.27" height="5.32"/><rect class="cls-5" x="991.59" y="542.93" width="10.27" height="5.32"/><rect class="cls-5" x="978.07" y="553.15" width="10.27" height="5.32"/><rect class="cls-5" x="991.59" y="553.15" width="10.27" height="5.32"/><rect class="cls-5" x="978.07" y="563.38" width="10.27" height="5.32"/><rect class="cls-5" x="991.59" y="563.38" width="10.27" height="5.32"/><rect class="cls-5" x="978.07" y="573.61" width="10.27" height="5.32"/><rect class="cls-5" x="991.59" y="573.61" width="10.27" height="5.32"/><rect class="cls-5" x="978.07" y="583.84" width="10.27" height="5.32"/><rect class="cls-5" x="991.59" y="583.84" width="10.27" height="5.32"/><rect class="cls-5" x="978.07" y="594.07" width="10.27" height="5.32"/><rect class="cls-5" x="991.59" y="594.07" width="10.27" height="5.32"/><rect class="cls-5" x="978.07" y="604.29" width="10.27" height="5.32"/><rect class="cls-5" x="991.59" y="604.29" width="10.27" height="5.32"/><rect class="cls-5" x="978.07" y="614.52" width="10.27" height="5.32"/><rect class="cls-5" x="991.59" y="614.52" width="10.27" height="5.32"/><rect class="cls-4" x="974.37" y="509.65" width="30.7" height="7.3"/><rect class="cls-4" x="979.8" y="499.56" width="25.01" height="15.34"/><rect class="cls-4" x="983.73" y="497.85" width="21.08" height="3.95"/><rect class="cls-4" x="1006.16" y="561.34" width="5.15" height="119.52"/><rect class="cls-4" x="1009.95" y="545.29" width="49.61" height="135.57"/><rect class="cls-4" x="1013.75" y="538.63" width="23.45" height="13.84"/><rect class="cls-4" x="1043.43" y="536.86" width="8.23" height="12.64"/><rect class="cls-4" x="1052.7" y="542.5" width="4.56" height="7"/><rect class="cls-4" x="888.24" y="548.79" width="40.93" height="132.07"/><rect class="cls-4" x="895.83" y="546.2" width="31.17" height="9.61"/><rect class="cls-4" x="906.95" y="543.54" width="15.72" height="7.47"/><rect class="cls-5" x="896.81" y="558.88" width="10.27" height="5.32"/><rect class="cls-5" x="910.33" y="558.88" width="10.27" height="5.32"/><rect class="cls-5" x="896.81" y="569.11" width="10.27" height="5.32"/><rect class="cls-5" x="910.33" y="569.11" width="10.27" height="5.32"/><rect class="cls-5" x="896.81" y="579.34" width="10.27" height="5.32"/><rect class="cls-5" x="910.33" y="579.34" width="10.27" height="5.32"/><rect class="cls-5" x="896.81" y="589.57" width="10.27" height="5.32"/><rect class="cls-5" x="910.33" y="589.57" width="10.27" height="5.32"/><rect class="cls-4" x="863.3" y="617.8" width="36.6" height="63.06"/><rect class="cls-4" x="864.83" y="613.6" width="26.63" height="10.43"/><rect class="cls-4" x="869.61" y="609.51" width="16.47" height="7.16"/><rect class="cls-4" x="876.52" y="606.95" width="5.08" height="3.89"/><rect class="cls-4" x="825.49" y="596.52" width="34.46" height="84.34"/><rect class="cls-4" x="833.31" y="591.51" width="26.63" height="12.27"/><rect class="cls-4" x="829.45" y="587.11" width="4.98" height="14.11"/><rect class="cls-4" x="836.06" y="587.11" width="20.53" height="7.57"/><rect class="cls-4" x="741.38" y="642.55" width="130.25" height="38.31"/><rect class="cls-4" x="817.35" y="616.67" width="12.1" height="2.97"/><rect class="cls-4" x="819.59" y="618.15" width="7.52" height="48.79"/><rect class="cls-4" x="817.35" y="625.36" width="14.59" height="48.54"/></g><g class="cls-3"><rect class="cls-4" x="433.55" y="625.79" width="85.37" height="68.38" transform="translate(952.46 1319.96) rotate(-180)"/><rect class="cls-4" x="514.28" y="631.11" width="36.82" height="63.06" transform="translate(1065.38 1325.27) rotate(-180)"/><rect class="cls-4" x="522.77" y="626.91" width="26.8" height="10.43" transform="translate(1072.34 1264.26) rotate(-180)"/><rect class="cls-4" x="528.19" y="622.82" width="16.57" height="7.16" transform="translate(1072.95 1252.8) rotate(-180)"/><rect class="cls-4" x="532.69" y="620.26" width="5.11" height="3.89" transform="translate(1070.49 1244.42) rotate(-180)"/><rect class="cls-4" x="469.41" y="557.74" width="36.82" height="136.43" transform="translate(975.65 1251.9) rotate(-180)"/><rect class="cls-4" x="471.87" y="539.26" width="31.91" height="29.87" transform="translate(975.65 1108.38) rotate(-180)"/><rect class="cls-4" x="474.01" y="534.35" width="27.62" height="14.93" transform="translate(975.65 1083.63) rotate(-180)"/><rect class="cls-4" x="476.21" y="523.3" width="23.22" height="23.22" transform="translate(975.65 1069.82) rotate(-180)"/><rect class="cls-4" x="480.15" y="517.57" width="15.34" height="11.05" transform="translate(975.65 1046.2) rotate(-180)"/><rect class="cls-5" x="489.46" y="543.96" width="10.33" height="5.32" transform="translate(989.25 1093.24) rotate(-180)"/><rect class="cls-5" x="475.86" y="543.96" width="10.33" height="5.32" transform="translate(962.04 1093.24) rotate(-180)"/><rect class="cls-5" x="489.46" y="554.19" width="10.33" height="5.32" transform="translate(989.25 1113.7) rotate(-180)"/><rect class="cls-5" x="475.86" y="554.19" width="10.33" height="5.32" transform="translate(962.04 1113.7) rotate(-180)"/><rect class="cls-5" x="489.46" y="564.42" width="10.33" height="5.32" transform="translate(989.25 1134.16) rotate(-180)"/><rect class="cls-5" x="475.86" y="564.42" width="10.33" height="5.32" transform="translate(962.04 1134.16) rotate(-180)"/><rect class="cls-5" x="489.46" y="574.65" width="10.33" height="5.32" transform="translate(989.25 1154.61) rotate(-180)"/><rect class="cls-5" x="475.86" y="574.65" width="10.33" height="5.32" transform="translate(962.04 1154.61) rotate(-180)"/><rect class="cls-5" x="489.46" y="584.88" width="10.33" height="5.32" transform="translate(989.25 1175.07) rotate(-180)"/><rect class="cls-5" x="475.86" y="584.88" width="10.33" height="5.32" transform="translate(962.04 1175.07) rotate(-180)"/><rect class="cls-5" x="489.46" y="595.1" width="10.33" height="5.32" transform="translate(989.25 1195.53) rotate(-180)"/><rect class="cls-5" x="475.86" y="595.1" width="10.33" height="5.32" transform="translate(962.04 1195.53) rotate(-180)"/><rect class="cls-5" x="489.46" y="605.33" width="10.33" height="5.32" transform="translate(989.25 1215.98) rotate(-180)"/><rect class="cls-5" x="475.86" y="605.33" width="10.33" height="5.32" transform="translate(962.04 1215.98) rotate(-180)"/><rect class="cls-5" x="489.46" y="615.56" width="10.33" height="5.32" transform="translate(989.25 1236.44) rotate(-180)"/><rect class="cls-5" x="475.86" y="615.56" width="10.33" height="5.32" transform="translate(962.04 1236.44) rotate(-180)"/><rect class="cls-5" x="489.46" y="625.79" width="10.33" height="5.32" transform="translate(989.25 1256.89) rotate(-180)"/><rect class="cls-5" x="475.86" y="625.79" width="10.33" height="5.32" transform="translate(962.04 1256.89) rotate(-180)"/><rect class="cls-5" x="489.46" y="636.02" width="10.33" height="5.32" transform="translate(989.25 1277.35) rotate(-180)"/><rect class="cls-5" x="475.86" y="636.02" width="10.33" height="5.32" transform="translate(962.04 1277.35) rotate(-180)"/><rect class="cls-4" x="126.11" y="625.79" width="85.37" height="68.38" transform="translate(337.59 1319.96) rotate(-180)"/><rect class="cls-4" x="206.84" y="631.11" width="36.82" height="63.06" transform="translate(450.51 1325.27) rotate(-180)"/><rect class="cls-4" x="215.33" y="626.91" width="26.8" height="10.43" transform="translate(457.46 1264.26) rotate(-180)"/><rect class="cls-4" x="220.75" y="622.82" width="16.57" height="7.16" transform="translate(458.07 1252.8) rotate(-180)"/><rect class="cls-4" x="225.25" y="620.26" width="5.11" height="3.89" transform="translate(455.62 1244.42) rotate(-180)"/><rect class="cls-4" x="161.97" y="557.74" width="36.82" height="136.43" transform="translate(360.77 1251.9) rotate(-180)"/><rect class="cls-4" x="164.43" y="539.26" width="31.91" height="29.87" transform="translate(360.77 1108.38) rotate(-180)"/><rect class="cls-4" x="166.58" y="534.35" width="27.62" height="14.93" transform="translate(360.77 1083.63) rotate(-180)"/><rect class="cls-4" x="168.78" y="523.3" width="23.22" height="23.22" transform="translate(360.77 1069.82) rotate(-180)"/><rect class="cls-4" x="172.71" y="517.57" width="15.34" height="11.05" transform="translate(360.77 1046.2) rotate(-180)"/><rect class="cls-4" x="175.89" y="489.96" width="9" height="35.8" transform="translate(360.77 1015.72) rotate(-180)"/><rect class="cls-4" x="178.65" y="446.69" width="3.48" height="46.84" transform="translate(360.77 940.23) rotate(-180)"/><rect class="cls-4" x="175.89" y="484.74" width="9" height="1.94" transform="translate(360.77 971.43) rotate(-180)"/><rect class="cls-5" x="182.02" y="543.96" width="10.33" height="5.32" transform="translate(374.37 1093.24) rotate(-180)"/><rect class="cls-5" x="168.42" y="543.96" width="10.33" height="5.32" transform="translate(347.17 1093.24) rotate(-180)"/><rect class="cls-5" x="182.02" y="554.19" width="10.33" height="5.32" transform="translate(374.37 1113.7) rotate(-180)"/><rect class="cls-5" x="168.42" y="554.19" width="10.33" height="5.32" transform="translate(347.17 1113.7) rotate(-180)"/><rect class="cls-5" x="182.02" y="564.42" width="10.33" height="5.32" transform="translate(374.37 1134.16) rotate(-180)"/><rect class="cls-5" x="168.42" y="564.42" width="10.33" height="5.32" transform="translate(347.17 1134.16) rotate(-180)"/><rect class="cls-5" x="182.02" y="574.65" width="10.33" height="5.32" transform="translate(374.37 1154.61) rotate(-180)"/><rect class="cls-5" x="168.42" y="574.65" width="10.33" height="5.32" transform="translate(347.17 1154.61) rotate(-180)"/><rect class="cls-5" x="182.02" y="584.88" width="10.33" height="5.32" transform="translate(374.37 1175.07) rotate(-180)"/><rect class="cls-5" x="168.42" y="584.88" width="10.33" height="5.32" transform="translate(347.17 1175.07) rotate(-180)"/><rect class="cls-5" x="182.02" y="595.1" width="10.33" height="5.32" transform="translate(374.37 1195.53) rotate(-180)"/><rect class="cls-5" x="168.42" y="595.1" width="10.33" height="5.32" transform="translate(347.17 1195.53) rotate(-180)"/><rect class="cls-5" x="182.02" y="605.33" width="10.33" height="5.32" transform="translate(374.37 1215.98) rotate(-180)"/><rect class="cls-5" x="168.42" y="605.33" width="10.33" height="5.32" transform="translate(347.17 1215.98) rotate(-180)"/><rect class="cls-5" x="182.02" y="615.56" width="10.33" height="5.32" transform="translate(374.37 1236.44) rotate(-180)"/><rect class="cls-5" x="168.42" y="615.56" width="10.33" height="5.32" transform="translate(347.17 1236.44) rotate(-180)"/><rect class="cls-5" x="182.02" y="625.79" width="10.33" height="5.32" transform="translate(374.37 1256.89) rotate(-180)"/><rect class="cls-5" x="168.42" y="625.79" width="10.33" height="5.32" transform="translate(347.17 1256.89) rotate(-180)"/><rect class="cls-5" x="182.02" y="636.02" width="10.33" height="5.32" transform="translate(374.37 1277.35) rotate(-180)"/><rect class="cls-5" x="168.42" y="636.02" width="10.33" height="5.32" transform="translate(347.17 1277.35) rotate(-180)"/><rect class="cls-4" x="48.37" y="562.1" width="41.19" height="132.07" transform="translate(137.93 1256.27) rotate(-180)"/><rect class="cls-4" x="50.56" y="559.51" width="31.37" height="9.61" transform="translate(132.48 1128.63) rotate(-180)"/><rect class="cls-4" x="54.92" y="556.85" width="15.82" height="7.47" transform="translate(125.66 1121.17) rotate(-180)"/><rect class="cls-5" x="70.6" y="572.19" width="10.33" height="5.32" transform="translate(151.54 1149.7) rotate(-180)"/><rect class="cls-5" x="57" y="572.19" width="10.33" height="5.32" transform="translate(124.33 1149.7) rotate(-180)"/><rect class="cls-5" x="70.6" y="582.42" width="10.33" height="5.32" transform="translate(151.54 1170.16) rotate(-180)"/><rect class="cls-5" x="57" y="582.42" width="10.33" height="5.32" transform="translate(124.33 1170.16) rotate(-180)"/><rect class="cls-5" x="70.6" y="592.65" width="10.33" height="5.32" transform="translate(151.54 1190.62) rotate(-180)"/><rect class="cls-5" x="57" y="592.65" width="10.33" height="5.32" transform="translate(124.33 1190.62) rotate(-180)"/><rect class="cls-5" x="70.6" y="602.88" width="10.33" height="5.32" transform="translate(151.54 1211.07) rotate(-180)"/><rect class="cls-5" x="57" y="602.88" width="10.33" height="5.32" transform="translate(124.33 1211.07) rotate(-180)"/><rect class="cls-4" x="77.83" y="631.11" width="36.82" height="63.06" transform="translate(192.48 1325.27) rotate(-180)"/><rect class="cls-4" x="86.32" y="626.91" width="26.8" height="10.43" transform="translate(199.44 1264.26) rotate(-180)"/><rect class="cls-4" x="91.74" y="622.82" width="16.57" height="7.16" transform="translate(200.05 1252.8) rotate(-180)"/><rect class="cls-4" x="96.24" y="620.26" width="5.11" height="3.89" transform="translate(197.6 1244.42) rotate(-180)"/><rect class="cls-4" x="118.03" y="609.83" width="34.67" height="84.34" transform="translate(270.73 1304) rotate(-180)"/><rect class="cls-4" x="118.03" y="604.82" width="26.8" height="12.27" transform="translate(262.85 1221.91) rotate(-180)"/><rect class="cls-4" x="143.7" y="600.42" width="5.01" height="14.11" transform="translate(292.41 1214.96) rotate(-180)"/><rect class="cls-4" x="121.4" y="600.42" width="20.66" height="7.57" transform="translate(263.47 1208.41) rotate(-180)"/><rect class="cls-4" x="106.27" y="655.86" width="248.03" height="38.31" transform="translate(460.56 1350.03) rotate(-180)"/><rect class="cls-4" x="148.71" y="629.98" width="12.17" height="2.97" transform="translate(309.6 1262.93) rotate(-180)"/><rect class="cls-4" x="151.07" y="631.46" width="7.57" height="48.79" transform="translate(309.7 1311.72) rotate(-180)"/><rect class="cls-4" x="146.21" y="638.68" width="14.68" height="48.54" transform="translate(307.09 1325.89) rotate(-180)"/><rect class="cls-4" x="319.62" y="609.83" width="34.67" height="84.34" transform="translate(673.92 1304) rotate(-180)"/><rect class="cls-4" x="319.62" y="604.82" width="26.8" height="12.27" transform="translate(666.05 1221.91) rotate(-180)"/><rect class="cls-4" x="345.3" y="600.42" width="5.01" height="14.11" transform="translate(695.61 1214.96) rotate(-180)"/><rect class="cls-4" x="323" y="600.42" width="20.66" height="7.57" transform="translate(666.66 1208.41) rotate(-180)"/><rect class="cls-4" x="7.41" y="655.86" width="248.03" height="38.31" transform="translate(262.85 1350.03) rotate(-180)"/><rect class="cls-4" y="609.83" width="34.67" height="84.34" transform="translate(34.67 1304) rotate(-180)"/><rect class="cls-4" y="604.82" width="26.8" height="12.27" transform="translate(26.8 1221.91) rotate(-180)"/><rect class="cls-4" x="25.67" y="600.42" width="5.01" height="14.11" transform="translate(56.36 1214.96) rotate(-180)"/><rect class="cls-4" x="3.38" y="600.42" width="20.66" height="7.57" transform="translate(27.41 1208.41) rotate(-180)"/><rect class="cls-4" x="276.04" y="525.76" width="37.23" height="168.41" transform="translate(589.3 1219.93) rotate(-180)"/><rect class="cls-5" x="296.29" y="535.78" width="10.33" height="5.32" transform="translate(602.91 1076.88) rotate(-180)"/><rect class="cls-5" x="282.68" y="535.78" width="10.33" height="5.32" transform="translate(575.7 1076.88) rotate(-180)"/><rect class="cls-5" x="296.29" y="546.01" width="10.33" height="5.32" transform="translate(602.91 1097.34) rotate(-180)"/><rect class="cls-5" x="282.68" y="546.01" width="10.33" height="5.32" transform="translate(575.7 1097.34) rotate(-180)"/><rect class="cls-5" x="296.29" y="556.24" width="10.33" height="5.32" transform="translate(602.91 1117.79) rotate(-180)"/><rect class="cls-5" x="282.68" y="556.24" width="10.33" height="5.32" transform="translate(575.7 1117.79) rotate(-180)"/><rect class="cls-5" x="296.29" y="566.47" width="10.33" height="5.32" transform="translate(602.91 1138.25) rotate(-180)"/><rect class="cls-5" x="282.68" y="566.47" width="10.33" height="5.32" transform="translate(575.7 1138.25) rotate(-180)"/><rect class="cls-5" x="296.29" y="576.69" width="10.33" height="5.32" transform="translate(602.91 1158.7) rotate(-180)"/><rect class="cls-5" x="282.68" y="576.69" width="10.33" height="5.32" transform="translate(575.7 1158.7) rotate(-180)"/><rect class="cls-5" x="296.29" y="586.92" width="10.33" height="5.32" transform="translate(602.91 1179.16) rotate(-180)"/><rect class="cls-5" x="282.68" y="586.92" width="10.33" height="5.32" transform="translate(575.7 1179.16) rotate(-180)"/><rect class="cls-5" x="296.29" y="597.15" width="10.33" height="5.32" transform="translate(602.91 1199.62) rotate(-180)"/><rect class="cls-5" x="282.68" y="597.15" width="10.33" height="5.32" transform="translate(575.7 1199.62) rotate(-180)"/><rect class="cls-5" x="296.29" y="607.38" width="10.33" height="5.32" transform="translate(602.91 1220.07) rotate(-180)"/><rect class="cls-5" x="282.68" y="607.38" width="10.33" height="5.32" transform="translate(575.7 1220.07) rotate(-180)"/><rect class="cls-5" x="296.29" y="617.61" width="10.33" height="5.32" transform="translate(602.91 1240.53) rotate(-180)"/><rect class="cls-5" x="282.68" y="617.61" width="10.33" height="5.32" transform="translate(575.7 1240.53) rotate(-180)"/><rect class="cls-5" x="296.29" y="627.83" width="10.33" height="5.32" transform="translate(602.91 1260.99) rotate(-180)"/><rect class="cls-5" x="282.68" y="627.83" width="10.33" height="5.32" transform="translate(575.7 1260.99) rotate(-180)"/><rect class="cls-4" x="279.45" y="522.96" width="30.89" height="7.3" transform="translate(589.78 1053.22) rotate(-180)"/><rect class="cls-4" x="279.72" y="512.87" width="25.16" height="15.34" transform="translate(584.6 1041.08) rotate(-180)"/><rect class="cls-4" x="279.72" y="511.16" width="21.21" height="3.95" transform="translate(580.64 1026.28) rotate(-180)"/><rect class="cls-4" x="273.17" y="574.65" width="5.18" height="119.52" transform="translate(551.53 1268.82) rotate(-180)"/><rect class="cls-4" x="224.62" y="558.6" width="49.91" height="135.57" transform="translate(499.16 1252.76) rotate(-180)"/><rect class="cls-4" x="247.12" y="551.94" width="23.59" height="13.84" transform="translate(517.84 1117.71) rotate(-180)"/><rect class="cls-4" x="232.57" y="550.17" width="8.28" height="12.64" transform="translate(473.42 1112.98) rotate(-180)"/><rect class="cls-4" x="226.94" y="555.81" width="4.59" height="7" transform="translate(458.47 1118.62) rotate(-180)"/><rect class="cls-4" x="355.81" y="562.1" width="41.19" height="132.07" transform="translate(752.81 1256.27) rotate(-180)"/><rect class="cls-4" x="357.99" y="559.51" width="31.37" height="9.61" transform="translate(747.35 1128.63) rotate(-180)"/><rect class="cls-4" x="362.36" y="556.85" width="15.82" height="7.47" transform="translate(740.54 1121.17) rotate(-180)"/><rect class="cls-5" x="378.04" y="572.19" width="10.33" height="5.32" transform="translate(766.41 1149.7) rotate(-180)"/><rect class="cls-5" x="364.44" y="572.19" width="10.33" height="5.32" transform="translate(739.21 1149.7) rotate(-180)"/><rect class="cls-5" x="378.04" y="582.42" width="10.33" height="5.32" transform="translate(766.41 1170.16) rotate(-180)"/><rect class="cls-5" x="364.44" y="582.42" width="10.33" height="5.32" transform="translate(739.21 1170.16) rotate(-180)"/><rect class="cls-5" x="378.04" y="592.65" width="10.33" height="5.32" transform="translate(766.41 1190.62) rotate(-180)"/><rect class="cls-5" x="364.44" y="592.65" width="10.33" height="5.32" transform="translate(739.21 1190.62) rotate(-180)"/><rect class="cls-5" x="378.04" y="602.88" width="10.33" height="5.32" transform="translate(766.41 1211.07) rotate(-180)"/><rect class="cls-5" x="364.44" y="602.88" width="10.33" height="5.32" transform="translate(739.21 1211.07) rotate(-180)"/><rect class="cls-4" x="385.27" y="631.11" width="36.82" height="63.06" transform="translate(807.36 1325.27) rotate(-180)"/><rect class="cls-4" x="393.76" y="626.91" width="26.8" height="10.43" transform="translate(814.31 1264.26) rotate(-180)"/><rect class="cls-4" x="399.18" y="622.82" width="16.57" height="7.16" transform="translate(814.93 1252.8) rotate(-180)"/><rect class="cls-4" x="403.68" y="620.26" width="5.11" height="3.89" transform="translate(812.47 1244.42) rotate(-180)"/><rect class="cls-4" x="425.47" y="609.83" width="34.67" height="84.34" transform="translate(885.6 1304) rotate(-180)"/><rect class="cls-4" x="425.47" y="604.82" width="26.8" height="12.27" transform="translate(877.73 1221.91) rotate(-180)"/><rect class="cls-4" x="451.14" y="600.42" width="5.01" height="14.11" transform="translate(907.29 1214.96) rotate(-180)"/><rect class="cls-4" x="428.84" y="600.42" width="20.66" height="7.57" transform="translate(878.34 1208.41) rotate(-180)"/><rect class="cls-4" x="413.7" y="655.86" width="131.06" height="38.31" transform="translate(958.46 1350.03) rotate(-180)"/><rect class="cls-4" x="456.15" y="629.98" width="12.17" height="2.97" transform="translate(924.47 1262.93) rotate(-180)"/><rect class="cls-4" x="458.5" y="631.46" width="7.57" height="48.79" transform="translate(924.57 1311.72) rotate(-180)"/><rect class="cls-4" x="453.64" y="638.68" width="14.68" height="48.54" transform="translate(921.97 1325.89) rotate(-180)"/></g></g></g></g></svg>