<svg xmlns="http://www.w3.org/2000/svg" viewBox="0 0 485 223.47"><defs><style>.cls-1,.cls-25,.cls-30{fill:#bf3019;}.cls-2,.cls-26,.cls-3{fill:#fff;}.cls-3{stroke:#a82a16;}.cls-25,.cls-3,.cls-30{stroke-linecap:round;stroke-linejoin:round;}.cls-3,.cls-30{stroke-width:2px;}.cls-27,.cls-28,.cls-29,.cls-4{fill:none;}.cls-27,.cls-4{stroke:#bf3019;}.cls-27,.cls-28,.cls-29,.cls-4,.cls-6,.cls-7{stroke-miterlimit:10;}.cls-25,.cls-28,.cls-4{stroke-width:3px;}.cls-5{fill:#ccc;opacity:0.5;}.cls-6,.cls-8{fill:#87c22e;}.cls-25,.cls-30,.cls-6,.cls-7{stroke:#fff;}.cls-16,.cls-7{fill:#767676;}.cls-7{stroke-width:2.21px;}.cls-9{font-size:20px;fill:#0080b1;}.cls-26,.cls-9{font-family:MuseoSans-900, MuseoSans 900;}.cls-10{letter-spacing:-0.04em;}.cls-11{letter-spacing:-0.03em;}.cls-12{letter-spacing:0em;}.cls-13{letter-spacing:-0.04em;}.cls-14{letter-spacing:-0.08em;}.cls-15{letter-spacing:-0.02em;}.cls-16{font-size:32.82px;}.cls-16,.cls-17{font-family:MuseoSans-900Italic, MuseoSans 900Italic;font-style:italic;}.cls-17{font-size:16px;fill:#2f66ab;}.cls-18{letter-spacing:-0.01em;}.cls-19{letter-spacing:0.01em;}.cls-20{letter-spacing:0em;}.cls-21{letter-spacing:-0.01em;}.cls-22{letter-spacing:0em;}.cls-23{letter-spacing:-0.03em;}.cls-24{letter-spacing:-0.01em;}.cls-26{font-size:26.52px;}.cls-27{stroke-width:5px;}.cls-28{stroke:#e6e6e6;}.cls-29{stroke:gray;stroke-dasharray:3 6;opacity:0.27;}</style></defs><title>how-to-calc-per-lead</title><g id="Layer_2" data-name="Layer 2"><g id="Layer_1-2" data-name="Layer 1"><path class="cls-1" d="M69.88,221.64a2.08,2.08,0,0,1-.91-.21,10.8,10.8,0,0,0-4.56-1.13,7.24,7.24,0,0,0-.92.06l-.24,0a6.61,6.61,0,0,1-1,.09,2.63,2.63,0,0,1-1.54-.44,2.84,2.84,0,0,1-1.14-2,9.17,9.17,0,0,1,0-2.11c0-.27,0-.54.06-.79l.12-2.85,1.53-38.7-15.27-33a1,1,0,0,1-.09-.32,8.57,8.57,0,0,1,0-1.25,7.89,7.89,0,0,1,7.87-7.44h.46a7.9,7.9,0,0,1,7.43,8.15l10,33.19a1,1,0,0,1,0,.32v.46L66.41,215a16.34,16.34,0,0,1,3.23,1.67l.24.15c.82.54,2.75,1.79,1.89,3.59A2.11,2.11,0,0,1,69.88,221.64Z"/><path class="cls-2" d="M53.84,132.63h.4a6.89,6.89,0,0,1,6.48,7.27l10.06,33.35v.46l-5.44,42a16.16,16.16,0,0,1,3.77,1.84c.74.5,2.32,1.36,1.78,2.48a1.09,1.09,0,0,1-1.46.51,11.81,11.81,0,0,0-5-1.23,8.1,8.1,0,0,0-1.05.07,8.35,8.35,0,0,1-1.07.11,1.66,1.66,0,0,1-1-.27,1.84,1.84,0,0,1-.71-1.27,15.48,15.48,0,0,1,.08-2.72c0-.95.08-1.9.12-2.85l.27-6.86.33-8.4.34-8.69.31-7.74.22-5.56.07-1.68h0V173l0,.45L47,140.22a7.42,7.42,0,0,1,0-1.1,6.89,6.89,0,0,1,6.87-6.49m0-2A8.89,8.89,0,0,0,45,139a9.41,9.41,0,0,0,0,1.4,2,2,0,0,0,.18.65l15.17,32.79,0,1.2-.22,5.56-.15,3.87-.15,3.87-.17,4.19-.18,4.5-.33,8.4v.3l-.26,6.56q0,.67-.06,1.33t-.06,1.51c0,.24,0,.49-.05.75a10.08,10.08,0,0,0,0,2.33,3.83,3.83,0,0,0,1.56,2.63,3.64,3.64,0,0,0,2.1.62,7.53,7.53,0,0,0,1.1-.1l.22,0a6.13,6.13,0,0,1,.79,0,9.79,9.79,0,0,1,4.13,1,3.09,3.09,0,0,0,4.13-1.44c1.25-2.59-1.38-4.3-2.24-4.86l-.22-.14a16.7,16.7,0,0,0-2.7-1.47L72.74,174q0-.1,0-.19v-.46a2,2,0,0,0-.08-.64l-10-33a8.9,8.9,0,0,0-8.38-9Z"/><path class="cls-1" d="M96.56,99.42l-.47,0L65,95.81a7.3,7.3,0,0,1-.88-.16A6.51,6.51,0,1,1,67.36,83l27,7,32.14,3.26L130,89.51a1.87,1.87,0,0,1,3.21,1,1.86,1.86,0,0,1-.32,1.4L130,96a1,1,0,0,1-1.63,0l-28,.89a4.11,4.11,0,0,1-3.79,2.53Z"/><path class="cls-2" d="M65.72,83.83a5.52,5.52,0,0,1,1.38.18l27.09,7,32.88,3.34.06-.16a.81.81,0,0,1,.17-.28l3.45-3.7a.87.87,0,0,1,1.35,1.1l-2.93,4.13.23-.45-29.8.94a3.12,3.12,0,0,1-3,2.51l-.36,0-.47-.05L65.1,94.82a6,6,0,0,1-.75-.14,5.51,5.51,0,0,1,1.38-10.85m0-2a7.51,7.51,0,0,0-1.88,14.78,8.06,8.06,0,0,0,1,.19l30.65,3.53.47.05a5.09,5.09,0,0,0,5-2.52L128,97l.16.11a2,2,0,0,0,2.67-.55l2.93-4.13a2.87,2.87,0,0,0-4.44-3.62l-3.18,3.41L94.55,89l-26.94-7a7.53,7.53,0,0,0-1.88-.24Z"/><rect class="cls-3" x="87.54" y="1" width="396.47" height="207.64"/><path class="cls-1" d="M31.8,142.28c-1.54,0-2.31-1.28-2.31-3.81,0-4.59,8.93-21.82,19.73-42.19,3.46-6.54,6.46-12.19,8.07-15.55.14-.3.78-2.3,1.31-4.06a1,1,0,0,1,1-.71h3.77a1,1,0,0,1,1,1.12,13.31,13.31,0,0,0,0,3.92l.32,0a1.1,1.1,0,0,1,1.05.65c3.87,9-1.58,29.2-5.56,43.92-1.6,5.93-3,11-3,12.92,0,1.14,0,3.81-1.91,3.81-1,0-1.9-.8-3.28-2-1.9-1.66-4.51-3.94-7.48-3.94s-5.78,2-8.15,3.67c-1.85,1.27-3.31,2.28-4.56,2.28Z"/><path class="cls-2" d="M63.31,77h0m0,0s-.42,3.49.26,4.81a.55.55,0,0,0,.54.25c.21,0,.42,0,.55,0s.12,0,.14,0c5.39,12.61-8.62,50-8.62,56.44,0,2.06-.32,2.81-.91,2.81-1.67,0-5.53-6-10.76-6s-10.37,6-12.71,6c-.83,0-1.31-.76-1.31-2.81,0-6.64,22.1-45.65,27.7-57.31.25-.52,1.37-4.2,1.37-4.2h3.77m0-2H59.55a2,2,0,0,0-1.91,1.42C57.14,78,56.52,80,56.37,80.32c-1.59,3.32-4.58,9-8,15.48C37.09,117,28.49,133.64,28.49,138.47c0,4.19,2.08,4.81,3.31,4.81,1.56,0,3.13-1.08,5.12-2.46,2.26-1.56,5.07-3.5,7.59-3.5s5,2.13,6.82,3.69c1.5,1.31,2.59,2.26,3.94,2.26,2.91,0,2.91-3.62,2.91-4.81,0-1.73,1.43-7,2.95-12.65,4-14.86,9.51-35.22,5.51-44.57A2.08,2.08,0,0,0,65.21,80a16.25,16.25,0,0,1,.07-2.75,2,2,0,0,0-2-2.34Zm0,4h0Z"/><path class="cls-1" d="M61.3,76.21c-5.72,0-9.73-9.41-9.73-14.51a9.73,9.73,0,1,1,19.46,0C71,66.8,67,76.21,61.3,76.21Z"/><path class="cls-2" d="M61.3,53A8.73,8.73,0,0,1,70,61.71c0,4.82-3.91,13.51-8.73,13.51s-8.73-8.69-8.73-13.51A8.73,8.73,0,0,1,61.3,53m0-2A10.74,10.74,0,0,0,50.57,61.71c0,5.33,4.18,15.51,10.73,15.51S72,67,72,61.71A10.74,10.74,0,0,0,61.3,51Z"/><path class="cls-1" d="M10.13,220.05a3.68,3.68,0,0,1-2.46-1.47,5.73,5.73,0,0,0-.46-.45,9.18,9.18,0,0,0-3.34-1.79c-.84-.23-3.4-.93-2.77-3.57A7.72,7.72,0,0,1,1.82,211c.1-.19.2-.39.29-.58.23-.49.45-1,.67-1.48L19.41,172l9.25-32a8.32,8.32,0,0,1,.44-1.18,7.93,7.93,0,0,1,7.14-4.52,7.81,7.81,0,0,1,3.36.76,7.9,7.9,0,0,1,3.77,10.5L29.11,175.79l-.17.39,0,.09-20.59,36a17.9,17.9,0,0,1,3.65,4.8,2.1,2.1,0,0,1-.47,2.48A2,2,0,0,1,10.13,220.05Z"/><path class="cls-2" d="M36.24,135.32a6.89,6.89,0,0,1,6.22,9.83L28.21,175.36l-.18.42L7,212.41a18.26,18.26,0,0,1,4,5.06,1.09,1.09,0,0,1-.24,1.29,1,1,0,0,1-.68.29c-.86,0-1.7-1.22-2.28-1.7a10.22,10.22,0,0,0-3.71-2c-1.24-.34-2.43-.84-2.06-2.38a11.75,11.75,0,0,1,1-2.14c.35-.75.68-1.52,1-2.28l2.77-6.15,3.49-7.74L14,186.57l3.29-7.3L19.61,174l.73-1.63v0l.18-.42-.18.39,9.27-32.07a7.46,7.46,0,0,1,.39-1,6.89,6.89,0,0,1,6.23-4m0-2a8.93,8.93,0,0,0-8,5.1,9.41,9.41,0,0,0-.5,1.31l-9.23,31.95-.17.37-.51,1.13-1.87,4.14-.51,1.12-3.29,7.3-1.83,4.06-1.83,4.06-1.68,3.74-1.8,4-.21.47-2.56,5.68-.35.79c-.22.49-.43,1-.66,1.46-.08.18-.18.36-.27.54a8.51,8.51,0,0,0-.81,2c-.32,1.34-.28,3.74,3.48,4.77a8.2,8.2,0,0,1,3,1.6c.07.05.24.23.36.36a4.58,4.58,0,0,0,3.18,1.78,3,3,0,0,0,2-.81,3.11,3.11,0,0,0,.69-3.66,18.14,18.14,0,0,0-3.3-4.52l20.21-35.29.09-.19.17-.39L44.27,146a8.89,8.89,0,0,0-8-12.68Z"/><path class="cls-1" d="M71.16,119a4.07,4.07,0,0,1-3.25-1.59L48.77,92.63a7.17,7.17,0,0,1-.5-.75,6.51,6.51,0,1,1,11.31-6.46L73,108.9,96.48,98a1.85,1.85,0,0,1,.72-.17l5.07-.11a1.87,1.87,0,0,1,1.89,1.58,1.87,1.87,0,0,1-1.56,2.14l-4.45.7L73.4,118.33a4.1,4.1,0,0,1-2.25.67Z"/><path class="cls-2" d="M53.92,83.13a5.51,5.51,0,0,1,4.79,2.78L72.6,110.2,96.74,99l.16-.07c.1,0,.21.15.32.14l5.06.11h0c.42,0,.79.09.86.52a.77.77,0,0,1-.73.89l-4.67.68.15-.12-.48.13.33-.06L72.85,117.5a3.12,3.12,0,0,1-4.15-.7l-.29-.38L49.56,92a6,6,0,0,1-.42-.63,5.51,5.51,0,0,1,4.78-8.25m0-2a7.51,7.51,0,0,0-6.52,11.24,8,8,0,0,0,.57.85l18.85,24.42.29.38a5.11,5.11,0,0,0,6.83,1.15l24.56-16.1,4.24-.66a2.85,2.85,0,0,0,1.88-1.15,2.35,2.35,0,0,0,.52-1.92,2.68,2.68,0,0,0-2.84-2.21h-.07L97.18,97a2.71,2.71,0,0,0-1.12.15l-.17,0L73.42,107.64l-13-22.7a7.55,7.55,0,0,0-6.53-3.8Z"/><circle class="cls-4" cx="137.39" cy="45.26" r="23.26"/><circle class="cls-5" cx="137.39" cy="45.26" r="17.74"/><rect class="cls-6" x="130.01" y="42.1" width="19.25" height="16.5" rx="3.06" ry="3.06"/><path class="cls-2" d="M137.94,51.73a3,3,0,0,0,1.76.76c.37,0,.77-.14.77-.59,0-.82-3.34-.9-3.34-3.11a2.23,2.23,0,0,1,2-2.19v-1h1.12v.94a3.22,3.22,0,0,1,1.88.8l-.76,1.47a2.81,2.81,0,0,0-1.62-.65c-.37,0-.78.17-.78.58,0,.87,3.34.81,3.34,3.08a2.26,2.26,0,0,1-2.06,2.24V55H139.1v-.94a3.72,3.72,0,0,1-2.1-1Z"/><circle class="cls-7" cx="129.06" cy="44.87" r="3.88"/><path class="cls-7" d="M126.68,50.34h4.76A2.65,2.65,0,0,1,134.09,53v8.67a0,0,0,0,1,0,0H124a0,0,0,0,1,0,0V53A2.65,2.65,0,0,1,126.68,50.34Z"/><path class="cls-8" d="M129.06,39.43a.75.75,0,0,1-.53-.22L125,35.64a.75.75,0,0,1,.53-1.28h1V30.52a.75.75,0,0,1,.75-.75h3.71a.75.75,0,0,1,.75.75v3.84h1a.75.75,0,0,1,.53,1.28l-3.58,3.58a.75.75,0,0,1-.53.22Z"/><path class="cls-2" d="M130.91,30.52v4.59h1.72l-3.58,3.58-3.58-3.58h1.72V30.52h3.71m1.72,4.59h0M130.91,29h-3.71a1.5,1.5,0,0,0-1.5,1.5v3.09h-.22a1.5,1.5,0,0,0-1.06,2.56L128,39.75a1.5,1.5,0,0,0,1.06.44h0a1.5,1.5,0,0,0,1.06-.44l3.54-3.54a1.5,1.5,0,0,0-1-2.6h-.23V30.52a1.5,1.5,0,0,0-1.5-1.5Z"/><text class="cls-9" transform="translate(177.14 40.04)">HOW<tspan class="cls-10" x="43.74" y="0"> </tspan><tspan class="cls-11" x="47.16" y="0">T</tspan><tspan x="56.56" y="0">O </tspan><tspan class="cls-12" x="74.58" y="0">C</tspan><tspan x="86.26" y="0">A</tspan><tspan class="cls-13" x="98.5" y="0">L</tspan><tspan x="107.16" y="0">CUL</tspan><tspan class="cls-14" x="141.14" y="0">A</tspan><tspan x="151.84" y="0">TE</tspan><tspan class="cls-15" x="0" y="21.22">C</tspan><tspan x="11.18" y="21.22">OST PER LEAD </tspan></text><text class="cls-16" transform="translate(143.26 147.55)">CPL</text><text class="cls-17" transform="translate(307.23 114.25)"><tspan class="cls-18">C</tspan><tspan x="9.1" y="0">ost of </tspan><tspan class="cls-19" x="49.76" y="0">M</tspan><tspan x="62.72" y="0">a</tspan><tspan class="cls-20" x="70.43" y="0">r</tspan><tspan x="75.73" y="0">keting</tspan><tspan x="31.34" y="16">Channel</tspan></text><text class="cls-17" transform="translate(312.3 164.92)"># of <tspan class="cls-21" x="28.19" y="0">L</tspan><tspan class="cls-22" x="35.52" y="0">eads </tspan><tspan class="cls-23" x="70" y="0">F</tspan><tspan class="cls-24" x="77.38" y="0">r</tspan><tspan class="cls-22" x="82.45" y="0">om </tspan><tspan class="cls-19" x="-9.6" y="16">M</tspan><tspan x="3.36" y="16">a</tspan><tspan class="cls-20" x="11.07" y="16">r</tspan><tspan x="16.37" y="16">keting Channel</tspan></text><circle class="cls-25" cx="252.15" cy="138.41" r="20.5"/><text class="cls-26" transform="translate(244.25 145.5)">=</text><line class="cls-27" x1="284.51" y1="140.63" x2="449.51" y2="140.63"/><rect class="cls-28" x="119.18" y="106.91" width="100" height="60.33"/><line class="cls-29" x1="87.54" y1="83.13" x2="484" y2="83.13"/><path class="cls-30" d="M69.78,219.15a17.34,17.34,0,0,0-4-2l5.83-45,0-.49L60.81,135.94a7.43,7.43,0,0,0-.05-1.35l.54-7.79L38,119.4l-2-1.27C33.72,122.2,29.65,131,29.65,131L19.49,170.22l-17,37.65,7.91,3L31.47,175.3,46,146.39a8.16,8.16,0,0,0,3.08.78l9.64,24.76c-.55,13.71-.86,42.36-.86,42.36s2.95,1.16,2.9,2.37a16.63,16.63,0,0,0-.09,2.91,2,2,0,0,0,.76,1.36,3,3,0,0,0,2.18.17,11.9,11.9,0,0,1,6.48,1.25,1.17,1.17,0,0,0,1.56-.55C72.26,220.61,70.57,219.69,69.78,219.15Z"/></g></g></svg>