<svg xmlns="http://www.w3.org/2000/svg" viewBox="0 0 485 222.64"><defs><style>.cls-1,.cls-27,.cls-32{fill:#bf3019;}.cls-10,.cls-2,.cls-28,.cls-3,.cls-7{fill:#fff;}.cls-3{stroke:#a82a16;}.cls-27,.cls-3,.cls-32,.cls-6,.cls-7,.cls-8,.cls-9{stroke-linecap:round;stroke-linejoin:round;}.cls-3,.cls-32{stroke-width:2px;}.cls-29,.cls-30,.cls-31,.cls-4,.cls-9{fill:none;}.cls-29,.cls-4{stroke:#bf3019;}.cls-29,.cls-30,.cls-31,.cls-4{stroke-miterlimit:10;}.cls-27,.cls-30,.cls-4{stroke-width:3px;}.cls-5{fill:#ccc;opacity:0.5;}.cls-18,.cls-6,.cls-8{fill:#767676;}.cls-27,.cls-32,.cls-6{stroke:#fff;}.cls-6{stroke-width:2.75px;}.cls-7,.cls-8,.cls-9{stroke:#767676;}.cls-7,.cls-9{stroke-width:2.7px;}.cls-8{stroke-width:0.67px;}.cls-10{font-size:11.69px;}.cls-10,.cls-11,.cls-28{font-family:MuseoSans-900, MuseoSans 900;}.cls-11{font-size:20px;fill:#0080b1;}.cls-12{letter-spacing:-0.04em;}.cls-13{letter-spacing:-0.03em;}.cls-14{letter-spacing:0em;}.cls-15{letter-spacing:-0.04em;}.cls-16{letter-spacing:-0.08em;}.cls-17{letter-spacing:-0.02em;}.cls-18{font-size:32.82px;}.cls-18,.cls-19{font-family:MuseoSans-900Italic, MuseoSans 900Italic;font-style:italic;}.cls-19{font-size:16px;fill:#2f66ab;}.cls-20{letter-spacing:-0.01em;}.cls-21{letter-spacing:0.01em;}.cls-22{letter-spacing:0em;}.cls-23{letter-spacing:0em;}.cls-24{letter-spacing:-0.03em;}.cls-25{letter-spacing:-0.01em;}.cls-26{letter-spacing:0em;}.cls-28{font-size:26.52px;}.cls-29{stroke-width:5px;}.cls-30{stroke:#e6e6e6;}.cls-31{stroke:gray;stroke-dasharray:3 6;opacity:0.27;}</style></defs><title>how-to-calc-per-sale</title><g id="Layer_2" data-name="Layer 2"><g id="Layer_1-2" data-name="Layer 1"><path class="cls-1" d="M415.12,221.64a2.11,2.11,0,0,1-1.89-1.18c-.86-1.79,1.06-3,1.89-3.58l.23-.16a16.32,16.32,0,0,1,3.23-1.67l-5.33-41.2,0-.55a1,1,0,0,1,0-.32l10-33.19a7.9,7.9,0,0,1,7.43-8.15h.46a7.89,7.89,0,0,1,7.87,7.43,8.52,8.52,0,0,1,0,1.25,1,1,0,0,1-.09.32l-15.27,33,1.53,38.7.12,2.85c0,.26,0,.52.06.79a9.16,9.16,0,0,1,0,2.11,2.84,2.84,0,0,1-1.14,2,2.63,2.63,0,0,1-1.54.44,6.61,6.61,0,0,1-1-.09l-.24,0a7.26,7.26,0,0,0-.92-.06,10.8,10.8,0,0,0-4.56,1.13A2.07,2.07,0,0,1,415.12,221.64Z"/><path class="cls-2" d="M431.17,132.63a6.89,6.89,0,0,1,6.87,6.49,7.46,7.46,0,0,1,0,1.1l-15.38,33.23,0-.45v.46h0l.07,1.68.22,5.56.31,7.74.34,8.69.33,8.4.27,6.86c0,.95.08,1.9.12,2.85a15.5,15.5,0,0,1,.08,2.72,1.84,1.84,0,0,1-.71,1.27,1.66,1.66,0,0,1-1,.27,8.34,8.34,0,0,1-1.07-.11,8.1,8.1,0,0,0-1.05-.07,11.8,11.8,0,0,0-5,1.23,1.09,1.09,0,0,1-1.46-.51c-.54-1.11,1-2,1.78-2.48a16.16,16.16,0,0,1,3.77-1.84l-5.44-42v-.46l10.06-33.35a6.89,6.89,0,0,1,6.48-7.27h.4m0-2h-.52a8.89,8.89,0,0,0-8.38,9l-10,33a2,2,0,0,0-.08.64v.46q0,.1,0,.19l5.24,40.44a16.71,16.71,0,0,0-2.7,1.47l-.22.14c-.86.56-3.49,2.27-2.24,4.86a3.09,3.09,0,0,0,4.13,1.44,9.79,9.79,0,0,1,4.13-1,6.12,6.12,0,0,1,.79,0l.22,0a7.53,7.53,0,0,0,1.1.1,3.64,3.64,0,0,0,2.1-.62,3.83,3.83,0,0,0,1.56-2.63,10.07,10.07,0,0,0,0-2.33c0-.25,0-.51-.05-.75q0-.75-.06-1.49t-.06-1.36l-.26-6.61v-.25l-.17-4.21-.17-4.19-.17-4.35-.17-4.35-.15-3.87-.15-3.87-.11-2.79L424.7,175l0-.84v-.36l15.17-32.79a2,2,0,0,0,.18-.65,9.43,9.43,0,0,0,0-1.4,8.89,8.89,0,0,0-8.87-8.38Z"/><path class="cls-1" d="M388.45,99.42a4.11,4.11,0,0,1-3.79-2.53l-28-.89A1,1,0,0,1,355,96l-2.93-4.13a1.87,1.87,0,0,1,1.53-3,1.88,1.88,0,0,1,1.37.6l3.51,3.77L390.63,90l27-7a6.51,6.51,0,1,1,3.26,12.61,7.1,7.1,0,0,1-.88.16L388.92,99.4Z"/><path class="cls-2" d="M419.28,83.83a5.51,5.51,0,0,1,1.38,10.85,6,6,0,0,1-.75.14l-30.63,3.53-.47.05-.36,0a3.11,3.11,0,0,1-3-2.51L355.6,95l.23.45-2.93-4.13a.87.87,0,0,1,1.35-1.1l3.45,3.7a.81.81,0,0,1,.17.28l.06.16L390.81,91l27.09-7a5.52,5.52,0,0,1,1.38-.18m0-2h0a7.53,7.53,0,0,0-1.88.24l-26.94,7-31.57,3.2-3.18-3.41a2.87,2.87,0,0,0-4.44,3.62l2.93,4.13a2,2,0,0,0,2.67.55L357,97l27,.86a5.09,5.09,0,0,0,5,2.52l.47-.05,30.63-3.53a8.11,8.11,0,0,0,1-.19,7.51,7.51,0,0,0-1.88-14.78Z"/><rect class="cls-3" x="1" y="1" width="396.47" height="207.64"/><path class="cls-1" d="M429.36,142.28c-.34,0-1.16-.14-1.47-1.4a10.73,10.73,0,0,1-.19-2.42c0-1.87-1.38-7-3-12.92-4-14.72-9.42-34.88-5.56-43.92a1.1,1.1,0,0,1,1.05-.65l.32,0a13.24,13.24,0,0,0,0-3.92,1,1,0,0,1,1-1.12h3.76a1,1,0,0,1,1,.71c.53,1.76,1.17,3.76,1.31,4.06,1.61,3.36,4.6,9,8.07,15.55,10.79,20.37,19.73,37.6,19.73,42.19,0,3.15-1.39,3.81-2.56,3.81-1.44,0-3.18-1.07-5.39-2.42-2.57-1.57-5.77-3.53-8.52-3.53-3.08,0-5.44,2.49-7,4.13-1,1.1-1.72,1.82-2.57,1.82Z"/><path class="cls-2" d="M425.33,77s1.12,3.68,1.37,4.2c5.59,11.66,27.7,50.67,27.7,57.31,0,2.06-.58,2.81-1.56,2.81-2.75,0-8.68-6-13.91-6s-8.31,6-9.56,6c-.45,0-.66-.76-.66-2.81,0-6.48-14-43.83-8.62-56.44,0,0,.06,0,.14,0s.35,0,.55,0a.55.55,0,0,0,.54-.25c.68-1.33.26-4.81.26-4.81h3.77m0-2h-3.77a2,2,0,0,0-2,2.24,16.17,16.17,0,0,1,.09,2.84,2.08,2.08,0,0,0-1.43,1.2c-4,9.36,1.5,29.71,5.51,44.57,1.52,5.62,2.95,10.92,2.95,12.65,0,1.56,0,4.81,2.66,4.81,1.27,0,2.12-.9,3.29-2.13,1.53-1.61,3.62-3.82,6.27-3.82,2.47,0,5.53,1.88,8,3.39s4.19,2.57,5.91,2.57c1.07,0,3.56-.47,3.56-4.81,0-4.83-8.6-21.44-19.84-42.66-3.46-6.53-6.45-12.17-8-15.51-.14-.33-.76-2.29-1.26-3.91A2,2,0,0,0,425.33,75Z"/><path class="cls-1" d="M423.71,76.21C418,76.21,414,66.8,414,61.71a9.73,9.73,0,1,1,19.46,0C433.44,66.8,429.42,76.21,423.71,76.21Z"/><path class="cls-2" d="M423.71,53a8.73,8.73,0,0,1,8.73,8.73c0,4.82-3.91,13.51-8.73,13.51S415,66.53,415,61.71A8.73,8.73,0,0,1,423.71,53m0-2A10.74,10.74,0,0,0,413,61.71c0,5.33,4.18,15.51,10.73,15.51S434.44,67,434.44,61.71A10.74,10.74,0,0,0,423.71,51Z"/><path class="cls-1" d="M430.29,93.52a6.51,6.51,0,0,1-6-8.94,7.06,7.06,0,0,1,.39-.8l.07-.11,19.69-26L446,34.39a1,1,0,0,1,.1-.38l3.31-6.54c.19-.41,1.29-2.6,3-2.6a2.07,2.07,0,0,1,1.05.29c.75.44.89,1.22-.3,4.49,0,0-.09.08-.11.11l-2.69,5.12V65.08a1,1,0,0,1-.07.51l-14,23.92A6.44,6.44,0,0,1,430.29,93.52Z"/><path class="cls-2" d="M452.44,25.87A1.08,1.08,0,0,1,453,26c.38.22-.8,3.28-.8,3.28l-2.8,5.34V65.08l-14,24a5.47,5.47,0,0,1-5.08,3.46,5.42,5.42,0,0,1-2-.4A5.51,5.51,0,0,1,425.17,85a6.08,6.08,0,0,1,.34-.68L445.38,58,447,34.46l3.31-6.54s.95-2,2.12-2m0-2h0c-2.24,0-3.55,2.38-3.92,3.17l-3.29,6.51a2,2,0,0,0-.21.76l-1.59,23L423.91,83.06a2,2,0,0,0-.15.22,8.08,8.08,0,0,0-.44.92A7.51,7.51,0,0,0,437.2,90l14-23.86a2,2,0,0,0,.21-1V35.13L454,30.23a2.25,2.25,0,0,0,.13-.22c1-2.63,1.58-4.71-.11-5.7a3,3,0,0,0-1.54-.43Z"/><path class="cls-1" d="M474.88,220.05a2,2,0,0,1-1.35-.55,2.1,2.1,0,0,1-.47-2.48,17.91,17.91,0,0,1,3.65-4.8l-20.59-36,0-.09-.18-.42-14.25-30.19a7.9,7.9,0,0,1,3.77-10.5,7.81,7.81,0,0,1,3.36-.76,7.93,7.93,0,0,1,7.14,4.52,8.46,8.46,0,0,1,.44,1.17l9.25,32L482.23,209c.22.49.44,1,.67,1.47.09.19.19.39.29.58a7.74,7.74,0,0,1,.73,1.76c.62,2.64-1.93,3.34-2.77,3.57a9.19,9.19,0,0,0-3.35,1.79,5.7,5.7,0,0,0-.46.45A3.67,3.67,0,0,1,474.88,220.05Z"/><path class="cls-2" d="M448.77,135.32a6.89,6.89,0,0,1,6.23,4,7.44,7.44,0,0,1,.39,1l9.27,32.07-.18-.39.18.42v0l.73,1.63,2.37,5.27,3.29,7.3,3.66,8.12,3.48,7.74,2.77,6.15c.34.76.67,1.52,1,2.28a11.74,11.74,0,0,1,1,2.14c.36,1.54-.82,2-2.06,2.38a10.22,10.22,0,0,0-3.71,2c-.59.48-1.43,1.7-2.28,1.7a1,1,0,0,1-.68-.29,1.09,1.09,0,0,1-.24-1.29,18.26,18.26,0,0,1,4-5.06l-21-36.63-.18-.42-14.26-30.21a6.89,6.89,0,0,1,6.22-9.83m0-2a8.89,8.89,0,0,0-8,12.68L455,176.19l.17.39.09.19,20.21,35.29a18.14,18.14,0,0,0-3.3,4.52,3.11,3.11,0,0,0,.69,3.66,3,3,0,0,0,2,.81,4.58,4.58,0,0,0,3.18-1.78c.13-.13.3-.31.36-.36a8.2,8.2,0,0,1,3-1.6c3.77-1,3.8-3.43,3.48-4.77a8.5,8.5,0,0,0-.81-2c-.09-.18-.19-.36-.27-.54-.23-.49-.45-1-.66-1.47l-.35-.78-1.38-3.07L480,201.61l-.16-.35-3.33-7.39-1.83-4.06-1.83-4.06-1.34-3-1.95-4.32-1.86-4.12-.52-1.14-.68-1.5-9.23-31.93a9.44,9.44,0,0,0-.5-1.33,8.93,8.93,0,0,0-8-5.1Z"/><circle class="cls-4" cx="54.33" cy="45.26" r="23.26"/><circle class="cls-5" cx="54.33" cy="45.26" r="17.74"/><path class="cls-6" d="M70.25,39.36A1.63,1.63,0,0,0,69,38.78H48.52l-.58-3.35a1.35,1.35,0,0,0-1.33-1.12H39.36a1.35,1.35,0,0,0,0,2.7h6.11l2.66,15.35a3.77,3.77,0,1,0,5.19,4.72h7.22a3.77,3.77,0,1,0,5.2-4.7h1.46A1.63,1.63,0,0,0,68.82,51l1.79-10.32A1.63,1.63,0,0,0,70.25,39.36Zm-9.71,15H53.32a3.78,3.78,0,0,0-1.82-2H62.36A3.78,3.78,0,0,0,60.54,54.38Z"/><line class="cls-7" x1="49.81" y1="55.73" x2="64.06" y2="55.73"/><path class="cls-8" d="M67.21,52H49.45L47.2,39.12H69a1.3,1.3,0,0,1,1.28,1.52L68.49,51A1.3,1.3,0,0,1,67.21,52Z"/><polyline class="cls-9" points="39.36 35.66 46.61 35.66 49.81 54.11"/><circle class="cls-7" cx="49.81" cy="55.73" r="2.43"/><circle class="cls-7" cx="64.06" cy="55.73" r="2.43"/><text class="cls-10" transform="translate(54.33 49.36)">$</text><text class="cls-11" transform="translate(95.37 40.04)">HOW<tspan class="cls-12" x="43.74" y="0"> </tspan><tspan class="cls-13" x="47.16" y="0">T</tspan><tspan x="56.56" y="0">O </tspan><tspan class="cls-14" x="74.58" y="0">C</tspan><tspan x="86.26" y="0">A</tspan><tspan class="cls-15" x="98.5" y="0">L</tspan><tspan x="107.16" y="0">CUL</tspan><tspan class="cls-16" x="141.14" y="0">A</tspan><tspan x="151.84" y="0">TE</tspan><tspan class="cls-17" x="0" y="21.22">C</tspan><tspan x="11.18" y="21.22">OST PER SALE</tspan></text><text class="cls-18" transform="translate(57.71 147.55)">CPS</text><text class="cls-19" transform="translate(222.1 110.25)"><tspan class="cls-20">C</tspan><tspan x="9.1" y="0">ost of </tspan><tspan class="cls-21" x="49.76" y="0">M</tspan><tspan x="62.72" y="0">a</tspan><tspan class="cls-22" x="70.43" y="0">r</tspan><tspan x="75.73" y="0">keting</tspan><tspan x="31.34" y="16">Channel</tspan></text><text class="cls-19" transform="translate(229.5 160.92)"># of <tspan class="cls-23" x="28.19" y="0">S</tspan><tspan x="36.13" y="0">ales </tspan><tspan class="cls-24" x="65.36" y="0">F</tspan><tspan class="cls-25" x="72.73" y="0">r</tspan><tspan class="cls-26" x="77.81" y="0">om </tspan><tspan class="cls-21" x="-11.92" y="16">M</tspan><tspan x="1.04" y="16">a</tspan><tspan class="cls-22" x="8.75" y="16">r</tspan><tspan x="14.05" y="16">keting Channel</tspan></text><circle class="cls-27" cx="167.03" cy="134.41" r="20.5"/><text class="cls-28" transform="translate(159.13 141.5)">=</text><line class="cls-29" x1="199.39" y1="136.63" x2="364.39" y2="136.63"/><rect class="cls-30" x="34.06" y="102.91" width="100" height="60.33"/><line class="cls-31" x1="1.16" y1="83.13" x2="397.62" y2="83.13"/><path class="cls-32" d="M414.41,218.33a17.34,17.34,0,0,1,4-2l-5.83-45,0-.49,10.78-35.75a7.43,7.43,0,0,1,.05-1.35L422.9,126l23.32-7.39,2-1.27c2.25,4.06,6.31,12.88,6.31,12.88L464.7,169.4l17,37.65-7.91,3-21.07-35.57-14.56-28.91a8.16,8.16,0,0,1-3.08.78l-9.64,24.76c.55,13.71.86,42.36.86,42.36s-2.95,1.16-2.9,2.37a16.63,16.63,0,0,1,.09,2.91,2,2,0,0,1-.76,1.36,3,3,0,0,1-2.18.17,11.9,11.9,0,0,0-6.48,1.25,1.17,1.17,0,0,1-1.56-.55C411.93,219.79,413.62,218.86,414.41,218.33Z"/></g></g></svg>