<svg xmlns="http://www.w3.org/2000/svg" viewBox="0 0 863.62 211.88"><defs><style>.cls-1{fill:#852112;}.cls-1,.cls-8{opacity:0.5;}.cls-2{font-size:19px;}.cls-10,.cls-14,.cls-17,.cls-2{fill:#fff;}.cls-2,.cls-3{font-family:ArialMT, Arial;}.cls-3{font-size:28px;fill:#ffd08a;}.cls-4{letter-spacing:-0.02em;}.cls-5{letter-spacing:-0.07em;}.cls-16,.cls-6,.cls-7{fill:none;}.cls-11,.cls-13,.cls-6,.cls-7,.cls-9{stroke:#fff;}.cls-11,.cls-6,.cls-7,.cls-9{stroke-miterlimit:10;}.cls-6{stroke-width:3px;}.cls-8{fill:#57150c;}.cls-12,.cls-9{fill:#87c22e;}.cls-11,.cls-13,.cls-15{fill:#767676;}.cls-11{stroke-width:2.21px;}.cls-13,.cls-14,.cls-15,.cls-16{stroke-linecap:round;stroke-linejoin:round;}.cls-13{stroke-width:2.75px;}.cls-14,.cls-15,.cls-16{stroke:#767676;}.cls-14,.cls-16{stroke-width:2.7px;}.cls-15{stroke-width:0.67px;}.cls-17{font-size:22.13px;font-family:MuseoSans-900, MuseoSans 900;}</style></defs><title>Assetleaed 1</title><g id="Layer_2" data-name="Layer 2"><g id="Layer_1-2" data-name="Layer 1"><rect class="cls-1" width="863.62" height="211.88" rx="25.72" ry="25.72"/><text class="cls-2" transform="translate(163.94 136.25)">How many leads who called <tspan x="0" y="22.8">or emailed actually came </tspan><tspan x="0" y="45.6">into the dealership?</tspan></text><text class="cls-3" transform="translate(163.94 66.71)">LEAD-<tspan class="cls-4" x="82.47" y="0">T</tspan><tspan x="99.07" y="0">O-SHOW </tspan><tspan x="0" y="33.6">R</tspan><tspan class="cls-5" x="20.22" y="33.6">A</tspan><tspan x="36.82" y="33.6">TIO:</tspan></text><circle class="cls-6" cx="96.39" cy="74.55" r="44.26"/><polyline class="cls-7" points="56.42 25.39 47.23 25.39 47.23 34.57"/><polyline class="cls-7" points="136.36 123.7 145.55 123.7 145.55 114.52"/><circle class="cls-8" cx="96.39" cy="74.55" r="33.77"/><rect class="cls-9" x="82.34" y="68.53" width="36.64" height="31.4" rx="3.06" ry="3.06"/><path class="cls-10" d="M97.44,86.88a5.8,5.8,0,0,0,3.35,1.45c.7,0,1.47-.28,1.47-1.12,0-1.57-6.36-1.7-6.36-5.91a4.25,4.25,0,0,1,3.74-4.17V75.29h2.13v1.78a6.12,6.12,0,0,1,3.58,1.53l-1.45,2.8a5.34,5.34,0,0,0-3.09-1.23c-.7,0-1.49.31-1.49,1.1,0,1.66,6.36,1.55,6.36,5.87a4.29,4.29,0,0,1-3.92,4.27v1.78H99.63V91.4a7.07,7.07,0,0,1-4-1.92Z"/><circle class="cls-11" cx="80.53" cy="73.81" r="7.39"/><path class="cls-11" d="M73.61,84.22H87.46a2.65,2.65,0,0,1,2.65,2.65v18.89a0,0,0,0,1,0,0H71a0,0,0,0,1,0,0V86.87A2.65,2.65,0,0,1,73.61,84.22Z"/><path class="cls-12" d="M80.53,62.79a.75.75,0,0,1-.53-.22L73.2,55.76a.75.75,0,0,1,.53-1.28h2.53v-8a.75.75,0,0,1,.75-.75h7.06a.75.75,0,0,1,.75.75v8h2.53a.75.75,0,0,1,.53,1.28l-6.81,6.81A.75.75,0,0,1,80.53,62.79Z"/><path class="cls-10" d="M84.06,46.5v8.73h3.28L80.53,62l-6.81-6.81H77V46.5h7.06m3.28,8.73h0M84.06,45H77a1.5,1.5,0,0,0-1.5,1.5v7.23H73.73a1.5,1.5,0,0,0-1.06,2.56l6.81,6.81a1.5,1.5,0,0,0,2.12,0l6.77-6.77a1.5,1.5,0,0,0-1-2.6H85.56V46.5a1.5,1.5,0,0,0-1.5-1.5Z"/><text class="cls-2" transform="translate(574.97 136.25)">How many of those leads <tspan x="0" y="22.8">who came in made a </tspan><tspan x="0" y="45.6">purchase?</tspan></text><text class="cls-3" transform="translate(574.97 66.34)">SHO<tspan class="cls-4" x="60.68" y="0">W</tspan><tspan x="86.6" y="0">-</tspan><tspan class="cls-4" x="95.92" y="0">T</tspan><tspan x="112.52" y="0">O-SALE </tspan><tspan x="0" y="33.6">R</tspan><tspan class="cls-5" x="20.22" y="33.6">A</tspan><tspan x="36.82" y="33.6">TIO:</tspan></text><circle class="cls-6" cx="510.02" cy="74.18" r="44.03"/><polyline class="cls-7" points="470.49 25.1 461.36 25.05 461.31 34.19"/><polyline class="cls-7" points="549.55 123.26 558.69 123.31 558.73 114.17"/><circle class="cls-8" cx="510.02" cy="74.18" r="33.59"/><path class="cls-13" d="M540.18,63a3.08,3.08,0,0,0-2.37-1.1H499l-1.1-6.34a2.55,2.55,0,0,0-2.52-2.12H481.69a2.55,2.55,0,0,0,0,5.11h11.57l5,29.06a7.13,7.13,0,1,0,9.82,8.93h13.67a7.13,7.13,0,1,0,9.85-8.91h2.77a3.09,3.09,0,0,0,3-2.57l3.4-19.54A3.08,3.08,0,0,0,540.18,63ZM521.79,91.45H508.12a7.15,7.15,0,0,0-3.45-3.8h20.57A7.15,7.15,0,0,0,521.79,91.45Z"/><line class="cls-14" x1="501.47" y1="94" x2="528.44" y2="94"/><path class="cls-15" d="M534.42,87H500.79l-4.25-24.45h41.28a2.45,2.45,0,0,1,2.42,2.88L536.83,85A2.45,2.45,0,0,1,534.42,87Z"/><polyline class="cls-16" points="481.7 56.02 495.42 56.02 501.47 90.94"/><circle class="cls-14" cx="501.47" cy="94" r="4.59"/><circle class="cls-14" cx="528.44" cy="94" r="4.59"/><text class="cls-17" transform="translate(510.02 81.95)">$</text></g></g></svg>