<svg xmlns="http://www.w3.org/2000/svg" xmlns:xlink="http://www.w3.org/1999/xlink" viewBox="0 0 1366.59 745.46"><defs><style>.cls-1,.cls-29,.cls-30,.cls-31,.cls-32,.cls-33,.cls-34,.cls-36{fill:none;}.cls-2{isolation:isolate;}.cls-3{fill:url(#Degradado_sin_nombre_82);}.cls-4{fill:#58595b;opacity:0.11;}.cls-35,.cls-4{mix-blend-mode:multiply;}.cls-5{opacity:0.31;fill:url(#Degradado_sin_nombre_78);}.cls-10,.cls-11,.cls-12,.cls-13,.cls-14,.cls-15,.cls-16,.cls-17,.cls-18,.cls-21,.cls-26,.cls-28,.cls-29,.cls-30,.cls-31,.cls-38,.cls-6,.cls-8,.cls-9{stroke:#fff;}.cls-10,.cls-11,.cls-12,.cls-13,.cls-14,.cls-15,.cls-16,.cls-18,.cls-21,.cls-26,.cls-28,.cls-29,.cls-36,.cls-6,.cls-7,.cls-8,.cls-9{stroke-miterlimit:10;}.cls-10,.cls-11,.cls-12,.cls-13,.cls-14,.cls-15,.cls-16,.cls-17,.cls-18,.cls-21,.cls-26,.cls-28,.cls-29,.cls-30,.cls-31,.cls-32,.cls-33,.cls-34,.cls-36,.cls-38,.cls-6,.cls-7,.cls-8,.cls-9{stroke-width:2px;}.cls-6{fill:url(#Degradado_sin_nombre_15);}.cls-17,.cls-20,.cls-38,.cls-39,.cls-7{fill:#fff;}.cls-7{opacity:0.3;stroke:url(#Degradado_sin_nombre_15-2);}.cls-8{fill:url(#Degradado_sin_nombre_15-3);}.cls-9{fill:url(#Degradado_sin_nombre_15-4);}.cls-10{fill:url(#Degradado_sin_nombre_15-5);}.cls-11{fill:url(#Degradado_sin_nombre_15-6);}.cls-12{fill:url(#Degradado_sin_nombre_15-7);}.cls-13{fill:url(#Degradado_sin_nombre_15-8);}.cls-14{fill:url(#Degradado_sin_nombre_15-9);}.cls-15{fill:url(#Degradado_sin_nombre_15-10);}.cls-16{fill:url(#Degradado_sin_nombre_15-11);}.cls-17,.cls-30,.cls-31,.cls-32,.cls-33,.cls-34,.cls-38{stroke-linecap:round;stroke-linejoin:round;}.cls-17,.cls-34{stroke-dasharray:8 15;}.cls-18{fill:url(#Degradado_sin_nombre_15-12);}.cls-19{fill:url(#Degradado_sin_nombre_15-13);}.cls-21{fill:url(#Degradado_sin_nombre_15-14);}.cls-22{fill:url(#Degradado_sin_nombre_15-15);}.cls-23{fill:url(#Degradado_sin_nombre_15-16);}.cls-24{fill:url(#Degradado_sin_nombre_15-17);}.cls-25{clip-path:url(#clip-path);}.cls-26{fill:url(#Degradado_sin_nombre_15-18);}.cls-27{opacity:0.39;}.cls-28{fill:url(#Degradado_sin_nombre_15-19);}.cls-31,.cls-33{stroke-dasharray:7.79 14.6;}.cls-32,.cls-33,.cls-34{stroke:#ccc;}.cls-35{opacity:0.35;}.cls-36{stroke:#000;}.cls-37{fill:url(#Degradado_sin_nombre_15-20);}.cls-38{stroke-dasharray:1 6;opacity:0.4;}.cls-39{opacity:0.2;}</style><linearGradient id="Degradado_sin_nombre_82" x1="651.59" y1="595.23" x2="651.59" y2="-9.82" gradientUnits="userSpaceOnUse"><stop offset="0" stop-color="#0080b1"/><stop offset="0.37" stop-color="#007eaf"/><stop offset="0.57" stop-color="#0078a7"/><stop offset="0.72" stop-color="#006e99"/><stop offset="0.86" stop-color="#006086"/><stop offset="0.98" stop-color="#004e6d"/><stop offset="1" stop-color="#004b69"/></linearGradient><linearGradient id="Degradado_sin_nombre_78" x1="238.09" y1="395.91" x2="1127.74" y2="395.91" gradientUnits="userSpaceOnUse"><stop offset="0.14" stop-color="#fff"/><stop offset="0.7" stop-color="#fff" stop-opacity="0.3"/><stop offset="1" stop-color="#fff" stop-opacity="0"/></linearGradient><linearGradient id="Degradado_sin_nombre_15" x1="135.35" y1="388.86" x2="400.66" y2="388.86" gradientUnits="userSpaceOnUse"><stop offset="0" stop-color="#0080b1"/><stop offset="1" stop-color="#006e99"/></linearGradient><linearGradient id="Degradado_sin_nombre_15-2" x1="162.1" y1="388.46" x2="375.96" y2="388.46" xlink:href="#Degradado_sin_nombre_15"/><linearGradient id="Degradado_sin_nombre_15-3" x1="104.35" y1="390.02" x2="142.18" y2="390.02" xlink:href="#Degradado_sin_nombre_15"/><linearGradient id="Degradado_sin_nombre_15-4" x1="211.53" y1="540.81" x2="344.97" y2="540.81" xlink:href="#Degradado_sin_nombre_15"/><linearGradient id="Degradado_sin_nombre_15-5" x1="187.88" y1="556.46" x2="344.97" y2="556.46" xlink:href="#Degradado_sin_nombre_15"/><linearGradient id="Degradado_sin_nombre_15-6" x1="303.47" y1="209.07" x2="307.88" y2="209.07" gradientTransform="matrix(0.91, -0.41, 0.41, 0.91, -73.72, 143.08)" xlink:href="#Degradado_sin_nombre_15"/><linearGradient id="Degradado_sin_nombre_15-7" x1="300.75" y1="245.33" x2="346.55" y2="245.33" gradientTransform="matrix(0.91, -0.41, 0.41, 0.91, -73.72, 143.08)" xlink:href="#Degradado_sin_nombre_15"/><linearGradient id="Degradado_sin_nombre_15-8" x1="281.69" y1="209.59" x2="316.12" y2="209.59" gradientTransform="matrix(0.91, -0.41, 0.41, 0.91, -73.72, 143.08)" xlink:href="#Degradado_sin_nombre_15"/><linearGradient id="Degradado_sin_nombre_15-9" x1="249.06" y1="224.71" x2="296.9" y2="224.71" gradientTransform="matrix(0.91, -0.41, 0.41, 0.91, -73.72, 143.08)" xlink:href="#Degradado_sin_nombre_15"/><linearGradient id="Degradado_sin_nombre_15-10" x1="244.81" y1="268.7" x2="271.42" y2="268.7" gradientTransform="matrix(0.91, -0.41, 0.41, 0.91, -73.72, 143.08)" xlink:href="#Degradado_sin_nombre_15"/><linearGradient id="Degradado_sin_nombre_15-11" x1="304.63" y1="206.02" x2="312.31" y2="206.02" gradientTransform="matrix(0.91, -0.41, 0.41, 0.91, -73.72, 143.08)" xlink:href="#Degradado_sin_nombre_15"/><linearGradient id="Degradado_sin_nombre_15-12" x1="78.73" y1="291.44" x2="210.56" y2="291.44" xlink:href="#Degradado_sin_nombre_15"/><linearGradient id="Degradado_sin_nombre_15-13" x1="106.76" y1="287" x2="171.99" y2="287" xlink:href="#Degradado_sin_nombre_15"/><linearGradient id="Degradado_sin_nombre_15-14" x1="-91.83" y1="267.25" x2="-43.6" y2="267.25" gradientTransform="matrix(-0.25, 0.97, -0.97, -0.25, 450.71, 457.94)" xlink:href="#Degradado_sin_nombre_15"/><linearGradient id="Degradado_sin_nombre_15-15" x1="309.34" y1="380.23" x2="334.87" y2="380.23" xlink:href="#Degradado_sin_nombre_15"/><linearGradient id="Degradado_sin_nombre_15-16" x1="211.39" y1="410.75" x2="236.93" y2="410.75" xlink:href="#Degradado_sin_nombre_15"/><linearGradient id="Degradado_sin_nombre_15-17" x1="194.04" y1="374.4" x2="364.41" y2="374.4" gradientTransform="translate(-113.1 87) rotate(-17.31)" xlink:href="#Degradado_sin_nombre_15"/><clipPath id="clip-path"><polygon class="cls-1" points="163.19 293.35 177.38 483.54 374.92 456.75 368.09 313.84 163.19 293.35"/></clipPath><linearGradient id="Degradado_sin_nombre_15-18" x1="173.9" y1="449.21" x2="246.91" y2="449.21" gradientTransform="translate(214.73 -46.82) rotate(25.6)" xlink:href="#Degradado_sin_nombre_15"/><linearGradient id="Degradado_sin_nombre_15-19" x1="258.78" y1="461.78" x2="357.37" y2="461.78" xlink:href="#Degradado_sin_nombre_15"/><linearGradient id="Degradado_sin_nombre_15-20" x1="367.51" y1="471.95" x2="433.81" y2="471.95" xlink:href="#Degradado_sin_nombre_15"/></defs><title>Asset 1</title><g class="cls-2"><g id="Layer_2" data-name="Layer 2"><g id="Capa_2" data-name="Capa 2"><rect class="cls-3" x="11.59" y="57.05" width="1280" height="604.21"/></g><g id="Layer_1-2" data-name="Layer 1"><polygon class="cls-4" points="0 618.05 0 661.26 940.05 661.26 426.35 506.92 0 618.05"/><polygon class="cls-5" points="868.21 46.35 392.09 293.69 398.92 475.13 1359.66 745.46 1359.66 46.35 868.21 46.35"/><polygon class="cls-6" points="135.34 268.96 153.73 508.76 400.67 475.13 392.26 293.35 135.34 268.96"/><polygon class="cls-7" points="163.19 293.35 177.38 483.54 374.92 456.75 368.09 313.84 163.19 293.35"/><polygon class="cls-8" points="124.84 271.29 104.35 283.11 120.63 504.56 142.18 508.76 124.84 271.29"/><polygon class="cls-9" points="277.2 529.77 277.2 505.08 211.53 514.01 211.53 553.94 263.54 576.53 344.97 553.94 277.2 529.77"/><polygon class="cls-10" points="199.44 515.06 187.88 518.74 187.88 564.98 259.34 597.86 344.97 572.86 344.97 562.35 261.44 586.52 200.49 559.2 199.44 515.06"/><path class="cls-11" d="M289.71,211.29c1.19-.85,2.22-1.65,3.08-2.39-.08-.15-.16-.3-.24-.46a5.39,5.39,0,0,1-.47-2.34c-1.1.32-2.38.76-3.81,1.34a9,9,0,0,0,1.43,3.85Z"/><path class="cls-12" d="M343.49,239.75l-.79-6.17a22.83,22.83,0,0,0-4.35-9.68l-8.28-8.34c-3.94-4-7.24-4.12-7.24-4.12l-16.72-1.68a9.3,9.3,0,1,0-17.37-6.67,26.43,26.43,0,0,1,5.94-1.51,5.43,5.43,0,1,1,5.05,9.59h0a5.41,5.41,0,0,1-3.86.21c-1.05.93-2.21,1.84-3.37,2.67a9.38,9.38,0,0,0,4,1.41l-5,6.77,4.84,4.78a7.51,7.51,0,0,0,2.53,8.79c4.76,4,9,1.48,9,1.48l24.82,20.84s-2.65,5.79,2.83,9.15,8.25.69,8.25.69l5,3.57,10.71-9.63A82.25,82.25,0,0,0,343.49,239.75Z"/><path class="cls-13" d="M299.84,203.3c-.87-1.57-2.8-2-5.16-1.72a26.44,26.44,0,0,0-5.94,1.51,72,72,0,0,0-9.63,4.46,59.64,59.64,0,0,0-11,7.65l-.45.42a49.09,49.09,0,0,1,6,0,64.46,64.46,0,0,1,7.33-4.7,65.63,65.63,0,0,1,7.28-3.51c1.43-.58,2.7-1,3.81-1.34a14.53,14.53,0,0,1,4-.74,16.29,16.29,0,0,1-3.34,3.54c-.86.74-1.89,1.54-3.08,2.39a67.06,67.06,0,0,1-6.32,4c-1.08.6-2.1,1.13-3.09,1.62a14.1,14.1,0,0,1,4.19,2.2l.78-.43a76.33,76.33,0,0,0,7.23-4.58c1.16-.84,2.31-1.74,3.37-2.67C299,208.65,301.15,205.66,299.84,203.3Z"/><path class="cls-14" d="M280.3,216.86a26.26,26.26,0,0,0-6.63-1.22,49.09,49.09,0,0,0-6,0c-.94.05-1.91.12-2.92.22C230,219.16,247,240.29,248.14,251.28s40.89,7,39.77-4c-.78-7.71,4.89-21.66-3.43-28.18A14.1,14.1,0,0,0,280.3,216.86Zm-5.79,9.42a2.17,2.17,0,0,1-1.82,1.68L258,229.36a2.17,2.17,0,0,1-2.1-1.3l-1-2.48a1.12,1.12,0,0,1,1-1.6l17.77-1.7a1.12,1.12,0,0,1,1.27,1.38Z"/><polygon class="cls-15" points="263.52 282.8 266.14 285.25 264.78 290.64 267.81 294.46 266.17 302.33 271.27 307.56 275.72 307.2 279.77 300.89 276.9 293.54 278.97 289.26 276.6 284.63 278.43 281.13 275.85 258.94 262.07 260.3 263.52 282.8"/><path class="cls-16" d="M290.1,209.59a7.68,7.68,0,0,1,1.2-8.67l3.09-.52s-5.09,2.14-3,8.1Z"/><line class="cls-17" x1="187.88" y1="362.57" x2="11.59" y2="57.05"/><polygon class="cls-18" points="103.75 312.57 78.73 270.99 120.86 246.92 210.56 270.31 193.45 335.96 103.75 312.57"/><path class="cls-19" d="M152.25,306.56a7.34,7.34,0,0,1-1.84-.22,4.72,4.72,0,0,1-3-2.27,4.79,4.79,0,0,1-.52-3.76c.44-1.71,1.71-3.75,5.21-3.79a6.06,6.06,0,0,0,4.65-2l-10.54-2.75c-1.2,2.06-2.26,3.73-3.14,5a14,14,0,0,1-3.8,3.64,12.89,12.89,0,0,1-5.17,2,13.25,13.25,0,0,1-2.08.16,14.78,14.78,0,0,1-3.73-.49,15.1,15.1,0,0,1-6.54-3.58,14.41,14.41,0,0,1-4-6.56,18.34,18.34,0,0,1-.49-7.7l-6.75-1.76a8.26,8.26,0,0,1-2.9-1.21,2.49,2.49,0,0,1-.78-2.81,2.71,2.71,0,0,1,1.72-2.06,3.42,3.42,0,0,1,1.1-.17,6.65,6.65,0,0,1,1.67.24l7.41,1.93a20.39,20.39,0,0,1,3.15-5.28,16.38,16.38,0,0,1,4.65-3.87,14.83,14.83,0,0,1,5-1.72,13.42,13.42,0,0,1,1.84-.13,11.25,11.25,0,0,1,2.83.35,4.81,4.81,0,0,1,3,2.29,5,5,0,0,1,.54,3.94,5.18,5.18,0,0,1-1.56,2.66,4.42,4.42,0,0,1-2.76,1.09,39.33,39.33,0,0,0-4.09.42,6.69,6.69,0,0,0-2.53,1.06,6.48,6.48,0,0,0-1.48,1.41l12.13,3.16a38.28,38.28,0,0,1,4-5.7,13,13,0,0,1,5.55-3.72,10.94,10.94,0,0,1,3.58-.57,16.18,16.18,0,0,1,4.05.56,13.12,13.12,0,0,1,8.37,6.06c1.66,2.81,2.21,6.33,1.65,10.48l2.37.62c3.19.83,3,2.95,2.78,3.82a2.76,2.76,0,0,1-2.86,2.22,5.55,5.55,0,0,1-1.38-.2l-2.45-.64a19.9,19.9,0,0,1-2.63,4.69,12.5,12.5,0,0,1-4.48,3.57,14.46,14.46,0,0,1-4,1.37A10.67,10.67,0,0,1,152.25,306.56ZM125.4,286.38a7.07,7.07,0,0,0,1.08,3.58,5.48,5.48,0,0,0,3.32,2.4,6.14,6.14,0,0,0,1.54.21h0a3.82,3.82,0,0,0,2.19-.64,11,11,0,0,0,2.66-2.73Zm33.13,2.42a8.62,8.62,0,0,0-.77-2.77,4,4,0,0,0-2.78-1.91,5.88,5.88,0,0,0-1.47-.21,3.12,3.12,0,0,0-1.74.47,9.63,9.63,0,0,0-2.17,2.08Z"/><path class="cls-20" d="M133.44,268.45a10.19,10.19,0,0,1,2.58.32,3.83,3.83,0,0,1,2.35,1.84,4,4,0,0,1,.43,3.17,4.19,4.19,0,0,1-1.25,2.16,3.42,3.42,0,0,1-2.15.85,40,40,0,0,0-4.22.44,7.64,7.64,0,0,0-2.92,1.22,8.55,8.55,0,0,0-2.54,2.85L140,285a38.59,38.59,0,0,1,4.31-6.2,11.92,11.92,0,0,1,5.13-3.43,9.9,9.9,0,0,1,3.26-.52,15.11,15.11,0,0,1,3.8.53,12.11,12.11,0,0,1,7.76,5.6q2.49,4.23,1.39,10.71l3.24.85q2.57.67,2.07,2.6a1.78,1.78,0,0,1-1.89,1.47,4.53,4.53,0,0,1-1.13-.16l-3.31-.86a19.79,19.79,0,0,1-2.81,5.26,11.45,11.45,0,0,1-4.13,3.29,13.45,13.45,0,0,1-3.77,1.29,9.65,9.65,0,0,1-1.63.15,6.29,6.29,0,0,1-1.59-.19,3.74,3.74,0,0,1-2.36-1.81,3.81,3.81,0,0,1-.41-3q.78-3,4.26-3A7.17,7.17,0,0,0,158.5,294l-12.73-3.32q-2,3.52-3.47,5.55a12.94,12.94,0,0,1-3.53,3.38,11.85,11.85,0,0,1-4.79,1.87,12.21,12.21,0,0,1-1.92.15,13.74,13.74,0,0,1-3.47-.46,14,14,0,0,1-6.11-3.34,13.37,13.37,0,0,1-3.72-6.12,17.72,17.72,0,0,1-.32-8.16l-7.62-2a7.45,7.45,0,0,1-2.54-1,1.54,1.54,0,0,1-.42-1.76,1.77,1.77,0,0,1,1.08-1.37,2.42,2.42,0,0,1,.78-.11,5.74,5.74,0,0,1,1.42.21l8.26,2.15a20,20,0,0,1,3.31-5.82,15.31,15.31,0,0,1,4.36-3.63,13.77,13.77,0,0,1,4.67-1.61,12.32,12.32,0,0,1,1.7-.12m26.2,21.68a11,11,0,0,0-1-4.54,4.93,4.93,0,0,0-3.42-2.43,6.85,6.85,0,0,0-1.72-.24,4.13,4.13,0,0,0-2.28.63,12.79,12.79,0,0,0-3.32,3.51l11.72,3.06m-28.29,3.45a4.83,4.83,0,0,0,2.75-.81,13.77,13.77,0,0,0,3.72-4.18l-13.4-3.49a8.68,8.68,0,0,0,1.23,5.42,6.5,6.5,0,0,0,3.91,2.82,7.12,7.12,0,0,0,1.79.25m2.09-27.13a14.37,14.37,0,0,0-2,.14,15.82,15.82,0,0,0-5.35,1.83,17.37,17.37,0,0,0-4.94,4.1,20.78,20.78,0,0,0-3,4.74l-6.59-1.72a7.62,7.62,0,0,0-1.92-.28,4.41,4.41,0,0,0-1.42.22,3.7,3.7,0,0,0-2.37,2.76,3.48,3.48,0,0,0,1.14,3.85,9,9,0,0,0,3.26,1.39l5.91,1.54a18.91,18.91,0,0,0,.63,7.24,15.4,15.4,0,0,0,4.27,7,16.09,16.09,0,0,0,7,3.81,15.8,15.8,0,0,0,4,.53,14.27,14.27,0,0,0,2.23-.18,13.89,13.89,0,0,0,5.59-2.19,14.94,14.94,0,0,0,4-3.88c.81-1.13,1.75-2.6,2.81-4.39l7.82,2a5.53,5.53,0,0,1-2.41.5c-3.24,0-5.43,1.65-6.19,4.54a5.83,5.83,0,0,0,.62,4.52,5.76,5.76,0,0,0,3.58,2.73,8.32,8.32,0,0,0,2.1.25,11.7,11.7,0,0,0,2-.18,15.5,15.5,0,0,0,4.33-1.48,13.44,13.44,0,0,0,4.8-3.84,20,20,0,0,0,2.42-4.12l1.61.42a6.54,6.54,0,0,0,1.64.23,4,4,0,0,0,3.19-6.33,5.15,5.15,0,0,0-2.86-1.67l-1.53-.4A16.53,16.53,0,0,0,165.93,280a14.09,14.09,0,0,0-9-6.52,17.18,17.18,0,0,0-4.31-.59,11.93,11.93,0,0,0-3.91.63,14,14,0,0,0-6,4,37.71,37.71,0,0,0-3.76,5.21l-9.71-2.53.08-.05a5.7,5.7,0,0,1,2.15-.91,38.38,38.38,0,0,1,4-.41,5.37,5.37,0,0,0,3.34-1.34,6.16,6.16,0,0,0,1.87-3.16,6,6,0,0,0-.65-4.71,5.86,5.86,0,0,0-3.56-2.74,12.23,12.23,0,0,0-3.08-.39Zm18,19.48a6.07,6.07,0,0,1,.86-.69,2.16,2.16,0,0,1,1.2-.32,4.9,4.9,0,0,1,1.22.18c1.66.43,2,1.15,2.13,1.38a5.88,5.88,0,0,1,.37,1l-5.79-1.51Zm-20.11,5.65a5.16,5.16,0,0,1-1.29-.18,4.52,4.52,0,0,1-2.74-2,5.34,5.34,0,0,1-.72-1.69l7.86,2.05A8,8,0,0,1,133,291.1a2.85,2.85,0,0,1-1.64.47Z"/><path class="cls-21" d="M183.83,298.39a3.81,3.81,0,0,1,3.93-2.84c1.16.07,28.49,2,41.7,20.26,7,9.73,8.67,22.08,4.86,36.72a3.81,3.81,0,1,1-7.38-1.92c3.21-12.33,2-22.53-3.66-30.32-11.13-15.38-35.76-17.1-36-17.12a3.81,3.81,0,0,1-3.45-4.77Z"/><path class="cls-22" d="M322.1,393a12.78,12.78,0,1,1,3.8-.58,12.71,12.71,0,0,1-3.8.58Z"/><path class="cls-20" d="M322.11,368.46a11.77,11.77,0,1,1-3.5.54,11.77,11.77,0,0,1,3.5-.54m0-2a13.77,13.77,0,1,0,13.14,9.67,13.76,13.76,0,0,0-13.14-9.67Z"/><path class="cls-23" d="M224.16,423.51a12.78,12.78,0,1,1,3.8-.58,12.71,12.71,0,0,1-3.8.58Z"/><path class="cls-20" d="M224.16,399a11.77,11.77,0,1,1-3.5.54,11.77,11.77,0,0,1,3.5-.54m0-2a13.77,13.77,0,1,0,13.14,9.67A13.76,13.76,0,0,0,224.16,397Z"/><path class="cls-24" d="M201.87,418.16c-12.15,0-15.16-19.44-15.55-35.75-.21-8.65,4.35-16.61,8.76-24.31.88-1.53,1.74-3,2.57-4.56A32.26,32.26,0,0,1,211,340.39l.06,0,51.57-16.07a25.65,25.65,0,0,1,7.63-1.11c12.38,0,25.15,7.65,31.67,12.21a11.79,11.79,0,0,0,6.91,2,16.27,16.27,0,0,0,4.3-.57c.18-.06,5.48-1.91,19.56-2.44l1,0c13.19,0,15.23,10.27,15.42,11.45l4.78,15.34c1.06,3.39.92,6.21-.4,8.39a8,8,0,0,1-5,3.5l-8.38,2.61-.31-.94c-.18-.54-4.49-13.29-16.82-13.29a21.87,21.87,0,0,0-6.47,1.06c-5.15,1.6-8.79,4.4-10.81,8.31-3.52,6.8-1,14.75-1,14.83l.31,1-61.73,19.23-.34-.88c-.19-.51-4.89-12.41-17.27-12.41a23.41,23.41,0,0,0-6.93,1.13c-17.51,5.46-12.64,21.93-12.43,22.63l.29,1-1,.3a13.1,13.1,0,0,1-3.88.63Z"/><path class="cls-20" d="M270.29,324.19c13.11,0,26.68,8.94,31.09,12a12.94,12.94,0,0,0,7.48,2.16,17,17,0,0,0,4.59-.61s5.21-1.87,19.3-2.39l.95,0c13.19,0,14.45,10.68,14.45,10.68l4.8,15.41c2.88,9.24-4.66,10.63-4.66,10.63l-7.48,2.33s-4.54-14-17.77-14a22.74,22.74,0,0,0-6.77,1.11c-18.49,5.76-12.44,24.4-12.44,24.4L244,404.58s-5-13.06-18.2-13.05a24.28,24.28,0,0,0-7.23,1.18c-18.71,5.83-13.08,23.88-13.08,23.88a12,12,0,0,1-3.59.59c-12.94,0-14.33-25.5-14.55-34.78-.24-10.07,6.29-19.34,11.2-28.36a31.51,31.51,0,0,1,12.94-12.72l51.5-16a24.58,24.58,0,0,1,7.34-1.06m0-2v0a26.65,26.65,0,0,0-7.93,1.15l-51.5,16-.12,0-.12.05a33.35,33.35,0,0,0-13.85,13.58c-.82,1.5-1.7,3-2.56,4.54-4.47,7.81-9.1,15.9-8.89,24.83.57,24,6.29,36.73,16.55,36.73a14.11,14.11,0,0,0,4.18-.68l1.91-.6-.59-1.91c-.2-.66-4.76-16.22,11.77-21.37a22.42,22.42,0,0,1,6.64-1.09c11.67,0,16.15,11.29,16.33,11.77l.67,1.75,1.79-.55,59.87-18.65,1.93-.6-.62-1.92c0-.07-2.4-7.69.93-14.09,1.9-3.65,5.33-6.26,10.2-7.78a20.87,20.87,0,0,1,6.18-1c11.64,0,15.82,12.47,15.86,12.6l.61,1.88,1.89-.59,7.4-2.31a9.1,9.1,0,0,0,5.56-3.95c1.47-2.44,1.64-5.53.49-9.21l-4.76-15.28c-.3-1.71-2.73-12.21-16.39-12.21l-1,0c-13.6.51-19.17,2.26-19.84,2.49a15.44,15.44,0,0,1-4,.52,10.82,10.82,0,0,1-6.33-1.8c-6.61-4.63-19.59-12.39-32.24-12.39Z"/><path class="cls-20" d="M248.11,337.48a.29.29,0,0,1,.27.2L253.45,354a.28.28,0,0,1-.19.36l-33.77,10.52h-.08a.29.29,0,0,1-.27-.2l-5-15.94a.27.27,0,0,1,.1-.32,22.09,22.09,0,0,1,4.6-1.82l.14,0,29-9h.09m0-2a2.28,2.28,0,0,0-.68.1l-29,9a23.76,23.76,0,0,0-5.08,2,2.26,2.26,0,0,0-1.07,2.68l5,15.94a2.28,2.28,0,0,0,2.86,1.5l33.77-10.52a2.28,2.28,0,0,0,1.5-2.86l-5.07-16.27a2.28,2.28,0,0,0-2.18-1.61Z"/><path class="cls-20" d="M208.39,354.26a.3.3,0,0,1,.3.2l3.82,12.25a.28.28,0,0,1-.19.36l-12.2,3.8-.1,0a.29.29,0,0,1-.23-.15.25.25,0,0,1,0-.27l8.35-15.9.07-.16,0-.06s0-.08.15-.08m0-2a2.11,2.11,0,0,0-2,1.33l0,0L198,369.54a2.29,2.29,0,0,0,2,3.35,2.34,2.34,0,0,0,.7-.11l12.2-3.8a2.28,2.28,0,0,0,1.5-2.86l-3.82-12.25a2.29,2.29,0,0,0-2.21-1.61Z"/><path class="cls-20" d="M270.83,331h0a33.31,33.31,0,0,1,8.1,1.39c5.37,1.4,12.32,5.88,16,8.42a.25.25,0,0,1,.12.27.26.26,0,0,1-.2.23l-34.41,10.72h-.08a.29.29,0,0,1-.27-.2L255,335.62a.28.28,0,0,1,.19-.36l9.37-2.92a19.74,19.74,0,0,1,6.27-1.3m0-2a21.55,21.55,0,0,0-6.87,1.39l-9.37,2.92a2.28,2.28,0,0,0-1.5,2.86l5.07,16.27A2.28,2.28,0,0,0,261,354l34.41-10.72a2.28,2.28,0,0,0,.63-4.05c-4.17-2.89-11.09-7.26-16.62-8.71a34.93,34.93,0,0,0-8.61-1.46Z"/><circle class="cls-20" cx="322.1" cy="380.23" r="3" transform="translate(-98.53 113.04) rotate(-17.31)"/><circle class="cls-20" cx="224.16" cy="410.75" r="3" transform="translate(-112.04 85.28) rotate(-17.31)"/><g class="cls-25"><rect class="cls-26" x="176.62" y="435.24" width="67.57" height="27.94" transform="translate(-173.43 134.99) rotate(-25.6)"/><g class="cls-27"><path class="cls-20" d="M187.5,463.95a6.11,6.11,0,0,0,4.27-.34c.73-.35,1.68-1.2,1.19-2.22-.77-1.6-6.66.72-8.68-3.5-1.44-3,.56-6.12,3.4-7.48,3.58-1.72,6.05-.72,6.05-.72L193,453.4a6.24,6.24,0,0,0-3.78.48c-.75.36-1.69,1.28-1.24,2.22.81,1.68,6.67-.81,8.72,3.48,1.26,2.62-.1,5.92-3.39,7.5a8.57,8.57,0,0,1-6.8.58Z"/><path class="cls-20" d="M199.42,445.1l4.29-2.05,9.42,14.24-3.73,1.79-1.85-3-4.76,2.28v3.94l-4,1.91Zm6.39,8.08-1.72-2.82c-.55-.92-1.38-2.56-1.38-2.56l0,0s.18,2,.17,3.15l0,3.66Z"/><path class="cls-20" d="M210.49,439.79l3.73-1.79,3.43,13.18,6.23-3,.89,3.51-9.94,4.76Z"/><path class="cls-20" d="M222.44,434.07,232,429.5l.91,3.5-5.82,2.79.8,3,4.63-2.22.89,3.51-4.63,2.22.83,3.15,6.12-2.93.91,3.5-9.86,4.72Z"/></g><polygon class="cls-28" points="262.08 437.48 258.78 452.5 299.96 516.92 357.37 480.23 310.33 406.64 262.08 437.48"/><polyline class="cls-29" points="262.08 437.48 267.94 446.64 258.78 452.5"/><circle class="cls-29" cx="331.24" cy="478.01" r="6.79" transform="translate(-205.3 253.65) rotate(-32.59)"/><line class="cls-29" x1="272.77" y1="454.2" x2="288.72" y2="444"/><line class="cls-29" x1="276.43" y1="459.92" x2="315.51" y2="434.94"/><line class="cls-29" x1="279.5" y1="464.73" x2="318.59" y2="439.75"/><line class="cls-29" x1="282.58" y1="469.54" x2="321.66" y2="444.56"/><line class="cls-29" x1="285.65" y1="474.35" x2="324.74" y2="449.37"/><line class="cls-29" x1="288.72" y1="479.16" x2="327.81" y2="454.18"/><line class="cls-29" x1="291.8" y1="483.97" x2="330.88" y2="458.99"/></g><line class="cls-20" x1="303.06" y1="333.76" x2="580.46" y2="144.21"/><line class="cls-30" x1="303.06" y1="333.76" x2="306.36" y2="331.51"/><line class="cls-31" x1="318.41" y1="323.27" x2="571.13" y2="150.58"/><line class="cls-30" x1="577.16" y1="146.46" x2="580.46" y2="144.21"/><line class="cls-17" x1="425.52" y1="208.59" x2="577.21" y2="57.05"/><line class="cls-32" x1="1082.26" y1="317.05" x2="1085.57" y2="314.8"/><line class="cls-33" x1="1097.62" y1="306.56" x2="1350.33" y2="133.87"/><line class="cls-32" x1="1356.36" y1="129.76" x2="1359.66" y2="127.5"/><line class="cls-34" x1="1210.91" y1="152.54" x2="1362.6" y2="1"/><line class="cls-34" x1="1172.26" y1="483.54" x2="1365.59" y2="576.28"/><line class="cls-17" x1="219.71" y1="192.04" x2="190.56" y2="39.71"/><g class="cls-35"><path d="M362.44,443a12.4,12.4,0,0,0,1.06.73L421,475.22c.35.19.72.36,1,.58a1.32,1.32,0,0,1-.12,2.46c-.28.15-.58.26-.88.39l-13.89,6c.35.4.62.72.91,1l17.8,18.86c1.3,1.38,1.29,1.74-.05,3.06l-6.45,6.28c-1.32,1.28-1.76,1.27-3-.12l-17.43-19c-.29-.32-.6-.63-1-1-.28.41-.52.75-.74,1.1q-4,6.43-8,12.86c-.45.73-.82,1.86-1.85,1.54a3.17,3.17,0,0,1-1.5-1.78q-12.35-30.53-24.64-61.1c-.19-.47-.46-.91-.69-1.36V443Z"/><path class="cls-36" d="M362.44,443a12.4,12.4,0,0,0,1.06.73L421,475.22c.35.19.72.36,1,.58a1.32,1.32,0,0,1-.12,2.46c-.28.15-.58.26-.88.39l-13.89,6c.35.4.62.72.91,1l17.8,18.86c1.3,1.38,1.29,1.74-.05,3.06l-6.45,6.28c-1.32,1.28-1.76,1.27-3-.12l-17.43-19c-.29-.32-.6-.63-1-1-.28.41-.52.75-.74,1.1q-4,6.43-8,12.86c-.45.73-.82,1.86-1.85,1.54a3.17,3.17,0,0,1-1.5-1.78q-12.35-30.53-24.64-61.1c-.19-.47-.46-.91-.69-1.36V443Z"/></g><path class="cls-37" d="M369.44,436a12.4,12.4,0,0,0,1.06.73L428,468.22c.35.19.72.36,1,.58a1.32,1.32,0,0,1-.12,2.46c-.28.15-.58.26-.88.39l-13.89,6c.35.4.62.72.91,1l17.8,18.86c1.3,1.38,1.29,1.74-.05,3.06l-6.45,6.28c-1.32,1.28-1.76,1.27-3-.12l-17.43-19c-.29-.32-.6-.63-1-1-.28.41-.52.75-.74,1.1q-4,6.43-8,12.86c-.45.73-.82,1.86-1.85,1.54a3.17,3.17,0,0,1-1.5-1.78q-12.35-30.53-24.64-61.1c-.19-.47-.46-.91-.69-1.36V436Z"/><path class="cls-29" d="M369.44,436a12.4,12.4,0,0,0,1.06.73L428,468.22c.35.19.72.36,1,.58a1.32,1.32,0,0,1-.12,2.46c-.28.15-.58.26-.88.39l-13.89,6c.35.4.62.72.91,1l17.8,18.86c1.3,1.38,1.29,1.74-.05,3.06l-6.45,6.28c-1.32,1.28-1.76,1.27-3-.12l-17.43-19c-.29-.32-.6-.63-1-1-.28.41-.52.75-.74,1.1q-4,6.43-8,12.86c-.45.73-.82,1.86-1.85,1.54a3.17,3.17,0,0,1-1.5-1.78q-12.35-30.53-24.64-61.1c-.19-.47-.46-.91-.69-1.36V436Z"/><line class="cls-38" x1="471.05" y1="196.9" x2="553.05" y2="132.82"/><line class="cls-38" x1="190.56" y1="173.71" x2="210.01" y2="242.37"/><line class="cls-38" x1="3.71" y1="95.04" x2="48.38" y2="164.86"/><line class="cls-38" x1="1321.66" y1="121.87" x2="1251.84" y2="166.54"/><line class="cls-38" x1="1321.66" y1="612.97" x2="1187.28" y2="516.67"/><line class="cls-38" x1="219.71" y1="52.37" x2="227.05" y2="102.37"/><circle class="cls-39" cx="400.66" cy="215.54" r="4.25"/><circle class="cls-39" cx="183.7" cy="157.3" r="4.25"/><circle class="cls-39" cx="177.7" cy="248.85" r="4.25"/><circle class="cls-39" cx="362.55" cy="77.37" r="4.25"/></g></g></g></svg>