<svg xmlns="http://www.w3.org/2000/svg" viewBox="0 0 259.54 201.6"><defs><style>.cls-1{isolation:isolate;}.cls-2,.cls-4{fill:#2f9622;}.cls-2{stroke:#fff;stroke-linecap:round;stroke-linejoin:round;stroke-width:2px;}.cls-3{opacity:0.46;font-size:32.01px;font-family:HelveticaNeueLTPro-BdExO, HelveticaNeueLTPro BdExO;}.cls-3,.cls-5{fill:#fff;}.cls-6{opacity:0.27;mix-blend-mode:multiply;}.cls-7{fill:#5d9632;}</style></defs><title>pod</title><g class="cls-1"><g id="Layer_2" data-name="Layer 2"><g id="Layer_1-2" data-name="Layer 1"><polygon class="cls-2" points="158.68 83.6 158.68 35.6 121.68 35.6 121.68 58.6 86.68 58.6 86.68 128.6 121.55 128.6 123.15 128.6 155.43 128.6 158.9 128.6 191.68 128.6 191.68 83.6 158.68 83.6"/><path class="cls-2" d="M19.91,149.39s89.32-61.69,229.48-1.33"/><text class="cls-3" transform="translate(129.18 71.26)">1</text><text class="cls-3" transform="translate(92.1 92.07)">2</text><text class="cls-3" transform="translate(156.93 116.08)">3</text><path class="cls-4" d="M135.49,24.65a2,2,0,0,1-1.62-.83,2,2,0,0,1-.28-1.77l2-6.19L130.36,12a2,2,0,0,1,1.18-3.58H138l2-6.07a2,2,0,0,1,3.78,0l2,6.08h6.42A2,2,0,0,1,153.28,12l-5.23,3.86,2,6.13a2,2,0,0,1-.28,1.77,2,2,0,0,1-1.62.83,2,2,0,0,1-1.16-.38l-5.18-3.75-5.16,3.77A2,2,0,0,1,135.49,24.65Z"/><path class="cls-5" d="M141.82,2a1,1,0,0,1,.94.68l2,6.08a1,1,0,0,0,.94.68h6.43a1,1,0,0,1,.59,1.78l-5.23,3.86a1,1,0,0,0-.35,1.1l2,6.15a1,1,0,0,1-.94,1.29,1,1,0,0,1-.57-.19l-5.18-3.75a1,1,0,0,0-1.16,0l-5.18,3.77a1,1,0,0,1-.58.19,1,1,0,0,1-.94-1.29l2-6.19a1,1,0,0,0-.35-1.09L131,11.22a1,1,0,0,1,.59-1.78H138a1,1,0,0,0,.94-.68l2-6.08a1,1,0,0,1,.94-.68m0-2A3,3,0,0,0,139,2.06l-1.75,5.38h-5.69a3,3,0,0,0-1.77,5.39l4.64,3.42-1.77,5.49a3,3,0,0,0,.42,2.67,3,3,0,0,0,2.42,1.24,3,3,0,0,0,1.75-.58l4.59-3.34L146.41,25a3,3,0,0,0,1.75.57,3,3,0,0,0,2.42-1.24,3,3,0,0,0,.42-2.67l-1.76-5.46,4.64-3.43a3,3,0,0,0-1.77-5.39h-5.69l-1.75-5.38A3,3,0,0,0,141.82,0Z"/><path class="cls-4" d="M31.23,123a1,1,0,0,1-1-.73l-5.86-20.84a1,1,0,0,1,.69-1.23l10.74-3a1,1,0,0,1,.27,0,1,1,0,0,1,1,.73l5.86,20.84a1,1,0,0,1-.69,1.23L31.5,123A1,1,0,0,1,31.23,123Z"/><path class="cls-5" d="M36.12,98.17,42,119l-10.74,3-5.86-20.84,10.74-3m0-2a2,2,0,0,0-.54.08l-10.74,3a2,2,0,0,0-1.38,2.47l5.86,20.84A2,2,0,0,0,31.77,124l10.74-3a2,2,0,0,0,1.38-2.47L38,97.63a2,2,0,0,0-1.92-1.46Z"/><circle class="cls-2" cx="33.68" cy="110.1" r="3.45" transform="translate(-28.54 13.22) rotate(-15.7)"/><path class="cls-4" d="M61.47,35.37a1,1,0,0,1-.61-.21L52,28.33a1,1,0,0,1-.18-1.4L65.1,9.81a1,1,0,0,1,1.4-.18l8.83,6.83a1,1,0,0,1,.18,1.4L62.26,35A1,1,0,0,1,61.47,35.37Z"/><path class="cls-5" d="M65.89,10.42l8.83,6.83L61.47,34.37l-8.83-6.83L65.89,10.42m0-2-.25,0a2,2,0,0,0-1.33.76L51.06,26.31a2,2,0,0,0,.36,2.81l8.83,6.83a2,2,0,0,0,1.22.42l.25,0A2,2,0,0,0,63,35.59L76.3,18.47a2,2,0,0,0-.36-2.81L67.11,8.84a2,2,0,0,0-1.22-.42Z"/><circle class="cls-2" cx="63.68" cy="22.39" r="3.45" transform="translate(7 59.04) rotate(-52.26)"/><path class="cls-4" d="M7.86,39.88a1,1,0,0,1-1-.73L1,18.31a1,1,0,0,1,.69-1.23l10.74-3a1,1,0,0,1,.27,0,1,1,0,0,1,1,.73l5.86,20.84a1,1,0,0,1-.69,1.23l-10.74,3A1,1,0,0,1,7.86,39.88Z"/><path class="cls-5" d="M12.74,15,18.6,35.86l-10.74,3L2,18l10.74-3m0-2a2,2,0,0,0-.54.08l-10.74,3A2,2,0,0,0,.07,18.58L5.93,39.42A2,2,0,0,0,8.4,40.8l10.74-3a2,2,0,0,0,1.38-2.47L14.67,14.48A2,2,0,0,0,12.74,13Z"/><circle class="cls-2" cx="10.3" cy="26.95" r="3.45" transform="translate(-6.91 3.79) rotate(-15.7)"/><path class="cls-4" d="M24,81a1,1,0,0,1-.63-.23L6.59,67.1a1,1,0,0,1-.14-1.41l7.07-8.64a1,1,0,0,1,.67-.36h.1a1,1,0,0,1,.63.23L31.67,70.62A1,1,0,0,1,31.81,72l-7.07,8.64a1,1,0,0,1-.67.36Z"/><path class="cls-5" d="M14.29,57.69,31,71.4,24,80,7.22,66.32l7.07-8.64m0-2a2,2,0,0,0-1.55.73L5.67,65.06A2,2,0,0,0,6,67.87L22.7,81.58A2,2,0,0,0,24,82h.2a2,2,0,0,0,1.35-.72l7.07-8.64a2,2,0,0,0-.28-2.81L15.56,56.14a2,2,0,0,0-1.27-.45Z"/><circle class="cls-2" cx="19.13" cy="68.86" r="3.45" transform="translate(-46.27 40.05) rotate(-50.7)"/><path class="cls-4" d="M58,87.19a1,1,0,0,1-.45-.11l-10-5a1,1,0,0,1-.44-1.34l9.75-19.32a1,1,0,0,1,.58-.5,1,1,0,0,1,.31,0,1,1,0,0,1,.45.11l10,5a1,1,0,0,1,.44,1.34L58.92,86.64A1,1,0,0,1,58,87.19Z"/><path class="cls-5" d="M57.81,61.84l10,5L58,86.2l-10-5,9.75-19.32m0-2A2,2,0,0,0,56,60.94L46.28,80.27A2,2,0,0,0,47.16,83l10,5a2,2,0,0,0,2.69-.88l9.75-19.32a2,2,0,0,0-.88-2.69l-10-5a2,2,0,0,0-.9-.21Z"/><circle class="cls-2" cx="57.92" cy="74.02" r="3.45" transform="translate(-34.25 92.39) rotate(-63.23)"/><path class="cls-4" d="M228.31,123a1,1,0,0,1-.27,0l-10.74-3a1,1,0,0,1-.69-1.23l5.86-20.84a1,1,0,0,1,1-.73,1,1,0,0,1,.27,0l10.74,3a1,1,0,0,1,.69,1.23l-5.86,20.84A1,1,0,0,1,228.31,123Z"/><path class="cls-5" d="M223.42,98.17l10.74,3L228.3,122l-10.74-3,5.86-20.84m0-2a2,2,0,0,0-1.92,1.46l-5.86,20.84a2,2,0,0,0,1.38,2.47l10.74,3a2,2,0,0,0,2.47-1.38l5.86-20.84a2,2,0,0,0-1.38-2.47l-10.74-3a2,2,0,0,0-.54-.08Z"/><circle class="cls-2" cx="225.86" cy="110.1" r="3.45" transform="translate(58.75 297.73) rotate(-74.3)"/><path class="cls-4" d="M198.07,35.37a1,1,0,0,1-.79-.39L184,17.86a1,1,0,0,1,.18-1.4L193,9.63a1,1,0,0,1,1.4.18l13.25,17.12a1,1,0,0,1-.18,1.4l-8.83,6.83A1,1,0,0,1,198.07,35.37Z"/><path class="cls-5" d="M193.65,10.42l13.25,17.12-8.83,6.83L184.82,17.25l8.83-6.83m0-2a2,2,0,0,0-1.22.42l-8.83,6.83a2,2,0,0,0-.36,2.81l13.25,17.12a2,2,0,0,0,1.33.76l.25,0a2,2,0,0,0,1.22-.42l8.83-6.83a2,2,0,0,0,.36-2.81L195.23,9.19a2,2,0,0,0-1.33-.76l-.25,0Z"/><circle class="cls-2" cx="195.86" cy="22.39" r="3.45" transform="translate(27.27 124.56) rotate(-37.74)"/><path class="cls-4" d="M251.68,39.88a1,1,0,0,1-.27,0l-10.74-3a1,1,0,0,1-.69-1.23l5.86-20.84a1,1,0,0,1,1-.73,1,1,0,0,1,.27,0l10.74,3a1,1,0,0,1,.69,1.23l-5.86,20.84a1,1,0,0,1-1,.73Z"/><path class="cls-5" d="M246.79,15l10.74,3-5.86,20.84-10.74-3L246.79,15m0-2a2,2,0,0,0-1.92,1.46L239,35.32a2,2,0,0,0,1.38,2.47l10.74,3a2,2,0,0,0,2.47-1.38l5.86-20.84a2,2,0,0,0-1.38-2.47l-10.74-3a2,2,0,0,0-.54-.08Z"/><circle class="cls-2" cx="249.24" cy="26.95" r="3.45" transform="translate(155.84 259.59) rotate(-74.3)"/><path class="cls-4" d="M235.47,81a1,1,0,0,1-.67-.36L227.73,72a1,1,0,0,1,.14-1.41l16.75-13.71a1,1,0,0,1,.63-.23h.1a1,1,0,0,1,.67.36l7.07,8.64A1,1,0,0,1,253,67.1L236.2,80.81a1,1,0,0,1-.63.23Z"/><path class="cls-5" d="M245.25,57.69l7.07,8.64L235.57,80,228.5,71.4l16.75-13.71m0-2a2,2,0,0,0-1.27.45L227.23,69.85a2,2,0,0,0-.28,2.81L234,81.3a2,2,0,0,0,1.35.72h.2a2,2,0,0,0,1.27-.45l16.75-13.71a2,2,0,0,0,.28-2.81l-7.07-8.64a2,2,0,0,0-1.55-.73Z"/><circle class="cls-2" cx="240.41" cy="68.86" r="3.45" transform="translate(10.76 167.84) rotate(-39.3)"/><path class="cls-4" d="M205.8,68.87h-.14l-21.44-3a1,1,0,0,1-.85-1.13l1.55-11.05a1,1,0,0,1,1-.86h.14l21.44,3a1,1,0,0,1,.85,1.13L206.79,68A1,1,0,0,1,205.8,68.87Z"/><path class="cls-5" d="M185.91,53.82l21.44,3L205.8,67.87l-21.43-3,1.55-11.05m0-2a2,2,0,0,0-2,1.72l-1.55,11.05a2,2,0,0,0,1.7,2.26l21.43,3,.28,0a2,2,0,0,0,2-1.72l1.55-11.05a2,2,0,0,0-1.7-2.26l-21.44-3-.28,0Z"/><circle class="cls-2" cx="195.86" cy="60.84" r="3.45" transform="translate(108.45 246.38) rotate(-82.03)"/><g class="cls-6"><path class="cls-7" d="M43.17,158.76v9.79c0,8.36,5.51,10.61,21,10.61h32c27.34,0,31.42,11.63,34.07,14.28,1.63-2.65,5.71-14.28,33-14.28h32c15.5,0,21-2.24,21-10.61v-9.79h6.73V169c0,11.42-5.51,18-24.07,18H166.59c-16.52,0-32.44,2.65-33,14.69h-7.75c-.61-12-16.52-14.69-33-14.69H60.51c-18.56,0-24.07-6.53-24.07-18v-10.2Z"/></g></g></g></g></svg>