<svg xmlns="http://www.w3.org/2000/svg" xmlns:xlink="http://www.w3.org/1999/xlink" viewBox="0 0 1280 1250.13"><defs><style>.cls-1{isolation:isolate;}.cls-2{fill:url(#Degradado_sin_nombre_190);}.cls-3{opacity:0.2;mix-blend-mode:multiply;}.cls-4{fill:#007cc0;}.cls-5{fill:#fff;}</style><linearGradient id="Degradado_sin_nombre_190" x1="640" y1="1246.75" x2="640" y2="95.28" gradientUnits="userSpaceOnUse"><stop offset="0" stop-color="#bf3019"/><stop offset="0.33" stop-color="#bc2f19"/><stop offset="0.58" stop-color="#b22d17"/><stop offset="0.8" stop-color="#a22915"/><stop offset="1" stop-color="#8c2412"/></linearGradient></defs><title>red-building-bg</title><g class="cls-1"><g id="Layer_2" data-name="Layer 2"><g id="Capa_2" data-name="Capa 2"><rect class="cls-2" width="1280" height="1250.13"/><g class="cls-3"><rect class="cls-4" x="422.39" y="615.01" width="36.82" height="136.43" transform="translate(881.6 1366.45) rotate(-180)"/><rect class="cls-4" x="424.85" y="596.53" width="31.91" height="29.87" transform="translate(881.6 1222.92) rotate(-180)"/><rect class="cls-4" x="426.99" y="591.62" width="27.62" height="14.93" transform="translate(881.6 1198.17) rotate(-180)"/><rect class="cls-4" x="429.19" y="580.57" width="23.22" height="23.22" transform="translate(881.6 1184.36) rotate(-180)"/><rect class="cls-4" x="433.13" y="574.85" width="15.34" height="11.05" transform="translate(881.6 1160.74) rotate(-180)"/><rect class="cls-5" x="442.44" y="601.23" width="10.33" height="5.32" transform="translate(895.21 1207.79) rotate(-180)"/><rect class="cls-5" x="428.84" y="601.23" width="10.33" height="5.32" transform="translate(868 1207.79) rotate(-180)"/><rect class="cls-5" x="442.44" y="611.46" width="10.33" height="5.32" transform="translate(895.21 1228.24) rotate(-180)"/><rect class="cls-5" x="428.84" y="611.46" width="10.33" height="5.32" transform="translate(868 1228.24) rotate(-180)"/><rect class="cls-5" x="442.44" y="621.69" width="10.33" height="5.32" transform="translate(895.21 1248.7) rotate(-180)"/><rect class="cls-5" x="428.84" y="621.69" width="10.33" height="5.32" transform="translate(868 1248.7) rotate(-180)"/><rect class="cls-5" x="442.44" y="631.92" width="10.33" height="5.32" transform="translate(895.21 1269.15) rotate(-180)"/><rect class="cls-5" x="428.84" y="631.92" width="10.33" height="5.32" transform="translate(868 1269.15) rotate(-180)"/><rect class="cls-5" x="442.44" y="642.15" width="10.33" height="5.32" transform="translate(895.21 1289.61) rotate(-180)"/><rect class="cls-5" x="428.84" y="642.15" width="10.33" height="5.32" transform="translate(868 1289.61) rotate(-180)"/><rect class="cls-5" x="442.44" y="652.37" width="10.33" height="5.32" transform="translate(895.21 1310.07) rotate(-180)"/><rect class="cls-5" x="428.84" y="652.37" width="10.33" height="5.32" transform="translate(868 1310.07) rotate(-180)"/><rect class="cls-5" x="442.44" y="662.6" width="10.33" height="5.32" transform="translate(895.21 1330.52) rotate(-180)"/><rect class="cls-5" x="428.84" y="662.6" width="10.33" height="5.32" transform="translate(868 1330.52) rotate(-180)"/><rect class="cls-5" x="442.44" y="672.83" width="10.33" height="5.32" transform="translate(895.21 1350.98) rotate(-180)"/><rect class="cls-5" x="428.84" y="672.83" width="10.33" height="5.32" transform="translate(868 1350.98) rotate(-180)"/><rect class="cls-5" x="442.44" y="683.06" width="10.33" height="5.32" transform="translate(895.21 1371.44) rotate(-180)"/><rect class="cls-5" x="428.84" y="683.06" width="10.33" height="5.32" transform="translate(868 1371.44) rotate(-180)"/><rect class="cls-5" x="442.44" y="693.29" width="10.33" height="5.32" transform="translate(895.21 1391.89) rotate(-180)"/><rect class="cls-5" x="428.84" y="693.29" width="10.33" height="5.32" transform="translate(868 1391.89) rotate(-180)"/><rect class="cls-4" x="126.45" y="683.06" width="85.37" height="68.38" transform="translate(338.26 1434.5) rotate(-180)"/><rect class="cls-4" x="207.18" y="688.38" width="36.82" height="63.06" transform="translate(451.18 1439.82) rotate(-180)"/><rect class="cls-4" x="215.67" y="684.18" width="26.8" height="10.43" transform="translate(458.14 1378.8) rotate(-180)"/><rect class="cls-4" x="221.09" y="680.09" width="16.57" height="7.16" transform="translate(458.75 1367.34) rotate(-180)"/><rect class="cls-4" x="225.59" y="677.54" width="5.11" height="3.89" transform="translate(456.29 1358.96) rotate(-180)"/><rect class="cls-4" x="162.31" y="615.01" width="36.82" height="136.43" transform="translate(361.45 1366.45) rotate(-180)"/><rect class="cls-4" x="164.77" y="596.53" width="31.91" height="29.87" transform="translate(361.45 1222.92) rotate(-180)"/><rect class="cls-4" x="166.91" y="591.62" width="27.62" height="14.93" transform="translate(361.45 1198.17) rotate(-180)"/><rect class="cls-4" x="169.11" y="580.57" width="23.22" height="23.22" transform="translate(361.45 1184.36) rotate(-180)"/><rect class="cls-4" x="173.05" y="574.85" width="15.34" height="11.05" transform="translate(361.45 1160.74) rotate(-180)"/><rect class="cls-4" x="176.22" y="547.23" width="9" height="35.8" transform="translate(361.45 1130.26) rotate(-180)"/><rect class="cls-4" x="178.98" y="503.96" width="3.48" height="46.84" transform="translate(361.45 1054.77) rotate(-180)"/><rect class="cls-4" x="176.22" y="542.01" width="9" height="1.94" transform="translate(361.45 1085.97) rotate(-180)"/><rect class="cls-5" x="182.36" y="601.23" width="10.33" height="5.32" transform="translate(375.05 1207.79) rotate(-180)"/><rect class="cls-5" x="168.76" y="601.23" width="10.33" height="5.32" transform="translate(347.84 1207.79) rotate(-180)"/><rect class="cls-5" x="182.36" y="611.46" width="10.33" height="5.32" transform="translate(375.05 1228.24) rotate(-180)"/><rect class="cls-5" x="168.76" y="611.46" width="10.33" height="5.32" transform="translate(347.84 1228.24) rotate(-180)"/><rect class="cls-5" x="182.36" y="621.69" width="10.33" height="5.32" transform="translate(375.05 1248.7) rotate(-180)"/><rect class="cls-5" x="168.76" y="621.69" width="10.33" height="5.32" transform="translate(347.84 1248.7) rotate(-180)"/><rect class="cls-5" x="182.36" y="631.92" width="10.33" height="5.32" transform="translate(375.05 1269.15) rotate(-180)"/><rect class="cls-5" x="168.76" y="631.92" width="10.33" height="5.32" transform="translate(347.84 1269.15) rotate(-180)"/><rect class="cls-5" x="182.36" y="642.15" width="10.33" height="5.32" transform="translate(375.05 1289.61) rotate(-180)"/><rect class="cls-5" x="168.76" y="642.15" width="10.33" height="5.32" transform="translate(347.84 1289.61) rotate(-180)"/><rect class="cls-5" x="182.36" y="652.37" width="10.33" height="5.32" transform="translate(375.05 1310.07) rotate(-180)"/><rect class="cls-5" x="168.76" y="652.37" width="10.33" height="5.32" transform="translate(347.84 1310.07) rotate(-180)"/><rect class="cls-5" x="182.36" y="662.6" width="10.33" height="5.32" transform="translate(375.05 1330.52) rotate(-180)"/><rect class="cls-5" x="168.76" y="662.6" width="10.33" height="5.32" transform="translate(347.84 1330.52) rotate(-180)"/><rect class="cls-5" x="182.36" y="672.83" width="10.33" height="5.32" transform="translate(375.05 1350.98) rotate(-180)"/><rect class="cls-5" x="168.76" y="672.83" width="10.33" height="5.32" transform="translate(347.84 1350.98) rotate(-180)"/><rect class="cls-5" x="182.36" y="683.06" width="10.33" height="5.32" transform="translate(375.05 1371.44) rotate(-180)"/><rect class="cls-5" x="168.76" y="683.06" width="10.33" height="5.32" transform="translate(347.84 1371.44) rotate(-180)"/><rect class="cls-5" x="182.36" y="693.29" width="10.33" height="5.32" transform="translate(375.05 1391.89) rotate(-180)"/><rect class="cls-5" x="168.76" y="693.29" width="10.33" height="5.32" transform="translate(347.84 1391.89) rotate(-180)"/><rect class="cls-4" x="48.71" y="619.37" width="41.19" height="132.07" transform="translate(138.61 1370.81) rotate(-180)"/><rect class="cls-4" x="50.89" y="616.78" width="31.37" height="9.61" transform="translate(133.15 1243.18) rotate(-180)"/><rect class="cls-4" x="55.26" y="614.12" width="15.82" height="7.47" transform="translate(126.34 1235.71) rotate(-180)"/><rect class="cls-5" x="70.94" y="629.46" width="10.33" height="5.32" transform="translate(152.21 1264.25) rotate(-180)"/><rect class="cls-5" x="57.34" y="629.46" width="10.33" height="5.32" transform="translate(125.01 1264.25) rotate(-180)"/><rect class="cls-5" x="70.94" y="639.69" width="10.33" height="5.32" transform="translate(152.21 1284.7) rotate(-180)"/><rect class="cls-5" x="57.34" y="639.69" width="10.33" height="5.32" transform="translate(125.01 1284.7) rotate(-180)"/><rect class="cls-5" x="70.94" y="649.92" width="10.33" height="5.32" transform="translate(152.21 1305.16) rotate(-180)"/><rect class="cls-5" x="57.34" y="649.92" width="10.33" height="5.32" transform="translate(125.01 1305.16) rotate(-180)"/><rect class="cls-5" x="70.94" y="660.15" width="10.33" height="5.32" transform="translate(152.21 1325.61) rotate(-180)"/><rect class="cls-5" x="57.34" y="660.15" width="10.33" height="5.32" transform="translate(125.01 1325.61) rotate(-180)"/><rect class="cls-4" x="78.17" y="688.38" width="36.82" height="63.06" transform="translate(193.16 1439.82) rotate(-180)"/><rect class="cls-4" x="86.66" y="684.18" width="26.8" height="10.43" transform="translate(200.11 1378.8) rotate(-180)"/><rect class="cls-4" x="92.08" y="680.09" width="16.57" height="7.16" transform="translate(200.73 1367.34) rotate(-180)"/><rect class="cls-4" x="96.58" y="677.54" width="5.11" height="3.89" transform="translate(198.27 1358.96) rotate(-180)"/><rect class="cls-4" x="118.37" y="667.1" width="34.67" height="84.34" transform="translate(271.4 1418.54) rotate(-180)"/><rect class="cls-4" x="118.37" y="662.09" width="26.8" height="12.27" transform="translate(263.53 1336.46) rotate(-180)"/><rect class="cls-4" x="144.04" y="657.69" width="5.01" height="14.11" transform="translate(293.09 1329.5) rotate(-180)"/><rect class="cls-4" x="121.74" y="657.69" width="20.66" height="7.57" transform="translate(264.14 1322.95) rotate(-180)"/><rect class="cls-4" x="106.6" y="713.13" width="248.03" height="38.31" transform="translate(461.24 1464.57) rotate(-180)"/><rect class="cls-4" x="149.05" y="687.25" width="12.17" height="2.97" transform="translate(310.27 1377.47) rotate(-180)"/><rect class="cls-4" x="151.4" y="688.74" width="7.57" height="48.79" transform="translate(310.37 1426.26) rotate(-180)"/><rect class="cls-4" x="146.54" y="695.95" width="14.68" height="48.54" transform="translate(307.77 1440.43) rotate(-180)"/><rect class="cls-4" x="319.96" y="667.1" width="34.67" height="84.34" transform="translate(674.6 1418.54) rotate(-180)"/><rect class="cls-4" x="319.96" y="662.09" width="26.8" height="12.27" transform="translate(666.72 1336.46) rotate(-180)"/><rect class="cls-4" x="345.63" y="657.69" width="5.01" height="14.11" transform="translate(696.28 1329.5) rotate(-180)"/><rect class="cls-4" x="323.34" y="657.69" width="20.66" height="7.57" transform="translate(667.34 1322.95) rotate(-180)"/><rect class="cls-4" x="7.75" y="713.13" width="248.03" height="38.31" transform="translate(263.53 1464.57) rotate(-180)"/><rect class="cls-4" x="0.34" y="667.1" width="34.67" height="84.34" transform="translate(35.35 1418.54) rotate(-180)"/><rect class="cls-4" x="0.34" y="662.09" width="26.8" height="12.27" transform="translate(27.47 1336.46) rotate(-180)"/><rect class="cls-4" x="26.01" y="657.69" width="5.01" height="14.11" transform="translate(57.03 1329.5) rotate(-180)"/><rect class="cls-4" x="3.71" y="657.69" width="20.66" height="7.57" transform="translate(28.09 1322.95) rotate(-180)"/><rect class="cls-4" x="276.37" y="583.03" width="37.23" height="168.41" transform="translate(589.98 1334.47) rotate(-180)"/><rect class="cls-5" x="296.62" y="593.05" width="10.33" height="5.32" transform="translate(603.58 1191.42) rotate(-180)"/><rect class="cls-5" x="283.02" y="593.05" width="10.33" height="5.32" transform="translate(576.37 1191.42) rotate(-180)"/><rect class="cls-5" x="296.62" y="603.28" width="10.33" height="5.32" transform="translate(603.58 1211.88) rotate(-180)"/><rect class="cls-5" x="283.02" y="603.28" width="10.33" height="5.32" transform="translate(576.37 1211.88) rotate(-180)"/><rect class="cls-5" x="296.62" y="613.51" width="10.33" height="5.32" transform="translate(603.58 1232.33) rotate(-180)"/><rect class="cls-5" x="283.02" y="613.51" width="10.33" height="5.32" transform="translate(576.37 1232.33) rotate(-180)"/><rect class="cls-5" x="296.62" y="623.74" width="10.33" height="5.32" transform="translate(603.58 1252.79) rotate(-180)"/><rect class="cls-5" x="283.02" y="623.74" width="10.33" height="5.32" transform="translate(576.37 1252.79) rotate(-180)"/><rect class="cls-5" x="296.62" y="633.96" width="10.33" height="5.32" transform="translate(603.58 1273.25) rotate(-180)"/><rect class="cls-5" x="283.02" y="633.96" width="10.33" height="5.32" transform="translate(576.37 1273.25) rotate(-180)"/><rect class="cls-5" x="296.62" y="644.19" width="10.33" height="5.32" transform="translate(603.58 1293.7) rotate(-180)"/><rect class="cls-5" x="283.02" y="644.19" width="10.33" height="5.32" transform="translate(576.37 1293.7) rotate(-180)"/><rect class="cls-5" x="296.62" y="654.42" width="10.33" height="5.32" transform="translate(603.58 1314.16) rotate(-180)"/><rect class="cls-5" x="283.02" y="654.42" width="10.33" height="5.32" transform="translate(576.37 1314.16) rotate(-180)"/><rect class="cls-5" x="296.62" y="664.65" width="10.33" height="5.32" transform="translate(603.58 1334.61) rotate(-180)"/><rect class="cls-5" x="283.02" y="664.65" width="10.33" height="5.32" transform="translate(576.37 1334.61) rotate(-180)"/><rect class="cls-5" x="296.62" y="674.88" width="10.33" height="5.32" transform="translate(603.58 1355.07) rotate(-180)"/><rect class="cls-5" x="283.02" y="674.88" width="10.33" height="5.32" transform="translate(576.37 1355.07) rotate(-180)"/><rect class="cls-5" x="296.62" y="685.1" width="10.33" height="5.32" transform="translate(603.58 1375.53) rotate(-180)"/><rect class="cls-5" x="283.02" y="685.1" width="10.33" height="5.32" transform="translate(576.37 1375.53) rotate(-180)"/><rect class="cls-4" x="279.78" y="580.23" width="30.89" height="7.3" transform="translate(590.45 1167.76) rotate(-180)"/><rect class="cls-4" x="280.06" y="570.14" width="25.16" height="15.34" transform="translate(585.27 1155.62) rotate(-180)"/><rect class="cls-4" x="280.06" y="568.44" width="21.21" height="3.95" transform="translate(581.32 1140.83) rotate(-180)"/><rect class="cls-4" x="273.51" y="631.92" width="5.18" height="119.52" transform="translate(552.2 1383.36) rotate(-180)"/><rect class="cls-4" x="224.96" y="615.87" width="49.91" height="135.57" transform="translate(499.83 1367.31) rotate(-180)"/><rect class="cls-4" x="247.46" y="609.21" width="23.59" height="13.84" transform="translate(518.52 1232.26) rotate(-180)"/><rect class="cls-4" x="232.9" y="607.44" width="8.28" height="12.64" transform="translate(474.09 1227.52) rotate(-180)"/><rect class="cls-4" x="227.28" y="613.08" width="4.59" height="7" transform="translate(459.14 1233.17) rotate(-180)"/><rect class="cls-4" x="356.15" y="619.37" width="41.19" height="132.07" transform="translate(753.48 1370.81) rotate(-180)"/><rect class="cls-4" x="358.33" y="616.78" width="31.37" height="9.61" transform="translate(748.03 1243.18) rotate(-180)"/><rect class="cls-4" x="362.69" y="614.12" width="15.82" height="7.47" transform="translate(741.21 1235.71) rotate(-180)"/><rect class="cls-5" x="378.38" y="629.46" width="10.33" height="5.32" transform="translate(767.09 1264.25) rotate(-180)"/><rect class="cls-5" x="364.77" y="629.46" width="10.33" height="5.32" transform="translate(739.88 1264.25) rotate(-180)"/><rect class="cls-5" x="378.38" y="639.69" width="10.33" height="5.32" transform="translate(767.09 1284.7) rotate(-180)"/><rect class="cls-5" x="364.77" y="639.69" width="10.33" height="5.32" transform="translate(739.88 1284.7) rotate(-180)"/><rect class="cls-5" x="378.38" y="649.92" width="10.33" height="5.32" transform="translate(767.09 1305.16) rotate(-180)"/><rect class="cls-5" x="364.77" y="649.92" width="10.33" height="5.32" transform="translate(739.88 1305.16) rotate(-180)"/><rect class="cls-5" x="378.38" y="660.15" width="10.33" height="5.32" transform="translate(767.09 1325.61) rotate(-180)"/><rect class="cls-5" x="364.77" y="660.15" width="10.33" height="5.32" transform="translate(739.88 1325.61) rotate(-180)"/><rect class="cls-4" x="385.61" y="688.38" width="36.82" height="63.06" transform="translate(808.03 1439.82) rotate(-180)"/><rect class="cls-4" x="394.1" y="684.18" width="26.8" height="10.43" transform="translate(814.99 1378.8) rotate(-180)"/><rect class="cls-4" x="399.52" y="680.09" width="16.57" height="7.16" transform="translate(815.6 1367.34) rotate(-180)"/><rect class="cls-4" x="404.02" y="677.54" width="5.11" height="3.89" transform="translate(813.15 1358.96) rotate(-180)"/></g></g><g id="Layer_1-2" data-name="Layer 1"><g class="cls-3"><rect class="cls-4" x="820.54" y="617.67" width="36.82" height="136.43"/><rect class="cls-4" x="822.99" y="599.19" width="31.91" height="29.87"/><rect class="cls-4" x="825.14" y="594.28" width="27.62" height="14.93"/><rect class="cls-4" x="827.34" y="583.23" width="23.22" height="23.22"/><rect class="cls-4" x="831.28" y="577.5" width="15.34" height="11.05"/><rect class="cls-5" x="826.98" y="603.89" width="10.33" height="5.32"/><rect class="cls-5" x="840.58" y="603.89" width="10.33" height="5.32"/><rect class="cls-5" x="826.98" y="614.12" width="10.33" height="5.32"/><rect class="cls-5" x="840.58" y="614.12" width="10.33" height="5.32"/><rect class="cls-5" x="826.98" y="624.35" width="10.33" height="5.32"/><rect class="cls-5" x="840.58" y="624.35" width="10.33" height="5.32"/><rect class="cls-5" x="826.98" y="634.58" width="10.33" height="5.32"/><rect class="cls-5" x="840.58" y="634.58" width="10.33" height="5.32"/><rect class="cls-5" x="826.98" y="644.81" width="10.33" height="5.32"/><rect class="cls-5" x="840.58" y="644.81" width="10.33" height="5.32"/><rect class="cls-5" x="826.98" y="655.03" width="10.33" height="5.32"/><rect class="cls-5" x="840.58" y="655.03" width="10.33" height="5.32"/><rect class="cls-5" x="826.98" y="665.26" width="10.33" height="5.32"/><rect class="cls-5" x="840.58" y="665.26" width="10.33" height="5.32"/><rect class="cls-5" x="826.98" y="675.49" width="10.33" height="5.32"/><rect class="cls-5" x="840.58" y="675.49" width="10.33" height="5.32"/><rect class="cls-5" x="826.98" y="685.72" width="10.33" height="5.32"/><rect class="cls-5" x="840.58" y="685.72" width="10.33" height="5.32"/><rect class="cls-5" x="826.98" y="695.95" width="10.33" height="5.32"/><rect class="cls-5" x="840.58" y="695.95" width="10.33" height="5.32"/><rect class="cls-4" x="1067.93" y="685.72" width="85.37" height="68.38"/><rect class="cls-4" x="1035.75" y="691.04" width="36.82" height="63.06"/><rect class="cls-4" x="1037.28" y="686.84" width="26.8" height="10.43"/><rect class="cls-4" x="1042.09" y="682.75" width="16.57" height="7.16"/><rect class="cls-4" x="1049.05" y="680.19" width="5.11" height="3.89"/><rect class="cls-4" x="1080.62" y="617.67" width="36.82" height="136.43"/><rect class="cls-4" x="1083.07" y="599.19" width="31.91" height="29.87"/><rect class="cls-4" x="1085.22" y="594.28" width="27.62" height="14.93"/><rect class="cls-4" x="1087.42" y="583.23" width="23.22" height="23.22"/><rect class="cls-4" x="1091.36" y="577.5" width="15.34" height="11.05"/><rect class="cls-4" x="1094.53" y="549.89" width="9" height="35.8"/><rect class="cls-4" x="1097.29" y="506.62" width="3.48" height="46.84"/><rect class="cls-4" x="1094.53" y="544.67" width="9" height="1.94"/><rect class="cls-5" x="1087.06" y="603.89" width="10.33" height="5.32"/><rect class="cls-5" x="1100.66" y="603.89" width="10.33" height="5.32"/><rect class="cls-5" x="1087.06" y="614.12" width="10.33" height="5.32"/><rect class="cls-5" x="1100.66" y="614.12" width="10.33" height="5.32"/><rect class="cls-5" x="1087.06" y="624.35" width="10.33" height="5.32"/><rect class="cls-5" x="1100.66" y="624.35" width="10.33" height="5.32"/><rect class="cls-5" x="1087.06" y="634.58" width="10.33" height="5.32"/><rect class="cls-5" x="1100.66" y="634.58" width="10.33" height="5.32"/><rect class="cls-5" x="1087.06" y="644.81" width="10.33" height="5.32"/><rect class="cls-5" x="1100.66" y="644.81" width="10.33" height="5.32"/><rect class="cls-5" x="1087.06" y="655.03" width="10.33" height="5.32"/><rect class="cls-5" x="1100.66" y="655.03" width="10.33" height="5.32"/><rect class="cls-5" x="1087.06" y="665.26" width="10.33" height="5.32"/><rect class="cls-5" x="1100.66" y="665.26" width="10.33" height="5.32"/><rect class="cls-5" x="1087.06" y="675.49" width="10.33" height="5.32"/><rect class="cls-5" x="1100.66" y="675.49" width="10.33" height="5.32"/><rect class="cls-5" x="1087.06" y="685.72" width="10.33" height="5.32"/><rect class="cls-5" x="1100.66" y="685.72" width="10.33" height="5.32"/><rect class="cls-5" x="1087.06" y="695.95" width="10.33" height="5.32"/><rect class="cls-5" x="1100.66" y="695.95" width="10.33" height="5.32"/><rect class="cls-4" x="1189.85" y="622.03" width="41.19" height="132.07"/><rect class="cls-4" x="1197.49" y="619.44" width="31.37" height="9.61"/><rect class="cls-4" x="1208.67" y="616.78" width="15.82" height="7.47"/><rect class="cls-5" x="1198.48" y="632.12" width="10.33" height="5.32"/><rect class="cls-5" x="1212.08" y="632.12" width="10.33" height="5.32"/><rect class="cls-5" x="1198.48" y="642.35" width="10.33" height="5.32"/><rect class="cls-5" x="1212.08" y="642.35" width="10.33" height="5.32"/><rect class="cls-5" x="1198.48" y="652.58" width="10.33" height="5.32"/><rect class="cls-5" x="1212.08" y="652.58" width="10.33" height="5.32"/><rect class="cls-5" x="1198.48" y="662.81" width="10.33" height="5.32"/><rect class="cls-5" x="1212.08" y="662.81" width="10.33" height="5.32"/><rect class="cls-4" x="1164.76" y="691.04" width="36.82" height="63.06"/><rect class="cls-4" x="1166.29" y="686.84" width="26.8" height="10.43"/><rect class="cls-4" x="1171.1" y="682.75" width="16.57" height="7.16"/><rect class="cls-4" x="1178.06" y="680.19" width="5.11" height="3.89"/><rect class="cls-4" x="1126.71" y="669.76" width="34.67" height="84.34"/><rect class="cls-4" x="1134.59" y="664.75" width="26.8" height="12.27"/><rect class="cls-4" x="1130.7" y="660.35" width="5.01" height="14.11"/><rect class="cls-4" x="1137.35" y="660.35" width="20.66" height="7.57"/><rect class="cls-4" x="925.12" y="715.79" width="248.03" height="38.31"/><rect class="cls-4" x="1118.53" y="689.91" width="12.17" height="2.97"/><rect class="cls-4" x="1120.78" y="691.39" width="7.57" height="48.79"/><rect class="cls-4" x="1118.53" y="698.61" width="14.68" height="48.54"/><rect class="cls-4" x="925.12" y="669.76" width="34.67" height="84.34"/><rect class="cls-4" x="932.99" y="664.75" width="26.8" height="12.27"/><rect class="cls-4" x="929.1" y="660.35" width="5.01" height="14.11"/><rect class="cls-4" x="935.75" y="660.35" width="20.66" height="7.57"/><rect class="cls-4" x="1023.97" y="715.79" width="248.03" height="38.31"/><rect class="cls-4" x="1244.74" y="669.76" width="34.67" height="84.34"/><rect class="cls-4" x="1252.62" y="664.75" width="26.8" height="12.27"/><rect class="cls-4" x="1248.73" y="660.35" width="5.01" height="14.11"/><rect class="cls-4" x="1255.38" y="660.35" width="20.66" height="7.57"/><rect class="cls-4" x="966.15" y="585.69" width="37.23" height="168.41"/><rect class="cls-5" x="972.8" y="595.71" width="10.33" height="5.32"/><rect class="cls-5" x="986.4" y="595.71" width="10.33" height="5.32"/><rect class="cls-5" x="972.8" y="605.94" width="10.33" height="5.32"/><rect class="cls-5" x="986.4" y="605.94" width="10.33" height="5.32"/><rect class="cls-5" x="972.8" y="616.17" width="10.33" height="5.32"/><rect class="cls-5" x="986.4" y="616.17" width="10.33" height="5.32"/><rect class="cls-5" x="972.8" y="626.39" width="10.33" height="5.32"/><rect class="cls-5" x="986.4" y="626.39" width="10.33" height="5.32"/><rect class="cls-5" x="972.8" y="636.62" width="10.33" height="5.32"/><rect class="cls-5" x="986.4" y="636.62" width="10.33" height="5.32"/><rect class="cls-5" x="972.8" y="646.85" width="10.33" height="5.32"/><rect class="cls-5" x="986.4" y="646.85" width="10.33" height="5.32"/><rect class="cls-5" x="972.8" y="657.08" width="10.33" height="5.32"/><rect class="cls-5" x="986.4" y="657.08" width="10.33" height="5.32"/><rect class="cls-5" x="972.8" y="667.31" width="10.33" height="5.32"/><rect class="cls-5" x="986.4" y="667.31" width="10.33" height="5.32"/><rect class="cls-5" x="972.8" y="677.54" width="10.33" height="5.32"/><rect class="cls-5" x="986.4" y="677.54" width="10.33" height="5.32"/><rect class="cls-5" x="972.8" y="687.76" width="10.33" height="5.32"/><rect class="cls-5" x="986.4" y="687.76" width="10.33" height="5.32"/><rect class="cls-4" x="969.08" y="582.89" width="30.89" height="7.3"/><rect class="cls-4" x="974.53" y="572.8" width="25.16" height="15.34"/><rect class="cls-4" x="978.49" y="571.09" width="21.21" height="3.95"/><rect class="cls-4" x="1001.06" y="634.58" width="5.18" height="119.52"/><rect class="cls-4" x="1004.88" y="618.53" width="49.91" height="135.57"/><rect class="cls-4" x="1008.7" y="611.87" width="23.59" height="13.84"/><rect class="cls-4" x="1038.56" y="610.1" width="8.28" height="12.64"/><rect class="cls-4" x="1047.89" y="615.74" width="4.59" height="7"/><rect class="cls-4" x="882.42" y="622.03" width="41.19" height="132.07"/><rect class="cls-4" x="890.05" y="619.44" width="31.37" height="9.61"/><rect class="cls-4" x="901.24" y="616.78" width="15.82" height="7.47"/><rect class="cls-5" x="891.04" y="632.12" width="10.33" height="5.32"/><rect class="cls-5" x="904.65" y="632.12" width="10.33" height="5.32"/><rect class="cls-5" x="891.04" y="642.35" width="10.33" height="5.32"/><rect class="cls-5" x="904.65" y="642.35" width="10.33" height="5.32"/><rect class="cls-5" x="891.04" y="652.58" width="10.33" height="5.32"/><rect class="cls-5" x="904.65" y="652.58" width="10.33" height="5.32"/><rect class="cls-5" x="891.04" y="662.81" width="10.33" height="5.32"/><rect class="cls-5" x="904.65" y="662.81" width="10.33" height="5.32"/><rect class="cls-4" x="857.32" y="691.04" width="36.82" height="63.06"/><rect class="cls-4" x="858.86" y="686.84" width="26.8" height="10.43"/><rect class="cls-4" x="863.66" y="682.75" width="16.57" height="7.16"/><rect class="cls-4" x="870.62" y="680.19" width="5.11" height="3.89"/></g></g></g></g></svg>