<svg xmlns="http://www.w3.org/2000/svg" viewBox="0 0 742.22 134.22"><defs><style>.cls-1{font-size:23.28px;}.cls-1,.cls-11,.cls-12,.cls-17,.cls-24,.cls-27,.cls-9{fill:#fff;}.cls-1,.cls-11{font-family:MuseoSans-900Italic, MuseoSans 900Italic;font-style:italic;}.cls-2{letter-spacing:-0.01em;}.cls-3{letter-spacing:-0.02em;}.cls-4{letter-spacing:0.01em;}.cls-5{letter-spacing:0em;}.cls-6{letter-spacing:-0.01em;}.cls-15,.cls-16,.cls-18,.cls-31,.cls-32,.cls-33,.cls-7{fill:#767676;}.cls-13,.cls-8{fill:#87c22e;}.cls-10,.cls-12,.cls-15,.cls-16,.cls-18,.cls-24,.cls-27,.cls-31,.cls-32,.cls-33,.cls-8{stroke:#fff;}.cls-19,.cls-25,.cls-26,.cls-28,.cls-29,.cls-34,.cls-8{stroke-linecap:round;stroke-linejoin:round;}.cls-10,.cls-8{stroke-width:3px;}.cls-9{font-size:23.75px;font-family:MuseoSans-900, MuseoSans 900;}.cls-10{fill:#fa3f21;}.cls-10,.cls-12,.cls-15,.cls-16,.cls-18,.cls-20,.cls-21,.cls-24,.cls-27,.cls-30,.cls-31,.cls-32,.cls-33{stroke-miterlimit:10;}.cls-11{font-size:24.58px;}.cls-12,.cls-18{stroke-width:2.03px;}.cls-14{fill:#bbe170;}.cls-15{stroke-width:1.44px;}.cls-16{stroke-width:1.44px;}.cls-19,.cls-20,.cls-21,.cls-25,.cls-26,.cls-28,.cls-29,.cls-30,.cls-34{fill:none;}.cls-19,.cls-21,.cls-25,.cls-28,.cls-34{stroke:#87c22e;}.cls-19{stroke-width:5.21px;}.cls-20,.cls-30{stroke:#767676;}.cls-20{stroke-dasharray:3;}.cls-21{stroke-width:5px;}.cls-22{letter-spacing:0em;}.cls-23{fill:#e6e7e8;}.cls-24{stroke-width:1.04px;}.cls-25,.cls-26{stroke-width:1.03px;}.cls-26,.cls-29{stroke:#bbe170;}.cls-27{stroke-width:1.31px;}.cls-28,.cls-29{stroke-width:1.29px;}.cls-30{stroke-width:4.58px;}.cls-31{stroke-width:0.93px;}.cls-32{stroke-width:0.93px;}.cls-33{stroke-width:1.32px;}.cls-34{stroke-width:3.37px;}</style></defs><title>roi-formula</title><g id="Layer_2" data-name="Layer 2"><g id="Layer_1-2" data-name="Layer 1"><text class="cls-1" transform="translate(11.64 81.05)">G<tspan class="cls-2" x="15.04" y="0">r</tspan><tspan x="22.42" y="0">oss</tspan><tspan class="cls-3" x="0.79" y="20.79">P</tspan><tspan class="cls-2" x="12.81" y="20.79">r</tspan><tspan x="20.19" y="20.79">ofit</tspan></text><text class="cls-1" transform="translate(144.69 81.04)"><tspan class="cls-4">M</tspan><tspan x="18.86" y="0">a</tspan><tspan class="cls-5" x="30.08" y="0">r</tspan><tspan x="37.79" y="0">keting</tspan><tspan class="cls-6" x="28.25" y="20.79">C</tspan><tspan x="41.5" y="20.79">ost</tspan></text><path class="cls-7" d="M95,82.3h21.75v6.35H95Z"/><circle class="cls-8" cx="284.21" cy="82.3" r="18.36"/><text class="cls-9" transform="translate(277.13 88.64)">=</text><circle class="cls-8" cx="662.59" cy="68.36" r="18.36"/><text class="cls-9" transform="translate(655.52 74.7)">=</text><rect class="cls-10" x="319.67" y="59.1" width="48.87" height="48.87"/><text class="cls-11" transform="translate(336.94 91.54)">X</text><path class="cls-12" d="M19.33,45.55A58.71,58.71,0,0,0,51.56,32.47l-.83-1c.28-.22.56-.42.83-.64l-.83-1c.28-.22.56-.42.83-.64L50.63,28A57.83,57.83,0,0,1,1.22,39.53c-.11.48.11,1,0,1.43A58.51,58.51,0,0,0,39.87,36.6,57.91,57.91,0,0,1,1.22,41.19c-.11.48.11,1,0,1.43a58.51,58.51,0,0,0,38.65-4.37A57.91,57.91,0,0,1,1.22,42.86c-.11.48.11,1,0,1.43a58.9,58.9,0,0,0,8.22,1.26H1.09V59.1H51.66V45.55Z"/><rect class="cls-13" x="1.09" y="45.55" width="50.58" height="13.55"/><rect class="cls-14" x="1.09" y="57.63" width="50.58" height="1.47"/><rect class="cls-14" x="1.09" y="54.61" width="50.58" height="1.47"/><rect class="cls-14" x="1.09" y="51.59" width="50.58" height="1.47"/><rect class="cls-14" x="1.09" y="48.57" width="50.58" height="1.47"/><rect class="cls-14" x="1.09" y="45.55" width="50.58" height="1.47"/><path class="cls-14" d="M51.56,32.47A58.61,58.61,0,0,1,1.22,44.29c.11-.48-.11-1,0-1.43A57.83,57.83,0,0,0,50.63,31.33Z"/><path class="cls-13" d="M51.56,30.8A58.61,58.61,0,0,1,1.22,42.63c.11-.48-.11-1,0-1.43A57.83,57.83,0,0,0,50.63,29.66Z"/><path class="cls-14" d="M51.56,29.14A58.61,58.61,0,0,1,1.22,41c.11-.48-.11-1,0-1.43A57.83,57.83,0,0,0,50.63,28Z"/><rect class="cls-15" x="169.31" y="33.45" width="5.01" height="14.42" transform="translate(-4.7 44.58) rotate(-14.59)"/><rect class="cls-16" x="207.91" y="14.13" width="7.43" height="32.34" transform="matrix(0.97, -0.25, 0.25, 0.97, -0.81, 54.28)"/><path class="cls-7" d="M190,58.52A11.52,11.52,0,1,1,201.53,47,11.53,11.53,0,0,1,190,58.52Zm0-18.32a6.8,6.8,0,1,0,6.8,6.8A6.81,6.81,0,0,0,190,40.21Z"/><path class="cls-17" d="M190,36.5A10.5,10.5,0,1,1,179.51,47,10.51,10.51,0,0,1,190,36.5m0,18.32A7.82,7.82,0,1,0,182.19,47,7.82,7.82,0,0,0,190,54.82m0-20.35A12.54,12.54,0,1,0,202.54,47,12.55,12.55,0,0,0,190,34.47Zm0,18.32A5.78,5.78,0,1,1,195.79,47,5.79,5.79,0,0,1,190,52.79Z"/><polygon class="cls-18" points="211.71 45.36 176.06 47.01 172.43 33.05 204.36 17.11 211.71 45.36"/><line class="cls-19" x1="239.43" y1="24.54" x2="244.45" y2="23.52"/><line class="cls-19" x1="236.35" y1="19.09" x2="239.81" y2="15.31"/><line class="cls-19" x1="230.65" y1="16.49" x2="231.23" y2="11.4"/><line class="cls-19" x1="234.48" y1="35.37" x2="237.01" y2="39.83"/><line class="cls-19" x1="238.72" y1="30.76" x2="243.38" y2="32.89"/><path class="cls-7" d="M222,31.08a4.62,4.62,0,0,0,3.22.35c.59-.16,1.42-.66,1.2-1.49-.34-1.28-5.05-.38-6-3.82-.59-2.23,1-4.13,3-4.9l-.1-1.64,1.89-.5.12,1.71a5.43,5.43,0,0,1,3.26.56l-1,2.67a4.73,4.73,0,0,0-2.88-.18c-.61.16-1.44.72-1.24,1.48.36,1.35,5.07.32,6,3.82.54,2-.78,4.17-3.21,5l.13,1.6-1.89.5-.13-1.73a6,6,0,0,1-3.62-.78Z"/><line class="cls-20" x1="394.82" y1="1.33" x2="394.82" y2="132.97"/><line class="cls-21" x1="433.44" y1="63.45" x2="629.44" y2="63.45"/><text class="cls-1" transform="translate(701.89 91.38)"><tspan class="cls-22">R</tspan><tspan x="12.6" y="0">OI</tspan></text><path class="cls-7" d="M700.9,67.65l-1.28-1.28V55.3l.22-.22-.18-.28.07-.3v-.06a3.5,3.5,0,0,1,0-.86l0-.08.06-.26v-.06c0-.17,0-.3,0-.43a3,3,0,0,1,0-.33l-.06-.07.09-.37v-.06a3.17,3.17,0,0,1,0-1.12l.09-.41,1.54-1,.41.09a41.79,41.79,0,0,0,9.34,1.05A42.11,42.11,0,0,0,723,48.87c.76-.22,1.52-.47,2.25-.73a41.47,41.47,0,0,0,12.41-7l.33-.27,1.8.18L741,42.59l-.11,1.12.11.14L740.9,45l.09.11-.09,1.74-.4.36c-.54.44-1.14.9-1.86,1.44l-.5.36c-.69.5-1.3.91-1.87,1.28l-.28.17q-.83.53-1.69,1l-.7.39q-.79.44-1.59.84l-.94.46-1.28.59-.7.3h10.82l1.28,1.28V66.37l-1.28,1.28Z"/><path class="cls-17" d="M738.28,41.95l1,.1.7.86-.1,1-.08.07.18.22-.1,1-.08.07.18.22,0,.92-.05,0c-.53.43-1.11.88-1.82,1.41l-.49.35c-.68.48-1.27.89-1.83,1.25l-.26.16c-.55.35-1.1.68-1.66,1l-.68.39q-.77.42-1.55.82l-1,.47-1.2.55-1,.43-.87.34-.08,0c-.66.25-1.33.49-2,.71l-.09,0-.53.17-1.39.42-.08,0L723,55H739.5l.69.69V65.95l-.69.69H701.32l-.69-.69V55.72l.5-.5-.38-.61a.44.44,0,0,0,0-.1c0-.06,0-.13,0-.2a2.22,2.22,0,0,1,0-.78l.07,0-.07-.13a.43.43,0,0,0,0-.1c0-.06,0-.13,0-.2s0-.23,0-.34a1.75,1.75,0,0,1,0-.45l.09-.06-.09-.11a.42.42,0,0,0,0-.1c0-.07,0-.14,0-.21a2.2,2.2,0,0,1,0-.77l.82-.52a42.75,42.75,0,0,0,9.57,1.08,43.15,43.15,0,0,0,12.12-1.74c.78-.23,1.55-.48,2.31-.75a42.49,42.49,0,0,0,12.71-7.16m-7.69,8.28h0m7.05-10.39-.65.53a40.45,40.45,0,0,1-12.1,6.82c-.71.25-1.45.49-2.2.71a41.06,41.06,0,0,1-11.55,1.66,40.78,40.78,0,0,1-9.11-1l-.82-.19-.71.45-.82.52-.71.45-.19.82a4,4,0,0,0-.06,1.35l-.16.68.13.16h0c0,.13,0,.26,0,.4l-.11.46.08.15a4.62,4.62,0,0,0,0,.65l-.1.44h0v0l0,.08,0,0V66.79l.6.6.69.69.6.6h39.86l.6-.6.69-.69.6-.6V54.88l-.6-.6-.69-.69-.6-.6h-6.75l.51-.28.72-.41c.61-.35,1.18-.69,1.73-1l.25-.15c.61-.39,1.24-.82,1.94-1.32l.51-.37c.74-.55,1.35-1,1.91-1.47l0,0,0,0,.05,0,.62-.56,0-.84,0-.92,0-.78-.07-.09,0-.27.08-.84-.11-.14,0-.28.08-.84-.53-.65-.7-.86-.53-.65-.84-.08-1-.1-.84-.08Z"/><path class="cls-23" d="M738.72,42.48l.7.86-.63.49.63.77-.63.49.63.77a44.31,44.31,0,0,1-24.33,9.88H739.5V65.95H701.32V55.72h6.31a44.42,44.42,0,0,1-6.21-1c.08-.36-.08-.72,0-1.08a43.38,43.38,0,0,0,9.71,1.1,43.8,43.8,0,0,0,19.46-4.57,44.17,44.17,0,0,1-19.25,4.42,44.33,44.33,0,0,1-9.92-1.13c.08-.36-.08-.72,0-1.08a43.39,43.39,0,0,0,9.71,1.1A43.79,43.79,0,0,0,730.6,49a44.18,44.18,0,0,1-19.26,4.42,44.32,44.32,0,0,1-9.92-1.13c.08-.36-.08-.72,0-1.08a43.47,43.47,0,0,0,9.72,1.1,43.6,43.6,0,0,0,27.57-9.8m.17-1.69-.93.76a42.45,42.45,0,0,1-26.81,9.53A42.35,42.35,0,0,1,701.69,50l-1.17-.27-.27,1.17a2.67,2.67,0,0,0,0,.95,1.21,1.21,0,0,1,0,.18L700,53.2l.27.05s0,0,0,0L700,54.46l.27.05v0h-.12v.56l-.14.63.14,0V67.15H740.7V54.53H726.4a45.54,45.54,0,0,0,13.79-7.75l.93-.76-.62-.75.62-.5-.62-.75.62-.5-.76-.93-.37-.45-.34-.41-.76-.93Z"/><rect class="cls-13" x="701.32" y="55.72" width="38.18" height="10.22"/><rect class="cls-14" x="701.32" y="64.84" width="38.18" height="1.11"/><rect class="cls-14" x="701.32" y="62.56" width="38.18" height="1.11"/><rect class="cls-14" x="701.32" y="60.28" width="38.18" height="1.11"/><rect class="cls-14" x="701.32" y="58" width="38.18" height="1.11"/><rect class="cls-14" x="701.32" y="55.72" width="38.18" height="1.11"/><path class="cls-14" d="M739.42,45.85a44.24,44.24,0,0,1-38,8.92c.08-.36-.08-.72,0-1.08a43.65,43.65,0,0,0,37.3-8.7Z"/><path class="cls-13" d="M739.42,44.59a44.24,44.24,0,0,1-38,8.92c.08-.36-.08-.72,0-1.08a43.65,43.65,0,0,0,37.3-8.7Z"/><path class="cls-14" d="M739.42,43.34a44.24,44.24,0,0,1-38,8.92c.08-.36-.08-.72,0-1.08a43.65,43.65,0,0,0,37.3-8.7Z"/><path class="cls-24" d="M64.53,40.89a.45.45,0,0,0-.19-.36.64.64,0,0,0,.19-.44.45.45,0,0,0-.06-.21.22.22,0,0,0,0-.11c0-.41-1.4-.75-3.12-.75s-3.12.34-3.12.75a.22.22,0,0,0,0,.11.45.45,0,0,0-.06.21.64.64,0,0,0,.19.44.45.45,0,0,0-.19.36.65.65,0,0,0,.22.48.45.45,0,0,0-.22.38.64.64,0,0,0,.19.44.45.45,0,0,0-.19.36.65.65,0,0,0,.22.48.45.45,0,0,0-.22.38.64.64,0,0,0,.19.44.45.45,0,0,0-.19.36.65.65,0,0,0,.22.48.45.45,0,0,0-.22.38.64.64,0,0,0,.19.44.45.45,0,0,0-.19.36.65.65,0,0,0,.22.48.45.45,0,0,0-.22.38.64.64,0,0,0,.19.44.45.45,0,0,0-.19.36.65.65,0,0,0,.22.48.45.45,0,0,0-.22.38.64.64,0,0,0,.19.44.45.45,0,0,0-.19.36c0,1,2.19,1.1,3.14,1.1s3.14-.11,3.14-1.1a.45.45,0,0,0-.19-.36.64.64,0,0,0,.19-.44.45.45,0,0,0-.22-.38.65.65,0,0,0,.22-.48.45.45,0,0,0-.19-.36.64.64,0,0,0,.19-.44.45.45,0,0,0-.22-.38.65.65,0,0,0,.22-.48.45.45,0,0,0-.19-.36.64.64,0,0,0,.19-.44.45.45,0,0,0-.22-.38.65.65,0,0,0,.22-.48.45.45,0,0,0-.19-.36.64.64,0,0,0,.19-.44.45.45,0,0,0-.22-.38.65.65,0,0,0,.22-.48.45.45,0,0,0-.19-.36.64.64,0,0,0,.19-.44.45.45,0,0,0-.22-.38A.65.65,0,0,0,64.53,40.89Z"/><path class="cls-25" d="M64.08,49.23c0,.36-1.2.65-2.68.65s-2.68-.29-2.68-.65"/><path class="cls-26" d="M64.08,48.43c0,.36-1.2.65-2.68.65s-2.68-.29-2.68-.65"/><path class="cls-25" d="M64.08,47.56c0,.36-1.2.65-2.68.65s-2.68-.29-2.68-.65"/><path class="cls-26" d="M64.08,46.76c0,.36-1.2.65-2.68.65s-2.68-.29-2.68-.65"/><path class="cls-25" d="M64.08,45.89c0,.36-1.2.65-2.68.65s-2.68-.29-2.68-.65"/><path class="cls-26" d="M64.08,45.09c0,.36-1.2.65-2.68.65s-2.68-.29-2.68-.65"/><path class="cls-25" d="M64.08,44.22c0,.36-1.2.65-2.68.65s-2.68-.29-2.68-.65"/><path class="cls-26" d="M64.08,43.42c0,.36-1.2.65-2.68.65s-2.68-.29-2.68-.65"/><path class="cls-25" d="M64.08,42.56c0,.36-1.2.65-2.68.65s-2.68-.29-2.68-.65"/><path class="cls-26" d="M64.08,41.75c0,.36-1.2.65-2.68.65s-2.68-.29-2.68-.65"/><path class="cls-25" d="M64.08,40.89c0,.36-1.2.65-2.68.65s-2.68-.29-2.68-.65"/><path class="cls-26" d="M64.08,40.09c0,.36-1.2.65-2.68.65s-2.68-.29-2.68-.65"/><ellipse class="cls-13" cx="61.4" cy="39.76" rx="3.12" ry="0.75"/><path class="cls-24" d="M71.91,40.76a.45.45,0,0,0-.19-.36.64.64,0,0,0,.19-.44.45.45,0,0,0-.06-.21.22.22,0,0,0,0-.11c0-.41-1.4-.75-3.12-.75s-3.12.34-3.12.75a.22.22,0,0,0,0,.11.45.45,0,0,0-.06.21.64.64,0,0,0,.19.44.45.45,0,0,0-.19.36.65.65,0,0,0,.22.48.45.45,0,0,0-.22.38.64.64,0,0,0,.19.44.45.45,0,0,0-.19.36.65.65,0,0,0,.22.48.45.45,0,0,0-.22.38.64.64,0,0,0,.19.44.45.45,0,0,0-.19.36.65.65,0,0,0,.22.48.45.45,0,0,0-.22.38.64.64,0,0,0,.19.44.45.45,0,0,0-.19.36.65.65,0,0,0,.22.48.45.45,0,0,0-.22.38.64.64,0,0,0,.19.44.45.45,0,0,0-.19.36.65.65,0,0,0,.22.48.45.45,0,0,0-.22.38.64.64,0,0,0,.19.44.45.45,0,0,0-.19.36c0,1,2.19,1.1,3.14,1.1s3.14-.11,3.14-1.1a.45.45,0,0,0-.19-.36.64.64,0,0,0,.19-.44.45.45,0,0,0-.22-.38.65.65,0,0,0,.22-.48.45.45,0,0,0-.19-.36.64.64,0,0,0,.19-.44.45.45,0,0,0-.22-.38.65.65,0,0,0,.22-.48.45.45,0,0,0-.19-.36.64.64,0,0,0,.19-.44.45.45,0,0,0-.22-.38.65.65,0,0,0,.22-.48.45.45,0,0,0-.19-.36.64.64,0,0,0,.19-.44.45.45,0,0,0-.22-.38.65.65,0,0,0,.22-.48.45.45,0,0,0-.19-.36.64.64,0,0,0,.19-.44.45.45,0,0,0-.22-.38A.65.65,0,0,0,71.91,40.76Z"/><path class="cls-25" d="M71.46,49.1c0,.36-1.2.65-2.68.65s-2.68-.29-2.68-.65"/><path class="cls-26" d="M71.46,48.3c0,.36-1.2.65-2.68.65s-2.68-.29-2.68-.65"/><path class="cls-25" d="M71.46,47.44c0,.36-1.2.65-2.68.65s-2.68-.29-2.68-.65"/><path class="cls-26" d="M71.46,46.63c0,.36-1.2.65-2.68.65S66.1,47,66.1,46.63"/><path class="cls-25" d="M71.46,45.77c0,.36-1.2.65-2.68.65s-2.68-.29-2.68-.65"/><path class="cls-26" d="M71.46,45c0,.36-1.2.65-2.68.65S66.1,45.32,66.1,45"/><path class="cls-25" d="M71.46,44.1c0,.36-1.2.65-2.68.65s-2.68-.29-2.68-.65"/><path class="cls-26" d="M71.46,43.3c0,.36-1.2.65-2.68.65s-2.68-.29-2.68-.65"/><path class="cls-25" d="M71.46,42.43c0,.36-1.2.65-2.68.65s-2.68-.29-2.68-.65"/><path class="cls-26" d="M71.46,41.63c0,.36-1.2.65-2.68.65S66.1,42,66.1,41.63"/><path class="cls-25" d="M71.46,40.76c0,.36-1.2.65-2.68.65s-2.68-.29-2.68-.65"/><path class="cls-26" d="M71.46,40c0,.36-1.2.65-2.68.65S66.1,40.32,66.1,40"/><ellipse class="cls-13" cx="68.78" cy="39.64" rx="3.12" ry="0.75"/><path class="cls-24" d="M79.41,40.76a.45.45,0,0,0-.19-.36.64.64,0,0,0,.19-.44.45.45,0,0,0-.06-.21.22.22,0,0,0,0-.11c0-.41-1.4-.75-3.12-.75s-3.12.34-3.12.75a.22.22,0,0,0,0,.11.45.45,0,0,0-.06.21.64.64,0,0,0,.19.44.45.45,0,0,0-.19.36.65.65,0,0,0,.22.48.45.45,0,0,0-.22.38.64.64,0,0,0,.19.44.45.45,0,0,0-.19.36.65.65,0,0,0,.22.48.45.45,0,0,0-.22.38.64.64,0,0,0,.19.44.45.45,0,0,0-.19.36.65.65,0,0,0,.22.48.45.45,0,0,0-.22.38.64.64,0,0,0,.19.44.45.45,0,0,0-.19.36.65.65,0,0,0,.22.48.45.45,0,0,0-.22.38.64.64,0,0,0,.19.44.45.45,0,0,0-.19.36.65.65,0,0,0,.22.48.45.45,0,0,0-.22.38.64.64,0,0,0,.19.44.45.45,0,0,0-.19.36c0,1,2.19,1.1,3.14,1.1s3.14-.11,3.14-1.1a.45.45,0,0,0-.19-.36.64.64,0,0,0,.19-.44.45.45,0,0,0-.22-.38.65.65,0,0,0,.22-.48.45.45,0,0,0-.19-.36.64.64,0,0,0,.19-.44.45.45,0,0,0-.22-.38.65.65,0,0,0,.22-.48.45.45,0,0,0-.19-.36.64.64,0,0,0,.19-.44.45.45,0,0,0-.22-.38.65.65,0,0,0,.22-.48.45.45,0,0,0-.19-.36.64.64,0,0,0,.19-.44.45.45,0,0,0-.22-.38.65.65,0,0,0,.22-.48.45.45,0,0,0-.19-.36.64.64,0,0,0,.19-.44.45.45,0,0,0-.22-.38A.65.65,0,0,0,79.41,40.76Z"/><path class="cls-25" d="M79,49.1c0,.36-1.2.65-2.68.65s-2.68-.29-2.68-.65"/><path class="cls-26" d="M79,48.3c0,.36-1.2.65-2.68.65s-2.68-.29-2.68-.65"/><path class="cls-25" d="M79,47.44c0,.36-1.2.65-2.68.65s-2.68-.29-2.68-.65"/><path class="cls-26" d="M79,46.63c0,.36-1.2.65-2.68.65S73.6,47,73.6,46.63"/><path class="cls-25" d="M79,45.77c0,.36-1.2.65-2.68.65s-2.68-.29-2.68-.65"/><path class="cls-26" d="M79,45c0,.36-1.2.65-2.68.65S73.6,45.32,73.6,45"/><path class="cls-25" d="M79,44.1c0,.36-1.2.65-2.68.65s-2.68-.29-2.68-.65"/><path class="cls-26" d="M79,43.3c0,.36-1.2.65-2.68.65s-2.68-.29-2.68-.65"/><path class="cls-25" d="M79,42.43c0,.36-1.2.65-2.68.65s-2.68-.29-2.68-.65"/><path class="cls-26" d="M79,41.63c0,.36-1.2.65-2.68.65S73.6,42,73.6,41.63"/><path class="cls-25" d="M79,40.76c0,.36-1.2.65-2.68.65s-2.68-.29-2.68-.65"/><path class="cls-26" d="M79,40c0,.36-1.2.65-2.68.65S73.6,40.32,73.6,40"/><ellipse class="cls-13" cx="76.27" cy="39.64" rx="3.12" ry="0.75"/><path class="cls-27" d="M63.43,47.13a.57.57,0,0,0-.23-.45.8.8,0,0,0,.23-.56.56.56,0,0,0-.07-.26.27.27,0,0,0,0-.14c0-.52-1.75-.94-3.92-.94s-3.92.42-3.92.94a.27.27,0,0,0,0,.14.56.56,0,0,0-.07.26.8.8,0,0,0,.23.56.57.57,0,0,0-.23.45.82.82,0,0,0,.28.61.57.57,0,0,0-.28.48.8.8,0,0,0,.23.56.57.57,0,0,0-.23.45.82.82,0,0,0,.28.61.57.57,0,0,0-.28.48.8.8,0,0,0,.23.56.57.57,0,0,0-.23.45.82.82,0,0,0,.28.61.57.57,0,0,0-.28.48.8.8,0,0,0,.23.56.57.57,0,0,0-.23.45.82.82,0,0,0,.28.61.57.57,0,0,0-.28.48.8.8,0,0,0,.23.56.57.57,0,0,0-.23.45.82.82,0,0,0,.28.61.57.57,0,0,0-.28.48.8.8,0,0,0,.23.56.57.57,0,0,0-.23.45c0,1.25,2.76,1.39,3.94,1.39s3.94-.14,3.94-1.39a.57.57,0,0,0-.23-.45.8.8,0,0,0,.23-.56.57.57,0,0,0-.28-.48.82.82,0,0,0,.28-.61.57.57,0,0,0-.23-.45.8.8,0,0,0,.23-.56.57.57,0,0,0-.28-.48.82.82,0,0,0,.28-.61A.57.57,0,0,0,63.2,53a.8.8,0,0,0,.23-.56.57.57,0,0,0-.28-.48.82.82,0,0,0,.28-.61.57.57,0,0,0-.23-.45.8.8,0,0,0,.23-.56.57.57,0,0,0-.28-.48.82.82,0,0,0,.28-.61.57.57,0,0,0-.23-.45.8.8,0,0,0,.23-.56.57.57,0,0,0-.28-.48A.82.82,0,0,0,63.43,47.13Z"/><path class="cls-28" d="M62.85,57.61c0,.45-1.51.81-3.37.81s-3.37-.36-3.37-.81"/><path class="cls-29" d="M62.85,56.6c0,.45-1.51.81-3.37.81s-3.37-.36-3.37-.81"/><path class="cls-28" d="M62.85,55.51c0,.45-1.51.81-3.37.81s-3.37-.36-3.37-.81"/><path class="cls-29" d="M62.85,54.5c0,.45-1.51.81-3.37.81s-3.37-.36-3.37-.81"/><path class="cls-28" d="M62.85,53.42c0,.45-1.51.81-3.37.81s-3.37-.36-3.37-.81"/><path class="cls-29" d="M62.85,52.41c0,.45-1.51.81-3.37.81s-3.37-.36-3.37-.81"/><path class="cls-28" d="M62.85,51.32c0,.45-1.51.81-3.37.81s-3.37-.36-3.37-.81"/><path class="cls-29" d="M62.85,50.31c0,.45-1.51.81-3.37.81s-3.37-.36-3.37-.81"/><path class="cls-28" d="M62.85,49.22c0,.45-1.51.81-3.37.81s-3.37-.36-3.37-.81"/><path class="cls-29" d="M62.85,48.21c0,.45-1.51.81-3.37.81s-3.37-.36-3.37-.81"/><path class="cls-28" d="M62.85,47.13c0,.45-1.51.81-3.37.81s-3.37-.36-3.37-.81"/><path class="cls-29" d="M62.85,46.12c0,.45-1.51.81-3.37.81s-3.37-.36-3.37-.81"/><ellipse class="cls-13" cx="59.49" cy="45.71" rx="3.92" ry="0.94"/><path class="cls-27" d="M72.7,47a.57.57,0,0,0-.23-.45A.8.8,0,0,0,72.7,46a.56.56,0,0,0-.07-.26.27.27,0,0,0,0-.14c0-.52-1.75-.94-3.92-.94s-3.92.42-3.92.94a.27.27,0,0,0,0,.14.56.56,0,0,0-.07.26.8.8,0,0,0,.23.56.57.57,0,0,0-.23.45.82.82,0,0,0,.28.61.57.57,0,0,0-.28.48.8.8,0,0,0,.23.56.57.57,0,0,0-.23.45.82.82,0,0,0,.28.61.57.57,0,0,0-.28.48.8.8,0,0,0,.23.56.57.57,0,0,0-.23.45.82.82,0,0,0,.28.61.57.57,0,0,0-.28.48.8.8,0,0,0,.23.56.57.57,0,0,0-.23.45.82.82,0,0,0,.28.61.57.57,0,0,0-.28.48.8.8,0,0,0,.23.56.57.57,0,0,0-.23.45.82.82,0,0,0,.28.61.57.57,0,0,0-.28.48.8.8,0,0,0,.23.56.57.57,0,0,0-.23.45c0,1.25,2.76,1.39,3.94,1.39s3.94-.14,3.94-1.39a.57.57,0,0,0-.23-.45.8.8,0,0,0,.23-.56.57.57,0,0,0-.28-.48.82.82,0,0,0,.28-.61.57.57,0,0,0-.23-.45.8.8,0,0,0,.23-.56.57.57,0,0,0-.28-.48.82.82,0,0,0,.28-.61.57.57,0,0,0-.23-.45.8.8,0,0,0,.23-.56.57.57,0,0,0-.28-.48.82.82,0,0,0,.28-.61.57.57,0,0,0-.23-.45.8.8,0,0,0,.23-.56.57.57,0,0,0-.28-.48.82.82,0,0,0,.28-.61.57.57,0,0,0-.23-.45.8.8,0,0,0,.23-.56.57.57,0,0,0-.28-.48A.82.82,0,0,0,72.7,47Z"/><path class="cls-28" d="M72.13,57.45c0,.45-1.51.81-3.37.81s-3.37-.36-3.37-.81"/><path class="cls-29" d="M72.13,56.44c0,.45-1.51.81-3.37.81s-3.37-.36-3.37-.81"/><path class="cls-28" d="M72.13,55.35c0,.45-1.51.81-3.37.81s-3.37-.36-3.37-.81"/><path class="cls-29" d="M72.13,54.35c0,.45-1.51.81-3.37.81s-3.37-.36-3.37-.81"/><path class="cls-28" d="M72.13,53.26c0,.45-1.51.81-3.37.81s-3.37-.36-3.37-.81"/><path class="cls-29" d="M72.13,52.25c0,.45-1.51.81-3.37.81s-3.37-.36-3.37-.81"/><path class="cls-28" d="M72.13,51.16c0,.45-1.51.81-3.37.81s-3.37-.36-3.37-.81"/><path class="cls-29" d="M72.13,50.15c0,.45-1.51.81-3.37.81s-3.37-.36-3.37-.81"/><path class="cls-28" d="M72.13,49.06c0,.45-1.51.81-3.37.81s-3.37-.36-3.37-.81"/><path class="cls-29" d="M72.13,48.06c0,.45-1.51.81-3.37.81s-3.37-.36-3.37-.81"/><path class="cls-28" d="M72.13,47c0,.45-1.51.81-3.37.81S65.4,47.41,65.4,47"/><path class="cls-29" d="M72.13,46c0,.45-1.51.81-3.37.81S65.4,46.41,65.4,46"/><ellipse class="cls-13" cx="68.76" cy="45.55" rx="3.92" ry="0.94"/><path class="cls-27" d="M82.13,47a.57.57,0,0,0-.23-.45.8.8,0,0,0,.23-.56.56.56,0,0,0-.07-.26.27.27,0,0,0,0-.14c0-.52-1.75-.94-3.92-.94s-3.92.42-3.92.94a.27.27,0,0,0,0,.14.56.56,0,0,0-.07.26.8.8,0,0,0,.23.56.57.57,0,0,0-.23.45.82.82,0,0,0,.28.61.57.57,0,0,0-.28.48.8.8,0,0,0,.23.56.57.57,0,0,0-.23.45.82.82,0,0,0,.28.61.57.57,0,0,0-.28.48.8.8,0,0,0,.23.56.57.57,0,0,0-.23.45.82.82,0,0,0,.28.61.57.57,0,0,0-.28.48.8.8,0,0,0,.23.56.57.57,0,0,0-.23.45.82.82,0,0,0,.28.61.57.57,0,0,0-.28.48.8.8,0,0,0,.23.56.57.57,0,0,0-.23.45.82.82,0,0,0,.28.61.57.57,0,0,0-.28.48.8.8,0,0,0,.23.56.57.57,0,0,0-.23.45c0,1.25,2.76,1.39,3.94,1.39s3.94-.14,3.94-1.39a.57.57,0,0,0-.23-.45.8.8,0,0,0,.23-.56.57.57,0,0,0-.28-.48.82.82,0,0,0,.28-.61.57.57,0,0,0-.23-.45.8.8,0,0,0,.23-.56.57.57,0,0,0-.28-.48.82.82,0,0,0,.28-.61.57.57,0,0,0-.23-.45.8.8,0,0,0,.23-.56.57.57,0,0,0-.28-.48.82.82,0,0,0,.28-.61.57.57,0,0,0-.23-.45.8.8,0,0,0,.23-.56.57.57,0,0,0-.28-.48.82.82,0,0,0,.28-.61.57.57,0,0,0-.23-.45.8.8,0,0,0,.23-.56.57.57,0,0,0-.28-.48A.82.82,0,0,0,82.13,47Z"/><path class="cls-28" d="M81.55,57.45c0,.45-1.51.81-3.37.81s-3.37-.36-3.37-.81"/><path class="cls-29" d="M81.55,56.44c0,.45-1.51.81-3.37.81s-3.37-.36-3.37-.81"/><path class="cls-28" d="M81.55,55.35c0,.45-1.51.81-3.37.81s-3.37-.36-3.37-.81"/><path class="cls-29" d="M81.55,54.35c0,.45-1.51.81-3.37.81s-3.37-.36-3.37-.81"/><path class="cls-28" d="M81.55,53.26c0,.45-1.51.81-3.37.81s-3.37-.36-3.37-.81"/><path class="cls-29" d="M81.55,52.25c0,.45-1.51.81-3.37.81s-3.37-.36-3.37-.81"/><path class="cls-28" d="M81.55,51.16c0,.45-1.51.81-3.37.81s-3.37-.36-3.37-.81"/><path class="cls-29" d="M81.55,50.15c0,.45-1.51.81-3.37.81s-3.37-.36-3.37-.81"/><path class="cls-28" d="M81.55,49.06c0,.45-1.51.81-3.37.81s-3.37-.36-3.37-.81"/><path class="cls-29" d="M81.55,48.06c0,.45-1.51.81-3.37.81s-3.37-.36-3.37-.81"/><path class="cls-28" d="M81.55,47c0,.45-1.51.81-3.37.81s-3.37-.36-3.37-.81"/><path class="cls-29" d="M81.55,46c0,.45-1.51.81-3.37.81s-3.37-.36-3.37-.81"/><ellipse class="cls-13" cx="78.18" cy="45.55" rx="3.92" ry="0.94"/><path class="cls-30" d="M722.46,39.11a6.59,6.59,0,1,1-.72-8"/><polygon class="cls-7" points="725.71 25.72 725.71 35 716.43 35 725.71 25.72"/><rect class="cls-10" x="503.74" y="1.5" width="48.87" height="48.87"/><text class="cls-11" transform="translate(521 33.95)">X</text><text class="cls-1" transform="translate(455.69 92.55)"><tspan class="cls-4">M</tspan><tspan x="18.86" y="0">a</tspan><tspan class="cls-5" x="30.08" y="0">r</tspan><tspan x="37.79" y="0">keting </tspan><tspan class="cls-6" x="104.4" y="0">C</tspan><tspan x="117.65" y="0">ost</tspan></text><rect class="cls-31" x="507.71" y="117.35" width="3.24" height="9.32" transform="translate(-14.31 132.21) rotate(-14.59)"/><rect class="cls-32" x="532.67" y="104.86" width="4.8" height="20.91" transform="matrix(0.97, -0.25, 0.25, 0.97, -11.79, 138.48)"/><path class="cls-7" d="M521.09,133.56a7.45,7.45,0,1,1,7.45-7.45A7.45,7.45,0,0,1,521.09,133.56Zm0-11.84a4.4,4.4,0,1,0,4.4,4.4A4.4,4.4,0,0,0,521.09,121.72Z"/><path class="cls-17" d="M521.09,119.33a6.79,6.79,0,1,1-6.79,6.79,6.8,6.8,0,0,1,6.79-6.79m0,11.84a5.05,5.05,0,1,0-5.05-5.05,5.06,5.06,0,0,0,5.05,5.05m0-13.16a8.1,8.1,0,1,0,8.1,8.1,8.11,8.11,0,0,0-8.1-8.1Zm0,11.84a3.74,3.74,0,1,1,3.74-3.74,3.74,3.74,0,0,1-3.74,3.74Z"/><polygon class="cls-33" points="535.12 125.05 512.08 126.12 509.73 117.09 530.37 106.79 535.12 125.05"/><line class="cls-34" x1="553.04" y1="111.59" x2="556.29" y2="110.93"/><line class="cls-34" x1="551.05" y1="108.07" x2="553.29" y2="105.63"/><line class="cls-34" x1="547.37" y1="106.39" x2="547.75" y2="103.1"/><line class="cls-34" x1="549.85" y1="118.6" x2="551.48" y2="121.48"/><line class="cls-34" x1="552.58" y1="115.61" x2="555.6" y2="116.99"/><path class="cls-7" d="M541.78,115.82a3,3,0,0,0,2.08.22c.38-.1.92-.42.78-1-.22-.83-3.27-.25-3.86-2.47a2.73,2.73,0,0,1,1.95-3.17l-.07-1.06,1.22-.33.08,1.11a3.51,3.51,0,0,1,2.11.36l-.67,1.72a3.06,3.06,0,0,0-1.86-.12c-.39.1-.93.46-.8,1,.23.87,3.28.21,3.88,2.47a2.77,2.77,0,0,1-2.08,3.23l.08,1-1.22.33-.08-1.12a3.84,3.84,0,0,1-2.34-.5Z"/></g></g></svg>