<svg xmlns="http://www.w3.org/2000/svg" viewBox="0 0 1433.47 1045.12"><defs><style>.cls-1,.cls-4{fill:#fff;}.cls-2{opacity:0.2;}.cls-3{fill:#007cc0;}.cls-4{stroke:#0080b1;stroke-miterlimit:10;stroke-width:2px;}.cls-5{opacity:0.39;}.cls-6{fill:#0080b1;}</style></defs><title>white-car-bg_1</title><g id="Layer_2" data-name="Layer 2"><g id="Layer_1-2" data-name="Layer 1"><rect class="cls-1" x="3.79" width="1429.68" height="1045.12"/><g class="cls-2"><rect class="cls-3" x="925.21" y="510.47" width="82.9" height="68.38"/><rect class="cls-3" x="893.96" y="515.79" width="35.76" height="63.06"/><rect class="cls-3" x="895.45" y="511.59" width="26.02" height="10.43"/><rect class="cls-3" x="900.12" y="507.5" width="16.09" height="7.16"/><rect class="cls-3" x="906.87" y="504.94" width="4.97" height="3.89"/><rect class="cls-3" x="937.53" y="442.42" width="35.76" height="136.43"/><rect class="cls-3" x="939.91" y="423.94" width="30.99" height="29.87"/><rect class="cls-3" x="942" y="419.03" width="26.82" height="14.93"/><rect class="cls-3" x="944.13" y="407.98" width="22.55" height="23.22"/><rect class="cls-3" x="947.96" y="402.25" width="14.9" height="11.05"/><rect class="cls-1" x="943.79" y="428.64" width="10.03" height="5.32"/><rect class="cls-1" x="957" y="428.64" width="10.03" height="5.32"/><rect class="cls-1" x="943.79" y="438.87" width="10.03" height="5.32"/><rect class="cls-1" x="957" y="438.87" width="10.03" height="5.32"/><rect class="cls-1" x="943.79" y="449.1" width="10.03" height="5.32"/><rect class="cls-1" x="957" y="449.1" width="10.03" height="5.32"/><rect class="cls-1" x="943.79" y="459.33" width="10.03" height="5.32"/><rect class="cls-1" x="957" y="459.33" width="10.03" height="5.32"/><rect class="cls-1" x="943.79" y="469.55" width="10.03" height="5.32"/><rect class="cls-1" x="957" y="469.55" width="10.03" height="5.32"/><rect class="cls-1" x="943.79" y="479.78" width="10.03" height="5.32"/><rect class="cls-1" x="957" y="479.78" width="10.03" height="5.32"/><rect class="cls-1" x="943.79" y="490.01" width="10.03" height="5.32"/><rect class="cls-1" x="957" y="490.01" width="10.03" height="5.32"/><rect class="cls-1" x="943.79" y="500.24" width="10.03" height="5.32"/><rect class="cls-1" x="957" y="500.24" width="10.03" height="5.32"/><rect class="cls-1" x="943.79" y="510.47" width="10.03" height="5.32"/><rect class="cls-1" x="957" y="510.47" width="10.03" height="5.32"/><rect class="cls-1" x="943.79" y="520.69" width="10.03" height="5.32"/><rect class="cls-1" x="957" y="520.69" width="10.03" height="5.32"/><rect class="cls-3" x="1223.76" y="510.47" width="82.9" height="68.38"/><rect class="cls-3" x="1192.51" y="515.79" width="35.76" height="63.06"/><rect class="cls-3" x="1194" y="511.59" width="26.02" height="10.43"/><rect class="cls-3" x="1198.67" y="507.5" width="16.09" height="7.16"/><rect class="cls-3" x="1205.42" y="504.94" width="4.97" height="3.89"/><rect class="cls-3" x="1236.08" y="442.42" width="35.76" height="136.43"/><rect class="cls-3" x="1238.46" y="423.94" width="30.99" height="29.87"/><rect class="cls-3" x="1240.55" y="419.03" width="26.82" height="14.93"/><rect class="cls-3" x="1242.69" y="407.98" width="22.55" height="23.22"/><rect class="cls-3" x="1246.51" y="402.25" width="14.9" height="11.05"/><rect class="cls-3" x="1249.59" y="374.64" width="8.74" height="35.8"/><rect class="cls-3" x="1252.27" y="331.37" width="3.38" height="46.84"/><rect class="cls-3" x="1249.59" y="369.42" width="8.74" height="1.94"/><rect class="cls-1" x="1242.34" y="428.64" width="10.03" height="5.32"/><rect class="cls-1" x="1255.55" y="428.64" width="10.03" height="5.32"/><rect class="cls-1" x="1242.34" y="438.87" width="10.03" height="5.32"/><rect class="cls-1" x="1255.55" y="438.87" width="10.03" height="5.32"/><rect class="cls-1" x="1242.34" y="449.1" width="10.03" height="5.32"/><rect class="cls-1" x="1255.55" y="449.1" width="10.03" height="5.32"/><rect class="cls-1" x="1242.34" y="459.33" width="10.03" height="5.32"/><rect class="cls-1" x="1255.55" y="459.33" width="10.03" height="5.32"/><rect class="cls-1" x="1242.34" y="469.55" width="10.03" height="5.32"/><rect class="cls-1" x="1255.55" y="469.55" width="10.03" height="5.32"/><rect class="cls-1" x="1242.34" y="479.78" width="10.03" height="5.32"/><rect class="cls-1" x="1255.55" y="479.78" width="10.03" height="5.32"/><rect class="cls-1" x="1242.34" y="490.01" width="10.03" height="5.32"/><rect class="cls-1" x="1255.55" y="490.01" width="10.03" height="5.32"/><rect class="cls-1" x="1242.34" y="500.24" width="10.03" height="5.32"/><rect class="cls-1" x="1255.55" y="500.24" width="10.03" height="5.32"/><rect class="cls-1" x="1242.34" y="510.47" width="10.03" height="5.32"/><rect class="cls-1" x="1255.55" y="510.47" width="10.03" height="5.32"/><rect class="cls-1" x="1242.34" y="520.69" width="10.03" height="5.32"/><rect class="cls-1" x="1255.55" y="520.69" width="10.03" height="5.32"/><rect class="cls-3" x="1342.16" y="446.78" width="40" height="132.07"/><rect class="cls-3" x="1349.58" y="444.19" width="30.46" height="9.61"/><rect class="cls-3" x="1360.44" y="441.53" width="15.36" height="7.47"/><rect class="cls-1" x="1350.54" y="456.87" width="10.03" height="5.32"/><rect class="cls-1" x="1363.75" y="456.87" width="10.03" height="5.32"/><rect class="cls-1" x="1350.54" y="467.1" width="10.03" height="5.32"/><rect class="cls-1" x="1363.75" y="467.1" width="10.03" height="5.32"/><rect class="cls-1" x="1350.54" y="477.33" width="10.03" height="5.32"/><rect class="cls-1" x="1363.75" y="477.33" width="10.03" height="5.32"/><rect class="cls-1" x="1350.54" y="487.56" width="10.03" height="5.32"/><rect class="cls-1" x="1363.75" y="487.56" width="10.03" height="5.32"/><rect class="cls-3" x="1317.79" y="515.79" width="35.76" height="63.06"/><rect class="cls-3" x="1319.28" y="511.59" width="26.02" height="10.43"/><rect class="cls-3" x="1323.95" y="507.5" width="16.09" height="7.16"/><rect class="cls-3" x="1330.7" y="504.94" width="4.97" height="3.89"/><rect class="cls-3" x="1280.84" y="494.51" width="33.67" height="84.34"/><rect class="cls-3" x="1288.49" y="489.5" width="26.02" height="12.27"/><rect class="cls-3" x="1284.72" y="485.1" width="4.87" height="14.11"/><rect class="cls-3" x="1291.17" y="485.1" width="20.06" height="7.57"/><rect class="cls-3" x="1085.07" y="540.54" width="240.86" height="38.31"/><rect class="cls-3" x="1272.9" y="514.66" width="11.82" height="2.97"/><rect class="cls-3" x="1275.08" y="516.14" width="7.35" height="48.79"/><rect class="cls-3" x="1272.9" y="523.35" width="14.25" height="48.54"/><rect class="cls-3" x="1085.07" y="494.51" width="33.67" height="84.34"/><rect class="cls-3" x="1092.72" y="489.5" width="26.02" height="12.27"/><rect class="cls-3" x="1088.95" y="485.1" width="4.87" height="14.11"/><rect class="cls-3" x="1095.4" y="485.1" width="20.06" height="7.57"/><rect class="cls-3" x="1181.07" y="540.54" width="240.86" height="38.31"/><rect class="cls-3" x="1395.46" y="494.51" width="33.67" height="84.34"/><rect class="cls-3" x="1403.11" y="489.5" width="26.02" height="12.27"/><rect class="cls-3" x="1399.33" y="485.1" width="4.87" height="14.11"/><rect class="cls-3" x="1405.79" y="485.1" width="20.06" height="7.57"/><rect class="cls-3" x="1124.92" y="410.44" width="36.15" height="168.41"/><rect class="cls-1" x="1131.37" y="420.46" width="10.03" height="5.32"/><rect class="cls-1" x="1144.59" y="420.46" width="10.03" height="5.32"/><rect class="cls-1" x="1131.37" y="430.69" width="10.03" height="5.32"/><rect class="cls-1" x="1144.59" y="430.69" width="10.03" height="5.32"/><rect class="cls-1" x="1131.37" y="440.92" width="10.03" height="5.32"/><rect class="cls-1" x="1144.59" y="440.92" width="10.03" height="5.32"/><rect class="cls-1" x="1131.37" y="451.14" width="10.03" height="5.32"/><rect class="cls-1" x="1144.59" y="451.14" width="10.03" height="5.32"/><rect class="cls-1" x="1131.37" y="461.37" width="10.03" height="5.32"/><rect class="cls-1" x="1144.59" y="461.37" width="10.03" height="5.32"/><rect class="cls-1" x="1131.37" y="471.6" width="10.03" height="5.32"/><rect class="cls-1" x="1144.59" y="471.6" width="10.03" height="5.32"/><rect class="cls-1" x="1131.37" y="481.83" width="10.03" height="5.32"/><rect class="cls-1" x="1144.59" y="481.83" width="10.03" height="5.32"/><rect class="cls-1" x="1131.37" y="492.06" width="10.03" height="5.32"/><rect class="cls-1" x="1144.59" y="492.06" width="10.03" height="5.32"/><rect class="cls-1" x="1131.37" y="502.28" width="10.03" height="5.32"/><rect class="cls-1" x="1144.59" y="502.28" width="10.03" height="5.32"/><rect class="cls-1" x="1131.37" y="512.51" width="10.03" height="5.32"/><rect class="cls-1" x="1144.59" y="512.51" width="10.03" height="5.32"/><rect class="cls-3" x="1127.77" y="407.64" width="30" height="7.3"/><rect class="cls-3" x="1133.06" y="397.55" width="24.43" height="15.34"/><rect class="cls-3" x="1136.9" y="395.84" width="20.59" height="3.95"/><rect class="cls-3" x="1158.82" y="459.33" width="5.03" height="119.52"/><rect class="cls-3" x="1162.53" y="443.28" width="48.47" height="135.57"/><rect class="cls-3" x="1166.24" y="436.62" width="22.91" height="13.84"/><rect class="cls-3" x="1195.24" y="434.85" width="8.05" height="12.64"/><rect class="cls-3" x="1204.3" y="440.49" width="4.45" height="7"/><rect class="cls-3" x="1052.9" y="446.34" width="40" height="132.07"/><polygon class="cls-3" points="1081.48 453.8 1051.02 453.8 1060.31 443.75 1090.77 443.75 1081.48 453.8"/><rect class="cls-3" x="1071.17" y="441.09" width="15.36" height="7.47"/><rect class="cls-1" x="1061.27" y="456.43" width="10.03" height="5.32"/><rect class="cls-1" x="1074.48" y="456.43" width="10.03" height="5.32"/><rect class="cls-1" x="1061.27" y="466.66" width="10.03" height="5.32"/><rect class="cls-1" x="1074.48" y="466.66" width="10.03" height="5.32"/><rect class="cls-1" x="1061.27" y="476.88" width="10.03" height="5.32"/><rect class="cls-1" x="1074.48" y="476.88" width="10.03" height="5.32"/><rect class="cls-1" x="1051.98" y="487.56" width="10.03" height="5.32"/><rect class="cls-1" x="1065.19" y="487.56" width="10.03" height="5.32"/><rect class="cls-3" x="1019.24" y="515.79" width="35.76" height="63.06"/><rect class="cls-3" x="1020.73" y="511.59" width="26.02" height="10.43"/><rect class="cls-3" x="1025.4" y="507.5" width="16.09" height="7.16"/><rect class="cls-3" x="1032.15" y="504.94" width="4.97" height="3.89"/><rect class="cls-3" x="982.29" y="494.51" width="33.67" height="84.34"/><rect class="cls-3" x="989.94" y="489.5" width="26.02" height="12.27"/><rect class="cls-3" x="986.16" y="485.1" width="4.87" height="14.11"/><rect class="cls-3" x="992.62" y="485.1" width="20.06" height="7.57"/><rect class="cls-3" x="900.12" y="540.54" width="127.27" height="38.31"/><rect class="cls-3" x="974.34" y="514.66" width="11.82" height="2.97"/><rect class="cls-3" x="976.53" y="516.14" width="7.35" height="48.79"/><rect class="cls-3" x="974.34" y="523.35" width="14.25" height="48.54"/><rect class="cls-3" x="220.9" y="510.47" width="82.9" height="68.38"/><rect class="cls-3" x="189.65" y="515.79" width="35.76" height="63.06"/><rect class="cls-3" x="191.14" y="511.59" width="26.02" height="10.43"/><rect class="cls-3" x="195.8" y="507.5" width="16.09" height="7.16"/><rect class="cls-3" x="202.56" y="504.94" width="4.97" height="3.89"/><rect class="cls-3" x="233.22" y="442.42" width="35.76" height="136.43"/><rect class="cls-3" x="235.6" y="423.94" width="30.99" height="29.87"/><rect class="cls-3" x="237.69" y="419.03" width="26.82" height="14.93"/><rect class="cls-3" x="239.82" y="407.98" width="22.55" height="23.22"/><rect class="cls-3" x="243.65" y="402.25" width="14.9" height="11.05"/><rect class="cls-1" x="239.47" y="428.64" width="10.03" height="5.32"/><rect class="cls-1" x="252.68" y="428.64" width="10.03" height="5.32"/><rect class="cls-1" x="239.47" y="438.87" width="10.03" height="5.32"/><rect class="cls-1" x="252.68" y="438.87" width="10.03" height="5.32"/><rect class="cls-1" x="239.47" y="449.1" width="10.03" height="5.32"/><rect class="cls-1" x="252.68" y="449.1" width="10.03" height="5.32"/><rect class="cls-1" x="239.47" y="459.33" width="10.03" height="5.32"/><rect class="cls-1" x="252.68" y="459.33" width="10.03" height="5.32"/><rect class="cls-1" x="239.47" y="469.55" width="10.03" height="5.32"/><rect class="cls-1" x="252.68" y="469.55" width="10.03" height="5.32"/><rect class="cls-1" x="239.47" y="479.78" width="10.03" height="5.32"/><rect class="cls-1" x="252.68" y="479.78" width="10.03" height="5.32"/><rect class="cls-1" x="239.47" y="490.01" width="10.03" height="5.32"/><rect class="cls-1" x="252.68" y="490.01" width="10.03" height="5.32"/><rect class="cls-1" x="239.47" y="500.24" width="10.03" height="5.32"/><rect class="cls-1" x="252.68" y="500.24" width="10.03" height="5.32"/><rect class="cls-1" x="239.47" y="510.47" width="10.03" height="5.32"/><rect class="cls-1" x="252.68" y="510.47" width="10.03" height="5.32"/><rect class="cls-1" x="239.47" y="520.69" width="10.03" height="5.32"/><rect class="cls-1" x="252.68" y="520.69" width="10.03" height="5.32"/><rect class="cls-3" x="339.3" y="446.78" width="40" height="132.07"/><rect class="cls-3" x="346.71" y="444.19" width="30.46" height="9.61"/><rect class="cls-3" x="357.57" y="441.53" width="15.36" height="7.47"/><rect class="cls-1" x="347.67" y="456.87" width="10.03" height="5.32"/><rect class="cls-1" x="360.88" y="456.87" width="10.03" height="5.32"/><rect class="cls-1" x="347.67" y="467.1" width="10.03" height="5.32"/><rect class="cls-1" x="360.88" y="467.1" width="10.03" height="5.32"/><rect class="cls-1" x="347.67" y="477.33" width="10.03" height="5.32"/><rect class="cls-1" x="360.88" y="477.33" width="10.03" height="5.32"/><rect class="cls-1" x="347.67" y="487.56" width="10.03" height="5.32"/><rect class="cls-1" x="360.88" y="487.56" width="10.03" height="5.32"/><rect class="cls-3" x="314.93" y="515.79" width="35.76" height="63.06"/><rect class="cls-3" x="316.42" y="511.59" width="26.02" height="10.43"/><rect class="cls-3" x="321.09" y="507.5" width="16.09" height="7.16"/><rect class="cls-3" x="327.84" y="504.94" width="4.97" height="3.89"/><rect class="cls-3" x="277.98" y="494.51" width="33.67" height="84.34"/><rect class="cls-3" x="285.63" y="489.5" width="26.02" height="12.27"/><rect class="cls-3" x="281.85" y="485.1" width="4.87" height="14.11"/><rect class="cls-3" x="288.31" y="485.1" width="20.06" height="7.57"/><rect class="cls-3" x="195.8" y="540.54" width="127.27" height="38.31"/><rect class="cls-3" x="270.03" y="514.66" width="11.82" height="2.97"/><rect class="cls-3" x="272.22" y="516.14" width="7.35" height="48.79"/><rect class="cls-3" x="270.03" y="523.35" width="14.25" height="48.54"/><rect class="cls-3" x="31.25" y="510.47" width="82.9" height="68.38"/><rect class="cls-3" y="515.79" width="35.76" height="63.06"/><rect class="cls-3" x="1.49" y="511.59" width="26.02" height="10.43"/><rect class="cls-3" x="6.16" y="507.5" width="16.09" height="7.16"/><rect class="cls-3" x="12.91" y="504.94" width="4.97" height="3.89"/><rect class="cls-3" x="43.57" y="442.42" width="35.76" height="136.43"/><rect class="cls-3" x="45.95" y="423.94" width="30.99" height="29.87"/><rect class="cls-3" x="48.04" y="419.03" width="26.82" height="14.93"/><rect class="cls-3" x="50.18" y="407.98" width="22.55" height="23.22"/><rect class="cls-3" x="54" y="402.25" width="14.9" height="11.05"/><rect class="cls-1" x="49.83" y="428.64" width="10.03" height="5.32"/><rect class="cls-1" x="63.04" y="428.64" width="10.03" height="5.32"/><rect class="cls-1" x="49.83" y="438.87" width="10.03" height="5.32"/><rect class="cls-1" x="63.04" y="438.87" width="10.03" height="5.32"/><rect class="cls-1" x="49.83" y="449.1" width="10.03" height="5.32"/><rect class="cls-1" x="63.04" y="449.1" width="10.03" height="5.32"/><rect class="cls-1" x="49.83" y="459.33" width="10.03" height="5.32"/><rect class="cls-1" x="63.04" y="459.33" width="10.03" height="5.32"/><rect class="cls-1" x="49.83" y="469.55" width="10.03" height="5.32"/><rect class="cls-1" x="63.04" y="469.55" width="10.03" height="5.32"/><rect class="cls-1" x="49.83" y="479.78" width="10.03" height="5.32"/><rect class="cls-1" x="63.04" y="479.78" width="10.03" height="5.32"/><rect class="cls-1" x="49.83" y="490.01" width="10.03" height="5.32"/><rect class="cls-1" x="63.04" y="490.01" width="10.03" height="5.32"/><rect class="cls-1" x="49.83" y="500.24" width="10.03" height="5.32"/><rect class="cls-1" x="63.04" y="500.24" width="10.03" height="5.32"/><rect class="cls-1" x="49.83" y="510.47" width="10.03" height="5.32"/><rect class="cls-1" x="63.04" y="510.47" width="10.03" height="5.32"/><rect class="cls-1" x="49.83" y="520.69" width="10.03" height="5.32"/><rect class="cls-1" x="63.04" y="520.69" width="10.03" height="5.32"/><rect class="cls-3" x="149.65" y="446.78" width="40" height="132.07"/><rect class="cls-3" x="157.07" y="444.19" width="30.46" height="9.61"/><rect class="cls-3" x="167.93" y="441.53" width="15.36" height="7.47"/><rect class="cls-1" x="158.03" y="456.87" width="10.03" height="5.32"/><rect class="cls-1" x="171.24" y="456.87" width="10.03" height="5.32"/><rect class="cls-1" x="158.03" y="467.1" width="10.03" height="5.32"/><rect class="cls-1" x="171.24" y="467.1" width="10.03" height="5.32"/><rect class="cls-1" x="158.03" y="477.33" width="10.03" height="5.32"/><rect class="cls-1" x="171.24" y="477.33" width="10.03" height="5.32"/><rect class="cls-1" x="158.03" y="487.56" width="10.03" height="5.32"/><rect class="cls-1" x="171.24" y="487.56" width="10.03" height="5.32"/><rect class="cls-3" x="125.28" y="515.79" width="35.76" height="63.06"/><rect class="cls-3" x="126.77" y="511.59" width="26.02" height="10.43"/><rect class="cls-3" x="131.44" y="507.5" width="16.09" height="7.16"/><rect class="cls-3" x="138.19" y="504.94" width="4.97" height="3.89"/><rect class="cls-3" x="88.33" y="494.51" width="33.67" height="84.34"/><rect class="cls-3" x="95.98" y="489.5" width="26.02" height="12.27"/><rect class="cls-3" x="92.21" y="485.1" width="4.87" height="14.11"/><rect class="cls-3" x="98.66" y="485.1" width="20.06" height="7.57"/><rect class="cls-3" x="6.16" y="540.54" width="127.27" height="38.31"/><rect class="cls-3" x="80.39" y="514.66" width="11.82" height="2.97"/><rect class="cls-3" x="82.57" y="516.14" width="7.35" height="48.79"/><rect class="cls-3" x="80.39" y="523.35" width="14.25" height="48.54"/></g><circle class="cls-4" cx="868.62" cy="578.57" r="24.18"/><circle class="cls-4" cx="868.62" cy="578.57" r="19.44"/><circle class="cls-4" cx="868.62" cy="578.57" r="17.05"/><circle class="cls-4" cx="868.62" cy="578.57" r="11.44"/><path class="cls-4" d="M868.62,597.45a.71.71,0,0,1-.71-.71V560.47a.71.71,0,0,1,1.42,0v36.27A.71.71,0,0,1,868.62,597.45Z"/><path class="cls-4" d="M885.9,584.83a.7.7,0,0,1-.22,0l-34.56-11a.71.71,0,1,1,.43-1.35l34.56,11a.71.71,0,0,1-.22,1.38Z"/><path class="cls-4" d="M851.34,584.83a.71.71,0,0,1-.22-1.38l34.56-11a.71.71,0,1,1,.43,1.35l-34.56,11A.7.7,0,0,1,851.34,584.83Z"/><path class="cls-4" d="M857.84,593.9a.71.71,0,0,1-.57-1.13l21.57-29.17a.71.71,0,0,1,1.14.84l-21.57,29.17A.71.71,0,0,1,857.84,593.9Z"/><path class="cls-4" d="M879.41,593.9a.71.71,0,0,1-.57-.29l-21.57-29.17a.71.71,0,0,1,1.14-.84L880,592.77a.71.71,0,0,1-.57,1.13Z"/><circle class="cls-4" cx="868.62" cy="578.57" r="4.64"/><circle class="cls-4" cx="1069.35" cy="575.82" r="26.92"/><circle class="cls-4" cx="1069.35" cy="575.82" r="21.64"/><circle class="cls-4" cx="1069.35" cy="575.82" r="18.99"/><circle class="cls-4" cx="1069.35" cy="575.82" r="12.74"/><path class="cls-4" d="M1069.35,596.85a.79.79,0,0,1-.79-.79V555.67a.79.79,0,1,1,1.58,0v40.39A.79.79,0,0,1,1069.35,596.85Z"/><path class="cls-4" d="M1088.59,582.79a.78.78,0,0,1-.24,0l-38.48-12.27a.79.79,0,1,1,.48-1.5l38.48,12.27a.79.79,0,0,1-.24,1.54Z"/><path class="cls-4" d="M1050.11,582.79a.79.79,0,0,1-.24-1.54L1088.35,569a.79.79,0,1,1,.48,1.5l-38.48,12.27A.78.78,0,0,1,1050.11,582.79Z"/><path class="cls-4" d="M1057.35,592.89a.79.79,0,0,1-.63-1.26l24-32.48a.79.79,0,0,1,1.27.94l-24,32.48A.79.79,0,0,1,1057.35,592.89Z"/><path class="cls-4" d="M1081.36,592.89a.79.79,0,0,1-.63-.32l-24-32.48a.79.79,0,0,1,1.27-.94l24,32.48a.79.79,0,0,1-.63,1.26Z"/><circle class="cls-4" cx="1069.35" cy="575.82" r="5.17"/><path class="cls-4" d="M833.18,543.24a10.92,10.92,0,0,0-4.6,11.15s9.66-.77,22.06-6.9l8.86-4.25-5.78-5.55-16.05,4.25Z"/><path class="cls-4" d="M821.61,587.85H842s-4.72-32.69,25.38-35.17,29.15,33.64,29.15,33.64h139.87s-3.54-39.66,32.93-39.66a31.63,31.63,0,0,1,28.68,17.6s3.19,5.1,3.19,18.54c0,0,9.68-.13,11.92-7.81L1111,546l-1.53-2.83-.24-3.54s1.3-4.37-6.26-14.4l-8.14-11s-13.69-10.74-21.25-24.2c0,0,.94-1.42-3.78-1.65a85.56,85.56,0,0,1-13-1.3c-6.37-1.06-32.93-2.36-51.58-2.48S972.8,486,950.5,490.95s-50.4,18.18-50.4,18.18-16.17,7.79-25.73,13.57-21.36,10.39-29.27,13-12.28,6.37-11.92,7.55,5.55,1.53,11.27-.59,11.27-3.54,10.33-1.06-4.14,5.9-4.14,5.9a66.69,66.69,0,0,1-22.06,6.9s-7,7-7,14.34Z"/><path class="cls-4" d="M901.5,530.14s-4.58,26.86,0,50h128.43s-2.47-39,34.25-39c0,0,9-20.3-3.09-27.23"/><line class="cls-4" x1="970.84" y1="580.14" x2="970.84" y2="524.71"/><path class="cls-4" d="M1073.6,490l-.71,4.37s4.13,9.56,20.42,21.25l1.53-1.42S1080.92,503.11,1073.6,490Z"/><path class="cls-4" d="M1109.25,539.58s-22.07-7.67-24.79-12.75,10.39-12.63,10.39-12.63l10.06,13.67S1109.72,534.15,1109.25,539.58Z"/><path class="cls-4" d="M1097,517.07s-4.39,5.55-2.11,9.41,13.92,9,13.92,9a35.93,35.93,0,0,0-5-9.19Z"/><path class="cls-4" d="M1100.75,522.23a18.33,18.33,0,0,0-.24,8.94s-5.7-2.89-6.19-6,.89-5.52,2.63-8.07Z"/><line class="cls-4" x1="947.19" y1="534.5" x2="963.95" y2="533.68"/><line class="cls-4" x1="1040.94" y1="526.13" x2="1057.7" y2="525.3"/><rect class="cls-4" x="961.01" y="504.84" width="32.46" height="4.25" transform="translate(415.94 1454.04) rotate(-86.77)"/><rect class="cls-4" x="1034.5" y="503" width="17.55" height="4.25" transform="translate(480.09 1518.24) rotate(-86.77)"/><rect class="cls-4" x="898.38" y="517.79" width="17.55" height="4.25" transform="translate(336.88 1396.28) rotate(-86.77)"/><path class="cls-4" d="M1003.77,492.38a143.61,143.61,0,0,1,38.81,5,81.43,81.43,0,0,1,17.21,6.73l-1.91,5.89c-10.4,1.3-49.15,6.14-82.1,9.89-31.3,3.56-75.64,6.12-90.84,6.94a171.57,171.57,0,0,1,29.95-15.76l4.89-2c15.36-6.25,31.25-12.71,68.19-16,5.32-.47,10.63-.71,15.79-.71h0m0-4.25c-5.12,0-10.51.23-16.17.73-41.55,3.69-57.28,11.49-74.28,18.26s-36.51,18.88-36.51,21.4,3,2.83,3,2.83,57.76-2.83,96.47-7.24,84.82-10.23,84.82-10.23l3.78-11.65c-7.34-5-28.65-14.11-61.1-14.1Z"/><path class="cls-4" d="M1177,476.06h140c21.62,0,36.92,44,48.87,44h30.33c15.85,0,28.65,13.34,28.65,29.19V567.9c0,5.55-4.45,9.16-10,9.16h-276c-5.55,0-10-3.61-10-9.16v-43C1128.86,501,1160,476.06,1177,476.06Z"/><path class="cls-4" d="M1129,541.06s7.82-.19,7.82,6.65v3.84c0,4.38-4.55,5.51-7.82,5.51h-.18v-16Z"/><path class="cls-4" d="M1413.86,540.07V528.59a10.46,10.46,0,0,1,0-2.1,28.41,28.41,0,0,1,11,22.76v1a2.75,2.75,0,0,1-.91.12A10.13,10.13,0,0,1,1413.86,540.07Z"/><path class="cls-4" d="M1414.87,577.06h-276c-5.55,0-10-3.61-10-9.16v-3.84h296v3.84C1424.86,573.45,1420.41,577.06,1414.87,577.06Z"/><path class="cls-4" d="M1405.76,577.06c0-18-13-29.14-29.14-29.14s-29.14,11.14-29.14,29.14Z"/><circle class="cls-4" cx="1376.79" cy="579.4" r="22.83"/><circle class="cls-4" cx="1376.8" cy="579.4" r="15.34"/><path class="cls-4" d="M1215.22,577.06c0-18-13-29.14-29.14-29.14s-29.14,11.14-29.14,29.14Z"/><circle class="cls-4" cx="1186.26" cy="579.4" r="22.83"/><circle class="cls-4" cx="1186.26" cy="579.4" r="15.35"/><path class="cls-4" d="M1278.3,536.06c0,1.36,1,3,2.3,3h16.14c1.27,0,2.3-1.64,2.3-3h0c0-1.36-1-3-2.3-3H1280.6c-1.27,0-2.3,1.64-2.3,3Z"/><path class="cls-4" d="M1210.16,533.06h16.41a2.29,2.29,0,0,1,2.29,2.29v.41a2.3,2.3,0,0,1-2.3,2.3h-16.41a2.29,2.29,0,0,1-2.29-2.29v-.41A2.3,2.3,0,0,1,1210.16,533.06Z"/><path class="cls-4" d="M1346.86,516.09a5,5,0,0,0-5.11-4.71l-18.7-.11c-2.64,0-4.19,2.07-4.19,4.71v6.55c0,2.64,1.45,4.22,4.09,4.22l18.88.11c2.64,0,5-1.58,5-4.22Z"/><line class="cls-4" x1="1206.1" y1="520.36" x2="1190.14" y2="547.8"/><line class="cls-4" x1="1271.86" y1="522.36" x2="1271.86" y2="563.84"/><line class="cls-4" x1="1260.76" y1="522.36" x2="1285.67" y2="522.36"/><circle class="cls-4" cx="1186.26" cy="579.4" r="10.52"/><circle class="cls-4" cx="1186.26" cy="579.4" r="7.06"/><circle class="cls-4" cx="1376.61" cy="579.4" r="10.52"/><circle class="cls-4" cx="1376.61" cy="579.4" r="7.06"/><circle class="cls-4" cx="1186.26" cy="579.4" r="2.86"/><circle class="cls-4" cx="1376.61" cy="579.4" r="2.86"/><rect class="cls-4" x="1204.86" y="483.06" width="62" height="39" rx="6.89" ry="6.89"/><path class="cls-4" d="M1260,524.06h-48.23a8.9,8.9,0,0,1-8.89-8.89V489.95a8.9,8.9,0,0,1,8.89-8.89H1260a8.9,8.9,0,0,1,8.89,8.89v25.23A8.9,8.9,0,0,1,1260,524.06Zm-48.23-39a4.89,4.89,0,0,0-4.89,4.89v25.23a4.89,4.89,0,0,0,4.89,4.89H1260a4.89,4.89,0,0,0,4.89-4.89V489.95a4.89,4.89,0,0,0-4.89-4.89Z"/><path class="cls-4" d="M1138,515.19c-.85,3.71,3.08,6.87,6.89,6.87h45.91c3.8,0,6.11-2.3,6.11-6.1V490.71c0-3.8-2.3-7.65-6.11-7.65h-18.36C1158,483.06,1140.4,504.5,1138,515.19Z"/><path class="cls-4" d="M1190.76,524.06h-45.91a9.67,9.67,0,0,1-7.42-3.52,6.77,6.77,0,0,1-1.42-5.8h0c1.34-5.86,6.54-14.11,13.27-21,4.6-4.73,13.71-12.66,23.12-12.66h18.36c5.07,0,8.11,4.91,8.11,9.65V516C1198.86,520.88,1195.68,524.06,1190.76,524.06Zm-18.36-39c-5.79,0-13.17,4.17-20.25,11.45-6.15,6.33-11.07,14-12.24,19.12h0a2.78,2.78,0,0,0,.65,2.42,5.74,5.74,0,0,0,4.29,2h45.91c2.69,0,4.11-1.42,4.11-4.1V490.71c0-2.78-1.54-5.65-4.11-5.65Z"/><path class="cls-4" d="M1278.86,516c0,3.8,2.21,6.1,6,6.1h52.8a6.66,6.66,0,0,0,6.89-6.87c0-11.62-17.6-32.13-29.84-32.13h-29.84c-3.8,0-6,3.85-6,7.65Z"/><path class="cls-4" d="M1337.68,524.06h-52.8c-4.87,0-8-3.18-8-8.1V490.71c0-4.68,2.81-9.65,8-9.65h29.84c13.43,0,31.84,21.77,31.84,34.13A8.69,8.69,0,0,1,1337.68,524.06Zm-52.8-39c-2.51,0-4,2.87-4,5.65V516c0,2.72,1.35,4.1,4,4.1h52.8a4.67,4.67,0,0,0,4.89-4.87c0-10.37-16.64-30.13-27.84-30.13Z"/><path class="cls-4" d="M148.77,519.15S98.31,520.58,81.55,522c-19.9,1.64-57.9,11-57.9,26.58,0,22.6,16.92,38.76,30.27,38.76,82.08,0,311-.7,311-.7s9.56,2,17.76-10.68,27.07-39,12.92-48.61c0,0-51.88-35.89-105.82-35.89,0,0-32.15-1.11-46.36-1.26C221.15,489.91,204.65,490.19,148.77,519.15Z"/><path class="cls-4" d="M387.19,522S382,524.69,382,538.71s14.36,14.42,14.36,14.42"/><path class="cls-4" d="M362.86,561.31c0-1.55.73-2.25,2.29-2.25h30.91a2.58,2.58,0,0,1,2.81,2.53l-2.81,16.76a2.73,2.73,0,0,1-2.81,2.71h-28.1c-1.55,0-2.29-1.34-2.29-2.89Z"/><rect class="cls-4" x="126.86" y="578.06" width="163" height="9"/><ellipse class="cls-4" cx="50.24" cy="537.68" rx="20.67" ry="3.53" transform="translate(-166.23 42.94) rotate(-18.29)"/><path class="cls-4" d="M389.7,534.51a10.45,10.45,0,0,1,4.14-8.36c1.13.73,1.75,1.16,1.75,1.16,5.64,3.84,6,10.33,3.94,17.55A10.18,10.18,0,0,1,389.7,534.51Z"/><circle class="cls-4" cx="317.33" cy="571.29" r="35.01"/><circle class="cls-4" cx="317.33" cy="571.29" r="23.53"/><circle class="cls-4" cx="98.13" cy="571.29" r="35.01"/><circle class="cls-4" cx="98.13" cy="571.29" r="23.53"/><circle class="cls-4" cx="98.13" cy="571.29" r="5.71"/><rect class="cls-4" x="289.86" y="500.06" width="5" height="26"/><polygon class="cls-4" points="168.74 520.99 171.31 525.99 216.37 503.17 213.8 498.17 168.74 520.99"/><path class="cls-4" d="M251.07,502.06c59.16,0,71.16,6,75.64,8.38a.28.28,0,0,1,0,.06c-.1.32-1,1.4-3.75,2.47-1.1.42-2.21,1.13-3.36,1.58-9.17,3.67-20.57,8.5-44.14,8.5h-90c-1.34-1-11.9-1.13-23.13-3.61,14.06-7.14,25.18-12.55,34.4-15.92,20.22-.87,38.49-1.46,54.33-1.46h-.21m.21-4.93c-15.19,0-33.42.15-55.31,1.1-12,4.31-27,11.83-47,21.83h.1v.45h0v-.48h0v0h-.1c16,6,36.53,8,36.53,8h90.16c27.4,0,39-6.18,49.3-10.16s6.53-10.55,5-11.32c-4.61-2.39-15.07-9.44-78.72-9.44Z"/><path class="cls-4" d="M258.36,539.56a2.56,2.56,0,0,0,2.81,2.5h14.05a2.56,2.56,0,0,0,2.81-2.5h0a2.56,2.56,0,0,0-2.81-2.5H261.17a2.56,2.56,0,0,0-2.81,2.5Z"/><circle class="cls-4" cx="317.33" cy="571.29" r="13.62"/><path class="cls-4" d="M317.33,593.77a.84.84,0,0,1-.84-.84V549.74a.84.84,0,1,1,1.69,0v43.18A.84.84,0,0,1,317.33,593.77Z"/><path class="cls-4" d="M337.9,578.74a.83.83,0,0,1-.26,0L296.5,565.58A.84.84,0,1,1,297,564l41.14,13.12a.84.84,0,0,1-.26,1.65Z"/><path class="cls-4" d="M296.76,578.74a.84.84,0,0,1-.26-1.65L337.64,564a.84.84,0,1,1,.51,1.61L297,578.7A.83.83,0,0,1,296.76,578.74Z"/><path class="cls-4" d="M304.49,589.54a.84.84,0,0,1-.68-1.34l25.67-34.72a.84.84,0,0,1,1.36,1L305.17,589.2A.84.84,0,0,1,304.49,589.54Z"/><path class="cls-4" d="M330.16,589.54a.84.84,0,0,1-.68-.34l-25.67-34.72a.84.84,0,0,1,1.36-1l25.67,34.72a.84.84,0,0,1-.68,1.34Z"/><circle class="cls-4" cx="317.33" cy="571.29" r="5.53"/><line class="cls-4" x1="303.7" y1="525.18" x2="304.53" y2="538.71"/><polyline class="cls-4" points="206.36 528.06 206.36 570.06 282.32 570.06"/><path class="cls-4" d="M206.36,570.06l-52.26-6.13s-.74-21.49-27.24-28.43"/><rect class="cls-4" x="203.97" y="515.79" width="67.57" height="27.94" transform="translate(-205.54 154.71) rotate(-25.6)"/><g class="cls-5"><path class="cls-6" d="M214.85,544.5a6.11,6.11,0,0,0,4.27-.34c.73-.35,1.68-1.2,1.19-2.22-.77-1.6-6.66.72-8.68-3.5-1.44-3,.56-6.12,3.4-7.48,3.58-1.72,6.05-.72,6.05-.72l-.69,3.71a6.24,6.24,0,0,0-3.78.48c-.75.36-1.69,1.28-1.24,2.22.81,1.68,6.67-.81,8.72,3.48,1.26,2.62-.1,5.92-3.39,7.5a8.57,8.57,0,0,1-6.8.58Z"/><path class="cls-6" d="M226.77,525.64l4.29-2.05,9.42,14.24-3.73,1.79-1.85-3-4.76,2.28v3.94l-4,1.91Zm6.39,8.08-1.72-2.82c-.55-.92-1.38-2.56-1.38-2.56l0,0s.18,2,.17,3.15l0,3.66Z"/><path class="cls-6" d="M237.84,520.34l3.73-1.79L245,531.73l6.23-3,.89,3.51L242.19,537Z"/><path class="cls-6" d="M249.79,514.61l9.54-4.57.91,3.5-5.82,2.79.8,3,4.63-2.22.89,3.51-4.63,2.22.83,3.15,6.12-2.93.91,3.5-9.86,4.72Z"/></g><rect class="cls-4" x="906.16" y="518.56" width="67.57" height="27.94" transform="translate(-137.82 458.36) rotate(-25.6)"/><g class="cls-5"><path class="cls-6" d="M917,547.27a6.11,6.11,0,0,0,4.27-.34c.73-.35,1.68-1.2,1.19-2.22-.77-1.6-6.66.72-8.68-3.5-1.44-3,.56-6.12,3.4-7.48,3.58-1.72,6.05-.72,6.05-.72l-.69,3.71a6.24,6.24,0,0,0-3.78.48c-.75.36-1.69,1.28-1.24,2.22.81,1.68,6.67-.81,8.72,3.48,1.26,2.62-.1,5.92-3.39,7.5a8.57,8.57,0,0,1-6.8.58Z"/><path class="cls-6" d="M929,528.42l4.29-2.05,9.42,14.24-3.73,1.79-1.85-3-4.76,2.28v3.94l-4,1.91Zm6.39,8.08-1.72-2.82c-.55-.92-1.38-2.56-1.38-2.56l0,0s.18,2,.17,3.15l0,3.66Z"/><path class="cls-6" d="M940,523.11l3.73-1.79,3.43,13.18,6.23-3,.89,3.51-9.94,4.76Z"/><path class="cls-6" d="M952,517.39l9.54-4.57.91,3.5-5.82,2.79.8,3,4.63-2.22.89,3.51-4.63,2.22.83,3.15,6.12-2.93.91,3.5-9.86,4.72Z"/></g><rect class="cls-4" x="957.35" y="500.23" width="67.57" height="27.94" transform="translate(185.98 -259.41) rotate(16.44)"/><g class="cls-5"><path class="cls-6" d="M964.24,509.81a6.11,6.11,0,0,0,3.4,2.61c.77.23,2.05.24,2.37-.85.5-1.7-5.43-3.92-4.1-8.41.94-3.2,4.51-4.17,7.53-3.28,3.81,1.12,5,3.52,5,3.52l-3,2.3a6.24,6.24,0,0,0-3.13-2.18c-.79-.23-2.12-.18-2.41.82-.53,1.79,5.49,3.86,4.15,8.42-.82,2.79-4,4.33-7.53,3.3a8.57,8.57,0,0,1-5.44-4.12Z"/><path class="cls-6" d="M985.72,503.79l4.56,1.35L987.75,522l-4-1.17.66-3.5-5.06-1.49-2.64,2.92-4.24-1.25Zm-.67,10.28.61-3.25c.21-1,.69-2.83.69-2.83h0s-1.18,1.58-2,2.45l-2.47,2.7Z"/><path class="cls-6" d="M997.5,507.26l4,1.17-6.28,12.08,6.62,2-1.68,3.2-10.57-3.12Z"/><path class="cls-6" d="M1010.21,511l10.14,3-1.66,3.21-6.19-1.83-1.44,2.78,4.92,1.45-1.68,3.2-4.92-1.45-1.49,2.89,6.51,1.92-1.66,3.21-10.48-3.09Z"/></g><rect class="cls-4" x="282.32" y="507.89" width="50.73" height="34.58"/><g class="cls-2"><path class="cls-6" d="M289.73,528.7a7.38,7.38,0,0,0,4.26,1.84c.9,0,1.87-.35,1.87-1.42,0-2-8.09-2.17-8.09-7.52a5.41,5.41,0,0,1,4.76-5.3V514h2.71v2.27a7.79,7.79,0,0,1,4.56,1.94l-1.84,3.56a6.79,6.79,0,0,0-3.93-1.57c-.9,0-1.89.4-1.89,1.39,0,2.12,8.09,2,8.09,7.47a5.47,5.47,0,0,1-5,5.43v2.27h-2.71v-2.27a9,9,0,0,1-5.08-2.44Z"/></g><g class="cls-2"><path class="cls-6" d="M303.48,528.7a7.38,7.38,0,0,0,4.26,1.84c.9,0,1.87-.35,1.87-1.42,0-2-8.09-2.17-8.09-7.52a5.41,5.41,0,0,1,4.76-5.3V514H309v2.27a7.79,7.79,0,0,1,4.56,1.94l-1.84,3.56a6.79,6.79,0,0,0-3.93-1.57c-.9,0-1.89.4-1.89,1.39,0,2.12,8.09,2,8.09,7.47a5.47,5.47,0,0,1-5,5.43v2.27h-2.71v-2.27a9,9,0,0,1-5.08-2.44Z"/></g><g class="cls-2"><path class="cls-6" d="M318,528.7a7.38,7.38,0,0,0,4.26,1.84c.9,0,1.87-.35,1.87-1.42,0-2-8.09-2.17-8.09-7.52a5.41,5.41,0,0,1,4.76-5.3V514h2.71v2.27a7.79,7.79,0,0,1,4.56,1.94l-1.84,3.56a6.79,6.79,0,0,0-3.93-1.57c-.9,0-1.89.4-1.89,1.39,0,2.12,8.09,2,8.09,7.47a5.47,5.47,0,0,1-5,5.43v2.27h-2.71v-2.27a9,9,0,0,1-5.08-2.44Z"/></g><rect class="cls-4" x="1194.52" y="492.12" width="50.73" height="34.58" transform="translate(-82.6 283.23) rotate(-12.81)"/><g class="cls-2"><path class="cls-6" d="M1203.16,516.82a7.38,7.38,0,0,0,4.56.85c.87-.2,1.74-.75,1.51-1.8-.44-1.94-8.37-.32-9.56-5.54a5.41,5.41,0,0,1,3.46-6.23l-.52-2.28,2.65-.6.5,2.21a7.79,7.79,0,0,1,4.87.88l-1,3.88a6.79,6.79,0,0,0-4.18-.66c-.87.2-1.76.81-1.54,1.78.47,2.06,8.33.12,9.55,5.49a5.47,5.47,0,0,1-3.65,6.4l.5,2.21-2.65.6-.5-2.21a9,9,0,0,1-5.49-1.25Z"/></g><g class="cls-2"><path class="cls-6" d="M1216.57,513.77a7.38,7.38,0,0,0,4.56.85c.87-.2,1.74-.75,1.51-1.8-.44-1.94-8.37-.32-9.56-5.54a5.41,5.41,0,0,1,3.46-6.23l-.52-2.28,2.65-.6.5,2.21a7.79,7.79,0,0,1,4.87.88l-1,3.88a6.79,6.79,0,0,0-4.18-.66c-.87.2-1.76.81-1.54,1.78.47,2.06,8.33.12,9.55,5.49a5.47,5.47,0,0,1-3.65,6.4l.5,2.21-2.65.6-.5-2.21a9,9,0,0,1-5.49-1.25Z"/></g><g class="cls-2"><path class="cls-6" d="M1230.71,510.56a7.38,7.38,0,0,0,4.56.85c.87-.2,1.74-.75,1.51-1.8-.44-1.94-8.37-.32-9.56-5.54a5.41,5.41,0,0,1,3.46-6.23l-.52-2.28,2.65-.6.5,2.21a7.79,7.79,0,0,1,4.87.88l-1,3.88a6.79,6.79,0,0,0-4.18-.66c-.87.2-1.76.81-1.54,1.78.47,2.06,8.33.12,9.55,5.49a5.47,5.47,0,0,1-3.65,6.4l.5,2.21-2.65.6-.5-2.21a9,9,0,0,1-5.49-1.25Z"/></g><rect class="cls-4" x="1243.5" y="504.77" width="50.73" height="34.58" transform="translate(241.43 -387.3) rotate(19.15)"/><g class="cls-2"><path class="cls-6" d="M1250.75,519.5a7.38,7.38,0,0,0,3.42,3.14c.85.29,1.88.28,2.23-.73.65-1.88-6.93-4.7-5.18-9.76a5.41,5.41,0,0,1,6.23-3.45l.77-2.21,2.56.89-.74,2.14a7.79,7.79,0,0,1,3.67,3.33l-2.91,2.76a6.79,6.79,0,0,0-3.2-2.77c-.85-.29-1.92-.24-2.25.7-.69,2,7,4.51,5.2,9.71a5.47,5.47,0,0,1-6.49,3.49l-.74,2.14-2.56-.89.74-2.14a9,9,0,0,1-4-4Z"/></g><g class="cls-2"><path class="cls-6" d="M1263.74,524a7.38,7.38,0,0,0,3.42,3.14c.85.29,1.88.28,2.23-.73.65-1.88-6.93-4.7-5.18-9.76a5.41,5.41,0,0,1,6.23-3.45l.77-2.21,2.56.89L1273,514a7.79,7.79,0,0,1,3.67,3.33l-2.91,2.76a6.79,6.79,0,0,0-3.2-2.77c-.85-.29-1.92-.24-2.25.7-.69,2,7,4.51,5.2,9.71a5.47,5.47,0,0,1-6.49,3.49l-.74,2.14-2.56-.89.74-2.14a9,9,0,0,1-4-4Z"/></g><g class="cls-2"><path class="cls-6" d="M1277.43,528.76a7.38,7.38,0,0,0,3.42,3.14c.85.29,1.88.28,2.23-.73.65-1.88-6.93-4.7-5.18-9.76a5.41,5.41,0,0,1,6.23-3.45l.77-2.21,2.56.89-.74,2.14a7.79,7.79,0,0,1,3.67,3.33l-2.91,2.76a6.79,6.79,0,0,0-3.2-2.77c-.85-.29-1.92-.24-2.25.7-.69,2,7,4.51,5.2,9.71a5.47,5.47,0,0,1-6.49,3.49l-.74,2.14-2.56-.89.74-2.14a9,9,0,0,1-4-4Z"/></g><polygon class="cls-4" points="1036.63 484.57 985.9 484.57 993.15 449.99 1043.88 449.99 1036.63 484.57"/><g class="cls-2"><path class="cls-6" d="M996.31,470.8a7.38,7.38,0,0,0,4.26,1.84c.9,0,1.87-.35,1.87-1.42,0-2-8.09-2.17-8.09-7.52a5.41,5.41,0,0,1,4.76-5.3v-2.34h2.71v2.27a7.79,7.79,0,0,1,4.56,1.94l-1.84,3.56a6.79,6.79,0,0,0-3.93-1.57c-.9,0-1.89.4-1.89,1.39,0,2.12,8.09,2,8.09,7.47a5.47,5.47,0,0,1-5,5.43v2.27H999.1v-2.27a9,9,0,0,1-5.08-2.44Z"/></g><g class="cls-2"><path class="cls-6" d="M1010.06,470.8a7.38,7.38,0,0,0,4.26,1.84c.9,0,1.87-.35,1.87-1.42,0-2-8.09-2.17-8.09-7.52a5.41,5.41,0,0,1,4.76-5.3v-2.34h2.71v2.27a7.79,7.79,0,0,1,4.56,1.94l-1.84,3.56a6.79,6.79,0,0,0-3.93-1.57c-.9,0-1.89.4-1.89,1.39,0,2.12,8.09,2,8.09,7.47a5.47,5.47,0,0,1-5,5.43v2.27h-2.71v-2.27a9,9,0,0,1-5.08-2.44Z"/></g><g class="cls-2"><path class="cls-6" d="M1024.56,470.8a7.38,7.38,0,0,0,4.26,1.84c.9,0,1.87-.35,1.87-1.42,0-2-8.09-2.17-8.09-7.52a5.41,5.41,0,0,1,4.76-5.3v-2.34h2.71v2.27a7.79,7.79,0,0,1,4.56,1.94l-1.84,3.56a6.79,6.79,0,0,0-3.93-1.57c-.9,0-1.89.4-1.89,1.39,0,2.12,8.09,2,8.09,7.47a5.47,5.47,0,0,1-5,5.43v2.27h-2.71v-2.27a9,9,0,0,1-5.08-2.44Z"/></g><line class="cls-4" x1="1043.84" y1="448.81" x2="1051.58" y2="485.38"/></g></g></svg>