<svg xmlns="http://www.w3.org/2000/svg" viewBox="0 0 1279.8 1354.9"><defs><style>.cls-1{isolation:isolate;}.cls-2{fill:#f2f2f2;}.cls-3{opacity:0.2;mix-blend-mode:multiply;}.cls-4{fill:#bf3019;}.cls-5{fill:#fff;}.cls-6{fill:none;}</style></defs><title>white-buildings-bg</title><g class="cls-1"><g id="Layer_2" data-name="Layer 2"><g id="Capa_2" data-name="Capa 2"><polygon class="cls-2" points="3.67 8.13 641 5.89 1279.8 0 1279.8 1354.89 0 1354.89 3.67 8.13"/><g class="cls-3"><rect class="cls-4" x="819.77" y="730.4" width="36.82" height="136.43"/><rect class="cls-4" x="822.23" y="711.92" width="31.91" height="29.87"/><rect class="cls-4" x="824.37" y="707.01" width="27.62" height="14.93"/><rect class="cls-4" x="826.57" y="695.96" width="23.22" height="23.22"/><rect class="cls-4" x="830.51" y="690.23" width="15.34" height="11.05"/><rect class="cls-5" x="826.21" y="716.62" width="10.33" height="5.32"/><rect class="cls-5" x="839.82" y="716.62" width="10.33" height="5.32"/><rect class="cls-5" x="826.21" y="726.85" width="10.33" height="5.32"/><rect class="cls-5" x="839.82" y="726.85" width="10.33" height="5.32"/><rect class="cls-5" x="826.21" y="737.08" width="10.33" height="5.32"/><rect class="cls-5" x="839.82" y="737.08" width="10.33" height="5.32"/><rect class="cls-5" x="826.21" y="747.31" width="10.33" height="5.32"/><rect class="cls-5" x="839.82" y="747.31" width="10.33" height="5.32"/><rect class="cls-5" x="826.21" y="757.53" width="10.33" height="5.32"/><rect class="cls-5" x="839.82" y="757.53" width="10.33" height="5.32"/><rect class="cls-5" x="826.21" y="767.76" width="10.33" height="5.32"/><rect class="cls-5" x="839.82" y="767.76" width="10.33" height="5.32"/><rect class="cls-5" x="826.21" y="777.99" width="10.33" height="5.32"/><rect class="cls-5" x="839.82" y="777.99" width="10.33" height="5.32"/><rect class="cls-5" x="826.21" y="788.22" width="10.33" height="5.32"/><rect class="cls-5" x="839.82" y="788.22" width="10.33" height="5.32"/><rect class="cls-5" x="826.21" y="798.45" width="10.33" height="5.32"/><rect class="cls-5" x="839.82" y="798.45" width="10.33" height="5.32"/><rect class="cls-5" x="826.21" y="808.67" width="10.33" height="5.32"/><rect class="cls-5" x="839.82" y="808.67" width="10.33" height="5.32"/><rect class="cls-4" x="1067.17" y="798.45" width="85.37" height="68.38"/><rect class="cls-4" x="1034.98" y="803.77" width="36.82" height="63.06"/><rect class="cls-4" x="1036.52" y="799.57" width="26.8" height="10.43"/><rect class="cls-4" x="1041.32" y="795.48" width="16.57" height="7.16"/><rect class="cls-4" x="1048.28" y="792.92" width="5.11" height="3.89"/><rect class="cls-4" x="1079.85" y="730.4" width="36.82" height="136.43"/><rect class="cls-4" x="1082.31" y="711.92" width="31.91" height="29.87"/><rect class="cls-4" x="1084.45" y="707.01" width="27.62" height="14.93"/><rect class="cls-4" x="1086.65" y="695.96" width="23.22" height="23.22"/><rect class="cls-4" x="1090.59" y="690.23" width="15.34" height="11.05"/><rect class="cls-4" x="1093.76" y="662.62" width="9" height="35.8"/><rect class="cls-4" x="1096.52" y="619.35" width="3.48" height="46.84"/><rect class="cls-4" x="1093.76" y="657.4" width="9" height="1.94"/><rect class="cls-5" x="1086.29" y="716.62" width="10.33" height="5.32"/><rect class="cls-5" x="1099.9" y="716.62" width="10.33" height="5.32"/><rect class="cls-5" x="1086.29" y="726.85" width="10.33" height="5.32"/><rect class="cls-5" x="1099.9" y="726.85" width="10.33" height="5.32"/><rect class="cls-5" x="1086.29" y="737.08" width="10.33" height="5.32"/><rect class="cls-5" x="1099.9" y="737.08" width="10.33" height="5.32"/><rect class="cls-5" x="1086.29" y="747.31" width="10.33" height="5.32"/><rect class="cls-5" x="1099.9" y="747.31" width="10.33" height="5.32"/><rect class="cls-5" x="1086.29" y="757.53" width="10.33" height="5.32"/><rect class="cls-5" x="1099.9" y="757.53" width="10.33" height="5.32"/><rect class="cls-5" x="1086.29" y="767.76" width="10.33" height="5.32"/><rect class="cls-5" x="1099.9" y="767.76" width="10.33" height="5.32"/><rect class="cls-5" x="1086.29" y="777.99" width="10.33" height="5.32"/><rect class="cls-5" x="1099.9" y="777.99" width="10.33" height="5.32"/><rect class="cls-5" x="1086.29" y="788.22" width="10.33" height="5.32"/><rect class="cls-5" x="1099.9" y="788.22" width="10.33" height="5.32"/><rect class="cls-5" x="1086.29" y="798.45" width="10.33" height="5.32"/><rect class="cls-5" x="1099.9" y="798.45" width="10.33" height="5.32"/><rect class="cls-5" x="1086.29" y="808.67" width="10.33" height="5.32"/><rect class="cls-5" x="1099.9" y="808.67" width="10.33" height="5.32"/><rect class="cls-4" x="1189.09" y="734.76" width="41.19" height="132.07"/><rect class="cls-4" x="1196.72" y="732.17" width="31.37" height="9.61"/><rect class="cls-4" x="1207.91" y="729.51" width="15.82" height="7.47"/><rect class="cls-5" x="1197.71" y="744.85" width="10.33" height="5.32"/><rect class="cls-5" x="1211.32" y="744.85" width="10.33" height="5.32"/><rect class="cls-5" x="1197.71" y="755.08" width="10.33" height="5.32"/><rect class="cls-5" x="1211.32" y="755.08" width="10.33" height="5.32"/><rect class="cls-5" x="1197.71" y="765.31" width="10.33" height="5.32"/><rect class="cls-5" x="1211.32" y="765.31" width="10.33" height="5.32"/><rect class="cls-5" x="1197.71" y="775.54" width="10.33" height="5.32"/><rect class="cls-5" x="1211.32" y="775.54" width="10.33" height="5.32"/><rect class="cls-4" x="1163.99" y="803.77" width="36.82" height="63.06"/><rect class="cls-4" x="1165.53" y="799.57" width="26.8" height="10.43"/><rect class="cls-4" x="1170.34" y="795.48" width="16.57" height="7.16"/><rect class="cls-4" x="1177.29" y="792.92" width="5.11" height="3.89"/><rect class="cls-4" x="1125.95" y="782.49" width="34.67" height="84.34"/><rect class="cls-4" x="1133.82" y="777.48" width="26.8" height="12.27"/><rect class="cls-4" x="1129.93" y="773.08" width="5.01" height="14.11"/><rect class="cls-4" x="1136.58" y="773.08" width="20.66" height="7.57"/><rect class="cls-4" x="924.35" y="828.52" width="248.03" height="38.31"/><rect class="cls-4" x="1117.76" y="802.64" width="12.17" height="2.97"/><rect class="cls-4" x="1120.01" y="804.12" width="7.57" height="48.79"/><rect class="cls-4" x="1117.76" y="811.33" width="14.68" height="48.54"/><rect class="cls-4" x="924.35" y="782.49" width="34.67" height="84.34"/><rect class="cls-4" x="932.22" y="777.48" width="26.8" height="12.27"/><rect class="cls-4" x="928.34" y="773.08" width="5.01" height="14.11"/><rect class="cls-4" x="934.99" y="773.08" width="20.66" height="7.57"/><rect class="cls-4" x="1023.2" y="828.52" width="248.03" height="38.31"/><rect class="cls-4" x="1243.97" y="782.49" width="34.67" height="84.34"/><rect class="cls-4" x="1251.85" y="777.48" width="26.8" height="12.27"/><rect class="cls-4" x="1247.96" y="773.08" width="5.01" height="14.11"/><rect class="cls-4" x="1254.61" y="773.08" width="20.66" height="7.57"/><rect class="cls-4" x="965.38" y="698.42" width="37.23" height="168.41"/><rect class="cls-5" x="972.03" y="708.44" width="10.33" height="5.32"/><rect class="cls-5" x="985.63" y="708.44" width="10.33" height="5.32"/><rect class="cls-5" x="972.03" y="718.67" width="10.33" height="5.32"/><rect class="cls-5" x="985.63" y="718.67" width="10.33" height="5.32"/><rect class="cls-5" x="972.03" y="728.9" width="10.33" height="5.32"/><rect class="cls-5" x="985.63" y="728.9" width="10.33" height="5.32"/><rect class="cls-5" x="972.03" y="739.12" width="10.33" height="5.32"/><rect class="cls-5" x="985.63" y="739.12" width="10.33" height="5.32"/><rect class="cls-5" x="972.03" y="749.35" width="10.33" height="5.32"/><rect class="cls-5" x="985.63" y="749.35" width="10.33" height="5.32"/><rect class="cls-5" x="972.03" y="759.58" width="10.33" height="5.32"/><rect class="cls-5" x="985.63" y="759.58" width="10.33" height="5.32"/><rect class="cls-5" x="972.03" y="769.81" width="10.33" height="5.32"/><rect class="cls-5" x="985.63" y="769.81" width="10.33" height="5.32"/><rect class="cls-5" x="972.03" y="780.04" width="10.33" height="5.32"/><rect class="cls-5" x="985.63" y="780.04" width="10.33" height="5.32"/><rect class="cls-5" x="972.03" y="790.26" width="10.33" height="5.32"/><rect class="cls-5" x="985.63" y="790.26" width="10.33" height="5.32"/><rect class="cls-5" x="972.03" y="800.49" width="10.33" height="5.32"/><rect class="cls-5" x="985.63" y="800.49" width="10.33" height="5.32"/><rect class="cls-4" x="968.31" y="695.62" width="30.89" height="7.3"/><rect class="cls-4" x="973.77" y="685.53" width="25.16" height="15.34"/><rect class="cls-4" x="977.72" y="683.82" width="21.21" height="3.95"/><rect class="cls-4" x="1000.29" y="747.31" width="5.18" height="119.52"/><rect class="cls-4" x="1004.11" y="731.26" width="49.91" height="135.57"/><rect class="cls-4" x="1007.93" y="724.6" width="23.59" height="13.84"/><rect class="cls-4" x="1037.8" y="722.83" width="8.28" height="12.64"/><rect class="cls-4" x="1047.12" y="728.47" width="4.59" height="7"/><rect class="cls-4" x="881.65" y="734.76" width="41.19" height="132.07"/><rect class="cls-4" x="889.29" y="732.17" width="31.37" height="9.61"/><rect class="cls-4" x="900.47" y="729.51" width="15.82" height="7.47"/><rect class="cls-5" x="890.28" y="744.85" width="10.33" height="5.32"/><rect class="cls-5" x="903.88" y="744.85" width="10.33" height="5.32"/><rect class="cls-5" x="890.28" y="755.08" width="10.33" height="5.32"/><rect class="cls-5" x="903.88" y="755.08" width="10.33" height="5.32"/><rect class="cls-5" x="890.28" y="765.31" width="10.33" height="5.32"/><rect class="cls-5" x="903.88" y="765.31" width="10.33" height="5.32"/><rect class="cls-5" x="890.28" y="775.54" width="10.33" height="5.32"/><rect class="cls-5" x="903.88" y="775.54" width="10.33" height="5.32"/><rect class="cls-4" x="856.56" y="803.77" width="36.82" height="63.06"/><rect class="cls-4" x="858.09" y="799.57" width="26.8" height="10.43"/><rect class="cls-4" x="862.9" y="795.48" width="16.57" height="7.16"/><rect class="cls-4" x="869.85" y="792.92" width="5.11" height="3.89"/></g><g class="cls-3"><rect class="cls-4" x="0.41" y="729.09" width="36.82" height="136.43"/><rect class="cls-4" x="2.86" y="710.61" width="31.91" height="29.87"/><rect class="cls-4" x="5.01" y="705.7" width="27.62" height="14.93"/><rect class="cls-4" x="7.21" y="694.65" width="23.22" height="23.22"/><rect class="cls-4" x="11.15" y="688.93" width="15.34" height="11.05"/><rect class="cls-5" x="6.85" y="715.31" width="10.33" height="5.32"/><rect class="cls-5" x="20.46" y="715.31" width="10.33" height="5.32"/><rect class="cls-5" x="6.85" y="725.54" width="10.33" height="5.32"/><rect class="cls-5" x="20.46" y="725.54" width="10.33" height="5.32"/><rect class="cls-5" x="6.85" y="735.77" width="10.33" height="5.32"/><rect class="cls-5" x="20.46" y="735.77" width="10.33" height="5.32"/><rect class="cls-5" x="6.85" y="746" width="10.33" height="5.32"/><rect class="cls-5" x="20.46" y="746" width="10.33" height="5.32"/><rect class="cls-5" x="6.85" y="756.23" width="10.33" height="5.32"/><rect class="cls-5" x="20.46" y="756.23" width="10.33" height="5.32"/><rect class="cls-5" x="6.85" y="766.46" width="10.33" height="5.32"/><rect class="cls-5" x="20.46" y="766.46" width="10.33" height="5.32"/><rect class="cls-5" x="6.85" y="776.68" width="10.33" height="5.32"/><rect class="cls-5" x="20.46" y="776.68" width="10.33" height="5.32"/><rect class="cls-5" x="6.85" y="786.91" width="10.33" height="5.32"/><rect class="cls-5" x="20.46" y="786.91" width="10.33" height="5.32"/><rect class="cls-5" x="6.85" y="797.14" width="10.33" height="5.32"/><rect class="cls-5" x="20.46" y="797.14" width="10.33" height="5.32"/><rect class="cls-5" x="6.85" y="807.37" width="10.33" height="5.32"/><rect class="cls-5" x="20.46" y="807.37" width="10.33" height="5.32"/><rect class="cls-4" x="247.81" y="797.14" width="85.37" height="68.38"/><rect class="cls-4" x="215.62" y="802.46" width="36.82" height="63.06"/><rect class="cls-4" x="217.16" y="798.27" width="26.8" height="10.43"/><rect class="cls-4" x="221.96" y="794.17" width="16.57" height="7.16"/><rect class="cls-4" x="228.92" y="791.62" width="5.11" height="3.89"/><rect class="cls-4" x="260.49" y="729.09" width="36.82" height="136.43"/><rect class="cls-4" x="262.94" y="710.61" width="31.91" height="29.87"/><rect class="cls-4" x="265.09" y="705.7" width="27.62" height="14.93"/><rect class="cls-4" x="267.29" y="694.65" width="23.22" height="23.22"/><rect class="cls-4" x="271.23" y="688.93" width="15.34" height="11.05"/><rect class="cls-4" x="274.4" y="661.31" width="9" height="35.8"/><rect class="cls-4" x="277.16" y="618.05" width="3.48" height="46.84"/><rect class="cls-4" x="274.4" y="656.09" width="9" height="1.94"/><rect class="cls-5" x="266.93" y="715.31" width="10.33" height="5.32"/><rect class="cls-5" x="280.54" y="715.31" width="10.33" height="5.32"/><rect class="cls-5" x="266.93" y="725.54" width="10.33" height="5.32"/><rect class="cls-5" x="280.54" y="725.54" width="10.33" height="5.32"/><rect class="cls-5" x="266.93" y="735.77" width="10.33" height="5.32"/><rect class="cls-5" x="280.54" y="735.77" width="10.33" height="5.32"/><rect class="cls-5" x="266.93" y="746" width="10.33" height="5.32"/><rect class="cls-5" x="280.54" y="746" width="10.33" height="5.32"/><rect class="cls-5" x="266.93" y="756.23" width="10.33" height="5.32"/><rect class="cls-5" x="280.54" y="756.23" width="10.33" height="5.32"/><rect class="cls-5" x="266.93" y="766.46" width="10.33" height="5.32"/><rect class="cls-5" x="280.54" y="766.46" width="10.33" height="5.32"/><rect class="cls-5" x="266.93" y="776.68" width="10.33" height="5.32"/><rect class="cls-5" x="280.54" y="776.68" width="10.33" height="5.32"/><rect class="cls-5" x="266.93" y="786.91" width="10.33" height="5.32"/><rect class="cls-5" x="280.54" y="786.91" width="10.33" height="5.32"/><rect class="cls-5" x="266.93" y="797.14" width="10.33" height="5.32"/><rect class="cls-5" x="280.54" y="797.14" width="10.33" height="5.32"/><rect class="cls-5" x="266.93" y="807.37" width="10.33" height="5.32"/><rect class="cls-5" x="280.54" y="807.37" width="10.33" height="5.32"/><rect class="cls-4" x="369.72" y="733.45" width="41.19" height="132.07"/><rect class="cls-4" x="377.36" y="730.86" width="31.37" height="9.61"/><rect class="cls-4" x="388.54" y="728.2" width="15.82" height="7.47"/><rect class="cls-5" x="378.35" y="743.54" width="10.33" height="5.32"/><rect class="cls-5" x="391.95" y="743.54" width="10.33" height="5.32"/><rect class="cls-5" x="378.35" y="753.77" width="10.33" height="5.32"/><rect class="cls-5" x="391.95" y="753.77" width="10.33" height="5.32"/><rect class="cls-5" x="378.35" y="764" width="10.33" height="5.32"/><rect class="cls-5" x="391.95" y="764" width="10.33" height="5.32"/><rect class="cls-5" x="378.35" y="774.23" width="10.33" height="5.32"/><rect class="cls-5" x="391.95" y="774.23" width="10.33" height="5.32"/><rect class="cls-4" x="344.63" y="802.46" width="36.82" height="63.06"/><rect class="cls-4" x="346.17" y="798.27" width="26.8" height="10.43"/><rect class="cls-4" x="350.97" y="794.17" width="16.57" height="7.16"/><rect class="cls-4" x="357.93" y="791.62" width="5.11" height="3.89"/><rect class="cls-4" x="306.58" y="781.18" width="34.67" height="84.34"/><rect class="cls-4" x="314.46" y="776.17" width="26.8" height="12.27"/><rect class="cls-4" x="310.57" y="771.77" width="5.01" height="14.11"/><rect class="cls-4" x="317.22" y="771.77" width="20.66" height="7.57"/><rect class="cls-4" x="104.99" y="827.21" width="248.03" height="38.31"/><rect class="cls-4" x="298.4" y="801.33" width="12.17" height="2.97"/><rect class="cls-4" x="300.65" y="802.82" width="7.57" height="48.79"/><rect class="cls-4" x="298.4" y="810.03" width="14.68" height="48.54"/><rect class="cls-4" x="104.99" y="781.18" width="34.67" height="84.34"/><rect class="cls-4" x="112.86" y="776.17" width="26.8" height="12.27"/><rect class="cls-4" x="108.98" y="771.77" width="5.01" height="14.11"/><rect class="cls-4" x="115.62" y="771.77" width="20.66" height="7.57"/><rect class="cls-4" x="203.84" y="827.21" width="248.03" height="38.31"/><rect class="cls-4" x="424.61" y="781.18" width="34.67" height="84.34"/><rect class="cls-4" x="432.49" y="776.17" width="26.8" height="12.27"/><rect class="cls-4" x="428.6" y="771.77" width="5.01" height="14.11"/><rect class="cls-4" x="435.25" y="771.77" width="20.66" height="7.57"/><rect class="cls-4" x="146.02" y="697.11" width="37.23" height="168.41"/><rect class="cls-5" x="152.67" y="707.13" width="10.33" height="5.32"/><rect class="cls-5" x="166.27" y="707.13" width="10.33" height="5.32"/><rect class="cls-5" x="152.67" y="717.36" width="10.33" height="5.32"/><rect class="cls-5" x="166.27" y="717.36" width="10.33" height="5.32"/><rect class="cls-5" x="152.67" y="727.59" width="10.33" height="5.32"/><rect class="cls-5" x="166.27" y="727.59" width="10.33" height="5.32"/><rect class="cls-5" x="152.67" y="737.82" width="10.33" height="5.32"/><rect class="cls-5" x="166.27" y="737.82" width="10.33" height="5.32"/><rect class="cls-5" x="152.67" y="748.04" width="10.33" height="5.32"/><rect class="cls-5" x="166.27" y="748.04" width="10.33" height="5.32"/><rect class="cls-5" x="152.67" y="758.27" width="10.33" height="5.32"/><rect class="cls-5" x="166.27" y="758.27" width="10.33" height="5.32"/><rect class="cls-5" x="152.67" y="768.5" width="10.33" height="5.32"/><rect class="cls-5" x="166.27" y="768.5" width="10.33" height="5.32"/><rect class="cls-5" x="152.67" y="778.73" width="10.33" height="5.32"/><rect class="cls-5" x="166.27" y="778.73" width="10.33" height="5.32"/><rect class="cls-5" x="152.67" y="788.96" width="10.33" height="5.32"/><rect class="cls-5" x="166.27" y="788.96" width="10.33" height="5.32"/><rect class="cls-5" x="152.67" y="799.19" width="10.33" height="5.32"/><rect class="cls-5" x="166.27" y="799.19" width="10.33" height="5.32"/><rect class="cls-4" x="148.95" y="694.31" width="30.89" height="7.3"/><rect class="cls-4" x="154.41" y="684.22" width="25.16" height="15.34"/><rect class="cls-4" x="158.36" y="682.52" width="21.21" height="3.95"/><rect class="cls-4" x="180.93" y="746" width="5.18" height="119.52"/><rect class="cls-4" x="184.75" y="729.95" width="49.91" height="135.57"/><rect class="cls-4" x="188.57" y="723.29" width="23.59" height="13.84"/><rect class="cls-4" x="218.43" y="721.52" width="8.28" height="12.64"/><rect class="cls-4" x="227.76" y="727.17" width="4.59" height="7"/><rect class="cls-4" x="62.29" y="733.45" width="41.19" height="132.07"/><rect class="cls-4" x="69.92" y="730.86" width="31.37" height="9.61"/><rect class="cls-4" x="81.11" y="728.2" width="15.82" height="7.47"/><rect class="cls-5" x="70.91" y="743.54" width="10.33" height="5.32"/><rect class="cls-5" x="84.52" y="743.54" width="10.33" height="5.32"/><rect class="cls-5" x="70.91" y="753.77" width="10.33" height="5.32"/><rect class="cls-5" x="84.52" y="753.77" width="10.33" height="5.32"/><rect class="cls-5" x="70.91" y="764" width="10.33" height="5.32"/><rect class="cls-5" x="84.52" y="764" width="10.33" height="5.32"/><rect class="cls-5" x="70.91" y="774.23" width="10.33" height="5.32"/><rect class="cls-5" x="84.52" y="774.23" width="10.33" height="5.32"/><rect class="cls-4" x="37.19" y="802.46" width="36.82" height="63.06"/><rect class="cls-4" x="38.73" y="798.27" width="26.8" height="10.43"/><rect class="cls-4" x="43.54" y="794.17" width="16.57" height="7.16"/><rect class="cls-4" x="50.49" y="791.62" width="5.11" height="3.89"/></g><line class="cls-6" x1="642.1" y1="63.69" x2="639.9" y2="23.8"/></g></g></g></svg>